<?xml version="1.0" encoding="UTF-8" standalone="no"?>
<svg
   width="284"
   height="148"
   version="1.1"
   id="svg5462"
   sodipodi:docname="application-x-ruby.svg"
   inkscape:version="1.2.2 (1:1.2.2+202305151914+b0a8486541)"
   xmlns:inkscape="http://www.inkscape.org/namespaces/inkscape"
   xmlns:sodipodi="http://sodipodi.sourceforge.net/DTD/sodipodi-0.dtd"
   xmlns="http://www.w3.org/2000/svg"
   xmlns:svg="http://www.w3.org/2000/svg">
  <defs
     id="defs5466" />
  <sodipodi:namedview
     id="namedview5464"
     pagecolor="#d2d2d2"
     bordercolor="#000000"
     borderopacity="0.25"
     inkscape:showpageshadow="2"
     inkscape:pageopacity="0"
     inkscape:pagecheckerboard="0"
     inkscape:deskcolor="#d2d2d2"
     showgrid="false"
     inkscape:zoom="4.6267606"
     inkscape:cx="142"
     inkscape:cy="73.917808"
     inkscape:window-width="1920"
     inkscape:window-height="1008"
     inkscape:window-x="0"
     inkscape:window-y="0"
     inkscape:window-maximized="1"
     inkscape:current-layer="svg5462"
     showborder="false"
     showguides="true" />
  <g
     id="Baseplate"
     transform="translate(160,10)"
     style="display:none">
    <text
       xml:space="preserve"
       style="font-size:12px;font-family:'Noto Sans';-inkscape-font-specification:'Noto Sans';text-align:end;text-anchor:end;opacity:1;fill:#000000;stroke-width:5;stroke-linecap:round;stroke-linejoin:round"
       x="71.631897"
       y="-0.48000813"
       id="context"
       transform="translate(-160,-10)"><tspan
         sodipodi:role="line"
         id="tspan1976"
         x="71.631897"
         y="-0.48000813"
         style="font-size:12px">mimetypes</tspan></text>
    <text
       xml:space="preserve"
       style="font-size:12px;font-family:'Noto Sans';-inkscape-font-specification:'Noto Sans';text-align:start;text-anchor:start;fill:#000000;stroke-width:5;stroke-linecap:round;stroke-linejoin:round"
       x="-74.127937"
       y="-10.480008"
       id="icon-name"><tspan
         sodipodi:role="line"
         id="tspan1976-6"
         x="-74.127937"
         y="-10.480008"
         style="font-style:normal;font-variant:normal;font-weight:bold;font-stretch:normal;font-size:12px;font-family:'Noto Sans';-inkscape-font-specification:'Noto Sans Bold';text-align:start;text-anchor:start">application-x-ruby</tspan></text>
    <rect
       style="opacity:1;fill:#ffffff;stroke-width:5;stroke-linecap:round;stroke-linejoin:round"
       id="128x128"
       width="128"
       height="128"
       x="-150"
       y="0" />
    <rect
       style="opacity:1;fill:#ffffff;stroke-width:5;stroke-linecap:round;stroke-linejoin:round"
       id="64x64"
       width="64"
       height="64"
       x="0"
       y="0" />
    <rect
       style="opacity:1;fill:#ffffff;stroke-width:5;stroke-linecap:round;stroke-linejoin:round"
       id="48x48"
       width="48"
       height="48"
       x="0"
       y="80" />
    <rect
       style="opacity:1;fill:#ffffff;stroke-width:1.66667;stroke-linecap:round;stroke-linejoin:round"
       id="32x32"
       width="32"
       height="32"
       x="82"
       y="0" />
    <rect
       style="opacity:1;fill:#ffffff;stroke-width:5;stroke-linecap:round;stroke-linejoin:round"
       id="24x24"
       width="24"
       height="24"
       x="82"
       y="44" />
    <rect
       style="opacity:1;fill:#ffffff;stroke-width:5;stroke-linecap:round;stroke-linejoin:round"
       id="16x16"
       width="16"
       height="16"
       x="82"
       y="80" />
  </g>
  <g
     id="g1767">
    <path
       d="m 247,56.5 c -0.554,0 -1,0.446 -1,1 v 18 c 0,0.554 0.446,1 1,1 h 14 c 0.554,0 1,-0.446 1,-1 v -13 L 256.5,62 256,56.5 Z"
       style="opacity:0.2;fill:#000000"
       id="path3101" />
    <path
       d="M 248.375,13 C 247.61325,13 247,13.6244 247,14.4 v 25.2 c 0,0.77504 0.61325,1.4 1.375,1.4 h 19.25 C 268.3862,41 269,40.37504 269,39.6 V 22 l -7,-2 -2,-7 z"
       style="opacity:0.2;fill:#000000"
       id="path1417" />
    <path
       d="m 170,95 c -1.108,0 -2,0.892 -2,2 v 36 c 0,1.108 0.892,2 2,2 h 28 c 1.108,0 2,-0.892 2,-2 v -26 l -11,-1 -1,-11 z"
       style="opacity:0.2;fill:#000000"
       id="path1626" />
    <path
       style="opacity:0.2;fill:#000000"
       d="m 172.75,15 c -1.5235,0 -2.75,1.2488 -2.75,2.8 v 50.4 c 0,1.55008 1.2265,2.8 2.75,2.8 h 38.5 c 1.5224,0 2.75,-1.24992 2.75,-2.8 V 33 l -14,-4 -4,-14 z"
       id="path5450" />
    <path
       d="m 35.499997,19 c -3.047,0 -5.5,2.4976 -5.5,5.6 v 100.8 c 0,3.10017 2.453,5.6 5.5,5.6 H 112.5 c 3.0448,0 5.5,-2.49984 5.5,-5.6 V 50.999999 l -24,-8 L 86,19 Z"
       style="fill:#000000;stroke-width:2;opacity:0.2"
       id="path1820" />
  </g>
  <g
     id="g1733">
    <path
       d="M 248.375,12 C 247.61325,12 247,12.6244 247,13.4 v 25.2 c 0,0.77504 0.61325,1.4 1.375,1.4 h 19.25 C 268.3862,40 269,39.37504 269,38.6 V 20 l -6,-2 -2,-6 z"
       style="fill:#e4e4e4;fill-opacity:1"
       id="path1333"
       sodipodi:nodetypes="sssssscccs" />
    <path
       d="m 247,56 c -0.554,0 -1,0.446 -1,1 v 18 c 0,0.554 0.446,1 1,1 h 14 c 0.554,0 1,-0.446 1,-1 V 62 L 256.5,61.5 256,56 Z"
       style="fill:#e4e4e4"
       id="path3073"
       sodipodi:nodetypes="sssssscccs" />
    <path
       d="m 244.75,91 c -0.4172,0 -0.75,0.3328 -0.75,0.75 v 13.5 c 0,0.417 0.3328,0.75 0.75,0.75 h 10.5 c 0.418,0 0.75,-0.332 0.75,-0.75 V 94.9995 L 252.8755,94.1245 252.0005,91 Z"
       style="fill:#e4e4e4"
       id="path3473"
       sodipodi:nodetypes="sssssscccs" />
    <path
       d="m 170,94 c -1.108,0 -2,0.892 -2,2 v 36 c 0,1.108 0.892,2 2,2 h 28 c 1.108,0 2,-0.892 2,-2 v -26 l -11,-1 -1,-11 z"
       style="fill:#e4e4e4;fill-opacity:1"
       id="path1598" />
    <path
       style="fill:#e4e4e4;fill-opacity:1"
       d="m 172.75,14 c -1.5235,0 -2.75,1.2488 -2.75,2.8 v 50.4 c 0,1.55008 1.2265,2.8 2.75,2.8 h 38.5 c 1.5224,0 2.75,-1.24992 2.75,-2.8 V 30 l -12,-4 -4,-12 z"
       id="path5452"
       sodipodi:nodetypes="sssssscccs" />
    <path
       d="M 35.5,18 C 32.453,18 30,20.4976 30,23.6 v 100.8 c 0,3.10016 2.453,5.6 5.5,5.6 h 77 c 3.0448,0 5.5,-2.49984 5.5,-5.6 V 49.999999 l -24,-8 L 86,18 Z"
       style="fill:#e4e4e4;stroke-width:2;fill-opacity:1"
       id="path1792"
       sodipodi:nodetypes="sssssscccs" />
  </g>
  <g
     id="g10269">
    <g
       id="g10272">
      <path
         d="m 249.5,97.00007 c -0.1326,2.6e-5 -0.25976,0.05272 -0.35352,0.146484 l -3,2.999996 c -0.0938,0.0937 -0.14644,0.22091 -0.14648,0.35351 v 3 c 4e-5,0.27614 0.22387,0.49998 0.5,0.5 h 6 c 0.0137,-0.0123 0.0268,-0.0253 0.0391,-0.0391 0.2183,-0.0321 0.38973,-0.20357 0.42187,-0.42187 0.0137,-0.0123 0.0268,-0.0253 0.0391,-0.0391 V 97.5 c -3e-5,-0.276131 -0.22387,-0.499972 -0.5,-0.5 z m 0.20703,1 h 1.58594 l -1.14649,1.14648 -2,2 L 247,102.29303 V 100.7071 Z M 252,98.707103 v 2.675777 l -0.89258,-1.78321 z m -1.63672,1.636707 1.01953,2.03907 -2.03906,-1.01953 z m -1.76366,1.76368 1.78319,0.89257 h -2.67578 z"
         style="color:#000000;fill:#f44336;fill-opacity:1;stroke:none;stroke-linejoin:round;-inkscape-stroke:none"
         id="path6408" />
    </g>
    <g
       id="g10276">
      <path
         d="m 253.5,65.500005 c -0.1326,2.5e-5 -0.25976,0.05272 -0.35352,0.146484 l -4,4 c -0.0938,0.09376 -0.14645,0.220916 -0.14648,0.353516 v 4 c 3e-5,0.276131 0.22387,0.499972 0.5,0.5 h 8 c 0.0137,-0.01229 0.0268,-0.02533 0.0391,-0.03906 0.2183,-0.03214 0.38973,-0.203572 0.42187,-0.421875 0.0137,-0.01229 0.0268,-0.02533 0.0391,-0.03907 v -8 c -3e-5,-0.276131 -0.22387,-0.499972 -0.5,-0.5 z m 0.5,1 h 2.29297 L 254.64648,68.146489 254,68.792974 Z m -1,0.707031 v 2.292969 h -2.29297 z m 4,0 v 4.484375 l -1.40234,-3.082031 z m -2.15625,2.15625 1.64844,3.628906 -3.62891,-1.648437 z M 250,70.500005 h 2.29297 L 251.64648,71.146489 250,72.792974 Z m 2.10937,1.597656 3.08204,1.402344 h -4.48438 z"
         style="color:#000000;fill:#000000;stroke:none;stroke-linejoin:round;-inkscape-stroke:none;opacity:0.2"
         id="path7844"
         sodipodi:nodetypes="ccccccccccccccccccccccccccccccccccccccc" />
      <path
         d="m 253.5,65 c -0.1326,2.5e-5 -0.25976,0.05272 -0.35352,0.146484 l -4,4 C 249.05268,69.240244 249.00003,69.3674 249,69.5 v 4 c 3e-5,0.276131 0.22387,0.499972 0.5,0.5 h 8 c 0.0137,-0.01229 0.0268,-0.02533 0.0391,-0.03906 0.2183,-0.03214 0.38973,-0.203572 0.42187,-0.421875 0.0137,-0.01229 0.0268,-0.02533 0.0391,-0.03907 v -8 c -3e-5,-0.276131 -0.22387,-0.499972 -0.5,-0.5 z m 0.5,1 h 2.29297 L 254.64648,67.646484 254,68.292969 Z m -1,0.707031 V 69 h -2.29297 z m 4,0 v 4.484375 l -1.40234,-3.082031 z m -2.15625,2.15625 1.64844,3.628906 -3.62891,-1.648437 z M 250,70 h 2.29297 L 251.64648,70.646484 250,72.292969 Z m 2.10937,1.597656 L 255.19141,73 h -4.48438 z"
         style="color:#000000;fill:#f44336;stroke:none;stroke-linejoin:round;-inkscape-stroke:none;fill-opacity:1"
         id="path7872" />
    </g>
    <g
       id="g10280">
      <path
         d="m 257.5,26.000005 c -0.1326,2.5e-5 -0.25976,0.05272 -0.35352,0.146484 l -5,5 c -0.0938,0.09376 -0.14646,0.220916 -0.14648,0.353516 v 5 c 3e-5,0.276131 0.22387,0.499972 0.5,0.5 h 10 c 0.0137,-0.01229 0.0268,-0.02533 0.0391,-0.03906 0.2183,-0.03214 0.38973,-0.203572 0.42187,-0.421875 0.0137,-0.01229 0.0268,-0.02533 0.0391,-0.03907 v -10 c -3e-5,-0.276131 -0.22387,-0.499972 -0.5,-0.5 z m 0.5,1 h 3.29297 L 259.14648,29.146489 258,30.292974 Z m -1,0.707031 v 3.292969 h -3.29297 z m 5,0 v 6.357422 l -1.9082,-4.449219 z m -2.66797,2.667969 2.2168,5.173828 -5.17383,-2.216797 z M 253,32.000005 h 3.29297 L 255.14648,33.146489 253,35.292974 Z m 2.61523,2.091797 4.44922,1.908203 h -6.35742 z"
         style="color:#000000;fill:#000000;stroke:none;stroke-linejoin:round;-inkscape-stroke:none;opacity:0.2"
         id="path8964"
         sodipodi:nodetypes="ccccccccccccccccccccccccccccccccccccccc" />
      <path
         d="m 257.5,25.000005 c -0.1326,2.5e-5 -0.25976,0.05272 -0.35352,0.146484 l -5,5 c -0.0938,0.09376 -0.14646,0.220916 -0.14648,0.353516 v 5 c 3e-5,0.276131 0.22387,0.499972 0.5,0.5 h 10 c 0.0137,-0.01229 0.0268,-0.02533 0.0391,-0.03906 0.2183,-0.03214 0.38973,-0.203572 0.42187,-0.421875 0.0137,-0.01229 0.0268,-0.02533 0.0391,-0.03907 v -10 c -3e-5,-0.276131 -0.22387,-0.499972 -0.5,-0.5 z m 0.5,1 h 3.29297 L 259.14648,28.146489 258,29.292974 Z m -1,0.707031 v 3.292969 h -3.29297 z m 5,0 v 6.357422 l -1.9082,-4.449219 z m -2.66797,2.667969 2.2168,5.173828 -5.17383,-2.216797 z M 253,31.000005 h 3.29297 L 255.14648,32.146489 253,34.292974 Z m 2.61523,2.091797 4.44922,1.908203 h -6.35742 z"
         style="color:#000000;fill:#f44336;fill-opacity:1;stroke:none;stroke-linejoin:round;-inkscape-stroke:none"
         id="path8992"
         sodipodi:nodetypes="ccccccccccccccccccccccccccccccccccccccc" />
    </g>
    <g
       id="g10284">
      <path
         d="m 184,112 c -0.2652,5e-5 -0.51952,0.10543 -0.70703,0.29297 l -8,8 C 175.10543,120.48048 175.00005,120.7348 175,121 v 8 c 5e-5,0.55226 0.44774,0.99994 1,1 h 16 c 0.0275,-0.0246 0.0536,-0.0507 0.0781,-0.0781 0.4366,-0.0643 0.77946,-0.40714 0.84375,-0.84375 0.0275,-0.0246 0.0535,-0.0507 0.0781,-0.0781 v -16 c -6e-5,-0.55226 -0.44774,-0.99994 -1,-1 z m 1,2 h 4.58594 l -3.29297,3.29297 L 185,118.58594 Z m -2,1.41406 V 120 h -4.58594 z m 8,0 v 8.96875 l -2.80273,-6.16601 z m -4.3125,4.3125 3.29883,7.25977 -7.25977,-3.29883 z M 177,122 h 4.58594 l -1.29297,1.29297 L 177,126.58594 Z m 4.2168,3.19727 6.16601,2.80273 h -8.96875 z"
         style="color:#000000;opacity:0.2;fill:#000000;stroke:none;stroke-linejoin:round;-inkscape-stroke:none"
         id="path9828" />
      <path
         d="m 184,111 c -0.2652,5e-5 -0.51952,0.10543 -0.70703,0.29297 l -8,8 C 175.10543,119.48048 175.00005,119.7348 175,120 v 8 c 5e-5,0.55226 0.44774,0.99994 1,1 h 16 c 0.0275,-0.0246 0.0536,-0.0507 0.0781,-0.0781 0.4366,-0.0643 0.77946,-0.40714 0.84375,-0.84375 0.0275,-0.0246 0.0535,-0.0507 0.0781,-0.0781 v -16 c -6e-5,-0.55226 -0.44774,-0.99994 -1,-1 z m 1,2 h 4.58594 l -3.29297,3.29297 L 185,117.58594 Z m -2,1.41406 V 119 h -4.58594 z m 8,0 v 8.96875 l -2.80273,-6.16601 z m -4.3125,4.3125 3.29883,7.25977 -7.25977,-3.29883 z M 177,121 h 4.58594 l -1.29297,1.29297 L 177,125.58594 Z m 4.2168,3.19727 6.16601,2.80273 h -8.96875 z"
         style="color:#000000;fill:#f44336;fill-opacity:1;stroke:none;stroke-linejoin:round;-inkscape-stroke:none"
         id="path9800"
         sodipodi:nodetypes="ccccccccccccccccccccccccccccccccccccccc" />
    </g>
    <g
       id="g11059">
      <path
         d="m 192,41 c -0.2652,5.1e-5 -0.51952,0.105433 -0.70703,0.292969 l -10,10 C 181.10543,51.480481 181.00005,51.734801 181,52 v 10 c 5e-5,0.552262 0.44774,0.999945 1,1 h 20 c 0.0267,-0.024 0.0522,-0.04943 0.0762,-0.07617 0.43935,-0.06314 0.78451,-0.408308 0.84766,-0.847656 0.0267,-0.024 0.0522,-0.04943 0.0762,-0.07617 v -20 c -6e-5,-0.552262 -0.44774,-0.999945 -1,-1 z m 1,2 h 6.58594 L 195.29297,47.292969 193,49.585937 Z m -2,1.414062 V 51 h -6.58594 z m 10,0 V 57.125 l -3.8125,-8.898438 z m -5.33789,5.337891 4.43164,10.341797 -10.3418,-4.431641 z M 183,53 h 6.58594 L 187.29297,55.292969 183,59.585937 Z m 5.22656,4.1875 L 197.125,61 h -12.71094 z"
         style="color:#000000;opacity:0.2;fill:#000000;fill-opacity:1;stroke:none;stroke-linejoin:round;-inkscape-stroke:none"
         id="path10463"
         sodipodi:nodetypes="ccccccccccccccccccccccccccccccccccccccc" />
      <path
         d="m 192,40 c -0.2652,5.1e-5 -0.51952,0.105433 -0.70703,0.292969 l -10,10 C 181.10543,50.480481 181.00005,50.734801 181,51 v 10 c 5e-5,0.552262 0.44774,0.999945 1,1 h 20 c 0.0267,-0.024 0.0522,-0.04943 0.0762,-0.07617 0.43935,-0.06314 0.78451,-0.408308 0.84766,-0.847656 0.0267,-0.024 0.0522,-0.04943 0.0762,-0.07617 v -20 c -6e-5,-0.552262 -0.44774,-0.999945 -1,-1 z m 1,2 h 6.58594 L 195.29297,46.292969 193,48.585937 Z m -2,1.414062 V 50 h -6.58594 z m 10,0 V 56.125 l -3.8125,-8.898438 z m -5.33789,5.337891 4.43164,10.341797 -10.3418,-4.431641 z M 183,52 h 6.58594 L 187.29297,54.292969 183,58.585937 Z m 5.22656,4.1875 L 197.125,60 h -12.71094 z"
         style="color:#000000;fill:#f44336;fill-opacity:1;stroke:none;stroke-linejoin:round;-inkscape-stroke:none"
         id="path10923"
         sodipodi:nodetypes="ccccccccccccccccccccccccccccccccccccccc" />
    </g>
    <g
       id="g11055">
      <path
         d="m 74,71 c -0.5304,1.02e-4 -1.03904,0.210866 -1.41406,0.585938 l -20,20.000002 C 52.21086,91.96096 52.0001,92.4696 52,93 v 20 c 1e-4,1.10452 0.89548,1.99989 2,2 h 40 c 0.0534,-0.048 0.1044,-0.0989 0.1524,-0.15234 0.8787,-0.12628 1.56902,-0.81662 1.69532,-1.69531 0.0534,-0.048 0.1044,-0.0989 0.1524,-0.15234 V 73.000008 c -1.2e-4,-1.104524 -0.89548,-1.99989 -2,-2 z m 2,4 H 89.17188 L 80.58594,83.58594 76,88.17187 Z m -4,2.828124 V 91 H 58.82812 Z m 20,0 V 103.25 L 84.375,85.45312 Z M 81.32422,88.50391 90.1875,109.1875 69.5039,100.32422 Z M 56,95 H 69.17188 L 64.58594,99.58594 56,108.17187 Z M 66.45312,103.375 84.25,111 H 58.82812 Z"
         style="color:#000000;opacity:0.2;fill:#000000;fill-opacity:1;stroke:none;stroke-width:2;stroke-linejoin:round;-inkscape-stroke:none"
         id="path10951" />
      <path
         d="m 74,70 c -0.5304,1.02e-4 -1.03904,0.210866 -1.41406,0.585938 l -20,20.000002 C 52.21086,90.96096 52.0001,91.4696 52,92 v 20 c 1e-4,1.10452 0.89548,1.99989 2,2 h 40 c 0.0534,-0.048 0.1044,-0.0989 0.1524,-0.15234 0.8787,-0.12628 1.56902,-0.81662 1.69532,-1.69531 0.0534,-0.048 0.1044,-0.0989 0.1524,-0.15234 V 72.000008 c -1.2e-4,-1.104524 -0.89548,-1.99989 -2,-2 z m 2,4 H 89.17188 L 80.58594,82.585938 76,87.17187 Z m -4,2.828124 V 90 H 58.82812 Z m 20,0 V 102.25 L 84.375,84.45312 Z M 81.32422,87.50391 90.1875,108.1875 69.5039,99.32422 Z M 56,94 H 69.17188 L 64.58594,98.58594 56,107.17187 Z M 66.45312,102.375 84.25,110 H 58.82812 Z"
         style="color:#000000;fill:#f44336;fill-opacity:1;stroke:none;stroke-width:2;stroke-linejoin:round;-inkscape-stroke:none"
         id="path10979" />
    </g>
  </g>
  <g
     id="g1758">
    <path
       d="m 256,56.5 v 5 c 0,0.5523 0.44771,1 1,1 h 5 z"
       style="opacity:0.2;fill:#000000;fill-opacity:1;stroke-width:0.5"
       id="path3295" />
    <path
       d="m 269,21 -8,-8 v 6.59375 C 261,20.373375 261.62775,21 262.40625,21 Z"
       style="opacity:0.2;fill:#000000"
       id="path1389"
       sodipodi:nodetypes="ccssc" />
    <path
       d="m 188,95 v 10 c 0,1.1046 0.89543,2 2,2 h 10 z"
       style="opacity:0.2"
       id="path1654"
       sodipodi:nodetypes="csscc" />
    <path
       style="opacity:0.2;fill:#000000"
       d="M 214,31 198,15 V 28.1875 C 198,29.74675 199.2555,31 200.8125,31 Z"
       id="path5454"
       sodipodi:nodetypes="ccssc" />
    <path
       d="M 118,51 86,19 V 45.375 C 86,48.4935 88.511,51 91.625,51 Z"
       style="opacity:0.2;fill:#000000;stroke-width:2"
       id="path1904" />
  </g>
  <g
     id="g1741">
    <path
       d="m 247,56 c -0.554,0 -1,0.446 -1,1 v 0.5 c 0,-0.554 0.446,-1 1,-1 h 9 l 5.5,5.500005 H 262 L 256,56 Z"
       style="opacity:0.2;fill:#ffffff;stroke-width:0.5"
       id="path3323" />
    <path
       d="M 248.375,12 C 247.61325,12 247,12.624791 247,13.400391 v 1 C 247,13.624791 247.61325,13 248.375,13 H 261 l 7.00044,7 H 269 l -8,-8 z"
       style="opacity:0.2;fill:#ffffff"
       id="path1445"
       sodipodi:nodetypes="sscsccccs" />
    <path
       d="m 170,94 c -1.108,0 -2,0.892 -2,2 v 1 c 0,-1.108 0.892,-2 2,-2 h 18 l 11,11.00001 h 1 L 188,94 Z"
       style="opacity:0.2;fill:#ffffff"
       id="path1710"
       sodipodi:nodetypes="sscsccccs" />
    <path
       style="opacity:0.2;fill:#ffffff"
       d="m 172.75,14 c -1.5235,0 -2.75,1.249581 -2.75,2.800781 v 1 C 170,16.249581 171.2265,15 172.75,15 H 198 l 15,15 h 1 L 198,14 Z"
       id="path5458"
       sodipodi:nodetypes="sscsccccs" />
    <path
       d="M 35.5,18 C 32.453,18 30,20.499162 30,23.601562 v 1 C 30,21.499162 32.453,19 35.5,19 H 86 L 117,49.999999 118,50 86,18 Z"
       style="opacity:0.2;fill:#ffffff;stroke-width:2"
       id="path1848"
       sodipodi:nodetypes="sscsccccs" />
  </g>
  <g
     id="g1753">
    <path
       d="m 256,56 v 5 c 0,0.5523 0.44771,1 1,1 h 5 z"
       style="opacity:1;fill:#fafafa;fill-opacity:1;stroke-width:0.5"
       id="path3129"
       sodipodi:nodetypes="csscc" />
    <path
       d="m 269,20 -8,-8 v 6.59375 C 261,19.373375 261.62775,20 262.40625,20 Z"
       style="fill:#fafafa;fill-opacity:1"
       id="path1361"
       sodipodi:nodetypes="ccssc" />
    <path
       d="m 188,94 v 10 c 0,1.1046 0.89543,2 2,2 h 10 z"
       style="fill:#fafafa;fill-opacity:1"
       id="path1682" />
    <path
       d="m 252.0005,91 v 3.1662 c 0,0.4584 0.3749,0.8333 0.8333,0.8333 H 256 Z"
       style="fill:#fafafa"
       id="path3501"
       sodipodi:nodetypes="csscc" />
    <path
       style="fill:#fafafa;fill-opacity:1"
       d="M 214,30 198,14 V 27.1875 C 198,28.74675 199.2555,30 200.8125,30 Z"
       id="path5456"
       sodipodi:nodetypes="ccssc" />
    <path
       d="M 118,50 86,18 V 44.375 C 86,47.4935 88.511,50 91.625,50 Z"
       style="fill:#fafafa;stroke-width:2;fill-opacity:1"
       id="path1876" />
  </g>
</svg>
