<?xml version="1.0" encoding="UTF-8" standalone="no"?>
<svg
   width="284"
   height="148"
   version="1.1"
   id="svg5462"
   sodipodi:docname="application-x-trash.svg"
   inkscape:version="1.2.2 (1:1.2.2+202305151914+b0a8486541)"
   xmlns:inkscape="http://www.inkscape.org/namespaces/inkscape"
   xmlns:sodipodi="http://sodipodi.sourceforge.net/DTD/sodipodi-0.dtd"
   xmlns="http://www.w3.org/2000/svg"
   xmlns:svg="http://www.w3.org/2000/svg">
  <defs
     id="defs5466" />
  <sodipodi:namedview
     id="namedview5464"
     pagecolor="#d2d2d2"
     bordercolor="#000000"
     borderopacity="0.25"
     inkscape:showpageshadow="2"
     inkscape:pageopacity="0"
     inkscape:pagecheckerboard="0"
     inkscape:deskcolor="#d2d2d2"
     showgrid="false"
     inkscape:zoom="4.5985915"
     inkscape:cx="142"
     inkscape:cy="73.935681"
     inkscape:window-width="1920"
     inkscape:window-height="1008"
     inkscape:window-x="0"
     inkscape:window-y="0"
     inkscape:window-maximized="1"
     inkscape:current-layer="g7110"
     showborder="false"
     showguides="true" />
  <g
     id="Baseplate"
     transform="translate(160,10)"
     style="display:none">
    <text
       xml:space="preserve"
       style="font-size:12px;font-family:'Noto Sans';-inkscape-font-specification:'Noto Sans';text-align:end;text-anchor:end;opacity:1;fill:#000000;stroke-width:5;stroke-linecap:round;stroke-linejoin:round"
       x="71.631897"
       y="-0.48000813"
       id="context"
       transform="translate(-160,-10)"><tspan
         sodipodi:role="line"
         id="tspan1976"
         x="71.631897"
         y="-0.48000813"
         style="font-size:12px">mimetypes</tspan></text>
    <text
       xml:space="preserve"
       style="font-size:12px;font-family:'Noto Sans';-inkscape-font-specification:'Noto Sans';text-align:start;text-anchor:start;fill:#000000;stroke-width:5;stroke-linecap:round;stroke-linejoin:round"
       x="-74.127937"
       y="-10.480008"
       id="icon-name"><tspan
         sodipodi:role="line"
         id="tspan1976-6"
         x="-74.127937"
         y="-10.480008"
         style="font-style:normal;font-variant:normal;font-weight:bold;font-stretch:normal;font-size:12px;font-family:'Noto Sans';-inkscape-font-specification:'Noto Sans Bold';text-align:start;text-anchor:start">application-x-trash</tspan></text>
    <rect
       style="opacity:1;fill:#ffffff;stroke-width:5;stroke-linecap:round;stroke-linejoin:round"
       id="128x128"
       width="128"
       height="128"
       x="-150"
       y="0" />
    <rect
       style="opacity:1;fill:#ffffff;stroke-width:5;stroke-linecap:round;stroke-linejoin:round"
       id="64x64"
       width="64"
       height="64"
       x="0"
       y="0" />
    <rect
       style="opacity:1;fill:#ffffff;stroke-width:5;stroke-linecap:round;stroke-linejoin:round"
       id="48x48"
       width="48"
       height="48"
       x="0"
       y="80" />
    <rect
       style="opacity:1;fill:#ffffff;stroke-width:1.66667;stroke-linecap:round;stroke-linejoin:round"
       id="32x32"
       width="32"
       height="32"
       x="82"
       y="0" />
    <rect
       style="opacity:1;fill:#ffffff;stroke-width:5;stroke-linecap:round;stroke-linejoin:round"
       id="24x24"
       width="24"
       height="24"
       x="82"
       y="44" />
    <rect
       style="opacity:1;fill:#ffffff;stroke-width:5;stroke-linecap:round;stroke-linejoin:round"
       id="16x16"
       width="16"
       height="16"
       x="82"
       y="80" />
  </g>
  <g
     id="g1767">
    <path
       d="m 247,56.5 c -0.554,0 -1,0.446 -1,1 v 18 c 0,0.554 0.446,1 1,1 h 14 c 0.554,0 1,-0.446 1,-1 v -13 L 256.5,62 256,56.5 Z"
       style="opacity:0.2;fill:#000000"
       id="path3101" />
    <path
       d="M 248.375,13 C 247.61325,13 247,13.6244 247,14.4 v 25.2 c 0,0.77504 0.61325,1.4 1.375,1.4 h 19.25 C 268.3862,41 269,40.37504 269,39.6 V 22 l -7,-2 -2,-7 z"
       style="opacity:0.2;fill:#000000"
       id="path1417" />
    <path
       d="m 170,95 c -1.108,0 -2,0.892 -2,2 v 36 c 0,1.108 0.892,2 2,2 h 28 c 1.108,0 2,-0.892 2,-2 v -26 l -11,-1 -1,-11 z"
       style="opacity:0.2;fill:#000000"
       id="path1626" />
    <path
       style="opacity:0.2;fill:#000000"
       d="m 172.75,15 c -1.5235,0 -2.75,1.2488 -2.75,2.8 v 50.4 c 0,1.55008 1.2265,2.8 2.75,2.8 h 38.5 c 1.5224,0 2.75,-1.24992 2.75,-2.8 V 33 l -14,-4 -4,-14 z"
       id="path5450" />
    <path
       d="m 35.499997,19 c -3.047,0 -5.5,2.4976 -5.5,5.6 v 100.8 c 0,3.10017 2.453,5.6 5.5,5.6 H 112.5 c 3.0448,0 5.5,-2.49984 5.5,-5.6 V 50.999999 l -24,-8 L 86,19 Z"
       style="fill:#000000;stroke-width:2;opacity:0.2"
       id="path1820" />
  </g>
  <g
     id="g1733">
    <path
       d="M 248.375,12 C 247.61325,12 247,12.6244 247,13.4 v 25.2 c 0,0.77504 0.61325,1.4 1.375,1.4 h 19.25 C 268.3862,40 269,39.37504 269,38.6 V 20 l -6,-2 -2,-6 z"
       style="fill:#e4e4e4;fill-opacity:1"
       id="path1333"
       sodipodi:nodetypes="sssssscccs" />
    <path
       d="m 247,56 c -0.554,0 -1,0.446 -1,1 v 18 c 0,0.554 0.446,1 1,1 h 14 c 0.554,0 1,-0.446 1,-1 V 62 L 256.5,61.5 256,56 Z"
       style="fill:#e4e4e4"
       id="path3073"
       sodipodi:nodetypes="sssssscccs" />
    <path
       d="m 244.75,91 c -0.4172,0 -0.75,0.3328 -0.75,0.75 v 13.5 c 0,0.417 0.3328,0.75 0.75,0.75 h 10.5 c 0.418,0 0.75,-0.332 0.75,-0.75 V 94.9995 L 252.8755,94.1245 252.0005,91 Z"
       style="fill:#e4e4e4"
       id="path3473"
       sodipodi:nodetypes="sssssscccs" />
    <path
       d="m 170,94 c -1.108,0 -2,0.892 -2,2 v 36 c 0,1.108 0.892,2 2,2 h 28 c 1.108,0 2,-0.892 2,-2 v -26 l -11,-1 -1,-11 z"
       style="fill:#e4e4e4;fill-opacity:1"
       id="path1598" />
    <path
       style="fill:#e4e4e4;fill-opacity:1"
       d="m 172.75,14 c -1.5235,0 -2.75,1.2488 -2.75,2.8 v 50.4 c 0,1.55008 1.2265,2.8 2.75,2.8 h 38.5 c 1.5224,0 2.75,-1.24992 2.75,-2.8 V 30 l -12,-4 -4,-12 z"
       id="path5452"
       sodipodi:nodetypes="sssssscccs" />
    <path
       d="M 35.5,18 C 32.453,18 30,20.4976 30,23.6 v 100.8 c 0,3.10016 2.453,5.6 5.5,5.6 h 77 c 3.0448,0 5.5,-2.49984 5.5,-5.6 V 49.999999 l -24,-8 L 86,18 Z"
       style="fill:#e4e4e4;stroke-width:2;fill-opacity:1"
       id="path1792"
       sodipodi:nodetypes="sssssscccs" />
  </g>
  <g
     id="g7110">
    <g
       id="g7106">
      <path
         d="m 247.7657,102.81533 c -0.07,0.12551 -0.1254,0.31434 -0.1254,0.43333 0,0.0276 0,0.0628 0.01,0.11149 l -0.8723,-1.5021 c -0.028,-0.0487 -0.049,-0.11866 -0.049,-0.18166 0,-0.0631 0.021,-0.13976 0.049,-0.18859 l 0.4188,-0.73364 -0.4675,-0.26528 1.5212,-0.0282 0.7396,1.33437 -0.4743,-0.27244 z m 0.67,-4.397687 c 0.1325,-0.2308 0.349,-0.35656 0.614,-0.35656 0.2863,0 0.5096,0.13292 0.67,0.40505 l 0.2373,0.3982 -0.8236,1.589507 -1.3327,-0.939487 z m 0.097,5.606297 c -0.3977,0 -0.7256,-0.32836 -0.7256,-0.72655 0,-0.11182 0.049,-0.30064 0.1188,-0.4193 l 0.223,-0.3982 h 1.654 v 1.54406 h -1.2702 z m 1.3261,-5.648517 c -0.1046,-0.18142 -0.2442,-0.3075 -0.4117,-0.37742 h 1.7164 c 0.1536,0 0.2721,0.0631 0.3422,0.18198 l 0.4256,0.72655 0.4604,-0.27269 -0.7399,1.32776 -1.5138,-0.0214 0.4674,-0.26528 z m 2.6449,4.118477 c 0.2091,0 0.3837,-0.0559 0.5301,-0.16749 l -0.8654,1.50894 c -0.07,0.11866 -0.1953,0.19348 -0.3417,0.18858 H 251.01 v 0.53797 l -0.7814,-1.30641 0.7814,-1.30675 v 0.54515 h 1.4937 z m 0.6694,-1.25768 c 0.063,0.11182 0.098,0.23048 0.098,0.35631 0,0.25158 -0.1606,0.5171 -0.3837,0.64262 -0.1048,0.0562 -0.2518,0.0999 -0.3977,0.0913 h -0.4609 l -0.8231,-1.42565 1.3327,-0.7616 z"
         style="fill:#6d9d19;fill-opacity:1"
         id="path6889" />
    </g>
    <g
       id="g7382">
      <path
         d="m 250.9287,72.1154 c -0.096,0.17235 -0.1723,0.43167 -0.1723,0.59506 0,0.0379 0,0.0862 0.01,0.15311 l -1.1994,-2.06275 c -0.038,-0.0669 -0.067,-0.16296 -0.067,-0.24947 0,-0.0866 0.029,-0.19193 0.067,-0.25897 l 0.5758,-1.00748 -0.6428,-0.3643 2.0918,-0.0387 1.0168,1.83242 -0.6522,-0.37413 z m 0.9213,-6.03913 c 0.1822,-0.31695 0.4799,-0.48964 0.8442,-0.48964 0.3937,0 0.7008,0.18253 0.9213,0.55622 l 0.3263,0.54683 -1.1325,2.1828 -1.8324,-1.29015 z m 0.134,7.69886 c -0.5468,0 -0.9977,-0.45092 -0.9977,-0.99774 0,-0.15355 0.067,-0.41285 0.1634,-0.57581 l 0.3067,-0.54683 h 2.2742 v 2.12039 h -1.7466 z m 1.8234,-7.75684 c -0.1437,-0.24913 -0.3357,-0.42227 -0.566,-0.51829 h 2.3601 c 0.2111,0 0.374,0.0866 0.4704,0.24991 l 0.5852,0.99773 0.6331,-0.37448 -1.0173,1.82336 -2.0816,-0.0293 0.6428,-0.3643 z m 3.6367,5.6557 c 0.2875,0 0.5277,-0.0768 0.729,-0.22999 l -1.19,2.07214 c -0.096,0.16295 -0.2684,0.2657 -0.4697,0.25898 h -1.1231 v 0.73876 l -1.0744,-1.79403 1.0744,-1.79449 v 0.74862 h 2.0538 z m 0.9205,-1.7271 c 0.087,0.15356 0.1348,0.3165 0.1348,0.4893 0,0.34548 -0.2209,0.71011 -0.5276,0.88247 -0.1442,0.0772 -0.3463,0.13722 -0.5469,0.12535 h -0.6338 l -1.1317,-1.95777 1.8325,-1.04587 z"
         style="opacity:0.2;fill:#000000;fill-opacity:1"
         id="path5266" />
      <path
         d="m 250.9287,71.6154 c -0.096,0.17235 -0.1723,0.43167 -0.1723,0.59506 0,0.0379 0,0.0862 0.01,0.15311 l -1.1994,-2.06275 c -0.038,-0.0669 -0.067,-0.16296 -0.067,-0.24947 0,-0.0866 0.029,-0.19193 0.067,-0.25897 l 0.5758,-1.00748 -0.6428,-0.3643 2.0918,-0.0387 1.0168,1.83242 -0.6522,-0.37413 z m 0.9213,-6.03913 c 0.1822,-0.31695 0.4799,-0.48964 0.8442,-0.48964 0.3937,0 0.7008,0.18253 0.9213,0.55622 l 0.3263,0.54683 -1.1325,2.1828 -1.8324,-1.29015 z m 0.134,7.69886 c -0.5468,0 -0.9977,-0.45092 -0.9977,-0.99774 0,-0.15355 0.067,-0.41285 0.1634,-0.57581 l 0.3067,-0.54683 h 2.2742 v 2.12039 h -1.7466 z m 1.8234,-7.75684 C 253.6637,65.26916 253.4717,65.09602 253.2414,65 h 2.3601 c 0.2111,0 0.374,0.0866 0.4704,0.24991 l 0.5852,0.99773 0.6331,-0.37448 -1.0173,1.82336 -2.0816,-0.0293 0.6428,-0.3643 z m 3.6367,5.6557 c 0.2875,0 0.5277,-0.0768 0.729,-0.22999 l -1.19,2.07214 c -0.096,0.16295 -0.2684,0.2657 -0.4697,0.25898 h -1.1231 v 0.73876 l -1.0744,-1.79403 1.0744,-1.79449 v 0.74862 h 2.0538 z m 0.9205,-1.7271 c 0.087,0.15356 0.1348,0.3165 0.1348,0.4893 0,0.34548 -0.2209,0.71011 -0.5276,0.88247 -0.1442,0.0772 -0.3463,0.13722 -0.5469,0.12535 h -0.6338 l -1.1317,-1.95777 1.8325,-1.04587 z"
         style="fill:#6d9d16;fill-opacity:1"
         id="path4964"
         sodipodi:nodetypes="csccsccccccccsccccccsccccccccscccccccccccccccccccscccccc" />
    </g>
    <g
       id="g7553">
      <path
         d="m 253.9053,34.811529 c -0.128,0.2298 -0.2298,0.57556 -0.2298,0.79342 0,0.0506 0,0.11491 0.013,0.20415 l -1.5992,-2.75035 c -0.051,-0.0892 -0.089,-0.21727 -0.089,-0.33262 0,-0.1155 0.038,-0.2559 0.089,-0.3453 l 0.7678,-1.3433 -0.8571,-0.48573 2.789,-0.0516 1.3558,2.44323 -0.8696,-0.49885 z m 1.2284,-8.052169 c 0.2429,-0.4226 0.6398,-0.65286 1.1255,-0.65286 0.5249,0 0.9344,0.24338 1.2284,0.74164 l 0.4351,0.729099 -1.5099,2.9104 -2.4433,-1.7202 z m 0.1786,10.265139 c -0.7291,0 -1.3302,-0.60122 -1.3302,-1.33031 0,-0.20474 0.09,-0.55048 0.2177,-0.76775 l 0.409,-0.7291 h 3.0323 v 2.82718 h -2.3288 z m 2.4312,-10.342439 c -0.1916,-0.33218 -0.4476,-0.56303 -0.7547,-0.69106 h 3.1468 c 0.2815,0 0.4988,0.1155 0.6272,0.33321 l 0.7803,1.330309 0.8441,-0.4993 -1.3564,2.43113 -2.7754,-0.0391 0.857,-0.48572 z m 4.849,7.540929 c 0.3833,0 0.7035,-0.10236 0.9719,-0.30666 l -1.5866,2.76286 c -0.128,0.21726 -0.3579,0.35426 -0.6263,0.3453 h -1.4974 v 0.98501 l -1.4326,-2.39204 1.4326,-2.39265 v 0.99816 h 2.7384 z m 1.2273,-2.3028 c 0.1155,0.20474 0.1797,0.422 0.1797,0.65239 0,0.46065 -0.2946,0.94682 -0.7035,1.17664 -0.1922,0.10297 -0.4617,0.18295 -0.7291,0.16713 h -0.8451 l -1.5089,-2.61036 2.4433,-1.39449 z"
         style="opacity:0.2;fill:#000000;fill-opacity:1"
         id="path7054" />
      <path
         d="m 253.9053,33.811529 c -0.128,0.2298 -0.2298,0.57556 -0.2298,0.79342 0,0.0506 0,0.11491 0.013,0.20415 l -1.5992,-2.75035 c -0.051,-0.0892 -0.089,-0.21727 -0.089,-0.33262 0,-0.1155 0.038,-0.2559 0.089,-0.3453 l 0.7678,-1.3433 -0.8571,-0.48573 2.789,-0.0516 1.3558,2.44323 -0.8696,-0.49885 z m 1.2284,-8.052169 c 0.2429,-0.4226 0.6398,-0.65286 1.1255,-0.65286 0.5249,0 0.9344,0.24338 1.2284,0.74164 l 0.4351,0.729099 -1.5099,2.9104 -2.4433,-1.7202 z m 0.1786,10.265139 c -0.7291,0 -1.3302,-0.60122 -1.3302,-1.33031 0,-0.20474 0.09,-0.55048 0.2177,-0.76775 l 0.409,-0.7291 h 3.0323 v 2.82718 h -2.3288 z m 2.4312,-10.342439 c -0.1916,-0.33218 -0.4476,-0.56303 -0.7547,-0.69106 h 3.1468 c 0.2815,0 0.4988,0.1155 0.6272,0.33321 l 0.7803,1.330309 0.8441,-0.4993 -1.3564,2.43113 -2.7754,-0.0391 0.857,-0.48572 z m 4.849,7.540929 c 0.3833,0 0.7035,-0.10236 0.9719,-0.30666 l -1.5866,2.76286 c -0.128,0.21726 -0.3579,0.35426 -0.6263,0.3453 h -1.4974 v 0.98501 l -1.4326,-2.39204 1.4326,-2.39265 v 0.99816 h 2.7384 z m 1.2273,-2.3028 c 0.1155,0.20474 0.1797,0.422 0.1797,0.65239 0,0.46065 -0.2946,0.94682 -0.7035,1.17664 -0.1922,0.10297 -0.4617,0.18295 -0.7291,0.16713 h -0.8451 l -1.5089,-2.61036 2.4433,-1.39449 z"
         style="fill:#6d9d19;fill-opacity:1"
         id="path6538"
         sodipodi:nodetypes="csccsccccccccsccccccsccccccccscccccccccccccccccccscccccc" />
    </g>
    <g
       id="g7723">
      <path
         d="m 177.35727,126.23017 c -0.19199,0.34468 -0.34458,0.86329 -0.34458,1.19006 0,0.0758 0,0.17239 0.02,0.30621 l -2.3987,-4.12532 c -0.076,-0.13379 -0.13399,-0.3259 -0.13399,-0.49892 0,-0.17319 0.058,-0.38384 0.13399,-0.51792 l 1.15155,-2.01487 -1.28554,-0.72856 4.18341,-0.0774 2.03351,3.66467 -1.30434,-0.74822 z m 1.84252,-12.07772 c 0.36439,-0.63388 0.95976,-0.97925 1.68833,-0.97925 0.78736,0 1.40153,0.36505 1.84251,1.1124 l 0.65258,1.0936 -2.2649,4.36541 -3.66464,-2.58019 z m 0.26799,15.39703 c -1.09355,0 -1.99531,-0.90181 -1.99531,-1.99539 0,-0.30708 0.13399,-0.82566 0.32678,-1.15158 l 0.61338,-1.0936 h 4.54819 v 4.24059 h -3.49304 z m 3.64664,-15.51299 c -0.28739,-0.49823 -0.67137,-0.8445 -1.13195,-1.03653 h 4.71999 c 0.42218,0 0.74796,0.17319 0.94076,0.4998 l 1.17034,1.99537 1.26615,-0.74893 -2.03451,3.64655 -4.16302,-0.0586 1.28555,-0.72857 z m 7.27307,11.3109 c 0.57498,0 1.05536,-0.15359 1.45794,-0.45996 l -2.3799,4.1441 c -0.19199,0.32588 -0.53677,0.53137 -0.93935,0.51793 h -2.2461 v 1.47746 l -2.14871,-3.5879 2.14871,-3.58882 v 1.49717 h 4.10741 z m 1.84092,-3.45405 c 0.17399,0.30711 0.26959,0.63298 0.26959,0.97856 0,0.69093 -0.44178,1.42016 -1.05515,1.76486 -0.28839,0.15439 -0.69257,0.27443 -1.09375,0.25069 h -1.26755 l -2.2633,-3.91537 3.66484,-2.09164 z"
         style="opacity:0.2;fill:#000000;fill-opacity:1;stroke-width:1.99991"
         id="path7761" />
      <path
         d="m 177.35727,125.23022 c -0.19199,0.34468 -0.34458,0.8633 -0.34458,1.19006 0,0.0758 0,0.17239 0.02,0.30621 l -2.3987,-4.12532 c -0.076,-0.13379 -0.13399,-0.3259 -0.13399,-0.49891 0,-0.1732 0.058,-0.38385 0.13399,-0.51792 l 1.15155,-2.01487 -1.28554,-0.72857 4.18341,-0.0774 2.03351,3.66468 -1.30434,-0.74823 z m 1.84252,-12.07773 c 0.36439,-0.63387 0.95976,-0.97923 1.68833,-0.97923 0.78736,0 1.40153,0.36504 1.84251,1.11239 l 0.65258,1.09361 -2.2649,4.3654 -3.66464,-2.58018 z m 0.26799,15.39704 c -1.09355,0 -1.99531,-0.9018 -1.99531,-1.99539 0,-0.30709 0.13399,-0.82567 0.32678,-1.15157 l 0.61338,-1.09361 h 4.54819 v 4.24059 h -3.49304 z m 3.64664,-15.51299 c -0.28739,-0.49824 -0.67137,-0.8445 -1.13195,-1.03654 h 4.71999 c 0.42218,0 0.74796,0.1732 0.94076,0.4998 l 1.17034,1.99537 1.26615,-0.74892 -2.03451,3.64655 -4.16302,-0.0586 1.28555,-0.72856 z m 7.27307,11.3109 c 0.57498,0 1.05536,-0.1536 1.45794,-0.45996 l -2.3799,4.14409 c -0.19199,0.32589 -0.53677,0.53138 -0.93935,0.51794 h -2.2461 v 1.47745 l -2.14871,-3.5879 2.14871,-3.58882 v 1.49718 h 4.10741 z m 1.84092,-3.45405 c 0.17399,0.30711 0.26959,0.63297 0.26959,0.97855 0,0.69093 -0.44178,1.42016 -1.05515,1.76487 -0.28839,0.15439 -0.69257,0.27442 -1.09375,0.25069 h -1.26755 l -2.2633,-3.91537 3.66484,-2.09165 z"
         style="fill:#6d9d16;fill-opacity:1;stroke-width:1.99991"
         id="path7733" />
    </g>
    <g
       id="g7999">
      <path
         d="m 183.8106,58.623059 c -0.256,0.4596 -0.4596,1.151119 -0.4596,1.58684 0,0.1012 0,0.229819 0.026,0.408299 l -3.1984,-5.5007 c -0.102,-0.1784 -0.178,-0.43454 -0.178,-0.665239 0,-0.231001 0.076,-0.511801 0.178,-0.690601 l 1.5356,-2.6866 -1.7142,-0.97146 5.578,-0.1032 2.7116,4.88646 -1.7392,-0.9977 z m 2.4568,-16.104339 c 0.4858,-0.8452 1.2796,-1.30572 2.251,-1.30572 1.0498,0 1.8688,0.48676 2.4568,1.48328 l 0.8702,1.458198 -3.0198,5.8208 -4.8866,-3.4404 z m 0.3572,20.530278 c -1.4582,0 -2.6604,-1.20244 -2.6604,-2.66062 0,-0.40948 0.18,-1.10096 0.4354,-1.5355 l 0.818,-1.4582 h 6.0646 v 5.65436 h -4.6576 z M 191.487,42.364121 C 191.1038,41.69976 190.5918,41.23806 189.9776,40.982 h 6.2936 c 0.563,0 0.9976,0.231001 1.2544,0.66642 l 1.5606,2.660619 1.6882,-0.998601 -2.7128,4.86226 -5.5508,-0.0782 1.714,-0.97144 z m 9.698,15.081857 c 0.7666,0 1.407,-0.20472 1.9438,-0.61332 l -3.1732,5.52572 c -0.256,0.43452 -0.7158,0.70852 -1.2526,0.6906 h -2.9948 v 1.97002 l -2.8652,-4.78408 2.8652,-4.7853 v 1.99632 h 5.4768 z m 2.4546,-4.6056 c 0.231,0.40948 0.3594,0.844 0.3594,1.30478 0,0.9213 -0.5892,1.89364 -1.407,2.35328 -0.3844,0.20594 -0.9234,0.3659 -1.4582,0.33426 h -1.6902 l -3.0178,-5.22072 4.8866,-2.78898 z"
         style="fill:#000000;fill-opacity:1;stroke-width:2;opacity:0.2"
         id="path7977" />
      <path
         d="m 183.8106,57.623059 c -0.256,0.4596 -0.4596,1.151119 -0.4596,1.58684 0,0.1012 0,0.229819 0.026,0.408299 l -3.1984,-5.5007 c -0.102,-0.1784 -0.178,-0.43454 -0.178,-0.665239 0,-0.231001 0.076,-0.511801 0.178,-0.690601 l 1.5356,-2.6866 -1.7142,-0.97146 5.578,-0.1032 2.7116,4.88646 -1.7392,-0.9977 z m 2.4568,-16.104339 c 0.4858,-0.8452 1.2796,-1.30572 2.251,-1.30572 1.0498,0 1.8688,0.48676 2.4568,1.48328 l 0.8702,1.458198 -3.0198,5.8208 -4.8866,-3.4404 z m 0.3572,20.530278 c -1.4582,0 -2.6604,-1.20244 -2.6604,-2.66062 0,-0.40948 0.18,-1.10096 0.4354,-1.5355 l 0.818,-1.4582 h 6.0646 v 5.65436 h -4.6576 z M 191.487,41.364121 C 191.1038,40.69976 190.5918,40.23806 189.9776,39.982 h 6.2936 c 0.563,0 0.9976,0.231001 1.2544,0.66642 l 1.5606,2.660619 1.6882,-0.998601 -2.7128,4.86226 -5.5508,-0.0782 1.714,-0.97144 z m 9.698,15.081857 c 0.7666,0 1.407,-0.20472 1.9438,-0.61332 l -3.1732,5.52572 c -0.256,0.43452 -0.7158,0.70852 -1.2526,0.6906 h -2.9948 v 1.97002 l -2.8652,-4.78408 2.8652,-4.7853 v 1.99632 h 5.4768 z m 2.4546,-4.6056 c 0.231,0.40948 0.3594,0.844 0.3594,1.30478 0,0.9213 -0.5892,1.89364 -1.407,2.35328 -0.3844,0.20594 -0.9234,0.3659 -1.4582,0.33426 h -1.6902 l -3.0178,-5.22072 4.8866,-2.78898 z"
         style="fill:#6d9d19;fill-opacity:1;stroke-width:2"
         id="path7916"
         sodipodi:nodetypes="csccsccccccccsccccccsccccccccscccccccccccccccccccscccccc" />
    </g>
    <g
       id="g8087"
       transform="matrix(2,0,0,2,-310,-10)">
      <path
         d="m 183.8106,58.123059 c -0.256,0.4596 -0.4596,1.151119 -0.4596,1.58684 0,0.1012 0,0.229819 0.026,0.408299 l -3.1984,-5.5007 c -0.102,-0.1784 -0.178,-0.43454 -0.178,-0.665239 0,-0.231001 0.076,-0.511801 0.178,-0.690601 l 1.5356,-2.6866 -1.7142,-0.97146 5.578,-0.1032 2.7116,4.88646 -1.7392,-0.9977 z m 2.4568,-16.104339 c 0.4858,-0.8452 1.2796,-1.30572 2.251,-1.30572 1.0498,0 1.8688,0.48676 2.4568,1.48328 l 0.8702,1.458198 -3.0198,5.8208 -4.8866,-3.4404 z m 0.3572,20.530278 c -1.4582,0 -2.6604,-1.20244 -2.6604,-2.66062 0,-0.40948 0.18,-1.10096 0.4354,-1.5355 l 0.818,-1.4582 h 6.0646 v 5.65436 h -4.6576 z M 191.487,41.864121 C 191.1038,41.19976 190.5918,40.73806 189.9776,40.482 h 6.2936 c 0.563,0 0.9976,0.231001 1.2544,0.66642 l 1.5606,2.660619 1.6882,-0.998601 -2.7128,4.86226 -5.5508,-0.0782 1.714,-0.97144 z m 9.698,15.081857 c 0.7666,0 1.407,-0.20472 1.9438,-0.61332 l -3.1732,5.52572 c -0.256,0.43452 -0.7158,0.70852 -1.2526,0.6906 h -2.9948 v 1.97002 l -2.8652,-4.78408 2.8652,-4.7853 v 1.99632 h 5.4768 z m 2.4546,-4.6056 c 0.231,0.40948 0.3594,0.844 0.3594,1.30478 0,0.9213 -0.5892,1.89364 -1.407,2.35328 -0.3844,0.20594 -0.9234,0.3659 -1.4582,0.33426 h -1.6902 l -3.0178,-5.22072 4.8866,-2.78898 z"
         style="opacity:0.2;fill:#000000;fill-opacity:1;stroke-width:2"
         id="path8064" />
      <path
         d="m 183.8106,57.623059 c -0.256,0.4596 -0.4596,1.151119 -0.4596,1.58684 0,0.1012 0,0.229819 0.026,0.408299 l -3.1984,-5.5007 c -0.102,-0.1784 -0.178,-0.43454 -0.178,-0.665239 0,-0.231001 0.076,-0.511801 0.178,-0.690601 l 1.5356,-2.6866 -1.7142,-0.97146 5.578,-0.1032 2.7116,4.88646 -1.7392,-0.9977 z m 2.4568,-16.104339 c 0.4858,-0.8452 1.2796,-1.30572 2.251,-1.30572 1.0498,0 1.8688,0.48676 2.4568,1.48328 l 0.8702,1.458198 -3.0198,5.8208 -4.8866,-3.4404 z m 0.3572,20.530278 c -1.4582,0 -2.6604,-1.20244 -2.6604,-2.66062 0,-0.40948 0.18,-1.10096 0.4354,-1.5355 l 0.818,-1.4582 h 6.0646 v 5.65436 h -4.6576 z M 191.487,41.364121 C 191.1038,40.69976 190.5918,40.23806 189.9776,39.982 h 6.2936 c 0.563,0 0.9976,0.231001 1.2544,0.66642 l 1.5606,2.660619 1.6882,-0.998601 -2.7128,4.86226 -5.5508,-0.0782 1.714,-0.97144 z m 9.698,15.081857 c 0.7666,0 1.407,-0.20472 1.9438,-0.61332 l -3.1732,5.52572 c -0.256,0.43452 -0.7158,0.70852 -1.2526,0.6906 h -2.9948 v 1.97002 l -2.8652,-4.78408 2.8652,-4.7853 v 1.99632 h 5.4768 z m 2.4546,-4.6056 c 0.231,0.40948 0.3594,0.844 0.3594,1.30478 0,0.9213 -0.5892,1.89364 -1.407,2.35328 -0.3844,0.20594 -0.9234,0.3659 -1.4582,0.33426 h -1.6902 l -3.0178,-5.22072 4.8866,-2.78898 z"
         style="fill:#6d9d19;fill-opacity:1;stroke-width:2"
         id="path8036"
         sodipodi:nodetypes="csccsccccccccsccccccsccccccccscccccccccccccccccccscccccc" />
    </g>
  </g>
  <g
     id="g1758">
    <path
       d="m 256,56.5 v 5 c 0,0.5523 0.44771,1 1,1 h 5 z"
       style="opacity:0.2;fill:#000000;fill-opacity:1;stroke-width:0.5"
       id="path3295" />
    <path
       d="m 269,21 -8,-8 v 6.59375 C 261,20.373375 261.62775,21 262.40625,21 Z"
       style="opacity:0.2;fill:#000000"
       id="path1389"
       sodipodi:nodetypes="ccssc" />
    <path
       d="m 188,95 v 10 c 0,1.1046 0.89543,2 2,2 h 10 z"
       style="opacity:0.2"
       id="path1654"
       sodipodi:nodetypes="csscc" />
    <path
       style="opacity:0.2;fill:#000000"
       d="M 214,31 198,15 V 28.1875 C 198,29.74675 199.2555,31 200.8125,31 Z"
       id="path5454"
       sodipodi:nodetypes="ccssc" />
    <path
       d="M 118,51 86,19 V 45.375 C 86,48.4935 88.511,51 91.625,51 Z"
       style="opacity:0.2;fill:#000000;stroke-width:2"
       id="path1904" />
  </g>
  <g
     id="g1741">
    <path
       d="m 247,56 c -0.554,0 -1,0.446 -1,1 v 0.5 c 0,-0.554 0.446,-1 1,-1 h 9 l 5.5,5.500005 H 262 L 256,56 Z"
       style="opacity:0.2;fill:#ffffff;stroke-width:0.5"
       id="path3323" />
    <path
       d="M 248.375,12 C 247.61325,12 247,12.624791 247,13.400391 v 1 C 247,13.624791 247.61325,13 248.375,13 H 261 l 7.00044,7 H 269 l -8,-8 z"
       style="opacity:0.2;fill:#ffffff"
       id="path1445"
       sodipodi:nodetypes="sscsccccs" />
    <path
       d="m 170,94 c -1.108,0 -2,0.892 -2,2 v 1 c 0,-1.108 0.892,-2 2,-2 h 18 l 11,11.00001 h 1 L 188,94 Z"
       style="opacity:0.2;fill:#ffffff"
       id="path1710"
       sodipodi:nodetypes="sscsccccs" />
    <path
       style="opacity:0.2;fill:#ffffff"
       d="m 172.75,14 c -1.5235,0 -2.75,1.249581 -2.75,2.800781 v 1 C 170,16.249581 171.2265,15 172.75,15 H 198 l 15,15 h 1 L 198,14 Z"
       id="path5458"
       sodipodi:nodetypes="sscsccccs" />
    <path
       d="M 35.5,18 C 32.453,18 30,20.499162 30,23.601562 v 1 C 30,21.499162 32.453,19 35.5,19 H 86 L 117,49.999999 118,50 86,18 Z"
       style="opacity:0.2;fill:#ffffff;stroke-width:2"
       id="path1848"
       sodipodi:nodetypes="sscsccccs" />
  </g>
  <g
     id="g1753">
    <path
       d="m 256,56 v 5 c 0,0.5523 0.44771,1 1,1 h 5 z"
       style="opacity:1;fill:#fafafa;fill-opacity:1;stroke-width:0.5"
       id="path3129"
       sodipodi:nodetypes="csscc" />
    <path
       d="m 269,20 -8,-8 v 6.59375 C 261,19.373375 261.62775,20 262.40625,20 Z"
       style="fill:#fafafa;fill-opacity:1"
       id="path1361"
       sodipodi:nodetypes="ccssc" />
    <path
       d="m 188,94 v 10 c 0,1.1046 0.89543,2 2,2 h 10 z"
       style="fill:#fafafa;fill-opacity:1"
       id="path1682" />
    <path
       d="m 252.0005,91 v 3.1662 c 0,0.4584 0.3749,0.8333 0.8333,0.8333 H 256 Z"
       style="fill:#fafafa"
       id="path3501"
       sodipodi:nodetypes="csscc" />
    <path
       style="fill:#fafafa;fill-opacity:1"
       d="M 214,30 198,14 V 27.1875 C 198,28.74675 199.2555,30 200.8125,30 Z"
       id="path5456"
       sodipodi:nodetypes="ccssc" />
    <path
       d="M 118,50 86,18 V 44.375 C 86,47.4935 88.511,50 91.625,50 Z"
       style="fill:#fafafa;stroke-width:2;fill-opacity:1"
       id="path1876" />
  </g>
</svg>
