<?xml version="1.0" encoding="UTF-8" standalone="no"?>
<svg
   width="284"
   height="148"
   version="1.1"
   id="svg5462"
   sodipodi:docname="application-vnd.ms-powerpoint.svg"
   inkscape:version="1.2.2 (1:1.2.2+202305151914+b0a8486541)"
   xmlns:inkscape="http://www.inkscape.org/namespaces/inkscape"
   xmlns:sodipodi="http://sodipodi.sourceforge.net/DTD/sodipodi-0.dtd"
   xmlns="http://www.w3.org/2000/svg"
   xmlns:svg="http://www.w3.org/2000/svg">
  <defs
     id="defs5466" />
  <sodipodi:namedview
     id="namedview5464"
     pagecolor="#d2d2d2"
     bordercolor="#000000"
     borderopacity="0.25"
     inkscape:showpageshadow="2"
     inkscape:pageopacity="0"
     inkscape:pagecheckerboard="0"
     inkscape:deskcolor="#d2d2d2"
     showgrid="false"
     inkscape:zoom="4.5985915"
     inkscape:cx="142"
     inkscape:cy="73.935681"
     inkscape:window-width="1920"
     inkscape:window-height="1008"
     inkscape:window-x="0"
     inkscape:window-y="0"
     inkscape:window-maximized="1"
     inkscape:current-layer="g4373"
     showborder="false"
     showguides="true" />
  <g
     id="Baseplate"
     transform="translate(160,10)"
     style="display:none">
    <text
       xml:space="preserve"
       style="font-size:12px;font-family:'Noto Sans';-inkscape-font-specification:'Noto Sans';text-align:end;text-anchor:end;opacity:1;fill:#000000;stroke-width:5;stroke-linecap:round;stroke-linejoin:round"
       x="71.631897"
       y="-0.48000813"
       id="context"
       transform="translate(-160,-10)"><tspan
         sodipodi:role="line"
         id="tspan1976"
         x="71.631897"
         y="-0.48000813"
         style="font-size:12px">mimetypes</tspan></text>
    <text
       xml:space="preserve"
       style="font-size:12px;font-family:'Noto Sans';-inkscape-font-specification:'Noto Sans';text-align:start;text-anchor:start;fill:#000000;stroke-width:5;stroke-linecap:round;stroke-linejoin:round"
       x="-74.127937"
       y="-10.480008"
       id="icon-name"><tspan
         sodipodi:role="line"
         id="tspan1976-6"
         x="-74.127937"
         y="-10.480008"
         style="font-style:normal;font-variant:normal;font-weight:bold;font-stretch:normal;font-size:12px;font-family:'Noto Sans';-inkscape-font-specification:'Noto Sans Bold';text-align:start;text-anchor:start">application-vnd.ms-powerpoint</tspan></text>
    <rect
       style="opacity:1;fill:#ffffff;stroke-width:5;stroke-linecap:round;stroke-linejoin:round"
       id="128x128"
       width="128"
       height="128"
       x="-150"
       y="0" />
    <rect
       style="opacity:1;fill:#ffffff;stroke-width:5;stroke-linecap:round;stroke-linejoin:round"
       id="64x64"
       width="64"
       height="64"
       x="0"
       y="0" />
    <rect
       style="opacity:1;fill:#ffffff;stroke-width:5;stroke-linecap:round;stroke-linejoin:round"
       id="48x48"
       width="48"
       height="48"
       x="0"
       y="80" />
    <rect
       style="opacity:1;fill:#ffffff;stroke-width:1.66667;stroke-linecap:round;stroke-linejoin:round"
       id="32x32"
       width="32"
       height="32"
       x="82"
       y="0" />
    <rect
       style="opacity:1;fill:#ffffff;stroke-width:5;stroke-linecap:round;stroke-linejoin:round"
       id="24x24"
       width="24"
       height="24"
       x="82"
       y="44" />
    <rect
       style="opacity:1;fill:#ffffff;stroke-width:5;stroke-linecap:round;stroke-linejoin:round"
       id="16x16"
       width="16"
       height="16"
       x="82"
       y="80" />
  </g>
  <g
     id="g1767">
    <path
       d="m 247,56.5 c -0.554,0 -1,0.446 -1,1 v 18 c 0,0.554 0.446,1 1,1 h 14 c 0.554,0 1,-0.446 1,-1 v -13 L 256.5,62 256,56.5 Z"
       style="opacity:0.2;fill:#000000"
       id="path3101" />
    <path
       d="M 248.375,13 C 247.61325,13 247,13.6244 247,14.4 v 25.2 c 0,0.77504 0.61325,1.4 1.375,1.4 h 19.25 C 268.3862,41 269,40.37504 269,39.6 V 22 l -7,-2 -2,-7 z"
       style="opacity:0.2;fill:#000000"
       id="path1417" />
    <path
       d="m 170,95 c -1.108,0 -2,0.892 -2,2 v 36 c 0,1.108 0.892,2 2,2 h 28 c 1.108,0 2,-0.892 2,-2 v -26 l -11,-1 -1,-11 z"
       style="opacity:0.2;fill:#000000"
       id="path1626" />
    <path
       style="opacity:0.2;fill:#000000"
       d="m 172.75,15 c -1.5235,0 -2.75,1.2488 -2.75,2.8 v 50.4 c 0,1.55008 1.2265,2.8 2.75,2.8 h 38.5 c 1.5224,0 2.75,-1.24992 2.75,-2.8 V 33 l -14,-4 -4,-14 z"
       id="path5450" />
    <path
       d="m 35.499997,19 c -3.047,0 -5.5,2.4976 -5.5,5.6 v 100.8 c 0,3.10017 2.453,5.6 5.5,5.6 H 112.5 c 3.0448,0 5.5,-2.49984 5.5,-5.6 V 50.999999 l -24,-8 L 86,19 Z"
       style="fill:#000000;stroke-width:2;opacity:0.2"
       id="path1820" />
  </g>
  <g
     id="g1733">
    <path
       d="M 248.375,12 C 247.61325,12 247,12.6244 247,13.4 v 25.2 c 0,0.77504 0.61325,1.4 1.375,1.4 h 19.25 C 268.3862,40 269,39.37504 269,38.6 V 20 l -6,-2 -2,-6 z"
       style="fill:#e4e4e4;fill-opacity:1"
       id="path1333"
       sodipodi:nodetypes="sssssscccs" />
    <path
       d="m 247,56 c -0.554,0 -1,0.446 -1,1 v 18 c 0,0.554 0.446,1 1,1 h 14 c 0.554,0 1,-0.446 1,-1 V 62 L 256.5,61.5 256,56 Z"
       style="fill:#e4e4e4"
       id="path3073"
       sodipodi:nodetypes="sssssscccs" />
    <path
       d="m 244.75,91 c -0.4172,0 -0.75,0.3328 -0.75,0.75 v 13.5 c 0,0.417 0.3328,0.75 0.75,0.75 h 10.5 c 0.418,0 0.75,-0.332 0.75,-0.75 V 94.9995 L 252.8755,94.1245 252.0005,91 Z"
       style="fill:#e4e4e4"
       id="path3473"
       sodipodi:nodetypes="sssssscccs" />
    <path
       d="m 170,94 c -1.108,0 -2,0.892 -2,2 v 36 c 0,1.108 0.892,2 2,2 h 28 c 1.108,0 2,-0.892 2,-2 v -26 l -11,-1 -1,-11 z"
       style="fill:#e4e4e4;fill-opacity:1"
       id="path1598" />
    <path
       style="fill:#e4e4e4;fill-opacity:1"
       d="m 172.75,14 c -1.5235,0 -2.75,1.2488 -2.75,2.8 v 50.4 c 0,1.55008 1.2265,2.8 2.75,2.8 h 38.5 c 1.5224,0 2.75,-1.24992 2.75,-2.8 V 30 l -12,-4 -4,-12 z"
       id="path5452"
       sodipodi:nodetypes="sssssscccs" />
    <path
       d="M 35.5,18 C 32.453,18 30,20.4976 30,23.6 v 100.8 c 0,3.10016 2.453,5.6 5.5,5.6 h 77 c 3.0448,0 5.5,-2.49984 5.5,-5.6 V 49.999999 l -24,-8 L 86,18 Z"
       style="fill:#e4e4e4;stroke-width:2;fill-opacity:1"
       id="path1792"
       sodipodi:nodetypes="sssssscccs" />
  </g>
  <g
     id="g4373"
     transform="translate(-2.980094,7.605675)">
    <g
       id="g5789"
       transform="translate(-0.294026,14.669218)">
      <circle
         style="fill:#ff8f6b;fill-opacity:1;stroke-width:2.66665;stroke-linejoin:bevel"
         id="path31463-9"
         cx="253.27412"
         cy="78.725105"
         r="3.9999983" />
      <path
         id="path31465-3"
         style="fill:#d35230;fill-opacity:1;stroke-width:2;stroke-linejoin:bevel"
         d="m 249.27412,78.725107 c 0,2.209139 1.79086,3.999999 4,3.999999 2.20914,0 4,-1.79086 4,-3.999999 h -4 z"
         sodipodi:nodetypes="csccc" />
      <path
         id="path31759-1"
         style="fill:#ed6c47;fill-opacity:1;stroke-width:2;stroke-linejoin:bevel"
         d="m 253.27412,74.725109 a 3.9999983,3.9999986 0 0 0 -4,3.999998 h 4 z" />
    </g>
    <g
       id="g5523"
       transform="translate(4.5757906,22.496553)">
      <ellipse
         style="opacity:0.2;fill:#000000;fill-opacity:1;stroke-width:3.57143;stroke-linecap:round;stroke-linejoin:round"
         id="path7987-2"
         cx="253.4043"
         cy="39.39777"
         rx="5"
         ry="4.9999986" />
      <circle
         style="fill:#ff8f6b;fill-opacity:1;stroke-width:3.33332;stroke-linejoin:bevel"
         id="path31463-2"
         cx="253.4043"
         cy="38.89777"
         r="4.9999976" />
      <path
         id="path31465-8"
         style="fill:#d35230;fill-opacity:1;stroke-width:2.5;stroke-linejoin:bevel"
         d="m 248.40429,38.897771 c 0,2.761424 2.23858,4.999999 5,4.999999 2.76143,0 5,-2.238575 5,-4.999999 h -5 z"
         sodipodi:nodetypes="csccc" />
      <path
         id="path8517-9"
         style="opacity:0.2;fill:#000000;fill-opacity:1;stroke-width:2.5;stroke-linejoin:bevel"
         d="m 248.40429,38.897772 c 0,0.168629 0.009,0.335661 0.0254,0.5 h 4.97461 4.97461 c 0.0163,-0.164339 0.0254,-0.331371 0.0254,-0.5 h -5 z" />
      <path
         id="path31759-7"
         style="fill:#ed6c47;fill-opacity:1;stroke-width:2.5;stroke-linejoin:bevel"
         d="m 253.40429,33.897774 a 4.9999975,4.9999978 0 0 0 -5,4.999997 h 5 z" />
      <path
         id="path8587-3"
         style="opacity:0.2;fill:#ffffff;fill-opacity:1;stroke-width:2.5;stroke-linejoin:bevel"
         d="m 253.40429,33.897772 c -2.76142,0 -5,2.238579 -5,5 h 0.0254 c 0.2507,-2.526827 2.38182,-4.5 4.97461,-4.5 2.59279,0 4.72391,1.973173 4.97461,4.5 h 0.0254 c 0,-2.761421 -2.23858,-5 -5,-5 z" />
      <rect
         style="opacity:0.2;fill:#000000;fill-opacity:1;stroke-width:3.75;stroke-linecap:round;stroke-linejoin:round"
         id="rect7881-6"
         width="6"
         height="6"
         x="246.4043"
         y="36.397774"
         ry="0.5" />
      <rect
         style="fill:#c43e1c;fill-opacity:1;stroke-width:0.374998"
         id="rect2687-12"
         width="6"
         height="6"
         x="246.4043"
         y="35.897774"
         ry="0.5" />
      <path
         id="rect8802"
         style="fill:#ffffff;stroke-width:5;stroke-linecap:round;stroke-linejoin:round"
         d="m 248.40429,36.897772 v 4 h 1 v -1 h 0.5 c 0.831,0 1.5,-0.669003 1.5,-1.5 0,-0.830997 -0.669,-1.5 -1.5,-1.5 h -0.5 z m 1,1 h 0.5 c 0.277,0 0.5,0.223 0.5,0.5 0,0.277 -0.223,0.5 -0.5,0.5 h -0.5 z" />
    </g>
    <g
       id="g5216"
       transform="translate(24.23278,-2.3686845)">
      <ellipse
         style="opacity:0.2;fill:#000000;fill-opacity:1;stroke-width:5;stroke-linecap:round;stroke-linejoin:round"
         id="path7987-8"
         cx="237.74731"
         cy="25.263008"
         rx="7"
         ry="6.9999981" />
      <circle
         style="fill:#ff8f6b;fill-opacity:1;stroke-width:4.66666;stroke-linejoin:bevel"
         id="path31463-7"
         cx="237.74731"
         cy="24.763006"
         r="6.9999967" />
      <path
         id="path31465-9"
         style="fill:#d35230;fill-opacity:1;stroke-width:3.49999;stroke-linejoin:bevel"
         d="m 230.74732,24.763007 c 0,3.865993 3.13401,6.999999 7,6.999999 3.86599,0 7,-3.134006 7,-6.999999 h -7 z"
         sodipodi:nodetypes="csccc" />
      <path
         id="path7584-20"
         style="opacity:0.2;fill:#000000;fill-opacity:1;stroke-width:3.49999;stroke-linejoin:bevel"
         d="m 230.74732,24.76301 c 0,0.168629 0.01,0.334355 0.0215,0.5 h 6.97852 6.97852 c 0.0117,-0.165645 0.0215,-0.331371 0.0215,-0.5 h -7 z" />
      <path
         id="path31759-2"
         style="fill:#ed6c47;fill-opacity:1;stroke-width:3.49999;stroke-linejoin:bevel"
         d="m 237.74732,17.763011 a 6.9999964,6.9999971 0 0 0 -7,6.999996 h 7 z" />
      <path
         id="path7781-3"
         style="opacity:0.2;fill:#ffffff;fill-opacity:1;stroke-width:3.49999;stroke-linejoin:bevel"
         d="m 237.74732,17.76301 c -3.86599,0 -7,3.134011 -7,7 h 0.0215 c 0.25711,-3.631918 3.28116,-6.5 6.97852,-6.5 3.69736,0 6.72141,2.868082 6.97852,6.5 h 0.0215 c 0,-3.865989 -3.13401,-7 -7,-7 z" />
      <rect
         style="opacity:0.2;fill:#000000;fill-opacity:1;stroke-width:5;stroke-linecap:round;stroke-linejoin:round"
         id="rect7881-7"
         width="8"
         height="8"
         x="228.74731"
         y="21.26301"
         ry="0.99999964" />
      <rect
         style="fill:#c43e1c;fill-opacity:1;stroke-width:0.499997"
         id="rect2687-5"
         width="8"
         height="8"
         x="228.74731"
         y="20.763008"
         ry="0.99999964" />
      <path
         id="rect4291-9"
         style="fill:#ffffff;fill-opacity:1;stroke-width:0.500001"
         d="m 230.74732,21.763053 v 6 h 1 v -1.999999 h 1 c 1.10457,0 2,-0.89543 2,-2 0,-1.10457 -0.89543,-2.000001 -2,-2.000001 h -1 z m 1,1 h 1 c 0.55229,0 1,0.447716 1,1.000001 0,0.552284 -0.44771,0.999998 -1,0.999998 h -1 z"
         sodipodi:nodetypes="ccccssscccssscc" />
    </g>
    <g
       id="g4919"
       transform="translate(-87.387468,-44.463255)">
      <ellipse
         style="opacity:0.2;fill:#000000;fill-opacity:1;stroke-width:7.14286;stroke-linecap:round;stroke-linejoin:round"
         id="path7987-9"
         cx="276.36752"
         cy="156.85757"
         rx="9.999999"
         ry="9.9999962" />
      <circle
         style="fill:#ff8f6b;fill-opacity:1;stroke-width:6.66664;stroke-linejoin:bevel"
         id="path31463-3"
         cx="276.36755"
         cy="155.85757"
         r="9.9999943" />
      <path
         id="path31465-60"
         style="fill:#d35230;fill-opacity:1;stroke-width:5;stroke-linejoin:bevel"
         d="m 266.36755,155.85758 c 0,5.52284 4.47715,9.99999 9.99999,9.99999 5.52285,0 10,-4.47715 10,-9.99999 h -10 z"
         sodipodi:nodetypes="csccc" />
      <path
         id="path8517"
         style="opacity:0.2;fill:#000000;fill-opacity:1;stroke-width:5;stroke-linejoin:bevel"
         d="m 266.36754,155.85758 c 0,0.33726 0.0182,0.67132 0.0508,1 h 9.94922 9.94921 c 0.0326,-0.32868 0.0508,-0.66274 0.0508,-1 h -10 z" />
      <path
         id="path31759-6"
         style="fill:#ed6c47;fill-opacity:1;stroke-width:5;stroke-linejoin:bevel"
         d="m 276.36754,145.85758 a 9.9999938,9.9999944 0 0 0 -10,10 h 10 z" />
      <path
         id="path8587"
         style="opacity:0.2;fill:#ffffff;fill-opacity:1;stroke-width:5;stroke-linejoin:bevel"
         d="m 276.36754,145.85758 c -5.52284,0 -10,4.47716 -10,10 h 0.0508 c 0.5014,-5.05366 4.76364,-9 9.94922,-9 5.18558,0 9.44782,3.94634 9.94921,9 h 0.0508 c 0,-5.52284 -4.47715,-10 -10,-10 z" />
      <rect
         style="opacity:0.2;fill:#000000;fill-opacity:1;stroke-width:7.5;stroke-linecap:round;stroke-linejoin:round"
         id="rect7881-26"
         width="11.999999"
         height="11.999999"
         x="262.36755"
         y="150.85757"
         ry="1" />
      <rect
         style="fill:#c43e1c;fill-opacity:1;stroke-width:0.749996"
         id="rect2687-1"
         width="11.999999"
         height="11.999999"
         x="262.36755"
         y="149.85757"
         ry="1" />
      <path
         id="rect573"
         style="fill:#ffffff;stroke-width:5;stroke-linecap:round;stroke-linejoin:round"
         d="m 266.36754,151.85758 v 8 h 1 v -3 h 1.5 c 1.385,0 2.5,-1.115 2.5,-2.5 0,-1.385 -1.115,-2.5 -2.5,-2.5 h -1.5 z m 1,1 h 1.5 c 0.831,0 1.5,0.669 1.5,1.5 0,0.831 -0.669,1.5 -1.5,1.5 h -1.5 z" />
    </g>
    <g
       id="g4699"
       transform="translate(13.467078,20.708265)">
      <ellipse
         style="opacity:0.2;fill:#000000;fill-opacity:1;stroke-width:10;stroke-linecap:round;stroke-linejoin:round"
         id="path7987-3"
         cx="183.51302"
         cy="22.686056"
         rx="14"
         ry="13.999996" />
      <circle
         style="fill:#ff8f6b;fill-opacity:1;stroke-width:9.33332;stroke-linejoin:bevel"
         id="path31463-5"
         cx="183.51303"
         cy="21.686052"
         r="13.999993" />
      <path
         id="path31465-6"
         style="fill:#d35230;fill-opacity:1;stroke-width:6.99998;stroke-linejoin:bevel"
         d="m 169.51303,21.686054 c 0,7.731986 6.26801,13.999998 13.99999,13.999998 7.73199,0 14,-6.268012 14,-13.999998 h -14 z"
         sodipodi:nodetypes="csccc" />
      <path
         id="path7584-2"
         style="opacity:0.2;fill:#000000;fill-opacity:1;stroke-width:6.99998;stroke-linejoin:bevel"
         d="m 169.51302,21.68606 c 0,0.337258 0.0195,0.66871 0.043,1 h 13.95703 13.95703 c 0.0235,-0.33129 0.043,-0.662742 0.043,-1 h -14 z" />
      <path
         id="path31759-9"
         style="fill:#ed6c47;fill-opacity:1;stroke-width:6.99998;stroke-linejoin:bevel"
         d="m 183.51302,7.686062 a 13.999993,13.999994 0 0 0 -14,13.999992 h 14 z" />
      <path
         id="path7781-1"
         style="opacity:0.2;fill:#ffffff;fill-opacity:1;stroke-width:6.99998;stroke-linejoin:bevel"
         d="m 183.51302,7.68606 c -7.73198,0 -14,6.268022 -14,14 h 0.043 c 0.51421,-7.263836 6.56231,-13 13.95703,-13 7.39472,0 13.44282,5.736164 13.95703,13 h 0.043 c 0,-7.731978 -6.26802,-14 -14,-14 z" />
      <rect
         style="opacity:0.2;fill:#000000;fill-opacity:1;stroke-width:10;stroke-linecap:round;stroke-linejoin:round"
         id="rect7881-2"
         width="16"
         height="16"
         x="165.51302"
         y="14.68606"
         ry="1.9999993" />
      <rect
         style="fill:#c43e1c;fill-opacity:1;stroke-width:0.999994"
         id="rect2687-7"
         width="16"
         height="16"
         x="165.51302"
         y="13.686056"
         ry="1.9999993" />
      <path
         id="rect4291-0"
         style="fill:#ffffff;fill-opacity:1;stroke-width:1"
         d="m 169.51302,15.686146 v 12 h 2 v -3.999998 h 2 c 2.20914,0 4,-1.79086 4,-4 0,-2.20914 -1.79086,-4.000002 -4,-4.000002 h -2 z m 2,2 h 2 c 1.10457,0 2,0.895432 2,2.000002 0,1.104568 -0.89543,1.999996 -2,1.999996 h -2 z"
         sodipodi:nodetypes="ccccssscccssscc" />
    </g>
    <g
       id="g4361"
       transform="translate(0,2)">
      <ellipse
         style="opacity:0.2;fill:#000000;fill-opacity:1;stroke-width:20;stroke-linecap:round;stroke-linejoin:round"
         id="path7987"
         cx="80.980095"
         cy="81.394333"
         rx="28"
         ry="27.999992" />
      <circle
         style="fill:#ff8f6b;fill-opacity:1;stroke-width:18.6666;stroke-linejoin:bevel"
         id="path31463"
         cx="80.980103"
         cy="80.394325"
         r="27.999987" />
      <path
         id="path31465"
         style="fill:#d35230;fill-opacity:1;stroke-width:14;stroke-linejoin:bevel"
         d="m 52.980108,80.39433 c -4e-6,15.463972 12.53602,27.99999 27.999992,27.99999 15.463972,0 28,-12.536018 27.99999,-27.99999 H 80.9801 Z"
         sodipodi:nodetypes="csccc" />
      <path
         id="path7584"
         style="opacity:0.2;fill:#000000;fill-opacity:1;stroke-width:14;stroke-linejoin:bevel"
         d="m 52.980092,80.394342 c 0,0.335946 0.008,0.66842 0.02344,1 h 27.97656 27.976558 c 0.0155,-0.33158 0.0234,-0.664054 0.0234,-1 H 80.980092 Z" />
      <path
         id="path31759"
         style="fill:#ed6c47;fill-opacity:1;stroke-width:14;stroke-linejoin:bevel"
         d="M 80.980084,52.394346 A 27.999986,27.999988 0 0 0 52.980092,80.39433 h 27.999992 z" />
      <path
         id="path7781"
         style="opacity:0.2;fill:#ffffff;fill-opacity:1;stroke-width:14;stroke-linejoin:bevel"
         d="m 80.980092,52.394342 c -15.46394,0 -28.000004,12.53606 -28,28 h 0.02344 c 0.527346,-15.000082 12.847858,-27 27.97656,-27 15.128702,0 27.449218,11.999918 27.976558,27 h 0.0234 c 10e-6,-15.46394 -12.536058,-28 -27.999998,-28 z" />
      <rect
         style="opacity:0.2;fill:#000000;fill-opacity:1;stroke-width:20;stroke-linecap:round;stroke-linejoin:round"
         id="rect7881"
         width="32"
         height="32"
         x="44.980091"
         y="65.394341"
         ry="3.9999986" />
      <rect
         style="fill:#c43e1c;fill-opacity:1;stroke-width:1.99999"
         id="rect2687"
         width="32"
         height="32"
         x="44.980091"
         y="64.394333"
         ry="3.9999986" />
      <path
         id="rect4291"
         style="fill:#ffffff;fill-opacity:1;stroke-width:2"
         d="m 52.980092,68.394514 v 24 h 4.000004 v -7.999996 h 4 c 4.41828,0 8,-3.58172 8,-8 0,-4.41828 -3.58172,-8.000004 -8,-8.000004 h -4 z m 4.000004,4 h 4 c 2.20914,0 4.000004,1.790864 4,4.000004 -4e-6,2.209136 -1.790864,3.999992 -4,3.999992 h -4 z"
         sodipodi:nodetypes="ccccssscccssscc" />
    </g>
  </g>
  <g
     id="g1758">
    <path
       d="m 256,56.5 v 5 c 0,0.5523 0.44771,1 1,1 h 5 z"
       style="opacity:0.2;fill:#000000;fill-opacity:1;stroke-width:0.5"
       id="path3295" />
    <path
       d="m 269,21 -8,-8 v 6.59375 C 261,20.373375 261.62775,21 262.40625,21 Z"
       style="opacity:0.2;fill:#000000"
       id="path1389"
       sodipodi:nodetypes="ccssc" />
    <path
       d="m 188,95 v 10 c 0,1.1046 0.89543,2 2,2 h 10 z"
       style="opacity:0.2"
       id="path1654"
       sodipodi:nodetypes="csscc" />
    <path
       style="opacity:0.2;fill:#000000"
       d="M 214,31 198,15 V 28.1875 C 198,29.74675 199.2555,31 200.8125,31 Z"
       id="path5454"
       sodipodi:nodetypes="ccssc" />
    <path
       d="M 118,51 86,19 V 45.375 C 86,48.4935 88.511,51 91.625,51 Z"
       style="opacity:0.2;fill:#000000;stroke-width:2"
       id="path1904" />
  </g>
  <g
     id="g1741">
    <path
       d="m 247,56 c -0.554,0 -1,0.446 -1,1 v 0.5 c 0,-0.554 0.446,-1 1,-1 h 9 l 5.5,5.500005 H 262 L 256,56 Z"
       style="opacity:0.2;fill:#ffffff;stroke-width:0.5"
       id="path3323" />
    <path
       d="M 248.375,12 C 247.61325,12 247,12.624791 247,13.400391 v 1 C 247,13.624791 247.61325,13 248.375,13 H 261 l 7.00044,7 H 269 l -8,-8 z"
       style="opacity:0.2;fill:#ffffff"
       id="path1445"
       sodipodi:nodetypes="sscsccccs" />
    <path
       d="m 170,94 c -1.108,0 -2,0.892 -2,2 v 1 c 0,-1.108 0.892,-2 2,-2 h 18 l 11,11.00001 h 1 L 188,94 Z"
       style="opacity:0.2;fill:#ffffff"
       id="path1710"
       sodipodi:nodetypes="sscsccccs" />
    <path
       style="opacity:0.2;fill:#ffffff"
       d="m 172.75,14 c -1.5235,0 -2.75,1.249581 -2.75,2.800781 v 1 C 170,16.249581 171.2265,15 172.75,15 H 198 l 15,15 h 1 L 198,14 Z"
       id="path5458"
       sodipodi:nodetypes="sscsccccs" />
    <path
       d="M 35.5,18 C 32.453,18 30,20.499162 30,23.601562 v 1 C 30,21.499162 32.453,19 35.5,19 H 86 L 117,49.999999 118,50 86,18 Z"
       style="opacity:0.2;fill:#ffffff;stroke-width:2"
       id="path1848"
       sodipodi:nodetypes="sscsccccs" />
  </g>
  <g
     id="g1753">
    <path
       d="m 256,56 v 5 c 0,0.5523 0.44771,1 1,1 h 5 z"
       style="opacity:1;fill:#fafafa;fill-opacity:1;stroke-width:0.5"
       id="path3129"
       sodipodi:nodetypes="csscc" />
    <path
       d="m 269,20 -8,-8 v 6.59375 C 261,19.373375 261.62775,20 262.40625,20 Z"
       style="fill:#fafafa;fill-opacity:1"
       id="path1361"
       sodipodi:nodetypes="ccssc" />
    <path
       d="m 188,94 v 10 c 0,1.1046 0.89543,2 2,2 h 10 z"
       style="fill:#fafafa;fill-opacity:1"
       id="path1682" />
    <path
       d="m 252.0005,91 v 3.1662 c 0,0.4584 0.3749,0.8333 0.8333,0.8333 H 256 Z"
       style="fill:#fafafa"
       id="path3501"
       sodipodi:nodetypes="csscc" />
    <path
       style="fill:#fafafa;fill-opacity:1"
       d="M 214,30 198,14 V 27.1875 C 198,28.74675 199.2555,30 200.8125,30 Z"
       id="path5456"
       sodipodi:nodetypes="ccssc" />
    <path
       d="M 118,50 86,18 V 44.375 C 86,47.4935 88.511,50 91.625,50 Z"
       style="fill:#fafafa;stroke-width:2;fill-opacity:1"
       id="path1876" />
  </g>
</svg>
