<?xml version="1.0" encoding="UTF-8" standalone="no"?>
<svg
   width="284"
   height="148"
   version="1.1"
   id="svg5462"
   sodipodi:docname="application-json.svg"
   inkscape:version="1.2.2 (1:1.2.2+202305151914+b0a8486541)"
   xmlns:inkscape="http://www.inkscape.org/namespaces/inkscape"
   xmlns:sodipodi="http://sodipodi.sourceforge.net/DTD/sodipodi-0.dtd"
   xmlns="http://www.w3.org/2000/svg"
   xmlns:svg="http://www.w3.org/2000/svg">
  <defs
     id="defs5466" />
  <sodipodi:namedview
     id="namedview5464"
     pagecolor="#d2d2d2"
     bordercolor="#000000"
     borderopacity="0.25"
     inkscape:showpageshadow="2"
     inkscape:pageopacity="0"
     inkscape:pagecheckerboard="0"
     inkscape:deskcolor="#d2d2d2"
     showgrid="false"
     inkscape:zoom="4.5985915"
     inkscape:cx="142"
     inkscape:cy="73.935681"
     inkscape:window-width="1920"
     inkscape:window-height="1008"
     inkscape:window-x="0"
     inkscape:window-y="0"
     inkscape:window-maximized="1"
     inkscape:current-layer="svg5462"
     showborder="false"
     showguides="true" />
  <g
     id="Baseplate"
     transform="translate(160,10)"
     style="display:none">
    <text
       xml:space="preserve"
       style="font-size:12px;font-family:'Noto Sans';-inkscape-font-specification:'Noto Sans';text-align:end;text-anchor:end;opacity:1;fill:#000000;stroke-width:5;stroke-linecap:round;stroke-linejoin:round"
       x="71.631897"
       y="-0.48000813"
       id="context"
       transform="translate(-160,-10)"><tspan
         sodipodi:role="line"
         id="tspan1976"
         x="71.631897"
         y="-0.48000813"
         style="font-size:12px">mimetypes</tspan></text>
    <text
       xml:space="preserve"
       style="font-size:12px;font-family:'Noto Sans';-inkscape-font-specification:'Noto Sans';text-align:start;text-anchor:start;fill:#000000;stroke-width:5;stroke-linecap:round;stroke-linejoin:round"
       x="-74.127937"
       y="-10.480008"
       id="icon-name"><tspan
         sodipodi:role="line"
         id="tspan1976-6"
         x="-74.127937"
         y="-10.480008"
         style="font-style:normal;font-variant:normal;font-weight:bold;font-stretch:normal;font-size:12px;font-family:'Noto Sans';-inkscape-font-specification:'Noto Sans Bold';text-align:start;text-anchor:start">application-json</tspan></text>
    <rect
       style="opacity:1;fill:#ffffff;stroke-width:5;stroke-linecap:round;stroke-linejoin:round"
       id="128x128"
       width="128"
       height="128"
       x="-150"
       y="0" />
    <rect
       style="opacity:1;fill:#ffffff;stroke-width:5;stroke-linecap:round;stroke-linejoin:round"
       id="64x64"
       width="64"
       height="64"
       x="0"
       y="0" />
    <rect
       style="opacity:1;fill:#ffffff;stroke-width:5;stroke-linecap:round;stroke-linejoin:round"
       id="48x48"
       width="48"
       height="48"
       x="0"
       y="80" />
    <rect
       style="opacity:1;fill:#ffffff;stroke-width:1.66667;stroke-linecap:round;stroke-linejoin:round"
       id="32x32"
       width="32"
       height="32"
       x="82"
       y="0" />
    <rect
       style="opacity:1;fill:#ffffff;stroke-width:5;stroke-linecap:round;stroke-linejoin:round"
       id="24x24"
       width="24"
       height="24"
       x="82"
       y="44" />
    <rect
       style="opacity:1;fill:#ffffff;stroke-width:5;stroke-linecap:round;stroke-linejoin:round"
       id="16x16"
       width="16"
       height="16"
       x="82"
       y="80" />
  </g>
  <g
     id="g1767">
    <path
       d="m 247,56.5 c -0.554,0 -1,0.446 -1,1 v 18 c 0,0.554 0.446,1 1,1 h 14 c 0.554,0 1,-0.446 1,-1 v -13 L 256.5,62 256,56.5 Z"
       style="opacity:0.2;fill:#000000"
       id="path3101" />
    <path
       d="M 248.375,13 C 247.61325,13 247,13.6244 247,14.4 v 25.2 c 0,0.77504 0.61325,1.4 1.375,1.4 h 19.25 C 268.3862,41 269,40.37504 269,39.6 V 22 l -7,-2 -2,-7 z"
       style="opacity:0.2;fill:#000000"
       id="path1417" />
    <path
       d="m 170,95 c -1.108,0 -2,0.892 -2,2 v 36 c 0,1.108 0.892,2 2,2 h 28 c 1.108,0 2,-0.892 2,-2 v -26 l -11,-1 -1,-11 z"
       style="opacity:0.2;fill:#000000"
       id="path1626" />
    <path
       style="opacity:0.2;fill:#000000"
       d="m 172.75,15 c -1.5235,0 -2.75,1.2488 -2.75,2.8 v 50.4 c 0,1.55008 1.2265,2.8 2.75,2.8 h 38.5 c 1.5224,0 2.75,-1.24992 2.75,-2.8 V 33 l -14,-4 -4,-14 z"
       id="path5450" />
    <path
       d="m 35.499997,19 c -3.047,0 -5.5,2.4976 -5.5,5.6 v 100.8 c 0,3.10017 2.453,5.6 5.5,5.6 H 112.5 c 3.0448,0 5.5,-2.49984 5.5,-5.6 V 50.999999 l -24,-8 L 86,19 Z"
       style="fill:#000000;stroke-width:2;opacity:0.2"
       id="path1820" />
  </g>
  <g
     id="g1733">
    <path
       d="M 248.375,12 C 247.61325,12 247,12.6244 247,13.4 v 25.2 c 0,0.77504 0.61325,1.4 1.375,1.4 h 19.25 C 268.3862,40 269,39.37504 269,38.6 V 20 l -6,-2 -2,-6 z"
       style="fill:#e4e4e4;fill-opacity:1"
       id="path1333"
       sodipodi:nodetypes="sssssscccs" />
    <path
       d="m 247,56 c -0.554,0 -1,0.446 -1,1 v 18 c 0,0.554 0.446,1 1,1 h 14 c 0.554,0 1,-0.446 1,-1 V 62 L 256.5,61.5 256,56 Z"
       style="fill:#e4e4e4"
       id="path3073"
       sodipodi:nodetypes="sssssscccs" />
    <path
       d="m 244.75,91 c -0.4172,0 -0.75,0.3328 -0.75,0.75 v 13.5 c 0,0.417 0.3328,0.75 0.75,0.75 h 10.5 c 0.418,0 0.75,-0.332 0.75,-0.75 V 94.9995 L 252.8755,94.1245 252.0005,91 Z"
       style="fill:#e4e4e4"
       id="path3473"
       sodipodi:nodetypes="sssssscccs" />
    <path
       d="m 170,94 c -1.108,0 -2,0.892 -2,2 v 36 c 0,1.108 0.892,2 2,2 h 28 c 1.108,0 2,-0.892 2,-2 v -26 l -11,-1 -1,-11 z"
       style="fill:#e4e4e4;fill-opacity:1"
       id="path1598" />
    <path
       style="fill:#e4e4e4;fill-opacity:1"
       d="m 172.75,14 c -1.5235,0 -2.75,1.2488 -2.75,2.8 v 50.4 c 0,1.55008 1.2265,2.8 2.75,2.8 h 38.5 c 1.5224,0 2.75,-1.24992 2.75,-2.8 V 30 l -12,-4 -4,-12 z"
       id="path5452"
       sodipodi:nodetypes="sssssscccs" />
    <path
       d="M 35.5,18 C 32.453,18 30,20.4976 30,23.6 v 100.8 c 0,3.10016 2.453,5.6 5.5,5.6 h 77 c 3.0448,0 5.5,-2.49984 5.5,-5.6 V 49.999999 l -24,-8 L 86,18 Z"
       style="fill:#e4e4e4;stroke-width:2;fill-opacity:1"
       id="path1792"
       sodipodi:nodetypes="sssssscccs" />
  </g>
  <g
     id="g772">
    <path
       d="m 248.12983,97.60033 h -0.0375 c -0.0328,0.0047 -0.0656,0.0094 -0.0984,0.01875 0,0 -0.23437,0.07969 -0.50156,0.22031 -0.27187,0.14531 -0.6,0.34219 -0.81094,0.68437 -0.23436,0.37968 -0.14532,0.78756 -0.0703,1.0313 0.0703,0.24372 0.11244,0.3516 0.0468,0.51096 -0.0328,0.0797 -0.23904,0.25776 -0.45936,0.36564 -0.22032,0.10776 -0.41712,0.16404 -0.41712,0.16404 -0.0985,0.0234 -0.18288,0.089 -0.22968,0.1734 -0.0516,0.0844 -0.0656,0.18768 -0.0376,0.28608 -0.0468,0.1968 0.0703,0.3936 0.26724,0.4452 0,0 0.19687,0.0562 0.41719,0.16406 0.22031,0.1125 0.42656,0.28594 0.45937,0.36563 0.0656,0.16406 0.0234,0.26719 -0.0469,0.51094 -0.075,0.24374 -0.16406,0.65156 0.0703,1.0312 0.21094,0.34219 0.53906,0.54376 0.81094,0.68437 0.26719,0.14063 0.50156,0.22031 0.50156,0.22031 0.12656,0.0469 0.27187,0.0234 0.375,-0.0656 0.10312,-0.0891 0.15,-0.22969 0.12187,-0.36563 -0.0281,-0.13126 -0.13126,-0.23906 -0.2625,-0.27656 0,0 -0.17813,-0.0609 -0.38906,-0.17344 -0.21588,-0.1128 -0.44088,-0.2856 -0.52056,-0.4176 -0.0937,-0.1452 -0.0656,-0.1968 0.005,-0.4212 0.0656,-0.2256 0.18756,-0.6048 0.0188,-1.0128 -0.15,-0.366 -0.45,-0.558 -0.71724,-0.6936 0.26724,-0.1404 0.56724,-0.33276 0.71724,-0.6984 0.16872,-0.40788 0.0468,-0.78288 -0.0188,-1.0126 -0.0703,-0.225 -0.0984,-0.27648 -0.005,-0.4218 0.0797,-0.13128 0.30468,-0.30468 0.52032,-0.41724 0.21096,-0.11256 0.38904,-0.1734 0.38904,-0.1734 0.17352,-0.0516 0.28128,-0.225 0.25788,-0.4032 -0.0234,-0.18276 -0.1782,-0.31872 -0.35628,-0.3234 z m 3.4406,0 c -0.1829,0.0047 -0.3329,0.1406 -0.3563,0.3234 -0.0234,0.1782 0.0844,0.3516 0.2579,0.4032 0,0 0.17813,0.06094 0.38906,0.17344 0.21563,0.1125 0.44063,0.28594 0.52031,0.41719 0.0937,0.14531 0.0656,0.19687 -0.005,0.42187 -0.0656,0.22969 -0.1875,0.60469 -0.0187,1.0125 0.15,0.36563 0.45,0.55781 0.71719,0.69844 -0.26719,0.13594 -0.56719,0.32813 -0.71719,0.69374 -0.16874,0.40781 -0.0469,0.7875 0.0187,1.0125 0.0703,0.225 0.0984,0.27656 0.005,0.42187 -0.0797,0.13124 -0.30469,0.30469 -0.52031,0.41719 -0.21094,0.1125 -0.38906,0.17344 -0.38906,0.17344 -0.13124,0.0375 -0.23437,0.14531 -0.2625,0.27656 -0.0281,0.13594 0.0188,0.27656 0.12187,0.36563 0.10312,0.0891 0.24844,0.1125 0.375,0.0656 0,0 0.23437,-0.0797 0.50156,-0.22031 0.27187,-0.14063 0.6,-0.34219 0.81094,-0.68437 0.23437,-0.37969 0.14531,-0.7875 0.0703,-1.0312 -0.0703,-0.24376 -0.1125,-0.34687 -0.0469,-0.51094 0.0328,-0.0797 0.23906,-0.25313 0.45937,-0.36563 0.2208,-0.108 0.4176,-0.1644 0.4176,-0.1644 0.19687,-0.0516 0.31406,-0.24844 0.26719,-0.44531 0.0281,-0.0984 0.0141,-0.20156 -0.0375,-0.28594 -0.0469,-0.0844 -0.13126,-0.15 -0.22969,-0.17344 0,0 -0.19687,-0.0563 -0.41719,-0.16406 -0.2208,-0.10788 -0.4272,-0.28596 -0.4596,-0.36564 -0.066,-0.15936 -0.0228,-0.26724 0.0468,-0.51096 0.0756,-0.24372 0.1644,-0.6516 -0.0696,-1.0313 -0.2112,-0.34212 -0.54,-0.53904 -0.81144,-0.68436 -0.26712,-0.14064 -0.50148,-0.22032 -0.50148,-0.22032 -0.0329,-0.0094 -0.0656,-0.01404 -0.0985,-0.01872 h -0.0375 z m -1.7203,1.5 c -0.4126,0 -0.75,0.3374 -0.75,0.75 0,0.413 0.3374,0.75 0.75,0.75 0.4126,0 0.75,-0.337 0.75,-0.75 0,-0.4126 -0.3374,-0.75 -0.75,-0.75 z m 0,2.25 c -0.4125,0 -0.75,0.3375 -0.75,0.75 0,0.4125 0.3375,0.75 0.75,0.75 0.26719,0 0.375,0.75 0.375,0.75 0,0 0.375,-1.35 0.375,-1.5 0,-0.4125 -0.3375,-0.75 -0.75,-0.75 z"
       style="fill:#84b842;fill-opacity:1;fill-rule:evenodd"
       id="path294" />
    <path
       d="m 251.46485,65.501396 c -0.0651,0.0046 -0.13001,0.02095 -0.18945,0.05078 -0.80963,0.404816 -1.25996,0.835027 -1.41797,1.345703 -0.158,0.510674 0.0122,0.948255 0.10156,1.246094 0.0894,0.297841 0.11795,0.428192 0.0391,0.585937 -0.0789,0.157746 -0.37037,0.457049 -1.19532,0.810547 -0.0422,0.03175 -0.0791,0.06998 -0.10937,0.113281 -0.0615,0.03776 -0.11419,0.0884 -0.1543,0.148438 -2e-5,0.0026 -2e-5,0.0052 0,0.0078 -0.0127,0.06245 -0.0134,0.126755 -0.002,0.189453 -0.0114,0.0627 -0.0108,0.127003 0.002,0.189453 -2e-5,0.0026 -2e-5,0.0052 0,0.0078 0.0401,0.06004 0.0927,0.11068 0.1543,0.148437 0.0303,0.0433 0.0672,0.08153 0.10937,0.113281 0.82451,0.353308 1.11049,0.652422 1.18555,0.806641 0.0751,0.154219 0.0444,0.286336 -0.0488,0.585937 -0.0933,0.299603 -0.26639,0.738786 -0.10351,1.251954 0.16288,0.513167 0.62036,0.941742 1.44336,1.345703 0.24807,0.122198 0.54822,0.0198 0.66992,-0.228516 0.12219,-0.248077 0.0198,-0.548232 -0.22852,-0.669922 -0.70499,-0.346037 -0.88622,-0.604965 -0.93164,-0.748047 -0.0454,-0.14308 0.004,-0.3289 0.10547,-0.654296 0.1013,-0.325396 0.23654,-0.818284 -0.008,-1.320313 -0.15699,-0.322528 -0.66686,-0.564964 -1.08594,-0.826172 0.42133,-0.261088 0.93127,-0.505162 1.0918,-0.826172 0.24929,-0.498503 0.12162,-0.993154 0.0234,-1.320312 -0.0982,-0.327132 -0.14856,-0.514557 -0.10352,-0.66013 0.045,-0.145573 0.21979,-0.402864 0.91016,-0.748046 0.24684,-0.123118 0.34735,-0.422888 0.22461,-0.669922 -0.0591,-0.119063 -0.16306,-0.209722 -0.28907,-0.251953 -0.0631,-0.02109 -0.12828,-0.02809 -0.19336,-0.02344 z m 5.07032,0 c -0.0647,-0.0046 -0.13058,0.0026 -0.19336,0.02344 -0.12601,0.04223 -0.23003,0.13289 -0.28907,0.251953 -0.12274,0.247034 -0.0222,0.546805 0.22461,0.669922 0.69037,0.345184 0.86314,0.602446 0.90821,0.748046 0.0451,0.1456 -0.003,0.333011 -0.10157,0.660157 -0.0981,0.327144 -0.22581,0.821822 0.0234,1.320312 0.16051,0.321002 0.67052,0.565076 1.0918,0.826172 -0.41902,0.261216 -0.92898,0.503653 -1.08594,0.826172 -0.24431,0.502016 -0.10908,0.99493 -0.008,1.320313 0.10126,0.325383 0.15091,0.511188 0.10547,0.654296 -0.0454,0.143109 -0.22664,0.402007 -0.93164,0.748047 -0.24832,0.12169 -0.35071,0.421845 -0.22852,0.669922 0.12169,0.248325 0.42185,0.35071 0.66993,0.228516 0.82299,-0.403959 1.28042,-0.832564 1.44336,-1.345703 0.16293,-0.513141 -0.0103,-0.952338 -0.10352,-1.251954 -0.0932,-0.299614 -0.12388,-0.431705 -0.0488,-0.585937 0.0751,-0.154232 0.36117,-0.453338 1.18555,-0.806641 0.11424,-0.05035 0.2055,-0.141621 0.25586,-0.255859 l 0.006,-0.0059 v -0.0039 c 0.0131,-0.0379 0.0217,-0.07725 0.0254,-0.117187 0.007,-0.025 0.0111,-0.05047 0.0137,-0.07617 -0.003,-0.02571 -0.007,-0.05117 -0.0137,-0.07617 -0.004,-0.03994 -0.0123,-0.07929 -0.0254,-0.117187 v -0.0039 c -0.002,-0.002 -0.004,-0.0039 -0.006,-0.0059 -0.0503,-0.114238 -0.14162,-0.205506 -0.25586,-0.255859 -0.82482,-0.353493 -1.11644,-0.652789 -1.19531,-0.810547 -0.0789,-0.157758 -0.0503,-0.288084 0.0391,-0.585938 0.0894,-0.297853 0.25961,-0.735446 0.10156,-1.246093 -0.15806,-0.510649 -0.6103,-0.94089 -1.41993,-1.345704 -0.0592,-0.02957 -0.12277,-0.04613 -0.1875,-0.05078 z m -2.53516,1.999026 c -0.55229,0 -1,0.447715 -1,1 0,0.552285 0.44771,1 1,1 0.55229,0 1,-0.447715 1,-1 0,-0.552285 -0.44771,-1 -1,-1 z m 0,3 c -0.55229,0 -1,0.447715 -1,1 0,0.552285 0.44771,1 1,1 v 1 c 0.55229,0 1,-0.895431 1,-2 0,-0.552285 -0.44771,-1 -1,-1 z"
       style="color:#000000;opacity:0.2;fill:#000000;fill-opacity:1;stroke-linecap:round;-inkscape-stroke:none"
       id="path795"
       sodipodi:nodetypes="ccssscccccccccscscccscccssscscccccccscscscscccssscccccccccccssssccsssssssccss" />
    <path
       d="m 251.46485,65.001396 c -0.0651,0.0046 -0.13001,0.02095 -0.18945,0.05078 -0.80963,0.404816 -1.25996,0.835027 -1.41797,1.345703 -0.158,0.510674 0.0122,0.948255 0.10156,1.246094 0.0894,0.297841 0.11795,0.428192 0.0391,0.585937 -0.0789,0.157746 -0.37037,0.457049 -1.19532,0.810547 -0.0422,0.03175 -0.0791,0.06998 -0.10937,0.113281 -0.0615,0.03776 -0.11419,0.0884 -0.1543,0.148438 -2e-5,0.0026 -2e-5,0.0052 0,0.0078 -0.0127,0.06245 -0.0134,0.126755 -0.002,0.189453 -0.0114,0.0627 -0.0108,0.127003 0.002,0.189453 -2e-5,0.0026 -2e-5,0.0052 0,0.0078 0.0401,0.06004 0.0927,0.11068 0.1543,0.148437 0.0303,0.0433 0.0672,0.08153 0.10937,0.113281 0.82451,0.353308 1.11049,0.652422 1.18555,0.806641 0.0751,0.154219 0.0444,0.286336 -0.0488,0.585937 -0.0933,0.299603 -0.26639,0.738786 -0.10351,1.251954 0.16288,0.513167 0.62036,0.941742 1.44336,1.345703 0.24807,0.122198 0.54822,0.0198 0.66992,-0.228516 0.12219,-0.248077 0.0198,-0.548232 -0.22852,-0.669922 -0.70499,-0.346037 -0.88622,-0.604965 -0.93164,-0.748047 -0.0454,-0.14308 0.004,-0.3289 0.10547,-0.654296 0.1013,-0.325396 0.23654,-0.818284 -0.008,-1.320313 -0.15699,-0.322528 -0.66686,-0.564964 -1.08594,-0.826172 0.42133,-0.261088 0.93127,-0.505162 1.0918,-0.826172 0.24929,-0.498503 0.12162,-0.993154 0.0234,-1.320312 -0.0982,-0.327132 -0.14856,-0.514557 -0.10352,-0.66013 0.045,-0.145573 0.21979,-0.402864 0.91016,-0.748046 0.24684,-0.123118 0.34735,-0.422888 0.22461,-0.669922 -0.0591,-0.119063 -0.16306,-0.209722 -0.28907,-0.251953 -0.0631,-0.02109 -0.12828,-0.02809 -0.19336,-0.02344 z m 5.07032,0 c -0.0647,-0.0046 -0.13058,0.0026 -0.19336,0.02344 -0.12601,0.04223 -0.23003,0.13289 -0.28907,0.251953 -0.12274,0.247034 -0.0222,0.546805 0.22461,0.669922 0.69037,0.345184 0.86314,0.602446 0.90821,0.748046 0.0451,0.1456 -0.003,0.333011 -0.10157,0.660157 -0.0981,0.327144 -0.22581,0.821822 0.0234,1.320312 0.16051,0.321002 0.67052,0.565076 1.0918,0.826172 -0.41902,0.261216 -0.92898,0.503653 -1.08594,0.826172 -0.24431,0.502016 -0.10908,0.99493 -0.008,1.320313 0.10126,0.325383 0.15091,0.511188 0.10547,0.654296 -0.0454,0.143109 -0.22664,0.402007 -0.93164,0.748047 -0.24832,0.12169 -0.35071,0.421845 -0.22852,0.669922 0.12169,0.248325 0.42185,0.35071 0.66993,0.228516 0.82299,-0.403959 1.28042,-0.832564 1.44336,-1.345703 0.16293,-0.513141 -0.0103,-0.952338 -0.10352,-1.251954 -0.0932,-0.299614 -0.12388,-0.431705 -0.0488,-0.585937 0.0751,-0.154232 0.36117,-0.453338 1.18555,-0.806641 0.11424,-0.05035 0.2055,-0.141621 0.25586,-0.255859 l 0.006,-0.0059 v -0.0039 c 0.0131,-0.0379 0.0217,-0.07725 0.0254,-0.117187 0.007,-0.025 0.0111,-0.05047 0.0137,-0.07617 -0.003,-0.02571 -0.007,-0.05117 -0.0137,-0.07617 -0.004,-0.03994 -0.0123,-0.07929 -0.0254,-0.117187 v -0.0039 c -0.002,-0.002 -0.004,-0.0039 -0.006,-0.0059 -0.0503,-0.114238 -0.14162,-0.205506 -0.25586,-0.255859 -0.82482,-0.353493 -1.11644,-0.652789 -1.19531,-0.810547 -0.0789,-0.157758 -0.0503,-0.288084 0.0391,-0.585938 0.0894,-0.297853 0.25961,-0.735446 0.10156,-1.246093 -0.15806,-0.510649 -0.6103,-0.94089 -1.41993,-1.345704 -0.0592,-0.02957 -0.12277,-0.04613 -0.1875,-0.05078 z m -2.53516,1.999026 c -0.55229,0 -1,0.447715 -1,1 0,0.552285 0.44771,1 1,1 0.55229,0 1,-0.447715 1,-1 0,-0.552285 -0.44771,-1 -1,-1 z m 0,3 c -0.55229,0 -1,0.447715 -1,1 0,0.552285 0.44771,1 1,1 v 1 c 0.55229,0 1,-0.895431 1,-2 0,-0.552285 -0.44771,-1 -1,-1 z"
       style="color:#000000;fill:#84b841;fill-opacity:1;stroke-linecap:round;-inkscape-stroke:none"
       id="path764"
       sodipodi:nodetypes="ccssscccccccccscscccscccssscscccccccscscscscccssscccccccccccssssccsssssssccss" />
    <path
       d="m 255.22896,26.000115 c -0.0189,-2.36e-4 -0.0378,4.15e-4 -0.0566,0.002 -0.0539,0.0033 -0.10713,0.0138 -0.15819,0.03125 0,0 -0.37435,0.12296 -0.80861,0.349609 -0.43422,0.22665 -0.96127,0.544797 -1.30078,1.089844 -0.37789,0.606598 -0.23471,1.256181 -0.11719,1.644532 0.11752,0.388359 0.18083,0.558324 0.0723,0.818359 -0.053,0.126977 -0.37703,0.403347 -0.73242,0.576172 -0.35564,0.172856 -0.67773,0.263672 -0.67773,0.263672 -0.32265,0.08295 -0.51492,0.411307 -0.42775,0.730468 -0.076,0.313408 0.11384,0.629749 0.42775,0.712891 0,0 0.32234,0.09085 0.67773,0.263672 0.35541,0.172816 0.67942,0.451149 0.73242,0.578125 0.10854,0.260006 0.0453,0.429969 -0.0723,0.818359 -0.11752,0.388359 -0.2607,1.037835 0.11719,1.644532 0.33952,0.545037 0.86656,0.86121 1.30078,1.08789 0.43422,0.226649 0.80861,0.34961 0.80861,0.34961 0.77533,0.285866 1.17071,-0.896206 0.37694,-1.126954 0,0 -0.28393,-0.09438 -0.62694,-0.273437 -0.34305,-0.179047 -0.71017,-0.45584 -0.83986,-0.664063 -0.14672,-0.235526 -0.0993,-0.317222 0.01,-0.677734 0.10911,-0.360521 0.30652,-0.958615 0.0332,-1.613281 -0.24205,-0.579761 -0.72558,-0.886102 -1.1582,-1.107422 0.43256,-0.22129 0.91609,-0.529585 1.1582,-1.109375 0.27332,-0.654656 0.0759,-1.25277 -0.0332,-1.613281 -0.1091,-0.360521 -0.15647,-0.442219 -0.01,-0.677735 0.12971,-0.208213 0.49685,-0.484996 0.83986,-0.664062 0.34303,-0.179048 0.62694,-0.273438 0.62694,-0.273438 0.64164,-0.201303 0.5124,-1.137523 -0.16015,-1.160203 z m 5.53906,0 c -0.6716,0.02461 -0.79906,0.959384 -0.1582,1.160156 0,0 0.28391,0.09439 0.62695,0.273438 0.34301,0.179057 0.71015,0.45584 0.83985,0.664062 0.14671,0.235517 0.0993,0.317213 -0.01,0.677735 -0.10911,0.360501 -0.30654,0.960567 -0.0332,1.615234 0.24206,0.57974 0.7256,0.886092 1.15821,1.107422 -0.43257,0.22127 -0.9161,0.527612 -1.15821,1.107422 -0.2733,0.654657 -0.0759,1.25277 0.0332,1.613281 0.1091,0.360511 0.15647,0.442208 0.01,0.677734 -0.12968,0.208223 -0.49682,0.485016 -0.83985,0.664063 -0.34302,0.179057 -0.62695,0.273437 -0.62695,0.273437 -0.79377,0.230748 -0.39838,1.41282 0.37695,1.126954 0,0 0.37438,-0.12296 0.8086,-0.34961 0.43419,-0.226669 0.96123,-0.542853 1.30078,-1.08789 0.37789,-0.606658 0.2347,-1.256083 0.11719,-1.644532 -0.11752,-0.388389 -0.18082,-0.558353 -0.0723,-0.818359 0.053,-0.126977 0.37701,-0.40531 0.73242,-0.578125 0.35539,-0.172816 0.67773,-0.263672 0.67773,-0.263672 0.31391,-0.08314 0.50372,-0.399483 0.42774,-0.712891 0.0872,-0.319161 -0.10509,-0.647522 -0.42773,-0.730468 0,0 -0.32209,-0.09082 -0.67773,-0.263672 -0.3554,-0.172816 -0.67942,-0.449195 -0.73242,-0.576172 -0.10856,-0.260036 -0.0453,-0.429999 0.0723,-0.818359 0.11751,-0.38836 0.26071,-1.037934 -0.11719,-1.644532 -0.33947,-0.545037 -0.86653,-0.863184 -1.30078,-1.089844 -0.43424,-0.226649 -0.81055,-0.349609 -0.81055,-0.349609 -0.0505,-0.01728 -0.103,-0.02779 -0.15625,-0.03125 -0.0195,-0.0016 -0.039,-0.0023 -0.0586,-0.002 h -0.002 z m -2.76758,3 c -0.5523,-4.6e-5 -1.00004,0.447696 -1,1 -4e-5,0.552304 0.4477,1.000046 1,1 0.55231,4.6e-5 1.00005,-0.447696 1,-1 5e-5,-0.552304 -0.44769,-1.000046 -1,-1 z m 0,3.003906 c -0.55229,0 -1,0.447705 -1,1 0,0.552279 0.44771,1 1,1 0.35349,0 0.5,1 0.5,1 0,0 0.5,-1.801141 0.5,-2 0,-0.552295 -0.4477,-1 -1,-1 z"
       style="opacity:0.2;fill:#000000;fill-opacity:1;fill-rule:evenodd"
       id="path1073"
       sodipodi:nodetypes="sccssssccccsscssccsscscsscsccsccsscsccscsccsssssccccsccsccscccccccssscss" />
    <path
       d="m 255.22896,25.000115 c -0.0189,-2.36e-4 -0.0378,4.15e-4 -0.0566,0.002 -0.0539,0.0033 -0.10713,0.0138 -0.1582,0.03125 0,0 -0.37435,0.12296 -0.8086,0.349609 -0.43422,0.22665 -0.96128,0.544797 -1.30078,1.089844 -0.37789,0.606598 -0.23471,1.256181 -0.11719,1.644532 0.11752,0.388359 0.18082,0.558324 0.0723,0.818359 -0.053,0.126977 -0.37702,0.403347 -0.73242,0.576172 -0.35564,0.172856 -0.67773,0.263672 -0.67773,0.263672 -0.32264,0.08295 -0.51492,0.411307 -0.42774,0.730468 -0.076,0.313408 0.11383,0.629749 0.42774,0.712891 0,0 0.32234,0.09085 0.67773,0.263672 0.35541,0.172816 0.67943,0.451149 0.73242,0.578125 0.10855,0.260006 0.0453,0.429969 -0.0723,0.818359 -0.11752,0.388359 -0.2607,1.037835 0.11719,1.644532 0.33952,0.545037 0.86656,0.86121 1.30078,1.08789 0.43422,0.226649 0.8086,0.34961 0.8086,0.34961 0.77533,0.285866 1.17072,-0.896206 0.37695,-1.126954 0,0 -0.28393,-0.09438 -0.62695,-0.273437 -0.34304,-0.179047 -0.71017,-0.45584 -0.83985,-0.664063 -0.14672,-0.235526 -0.0993,-0.317222 0.01,-0.677734 0.1091,-0.360521 0.30652,-0.958615 0.0332,-1.613281 -0.24205,-0.579761 -0.72558,-0.886102 -1.1582,-1.107422 0.43256,-0.22129 0.91609,-0.529585 1.1582,-1.109375 0.27332,-0.654656 0.0759,-1.25277 -0.0332,-1.613281 -0.1091,-0.360521 -0.15647,-0.442219 -0.01,-0.677735 0.1297,-0.208213 0.49685,-0.484996 0.83985,-0.664062 0.34304,-0.179048 0.62695,-0.273438 0.62695,-0.273438 0.64164,-0.201303 0.5124,-1.137523 -0.16016,-1.160203 z m 5.53906,0 c -0.6716,0.02461 -0.79907,0.959384 -0.1582,1.160156 0,0 0.28391,0.09439 0.62695,0.273438 0.343,0.179057 0.71015,0.45584 0.83985,0.664062 0.14671,0.235517 0.0993,0.317213 -0.01,0.677735 -0.1091,0.360501 -0.30653,0.960567 -0.0332,1.615234 0.24206,0.57974 0.7256,0.886092 1.1582,1.107422 -0.43257,0.22127 -0.9161,0.527612 -1.1582,1.107422 -0.27331,0.654657 -0.0759,1.25277 0.0332,1.613281 0.1091,0.360511 0.15648,0.442208 0.01,0.677734 -0.12968,0.208223 -0.49682,0.485016 -0.83985,0.664063 -0.34302,0.179057 -0.62695,0.273437 -0.62695,0.273437 -0.79377,0.230748 -0.39838,1.41282 0.37695,1.126954 0,0 0.37438,-0.12296 0.8086,-0.34961 0.43419,-0.226669 0.96123,-0.542853 1.30078,-1.08789 0.37789,-0.606658 0.2347,-1.256083 0.11719,-1.644532 -0.11752,-0.388389 -0.18082,-0.558353 -0.0723,-0.818359 0.053,-0.126977 0.37701,-0.40531 0.73242,-0.578125 0.35539,-0.172816 0.67773,-0.263672 0.67773,-0.263672 0.31391,-0.08314 0.50372,-0.399483 0.42774,-0.712891 0.0872,-0.319161 -0.1051,-0.647522 -0.42774,-0.730468 0,0 -0.32209,-0.09082 -0.67773,-0.263672 -0.3554,-0.172816 -0.67942,-0.449195 -0.73242,-0.576172 -0.10856,-0.260036 -0.0453,-0.429999 0.0723,-0.818359 0.11751,-0.38836 0.26071,-1.037934 -0.11719,-1.644532 -0.33947,-0.545037 -0.86653,-0.863184 -1.30078,-1.089844 -0.43424,-0.226649 -0.81055,-0.349609 -0.81055,-0.349609 -0.0505,-0.01728 -0.103,-0.02779 -0.15625,-0.03125 -0.0195,-0.0016 -0.039,-0.0023 -0.0586,-0.002 h -0.002 z m -2.76758,3 c -0.5523,-4.6e-5 -1.00004,0.447696 -1,1 -4e-5,0.552304 0.4477,1.000046 1,1 0.55231,4.6e-5 1.00005,-0.447696 1,-1 5e-5,-0.552304 -0.44769,-1.000046 -1,-1 z m 0,3.003906 c -0.55229,0 -1,0.447705 -1,1 0,0.552279 0.44771,1 1,1 0.35349,0 0.5,1 0.5,1 0,0 0.5,-1.801141 0.5,-2 0,-0.552295 -0.4477,-1 -1,-1 z"
       style="fill:#84b841;fill-opacity:1;fill-rule:evenodd"
       id="path1045"
       sodipodi:nodetypes="sccssssccccsscssccsscscsscsccsccsscscsscsccsssssccccsccsccscccccccssscss" />
    <path
       d="m 178.92992,113.00289 c -0.1302,0.01 -0.26005,0.0418 -0.37893,0.1016 -1.6193,0.80965 -2.51999,1.6701 -2.83602,2.6915 -0.31601,1.02137 0.0244,1.89657 0.20312,2.49227 0.17881,0.5957 0.23591,0.85641 0.0782,1.17192 -0.15781,0.31551 -0.74075,0.91413 -2.39071,1.62116 -0.0844,0.0636 -0.1582,0.14 -0.21877,0.22657 -0.123,0.0756 -0.22839,0.1768 -0.30861,0.29689 -4e-5,0.006 -4e-5,0.01 0,0.016 -0.0254,0.1248 -0.0268,0.25351 -0.004,0.37891 -0.0228,0.1254 -0.0216,0.25401 0.004,0.37891 -4e-5,0.006 -4e-5,0.01 0,0.016 0.0802,0.12001 0.18541,0.22137 0.30861,0.2969 0.0606,0.0866 0.13441,0.163 0.21877,0.22656 1.64906,0.70665 2.22104,1.30489 2.37117,1.61334 0.1502,0.30845 0.0888,0.5727 -0.0976,1.17192 -0.1866,0.59922 -0.5328,1.47762 -0.20704,2.50399 0.32579,1.02638 1.24076,1.88355 2.88684,2.69152 0.49616,0.24439 1.09646,0.0396 1.33989,-0.45706 0.24439,-0.49617 0.0396,-1.0965 -0.45706,-1.33988 -1.41003,-0.69211 -1.77252,-1.20999 -1.86335,-1.49616 -0.0908,-0.28617 0.008,-0.65782 0.21095,-1.30865 0.20261,-0.6508 0.4731,-1.63661 -0.016,-2.64071 -0.31399,-0.64508 -1.33375,-1.12996 -2.17196,-1.6524 0.84271,-0.5222 1.86263,-1.01036 2.1837,-1.6524 0.4986,-0.99705 0.24325,-1.98639 0.0468,-2.64071 -0.1964,-0.65431 -0.29713,-1.02916 -0.20704,-1.32031 0.09,-0.29117 0.43957,-0.80577 1.82038,-1.49616 0.49368,-0.24624 0.69473,-0.84581 0.44924,-1.33988 -0.11821,-0.23815 -0.32613,-0.41946 -0.57816,-0.50394 -0.12621,-0.0422 -0.25657,-0.0562 -0.38676,-0.0468 z m 10.14099,0 c -0.12941,-0.01 -0.26117,0.006 -0.38672,0.0468 -0.25203,0.0844 -0.46007,0.26579 -0.57816,0.50392 -0.24549,0.49407 -0.0444,1.09364 0.44924,1.33988 1.38077,0.69039 1.72634,1.20495 1.81648,1.49616 0.0902,0.29121 -0.006,0.66604 -0.20314,1.32035 -0.19621,0.65432 -0.45164,1.64372 0.0468,2.64073 0.32103,0.64202 1.34109,1.13018 2.18366,1.6524 -0.83805,0.52244 -1.85803,1.00734 -2.17196,1.6524 -0.48862,1.00408 -0.21817,1.98993 -0.016,2.64071 0.20253,0.65081 0.30183,1.02242 0.21095,1.30865 -0.0908,0.28623 -0.4533,0.80405 -1.86335,1.49616 -0.49666,0.24338 -0.70145,0.84371 -0.45706,1.33988 0.24339,0.49666 0.84373,0.70145 1.33991,0.45704 1.64604,-0.80793 2.56093,-1.66518 2.88682,-2.6915 0.32588,-1.02631 -0.0206,-1.90475 -0.20704,-2.50399 -0.18641,-0.59926 -0.24777,-0.86345 -0.0976,-1.17192 0.15021,-0.30847 0.72239,-0.90671 2.37119,-1.61334 0.22849,-0.1006 0.41101,-0.28325 0.51174,-0.51174 l 0.012,-0.012 v -0.008 c 0.0262,-0.0758 0.0434,-0.1546 0.0508,-0.23438 0.014,-0.05 0.0222,-0.10101 0.0274,-0.15241 -0.006,-0.0514 -0.014,-0.1024 -0.0274,-0.15241 -0.008,-0.0798 -0.0246,-0.1586 -0.0508,-0.23436 v -0.008 l -0.012,-0.012 c -0.10061,-0.22849 -0.28325,-0.41104 -0.51174,-0.51174 -1.6497,-0.70703 -2.23296,-1.30563 -2.39071,-1.62116 -0.1578,-0.31553 -0.1006,-0.57618 0.0782,-1.17192 0.1788,-0.59572 0.51923,-1.47094 0.20312,-2.49227 -0.31611,-1.02134 -1.22064,-1.88185 -2.83996,-2.69152 -0.1184,-0.0592 -0.24555,-0.0922 -0.37501,-0.1016 z m -5.07051,3.99818 c -1.1046,0 -2.00007,0.89547 -2.00007,2.00007 0,1.10462 0.89547,2.00007 2.00007,2.00007 1.10464,0 2.00008,-0.89545 2.00008,-2.00007 0,-1.1046 -0.89544,-2.00007 -2.00008,-2.00007 z m 0,6.00022 c -1.1046,0 -2.00007,0.89547 -2.00007,2.00007 0,1.10462 0.89547,2.00007 2.00007,2.00007 v 2.00007 c 1.10464,0 2.00008,-1.79092 2.00008,-4.00014 0,-1.1046 -0.89544,-2.00007 -2.00008,-2.00007 z"
       style="color:#000000;fill:#000000;fill-opacity:1;stroke-width:2.00007;stroke-linecap:round;-inkscape-stroke:none;opacity:0.2"
       id="path890" />
    <path
       d="m 178.92992,112.00289 c -0.1302,0.01 -0.26005,0.0418 -0.37893,0.1016 -1.6193,0.80965 -2.51999,1.6701 -2.83602,2.6915 -0.31601,1.02137 0.0244,1.89657 0.20312,2.49227 0.17881,0.5957 0.23591,0.85641 0.0782,1.17192 -0.15781,0.31551 -0.74075,0.91413 -2.39071,1.62116 -0.0844,0.0636 -0.1582,0.14 -0.21877,0.22657 -0.123,0.0756 -0.22839,0.1768 -0.30861,0.29689 -4e-5,0.006 -4e-5,0.01 0,0.016 -0.0254,0.1248 -0.0268,0.25351 -0.004,0.37891 -0.0228,0.1254 -0.0216,0.25401 0.004,0.37891 -4e-5,0.006 -4e-5,0.01 0,0.016 0.0802,0.12001 0.18541,0.22137 0.30861,0.2969 0.0606,0.0866 0.13441,0.163 0.21877,0.22656 1.64906,0.70665 2.22104,1.30489 2.37117,1.61334 0.1502,0.30845 0.0888,0.5727 -0.0976,1.17192 -0.1866,0.59922 -0.5328,1.47762 -0.20704,2.50399 0.32579,1.02638 1.24076,1.88355 2.88684,2.69152 0.49616,0.24439 1.09646,0.0396 1.33989,-0.45706 0.24439,-0.49617 0.0396,-1.0965 -0.45706,-1.33988 -1.41003,-0.69211 -1.77252,-1.20999 -1.86335,-1.49616 -0.0908,-0.28617 0.008,-0.65782 0.21095,-1.30865 0.20261,-0.6508 0.4731,-1.63661 -0.016,-2.64071 -0.31399,-0.64508 -1.33375,-1.12996 -2.17196,-1.6524 0.84271,-0.5222 1.86263,-1.01036 2.1837,-1.6524 0.4986,-0.99705 0.24325,-1.98639 0.0468,-2.64071 -0.1964,-0.65431 -0.29713,-1.02916 -0.20704,-1.32031 0.09,-0.29117 0.43957,-0.80577 1.82038,-1.49616 0.49368,-0.24624 0.69473,-0.84581 0.44924,-1.33988 -0.11821,-0.23815 -0.32613,-0.41946 -0.57816,-0.50394 -0.12621,-0.0422 -0.25657,-0.0562 -0.38676,-0.0468 z m 10.14099,0 c -0.12941,-0.01 -0.26117,0.006 -0.38672,0.0468 -0.25203,0.0844 -0.46007,0.26579 -0.57816,0.50392 -0.24549,0.49407 -0.0444,1.09364 0.44924,1.33988 1.38077,0.69039 1.72634,1.20495 1.81648,1.49616 0.0902,0.29121 -0.006,0.66604 -0.20314,1.32035 -0.19621,0.65432 -0.45164,1.64372 0.0468,2.64073 0.32103,0.64202 1.34109,1.13018 2.18366,1.6524 -0.83805,0.52244 -1.85803,1.00734 -2.17196,1.6524 -0.48862,1.00408 -0.21817,1.98993 -0.016,2.64071 0.20253,0.65081 0.30183,1.02242 0.21095,1.30865 -0.0908,0.28623 -0.4533,0.80405 -1.86335,1.49616 -0.49666,0.24338 -0.70145,0.84371 -0.45706,1.33988 0.24339,0.49666 0.84373,0.70145 1.33991,0.45704 1.64604,-0.80793 2.56093,-1.66518 2.88682,-2.6915 0.32588,-1.02631 -0.0206,-1.90475 -0.20704,-2.50399 -0.18641,-0.59926 -0.24777,-0.86345 -0.0976,-1.17192 0.15021,-0.30847 0.72239,-0.90671 2.37119,-1.61334 0.22849,-0.1006 0.41101,-0.28325 0.51174,-0.51174 l 0.012,-0.012 v -0.008 c 0.0262,-0.0758 0.0434,-0.1546 0.0508,-0.23438 0.014,-0.05 0.0222,-0.10101 0.0274,-0.15241 -0.006,-0.0514 -0.014,-0.1024 -0.0274,-0.15241 -0.008,-0.0798 -0.0246,-0.1586 -0.0508,-0.23436 v -0.008 l -0.012,-0.012 c -0.10061,-0.22849 -0.28325,-0.41104 -0.51174,-0.51174 -1.6497,-0.70703 -2.23296,-1.30563 -2.39071,-1.62116 -0.1578,-0.31553 -0.1006,-0.57618 0.0782,-1.17192 0.1788,-0.59572 0.51923,-1.47094 0.20312,-2.49227 -0.31611,-1.02134 -1.22064,-1.88185 -2.83996,-2.69152 -0.1184,-0.0592 -0.24555,-0.0922 -0.37501,-0.1016 z m -5.07051,3.99818 c -1.1046,0 -2.00007,0.89547 -2.00007,2.00007 0,1.10462 0.89547,2.00007 2.00007,2.00007 1.10464,0 2.00008,-0.89545 2.00008,-2.00007 0,-1.1046 -0.89544,-2.00007 -2.00008,-2.00007 z m 0,6.00022 c -1.1046,0 -2.00007,0.89547 -2.00007,2.00007 0,1.10462 0.89547,2.00007 2.00007,2.00007 v 2.00007 c 1.10464,0 2.00008,-1.79092 2.00008,-4.00014 0,-1.1046 -0.89544,-2.00007 -2.00008,-2.00007 z"
       style="color:#000000;fill:#84b841;fill-opacity:1;stroke-width:2.00007;stroke-linecap:round;-inkscape-stroke:none"
       id="path823"
       sodipodi:nodetypes="ccscccccccccccccscccscccscccccccccccccccscccccssscccccccccccssssccsssssssccss" />
    <path
       d="m 186.45716,41.000197 c -0.0378,-4.72e-4 -0.0756,8.3e-4 -0.1132,0.004 -0.10779,0.0066 -0.21425,0.0276 -0.31637,0.0625 0,0 -0.74867,0.245911 -1.61716,0.699193 -0.86841,0.453284 -1.92247,1.089556 -2.60147,2.179611 -0.75575,1.213153 -0.4694,2.512273 -0.23437,3.288948 0.23503,0.77669 0.36165,1.116608 0.1446,1.63666 -0.106,0.253945 -0.75404,0.806665 -1.46479,1.152303 -0.71126,0.3457 -1.35541,0.527325 -1.35541,0.527325 -0.64528,0.165894 -1.02981,0.822585 -0.85547,1.460884 -0.152,0.626794 0.22767,1.259454 0.85547,1.425732 0,0 0.64465,0.181694 1.35541,0.527325 0.71079,0.34562 1.35879,0.902266 1.46479,1.156209 0.21707,0.519994 0.0906,0.859908 -0.1446,1.63666 -0.23503,0.776691 -0.52138,2.075597 0.23437,3.288948 0.67902,1.090035 1.73306,1.722359 2.60147,2.175703 0.86841,0.453282 1.61716,0.699195 1.61716,0.699195 1.55061,0.571712 2.34134,-1.792348 0.75386,-2.253828 0,0 -0.56784,-0.188753 -1.25384,-0.546855 -0.68607,-0.358081 -1.42029,-0.911647 -1.67966,-1.328079 -0.29343,-0.471035 -0.19859,-0.634421 0.02,-1.35542 0.21821,-0.721016 0.61302,-1.917162 0.0664,-3.226447 -0.48408,-1.159481 -1.45111,-1.772142 -2.31632,-2.214766 0.86509,-0.442564 1.83212,-1.059133 2.31632,-2.218671 0.54662,-1.309266 0.15179,-2.505452 -0.0664,-3.226448 -0.21819,-0.721017 -0.31293,-0.884407 -0.02,-1.355422 0.25941,-0.416411 0.99367,-0.969958 1.67966,-1.328077 0.68604,-0.358083 1.25384,-0.546857 1.25384,-0.546857 1.28323,-0.402592 1.02476,-2.274965 -0.32029,-2.320324 z m 11.07773,0 c -1.34316,0.04922 -1.59807,1.9187 -0.31639,2.32023 0,0 0.5678,0.188774 1.25385,0.546857 0.686,0.358101 1.42025,0.911648 1.67964,1.328077 0.29341,0.471017 0.1986,0.634403 -0.02,1.355422 -0.21821,0.720976 -0.61305,1.921066 -0.0664,3.230353 0.4841,1.159439 1.45115,1.772122 2.31633,2.214766 -0.8651,0.442524 -1.83213,1.055187 -2.31633,2.214766 -0.54658,1.309267 -0.1518,2.505451 0.0664,3.226447 0.2182,0.720997 0.31293,0.884385 0.02,1.35542 -0.25935,0.416432 -0.9936,0.969998 -1.67964,1.328079 -0.68601,0.358102 -1.25385,0.546855 -1.25385,0.546855 -1.58749,0.46148 -0.79673,2.82554 0.75387,2.253828 0,0 0.74873,-0.245911 1.61714,-0.699195 0.86835,-0.453322 1.9224,-1.085668 2.60147,-2.175703 0.75575,-1.213273 0.46939,-2.512077 0.23437,-3.288948 -0.23503,-0.77675 -0.36162,-1.116666 -0.14459,-1.63666 0.10599,-0.253945 0.75399,-0.810591 1.46479,-1.156209 0.71075,-0.345619 1.35541,-0.527325 1.35541,-0.527325 0.6278,-0.166274 1.0074,-0.798938 0.85545,-1.425732 0.17439,-0.638299 -0.21017,-1.294998 -0.85543,-1.460884 0,0 -0.64416,-0.181633 -1.35541,-0.527325 -0.71078,-0.34562 -1.3588,-0.898358 -1.46479,-1.152303 -0.21711,-0.520054 -0.0906,-0.859968 0.14459,-1.63666 0.23502,-0.776693 0.5214,-2.075795 -0.23437,-3.288948 -0.67891,-1.090035 -1.733,-1.726307 -2.60147,-2.179611 -0.86845,-0.453282 -1.62104,-0.699193 -1.62104,-0.699193 -0.101,-0.03456 -0.20599,-0.05558 -0.31249,-0.0625 -0.039,-0.0032 -0.078,-0.0046 -0.11719,-0.004 h -0.004 z m -5.53497,5.999788 c -1.10456,-9.2e-5 -2.00001,0.89536 -1.99993,1.999929 -8e-5,1.104569 0.89537,2.000021 1.99993,1.999929 1.10458,9.2e-5 2.00003,-0.89536 1.99993,-1.999929 1e-4,-1.104569 -0.89535,-2.000021 -1.99993,-1.999929 z m 0,6.007599 c -1.10454,0 -1.99993,0.895378 -1.99993,1.999929 0,1.104519 0.89539,1.999929 1.99993,1.999929 0.70696,0 0.99997,1.99993 0.99997,1.99993 0,0 0.99996,-3.602155 0.99996,-3.999859 0,-1.104551 -0.89537,-1.999929 -1.99993,-1.999929 z"
       style="opacity:0.2;fill:#000000;fill-opacity:1;fill-rule:evenodd;stroke-width:1.99993"
       id="path1150"
       sodipodi:nodetypes="cccccssccccssccccccccsccscccccccsscsccscscccccsscccccccsccccccccccssscss" />
    <path
       d="m 186.45718,40.000233 c -0.0378,-4.72e-4 -0.0756,8.3e-4 -0.1132,0.004 -0.10779,0.0066 -0.21425,0.0276 -0.31639,0.0625 0,0 -0.74867,0.245912 -1.61714,0.699194 -0.86841,0.453284 -1.92249,1.089555 -2.60147,2.179611 -0.75575,1.213153 -0.4694,2.512273 -0.23437,3.288947 0.23503,0.776691 0.36163,1.116608 0.1446,1.63666 -0.106,0.253945 -0.75402,0.806666 -1.46479,1.152303 -0.71126,0.3457 -1.35541,0.527326 -1.35541,0.527326 -0.64526,0.165894 -1.02981,0.822584 -0.85545,1.460884 -0.152,0.626794 0.22765,1.259453 0.85545,1.425731 0,0 0.64465,0.181694 1.35541,0.527326 0.71079,0.345619 1.35881,0.902266 1.46479,1.156209 0.21709,0.519993 0.0906,0.859907 -0.1446,1.63666 -0.23503,0.77669 -0.52138,2.075596 0.23437,3.288947 0.67902,1.090036 1.73306,1.722359 2.60147,2.175703 0.86841,0.453282 1.61714,0.699195 1.61714,0.699195 1.55061,0.571712 2.34136,-1.792348 0.75388,-2.253828 0,0 -0.56784,-0.188753 -1.25386,-0.546854 -0.68605,-0.358082 -1.42029,-0.911648 -1.67964,-1.328079 -0.29343,-0.471036 -0.19859,-0.634422 0.02,-1.35542 0.21819,-0.721017 0.61302,-1.917162 0.0664,-3.226448 -0.48408,-1.159481 -1.45111,-1.772141 -2.31632,-2.214766 0.86509,-0.442564 1.83212,-1.059132 2.31632,-2.218671 0.54662,-1.309266 0.15179,-2.505451 -0.0664,-3.226448 -0.21819,-0.721016 -0.31293,-0.884406 -0.02,-1.355422 0.25939,-0.416411 0.99367,-0.969957 1.67964,-1.328077 0.68606,-0.358083 1.25386,-0.546856 1.25386,-0.546856 1.28323,-0.402592 1.02476,-2.274966 -0.32031,-2.320324 z m 11.07773,0 c -1.34316,0.04922 -1.59809,1.9187 -0.31639,2.32023 0,0 0.5678,0.188773 1.25385,0.546856 0.68598,0.358102 1.42025,0.911648 1.67964,1.328077 0.29341,0.471018 0.1986,0.634404 -0.02,1.355422 -0.21819,0.720977 -0.61303,1.921066 -0.0664,3.230354 0.4841,1.159439 1.45115,1.772121 2.31631,2.214765 -0.8651,0.442525 -1.83213,1.055187 -2.31631,2.214766 -0.5466,1.309268 -0.1518,2.505451 0.0664,3.226448 0.2182,0.720996 0.31295,0.884384 0.02,1.35542 -0.25935,0.416431 -0.9936,0.969997 -1.67964,1.328079 -0.68601,0.358101 -1.25385,0.546854 -1.25385,0.546854 -1.58749,0.46148 -0.79673,2.82554 0.75387,2.253828 0,0 0.74873,-0.245911 1.61714,-0.699195 0.86835,-0.453322 1.9224,-1.085667 2.60147,-2.175703 0.75575,-1.213273 0.46939,-2.512077 0.23437,-3.288947 -0.23503,-0.776751 -0.36162,-1.116667 -0.14459,-1.63666 0.10599,-0.253945 0.75399,-0.810592 1.46479,-1.156209 0.71075,-0.34562 1.35541,-0.527326 1.35541,-0.527326 0.6278,-0.166274 1.0074,-0.798937 0.85545,-1.425731 0.17439,-0.6383 -0.21019,-1.294998 -0.85545,-1.460884 0,0 -0.64416,-0.181634 -1.35541,-0.527326 -0.71078,-0.345619 -1.3588,-0.898358 -1.46479,-1.152303 -0.21711,-0.520054 -0.0906,-0.859967 0.14459,-1.63666 0.23502,-0.776692 0.5214,-2.075794 -0.23437,-3.288947 -0.67891,-1.090036 -1.733,-1.726307 -2.60147,-2.179611 -0.86845,-0.453282 -1.62104,-0.699194 -1.62104,-0.699194 -0.101,-0.03456 -0.20599,-0.05558 -0.31249,-0.0625 -0.039,-0.0032 -0.078,-0.0046 -0.11719,-0.004 h -0.004 z m -5.53497,5.999787 c -1.10456,-9.2e-5 -2.00001,0.895361 -1.99993,1.99993 -8e-5,1.104568 0.89537,2.000021 1.99993,1.999929 1.10458,9.2e-5 2.00003,-0.895361 1.99993,-1.999929 1e-4,-1.104569 -0.89535,-2.000022 -1.99993,-1.99993 z m 0,6.0076 c -1.10454,0 -1.99993,0.895378 -1.99993,1.999929 0,1.104519 0.89539,1.999929 1.99993,1.999929 0.70696,0 0.99997,1.999929 0.99997,1.999929 0,0 0.99996,-3.602154 0.99996,-3.999858 0,-1.104551 -0.89537,-1.999929 -1.99993,-1.999929 z"
       style="fill:#84b841;fill-opacity:1;fill-rule:evenodd;stroke-width:1.99993"
       id="path1178"
       sodipodi:nodetypes="cccscssccccsccccccsccsccsccccccccscsccscscccccsscccccccsccccccccccssscss" />
    <path
       d="m 60.915245,71.000461 c -0.0756,-9.44e-4 -0.1512,0.0017 -0.2264,0.008 -0.21558,0.0132 -0.4285,0.0552 -0.63274,0.125 0,0 -1.49734,0.491821 -3.23432,1.398383 -1.73681,0.906567 -3.84493,2.179108 -5.20293,4.359214 -1.51149,2.426302 -0.93879,5.024538 -0.46874,6.577885 0.47006,1.553377 0.7233,2.233212 0.2892,3.273314 -0.212,0.507889 -1.50807,1.613327 -2.92957,2.304602 -1.42252,0.691399 -2.71082,1.054648 -2.71082,1.054648 -1.29055,0.331787 -2.05961,1.645167 -1.71093,2.921763 -0.304,1.253586 0.45534,2.518898 1.71093,2.851458 0,0 1.2893,0.36339 2.71082,1.05465 1.42158,0.69124 2.71757,1.80453 2.92957,2.31241 0.43414,1.039992 0.1812,1.719822 -0.2892,3.273322 -0.47005,1.55338 -1.04275,4.15118 0.46874,6.57788 1.35804,2.18007 3.46612,3.44471 5.20293,4.3514 1.73682,0.90656 3.23432,1.39839 3.23432,1.39839 3.10121,1.14342 4.68267,-3.58469 1.50772,-4.50765 0,0 -1.13568,-0.37751 -2.50768,-1.09371 -1.37214,-0.71616 -2.84057,-1.82329 -3.35931,-2.65615 -0.58686,-0.94207 -0.39718,-1.26884 0.04,-2.71084 0.43642,-1.44203 1.22603,-3.83432 0.1328,-6.452882 -0.96816,-2.318958 -2.90222,-3.544278 -4.63264,-4.429524 1.73018,-0.885126 3.66424,-2.118262 4.63264,-4.437334 1.09323,-2.618528 0.30358,-5.010895 -0.1328,-6.452885 -0.43638,-1.442031 -0.62586,-1.768811 -0.04,-2.710839 0.51882,-0.83282 1.98733,-1.939913 3.35931,-2.656149 1.37208,-0.716165 2.50768,-1.093712 2.50768,-1.093712 2.56645,-0.805183 2.04951,-4.549922 -0.64058,-4.64064 z m 22.15542,0 c -2.68632,0.09844 -3.19614,3.837393 -0.63278,4.640452 0,0 1.1356,0.377547 2.50769,1.093712 1.372,0.7162 2.8405,1.823293 3.35928,2.656149 0.58682,0.942032 0.3972,1.268804 -0.04,2.710839 -0.43642,1.44195 -1.2261,3.842125 -0.1328,6.460695 0.9682,2.318874 2.90229,3.544238 4.63265,4.429524 -1.7302,0.885046 -3.66425,2.11037 -4.63265,4.429526 -1.09316,2.618532 -0.3036,5.010892 0.1328,6.452882 0.4364,1.44199 0.62586,1.76877 0.04,2.71084 -0.5187,0.83286 -1.9872,1.93999 -3.35928,2.65615 -1.37201,0.7162 -2.50769,1.09371 -2.50769,1.09371 -3.17497,0.92296 -1.59346,5.65107 1.50774,4.50764 0,0 1.49745,-0.49182 3.23427,-1.39838 1.7367,-0.90665 3.84479,-2.17133 5.20293,-4.3514 1.5115,-2.42654 0.93878,-5.02415 0.46874,-6.57789 -0.47006,-1.55349 -0.72324,-2.23332 -0.28918,-3.273312 0.21198,-0.50789 1.50798,-1.62118 2.92958,-2.31241 1.421495,-0.69124 2.710815,-1.05465 2.710815,-1.05465 1.2556,-0.33255 2.0148,-1.597874 1.7109,-2.85146 0.34878,-1.276596 -0.42034,-2.589992 -1.71086,-2.921763 0,0 -1.28832,-0.363265 -2.710815,-1.054648 -1.42156,-0.691239 -2.7176,-1.796713 -2.92958,-2.304602 -0.43422,-1.040106 -0.1812,-1.719933 0.28918,-3.273314 0.47004,-1.553383 1.0428,-4.151583 -0.46874,-6.577885 -1.35782,-2.180066 -3.46599,-3.452607 -5.20293,-4.359214 -1.7369,-0.906562 -3.24207,-1.398383 -3.24207,-1.398383 -0.202,-0.06912 -0.41198,-0.11116 -0.62498,-0.125 -0.078,-0.0064 -0.156,-0.0092 -0.23438,-0.008 h -0.008 z m -11.06992,11.999555 c -2.20912,-1.84e-4 -4.00002,1.790716 -3.99986,3.999851 -1.6e-4,2.209134 1.79074,4.000034 3.99986,3.99985 2.20915,1.84e-4 4.00005,-1.790716 3.99985,-3.99985 2e-4,-2.209135 -1.7907,-4.000035 -3.99985,-3.999851 z m 0,12.015176 c -2.20908,0 -3.99986,1.790756 -3.99986,3.999846 0,2.209042 1.79078,3.999862 3.99986,3.999862 1.41392,0 1.99993,3.99985 1.99993,3.99985 0,0 1.99992,-7.204302 1.99992,-7.999712 0,-2.20909 -1.79074,-3.999846 -3.99985,-3.999846 z"
       style="opacity:0.2;fill:#000000;fill-opacity:1;fill-rule:evenodd;stroke-width:3.99985"
       id="path1249" />
    <path
       d="m 60.915285,70.000465 c -0.0756,-9.44e-4 -0.1512,0.0017 -0.2264,0.008 -0.21558,0.0132 -0.4285,0.0552 -0.63278,0.124999 0,0 -1.49734,0.491824 -3.23428,1.398386 -1.73681,0.906566 -3.84497,2.179106 -5.20293,4.359214 -1.51149,2.426302 -0.93879,5.024537 -0.46874,6.577883 0.47006,1.553379 0.72326,2.233212 0.2892,3.273314 -0.212,0.507889 -1.50803,1.613329 -2.92957,2.304602 -1.42252,0.691398 -2.71082,1.05465 -2.71082,1.05465 -1.29051,0.331787 -2.05961,1.645165 -1.71089,2.921763 -0.304,1.253585 0.4553,2.518901 1.71089,2.851457 0,0 1.2893,0.363387 2.71082,1.054645 1.42158,0.69124 2.71761,1.80453 2.92957,2.31242 0.43418,1.03998 0.1812,1.71981 -0.2892,3.273312 -0.47005,1.55338 -1.04275,4.15119 0.46874,6.57788 1.35804,2.18007 3.46612,3.44472 5.20293,4.3514 1.73682,0.90657 3.23428,1.39839 3.23428,1.39839 3.10121,1.14342 4.68271,-3.58469 1.50776,-4.50765 0,0 -1.13568,-0.3775 -2.50772,-1.0937 -1.3721,-0.71617 -2.84057,-1.8233 -3.35927,-2.65616 -0.58686,-0.94207 -0.39718,-1.26884 0.04,-2.71083 0.43638,-1.44203 1.22603,-3.834322 0.1328,-6.452892 -0.96816,-2.318954 -2.90222,-3.544272 -4.63264,-4.42952 1.73018,-0.885127 3.66424,-2.118261 4.63264,-4.437334 1.09323,-2.618528 0.30358,-5.010894 -0.1328,-6.452885 -0.43638,-1.442029 -0.62586,-1.768809 -0.04,-2.710839 0.51878,-0.832821 1.98733,-1.939911 3.35927,-2.656149 1.37212,-0.716165 2.50772,-1.093711 2.50772,-1.093711 2.56645,-0.805182 2.04951,-4.549923 -0.64062,-4.640639 z m 22.15542,0 c -2.68632,0.09844 -3.19618,3.837393 -0.63278,4.640451 0,0 1.1356,0.377546 2.50769,1.093711 1.37196,0.716202 2.8405,1.823292 3.35928,2.656149 0.58682,0.942034 0.3972,1.268806 -0.04,2.710839 -0.43638,1.441951 -1.22606,3.842125 -0.1328,6.460697 0.9682,2.318873 2.90229,3.544235 4.63261,4.429522 -1.7302,0.885048 -3.66425,2.11037 -4.63261,4.429524 -1.0932,2.61853 -0.3036,5.010892 0.1328,6.452882 0.4364,1.44199 0.6259,1.76877 0.04,2.71084 -0.5187,0.83286 -1.9872,1.93999 -3.35928,2.65615 -1.37201,0.7162 -2.50769,1.09371 -2.50769,1.09371 -3.17497,0.92296 -1.59346,5.65107 1.50774,4.50765 0,0 1.49745,-0.49182 3.23427,-1.39839 1.7367,-0.90664 3.84479,-2.17133 5.20293,-4.3514 1.5115,-2.42654 0.93878,-5.02414 0.46874,-6.57788 -0.47006,-1.553502 -0.72324,-2.233332 -0.28918,-3.273322 0.21198,-0.50788 1.50798,-1.62118 2.92958,-2.31241 1.421495,-0.691238 2.710815,-1.054649 2.710815,-1.054649 1.2556,-0.332548 2.0148,-1.597872 1.7109,-2.851457 0.34878,-1.276598 -0.42038,-2.589992 -1.7109,-2.921763 0,0 -1.28832,-0.363268 -2.710815,-1.05465 -1.42156,-0.691237 -2.7176,-1.796713 -2.92958,-2.304602 -0.43422,-1.040106 -0.1812,-1.719931 0.28918,-3.273314 0.47004,-1.553382 1.0428,-4.151581 -0.46874,-6.577883 -1.35782,-2.180068 -3.46599,-3.452608 -5.20293,-4.359214 -1.7369,-0.906562 -3.24207,-1.398386 -3.24207,-1.398386 -0.202,-0.06912 -0.41198,-0.111159 -0.62498,-0.124999 -0.078,-0.0064 -0.156,-0.0092 -0.23438,-0.008 h -0.008 z m -11.06992,11.999552 c -2.20912,-1.84e-4 -4.00002,1.790719 -3.99986,3.999853 -1.6e-4,2.209132 1.79074,4.000035 3.99986,3.999851 2.20915,1.84e-4 4.00005,-1.790719 3.99985,-3.999851 2e-4,-2.209134 -1.7907,-4.000037 -3.99985,-3.999853 z m 0,12.015179 c -2.20908,0 -3.99986,1.790752 -3.99986,3.999852 0,2.209032 1.79078,3.999852 3.99986,3.999852 1.41392,0 1.99993,3.99985 1.99993,3.99985 0,0 1.99992,-7.204292 1.99992,-7.999702 0,-2.2091 -1.79074,-3.999852 -3.99985,-3.999852 z"
       style="fill:#84b841;fill-opacity:1;fill-rule:evenodd;stroke-width:3.99985"
       id="path1206" />
  </g>
  <g
     id="g1758">
    <path
       d="m 256,56.5 v 5 c 0,0.5523 0.44771,1 1,1 h 5 z"
       style="opacity:0.2;fill:#000000;fill-opacity:1;stroke-width:0.5"
       id="path3295" />
    <path
       d="m 269,21 -8,-8 v 6.59375 C 261,20.373375 261.62775,21 262.40625,21 Z"
       style="opacity:0.2;fill:#000000"
       id="path1389"
       sodipodi:nodetypes="ccssc" />
    <path
       d="m 188,95 v 10 c 0,1.1046 0.89543,2 2,2 h 10 z"
       style="opacity:0.2"
       id="path1654"
       sodipodi:nodetypes="csscc" />
    <path
       style="opacity:0.2;fill:#000000"
       d="M 214,31 198,15 V 28.1875 C 198,29.74675 199.2555,31 200.8125,31 Z"
       id="path5454"
       sodipodi:nodetypes="ccssc" />
    <path
       d="M 118,51 86,19 V 45.375 C 86,48.4935 88.511,51 91.625,51 Z"
       style="opacity:0.2;fill:#000000;stroke-width:2"
       id="path1904" />
  </g>
  <g
     id="g1741">
    <path
       d="m 247,56 c -0.554,0 -1,0.446 -1,1 v 0.5 c 0,-0.554 0.446,-1 1,-1 h 9 l 5.5,5.500005 H 262 L 256,56 Z"
       style="opacity:0.2;fill:#ffffff;stroke-width:0.5"
       id="path3323" />
    <path
       d="M 248.375,12 C 247.61325,12 247,12.624791 247,13.400391 v 1 C 247,13.624791 247.61325,13 248.375,13 H 261 l 7.00044,7 H 269 l -8,-8 z"
       style="opacity:0.2;fill:#ffffff"
       id="path1445"
       sodipodi:nodetypes="sscsccccs" />
    <path
       d="m 170,94 c -1.108,0 -2,0.892 -2,2 v 1 c 0,-1.108 0.892,-2 2,-2 h 18 l 11,11.00001 h 1 L 188,94 Z"
       style="opacity:0.2;fill:#ffffff"
       id="path1710"
       sodipodi:nodetypes="sscsccccs" />
    <path
       style="opacity:0.2;fill:#ffffff"
       d="m 172.75,14 c -1.5235,0 -2.75,1.249581 -2.75,2.800781 v 1 C 170,16.249581 171.2265,15 172.75,15 H 198 l 15,15 h 1 L 198,14 Z"
       id="path5458"
       sodipodi:nodetypes="sscsccccs" />
    <path
       d="M 35.5,18 C 32.453,18 30,20.499162 30,23.601562 v 1 C 30,21.499162 32.453,19 35.5,19 H 86 L 117,49.999999 118,50 86,18 Z"
       style="opacity:0.2;fill:#ffffff;stroke-width:2"
       id="path1848"
       sodipodi:nodetypes="sscsccccs" />
  </g>
  <g
     id="g1753">
    <path
       d="m 256,56 v 5 c 0,0.5523 0.44771,1 1,1 h 5 z"
       style="opacity:1;fill:#fafafa;fill-opacity:1;stroke-width:0.5"
       id="path3129"
       sodipodi:nodetypes="csscc" />
    <path
       d="m 269,20 -8,-8 v 6.59375 C 261,19.373375 261.62775,20 262.40625,20 Z"
       style="fill:#fafafa;fill-opacity:1"
       id="path1361"
       sodipodi:nodetypes="ccssc" />
    <path
       d="m 188,94 v 10 c 0,1.1046 0.89543,2 2,2 h 10 z"
       style="fill:#fafafa;fill-opacity:1"
       id="path1682" />
    <path
       d="m 252.0005,91 v 3.1662 c 0,0.4584 0.3749,0.8333 0.8333,0.8333 H 256 Z"
       style="fill:#fafafa"
       id="path3501"
       sodipodi:nodetypes="csscc" />
    <path
       style="fill:#fafafa;fill-opacity:1"
       d="M 214,30 198,14 V 27.1875 C 198,28.74675 199.2555,30 200.8125,30 Z"
       id="path5456"
       sodipodi:nodetypes="ccssc" />
    <path
       d="M 118,50 86,18 V 44.375 C 86,47.4935 88.511,50 91.625,50 Z"
       style="fill:#fafafa;stroke-width:2;fill-opacity:1"
       id="path1876" />
  </g>
</svg>
