<?xml version="1.0" encoding="UTF-8" standalone="no"?>
<svg
   width="284"
   height="148"
   version="1.1"
   id="svg5462"
   sodipodi:docname="application-vnd.debian.binary-package.svg"
   inkscape:version="1.2.2 (1:1.2.2+202305151914+b0a8486541)"
   xmlns:inkscape="http://www.inkscape.org/namespaces/inkscape"
   xmlns:sodipodi="http://sodipodi.sourceforge.net/DTD/sodipodi-0.dtd"
   xmlns="http://www.w3.org/2000/svg"
   xmlns:svg="http://www.w3.org/2000/svg">
  <defs
     id="defs5466" />
  <sodipodi:namedview
     id="namedview5464"
     pagecolor="#d2d2d2"
     bordercolor="#000000"
     borderopacity="0.25"
     inkscape:showpageshadow="2"
     inkscape:pageopacity="0"
     inkscape:pagecheckerboard="0"
     inkscape:deskcolor="#d2d2d2"
     showgrid="false"
     inkscape:zoom="4.5985915"
     inkscape:cx="142"
     inkscape:cy="73.935681"
     inkscape:window-width="1920"
     inkscape:window-height="1008"
     inkscape:window-x="0"
     inkscape:window-y="0"
     inkscape:window-maximized="1"
     inkscape:current-layer="svg5462"
     showborder="false"
     showguides="false" />
  <g
     id="Baseplate"
     transform="translate(160,10)"
     style="display:none">
    <text
       xml:space="preserve"
       style="font-size:12px;font-family:'Noto Sans';-inkscape-font-specification:'Noto Sans';text-align:end;text-anchor:end;opacity:1;fill:#000000;stroke-width:5;stroke-linecap:round;stroke-linejoin:round"
       x="71.631897"
       y="-0.48000813"
       id="context"
       transform="translate(-160,-10)"><tspan
         sodipodi:role="line"
         id="tspan1976"
         x="71.631897"
         y="-0.48000813"
         style="font-size:12px">mimetypes</tspan></text>
    <text
       xml:space="preserve"
       style="font-size:12px;font-family:'Noto Sans';-inkscape-font-specification:'Noto Sans';text-align:start;text-anchor:start;fill:#000000;stroke-width:5;stroke-linecap:round;stroke-linejoin:round"
       x="-74.127937"
       y="-10.480008"
       id="icon-name"><tspan
         sodipodi:role="line"
         id="tspan1976-6"
         x="-74.127937"
         y="-10.480008"
         style="font-style:normal;font-variant:normal;font-weight:bold;font-stretch:normal;font-size:12px;font-family:'Noto Sans';-inkscape-font-specification:'Noto Sans Bold';text-align:start;text-anchor:start">application-vnd.debian.binary-package</tspan></text>
    <rect
       style="opacity:1;fill:#ffffff;stroke-width:5;stroke-linecap:round;stroke-linejoin:round"
       id="128x128"
       width="128"
       height="128"
       x="-150"
       y="0" />
    <rect
       style="opacity:1;fill:#ffffff;stroke-width:5;stroke-linecap:round;stroke-linejoin:round"
       id="64x64"
       width="64"
       height="64"
       x="0"
       y="0" />
    <rect
       style="opacity:1;fill:#ffffff;stroke-width:5;stroke-linecap:round;stroke-linejoin:round"
       id="48x48"
       width="48"
       height="48"
       x="0"
       y="80" />
    <rect
       style="opacity:1;fill:#ffffff;stroke-width:1.66667;stroke-linecap:round;stroke-linejoin:round"
       id="32x32"
       width="32"
       height="32"
       x="82"
       y="0" />
    <rect
       style="opacity:1;fill:#ffffff;stroke-width:5;stroke-linecap:round;stroke-linejoin:round"
       id="24x24"
       width="24"
       height="24"
       x="82"
       y="44" />
    <rect
       style="opacity:1;fill:#ffffff;stroke-width:5;stroke-linecap:round;stroke-linejoin:round"
       id="16x16"
       width="16"
       height="16"
       x="82"
       y="80" />
  </g>
  <g
     id="g2732">
    <rect
       style="opacity:0.2"
       width="20"
       height="20"
       x="244"
       y="56.5"
       rx="2"
       ry="2"
       id="rect310" />
    <rect
       style="opacity:0.2"
       width="28"
       height="28"
       x="244"
       y="13"
       ry="3"
       id="rect750" />
    <rect
       style="opacity:0.2"
       width="40"
       height="40"
       x="164"
       y="95"
       ry="4"
       id="rect750-5" />
    <rect
       style="opacity:0.2;stroke-width:2"
       width="56"
       height="56"
       x="163.99998"
       y="15.000001"
       ry="6"
       id="rect750-7" />
    <rect
       style="opacity:0.2;stroke-width:4"
       width="112"
       height="112"
       x="18"
       y="19"
       ry="12"
       id="rect750-2" />
  </g>
  <g
     id="g2736">
    <rect
       style="fill:#dfdfdf;fill-opacity:1"
       id="rect944-0"
       width="16"
       height="16"
       x="242"
       y="90"
       ry="2" />
    <rect
       style="fill:#dfdfdf;fill-opacity:1"
       id="rect944-92"
       width="20"
       height="20"
       x="244"
       y="56"
       ry="2" />
    <rect
       style="fill:#dfdfdf;fill-opacity:1;stroke-width:1.74999"
       id="rect944"
       width="28"
       height="28"
       x="244"
       y="12"
       ry="3" />
    <rect
       style="fill:#dfdfdf;fill-opacity:1;stroke-width:1.74999"
       id="rect944-6"
       width="40"
       height="40"
       x="164"
       y="94"
       ry="4" />
    <rect
       style="fill:#dfdfdf;fill-opacity:1;stroke-width:3.49998"
       id="rect944-5"
       width="56"
       height="56"
       x="163.99998"
       y="14.000001"
       ry="6" />
    <rect
       style="fill:#dfdfdf;fill-opacity:1;stroke-width:6.99996"
       id="rect944-9"
       width="112"
       height="112"
       x="18"
       y="18"
       ry="12" />
  </g>
  <g
     id="g2792">
    <circle
       style="opacity:1;fill:#8bc34a;fill-opacity:1;stroke-width:5;stroke-linecap:round;stroke-linejoin:round"
       id="path4919"
       cx="250"
       cy="98"
       r="6" />
    <path
       d="m 247.375,95.000001 h 1.25 c 0.21308,0 0.375,0.16515 0.375,0.375 v 1.25 c 0,0.20985 -0.16192,0.375 -0.375,0.375 h -1.25 c -0.21308,0 -0.375,-0.16515 -0.375,-0.375 v -1.25 c 0,-0.20985 0.16192,-0.375 0.375,-0.375 z m 4,0 h 1.25 c 0.21308,0 0.375,0.16515 0.375,0.375 v 1.25 c 0,0.20985 -0.16192,0.375 -0.375,0.375 h -1.25 c -0.21308,0 -0.375,-0.16515 -0.375,-0.375 v -1.25 c 0,-0.20985 0.16192,-0.375 0.375,-0.375 z m -4,4 h 1.25 c 0.21308,0 0.375,0.16515 0.375,0.375 V 100.625 c 0,0.20985 -0.16192,0.375 -0.375,0.375 h -1.25 C 247.16192,101 247,100.83485 247,100.625 v -1.249999 c 0,-0.20985 0.16192,-0.375 0.375,-0.375 z m 4,0 h 1.25 c 0.21308,0 0.375,0.16515 0.375,0.375 V 100.625 c 0,0.20985 -0.16192,0.375 -0.375,0.375 h -1.25 C 251.16192,101 251,100.83485 251,100.625 v -1.249999 c 0,-0.20985 0.16192,-0.375 0.375,-0.375 z"
       style="color:#000000;display:inline;overflow:visible;visibility:visible;fill:#ffffff;fill-opacity:1;fill-rule:nonzero;stroke:none;stroke-width:4;marker:none;enable-background:accumulate"
       id="path5138" />
    <g
       id="g5150">
      <circle
         style="opacity:0.2;fill:#000000;fill-opacity:1;stroke-width:5;stroke-linecap:round;stroke-linejoin:round"
         id="path4170"
         cx="254"
         cy="66.5"
         r="7" />
      <circle
         style="opacity:1;fill:#8bc34a;fill-opacity:1;stroke-width:5;stroke-linecap:round;stroke-linejoin:round"
         id="path4224"
         cx="254"
         cy="66"
         r="7" />
      <path
         d="m 250.375,62.5 h 1.25 c 0.21308,0 0.375,0.16515 0.375,0.375 v 1.25 c 0,0.20984 -0.16192,0.375 -0.375,0.375 h -1.25 C 250.16192,64.5 250,64.33484 250,64.125 v -1.25 c 0,-0.20985 0.16192,-0.375 0.375,-0.375 z m 3,0 h 1.25 c 0.21308,0 0.375,0.16515 0.375,0.375 v 1.25 c 0,0.20984 -0.16192,0.375 -0.375,0.375 h -1.25 C 253.16192,64.5 253,64.33484 253,64.125 v -1.25 c 0,-0.20985 0.16192,-0.375 0.375,-0.375 z m 3,0 h 1.25 c 0.21308,0 0.375,0.16515 0.375,0.375 v 1.25 c 0,0.20984 -0.16192,0.375 -0.375,0.375 h -1.25 C 256.16192,64.5 256,64.33484 256,64.125 v -1.25 c 0,-0.20985 0.16192,-0.375 0.375,-0.375 z m -6,3 h 1.25 c 0.21308,0 0.375,0.16515 0.375,0.375 v 1.25 c 0,0.20984 -0.16192,0.375 -0.375,0.375 h -1.25 C 250.16192,67.5 250,67.33484 250,67.125 v -1.25 c 0,-0.20985 0.16192,-0.375 0.375,-0.375 z m 3,0 h 1.25 c 0.21308,0 0.375,0.16515 0.375,0.375 v 1.25 c 0,0.20984 -0.16192,0.375 -0.375,0.375 h -1.25 C 253.16192,67.5 253,67.33484 253,67.125 v -1.25 c 0,-0.20985 0.16192,-0.375 0.375,-0.375 z m 3,0 h 1.25 c 0.21308,0 0.375,0.16515 0.375,0.375 v 1.25 c 0,0.20984 -0.16192,0.375 -0.375,0.375 h -1.25 C 256.16192,67.5 256,67.33484 256,67.125 v -1.25 c 0,-0.20985 0.16192,-0.375 0.375,-0.375 z m -6,3 h 1.25 c 0.21308,0 0.375,0.16515 0.375,0.375 v 1.25 c 0,0.20984 -0.16192,0.375 -0.375,0.375 h -1.25 C 250.16192,70.5 250,70.33484 250,70.125 v -1.25 c 0,-0.20985 0.16192,-0.375 0.375,-0.375 z m 3,0 h 1.25 c 0.21308,0 0.375,0.16515 0.375,0.375 v 1.25 c 0,0.20984 -0.16192,0.375 -0.375,0.375 h -1.25 C 253.16192,70.5 253,70.33484 253,70.125 v -1.25 c 0,-0.20985 0.16192,-0.375 0.375,-0.375 z m 3,0 h 1.25 c 0.21308,0 0.375,0.16515 0.375,0.375 v 1.25 c 0,0.20984 -0.16192,0.375 -0.375,0.375 h -1.25 C 256.16192,70.5 256,70.33484 256,70.125 v -1.25 c 0,-0.20985 0.16192,-0.375 0.375,-0.375 z"
         style="color:#000000;display:inline;overflow:visible;visibility:visible;fill:#000000;fill-opacity:1;fill-rule:nonzero;stroke:none;stroke-width:4;marker:none;enable-background:accumulate;opacity:0.2"
         id="path4987" />
      <path
         d="m 250.375,62 h 1.25 c 0.21308,0 0.375,0.16515 0.375,0.375 v 1.25 C 252,63.83484 251.83808,64 251.625,64 h -1.25 C 250.16192,64 250,63.83484 250,63.625 v -1.25 C 250,62.16515 250.16192,62 250.375,62 Z m 3,0 h 1.25 c 0.21308,0 0.375,0.16515 0.375,0.375 v 1.25 C 255,63.83484 254.83808,64 254.625,64 h -1.25 C 253.16192,64 253,63.83484 253,63.625 v -1.25 C 253,62.16515 253.16192,62 253.375,62 Z m 3,0 h 1.25 c 0.21308,0 0.375,0.16515 0.375,0.375 v 1.25 C 258,63.83484 257.83808,64 257.625,64 h -1.25 C 256.16192,64 256,63.83484 256,63.625 v -1.25 C 256,62.16515 256.16192,62 256.375,62 Z m -6,3 h 1.25 c 0.21308,0 0.375,0.16515 0.375,0.375 v 1.25 C 252,66.83484 251.83808,67 251.625,67 h -1.25 C 250.16192,67 250,66.83484 250,66.625 v -1.25 C 250,65.16515 250.16192,65 250.375,65 Z m 3,0 h 1.25 c 0.21308,0 0.375,0.16515 0.375,0.375 v 1.25 C 255,66.83484 254.83808,67 254.625,67 h -1.25 C 253.16192,67 253,66.83484 253,66.625 v -1.25 C 253,65.16515 253.16192,65 253.375,65 Z m 3,0 h 1.25 c 0.21308,0 0.375,0.16515 0.375,0.375 v 1.25 C 258,66.83484 257.83808,67 257.625,67 h -1.25 C 256.16192,67 256,66.83484 256,66.625 v -1.25 C 256,65.16515 256.16192,65 256.375,65 Z m -6,3 h 1.25 c 0.21308,0 0.375,0.16515 0.375,0.375 v 1.25 C 252,69.83484 251.83808,70 251.625,70 h -1.25 C 250.16192,70 250,69.83484 250,69.625 v -1.25 C 250,68.16515 250.16192,68 250.375,68 Z m 3,0 h 1.25 c 0.21308,0 0.375,0.16515 0.375,0.375 v 1.25 C 255,69.83484 254.83808,70 254.625,70 h -1.25 C 253.16192,70 253,69.83484 253,69.625 v -1.25 C 253,68.16515 253.16192,68 253.375,68 Z m 3,0 h 1.25 c 0.21308,0 0.375,0.16515 0.375,0.375 v 1.25 C 258,69.83484 257.83808,70 257.625,70 h -1.25 C 256.16192,70 256,69.83484 256,69.625 v -1.25 C 256,68.16515 256.16192,68 256.375,68 Z"
         style="color:#000000;display:inline;overflow:visible;visibility:visible;fill:#ffffff;fill-opacity:1;fill-rule:nonzero;stroke:none;stroke-width:4;marker:none;enable-background:accumulate"
         id="path4959"
         sodipodi:nodetypes="sssssssssssssssssssssssssssssssssssssssssssssssssssssssssssssssssssssssssssssssss" />
      <path
         id="path4921"
         style="opacity:0.2;fill:#ffffff;fill-opacity:1;stroke-width:5;stroke-linecap:round;stroke-linejoin:round"
         d="M 254 59 A 7 7 0 0 0 247 66 A 7 7 0 0 0 247.01758 66.25 A 7 7 0 0 1 254 59.5 A 7 7 0 0 1 260.99023 66.134766 A 7 7 0 0 0 261 66 A 7 7 0 0 0 254 59 z " />
    </g>
    <g
       id="g3927">
      <circle
         style="opacity:0.2;fill:#000000;fill-opacity:1;stroke-width:5;stroke-linecap:round;stroke-linejoin:round"
         id="path3489"
         cx="258"
         cy="27"
         r="10" />
      <circle
         style="opacity:1;fill:#8bc34a;fill-opacity:1;stroke-width:5;stroke-linecap:round;stroke-linejoin:round"
         id="path3616"
         cx="258"
         cy="26"
         r="10" />
      <path
         d="m 253.375,22 h 1.25 c 0.21308,0 0.375,0.165152 0.375,0.375 v 1.25 C 255,23.834848 254.83808,24 254.625,24 h -1.25 C 253.16193,24 253,23.834848 253,23.625 v -1.25 C 253,22.165152 253.16193,22 253.375,22 Z m 4,0 h 1.25 c 0.21308,0 0.375,0.165152 0.375,0.375 v 1.25 C 259,23.834848 258.83808,24 258.625,24 h -1.25 C 257.16193,24 257,23.834848 257,23.625 v -1.25 C 257,22.165152 257.16193,22 257.375,22 Z m 4,0 h 1.25 c 0.21308,0 0.375,0.165152 0.375,0.375 v 1.25 C 263,23.834848 262.83808,24 262.625,24 h -1.25 C 261.16193,24 261,23.834848 261,23.625 v -1.25 C 261,22.165152 261.16193,22 261.375,22 Z m -8,4 h 1.25 c 0.21308,0 0.375,0.165152 0.375,0.375 v 1.25 C 255,27.834848 254.83808,28 254.625,28 h -1.25 C 253.16193,28 253,27.834848 253,27.625 v -1.25 C 253,26.165152 253.16193,26 253.375,26 Z m 4,0 h 1.25 c 0.21308,0 0.375,0.165152 0.375,0.375 v 1.25 C 259,27.834848 258.83808,28 258.625,28 h -1.25 C 257.16193,28 257,27.834848 257,27.625 v -1.25 C 257,26.165152 257.16193,26 257.375,26 Z m 4,0 h 1.25 c 0.21308,0 0.375,0.165152 0.375,0.375 v 1.25 C 263,27.834848 262.83808,28 262.625,28 h -1.25 C 261.16193,28 261,27.834848 261,27.625 v -1.25 C 261,26.165152 261.16193,26 261.375,26 Z m -8,4 h 1.25 c 0.21308,0 0.375,0.165152 0.375,0.375 v 1.25 C 255,31.834848 254.83808,32 254.625,32 h -1.25 C 253.16193,32 253,31.834848 253,31.625 v -1.25 C 253,30.165152 253.16193,30 253.375,30 Z m 4,0 h 1.25 c 0.21308,0 0.375,0.165152 0.375,0.375 v 1.25 C 259,31.834848 258.83808,32 258.625,32 h -1.25 C 257.16193,32 257,31.834848 257,31.625 v -1.25 C 257,30.165152 257.16193,30 257.375,30 Z m 4,0 h 1.25 c 0.21308,0 0.375,0.165152 0.375,0.375 v 1.25 C 263,31.834848 262.83808,32 262.625,32 h -1.25 C 261.16193,32 261,31.834848 261,31.625 v -1.25 C 261,30.165152 261.16193,30 261.375,30 Z"
         style="color:#000000;display:inline;overflow:visible;visibility:visible;fill:#000000;fill-opacity:1;fill-rule:nonzero;stroke:none;stroke-width:4;marker:none;enable-background:accumulate;opacity:0.2"
         id="path4025" />
      <path
         d="m 253.375,21 h 1.25 c 0.21308,0 0.375,0.165152 0.375,0.375 v 1.25 C 255,22.834848 254.83808,23 254.625,23 h -1.25 C 253.16192,23 253,22.834848 253,22.625 v -1.25 C 253,21.165152 253.16192,21 253.375,21 Z m 4,0 h 1.25 c 0.21308,0 0.375,0.165152 0.375,0.375 v 1.25 C 259,22.834848 258.83808,23 258.625,23 h -1.25 C 257.16192,23 257,22.834848 257,22.625 v -1.25 C 257,21.165152 257.16192,21 257.375,21 Z m 4,0 h 1.25 c 0.21308,0 0.375,0.165152 0.375,0.375 v 1.25 C 263,22.834848 262.83808,23 262.625,23 h -1.25 C 261.16192,23 261,22.834848 261,22.625 v -1.25 C 261,21.165152 261.16192,21 261.375,21 Z m -8,4 h 1.25 c 0.21308,0 0.375,0.165152 0.375,0.375 v 1.25 C 255,26.834848 254.83808,27 254.625,27 h -1.25 C 253.16192,27 253,26.834848 253,26.625 v -1.25 C 253,25.165152 253.16192,25 253.375,25 Z m 4,0 h 1.25 c 0.21308,0 0.375,0.165152 0.375,0.375 v 1.25 C 259,26.834848 258.83808,27 258.625,27 h -1.25 C 257.16192,27 257,26.834848 257,26.625 v -1.25 C 257,25.165152 257.16192,25 257.375,25 Z m 4,0 h 1.25 c 0.21308,0 0.375,0.165152 0.375,0.375 v 1.25 C 263,26.834848 262.83808,27 262.625,27 h -1.25 C 261.16192,27 261,26.834848 261,26.625 v -1.25 C 261,25.165152 261.16192,25 261.375,25 Z m -8,4 h 1.25 c 0.21308,0 0.375,0.165152 0.375,0.375 v 1.25 C 255,30.834848 254.83808,31 254.625,31 h -1.25 C 253.16192,31 253,30.834848 253,30.625 v -1.25 C 253,29.165152 253.16192,29 253.375,29 Z m 4,0 h 1.25 c 0.21308,0 0.375,0.165152 0.375,0.375 v 1.25 C 259,30.834848 258.83808,31 258.625,31 h -1.25 C 257.16192,31 257,30.834848 257,30.625 v -1.25 C 257,29.165152 257.16192,29 257.375,29 Z m 4,0 h 1.25 c 0.21308,0 0.375,0.165152 0.375,0.375 v 1.25 C 263,30.834848 262.83808,31 262.625,31 h -1.25 C 261.16192,31 261,30.834848 261,30.625 v -1.25 C 261,29.165152 261.16192,29 261.375,29 Z"
         style="color:#000000;display:inline;overflow:visible;visibility:visible;fill:#ffffff;fill-opacity:1;fill-rule:nonzero;stroke:none;stroke-width:4;marker:none;enable-background:accumulate"
         id="path3997"
         sodipodi:nodetypes="sssssssssssssssssssssssssssssssssssssssssssssssssssssssssssssssssssssssssssssssss" />
      <path
         id="path3894"
         style="opacity:0.2;fill:#ffffff;fill-opacity:1;stroke-width:5;stroke-linecap:round;stroke-linejoin:round"
         d="M 258 16 A 10 10 0 0 0 248 26 A 10 10 0 0 0 248.03516 26.5 A 10 10 0 0 1 258 17 A 10 10 0 0 1 267.97656 26.341797 A 10 10 0 0 0 268 26 A 10 10 0 0 0 258 16 z " />
    </g>
    <g
       id="g1189"
       transform="translate(0,-0.99047089)">
      <circle
         style="opacity:0.2;fill:#000000;fill-opacity:1;stroke-width:5;stroke-linecap:round;stroke-linejoin:round"
         id="path3929"
         cx="184"
         cy="115.99047"
         r="10" />
      <circle
         style="fill:#8bc34a;fill-opacity:1;stroke-width:1"
         id="path3421"
         cx="184"
         cy="114.99047"
         r="10" />
      <path
         d="m 179.375,110.99047 h 1.25 c 0.21308,0 0.375,0.16515 0.375,0.375 v 1.25 c 0,0.20984 -0.16192,0.375 -0.375,0.375 h -1.25 c -0.21308,0 -0.375,-0.16516 -0.375,-0.375 v -1.25 c 0,-0.20985 0.16192,-0.375 0.375,-0.375 z m 4,0 h 1.25 c 0.21308,0 0.375,0.16515 0.375,0.375 v 1.25 c 0,0.20984 -0.16192,0.375 -0.375,0.375 h -1.25 c -0.21308,0 -0.375,-0.16516 -0.375,-0.375 v -1.25 c 0,-0.20985 0.16192,-0.375 0.375,-0.375 z m 4,0 h 1.25 c 0.21308,0 0.375,0.16515 0.375,0.375 v 1.25 c 0,0.20984 -0.16192,0.375 -0.375,0.375 h -1.25 c -0.21308,0 -0.375,-0.16516 -0.375,-0.375 v -1.25 c 0,-0.20985 0.16192,-0.375 0.375,-0.375 z m -8,4 h 1.25 c 0.21308,0 0.375,0.16515 0.375,0.375 v 1.25 c 0,0.20984 -0.16192,0.375 -0.375,0.375 h -1.25 c -0.21308,0 -0.375,-0.16516 -0.375,-0.375 v -1.25 c 0,-0.20985 0.16192,-0.375 0.375,-0.375 z m 4,0 h 1.25 c 0.21308,0 0.375,0.16515 0.375,0.375 v 1.25 c 0,0.20984 -0.16192,0.375 -0.375,0.375 h -1.25 c -0.21308,0 -0.375,-0.16516 -0.375,-0.375 v -1.25 c 0,-0.20985 0.16192,-0.375 0.375,-0.375 z m 4,0 h 1.25 c 0.21308,0 0.375,0.16515 0.375,0.375 v 1.25 c 0,0.20984 -0.16192,0.375 -0.375,0.375 h -1.25 c -0.21308,0 -0.375,-0.16516 -0.375,-0.375 v -1.25 c 0,-0.20985 0.16192,-0.375 0.375,-0.375 z m -8,4 h 1.25 c 0.21308,0 0.375,0.16515 0.375,0.375 v 1.25 c 0,0.20984 -0.16192,0.375 -0.375,0.375 h -1.25 c -0.21308,0 -0.375,-0.16516 -0.375,-0.375 v -1.25 c 0,-0.20985 0.16192,-0.375 0.375,-0.375 z m 4,0 h 1.25 c 0.21308,0 0.375,0.16515 0.375,0.375 v 1.25 c 0,0.20984 -0.16192,0.375 -0.375,0.375 h -1.25 c -0.21308,0 -0.375,-0.16516 -0.375,-0.375 v -1.25 c 0,-0.20985 0.16192,-0.375 0.375,-0.375 z m 4,0 h 1.25 c 0.21308,0 0.375,0.16515 0.375,0.375 v 1.25 c 0,0.20984 -0.16192,0.375 -0.375,0.375 h -1.25 c -0.21308,0 -0.375,-0.16516 -0.375,-0.375 v -1.25 c 0,-0.20985 0.16192,-0.375 0.375,-0.375 z"
         style="color:#000000;display:inline;overflow:visible;visibility:visible;fill:#000000;fill-opacity:1;fill-rule:nonzero;stroke:none;stroke-width:4;marker:none;enable-background:accumulate;opacity:0.2"
         id="path3969" />
      <path
         d="m 179.375,109.99047 h 1.25 c 0.21308,0 0.375,0.16515 0.375,0.375 v 1.25 c 0,0.20984 -0.16192,0.375 -0.375,0.375 h -1.25 c -0.21308,0 -0.375,-0.16516 -0.375,-0.375 v -1.25 c 0,-0.20985 0.16192,-0.375 0.375,-0.375 z m 4,0 h 1.25 c 0.21308,0 0.375,0.16515 0.375,0.375 v 1.25 c 0,0.20984 -0.16192,0.375 -0.375,0.375 h -1.25 c -0.21308,0 -0.375,-0.16516 -0.375,-0.375 v -1.25 c 0,-0.20985 0.16192,-0.375 0.375,-0.375 z m 4,0 h 1.25 c 0.21308,0 0.375,0.16515 0.375,0.375 v 1.25 c 0,0.20984 -0.16192,0.375 -0.375,0.375 h -1.25 c -0.21308,0 -0.375,-0.16516 -0.375,-0.375 v -1.25 c 0,-0.20985 0.16192,-0.375 0.375,-0.375 z m -8,4 h 1.25 c 0.21308,0 0.375,0.16515 0.375,0.375 v 1.25 c 0,0.20984 -0.16192,0.375 -0.375,0.375 h -1.25 c -0.21308,0 -0.375,-0.16516 -0.375,-0.375 v -1.25 c 0,-0.20985 0.16192,-0.375 0.375,-0.375 z m 4,0 h 1.25 c 0.21308,0 0.375,0.16515 0.375,0.375 v 1.25 c 0,0.20984 -0.16192,0.375 -0.375,0.375 h -1.25 c -0.21308,0 -0.375,-0.16516 -0.375,-0.375 v -1.25 c 0,-0.20985 0.16192,-0.375 0.375,-0.375 z m 4,0 h 1.25 c 0.21308,0 0.375,0.16515 0.375,0.375 v 1.25 c 0,0.20984 -0.16192,0.375 -0.375,0.375 h -1.25 c -0.21308,0 -0.375,-0.16516 -0.375,-0.375 v -1.25 c 0,-0.20985 0.16192,-0.375 0.375,-0.375 z m -8,4 h 1.25 c 0.21308,0 0.375,0.16515 0.375,0.375 v 1.25 c 0,0.20984 -0.16192,0.375 -0.375,0.375 h -1.25 c -0.21308,0 -0.375,-0.16516 -0.375,-0.375 v -1.25 c 0,-0.20985 0.16192,-0.375 0.375,-0.375 z m 4,0 h 1.25 c 0.21308,0 0.375,0.16515 0.375,0.375 v 1.25 c 0,0.20984 -0.16192,0.375 -0.375,0.375 h -1.25 c -0.21308,0 -0.375,-0.16516 -0.375,-0.375 v -1.25 c 0,-0.20985 0.16192,-0.375 0.375,-0.375 z m 4,0 h 1.25 c 0.21308,0 0.375,0.16515 0.375,0.375 v 1.25 c 0,0.20984 -0.16192,0.375 -0.375,0.375 h -1.25 c -0.21308,0 -0.375,-0.16516 -0.375,-0.375 v -1.25 c 0,-0.20985 0.16192,-0.375 0.375,-0.375 z"
         style="color:#000000;display:inline;overflow:visible;visibility:visible;fill:#ffffff;fill-opacity:1;fill-rule:nonzero;stroke:none;stroke-width:4;marker:none;enable-background:accumulate"
         id="path4047"
         sodipodi:nodetypes="sssssssssssssssssssssssssssssssssssssssssssssssssssssssssssssssssssssssssssssssss" />
      <path
         id="path3459"
         style="opacity:0.2;fill:#ffffff;fill-opacity:1;stroke-width:5;stroke-linecap:round;stroke-linejoin:round"
         d="M 184 104.99047 A 10 10 0 0 0 174 114.99047 A 10 10 0 0 0 174.03516 115.49047 A 10 10 0 0 1 184 105.99047 A 10 10 0 0 1 193.97656 115.33227 A 10 10 0 0 0 194 114.99047 A 10 10 0 0 0 184 104.99047 z " />
    </g>
    <g
       id="g2673">
      <circle
         style="opacity:0.2;fill:#000000;fill-opacity:1;stroke-width:5;stroke-linecap:round;stroke-linejoin:round"
         id="path3931"
         cx="191.99998"
         cy="43"
         r="16" />
      <circle
         style="fill:#8bc34a;fill-opacity:1;stroke-width:5;stroke-linecap:round;stroke-linejoin:round"
         id="path2531"
         cx="191.99998"
         cy="42"
         r="16" />
      <path
         d="m 183.99998,34 c -0.554,0 -1,0.446 -1,1 v 2 c 0,0.554 0.446,1 1,1 h 2 c 0.554,0 1,-0.446 1,-1 v -2 c 0,-0.554 -0.446,-1 -1,-1 z m 7,0 c -0.554,0 -1,0.446 -1,1 v 2 c 0,0.554 0.446,1 1,1 h 2 c 0.554,0 1,-0.446 1,-1 v -2 c 0,-0.554 -0.446,-1 -1,-1 z m 7,0 c -0.554,0 -1,0.446 -1,1 v 2 c 0,0.554 0.446,1 1,1 h 2 c 0.554,0 1,-0.446 1,-1 v -2 c 0,-0.554 -0.446,-1 -1,-1 z m -14,7 c -0.554,0 -1,0.446 -1,1 v 2 c 0,0.554 0.446,1 1,1 h 2 c 0.554,0 1,-0.446 1,-1 v -2 c 0,-0.554 -0.446,-1 -1,-1 z m 7,0 c -0.554,0 -1,0.446 -1,1 v 2 c 0,0.554 0.446,1 1,1 h 2 c 0.554,0 1,-0.446 1,-1 v -2 c 0,-0.554 -0.446,-1 -1,-1 z m 7,0 c -0.554,0 -1,0.446 -1,1 v 2 c 0,0.554 0.446,1 1,1 h 2 c 0.554,0 1,-0.446 1,-1 v -2 c 0,-0.554 -0.446,-1 -1,-1 z m -14,7 c -0.554,0 -1,0.446 -1,1 v 2 c 0,0.554 0.446,1 1,1 h 2 c 0.554,0 1,-0.446 1,-1 v -2 c 0,-0.554 -0.446,-1 -1,-1 z m 7,0 c -0.554,0 -1,0.446 -1,1 v 2 c 0,0.554 0.446,1 1,1 h 2 c 0.554,0 1,-0.446 1,-1 v -2 c 0,-0.554 -0.446,-1 -1,-1 z m 7,0 c -0.554,0 -1,0.446 -1,1 v 2 c 0,0.554 0.446,1 1,1 h 2 c 0.554,0 1,-0.446 1,-1 v -2 c 0,-0.554 -0.446,-1 -1,-1 z"
         style="fill:#000000;fill-opacity:1;opacity:0.2"
         id="path3941" />
      <path
         d="m 183.99998,33.000001 c -0.554,0 -1,0.446 -1,1 v 2 c 0,0.554 0.446,1 1,1 h 2 c 0.554,0 1,-0.446 1,-1 v -2 c 0,-0.554 -0.446,-1 -1,-1 z m 7,0 c -0.554,0 -1,0.446 -1,1 v 2 c 0,0.554 0.446,1 1,1 h 2 c 0.554,0 1,-0.446 1,-1 v -2 c 0,-0.554 -0.446,-1 -1,-1 z m 7,0 c -0.554,0 -1,0.446 -1,1 v 2 c 0,0.554 0.446,1 1,1 h 2 c 0.554,0 1,-0.446 1,-1 v -2 c 0,-0.554 -0.446,-1 -1,-1 z m -14,7 c -0.554,0 -1,0.446 -1,1 v 2 c 0,0.554 0.446,1 1,1 h 2 c 0.554,0 1,-0.446 1,-1 v -2 c 0,-0.554 -0.446,-1 -1,-1 z m 7,0 c -0.554,0 -1,0.446 -1,1 v 2 c 0,0.554 0.446,1 1,1 h 2 c 0.554,0 1,-0.446 1,-1 v -2 c 0,-0.554 -0.446,-1 -1,-1 z m 7,0 c -0.554,0 -1,0.446 -1,1 v 2 c 0,0.554 0.446,1 1,1 h 2 c 0.554,0 1,-0.446 1,-1 v -2 c 0,-0.554 -0.446,-1 -1,-1 z m -14,7 c -0.554,0 -1,0.446 -1,1 v 2 c 0,0.554 0.446,1 1,1 h 2 c 0.554,0 1,-0.446 1,-1 v -2 c 0,-0.554 -0.446,-1 -1,-1 z m 7,0 c -0.554,0 -1,0.446 -1,1 v 2 c 0,0.554 0.446,1 1,1 h 2 c 0.554,0 1,-0.446 1,-1 v -2 c 0,-0.554 -0.446,-1 -1,-1 z m 7,0 c -0.554,0 -1,0.446 -1,1 v 2 c 0,0.554 0.446,1 1,1 h 2 c 0.554,0 1,-0.446 1,-1 v -2 c 0,-0.554 -0.446,-1 -1,-1 z"
         style="fill:#ffffff;fill-opacity:1"
         id="path2459"
         sodipodi:nodetypes="sssssssssssssssssssssssssssssssssssssssssssssssssssssssssssssssssssssssssssssssss" />
      <path
         id="path3407"
         style="opacity:0.2;fill:#ffffff;fill-opacity:1;stroke-width:5;stroke-linecap:round;stroke-linejoin:round"
         d="M 192 26 A 16 16 0 0 0 176 42 A 16 16 0 0 0 176.03516 42.5 A 16 16 0 0 1 192 27 A 16 16 0 0 1 207.98242 42.259766 A 16 16 0 0 0 208 42 A 16 16 0 0 0 192 26 z " />
    </g>
    <g
       id="g3241">
      <circle
         style="opacity:0.2;fill:#000000;fill-opacity:1;stroke-width:5;stroke-linecap:round;stroke-linejoin:round"
         id="path3243"
         cx="74"
         cy="75"
         r="32" />
      <circle
         style="fill:#8bc34a;fill-opacity:1;stroke-width:5;stroke-linecap:round;stroke-linejoin:round"
         id="path2727"
         cx="74"
         cy="74"
         r="32" />
      <path
         d="m 57.999998,57 c -1.108,0 -2,0.892 -2,2 v 4 c 0,1.108 0.892,2 2,2 h 4 c 1.108,0 2,-0.892 2,-2 v -4 c 0,-1.108 -0.892,-2 -2,-2 z m 14,0 c -1.108,0 -2,0.892 -2,2 v 4 c 0,1.108 0.892,2 2,2 h 4 c 1.108,0 2,-0.892 2,-2 v -4 c 0,-1.108 -0.892,-2 -2,-2 z m 14,0 c -1.108,0 -2,0.892 -2,2 v 4 c 0,1.108 0.892,2 2,2 h 4.000003 c 1.108,0 2,-0.892 2,-2 v -4 c 0,-1.108 -0.892,-2 -2,-2 z m -28,14 c -1.108,0 -2,0.892 -2,2 v 4 c 0,1.108 0.892,2 2,2 h 4 c 1.108,0 2,-0.892 2,-2 v -4 c 0,-1.108 -0.892,-2 -2,-2 z m 14,0 c -1.108,0 -2,0.892 -2,2 v 4 c 0,1.108 0.892,2 2,2 h 4 c 1.108,0 2,-0.892 2,-2 v -4 c 0,-1.108 -0.892,-2 -2,-2 z m 14,0 c -1.108,0 -2,0.892 -2,2 v 4 c 0,1.108 0.892,2 2,2 h 4.000003 c 1.108,0 2,-0.892 2,-2 v -4 c 0,-1.108 -0.892,-2 -2,-2 z m -28,14.000005 c -1.108,0 -2,0.892 -2,2 v 4 c 0,1.108 0.892,2 2,2 h 4 c 1.108,0 2,-0.892 2,-2 v -4 c 0,-1.108 -0.892,-2 -2,-2 z m 14,0 c -1.108,0 -2,0.892 -2,2 v 4 c 0,1.108 0.892,2 2,2 h 4 c 1.108,0 2,-0.892 2,-2 v -4 c 0,-1.108 -0.892,-2 -2,-2 z m 14,0 c -1.108,0 -2,0.892 -2,2 v 4 c 0,1.108 0.892,2 2,2 h 4.000003 c 1.108,0 2,-0.892 2,-2 v -4 c 0,-1.108 -0.892,-2 -2,-2 z"
         style="fill:#000000;fill-opacity:1;stroke-width:2;opacity:0.2"
         id="path3305" />
      <path
         d="m 58,56 c -1.108,0 -2,0.892 -2,2 v 4 c 0,1.108 0.892,2 2,2 h 4 c 1.108,0 2,-0.892 2,-2 v -4 c 0,-1.108 -0.892,-2 -2,-2 z m 14,0 c -1.108,0 -2,0.892 -2,2 v 4 c 0,1.108 0.892,2 2,2 h 4 c 1.108,0 2,-0.892 2,-2 v -4 c 0,-1.108 -0.892,-2 -2,-2 z m 14,0 c -1.108,0 -2,0.892 -2,2 v 4 c 0,1.108 0.892,2 2,2 h 4 c 1.108,0 2,-0.892 2,-2 v -4 c 0,-1.108 -0.892,-2 -2,-2 z M 58,70 c -1.108,0 -2,0.892 -2,2 v 4 c 0,1.108 0.892,2 2,2 h 4 c 1.108,0 2,-0.892 2,-2 v -4 c 0,-1.108 -0.892,-2 -2,-2 z m 14,0 c -1.108,0 -2,0.892 -2,2 v 4 c 0,1.108 0.892,2 2,2 h 4 c 1.108,0 2,-0.892 2,-2 v -4 c 0,-1.108 -0.892,-2 -2,-2 z m 14,0 c -1.108,0 -2,0.892 -2,2 v 4 c 0,1.108 0.892,2 2,2 h 4 c 1.108,0 2,-0.892 2,-2 v -4 c 0,-1.108 -0.892,-2 -2,-2 z M 58,84 c -1.108,0 -2,0.892 -2,2 v 4 c 0,1.108 0.892,2 2,2 h 4 c 1.108,0 2,-0.892 2,-2 v -4 c 0,-1.108 -0.892,-2 -2,-2 z m 14,0 c -1.108,0 -2,0.892 -2,2 v 4 c 0,1.108 0.892,2 2,2 h 4 c 1.108,0 2,-0.892 2,-2 v -4 c 0,-1.108 -0.892,-2 -2,-2 z m 14,0 c -1.108,0 -2,0.892 -2,2 v 4 c 0,1.108 0.892,2 2,2 h 4 c 1.108,0 2,-0.892 2,-2 v -4 c 0,-1.108 -0.892,-2 -2,-2 z"
         style="fill:#ffffff;fill-opacity:1;stroke-width:2"
         id="path2786"
         sodipodi:nodetypes="sssssssssssssssssssssssssssssssssssssssssssssssssssssssssssssssssssssssssssssssss" />
      <path
         id="path3325"
         style="opacity:0.2;fill:#ffffff;fill-opacity:1;stroke-width:5;stroke-linecap:round;stroke-linejoin:round"
         d="M 74 42 A 32 32 0 0 0 42 74 A 32 32 0 0 0 42.035156 74.5 A 32 32 0 0 1 74 43 A 32 32 0 0 1 105.98242 74.257812 A 32 32 0 0 0 106 74 A 32 32 0 0 0 74 42 z " />
    </g>
  </g>
  <g
     id="g2796">
    <path
       style="opacity:0.2;fill:#ffffff"
       d="m 246,56 c -1.108,0 -2,0.892 -2,2 v 0.5 c 0,-1.108 0.892,-2 2,-2 h 16 c 1.108,0 2,0.892 2,2 V 58 c 0,-1.108 -0.892,-2 -2,-2 z"
       id="path316" />
    <path
       id="rect914"
       style="opacity:0.2;fill:#ffffff"
       d="m 247,12.000001 c -1.662,0 -3,1.338002 -3,3 v 1 c 0,-1.661998 1.338,-3 3,-3 h 22 c 1.662,0 3,1.338002 3,3 v -1 c 0,-1.661998 -1.338,-3 -3,-3 z" />
    <path
       style="opacity:0.2;fill:#ffffff"
       d="m 168,93.999997 c -2.216,0 -4,1.784 -4,4 v 1 c 0,-2.216 1.784,-4 4,-4 h 32 c 2.216,0 4,1.784 4,4 v -1 c 0,-2.216 -1.784,-4 -4,-4 z"
       id="path2053" />
    <path
       id="rect914-3"
       style="opacity:0.2;fill:#ffffff;stroke-width:2"
       d="m 170,14 c -3.324,0 -6,2.676003 -6,6 v 1 c 0,-3.323997 2.676,-6 6,-6 h 44 c 3.324,0 6,2.676003 6,6 v -1 c 0,-3.323997 -2.676,-6 -6,-6 z"
       sodipodi:nodetypes="sscsscsss" />
    <path
       id="rect914-7"
       style="opacity:0.2;fill:#ffffff;stroke-width:4"
       d="m 30.000001,18.000001 c -6.647993,0 -12,5.352007 -12,12 v 1 c 0,-6.647993 5.352007,-12 12,-12 h 87.999989 c 6.64799,0 12,5.352007 12,12 v -1 c 0,-6.647993 -5.35201,-12 -12,-12 z"
       sodipodi:nodetypes="sscsscsss" />
  </g>
</svg>
