<?xml version="1.0" encoding="UTF-8" standalone="no"?>
<svg
   width="284"
   height="148"
   version="1.1"
   id="svg5462"
   sodipodi:docname="application-x-pem-key.svg"
   inkscape:version="1.2.2 (1:1.2.2+202305151914+b0a8486541)"
   xmlns:inkscape="http://www.inkscape.org/namespaces/inkscape"
   xmlns:sodipodi="http://sodipodi.sourceforge.net/DTD/sodipodi-0.dtd"
   xmlns="http://www.w3.org/2000/svg"
   xmlns:svg="http://www.w3.org/2000/svg">
  <defs
     id="defs5466" />
  <sodipodi:namedview
     id="namedview5464"
     pagecolor="#d2d2d2"
     bordercolor="#000000"
     borderopacity="0.25"
     inkscape:showpageshadow="2"
     inkscape:pageopacity="0"
     inkscape:pagecheckerboard="0"
     inkscape:deskcolor="#d2d2d2"
     showgrid="false"
     inkscape:zoom="4.6056338"
     inkscape:cx="142"
     inkscape:cy="74.039755"
     inkscape:window-width="1920"
     inkscape:window-height="1008"
     inkscape:window-x="0"
     inkscape:window-y="0"
     inkscape:window-maximized="1"
     inkscape:current-layer="svg5462"
     showborder="false"
     showguides="true" />
  <g
     id="Baseplate"
     transform="translate(160,10)"
     style="display:none">
    <text
       xml:space="preserve"
       style="font-size:12px;font-family:'Noto Sans';-inkscape-font-specification:'Noto Sans';text-align:end;text-anchor:end;opacity:1;fill:#000000;stroke-width:5;stroke-linecap:round;stroke-linejoin:round"
       x="71.631897"
       y="-0.48000813"
       id="context"
       transform="translate(-160,-10)"><tspan
         sodipodi:role="line"
         id="tspan1976"
         x="71.631897"
         y="-0.48000813"
         style="font-size:12px">mimetypes</tspan></text>
    <text
       xml:space="preserve"
       style="font-size:12px;font-family:'Noto Sans';-inkscape-font-specification:'Noto Sans';text-align:start;text-anchor:start;fill:#000000;stroke-width:5;stroke-linecap:round;stroke-linejoin:round"
       x="-74.127937"
       y="-10.480008"
       id="icon-name"><tspan
         sodipodi:role="line"
         id="tspan1976-6"
         x="-74.127937"
         y="-10.480008"
         style="font-style:normal;font-variant:normal;font-weight:bold;font-stretch:normal;font-size:12px;font-family:'Noto Sans';-inkscape-font-specification:'Noto Sans Bold';text-align:start;text-anchor:start">application-x-pem-key</tspan></text>
    <rect
       style="opacity:1;fill:#ffffff;stroke-width:5;stroke-linecap:round;stroke-linejoin:round"
       id="128x128"
       width="128"
       height="128"
       x="-150"
       y="0" />
    <rect
       style="opacity:1;fill:#ffffff;stroke-width:5;stroke-linecap:round;stroke-linejoin:round"
       id="64x64"
       width="64"
       height="64"
       x="0"
       y="0" />
    <rect
       style="opacity:1;fill:#ffffff;stroke-width:5;stroke-linecap:round;stroke-linejoin:round"
       id="48x48"
       width="48"
       height="48"
       x="0"
       y="80" />
    <rect
       style="opacity:1;fill:#ffffff;stroke-width:1.66667;stroke-linecap:round;stroke-linejoin:round"
       id="32x32"
       width="32"
       height="32"
       x="82"
       y="0" />
    <rect
       style="opacity:1;fill:#ffffff;stroke-width:5;stroke-linecap:round;stroke-linejoin:round"
       id="24x24"
       width="24"
       height="24"
       x="82"
       y="44" />
    <rect
       style="opacity:1;fill:#ffffff;stroke-width:5;stroke-linecap:round;stroke-linejoin:round"
       id="16x16"
       width="16"
       height="16"
       x="82"
       y="80" />
  </g>
  <g
     id="g1767">
    <path
       d="m 247,56.5 c -0.554,0 -1,0.446 -1,1 v 18 c 0,0.554 0.446,1 1,1 h 14 c 0.554,0 1,-0.446 1,-1 v -13 L 256.5,62 256,56.5 Z"
       style="opacity:0.2;fill:#000000"
       id="path3101" />
    <path
       d="M 248.375,13 C 247.61325,13 247,13.6244 247,14.4 v 25.2 c 0,0.77504 0.61325,1.4 1.375,1.4 h 19.25 C 268.3862,41 269,40.37504 269,39.6 V 22 l -7,-2 -2,-7 z"
       style="opacity:0.2;fill:#000000"
       id="path1417" />
    <path
       d="m 170,95 c -1.108,0 -2,0.892 -2,2 v 36 c 0,1.108 0.892,2 2,2 h 28 c 1.108,0 2,-0.892 2,-2 v -26 l -11,-1 -1,-11 z"
       style="opacity:0.2;fill:#000000"
       id="path1626" />
    <path
       style="opacity:0.2;fill:#000000"
       d="m 172.75,15 c -1.5235,0 -2.75,1.2488 -2.75,2.8 v 50.4 c 0,1.55008 1.2265,2.8 2.75,2.8 h 38.5 c 1.5224,0 2.75,-1.24992 2.75,-2.8 V 33 l -14,-4 -4,-14 z"
       id="path5450" />
    <path
       d="m 35.499997,19 c -3.047,0 -5.5,2.4976 -5.5,5.6 v 100.8 c 0,3.10017 2.453,5.6 5.5,5.6 H 112.5 c 3.0448,0 5.5,-2.49984 5.5,-5.6 V 50.999999 l -24,-8 L 86,19 Z"
       style="fill:#000000;stroke-width:2;opacity:0.2"
       id="path1820" />
  </g>
  <g
     id="g1733">
    <path
       d="M 248.375,12 C 247.61325,12 247,12.6244 247,13.4 v 25.2 c 0,0.77504 0.61325,1.4 1.375,1.4 h 19.25 C 268.3862,40 269,39.37504 269,38.6 V 20 l -6,-2 -2,-6 z"
       style="fill:#e4e4e4;fill-opacity:1"
       id="path1333"
       sodipodi:nodetypes="sssssscccs" />
    <path
       d="m 247,56 c -0.554,0 -1,0.446 -1,1 v 18 c 0,0.554 0.446,1 1,1 h 14 c 0.554,0 1,-0.446 1,-1 V 62 L 256.5,61.5 256,56 Z"
       style="fill:#e4e4e4"
       id="path3073"
       sodipodi:nodetypes="sssssscccs" />
    <path
       d="m 244.75,91 c -0.4172,0 -0.75,0.3328 -0.75,0.75 v 13.5 c 0,0.417 0.3328,0.75 0.75,0.75 h 10.5 c 0.418,0 0.75,-0.332 0.75,-0.75 V 94.9995 L 252.8755,94.1245 252.0005,91 Z"
       style="fill:#e4e4e4"
       id="path3473"
       sodipodi:nodetypes="sssssscccs" />
    <path
       d="m 170,94 c -1.108,0 -2,0.892 -2,2 v 36 c 0,1.108 0.892,2 2,2 h 28 c 1.108,0 2,-0.892 2,-2 v -26 l -11,-1 -1,-11 z"
       style="fill:#e4e4e4;fill-opacity:1"
       id="path1598" />
    <path
       style="fill:#e4e4e4;fill-opacity:1"
       d="m 172.75,14 c -1.5235,0 -2.75,1.2488 -2.75,2.8 v 50.4 c 0,1.55008 1.2265,2.8 2.75,2.8 h 38.5 c 1.5224,0 2.75,-1.24992 2.75,-2.8 V 30 l -12,-4 -4,-12 z"
       id="path5452"
       sodipodi:nodetypes="sssssscccs" />
    <path
       d="M 35.5,18 C 32.453,18 30,20.4976 30,23.6 v 100.8 c 0,3.10016 2.453,5.6 5.5,5.6 h 77 c 3.0448,0 5.5,-2.49984 5.5,-5.6 V 49.999999 l -24,-8 L 86,18 Z"
       style="fill:#e4e4e4;stroke-width:2;fill-opacity:1"
       id="path1792"
       sodipodi:nodetypes="sssssscccs" />
  </g>
  <g
     id="g772">
    <path
       d="m 247.5,99 c -1.38071,0 -2.5,1.11928 -2.5,2.5 0,1.38071 1.11929,2.5 2.5,2.5 1.18714,-0.001 2.20984,-0.83684 2.44727,-2 h 2.02734 v 1 h 1 v -1 H 254 v -1 h -4.05078 C 249.71164,99.836123 248.68788,99.000129 247.5,99 Z m 0,1 c 0.72287,1.2e-4 1.34284,0.5158 1.47461,1.22656 v 0.54688 c -0.13177,0.71076 -0.75174,1.22644 -1.47461,1.22656 -0.82843,0 -1.5,-0.67157 -1.5,-1.5 0,-0.82843 0.67157,-1.5 1.5,-1.5 z"
       style="fill:#607d8b;fill-opacity:1"
       id="path2193" />
    <path
       d="m 252,67.5 c -1.65685,0 -3,1.343146 -3,3 0,1.656854 1.34315,3 3,3 1.26972,-0.0019 2.40076,-0.802891 2.824,-2 H 257 v 1 h 2 v -1 h 0.5 v -2 h -4.6748 c -0.42336,-1.197454 -1.55491,-1.998549 -2.825,-2 z m 0,2 c 0.55228,0 1,0.447715 1,1 0,0.552285 -0.44772,1 -1,1 -0.55228,0 -1,-0.447715 -1,-1 0,-0.552285 0.44772,-1 1,-1 z"
       style="fill:#000000;opacity:0.2"
       id="path2900" />
    <path
       d="m 252,67 c -1.65685,0 -3,1.343146 -3,3 0,1.656854 1.34315,3 3,3 1.26972,-0.0019 2.40076,-0.802891 2.824,-2 H 257 v 1 h 2 v -1 h 0.5 v -2 h -4.6748 c -0.42336,-1.197454 -1.55491,-1.998549 -2.825,-2 z m 0,2 c 0.55228,0 1,0.447715 1,1 0,0.552285 -0.44772,1 -1,1 -0.55228,0 -1,-0.447715 -1,-1 0,-0.552285 0.44772,-1 1,-1 z"
       style="fill:#607d8b;fill-opacity:1"
       id="path2596" />
    <path
       d="m 255,28 c -2.20914,0 -4,1.790861 -4,4 0,2.209139 1.79086,4 4,4 1.82183,-0.0026 3.41173,-1.236014 3.86719,-3 H 261 l 0.0293,2 H 264 v -2 h 1 v -2 h -6.13086 C 258.4135,29.235311 256.82256,28.001751 255,28 Z m 0,3 c 0.55228,0 1,0.447716 1,1 0,0.552284 -0.44772,1 -1,1 -0.55229,0 -1,-0.447716 -1,-1 0,-0.552284 0.44771,-1 1,-1 z"
       style="fill:#000000;opacity:0.2"
       id="path3264" />
    <path
       d="m 255,27 c -2.20914,0 -4,1.790861 -4,4 0,2.209139 1.79086,4 4,4 1.82184,-0.0026 3.41173,-1.236014 3.86719,-3 H 261 l 0.0293,2 H 264 v -2 h 1 v -2 h -6.13086 C 258.4135,28.235311 256.82256,27.001751 255,27 Z m 0,3 c 0.55228,0 1,0.447716 1,1 0,0.552284 -0.44772,1 -1,1 -0.55229,0 -1,-0.447716 -1,-1 0,-0.552284 0.44771,-1 1,-1 z"
       style="fill:#607d8b;fill-opacity:1"
       id="path3112" />
    <path
       d="m 180,116 c -3.31371,0 -6,2.68629 -6,6 0,3.31371 2.68629,6 6,6 2.53959,-0.004 4.80187,-1.60564 5.6484,-4 H 189 v 2 h 4 v -2 h 2.0004 v -4 h -9.3496 c -0.84673,-2.39491 -3.10982,-3.9971 -5.65,-4 z m 0,4 c 1.10457,0 2,0.89543 2,2 0,1.10457 -0.89543,2 -2,2 -1.10457,0 -2,-0.89543 -2,-2 0,-1.10457 0.89543,-2 2,-2 z"
       style="opacity:0.2;fill:#000000"
       id="path3662" />
    <path
       d="m 180,115 c -3.31371,0 -6,2.68629 -6,6 0,3.31371 2.68629,6 6,6 2.53959,-0.004 4.80187,-1.60565 5.6484,-4 H 189 v 2 h 4 v -2 h 2.0004 v -4 h -9.3496 c -0.84673,-2.39491 -3.10982,-3.9971 -5.65,-4 z m 0,4 c 1.10457,0 2,0.89543 2,2 0,1.10457 -0.89543,2 -2,2 -1.10457,0 -2,-0.89543 -2,-2 0,-1.10457 0.89543,-2 2,-2 z"
       style="fill:#607d8b;fill-opacity:1"
       id="path3427" />
    <path
       d="m 185,43 c -4.97056,0 -9,4.029439 -9,9 0,4.970561 4.02944,9 9,9 3.80939,-0.0054 7.20286,-2.408467 8.47266,-6 H 199 v 3 h 6 v -3 h 2 v -6 h -13.52344 c -1.27009,-3.592363 -4.66433,-5.995647 -8.47461,-6 z m 0,6 c 1.65685,0 3,1.343147 3,3 0,1.656853 -1.34315,3 -3,3 -1.65685,0 -3,-1.343147 -3,-3 0,-1.656853 1.34315,-3 3,-3 z"
       style="fill:#000000;opacity:0.2"
       id="path1113" />
    <path
       d="m 185,42 c -4.97056,0 -9,4.02944 -9,9 0,4.970561 4.02944,9 9,9 3.80939,-0.0054 7.20286,-2.408467 8.47266,-6 H 199 v 3 h 6 v -3 h 2 v -6 h -13.52344 c -1.27009,-3.592362 -4.66433,-5.995646 -8.47461,-6 z m 0,6 c 1.65685,0 3,1.343148 3,3 0,1.656853 -1.34315,3 -3,3 -1.65685,0 -3,-1.343147 -3,-3 0,-1.656852 1.34315,-3 3,-3 z"
       style="fill:#607d8b;fill-opacity:1"
       id="path306" />
    <path
       d="m 60,75 c -9.94112,0 -18,8.058878 -18,18 0,9.94112 8.05888,18 18,18 7.61878,-0.0108 14.40572,-4.81693 16.94532,-12 H 88 v 6 h 12 v -6 h 4 V 87 H 76.95312 C 74.41294,79.815274 67.62446,75.008706 60.0039,75 Z m 0,12 c 3.3137,0 6,2.686294 6,6 0,3.313706 -2.6863,6 -6,6 -3.3137,0 -6,-2.686294 -6,-6 0,-3.313706 2.6863,-6 6,-6 z"
       style="opacity:0.2;fill:#000000;stroke-width:2"
       id="path1141" />
    <path
       d="m 60.0039,74 c -9.94112,0 -18,8.058878 -18,18 0,9.94112 8.05888,18 18,18 7.61878,-0.0108 14.40572,-4.81693 16.94532,-12 H 88.0039 v 6 h 12 v -6 h 4 V 86 H 76.95702 C 74.41684,78.815274 67.62836,74.008706 60.0078,74 Z m 0,12 c 3.3137,0 6,2.686294 6,6 0,3.313706 -2.6863,6 -6,6 -3.3137,0 -6,-2.686294 -6,-6 0,-3.313706 2.6863,-6 6,-6 z"
       style="fill:#607d8b;fill-opacity:1;stroke-width:2"
       id="path1169" />
  </g>
  <g
     id="g1758">
    <path
       d="m 256,56.5 v 5 c 0,0.5523 0.44771,1 1,1 h 5 z"
       style="opacity:0.2;fill:#000000;fill-opacity:1;stroke-width:0.5"
       id="path3295" />
    <path
       d="m 269,21 -8,-8 v 6.59375 C 261,20.373375 261.62775,21 262.40625,21 Z"
       style="opacity:0.2;fill:#000000"
       id="path1389"
       sodipodi:nodetypes="ccssc" />
    <path
       d="m 188,95 v 10 c 0,1.1046 0.89543,2 2,2 h 10 z"
       style="opacity:0.2"
       id="path1654"
       sodipodi:nodetypes="csscc" />
    <path
       style="opacity:0.2;fill:#000000"
       d="M 214,31 198,15 V 28.1875 C 198,29.74675 199.2555,31 200.8125,31 Z"
       id="path5454"
       sodipodi:nodetypes="ccssc" />
    <path
       d="M 118,51 86,19 V 45.375 C 86,48.4935 88.511,51 91.625,51 Z"
       style="opacity:0.2;fill:#000000;stroke-width:2"
       id="path1904" />
  </g>
  <g
     id="g1741">
    <path
       d="m 247,56 c -0.554,0 -1,0.446 -1,1 v 0.5 c 0,-0.554 0.446,-1 1,-1 h 9 l 5.5,5.500005 H 262 L 256,56 Z"
       style="opacity:0.2;fill:#ffffff;stroke-width:0.5"
       id="path3323" />
    <path
       d="M 248.375,12 C 247.61325,12 247,12.624791 247,13.400391 v 1 C 247,13.624791 247.61325,13 248.375,13 H 261 l 7.00044,7 H 269 l -8,-8 z"
       style="opacity:0.2;fill:#ffffff"
       id="path1445"
       sodipodi:nodetypes="sscsccccs" />
    <path
       d="m 170,94 c -1.108,0 -2,0.892 -2,2 v 1 c 0,-1.108 0.892,-2 2,-2 h 18 l 11,11.00001 h 1 L 188,94 Z"
       style="opacity:0.2;fill:#ffffff"
       id="path1710"
       sodipodi:nodetypes="sscsccccs" />
    <path
       style="opacity:0.2;fill:#ffffff"
       d="m 172.75,14 c -1.5235,0 -2.75,1.249581 -2.75,2.800781 v 1 C 170,16.249581 171.2265,15 172.75,15 H 198 l 15,15 h 1 L 198,14 Z"
       id="path5458"
       sodipodi:nodetypes="sscsccccs" />
    <path
       d="M 35.5,18 C 32.453,18 30,20.499162 30,23.601562 v 1 C 30,21.499162 32.453,19 35.5,19 H 86 L 117,49.999999 118,50 86,18 Z"
       style="opacity:0.2;fill:#ffffff;stroke-width:2"
       id="path1848"
       sodipodi:nodetypes="sscsccccs" />
  </g>
  <g
     id="g1753">
    <path
       d="m 256,56 v 5 c 0,0.5523 0.44771,1 1,1 h 5 z"
       style="opacity:1;fill:#fafafa;fill-opacity:1;stroke-width:0.5"
       id="path3129"
       sodipodi:nodetypes="csscc" />
    <path
       d="m 269,20 -8,-8 v 6.59375 C 261,19.373375 261.62775,20 262.40625,20 Z"
       style="fill:#fafafa;fill-opacity:1"
       id="path1361"
       sodipodi:nodetypes="ccssc" />
    <path
       d="m 188,94 v 10 c 0,1.1046 0.89543,2 2,2 h 10 z"
       style="fill:#fafafa;fill-opacity:1"
       id="path1682" />
    <path
       d="m 252.0005,91 v 3.1662 c 0,0.4584 0.3749,0.8333 0.8333,0.8333 H 256 Z"
       style="fill:#fafafa"
       id="path3501"
       sodipodi:nodetypes="csscc" />
    <path
       style="fill:#fafafa;fill-opacity:1"
       d="M 214,30 198,14 V 27.1875 C 198,28.74675 199.2555,30 200.8125,30 Z"
       id="path5456"
       sodipodi:nodetypes="ccssc" />
    <path
       d="M 118,50 86,18 V 44.375 C 86,47.4935 88.511,50 91.625,50 Z"
       style="fill:#fafafa;stroke-width:2;fill-opacity:1"
       id="path1876" />
  </g>
</svg>
