<?xml version="1.0" encoding="UTF-8" standalone="no"?>
<svg
   width="284"
   height="148"
   version="1.1"
   id="svg5462"
   sodipodi:docname="image-x-generic.svg"
   inkscape:version="1.2.2 (1:1.2.2+202305151914+b0a8486541)"
   xmlns:inkscape="http://www.inkscape.org/namespaces/inkscape"
   xmlns:sodipodi="http://sodipodi.sourceforge.net/DTD/sodipodi-0.dtd"
   xmlns="http://www.w3.org/2000/svg"
   xmlns:svg="http://www.w3.org/2000/svg">
  <defs
     id="defs5466" />
  <sodipodi:namedview
     id="namedview5464"
     pagecolor="#d2d2d2"
     bordercolor="#000000"
     borderopacity="0.25"
     inkscape:showpageshadow="2"
     inkscape:pageopacity="0"
     inkscape:pagecheckerboard="0"
     inkscape:deskcolor="#d2d2d2"
     showgrid="false"
     inkscape:zoom="4.5985915"
     inkscape:cx="142"
     inkscape:cy="73.935681"
     inkscape:window-width="1920"
     inkscape:window-height="1008"
     inkscape:window-x="0"
     inkscape:window-y="0"
     inkscape:window-maximized="1"
     inkscape:current-layer="svg5462"
     showborder="false"
     showguides="true" />
  <g
     id="Baseplate"
     transform="translate(160,10)"
     style="display:none">
    <text
       xml:space="preserve"
       style="font-size:12px;font-family:'Noto Sans';-inkscape-font-specification:'Noto Sans';text-align:end;text-anchor:end;opacity:1;fill:#000000;stroke-width:5;stroke-linecap:round;stroke-linejoin:round"
       x="71.631897"
       y="-0.48000813"
       id="context"
       transform="translate(-160,-10)"><tspan
         sodipodi:role="line"
         id="tspan1976"
         x="71.631897"
         y="-0.48000813"
         style="font-size:12px">mimetypes</tspan></text>
    <text
       xml:space="preserve"
       style="font-size:12px;font-family:'Noto Sans';-inkscape-font-specification:'Noto Sans';text-align:start;text-anchor:start;fill:#000000;stroke-width:5;stroke-linecap:round;stroke-linejoin:round"
       x="-74.127937"
       y="-10.480008"
       id="icon-name"><tspan
         sodipodi:role="line"
         id="tspan1976-6"
         x="-74.127937"
         y="-10.480008"
         style="font-style:normal;font-variant:normal;font-weight:bold;font-stretch:normal;font-size:12px;font-family:'Noto Sans';-inkscape-font-specification:'Noto Sans Bold';text-align:start;text-anchor:start">image-x-generic</tspan></text>
    <rect
       style="opacity:1;fill:#ffffff;stroke-width:5;stroke-linecap:round;stroke-linejoin:round"
       id="128x128"
       width="128"
       height="128"
       x="-150"
       y="0" />
    <rect
       style="opacity:1;fill:#ffffff;stroke-width:5;stroke-linecap:round;stroke-linejoin:round"
       id="64x64"
       width="64"
       height="64"
       x="0"
       y="0" />
    <rect
       style="opacity:1;fill:#ffffff;stroke-width:5;stroke-linecap:round;stroke-linejoin:round"
       id="48x48"
       width="48"
       height="48"
       x="0"
       y="80" />
    <rect
       style="opacity:1;fill:#ffffff;stroke-width:1.66667;stroke-linecap:round;stroke-linejoin:round"
       id="32x32"
       width="32"
       height="32"
       x="82"
       y="0" />
    <rect
       style="opacity:1;fill:#ffffff;stroke-width:5;stroke-linecap:round;stroke-linejoin:round"
       id="24x24"
       width="24"
       height="24"
       x="82"
       y="44" />
    <rect
       style="opacity:1;fill:#ffffff;stroke-width:5;stroke-linecap:round;stroke-linejoin:round"
       id="16x16"
       width="16"
       height="16"
       x="82"
       y="80" />
  </g>
  <g
     id="g8519">
    <rect
       style="opacity:0.2;fill:#000000;fill-opacity:1;stroke-width:5;stroke-linecap:round;stroke-linejoin:round"
       id="rect1176"
       width="40"
       height="36"
       x="164"
       y="97"
       ry="2" />
    <rect
       style="opacity:0.2;fill:#000000;fill-opacity:1;stroke-width:5;stroke-linecap:round;stroke-linejoin:round"
       id="rect1178"
       width="52"
       height="48.000004"
       x="166"
       y="19"
       ry="4" />
    <rect
       style="opacity:0.2;fill:#000000;stroke-width:10;stroke-linecap:round;stroke-linejoin:round"
       id="rect415"
       width="104"
       height="96.000008"
       x="22"
       y="27"
       ry="8" />
    <rect
       style="opacity:0.2;fill:#000000;fill-opacity:1;stroke-width:5;stroke-linecap:round;stroke-linejoin:round"
       id="rect1716"
       width="26"
       height="24"
       x="245"
       y="15"
       ry="2" />
    <rect
       style="opacity:0.2;fill:#000000;fill-opacity:1;stroke-width:5;stroke-linecap:round;stroke-linejoin:round"
       id="rect1843"
       width="20"
       height="18"
       x="244"
       y="57.5"
       ry="1" />
  </g>
  <g
     id="g8516">
    <rect
       style="opacity:1;fill:#66bdb5;fill-opacity:1;stroke-width:5;stroke-linecap:round;stroke-linejoin:round"
       id="rect2029"
       width="16"
       height="15"
       x="242"
       y="91"
       ry="1" />
    <rect
       style="opacity:1;fill:#66bdb5;fill-opacity:1;stroke-width:5;stroke-linecap:round;stroke-linejoin:round"
       id="rect1845"
       width="20"
       height="18"
       x="244"
       y="57"
       ry="1" />
    <rect
       style="opacity:1;fill:#66bdb5;fill-opacity:1;stroke-width:5;stroke-linecap:round;stroke-linejoin:round"
       id="rect1714"
       width="26"
       height="24"
       x="245"
       y="14"
       ry="2" />
    <rect
       style="opacity:1;fill:#66bdb5;fill-opacity:1;stroke-width:5;stroke-linecap:round;stroke-linejoin:round"
       id="rect1049"
       width="40"
       height="36"
       x="164"
       y="96"
       ry="2" />
    <rect
       style="fill:#66bdb5;fill-opacity:1;stroke-width:3.99994"
       id="rect342"
       width="52"
       height="48"
       x="166"
       y="17.999996"
       ry="4" />
    <rect
       style="opacity:1;fill:#66bdb5;fill-opacity:1;stroke-width:10;stroke-linecap:round;stroke-linejoin:round"
       id="rect470"
       width="104"
       height="96"
       x="22"
       y="26"
       ry="8" />
  </g>
  <g
     id="g308">
    <g
       id="g2383">
      <path
         d="m 247,98 5,4 2,-2.000003 L 256,102 v 2 h -12 v -3 z"
         style="fill:#ffffff"
         id="path916"
         sodipodi:nodetypes="cccccccc" />
    </g>
    <g
       id="g2404">
      <path
         d="m 250,65.5 5.5,5.5 3.5,-3.5 3,3 v 3 h -16 v -4 z"
         style="fill:#000000;opacity:0.2"
         id="path1552" />
      <path
         d="m 250,65 5.5,5.5 3.5,-3.5 3,3 v 3 h -16 v -4 z"
         style="fill:#ffffff"
         id="path1524"
         sodipodi:nodetypes="cccccccc" />
    </g>
    <g
       id="g2170">
      <path
         d="m 253,25 7,7 5,-4 3,3 v 5 h -20 v -6 z"
         style="opacity:0.2;fill:#000000"
         id="path1636"
         sodipodi:nodetypes="cccccccc" />
      <path
         d="m 253,24 7,7 5,-4 3,3 v 5 h -20 v -6 z"
         style="fill:#ffffff"
         id="path1664"
         sodipodi:nodetypes="cccccccc" />
    </g>
    <g
       id="g1272"
       transform="translate(-35.8853,-5.89874)">
      <path
         d="m 211.8853,118.89874 11,11 7,-7 6,6 v 6 h -32 v -8 z"
         style="fill:#000000;stroke-width:2;opacity:0.2"
         id="path1580"
         sodipodi:nodetypes="cccccccc" />
      <path
         d="m 211.8853,117.89874 11,11 7,-7 6,6 v 6 h -32 v -8 z"
         style="fill:#ffffff;stroke-width:2"
         id="path1608" />
    </g>
    <g
       id="g303">
      <path
         d="m 182,39 14,14 10,-8 6,6 V 61 H 172 V 49 Z"
         style="opacity:0.2;fill:#000000;stroke-width:2"
         id="path1720"
         sodipodi:nodetypes="cccccccc" />
      <path
         d="m 182,38 14,14 10,-8 6,6 V 60 H 172 V 48 Z"
         style="fill:#ffffff;stroke-width:2"
         id="path1692"
         sodipodi:nodetypes="cccccccc" />
    </g>
    <g
       id="g1560"
       transform="matrix(2,0,0,2,-310,-10)">
      <path
         d="m 182,38.5 14,14 10,-8 6,6 v 10 h -40 v -12 z"
         style="opacity:0.2;fill:#000000;stroke-width:1"
         id="path1828" />
      <path
         d="m 182,38 14,14 10,-8 6,6 V 60 H 172 V 48 Z"
         style="fill:#ffffff;stroke-width:2"
         id="path1800"
         sodipodi:nodetypes="cccccccc" />
    </g>
  </g>
  <g
     id="g311">
    <path
       d="m 247,14 c -1.108,0 -2,0.892 -2,2 v 1 c 0,-1.108 0.892,-2 2,-2 h 22 c 1.108,0 2,0.892 2,2 v -1 c 0,-1.108 -0.892,-2 -2,-2 z"
       style="opacity:0.2;fill:#ffffff;stroke-width:1"
       id="path1911"
       sodipodi:nodetypes="sscsscsss" />
    <path
       d="m 245,57 c -0.554,0 -1,0.446 -1,1 v 0.5 c 0,-0.554 0.446,-1 1,-1 h 18 c 0.554,0 1,0.446 1,1 V 58 c 0,-0.554 -0.446,-1 -1,-1 z"
       style="opacity:0.2;fill:#ffffff;stroke-width:0.5"
       id="path1939" />
    <path
       d="m 166,96 c -1.108,0 -2,0.892 -2,2 v 1 c 0,-1.108 0.892,-2 2,-2 h 36 c 1.108,0 2,0.892 2,2 v -1 c 0,-1.108 -0.892,-2 -2,-2 z"
       style="opacity:0.2;fill:#ffffff;stroke-width:1"
       id="path1282"
       sodipodi:nodetypes="sscsscsss" />
    <path
       d="m 170,18 c -2.216,0 -4,1.784 -4,4 v 1 c 0,-2.216 1.784,-4 4,-4 h 44 c 2.216,0 4,1.784 4,4 v -1 c 0,-2.216 -1.784,-4 -4,-4 z"
       style="opacity:0.2;fill:#ffffff;stroke-width:2"
       id="path894"
       sodipodi:nodetypes="sscsscsss" />
    <path
       id="path949"
       style="opacity:0.2;fill:#ffffff;stroke-width:4"
       d="m 30,26 c -4.432,0 -8,3.568004 -8,8 v 1 c 0,-4.431996 3.568,-8 8,-8 h 88 c 4.432,0 8,3.568004 8,8 v -1 c 0,-4.431996 -3.568,-8 -8,-8 z" />
  </g>
</svg>
