<?xml version="1.0" encoding="UTF-8" standalone="no"?>
<svg
   width="284"
   height="148"
   version="1.1"
   id="svg5462"
   sodipodi:docname="package-x-generic.svg"
   inkscape:version="1.2.2 (1:1.2.2+202305151914+b0a8486541)"
   xmlns:inkscape="http://www.inkscape.org/namespaces/inkscape"
   xmlns:sodipodi="http://sodipodi.sourceforge.net/DTD/sodipodi-0.dtd"
   xmlns="http://www.w3.org/2000/svg"
   xmlns:svg="http://www.w3.org/2000/svg">
  <defs
     id="defs5466" />
  <sodipodi:namedview
     id="namedview5464"
     pagecolor="#d2d2d2"
     bordercolor="#000000"
     borderopacity="0.25"
     inkscape:showpageshadow="2"
     inkscape:pageopacity="0"
     inkscape:pagecheckerboard="0"
     inkscape:deskcolor="#d2d2d2"
     showgrid="false"
     inkscape:zoom="4.5985915"
     inkscape:cx="142"
     inkscape:cy="73.935681"
     inkscape:window-width="1920"
     inkscape:window-height="1008"
     inkscape:window-x="0"
     inkscape:window-y="0"
     inkscape:window-maximized="1"
     inkscape:current-layer="svg5462"
     showborder="false"
     showguides="false" />
  <g
     id="Baseplate"
     transform="translate(160,10)"
     style="display:none">
    <text
       xml:space="preserve"
       style="font-size:12px;font-family:'Noto Sans';-inkscape-font-specification:'Noto Sans';text-align:end;text-anchor:end;opacity:1;fill:#000000;stroke-width:5;stroke-linecap:round;stroke-linejoin:round"
       x="71.631897"
       y="-0.48000813"
       id="context"
       transform="translate(-160,-10)"><tspan
         sodipodi:role="line"
         id="tspan1976"
         x="71.631897"
         y="-0.48000813"
         style="font-size:12px">mimetypes</tspan></text>
    <text
       xml:space="preserve"
       style="font-size:12px;font-family:'Noto Sans';-inkscape-font-specification:'Noto Sans';text-align:start;text-anchor:start;fill:#000000;stroke-width:5;stroke-linecap:round;stroke-linejoin:round"
       x="-74.127937"
       y="-10.480008"
       id="icon-name"><tspan
         sodipodi:role="line"
         id="tspan1976-6"
         x="-74.127937"
         y="-10.480008"
         style="font-style:normal;font-variant:normal;font-weight:bold;font-stretch:normal;font-size:12px;font-family:'Noto Sans';-inkscape-font-specification:'Noto Sans Bold';text-align:start;text-anchor:start">package-x-generic</tspan></text>
    <rect
       style="opacity:1;fill:#ffffff;stroke-width:5;stroke-linecap:round;stroke-linejoin:round"
       id="128x128"
       width="128"
       height="128"
       x="-150"
       y="0" />
    <rect
       style="opacity:1;fill:#ffffff;stroke-width:5;stroke-linecap:round;stroke-linejoin:round"
       id="64x64"
       width="64"
       height="64"
       x="0"
       y="0" />
    <rect
       style="opacity:1;fill:#ffffff;stroke-width:5;stroke-linecap:round;stroke-linejoin:round"
       id="48x48"
       width="48"
       height="48"
       x="0"
       y="80" />
    <rect
       style="opacity:1;fill:#ffffff;stroke-width:1.66667;stroke-linecap:round;stroke-linejoin:round"
       id="32x32"
       width="32"
       height="32"
       x="82"
       y="0" />
    <rect
       style="opacity:1;fill:#ffffff;stroke-width:5;stroke-linecap:round;stroke-linejoin:round"
       id="24x24"
       width="24"
       height="24"
       x="82"
       y="44" />
    <rect
       style="opacity:1;fill:#ffffff;stroke-width:5;stroke-linecap:round;stroke-linejoin:round"
       id="16x16"
       width="16"
       height="16"
       x="82"
       y="80" />
  </g>
  <g
     id="g2732">
    <rect
       style="opacity:0.2"
       width="20"
       height="20"
       x="244"
       y="56.5"
       rx="2"
       ry="2"
       id="rect310" />
    <rect
       style="opacity:0.2"
       width="28"
       height="28"
       x="244"
       y="13"
       ry="3"
       id="rect750" />
    <rect
       style="opacity:0.2"
       width="40"
       height="40"
       x="164"
       y="95"
       ry="4"
       id="rect750-5" />
    <rect
       style="opacity:0.2;stroke-width:2"
       width="56"
       height="56"
       x="163.99998"
       y="15.000001"
       ry="6"
       id="rect750-7" />
    <rect
       style="opacity:0.2;stroke-width:4"
       width="112"
       height="112"
       x="18"
       y="19"
       ry="12"
       id="rect750-2" />
  </g>
  <g
     id="g2736">
    <rect
       style="fill:#c19f5f;fill-opacity:1"
       id="rect944-0"
       width="16"
       height="16"
       x="242"
       y="90"
       ry="2" />
    <rect
       style="fill:#c19f5f;fill-opacity:1"
       id="rect944-92"
       width="20"
       height="20"
       x="244"
       y="56"
       ry="2" />
    <rect
       style="fill:#c19f5f;fill-opacity:1;stroke-width:1.74999"
       id="rect944"
       width="28"
       height="28"
       x="244"
       y="12"
       ry="3" />
    <rect
       style="fill:#c19f5f;fill-opacity:1;stroke-width:1.74999"
       id="rect944-6"
       width="40"
       height="40"
       x="164"
       y="94"
       ry="4" />
    <rect
       style="fill:#c19f5f;fill-opacity:1;stroke-width:3.49998"
       id="rect944-5"
       width="56"
       height="56"
       x="163.99998"
       y="14.000001"
       ry="6" />
    <rect
       style="fill:#c19f5f;fill-opacity:1;stroke-width:6.99996"
       id="rect944-9"
       width="112"
       height="112"
       x="18"
       y="18"
       ry="12" />
  </g>
  <g
     id="g2792">
    <g
       id="g3792"
       transform="translate(242,90)">
      <rect
         style="opacity:0.2"
         width="4"
         height="7"
         x="6"
         y="0"
         id="rect4" />
      <rect
         style="fill:#ffffff"
         width="1"
         height="1"
         x="-9"
         y="4"
         transform="scale(-1,1)"
         id="rect6" />
      <path
         style="fill:#4b4b4b"
         d="m 8,4 c 1.5,0 1.5,2 2,2 V 8.5 C 10,8.777 9.777,9 9.5,9 h -3 C 6.223,9 6,8.777 6,8.5 V 6 C 6.5,6 6.5,4 8,4 Z"
         id="path8" />
      <path
         style="fill:#ffffff"
         d="M 8,6 C 6.895,6 6,6.9 6,8 v 4 c 0,1.1 0.895,2 2,2 1.105,0 2,-0.9 2,-2 V 8 C 10,6.9 9.105,6 8,6 Z m 0,5 a 1,1 0 0 1 1,1 1,1 0 0 1 -1,1 1,1 0 0 1 -1,-1 1,1 0 0 1 1,-1 z"
         id="path10" />
      <path
         style="fill:#909090"
         d="M 7.992188,5.000061 A 0.50005,0.49772427 0 0 0 7.5,5.50454 v 1.990698 a 0.50005,0.49772427 0 1 0 1,0 V 5.50454 A 0.50005,0.49772427 0 0 0 7.992188,5.000061 Z"
         id="path12" />
      <rect
         style="fill:#ffffff"
         width="1"
         height="1"
         x="-8"
         y="3"
         transform="scale(-1,1)"
         id="rect14" />
      <rect
         style="fill:#ffffff"
         width="1"
         height="1"
         x="-9"
         y="2"
         transform="scale(-1,1)"
         id="rect16" />
      <rect
         style="fill:#ffffff"
         width="1"
         height="1"
         x="-8"
         y="1"
         transform="scale(-1,1)"
         id="rect18" />
      <rect
         style="fill:#ffffff"
         width="1"
         height="1"
         x="-9"
         y="0"
         transform="scale(-1,1)"
         id="rect20" />
    </g>
    <g
       id="g3636">
      <rect
         style="opacity:0.2"
         width="4"
         height="9.5"
         x="252"
         y="56"
         id="rect314" />
      <rect
         style="fill:#ffffff"
         width="1"
         height="1"
         x="253"
         y="63"
         id="rect318" />
      <path
         style="fill:#4b4b4b"
         d="m 254,63 c 1.5,0 1.5,2 2,2 v 2.5 c 0,0.277 -0.223,0.5 -0.5,0.5 h -3 C 252.223,68 252,67.777 252,67.5 V 65 c 0.5,0 0.5,-2 2,-2 z"
         id="path320" />
      <rect
         style="fill:#ffffff"
         width="1"
         height="1"
         x="254"
         y="62"
         id="rect322" />
      <rect
         style="fill:#ffffff"
         width="1"
         height="1"
         x="253"
         y="61"
         id="rect324" />
      <rect
         style="fill:#ffffff"
         width="1"
         height="1"
         x="254"
         y="60"
         id="rect326" />
      <rect
         style="fill:#ffffff"
         width="1"
         height="1"
         x="253"
         y="59"
         id="rect328" />
      <rect
         style="fill:#ffffff"
         width="1"
         height="1"
         x="254"
         y="58"
         id="rect330" />
      <rect
         style="fill:#ffffff"
         width="1"
         height="1"
         x="253"
         y="57"
         id="rect332" />
      <rect
         style="fill:#ffffff"
         width="1"
         height="1"
         x="254"
         y="56"
         id="rect334" />
      <path
         style="opacity:0.2"
         d="m 254,65.5 c -1.105,0 -2,0.9 -2,2 v 4 c 0,1.1 0.895,2 2,2 1.105,0 2,-0.9 2,-2 v -4 c 0,-1.1 -0.895,-2 -2,-2 z m 0,5 a 1,1 0 0 1 1,1 1,1 0 0 1 -1,1 1,1 0 0 1 -1,-1 1,1 0 0 1 1,-1 z"
         id="path336" />
      <path
         style="fill:#ffffff"
         d="m 254,65 c -1.105,0 -2,0.9 -2,2 v 4 c 0,1.1 0.895,2 2,2 1.105,0 2,-0.9 2,-2 v -4 c 0,-1.1 -0.895,-2 -2,-2 z m 0,5 a 1,1 0 0 1 1,1 1,1 0 0 1 -1,1 1,1 0 0 1 -1,-1 1,1 0 0 1 1,-1 z"
         id="path338" />
      <path
         style="fill:#909090"
         d="M 253.99219,64.000061 A 0.50005,0.49772427 0 0 0 253.5,64.50454 v 1.990698 a 0.50005,0.49772427 0 1 0 1,0 V 64.50454 a 0.50005,0.49772427 0 0 0 -0.50781,-0.504479 z"
         id="path340" />
    </g>
    <g
       id="g2764">
      <rect
         style="opacity:0.2"
         width="6"
         height="13.3"
         x="255"
         y="12"
         id="rect754" />
      <rect
         style="fill:#ffffff"
         width="2"
         height="2"
         x="258"
         y="20"
         id="rect756" />
      <rect
         style="fill:#ffffff"
         width="2"
         height="2"
         x="256"
         y="22"
         id="rect758" />
      <path
         style="fill:#4b4b4b"
         d="m 258,22.000001 c 2.25,0 2.25,2.8 3,2.8 v 3.5 c 0,0.3878 -0.3345,0.7 -0.75,0.7 h -4.5 c -0.4155,0 -0.75,-0.3122 -0.75,-0.7 v -3.5 c 0.75,0 0.75,-2.8 3,-2.8 z"
         id="path760" />
      <rect
         style="fill:#ffffff"
         width="2"
         height="2"
         x="258"
         y="12"
         id="rect762" />
      <path
         style="opacity:0.2"
         d="m 257.80078,26.000001 c -1.5512,0 -2.80078,1.249581 -2.80078,2.800781 v 5.398438 c 0,1.5512 1.24958,2.800781 2.80078,2.800781 h 0.39844 c 1.5512,0 2.80078,-1.249581 2.80078,-2.800781 v -5.398438 c 0,-1.5512 -1.24958,-2.800781 -2.80078,-2.800781 z m 0.19922,6 a 2,2 0 0 1 2,2 2,2 0 0 1 -2,2 2,2 0 0 1 -2,-2 2,2 0 0 1 2,-2 z"
         id="path764" />
      <path
         style="fill:#ffffff"
         d="m 257.80078,25.000001 c -1.5512,0 -2.80078,1.249581 -2.80078,2.800781 v 5.398438 c 0,1.5512 1.24958,2.800781 2.80078,2.800781 h 0.39844 c 1.5512,0 2.80078,-1.249581 2.80078,-2.800781 v -5.398438 c 0,-1.5512 -1.24958,-2.800781 -2.80078,-2.800781 z m 0.19922,6 a 2,2 0 0 1 2,2 2,2 0 0 1 -2,2 2,2 0 0 1 -2,-2 2,2 0 0 1 2,-2 z"
         id="path766" />
      <path
         style="fill:#909090"
         d="m 257.98438,23.000101 a 1,0.82954037 0 0 0 -0.98428,0.840798 v 3.31783 a 1,0.82954037 0 1 0 1.9998,0 v -3.31783 a 1,0.82954037 0 0 0 -1.01552,-0.840798 z"
         id="path768" />
      <rect
         style="fill:#ffffff"
         width="2"
         height="2"
         x="256"
         y="14"
         id="rect770" />
      <rect
         style="fill:#ffffff"
         width="2"
         height="2"
         x="258"
         y="16"
         id="rect772" />
      <rect
         style="fill:#ffffff"
         width="2"
         height="2"
         x="256"
         y="18"
         id="rect774" />
    </g>
    <g
       id="g3066">
      <rect
         style="opacity:0.2"
         width="8"
         height="19"
         x="180"
         y="94"
         id="rect2051" />
      <rect
         style="fill:#ffffff"
         width="2"
         height="2"
         x="182"
         y="108"
         id="rect2055" />
      <path
         style="fill:#4b4b4b"
         d="m 184,108 c 3,0 3,4 4,4 v 5 c 0,0.554 -0.446,1 -1,1 h -6 c -0.554,0 -1,-0.446 -1,-1 v -5 c 1,0 1,-4 4,-4 z"
         id="path2057" />
      <rect
         style="fill:#ffffff"
         width="2"
         height="2"
         x="184"
         y="106"
         id="rect2059" />
      <rect
         style="fill:#ffffff"
         width="2"
         height="2"
         x="182"
         y="104"
         id="rect2061" />
      <rect
         style="fill:#ffffff"
         width="2"
         height="2"
         x="184"
         y="102"
         id="rect2063" />
      <rect
         style="fill:#ffffff"
         width="2"
         height="2"
         x="182"
         y="100"
         id="rect2065" />
      <rect
         style="fill:#ffffff"
         width="2"
         height="2"
         x="184"
         y="98"
         id="rect2067" />
      <rect
         style="fill:#ffffff"
         width="2"
         height="2"
         x="182"
         y="96"
         id="rect2069" />
      <rect
         style="fill:#ffffff"
         width="2"
         height="2"
         x="184"
         y="94"
         id="rect2071" />
      <path
         style="opacity:0.2"
         d="M 183.73437,114 C 181.66611,114 180,115.65963 180,117.71875 v 7.5625 c 0,2.05911 1.66611,3.71875 3.73437,3.71875 h 0.53125 C 186.33389,129 188,127.34036 188,125.28125 v -7.5625 C 188,115.65963 186.33389,114 184.26562,114 Z M 184,122 c 1.65685,0 3,1.34515 3,3.00195 0,1.6568 -1.34315,2.99805 -3,2.99805 -1.65685,0 -3,-1.34125 -3,-2.99805 C 181,123.34514 182.34315,122 184,122 Z"
         id="path2073" />
      <path
         style="fill:#ffffff"
         d="M 183.73437,113 C 181.66611,113 180,114.65963 180,116.71875 v 7.5625 c 0,2.05911 1.66611,3.71875 3.73437,3.71875 h 0.53125 C 186.33389,128 188,126.34036 188,124.28125 v -7.5625 C 188,114.65963 186.33389,113 184.26562,113 Z M 184,121 c 1.65685,0 3,1.34515 3,3.00195 0,1.6568 -1.34315,2.99805 -3,2.99805 -1.65685,0 -3,-1.34125 -3,-2.99805 C 181,122.34514 182.34315,121 184,121 Z"
         id="path2075" />
      <path
         style="fill:#909090"
         d="M 183.98437,110.00012 A 1.0001,0.99544853 0 0 0 183,111.00908 v 3.98139 a 1.0001,0.99544853 0 1 0 2,0 v -3.98139 a 1.0001,0.99544853 0 0 0 -1.01563,-1.00896 z"
         id="path2077" />
    </g>
    <g
       id="g2751">
      <rect
         style="opacity:0.2"
         width="10"
         height="27"
         x="186.99998"
         y="14.000001"
         id="rect1593" />
      <rect
         style="fill:#ffffff"
         width="3"
         height="3"
         x="191.99998"
         y="14.000001"
         id="rect1595" />
      <rect
         style="fill:#ffffff"
         width="3"
         height="3"
         x="188.99998"
         y="35"
         id="rect1597" />
      <path
         style="fill:#4b4b4b"
         d="m 192,35 c 3.75,0 3.75,5.6 5,5.6 v 7 c 0,0.7756 -0.5575,1.4 -1.25,1.4 h -7.5 C 187.5575,49 187,48.3756 187,47.6 v -7 c 1.25,0 1.25,-5.6 5,-5.6 z"
         id="path1599" />
      <path
         style="opacity:0.2"
         d="M 191.66797,42 C 189.08264,42 187,44.102725 187,46.710938 v 9.578124 C 187,58.897276 189.08264,61 191.66797,61 h 0.66406 C 194.91736,61 197,58.897277 197,56.289062 V 46.710938 C 197,44.102725 194.91736,42 192.33203,42 Z M 192,52 c 2.20914,4e-6 4,1.792881 4,4.001953 C 196,58.211026 194.20914,60 192,60 c -2.20914,0 -4,-1.788974 -4,-3.998047 0,-2.209072 1.79086,-4.001949 4,-4.001953 z"
         id="path1601" />
      <path
         style="fill:#ffffff"
         d="M 191.66797,41 C 189.08264,41 187,43.102725 187,45.710938 v 9.578124 C 187,57.897276 189.08264,60 191.66797,60 h 0.66406 C 194.91736,60 197,57.897277 197,55.289062 V 45.710938 C 197,43.102725 194.91736,41 192.33203,41 Z M 192,51 c 2.20914,4e-6 4,1.792881 4,4.001953 C 196,57.211026 194.20914,59 192,59 c -2.20914,0 -4,-1.788974 -4,-3.998047 0,-2.209072 1.79086,-4.001949 4,-4.001953 z"
         id="path1603" />
      <path
         style="fill:#909090"
         d="M 191.98437,37.000122 A 1.0001,0.99660733 0 0 0 191,38.010254 V 43.9893 a 1.0001,0.99660733 0 1 0 2,0 v -5.979046 a 1.0001,0.99660733 0 0 0 -1.01563,-1.010132 z"
         id="path1605" />
      <rect
         style="fill:#ffffff"
         width="3"
         height="3"
         x="188.99998"
         y="17"
         id="rect1607" />
      <rect
         style="fill:#ffffff"
         width="3"
         height="3"
         x="191.99998"
         y="20.000002"
         id="rect1609" />
      <rect
         style="fill:#ffffff"
         width="3"
         height="3"
         x="188.99998"
         y="23.000002"
         id="rect1611" />
      <rect
         style="fill:#ffffff"
         width="3"
         height="3"
         x="191.99998"
         y="26.000002"
         id="rect1613" />
      <rect
         style="fill:#ffffff"
         width="3"
         height="3"
         x="188.99998"
         y="29.000002"
         id="rect1615" />
      <rect
         style="fill:#ffffff"
         width="3"
         height="3"
         x="191.99998"
         y="32"
         id="rect1617" />
    </g>
    <g
       id="g3351">
      <rect
         style="opacity:0.2;stroke-width:2"
         width="20"
         height="54"
         x="64"
         y="18"
         id="rect1593-1" />
      <rect
         style="fill:#ffffff;stroke-width:2"
         width="6"
         height="6"
         x="74"
         y="18"
         id="rect1595-2" />
      <rect
         style="fill:#ffffff;stroke-width:2"
         width="6"
         height="6"
         x="68"
         y="60"
         id="rect1597-7" />
      <path
         style="fill:#4b4b4b;stroke-width:2"
         d="m 74.000001,60.000001 c 7.5,0 7.5,11.2 10,11.2 v 14 c 0,1.5512 -1.115,2.8 -2.5,2.8 h -15 c -1.385,0 -2.5,-1.2488 -2.5,-2.8 v -14 c 2.5,0 2.5,-11.2 10,-11.2 z"
         id="path1599-0" />
      <path
         style="opacity:0.2;stroke-width:2"
         d="m 73.335939,72.000001 c -5.170666,0 -9.335938,4.20545 -9.335938,9.421876 v 19.156243 c 0,5.21643 4.165272,9.42188 9.335938,9.42188 h 1.328124 c 5.170666,0 9.335938,-4.20545 9.335938,-9.42188 V 81.421877 c 0,-5.216426 -4.165272,-9.421876 -9.335938,-9.421876 z m 0.664062,20 c 4.418278,8e-6 8,3.585763 8,8.003899 0,4.41815 -3.581722,7.9961 -8,7.9961 -4.418278,0 -8,-3.57795 -8,-7.9961 0,-4.418136 3.581722,-8.003891 8,-8.003899 z"
         id="path1601-9" />
      <path
         style="fill:#ffffff;stroke-width:2"
         d="m 73.335939,71.000001 c -5.170666,0 -9.335938,4.20545 -9.335938,9.421876 v 19.156247 c 0,5.216426 4.165272,9.421876 9.335938,9.421876 h 1.328124 c 5.170666,0 9.335938,-4.20545 9.335938,-9.421876 V 80.421877 c 0,-5.216426 -4.165272,-9.421876 -9.335938,-9.421876 z m 0.664062,20 c 4.418278,8e-6 8,3.585762 8,8.003903 0,4.418146 -3.581722,7.996096 -8,7.996096 -4.418278,0 -8,-3.57795 -8,-7.996096 0,-4.418141 3.581722,-8.003895 8,-8.003903 z"
         id="path1603-3" />
      <path
         style="fill:#909090;stroke-width:2"
         d="m 73.968751,64.000245 a 2.0002,1.9932147 0 0 0 -1.96875,2.020264 v 11.958092 a 2.0002,1.9932147 0 1 0 4,0 V 66.020509 a 2.0002,1.9932147 0 0 0 -2.03125,-2.020264 z"
         id="path1605-6" />
      <rect
         style="fill:#ffffff;stroke-width:2"
         width="6"
         height="6"
         x="68"
         y="24"
         id="rect1607-0" />
      <rect
         style="fill:#ffffff;stroke-width:2"
         width="6"
         height="6"
         x="74"
         y="30.000002"
         id="rect1609-6" />
      <rect
         style="fill:#ffffff;stroke-width:2"
         width="6"
         height="6"
         x="68"
         y="36"
         id="rect1611-2" />
      <rect
         style="fill:#ffffff;stroke-width:2"
         width="6"
         height="6"
         x="74"
         y="42"
         id="rect1613-6" />
      <rect
         style="fill:#ffffff;stroke-width:2"
         width="6"
         height="6"
         x="68"
         y="48"
         id="rect1615-1" />
      <rect
         style="fill:#ffffff;stroke-width:2"
         width="6"
         height="6"
         x="74"
         y="54"
         id="rect1617-8" />
    </g>
  </g>
  <g
     id="g2796">
    <path
       style="opacity:0.2;fill:#ffffff"
       d="m 246,56 c -1.108,0 -2,0.892 -2,2 v 0.5 c 0,-1.108 0.892,-2 2,-2 h 16 c 1.108,0 2,0.892 2,2 V 58 c 0,-1.108 -0.892,-2 -2,-2 z"
       id="path316" />
    <path
       id="rect914"
       style="opacity:0.2;fill:#ffffff"
       d="m 247,12.000001 c -1.662,0 -3,1.338002 -3,3 v 1 c 0,-1.661998 1.338,-3 3,-3 h 22 c 1.662,0 3,1.338002 3,3 v -1 c 0,-1.661998 -1.338,-3 -3,-3 z" />
    <path
       style="opacity:0.2;fill:#ffffff"
       d="m 168,93.999997 c -2.216,0 -4,1.784 -4,4 v 1 c 0,-2.216 1.784,-4 4,-4 h 32 c 2.216,0 4,1.784 4,4 v -1 c 0,-2.216 -1.784,-4 -4,-4 z"
       id="path2053" />
    <path
       id="rect914-3"
       style="opacity:0.2;fill:#ffffff;stroke-width:2"
       d="m 170,14 c -3.324,0 -6,2.676003 -6,6 v 1 c 0,-3.323997 2.676,-6 6,-6 h 44 c 3.324,0 6,2.676003 6,6 v -1 c 0,-3.323997 -2.676,-6 -6,-6 z"
       sodipodi:nodetypes="sscsscsss" />
    <path
       id="rect914-7"
       style="opacity:0.2;fill:#ffffff;stroke-width:4"
       d="m 30.000001,18.000001 c -6.647993,0 -12,5.352007 -12,12 v 1 c 0,-6.647993 5.352007,-12 12,-12 h 87.999989 c 6.64799,0 12,5.352007 12,12 v -1 c 0,-6.647993 -5.35201,-12 -12,-12 z"
       sodipodi:nodetypes="sscsscsss" />
  </g>
</svg>
