<?xml version="1.0" encoding="UTF-8" standalone="no"?>
<svg
   width="284"
   height="148"
   version="1.1"
   id="svg5462"
   sodipodi:docname="text-x-vala.svg"
   inkscape:version="1.2.2 (1:1.2.2+202305151914+b0a8486541)"
   xmlns:inkscape="http://www.inkscape.org/namespaces/inkscape"
   xmlns:sodipodi="http://sodipodi.sourceforge.net/DTD/sodipodi-0.dtd"
   xmlns="http://www.w3.org/2000/svg"
   xmlns:svg="http://www.w3.org/2000/svg">
  <defs
     id="defs5466" />
  <sodipodi:namedview
     id="namedview5464"
     pagecolor="#d2d2d2"
     bordercolor="#000000"
     borderopacity="0.25"
     inkscape:showpageshadow="2"
     inkscape:pageopacity="0"
     inkscape:pagecheckerboard="0"
     inkscape:deskcolor="#d2d2d2"
     showgrid="false"
     inkscape:zoom="4.5985915"
     inkscape:cx="142"
     inkscape:cy="73.935681"
     inkscape:window-width="1920"
     inkscape:window-height="1008"
     inkscape:window-x="0"
     inkscape:window-y="0"
     inkscape:window-maximized="1"
     inkscape:current-layer="svg5462"
     showborder="false"
     showguides="true" />
  <g
     id="Baseplate"
     transform="translate(160,10)"
     style="display:none">
    <text
       xml:space="preserve"
       style="font-size:12px;font-family:'Noto Sans';-inkscape-font-specification:'Noto Sans';text-align:end;text-anchor:end;opacity:1;fill:#000000;stroke-width:5;stroke-linecap:round;stroke-linejoin:round"
       x="71.631897"
       y="-0.48000813"
       id="context"
       transform="translate(-160,-10)"><tspan
         sodipodi:role="line"
         id="tspan1976"
         x="71.631897"
         y="-0.48000813"
         style="font-size:12px">mimetypes</tspan></text>
    <text
       xml:space="preserve"
       style="font-size:12px;font-family:'Noto Sans';-inkscape-font-specification:'Noto Sans';text-align:start;text-anchor:start;fill:#000000;stroke-width:5;stroke-linecap:round;stroke-linejoin:round"
       x="-74.127937"
       y="-10.480008"
       id="icon-name"><tspan
         sodipodi:role="line"
         id="tspan1976-6"
         x="-74.127937"
         y="-10.480008"
         style="font-style:normal;font-variant:normal;font-weight:bold;font-stretch:normal;font-size:12px;font-family:'Noto Sans';-inkscape-font-specification:'Noto Sans Bold';text-align:start;text-anchor:start">text-x-vala</tspan></text>
    <rect
       style="opacity:1;fill:#ffffff;stroke-width:5;stroke-linecap:round;stroke-linejoin:round"
       id="128x128"
       width="128"
       height="128"
       x="-150"
       y="0" />
    <rect
       style="opacity:1;fill:#ffffff;stroke-width:5;stroke-linecap:round;stroke-linejoin:round"
       id="64x64"
       width="64"
       height="64"
       x="0"
       y="0" />
    <rect
       style="opacity:1;fill:#ffffff;stroke-width:5;stroke-linecap:round;stroke-linejoin:round"
       id="48x48"
       width="48"
       height="48"
       x="0"
       y="80" />
    <rect
       style="opacity:1;fill:#ffffff;stroke-width:1.66667;stroke-linecap:round;stroke-linejoin:round"
       id="32x32"
       width="32"
       height="32"
       x="82"
       y="0" />
    <rect
       style="opacity:1;fill:#ffffff;stroke-width:5;stroke-linecap:round;stroke-linejoin:round"
       id="24x24"
       width="24"
       height="24"
       x="82"
       y="44" />
    <rect
       style="opacity:1;fill:#ffffff;stroke-width:5;stroke-linecap:round;stroke-linejoin:round"
       id="16x16"
       width="16"
       height="16"
       x="82"
       y="80" />
  </g>
  <g
     id="g1767">
    <path
       d="m 247,56.5 c -0.554,0 -1,0.446 -1,1 v 18 c 0,0.554 0.446,1 1,1 h 14 c 0.554,0 1,-0.446 1,-1 v -13 L 256.5,62 256,56.5 Z"
       style="opacity:0.2;fill:#000000"
       id="path3101" />
    <path
       d="M 248.375,13 C 247.61325,13 247,13.6244 247,14.4 v 25.2 c 0,0.77504 0.61325,1.4 1.375,1.4 h 19.25 C 268.3862,41 269,40.37504 269,39.6 V 22 l -7,-2 -2,-7 z"
       style="opacity:0.2;fill:#000000"
       id="path1417" />
    <path
       d="m 170,95 c -1.108,0 -2,0.892 -2,2 v 36 c 0,1.108 0.892,2 2,2 h 28 c 1.108,0 2,-0.892 2,-2 v -26 l -11,-1 -1,-11 z"
       style="opacity:0.2;fill:#000000"
       id="path1626" />
    <path
       style="opacity:0.2;fill:#000000"
       d="m 172.75,15 c -1.5235,0 -2.75,1.2488 -2.75,2.8 v 50.4 c 0,1.55008 1.2265,2.8 2.75,2.8 h 38.5 c 1.5224,0 2.75,-1.24992 2.75,-2.8 V 33 l -14,-4 -4,-14 z"
       id="path5450" />
    <path
       d="m 35.499997,19 c -3.047,0 -5.5,2.4976 -5.5,5.6 v 100.8 c 0,3.10017 2.453,5.6 5.5,5.6 H 112.5 c 3.0448,0 5.5,-2.49984 5.5,-5.6 V 50.999999 l -24,-8 L 86,19 Z"
       style="fill:#000000;stroke-width:2;opacity:0.2"
       id="path1820" />
  </g>
  <g
     id="g1733">
    <path
       d="M 248.375,12 C 247.61325,12 247,12.6244 247,13.4 v 25.2 c 0,0.77504 0.61325,1.4 1.375,1.4 h 19.25 C 268.3862,40 269,39.37504 269,38.6 V 20 l -6,-2 -2,-6 z"
       style="fill:#e4e4e4;fill-opacity:1"
       id="path1333"
       sodipodi:nodetypes="sssssscccs" />
    <path
       d="m 247,56 c -0.554,0 -1,0.446 -1,1 v 18 c 0,0.554 0.446,1 1,1 h 14 c 0.554,0 1,-0.446 1,-1 V 62 L 256.5,61.5 256,56 Z"
       style="fill:#e4e4e4"
       id="path3073"
       sodipodi:nodetypes="sssssscccs" />
    <path
       d="m 244.75,91 c -0.4172,0 -0.75,0.3328 -0.75,0.75 v 13.5 c 0,0.417 0.3328,0.75 0.75,0.75 h 10.5 c 0.418,0 0.75,-0.332 0.75,-0.75 V 94.9995 L 252.8755,94.1245 252.0005,91 Z"
       style="fill:#e4e4e4"
       id="path3473"
       sodipodi:nodetypes="sssssscccs" />
    <path
       d="m 170,94 c -1.108,0 -2,0.892 -2,2 v 36 c 0,1.108 0.892,2 2,2 h 28 c 1.108,0 2,-0.892 2,-2 v -26 l -11,-1 -1,-11 z"
       style="fill:#e4e4e4;fill-opacity:1"
       id="path1598" />
    <path
       style="fill:#e4e4e4;fill-opacity:1"
       d="m 172.75,14 c -1.5235,0 -2.75,1.2488 -2.75,2.8 v 50.4 c 0,1.55008 1.2265,2.8 2.75,2.8 h 38.5 c 1.5224,0 2.75,-1.24992 2.75,-2.8 V 30 l -12,-4 -4,-12 z"
       id="path5452"
       sodipodi:nodetypes="sssssscccs" />
    <path
       d="M 35.5,18 C 32.453,18 30,20.4976 30,23.6 v 100.8 c 0,3.10016 2.453,5.6 5.5,5.6 h 77 c 3.0448,0 5.5,-2.49984 5.5,-5.6 V 49.999999 l -24,-8 L 86,18 Z"
       style="fill:#e4e4e4;stroke-width:2;fill-opacity:1"
       id="path1792"
       sodipodi:nodetypes="sssssscccs" />
  </g>
  <g
     id="g518">
    <path
       d="m 249.00022,105.0002 -2.3e-4,-7.199754 c -0.4963,0.18745 -0.71993,0.39419 -0.9989,0.79341 -0.27586,0.39937 -0.41379,1.09578 -0.41379,1.689494 0,0.13538 0.007,0.24651 0.0208,0.33342 0.0171,0.0833 0.0343,0.15098 0.0516,0.20305 0.0173,0.0486 0.0328,0.0868 0.0467,0.11459 0.0171,0.0278 0.0257,0.0521 0.0257,0.0729 -0.18261,0 -0.34452,-0.0173 -0.48572,-0.052 -0.14135,-0.0383 -0.26029,-0.0973 -0.35681,-0.17717 -0.0931,-0.0797 -0.16548,-0.18557 -0.21717,-0.31765 -0.0483,-0.13177 -0.0724,-0.2949 -0.0724,-0.489404 0,-0.23608 0.0499,-0.66857 0.14968,-0.89774 0.10337,-0.22902 0.24294,-0.44604 0.4187,-0.65106 0.17918,-0.20471 0.38771,-0.39389 0.62559,-0.56753 0.2413,-0.17365 0.49801,-0.32298 0.77013,-0.448 0.27555,-0.12847 0.56153,-0.22737 0.85794,-0.29671 0.29984,-0.0731 0.59796,-0.10964 0.89437,-0.10964 0.11154,-0.0141 0.27508,0.0201 0.28359,0.0207 v 6.562344 l 2.46092,-6.531284 H 253.8 l -2.9409,7.948234 H 249 Z"
       style="fill:#634d9f;fill-opacity:1"
       id="path3785" />
    <g
       id="g6543">
      <path
         d="M 252.0003,74.499976 252,65.500271 c -0.62037,0.234314 -0.89991,0.492745 -1.24862,0.991764 -0.34483,0.499216 -0.51724,1.369727 -0.51724,2.111883 0,0.169216 0.009,0.308138 0.026,0.416765 0.0214,0.104117 0.0429,0.188725 0.0645,0.253823 0.0216,0.06079 0.0411,0.10853 0.0584,0.143236 0.0214,0.0347 0.0321,0.0651 0.0321,0.09118 -0.22826,0 -0.43064,-0.02167 -0.60714,-0.065 -0.1767,-0.04785 -0.32537,-0.12167 -0.44602,-0.221474 -0.11637,-0.09961 -0.20685,-0.231961 -0.27146,-0.397059 -0.0603,-0.164706 -0.0905,-0.368628 -0.0905,-0.611765 0,-0.295098 0.0624,-0.835707 0.1871,-1.122177 0.12922,-0.286274 0.30367,-0.55755 0.52337,-0.813824 0.22398,-0.255883 0.48465,-0.492353 0.78199,-0.709412 0.30162,-0.217058 0.62251,-0.403725 0.96267,-0.56 0.34444,-0.160588 0.70191,-0.284216 1.07242,-0.370882 0.3748,-0.09137 0.74745,-0.137059 1.11796,-0.137059 0.13942,-0.01766 0.34386,0.0251 0.35449,0.02588 v 8.202941 l 3.07615,-8.164117 h 0.92385 l -3.67612,9.935297 h -2.32388 z"
         style="opacity:0.2;fill:#000000;fill-opacity:1"
         id="path3465" />
      <path
         d="M 252.0003,73.999975 252,65.00027 c -0.62037,0.234314 -0.89991,0.492745 -1.24862,0.991764 -0.34483,0.499216 -0.51724,1.369727 -0.51724,2.111883 0,0.169216 0.009,0.308138 0.026,0.416765 0.0214,0.104117 0.0429,0.188725 0.0645,0.253823 0.0216,0.06079 0.0411,0.10853 0.0584,0.143236 0.0214,0.0347 0.0321,0.0651 0.0321,0.09118 -0.22826,0 -0.43064,-0.02167 -0.60714,-0.065 -0.1767,-0.04785 -0.32537,-0.12167 -0.44602,-0.221474 -0.11637,-0.09961 -0.20685,-0.231961 -0.27146,-0.397059 -0.0603,-0.164706 -0.0905,-0.368628 -0.0905,-0.611765 0,-0.295098 0.0624,-0.835707 0.1871,-1.122177 0.12922,-0.286274 0.30367,-0.55755 0.52337,-0.813824 0.22398,-0.255883 0.48465,-0.492353 0.78199,-0.709412 0.30162,-0.217058 0.62251,-0.403725 0.96267,-0.56 0.34444,-0.160588 0.70191,-0.284216 1.07242,-0.370882 0.3748,-0.09137 0.74745,-0.137059 1.11796,-0.137059 0.13942,-0.01766 0.34386,0.0251 0.35449,0.02588 v 8.202941 l 3.07615,-8.164117 h 0.92385 l -3.67612,9.935297 h -2.32388 z"
         style="fill:#634d9f;fill-opacity:1"
         id="path2949"
         sodipodi:nodetypes="cccscccccccsccccccccccccc" />
    </g>
    <g
       id="g6345">
      <path
         d="m 255.99905,37.999588 -4.1e-4,-12.594209 c -0.86815,0.327899 -1.2368,0.644441 -1.7229,1.344094 -0.48445,0.697285 -0.54869,1.960581 -0.54869,2.999157 0,0.236801 0.0121,0.431208 0.0363,0.583222 0.03,0.145702 0.06,0.264102 0.0903,0.355201 0.0302,0.08506 0.0575,0.151876 0.0817,0.200443 0.03,0.04857 0.0449,0.0911 0.0449,0.127593 -0.31943,0 -0.60264,-0.03032 -0.84964,-0.09096 -0.24725,-0.06695 -0.4553,-0.17026 -0.62414,-0.309927 -0.16284,-0.139392 -0.28947,-0.324607 -0.37988,-0.555646 -0.0844,-0.230489 -0.12663,-0.515857 -0.12663,-0.856105 0,-0.412961 0.11482,-1.158593 0.26183,-1.570377 0.63621,-1.781952 2.80005,-2.9294 4.47507,-3.434299 0.51688,-0.155801 1.04598,-0.1918 1.56447,-0.1918 0.19511,-0.02471 0.4812,0.03514 0.49608,0.03622 v 11.479211 l 4.30477,-11.424886 h 1.29284 L 259.25064,38 h -3.25204 z"
         style="opacity:0.2;fill:#000000;fill-opacity:1"
         id="path6255" />
      <path
         d="m 255.99905,36.999588 -4.1e-4,-12.594209 c -0.86815,0.327899 -1.2368,0.644441 -1.7229,1.344094 -0.48445,0.697285 -0.54869,1.960581 -0.54869,2.999157 0,0.236801 0.0121,0.431208 0.0363,0.583222 0.03,0.145702 0.06,0.264102 0.0903,0.355201 0.0302,0.08506 0.0575,0.151876 0.0817,0.200443 0.03,0.04857 0.0449,0.0911 0.0449,0.127593 -0.31943,0 -0.60264,-0.03032 -0.84964,-0.09096 -0.24725,-0.06695 -0.4553,-0.17026 -0.62414,-0.309927 -0.16284,-0.139392 -0.28947,-0.324607 -0.37988,-0.555646 -0.0844,-0.230489 -0.12663,-0.515857 -0.12663,-0.856105 0,-0.412961 0.11482,-1.158593 0.26183,-1.570377 0.63621,-1.781952 2.80005,-2.9294 4.47507,-3.434299 0.51688,-0.155801 1.04598,-0.1918 1.56447,-0.1918 0.19511,-0.02471 0.4812,0.03514 0.49608,0.03622 v 11.479211 l 4.30477,-11.424886 h 1.29284 L 259.25064,37 h -3.25204 z"
         style="fill:#634d9f;fill-opacity:1"
         id="path6283" />
    </g>
    <g
       id="g607">
      <path
         d="M 181.00058,130.99895 181,112.99954 c -1.24075,0.46863 -1.79982,0.98549 -2.49725,1.98353 -0.68966,0.99843 -1.03448,2.73945 -1.03448,4.22376 0,0.33844 0.0173,0.61628 0.052,0.83353 0.0428,0.20824 0.0858,0.37745 0.12902,0.50765 0.0432,0.12157 0.0821,0.21706 0.11675,0.28647 0.0428,0.0694 0.0642,0.1302 0.0642,0.18235 -0.45652,0 -0.86128,-0.0433 -1.21428,-0.13 -0.35339,-0.0957 -0.65073,-0.24333 -0.89203,-0.44294 -0.23274,-0.19921 -0.41371,-0.46392 -0.54293,-0.79411 -0.12064,-0.32942 -0.18097,-0.73726 -0.18097,-1.22353 0,-0.5902 0.12474,-1.67142 0.37421,-2.24436 0.25842,-0.57255 0.60734,-1.1151 1.04673,-1.62765 0.44797,-0.51176 0.96929,-0.9847 1.56398,-1.41882 0.60325,-0.43412 1.24503,-0.80745 1.92534,-1.12 0.68887,-0.32118 1.40382,-0.56843 2.14484,-0.74176 0.74959,-0.18275 1.49489,-0.27412 2.23592,-0.27412 0.27884,-0.0353 0.68772,0.0502 0.70898,0.0518 v 16.40588 l 6.1523,-16.32823 h 1.84771 l -7.35226,19.87059 h -4.64775 z"
         style="opacity:0.2;fill:#000000"
         id="path376" />
      <path
         d="M 181.00058,129.99895 181,111.99954 c -1.24075,0.46863 -1.79982,0.98549 -2.49725,1.98353 -0.68966,0.99843 -1.03448,2.73945 -1.03448,4.22376 0,0.33844 0.0173,0.61628 0.052,0.83353 0.0428,0.20824 0.0858,0.37745 0.12902,0.50765 0.0432,0.12157 0.0821,0.21706 0.11675,0.28647 0.0428,0.0694 0.0642,0.1302 0.0642,0.18235 -0.45652,0 -0.86128,-0.0433 -1.21428,-0.13 -0.35339,-0.0957 -0.65073,-0.24333 -0.89203,-0.44294 -0.23274,-0.19921 -0.41371,-0.46392 -0.54293,-0.79411 -0.12064,-0.32942 -0.18097,-0.73726 -0.18097,-1.22353 0,-0.5902 0.12474,-1.67142 0.37421,-2.24436 0.25842,-0.57255 0.60734,-1.1151 1.04673,-1.62765 0.44797,-0.51176 0.96929,-0.9847 1.56398,-1.41882 0.60325,-0.43412 1.24503,-0.80745 1.92534,-1.12 0.68887,-0.32118 1.40382,-0.56843 2.14484,-0.74176 0.74959,-0.18275 1.49489,-0.27412 2.23592,-0.27412 0.27884,-0.0353 0.68772,0.0502 0.70898,0.0518 v 16.40588 l 6.1523,-16.32823 h 1.84771 l -7.35226,19.87059 h -4.64775 z"
         style="fill:#634d9f;fill-opacity:1"
         id="path298" />
    </g>
    <g
       id="g688">
      <path
         d="m 187.9981,64.999176 -8.1e-4,-25.188416 c -1.73631,0.655798 -2.47361,1.288882 -3.4458,2.688186 -0.96891,1.39457 -1.09739,3.921164 -1.09739,5.998314 0,0.473602 0.0242,0.862416 0.0727,1.166444 0.0599,0.291404 0.12008,0.528204 0.18054,0.710402 0.0605,0.17012 0.11492,0.303754 0.16338,0.400886 0.0599,0.09714 0.0899,0.1822 0.0899,0.255186 -0.63886,0 -1.20528,-0.06064 -1.69927,-0.18192 -0.49451,-0.1339 -0.91061,-0.34052 -1.24829,-0.619856 -0.32569,-0.278784 -0.57894,-0.649214 -0.75976,-1.111292 -0.16884,-0.460976 -0.25326,-1.031714 -0.25326,-1.712208 0,-0.825922 0.22963,-2.317186 0.52367,-3.140754 1.27241,-3.563906 5.60009,-5.8588 8.95013,-6.868598 1.03376,-0.311602 2.09196,-0.3836 3.12895,-0.3836 0.39021,-0.04942 0.96239,0.07028 0.99215,0.07244 v 22.95842 l 8.60955,-22.84977 h 2.58567 L 194.5014,65 h -6.50407 z"
         style="opacity:0.2;fill:#000000;fill-opacity:1;stroke-width:2"
         id="path773" />
      <path
         d="m 187.9981,63.999178 -8.1e-4,-25.188416 c -1.73631,0.655798 -2.47361,1.288882 -3.4458,2.688188 -0.96891,1.394568 -1.09739,3.921162 -1.09739,5.998312 0,0.473602 0.0242,0.862418 0.0727,1.166444 0.0599,0.291404 0.12008,0.528204 0.18054,0.710402 0.0605,0.17012 0.11492,0.303754 0.16338,0.400886 0.0599,0.09714 0.0899,0.1822 0.0899,0.255186 -0.63886,0 -1.20528,-0.06064 -1.69927,-0.18192 -0.49451,-0.1339 -0.91061,-0.34052 -1.24829,-0.619854 -0.32569,-0.278784 -0.57894,-0.649216 -0.75976,-1.111292 -0.16884,-0.460978 -0.25326,-1.031716 -0.25326,-1.71221 0,-0.825922 0.22963,-2.317186 0.52367,-3.140754 1.27241,-3.563906 5.60009,-5.858802 8.95013,-6.8686 1.03376,-0.311602 2.09196,-0.3836 3.12895,-0.3836 0.39021,-0.04942 0.96239,0.07028 0.99215,0.07244 v 22.958424 l 8.60955,-22.849772 h 2.58567 L 194.5014,64.000004 h -6.50407 z"
         style="fill:#634d9f;fill-opacity:1;stroke-width:2"
         id="path745" />
    </g>
    <g
       id="g513">
      <path
         d="m 65.996204,118.99835 -0.0016,-50.37683 c -3.472608,1.311596 -4.947212,2.577764 -6.891604,5.376372 -1.937808,2.789139 -2.194772,7.842329 -2.194772,11.996629 0,0.9472 0.04844,1.72483 0.1454,2.33289 0.11984,0.58281 0.24016,1.05641 0.36108,1.4208 0.12092,0.34024 0.22984,0.60751 0.32676,0.80177 0.11984,0.19428 0.17972,0.3644 0.17972,0.51038 -1.277716,0 -2.410564,-0.12128 -3.39854,-0.36384 -0.989012,-0.2678 -1.82122,-0.68104 -2.496572,-1.23972 -0.651408,-0.55756 -1.15792,-1.29842 -1.519564,-2.22258 C 50.168832,86.312271 50,85.170791 50,83.809801 c 0,-1.65184 0.459268,-4.63437 1.04734,-6.28151 2.544812,-7.127807 11.200172,-11.717595 17.900264,-13.737191 2.067508,-0.623204 4.183908,-0.7672 6.257892,-0.7672 0.780428,-0.09884 1.924784,0.14056 1.9843,0.14488 v 45.91684 L 94.408892,63.38608 h 5.171354 L 79.002724,119 H 65.994576 Z"
         style="opacity:0.2;fill:#000000;fill-opacity:1;stroke-width:4"
         id="path2548" />
      <path
         d="m 65.996204,117.99836 -0.0016,-50.376836 C 62.521996,68.93312 61.047392,70.199288 59.103,72.9979 c -1.937808,2.789141 -2.194772,7.842321 -2.194772,11.996621 0,0.94721 0.04844,1.72484 0.1454,2.33289 0.11984,0.58281 0.24016,1.05641 0.36108,1.4208 0.12092,0.34024 0.22984,0.60751 0.32676,0.80178 0.11984,0.19428 0.17972,0.3644 0.17972,0.51037 -1.277716,0 -2.410564,-0.12128 -3.39854,-0.36384 -0.98904,-0.2678 -1.821248,-0.68104 -2.4966,-1.23971 -0.65138,-0.55757 -1.157892,-1.29843 -1.519536,-2.22258 C 50.168832,85.312271 50,84.170801 50,82.809811 c 0,-1.65185 0.459268,-4.63437 1.04734,-6.28151 2.544812,-7.127813 11.200172,-11.717605 17.900264,-13.737201 2.067508,-0.623204 4.183908,-0.7672 6.257892,-0.7672 0.780428,-0.09884 1.924784,0.14056 1.9843,0.14488 v 45.91685 L 94.408892,62.386084 h 5.171354 L 79.002724,118.00001 H 65.994576 Z"
         style="fill:#634d9f;fill-opacity:1;stroke-width:4"
         id="path1669"
         sodipodi:nodetypes="ccsscccccccssscccccccc" />
    </g>
  </g>
  <g
     id="g1758">
    <path
       d="m 256,56.5 v 5 c 0,0.5523 0.44771,1 1,1 h 5 z"
       style="opacity:0.2;fill:#000000;fill-opacity:1;stroke-width:0.5"
       id="path3295" />
    <path
       d="m 269,21 -8,-8 v 6.59375 C 261,20.373375 261.62775,21 262.40625,21 Z"
       style="opacity:0.2;fill:#000000"
       id="path1389"
       sodipodi:nodetypes="ccssc" />
    <path
       d="m 188,95 v 10 c 0,1.1046 0.89543,2 2,2 h 10 z"
       style="opacity:0.2"
       id="path1654"
       sodipodi:nodetypes="csscc" />
    <path
       style="opacity:0.2;fill:#000000"
       d="M 214,31 198,15 V 28.1875 C 198,29.74675 199.2555,31 200.8125,31 Z"
       id="path5454"
       sodipodi:nodetypes="ccssc" />
    <path
       d="M 118,51 86,19 V 45.375 C 86,48.4935 88.511,51 91.625,51 Z"
       style="opacity:0.2;fill:#000000;stroke-width:2"
       id="path1904" />
  </g>
  <g
     id="g1741">
    <path
       d="m 247,56 c -0.554,0 -1,0.446 -1,1 v 0.5 c 0,-0.554 0.446,-1 1,-1 h 9 l 5.5,5.500005 H 262 L 256,56 Z"
       style="opacity:0.2;fill:#ffffff;stroke-width:0.5"
       id="path3323" />
    <path
       d="M 248.375,12 C 247.61325,12 247,12.624791 247,13.400391 v 1 C 247,13.624791 247.61325,13 248.375,13 H 261 l 6.99964,7 H 269 l -8,-8 z"
       style="opacity:0.2;fill:#ffffff"
       id="path1445"
       sodipodi:nodetypes="sscsccccs" />
    <path
       d="m 170,94 c -1.108,0 -2,0.892 -2,2 v 1 c 0,-1.108 0.892,-2 2,-2 h 18 l 11,11.00001 h 1 L 188,94 Z"
       style="opacity:0.2;fill:#ffffff"
       id="path1710"
       sodipodi:nodetypes="sscsccccs" />
    <path
       style="opacity:0.2;fill:#ffffff"
       d="m 172.75,14 c -1.5235,0 -2.75,1.249581 -2.75,2.800781 v 1 C 170,16.249581 171.2265,15 172.75,15 H 198 l 15,15 h 1 L 198,14 Z"
       id="path5458"
       sodipodi:nodetypes="sscsccccs" />
    <path
       d="M 35.5,18 C 32.453,18 30,20.499162 30,23.601562 v 1 C 30,21.499162 32.453,19 35.5,19 H 86 l 31,31 h 1 L 86,18 Z"
       style="opacity:0.2;fill:#ffffff;stroke-width:2"
       id="path1848"
       sodipodi:nodetypes="sscsccccs" />
  </g>
  <g
     id="g1753">
    <path
       d="m 256,56 v 5 c 0,0.5523 0.44771,1 1,1 h 5 z"
       style="opacity:1;fill:#fafafa;fill-opacity:1;stroke-width:0.5"
       id="path3129"
       sodipodi:nodetypes="csscc" />
    <path
       d="m 269,20 -8,-8 v 6.59375 C 261,19.373375 261.62775,20 262.40625,20 Z"
       style="fill:#fafafa;fill-opacity:1"
       id="path1361"
       sodipodi:nodetypes="ccssc" />
    <path
       d="m 188,94 v 10 c 0,1.1046 0.89543,2 2,2 h 10 z"
       style="fill:#fafafa;fill-opacity:1"
       id="path1682" />
    <path
       d="m 252.0005,91 v 3.1662 c 0,0.4584 0.3749,0.8333 0.8333,0.8333 H 256 Z"
       style="fill:#fafafa"
       id="path3501"
       sodipodi:nodetypes="csscc" />
    <path
       style="fill:#fafafa;fill-opacity:1"
       d="M 214,30 198,14 V 27.1875 C 198,28.74675 199.2555,30 200.8125,30 Z"
       id="path5456"
       sodipodi:nodetypes="ccssc" />
    <path
       d="M 118,50 86,18 V 44.375 C 86,47.4935 88.511,50 91.625,50 Z"
       style="fill:#fafafa;stroke-width:2;fill-opacity:1"
       id="path1876" />
  </g>
</svg>
