<?xml version="1.0" encoding="UTF-8" standalone="no"?>
<svg
   width="284"
   height="148"
   version="1.1"
   id="svg5462"
   sodipodi:docname="text-x-script.svg"
   inkscape:version="1.2.2 (1:1.2.2+202305151914+b0a8486541)"
   xmlns:inkscape="http://www.inkscape.org/namespaces/inkscape"
   xmlns:sodipodi="http://sodipodi.sourceforge.net/DTD/sodipodi-0.dtd"
   xmlns="http://www.w3.org/2000/svg"
   xmlns:svg="http://www.w3.org/2000/svg">
  <defs
     id="defs5466" />
  <sodipodi:namedview
     id="namedview5464"
     pagecolor="#d2d2d2"
     bordercolor="#000000"
     borderopacity="0.25"
     inkscape:showpageshadow="2"
     inkscape:pageopacity="0"
     inkscape:pagecheckerboard="0"
     inkscape:deskcolor="#d2d2d2"
     showgrid="false"
     inkscape:zoom="4.5985915"
     inkscape:cx="142"
     inkscape:cy="73.935681"
     inkscape:window-width="1920"
     inkscape:window-height="1008"
     inkscape:window-x="0"
     inkscape:window-y="0"
     inkscape:window-maximized="1"
     inkscape:current-layer="svg5462"
     showborder="false"
     showguides="false" />
  <g
     id="Baseplate"
     transform="translate(160,10)"
     style="display:none">
    <text
       xml:space="preserve"
       style="font-size:12px;font-family:'Noto Sans';-inkscape-font-specification:'Noto Sans';text-align:end;text-anchor:end;opacity:1;fill:#000000;stroke-width:5;stroke-linecap:round;stroke-linejoin:round"
       x="71.631897"
       y="-0.48000813"
       id="context"
       transform="translate(-160,-10)"><tspan
         sodipodi:role="line"
         id="tspan1976"
         x="71.631897"
         y="-0.48000813"
         style="font-size:12px">mimetypes</tspan></text>
    <text
       xml:space="preserve"
       style="font-size:12px;font-family:'Noto Sans';-inkscape-font-specification:'Noto Sans';text-align:start;text-anchor:start;fill:#000000;stroke-width:5;stroke-linecap:round;stroke-linejoin:round"
       x="-74.127937"
       y="-10.480008"
       id="icon-name"><tspan
         sodipodi:role="line"
         id="tspan1976-6"
         x="-74.127937"
         y="-10.480008"
         style="font-style:normal;font-variant:normal;font-weight:bold;font-stretch:normal;font-size:12px;font-family:'Noto Sans';-inkscape-font-specification:'Noto Sans Bold';text-align:start;text-anchor:start">text-x-script</tspan></text>
    <rect
       style="opacity:1;fill:#ffffff;stroke-width:5;stroke-linecap:round;stroke-linejoin:round"
       id="128x128"
       width="128"
       height="128"
       x="-150"
       y="0" />
    <rect
       style="opacity:1;fill:#ffffff;stroke-width:5;stroke-linecap:round;stroke-linejoin:round"
       id="64x64"
       width="64"
       height="64"
       x="0"
       y="0" />
    <rect
       style="opacity:1;fill:#ffffff;stroke-width:5;stroke-linecap:round;stroke-linejoin:round"
       id="48x48"
       width="48"
       height="48"
       x="0"
       y="80" />
    <rect
       style="opacity:1;fill:#ffffff;stroke-width:1.66667;stroke-linecap:round;stroke-linejoin:round"
       id="32x32"
       width="32"
       height="32"
       x="82"
       y="0" />
    <rect
       style="opacity:1;fill:#ffffff;stroke-width:5;stroke-linecap:round;stroke-linejoin:round"
       id="24x24"
       width="24"
       height="24"
       x="82"
       y="44" />
    <rect
       style="opacity:1;fill:#ffffff;stroke-width:5;stroke-linecap:round;stroke-linejoin:round"
       id="16x16"
       width="16"
       height="16"
       x="82"
       y="80" />
  </g>
  <g
     id="g1767">
    <path
       d="m 247,56.5 c -0.554,0 -1,0.446 -1,1 v 18 c 0,0.554 0.446,1 1,1 h 14 c 0.554,0 1,-0.446 1,-1 v -13 L 256.5,62 256,56.5 Z"
       style="opacity:0.2;fill:#000000"
       id="path3101" />
    <path
       d="M 248.375,13 C 247.61325,13 247,13.6244 247,14.4 v 25.2 c 0,0.77504 0.61325,1.4 1.375,1.4 h 19.25 C 268.3862,41 269,40.37504 269,39.6 V 22 l -7,-2 -2,-7 z"
       style="opacity:0.2;fill:#000000"
       id="path1417" />
    <path
       d="m 170,95 c -1.108,0 -2,0.892 -2,2 v 36 c 0,1.108 0.892,2 2,2 h 28 c 1.108,0 2,-0.892 2,-2 v -26 l -11,-1 -1,-11 z"
       style="opacity:0.2;fill:#000000"
       id="path1626" />
    <path
       style="opacity:0.2;fill:#000000"
       d="m 172.75,15 c -1.5235,0 -2.75,1.2488 -2.75,2.8 v 50.4 c 0,1.55008 1.2265,2.8 2.75,2.8 h 38.5 c 1.5224,0 2.75,-1.24992 2.75,-2.8 V 33 l -14,-4 -4,-14 z"
       id="path5450" />
    <path
       d="m 35.499997,19 c -3.047,0 -5.5,2.4976 -5.5,5.6 v 100.8 c 0,3.10017 2.453,5.6 5.5,5.6 H 112.5 c 3.0448,0 5.5,-2.49984 5.5,-5.6 V 50.999999 l -24,-8 L 86,19 Z"
       style="fill:#000000;stroke-width:2;opacity:0.2"
       id="path1820" />
  </g>
  <g
     id="g1733">
    <path
       d="M 248.375,12 C 247.61325,12 247,12.6244 247,13.4 v 25.2 c 0,0.77504 0.61325,1.4 1.375,1.4 h 19.25 C 268.3862,40 269,39.37504 269,38.6 V 20 l -6,-2 -2,-6 z"
       style="fill:#4f4f4f;fill-opacity:1"
       id="path1333"
       sodipodi:nodetypes="sssssscccs" />
    <path
       d="m 247,56 c -0.554,0 -1,0.446 -1,1 v 18 c 0,0.554 0.446,1 1,1 h 14 c 0.554,0 1,-0.446 1,-1 V 62 L 256.5,61.5 256,56 Z"
       style="fill:#4f4f4f;fill-opacity:1"
       id="path3073"
       sodipodi:nodetypes="sssssscccs" />
    <path
       d="m 244.75,91 c -0.4172,0 -0.75,0.3328 -0.75,0.75 v 13.5 c 0,0.417 0.3328,0.75 0.75,0.75 h 10.5 c 0.418,0 0.75,-0.332 0.75,-0.75 V 94.9995 L 252.8755,94.1245 252.0005,91 Z"
       style="fill:#4f4f4f;fill-opacity:1"
       id="path3473"
       sodipodi:nodetypes="sssssscccs" />
    <path
       d="m 170,94 c -1.108,0 -2,0.892 -2,2 v 36 c 0,1.108 0.892,2 2,2 h 28 c 1.108,0 2,-0.892 2,-2 v -26 l -11,-1 -1,-11 z"
       style="fill:#4f4f4f;fill-opacity:1"
       id="path1598" />
    <path
       style="fill:#4f4f4f;fill-opacity:1"
       d="m 172.75,14 c -1.5235,0 -2.75,1.2488 -2.75,2.8 v 50.4 c 0,1.55008 1.2265,2.8 2.75,2.8 h 38.5 c 1.5224,0 2.75,-1.24992 2.75,-2.8 V 30 l -12,-4 -4,-12 z"
       id="path5452"
       sodipodi:nodetypes="sssssscccs" />
    <path
       d="M 35.5,18 C 32.453,18 30,20.4976 30,23.6 v 100.8 c 0,3.10016 2.453,5.6 5.5,5.6 h 77 c 3.0448,0 5.5,-2.49984 5.5,-5.6 V 49.999999 l -24,-8 L 86,18 Z"
       style="fill:#4f4f4f;stroke-width:2;fill-opacity:1"
       id="path1792"
       sodipodi:nodetypes="sssssscccs" />
  </g>
  <g
     id="g1243">
    <g
       id="g1246">
      <path
         d="m 254,103 h -1 v 1 h 1 z m 0,-4.999999 h -1 V 102 h 1 z M 248,100 h 2 v 2 h -2 z m -1,-1.999999 V 99 h -1 v 1 h 1 v 2 h -1 v 1 h 1 v 1 h 1 v -1 h 2 v 1 h 1 v -1 h 1 v -1 h -1 v -2 h 1 v -1 h -1 v -0.999999 h -1 V 99 h -2 v -0.999999 z"
         style="fill:#ffffff"
         id="path1222" />
    </g>
    <g
       id="g2119">
      <path
         style="opacity:0.2;fill:#000000"
         d="m 251.49219,65.499574 c -0.2757,0.0043 -0.49589,0.230603 -0.49219,0.50586 v 1.49414 h -1.49414 c -0.67479,-0.0096 -0.67479,1.009562 0,1 H 251 v 2 h -1.49414 c -0.67479,-0.0096 -0.67479,1.009562 0,1 H 251 v 1.49414 c -0.01,0.675048 1.00956,0.675048 1,0 v -1.49414 h 2 v 1.49414 c -0.01,0.675048 1.00956,0.675048 1,0 v -1.49414 h 1.494 c 0.67479,0.0096 0.67479,-1.009563 0,-1 H 255 v -2 h 1.494 c 0.67479,0.0096 0.67479,-1.009562 0,-1 H 255 v -1.49414 c 0.004,-0.281366 -0.22599,-0.510254 -0.50781,-0.50586 -0.27571,0.0043 -0.49589,0.230603 -0.49219,0.50586 v 1.49414 h -2 v -1.49414 c 0.004,-0.281366 -0.22599,-0.510254 -0.50781,-0.50586 z m 7,0 c -0.27578,0.0043 -0.49599,0.230631 -0.49219,0.50586 v 4.98814 c -0.01,0.67481 1.00956,0.67481 1,0 v -4.98814 c 0.004,-0.281336 -0.22592,-0.510254 -0.50781,-0.50586 z m -6.49219,3 h 2 v 2 h -2 z m 6.5,4 c -0.27614,0 -0.5,0.223857 -0.5,0.5 0,0.276142 0.22386,0.5 0.5,0.5 0.27614,0 0.5,-0.223858 0.5,-0.5 0,-0.276143 -0.22386,-0.5 -0.5,-0.5 z"
         id="path1951" />
      <path
         style="fill:#ffffff"
         d="M 251.49219,65 C 251.21649,65.0043 250.9963,65.230603 251,65.50586 V 67 h -1.49414 c -0.67479,-0.0096 -0.67479,1.009562 0,1 H 251 v 2 h -1.49414 c -0.67479,-0.0096 -0.67479,1.009562 0,1 H 251 v 1.49414 c -0.01,0.675048 1.00956,0.675048 1,0 V 71 h 2 v 1.49414 c -0.01,0.675048 1.00956,0.675048 1,0 V 71 h 1.494 c 0.67479,0.0096 0.67479,-1.009563 0,-1 H 255 v -2 h 1.494 c 0.67479,0.0096 0.67479,-1.009562 0,-1 H 255 V 65.50586 C 255.004,65.224494 254.77401,64.995606 254.49219,65 254.21648,65.0043 253.9963,65.230603 254,65.50586 V 67 h -2 V 65.50586 C 252.004,65.224494 251.77401,64.995606 251.49219,65 Z m 7,0 C 258.21641,65.0043 257.9962,65.230631 258,65.50586 V 70.494 c -0.01,0.67481 1.00956,0.67481 1,0 V 65.50586 C 259.004,65.224524 258.77408,64.995606 258.49219,65 Z M 252,68 h 2 v 2 h -2 z m 6.5,4 c -0.27614,0 -0.5,0.223857 -0.5,0.5 0,0.276142 0.22386,0.5 0.5,0.5 0.27614,0 0.5,-0.223858 0.5,-0.5 0,-0.276143 -0.22386,-0.5 -0.5,-0.5 z"
         id="path1953" />
    </g>
    <g
       id="g1939"
       transform="translate(10.206061,-29.235304)">
      <path
         style="opacity:0.2;fill:#000000"
         d="m 244.2857,55.235794 a 0.50005,0.49936929 0 0 0 -0.49219,0.507812 v 2.492188 h -2.49414 a 0.49936929,0.50005 0 1 0 0,1 h 2.49414 v 3 h -2.49414 a 0.49936929,0.50005 0 1 0 0,1 h 2.49414 v 2.494141 a 0.50005,0.49936929 0 1 0 1,0 v -2.494141 h 3 v 2.494141 a 0.50005,0.49936929 0 1 0 1,0 v -2.494141 h 2.49219 a 0.49936929,0.50005 0 0 0 0.50781,-0.507812 0.49936929,0.50005 0 0 0 -0.50781,-0.492188 h -2.49219 v -3 h 2.49219 a 0.49936929,0.50005 0 0 0 0.50781,-0.507812 0.49936929,0.50005 0 0 0 -0.50781,-0.492188 h -2.49219 v -2.492188 a 0.50005,0.49936929 0 0 0 -0.50781,-0.507812 0.50005,0.49936929 0 0 0 -0.49219,0.507812 v 2.492188 h -3 v -2.492188 a 0.50005,0.49936929 0 0 0 -0.50781,-0.507812 z m 10,0 c -0.27615,0.0043 -0.49651,0.232044 -0.49219,0.507812 v 6.986329 c -0.01,0.675241 1.00956,0.675241 1,0 v -6.986329 c 0.004,-0.281881 -0.22555,-0.512223 -0.50781,-0.507812 z m -9.49219,4 h 3 v 3 h -3 z m 9.5,6 a 0.5,0.5 0 0 0 -0.5,0.5 0.5,0.5 0 0 0 0.5,0.5 0.5,0.5 0 0 0 0.5,-0.5 0.5,0.5 0 0 0 -0.5,-0.5 z"
         id="path1777" />
      <path
         style="fill:#ffffff"
         d="m 244.2857,54.235366 a 0.50005,0.49936929 0 0 0 -0.49219,0.507812 v 2.492188 h -2.49414 a 0.49936929,0.50005 0 1 0 0,1 h 2.49414 v 3 h -2.49414 a 0.49936929,0.50005 0 1 0 0,1 h 2.49414 v 2.494141 a 0.50005,0.49936929 0 1 0 1,0 v -2.494141 h 3 v 2.494141 a 0.50005,0.49936929 0 1 0 1,0 v -2.494141 h 2.49219 a 0.49936929,0.50005 0 0 0 0.50781,-0.507812 0.49936929,0.50005 0 0 0 -0.50781,-0.492188 h -2.49219 v -3 h 2.49219 a 0.49936929,0.50005 0 0 0 0.50781,-0.507812 0.49936929,0.50005 0 0 0 -0.50781,-0.492188 h -2.49219 v -2.492188 a 0.50005,0.49936929 0 0 0 -0.50781,-0.507812 0.50005,0.49936929 0 0 0 -0.49219,0.507812 v 2.492188 h -3 v -2.492188 a 0.50005,0.49936929 0 0 0 -0.50781,-0.507812 z m 10,0 c -0.27615,0.0043 -0.49651,0.232044 -0.49219,0.507812 v 6.986329 c -0.01,0.675241 1.00956,0.675241 1,0 v -6.986329 c 0.004,-0.281881 -0.22555,-0.512223 -0.50781,-0.507812 z m -9.49219,4 h 3 v 3 h -3 z m 9.5,6 a 0.5,0.5 0 0 0 -0.5,0.5 0.5,0.5 0 0 0 0.5,0.5 0.5,0.5 0 0 0 0.5,-0.5 0.5,0.5 0 0 0 -0.5,-0.5 z"
         id="path1779" />
    </g>
    <g
       id="g1762">
      <path
         style="opacity:0.2;fill:#000000"
         d="m 178.98469,112.99962 c -0.55139,0.009 -0.99174,0.4612 -0.98435,1.01169 v 2.98819 h -2.98819 c -1.34953,-0.0192 -1.34953,2.01907 0,1.99995 h 2.98819 v 3.99987 h -2.98819 c -1.34953,-0.0192 -1.34953,2.01907 0,1.99995 h 2.98819 v 2.98819 c -0.0192,1.35005 2.01907,1.35005 1.99994,0 v -2.98819 h 3.99988 v 2.98819 c -0.0192,1.35005 2.01907,1.35005 1.99995,0 v -2.98819 h 2.98791 c 1.34953,0.0192 1.34953,-2.01907 0,-1.99995 h -2.98791 v -3.99987 h 2.98791 c 1.34953,0.0192 1.34953,-2.01907 0,-1.99995 h -2.98791 v -2.98819 c 0.008,-0.56271 -0.45198,-1.02047 -1.0156,-1.01169 -0.55139,0.009 -0.99174,0.4612 -0.98435,1.01169 v 2.98819 h -3.99988 v -2.98819 c 0.008,-0.56271 -0.45197,-1.02047 -1.01559,-1.01169 z m 13.99958,0 c -0.55153,0.009 -0.99194,0.46125 -0.98434,1.01169 v 9.97599 c -0.0192,1.34957 2.01906,1.34957 1.99994,0 v -9.97599 c 0.008,-0.56265 -0.45183,-1.02047 -1.0156,-1.01169 z m -12.98399,5.99983 h 3.99988 v 3.99987 h -3.99988 z m 12.99962,7.99976 c -0.55227,0 -0.99997,0.4477 -0.99997,0.99997 0,0.55226 0.4477,0.99997 0.99997,0.99997 0.55226,0 0.99997,-0.44771 0.99997,-0.99997 0,-0.55227 -0.44771,-0.99997 -0.99997,-0.99997 z"
         id="path1594" />
      <path
         style="fill:#ffffff"
         d="m 178.98469,111.99962 c -0.55139,0.009 -0.99174,0.4612 -0.98435,1.01169 v 2.98819 h -2.98819 c -1.34953,-0.0192 -1.34953,2.01907 0,1.99995 h 2.98819 v 3.99988 h -2.98819 c -1.34953,-0.0192 -1.34953,2.01906 0,1.99994 h 2.98819 v 2.98819 c -0.0192,1.35005 2.01907,1.35005 1.99994,0 v -2.98819 h 3.99988 v 2.98819 c -0.0192,1.35005 2.01907,1.35005 1.99995,0 v -2.98819 h 2.98791 c 1.34953,0.0192 1.34953,-2.01907 0,-1.99994 h -2.98791 v -3.99988 h 2.98791 c 1.34953,0.0192 1.34953,-2.01907 0,-1.99995 h -2.98791 v -2.98819 c 0.008,-0.56271 -0.45198,-1.02047 -1.0156,-1.01169 -0.55139,0.009 -0.99174,0.4612 -0.98435,1.01169 v 2.98819 h -3.99988 v -2.98819 c 0.008,-0.56271 -0.45197,-1.02047 -1.01559,-1.01169 z m 13.99958,0 c -0.55153,0.009 -0.99194,0.46125 -0.98434,1.01169 v 9.97599 c -0.0192,1.34957 2.01906,1.34957 1.99994,0 v -9.97599 c 0.008,-0.56265 -0.45183,-1.02047 -1.0156,-1.01169 z m -12.98399,5.99983 h 3.99988 v 3.99988 h -3.99988 z m 12.99962,7.99976 c -0.55227,0 -0.99997,0.4477 -0.99997,0.99997 0,0.55226 0.4477,0.99997 0.99997,0.99997 0.55226,0 0.99997,-0.44771 0.99997,-0.99997 0,-0.55227 -0.44771,-0.99997 -0.99997,-0.99997 z"
         id="path1596" />
    </g>
    <g
       id="g1522"
       transform="translate(-5e-4)">
      <path
         style="opacity:0.2;fill:#000000"
         d="m 184.47687,40.000187 c -0.82806,0.0129 -1.489,0.693077 -1.47656,1.519531 v 3.480469 h -3.48242 c -2.02452,-0.02869 -2.02452,3.028688 0,3 h 3.48242 v 6 h -3.48242 c -2.02452,-0.02869 -2.02452,3.028688 0,3 h 3.48242 v 3.482422 c -0.0287,2.024524 3.02869,2.024524 3,0 v -3.482422 h 6 v 3.482422 c -0.0287,2.024524 3.02869,2.024524 3,0 v -3.482422 h 3.48242 c 0.84402,0.0116 1.53076,-0.677791 1.51758,-1.523438 -0.0129,-0.82729 -0.69188,-1.487914 -1.51758,-1.476562 h -3.48242 v -6 h 3.48242 c 0.84402,0.0116 1.53076,-0.677791 1.51758,-1.523438 -0.0129,-0.82729 -0.69188,-1.487914 -1.51758,-1.476562 h -3.48242 v -3.480469 c 0.0127,-0.844783 -0.67701,-1.532743 -1.52344,-1.519531 -0.82806,0.0129 -1.489,0.693077 -1.47656,1.519531 v 3.480469 h -6 v -3.480469 c 0.0127,-0.844783 -0.67701,-1.532743 -1.52344,-1.519531 z m 20,0 c -0.82766,0.0129 -1.48843,0.693471 -1.47656,1.519531 v 13.962891 c -0.0287,2.024524 3.02869,2.024524 3,0 V 41.519718 c 0.0121,-0.844384 -0.67742,-1.532727 -1.52344,-1.519531 z m -18.47656,8 h 6 v 6 h -6 z m 18.5,12 c -0.82843,0 -1.5,0.671573 -1.5,1.5 0,0.828427 0.67157,1.5 1.5,1.5 0.82843,0 1.5,-0.671573 1.5,-1.5 0,-0.828427 -0.67157,-1.5 -1.5,-1.5 z"
         id="path1360"
         sodipodi:nodetypes="scccccccccccccccccsccccscccsccccssccccscccccsssss" />
      <path
         style="fill:#ffffff"
         d="m 184.47687,39.000187 c -0.82806,0.0129 -1.489,0.693077 -1.47656,1.519531 v 3.480469 h -3.48242 c -2.02452,-0.02869 -2.02452,3.028688 0,3 h 3.48242 v 6 h -3.48242 c -2.02452,-0.02869 -2.02452,3.028688 0,3 h 3.48242 v 3.482422 c -0.0287,2.024524 3.02869,2.024524 3,0 v -3.482422 h 6 v 3.482422 c -0.0287,2.024524 3.02869,2.024524 3,0 v -3.482422 h 3.48242 c 0.84402,0.0116 1.53076,-0.677791 1.51758,-1.523438 -0.0129,-0.82729 -0.69188,-1.487914 -1.51758,-1.476562 h -3.48242 v -6 h 3.48242 c 0.84402,0.0116 1.53076,-0.677791 1.51758,-1.523438 -0.0129,-0.82729 -0.69188,-1.487914 -1.51758,-1.476562 h -3.48242 v -3.480469 c 0.0127,-0.844783 -0.67701,-1.532743 -1.52344,-1.519531 -0.82806,0.0129 -1.489,0.693077 -1.47656,1.519531 v 3.480469 h -6 v -3.480469 c 0.0127,-0.844783 -0.67701,-1.532743 -1.52344,-1.519531 z m 20,0 c -0.82766,0.0129 -1.48843,0.693471 -1.47656,1.519531 v 13.962891 c -0.0287,2.024524 3.02869,2.024524 3,0 V 40.519718 c 0.0121,-0.844384 -0.67742,-1.532727 -1.52344,-1.519531 z m -18.47656,8 h 6 v 6 h -6 z m 18.5,12 c -0.82843,0 -1.5,0.671573 -1.5,1.5 0,0.828427 0.67157,1.5 1.5,1.5 0.82843,0 1.5,-0.671573 1.5,-1.5 0,-0.828427 -0.67157,-1.5 -1.5,-1.5 z"
         id="path1362"
         sodipodi:nodetypes="scccccccccccccccccsccccscccsccccssccccscccccsssss" />
    </g>
    <g
       id="g1582"
       transform="matrix(1.9999992,0,0,1.9999992,-309.99886,-9.9999685)">
      <path
         d="m 184.47637,39.500187 c -0.82806,0.0129 -1.489,0.693077 -1.47656,1.519531 v 3.480469 h -3.48242 c -2.02452,-0.02869 -2.02452,3.028688 0,3 h 3.48242 v 6 h -3.48242 c -2.02452,-0.02869 -2.02452,3.028688 0,3 h 3.48242 v 3.482422 c -0.0287,2.024524 3.02869,2.024524 3,0 v -3.482422 h 6 v 3.482422 c -0.0287,2.024524 3.02869,2.024524 3,0 v -3.482422 h 3.48242 c 0.84402,0.0116 1.53076,-0.677791 1.51758,-1.523438 -0.0129,-0.82729 -0.69188,-1.487914 -1.51758,-1.476562 h -3.48242 v -6 h 3.48242 c 0.84402,0.0116 1.53076,-0.677791 1.51758,-1.523438 -0.0129,-0.82729 -0.69188,-1.487914 -1.51758,-1.476562 h -3.48242 v -3.480469 c 0.0127,-0.844783 -0.67701,-1.532743 -1.52344,-1.519531 -0.82806,0.0129 -1.489,0.693077 -1.47656,1.519531 v 3.480469 h -6 v -3.480469 c 0.0127,-0.844783 -0.67701,-1.532743 -1.52344,-1.519531 z m 20,0 c -0.82766,0.0129 -1.48843,0.693471 -1.47656,1.519531 v 13.962891 c -0.0287,2.024524 3.02869,2.024524 3,0 V 41.019718 c 0.0121,-0.844384 -0.67742,-1.532727 -1.52344,-1.519531 z m -18.47656,8 h 6 v 6 h -6 z m 18.5,12 c -0.82843,0 -1.5,0.671573 -1.5,1.5 0,0.828427 0.67157,1.5 1.5,1.5 0.82843,0 1.5,-0.671573 1.5,-1.5 0,-0.828427 -0.67157,-1.5 -1.5,-1.5 z"
         style="opacity:0.2;fill:#000000"
         id="path1560" />
      <path
         d="m 184.47637,39.000187 c -0.82806,0.0129 -1.489,0.693077 -1.47656,1.519531 v 3.480469 h -3.48242 c -2.02452,-0.02869 -2.02452,3.028688 0,3 h 3.48242 v 6 h -3.48242 c -2.02452,-0.02869 -2.02452,3.028688 0,3 h 3.48242 v 3.482422 c -0.0287,2.024524 3.02869,2.024524 3,0 v -3.482422 h 6 v 3.482422 c -0.0287,2.024524 3.02869,2.024524 3,0 v -3.482422 h 3.48242 c 0.84402,0.0116 1.53076,-0.677791 1.51758,-1.523438 -0.0129,-0.82729 -0.69188,-1.487914 -1.51758,-1.476562 h -3.48242 v -6 h 3.48242 c 0.84402,0.0116 1.53076,-0.677791 1.51758,-1.523438 -0.0129,-0.82729 -0.69188,-1.487914 -1.51758,-1.476562 h -3.48242 v -3.480469 c 0.0127,-0.844783 -0.67701,-1.532743 -1.52344,-1.519531 -0.82806,0.0129 -1.489,0.693077 -1.47656,1.519531 v 3.480469 h -6 v -3.480469 c 0.0127,-0.844783 -0.67701,-1.532743 -1.52344,-1.519531 z m 20,0 c -0.82766,0.0129 -1.48843,0.693471 -1.47656,1.519531 v 13.962891 c -0.0287,2.024524 3.02869,2.024524 3,0 V 40.519718 c 0.0121,-0.844384 -0.67742,-1.532727 -1.52344,-1.519531 z m -18.47656,8 h 6 v 6 h -6 z m 18.5,12 c -0.82843,0 -1.5,0.671573 -1.5,1.5 0,0.828427 0.67157,1.5 1.5,1.5 0.82843,0 1.5,-0.671573 1.5,-1.5 0,-0.828427 -0.67157,-1.5 -1.5,-1.5 z"
         style="fill:#ffffff"
         id="path1532" />
    </g>
  </g>
  <g
     id="g1758">
    <path
       d="m 256,56.5 v 5 c 0,0.5523 0.44771,1 1,1 h 5 z"
       style="opacity:0.2;fill:#000000;fill-opacity:1;stroke-width:0.5"
       id="path3295" />
    <path
       d="m 269,21 -8,-8 v 6.59375 C 261,20.373375 261.62775,21 262.40625,21 Z"
       style="opacity:0.2;fill:#000000"
       id="path1389"
       sodipodi:nodetypes="ccssc" />
    <path
       d="m 188,95 v 10 c 0,1.1046 0.89543,2 2,2 h 10 z"
       style="opacity:0.2"
       id="path1654"
       sodipodi:nodetypes="csscc" />
    <path
       style="opacity:0.2;fill:#000000"
       d="M 214,31 198,15 V 28.1875 C 198,29.74675 199.2555,31 200.8125,31 Z"
       id="path5454"
       sodipodi:nodetypes="ccssc" />
    <path
       d="M 118,51 86,19 V 45.375 C 86,48.4935 88.511,51 91.625,51 Z"
       style="opacity:0.2;fill:#000000;stroke-width:2"
       id="path1904" />
  </g>
  <g
     id="g1741">
    <path
       d="m 247,56 c -0.554,0 -1,0.446 -1,1 v 0.5 c 0,-0.554 0.446,-1 1,-1 h 9 l 5.5,5.500005 H 262 L 256,56 Z"
       style="opacity:0.2;fill:#ffffff;stroke-width:0.5"
       id="path3323" />
    <path
       d="M 248.375,12 C 247.61325,12 247,12.624791 247,13.400391 v 1 C 247,13.624791 247.61325,13 248.375,13 H 261 l 7,7 h 1 l -8,-8 z"
       style="opacity:0.2;fill:#ffffff"
       id="path1445"
       sodipodi:nodetypes="sscsccccs" />
    <path
       d="m 170,94 c -1.108,0 -2,0.892 -2,2 v 1 c 0,-1.108 0.892,-2 2,-2 h 18 l 11,11.00001 h 1 L 188,94 Z"
       style="opacity:0.2;fill:#ffffff"
       id="path1710"
       sodipodi:nodetypes="sscsccccs" />
    <path
       style="opacity:0.2;fill:#ffffff"
       d="m 172.75,14 c -1.5235,0 -2.75,1.249581 -2.75,2.800781 v 1 C 170,16.249581 171.2265,15 172.75,15 H 198 l 15,15 h 1 L 198,14 Z"
       id="path5458"
       sodipodi:nodetypes="sscsccccs" />
    <path
       d="M 35.5,18 C 32.453,18 30,20.499162 30,23.601562 v 1 C 30,21.499162 32.453,19 35.5,19 H 86 l 31,31 h 1 L 86,18 Z"
       style="opacity:0.2;fill:#ffffff;stroke-width:2"
       id="path1848"
       sodipodi:nodetypes="sscsccccs" />
  </g>
  <g
     id="g1753">
    <path
       d="m 256,56 v 5 c 0,0.5523 0.44771,1 1,1 h 5 z"
       style="opacity:1;fill:#696969;fill-opacity:1;stroke-width:0.5"
       id="path3129"
       sodipodi:nodetypes="csscc" />
    <path
       d="m 269,20 -8,-8 v 6.59375 C 261,19.373375 261.62775,20 262.40625,20 Z"
       style="fill:#696969;fill-opacity:1"
       id="path1361"
       sodipodi:nodetypes="ccssc" />
    <path
       d="m 188,94 v 10 c 0,1.1046 0.89543,2 2,2 h 10 z"
       style="fill:#696969;fill-opacity:1"
       id="path1682" />
    <path
       d="m 252.0005,91 v 3.1662 c 0,0.4584 0.3749,0.8333 0.8333,0.8333 H 256 Z"
       style="fill:#696969;fill-opacity:1"
       id="path3501"
       sodipodi:nodetypes="csscc" />
    <path
       style="fill:#696969;fill-opacity:1"
       d="M 214,30 198,14 V 27.1875 C 198,28.74675 199.2555,30 200.8125,30 Z"
       id="path5456"
       sodipodi:nodetypes="ccssc" />
    <path
       d="M 118,50 86,18 V 44.375 C 86,47.4935 88.511,50 91.625,50 Z"
       style="fill:#696969;stroke-width:2;fill-opacity:1"
       id="path1876" />
  </g>
</svg>
