<?xml version="1.0" encoding="UTF-8" standalone="no"?>
<svg
   width="284"
   height="148"
   version="1.1"
   id="svg5462"
   sodipodi:docname="unknown.svg"
   inkscape:version="1.2.2 (1:1.2.2+202305151914+b0a8486541)"
   xmlns:inkscape="http://www.inkscape.org/namespaces/inkscape"
   xmlns:sodipodi="http://sodipodi.sourceforge.net/DTD/sodipodi-0.dtd"
   xmlns="http://www.w3.org/2000/svg"
   xmlns:svg="http://www.w3.org/2000/svg">
  <defs
     id="defs5466" />
  <sodipodi:namedview
     id="namedview5464"
     pagecolor="#d2d2d2"
     bordercolor="#000000"
     borderopacity="0.25"
     inkscape:showpageshadow="2"
     inkscape:pageopacity="0"
     inkscape:pagecheckerboard="0"
     inkscape:deskcolor="#d2d2d2"
     showgrid="false"
     inkscape:zoom="4.6267606"
     inkscape:cx="142"
     inkscape:cy="73.917808"
     inkscape:window-width="1920"
     inkscape:window-height="1008"
     inkscape:window-x="0"
     inkscape:window-y="0"
     inkscape:window-maximized="1"
     inkscape:current-layer="svg5462"
     showborder="false"
     showguides="true" />
  <g
     id="Baseplate"
     transform="translate(160,10)"
     style="display:none">
    <text
       xml:space="preserve"
       style="font-size:12px;font-family:'Noto Sans';-inkscape-font-specification:'Noto Sans';text-align:end;text-anchor:end;opacity:1;fill:#000000;stroke-width:5;stroke-linecap:round;stroke-linejoin:round"
       x="71.631897"
       y="-0.48000813"
       id="context"
       transform="translate(-160,-10)"><tspan
         sodipodi:role="line"
         id="tspan1976"
         x="71.631897"
         y="-0.48000813"
         style="font-size:12px">mimetypes</tspan></text>
    <text
       xml:space="preserve"
       style="font-size:12px;font-family:'Noto Sans';-inkscape-font-specification:'Noto Sans';text-align:start;text-anchor:start;fill:#000000;stroke-width:5;stroke-linecap:round;stroke-linejoin:round"
       x="-74.127937"
       y="-10.480008"
       id="icon-name"><tspan
         sodipodi:role="line"
         id="tspan1976-6"
         x="-74.127937"
         y="-10.480008"
         style="font-style:normal;font-variant:normal;font-weight:bold;font-stretch:normal;font-size:12px;font-family:'Noto Sans';-inkscape-font-specification:'Noto Sans Bold';text-align:start;text-anchor:start">unknown</tspan></text>
    <rect
       style="opacity:1;fill:#ffffff;stroke-width:5;stroke-linecap:round;stroke-linejoin:round"
       id="128x128"
       width="128"
       height="128"
       x="-150"
       y="0" />
    <rect
       style="opacity:1;fill:#ffffff;stroke-width:5;stroke-linecap:round;stroke-linejoin:round"
       id="64x64"
       width="64"
       height="64"
       x="0"
       y="0" />
    <rect
       style="opacity:1;fill:#ffffff;stroke-width:5;stroke-linecap:round;stroke-linejoin:round"
       id="48x48"
       width="48"
       height="48"
       x="0"
       y="80" />
    <rect
       style="opacity:1;fill:#ffffff;stroke-width:1.66667;stroke-linecap:round;stroke-linejoin:round"
       id="32x32"
       width="32"
       height="32"
       x="82"
       y="0" />
    <rect
       style="opacity:1;fill:#ffffff;stroke-width:5;stroke-linecap:round;stroke-linejoin:round"
       id="24x24"
       width="24"
       height="24"
       x="82"
       y="44" />
    <rect
       style="opacity:1;fill:#ffffff;stroke-width:5;stroke-linecap:round;stroke-linejoin:round"
       id="16x16"
       width="16"
       height="16"
       x="82"
       y="80" />
  </g>
  <g
     id="g1767">
    <path
       d="m 247,56.5 c -0.554,0 -1,0.446 -1,1 v 18 c 0,0.554 0.446,1 1,1 h 14 c 0.554,0 1,-0.446 1,-1 v -13 L 256.5,62 256,56.5 Z"
       style="opacity:0.2;fill:#000000"
       id="path3101" />
    <path
       d="M 248.375,13 C 247.61325,13 247,13.6244 247,14.4 v 25.2 c 0,0.77504 0.61325,1.4 1.375,1.4 h 19.25 C 268.3862,41 269,40.37504 269,39.6 V 22 l -7,-2 -2,-7 z"
       style="opacity:0.2;fill:#000000"
       id="path1417" />
    <path
       d="m 170,95 c -1.108,0 -2,0.892 -2,2 v 36 c 0,1.108 0.892,2 2,2 h 28 c 1.108,0 2,-0.892 2,-2 v -26 l -11,-1 -1,-11 z"
       style="opacity:0.2;fill:#000000"
       id="path1626" />
    <path
       style="opacity:0.2;fill:#000000"
       d="m 172.75,15 c -1.5235,0 -2.75,1.2488 -2.75,2.8 v 50.4 c 0,1.55008 1.2265,2.8 2.75,2.8 h 38.5 c 1.5224,0 2.75,-1.24992 2.75,-2.8 V 33 l -14,-4 -4,-14 z"
       id="path5450" />
    <path
       d="m 35.499997,19 c -3.047,0 -5.5,2.4976 -5.5,5.6 v 100.8 c 0,3.10017 2.453,5.6 5.5,5.6 H 112.5 c 3.0448,0 5.5,-2.49984 5.5,-5.6 V 50.999999 l -24,-8 L 86,19 Z"
       style="fill:#000000;stroke-width:2;opacity:0.2"
       id="path1820" />
  </g>
  <g
     id="g1733">
    <path
       d="M 248.375,12 C 247.61325,12 247,12.6244 247,13.4 v 25.2 c 0,0.77504 0.61325,1.4 1.375,1.4 h 19.25 C 268.3862,40 269,39.37504 269,38.6 V 20 l -6,-2 -2,-6 z"
       style="fill:#e4e4e4;fill-opacity:1"
       id="path1333"
       sodipodi:nodetypes="sssssscccs" />
    <path
       d="m 247,56 c -0.554,0 -1,0.446 -1,1 v 18 c 0,0.554 0.446,1 1,1 h 14 c 0.554,0 1,-0.446 1,-1 V 62 L 256.5,61.5 256,56 Z"
       style="fill:#e4e4e4"
       id="path3073"
       sodipodi:nodetypes="sssssscccs" />
    <path
       d="m 244.75,91 c -0.4172,0 -0.75,0.3328 -0.75,0.75 v 13.5 c 0,0.417 0.3328,0.75 0.75,0.75 h 10.5 c 0.418,0 0.75,-0.332 0.75,-0.75 V 94.9995 L 252.8755,94.1245 252.0005,91 Z"
       style="fill:#e4e4e4"
       id="path3473"
       sodipodi:nodetypes="sssssscccs" />
    <path
       d="m 170,94 c -1.108,0 -2,0.892 -2,2 v 36 c 0,1.108 0.892,2 2,2 h 28 c 1.108,0 2,-0.892 2,-2 v -26 l -11,-1 -1,-11 z"
       style="fill:#e4e4e4;fill-opacity:1"
       id="path1598" />
    <path
       style="fill:#e4e4e4;fill-opacity:1"
       d="m 172.75,14 c -1.5235,0 -2.75,1.2488 -2.75,2.8 v 50.4 c 0,1.55008 1.2265,2.8 2.75,2.8 h 38.5 c 1.5224,0 2.75,-1.24992 2.75,-2.8 V 30 l -12,-4 -4,-12 z"
       id="path5452"
       sodipodi:nodetypes="sssssscccs" />
    <path
       d="M 35.5,18 C 32.453,18 30,20.4976 30,23.6 v 100.8 c 0,3.10016 2.453,5.6 5.5,5.6 h 77 c 3.0448,0 5.5,-2.49984 5.5,-5.6 V 49.999999 l -24,-8 L 86,18 Z"
       style="fill:#e4e4e4;stroke-width:2;fill-opacity:1"
       id="path1792"
       sodipodi:nodetypes="sssssscccs" />
  </g>
  <g
     id="g4783">
    <g
       id="g4794">
      <path
         d="m 250.125,105 h -1.25 v -1.25 h 1.25 z m 1.294,-5.043699 -0.5628,0.574999 c -0.45,0.4562 -0.7312,0.8312 -0.7312,1.7687 h -1.25 v -0.3125 c 0,-0.6875 0.2812,-1.3125 0.7313,-1.7687 l 0.7749,-0.787499 c 0.2313,-0.225 0.3688,-0.537501 0.3688,-0.881301 0,-0.6875 -0.5625,-1.25 -1.25,-1.25 -0.6875,0 -1.25,0.7 -1.25,1.7 H 247 c 0,-2 1.1188,-2.95 2.5,-2.95 1.3812,0 2.5,1.1188 2.5,2.5 0,0.550001 -0.225,1.050001 -0.581,1.406301 z"
         style="fill:#868686;fill-opacity:1"
         id="path4482"
         sodipodi:nodetypes="cccccccccsccssccssc" />
    </g>
    <path
       d="m 253.75,64.5 c -1.42104,0.0012 -2.62082,0.584846 -2.75,2 h 1 c 0.11879,-0.581939 0.72092,-0.999948 1.75,-1 1.07109,-5.4e-5 1.25,1.059644 1.25,1.75 0,1.25 -2,1.749027 -2,4.259766 l 1,-0.02148 c -0.12185,-1.737887 1.95847,-2.684284 2,-4.238286 0,-1.518783 -0.73122,-2.75 -2.25,-2.75 z m -0.75,8 v 1 h 0.97266 v -1 z"
       style="fill:#000000;opacity:0.2"
       id="path6156"
       sodipodi:nodetypes="cccssccccccccc" />
    <path
       d="m 253.75,64 c -1.42104,0.0012 -2.62082,0.584846 -2.75,2 h 1 c 0.11879,-0.581939 0.72092,-0.999948 1.75,-1 1.07109,-5.4e-5 1.25,1.059644 1.25,1.75 0,1.25 -2,1.749027 -2,4.259766 l 1,-0.02148 C 253.87815,69.250399 255.95847,68.304002 256,66.75 256,65.231217 255.26878,64 253.75,64 Z M 253,72 v 1 h 0.97266 v -1 z"
       style="fill:#868686;fill-opacity:1"
       id="path6184" />
    <g
       id="g6007">
      <path
         d="m 258,25 c -1.98945,0.0017 -3.81914,2.018785 -4,4 h 2 c 0.1663,-0.814715 0.5676,-2.094787 2,-2 0.9665,0 2,1.033502 2,2 0,1.75 -3,2.484965 -3,6 h 2 c -0.17058,-2.433034 2.94186,-3.824397 3,-6 0,-2.126296 -1.46257,-4 -4,-4 z m -1,11 v 2 h 2 v -2 z"
         style="fill:#000000;opacity:0.2"
         id="path5742" />
      <path
         d="m 258,24 c -1.98945,0.0017 -3.81914,2.018785 -4,4 h 2 c 0.1663,-0.814715 0.5676,-2.094787 2,-2 0.9665,0 2,1.033502 2,2 0,1.75 -3,2.484965 -3,6 h 2 c -0.17058,-2.433034 2.94186,-3.824397 3,-6 0,-2.126296 -1.46257,-4 -4,-4 z m -1,11 v 2 h 2 v -2 z"
         style="fill:#868686;fill-opacity:1"
         id="path5714"
         sodipodi:nodetypes="ccccsccccccccc" />
    </g>
    <g
       id="g5567">
      <path
         d="m 183.49966,112.00003 c -2.84208,0.002 -5.21429,2.1697 -5.47266,5 h 3.02344 c 0.23758,-1.16387 1.26134,-1.99987 2.44922,-2 1.38071,0 2.5,1.11929 2.5,2.5 0,2.5 -4,2.50001 -4,7.52149 l 3,-0.043 c -0.24369,-3.47577 3.91694,-4.37051 4,-7.47852 0,-3.03756 -2.46243,-5.5 -5.5,-5.5 z m -1.5,15 v 3.08594 h 3 v -3.08594 z"
         style="fill:#000000;opacity:0.2"
         id="path5338" />
      <path
         d="m 183.49966,111.00003 c -2.84208,0.002 -5.21429,2.1697 -5.47266,5 h 3.02344 c 0.23758,-1.16387 1.26134,-1.99987 2.44922,-2 1.38071,0 2.5,1.11929 2.5,2.5 0,2.5 -4,2.50001 -4,7.52149 l 3,-0.043 c -0.24369,-3.47577 3.91694,-4.37051 4,-7.47852 0,-3.03756 -2.46243,-5.5 -5.5,-5.5 z m -1.5,15 v 3.08594 h 3 v -3.08594 z"
         style="fill:#868686;fill-opacity:1"
         id="path5310"
         sodipodi:nodetypes="scccscccssccccc" />
    </g>
    <g
       id="g4791">
      <path
         d="m 192,37 c -3.97891,0.003 -7.63828,4.03757 -8,8 h 4 c 0.33261,-1.62943 1.1352,-4.18957 4,-4 1.933,0 4,2.067 4,4 0,3.5 -6,4.96993 -6,12 h 4 c -0.34117,-4.86607 5.88372,-7.64879 6,-12 0,-4.25259 -2.92514,-8 -8,-8 z m -2,22 v 4 h 4 v -4 z"
         style="opacity:0.2;fill:#000000"
         id="path3427"
         sodipodi:nodetypes="ccccsccccccccc" />
      <path
         d="m 192,36 c -3.97891,0.003 -7.63828,4.03757 -8,8 h 4 c 0.33261,-1.62943 1.1352,-4.18957 4,-4 1.933,0 4,2.067 4,4 0,3.5 -6,4.96993 -6,12 h 4 c -0.34117,-4.86607 5.88372,-7.64879 6,-12 0,-4.25259 -2.92514,-8 -8,-8 z m -2,22 v 4 h 4 v -4 z"
         style="fill:#868686;fill-opacity:1"
         id="path3399"
         sodipodi:nodetypes="ccccsccccccccc" />
    </g>
    <g
       id="g4787">
      <path
         d="m 74,63 c -7.95782,0.006 -15.27656,8.07514 -16,16 h 8 c 0.66522,-3.25886 2.2704,-8.37914 8,-8 3.866,0 8,4.134 8,8 0,7 -12,9.93986 -12,24 h 8 C 77.31766,93.26786 89.76744,87.70242 90,79 90,70.49482 84.14972,63 74,63 Z m -4,44 v 8 h 8 v -8 z"
         style="opacity:0.2;fill:#000000;stroke-width:2"
         id="path4042" />
      <path
         d="m 74,62 c -7.95782,0.006 -15.27656,8.07514 -16,16 h 8 c 0.66522,-3.25886 2.2704,-8.37914 8,-8 3.866,0 8,4.134 8,8 0,7 -12,9.93986 -12,24 h 8 C 77.31766,92.26786 89.76744,86.70242 90,78 90,69.49482 84.14972,62 74,62 Z m -4,44 v 8 h 8 v -8 z"
         style="fill:#868686;fill-opacity:1;stroke-width:2"
         id="path4014" />
    </g>
  </g>
  <g
     id="g1758">
    <path
       d="m 256,56.5 v 5 c 0,0.5523 0.44771,1 1,1 h 5 z"
       style="opacity:0.2;fill:#000000;fill-opacity:1;stroke-width:0.5"
       id="path3295" />
    <path
       d="m 269,21 -8,-8 v 6.59375 C 261,20.373375 261.62775,21 262.40625,21 Z"
       style="opacity:0.2;fill:#000000"
       id="path1389"
       sodipodi:nodetypes="ccssc" />
    <path
       d="m 188,95 v 10 c 0,1.1046 0.89543,2 2,2 h 10 z"
       style="opacity:0.2"
       id="path1654"
       sodipodi:nodetypes="csscc" />
    <path
       style="opacity:0.2;fill:#000000"
       d="M 214,31 198,15 V 28.1875 C 198,29.74675 199.2555,31 200.8125,31 Z"
       id="path5454"
       sodipodi:nodetypes="ccssc" />
    <path
       d="M 118,51 86,19 V 45.375 C 86,48.4935 88.511,51 91.625,51 Z"
       style="opacity:0.2;fill:#000000;stroke-width:2"
       id="path1904" />
  </g>
  <g
     id="g1741">
    <path
       d="m 247,56 c -0.554,0 -1,0.446 -1,1 v 0.5 c 0,-0.554 0.446,-1 1,-1 h 9 l 5.5,5.500005 H 262 L 256,56 Z"
       style="opacity:0.2;fill:#ffffff;stroke-width:0.5"
       id="path3323" />
    <path
       d="M 248.375,12 C 247.61325,12 247,12.624791 247,13.400391 v 1 C 247,13.624791 247.61325,13 248.375,13 H 261 l 7.00044,7 H 269 l -8,-8 z"
       style="opacity:0.2;fill:#ffffff"
       id="path1445"
       sodipodi:nodetypes="sscsccccs" />
    <path
       d="m 170,94 c -1.108,0 -2,0.892 -2,2 v 1 c 0,-1.108 0.892,-2 2,-2 h 18 l 11,11.00001 h 1 L 188,94 Z"
       style="opacity:0.2;fill:#ffffff"
       id="path1710"
       sodipodi:nodetypes="sscsccccs" />
    <path
       style="opacity:0.2;fill:#ffffff"
       d="m 172.75,14 c -1.5235,0 -2.75,1.249581 -2.75,2.800781 v 1 C 170,16.249581 171.2265,15 172.75,15 H 198 l 15,15 h 1 L 198,14 Z"
       id="path5458"
       sodipodi:nodetypes="sscsccccs" />
    <path
       d="M 35.5,18 C 32.453,18 30,20.499162 30,23.601562 v 1 C 30,21.499162 32.453,19 35.5,19 H 86 L 117,49.999999 118,50 86,18 Z"
       style="opacity:0.2;fill:#ffffff;stroke-width:2"
       id="path1848"
       sodipodi:nodetypes="sscsccccs" />
  </g>
  <g
     id="g1753">
    <path
       d="m 256,56 v 5 c 0,0.5523 0.44771,1 1,1 h 5 z"
       style="opacity:1;fill:#fafafa;fill-opacity:1;stroke-width:0.5"
       id="path3129"
       sodipodi:nodetypes="csscc" />
    <path
       d="m 269,20 -8,-8 v 6.59375 C 261,19.373375 261.62775,20 262.40625,20 Z"
       style="fill:#fafafa;fill-opacity:1"
       id="path1361"
       sodipodi:nodetypes="ccssc" />
    <path
       d="m 188,94 v 10 c 0,1.1046 0.89543,2 2,2 h 10 z"
       style="fill:#fafafa;fill-opacity:1"
       id="path1682" />
    <path
       d="m 252.0005,91 v 3.1662 c 0,0.4584 0.3749,0.8333 0.8333,0.8333 H 256 Z"
       style="fill:#fafafa"
       id="path3501"
       sodipodi:nodetypes="csscc" />
    <path
       style="fill:#fafafa;fill-opacity:1"
       d="M 214,30 198,14 V 27.1875 C 198,28.74675 199.2555,30 200.8125,30 Z"
       id="path5456"
       sodipodi:nodetypes="ccssc" />
    <path
       d="M 118,50 86,18 V 44.375 C 86,47.4935 88.511,50 91.625,50 Z"
       style="fill:#fafafa;stroke-width:2;fill-opacity:1"
       id="path1876" />
  </g>
</svg>
