<?xml version="1.0" encoding="UTF-8" standalone="no"?>
<svg
   width="284"
   height="148"
   version="1.1"
   id="svg5462"
   sodipodi:docname="video-x-generic.svg"
   inkscape:version="1.2.2 (1:1.2.2+202305151914+b0a8486541)"
   xmlns:inkscape="http://www.inkscape.org/namespaces/inkscape"
   xmlns:sodipodi="http://sodipodi.sourceforge.net/DTD/sodipodi-0.dtd"
   xmlns="http://www.w3.org/2000/svg"
   xmlns:svg="http://www.w3.org/2000/svg">
  <defs
     id="defs5466" />
  <sodipodi:namedview
     id="namedview5464"
     pagecolor="#d2d2d2"
     bordercolor="#000000"
     borderopacity="0.25"
     inkscape:showpageshadow="2"
     inkscape:pageopacity="0"
     inkscape:pagecheckerboard="0"
     inkscape:deskcolor="#d2d2d2"
     showgrid="false"
     inkscape:zoom="4.7253521"
     inkscape:cx="142"
     inkscape:cy="74.068554"
     inkscape:window-width="1920"
     inkscape:window-height="1008"
     inkscape:window-x="0"
     inkscape:window-y="0"
     inkscape:window-maximized="1"
     inkscape:current-layer="svg5462"
     showborder="false"
     showguides="true" />
  <g
     id="Baseplate"
     transform="translate(160,10)"
     style="display:none">
    <text
       xml:space="preserve"
       style="font-size:12px;font-family:'Noto Sans';-inkscape-font-specification:'Noto Sans';text-align:end;text-anchor:end;opacity:1;fill:#000000;stroke-width:5;stroke-linecap:round;stroke-linejoin:round"
       x="71.631897"
       y="-0.48000813"
       id="context"
       transform="translate(-160,-10)"><tspan
         sodipodi:role="line"
         id="tspan1976"
         x="71.631897"
         y="-0.48000813"
         style="font-size:12px">mimetypes</tspan></text>
    <text
       xml:space="preserve"
       style="font-size:12px;font-family:'Noto Sans';-inkscape-font-specification:'Noto Sans';text-align:start;text-anchor:start;fill:#000000;stroke-width:5;stroke-linecap:round;stroke-linejoin:round"
       x="-74.127937"
       y="-10.480008"
       id="icon-name"><tspan
         sodipodi:role="line"
         id="tspan1976-6"
         x="-74.127937"
         y="-10.480008"
         style="font-style:normal;font-variant:normal;font-weight:bold;font-stretch:normal;font-size:12px;font-family:'Noto Sans';-inkscape-font-specification:'Noto Sans Bold';text-align:start;text-anchor:start">video-x-generic</tspan></text>
    <rect
       style="opacity:1;fill:#ffffff;stroke-width:5;stroke-linecap:round;stroke-linejoin:round"
       id="128x128"
       width="128"
       height="128"
       x="-150"
       y="0" />
    <rect
       style="opacity:1;fill:#ffffff;stroke-width:5;stroke-linecap:round;stroke-linejoin:round"
       id="64x64"
       width="64"
       height="64"
       x="0"
       y="0" />
    <rect
       style="opacity:1;fill:#ffffff;stroke-width:5;stroke-linecap:round;stroke-linejoin:round"
       id="48x48"
       width="48"
       height="48"
       x="0"
       y="80" />
    <rect
       style="opacity:1;fill:#ffffff;stroke-width:1.66667;stroke-linecap:round;stroke-linejoin:round"
       id="32x32"
       width="32"
       height="32"
       x="82"
       y="0" />
    <rect
       style="opacity:1;fill:#ffffff;stroke-width:5;stroke-linecap:round;stroke-linejoin:round"
       id="24x24"
       width="24"
       height="24"
       x="82"
       y="44" />
    <rect
       style="opacity:1;fill:#ffffff;stroke-width:5;stroke-linecap:round;stroke-linejoin:round"
       id="16x16"
       width="16"
       height="16"
       x="82"
       y="80" />
  </g>
  <g
     id="g8519">
    <rect
       style="opacity:0.2;fill:#000000;fill-opacity:1;stroke-width:5;stroke-linecap:round;stroke-linejoin:round"
       id="rect1176"
       width="40"
       height="36"
       x="164"
       y="97"
       ry="2" />
    <rect
       style="opacity:0.2;fill:#000000;fill-opacity:1;stroke-width:5;stroke-linecap:round;stroke-linejoin:round"
       id="rect1178"
       width="52"
       height="48.000004"
       x="166"
       y="19"
       ry="4" />
    <rect
       style="opacity:0.2;fill:#000000;stroke-width:10;stroke-linecap:round;stroke-linejoin:round"
       id="rect415"
       width="104"
       height="96.000008"
       x="22"
       y="27"
       ry="8" />
    <rect
       style="opacity:0.2;fill:#000000;fill-opacity:1;stroke-width:5;stroke-linecap:round;stroke-linejoin:round"
       id="rect1716"
       width="26"
       height="24"
       x="245"
       y="15"
       ry="2" />
    <rect
       style="opacity:0.2;fill:#000000;fill-opacity:1;stroke-width:5;stroke-linecap:round;stroke-linejoin:round"
       id="rect1843"
       width="20"
       height="18"
       x="244"
       y="57.5"
       ry="1" />
  </g>
  <g
     id="g8516">
    <rect
       style="opacity:1;fill:#5c5c5c;fill-opacity:1;stroke-width:5;stroke-linecap:round;stroke-linejoin:round"
       id="rect2029"
       width="16"
       height="15"
       x="242"
       y="91"
       ry="1" />
    <rect
       style="opacity:1;fill:#5c5c5c;fill-opacity:1;stroke-width:5;stroke-linecap:round;stroke-linejoin:round"
       id="rect1845"
       width="20"
       height="18"
       x="244"
       y="57"
       ry="1" />
    <rect
       style="opacity:1;fill:#5c5c5c;fill-opacity:1;stroke-width:5;stroke-linecap:round;stroke-linejoin:round"
       id="rect1714"
       width="26"
       height="24"
       x="245"
       y="14"
       ry="2" />
    <rect
       style="opacity:1;fill:#5c5c5c;fill-opacity:1;stroke-width:5;stroke-linecap:round;stroke-linejoin:round"
       id="rect1049"
       width="40"
       height="36"
       x="164"
       y="96"
       ry="2" />
    <rect
       style="fill:#5c5c5c;fill-opacity:1;stroke-width:3.99994"
       id="rect342"
       width="52"
       height="48"
       x="166"
       y="17.999996"
       ry="4" />
    <rect
       style="opacity:1;fill:#5c5c5c;fill-opacity:1;stroke-width:10;stroke-linecap:round;stroke-linejoin:round"
       id="rect470"
       width="104"
       height="96"
       x="22"
       y="26"
       ry="8" />
  </g>
  <g
     id="g308">
    <g
       id="g2383">
      <path
         d="M 246.42578,94 C 246.18835,94 246,94.205459 246,94.449219 v 8.101561 c 0,0.24376 0.18835,0.44922 0.42578,0.44922 h 7.14844 C 253.81165,103 254,102.79454 254,102.55078 V 94.449219 C 254,94.205459 253.81165,94 253.57422,94 Z m 1.97461,1 h 3.19922 C 251.82121,95 252,95.178791 252,95.400391 v 2.199218 C 252,97.821209 251.82121,98 251.59961,98 h -3.19922 C 248.17879,98 248,97.821209 248,97.599609 V 95.400391 C 248,95.178791 248.17879,95 248.40039,95 Z m -1.68164,0.1875 h 0.71875 v 0.75 h -0.71875 z m 5.84375,0 h 0.71875 v 0.75 h -0.71875 z m -5.84375,1.46875 h 0.71875 v 0.75 h -0.71875 z m 5.84375,0 h 0.71875 v 0.75 h -0.71875 z m -5.84375,1.46875 h 0.71875 v 0.75 h -0.71875 z m 5.84375,0 h 0.71875 v 0.75 H 252.5625 Z M 248.40039,99 h 3.19922 C 251.82121,99 252,99.178791 252,99.400391 v 2.199219 C 252,101.82121 251.82121,102 251.59961,102 h -3.19922 C 248.17879,102 248,101.82121 248,101.59961 V 99.400391 C 248,99.178791 248.17879,99 248.40039,99 Z m -1.68164,0.59375 h 0.71875 v 0.75 h -0.71875 z m 5.84375,0 h 0.71875 v 0.75 h -0.71875 z m -5.84375,1.46875 h 0.71875 v 0.75 h -0.71875 z m 5.84375,0 h 0.71875 v 0.75 h -0.71875 z"
         style="color:#000000;display:inline;overflow:visible;visibility:visible;fill:#ffffff;fill-opacity:1;fill-rule:nonzero;stroke:none;stroke-width:1;marker:none;enable-background:accumulate"
         id="path2161" />
    </g>
    <g
       id="g2404">
      <path
         d="M 249.53125,61.5 C 249.23446,61.5 249,61.7578 249,62.0625 v 9.875 c 0,0.3047 0.23446,0.5625 0.53125,0.5625 h 8.9375 C 258.76554,72.5 259,72.2422 259,71.9375 v -9.875 C 259,61.7578 258.76554,61.5 258.46875,61.5 Z m 0.1875,0.71875 h 0.71875 v 0.75 h -0.71875 z m 7.84375,0 h 0.71875 v 0.75 H 257.5625 Z M 251.5,62.5 h 5 c 0.277,0 0.5,0.223 0.5,0.5 v 3 c 0,0.277 -0.223,0.5 -0.5,0.5 h -5 c -0.277,0 -0.5,-0.223 -0.5,-0.5 v -3 c 0,-0.277 0.223,-0.5 0.5,-0.5 z m -1.78125,1.1875 h 0.71875 v 0.749999 h -0.71875 z m 7.84375,0 h 0.71875 v 0.749999 h -0.71875 z m -7.84375,1.46875 h 0.71875 v 0.75 h -0.71875 z m 7.84375,0 h 0.71875 v 0.75 h -0.71875 z m -7.84375,1.46875 h 0.71875 v 0.75 h -0.71875 z m 7.84375,0 h 0.71875 v 0.75 H 257.5625 Z M 251.5,67.5 h 5 c 0.277,0 0.5,0.223 0.5,0.5 v 3 c 0,0.277 -0.223,0.5 -0.5,0.5 h -5 c -0.277,0 -0.5,-0.223 -0.5,-0.5 v -3 c 0,-0.277 0.223,-0.5 0.5,-0.5 z m -1.78125,0.59375 h 0.71875 v 0.75 h -0.71875 z m 7.84375,0 h 0.71875 v 0.75 h -0.71875 z m -7.84375,1.46875 h 0.71875 v 0.75 h -0.71875 z m 7.84375,0 h 0.71875 v 0.75 h -0.71875 z m -7.84375,1.46875 h 0.71875 v 0.75 h -0.71875 z m 7.84375,0 h 0.71875 v 0.75 h -0.71875 z"
         style="color:#000000;display:inline;overflow:visible;visibility:visible;opacity:0.2;fill:#000000;fill-opacity:1;fill-rule:nonzero;stroke:none;stroke-width:1;marker:none;enable-background:accumulate"
         id="path2318"
         sodipodi:nodetypes="sssssssssccccccccccsssssssssccccccccccccccccccccccccccccccssssssssscccccccccccccccccccccccccccccc" />
      <path
         d="M 249.53125,61 C 249.23446,61 249,61.2578 249,61.5625 v 9.875 C 249,71.7422 249.23446,72 249.53125,72 h 8.9375 C 258.76554,72 259,71.7422 259,71.4375 v -9.875 C 259,61.2578 258.76554,61 258.46875,61 Z m 0.1875,0.71875 h 0.71875 v 0.75 h -0.71875 z m 7.84375,0 h 0.71875 v 0.75 H 257.5625 Z M 251.5,62 h 5 c 0.277,0 0.5,0.223 0.5,0.5 v 3 c 0,0.277 -0.223,0.5 -0.5,0.5 h -5 c -0.277,0 -0.5,-0.223 -0.5,-0.5 v -3 c 0,-0.277 0.223,-0.5 0.5,-0.5 z m -1.78125,1.1875 h 0.71875 v 0.749999 h -0.71875 z m 7.84375,0 h 0.71875 v 0.749999 h -0.71875 z m -7.84375,1.46875 h 0.71875 v 0.75 h -0.71875 z m 7.84375,0 h 0.71875 v 0.75 h -0.71875 z m -7.84375,1.46875 h 0.71875 v 0.75 h -0.71875 z m 7.84375,0 h 0.71875 v 0.75 H 257.5625 Z M 251.5,67 h 5 c 0.277,0 0.5,0.223 0.5,0.5 v 3 c 0,0.277 -0.223,0.5 -0.5,0.5 h -5 c -0.277,0 -0.5,-0.223 -0.5,-0.5 v -3 c 0,-0.277 0.223,-0.5 0.5,-0.5 z m -1.78125,0.59375 h 0.71875 v 0.75 h -0.71875 z m 7.84375,0 h 0.71875 v 0.75 h -0.71875 z m -7.84375,1.46875 h 0.71875 v 0.75 h -0.71875 z m 7.84375,0 h 0.71875 v 0.75 h -0.71875 z m -7.84375,1.46875 h 0.71875 v 0.75 h -0.71875 z m 7.84375,0 h 0.71875 v 0.75 h -0.71875 z"
         style="color:#000000;display:inline;overflow:visible;visibility:visible;fill:#ffffff;fill-opacity:1;fill-rule:nonzero;stroke:none;stroke-width:1;marker:none;enable-background:accumulate"
         id="path2346" />
    </g>
    <g
       id="g2170">
      <path
         d="M 253.53125,22 C 253.23446,22 253,22.2578 253,22.5625 v 9.875 C 253,32.7422 253.23446,33 253.53125,33 h 8.9375 C 262.76554,33 263,32.7422 263,32.4375 v -9.875 C 263,22.2578 262.76554,22 262.46875,22 Z m 0.1875,0.71875 h 0.71875 v 0.75 h -0.71875 z m 7.84375,0 h 0.71875 v 0.75 H 261.5625 Z M 255.5,23 h 5 c 0.277,0 0.5,0.223 0.5,0.5 v 3 c 0,0.277 -0.223,0.5 -0.5,0.5 h -5 c -0.277,0 -0.5,-0.223 -0.5,-0.5 v -3 c 0,-0.277 0.223,-0.5 0.5,-0.5 z m -1.78125,1.1875 h 0.71875 v 0.75 h -0.71875 z m 7.84375,0 h 0.71875 v 0.75 h -0.71875 z m -7.84375,1.46875 h 0.71875 v 0.75 h -0.71875 z m 7.84375,0 h 0.71875 v 0.75 h -0.71875 z m -7.84375,1.46875 h 0.71875 v 0.75 h -0.71875 z m 7.84375,0 h 0.71875 v 0.75 H 261.5625 Z M 255.5,28 h 5 c 0.277,0 0.5,0.223 0.5,0.5 v 3 c 0,0.277 -0.223,0.5 -0.5,0.5 h -5 c -0.277,0 -0.5,-0.223 -0.5,-0.5 v -3 c 0,-0.277 0.223,-0.5 0.5,-0.5 z m -1.78125,0.59375 h 0.71875 v 0.75 h -0.71875 z m 7.84375,0 h 0.71875 v 0.75 h -0.71875 z m -7.84375,1.46875 h 0.71875 v 0.75 h -0.71875 z m 7.84375,0 h 0.71875 v 0.75 h -0.71875 z m -7.84375,1.46875 h 0.71875 v 0.75 h -0.71875 z m 7.84375,0 h 0.71875 v 0.75 h -0.71875 z"
         style="color:#000000;display:inline;overflow:visible;visibility:visible;fill:#000000;fill-opacity:1;fill-rule:nonzero;stroke:none;stroke-width:1;marker:none;enable-background:accumulate;opacity:0.2"
         id="path1855"
         sodipodi:nodetypes="sssssssssccccccccccsssssssssccccccccccccccccccccccccccccccssssssssscccccccccccccccccccccccccccccc" />
      <path
         d="M 253.53125,21 C 253.23446,21 253,21.2578 253,21.5625 v 9.875 C 253,31.7422 253.23446,32 253.53125,32 h 8.9375 C 262.76554,32 263,31.7422 263,31.4375 v -9.875 C 263,21.2578 262.76554,21 262.46875,21 Z m 0.1875,0.71875 h 0.71875 v 0.75 h -0.71875 z m 7.84375,0 h 0.71875 v 0.75 H 261.5625 Z M 255.5,22 h 5 c 0.277,0 0.5,0.223 0.5,0.5 v 3 c 0,0.277 -0.223,0.5 -0.5,0.5 h -5 c -0.277,0 -0.5,-0.223 -0.5,-0.5 v -3 c 0,-0.277 0.223,-0.5 0.5,-0.5 z m -1.78125,1.1875 h 0.71875 v 0.75 h -0.71875 z m 7.84375,0 h 0.71875 v 0.75 h -0.71875 z m -7.84375,1.46875 h 0.71875 v 0.75 h -0.71875 z m 7.84375,0 h 0.71875 v 0.75 h -0.71875 z m -7.84375,1.46875 h 0.71875 v 0.75 h -0.71875 z m 7.84375,0 h 0.71875 v 0.75 H 261.5625 Z M 255.5,27 h 5 c 0.277,0 0.5,0.223 0.5,0.5 v 3 c 0,0.277 -0.223,0.5 -0.5,0.5 h -5 c -0.277,0 -0.5,-0.223 -0.5,-0.5 v -3 c 0,-0.277 0.223,-0.5 0.5,-0.5 z m -1.78125,0.59375 h 0.71875 v 0.75 h -0.71875 z m 7.84375,0 h 0.71875 v 0.75 h -0.71875 z m -7.84375,1.46875 h 0.71875 v 0.75 h -0.71875 z m 7.84375,0 h 0.71875 v 0.75 h -0.71875 z m -7.84375,1.46875 h 0.71875 v 0.75 h -0.71875 z m 7.84375,0 h 0.71875 v 0.75 h -0.71875 z"
         style="color:#000000;display:inline;overflow:visible;visibility:visible;fill:#ffffff;fill-opacity:1;fill-rule:nonzero;stroke:none;stroke-width:1;marker:none;enable-background:accumulate"
         id="path1883" />
    </g>
    <g
       id="g1272"
       transform="translate(-35.8853,-5.89874)">
      <path
         d="m 210.9478,109.89874 c -0.59357,0 -1.0625,0.5156 -1.0625,1.125 v 19.74999 c 0,0.6094 0.46893,1.125 1.0625,1.125 h 17.875 c 0.59357,0 1.0625,-0.5156 1.0625,-1.125 v -19.74999 c 0,-0.6094 -0.46893,-1.125 -1.0625,-1.125 z m 0.375,1.4375 h 1.4375 v 1.5 h -1.4375 z m 15.6875,0 h 1.4375 v 1.5 h -1.4375 z m -12.125,0.5625 h 10 c 0.554,0 1,0.446 1,1 v 6 c 0,0.55399 -0.446,1 -1,1 h -10 c -0.554,0 -1,-0.44601 -1,-1 v -6.00001 c 0,-0.55399 0.446,-1 1,-0.99999 z m -3.5625,2.375 h 1.4375 v 1.5 h -1.4375 z m 15.6875,0 h 1.4375 v 1.5 h -1.4375 z m -15.6875,2.9375 h 1.4375 v 1.5 h -1.4375 z m 15.6875,0 h 1.4375 v 1.5 h -1.4375 z m -15.6875,2.9375 h 1.4375 v 1.5 h -1.4375 z m 15.6875,0 h 1.4375 v 1.5 h -1.4375 z m -12.125,1.75 h 10 c 0.554,0 1,0.446 1,1 v 5.99999 c 0,0.55401 -0.446,1 -1,1 h -10 c -0.554,0 -1,-0.44599 -1,-1 v -5.99999 c 0,-0.554 0.446,-1 1,-1 z m -3.5625,1.1875 h 1.4375 v 1.5 h -1.4375 z m 15.6875,0 h 1.4375 v 1.5 h -1.4375 z m -15.6875,2.9375 h 1.4375 v 1.5 h -1.4375 z m 15.6875,0 h 1.4375 v 1.5 h -1.4375 z m -15.6875,2.93749 h 1.4375 v 1.5 h -1.4375 z m 15.6875,0 h 1.4375 v 1.5 h -1.4375 z"
         style="color:#000000;display:inline;overflow:visible;visibility:visible;opacity:0.2;fill:#000000;fill-opacity:1;fill-rule:nonzero;stroke:none;stroke-width:2;marker:none;enable-background:accumulate"
         id="path1217" />
      <path
         d="m 210.9478,108.89874 c -0.59357,0 -1.0625,0.5156 -1.0625,1.125 v 19.74999 c 0,0.6094 0.46893,1.125 1.0625,1.125 h 17.875 c 0.59357,0 1.0625,-0.5156 1.0625,-1.125 v -19.74999 c 0,-0.6094 -0.46893,-1.125 -1.0625,-1.125 z m 0.375,1.4375 h 1.4375 v 1.5 h -1.4375 z m 15.6875,0 h 1.4375 v 1.5 h -1.4375 z m -12.125,0.5625 h 10 c 0.554,0 1,0.446 1,1 v 6 c 0,0.55399 -0.446,1 -1,1 h -10 c -0.554,0 -1,-0.44601 -1,-1 v -6 c 0,-0.554 0.446,-1 1,-1 z m -3.5625,2.375 h 1.4375 v 1.5 h -1.4375 z m 15.6875,0 h 1.4375 v 1.5 h -1.4375 z m -15.6875,2.9375 h 1.4375 v 1.5 h -1.4375 z m 15.6875,0 h 1.4375 v 1.5 h -1.4375 z m -15.6875,2.9375 h 1.4375 v 1.5 h -1.4375 z m 15.6875,0 h 1.4375 v 1.5 h -1.4375 z m -12.125,1.75 h 10 c 0.554,0 1,0.446 1,1 v 6 c 0,0.554 -0.446,0.99999 -1,0.99999 h -10 c -0.554,0 -1,-0.44599 -1,-0.99999 v -6 c 0,-0.554 0.446,-1 1,-1 z m -3.5625,1.1875 h 1.4375 v 1.5 h -1.4375 z m 15.6875,0 h 1.4375 v 1.5 h -1.4375 z m -15.6875,2.9375 h 1.4375 v 1.5 h -1.4375 z m 15.6875,0 h 1.4375 v 1.5 h -1.4375 z m -15.6875,2.9375 h 1.4375 v 1.49999 h -1.4375 z m 15.6875,0 h 1.4375 v 1.49999 h -1.4375 z"
         style="color:#000000;display:inline;overflow:visible;visibility:visible;fill:#ffffff;fill-opacity:1;fill-rule:nonzero;stroke:none;stroke-width:2;marker:none;enable-background:accumulate"
         id="path1189" />
    </g>
    <g
       id="g303">
      <path
         d="m 179.5,28 c -0.831,0 -1.5,0.669 -1.5,1.5 v 27 c 0,0.831 0.669,1.5 1.5,1.5 h 25 c 0.831,0 1.5,-0.669 1.5,-1.5 v -27 c 0,-0.831 -0.669,-1.5 -1.5,-1.5 z m 0.5,2 h 2 v 2 h -2 z m 5,0 h 14 c 0.554,0 1,0.446 1,1 v 10 c 0,0.554 -0.446,1 -1,1 h -14 c -0.554,0 -1,-0.446 -1,-1 V 31 c 0,-0.554 0.446,-1 1,-1 z m 17,0 h 2 v 2 h -2 z m -22,4 h 2 v 2 h -2 z m 22,0 h 2 v 2 h -2 z m -22,4 h 2 v 2 h -2 z m 22,0 h 2 v 2 h -2 z m -22,4 h 2 v 2 h -2 z m 22,0 h 2 v 2 h -2 z m -17,2 h 14 c 0.554,0 1,0.446 1,1 v 10 c 0,0.554 -0.446,1 -1,1 h -14 c -0.554,0 -1,-0.446 -1,-1 V 45 c 0,-0.554 0.446,-1 1,-1 z m -5,2 h 2 v 2 h -2 z m 22,0 h 2 v 2 h -2 z m -22,4 h 2 v 2 h -2 z m 22,0 h 2 v 2 h -2 z m -22,4 h 2 v 2 h -2 z m 22,0 h 2 v 2 h -2 z"
         style="opacity:0.2;fill:#000000;fill-opacity:1;stroke:none;stroke-width:4;stroke-miterlimit:4;stroke-dasharray:none;stroke-opacity:1"
         id="path2852" />
      <path
         d="m 179.5,27 c -0.831,0 -1.5,0.669 -1.5,1.5 v 27 c 0,0.831 0.669,1.5 1.5,1.5 h 25 c 0.831,0 1.5,-0.669 1.5,-1.5 v -27 c 0,-0.831 -0.669,-1.5 -1.5,-1.5 z m 0.5,2 h 2 v 2 h -2 z m 5,0 h 14 c 0.554,0 1,0.446 1,1 v 10 c 0,0.554 -0.446,1 -1,1 h -14 c -0.554,0 -1,-0.446 -1,-1 V 30 c 0,-0.554 0.446,-1 1,-1 z m 17,0 h 2 v 2 h -2 z m -22,4 h 2 v 2 h -2 z m 22,0 h 2 v 2 h -2 z m -22,4 h 2 v 2 h -2 z m 22,0 h 2 v 2 h -2 z m -22,4 h 2 v 2 h -2 z m 22,0 h 2 v 2 h -2 z m -17,2 h 14 c 0.554,0 1,0.446 1,1 v 10 c 0,0.554 -0.446,1 -1,1 h -14 c -0.554,0 -1,-0.446 -1,-1 V 44 c 0,-0.554 0.446,-1 1,-1 z m -5,2 h 2 v 2 h -2 z m 22,0 h 2 v 2 h -2 z m -22,4 h 2 v 2 h -2 z m 22,0 h 2 v 2 h -2 z m -22,4 h 2 v 2 h -2 z m 22,0 h 2 v 2 h -2 z"
         style="fill:#ffffff;fill-opacity:1;stroke:none;stroke-width:4;stroke-miterlimit:4;stroke-dasharray:none;stroke-opacity:1"
         id="path2650"
         sodipodi:nodetypes="ssssssssscccccssssssssscccccccccccccccccccccccccccccccccccssssssssscccccccccccccccccccccccccccccc" />
    </g>
    <g
       id="g1560"
       transform="matrix(2,0,0,2,-310,-10)">
      <path
         d="m 179.5,27.5 c -0.831,0 -1.5,0.669 -1.5,1.5 v 27 c 0,0.831 0.669,1.5 1.5,1.5 h 25 c 0.831,0 1.5,-0.669 1.5,-1.5 V 29 c 0,-0.831 -0.669,-1.5 -1.5,-1.5 z m 0.5,2 h 2 v 2 h -2 z m 5,0 h 14 c 0.554,0 1,0.446 1,1 v 10 c 0,0.554 -0.446,1 -1,1 h -14 c -0.554,0 -1,-0.446 -1,-1 v -10 c 0,-0.554 0.446,-1 1,-1 z m 17,0 h 2 v 2 h -2 z m -22,4 h 2 v 2 h -2 z m 22,0 h 2 v 2 h -2 z m -22,4 h 2 v 2 h -2 z m 22,0 h 2 v 2 h -2 z m -22,4 h 2 v 2 h -2 z m 22,0 h 2 v 2 h -2 z m -17,2 h 14 c 0.554,0 1,0.446 1,1 v 10 c 0,0.554 -0.446,1 -1,1 h -14 c -0.554,0 -1,-0.446 -1,-1 v -10 c 0,-0.554 0.446,-1 1,-1 z m -5,2 h 2 v 2 h -2 z m 22,0 h 2 v 2 h -2 z m -22,4 h 2 v 2 h -2 z m 22,0 h 2 v 2 h -2 z m -22,4 h 2 v 2 h -2 z m 22,0 h 2 v 2 h -2 z"
         style="opacity:0.2;fill:#000000;fill-opacity:1;stroke:none;stroke-width:4;stroke-miterlimit:4;stroke-dasharray:none;stroke-opacity:1"
         id="path1538" />
      <path
         d="m 179.5,27 c -0.831,0 -1.5,0.669 -1.5,1.5 v 27 c 0,0.831 0.669,1.5 1.5,1.5 h 25 c 0.831,0 1.5,-0.669 1.5,-1.5 v -27 c 0,-0.831 -0.669,-1.5 -1.5,-1.5 z m 0.5,2 h 2 v 2 h -2 z m 5,0 h 14 c 0.554,0 1,0.446 1,1 v 10 c 0,0.554 -0.446,1 -1,1 h -14 c -0.554,0 -1,-0.446 -1,-1 V 30 c 0,-0.554 0.446,-1 1,-1 z m 17,0 h 2 v 2 h -2 z m -22,4 h 2 v 2 h -2 z m 22,0 h 2 v 2 h -2 z m -22,4 h 2 v 2 h -2 z m 22,0 h 2 v 2 h -2 z m -22,4 h 2 v 2 h -2 z m 22,0 h 2 v 2 h -2 z m -17,2 h 14 c 0.554,0 1,0.446 1,1 v 10 c 0,0.554 -0.446,1 -1,1 h -14 c -0.554,0 -1,-0.446 -1,-1 V 44 c 0,-0.554 0.446,-1 1,-1 z m -5,2 h 2 v 2 h -2 z m 22,0 h 2 v 2 h -2 z m -22,4 h 2 v 2 h -2 z m 22,0 h 2 v 2 h -2 z m -22,4 h 2 v 2 h -2 z m 22,0 h 2 v 2 h -2 z"
         style="fill:#ffffff;fill-opacity:1;stroke:none;stroke-width:4;stroke-miterlimit:4;stroke-dasharray:none;stroke-opacity:1"
         id="path1510"
         sodipodi:nodetypes="ssssssssscccccssssssssscccccccccccccccccccccccccccccccccccssssssssscccccccccccccccccccccccccccccc" />
    </g>
  </g>
  <g
     id="g311">
    <path
       d="m 247,14 c -1.108,0 -2,0.892 -2,2 v 1 c 0,-1.108 0.892,-2 2,-2 h 22 c 1.108,0 2,0.892 2,2 v -1 c 0,-1.108 -0.892,-2 -2,-2 z"
       style="opacity:0.2;fill:#ffffff;stroke-width:1"
       id="path1911"
       sodipodi:nodetypes="sscsscsss" />
    <path
       d="m 245,57 c -0.554,0 -1,0.446 -1,1 v 0.5 c 0,-0.554 0.446,-1 1,-1 h 18 c 0.554,0 1,0.446 1,1 V 58 c 0,-0.554 -0.446,-1 -1,-1 z"
       style="opacity:0.2;fill:#ffffff;stroke-width:0.5"
       id="path1939" />
    <path
       d="m 166,96 c -1.108,0 -2,0.892 -2,2 v 1 c 0,-1.108 0.892,-2 2,-2 h 36 c 1.108,0 2,0.892 2,2 v -1 c 0,-1.108 -0.892,-2 -2,-2 z"
       style="opacity:0.2;fill:#ffffff;stroke-width:1"
       id="path1282"
       sodipodi:nodetypes="sscsscsss" />
    <path
       d="m 170,18 c -2.216,0 -4,1.784 -4,4 v 1 c 0,-2.216 1.784,-4 4,-4 h 44 c 2.216,0 4,1.784 4,4 v -1 c 0,-2.216 -1.784,-4 -4,-4 z"
       style="opacity:0.2;fill:#ffffff;stroke-width:2"
       id="path894"
       sodipodi:nodetypes="sscsscsss" />
    <path
       id="path949"
       style="opacity:0.2;fill:#ffffff;stroke-width:4"
       d="m 30,26 c -4.432,0 -8,3.568004 -8,8 v 1 c 0,-4.431996 3.568,-8 8,-8 h 88 c 4.432,0 8,3.568004 8,8 v -1 c 0,-4.431996 -3.568,-8 -8,-8 z" />
  </g>
</svg>
