<?xml version="1.0" encoding="UTF-8" standalone="no"?>
<svg
   width="284"
   height="148"
   version="1.1"
   id="svg5462"
   sodipodi:docname="x-office-presentation.svg"
   inkscape:version="1.2.2 (1:1.2.2+202305151914+b0a8486541)"
   xmlns:inkscape="http://www.inkscape.org/namespaces/inkscape"
   xmlns:sodipodi="http://sodipodi.sourceforge.net/DTD/sodipodi-0.dtd"
   xmlns="http://www.w3.org/2000/svg"
   xmlns:svg="http://www.w3.org/2000/svg">
  <defs
     id="defs5466" />
  <sodipodi:namedview
     id="namedview5464"
     pagecolor="#d2d2d2"
     bordercolor="#000000"
     borderopacity="0.25"
     inkscape:showpageshadow="2"
     inkscape:pageopacity="0"
     inkscape:pagecheckerboard="0"
     inkscape:deskcolor="#d2d2d2"
     showgrid="false"
     inkscape:zoom="4.6267606"
     inkscape:cx="142.21613"
     inkscape:cy="73.917808"
     inkscape:window-width="1920"
     inkscape:window-height="1008"
     inkscape:window-x="0"
     inkscape:window-y="0"
     inkscape:window-maximized="1"
     inkscape:current-layer="g2241"
     showborder="false"
     showguides="true" />
  <g
     id="Baseplate"
     transform="translate(160,10)"
     style="display:none">
    <text
       xml:space="preserve"
       style="font-size:12px;font-family:'Noto Sans';-inkscape-font-specification:'Noto Sans';text-align:end;text-anchor:end;opacity:1;fill:#000000;stroke-width:5;stroke-linecap:round;stroke-linejoin:round"
       x="71.631897"
       y="-0.48000813"
       id="context"
       transform="translate(-160,-10)"><tspan
         sodipodi:role="line"
         id="tspan1976"
         x="71.631897"
         y="-0.48000813"
         style="font-size:12px">mimetypes</tspan></text>
    <text
       xml:space="preserve"
       style="font-size:12px;font-family:'Noto Sans';-inkscape-font-specification:'Noto Sans';text-align:start;text-anchor:start;fill:#000000;stroke-width:5;stroke-linecap:round;stroke-linejoin:round"
       x="-74.127937"
       y="-10.480008"
       id="icon-name"><tspan
         sodipodi:role="line"
         id="tspan1976-6"
         x="-74.127937"
         y="-10.480008"
         style="font-style:normal;font-variant:normal;font-weight:bold;font-stretch:normal;font-size:12px;font-family:'Noto Sans';-inkscape-font-specification:'Noto Sans Bold';text-align:start;text-anchor:start">x-office-presentation</tspan></text>
    <rect
       style="opacity:1;fill:#ffffff;stroke-width:5;stroke-linecap:round;stroke-linejoin:round"
       id="128x128"
       width="128"
       height="128"
       x="-150"
       y="0" />
    <rect
       style="opacity:1;fill:#ffffff;stroke-width:5;stroke-linecap:round;stroke-linejoin:round"
       id="64x64"
       width="64"
       height="64"
       x="0"
       y="0" />
    <rect
       style="opacity:1;fill:#ffffff;stroke-width:5;stroke-linecap:round;stroke-linejoin:round"
       id="48x48"
       width="48"
       height="48"
       x="0"
       y="80" />
    <rect
       style="opacity:1;fill:#ffffff;stroke-width:1.66667;stroke-linecap:round;stroke-linejoin:round"
       id="32x32"
       width="32"
       height="32"
       x="82"
       y="0" />
    <rect
       style="opacity:1;fill:#ffffff;stroke-width:5;stroke-linecap:round;stroke-linejoin:round"
       id="24x24"
       width="24"
       height="24"
       x="82"
       y="44" />
    <rect
       style="opacity:1;fill:#ffffff;stroke-width:5;stroke-linecap:round;stroke-linejoin:round"
       id="16x16"
       width="16"
       height="16"
       x="82"
       y="80" />
  </g>
  <g
     id="g1767">
    <path
       d="m 247,56.5 c -0.554,0 -1,0.446 -1,1 v 18 c 0,0.554 0.446,1 1,1 h 14 c 0.554,0 1,-0.446 1,-1 v -13 L 256.5,62 256,56.5 Z"
       style="opacity:0.2;fill:#000000"
       id="path3101" />
    <path
       d="M 248.375,13 C 247.61325,13 247,13.6244 247,14.4 v 25.2 c 0,0.77504 0.61325,1.4 1.375,1.4 h 19.25 C 268.3862,41 269,40.37504 269,39.6 V 22 l -7,-2 -2,-7 z"
       style="opacity:0.2;fill:#000000"
       id="path1417" />
    <path
       d="m 170,95 c -1.108,0 -2,0.892 -2,2 v 36 c 0,1.108 0.892,2 2,2 h 28 c 1.108,0 2,-0.892 2,-2 v -26 l -11,-1 -1,-11 z"
       style="opacity:0.2;fill:#000000"
       id="path1626" />
    <path
       style="opacity:0.2;fill:#000000"
       d="m 172.75,15 c -1.5235,0 -2.75,1.2488 -2.75,2.8 v 50.4 c 0,1.55008 1.2265,2.8 2.75,2.8 h 38.5 c 1.5224,0 2.75,-1.24992 2.75,-2.8 V 33 l -14,-4 -4,-14 z"
       id="path5450" />
    <path
       d="m 35.499997,19 c -3.047,0 -5.5,2.4976 -5.5,5.6 v 100.8 c 0,3.10017 2.453,5.6 5.5,5.6 H 112.5 c 3.0448,0 5.5,-2.49984 5.5,-5.6 V 50.999999 l -24,-8 L 86,19 Z"
       style="fill:#000000;stroke-width:2;opacity:0.2"
       id="path1820" />
  </g>
  <g
     id="g1733">
    <path
       d="M 248.375,12 C 247.61325,12 247,12.6244 247,13.4 v 25.2 c 0,0.77504 0.61325,1.4 1.375,1.4 h 19.25 C 268.3862,40 269,39.37504 269,38.6 V 20 l -6,-2 -2,-6 z"
       style="fill:#e4e4e4;fill-opacity:1"
       id="path1333"
       sodipodi:nodetypes="sssssscccs" />
    <path
       d="m 247,56 c -0.554,0 -1,0.446 -1,1 v 18 c 0,0.554 0.446,1 1,1 h 14 c 0.554,0 1,-0.446 1,-1 V 62 L 256.5,61.5 256,56 Z"
       style="fill:#e4e4e4"
       id="path3073"
       sodipodi:nodetypes="sssssscccs" />
    <path
       d="m 244.75,91 c -0.4172,0 -0.75,0.3328 -0.75,0.75 v 13.5 c 0,0.417 0.3328,0.75 0.75,0.75 h 10.5 c 0.418,0 0.75,-0.332 0.75,-0.75 V 94.9995 L 252.8755,94.1245 252.0005,91 Z"
       style="fill:#e4e4e4"
       id="path3473"
       sodipodi:nodetypes="sssssscccs" />
    <path
       d="m 170,94 c -1.108,0 -2,0.892 -2,2 v 36 c 0,1.108 0.892,2 2,2 h 28 c 1.108,0 2,-0.892 2,-2 v -26 l -11,-1 -1,-11 z"
       style="fill:#e4e4e4;fill-opacity:1"
       id="path1598" />
    <path
       style="fill:#e4e4e4;fill-opacity:1"
       d="m 172.75,14 c -1.5235,0 -2.75,1.2488 -2.75,2.8 v 50.4 c 0,1.55008 1.2265,2.8 2.75,2.8 h 38.5 c 1.5224,0 2.75,-1.24992 2.75,-2.8 V 30 l -12,-4 -4,-12 z"
       id="path5452"
       sodipodi:nodetypes="sssssscccs" />
    <path
       d="M 35.5,18 C 32.453,18 30,20.4976 30,23.6 v 100.8 c 0,3.10016 2.453,5.6 5.5,5.6 h 77 c 3.0448,0 5.5,-2.49984 5.5,-5.6 V 49.999999 l -24,-8 L 86,18 Z"
       style="fill:#e4e4e4;stroke-width:2;fill-opacity:1"
       id="path1792"
       sodipodi:nodetypes="sssssscccs" />
  </g>
  <g
     id="g2241">
    <g
       id="g2963">
      <path
         d="m 251,98 v 1 h 3 v -1 z m 0,2 v 1 h 3 v -1 z m -5,3 v 1 h 6 v -1 z"
         style="fill:#757575;fill-opacity:1;stroke-width:0.5"
         id="path2884"
         sodipodi:nodetypes="ccccccccccccccc" />
      <path
         d="m 248,98 c -1.10455,0 -2,0.89545 -2,2 0,1.10455 0.89545,2 2,2 1.10455,0 2,-0.89545 2,-2 h -2 z"
         style="fill:#ff5722;fill-opacity:1;stroke-width:0.333333"
         id="path2912" />
      <path
         d="m 246,100 c 0,1.10457 0.89543,2 2,2 1.10457,0 2,-0.89543 2,-2 z"
         style="opacity:0.2;fill:#ffffff;fill-opacity:1;stroke-width:0.666667;stroke-linecap:square"
         id="path2940" />
    </g>
    <g
       id="g2863">
      <path
         d="m 254,66.5 v 1 h 5 v -1 z m 0,2 v 1 h 5 v -1 z m -5,3 v 1 h 8 v -1 z m 2,-5 c -1.10455,0 -2,0.89545 -2,2 0,1.10455 0.89545,2 2,2 1.10455,0 2,-0.89545 2,-2 h -2 z"
         style="fill:#000000;fill-opacity:1;stroke-width:0.5;opacity:0.2"
         id="path2811" />
      <path
         d="m 254,66 v 1 h 5 v -1 z m 0,2 v 1 h 5 v -1 z m -5,3 v 1 h 8 v -1 z"
         style="fill:#757575;fill-opacity:1;stroke-width:0.5"
         id="path2755"
         sodipodi:nodetypes="ccccccccccccccc" />
      <path
         d="m 251,66 c -1.10455,0 -2,0.89545 -2,2 0,1.10455 0.89545,2 2,2 1.10455,0 2,-0.89545 2,-2 h -2 z"
         style="fill:#ff5722;fill-opacity:1;stroke-width:0.333333"
         id="path2783"
         sodipodi:nodetypes="cssccc" />
      <path
         d="m 249,68 c 0,1.104569 0.89543,2 2,2 1.10457,0 2,-0.895431 2,-2 z"
         style="opacity:0.2;fill:#ffffff;fill-opacity:1;stroke-width:0.666667;stroke-linecap:square"
         id="path2839"
         sodipodi:nodetypes="cscc" />
    </g>
    <g
       id="g2869">
      <path
         id="path2519"
         style="opacity:0.2;fill:#000000;fill-opacity:1;stroke-width:0.5"
         d="m 254,27 c -1.65683,0 -3,1.343177 -3,3 0,1.656823 1.34317,3 3,3 1.65682,0 3,-1.343177 3,-3 h -3 z m 5,1 v 1 h 6 v -1 z m 0,3 v 1 h 6 v -1 z m -8,4 v 1 h 10 v -1 z"
         sodipodi:nodetypes="csscccccccccccccccccc" />
      <path
         d="m 259,27 v 1 h 6 v -1 z m 0,3 v 1 h 6 v -1 z m -8,4 v 1 h 10 v -1 z"
         style="fill:#757575;fill-opacity:1;stroke-width:0.5"
         id="path2408"
         sodipodi:nodetypes="ccccccccccccccc" />
      <path
         d="m 254,26 c -1.65683,0 -3,1.343175 -3,3 0,1.656825 1.34317,3 3,3 1.65682,0 3,-1.343175 3,-3 h -3 z"
         style="fill:#ff5722;fill-opacity:1;stroke-width:0.5"
         id="path2436"
         sodipodi:nodetypes="cssccc" />
      <path
         d="m 251,29 c 0,1.656854 1.34315,3 3,3 1.65685,0 3,-1.343146 3,-3 z"
         style="opacity:0.2;fill:#ffffff;fill-opacity:1;stroke-width:1;stroke-linecap:square"
         id="path2464"
         sodipodi:nodetypes="cscc" />
    </g>
    <g
       id="g362">
      <path
         id="path3001"
         style="opacity:0.2;fill:#000000;fill-opacity:1;stroke-width:1"
         d="m 179,113 c -2.76138,0 -5,2.23862 -5,5 0,2.76138 2.23862,5 5,5 2.76138,0 5,-2.23862 5,-5 h -5 z m 7,2 v 2 h 8 v -2 z m 0,5 v 2 h 8 v -2 z m -12,6 v 2 h 16 v -2 z"
         sodipodi:nodetypes="csscccccccccccccccccc" />
      <path
         d="m 186,114 v 2 h 8 v -2 z m 0,5 v 2 h 8 v -2 z m -12,6 v 2 h 16 v -2 z"
         style="fill:#757575;fill-opacity:1;stroke-width:1"
         id="path2973"
         sodipodi:nodetypes="ccccccccccccccc" />
      <path
         d="m 179,112 c -2.76138,0 -5,2.23862 -5,5 0,2.76138 2.23862,5 5,5 2.76138,0 5,-2.23862 5,-5 h -5 z"
         style="fill:#ff5722;fill-opacity:1;stroke-width:0.833332"
         id="path3029" />
      <path
         d="m 174,117 c 0,2.76143 2.23858,5 5,5 2.76142,0 5,-2.23857 5,-5 z"
         style="opacity:0.2;fill:#ffffff;fill-opacity:1;stroke-width:1.66666;stroke-linecap:square"
         id="path3057" />
    </g>
    <g
       id="g2234">
      <path
         id="path308"
         style="opacity:0.2;fill:#000000"
         d="m 184,44 c -3.31365,0 -6,2.686353 -6,6 0,3.313647 2.68635,6 6,6 3.31365,0 6,-2.686353 6,-6 h -6 z m 9,0 v 2 h 13 v -2 z m 0,5 v 2 h 13 v -2 z m 0,5 v 2 h 13 v -2 z m -15,6 v 2 h 20 v -2 z"
         sodipodi:nodetypes="cssccccccccccccccccccccccc" />
      <path
         id="path1705"
         style="fill:#757575;fill-opacity:1"
         d="m 193,43 v 2 h 13 v -2 z m 0,5 v 2 h 13 v -2 z m 0,5 v 2 h 13 v -2 z m -15,6 v 2 h 20 v -2 z"
         sodipodi:nodetypes="cccccccccccccccccccc" />
      <path
         d="m 184,43 c -3.31365,0 -6,2.68635 -6,6 0,3.31365 2.68635,6 6,6 3.31365,0 6,-2.68635 6,-6 h -6 z"
         style="fill:#ff5722;fill-opacity:1"
         id="path549"
         sodipodi:nodetypes="cssccc" />
      <path
         id="path1588"
         style="opacity:0.2;fill:#ffffff;fill-opacity:1;stroke-width:2;stroke-linecap:square"
         d="m 178,49 c 0,3.313708 2.68629,6 6,6 3.31371,0 6,-2.686292 6,-6 z"
         sodipodi:nodetypes="cscc" />
    </g>
    <g
       id="g2344"
       transform="matrix(2,0,0,2,-310,-10)">
      <path
         d="m 184,43.5 c -3.31365,0 -6,2.686353 -6,6 0,3.313647 2.68635,6 6,6 3.31365,0 6,-2.686353 6,-6 h -6 z m 9,0 v 2 h 13 v -2 z m 0,5 v 2 h 13 v -2 z m 0,5 v 2 h 13 v -2 z m -15,6 v 2 h 20 v -2 z"
         style="opacity:0.2;fill:#000000"
         id="path2264"
         sodipodi:nodetypes="cssccccccccccccccccccccccc" />
      <path
         d="m 193,43 v 2 h 13 v -2 z m 0,5 v 2 h 13 v -2 z m 0,5 v 2 h 13 v -2 z m -15,6 v 2 h 20 v -2 z"
         style="fill:#757575;fill-opacity:1"
         id="path2222"
         sodipodi:nodetypes="cccccccccccccccccccc" />
      <path
         d="m 184,43 c -3.31365,0 -6,2.68635 -6,6 0,3.31365 2.68635,6 6,6 3.31365,0 6,-2.68635 6,-6 h -6 z"
         style="fill:#ff5722;fill-opacity:1"
         id="path2292" />
      <path
         d="m 178,49 c 0,3.313708 2.68629,6 6,6 3.31371,0 6,-2.686292 6,-6 z"
         style="opacity:0.2;fill:#ffffff;fill-opacity:1;stroke-width:2;stroke-linecap:square"
         id="path2320" />
    </g>
  </g>
  <g
     id="g1758">
    <path
       d="m 256,56.5 v 5 c 0,0.5523 0.44771,1 1,1 h 5 z"
       style="opacity:0.2;fill:#000000;fill-opacity:1;stroke-width:0.5"
       id="path3295" />
    <path
       d="m 269,21 -8,-8 v 6.59375 C 261,20.373375 261.62775,21 262.40625,21 Z"
       style="opacity:0.2;fill:#000000"
       id="path1389"
       sodipodi:nodetypes="ccssc" />
    <path
       d="m 188,95 v 10 c 0,1.1046 0.89543,2 2,2 h 10 z"
       style="opacity:0.2"
       id="path1654"
       sodipodi:nodetypes="csscc" />
    <path
       style="opacity:0.2;fill:#000000"
       d="M 214,31 198,15 V 28.1875 C 198,29.74675 199.2555,31 200.8125,31 Z"
       id="path5454"
       sodipodi:nodetypes="ccssc" />
    <path
       d="M 118,51 86,19 V 45.375 C 86,48.4935 88.511,51 91.625,51 Z"
       style="opacity:0.2;fill:#000000;stroke-width:2"
       id="path1904" />
  </g>
  <g
     id="g1741">
    <path
       d="m 247,56 c -0.554,0 -1,0.446 -1,1 v 0.5 c 0,-0.554 0.446,-1 1,-1 h 9 l 5.5,5.500005 H 262 L 256,56 Z"
       style="opacity:0.2;fill:#ffffff;stroke-width:0.5"
       id="path3323" />
    <path
       d="M 248.375,12 C 247.61325,12 247,12.624791 247,13.400391 v 1 C 247,13.624791 247.61325,13 248.375,13 H 261 l 7.00044,7 H 269 l -8,-8 z"
       style="opacity:0.2;fill:#ffffff"
       id="path1445"
       sodipodi:nodetypes="sscsccccs" />
    <path
       d="m 170,94 c -1.108,0 -2,0.892 -2,2 v 1 c 0,-1.108 0.892,-2 2,-2 h 18 l 11,11.00001 h 1 L 188,94 Z"
       style="opacity:0.2;fill:#ffffff"
       id="path1710"
       sodipodi:nodetypes="sscsccccs" />
    <path
       style="opacity:0.2;fill:#ffffff"
       d="m 172.75,14 c -1.5235,0 -2.75,1.249581 -2.75,2.800781 v 1 C 170,16.249581 171.2265,15 172.75,15 H 198 l 15,15 h 1 L 198,14 Z"
       id="path5458"
       sodipodi:nodetypes="sscsccccs" />
    <path
       d="M 35.5,18 C 32.453,18 30,20.499162 30,23.601562 v 1 C 30,21.499162 32.453,19 35.5,19 H 86 L 117,49.999999 118,50 86,18 Z"
       style="opacity:0.2;fill:#ffffff;stroke-width:2"
       id="path1848"
       sodipodi:nodetypes="sscsccccs" />
  </g>
  <g
     id="g1753">
    <path
       d="m 256,56 v 5 c 0,0.5523 0.44771,1 1,1 h 5 z"
       style="opacity:1;fill:#fafafa;fill-opacity:1;stroke-width:0.5"
       id="path3129"
       sodipodi:nodetypes="csscc" />
    <path
       d="m 269,20 -8,-8 v 6.59375 C 261,19.373375 261.62775,20 262.40625,20 Z"
       style="fill:#fafafa;fill-opacity:1"
       id="path1361"
       sodipodi:nodetypes="ccssc" />
    <path
       d="m 188,94 v 10 c 0,1.1046 0.89543,2 2,2 h 10 z"
       style="fill:#fafafa;fill-opacity:1"
       id="path1682" />
    <path
       d="m 252.0005,91 v 3.1662 c 0,0.4584 0.3749,0.8333 0.8333,0.8333 H 256 Z"
       style="fill:#fafafa"
       id="path3501"
       sodipodi:nodetypes="csscc" />
    <path
       style="fill:#fafafa;fill-opacity:1"
       d="M 214,30 198,14 V 27.1875 C 198,28.74675 199.2555,30 200.8125,30 Z"
       id="path5456"
       sodipodi:nodetypes="ccssc" />
    <path
       d="M 118,50 86,18 V 44.375 C 86,47.4935 88.511,50 91.625,50 Z"
       style="fill:#fafafa;stroke-width:2;fill-opacity:1"
       id="path1876" />
  </g>
</svg>
