<?xml version="1.0" encoding="UTF-8" standalone="no"?>
<svg
   width="284"
   height="148"
   version="1.1"
   id="svg5462"
   sodipodi:docname="x-office-document.svg"
   inkscape:version="1.2.2 (1:1.2.2+202305151914+b0a8486541)"
   xmlns:inkscape="http://www.inkscape.org/namespaces/inkscape"
   xmlns:sodipodi="http://sodipodi.sourceforge.net/DTD/sodipodi-0.dtd"
   xmlns="http://www.w3.org/2000/svg"
   xmlns:svg="http://www.w3.org/2000/svg">
  <defs
     id="defs5466" />
  <sodipodi:namedview
     id="namedview5464"
     pagecolor="#d2d2d2"
     bordercolor="#000000"
     borderopacity="0.25"
     inkscape:showpageshadow="2"
     inkscape:pageopacity="0"
     inkscape:pagecheckerboard="0"
     inkscape:deskcolor="#d2d2d2"
     showgrid="false"
     inkscape:zoom="4.6267606"
     inkscape:cx="142"
     inkscape:cy="73.917808"
     inkscape:window-width="1920"
     inkscape:window-height="1008"
     inkscape:window-x="0"
     inkscape:window-y="0"
     inkscape:window-maximized="1"
     inkscape:current-layer="svg5462"
     showborder="false"
     showguides="true" />
  <g
     id="Baseplate"
     transform="translate(160,10)"
     style="display:none">
    <text
       xml:space="preserve"
       style="font-size:12px;font-family:'Noto Sans';-inkscape-font-specification:'Noto Sans';text-align:end;text-anchor:end;opacity:1;fill:#000000;stroke-width:5;stroke-linecap:round;stroke-linejoin:round"
       x="71.631897"
       y="-0.48000813"
       id="context"
       transform="translate(-160,-10)"><tspan
         sodipodi:role="line"
         id="tspan1976"
         x="71.631897"
         y="-0.48000813"
         style="font-size:12px">mimetypes</tspan></text>
    <text
       xml:space="preserve"
       style="font-size:12px;font-family:'Noto Sans';-inkscape-font-specification:'Noto Sans';text-align:start;text-anchor:start;fill:#000000;stroke-width:5;stroke-linecap:round;stroke-linejoin:round"
       x="-74.127937"
       y="-10.480008"
       id="icon-name"><tspan
         sodipodi:role="line"
         id="tspan1976-6"
         x="-74.127937"
         y="-10.480008"
         style="font-style:normal;font-variant:normal;font-weight:bold;font-stretch:normal;font-size:12px;font-family:'Noto Sans';-inkscape-font-specification:'Noto Sans Bold';text-align:start;text-anchor:start">x-office-document</tspan></text>
    <rect
       style="opacity:1;fill:#ffffff;stroke-width:5;stroke-linecap:round;stroke-linejoin:round"
       id="128x128"
       width="128"
       height="128"
       x="-150"
       y="0" />
    <rect
       style="opacity:1;fill:#ffffff;stroke-width:5;stroke-linecap:round;stroke-linejoin:round"
       id="64x64"
       width="64"
       height="64"
       x="0"
       y="0" />
    <rect
       style="opacity:1;fill:#ffffff;stroke-width:5;stroke-linecap:round;stroke-linejoin:round"
       id="48x48"
       width="48"
       height="48"
       x="0"
       y="80" />
    <rect
       style="opacity:1;fill:#ffffff;stroke-width:1.66667;stroke-linecap:round;stroke-linejoin:round"
       id="32x32"
       width="32"
       height="32"
       x="82"
       y="0" />
    <rect
       style="opacity:1;fill:#ffffff;stroke-width:5;stroke-linecap:round;stroke-linejoin:round"
       id="24x24"
       width="24"
       height="24"
       x="82"
       y="44" />
    <rect
       style="opacity:1;fill:#ffffff;stroke-width:5;stroke-linecap:round;stroke-linejoin:round"
       id="16x16"
       width="16"
       height="16"
       x="82"
       y="80" />
  </g>
  <g
     id="g1767">
    <path
       d="m 247,56.5 c -0.554,0 -1,0.446 -1,1 v 18 c 0,0.554 0.446,1 1,1 h 14 c 0.554,0 1,-0.446 1,-1 v -13 L 256.5,62 256,56.5 Z"
       style="opacity:0.2;fill:#000000"
       id="path3101" />
    <path
       d="M 248.375,13 C 247.61325,13 247,13.6244 247,14.4 v 25.2 c 0,0.77504 0.61325,1.4 1.375,1.4 h 19.25 C 268.3862,41 269,40.37504 269,39.6 V 22 l -7,-2 -2,-7 z"
       style="opacity:0.2;fill:#000000"
       id="path1417" />
    <path
       d="m 170,95 c -1.108,0 -2,0.892 -2,2 v 36 c 0,1.108 0.892,2 2,2 h 28 c 1.108,0 2,-0.892 2,-2 v -26 l -11,-1 -1,-11 z"
       style="opacity:0.2;fill:#000000"
       id="path1626" />
    <path
       style="opacity:0.2;fill:#000000"
       d="m 172.75,15 c -1.5235,0 -2.75,1.2488 -2.75,2.8 v 50.4 c 0,1.55008 1.2265,2.8 2.75,2.8 h 38.5 c 1.5224,0 2.75,-1.24992 2.75,-2.8 V 33 l -14,-4 -4,-14 z"
       id="path5450" />
    <path
       d="m 35.499997,19 c -3.047,0 -5.5,2.4976 -5.5,5.6 v 100.8 c 0,3.10017 2.453,5.6 5.5,5.6 H 112.5 c 3.0448,0 5.5,-2.49984 5.5,-5.6 V 50.999999 l -24,-8 L 86,19 Z"
       style="fill:#000000;stroke-width:2;opacity:0.2"
       id="path1820" />
  </g>
  <g
     id="g1733">
    <path
       d="M 248.375,12 C 247.61325,12 247,12.6244 247,13.4 v 25.2 c 0,0.77504 0.61325,1.4 1.375,1.4 h 19.25 C 268.3862,40 269,39.37504 269,38.6 V 20 l -6,-2 -2,-6 z"
       style="fill:#e4e4e4;fill-opacity:1"
       id="path1333"
       sodipodi:nodetypes="sssssscccs" />
    <path
       d="m 247,56 c -0.554,0 -1,0.446 -1,1 v 18 c 0,0.554 0.446,1 1,1 h 14 c 0.554,0 1,-0.446 1,-1 V 62 L 256.5,61.5 256,56 Z"
       style="fill:#e4e4e4"
       id="path3073"
       sodipodi:nodetypes="sssssscccs" />
    <path
       d="m 244.75,91 c -0.4172,0 -0.75,0.3328 -0.75,0.75 v 13.5 c 0,0.417 0.3328,0.75 0.75,0.75 h 10.5 c 0.418,0 0.75,-0.332 0.75,-0.75 V 94.9995 L 252.8755,94.1245 252.0005,91 Z"
       style="fill:#e4e4e4"
       id="path3473"
       sodipodi:nodetypes="sssssscccs" />
    <path
       d="m 170,94 c -1.108,0 -2,0.892 -2,2 v 36 c 0,1.108 0.892,2 2,2 h 28 c 1.108,0 2,-0.892 2,-2 v -26 l -11,-1 -1,-11 z"
       style="fill:#e4e4e4;fill-opacity:1"
       id="path1598" />
    <path
       style="fill:#e4e4e4;fill-opacity:1"
       d="m 172.75,14 c -1.5235,0 -2.75,1.2488 -2.75,2.8 v 50.4 c 0,1.55008 1.2265,2.8 2.75,2.8 h 38.5 c 1.5224,0 2.75,-1.24992 2.75,-2.8 V 30 l -12,-4 -4,-12 z"
       id="path5452"
       sodipodi:nodetypes="sssssscccs" />
    <path
       d="M 35.5,18 C 32.453,18 30,20.4976 30,23.6 v 100.8 c 0,3.10016 2.453,5.6 5.5,5.6 h 77 c 3.0448,0 5.5,-2.49984 5.5,-5.6 V 49.999999 l -24,-8 L 86,18 Z"
       style="fill:#e4e4e4;stroke-width:2;fill-opacity:1"
       id="path1792"
       sodipodi:nodetypes="sssssscccs" />
  </g>
  <g
     id="g2241">
    <g
       id="g2963">
      <path
         d="m 251,98 v 1 h 3 v -1 z m 0,2 v 1 h 3 v -1 z m -5,3 v 1 h 6 v -1 z"
         style="fill:#757575;fill-opacity:1;stroke-width:0.5"
         id="path2884"
         sodipodi:nodetypes="ccccccccccccccc" />
      <path
         id="rect1640"
         style="opacity:1;fill:#1565c0;stroke-width:2;stroke-linecap:square"
         d="M 247.5 98 L 246 102 L 247 102 L 247.375 101 L 248.625 101 L 249 102 L 250 102 L 248.5 98 L 247.5 98 z M 248 99.333984 L 248.25 100 L 247.75 100 L 248 99.333984 z " />
    </g>
    <g
       id="g2863">
      <path
         id="path2811"
         style="opacity:0.2;fill:#000000;fill-opacity:1;stroke-width:0.5"
         d="m 251,65.5 -2,5 h 1 l 0.40039,-1 h 2.19922 L 253,70.5 h 1 l -2,-5 z m 4,1 v 1 h 4 v -1 z m -3.5,0.25 0.70117,1.75 h -1.40234 z m 3.5,1.75 v 1 h 4 v -1 z m -6,3 v 1 h 8 v -1 z"
         sodipodi:nodetypes="cccccccccccccccccccccccccccc" />
      <path
         id="path2755"
         style="fill:#757575;fill-opacity:1;stroke-width:0.5"
         d="m 255,66 v 1 h 4 v -1 z m 0,2 v 1 h 4 v -1 z m -6,3 v 1 h 8 v -1 z"
         sodipodi:nodetypes="ccccccccccccccc" />
      <path
         d="m 251,65 -2,5 h 1 l 0.40039,-1 h 2.19922 L 253,70 h 1 l -2,-5 z m 0.5,1.25 0.7002,1.75 h -1.4004 z"
         style="fill:#1565c0;stroke-width:1;stroke-linecap:square"
         id="path1450" />
    </g>
    <g
       id="g2869">
      <path
         id="path2519"
         style="opacity:0.2;fill:#000000;fill-opacity:1;stroke-width:0.5"
         d="m 253.5,27 -2.5,6 h 1 l 0.83398,-2 h 2.33204 L 256,33 h 1 l -2.5,-6 z m 5.5,1 v 1 h 6 V 28 Z M 254,28.199219 254.75,30 h -1.5 z M 259,31 v 1 h 6 v -1 z m -8,4 v 1 h 10 v -1 z"
         sodipodi:nodetypes="cccccccccccccccccccccccccccc" />
      <path
         d="m 259,27 v 1 h 6 v -1 z m 0,3 v 1 h 6 v -1 z m -8,4 v 1 h 10 v -1 z"
         style="fill:#757575;fill-opacity:1;stroke-width:0.5"
         id="path2408"
         sodipodi:nodetypes="ccccccccccccccc" />
      <path
         d="m 253.5,26 -2.5,6 h 1 l 0.83398,-2 h 2.33204 L 256,32 h 1 l -2.5,-6 z M 254,27.199219 254.75,29 h -1.5 z"
         style="fill:#1565c0;stroke-width:2;stroke-linecap:square"
         id="path2201" />
    </g>
    <g
       id="g362">
      <path
         id="path3001"
         style="opacity:0.2;fill:#000000;fill-opacity:1;stroke-width:1"
         d="m 178,113 -4,10 h 2 l 0.80078,-2 h 4.39844 L 182,123 h 2 l -4,-10 z m 8,1 v 2 h 8 v -2 z m -7,1.5 1.40039,3.5 h -2.80078 z m 7,3.5 v 2 h 8 v -2 z m -12,7 v 2 h 16 v -2 z"
         sodipodi:nodetypes="cccccccccccccccccccccccccccc" />
      <path
         id="path2973"
         style="fill:#757575;fill-opacity:1;stroke-width:1"
         d="m 186,113 v 2 h 8 v -2 z m 0,5 v 2 h 8 v -2 z m -12,7 v 2 h 16 v -2 z"
         sodipodi:nodetypes="ccccccccccccccc" />
      <path
         d="m 178,112 -4,10 h 2 l 0.80078,-2 h 4.39844 L 182,122 h 2 l -4,-10 z m 1,2.5 1.40039,3.5 h -2.80078 z"
         style="fill:#1565c0;stroke-width:2;stroke-linecap:square"
         id="path1422"
         sodipodi:nodetypes="ccccccccccccc" />
    </g>
    <g
       id="g2234">
      <path
         id="path308"
         style="opacity:0.2;fill:#000000"
         d="M 183 44 L 178 56 L 180 56 L 181.25 53 L 186.75 53 L 188 56 L 190 56 L 185 44 L 183 44 z M 192 44 L 192 46 L 206 46 L 206 44 L 192 44 z M 184 46.400391 L 185.91602 51 L 182.08398 51 L 184 46.400391 z M 192 49 L 192 51 L 206 51 L 206 49 L 192 49 z M 192 54 L 192 56 L 206 56 L 206 54 L 192 54 z M 178 60 L 178 62 L 198 62 L 198 60 L 178 60 z " />
      <path
         id="path1705"
         style="fill:#757575;fill-opacity:1"
         d="m 192,43 v 2 h 14 v -2 z m 0,5 v 2 h 14 v -2 z m 0,5 v 2 h 14 v -2 z m -14,6 v 2 h 20 v -2 z"
         sodipodi:nodetypes="cccccccccccccccccccc" />
      <path
         id="path1767"
         style="fill:#1565c0;stroke-width:2;stroke-linecap:square"
         d="m 183,43 -5,12 h 2 l 1.25,-3 h 5.5 l 1.25,3 h 2 l -5,-12 z m 1,2.400391 L 185.91602,50 h -3.83204 z"
         sodipodi:nodetypes="ccccccccccccc" />
    </g>
    <g
       id="g2344"
       transform="matrix(2,0,0,2,-310,-10)">
      <path
         id="path2264"
         style="opacity:0.2;fill:#000000"
         d="M 183 43.5 L 178 55.5 L 180 55.5 L 181.25 52.5 L 186.75 52.5 L 188 55.5 L 190 55.5 L 185 43.5 L 183 43.5 z M 192 43.5 L 192 45.5 L 206 45.5 L 206 43.5 L 192 43.5 z M 184 45.900391 L 185.91602 50.5 L 182.08398 50.5 L 184 45.900391 z M 192 48.5 L 192 50.5 L 206 50.5 L 206 48.5 L 192 48.5 z M 192 53.5 L 192 55.5 L 206 55.5 L 206 53.5 L 192 53.5 z M 178 59.5 L 178 61.5 L 198 61.5 L 198 59.5 L 178 59.5 z " />
      <path
         d="m 192,43 v 2 h 14 v -2 z m 0,5 v 2 h 14 v -2 z m 0,5 v 2 h 14 v -2 z m -14,6 v 2 h 20 v -2 z"
         style="fill:#757575;fill-opacity:1"
         id="path2222"
         sodipodi:nodetypes="cccccccccccccccccccc" />
      <path
         d="m 183,43.000002 -5,12 h 2 l 1.25,-3 h 5.5 l 1.25,3 h 2 l -5,-12 z m 1,2.400391 1.91602,4.599609 h -3.83204 z"
         style="fill:#1565c0;stroke-width:2;stroke-linecap:square"
         id="path1981" />
    </g>
  </g>
  <g
     id="g1758">
    <path
       d="m 256,56.5 v 5 c 0,0.5523 0.44771,1 1,1 h 5 z"
       style="opacity:0.2;fill:#000000;fill-opacity:1;stroke-width:0.5"
       id="path3295" />
    <path
       d="m 269,21 -8,-8 v 6.59375 C 261,20.373375 261.62775,21 262.40625,21 Z"
       style="opacity:0.2;fill:#000000"
       id="path1389"
       sodipodi:nodetypes="ccssc" />
    <path
       d="m 188,95 v 10 c 0,1.1046 0.89543,2 2,2 h 10 z"
       style="opacity:0.2"
       id="path1654"
       sodipodi:nodetypes="csscc" />
    <path
       style="opacity:0.2;fill:#000000"
       d="M 214,31 198,15 V 28.1875 C 198,29.74675 199.2555,31 200.8125,31 Z"
       id="path5454"
       sodipodi:nodetypes="ccssc" />
    <path
       d="M 118,51 86,19 V 45.375 C 86,48.4935 88.511,51 91.625,51 Z"
       style="opacity:0.2;fill:#000000;stroke-width:2"
       id="path1904" />
  </g>
  <g
     id="g1741">
    <path
       d="m 247,56 c -0.554,0 -1,0.446 -1,1 v 0.5 c 0,-0.554 0.446,-1 1,-1 h 9 l 5.5,5.500005 H 262 L 256,56 Z"
       style="opacity:0.2;fill:#ffffff;stroke-width:0.5"
       id="path3323" />
    <path
       d="M 248.375,12 C 247.61325,12 247,12.624791 247,13.400391 v 1 C 247,13.624791 247.61325,13 248.375,13 H 261 l 7.00044,7 H 269 l -8,-8 z"
       style="opacity:0.2;fill:#ffffff"
       id="path1445"
       sodipodi:nodetypes="sscsccccs" />
    <path
       d="m 170,94 c -1.108,0 -2,0.892 -2,2 v 1 c 0,-1.108 0.892,-2 2,-2 h 18 l 11,11.00001 h 1 L 188,94 Z"
       style="opacity:0.2;fill:#ffffff"
       id="path1710"
       sodipodi:nodetypes="sscsccccs" />
    <path
       style="opacity:0.2;fill:#ffffff"
       d="m 172.75,14 c -1.5235,0 -2.75,1.249581 -2.75,2.800781 v 1 C 170,16.249581 171.2265,15 172.75,15 H 198 l 15,15 h 1 L 198,14 Z"
       id="path5458"
       sodipodi:nodetypes="sscsccccs" />
    <path
       d="M 35.5,18 C 32.453,18 30,20.499162 30,23.601562 v 1 C 30,21.499162 32.453,19 35.5,19 H 86 L 117,49.999999 118,50 86,18 Z"
       style="opacity:0.2;fill:#ffffff;stroke-width:2"
       id="path1848"
       sodipodi:nodetypes="sscsccccs" />
  </g>
  <g
     id="g1753">
    <path
       d="m 256,56 v 5 c 0,0.5523 0.44771,1 1,1 h 5 z"
       style="opacity:1;fill:#fafafa;fill-opacity:1;stroke-width:0.5"
       id="path3129"
       sodipodi:nodetypes="csscc" />
    <path
       d="m 269,20 -8,-8 v 6.59375 C 261,19.373375 261.62775,20 262.40625,20 Z"
       style="fill:#fafafa;fill-opacity:1"
       id="path1361"
       sodipodi:nodetypes="ccssc" />
    <path
       d="m 188,94 v 10 c 0,1.1046 0.89543,2 2,2 h 10 z"
       style="fill:#fafafa;fill-opacity:1"
       id="path1682" />
    <path
       d="m 252.0005,91 v 3.1662 c 0,0.4584 0.3749,0.8333 0.8333,0.8333 H 256 Z"
       style="fill:#fafafa"
       id="path3501"
       sodipodi:nodetypes="csscc" />
    <path
       style="fill:#fafafa;fill-opacity:1"
       d="M 214,30 198,14 V 27.1875 C 198,28.74675 199.2555,30 200.8125,30 Z"
       id="path5456"
       sodipodi:nodetypes="ccssc" />
    <path
       d="M 118,50 86,18 V 44.375 C 86,47.4935 88.511,50 91.625,50 Z"
       style="fill:#fafafa;stroke-width:2;fill-opacity:1"
       id="path1876" />
  </g>
</svg>
