<?xml version="1.0" encoding="UTF-8" standalone="no"?>
<svg
   width="24"
   height="24"
   version="1"
   id="svg5094"
   sodipodi:docname="application-json.svg"
   inkscape:version="1.2.2 (1:1.2.2+202305151914+b0a8486541)"
   xmlns:inkscape="http://www.inkscape.org/namespaces/inkscape"
   xmlns:sodipodi="http://sodipodi.sourceforge.net/DTD/sodipodi-0.dtd"
   xmlns="http://www.w3.org/2000/svg"
   xmlns:svg="http://www.w3.org/2000/svg">
  <defs
     id="defs5098" />
  <sodipodi:namedview
     id="namedview5096"
     pagecolor="#ffffff"
     bordercolor="#000000"
     borderopacity="0.25"
     inkscape:showpageshadow="2"
     inkscape:pageopacity="0.0"
     inkscape:pagecheckerboard="0"
     inkscape:deskcolor="#d1d1d1"
     showgrid="false"
     inkscape:zoom="33.583333"
     inkscape:cx="12"
     inkscape:cy="12"
     inkscape:window-width="1920"
     inkscape:window-height="1008"
     inkscape:window-x="0"
     inkscape:window-y="0"
     inkscape:window-maximized="1"
     inkscape:current-layer="svg5094" />
  <path
     style="opacity:0.2"
     d="m 5,2.5 c -0.554,0 -1,0.446 -1,1 v 18 c 0,0.554 0.446,1 1,1 h 14 c 0.554,0 1,-0.446 1,-1 V 8.5 L 14.5,8 14,2.5 Z"
     id="path5082" />
  <path
     style="fill:#e4e4e4"
     d="M 5,2 C 4.446,2 4,2.446 4,3 v 18 c 0,0.554 0.446,1 1,1 h 14 c 0.554,0 1,-0.446 1,-1 V 8 L 14.5,7.5 14,2 Z"
     id="path5084" />
  <path
     id="path701"
     style="color:#000000;fill:#000000;stroke-linecap:round;-inkscape-stroke:none;opacity:0.2"
     d="M 9.4648438 11.501953 C 9.3997717 11.506601 9.3348336 11.522899 9.2753906 11.552734 C 8.4657584 11.957551 8.0154267 12.387762 7.8574219 12.898438 C 7.699416 13.409112 7.8696025 13.846692 7.9589844 14.144531 C 8.0483643 14.442372 8.0769338 14.572724 7.9980469 14.730469 C 7.919167 14.888214 7.6276786 15.187518 6.8027344 15.541016 C 6.7605244 15.572766 6.7236043 15.610996 6.6933594 15.654297 C 6.6318094 15.692057 6.5791735 15.742697 6.5390625 15.802734 C 6.5390425 15.805334 6.5390425 15.807947 6.5390625 15.810547 C 6.5263425 15.872997 6.5257294 15.937302 6.5371094 16 C 6.5256794 16.0627 6.5262925 16.127003 6.5390625 16.189453 C 6.5390425 16.192053 6.5390425 16.194666 6.5390625 16.197266 C 6.5791725 16.257306 6.6318124 16.307946 6.6933594 16.345703 C 6.7236093 16.389003 6.7605194 16.427233 6.8027344 16.458984 C 7.6272356 16.812292 7.9132163 17.111406 7.9882812 17.265625 C 8.0633412 17.419844 8.032723 17.551961 7.9394531 17.851562 C 7.8461832 18.151165 7.6730557 18.590348 7.8359375 19.103516 C 7.9988193 19.616683 8.4562957 20.045258 9.2792969 20.449219 C 9.5273666 20.571417 9.8275179 20.46902 9.9492188 20.220703 C 10.071413 19.972626 9.9690289 19.672471 9.7207031 19.550781 C 9.0157078 19.204744 8.8344765 18.945816 8.7890625 18.802734 C 8.7436425 18.659654 8.7932634 18.473834 8.8945312 18.148438 C 8.9958271 17.823042 9.1310635 17.330154 8.8867188 16.828125 C 8.7297299 16.505597 8.2198558 16.263161 7.8007812 16.001953 C 8.2221118 15.740865 8.7320503 15.496791 8.8925781 15.175781 C 9.1418659 14.677278 9.0141935 14.182627 8.9160156 13.855469 C 8.8178357 13.52831 8.767459 13.340885 8.8125 13.195312 C 8.85754 13.049739 9.0322909 12.792448 9.7226562 12.447266 C 9.969504 12.324148 10.070011 12.024378 9.9472656 11.777344 C 9.8882257 11.658281 9.784212 11.567622 9.6582031 11.525391 C 9.5951227 11.504306 9.5299158 11.497306 9.4648438 11.501953 z M 14.535156 11.501953 C 14.47043 11.497307 14.404582 11.504576 14.341797 11.525391 C 14.215788 11.567621 14.111775 11.658281 14.052734 11.777344 C 13.929989 12.024378 14.030494 12.324149 14.277344 12.447266 C 14.967714 12.79245 15.14048 13.049712 15.185547 13.195312 C 15.230617 13.340912 15.182147 13.528323 15.083984 13.855469 C 14.985844 14.182613 14.858174 14.677291 15.107422 15.175781 C 15.267923 15.496783 15.777942 15.740857 16.199219 16.001953 C 15.780197 16.263169 15.270241 16.505606 15.113281 16.828125 C 14.868966 17.330141 15.004197 17.823055 15.105469 18.148438 C 15.206728 18.473821 15.256377 18.659626 15.210938 18.802734 C 15.165498 18.945843 14.984297 19.204741 14.279297 19.550781 C 14.030972 19.672471 13.928587 19.972626 14.050781 20.220703 C 14.172471 20.469028 14.472626 20.571413 14.720703 20.449219 C 15.5437 20.04526 16.001129 19.616655 16.164062 19.103516 C 16.326997 18.590375 16.153782 18.151178 16.060547 17.851562 C 15.967307 17.551948 15.936661 17.419857 16.011719 17.265625 C 16.086779 17.111393 16.372893 16.812287 17.197266 16.458984 C 17.311504 16.408634 17.402772 16.317363 17.453125 16.203125 L 17.458984 16.197266 C 17.458989 16.195966 17.458989 16.194659 17.458984 16.193359 C 17.472114 16.155459 17.480645 16.116109 17.484375 16.076172 C 17.490875 16.051172 17.495467 16.0257 17.498047 16 C 17.495447 15.97429 17.490845 15.948828 17.484375 15.923828 C 17.480675 15.883888 17.472114 15.844538 17.458984 15.806641 C 17.458989 15.805341 17.458989 15.804034 17.458984 15.802734 C 17.457084 15.800734 17.455125 15.798875 17.453125 15.796875 C 17.402775 15.682637 17.311504 15.591369 17.197266 15.541016 C 16.37245 15.187523 16.080832 14.888227 16.001953 14.730469 C 15.923073 14.572711 15.951666 14.442385 16.041016 14.144531 C 16.130376 13.846678 16.300636 13.409085 16.142578 12.898438 C 15.98452 12.387789 15.532283 11.957548 14.722656 11.552734 C 14.663488 11.523164 14.599882 11.506599 14.535156 11.501953 z M 12 13.5 C 11.447716 13.5 11 13.947716 11 14.5 C 11 15.052284 11.447716 15.5 12 15.5 C 12.552284 15.5 13 15.052284 13 14.5 C 13 13.947716 12.552284 13.5 12 13.5 z M 12 16.5 C 11.447716 16.5 11 16.947716 11 17.5 C 11 18.052284 11.447716 18.5 12 18.5 L 12 19.5 C 12.552284 19.5 13 18.604568 13 17.5 C 13 16.947716 12.552284 16.5 12 16.5 z " />
  <path
     id="path363"
     style="color:#000000;fill:#84b841;fill-opacity:1;stroke-linecap:round;-inkscape-stroke:none"
     d="m 9.4648438,11.001953 c -0.065072,0.0046 -0.1300098,0.02095 -0.1894532,0.05078 -0.8096318,0.404817 -1.2599635,0.835028 -1.4179687,1.345704 -0.1580054,0.510674 0.01218,0.948254 0.1015625,1.246093 0.089382,0.297841 0.1179455,0.428193 0.039063,0.585938 -0.078884,0.157745 -0.370368,0.457049 -1.1953125,0.810547 -0.042213,0.03175 -0.079129,0.06998 -0.109375,0.113281 -0.061547,0.03776 -0.1141859,0.0884 -0.1542969,0.148437 -2.03e-5,0.0026 -2.03e-5,0.0052 0,0.0078 -0.012718,0.06245 -0.013383,0.126755 -0.00195,0.189453 -0.01143,0.0627 -0.010765,0.127003 0.00195,0.189453 -2.03e-5,0.0026 -2.03e-5,0.0052 0,0.0078 0.040111,0.06004 0.09275,0.11068 0.1542969,0.148437 0.030246,0.0433 0.067162,0.08153 0.109375,0.113281 0.8245009,0.353308 1.1104827,0.652422 1.1855468,0.806641 0.075064,0.154219 0.044438,0.286336 -0.048828,0.585937 -0.093266,0.299603 -0.2663974,0.738786 -0.1035156,1.251954 0.1628818,0.513167 0.6203576,0.941742 1.4433594,1.345703 0.2480691,0.122198 0.548221,0.0198 0.6699219,-0.228516 0.1221932,-0.248077 0.01981,-0.548232 -0.2285157,-0.669922 -0.7049951,-0.346037 -0.8862259,-0.604965 -0.9316406,-0.748047 -0.045415,-0.14308 0.00417,-0.3289 0.1054687,-0.654296 0.1012959,-0.325396 0.2365421,-0.818284 -0.00781,-1.320313 -0.156989,-0.322528 -0.6668634,-0.564964 -1.0859376,-0.826172 0.42133,-0.261088 0.9312692,-0.505162 1.0917969,-0.826172 0.2492877,-0.498503 0.1216178,-0.993154 0.023437,-1.320312 C 8.8178354,13.02831 8.7674588,12.840885 8.8125,12.695312 8.8575412,12.549739 9.032291,12.292448 9.7226562,11.947266 9.969504,11.824148 10.07001,11.524378 9.9472656,11.277344 9.8882247,11.158281 9.7842121,11.067622 9.6582031,11.025391 c -0.06308,-0.02109 -0.1282872,-0.02809 -0.1933593,-0.02344 z m 5.0703122,0 c -0.06473,-0.0046 -0.130574,0.0026 -0.193359,0.02344 -0.126009,0.04223 -0.230022,0.13289 -0.289063,0.251953 -0.122745,0.247034 -0.02224,0.546805 0.22461,0.669922 0.69037,0.345184 0.863136,0.602446 0.908203,0.748046 0.04507,0.1456 -0.0034,0.333011 -0.101563,0.660157 -0.09814,0.327144 -0.22581,0.821822 0.02344,1.320312 0.160501,0.321002 0.67052,0.565076 1.091797,0.826172 -0.419022,0.261216 -0.928978,0.503653 -1.085938,0.826172 -0.244315,0.502016 -0.109084,0.99493 -0.0078,1.320313 0.101259,0.325383 0.150908,0.511188 0.105469,0.654296 -0.04544,0.143109 -0.226641,0.402007 -0.931641,0.748047 -0.248325,0.12169 -0.35071,0.421845 -0.228516,0.669922 0.12169,0.248325 0.421845,0.35071 0.669922,0.228516 0.822997,-0.403959 1.280426,-0.832564 1.443359,-1.345703 0.162935,-0.513141 -0.01028,-0.952338 -0.103515,-1.251954 -0.09324,-0.299614 -0.123886,-0.431705 -0.04883,-0.585937 0.07506,-0.154232 0.361174,-0.453338 1.185547,-0.806641 0.114238,-0.05035 0.205506,-0.141621 0.255859,-0.255859 l 0.0059,-0.0059 c 5e-6,-0.0013 5e-6,-0.0026 0,-0.0039 0.01313,-0.0379 0.02166,-0.07725 0.02539,-0.117187 0.0065,-0.025 0.01109,-0.05047 0.01367,-0.07617 -0.0026,-0.02571 -0.0072,-0.05117 -0.01367,-0.07617 -0.0037,-0.03994 -0.01226,-0.07929 -0.02539,-0.117187 5e-6,-0.0013 5e-6,-0.0026 0,-0.0039 -0.0019,-0.002 -0.0039,-0.0039 -0.0059,-0.0059 -0.05035,-0.114238 -0.141621,-0.205506 -0.255859,-0.255859 -0.824816,-0.353493 -1.116434,-0.652789 -1.195313,-0.810547 -0.07888,-0.157758 -0.05029,-0.288084 0.03906,-0.585938 0.08936,-0.297853 0.25962,-0.735446 0.101562,-1.246093 -0.158058,-0.510649 -0.610295,-0.94089 -1.419922,-1.345704 -0.05917,-0.02957 -0.122774,-0.04613 -0.1875,-0.05078 z M 12,13 c -0.552285,0 -1,0.447715 -1,1 0,0.552285 0.447715,1 1,1 0.552285,0 1,-0.447715 1,-1 0,-0.552285 -0.447715,-1 -1,-1 z m 0,3 c -0.552285,0 -1,0.447715 -1,1 0,0.552285 0.447715,1 1,1 v 1 c 0.552285,0 1,-0.895431 1,-2 0,-0.552285 -0.447715,-1 -1,-1 z"
     sodipodi:nodetypes="scssscccccccccssscccssscssscccsscccscscscscccscscccccccccccscscssssssssccss" />
  <path
     style="opacity:0.2;fill:#ffffff"
     d="M 5,2 C 4.446,2 4,2.446 4,3 v 0.5 c 0,-0.554 0.446,-1 1,-1 h 9 L 19.5,8 H 20 L 14,2 Z"
     id="path5086" />
  <path
     style="opacity:0.2"
     d="m 14,2.5 v 5 c 0,0.5523 0.447715,1 1,1 h 5 z"
     id="path5088" />
  <path
     style="fill:#fafafa"
     d="m 14,2 v 5 c 0,0.5523 0.447715,1 1,1 h 5 z"
     id="path5090" />
</svg>
