<?xml version="1.0" encoding="UTF-8" standalone="no"?>
<svg
   width="24"
   height="24"
   version="1"
   id="svg342"
   sodipodi:docname="application-vnd.debian.binary-package.svg"
   inkscape:version="1.2.2 (1:1.2.2+202305151914+b0a8486541)"
   xmlns:inkscape="http://www.inkscape.org/namespaces/inkscape"
   xmlns:sodipodi="http://sodipodi.sourceforge.net/DTD/sodipodi-0.dtd"
   xmlns="http://www.w3.org/2000/svg"
   xmlns:svg="http://www.w3.org/2000/svg">
  <defs
     id="defs346" />
  <sodipodi:namedview
     id="namedview344"
     pagecolor="#ffffff"
     bordercolor="#000000"
     borderopacity="0.25"
     inkscape:showpageshadow="2"
     inkscape:pageopacity="0.0"
     inkscape:pagecheckerboard="0"
     inkscape:deskcolor="#d1d1d1"
     showgrid="false"
     inkscape:zoom="33.583333"
     inkscape:cx="12.014888"
     inkscape:cy="12"
     inkscape:window-width="1920"
     inkscape:window-height="1008"
     inkscape:window-x="0"
     inkscape:window-y="0"
     inkscape:window-maximized="1"
     inkscape:current-layer="svg342" />
  <rect
     style="opacity:0.2"
     width="20"
     height="20"
     x="2"
     y="2.5"
     rx="2"
     ry="2"
     id="rect310" />
  <rect
     style="fill:#dfdfdf;fill-opacity:1"
     id="rect944"
     width="20"
     height="20"
     x="2"
     y="2"
     ry="2" />
  <circle
     style="fill:#86be43;fill-opacity:1"
     id="path3423"
     cx="12"
     cy="12"
     r="7" />
  <path
     d="m 8.375,8 h 1.25 C 9.83808,8 10,8.16515 10,8.375 v 1.25 C 10,9.83484 9.83808,10 9.625,10 H 8.375 C 8.16192,10 8,9.83484 8,9.625 V 8.375 C 8,8.16515 8.16192,8 8.375,8 Z m 3,0 h 1.25 C 12.83808,8 13,8.16515 13,8.375 v 1.25 C 13,9.83484 12.83808,10 12.625,10 h -1.25 C 11.16192,10 11,9.83484 11,9.625 V 8.375 C 11,8.16515 11.16192,8 11.375,8 Z m 3,0 h 1.25 C 15.83808,8 16,8.16515 16,8.375 v 1.25 C 16,9.83484 15.83808,10 15.625,10 h -1.25 C 14.16192,10 14,9.83484 14,9.625 V 8.375 C 14,8.16515 14.16192,8 14.375,8 Z m -6,3 h 1.25 C 9.83808,11 10,11.16515 10,11.375 v 1.25 C 10,12.83484 9.83808,13 9.625,13 H 8.375 C 8.16192,13 8,12.83484 8,12.625 v -1.25 C 8,11.16515 8.16192,11 8.375,11 Z m 3,0 h 1.25 C 12.83808,11 13,11.16515 13,11.375 v 1.25 C 13,12.83484 12.83808,13 12.625,13 h -1.25 C 11.16192,13 11,12.83484 11,12.625 v -1.25 C 11,11.16515 11.16192,11 11.375,11 Z m 3,0 h 1.25 C 15.83808,11 16,11.16515 16,11.375 v 1.25 C 16,12.83484 15.83808,13 15.625,13 h -1.25 C 14.16192,13 14,12.83484 14,12.625 v -1.25 C 14,11.16515 14.16192,11 14.375,11 Z m -6,3 h 1.25 C 9.83808,14 10,14.16515 10,14.375 v 1.25 C 10,15.83484 9.83808,16 9.625,16 H 8.375 C 8.16192,16 8,15.83484 8,15.625 v -1.25 C 8,14.16515 8.16192,14 8.375,14 Z m 3,0 h 1.25 C 12.83808,14 13,14.16515 13,14.375 v 1.25 C 13,15.83484 12.83808,16 12.625,16 h -1.25 C 11.16192,16 11,15.83484 11,15.625 v -1.25 C 11,14.16515 11.16192,14 11.375,14 Z m 3,0 h 1.25 C 15.83808,14 16,14.16515 16,14.375 v 1.25 C 16,15.83484 15.83808,16 15.625,16 h -1.25 C 14.16192,16 14,15.83484 14,15.625 v -1.25 C 14,14.16515 14.16192,14 14.375,14 Z"
     style="color:#000000;display:inline;overflow:visible;visibility:visible;fill:#ffffff;fill-opacity:1;fill-rule:nonzero;stroke:none;stroke-width:4;marker:none;enable-background:accumulate"
     id="path4047-0"
     sodipodi:nodetypes="sssssssssssssssssssssssssssssssssssssssssssssssssssssssssssssssssssssssssssssssss" />
  <path
     style="opacity:0.2;fill:#ffffff"
     d="M 4,2 C 2.892,2 2,2.892 2,4 v 0.5 c 0,-1.108 0.892,-2 2,-2 h 16 c 1.108,0 2,0.892 2,2 V 4 C 22,2.892 21.108,2 20,2 Z"
     id="path316" />
</svg>
