<?xml version="1.0" encoding="UTF-8" standalone="no"?>
<svg
   width="24"
   height="24"
   version="1"
   id="svg5094"
   sodipodi:docname="application-x-trash.svg"
   inkscape:version="1.2.2 (1:1.2.2+202305151914+b0a8486541)"
   xmlns:inkscape="http://www.inkscape.org/namespaces/inkscape"
   xmlns:sodipodi="http://sodipodi.sourceforge.net/DTD/sodipodi-0.dtd"
   xmlns="http://www.w3.org/2000/svg"
   xmlns:svg="http://www.w3.org/2000/svg">
  <defs
     id="defs5098" />
  <sodipodi:namedview
     id="namedview5096"
     pagecolor="#ffffff"
     bordercolor="#000000"
     borderopacity="0.25"
     inkscape:showpageshadow="2"
     inkscape:pageopacity="0.0"
     inkscape:pagecheckerboard="0"
     inkscape:deskcolor="#d1d1d1"
     showgrid="false"
     inkscape:zoom="33.583333"
     inkscape:cx="12"
     inkscape:cy="12"
     inkscape:window-width="1920"
     inkscape:window-height="1008"
     inkscape:window-x="0"
     inkscape:window-y="0"
     inkscape:window-maximized="1"
     inkscape:current-layer="svg5094" />
  <path
     style="opacity:0.2"
     d="m 5,2.5 c -0.554,0 -1,0.446 -1,1 v 18 c 0,0.554 0.446,1 1,1 h 14 c 0.554,0 1,-0.446 1,-1 V 8.5 L 14.5,8 14,2.5 Z"
     id="path5082" />
  <path
     style="fill:#e4e4e4"
     d="M 5,2 C 4.446,2 4,2.446 4,3 v 18 c 0,0.554 0.446,1 1,1 h 14 c 0.554,0 1,-0.446 1,-1 V 8 L 14.5,7.5 14,2 Z"
     id="path5084" />
  <path
     d="m 8.9287,18.1154 c -0.096,0.17235 -0.1723,0.43167 -0.1723,0.59506 0,0.0379 0,0.0862 0.01,0.15311 L 7.567,16.80082 C 7.529,16.73392 7.5,16.63786 7.5,16.55135 c 0,-0.0866 0.029,-0.19193 0.067,-0.25897 L 8.1428,15.2849 7.5,14.9206 9.5918,14.8819 10.6086,16.71432 9.9564,16.34019 Z M 9.85,12.07627 c 0.1822,-0.31695 0.4799,-0.48964 0.8442,-0.48964 0.3937,0 0.7008,0.18253 0.9213,0.55622 l 0.3263,0.54683 -1.1325,2.1828 -1.8324,-1.29015 z m 0.134,7.69886 c -0.5468,0 -0.9977,-0.45092 -0.9977,-0.99774 0,-0.15355 0.067,-0.41285 0.1634,-0.57581 l 0.3067,-0.54683 h 2.2742 v 2.12039 H 9.984 Z m 1.8234,-7.75684 C 11.6637,11.76916 11.4717,11.59602 11.2414,11.5 h 2.3601 c 0.2111,0 0.374,0.0866 0.4704,0.24991 l 0.5852,0.99773 0.6331,-0.37448 -1.0173,1.82336 -2.0816,-0.0293 0.6428,-0.3643 z m 3.6367,5.6557 c 0.2875,0 0.5277,-0.0768 0.729,-0.22999 l -1.19,2.07214 c -0.096,0.16295 -0.2684,0.2657 -0.4697,0.25898 h -1.1231 v 0.73876 l -1.0744,-1.79403 1.0744,-1.79449 v 0.74862 h 2.0538 z m 0.9205,-1.7271 c 0.087,0.15356 0.1348,0.3165 0.1348,0.4893 0,0.34548 -0.2209,0.71011 -0.5276,0.88247 -0.1442,0.0772 -0.3463,0.13722 -0.5469,0.12535 h -0.6338 l -1.1317,-1.95777 1.8325,-1.04587 z"
     style="fill:#000000;fill-opacity:1;opacity:0.2"
     id="path5266" />
  <path
     d="m 8.9287,17.6154 c -0.096,0.17235 -0.1723,0.43167 -0.1723,0.59506 0,0.0379 0,0.0862 0.01,0.15311 L 7.567,16.30082 C 7.529,16.23392 7.5,16.13786 7.5,16.05135 c 0,-0.0866 0.029,-0.19193 0.067,-0.25897 L 8.1428,14.7849 7.5,14.4206 9.5918,14.3819 10.6086,16.21432 9.9564,15.84019 Z M 9.85,11.57627 c 0.1822,-0.31695 0.4799,-0.48964 0.8442,-0.48964 0.3937,0 0.7008,0.18253 0.9213,0.55622 l 0.3263,0.54683 -1.1325,2.1828 -1.8324,-1.29015 z m 0.134,7.69886 c -0.5468,0 -0.9977,-0.45092 -0.9977,-0.99774 0,-0.15355 0.067,-0.41285 0.1634,-0.57581 l 0.3067,-0.54683 h 2.2742 v 2.12039 H 9.984 Z m 1.8234,-7.75684 C 11.6637,11.26916 11.4717,11.09602 11.2414,11 h 2.3601 c 0.2111,0 0.374,0.0866 0.4704,0.24991 l 0.5852,0.99773 0.6331,-0.37448 -1.0173,1.82336 -2.0816,-0.0293 0.6428,-0.3643 z m 3.6367,5.6557 c 0.2875,0 0.5277,-0.0768 0.729,-0.22999 l -1.19,2.07214 c -0.096,0.16295 -0.2684,0.2657 -0.4697,0.25898 h -1.1231 v 0.73876 l -1.0744,-1.79403 1.0744,-1.79449 v 0.74862 h 2.0538 z m 0.9205,-1.7271 c 0.087,0.15356 0.1348,0.3165 0.1348,0.4893 0,0.34548 -0.2209,0.71011 -0.5276,0.88247 -0.1442,0.0772 -0.3463,0.13722 -0.5469,0.12535 h -0.6338 l -1.1317,-1.95777 1.8325,-1.04587 z"
     style="fill:#6d9d16;fill-opacity:1"
     id="path4964"
     sodipodi:nodetypes="csccsccccccccsccccccsccccccccscccccccccccccccccccscccccc" />
  <path
     style="opacity:0.2;fill:#ffffff"
     d="M 5,2 C 4.446,2 4,2.446 4,3 v 0.5 c 0,-0.554 0.446,-1 1,-1 h 9 L 19.5,8 H 20 L 14,2 Z"
     id="path5086" />
  <path
     style="opacity:0.2"
     d="m 14,2.5 v 5 c 0,0.5523 0.447715,1 1,1 h 5 z"
     id="path5088" />
  <path
     style="fill:#fafafa"
     d="m 14,2 v 5 c 0,0.5523 0.447715,1 1,1 h 5 z"
     id="path5090" />
</svg>
