<?xml version="1.0" encoding="UTF-8" standalone="no"?>
<svg
   width="24"
   height="24"
   version="1"
   id="svg5094"
   sodipodi:docname="application-vnd.ms-powerpoint.svg"
   inkscape:version="1.2.2 (1:1.2.2+202305151914+b0a8486541)"
   xmlns:inkscape="http://www.inkscape.org/namespaces/inkscape"
   xmlns:sodipodi="http://sodipodi.sourceforge.net/DTD/sodipodi-0.dtd"
   xmlns="http://www.w3.org/2000/svg"
   xmlns:svg="http://www.w3.org/2000/svg">
  <defs
     id="defs5098" />
  <sodipodi:namedview
     id="namedview5096"
     pagecolor="#ffffff"
     bordercolor="#000000"
     borderopacity="0.25"
     inkscape:showpageshadow="2"
     inkscape:pageopacity="0.0"
     inkscape:pagecheckerboard="0"
     inkscape:deskcolor="#d1d1d1"
     showgrid="false"
     inkscape:zoom="33.583333"
     inkscape:cx="12"
     inkscape:cy="12"
     inkscape:window-width="1920"
     inkscape:window-height="1008"
     inkscape:window-x="0"
     inkscape:window-y="0"
     inkscape:window-maximized="1"
     inkscape:current-layer="svg5094" />
  <path
     style="opacity:0.2"
     d="m 5,2.5 c -0.554,0 -1,0.446 -1,1 v 18 c 0,0.554 0.446,1 1,1 h 14 c 0.554,0 1,-0.446 1,-1 V 8.5 L 14.5,8 14,2.5 Z"
     id="path5082" />
  <path
     style="fill:#e4e4e4"
     d="M 5,2 C 4.446,2 4,2.446 4,3 v 18 c 0,0.554 0.446,1 1,1 h 14 c 0.554,0 1,-0.446 1,-1 V 8 L 14.5,7.5 14,2 Z"
     id="path5084" />
  <ellipse
     style="opacity:0.2;fill:#000000;fill-opacity:1;stroke-width:3.57143;stroke-linecap:round;stroke-linejoin:round"
     id="path7987"
     cx="13.000001"
     cy="15.499998"
     rx="5"
     ry="4.9999986" />
  <circle
     style="fill:#ff8f6b;fill-opacity:1;stroke-width:3.33332;stroke-linejoin:bevel"
     id="path31463"
     cx="13.000002"
     cy="14.999998"
     r="4.9999976" />
  <path
     id="path31465"
     style="fill:#d35230;fill-opacity:1;stroke-width:2.5;stroke-linejoin:bevel"
     d="m 8.000004,14.999999 c -1e-6,2.761424 2.238575,4.999999 4.999998,4.999999 2.761424,0 5,-2.238575 4.999999,-4.999999 h -4.999999 z"
     sodipodi:nodetypes="csccc" />
  <path
     id="path8517"
     style="opacity:0.2;fill:#000000;fill-opacity:1;stroke-width:2.5;stroke-linejoin:bevel"
     d="m 8,15 c -1e-7,0.168629 0.00909,0.335661 0.025391,0.5 H 13 17.974609 C 17.990914,15.335661 18,15.168629 18,15 h -5 z" />
  <path
     id="path31759"
     style="fill:#ed6c47;fill-opacity:1;stroke-width:2.5;stroke-linejoin:bevel"
     d="M 13,10.000002 A 4.9999975,4.9999978 0 0 0 8.000001,14.999999 H 13 Z" />
  <path
     id="path8587"
     style="opacity:0.2;fill:#ffffff;fill-opacity:1;stroke-width:2.5;stroke-linejoin:bevel"
     d="m 13,10 c -2.76142,0 -5.000001,2.238579 -5,5 h 0.025391 C 8.2760891,12.473173 10.407209,10.5 13,10.5 c 2.592792,0 4.723911,1.973173 4.974609,4.5 H 18 c 1e-6,-2.761421 -2.238579,-5 -5,-5 z" />
  <path
     style="opacity:0.2;fill:#ffffff"
     d="M 5,2 C 4.446,2 4,2.446 4,3 v 0.5 c 0,-0.554 0.446,-1 1,-1 h 9 L 19.5,8 H 20 L 14,2 Z"
     id="path5086" />
  <path
     style="opacity:0.2"
     d="m 14,2.5 v 5 c 0,0.5523 0.447715,1 1,1 h 5 z"
     id="path5088" />
  <path
     style="fill:#fafafa"
     d="m 14,2 v 5 c 0,0.5523 0.447715,1 1,1 h 5 z"
     id="path5090" />
  <rect
     style="opacity:0.2;fill:#000000;fill-opacity:1;stroke-width:3.75;stroke-linecap:round;stroke-linejoin:round"
     id="rect7881"
     width="6"
     height="6"
     x="6"
     y="12.5"
     ry="1" />
  <rect
     style="fill:#c43e1c;fill-opacity:1;stroke-width:0.374998"
     id="rect2687"
     width="6"
     height="6"
     x="6"
     y="12"
     ry="1" />
  <path
     id="rect8802"
     style="opacity:1;fill:#ffffff;stroke-width:5;stroke-linecap:round;stroke-linejoin:round"
     d="m 8,13 v 4 H 9 V 16 H 9.5 C 10.330997,16 11,15.330997 11,14.5 11,13.669003 10.330997,13 9.5,13 H 9 Z m 1,1 H 9.5 C 9.7769991,14 10,14.223 10,14.5 10,14.777 9.7769991,15 9.5,15 H 9 Z" />
</svg>
