<?xml version="1.0" encoding="UTF-8" standalone="no"?>
<svg
   width="24"
   height="24"
   version="1.1"
   id="svg1535"
   sodipodi:docname="application-x-theme.svg"
   inkscape:version="1.2.2 (1:1.2.2+202305151914+b0a8486541)"
   xmlns:inkscape="http://www.inkscape.org/namespaces/inkscape"
   xmlns:sodipodi="http://sodipodi.sourceforge.net/DTD/sodipodi-0.dtd"
   xmlns="http://www.w3.org/2000/svg"
   xmlns:svg="http://www.w3.org/2000/svg">
  <defs
     id="defs1539" />
  <sodipodi:namedview
     id="namedview1537"
     pagecolor="#ffffff"
     bordercolor="#000000"
     borderopacity="0.25"
     inkscape:showpageshadow="2"
     inkscape:pageopacity="0.0"
     inkscape:pagecheckerboard="0"
     inkscape:deskcolor="#d1d1d1"
     showgrid="false"
     inkscape:zoom="33.583333"
     inkscape:cx="11.985112"
     inkscape:cy="12"
     inkscape:window-width="1920"
     inkscape:window-height="1008"
     inkscape:window-x="0"
     inkscape:window-y="0"
     inkscape:window-maximized="1"
     inkscape:current-layer="svg1535" />
  <path
     style="opacity:0.2"
     d="M 5,2.5 C 4.446,2.5 4,2.946 4,3.5 V 21.5 C 4,22.054 4.446,22.5 5,22.5 H 19 C 19.554,22.5 20,22.054 20,21.5 V 8.5 L 14,2.5 Z"
     id="path1495" />
  <path
     style="fill:#e4e4e4"
     d="M 5,2 C 4.446,2 4,2.446 4,3 V 21 C 4,21.554 4.446,22 5,22 H 19 C 19.554,22 20,21.554 20,21 V 8 L 15,7 14,2 Z"
     id="path1497" />
  <path
     id="ellipse2-3"
     style="opacity:0.2;fill:#000000;stroke-width:0.661447"
     d="m 12.000897,10.500064 a 2.4429768,2.6249989 0 0 0 -2.2201381,1.531676 2.6965583,2.378187 23.297846 0 0 -2.4818673,1.094605 2.6965583,2.378187 23.297846 0 0 0.2604268,2.624998 2.378187,2.6965583 66.702156 0 0 -0.2604268,2.623717 2.378187,2.6965583 66.702156 0 0 2.4818673,1.094604 2.4427615,2.6249989 0 0 0 2.2201381,1.530395 2.4427615,2.6249989 0 0 0 2.220138,-1.532958 c 1.0338,0.133537 2.002169,-0.293181 2.480565,-1.092041 0.492921,-0.825486 0.355385,-1.849934 -0.260426,-2.624999 a 2.378187,2.6965583 66.702156 0 0 0.260426,-2.624999 2.378187,2.6965583 66.702156 0 0 -0.352878,-0.43579 2.3783068,2.696377 66.708498 0 0 -0.07813,-0.07947 2.378187,2.6965583 66.702156 0 0 -0.145839,-0.11023 2.3783068,2.696377 66.708498 0 0 -0.126307,-0.09357 2.378187,2.6965583 66.702156 0 0 -0.144537,-0.07947 2.3783068,2.696377 66.708498 0 0 -0.169277,-0.08972 2.378187,2.6965583 66.702156 0 0 -0.153652,-0.05896 2.3783068,2.696377 66.708498 0 0 -0.173184,-0.06152 2.378187,2.6965583 66.702156 0 0 -0.197924,-0.04486 2.3783068,2.696377 66.708498 0 0 -0.154954,-0.03205 2.378187,2.6965583 66.702156 0 0 -0.199226,-0.01794 2.3783068,2.696377 66.708498 0 0 -0.135423,-0.01282 2.3783068,2.696377 66.708498 0 0 -0.03906,0.0013 2.378187,2.6965583 66.702156 0 0 -0.131516,0.0039 2.3783068,2.696377 66.708498 0 0 -0.217456,0.0141 2.378187,2.6965583 66.702156 0 0 -0.0638,0.0038 A 2.4429768,2.6249989 0 0 0 12.000899,10.5 Z m 2.274828,8.822201 c -0.01174,0.03234 -0.02351,0.06425 -0.03646,0.09613 a 2.4427615,2.6249989 0 0 0 0.03256,-0.09485 4.3428352,4.1999983 0 0 0 0.004,-0.0013 z" />
  <g
     id="g809"
     transform="matrix(0.6666388,0,0,0.65625,1.6668895,2.125)">
    <path
       id="ellipse2"
       style="fill:#278df2"
       d="m 22.014627,20 a 6.5139999,6.4000001 0 0 1 -6.514,6.4 6.5139999,6.4000001 0 0 1 -6.514,-6.4 6.5139999,6.4000001 0 0 1 6.514,-6.4 6.5139999,6.4000001 0 0 1 6.514,6.4 z" />
    <path
       id="ellipse8"
       style="fill:#34e0c4;stroke-width:0.999941"
       d="m 20.858313,21.117135 a 3.6139282,4.0558468 63.834735 0 1 -5.358305,-1.117392 3.6139282,4.0558468 63.834735 0 1 1.694173,-5.117667 3.6139282,4.0558468 63.834735 0 1 5.358305,1.117392 3.6139282,4.0558468 63.834735 0 1 -1.694173,5.117667 z" />
    <path
       id="ellipse10"
       style="fill:#ffc107"
       d="m 19.164627,24 a 3.664,4 0 0 1 -3.664,4 3.664,4 0 0 1 -3.664,-4 3.664,4 0 0 1 3.664,-4 3.664,4 0 0 1 3.664,4 z" />
    <path
       id="ellipse14"
       style="fill:#fb8300;stroke-width:0.999941"
       d="m 13.805834,25.117411 a 3.6139282,4.0558468 63.834735 0 1 -5.3583056,-1.117392 3.6139282,4.0558468 63.834735 0 1 1.6941736,-5.117667 3.6139282,4.0558468 63.834735 0 1 5.358306,1.117392 3.6139282,4.0558468 63.834735 0 1 -1.694174,5.117667 z" />
    <path
       id="ellipse18"
       style="fill:#fa3e30;stroke-width:0.999941"
       d="m 10.142043,21.118169 a 4.0558468,3.6139282 26.165265 0 0 5.358306,-1.117391 4.0558468,3.6139282 26.165265 0 0 -1.694173,-5.117667 4.0558468,3.6139282 26.165265 0 0 -5.3583063,1.117391 4.0558468,3.6139282 26.165265 0 0 1.6941733,5.117667 z" />
    <path
       style="fill:#a544c9"
       d="m 15.500162,12 a 3.6643229,4 0 0 0 -3.664323,4 3.6643229,4 0 0 0 3.664323,4 3.6141143,4.0555696 63.838713 0 1 1.693794,-5.117969 3.6141143,4.0555696 63.838713 0 1 1.634155,-0.545313 A 3.6643229,4 0 0 0 15.500162,12 Z m 0,8 A 3.6643229,4 0 0 0 18.983177,17.233593 3.6643229,4 0 0 1 18.490942,18.301562 4.0555696,3.6141143 26.161287 0 0 15.500162,20 Z m 3.483015,-2.766407 a 3.6643229,4 0 0 0 0.08827,-0.353125 3.6643229,4 0 0 1 -0.08827,0.353125 z m -0.112124,-2.790625 a 3.6643229,4 0 0 1 0.122461,0.364844 3.6643229,4 0 0 0 -0.122461,-0.364844 z m 0.128028,0.38125 a 3.6643229,4 0 0 1 0.07475,0.316406 3.6643229,4 0 0 0 -0.07475,-0.316406 z m 0.09542,0.414063 a 3.6643229,4 0 0 1 0.03578,0.255469 3.6643229,4 0 0 0 -0.03578,-0.255469 z m 0.05328,0.414843 A 3.6643229,4 0 0 1 19.164481,16 a 3.6643229,4 0 0 0 -0.0167,-0.346876 z m 0.0087,0.523438 a 3.6643229,4 0 0 1 -0.0159,0.2625 3.6643229,4 0 0 0 0.0159,-0.2625 z m -0.02858,0.354688 a 3.6643229,4 0 0 1 -0.04771,0.310156 3.6643229,4 0 0 0 0.04771,-0.310156 z"
       id="path8" />
    <path
       style="fill:#009688"
       d="m 18.547402,18.297656 c -1.302141,0.03619 -2.442407,0.673203 -3.04724,1.702344 2.023749,0 3.664322,1.79086 3.664322,4 -0.0014,0.574359 -0.116154,1.141646 -0.336373,1.663281 1.55137,0.204283 3.006096,-0.44546 3.723964,-1.663281 1.012085,-1.721894 0.25372,-4.013368 -1.693796,-5.117969 -0.710558,-0.402895 -1.516036,-0.606585 -2.310877,-0.584375 z m 0.280709,7.365625 z M 15.500162,20 Z"
       id="path10" />
    <path
       id="ellipse980"
       style="fill:#03a9f4"
       d="m 19.505232,14.297656 a 3.6141143,4.0555696 63.838713 0 0 -2.311076,0.584766 3.6141143,4.0555696 63.838713 0 0 -1.693795,5.117382 c 0.604868,-1.029003 1.744999,-1.665958 3.047041,-1.702148 0.794841,-0.02221 1.600319,0.18148 2.310877,0.584375 0.523507,0.296925 0.960199,0.680123 1.300565,1.114453 A 3.6141143,4.0555696 63.838713 0 0 22.552273,16 3.6141143,4.0555696 63.838713 0 0 19.505232,14.297656 Z M 15.500361,20 a 3.6141143,4.0555696 63.838713 0 0 2.996148,1.698632 C 17.833293,20.671548 16.738993,20.000072 15.500361,20 Z" />
    <path
       style="fill:#ffc107"
       d="m 15.500361,19.999804 c -6.3156123,6.400131 -3.157806,3.200066 0,0 z m 0,1.96e-4 c 0.642929,1.293551 1.748509,1.853628 2.996148,1.698632 C 17.833293,20.671548 16.738993,20.000072 15.500361,20 Z"
       id="path13" />
  </g>
  <path
     style="opacity:0.2"
     d="M 20,8.5 14,2.5 V 7.5 C 14,8.054 14.446,8.5 15,8.5 Z"
     id="path1499" />
  <path
     style="fill:#fafafa"
     d="M 20,8 14,2 V 7 C 14,7.554 14.446,8 15,8 Z"
     id="path1501" />
  <path
     style="opacity:0.2;fill:#ffffff"
     d="M 5 2 C 4.446 2 4 2.446 4 3 L 4 3.5 C 4 2.946 4.446 2.5 5 2.5 L 14 2.5 L 14 2 L 5 2 z"
     id="path1503" />
</svg>
