<?xml version="1.0" encoding="UTF-8" standalone="no"?>
<svg
   width="24"
   height="24"
   version="1"
   id="svg6541"
   sodipodi:docname="image-x-generic.svg"
   inkscape:version="1.2.2 (1:1.2.2+202305151914+b0a8486541)"
   xmlns:inkscape="http://www.inkscape.org/namespaces/inkscape"
   xmlns:sodipodi="http://sodipodi.sourceforge.net/DTD/sodipodi-0.dtd"
   xmlns="http://www.w3.org/2000/svg"
   xmlns:svg="http://www.w3.org/2000/svg">
  <defs
     id="defs6545" />
  <sodipodi:namedview
     id="namedview6543"
     pagecolor="#ffffff"
     bordercolor="#000000"
     borderopacity="0.25"
     inkscape:showpageshadow="2"
     inkscape:pageopacity="0.0"
     inkscape:pagecheckerboard="0"
     inkscape:deskcolor="#d1d1d1"
     showgrid="false"
     inkscape:zoom="33.583333"
     inkscape:cx="11.985112"
     inkscape:cy="12"
     inkscape:window-width="1920"
     inkscape:window-height="1008"
     inkscape:window-x="0"
     inkscape:window-y="0"
     inkscape:window-maximized="1"
     inkscape:current-layer="svg6541" />
  <path
     style="opacity:0.2"
     d="m 22,20.5 v -16 c 0,-0.554 -0.446,-1 -1,-1 H 3 c -0.554,0 -1,0.446 -1,1 v 16 c 0,0.554 0.446,1 1,1 h 18 c 0.554,0 1,-0.446 1,-1 z"
     id="path6531" />
  <rect
     style="fill:#8f3d8b;fill-opacity:1"
     id="rect342"
     width="20"
     height="18"
     x="2"
     y="3"
     ry="1" />
  <path
     fill="#fff"
     style="opacity:0.2"
     d="m3 3c-0.554 0-1 0.446-1 1v0.5c0-0.554 0.446-1 1-1h18c0.554 0 1 0.446 1 1v-0.5c0-0.554-0.446-1-1-1z"
     id="path6535" />
  <path
     style="opacity:0.2"
     d="m 9,10.5 4,6 3,-4 3,4 v 2 H 5 v -4 z"
     id="path6537" />
  <path
     fill="#fff"
     d="m9 10 4 6 3-4 3 4v2h-14v-4z"
     id="path6539" />
</svg>
