<?xml version="1.0" encoding="UTF-8" standalone="no"?>
<svg
   width="24"
   height="24"
   version="1"
   id="svg342"
   sodipodi:docname="package-x-generic.svg"
   inkscape:version="1.2.2 (1:1.2.2+202305151914+b0a8486541)"
   xmlns:inkscape="http://www.inkscape.org/namespaces/inkscape"
   xmlns:sodipodi="http://sodipodi.sourceforge.net/DTD/sodipodi-0.dtd"
   xmlns="http://www.w3.org/2000/svg"
   xmlns:svg="http://www.w3.org/2000/svg">
  <defs
     id="defs346" />
  <sodipodi:namedview
     id="namedview344"
     pagecolor="#ffffff"
     bordercolor="#000000"
     borderopacity="0.25"
     inkscape:showpageshadow="2"
     inkscape:pageopacity="0.0"
     inkscape:pagecheckerboard="0"
     inkscape:deskcolor="#d1d1d1"
     showgrid="false"
     inkscape:zoom="33.583333"
     inkscape:cx="11.985112"
     inkscape:cy="12"
     inkscape:window-width="1920"
     inkscape:window-height="1008"
     inkscape:window-x="0"
     inkscape:window-y="0"
     inkscape:window-maximized="1"
     inkscape:current-layer="svg342" />
  <rect
     style="opacity:0.2"
     width="20"
     height="20"
     x="2"
     y="2.5"
     rx="2"
     ry="2"
     id="rect310" />
  <rect
     style="fill:#c19f5f;fill-opacity:1"
     id="rect944"
     width="20"
     height="20"
     x="2"
     y="2"
     ry="2" />
  <rect
     style="opacity:0.2"
     width="4"
     height="9.5"
     x="10"
     y="2"
     id="rect314" />
  <path
     style="opacity:0.2;fill:#ffffff"
     d="M 4,2 C 2.892,2 2,2.892 2,4 v 0.5 c 0,-1.108 0.892,-2 2,-2 h 16 c 1.108,0 2,0.892 2,2 V 4 C 22,2.892 21.108,2 20,2 Z"
     id="path316" />
  <rect
     style="fill:#ffffff"
     width="1"
     height="1"
     x="11"
     y="9"
     id="rect318" />
  <path
     style="fill:#4b4b4b"
     d="m 12,9 c 1.5,0 1.5,2 2,2 v 2.5 c 0,0.277 -0.223,0.5 -0.5,0.5 h -3 C 10.223,14 10,13.777 10,13.5 V 11 c 0.5,0 0.5,-2 2,-2 z"
     id="path320" />
  <rect
     style="fill:#ffffff"
     width="1"
     height="1"
     x="12"
     y="8"
     id="rect322" />
  <rect
     style="fill:#ffffff"
     width="1"
     height="1"
     x="11"
     y="7"
     id="rect324" />
  <rect
     style="fill:#ffffff"
     width="1"
     height="1"
     x="12"
     y="6"
     id="rect326" />
  <rect
     style="fill:#ffffff"
     width="1"
     height="1"
     x="11"
     y="5"
     id="rect328" />
  <rect
     style="fill:#ffffff"
     width="1"
     height="1"
     x="12"
     y="4"
     id="rect330" />
  <rect
     style="fill:#ffffff"
     width="1"
     height="1"
     x="11"
     y="3"
     id="rect332" />
  <rect
     style="fill:#ffffff"
     width="1"
     height="1"
     x="12"
     y="2"
     id="rect334" />
  <path
     style="opacity:0.2"
     d="m 12,11.5 c -1.105,0 -2,0.9 -2,2 v 4 c 0,1.1 0.895,2 2,2 1.105,0 2,-0.9 2,-2 v -4 c 0,-1.1 -0.895,-2 -2,-2 z m 0,5 a 1,1 0 0 1 1,1 1,1 0 0 1 -1,1 1,1 0 0 1 -1,-1 1,1 0 0 1 1,-1 z"
     id="path336" />
  <path
     style="fill:#ffffff"
     d="m 12,11 c -1.105,0 -2,0.9 -2,2 v 4 c 0,1.1 0.895,2 2,2 1.105,0 2,-0.9 2,-2 v -4 c 0,-1.1 -0.895,-2 -2,-2 z m 0,5 a 1,1 0 0 1 1,1 1,1 0 0 1 -1,1 1,1 0 0 1 -1,-1 1,1 0 0 1 1,-1 z"
     id="path338" />
  <path
     style="fill:#909090"
     d="M 11.992188,10.000061 A 0.50005,0.49772427 0 0 0 11.5,10.50454 v 1.990698 a 0.50005,0.49772427 0 1 0 1,0 V 10.50454 a 0.50005,0.49772427 0 0 0 -0.507812,-0.504479 z"
     id="path340" />
</svg>
