<?xml version="1.0" encoding="UTF-8" standalone="no"?>
<svg
   width="24"
   height="24"
   version="1"
   id="svg8712"
   sodipodi:docname="text-x-generic-template-rtl.svg"
   inkscape:version="1.2.2 (1:1.2.2+202305151914+b0a8486541)"
   xmlns:inkscape="http://www.inkscape.org/namespaces/inkscape"
   xmlns:sodipodi="http://sodipodi.sourceforge.net/DTD/sodipodi-0.dtd"
   xmlns="http://www.w3.org/2000/svg"
   xmlns:svg="http://www.w3.org/2000/svg">
  <defs
     id="defs8716" />
  <sodipodi:namedview
     id="namedview8714"
     pagecolor="#ffffff"
     bordercolor="#000000"
     borderopacity="0.25"
     inkscape:showpageshadow="2"
     inkscape:pageopacity="0.0"
     inkscape:pagecheckerboard="0"
     inkscape:deskcolor="#d1d1d1"
     showgrid="false"
     inkscape:zoom="34.916667"
     inkscape:cx="12.01432"
     inkscape:cy="12"
     inkscape:window-width="1920"
     inkscape:window-height="1008"
     inkscape:window-x="0"
     inkscape:window-y="0"
     inkscape:window-maximized="1"
     inkscape:current-layer="svg8712" />
  <path
     style="opacity:0.2"
     d="m 5,2.5 c -0.554,0 -1,0.446 -1,1 v 18 c 0,0.554 0.446,1 1,1 h 14 c 0.554,0 1,-0.446 1,-1 V 8.5 L 14.5,8 14,2.5 Z"
     id="path8700" />
  <path
     fill="#e4e4e4"
     d="m5 2c-0.554 0-1 0.446-1 1v18c0 0.554 0.446 1 1 1h14c0.554 0 1-0.446 1-1v-13l-5.5-0.5-0.5-5.5z"
     id="path8702" />
  <path
     fill="#fff"
     opacity=".2"
     d="m5 2c-0.554 0-1 0.446-1 1v0.5c0-0.554 0.446-1 1-1h9l5.5 5.5h0.5l-6-6z"
     id="path8704" />
  <path
     style="opacity:0.2"
     d="m 14,2.5 v 5 c 0,0.5523 0.44772,1 1,1 h 5 z"
     id="path8706" />
  <path
     fill="#fafafa"
     d="m14 2v5c0 0.5523 0.44772 1 1 1h5l-6-6z"
     id="path8708" />
  <path
     style="opacity:0.5"
     d="m 16,12 v 1 h -1 v -1 z m -2,0 v 1 h -1 v -1 z m -2,0 v 1 h -1 v -1 z m -2,0 v 1 H 9 v -1 z m 5,2 v 1 h -1 v -1 z m -2,0 v 1 h -1 v -1 z m -2,0 v 1 h -1 v -1 z m -2,0 v 1 H 8 v -1 z m 7,2 v 1 h -1 v -1 z m -2,0 v 1 h -1 v -1 z m -2,0 v 1 h -1 v -1 z m -2,0 v 1 H 9 v -1 z m 5,2 v 1 h -1 v -1 z m -2,0 v 1 h -1 v -1 z m -2,0 v 1 h -1 v -1 z m -2,0 v 1 H 8 v -1 z"
     id="path8710" />
</svg>
