<?xml version="1.0" encoding="UTF-8" standalone="no"?>
<svg
   width="24"
   height="24"
   version="1"
   id="svg5094"
   sodipodi:docname="text-x-vala.svg"
   inkscape:version="1.2.2 (1:1.2.2+202305151914+b0a8486541)"
   xmlns:inkscape="http://www.inkscape.org/namespaces/inkscape"
   xmlns:sodipodi="http://sodipodi.sourceforge.net/DTD/sodipodi-0.dtd"
   xmlns="http://www.w3.org/2000/svg"
   xmlns:svg="http://www.w3.org/2000/svg">
  <defs
     id="defs5098" />
  <sodipodi:namedview
     id="namedview5096"
     pagecolor="#ffffff"
     bordercolor="#000000"
     borderopacity="0.25"
     inkscape:showpageshadow="2"
     inkscape:pageopacity="0.0"
     inkscape:pagecheckerboard="0"
     inkscape:deskcolor="#d1d1d1"
     showgrid="false"
     inkscape:zoom="33.583333"
     inkscape:cx="11.985112"
     inkscape:cy="12"
     inkscape:window-width="1920"
     inkscape:window-height="1008"
     inkscape:window-x="0"
     inkscape:window-y="0"
     inkscape:window-maximized="1"
     inkscape:current-layer="svg5094" />
  <path
     style="opacity:0.2"
     d="m 5,2.5 c -0.554,0 -1,0.446 -1,1 v 18 c 0,0.554 0.446,1 1,1 h 14 c 0.554,0 1,-0.446 1,-1 V 8.5 L 14.5,8 14,2.5 Z"
     id="path5082" />
  <path
     style="fill:#e4e4e4"
     d="M 5,2 C 4.446,2 4,2.446 4,3 v 18 c 0,0.554 0.446,1 1,1 h 14 c 0.554,0 1,-0.446 1,-1 V 8 L 14.5,7.5 14,2 Z"
     id="path5084" />
  <path
     d="m 10.000296,20.499976 -2.91e-4,-8.999705 c -0.620374,0.234314 -0.89991,0.492745 -1.248628,0.991764 -0.344825,0.499216 -0.517238,1.369727 -0.517238,2.111883 0,0.169216 0.0087,0.308138 0.02597,0.416765 0.0214,0.104117 0.04291,0.188725 0.06451,0.253823 0.0216,0.06079 0.04106,0.10853 0.05838,0.143236 0.0214,0.0347 0.03211,0.0651 0.03211,0.09118 -0.228261,0 -0.430642,-0.02167 -0.607141,-0.065 C 7.631275,15.396072 7.482603,15.322252 7.361953,15.222448 7.245584,15.122838 7.155097,14.990487 7.09049,14.825389 7.03017,14.660683 7,14.456761 7,14.213624 7,13.918526 7.06237,13.377917 7.187105,13.091447 7.316317,12.805173 7.490773,12.533897 7.710472,12.277623 7.934453,12.02174 8.195116,11.78527 8.492459,11.568211 c 0.301625,-0.217058 0.622515,-0.403725 0.96267,-0.56 0.344437,-0.160588 0.701911,-0.284216 1.072423,-0.370882 0.374793,-0.09137 0.747446,-0.137059 1.117957,-0.137059 0.139422,-0.01766 0.343859,0.0251 0.354491,0.02588 v 8.202941 l 3.076152,-8.164117 h 0.92385 l -3.676126,9.935297 H 10 Z"
     style="fill:#000000;fill-opacity:1;opacity:0.2"
     id="path3465" />
  <path
     d="m 10.000296,19.999975 -2.91e-4,-8.999705 c -0.620374,0.234314 -0.89991,0.492745 -1.248628,0.991764 -0.344825,0.499216 -0.517238,1.369727 -0.517238,2.111883 0,0.169216 0.0087,0.308138 0.02597,0.416765 0.0214,0.104117 0.04291,0.188725 0.06451,0.253823 0.0216,0.06079 0.04106,0.10853 0.05838,0.143236 0.0214,0.0347 0.03211,0.0651 0.03211,0.09118 -0.228261,0 -0.430642,-0.02167 -0.607141,-0.065 C 7.631275,14.896071 7.482603,14.822251 7.361953,14.722447 7.245584,14.622837 7.155097,14.490486 7.09049,14.325388 7.03017,14.160682 7,13.95676 7,13.713623 c 0,-0.295098 0.06237,-0.835707 0.187105,-1.122177 0.129212,-0.286274 0.303668,-0.55755 0.523367,-0.813824 0.223981,-0.255883 0.484644,-0.492353 0.781987,-0.709412 0.301625,-0.217058 0.622515,-0.403725 0.96267,-0.56 0.344437,-0.160588 0.701911,-0.284216 1.072423,-0.370882 0.374793,-0.09137 0.747446,-0.137059 1.117957,-0.137059 0.139422,-0.017655 0.343859,0.0251 0.354491,0.02588 v 8.202941 l 3.076152,-8.164117 h 0.92385 L 12.323876,20.00027 H 10 Z"
     style="fill:#634d9f;fill-opacity:1"
     id="path2949"
     sodipodi:nodetypes="cccscccccccsccccccccccccc" />
  <path
     style="opacity:0.2;fill:#ffffff"
     d="M 5,2 C 4.446,2 4,2.446 4,3 v 0.5 c 0,-0.554 0.446,-1 1,-1 h 9 L 19.5,8 H 20 L 14,2 Z"
     id="path5086" />
  <path
     style="opacity:0.2"
     d="m 14,2.5 v 5 c 0,0.5523 0.447715,1 1,1 h 5 z"
     id="path5088" />
  <path
     style="fill:#fafafa"
     d="m 14,2 v 5 c 0,0.5523 0.447715,1 1,1 h 5 z"
     id="path5090" />
</svg>
