<?xml version="1.0" encoding="UTF-8" standalone="no"?>
<svg
   width="24"
   height="24"
   version="1"
   id="svg5555"
   sodipodi:docname="video-x-generic.svg"
   inkscape:version="1.2.2 (1:1.2.2+202305151914+b0a8486541)"
   xmlns:inkscape="http://www.inkscape.org/namespaces/inkscape"
   xmlns:sodipodi="http://sodipodi.sourceforge.net/DTD/sodipodi-0.dtd"
   xmlns="http://www.w3.org/2000/svg"
   xmlns:svg="http://www.w3.org/2000/svg">
  <defs
     id="defs5559" />
  <sodipodi:namedview
     id="namedview5557"
     pagecolor="#ffffff"
     bordercolor="#000000"
     borderopacity="0.25"
     inkscape:showpageshadow="2"
     inkscape:pageopacity="0.0"
     inkscape:pagecheckerboard="0"
     inkscape:deskcolor="#d1d1d1"
     showgrid="false"
     inkscape:zoom="33.583333"
     inkscape:cx="11.985112"
     inkscape:cy="12"
     inkscape:window-width="1920"
     inkscape:window-height="1008"
     inkscape:window-x="0"
     inkscape:window-y="0"
     inkscape:window-maximized="1"
     inkscape:current-layer="svg5555" />
  <rect
     style="opacity:0.2;fill:#000000;fill-opacity:1;stroke-width:5.59017;stroke-linecap:round;stroke-linejoin:round"
     id="rect4491"
     width="20"
     height="18"
     x="2"
     y="3.5"
     ry="1" />
  <rect
     style="fill:#5c5c5c;stroke-width:5;stroke-linecap:round;stroke-linejoin:round"
     id="rect5705"
     width="20"
     height="18"
     x="2"
     y="3"
     ry="1" />
  <path
     id="rect5707"
     style="fill:#ffffff;stroke-width:5;stroke-linecap:round;stroke-linejoin:round;opacity:0.2"
     d="M 3 3 C 2.4460006 3 2 3.4460006 2 4 L 2 4.5 C 2 3.9460006 2.4460006 3.5 3 3.5 L 21 3.5 C 21.553999 3.5 22 3.9460006 22 4.5 L 22 4 C 22 3.4460006 21.553999 3 21 3 L 3 3 z " />
  <path
     d="M 7.53125,7.5 C 7.234464,7.5 7,7.7578 7,8.0624998 V 17.9375 C 7,18.2422 7.234464,18.5 7.53125,18.5 h 8.9375 C 16.765536,18.5 17,18.2422 17,17.9375 V 8.0624998 C 17,7.7578 16.765536,7.5 16.46875,7.5 Z m 0.1875,0.7187498 H 8.4375 v 0.75 H 7.71875 Z m 7.84375,0 h 0.71875 v 0.75 H 15.5625 Z M 9.5,8.4999998 h 5 c 0.277,0 0.5,0.223 0.5,0.5 V 12 c 0,0.277 -0.223,0.5 -0.5,0.5 h -5 C 9.223,12.5 9,12.277 9,12 V 8.9999998 c 0,-0.277 0.223,-0.5 0.5,-0.5 z M 7.71875,9.6875 H 8.4375 v 0.75 H 7.71875 Z m 7.84375,0 h 0.71875 v 0.75 H 15.5625 Z M 7.71875,11.15625 H 8.4375 v 0.75 H 7.71875 Z m 7.84375,0 h 0.71875 v 0.75 H 15.5625 Z M 7.71875,12.625 H 8.4375 v 0.75 H 7.71875 Z m 7.84375,0 h 0.71875 v 0.75 H 15.5625 Z M 9.5,13.5 h 5 c 0.277,0 0.5,0.223 0.5,0.5 v 3 c 0,0.277 -0.223,0.5 -0.5,0.5 h -5 C 9.223,17.5 9,17.277 9,17 V 14 C 9,13.723 9.223,13.5 9.5,13.5 Z M 7.71875,14.09375 H 8.4375 v 0.75 H 7.71875 Z m 7.84375,0 h 0.71875 v 0.75 H 15.5625 Z M 7.71875,15.5625 H 8.4375 v 0.75 H 7.71875 Z m 7.84375,0 h 0.71875 v 0.75 H 15.5625 Z M 7.71875,17.03125 H 8.4375 v 0.75 H 7.71875 Z m 7.84375,0 h 0.71875 v 0.75 H 15.5625 Z"
     style="color:#000000;display:inline;overflow:visible;visibility:visible;fill:#000000;fill-opacity:1;fill-rule:nonzero;stroke:none;stroke-width:1;marker:none;enable-background:accumulate;opacity:0.2"
     id="path7028" />
  <path
     d="M 7.53125,7 C 7.234464,7 7,7.2578 7,7.5625 v 9.875 C 7,17.7422 7.234464,18 7.53125,18 h 8.9375 C 16.765536,18 17,17.7422 17,17.4375 V 7.5625 C 17,7.2578 16.765536,7 16.46875,7 Z m 0.1875,0.71875 H 8.4375 v 0.75 H 7.71875 Z m 7.84375,0 h 0.71875 v 0.75 H 15.5625 Z M 9.5,8 h 5 C 14.777,8 15,8.223 15,8.5 v 3 C 15,11.777 14.777,12 14.5,12 H 9.5000001 c -0.277,0 -0.5,-0.223 -0.5,-0.5 v -3 C 9.0000001,8.223 9.2230001,8 9.5,8 Z M 7.71875,9.1875 H 8.4375 V 9.9374995 H 7.71875 Z m 7.84375,0 h 0.71875 V 9.9374995 H 15.5625 Z M 7.71875,10.65625 H 8.4375 v 0.75 H 7.71875 Z m 7.84375,0 h 0.71875 v 0.75 H 15.5625 Z M 7.71875,12.125 H 8.4375 v 0.75 H 7.71875 Z m 7.84375,0 h 0.71875 v 0.75 H 15.5625 Z M 9.5,13 h 5 c 0.277,0 0.5,0.223 0.5,0.5 v 3 C 15,16.777 14.777,17 14.5,17 H 9.5000001 c -0.277,0 -0.5,-0.223 -0.5,-0.5 v -3 c 0,-0.277 0.223,-0.5 0.4999999,-0.5 z M 7.71875,13.59375 H 8.4375 v 0.75 H 7.71875 Z m 7.84375,0 h 0.71875 v 0.75 H 15.5625 Z M 7.71875,15.0625 H 8.4375 v 0.75 H 7.71875 Z m 7.84375,0 h 0.71875 v 0.75 H 15.5625 Z M 7.71875,16.53125 H 8.4375 v 0.75 H 7.71875 Z m 7.84375,0 h 0.71875 v 0.75 H 15.5625 Z"
     style="color:#000000;display:inline;overflow:visible;visibility:visible;fill:#ffffff;fill-opacity:1;fill-rule:nonzero;stroke:none;stroke-width:1;marker:none;enable-background:accumulate"
     id="path7000"
     sodipodi:nodetypes="sssssssssccccccccccsssssssssccccccccccccccccccccccccccccccssssssssscccccccccccccccccccccccccccccc" />
</svg>
