<?xml version="1.0" encoding="UTF-8" standalone="no"?>
<!-- Created with Inkscape (http://www.inkscape.org/) -->

<svg
   width="480"
   height="300"
   viewBox="0 0 480 300"
   version="1.1"
   id="svg5"
   inkscape:version="1.2.2 (1:1.2.2+202305151914+b0a8486541)"
   sodipodi:docname="system-hibernate.svg"
   xmlns:inkscape="http://www.inkscape.org/namespaces/inkscape"
   xmlns:sodipodi="http://sodipodi.sourceforge.net/DTD/sodipodi-0.dtd"
   xmlns="http://www.w3.org/2000/svg"
   xmlns:svg="http://www.w3.org/2000/svg">
  <sodipodi:namedview
     id="namedview7"
     pagecolor="#888888"
     bordercolor="#000000"
     borderopacity="0.25"
     inkscape:showpageshadow="true"
     inkscape:pageopacity="0"
     inkscape:pagecheckerboard="0"
     inkscape:deskcolor="#888888"
     inkscape:document-units="px"
     showgrid="false"
     showborder="false"
     inkscape:zoom="2.6866667"
     inkscape:cx="240.44665"
     inkscape:cy="150"
     inkscape:window-width="1920"
     inkscape:window-height="1008"
     inkscape:window-x="0"
     inkscape:window-y="0"
     inkscape:window-maximized="1"
     inkscape:current-layer="svg5" />
  <defs
     id="defs2" />
  <g
     id="Baseplate"
     style="display:none">
    <text
       y="19.774782"
       xml:space="preserve"
       x="15.006946"
       style="font-style:normal;font-variant:normal;font-weight:normal;font-stretch:normal;line-height:0%;font-family:'DejaVu Sans';-inkscape-font-specification:'DejaVu Sans';display:inline;fill:#000000;fill-opacity:1;stroke:none;enable-background:new"
       inkscape:label="context"
       id="context"><tspan
         style="font-style:normal;font-variant:normal;font-weight:normal;font-stretch:normal;font-size:18px;line-height:1.25;font-family:'DejaVu Sans';-inkscape-font-specification:'DejaVu Sans'"
         y="19.774782"
         x="15.006946"
         sodipodi:role="line"
         id="tspan3933">actions</tspan></text>
    <text
       y="19.774782"
       xml:space="preserve"
       x="122.48839"
       style="font-style:normal;font-variant:normal;font-weight:bold;font-stretch:normal;line-height:0%;font-family:'DejaVu Sans';-inkscape-font-specification:'DejaVu Sans Bold';text-align:start;writing-mode:lr-tb;text-anchor:start;display:inline;fill:#000000;fill-opacity:1;stroke:none;enable-background:new"
       inkscape:label="icon-name"
       id="icon-name"><tspan
         style="font-style:normal;font-variant:normal;font-weight:bold;font-stretch:normal;font-size:18px;line-height:1.25;font-family:'DejaVu Sans';-inkscape-font-specification:'DejaVu Sans Bold'"
         y="19.774782"
         x="122.48839"
         sodipodi:role="line"
         id="tspan3937">system-hibernate</tspan></text>
    <rect
       style="fill:#ffffff"
       id="256x256"
       width="256"
       height="256"
       x="16"
       y="28" />
    <rect
       style="fill:#ffffff"
       id="96x96"
       width="96"
       height="96"
       x="288"
       y="28" />
    <rect
       style="fill:#ffffff"
       id="64x64"
       width="64"
       height="64"
       x="288"
       y="140" />
    <rect
       style="fill:#ffffff"
       id="48x48"
       width="48"
       height="48"
       x="288"
       y="220" />
    <rect
       style="fill:#ffffff"
       id="32x32"
       width="32"
       height="32"
       x="416"
       y="52" />
    <rect
       style="fill:#ffffff"
       id="24x24"
       width="24"
       height="24"
       x="416"
       y="100" />
    <rect
       style="fill:#ffffff"
       id="22x22"
       width="22"
       height="22"
       x="417"
       y="101" />
    <rect
       style="fill:#ffffff"
       id="16x16"
       width="16"
       height="16"
       x="416"
       y="140" />
  </g>
  <g
     id="Shadow">
    <rect
       style="opacity:0.2;fill:#000000"
       id="rect651"
       width="224"
       height="224"
       x="32"
       y="46"
       ry="48" />
    <rect
       style="opacity:0.2;fill:#000000"
       id="rect769"
       width="84"
       height="85"
       x="294"
       y="34"
       ry="18" />
    <rect
       style="opacity:0.2;fill:#000000;fill-opacity:1"
       id="rect1131"
       width="56"
       height="56"
       x="292"
       y="145"
       ry="12" />
    <rect
       style="opacity:0.2;fill:#000000;fill-opacity:1"
       id="rect1261"
       width="42"
       height="42"
       x="291"
       y="224"
       ry="9" />
    <rect
       style="opacity:0.2;fill:#000000;fill-opacity:1"
       id="rect1364"
       width="28"
       height="29"
       x="418"
       y="54"
       ry="6" />
    <rect
       style="opacity:0.2;fill:#000000;fill-opacity:1"
       id="rect1398"
       width="16"
       height="16"
       x="416"
       y="141"
       ry="4" />
    <rect
       style="opacity:0.2;fill:#000000;fill-opacity:1"
       id="rect1432"
       width="20"
       height="20"
       x="418"
       y="103"
       ry="4" />
  </g>
  <g
     id="Background">
    <rect
       style="fill:#5f5f5f;fill-opacity:1"
       id="rect597"
       width="224"
       height="224"
       x="32"
       y="44"
       ry="48" />
    <rect
       style="opacity:1;fill:#5f5f5f;fill-opacity:1"
       id="rect771"
       width="84"
       height="84"
       x="294"
       y="34"
       ry="18" />
    <rect
       style="opacity:1;fill:#5f5f5f;fill-opacity:1"
       id="rect1133"
       width="56"
       height="56"
       x="292"
       y="144"
       ry="12" />
    <rect
       style="opacity:1;fill:#5f5f5f;fill-opacity:1"
       id="rect1263"
       width="42"
       height="42"
       x="291"
       y="223"
       ry="9" />
    <rect
       style="opacity:1;fill:#5f5f5f;fill-opacity:1"
       id="rect1366"
       width="28"
       height="28"
       x="418"
       y="54"
       ry="6" />
    <rect
       style="opacity:1;fill:#5f5f5f;fill-opacity:1"
       id="rect1400"
       width="16"
       height="16"
       x="416"
       y="140"
       ry="4" />
    <rect
       style="opacity:1;fill:#5f5f5f;fill-opacity:1"
       id="rect1434"
       width="20"
       height="20"
       x="418"
       y="102"
       ry="4" />
  </g>
  <g
     id="g694">
    <g
       id="g1050">
      <path
         d="m 424,143.5 c -0.55399,0 -1,0.446 -1,1 v 2.26953 l -1.96484,-1.13476 c -0.47978,-0.277 -1.08823,-0.11455 -1.36523,0.36523 -0.277,0.47978 -0.11454,1.08823 0.36523,1.36523 l 1.9668,1.13477 -1.9668,1.13477 c -0.47978,0.277 -0.64224,0.88545 -0.36523,1.36523 0.277,0.47978 0.88546,0.64223 1.36523,0.36523 L 423,150.23047 V 152.5 c 0,0.554 0.44601,1 1,1 0.554,0 1,-0.446 1,-1 v -2.26953 l 1.96484,1.13476 c 0.47978,0.277 1.08824,0.11455 1.36524,-0.36523 0.277,-0.47978 0.11454,-1.08823 -0.36524,-1.36523 l -1.96679,-1.13477 1.96679,-1.13477 c 0.47978,-0.277 0.64224,-0.88545 0.36524,-1.36523 -0.277,-0.47978 -0.88546,-0.64223 -1.36524,-0.36523 L 425,146.76953 V 144.5 c 0,-0.554 -0.446,-1 -1,-1 z"
         style="opacity:0.2;fill:#000000;stroke-width:5;stroke-linecap:round;stroke-linejoin:round"
         id="path1028" />
      <path
         d="m 424,143 c -0.554,0 -1,0.446 -1,1 v 2.26953 l -1.96484,-1.13476 c -0.47978,-0.277 -1.08824,-0.11455 -1.36524,0.36523 -0.277,0.47978 -0.11454,1.08823 0.36524,1.36523 l 1.96679,1.13477 -1.96679,1.13477 c -0.47978,0.277 -0.64224,0.88545 -0.36524,1.36523 0.277,0.47978 0.88546,0.64223 1.36524,0.36523 L 423,149.73047 V 152 c 0,0.554 0.446,1 1,1 0.554,0 1,-0.446 1,-1 v -2.26953 l 1.96484,1.13476 c 0.47978,0.277 1.08824,0.11455 1.36524,-0.36523 0.277,-0.47978 0.11454,-1.08823 -0.36524,-1.36523 L 425.99805,148 l 1.96679,-1.13477 c 0.47978,-0.277 0.64224,-0.88545 0.36524,-1.36523 -0.277,-0.47978 -0.88546,-0.64223 -1.36524,-0.36523 L 425,146.26953 V 144 c 0,-0.554 -0.446,-1 -1,-1 z"
         style="opacity:1;fill:#ffffff;stroke-width:5;stroke-linecap:round;stroke-linejoin:round"
         id="path1000" />
    </g>
    <g
       id="g1167">
      <path
         d="m 427.5,105.5 c -0.831,0 -1.5,0.669 -1.5,1.5 v 2.90234 l -2.51367,-1.45117 c -0.71967,-0.4155 -1.63333,-0.17084 -2.04883,0.54883 -0.4155,0.71967 -0.17084,1.63333 0.54883,2.04883 L 424.5,112.5 l -2.51367,1.45117 c -0.71967,0.4155 -0.96433,1.32916 -0.54883,2.04883 0.4155,0.71967 1.32916,0.96433 2.04883,0.54883 L 426,115.09766 V 118 c 0,0.831 0.669,1.5 1.5,1.5 0.831,0 1.5,-0.669 1.5,-1.5 v -2.90234 l 2.51367,1.45117 c 0.71967,0.4155 1.63333,0.17084 2.04883,-0.54883 0.4155,-0.71967 0.17084,-1.63333 -0.54883,-2.04883 L 430.5,112.5 l 2.51367,-1.45117 c 0.71967,-0.4155 0.96433,-1.32916 0.54883,-2.04883 -0.4155,-0.71967 -1.32916,-0.96433 -2.04883,-0.54883 L 429,109.90234 V 107 c 0,-0.831 -0.669,-1.5 -1.5,-1.5 z"
         style="fill:#000000;stroke-width:5;stroke-linecap:round;stroke-linejoin:round;opacity:0.2"
         id="path1117"
         sodipodi:nodetypes="sscssscssscssscssscssscss" />
      <path
         d="m 427.5,105 c -0.831,0 -1.5,0.669 -1.5,1.5 v 2.90234 l -2.51367,-1.45117 c -0.71967,-0.4155 -1.63333,-0.17084 -2.04883,0.54883 -0.4155,0.71967 -0.17084,1.63333 0.54883,2.04883 L 424.5,112 l -2.51367,1.45117 c -0.71967,0.4155 -0.96433,1.32916 -0.54883,2.04883 0.4155,0.71967 1.32916,0.96433 2.04883,0.54883 L 426,114.59766 V 117.5 c 0,0.831 0.669,1.5 1.5,1.5 0.831,0 1.5,-0.669 1.5,-1.5 v -2.90234 l 2.51367,1.45117 c 0.71967,0.4155 1.63333,0.17084 2.04883,-0.54883 0.4155,-0.71967 0.17084,-1.63333 -0.54883,-2.04883 L 430.5,112 l 2.51367,-1.45117 c 0.71967,-0.4155 0.96433,-1.32916 0.54883,-2.04883 -0.4155,-0.71967 -1.32916,-0.96433 -2.04883,-0.54883 L 429,109.40234 V 106.5 c 0,-0.831 -0.669,-1.5 -1.5,-1.5 z"
         style="fill:#ffffff;stroke-width:5;stroke-linecap:round;stroke-linejoin:round"
         id="path1145" />
    </g>
    <g
       id="g739">
      <path
         d="m 431.50047,59 c -0.831,0 -1.5,0.669 -1.5,1.5 v 5.902347 l -5.11133,-2.95118 c -0.71966,-0.4155 -1.63332,-0.170834 -2.04882,0.548833 -0.4155,0.719667 -0.17084,1.633327 0.54882,2.048827 L 428.50047,69 423.38914,71.951173 C 422.66948,72.36667 422.42482,73.28033 422.84032,74 c 0.4155,0.71967 1.32916,0.96433 2.04882,0.54883 l 5.11133,-2.951177 V 77.5 c 0,0.831 0.669,1.5 1.5,1.5 0.831,0 1.5,-0.669 1.5,-1.5 v -5.902347 l 5.11133,2.951177 c 0.71966,0.4155 1.63332,0.17084 2.04882,-0.54883 0.4155,-0.71967 0.17084,-1.63333 -0.54882,-2.048827 L 434.50047,69 439.6118,66.048827 c 0.71966,-0.4155 0.96432,-1.32916 0.54882,-2.048827 -0.4155,-0.719667 -1.32916,-0.964333 -2.04882,-0.548827 l -5.11133,2.951174 V 60.5 c 0,-0.831 -0.669,-1.5 -1.5,-1.5 z"
         style="opacity:0.2;fill:#000000;stroke-width:2.5;stroke-linecap:round;stroke-linejoin:round"
         id="path681"
         sodipodi:nodetypes="ssccscccsccsssccscccsccss" />
      <path
         d="m 431.50047,58 c -0.831,0 -1.5,0.669 -1.5,1.5 v 5.902347 l -5.11133,-2.95118 c -0.71966,-0.4155 -1.63332,-0.170834 -2.04882,0.548833 -0.4155,0.719667 -0.17084,1.633327 0.54882,2.048827 L 428.50047,68 l -5.11133,2.951173 c -0.71966,0.415494 -0.96432,1.329157 -0.54882,2.048827 0.4155,0.71967 1.32916,0.96433 2.04882,0.54883 l 5.11133,-2.951177 V 76.5 c 0,0.831 0.669,1.5 1.5,1.5 0.831,0 1.5,-0.669 1.5,-1.5 v -5.902347 l 5.11133,2.951177 c 0.71966,0.4155 1.63332,0.17084 2.04882,-0.54883 0.4155,-0.71967 0.17084,-1.633327 -0.54882,-2.048827 L 434.50047,68 439.6118,65.048827 c 0.71966,-0.4155 0.96432,-1.32916 0.54882,-2.048827 -0.4155,-0.719667 -1.32916,-0.964333 -2.04882,-0.548827 l -5.11133,2.951174 V 59.5 c 0,-0.831 -0.669,-1.5 -1.5,-1.5 z"
         style="fill:#ffffff;stroke-width:2.5;stroke-linecap:round;stroke-linejoin:round"
         id="path717" />
    </g>
    <g
       id="g828">
      <path
         d="m 312,230 c -1.108,0 -2,0.892 -2,2 v 9.53516 l -8.25781,-4.76758 c -0.95956,-0.554 -2.17842,-0.22714 -2.73242,0.73242 -0.554,0.95956 -0.22714,2.17842 0.73242,2.73242 L 308,245 l -8.25781,4.76758 c -0.95956,0.554 -1.28642,1.77286 -0.73242,2.73242 0.554,0.95956 1.77286,1.28642 2.73242,0.73242 L 310,248.46484 V 258 c 0,1.108 0.892,2 2,2 1.108,0 2,-0.892 2,-2 v -9.53516 l 8.25781,4.76758 c 0.95956,0.554 2.17842,0.22714 2.73242,-0.73242 0.554,-0.95956 0.22714,-2.17842 -0.73242,-2.73242 L 316,245 l 8.25781,-4.76758 c 0.95956,-0.554 1.28642,-1.77286 0.73242,-2.73242 -0.554,-0.95956 -1.77286,-1.28642 -2.73242,-0.73242 L 314,241.53516 V 232 c 0,-1.108 -0.892,-2 -2,-2 z"
         style="opacity:0.2;fill:#000000;stroke-width:5;stroke-linecap:round;stroke-linejoin:round"
         id="path806" />
      <path
         d="m 312,229 c -1.108,0 -2,0.892 -2,2 v 9.53516 l -8.25781,-4.76758 c -0.95956,-0.554 -2.17842,-0.22714 -2.73242,0.73242 -0.554,0.95956 -0.22714,2.17842 0.73242,2.73242 L 308,244 l -8.25781,4.76758 c -0.95956,0.554 -1.28642,1.77286 -0.73242,2.73242 0.554,0.95956 1.77286,1.28642 2.73242,0.73242 L 310,247.46484 V 257 c 0,1.108 0.892,2 2,2 1.108,0 2,-0.892 2,-2 v -9.53516 l 8.25781,4.76758 c 0.95956,0.554 2.17842,0.22714 2.73242,-0.73242 0.554,-0.95956 0.22714,-2.17842 -0.73242,-2.73242 L 316,244 l 8.25781,-4.76758 c 0.95956,-0.554 1.28642,-1.77286 0.73242,-2.73242 -0.554,-0.95956 -1.77286,-1.28642 -2.73242,-0.73242 L 314,240.53516 V 231 c 0,-1.108 -0.892,-2 -2,-2 z"
         style="fill:#ffffff;stroke-width:5;stroke-linecap:round;stroke-linejoin:round"
         id="path841"
         sodipodi:nodetypes="sscssscssscssscssscssscss" />
    </g>
    <g
       id="g611">
      <path
         d="m 320,153 c -1.662,0 -3,1.338 -3,3 v 11.80469 l -10.22266,-5.90235 c -1.43933,-0.831 -3.26665,-0.34167 -4.09765,1.09766 -0.831,1.43933 -0.34168,3.26666 1.09765,4.09766 L 314,173 l -10.22266,5.90234 c -1.43933,0.831 -1.92865,2.65833 -1.09765,4.09766 0.831,1.43933 2.65832,1.92866 4.09765,1.09766 L 317,178.19531 V 190 c 0,1.662 1.338,3 3,3 1.662,0 3,-1.338 3,-3 v -11.80469 l 10.22266,5.90235 c 1.43933,0.831 3.26665,0.34167 4.09765,-1.09766 0.831,-1.43933 0.34168,-3.26666 -1.09765,-4.09766 L 326,173 l 10.22266,-5.90234 c 1.43933,-0.831 1.92865,-2.65833 1.09765,-4.09766 -0.831,-1.43933 -2.65832,-1.92866 -4.09765,-1.09766 L 323,167.80469 V 156 c 0,-1.662 -1.338,-3 -3,-3 z"
         style="fill:#000000;stroke-width:5;stroke-linecap:round;stroke-linejoin:round;opacity:0.2"
         id="path561"
         sodipodi:nodetypes="ssccscccsccsssccscccsccss" />
      <path
         d="m 320,152 c -1.662,0 -3,1.338 -3,3 v 11.80469 l -10.22266,-5.90235 c -1.43933,-0.831 -3.26665,-0.34167 -4.09765,1.09766 -0.831,1.43933 -0.34168,3.26666 1.09765,4.09766 L 314,172 l -10.22266,5.90234 c -1.43933,0.831 -1.92865,2.65833 -1.09765,4.09766 0.831,1.43933 2.65832,1.92866 4.09765,1.09766 L 317,177.19531 V 189 c 0,1.662 1.338,3 3,3 1.662,0 3,-1.338 3,-3 v -11.80469 l 10.22266,5.90235 c 1.43933,0.831 3.26665,0.34167 4.09765,-1.09766 0.831,-1.43933 0.34168,-3.26666 -1.09765,-4.09766 L 326,172 l 10.22266,-5.90234 c 1.43933,-0.831 1.92865,-2.65833 1.09765,-4.09766 -0.831,-1.43933 -2.65832,-1.92866 -4.09765,-1.09766 L 323,166.80469 V 155 c 0,-1.662 -1.338,-3 -3,-3 z"
         style="fill:#ffffff;stroke-width:5;stroke-linecap:round;stroke-linejoin:round"
         id="path589"
         sodipodi:nodetypes="ssccscccsccsssccscccsccss" />
    </g>
    <g
       id="g919"
       transform="matrix(2,0,0,2,-364,-352)">
      <path
         d="m 350,199.5 c -1.108,0 -2,0.892 -2,2 v 9.53516 l -8.25781,-4.76758 c -0.95956,-0.554 -2.17842,-0.22714 -2.73242,0.73242 -0.554,0.95956 -0.22714,2.17842 0.73242,2.73242 L 346,214.5 l -8.25781,4.76758 c -0.95956,0.554 -1.28642,1.77286 -0.73242,2.73242 0.554,0.95956 1.77286,1.28642 2.73242,0.73242 L 348,217.96484 V 227.5 c 0,1.108 0.892,2 2,2 1.108,0 2,-0.892 2,-2 v -9.53516 l 8.25781,4.76758 c 0.95956,0.554 2.17842,0.22714 2.73242,-0.73242 0.554,-0.95956 0.22714,-2.17842 -0.73242,-2.73242 L 354,214.5 l 8.25781,-4.76758 c 0.95956,-0.554 1.28642,-1.77286 0.73242,-2.73242 -0.554,-0.95956 -1.77286,-1.28642 -2.73242,-0.73242 L 352,211.03516 V 201.5 c 0,-1.108 -0.892,-2 -2,-2 z"
         style="opacity:0.2;fill:#000000;stroke-width:5;stroke-linecap:round;stroke-linejoin:round"
         id="path897" />
      <path
         d="m 350,199 c -1.108,0 -2,0.892 -2,2 v 9.53516 l -8.25781,-4.76758 c -0.95956,-0.554 -2.17842,-0.22714 -2.73242,0.73242 -0.554,0.95956 -0.22714,2.17842 0.73242,2.73242 L 346,214 l -8.25781,4.76758 c -0.95956,0.554 -1.28642,1.77286 -0.73242,2.73242 0.554,0.95956 1.77286,1.28642 2.73242,0.73242 L 348,217.46484 V 227 c 0,1.108 0.892,2 2,2 1.108,0 2,-0.892 2,-2 v -9.53516 l 8.25781,4.76758 c 0.95956,0.554 2.17842,0.22714 2.73242,-0.73242 0.554,-0.95956 0.22714,-2.17842 -0.73242,-2.73242 L 354,214 l 8.25781,-4.76758 c 0.95956,-0.554 1.28642,-1.77286 0.73242,-2.73242 -0.554,-0.95956 -1.77286,-1.28642 -2.73242,-0.73242 L 352,210.53516 V 201 c 0,-1.108 -0.892,-2 -2,-2 z"
         style="fill:#ffffff;stroke-width:5;stroke-linecap:round;stroke-linejoin:round"
         id="path869"
         sodipodi:nodetypes="sscssscssscssscssscssscss" />
    </g>
    <g
       id="g671"
       transform="matrix(4,0,0,4,-1136,-532)">
      <path
         d="m 320,152.5 c -1.662,0 -3,1.338 -3,3 v 11.80469 l -10.22266,-5.90235 c -1.43933,-0.831 -3.26665,-0.34167 -4.09765,1.09766 -0.831,1.43933 -0.34168,3.26666 1.09765,4.09766 L 314,172.5 l -10.22266,5.90234 c -1.43933,0.831 -1.92865,2.65833 -1.09765,4.09766 0.831,1.43933 2.65832,1.92866 4.09765,1.09766 L 317,177.69531 V 189.5 c 0,1.662 1.338,3 3,3 1.662,0 3,-1.338 3,-3 v -11.80469 l 10.22266,5.90235 c 1.43933,0.831 3.26665,0.34167 4.09765,-1.09766 0.831,-1.43933 0.34168,-3.26666 -1.09765,-4.09766 L 326,172.5 l 10.22266,-5.90234 c 1.43933,-0.831 1.92865,-2.65833 1.09765,-4.09766 -0.831,-1.43933 -2.65832,-1.92866 -4.09765,-1.09766 L 323,167.30469 V 155.5 c 0,-1.662 -1.338,-3 -3,-3 z"
         style="opacity:0.2;fill:#000000;stroke-width:5;stroke-linecap:round;stroke-linejoin:round"
         id="path649" />
      <path
         d="m 320,152 c -1.662,0 -3,1.338 -3,3 v 11.80469 l -10.22266,-5.90235 c -1.43933,-0.831 -3.26665,-0.34167 -4.09765,1.09766 -0.831,1.43933 -0.34168,3.26666 1.09765,4.09766 L 314,172 l -10.22266,5.90234 c -1.43933,0.831 -1.92865,2.65833 -1.09765,4.09766 0.831,1.43933 2.65832,1.92866 4.09765,1.09766 L 317,177.19531 V 189 c 0,1.662 1.338,3 3,3 1.662,0 3,-1.338 3,-3 v -11.80469 l 10.22266,5.90235 c 1.43933,0.831 3.26665,0.34167 4.09765,-1.09766 0.831,-1.43933 0.34168,-3.26666 -1.09765,-4.09766 L 326,172 l 10.22266,-5.90234 c 1.43933,-0.831 1.92865,-2.65833 1.09765,-4.09766 -0.831,-1.43933 -2.65832,-1.92866 -4.09765,-1.09766 L 323,166.80469 V 155 c 0,-1.662 -1.338,-3 -3,-3 z"
         style="fill:#ffffff;stroke-width:5;stroke-linecap:round;stroke-linejoin:round"
         id="path621"
         sodipodi:nodetypes="ssccscccsccsssccscccsccss" />
    </g>
  </g>
  <g
     id="Highlights">
    <path
       id="rect653"
       style="opacity:0.2;fill:#ffffff"
       d="M 80,44 C 53.408027,44 32,65.408027 32,92 v 2 C 32,67.408027 53.408027,46 80,46 h 128 c 26.59197,0 48,21.408027 48,48 V 92 C 256,65.408027 234.59197,44 208,44 Z"
       sodipodi:nodetypes="sscsscsss" />
    <path
       id="rect773"
       style="opacity:0.2;fill:#ffffff"
       d="m 312,34 c -9.97199,0 -18,8.02801 -18,18 v 1 c 0,-9.97199 8.02801,-18 18,-18 h 48 c 9.97199,0 18,8.02801 18,18 v -1 c 0,-9.97199 -8.02801,-18 -18,-18 z" />
    <path
       id="rect1135"
       style="opacity:0.2;fill:#ffffff;fill-opacity:1"
       d="m 304,144 c -6.64799,0 -12,5.35201 -12,12 v 1 c 0,-6.64799 5.35201,-12 12,-12 h 32 c 6.64799,0 12,5.35201 12,12 v -1 c 0,-6.64799 -5.35201,-12 -12,-12 z" />
    <path
       id="rect1265"
       style="opacity:0.2;fill:#ffffff;fill-opacity:1"
       d="m 300,223 c -4.986,0 -9,4.014 -9,9 v 1 c 0,-4.986 4.014,-9 9,-9 h 24 c 4.986,0 9,4.014 9,9 v -1 c 0,-4.986 -4.014,-9 -9,-9 z" />
    <path
       id="rect1368"
       style="opacity:0.2;fill:#ffffff;fill-opacity:1"
       d="m 424,54 c -3.324,0 -6,2.676003 -6,6 v 1 c 0,-3.323997 2.676,-6 6,-6 h 16 c 3.324,0 6,2.676003 6,6 v -1 c 0,-3.323997 -2.676,-6 -6,-6 z" />
    <path
       id="rect1402"
       style="opacity:0.2;fill:#ffffff;fill-opacity:1"
       d="m 420,140 c -2.216,0 -4,1.784 -4,4 v 1 c 0,-2.216 1.784,-4 4,-4 h 8 c 2.216,0 4,1.784 4,4 v -1 c 0,-2.216 -1.784,-4 -4,-4 z" />
    <path
       id="rect1436"
       style="opacity:0.2;fill:#ffffff;fill-opacity:1"
       d="m 422,102 c -2.216,0 -4,1.784 -4,4 v 1 c 0,-2.216 1.784,-4 4,-4 h 12 c 2.216,0 4,1.784 4,4 v -1 c 0,-2.216 -1.784,-4 -4,-4 z" />
  </g>
</svg>
