<?xml version="1.0" encoding="UTF-8" standalone="no"?>
<!-- Created with Inkscape (http://www.inkscape.org/) -->

<svg
   width="480"
   height="300"
   viewBox="0 0 480 300"
   version="1.1"
   id="svg5"
   inkscape:version="1.2.2 (1:1.2.2+202305151914+b0a8486541)"
   sodipodi:docname="system-suspend.svg"
   xmlns:inkscape="http://www.inkscape.org/namespaces/inkscape"
   xmlns:sodipodi="http://sodipodi.sourceforge.net/DTD/sodipodi-0.dtd"
   xmlns="http://www.w3.org/2000/svg"
   xmlns:svg="http://www.w3.org/2000/svg">
  <sodipodi:namedview
     id="namedview7"
     pagecolor="#888888"
     bordercolor="#000000"
     borderopacity="0.25"
     inkscape:showpageshadow="true"
     inkscape:pageopacity="0"
     inkscape:pagecheckerboard="0"
     inkscape:deskcolor="#888888"
     inkscape:document-units="px"
     showgrid="false"
     showborder="false"
     inkscape:zoom="1.8997602"
     inkscape:cx="224.23883"
     inkscape:cy="175.81166"
     inkscape:window-width="1920"
     inkscape:window-height="1008"
     inkscape:window-x="0"
     inkscape:window-y="0"
     inkscape:window-maximized="1"
     inkscape:current-layer="svg5" />
  <defs
     id="defs2" />
  <g
     id="Baseplate"
     style="display:none">
    <text
       y="19.774782"
       xml:space="preserve"
       x="15.006946"
       style="font-style:normal;font-variant:normal;font-weight:normal;font-stretch:normal;line-height:0%;font-family:'DejaVu Sans';-inkscape-font-specification:'DejaVu Sans';display:inline;fill:#000000;fill-opacity:1;stroke:none;enable-background:new"
       inkscape:label="context"
       id="context"><tspan
         style="font-style:normal;font-variant:normal;font-weight:normal;font-stretch:normal;font-size:18px;line-height:1.25;font-family:'DejaVu Sans';-inkscape-font-specification:'DejaVu Sans'"
         y="19.774782"
         x="15.006946"
         sodipodi:role="line"
         id="tspan3933">actions</tspan></text>
    <text
       y="19.774782"
       xml:space="preserve"
       x="122.48839"
       style="font-style:normal;font-variant:normal;font-weight:bold;font-stretch:normal;line-height:0%;font-family:'DejaVu Sans';-inkscape-font-specification:'DejaVu Sans Bold';text-align:start;writing-mode:lr-tb;text-anchor:start;display:inline;fill:#000000;fill-opacity:1;stroke:none;enable-background:new"
       inkscape:label="icon-name"
       id="icon-name"><tspan
         style="font-style:normal;font-variant:normal;font-weight:bold;font-stretch:normal;font-size:18px;line-height:1.25;font-family:'DejaVu Sans';-inkscape-font-specification:'DejaVu Sans Bold'"
         y="19.774782"
         x="122.48839"
         sodipodi:role="line"
         id="tspan3937">system-suspend</tspan></text>
    <rect
       style="fill:#ffffff"
       id="256x256"
       width="256"
       height="256"
       x="16"
       y="28" />
    <rect
       style="fill:#ffffff"
       id="96x96"
       width="96"
       height="96"
       x="288"
       y="28" />
    <rect
       style="fill:#ffffff"
       id="64x64"
       width="64"
       height="64"
       x="288"
       y="140" />
    <rect
       style="fill:#ffffff"
       id="48x48"
       width="48"
       height="48"
       x="288"
       y="220" />
    <rect
       style="fill:#ffffff"
       id="32x32"
       width="32"
       height="32"
       x="416"
       y="52" />
    <rect
       style="fill:#ffffff"
       id="24x24"
       width="24"
       height="24"
       x="416"
       y="100" />
    <rect
       style="fill:#ffffff"
       id="22x22"
       width="22"
       height="22"
       x="417"
       y="101" />
    <rect
       style="fill:#ffffff"
       id="16x16"
       width="16"
       height="16"
       x="416"
       y="140" />
  </g>
  <g
     id="Shadow">
    <rect
       style="opacity:0.2;fill:#000000"
       id="rect651"
       width="224"
       height="224"
       x="32"
       y="46"
       ry="48" />
    <rect
       style="opacity:0.2;fill:#000000"
       id="rect769"
       width="84"
       height="85"
       x="294"
       y="34"
       ry="18" />
    <rect
       style="opacity:0.2;fill:#000000;fill-opacity:1"
       id="rect1131"
       width="56"
       height="56"
       x="292"
       y="145"
       ry="12" />
    <rect
       style="opacity:0.2;fill:#000000;fill-opacity:1"
       id="rect1261"
       width="42"
       height="42"
       x="291"
       y="224"
       ry="9" />
    <rect
       style="opacity:0.2;fill:#000000;fill-opacity:1"
       id="rect1364"
       width="28"
       height="29"
       x="418"
       y="54"
       ry="6" />
    <rect
       style="opacity:0.2;fill:#000000;fill-opacity:1"
       id="rect1398"
       width="16"
       height="16"
       x="416"
       y="141"
       ry="4" />
    <rect
       style="opacity:0.2;fill:#000000;fill-opacity:1"
       id="rect1432"
       width="20"
       height="20"
       x="418"
       y="103"
       ry="4" />
  </g>
  <g
     id="Background">
    <rect
       style="fill:#5f5f5f;fill-opacity:1"
       id="rect597"
       width="224"
       height="224"
       x="32"
       y="44"
       ry="48" />
    <rect
       style="opacity:1;fill:#5f5f5f;fill-opacity:1"
       id="rect771"
       width="84"
       height="84"
       x="294"
       y="34"
       ry="18" />
    <rect
       style="opacity:1;fill:#5f5f5f;fill-opacity:1"
       id="rect1133"
       width="56"
       height="56"
       x="292"
       y="144"
       ry="12" />
    <rect
       style="opacity:1;fill:#5f5f5f;fill-opacity:1"
       id="rect1263"
       width="42"
       height="42"
       x="291"
       y="223"
       ry="9" />
    <rect
       style="opacity:1;fill:#5f5f5f;fill-opacity:1"
       id="rect1366"
       width="28"
       height="28"
       x="418"
       y="54"
       ry="6" />
    <rect
       style="opacity:1;fill:#5f5f5f;fill-opacity:1"
       id="rect1400"
       width="16"
       height="16"
       x="416"
       y="140"
       ry="4" />
    <rect
       style="opacity:1;fill:#5f5f5f;fill-opacity:1"
       id="rect1434"
       width="20"
       height="20"
       x="418"
       y="102"
       ry="4" />
  </g>
  <g
     id="g1206">
    <g
       id="g1034">
      <path
         id="path612"
         style="opacity:0.2;fill:#000000;stroke-linecap:square"
         d="m 422.91602,143.633 c -2.28294,0.50698 -3.90952,2.52864 -3.91602,4.86719 0,2.76142 2.23858,5 5,5 1.62729,-0.004 3.15083,-0.79965 4.08398,-2.13281 -0.35539,0.0837 -0.71889,0.12825 -1.08398,0.13281 -2.76142,0 -5,-2.23858 -5,-5 0.004,-1.02713 0.32343,-2.02823 0.91602,-2.86719 z"
         sodipodi:nodetypes="ccccccc" />
      <path
         d="M 422.91602,143.13281 C 420.63308,143.63979 419.0065,145.66145 419,148 c 0,2.76142 2.23858,5 5,5 1.62729,-0.004 3.15083,-0.79965 4.08398,-2.13281 -0.35539,0.0837 -0.71889,0.12825 -1.08398,0.13281 -2.76142,0 -5,-2.23858 -5,-5 0.004,-1.02713 0.32343,-2.02823 0.91602,-2.86719 z"
         style="fill:#ffffff;stroke-linecap:square"
         id="path702"
         sodipodi:nodetypes="ccccccc" />
    </g>
    <g
       id="g1073">
      <path
         d="m 426.48243,105.686 c -3.19612,0.70977 -5.47333,3.5401 -5.48243,6.81407 0,3.86598 3.13401,7 7,7 2.27821,-0.006 4.41116,-1.11951 5.71757,-2.98594 -0.49754,0.11718 -1.00644,0.17955 -1.51757,0.18594 -3.86599,0 -7,-3.13402 -7,-7 0.006,-1.43799 0.4528,-2.83953 1.28243,-4.01407 z"
         style="opacity:0.2;fill:#000000;stroke-width:1.4;stroke-linecap:square"
         id="path758-6"
         sodipodi:nodetypes="ccccccc" />
      <path
         d="M 426.48243,105.18593 C 423.28631,105.89571 421.0091,108.72603 421,112 c 0,3.86599 3.13401,7 7,7 2.27821,-0.006 4.41116,-1.11951 5.71757,-2.98593 -0.49754,0.11718 -1.00644,0.17955 -1.51757,0.18593 -3.86599,0 -7,-3.13401 -7,-7 0.006,-1.43798 0.4528,-2.83952 1.28243,-4.01407 z"
         style="fill:#ffffff;stroke-width:1.4;stroke-linecap:square"
         id="path730-7"
         sodipodi:nodetypes="ccccccc" />
    </g>
    <g
       id="g1077">
      <path
         d="m 430.83204,59.266001 c -4.56588,1.01396 -7.81904,5.05728 -7.83204,9.73438 0,5.52284 4.47716,10 10,10 3.25458,-0.008 6.30166,-1.5993 8.16796,-4.26562 -0.71078,0.1674 -1.43778,0.2565 -2.16796,0.26562 -5.52284,0 -10,-4.47716 -10,-10 0.008,-2.05426 0.64686,-4.05646 1.83204,-5.73438 z"
         style="opacity:0.2;fill:#000000;stroke-width:2;stroke-linecap:square"
         id="path758"
         sodipodi:nodetypes="ccccccc" />
      <path
         d="m 430.83204,58.265621 c -4.56588,1.01396 -7.81904,5.05728 -7.83204,9.73438 0,5.52284 4.47716,10 10,10 3.25458,-0.008 6.30166,-1.5993 8.16796,-4.26562 -0.71078,0.1674 -1.43778,0.2565 -2.16796,0.26562 -5.52284,0 -10,-4.47716 -10,-10 0.008,-2.05426 0.64686,-4.05646 1.83204,-5.73438 z"
         style="fill:#ffffff;stroke-width:2;stroke-linecap:square"
         id="path730"
         sodipodi:nodetypes="ccccccc" />
    </g>
    <g
       id="g1130">
      <path
         d="m 309.74806,230.399 c -6.84882,1.52094 -11.72856,7.58592 -11.74806,14.60157 0,8.28426 6.71574,15 15,15 4.88187,-0.012 9.45249,-2.39895 12.25194,-6.39843 -1.06617,0.2511 -2.15667,0.38475 -3.25194,0.39843 -8.28426,0 -15,-6.71574 -15,-15 0.012,-3.08139 0.97029,-6.08469 2.74806,-8.60157 z"
         style="opacity:0.2;fill:#000000;stroke-width:3;stroke-linecap:square"
         id="path758-5"
         sodipodi:nodetypes="ccccccc" />
      <path
         d="M 309.74806,229.39843 C 302.89924,230.91937 298.0195,236.98435 298,244 c 0,8.28426 6.71574,15 15,15 4.88187,-0.012 9.45249,-2.39895 12.25194,-6.39843 -1.06617,0.2511 -2.15667,0.38475 -3.25194,0.39843 -8.28426,0 -15,-6.71574 -15,-15 0.012,-3.08139 0.97029,-6.08469 2.74806,-8.60157 z"
         style="fill:#ffffff;stroke-width:3;stroke-linecap:square"
         id="path730-3"
         sodipodi:nodetypes="ccccccc" />
    </g>
    <g
       id="g1026">
      <path
         d="M 317.66408,153.532 C 308.53232,155.55992 302.026,163.64656 302,173.00076 c 0,11.04568 8.95432,20 20,20 6.50916,-0.016 12.60332,-3.1986 16.33592,-8.53124 -1.42156,0.3348 -2.87556,0.513 -4.33592,0.53124 -11.04568,0 -20,-8.95432 -20,-20 0.016,-4.10852 1.29372,-8.11292 3.66408,-11.46876 z"
         style="opacity:0.2;fill:#000000;stroke-width:4;stroke-linecap:square"
         id="path917"
         sodipodi:nodetypes="ccccccc" />
      <path
         d="M 317.66408,152.53124 C 308.53232,154.55916 302.026,162.6458 302,172 c 0,11.04568 8.95432,20 20,20 6.50916,-0.016 12.60332,-3.1986 16.33592,-8.53124 -1.42156,0.3348 -2.87556,0.513 -4.33592,0.53124 -11.04568,0 -20,-8.95432 -20,-20 0.016,-4.10852 1.29372,-8.11292 3.66408,-11.46876 z"
         style="fill:#ffffff;stroke-width:4;stroke-linecap:square"
         id="path840"
         sodipodi:nodetypes="ccccccc" />
    </g>
    <g
       id="g1178"
       transform="matrix(2,0,0,2,-288,-412)">
      <path
         d="m 309.74806,229.899 c -6.84882,1.52094 -11.72856,7.58592 -11.74806,14.60157 0,8.28426 6.71574,15 15,15 4.88187,-0.012 9.45249,-2.39895 12.25194,-6.39843 -1.06617,0.2511 -2.15667,0.38475 -3.25194,0.39843 -8.28426,0 -15,-6.71574 -15,-15 0.012,-3.08139 0.97029,-6.08469 2.74806,-8.60157 z"
         style="opacity:0.2;fill:#000000;stroke-width:3;stroke-linecap:square"
         id="path758-5-2"
         sodipodi:nodetypes="ccccccc" />
      <path
         d="M 309.74806,229.39843 C 302.89924,230.91937 298.0195,236.98435 298,244 c 0,8.28426 6.71574,15 15,15 4.88187,-0.012 9.45249,-2.39895 12.25194,-6.39843 -1.06617,0.2511 -2.15667,0.38475 -3.25194,0.39843 -8.28426,0 -15,-6.71574 -15,-15 0.012,-3.08139 0.97029,-6.08469 2.74806,-8.60157 z"
         style="fill:#ffffff;stroke-width:3;stroke-linecap:square"
         id="path730-3-9"
         sodipodi:nodetypes="ccccccc" />
    </g>
    <g
       id="g1030">
      <path
         d="M 130.65629,82.128001 C 94.129263,90.23968 68.103985,122.58623 67.999985,160.00301 c 0,44.18271 35.817275,79.99997 79.999985,79.99997 26.03662,-0.064 50.41326,-12.79438 65.34365,-34.12494 -5.68624,1.3392 -11.50223,2.05201 -17.34367,2.12496 -44.1827,0 -79.99998,-35.81728 -79.99998,-79.99998 0.064,-16.43408 5.17488,-32.451655 14.65632,-45.875019 z"
         style="opacity:0.2;fill:#000000;stroke-width:16;stroke-linecap:square"
         id="path975" />
      <path
         d="M 130.65629,80.124961 C 94.129263,88.23664 68.103985,120.58319 67.999951,157.99998 c 0,44.18271 35.817269,79.99996 79.999969,79.99996 26.03667,-0.064 50.41327,-12.7944 65.34366,-34.12494 -5.68624,1.3392 -11.50224,2.052 -17.34367,2.12494 -44.18271,0 -79.99997,-35.81726 -79.99997,-79.99996 0.064,-16.43407 5.17491,-32.451654 14.65635,-45.875019 z"
         style="fill:#ffffff;stroke-width:16;stroke-linecap:square"
         id="path947" />
    </g>
  </g>
  <g
     id="Highlights">
    <path
       id="rect653"
       style="opacity:0.2;fill:#ffffff"
       d="M 80,44 C 53.408027,44 32,65.408027 32,92 v 2 C 32,67.408027 53.408027,46 80,46 h 128 c 26.59197,0 48,21.408027 48,48 V 92 C 256,65.408027 234.59197,44 208,44 Z"
       sodipodi:nodetypes="sscsscsss" />
    <path
       id="rect773"
       style="opacity:0.2;fill:#ffffff"
       d="m 312,34 c -9.97199,0 -18,8.02801 -18,18 v 1 c 0,-9.97199 8.02801,-18 18,-18 h 48 c 9.97199,0 18,8.02801 18,18 v -1 c 0,-9.97199 -8.02801,-18 -18,-18 z" />
    <path
       id="rect1135"
       style="opacity:0.2;fill:#ffffff;fill-opacity:1"
       d="m 304,144 c -6.64799,0 -12,5.35201 -12,12 v 1 c 0,-6.64799 5.35201,-12 12,-12 h 32 c 6.64799,0 12,5.35201 12,12 v -1 c 0,-6.64799 -5.35201,-12 -12,-12 z" />
    <path
       id="rect1265"
       style="opacity:0.2;fill:#ffffff;fill-opacity:1"
       d="m 300,223 c -4.986,0 -9,4.014 -9,9 v 1 c 0,-4.986 4.014,-9 9,-9 h 24 c 4.986,0 9,4.014 9,9 v -1 c 0,-4.986 -4.014,-9 -9,-9 z" />
    <path
       id="rect1368"
       style="opacity:0.2;fill:#ffffff;fill-opacity:1"
       d="m 424,54 c -3.324,0 -6,2.676003 -6,6 v 1 c 0,-3.323997 2.676,-6 6,-6 h 16 c 3.324,0 6,2.676003 6,6 v -1 c 0,-3.323997 -2.676,-6 -6,-6 z" />
    <path
       id="rect1402"
       style="opacity:0.2;fill:#ffffff;fill-opacity:1"
       d="m 420,140 c -2.216,0 -4,1.784 -4,4 v 1 c 0,-2.216 1.784,-4 4,-4 h 8 c 2.216,0 4,1.784 4,4 v -1 c 0,-2.216 -1.784,-4 -4,-4 z" />
    <path
       id="rect1436"
       style="opacity:0.2;fill:#ffffff;fill-opacity:1"
       d="m 422,102 c -2.216,0 -4,1.784 -4,4 v 1 c 0,-2.216 1.784,-4 4,-4 h 12 c 2.216,0 4,1.784 4,4 v -1 c 0,-2.216 -1.784,-4 -4,-4 z" />
  </g>
</svg>
