<?xml version="1.0" encoding="UTF-8" standalone="no"?>
<svg
   width="16"
   height="16"
   version="1.1"
   id="svg390"
   sodipodi:docname="application-x-theme.svg"
   inkscape:version="1.2.2 (1:1.2.2+202305151914+b0a8486541)"
   xmlns:inkscape="http://www.inkscape.org/namespaces/inkscape"
   xmlns:sodipodi="http://sodipodi.sourceforge.net/DTD/sodipodi-0.dtd"
   xmlns="http://www.w3.org/2000/svg"
   xmlns:svg="http://www.w3.org/2000/svg">
  <defs
     id="defs394" />
  <sodipodi:namedview
     id="namedview392"
     pagecolor="#ffffff"
     bordercolor="#000000"
     borderopacity="0.25"
     inkscape:showpageshadow="2"
     inkscape:pageopacity="0.0"
     inkscape:pagecheckerboard="0"
     inkscape:deskcolor="#d1d1d1"
     showgrid="false"
     inkscape:zoom="50.375"
     inkscape:cx="7.9900744"
     inkscape:cy="8"
     inkscape:window-width="1920"
     inkscape:window-height="1008"
     inkscape:window-x="0"
     inkscape:window-y="0"
     inkscape:window-maximized="1"
     inkscape:current-layer="svg390" />
  <path
     style="fill:#e4e4e4"
     d="M 2.8125,0 C 2.362375,0 2,0.3568 2,0.8 V 15.2 C 2,15.6432 2.362375,16 2.8125,16 h 11.375 C 14.637625,16 15,15.6432 15,15.2 V 5 L 10.9375,4 10,0 Z"
     id="path384" />
  <path
     id="ellipse2"
     style="fill:#278df2;stroke-width:0.5"
     d="M 11.007313,9.9999999 A 3.2569999,3.2 0 0 1 7.7503132,13.2 3.2569999,3.2 0 0 1 4.4933133,9.9999999 a 3.2569999,3.2 0 0 1 3.2569999,-3.2 3.2569999,3.2 0 0 1 3.2569998,3.2 z" />
  <path
     id="ellipse8"
     style="fill:#34e0c4;stroke-width:0.49997"
     d="M 10.429156,10.558568 A 1.8069641,2.0279234 63.834735 0 1 7.7500032,9.9998718 1.8069641,2.0279234 63.834735 0 1 8.5970897,7.4410382 1.8069641,2.0279234 63.834735 0 1 11.276243,7.999734 1.8069641,2.0279234 63.834735 0 1 10.429156,10.558568 Z" />
  <path
     id="ellipse10"
     style="fill:#ffc107;stroke-width:0.5"
     d="m 9.582313,12 a 1.832,2 0 0 1 -1.8319998,2 1.832,2 0 0 1 -1.832,-2 1.832,2 0 0 1 1.832,-2.0000001 A 1.832,2 0 0 1 9.582313,12 Z" />
  <path
     id="ellipse14"
     style="fill:#fb8300;stroke-width:0.49997"
     d="M 6.9029167,12.558705 A 1.8069641,2.0279234 63.834735 0 1 4.223764,12.000009 1.8069641,2.0279234 63.834735 0 1 5.0708505,9.4411761 1.8069641,2.0279234 63.834735 0 1 7.7500032,9.9998719 1.8069641,2.0279234 63.834735 0 1 6.9029167,12.558705 Z" />
  <path
     id="ellipse18"
     style="fill:#fa3e30;stroke-width:0.49997"
     d="M 5.0710212,10.559085 A 2.0279234,1.8069641 26.165265 0 0 7.7501737,10.000389 2.0279234,1.8069641 26.165265 0 0 6.9030873,7.4415556 2.0279234,1.8069641 26.165265 0 0 4.2239346,8.0002513 2.0279234,1.8069641 26.165265 0 0 5.0710212,10.559085 Z" />
  <path
     style="fill:#a544c9;stroke-width:0.5"
     d="M 7.7500807,6 A 1.8321614,2 0 0 0 5.917919,8 1.8321614,2 0 0 0 7.7500807,9.9999999 1.8070571,2.0277848 63.838713 0 1 8.5969777,7.4410156 1.8070571,2.0277848 63.838713 0 1 9.414055,7.1683594 1.8321614,2 0 0 0 7.7500807,6 Z m 0,3.9999999 A 1.8321614,2 0 0 0 9.491588,8.6167968 1.8321614,2 0 0 1 9.245471,9.1507811 2.0277848,1.8070571 26.161287 0 0 7.7500807,9.9999999 Z M 9.491588,8.6167968 A 1.8321614,2 0 0 0 9.535728,8.4402343 1.8321614,2 0 0 1 9.491588,8.6167968 Z M 9.435528,7.2214844 a 1.8321614,2 0 0 1 0.06123,0.1824218 1.8321614,2 0 0 0 -0.06123,-0.1824218 z m 0.06401,0.190625 a 1.8321614,2 0 0 1 0.03738,0.158203 1.8321614,2 0 0 0 -0.03738,-0.158203 z m 0.04771,0.2070312 A 1.8321614,2 0 0 1 9.56514,7.746875 1.8321614,2 0 0 0 9.54725,7.6191406 Z m 0.02664,0.2074218 A 1.8321614,2 0 0 1 9.58229,8 1.8321614,2 0 0 0 9.57389,7.8265624 Z m 0.0044,0.2617188 a 1.8321614,2 0 0 1 -0.008,0.13125 1.8321614,2 0 0 0 0.008,-0.13125 z M 9.564,8.265625 A 1.8321614,2 0 0 1 9.54015,8.4207031 1.8321614,2 0 0 0 9.564,8.265625 Z"
     id="path8" />
  <path
     style="fill:#009688;stroke-width:0.5"
     d="M 9.273701,9.1488281 C 8.6226302,9.1669251 8.0524972,9.4854297 7.7500807,9.9999999 8.7619552,9.9999999 9.582242,10.89543 9.582242,12 c -7e-4,0.287179 -0.05808,0.570823 -0.168187,0.83164 C 10.18974,12.933782 10.917103,12.60891 11.276037,12 11.78208,11.139053 11.402897,9.9933161 10.429139,9.4410155 10.07386,9.2395679 9.671121,9.1377231 9.273701,9.1488281 Z M 9.414055,12.83164 Z M 7.7500807,9.9999999 Z"
     id="path10" />
  <path
     id="ellipse980"
     style="fill:#03a9f4;stroke-width:0.5"
     d="M 9.752616,7.1488281 A 1.8070571,2.0277848 63.838713 0 0 8.5970777,7.441211 1.8070571,2.0277848 63.838713 0 0 7.7501797,9.9999023 c 0.3024345,-0.5145016 0.8725,-0.8329792 1.5235213,-0.8510744 0.39742,-0.011104 0.800159,0.09074 1.155438,0.2921876 0.261754,0.1484626 0.4801,0.3400616 0.650283,0.5572266 A 1.8070571,2.0277848 63.838713 0 0 11.276136,8 1.8070571,2.0277848 63.838713 0 0 9.752616,7.1488281 Z M 7.7501797,9.9999999 A 1.8070571,2.0277848 63.838713 0 0 9.248254,10.849316 C 8.9166462,10.335774 8.3694962,10.000036 7.7501797,9.9999999 Z" />
  <path
     style="fill:#ffc107;stroke-width:0.5"
     d="m 7.7501797,9.9999023 c -3.1578056,3.2000647 -1.5789028,1.6000327 0,0 z m 0,9.76e-5 C 8.0716447,10.646776 8.6244347,10.926814 9.248254,10.849316 8.9166462,10.335774 8.3694962,10.000036 7.7501797,9.9999999 Z"
     id="path13" />
  <path
     style="fill:#fafafa"
     d="M 15,5 10,0 V 4.1666667 C 10,4.6283333 10.371667,5 10.833333,5 Z"
     id="path386" />
</svg>
