<?xml version="1.0" encoding="UTF-8" standalone="no"?>
<svg
   width="16"
   height="16"
   version="1.1"
   id="svg5898"
   sodipodi:docname="application-vnd.ms-powerpoint.svg"
   inkscape:version="1.2.2 (1:1.2.2+202305151914+b0a8486541)"
   xmlns:inkscape="http://www.inkscape.org/namespaces/inkscape"
   xmlns:sodipodi="http://sodipodi.sourceforge.net/DTD/sodipodi-0.dtd"
   xmlns="http://www.w3.org/2000/svg"
   xmlns:svg="http://www.w3.org/2000/svg">
  <defs
     id="defs5902" />
  <sodipodi:namedview
     id="namedview5900"
     pagecolor="#ffffff"
     bordercolor="#000000"
     borderopacity="0.25"
     inkscape:showpageshadow="2"
     inkscape:pageopacity="0.0"
     inkscape:pagecheckerboard="0"
     inkscape:deskcolor="#d1d1d1"
     showgrid="false"
     inkscape:zoom="50.375"
     inkscape:cx="8"
     inkscape:cy="8"
     inkscape:window-width="1920"
     inkscape:window-height="1008"
     inkscape:window-x="0"
     inkscape:window-y="0"
     inkscape:window-maximized="1"
     inkscape:current-layer="svg5898" />
  <path
     fill="#e4e4e4"
     d="m2.75 1c-0.4172 0-0.75 0.3328-0.75 0.75v13.5c0 0.417 0.3328 0.75 0.75 0.75h10.5c0.418 0 0.75-0.332 0.75-0.75v-9.25l-4.125-0.875-0.875-4.125z"
     id="path5892" />
  <circle
     style="fill:#ff8f6b;fill-opacity:1;stroke-width:2.66665;stroke-linejoin:bevel"
     id="path31463"
     cx="8.0000019"
     cy="10.999998"
     r="3.9999983" />
  <path
     id="path31465"
     style="fill:#d35230;fill-opacity:1;stroke-width:2;stroke-linejoin:bevel"
     d="M 4.0000029,11.000001 C 4.0000021,13.20914 5.790863,15 8.0000016,15 10.209141,15 12.000002,13.20914 12,11.000001 H 8.0000016 Z"
     sodipodi:nodetypes="csccc" />
  <path
     id="path31759"
     style="fill:#ed6c47;fill-opacity:1;stroke-width:2;stroke-linejoin:bevel"
     d="M 8,7.0000026 A 3.9999983,3.9999986 0 0 0 4.0000005,11.000001 H 8 Z" />
  <path
     fill="#fafafa"
     d="m9 1v4.1667c0 0.4584 0.3749 0.8333 0.8333 0.8333h4.1667z"
     id="path5894" />
</svg>
