<?xml version="1.0" encoding="UTF-8" standalone="no"?>
<svg
   width="16"
   height="16"
   version="1.1"
   id="svg5898"
   sodipodi:docname="application-x-trash.svg"
   inkscape:version="1.2.2 (1:1.2.2+202305151914+b0a8486541)"
   xmlns:inkscape="http://www.inkscape.org/namespaces/inkscape"
   xmlns:sodipodi="http://sodipodi.sourceforge.net/DTD/sodipodi-0.dtd"
   xmlns="http://www.w3.org/2000/svg"
   xmlns:svg="http://www.w3.org/2000/svg">
  <defs
     id="defs5902" />
  <sodipodi:namedview
     id="namedview5900"
     pagecolor="#ffffff"
     bordercolor="#000000"
     borderopacity="0.25"
     inkscape:showpageshadow="2"
     inkscape:pageopacity="0.0"
     inkscape:pagecheckerboard="0"
     inkscape:deskcolor="#d1d1d1"
     showgrid="false"
     inkscape:zoom="37.034718"
     inkscape:cx="6.4804058"
     inkscape:cy="9.6396037"
     inkscape:window-width="1920"
     inkscape:window-height="1008"
     inkscape:window-x="0"
     inkscape:window-y="0"
     inkscape:window-maximized="1"
     inkscape:current-layer="svg5898" />
  <path
     fill="#e4e4e4"
     d="m2.75 1c-0.4172 0-0.75 0.3328-0.75 0.75v13.5c0 0.417 0.3328 0.75 0.75 0.75h10.5c0.418 0 0.75-0.332 0.75-0.75v-9.25l-4.125-0.875-0.875-4.125z"
     id="path5892" />
  <path
     d="m 5.7657,12.81533 c -0.07,0.12551 -0.1254,0.31434 -0.1254,0.43333 0,0.0276 0,0.0628 0.01,0.11149 L 4.778,11.85805 C 4.75,11.80935 4.729,11.73939 4.729,11.67639 c 0,-0.0631 0.021,-0.13976 0.049,-0.18859 l 0.4188,-0.73364 -0.4675,-0.26528 1.5212,-0.0282 0.7396,1.33437 -0.4743,-0.27244 z m 0.67,-4.3976901 c 0.1325,-0.2308 0.349,-0.35656 0.614,-0.35656 0.2863,0 0.5096,0.1329201 0.67,0.40505 L 7.957,8.86433 7.1334,10.45384 5.8007,9.51435 Z m 0.097,5.6063001 c -0.3977,0 -0.7256,-0.32836 -0.7256,-0.72655 0,-0.11182 0.049,-0.30064 0.1188,-0.4193 l 0.223,-0.3982 h 1.654 v 1.54406 H 6.5327 Z M 7.8588,8.37542 C 7.7542,8.194 7.6146,8.06792 7.4471,7.998 h 1.7164 c 0.1536,0 0.2721,0.0631 0.3422,0.18198 L 9.9313,8.90653 10.3917,8.63384 9.6518,9.9616 8.138,9.9402 8.6054,9.67492 Z m 2.6449,4.11848 c 0.2091,0 0.3837,-0.0559 0.5301,-0.16749 l -0.8654,1.50894 c -0.07,0.11866 -0.1953,0.19348 -0.3417,0.18858 H 9.01 V 14.5619 L 8.2286,13.25549 9.01,11.94874 v 0.54515 h 1.4937 z m 0.6694,-1.25768 c 0.063,0.11182 0.098,0.23048 0.098,0.35631 0,0.25158 -0.1606,0.5171 -0.3837,0.64262 -0.1048,0.0562 -0.2518,0.0999 -0.3977,0.0913 H 10.0288 L 9.2057,10.9008 10.5384,10.1392 Z"
     style="fill:#6d9d19;fill-opacity:1"
     id="path5996" />
  <path
     fill="#fafafa"
     d="m9 1v4.1667c0 0.4584 0.3749 0.8333 0.8333 0.8333h4.1667z"
     id="path5894" />
</svg>
