<?xml version="1.0" encoding="UTF-8" standalone="no"?>
<svg
   width="16"
   height="16"
   version="1"
   id="svg22"
   sodipodi:docname="application-vnd.debian.binary-package.svg"
   inkscape:version="1.2.2 (1:1.2.2+202305151914+b0a8486541)"
   xmlns:inkscape="http://www.inkscape.org/namespaces/inkscape"
   xmlns:sodipodi="http://sodipodi.sourceforge.net/DTD/sodipodi-0.dtd"
   xmlns="http://www.w3.org/2000/svg"
   xmlns:svg="http://www.w3.org/2000/svg">
  <defs
     id="defs26" />
  <sodipodi:namedview
     id="namedview24"
     pagecolor="#ffffff"
     bordercolor="#000000"
     borderopacity="0.25"
     inkscape:showpageshadow="2"
     inkscape:pageopacity="0.0"
     inkscape:pagecheckerboard="0"
     inkscape:deskcolor="#d1d1d1"
     showgrid="false"
     inkscape:zoom="50.375"
     inkscape:cx="7.9900744"
     inkscape:cy="8"
     inkscape:window-width="1920"
     inkscape:window-height="1008"
     inkscape:window-x="0"
     inkscape:window-y="0"
     inkscape:window-maximized="1"
     inkscape:current-layer="svg22" />
  <rect
     style="fill:#dfdfdf;fill-opacity:1"
     id="rect944"
     width="16"
     height="16"
     x="0"
     y="0"
     ry="2" />
  <circle
     style="fill:#86be43;fill-opacity:1;stroke-width:1.2"
     id="path3425"
     cx="8"
     cy="8"
     r="6" />
  <path
     d="m 5.375,5 h 1.25 C 6.83808,5 7,5.16515 7,5.375 v 1.25 C 7,6.83485 6.83808,7 6.625,7 H 5.375 C 5.16192,7 5,6.83485 5,6.625 V 5.375 C 5,5.16515 5.16192,5 5.375,5 Z m 4,0 h 1.25 C 10.83808,5 11,5.16515 11,5.375 v 1.25 C 11,6.83485 10.83808,7 10.625,7 H 9.375 C 9.16192,7 9,6.83485 9,6.625 V 5.375 C 9,5.16515 9.16192,5 9.375,5 Z m -4,4 h 1.25 C 6.83808,9 7,9.16515 7,9.375 v 1.25 C 7,10.83485 6.83808,11 6.625,11 H 5.375 C 5.16192,11 5,10.83485 5,10.625 V 9.375 C 5,9.16515 5.16192,9 5.375,9 Z m 4,0 h 1.25 C 10.83808,9 11,9.16515 11,9.375 v 1.25 C 11,10.83485 10.83808,11 10.625,11 H 9.375 C 9.16192,11 9,10.83485 9,10.625 V 9.375 C 9,9.16515 9.16192,9 9.375,9 Z"
     style="color:#000000;display:inline;overflow:visible;visibility:visible;fill:#ffffff;fill-opacity:1;fill-rule:nonzero;stroke:none;stroke-width:4;marker:none;enable-background:accumulate"
     id="path4047-7"
     sodipodi:nodetypes="ssssssssssssssssssssssssssssssssssss" />
</svg>
