<?xml version="1.0" encoding="UTF-8" standalone="no"?>
<svg
   width="16"
   height="16"
   version="1"
   id="svg22"
   sodipodi:docname="package-x-generic.svg"
   inkscape:version="1.2.2 (1:1.2.2+202305151914+b0a8486541)"
   xmlns:inkscape="http://www.inkscape.org/namespaces/inkscape"
   xmlns:sodipodi="http://sodipodi.sourceforge.net/DTD/sodipodi-0.dtd"
   xmlns="http://www.w3.org/2000/svg"
   xmlns:svg="http://www.w3.org/2000/svg">
  <defs
     id="defs26" />
  <sodipodi:namedview
     id="namedview24"
     pagecolor="#ffffff"
     bordercolor="#000000"
     borderopacity="0.25"
     inkscape:showpageshadow="2"
     inkscape:pageopacity="0.0"
     inkscape:pagecheckerboard="0"
     inkscape:deskcolor="#d1d1d1"
     showgrid="false"
     inkscape:zoom="50.375"
     inkscape:cx="8"
     inkscape:cy="8"
     inkscape:window-width="1920"
     inkscape:window-height="1008"
     inkscape:window-x="0"
     inkscape:window-y="0"
     inkscape:window-maximized="1"
     inkscape:current-layer="svg22" />
  <rect
     style="fill:#c19f5f;fill-opacity:1"
     id="rect944"
     width="16"
     height="16"
     x="0"
     y="0"
     ry="2" />
  <rect
     style="opacity:0.2"
     width="4"
     height="7"
     x="6"
     y="0"
     id="rect4" />
  <rect
     style="fill:#ffffff"
     width="1"
     height="1"
     x="-9"
     y="4"
     transform="scale(-1,1)"
     id="rect6" />
  <path
     style="fill:#4b4b4b"
     d="m 8,4 c 1.5,0 1.5,2 2,2 V 8.5 C 10,8.777 9.777,9 9.5,9 h -3 C 6.223,9 6,8.777 6,8.5 V 6 C 6.5,6 6.5,4 8,4 Z"
     id="path8" />
  <path
     style="fill:#ffffff"
     d="M 8,6 C 6.895,6 6,6.9 6,8 v 4 c 0,1.1 0.895,2 2,2 1.105,0 2,-0.9 2,-2 V 8 C 10,6.9 9.105,6 8,6 Z m 0,5 a 1,1 0 0 1 1,1 1,1 0 0 1 -1,1 1,1 0 0 1 -1,-1 1,1 0 0 1 1,-1 z"
     id="path10" />
  <path
     style="fill:#909090"
     d="M 7.992188,5.000061 A 0.50005,0.49772427 0 0 0 7.5,5.50454 v 1.990698 a 0.50005,0.49772427 0 1 0 1,0 V 5.50454 A 0.50005,0.49772427 0 0 0 7.992188,5.000061 Z"
     id="path12" />
  <rect
     style="fill:#ffffff"
     width="1"
     height="1"
     x="-8"
     y="3"
     transform="scale(-1,1)"
     id="rect14" />
  <rect
     style="fill:#ffffff"
     width="1"
     height="1"
     x="-9"
     y="2"
     transform="scale(-1,1)"
     id="rect16" />
  <rect
     style="fill:#ffffff"
     width="1"
     height="1"
     x="-8"
     y="1"
     transform="scale(-1,1)"
     id="rect18" />
  <rect
     style="fill:#ffffff"
     width="1"
     height="1"
     x="-9"
     y="0"
     transform="scale(-1,1)"
     id="rect20" />
</svg>
