<?xml version="1.0" encoding="UTF-8" standalone="no"?>
<svg
   width="16"
   height="16"
   version="1.1"
   id="svg5898"
   sodipodi:docname="text-x-vala.svg"
   inkscape:version="1.2.2 (1:1.2.2+202305151914+b0a8486541)"
   xmlns:inkscape="http://www.inkscape.org/namespaces/inkscape"
   xmlns:sodipodi="http://sodipodi.sourceforge.net/DTD/sodipodi-0.dtd"
   xmlns="http://www.w3.org/2000/svg"
   xmlns:svg="http://www.w3.org/2000/svg">
  <defs
     id="defs5902" />
  <sodipodi:namedview
     id="namedview5900"
     pagecolor="#ffffff"
     bordercolor="#000000"
     borderopacity="0.25"
     inkscape:showpageshadow="2"
     inkscape:pageopacity="0.0"
     inkscape:pagecheckerboard="0"
     inkscape:deskcolor="#d1d1d1"
     showgrid="false"
     inkscape:zoom="50.375"
     inkscape:cx="7.9900744"
     inkscape:cy="8"
     inkscape:window-width="1920"
     inkscape:window-height="1008"
     inkscape:window-x="0"
     inkscape:window-y="0"
     inkscape:window-maximized="1"
     inkscape:current-layer="svg5898" />
  <path
     fill="#e4e4e4"
     d="m2.75 1c-0.4172 0-0.75 0.3328-0.75 0.75v13.5c0 0.417 0.3328 0.75 0.75 0.75h10.5c0.418 0 0.75-0.332 0.75-0.75v-9.25l-4.125-0.875-0.875-4.125z"
     id="path5892" />
  <path
     d="M 7.0002324,15.00018 7,7.8004158 C 6.5037012,7.9878666 6.280072,8.1946114 6.001098,8.593827 5.7252376,8.9931994 5.5873076,9.689608 5.5873076,10.283334 c 0,0.135372 0.00693,0.246509 0.02078,0.333412 0.017124,0.08329 0.034328,0.15098 0.051607,0.203058 0.01728,0.04863 0.032848,0.08682 0.046703,0.114589 0.017124,0.02776 0.025688,0.05208 0.025688,0.07294 -0.1826092,0 -0.3445136,-0.01733 -0.4857128,-0.052 C 5.1050176,10.917063 4.98608,10.858003 4.88956,10.778157 4.796465,10.698467 4.7240752,10.592588 4.67239,10.46051 4.62413,10.328745 4.6,10.165608 4.6,9.971098 4.6,9.73502 4.649895,9.302533 4.749684,9.073357 4.8530536,8.844337 4.9926184,8.627317 5.168378,8.4222974 5.3475628,8.2175914 5.5560928,8.028415 5.7939676,7.8547682 6.0352672,7.6811214 6.2919792,7.5317878 6.5641032,7.4067682 6.8396524,7.2782974 7.1256316,7.1793954 7.4220412,7.1100622 7.721876,7.0369642 8.0199981,7.0004154 8.3164077,7.0004154 8.4279453,6.9862914 8.5914945,7.0204994 8.6000001,7.0211194 V 13.583472 L 11.060922,7.0521782 h 0.73908 L 8.8591009,15.000416 H 7 Z"
     style="fill:#634d9f;fill-opacity:1"
     id="path3785" />
  <path
     fill="#fafafa"
     d="m9 1v4.1667c0 0.4584 0.3749 0.8333 0.8333 0.8333h4.1667z"
     id="path5894" />
</svg>
