<?xml version="1.0" encoding="UTF-8" standalone="no"?>
<!-- Created with Inkscape (http://www.inkscape.org/) -->

<svg
   width="504"
   height="152"
   viewBox="0 0 504 152.00001"
   version="1.1"
   id="svg5"
   inkscape:version="1.2.2 (1:1.2.2+202305151914+b0a8486541)"
   sodipodi:docname="dialog-error.svg"
   xmlns:inkscape="http://www.inkscape.org/namespaces/inkscape"
   xmlns:sodipodi="http://sodipodi.sourceforge.net/DTD/sodipodi-0.dtd"
   xmlns="http://www.w3.org/2000/svg"
   xmlns:svg="http://www.w3.org/2000/svg">
  <sodipodi:namedview
     id="namedview7"
     pagecolor="#c1c1c1"
     bordercolor="#000000"
     borderopacity="0.25"
     inkscape:showpageshadow="2"
     inkscape:pageopacity="0"
     inkscape:pagecheckerboard="0"
     inkscape:deskcolor="#c1c1c1"
     inkscape:document-units="px"
     showgrid="false"
     showborder="false"
     inkscape:zoom="2.5972222"
     inkscape:cx="252"
     inkscape:cy="75.850268"
     inkscape:window-width="1920"
     inkscape:window-height="1008"
     inkscape:window-x="0"
     inkscape:window-y="0"
     inkscape:window-maximized="1"
     inkscape:current-layer="svg5" />
  <defs
     id="defs2" />
  <g
     id="Baseplate"
     style="display:none">
    <text
       y="24.168457"
       xml:space="preserve"
       x="13.505048"
       style="font-style:normal;font-variant:normal;font-weight:normal;font-stretch:normal;line-height:0%;font-family:'DejaVu Sans';-inkscape-font-specification:'DejaVu Sans';display:inline;fill:#000000;fill-opacity:1;stroke:none;enable-background:new"
       inkscape:label="context"
       id="context"><tspan
         style="font-style:normal;font-variant:normal;font-weight:normal;font-stretch:normal;font-size:18px;line-height:1.25;font-family:'DejaVu Sans';-inkscape-font-specification:'DejaVu Sans'"
         y="24.168457"
         x="13.505048"
         sodipodi:role="line"
         id="tspan3933">status</tspan></text>
    <text
       y="24.168457"
       xml:space="preserve"
       x="120.9865"
       style="font-style:normal;font-variant:normal;font-weight:bold;font-stretch:normal;line-height:0%;font-family:'DejaVu Sans';-inkscape-font-specification:'DejaVu Sans Bold';text-align:start;writing-mode:lr-tb;text-anchor:start;display:inline;fill:#000000;fill-opacity:1;stroke:none;enable-background:new"
       inkscape:label="icon-name"
       id="icon-name"><tspan
         style="font-style:normal;font-variant:normal;font-weight:bold;font-stretch:normal;font-size:18px;line-height:1.25;font-family:'DejaVu Sans';-inkscape-font-specification:'DejaVu Sans Bold'"
         y="24.168457"
         x="120.9865"
         sodipodi:role="line"
         id="tspan3937">dialog-error</tspan></text>
    <rect
       style="opacity:1;fill:#ffffff;stroke-width:5;stroke-linecap:round;stroke-linejoin:round"
       id="16x16"
       width="16"
       height="16"
       x="12"
       y="124"
       inkscape:label="16x16" />
    <rect
       style="opacity:1;fill:#ffffff;stroke-width:5;stroke-linecap:round;stroke-linejoin:round"
       id="24x24"
       width="24"
       height="24"
       x="40"
       y="116" />
    <rect
       style="opacity:1;fill:#ffffff;stroke-width:5;stroke-linecap:round;stroke-linejoin:round"
       id="22x22"
       width="22"
       height="22"
       x="41"
       y="117" />
    <rect
       style="opacity:1;fill:#ffffff;stroke-width:5;stroke-linecap:round;stroke-linejoin:round"
       id="32x32"
       width="32"
       height="32"
       x="76"
       y="108" />
    <rect
       style="opacity:1;fill:#ffffff;stroke-width:5;stroke-linecap:round;stroke-linejoin:round"
       id="48x48"
       width="48"
       height="48"
       x="120"
       y="92" />
    <rect
       style="opacity:1;fill:#ffffff;stroke-width:5;stroke-linecap:round;stroke-linejoin:round"
       id="64x64"
       width="64"
       height="64"
       x="180"
       y="76" />
    <rect
       style="fill:#ffffff;stroke-width:10;stroke-linecap:round;stroke-linejoin:round"
       id="128x128"
       width="128"
       height="128"
       x="364"
       y="12" />
    <rect
       style="fill:#ffffff;stroke-width:7.5;stroke-linecap:round;stroke-linejoin:round"
       id="96x96"
       width="96"
       height="96"
       x="256"
       y="44" />
  </g>
  <g
     id="Shadow">
    <circle
       style="opacity:0.2;fill:#000000;fill-opacity:1;stroke-width:5;stroke-linecap:round;stroke-linejoin:round"
       id="path2199"
       cx="52"
       cy="128.5"
       r="10" />
    <circle
       style="opacity:0.2;fill:#000000;fill-opacity:1;stroke-width:5;stroke-linecap:round;stroke-linejoin:round"
       id="path2201"
       cx="92"
       cy="125"
       r="14" />
    <circle
       style="opacity:0.2;fill:#000000;fill-opacity:1;stroke-width:5;stroke-linecap:round;stroke-linejoin:round"
       id="path2255"
       cx="144"
       cy="117"
       r="20" />
    <circle
       style="opacity:0.2;fill:#000000;fill-opacity:1;stroke-width:5;stroke-linecap:round;stroke-linejoin:round"
       id="path2257"
       cx="212"
       cy="109"
       r="28" />
    <circle
       style="opacity:0.2;fill:#000000;fill-opacity:1;stroke-width:5;stroke-linecap:round;stroke-linejoin:round"
       id="path2259"
       cx="304"
       cy="93"
       r="42" />
    <circle
       style="opacity:0.2;fill:#000000;fill-opacity:1;stroke-width:5;stroke-linecap:round;stroke-linejoin:round"
       id="path2261"
       cx="428"
       cy="77"
       r="56" />
  </g>
  <g
     id="Background">
    <circle
       style="opacity:1;fill:#e25252;fill-opacity:1;stroke-width:5;stroke-linecap:round;stroke-linejoin:round"
       id="path1551"
       cx="20"
       cy="132"
       r="8" />
    <circle
       style="opacity:1;fill:#e25252;fill-opacity:1;stroke-width:5;stroke-linecap:round;stroke-linejoin:round"
       id="path1553"
       cx="52"
       cy="128"
       r="10" />
    <circle
       style="opacity:1;fill:#e25252;fill-opacity:1;stroke-width:5;stroke-linecap:round;stroke-linejoin:round"
       id="path1555"
       cx="92"
       cy="124"
       r="14" />
    <circle
       style="opacity:1;fill:#e25252;fill-opacity:1;stroke-width:5;stroke-linecap:round;stroke-linejoin:round"
       id="path1557"
       cx="144"
       cy="116"
       r="20" />
    <circle
       style="opacity:1;fill:#e25252;fill-opacity:1;stroke-width:5;stroke-linecap:round;stroke-linejoin:round"
       id="path1559"
       cx="212"
       cy="108"
       r="28" />
    <circle
       style="opacity:1;fill:#e25252;fill-opacity:1;stroke-width:5;stroke-linecap:round;stroke-linejoin:round"
       id="path1561"
       cx="304"
       cy="92"
       r="42" />
    <circle
       style="opacity:1;fill:#e25252;fill-opacity:1;stroke-width:5;stroke-linecap:round;stroke-linejoin:round"
       id="path1563"
       cx="428"
       cy="76"
       r="56" />
  </g>
  <g
     id="Symbols">
    <rect
       style="opacity:1;fill:#ffffff;stroke-width:5;stroke-linecap:round;stroke-linejoin:round"
       id="rect387"
       width="10"
       height="2"
       x="15"
       y="131" />
    <rect
       style="opacity:0.2;fill:#000000;fill-opacity:1;stroke-width:5;stroke-linecap:round;stroke-linejoin:round"
       id="rect812"
       width="12"
       height="3"
       x="46"
       y="126.5" />
    <rect
       style="opacity:1;fill:#ffffff;stroke-width:4.99999;stroke-linecap:round;stroke-linejoin:round"
       id="rect441"
       width="12"
       height="3"
       x="46"
       y="126" />
    <rect
       style="opacity:0.2;fill:#000000;stroke-width:5;stroke-linecap:round;stroke-linejoin:round"
       id="rect443"
       width="20"
       height="4"
       x="82"
       y="123" />
    <rect
       style="opacity:1;fill:#ffffff;stroke-width:5;stroke-linecap:round;stroke-linejoin:round"
       id="rect445"
       width="20"
       height="4"
       x="82"
       y="122" />
    <rect
       style="opacity:0.2;fill:#000000;stroke-width:5.17549;stroke-linecap:round;stroke-linejoin:round"
       id="rect447"
       width="30"
       height="6"
       x="129"
       y="114" />
    <rect
       style="opacity:1;fill:#ffffff;stroke-width:5.17549;stroke-linecap:round;stroke-linejoin:round"
       id="rect449"
       width="30"
       height="6"
       x="129"
       y="113" />
    <rect
       style="opacity:0.2;fill:#000000;stroke-width:10.5409;stroke-linecap:round;stroke-linejoin:round"
       id="rect451"
       width="40"
       height="8"
       x="192"
       y="105" />
    <rect
       style="opacity:1;fill:#ffffff;stroke-width:10.5409;stroke-linecap:round;stroke-linejoin:round"
       id="rect453"
       width="40"
       height="8"
       x="192"
       y="104" />
    <rect
       style="opacity:0.2;fill:#000000;stroke-width:5.17549;stroke-linecap:round;stroke-linejoin:round"
       id="rect457"
       width="60"
       height="12"
       x="274"
       y="87" />
    <rect
       style="opacity:1;fill:#ffffff;stroke-width:5.17549;stroke-linecap:round;stroke-linejoin:round"
       id="rect459"
       width="60"
       height="12"
       x="274"
       y="86" />
    <rect
       style="opacity:0.2;fill:#000000;stroke-width:5.27046;stroke-linecap:round;stroke-linejoin:round"
       id="rect463"
       width="80"
       height="16"
       x="388"
       y="69" />
    <rect
       style="opacity:1;fill:#ffffff;fill-opacity:1;stroke-width:5.27046;stroke-linecap:round;stroke-linejoin:round"
       id="rect465"
       width="80"
       height="16"
       x="388"
       y="68" />
  </g>
  <g
     id="Highlights">
    <path
       id="path2278"
       style="opacity:0.2;fill:#ffffff;fill-opacity:1;stroke-width:5;stroke-linecap:round;stroke-linejoin:round"
       d="m 52,118 a 10,10 0 0 0 -10,10 10,10 0 0 0 0.01758,0.25 A 10,10 0 0 1 52,118.5 10,10 0 0 1 61.990234,128.125 10,10 0 0 0 62,128 10,10 0 0 0 52,118 Z" />
    <path
       id="path2280"
       style="opacity:0.2;fill:#ffffff;fill-opacity:1;stroke-width:5;stroke-linecap:round;stroke-linejoin:round"
       d="m 92,110 a 14,14 0 0 0 -14,14 14,14 0 0 0 0.03516,0.5 A 14,14 0 0 1 92,111 14,14 0 0 1 105.98047,124.2793 14,14 0 0 0 106,124 14,14 0 0 0 92,110 Z" />
    <path
       id="path2282"
       style="opacity:0.2;fill:#ffffff;fill-opacity:1;stroke-width:5;stroke-linecap:round;stroke-linejoin:round"
       d="m 144,96 a 20,20 0 0 0 -20,20 20,20 0 0 0 0.0352,0.5 A 20,20 0 0 1 144,97 20,20 0 0 1 163.98242,116.25 20,20 0 0 0 164,116 20,20 0 0 0 144,96 Z" />
    <path
       id="path2284"
       style="opacity:0.2;fill:#ffffff;fill-opacity:1;stroke-width:5;stroke-linecap:round;stroke-linejoin:round"
       d="m 212,80 a 28,28 0 0 0 -28,28 28,28 0 0 0 0.0352,0.5 A 28,28 0 0 1 212,81 28,28 0 0 1 239.98242,108.25195 28,28 0 0 0 240,108 28,28 0 0 0 212,80 Z" />
    <path
       id="path2286"
       style="opacity:0.2;fill:#ffffff;fill-opacity:1;stroke-width:5;stroke-linecap:round;stroke-linejoin:round"
       d="m 304,50 a 42,42 0 0 0 -42,42 42,42 0 0 0 0.0352,0.5 A 42,42 0 0 1 304,51 42,42 0 0 1 345.98242,92.255859 42,42 0 0 0 346,92 42,42 0 0 0 304,50 Z" />
    <path
       id="path2288"
       style="opacity:0.2;fill:#ffffff;fill-opacity:1;stroke-width:5;stroke-linecap:round;stroke-linejoin:round"
       d="m 428,20 a 56,56 0 0 0 -56,56 56,56 0 0 0 0.0352,0.5 A 56,56 0 0 1 428,21 56,56 0 0 1 483.98242,76.257812 56,56 0 0 0 484,76 56,56 0 0 0 428,20 Z" />
  </g>
</svg>
