<?xml version="1.0" encoding="UTF-8" standalone="no"?>
<!-- Created with Inkscape (http://www.inkscape.org/) -->

<svg
   width="504"
   height="152"
   viewBox="0 0 504 152.00001"
   version="1.1"
   id="svg5"
   inkscape:version="1.2.2 (1:1.2.2+202305151914+b0a8486541)"
   sodipodi:docname="dialog-question.svg"
   xmlns:inkscape="http://www.inkscape.org/namespaces/inkscape"
   xmlns:sodipodi="http://sodipodi.sourceforge.net/DTD/sodipodi-0.dtd"
   xmlns="http://www.w3.org/2000/svg"
   xmlns:svg="http://www.w3.org/2000/svg">
  <sodipodi:namedview
     id="namedview7"
     pagecolor="#c1c1c1"
     bordercolor="#000000"
     borderopacity="0.25"
     inkscape:showpageshadow="2"
     inkscape:pageopacity="0"
     inkscape:pagecheckerboard="0"
     inkscape:deskcolor="#c1c1c1"
     inkscape:document-units="px"
     showgrid="false"
     showborder="false"
     inkscape:zoom="2.5972222"
     inkscape:cx="252"
     inkscape:cy="75.850268"
     inkscape:window-width="1920"
     inkscape:window-height="1008"
     inkscape:window-x="0"
     inkscape:window-y="0"
     inkscape:window-maximized="1"
     inkscape:current-layer="svg5" />
  <defs
     id="defs2" />
  <g
     id="Baseplate"
     style="display:none">
    <text
       y="24.168457"
       xml:space="preserve"
       x="13.505048"
       style="font-style:normal;font-variant:normal;font-weight:normal;font-stretch:normal;line-height:0%;font-family:'DejaVu Sans';-inkscape-font-specification:'DejaVu Sans';display:inline;fill:#000000;fill-opacity:1;stroke:none;enable-background:new"
       inkscape:label="context"
       id="context"><tspan
         style="font-style:normal;font-variant:normal;font-weight:normal;font-stretch:normal;font-size:18px;line-height:1.25;font-family:'DejaVu Sans';-inkscape-font-specification:'DejaVu Sans'"
         y="24.168457"
         x="13.505048"
         sodipodi:role="line"
         id="tspan3933">status</tspan></text>
    <text
       y="24.168457"
       xml:space="preserve"
       x="120.9865"
       style="font-style:normal;font-variant:normal;font-weight:bold;font-stretch:normal;line-height:0%;font-family:'DejaVu Sans';-inkscape-font-specification:'DejaVu Sans Bold';text-align:start;writing-mode:lr-tb;text-anchor:start;display:inline;fill:#000000;fill-opacity:1;stroke:none;enable-background:new"
       inkscape:label="icon-name"
       id="icon-name"><tspan
         style="font-style:normal;font-variant:normal;font-weight:bold;font-stretch:normal;font-size:18px;line-height:1.25;font-family:'DejaVu Sans';-inkscape-font-specification:'DejaVu Sans Bold'"
         y="24.168457"
         x="120.9865"
         sodipodi:role="line"
         id="tspan3937">dialog-question</tspan></text>
    <rect
       style="opacity:1;fill:#ffffff;stroke-width:5;stroke-linecap:round;stroke-linejoin:round"
       id="16x16"
       width="16"
       height="16"
       x="12"
       y="124"
       inkscape:label="16x16" />
    <rect
       style="opacity:1;fill:#ffffff;stroke-width:5;stroke-linecap:round;stroke-linejoin:round"
       id="24x24"
       width="24"
       height="24"
       x="40"
       y="116" />
    <rect
       style="opacity:1;fill:#ffffff;stroke-width:5;stroke-linecap:round;stroke-linejoin:round"
       id="22x22"
       width="22"
       height="22"
       x="41"
       y="117" />
    <rect
       style="opacity:1;fill:#ffffff;stroke-width:5;stroke-linecap:round;stroke-linejoin:round"
       id="32x32"
       width="32"
       height="32"
       x="76"
       y="108" />
    <rect
       style="opacity:1;fill:#ffffff;stroke-width:5;stroke-linecap:round;stroke-linejoin:round"
       id="48x48"
       width="48"
       height="48"
       x="120"
       y="92" />
    <rect
       style="opacity:1;fill:#ffffff;stroke-width:5;stroke-linecap:round;stroke-linejoin:round"
       id="64x64"
       width="64"
       height="64"
       x="180"
       y="76" />
    <rect
       style="fill:#ffffff;stroke-width:10;stroke-linecap:round;stroke-linejoin:round"
       id="128x128"
       width="128"
       height="128"
       x="364"
       y="12" />
    <rect
       style="fill:#ffffff;stroke-width:7.5;stroke-linecap:round;stroke-linejoin:round"
       id="96x96"
       width="96"
       height="96"
       x="256"
       y="44" />
  </g>
  <g
     id="Shadow">
    <circle
       style="opacity:0.2;fill:#000000;fill-opacity:1;stroke-width:5;stroke-linecap:round;stroke-linejoin:round"
       id="path2199"
       cx="52"
       cy="128.5"
       r="10" />
    <circle
       style="opacity:0.2;fill:#000000;fill-opacity:1;stroke-width:5;stroke-linecap:round;stroke-linejoin:round"
       id="path2201"
       cx="92"
       cy="125"
       r="14" />
    <circle
       style="opacity:0.2;fill:#000000;fill-opacity:1;stroke-width:5;stroke-linecap:round;stroke-linejoin:round"
       id="path2255"
       cx="144"
       cy="117"
       r="20" />
    <circle
       style="opacity:0.2;fill:#000000;fill-opacity:1;stroke-width:5;stroke-linecap:round;stroke-linejoin:round"
       id="path2257"
       cx="212"
       cy="109"
       r="28" />
    <circle
       style="opacity:0.2;fill:#000000;fill-opacity:1;stroke-width:5;stroke-linecap:round;stroke-linejoin:round"
       id="path2259"
       cx="304"
       cy="93"
       r="42" />
    <circle
       style="opacity:0.2;fill:#000000;fill-opacity:1;stroke-width:5;stroke-linecap:round;stroke-linejoin:round"
       id="path2261"
       cx="428"
       cy="77"
       r="56" />
  </g>
  <g
     id="Background">
    <circle
       style="opacity:1;fill:#5294e2;fill-opacity:1;stroke-width:5;stroke-linecap:round;stroke-linejoin:round"
       id="path1551"
       cx="20"
       cy="132"
       r="8" />
    <circle
       style="opacity:1;fill:#5294e2;fill-opacity:1;stroke-width:5;stroke-linecap:round;stroke-linejoin:round"
       id="path1553"
       cx="52"
       cy="128"
       r="10" />
    <circle
       style="opacity:1;fill:#5294e2;fill-opacity:1;stroke-width:5;stroke-linecap:round;stroke-linejoin:round"
       id="path1555"
       cx="92"
       cy="124"
       r="14" />
    <circle
       style="opacity:1;fill:#5294e2;fill-opacity:1;stroke-width:5;stroke-linecap:round;stroke-linejoin:round"
       id="path1557"
       cx="144"
       cy="116"
       r="20" />
    <circle
       style="opacity:1;fill:#5294e2;fill-opacity:1;stroke-width:5;stroke-linecap:round;stroke-linejoin:round"
       id="path1559"
       cx="212"
       cy="108"
       r="28" />
    <circle
       style="opacity:1;fill:#5294e2;fill-opacity:1;stroke-width:5;stroke-linecap:round;stroke-linejoin:round"
       id="path1561"
       cx="304"
       cy="92"
       r="42" />
    <circle
       style="opacity:1;fill:#5294e2;fill-opacity:1;stroke-width:5;stroke-linecap:round;stroke-linejoin:round"
       id="path1563"
       cx="428"
       cy="76"
       r="56" />
  </g>
  <g
     id="Symbols">
    <path
       d="m 20.125,136 h -1.25 v -1.25 h 1.25 z m 1.294,-5.0437 -0.5628,0.575 c -0.45,0.4562 -0.7312,0.8312 -0.7312,1.7687 h -1.25 v -0.3125 c 0,-0.6875 0.2812,-1.3125 0.7313,-1.7687 l 0.7749,-0.7875 c 0.2313,-0.225 0.3688,-0.5375 0.3688,-0.8813 0,-0.6875 -0.5625,-1.25 -1.25,-1.25 -0.6875,0 -1.25,0.7 -1.25,1.7 H 17 c 0,-2 1.1188,-2.95 2.5,-2.95 1.3812,0 2.5,1.1188 2.5,2.5 0,0.55 -0.225,1.05 -0.581,1.4063 z"
       style="fill:#ffffff"
       id="path4476" />
    <g
       id="g3376">
      <path
         d="m 52.99999,135.4999 h -2 v -2 h 2 z m 2.07,-7.7499 -0.89999,0.91999 c -0.72,0.73 -1.17,1.33 -1.17,2.83 h -2 v -0.5 c 0,-1.1 0.45,-2.1 1.17,-2.83 l 1.24,-1.26 C 53.78,126.54999 54,126.05 54,125.5 c 0,-1.1 -0.89999,-2 -2,-2 -1.10001,0 -2,0.89999 -2,2 h -2 c 0,-2.21 1.79,-4 4,-4 2.21,0 4,1.79 4,4 0,0.87998 -0.36,1.68 -0.92999,2.25 z"
         style="opacity:0.2;fill:#000000"
         id="path3266"
         sodipodi:nodetypes="cccccccccsccssccsssc" />
      <path
         d="m 52.99999,134.99995 h -2 v -2 h 2 z m 2.07,-7.7499 -0.89999,0.91999 c -0.72,0.73 -1.17,1.33 -1.17,2.83 h -2 v -0.5 c 0,-1.1 0.45,-2.1 1.17,-2.83 l 1.24,-1.26 c 0.37,-0.36 0.59,-0.85999 0.59,-1.40999 0,-1.1 -0.89999,-2 -2,-2 -1.10001,0 -2,0.89999 -2,2 h -2 c 0,-2.21 1.79,-4 4,-4 2.21,0 4,1.79 4,4 0,0.87998 -0.36,1.68 -0.92999,2.25 z"
         style="fill:#ffffff"
         id="path3294"
         sodipodi:nodetypes="cccccccccsccssccsssc" />
    </g>
    <g
       id="g3372"
       transform="matrix(2,0,0,2,40,-140.0001)">
      <path
         d="m 52.99999,135.4999 h -2 v -2 h 2 z m 2.07,-7.7499 -0.89999,0.91999 c -0.72,0.73 -1.17,1.33 -1.17,2.83 h -2 v -0.5 c 0,-1.1 0.45,-2.1 1.17,-2.83 l 1.24,-1.26 C 53.78,126.54999 54,126.05 54,125.5 c 0,-1.1 -0.89999,-2 -2,-2 -1.10001,0 -2,0.89999 -2,2 h -2 c 0,-2.21 1.79,-4 4,-4 2.21,0 4,1.79 4,4 0,0.87998 -0.36,1.68 -0.92999,2.25 z"
         style="opacity:0.2;fill:#000000"
         id="path3322" />
      <path
         d="m 52.99999,134.99995 h -2 v -2 h 2 z m 2.07,-7.7499 -0.89999,0.91999 c -0.72,0.73 -1.17,1.33 -1.17,2.83 h -2 v -0.5 c 0,-1.1 0.45,-2.1 1.17,-2.83 l 1.24,-1.26 c 0.37,-0.36 0.59,-0.85999 0.59,-1.40999 0,-1.1 -0.89999,-2 -2,-2 -1.10001,0 -2,0.89999 -2,2 h -2 c 0,-2.21 1.79,-4 4,-4 2.21,0 4,1.79 4,4 0,0.87998 -0.36,1.68 -0.92999,2.25 z"
         style="fill:#ffffff"
         id="path3350"
         sodipodi:nodetypes="cccccccccsccssccsssc" />
    </g>
    <g
       id="g4339">
      <path
         d="m 93.000002,136 h -3.00002 v -3.00002 h 3.00002 z m 3.60502,-11.62494 -1.349999,1.38 c -1.080011,1.09501 -2.255,1.99501 -2.255,4.24503 h -3.00003 v -0.75 c 0,-1.65002 1.175,-3.15003 2.25501,-4.24503 l 1.86001,-1.89002 c 0.55501,-0.53999 0.88501,-1.28999 0.88501,-2.115 0,-1.65001 -1.34999,-3.00003 -3.000021,-3.00003 -1.65003,0 -3.00002,1.35001 -3.00002,3.00003 h -3.000025 c 0,-3.31502 2.685019,-6.00004 6.000045,-6.00004 3.315021,0 6.00004,2.68502 6.00004,6.00004 0,1.31997 -0.54,2.52002 -1.394999,3.37502 z"
         style="opacity:0.2;fill:#000000;stroke-width:0.750006"
         id="path3688" />
      <path
         d="m 93.000005,135 h -3.000023 v -3.00002 h 3.000023 z m 3.605017,-11.62494 -1.349996,1.38 c -1.080008,1.09501 -2.255008,1.99501 -2.255008,4.24503 h -3.000023 v -0.75 c 0,-1.65002 1.175001,-3.15003 2.255008,-4.24503 l 1.860012,-1.89002 c 0.555004,-0.53999 0.885008,-1.28999 0.885008,-2.115 0,-1.65001 -1.349993,-3.00003 -3.000022,-3.00003 -1.650026,0 -3.000022,1.35001 -3.000022,3.00003 h -3.000021 c 0,-3.31502 2.685019,-6.00004 6.000043,-6.00004 3.315026,0 6.00004,2.68502 6.00004,6.00004 0,1.31997 -0.54,2.52002 -1.394995,3.37502 z"
         style="fill:#ffffff;stroke-width:0.750006"
         id="path3611"
         sodipodi:nodetypes="cccccccccsccssccsssc" />
    </g>
    <g
       id="g4180">
      <path
         d="m 211.99939,89 c -6.409,0 -11.90039,5.591003 -11.90039,12 h 5.80078 c 0,-3.189997 2.90961,-6.199217 6.09961,-6.199217 3.19,0 6.10091,2.61078 6.10091,5.800777 0,1.595 -0.63794,3.04194 -1.71094,4.08594 l -3.59766,3.65625 c -2.088,2.117 -3.69075,5.01703 -3.69075,8.20703 V 117 v 1 h 5.89844 v -1 h -0.0586 c 0.19426,-3.61483 1.73591,-5.26465 3.65169,-7.20704 l 2.60937,-2.66796 c 1.653,-1.653 2.69922,-3.97144 2.69922,-6.52344 C 223.90107,94.192563 218.40838,89 211.99938,89 Z m -3,34 v 6 h 6 v -6 z"
         style="opacity:0.2;fill:#000000"
         id="path4158"
         sodipodi:nodetypes="sccssccscccccccsssccccc" />
      <path
         d="m 211.99939,88 c -6.409,0 -11.90039,5.591004 -11.90039,12 h 5.80078 c 0,-3.189996 2.90961,-6.199216 6.09961,-6.199216 3.19,0 6.10091,2.61078 6.10091,5.80078 0,1.594996 -0.63794,3.041936 -1.71094,4.085936 l -3.59766,3.65625 c -2.088,2.117 -3.69075,5.01703 -3.69075,8.20703 V 116 v 1 h 5.89844 v -1 h -0.0586 c 0.19426,-3.61483 1.73591,-5.26465 3.65169,-7.20704 l 2.60937,-2.66796 c 1.653,-1.653 2.69922,-3.97144 2.69922,-6.523436 C 223.90107,93.192564 218.40838,88 211.99938,88 Z m -3,34 v 6 h 6 v -6 z"
         style="fill:#ffffff"
         id="path3967"
         sodipodi:nodetypes="sccssccscccccccsssccccc" />
    </g>
    <g
       id="g4240">
      <path
         d="M 304.39957,63 C 294.78608,63 286.549,71.3865 286.549,81 h 8.70117 c 0,-4.784999 4.3644,-9.298829 9.14942,-9.298829 4.78499,0 9.15136,3.916169 9.15136,8.70117 0,2.3925 -0.95691,4.56291 -2.56641,6.12891 l -5.39648,5.48438 c -3.13201,3.1755 -5.53614,7.52554 -5.53614,12.310539 V 105 v 2 h 8.84767 v -2 h -0.0879 c 0.29139,-5.42225 2.60387,-7.896969 5.47754,-10.810559 l 3.91405,-4.001941 c 2.4795,-2.4795 4.04883,-5.95716 4.04883,-9.78516 C 322.2521,70.78884 314.01308,63 304.39957,63 Z m -4.5,51 v 9 h 9 v -9 z"
         style="opacity:0.2;fill:#000000;stroke-width:1.5"
         id="path4218"
         sodipodi:nodetypes="sccssccscccccccssccccc" />
      <path
         d="m 304.39959,62 c -9.6135,0 -17.85058,8.386505 -17.85058,18 h 8.70117 c 0,-4.784989 4.36441,-9.298824 9.14941,-9.298824 4.785,0 9.15136,3.916174 9.15136,8.701175 0,2.39249 -0.95691,4.5629 -2.56641,6.1289 l -5.39648,5.48437 c -3.13201,3.1755 -5.53614,7.52555 -5.53614,12.310549 V 104 v 2 h 8.84767 v -2 h -0.0879 c 0.29138,-5.42225 2.60386,-7.89698 5.47753,-10.810559 l 3.91405,-4.001941 c 2.4795,-2.4795 4.04883,-5.95716 4.04883,-9.78515 C 322.2521,69.788845 314.01308,62 304.39957,62 Z m -4.5,51 v 9 h 9 v -9 z"
         style="fill:#ffffff;stroke-width:1.5"
         id="path4190"
         sodipodi:nodetypes="sccssccscccccccsssccccc" />
    </g>
    <path
       d="M 427.99978,37 C 415.18178,37 404.199,48.182007 404.199,61 h 11.60156 c 0,-6.379993 5.81922,-12.398432 12.19922,-12.398432 6.38,0 12.20182,5.221559 12.20182,11.601551 0,3.19 -1.27588,6.08388 -3.42188,8.17188 l -7.19532,7.3125 c -4.176,4.233999 -7.3815,10.03406 -7.3815,16.414061 V 93 95 h 11.79688 v -2 h -0.1172 c 0.38852,-7.22966 3.47182,-10.529302 7.30338,-14.414081 l 5.21874,-5.33592 c 3.306,-3.306 5.39844,-7.94288 5.39844,-13.04688 C 451.80314,47.385127 440.81776,37 427.99976,37 Z m -6,68 v 12 h 12 v -12 z"
       style="opacity:0.2;fill:#000000;stroke-width:2"
       id="path4504"
       sodipodi:nodetypes="sccssccscccccccsssccccc" />
    <path
       d="M 427.99978,35.999996 C 415.18178,35.999996 404.199,47.182003 404.199,60 h 11.60156 c 0,-6.379997 5.81922,-12.398437 12.19922,-12.398437 6.38,0 12.20182,5.22156 12.20182,11.601564 0,3.189992 -1.27588,6.083892 -3.42188,8.171891 l -7.19532,7.3125 c -4.176,4.234 -7.3815,10.034061 -7.3815,16.414061 v 0.89844 2 h 11.79688 v -2 h -0.1172 c 0.38852,-7.22966 3.47182,-10.529301 7.30338,-14.414081 l 5.21874,-5.33592 c 3.306,-3.306 5.39844,-7.942879 5.39844,-13.046891 0,-12.818004 -10.98538,-23.203131 -23.80338,-23.203131 z m -6,68.000024 v 12 h 12 v -12 z"
       style="fill:#ffffff;stroke-width:2"
       id="path4532" />
  </g>
  <g
     id="Highlights">
    <path
       id="path2278"
       style="opacity:0.2;fill:#ffffff;fill-opacity:1;stroke-width:5;stroke-linecap:round;stroke-linejoin:round"
       d="m 52,118 a 10,10 0 0 0 -10,10 10,10 0 0 0 0.01758,0.25 A 10,10 0 0 1 52,118.5 10,10 0 0 1 61.990234,128.125 10,10 0 0 0 62,128 10,10 0 0 0 52,118 Z" />
    <path
       id="path2280"
       style="opacity:0.2;fill:#ffffff;fill-opacity:1;stroke-width:5;stroke-linecap:round;stroke-linejoin:round"
       d="m 92,110 a 14,14 0 0 0 -14,14 14,14 0 0 0 0.03516,0.5 A 14,14 0 0 1 92,111 14,14 0 0 1 105.98047,124.2793 14,14 0 0 0 106,124 14,14 0 0 0 92,110 Z" />
    <path
       id="path2282"
       style="opacity:0.2;fill:#ffffff;fill-opacity:1;stroke-width:5;stroke-linecap:round;stroke-linejoin:round"
       d="m 144,96 a 20,20 0 0 0 -20,20 20,20 0 0 0 0.0352,0.5 A 20,20 0 0 1 144,97 20,20 0 0 1 163.98242,116.25 20,20 0 0 0 164,116 20,20 0 0 0 144,96 Z" />
    <path
       id="path2284"
       style="opacity:0.2;fill:#ffffff;fill-opacity:1;stroke-width:5;stroke-linecap:round;stroke-linejoin:round"
       d="m 212,80 a 28,28 0 0 0 -28,28 28,28 0 0 0 0.0352,0.5 A 28,28 0 0 1 212,81 28,28 0 0 1 239.98242,108.25195 28,28 0 0 0 240,108 28,28 0 0 0 212,80 Z" />
    <path
       id="path2286"
       style="opacity:0.2;fill:#ffffff;fill-opacity:1;stroke-width:5;stroke-linecap:round;stroke-linejoin:round"
       d="m 304,50 a 42,42 0 0 0 -42,42 42,42 0 0 0 0.0352,0.5 A 42,42 0 0 1 304,51 42,42 0 0 1 345.98242,92.255859 42,42 0 0 0 346,92 42,42 0 0 0 304,50 Z" />
    <path
       id="path2288"
       style="opacity:0.2;fill:#ffffff;fill-opacity:1;stroke-width:5;stroke-linecap:round;stroke-linejoin:round"
       d="m 428,20 a 56,56 0 0 0 -56,56 56,56 0 0 0 0.0352,0.5 A 56,56 0 0 1 428,21 56,56 0 0 1 483.98242,76.257812 56,56 0 0 0 484,76 56,56 0 0 0 428,20 Z" />
  </g>
</svg>
