<?xml version="1.0" encoding="UTF-8" standalone="no"?>
<!-- Created with Inkscape (http://www.inkscape.org/) -->

<svg
   width="504"
   height="152"
   viewBox="0 0 504 152.00001"
   version="1.1"
   id="svg5"
   inkscape:version="1.2.2 (1:1.2.2+202305151914+b0a8486541)"
   sodipodi:docname="dialog-warning.svg"
   xmlns:inkscape="http://www.inkscape.org/namespaces/inkscape"
   xmlns:sodipodi="http://sodipodi.sourceforge.net/DTD/sodipodi-0.dtd"
   xmlns="http://www.w3.org/2000/svg"
   xmlns:svg="http://www.w3.org/2000/svg">
  <sodipodi:namedview
     id="namedview7"
     pagecolor="#c1c1c1"
     bordercolor="#000000"
     borderopacity="0.25"
     inkscape:showpageshadow="2"
     inkscape:pageopacity="0"
     inkscape:pagecheckerboard="0"
     inkscape:deskcolor="#c1c1c1"
     inkscape:document-units="px"
     showgrid="false"
     showborder="false"
     inkscape:zoom="2.8968254"
     inkscape:cx="252.1726"
     inkscape:cy="75.945205"
     inkscape:window-width="1920"
     inkscape:window-height="1008"
     inkscape:window-x="0"
     inkscape:window-y="0"
     inkscape:window-maximized="1"
     inkscape:current-layer="svg5" />
  <defs
     id="defs2" />
  <g
     id="Baseplate"
     style="display:none">
    <text
       y="24.168457"
       xml:space="preserve"
       x="13.505048"
       style="font-style:normal;font-variant:normal;font-weight:normal;font-stretch:normal;line-height:0%;font-family:'DejaVu Sans';-inkscape-font-specification:'DejaVu Sans';display:inline;fill:#000000;fill-opacity:1;stroke:none;enable-background:new"
       inkscape:label="context"
       id="context"><tspan
         style="font-style:normal;font-variant:normal;font-weight:normal;font-stretch:normal;font-size:18px;line-height:1.25;font-family:'DejaVu Sans';-inkscape-font-specification:'DejaVu Sans'"
         y="24.168457"
         x="13.505048"
         sodipodi:role="line"
         id="tspan3933">status</tspan></text>
    <text
       y="24.168457"
       xml:space="preserve"
       x="120.9865"
       style="font-style:normal;font-variant:normal;font-weight:bold;font-stretch:normal;line-height:0%;font-family:'DejaVu Sans';-inkscape-font-specification:'DejaVu Sans Bold';text-align:start;writing-mode:lr-tb;text-anchor:start;display:inline;fill:#000000;fill-opacity:1;stroke:none;enable-background:new"
       inkscape:label="icon-name"
       id="icon-name"><tspan
         style="font-style:normal;font-variant:normal;font-weight:bold;font-stretch:normal;font-size:18px;line-height:1.25;font-family:'DejaVu Sans';-inkscape-font-specification:'DejaVu Sans Bold'"
         y="24.168457"
         x="120.9865"
         sodipodi:role="line"
         id="tspan3937">dialog-warning</tspan></text>
    <rect
       style="opacity:1;fill:#ffffff;stroke-width:5;stroke-linecap:round;stroke-linejoin:round"
       id="16x16"
       width="16"
       height="16"
       x="12"
       y="124"
       inkscape:label="16x16" />
    <rect
       style="opacity:1;fill:#ffffff;stroke-width:5;stroke-linecap:round;stroke-linejoin:round"
       id="24x24"
       width="24"
       height="24"
       x="40"
       y="116" />
    <rect
       style="opacity:1;fill:#ffffff;stroke-width:5;stroke-linecap:round;stroke-linejoin:round"
       id="22x22"
       width="22"
       height="22"
       x="41"
       y="117" />
    <rect
       style="opacity:1;fill:#ffffff;stroke-width:5;stroke-linecap:round;stroke-linejoin:round"
       id="32x32"
       width="32"
       height="32"
       x="76"
       y="108" />
    <rect
       style="opacity:1;fill:#ffffff;stroke-width:5;stroke-linecap:round;stroke-linejoin:round"
       id="48x48"
       width="48"
       height="48"
       x="120"
       y="92" />
    <rect
       style="opacity:1;fill:#ffffff;stroke-width:5;stroke-linecap:round;stroke-linejoin:round"
       id="64x64"
       width="64"
       height="64"
       x="180"
       y="76" />
    <rect
       style="fill:#ffffff;stroke-width:10;stroke-linecap:round;stroke-linejoin:round"
       id="128x128"
       width="128"
       height="128"
       x="364"
       y="12" />
    <rect
       style="fill:#ffffff;stroke-width:7.5;stroke-linecap:round;stroke-linejoin:round"
       id="96x96"
       width="96"
       height="96"
       x="256"
       y="44" />
  </g>
  <g
     id="Shadow">
    <path
       id="path1607"
       style="color:#000000;opacity:0.2;fill:#000000;stroke:none;stroke-width:2.99982;stroke-linecap:round;stroke-linejoin:round;-inkscape-stroke:none"
       d="m 51.999999,119.5 c -0.554735,3.2e-4 -1.064002,0.30682 -1.324062,0.79688 l -8.499,14.99956 c -0.529716,0.99874 0.193642,2.20234 1.324063,2.20312 h 16.998 c 1.130421,-7.8e-4 1.853777,-1.20438 1.324062,-2.20312 l -8.498999,-14.99956 c -0.26006,-0.49006 -0.769327,-0.79656 -1.324064,-0.79688 z"
       sodipodi:nodetypes="cccccccc" />
    <path
       id="path3545"
       style="color:#000000;opacity:0.2;fill:#000000;stroke-width:3.99954;stroke-linecap:round;stroke-linejoin:round;-inkscape-stroke:none"
       d="m 92.000001,112.00006 c -0.744912,-1.8e-4 -1.428183,0.41379 -1.773035,1.07422 L 78.22969,135.07416 c -0.695029,1.33179 0.271062,2.92599 1.773036,2.92578 h 23.994544 c 1.50197,2.1e-4 2.46807,-1.59399 1.77304,-2.92578 L 93.773037,113.07428 c -0.344853,-0.66043 -1.028124,-1.0744 -1.773036,-1.07422 z"
       sodipodi:nodetypes="cccccccc" />
    <path
       d="m 144,98 c -1.10947,6.4e-4 -2.12801,0.61364 -2.64813,1.59376 l -16.998,31.00012 c -1.05943,1.99748 0.38729,4.40468 2.64813,4.40624 h 33.996 c 2.26084,-0.002 3.70756,-2.40876 2.64813,-4.40624 l -16.998,-31.00012 C 146.12801,98.61364 145.10947,98.00064 144,98 Z"
       style="color:#000000;opacity:0.2;fill:#000000;stroke:none;stroke-width:5.99964;stroke-linecap:round;stroke-linejoin:round;-inkscape-stroke:none"
       id="path3674"
       sodipodi:nodetypes="cccccccc" />
    <path
       d="m 212,83 c -1.48984,-3.6e-4 -2.85638,0.82758 -3.54608,2.14844 l -23.99454,43.9998 c -1.39006,2.66358 0.54212,5.85198 3.54606,5.85156 h 47.9891 c 3.00394,4.2e-4 4.93614,-3.18798 3.54608,-5.85156 L 215.54606,85.14844 C 214.85636,83.82758 213.48982,82.99964 212,83 Z"
       style="color:#000000;opacity:0.2;fill:#000000;stroke-width:7.99908;stroke-linecap:round;stroke-linejoin:round;-inkscape-stroke:none"
       id="path4081"
       sodipodi:nodetypes="cccccccc" />
    <path
       d="m 304.00001,54 c -2.23476,-5.4e-4 -4.28457,1.241372 -5.31912,3.222662 l -35.99181,65.999708 c -2.08509,3.99537 0.81318,8.77797 5.31909,8.77734 h 71.98365 c 4.5059,6.3e-4 7.4042,-4.78197 5.31912,-8.77734 L 309.3191,57.222662 C 308.28455,55.241372 306.23474,53.99946 304.00001,54 Z"
       style="color:#000000;opacity:0.2;fill:#000000;stroke-width:11.9986;stroke-linecap:round;stroke-linejoin:round;-inkscape-stroke:none"
       id="path4252" />
    <path
       d="m 428.00001,25 c -2.97968,-7.2e-4 -5.71276,1.65516 -7.09216,4.29688 l -47.98909,87.99959 c -2.78012,5.3272 1.08424,11.704 7.09212,11.70316 h 95.97822 c 6.00788,8.4e-4 9.87224,-6.37596 7.09216,-11.70316 L 435.09213,29.29688 C 433.71273,26.65516 430.97965,24.99928 428.00001,25 Z"
       style="color:#000000;fill:#000000;stroke:none;stroke-width:15.9982;stroke-linecap:round;stroke-linejoin:round;-inkscape-stroke:none;opacity:0.2"
       id="path4472" />
  </g>
  <g
     id="Background">
    <path
       id="path1047"
       style="color:#000000;fill:#ffa800;stroke-width:2;stroke-linecap:round;stroke-linejoin:round;stroke-dasharray:none;fill-opacity:1"
       d="m 20,124 a 1.0000256,1.0001 0 0 0 -0.880794,0.52539 l -6.999479,13 A 1.0000256,1.0001 0 0 0 13.000521,139 h 13.998958 a 1.0000256,1.0001 0 0 0 0.880793,-1.47461 l -6.999479,-13 A 1.0000256,1.0001 0 0 0 20,124 Z" />
    <path
       d="m 51.999999,119 c -0.554735,3.2e-4 -1.064002,0.30682 -1.324062,0.79688 l -8.499,14.99956 c -0.529716,0.99874 0.193642,2.20234 1.324063,2.20312 h 16.998 c 1.130421,-7.8e-4 1.853777,-1.20438 1.324062,-2.20312 L 53.324063,119.79688 C 53.064003,119.30682 52.554736,119.00032 51.999999,119 Z"
       style="color:#000000;fill:#ffa800;stroke:none;stroke-width:2.99982;stroke-linecap:round;stroke-linejoin:round;-inkscape-stroke:none"
       id="path1640"
       sodipodi:nodetypes="cccccccc" />
    <path
       d="m 91.999999,111.00006 c -0.744912,-1.8e-4 -1.428182,0.41379 -1.773034,1.07422 L 78.22969,134.07416 c -0.695029,1.33179 0.271062,2.92599 1.773035,2.92578 h 23.994545 c 1.50197,2.1e-4 2.46806,-1.59399 1.77304,-2.92578 L 93.773035,112.07428 c -0.344852,-0.66043 -1.028123,-1.0744 -1.773036,-1.07422 z"
       style="color:#000000;fill:#ffa800;stroke:none;stroke-width:3.99954;stroke-linecap:round;stroke-linejoin:round;-inkscape-stroke:none"
       id="path3560"
       sodipodi:nodetypes="cccccccc" />
    <path
       d="m 144,97 c -1.10947,6.4e-4 -2.12801,0.61364 -2.64813,1.59376 l -16.998,31.00012 c -1.05943,1.99748 0.38729,4.40468 2.64813,4.40624 h 33.996 c 2.26084,-0.002 3.70756,-2.40876 2.64813,-4.40624 l -16.998,-31.00012 C 146.12801,97.61364 145.10947,97.00064 144,97 Z"
       style="color:#000000;fill:#ffa800;stroke:none;stroke-width:5.99964;stroke-linecap:round;stroke-linejoin:round;-inkscape-stroke:none"
       id="path3646"
       sodipodi:nodetypes="cccccccc" />
    <path
       d="m 212,82 c -1.48984,-3.6e-4 -2.85638,0.82758 -3.54608,2.14844 l -23.99454,43.99978 c -1.39006,2.6636 0.54212,5.852 3.54606,5.85158 h 47.9891 c 3.00394,4.2e-4 4.93612,-3.18798 3.54608,-5.85158 L 215.54606,84.14844 C 214.85636,82.82758 213.48982,81.99964 212,82 Z"
       style="color:#000000;fill:#ffa800;stroke:none;stroke-width:7.99908;stroke-linecap:round;stroke-linejoin:round;-inkscape-stroke:none"
       id="path4053"
       sodipodi:nodetypes="cccccccc" />
    <path
       d="m 304.00001,53.000133 c -2.23476,-5.4e-4 -4.28457,1.24137 -5.31912,3.222662 L 262.68907,122.2225 c -2.08509,3.9954 0.81318,8.778 5.31909,8.77737 h 71.98366 c 4.50591,6.3e-4 7.40418,-4.78197 5.31912,-8.77737 L 309.3191,56.222795 c -1.03455,-1.981292 -3.08436,-3.223202 -5.31909,-3.222662 z"
       style="color:#000000;fill:#ffa800;stroke:none;stroke-width:11.9986;stroke-linecap:round;stroke-linejoin:round;-inkscape-stroke:none"
       id="path4224"
       sodipodi:nodetypes="cccccccc" />
    <path
       d="m 428.00001,24.000187 c -2.97968,-7.2e-4 -5.71276,1.65516 -7.09216,4.296883 l -47.98909,87.99958 c -2.78012,5.3272 1.08424,11.704 7.09212,11.70316 h 95.97822 c 6.00788,8.4e-4 9.87224,-6.37596 7.09216,-11.70316 L 435.09213,28.29707 c -1.3794,-2.641723 -4.11248,-4.297603 -7.09212,-4.296883 z"
       style="color:#000000;fill:#ffa800;stroke:none;stroke-width:15.9982;stroke-linecap:round;stroke-linejoin:round;-inkscape-stroke:none"
       id="path4444"
       sodipodi:nodetypes="cccccccc" />
  </g>
  <g
     id="Symbols"
     inkscape:label="Symbols">
    <path
       id="rect1823"
       style="opacity:1;fill:#634200;fill-opacity:1;stroke:none;stroke-width:3;stroke-linecap:round;stroke-linejoin:round;stroke-dasharray:none;stroke-opacity:1"
       d="m 19,127 v 6 h 2 v -6 z m 0,8 v 2 h 2 v -2 z"
       sodipodi:nodetypes="cccccccccc" />
    <path
       d="m 51,124.5 v 7 h 2 v -7 z m 1,9 c -0.552285,0 -1,0.44772 -1,1 0,0.55228 0.447715,1 1,1 0.552285,0 1,-0.44772 1,-1 0,-0.55228 -0.447715,-1 -1,-1 z"
       style="opacity:0.2;fill:#000000;fill-opacity:1;stroke:none;stroke-width:3;stroke-linecap:round;stroke-linejoin:round;stroke-dasharray:none;stroke-opacity:1"
       id="path3027"
       sodipodi:nodetypes="cccccsssss" />
    <path
       id="path2944"
       style="fill:#634200;fill-opacity:1;stroke:none;stroke-width:3;stroke-linecap:round;stroke-linejoin:round;stroke-dasharray:none;stroke-opacity:1"
       d="m 51,124 v 7 h 2 v -7 z m 1,9 c -0.552285,0 -1,0.44772 -1,1 0,0.55228 0.447715,1 1,1 0.552285,0 1,-0.44772 1,-1 0,-0.55228 -0.447715,-1 -1,-1 z"
       sodipodi:nodetypes="cccccsssss" />
    <path
       d="m 91,119.00006 v 11.00005 h 2 v -11.00005 z m 1,13.00005 c -0.552285,0 -1,0.44772 -1,1 0,0.55228 0.447715,1 1,1 0.552285,0 1,-0.44772 1,-1 0,-0.55228 -0.447715,-1 -1,-1 z"
       style="opacity:0.2;fill:#000000;fill-opacity:1;stroke:none;stroke-width:3;stroke-linecap:round;stroke-linejoin:round;stroke-dasharray:none;stroke-opacity:1"
       id="path4025"
       sodipodi:nodetypes="cccccsssss" />
    <path
       d="m 91,118 v 11.00005 h 2 V 118 Z m 1,13.00005 c -0.552285,0 -1,0.44772 -1,1 0,0.55228 0.447715,1 1,1 0.552285,0 1,-0.44772 1,-1 0,-0.55228 -0.447715,-1 -1,-1 z"
       style="fill:#634200;fill-opacity:1;stroke:none;stroke-width:3;stroke-linecap:round;stroke-linejoin:round;stroke-dasharray:none;stroke-opacity:1"
       id="path3997"
       sodipodi:nodetypes="cccccsssss" />
    <path
       d="m 142,107 v 16 h 4 v -16 z m 2,20 c -1.10457,0 -2,0.89544 -2,2 0,1.10456 0.89543,2 2,2 1.10457,0 2,-0.89544 2,-2 0,-1.10456 -0.89543,-2 -2,-2 z"
       style="opacity:0.2;fill:#000000;fill-opacity:1;stroke:none;stroke-width:6;stroke-linecap:round;stroke-linejoin:round;stroke-dasharray:none;stroke-opacity:1"
       id="path3800"
       sodipodi:nodetypes="cccccsssss" />
    <path
       d="m 142,106 v 16 h 4 v -16 z m 2,20 c -1.10457,0 -2,0.89544 -2,2 0,1.10456 0.89543,2 2,2 1.10457,0 2,-0.89544 2,-2 0,-1.10456 -0.89543,-2 -2,-2 z"
       style="fill:#634200;fill-opacity:1;stroke:none;stroke-width:6;stroke-linecap:round;stroke-linejoin:round;stroke-dasharray:none;stroke-opacity:1"
       id="path3772"
       sodipodi:nodetypes="cccccsssss" />
    <path
       d="m 208.99999,95 v 23 h 6 V 95 Z m 3,28 c -1.65686,0 -3,1.34315 -3,3 0,1.65683 1.34314,3 3,3 1.65685,0 3,-1.34317 3,-3 0,-1.65685 -1.34315,-3 -3,-3 z"
       style="opacity:0.1;fill:#000000;fill-opacity:1;stroke:none;stroke-width:9;stroke-linecap:round;stroke-linejoin:round;stroke-dasharray:none;stroke-opacity:1"
       id="path4196"
       sodipodi:nodetypes="cccccsssss" />
    <path
       d="m 208.99999,94 v 23 h 6 V 94 Z m 3,28 c -1.65686,0 -3,1.34315 -3,3 0,1.65683 1.34314,3 3,3 1.65685,0 3,-1.34317 3,-3 0,-1.65685 -1.34315,-3 -3,-3 z"
       style="fill:#634200;fill-opacity:1;stroke:none;stroke-width:9;stroke-linecap:round;stroke-linejoin:round;stroke-dasharray:none;stroke-opacity:1"
       id="path4168"
       sodipodi:nodetypes="cccccsssss" />
    <path
       d="m 299.99999,70 v 36.00001 h 8 V 70 Z m 4,44.00001 c -2.20914,0 -4,1.79088 -4,4 0,2.20912 1.79086,4 4,4 2.20914,0 4,-1.79088 4,-4 0,-2.20912 -1.79086,-4 -4,-4 z"
       style="opacity:0.2;fill:#000000;fill-opacity:1;stroke:none;stroke-width:12;stroke-linecap:round;stroke-linejoin:round;stroke-dasharray:none;stroke-opacity:1"
       id="path4364" />
    <path
       d="m 299.99999,68.999868 v 36.000002 h 8 V 68.999868 Z m 4,44.000002 c -2.20914,0 -4,1.79088 -4,4 0,2.20912 1.79086,4 4,4 2.20914,0 4,-1.79088 4,-4 0,-2.20912 -1.79086,-4 -4,-4 z"
       style="fill:#634200;fill-opacity:1;stroke:none;stroke-width:12;stroke-linecap:round;stroke-linejoin:round;stroke-dasharray:none;stroke-opacity:1"
       id="path4336"
       sodipodi:nodetypes="cccccsssss" />
    <path
       d="m 422,49 v 46.00001 h 12 V 49 Z m 6,56.00001 c -3.31372,0 -6,2.6863 -6,6 0,3.31366 2.68628,6 6,6 3.3137,0 6,-2.68634 6,-6 0,-3.3137 -2.6863,-6 -6,-6 z"
       style="fill:#000000;fill-opacity:1;stroke:none;stroke-width:18;stroke-linecap:round;stroke-linejoin:round;stroke-dasharray:none;stroke-opacity:1;opacity:0.2"
       id="path4584" />
    <path
       d="M 422,47.999998 V 94 h 12 V 47.999998 Z M 428,104 c -3.31372,0 -6,2.6863 -6,6 0,3.31366 2.68628,6 6,6 3.3137,0 6,-2.68634 6,-6 0,-3.3137 -2.6863,-6 -6,-6 z"
       style="fill:#634200;fill-opacity:1;stroke:none;stroke-width:18;stroke-linecap:round;stroke-linejoin:round;stroke-dasharray:none;stroke-opacity:1"
       id="path4556"
       sodipodi:nodetypes="cccccsssss" />
  </g>
  <g
     id="Highlights">
    <path
       id="path1723"
       style="color:#000000;opacity:0.2;fill:#ffffff;stroke:none;stroke-width:2.99982;stroke-linecap:round;stroke-linejoin:round;-inkscape-stroke:none"
       d="m 52,119 c -0.554734,3.2e-4 -1.064159,0.30682 -1.324219,0.79688 l -8.498047,14.99956 c -0.16695,0.31477 -0.2098,0.64953 -0.154296,0.96093 0.02578,-0.15516 0.07438,-0.31026 0.154296,-0.46093 l 8.498047,-14.99956 C 50.935841,119.80682 51.445266,119.50032 52,119.5 c 0.554736,3.2e-4 1.064159,0.30682 1.324219,0.79688 l 8.498047,14.99956 c 0.07991,0.15067 0.128516,0.30577 0.154296,0.46093 0.0555,-0.3114 0.01265,-0.64616 -0.154296,-0.96093 L 53.324219,119.79688 C 53.064159,119.30682 52.554736,119.00032 52,119 Z"
       sodipodi:nodetypes="ccccccccccccc" />
    <path
       id="path3590"
       style="color:#000000;opacity:0.2;fill:#ffffff;stroke:none;stroke-width:3.99954;stroke-linecap:round;stroke-linejoin:round;-inkscape-stroke:none"
       d="m 92,111.00006 c -0.744911,-1.8e-4 -1.428586,0.41379 -1.773438,1.07422 l -11.996093,21.99988 c -0.245194,0.46983 -0.280981,0.97216 -0.16211,1.42578 0.03765,-0.14345 0.08914,-0.28596 0.16211,-0.42578 l 11.996093,-21.99988 c 0.344851,-0.66043 1.028527,-1.0744 1.773438,-1.07422 0.744912,-1.8e-4 1.428587,0.41379 1.773438,1.07422 l 11.996092,21.99988 c 0.073,0.13982 0.12446,0.28233 0.16211,0.42578 0.11887,-0.45362 0.0831,-0.95595 -0.16211,-1.42578 L 93.773438,112.07428 C 93.428586,111.41385 92.744912,110.99988 92,111.00006 Z"
       sodipodi:nodetypes="ccccccccccccc" />
    <path
       d="m 144,97 c -1.10947,6.4e-4 -2.12832,0.61364 -2.64844,1.59376 l -16.99609,31.00012 c -0.3339,0.62954 -0.4196,1.29906 -0.30859,1.92186 0.0516,-0.31032 0.14876,-0.62052 0.30859,-0.92186 L 141.35156,99.59376 C 141.87168,98.61364 142.89053,98.00064 144,98 c 1.10947,6.4e-4 2.12832,0.61364 2.64844,1.59376 l 16.99609,31.00012 c 0.15982,0.30134 0.25704,0.61154 0.3086,0.92186 0.111,-0.6228 0.0253,-1.29232 -0.3086,-1.92186 L 146.64844,98.59376 C 146.12832,97.61364 145.10947,97.00064 144,97 Z"
       style="color:#000000;opacity:0.2;fill:#ffffff;stroke:none;stroke-width:5.99964;stroke-linecap:round;stroke-linejoin:round;-inkscape-stroke:none"
       id="path3702"
       sodipodi:nodetypes="ccccccccccccc" />
    <path
       id="path4109"
       style="color:#000000;opacity:0.2;fill:#ffffff;stroke:none;stroke-width:7.99908;stroke-linecap:round;stroke-linejoin:round;-inkscape-stroke:none"
       d="M 212 82 C 210.51018 81.99964 209.14282 82.827579 208.45312 84.148438 L 184.46094 128.14844 C 184.06464 128.90778 183.95199 129.70632 184.04492 130.46484 C 184.10553 130.02266 184.23435 129.57888 184.45898 129.14844 L 208.45312 85.148438 C 209.14282 83.827579 210.51016 82.99964 212 83 C 213.48982 82.99964 214.85718 83.827579 215.54688 85.148438 L 239.54102 129.14844 C 239.76565 129.57888 239.89447 130.02266 239.95508 130.46484 C 240.04801 129.70632 239.93537 128.90778 239.53906 128.14844 L 215.54688 84.148438 C 214.85716 82.827579 213.48982 81.99964 212 82 z " />
    <path
       id="path4280"
       style="color:#000000;fill:#ffffff;stroke:none;stroke-width:11.9986;stroke-linecap:round;stroke-linejoin:round;-inkscape-stroke:none;opacity:0.2"
       d="M 304 53 C 301.76524 52.99946 299.71619 54.241366 298.68164 56.222656 L 262.68945 122.22266 C 262.13697 123.28131 261.94288 124.39342 262.02734 125.45898 C 262.09594 124.70961 262.30807 123.95344 262.68945 123.22266 L 298.68164 57.222656 C 299.71619 55.241366 301.76524 53.99946 304 54 C 306.23473 53.99946 308.2838 55.241366 309.31836 57.222656 L 345.31055 123.22266 C 345.69192 123.95344 345.90406 124.70961 345.97266 125.45898 C 346.05713 124.39342 345.86302 123.28131 345.31055 122.22266 L 309.31836 56.222656 C 308.28381 54.241366 306.23473 52.99946 304 53 z " />
    <path
       id="path4500"
       style="color:#000000;fill:#ffffff;stroke:none;stroke-width:15.9982;stroke-linecap:round;stroke-linejoin:round;-inkscape-stroke:none;opacity:0.2"
       d="M 428 24 C 425.02032 23.99928 422.2876 25.655155 420.9082 28.296875 L 372.91797 116.29688 C 372.20185 117.66908 371.93476 119.10959 372.02344 120.49414 C 372.09169 119.4252 372.37302 118.3411 372.91797 117.29688 L 420.9082 29.296875 C 422.2876 26.655155 425.02032 24.99928 428 25 C 430.97964 24.99928 433.7124 26.655155 435.0918 29.296875 L 483.08203 117.29688 C 483.62697 118.3411 483.90832 119.4252 483.97656 120.49414 C 484.06525 119.10959 483.79814 117.66908 483.08203 116.29688 L 435.0918 28.296875 C 433.7124 25.655155 430.97964 23.99928 428 24 z " />
  </g>
</svg>
