<?xml version="1.0" encoding="UTF-8" standalone="no"?>
<!-- Created with Inkscape (http://www.inkscape.org/) -->

<svg
   width="480"
   height="300"
   viewBox="0 0 480 300"
   version="1.1"
   id="svg5"
   inkscape:version="1.2.2 (1:1.2.2+202305151914+b0a8486541)"
   sodipodi:docname="2048.svg"
   xmlns:inkscape="http://www.inkscape.org/namespaces/inkscape"
   xmlns:sodipodi="http://sodipodi.sourceforge.net/DTD/sodipodi-0.dtd"
   xmlns="http://www.w3.org/2000/svg"
   xmlns:svg="http://www.w3.org/2000/svg">
  <sodipodi:namedview
     id="namedview7"
     pagecolor="#888888"
     bordercolor="#000000"
     borderopacity="0.25"
     inkscape:showpageshadow="true"
     inkscape:pageopacity="0"
     inkscape:pagecheckerboard="0"
     inkscape:deskcolor="#888888"
     inkscape:document-units="px"
     showgrid="false"
     showborder="false"
     inkscape:zoom="2.6866667"
     inkscape:cx="240.07444"
     inkscape:cy="150"
     inkscape:window-width="1920"
     inkscape:window-height="1008"
     inkscape:window-x="0"
     inkscape:window-y="0"
     inkscape:window-maximized="1"
     inkscape:current-layer="svg5" />
  <defs
     id="defs2" />
  <g
     id="Baseplate"
     style="display:none">
    <text
       y="19.774782"
       xml:space="preserve"
       x="15.006946"
       style="font-style:normal;font-variant:normal;font-weight:normal;font-stretch:normal;line-height:0%;font-family:'DejaVu Sans';-inkscape-font-specification:'DejaVu Sans';display:inline;fill:#000000;fill-opacity:1;stroke:none;enable-background:new"
       inkscape:label="context"
       id="context"><tspan
         style="font-style:normal;font-variant:normal;font-weight:normal;font-stretch:normal;font-size:18px;line-height:1.25;font-family:'DejaVu Sans';-inkscape-font-specification:'DejaVu Sans'"
         y="19.774782"
         x="15.006946"
         sodipodi:role="line"
         id="tspan3933">apps</tspan></text>
    <text
       y="19.774782"
       xml:space="preserve"
       x="122.48839"
       style="font-style:normal;font-variant:normal;font-weight:bold;font-stretch:normal;line-height:0%;font-family:'DejaVu Sans';-inkscape-font-specification:'DejaVu Sans Bold';text-align:start;writing-mode:lr-tb;text-anchor:start;display:inline;fill:#000000;fill-opacity:1;stroke:none;enable-background:new"
       inkscape:label="icon-name"
       id="icon-name"><tspan
         style="font-style:normal;font-variant:normal;font-weight:bold;font-stretch:normal;font-size:18px;line-height:1.25;font-family:'DejaVu Sans';-inkscape-font-specification:'DejaVu Sans Bold'"
         y="19.774782"
         x="122.48839"
         sodipodi:role="line"
         id="tspan3937">2048</tspan></text>
    <rect
       style="fill:#ffffff"
       id="256x256"
       width="256"
       height="256"
       x="16"
       y="28" />
    <rect
       style="fill:#ffffff"
       id="96x96"
       width="96"
       height="96"
       x="288"
       y="28" />
    <rect
       style="fill:#ffffff"
       id="64x64"
       width="64"
       height="64"
       x="288"
       y="140" />
    <rect
       style="fill:#ffffff"
       id="48x48"
       width="48"
       height="48"
       x="288"
       y="220" />
    <rect
       style="fill:#ffffff"
       id="32x32"
       width="32"
       height="32"
       x="416"
       y="52" />
    <rect
       style="fill:#ffffff"
       id="24x24"
       width="24"
       height="24"
       x="416"
       y="100" />
    <rect
       style="fill:#ffffff"
       id="22x22"
       width="22"
       height="22"
       x="417"
       y="101" />
    <rect
       style="fill:#ffffff"
       id="16x16"
       width="16"
       height="16"
       x="416"
       y="140" />
  </g>
  <g
     id="Shadow">
    <rect
       style="opacity:0.2;fill:#000000"
       id="rect651"
       width="224"
       height="224"
       x="32"
       y="46"
       ry="48" />
    <rect
       style="opacity:0.2;fill:#000000"
       id="rect769"
       width="84"
       height="85"
       x="294"
       y="34"
       ry="18" />
    <rect
       style="opacity:0.2;fill:#000000;fill-opacity:1"
       id="rect1131"
       width="56"
       height="56"
       x="292"
       y="145"
       ry="12" />
    <rect
       style="opacity:0.2;fill:#000000;fill-opacity:1"
       id="rect1261"
       width="42"
       height="42"
       x="291"
       y="224"
       ry="9" />
    <rect
       style="opacity:0.2;fill:#000000;fill-opacity:1"
       id="rect1364"
       width="28"
       height="29"
       x="418"
       y="54"
       ry="6" />
    <rect
       style="opacity:0.2;fill:#000000;fill-opacity:1"
       id="rect1398"
       width="16"
       height="16"
       x="416"
       y="141"
       ry="4" />
    <rect
       style="opacity:0.2;fill:#000000;fill-opacity:1"
       id="rect1432"
       width="20"
       height="20"
       x="418"
       y="103"
       ry="4" />
  </g>
  <g
     id="Background">
    <rect
       style="fill:#f9a825;fill-opacity:1"
       id="rect597"
       width="224"
       height="224"
       x="32"
       y="44"
       ry="48" />
    <rect
       style="opacity:1;fill:#f9a825;fill-opacity:1"
       id="rect771"
       width="84"
       height="84"
       x="294"
       y="34"
       ry="18" />
    <rect
       style="opacity:1;fill:#f9a825;fill-opacity:1"
       id="rect1133"
       width="56"
       height="56"
       x="292"
       y="144"
       ry="12" />
    <rect
       style="opacity:1;fill:#f9a825;fill-opacity:1"
       id="rect1263"
       width="42"
       height="42"
       x="291"
       y="223"
       ry="9" />
    <rect
       style="opacity:1;fill:#f9a825;fill-opacity:1"
       id="rect1366"
       width="28"
       height="28"
       x="418"
       y="54"
       ry="6" />
    <rect
       style="opacity:1;fill:#f9a825;fill-opacity:1"
       id="rect1400"
       width="16"
       height="16"
       x="416"
       y="140"
       ry="4" />
    <rect
       style="opacity:1;fill:#f9a825;fill-opacity:1"
       id="rect1434"
       width="20"
       height="20"
       x="418"
       y="102"
       ry="4" />
  </g>
  <g
     id="g5224">
    <g
       id="g5464">
      <path
         d="m 425.49995,149.50003 c -0.82251,0 -1.5,0 -1.5,1.5 0,0.3843 0.25851,0.7333 0.5,1 -0.24149,0.2667 -0.5,0.6157 -0.5,1 0,1.5 0.67749,1.5 1.5,1.5 0.8225,0 1.5,0 1.5,-1.5 0,-0.3843 -0.25851,-0.7333 -0.5,-1 0.24149,-0.2667 0.5,-0.6157 0.5,-1 0,-1.5 -0.6775,-1.5 -1.5,-1.5 z m 0,1 c 0.28206,0 0.5,0.21795 0.5,0.5 0,0.28205 -0.21794,0.5 -0.5,0.5 -0.28207,0 -0.5,-0.21795 -0.5,-0.5 0,-0.28205 0.21793,-0.5 0.5,-0.5 z m 0,2 c 0.28206,0 0.5,0.21795 0.5,0.5 0,0.28205 -0.21794,0.5 -0.5,0.5 -0.28207,0 -0.5,-0.21795 -0.5,-0.5 0,-0.28205 0.21793,-0.5 0.5,-0.5 z m -4,-9 c 0,0 -0.35438,-0.007 -0.72364,0.17775 -0.36925,0.1846 -0.77636,0.6556 -0.77636,1.32225 h 1 c 0,-0.5 0.5,-0.5 0.5,-0.5 0,0 0.5,0 0.5,0.5 0,0.2639 -0.0698,0.41145 -0.20313,0.5781 -0.13332,0.1667 -0.34668,0.334 -0.59668,0.5215 -0.25,0.1875 -0.53664,0.3952 -0.77832,0.6973 -0.24167,0.30205 -0.42187,0.717 -0.42187,1.2031 v 0.5 h 3 v -1 h -1.82422 c 0.0156,-0.022 0.009,-0.0556 0.0273,-0.0781 0.13332,-0.1667 0.34668,-0.334 0.59668,-0.5215 0.25,-0.1875 0.53664,-0.3952 0.77832,-0.6973 0.24167,-0.30205 0.42187,-0.717 0.42187,-1.2031 0,-0.66665 -0.40711,-1.13765 -0.77636,-1.32225 -0.36927,-0.18465 -0.72364,-0.17775 -0.72364,-0.17775 z m 4.25,-2e-5 c -0.96085,0 -1.75,0.78915 -1.75,1.75 v 1.5 c 0,0.96085 0.78915,1.75 1.75,1.75 0.96085,0 1.75,-0.78915 1.75,-1.75 v -1.5 c 0,-0.96085 -0.78915,-1.75 -1.75,-1.75 z m 0,1 c 0.42415,0 0.75,0.32585 0.75,0.75 v 1.5 c 0,0.42415 -0.32585,0.75 -0.75,0.75 -0.42415,0 -0.75,-0.32585 -0.75,-0.75 v -1.5 c 0,-0.42415 0.32585,-0.75 0.75,-0.75 z m -4.75,5.00002 v 2 h 1 v -2 h 1 v 2 h 0.5 v 1 h -0.5 v 2 h -1 v -2 h -2 v -3 h 1 v 0"
         style="fill:#000000;opacity:0.2"
         id="path5442" />
      <path
         d="m 425.5,149.00003 c -0.82251,0 -1.5,0 -1.5,1.5 0,0.3843 0.25851,0.7333 0.5,1 -0.24149,0.2667 -0.5,0.6157 -0.5,1 0,1.5 0.67749,1.5 1.5,1.5 0.8225,0 1.5,0 1.5,-1.5 0,-0.3843 -0.25851,-0.7333 -0.5,-1 0.24149,-0.2667 0.5,-0.6157 0.5,-1 0,-1.5 -0.6775,-1.5 -1.5,-1.5 z m 0,1 c 0.28206,0 0.5,0.21795 0.5,0.5 0,0.28205 -0.21794,0.5 -0.5,0.5 -0.28207,0 -0.5,-0.21795 -0.5,-0.5 0,-0.28205 0.21793,-0.5 0.5,-0.5 z m 0,2 c 0.28206,0 0.5,0.21795 0.5,0.5 0,0.28205 -0.21794,0.5 -0.5,0.5 -0.28207,0 -0.5,-0.21795 -0.5,-0.5 0,-0.28205 0.21793,-0.5 0.5,-0.5 z m -4,-9 c 0,0 -0.35438,-0.007 -0.72364,0.17775 -0.36925,0.1846 -0.77636,0.6556 -0.77636,1.32225 h 1 c 0,-0.5 0.5,-0.5 0.5,-0.5 0,0 0.5,0 0.5,0.5 0,0.2639 -0.0698,0.41145 -0.20313,0.5781 -0.13332,0.1667 -0.34668,0.334 -0.59668,0.5215 -0.25,0.1875 -0.53664,0.3952 -0.77832,0.6973 -0.24167,0.30205 -0.42187,0.717 -0.42187,1.2031 v 0.5 h 3 v -1 h -1.82422 c 0.0156,-0.022 0.009,-0.0556 0.0273,-0.0781 0.13332,-0.1667 0.34668,-0.334 0.59668,-0.5215 0.25,-0.1875 0.53664,-0.3952 0.77832,-0.6973 0.24167,-0.30205 0.42187,-0.717 0.42187,-1.2031 0,-0.66665 -0.40711,-1.13765 -0.77636,-1.32225 -0.36927,-0.18465 -0.72364,-0.17775 -0.72364,-0.17775 z m 4.25,-2e-5 c -0.96085,0 -1.75,0.78915 -1.75,1.75 v 1.5 c 0,0.96085 0.78915,1.75 1.75,1.75 0.96085,0 1.75,-0.78915 1.75,-1.75 v -1.5 c 0,-0.96085 -0.78915,-1.75 -1.75,-1.75 z m 0,1 c 0.42415,0 0.75,0.32585 0.75,0.75 v 1.5 c 0,0.42415 -0.32585,0.75 -0.75,0.75 -0.42415,0 -0.75,-0.32585 -0.75,-0.75 v -1.5 c 0,-0.42415 0.32585,-0.75 0.75,-0.75 z m -4.75,5.00002 v 2 h 1 v -2 h 1 v 2 h 0.5 v 1 H 423 v 2 h -1 v -2 h -2 v -3 h 1 v 0"
         style="fill:#ffffff"
         id="path5414"
         sodipodi:nodetypes="sscssscsssssssssssscccccssssscccccssssccsssssssssssssscccccccccccccccc" />
    </g>
    <g
       id="g5719">
      <path
         d="m 421.5,109.50003 c 0,0 -0.35438,-0.007 -0.72364,0.17775 -0.36925,0.1846 -0.77636,0.6556 -0.77636,1.32225 h 1 c 0,-0.5 0.5,-0.5 0.5,-0.5 0,0 0.5,0 0.5,0.5 0,0.2639 -0.0698,0.41145 -0.20313,0.5781 -0.13332,0.16671 -0.34668,0.334 -0.59668,0.5215 -0.25,0.1875 -0.53664,0.39521 -0.77832,0.6973 -0.24167,0.30205 -0.42187,0.717 -0.42187,1.20311 v 0.5 h 3 v -1 h -1.82422 c 0.0156,-0.022 0.009,-0.0556 0.0274,-0.0781 0.13332,-0.1667 0.34668,-0.334 0.59668,-0.5215 0.25,-0.1875 0.53664,-0.3952 0.77832,-0.6973 0.24167,-0.30204 0.42187,-0.717 0.42187,-1.2031 0,-0.66665 -0.40711,-1.13765 -0.77636,-1.32225 -0.36927,-0.18465 -0.72364,-0.17775 -0.72364,-0.17775 z m 7.5,-2e-5 v 2 h 1 v -2 h 1 v 2 h 0.5 v 1 H 431 v 2 h -1 v -2 h -2 v -3 h 1 v 0 m -3.25,0 c -0.96085,0 -1.75,0.78915 -1.75,1.75 v 1.5 c 0,0.96085 0.78915,1.75 1.75,1.75 0.96085,0 1.75,-0.78915 1.75,-1.75 v -1.5 c 0,-0.96085 -0.78915,-1.75 -1.75,-1.75 z m 0,1 c 0.42415,0 0.75,0.32585 0.75,0.75 v 1.5 c 0,0.42415 -0.32585,0.75 -0.75,0.75 -0.42415,0 -0.75,-0.32585 -0.75,-0.75 v -1.5 c 0,-0.42415 0.32585,-0.75 0.75,-0.75 z m 7.75,-1 c -0.82251,0 -1.5,0 -1.5,1.5 0,0.3843 0.25851,0.7333 0.5,1 -0.24149,0.2667 -0.5,0.6157 -0.5,1 0,1.5 0.67749,1.5 1.5,1.5 0.8225,0 1.5,0 1.5,-1.5 0,-0.3843 -0.25851,-0.7333 -0.5,-1 0.24149,-0.2667 0.5,-0.6157 0.5,-1 0,-1.5 -0.6775,-1.5 -1.5,-1.5 z m 0,1 c 0.28206,0 0.5,0.21795 0.5,0.5 0,0.28205 -0.21794,0.5 -0.5,0.5 -0.28207,0 -0.5,-0.21795 -0.5,-0.5 0,-0.28205 0.21793,-0.5 0.5,-0.5 z m 0,2 c 0.28206,0 0.5,0.21795 0.5,0.5 0,0.28205 -0.21794,0.5 -0.5,0.5 -0.28207,0 -0.5,-0.21795 -0.5,-0.5 0,-0.28205 0.21793,-0.5 0.5,-0.5 z"
         style="fill:#000000;opacity:0.2"
         id="path5697" />
      <path
         d="m 421.5,109.00003 c 0,0 -0.35438,-0.007 -0.72364,0.17775 -0.36925,0.1846 -0.77636,0.6556 -0.77636,1.32225 h 1 c 0,-0.5 0.5,-0.5 0.5,-0.5 0,0 0.5,0 0.5,0.5 0,0.2639 -0.0698,0.41145 -0.20313,0.5781 -0.13332,0.1667 -0.34668,0.334 -0.59668,0.5215 -0.25,0.1875 -0.53664,0.3952 -0.77832,0.6973 -0.24167,0.30205 -0.42187,0.717 -0.42187,1.2031 v 0.5 h 3 v -1 h -1.82422 c 0.0156,-0.022 0.009,-0.0556 0.0274,-0.0781 0.13332,-0.1667 0.34668,-0.334 0.59668,-0.5215 0.25,-0.1875 0.53664,-0.3952 0.77832,-0.6973 0.24167,-0.30205 0.42187,-0.717 0.42187,-1.2031 0,-0.66665 -0.40711,-1.13765 -0.77636,-1.32225 -0.36927,-0.18465 -0.72364,-0.17775 -0.72364,-0.17775 z m 7.5,-2e-5 v 2 h 1 v -2 h 1 v 2 h 0.5 v 1 H 431 v 2 h -1 v -2 h -2 v -3 h 1 v 0 m -3.25,0 c -0.96085,0 -1.75,0.78915 -1.75,1.75 v 1.5 c 0,0.96085 0.78915,1.75 1.75,1.75 0.96085,0 1.75,-0.78915 1.75,-1.75 v -1.5 c 0,-0.96085 -0.78915,-1.75 -1.75,-1.75 z m 0,1 c 0.42415,0 0.75,0.32585 0.75,0.75 v 1.5 c 0,0.42415 -0.32585,0.75 -0.75,0.75 -0.42415,0 -0.75,-0.32585 -0.75,-0.75 v -1.5 c 0,-0.42415 0.32585,-0.75 0.75,-0.75 z m 7.75,-1 c -0.82251,0 -1.5,0 -1.5,1.5 0,0.3843 0.25851,0.7333 0.5,1 -0.24149,0.2667 -0.5,0.6157 -0.5,1 0,1.5 0.67749,1.5 1.5,1.5 0.8225,0 1.5,0 1.5,-1.5 0,-0.3843 -0.25851,-0.7333 -0.5,-1 0.24149,-0.2667 0.5,-0.6157 0.5,-1 0,-1.5 -0.6775,-1.5 -1.5,-1.5 z m 0,1 c 0.28206,0 0.5,0.21795 0.5,0.5 0,0.28205 -0.21794,0.5 -0.5,0.5 -0.28207,0 -0.5,-0.21795 -0.5,-0.5 0,-0.28205 0.21793,-0.5 0.5,-0.5 z m 0,2 c 0.28206,0 0.5,0.21795 0.5,0.5 0,0.28205 -0.21794,0.5 -0.5,0.5 -0.28207,0 -0.5,-0.21795 -0.5,-0.5 0,-0.28205 0.21793,-0.5 0.5,-0.5 z"
         style="fill:#ffffff"
         id="path5669"
         sodipodi:nodetypes="cccccssssscccccssssccccccccccccccccccsssssssssssssssscssscssssssssssss" />
    </g>
    <g
       id="g6137">
      <path
         d="m 439,65 c -1.09934,0 -2,0.900609 -2,2 0,0.599066 0.27306,1.132537 0.69434,1.5 C 437.27306,68.867463 437,69.400933 437,70 c 0,1.099391 0.90066,2 2,2 1.09934,0 2,-0.900609 2,-2 0,-0.599067 -0.27306,-1.132537 -0.69434,-1.5 C 440.72694,68.132537 441,67.599066 441,67 c 0,-1.099391 -0.90066,-2 -2,-2 z m 0,1 c 0.56264,0 1,0.437405 1,1 0,0.562596 -0.43736,1 -1,1 -0.56265,0 -1,-0.437404 -1,-1 0,-0.562595 0.43735,-1 1,-1 z m 0,3 c 0.56264,0 1,0.437404 1,1 0,0.562596 -0.43736,1 -1,1 -0.56265,0 -1,-0.437404 -1,-1 0,-0.562596 0.43735,-1 1,-1 z m -15.00002,-3.999945 c 0,0 -0.47939,-0.01 -0.97359,0.240198 C 422.5321,65.487451 422,66.083346 422,67.000039 h 0.99999 c 0,-0.999992 0.99999,-0.999992 0.99999,-0.999992 0,0 1,0 1,0.999992 0,0.374997 -0.1275,0.657195 -0.3625,0.957493 -0.2351,0.300298 -0.5826,0.595795 -0.95759,0.908292 -0.375,0.312498 -0.7775,0.641995 -1.10489,1.060492 C 422.2475,70.344713 422,70.875009 422,71.500004 V 72 h 3.99997 v -0.999992 h -2.90878 c 0.061,-0.157399 0.1522,-0.305298 0.2714,-0.457497 0.235,-0.300297 0.58249,-0.595795 0.95749,-0.908293 0.375,-0.312497 0.7775,-0.641995 1.10499,-1.060491 0.3274,-0.418397 0.5749,-0.948693 0.5749,-1.573688 0,-0.916693 -0.5321,-1.512588 -1.02639,-1.759786 -0.4942,-0.247098 -0.9736,-0.240198 -0.9736,-0.240198 z m 5,0 c -1.09934,0 -1.99998,0.900593 -1.99998,1.999984 v 2.999976 C 427,71.099407 427.90064,72 428.99998,72 c 1.09935,0 1.99999,-0.900593 1.99999,-1.999985 v -2.999976 c 0,-1.099391 -0.90064,-1.999984 -1.99999,-1.999984 z m 0,0.999992 c 0.56265,0 1,0.437397 1,0.999992 v 2.999976 c 0,0.562696 -0.43735,0.999993 -1,0.999993 -0.56264,0 -0.99999,-0.437296 -0.99999,-0.999993 v -2.999976 c 0,-0.562595 0.43735,-0.999992 0.99999,-0.999992 z m 4.00001,-0.999992 v 2.999976 h 1.99999 v -2.999976 h 0.99999 V 72 h -0.99999 V 69.000023 H 432 v -3.999968 h 0.99999 v 0"
         style="fill:#000000;opacity:0.2"
         id="path5955" />
      <path
         d="m 439,64 c -1.09934,0 -2,0.900609 -2,2 0,0.599066 0.27306,1.132537 0.69434,1.5 C 437.27306,67.867463 437,68.400933 437,69 c 0,1.099391 0.90066,2 2,2 1.09934,0 2,-0.900609 2,-2 0,-0.599067 -0.27306,-1.132537 -0.69434,-1.5 C 440.72694,67.132537 441,66.599066 441,66 c 0,-1.099391 -0.90066,-2 -2,-2 z m 0,1 c 0.56264,0 1,0.437405 1,1 0,0.562596 -0.43736,1 -1,1 -0.56265,0 -1,-0.437404 -1,-1 0,-0.562595 0.43735,-1 1,-1 z m 0,3 c 0.56264,0 1,0.437404 1,1 0,0.562596 -0.43736,1 -1,1 -0.56265,0 -1,-0.437404 -1,-1 0,-0.562596 0.43735,-1 1,-1 z m -15.00002,-3.999945 c 0,0 -0.47939,-0.01 -0.97359,0.240198 C 422.5321,64.487451 422,65.083346 422,66.000039 h 0.99999 c 0,-0.999992 0.99999,-0.999992 0.99999,-0.999992 0,0 1,0 1,0.999992 0,0.374997 -0.1275,0.657195 -0.3625,0.957493 -0.2351,0.300298 -0.5826,0.595795 -0.95759,0.908292 -0.375,0.312498 -0.7775,0.641995 -1.10489,1.060492 C 422.2475,69.344713 422,69.875009 422,70.500004 V 71 h 3.99997 v -0.999992 h -2.90878 c 0.061,-0.157399 0.1522,-0.305298 0.2714,-0.457497 0.235,-0.300297 0.58249,-0.595795 0.95749,-0.908293 0.375,-0.312497 0.7775,-0.641995 1.10499,-1.060491 0.3274,-0.418397 0.5749,-0.948693 0.5749,-1.573688 0,-0.916693 -0.5321,-1.512588 -1.02639,-1.759786 -0.4942,-0.247098 -0.9736,-0.240198 -0.9736,-0.240198 z m 5,0 c -1.09934,0 -1.99998,0.900593 -1.99998,1.999984 v 2.999976 C 427,70.099407 427.90064,71 428.99998,71 c 1.09935,0 1.99999,-0.900593 1.99999,-1.999985 v -2.999976 c 0,-1.099391 -0.90064,-1.999984 -1.99999,-1.999984 z m 0,0.999992 c 0.56265,0 1,0.437397 1,0.999992 v 2.999976 c 0,0.562696 -0.43735,0.999993 -1,0.999993 -0.56264,0 -0.99999,-0.437296 -0.99999,-0.999993 v -2.999976 c 0,-0.562595 0.43735,-0.999992 0.99999,-0.999992 z m 4.00001,-0.999992 v 2.999976 h 1.99999 v -2.999976 h 0.99999 V 71 h -0.99999 V 68.000023 H 432 v -3.999968 h 0.99999 v 0"
         style="fill:#ffffff"
         id="path5927"
         sodipodi:nodetypes="sscssscsssssssssssscccccssscscccccsssscsssssssssssssscccccccccccc" />
    </g>
    <g
       id="g6293">
      <path
         d="m 299,240.00007 c 0,0 -0.70875,-0.014 -1.44727,0.35547 -0.7385,0.36921 -1.55273,1.31123 -1.55273,2.64453 h 2 c 0,-1 1,-1 1,-1 0,0 1,0 1,1 0,0.52779 -0.1396,0.82295 -0.40625,1.15625 -0.26665,0.33341 -0.69336,0.66797 -1.19336,1.04297 -0.5,0.375 -1.07329,0.79033 -1.55664,1.39453 C 296.3604,247.19791 296,248.02786 296,249.00007 v 1 h 6 v -2 h -3.64844 c 0.0313,-0.044 0.0187,-0.11125 0.0547,-0.15625 0.26665,-0.33341 0.69336,-0.66797 1.19336,-1.04297 0.5,-0.375 1.07329,-0.79033 1.55664,-1.39453 0.48334,-0.60409 0.84374,-1.43405 0.84374,-2.40625 0,-1.3333 -0.81423,-2.27532 -1.55273,-2.64453 C 299.70874,239.98625 299,240.00007 299,240.00007 Z m 8.5,0 c -1.9217,0 -3.5,1.5783 -3.5,3.5 v 3 c 0,1.9217 1.5783,3.5 3.5,3.5 1.9217,0 3.5,-1.5783 3.5,-3.5 v -3 c 0,-1.9217 -1.5783,-3.5 -3.5,-3.5 z m 5.5,0 v 6 h 4 v 4 h 2 v -4 h 1 v -2 h -1 v -4 h -2 v 4 h -2 v -4 z m 11,0 c -1.65685,0 -3,1.34315 -3,3 10e-4,0.73841 0.2743,1.45052 0.76758,2 -0.49328,0.54948 -0.76658,1.26159 -0.76758,2 0,1.65685 1.34315,3 3,3 1.65685,0 3,-1.34315 3,-3 2e-5,-0.73883 -0.2726,-1.45168 -0.76562,-2.00195 0.49212,-0.54927 0.76468,-1.26057 0.76562,-1.99805 0,-1.65685 -1.34315,-3 -3,-3 z m -16.5,2 c 0.8483,0 1.5,0.6517 1.5,1.5 v 3 c 0,0.8483 -0.6517,1.5 -1.5,1.5 -0.8483,0 -1.5,-0.6517 -1.5,-1.5 v -3 c 0,-0.8483 0.6517,-1.5 1.5,-1.5 z m 16.5,0 c 0.55228,0 1,0.44772 1,1 0,0.55228 -0.44772,1 -1,1 -0.55228,0 -1,-0.44772 -1,-1 0,-0.55228 0.44772,-1 1,-1 z m 0,4 c 0.55228,0 1,0.44772 1,1 0,0.55228 -0.44772,1 -1,1 -0.55228,0 -1,-0.44772 -1,-1 0,-0.55228 0.44772,-1 1,-1 z"
         style="fill:#000000;fill-rule:evenodd;opacity:0.2"
         id="path6271" />
      <path
         id="path6128"
         style="fill:#ffffff;fill-rule:evenodd"
         d="m 299,239 c 0,0 -0.70875,-0.014 -1.44727,0.35547 C 296.81423,239.72468 296,240.6667 296,242 h 2 c 0,-1 1,-1 1,-1 0,0 1,0 1,1 0,0.52779 -0.1396,0.82295 -0.40625,1.15625 -0.26665,0.33341 -0.69336,0.66797 -1.19336,1.04297 -0.5,0.375 -1.07329,0.79033 -1.55664,1.39453 C 296.3604,246.19784 296,247.02779 296,248 v 1 h 6 v -2 h -3.64844 c 0.0313,-0.044 0.0187,-0.11125 0.0547,-0.15625 0.26665,-0.33341 0.69336,-0.66797 1.19336,-1.04297 0.5,-0.375 1.07329,-0.79033 1.55664,-1.39453 C 301.6396,243.80216 302,242.9722 302,242 c 0,-1.3333 -0.81423,-2.27532 -1.55273,-2.64453 C 299.70874,238.98618 299,239 299,239 Z m 8.5,0 c -1.9217,0 -3.5,1.5783 -3.5,3.5 v 3 c 0,1.9217 1.5783,3.5 3.5,3.5 1.9217,0 3.5,-1.5783 3.5,-3.5 v -3 c 0,-1.9217 -1.5783,-3.5 -3.5,-3.5 z m 5.5,0 v 6 h 4 v 4 h 2 v -4 h 1 v -2 h -1 v -4 h -2 v 4 h -2 v -4 z m 11,0 c -1.65685,0 -3,1.34315 -3,3 10e-4,0.73841 0.2743,1.45052 0.76758,2 -0.49328,0.54948 -0.76658,1.26159 -0.76758,2 0,1.65685 1.34315,3 3,3 1.65685,0 3,-1.34315 3,-3 2e-5,-0.73883 -0.2726,-1.45168 -0.76562,-2.00195 0.49212,-0.54927 0.76468,-1.26057 0.76562,-1.99805 0,-1.65685 -1.34315,-3 -3,-3 z m -16.5,2 c 0.8483,0 1.5,0.6517 1.5,1.5 v 3 c 0,0.8483 -0.6517,1.5 -1.5,1.5 -0.8483,0 -1.5,-0.6517 -1.5,-1.5 v -3 c 0,-0.8483 0.6517,-1.5 1.5,-1.5 z m 16.5,0 c 0.55228,0 1,0.44772 1,1 0,0.55228 -0.44772,1 -1,1 -0.55228,0 -1,-0.44772 -1,-1 0,-0.55228 0.44772,-1 1,-1 z m 0,4 c 0.55228,0 1,0.44772 1,1 0,0.55228 -0.44772,1 -1,1 -0.55228,0 -1,-0.44772 -1,-1 0,-0.55228 0.44772,-1 1,-1 z"
         sodipodi:nodetypes="cccccsssssccccssssscssssssscccccccccccccccscccssccssssssssssssssssss" />
    </g>
    <g
       id="g5216">
      <path
         d="m 334.99993,166 c -2.19869,0 -4,1.80122 -4,4 0,1.19813 0.54611,2.26507 1.38866,3 -0.84255,0.73493 -1.38866,1.80187 -1.38866,3 0,2.19878 1.80131,4 4,4 2.19868,0 4,-1.80122 4,-4 0,-1.19813 -0.54613,-2.26507 -1.38867,-3 0.84254,-0.73493 1.38867,-1.80187 1.38867,-3 0,-2.19878 -1.80132,-4 -4,-4 z m 0,2 c 1.12529,0 2,0.87481 2,2 0,1.12519 -0.87471,2 -2,2 -1.1253,0 -2,-0.87481 -2,-2 0,-1.12519 0.8747,-2 2,-2 z m 0,6 c 1.12529,0 2,0.87481 2,2 0,1.12519 -0.87471,2 -2,2 -1.1253,0 -2,-0.87481 -2,-2 0,-1.12519 0.8747,-2 2,-2 z m -29.99989,-7.99989 c 0,0 -0.9588,-0.02 -1.94718,0.4804 -0.98859,0.49439 -2.05278,1.68618 -2.05278,3.51957 h 1.99998 c 0,-1.99999 1.99999,-1.99999 1.99999,-1.99999 0,0 1.99998,0 1.99998,1.99999 0,0.74999 -0.255,1.31439 -0.72499,1.91498 -0.4702,0.6006 -1.16519,1.19159 -1.91519,1.81659 -0.74999,0.62499 -1.55499,1.28399 -2.20978,2.12098 -0.655,0.8368 -1.14999,1.89739 -1.14999,3.14738 V 180 h 7.99994 v -1.99998 h -5.81757 c 0.12201,-0.3148 0.3044,-0.6106 0.5428,-0.915 0.46999,-0.60059 1.16499,-1.19159 1.91499,-1.81658 0.75,-0.625 1.55498,-1.28399 2.20997,-2.12099 0.65481,-0.83679 1.14981,-1.89738 1.14981,-3.14737 0,-1.83339 -1.06421,-3.02518 -2.0528,-3.51957 -0.98838,-0.4942 -1.94718,-0.4804 -1.94718,-0.4804 z m 9.99992,0 c -2.19868,0 -3.99997,1.80119 -3.99997,3.99997 v 5.99995 c 0,2.19878 1.80129,3.99997 3.99997,3.99997 2.19868,0 3.99997,-1.80119 3.99997,-3.99997 v -5.99995 c 0,-2.19878 -1.80129,-3.99997 -3.99997,-3.99997 z m 0,1.99998 c 1.12529,0 1.99998,0.8748 1.99998,1.99999 v 5.99995 c 0,1.12539 -0.87469,1.99999 -1.99998,1.99999 -1.12529,0 -1.99999,-0.8746 -1.99999,-1.99999 v -5.99995 c 0,-1.12519 0.8747,-1.99999 1.99999,-1.99999 z m 8.00078,-1.99998 v 5.99995 h 3.99996 v -5.99995 h 1.99999 V 180 h -1.99999 v -5.99995 h -5.99995 v -7.99994 h 1.99999 v 0"
         style="opacity:0.2;fill:#000000;fill-rule:evenodd"
         id="path4857"
         sodipodi:nodetypes="sscssscsssssssssssscccccscscscccccsssccsssssssssssssscccccccccccc" />
      <path
         d="m 334.99993,165 c -2.19869,0 -4,1.80122 -4,4 0,1.19813 0.54611,2.26507 1.38866,3 -0.84255,0.73493 -1.38866,1.80187 -1.38866,3 0,2.19878 1.80131,4 4,4 2.19868,0 4,-1.80122 4,-4 0,-1.19813 -0.54613,-2.26507 -1.38867,-3 0.84254,-0.73493 1.38867,-1.80187 1.38867,-3 0,-2.19878 -1.80132,-4 -4,-4 z m 0,2 c 1.12529,0 2,0.87481 2,2 0,1.12519 -0.87471,2 -2,2 -1.1253,0 -2,-0.87481 -2,-2 0,-1.12519 0.8747,-2 2,-2 z m 0,6 c 1.12529,0 2,0.87481 2,2 0,1.12519 -0.87471,2 -2,2 -1.1253,0 -2,-0.87481 -2,-2 0,-1.12519 0.8747,-2 2,-2 z m -29.99989,-7.99989 c 0,0 -0.9588,-0.02 -1.94718,0.4804 -0.98859,0.49439 -2.05278,1.68618 -2.05278,3.51957 h 1.99998 c 0,-1.99999 1.99999,-1.99999 1.99999,-1.99999 0,0 1.99998,0 1.99998,1.99999 0,0.74999 -0.255,1.31439 -0.72499,1.91498 -0.4702,0.6006 -1.16519,1.19159 -1.91519,1.81659 -0.74999,0.62499 -1.55499,1.28399 -2.20978,2.12098 -0.655,0.8368 -1.14999,1.89739 -1.14999,3.14738 V 179 h 7.99994 v -1.99998 h -5.81757 c 0.12201,-0.3148 0.3044,-0.6106 0.5428,-0.915 0.46999,-0.60059 1.16499,-1.19159 1.91499,-1.81658 0.75,-0.625 1.55498,-1.28399 2.20997,-2.12099 0.65481,-0.83679 1.14981,-1.89738 1.14981,-3.14737 0,-1.83339 -1.06421,-3.02518 -2.0528,-3.51957 -0.98838,-0.4942 -1.94718,-0.4804 -1.94718,-0.4804 z m 9.99992,0 c -2.19868,0 -3.99997,1.80119 -3.99997,3.99997 v 5.99995 c 0,2.19878 1.80129,3.99997 3.99997,3.99997 2.19868,0 3.99997,-1.80119 3.99997,-3.99997 v -5.99995 c 0,-2.19878 -1.80129,-3.99997 -3.99997,-3.99997 z m 0,1.99998 c 1.12529,0 1.99998,0.8748 1.99998,1.99999 v 5.99995 c 0,1.12539 -0.87469,1.99999 -1.99998,1.99999 -1.12529,0 -1.99999,-0.8746 -1.99999,-1.99999 v -5.99995 c 0,-1.12519 0.8747,-1.99999 1.99999,-1.99999 z m 8.00078,-1.99998 v 5.99995 h 3.99996 v -5.99995 h 1.99999 V 179 h -1.99999 v -5.99995 h -5.99995 v -7.99994 h 1.99999 v 0"
         style="fill:#ffffff;fill-rule:evenodd"
         id="path4672"
         sodipodi:nodetypes="sscssscsssssssssssscccccscscscccccsssccsssssssssssssscccccccccccc" />
    </g>
    <g
       id="g6353">
      <path
         d="m 358.99977,66.000004 c -3.29803,0 -6,2.70183 -6,6 0,1.79719 0.81917,3.3976 2.083,4.5 -1.26383,1.10239 -2.083,2.7028 -2.083,4.5 0,3.29817 2.70197,6 6,6 3.29802,0 6,-2.70183 6,-6 0,-1.7972 -0.81919,-3.39761 -2.083,-4.5 1.26381,-1.1024 2.083,-2.70281 2.083,-4.5 0,-3.29817 -2.70198,-6 -6,-6 z m 0,3 c 1.68794,0 3,1.31221 3,3 0,1.68779 -1.31206,3 -3,3 -1.68794,0 -3,-1.31221 -3,-3 0,-1.68779 1.31206,-3 3,-3 z m 0,9 c 1.68794,0 3,1.31221 3,3 0,1.68779 -1.31206,3 -3,3 -1.68794,0 -3,-1.31221 -3,-3 0,-1.68779 1.31206,-3 3,-3 z m -44.99983,-11.99984 c 0,0 -1.4382,-0.03 -2.92077,0.72061 C 309.59628,67.462354 308,69.250044 308,72.000124 h 2.99998 c 0,-2.99999 2.99999,-2.99999 2.99999,-2.99999 0,0 2.99997,0 2.99997,2.99999 0,1.12498 -0.3825,1.97158 -1.08749,2.87247 -0.7053,0.9009 -1.74778,1.78738 -2.87278,2.72488 -1.12499,0.93749 -2.33249,1.92599 -3.31467,3.18147 -0.9825,1.2552 -1.72499,2.84609 -1.72499,4.72107 v 1.49999 h 11.99991 v -2.99997 h -8.72636 c 0.18302,-0.4722 0.4566,-0.9159 0.8142,-1.3725 0.70499,-0.90089 1.74749,-1.78739 2.87249,-2.72487 1.125,-0.9375 2.33247,-1.92599 3.31495,-3.18149 0.98222,-1.25518 1.72472,-2.84607 1.72472,-4.72105 0,-2.75009 -1.59632,-4.53777 -3.0792,-5.27935 -1.48257,-0.74131 -2.92077,-0.72061 -2.92078,-0.72061 z m 14.99988,0 c -3.29802,0 -5.99996,2.70179 -5.99996,5.99996 v 8.99992 c 0,3.29818 2.70194,5.99996 5.99996,5.99996 3.29802,0 5.99995,-2.70178 5.99995,-5.99996 v -8.99992 c 0,-3.29817 -2.70193,-5.99996 -5.99995,-5.99996 z m 0,2.99997 c 1.68793,0 2.99997,1.3122 2.99997,2.99999 v 8.99992 c 0,1.68809 -1.31204,2.99999 -2.99997,2.99999 -1.68794,0 -2.99999,-1.3119 -2.99999,-2.99999 v -8.99992 c 0,-1.68779 1.31205,-2.99999 2.99999,-2.99999 z m 12.00117,-2.99997 v 8.99993 h 5.99994 v -8.99993 h 2.99998 v 20.99984 h -2.99998 v -8.99993 H 338.001 v -11.99991 h 2.99999 v 0"
         style="fill:#000000;fill-rule:evenodd;stroke-width:1.5;opacity:0.2"
         id="path6331" />
      <path
         d="m 358.99977,65.000004 c -3.29803,0 -6,2.70183 -6,6 0,1.79719 0.81917,3.3976 2.083,4.5 -1.26383,1.10239 -2.083,2.7028 -2.083,4.5 0,3.29817 2.70197,6 6,6 3.29802,0 6,-2.70183 6,-6 0,-1.7972 -0.81919,-3.39761 -2.083,-4.5 1.26381,-1.1024 2.083,-2.70281 2.083,-4.5 0,-3.29817 -2.70198,-6 -6,-6 z m 0,3 c 1.68794,0 3,1.31221 3,3 0,1.68779 -1.31206,3 -3,3 -1.68794,0 -3,-1.31221 -3,-3 0,-1.68779 1.31206,-3 3,-3 z m 0,9 c 1.68794,0 3,1.31221 3,3 0,1.68779 -1.31206,3 -3,3 -1.68794,0 -3,-1.31221 -3,-3 0,-1.68779 1.31206,-3 3,-3 z m -44.99983,-11.99984 c 0,0 -1.4382,-0.03 -2.92077,0.72061 C 309.59628,66.462354 308,68.250044 308,71.000124 h 2.99998 c 0,-2.99999 2.99999,-2.99999 2.99999,-2.99999 0,0 2.99997,0 2.99997,2.99999 0,1.12498 -0.3825,1.97158 -1.08749,2.87247 -0.7053,0.9009 -1.74778,1.78738 -2.87278,2.72488 -1.12499,0.93749 -2.33249,1.92599 -3.31467,3.18147 -0.9825,1.2552 -1.72499,2.84609 -1.72499,4.72107 v 1.49999 h 11.99991 v -2.99997 h -8.72636 c 0.18302,-0.4722 0.4566,-0.9159 0.8142,-1.3725 0.70499,-0.90089 1.74749,-1.78739 2.87249,-2.72487 1.125,-0.9375 2.33247,-1.92599 3.31495,-3.18149 0.98222,-1.25518 1.72472,-2.84607 1.72472,-4.72105 0,-2.75009 -1.59632,-4.53777 -3.0792,-5.27935 -1.48257,-0.74131 -2.92077,-0.72061 -2.92078,-0.72061 z m 14.99988,0 c -3.29802,0 -5.99996,2.70179 -5.99996,5.99996 v 8.99992 c 0,3.29818 2.70194,5.99996 5.99996,5.99996 3.29802,0 5.99995,-2.70178 5.99995,-5.99996 v -8.99992 c 0,-3.29817 -2.70193,-5.99996 -5.99995,-5.99996 z m 0,2.99997 c 1.68793,0 2.99997,1.3122 2.99997,2.99999 v 8.99992 c 0,1.68809 -1.31204,2.99999 -2.99997,2.99999 -1.68794,0 -2.99999,-1.3119 -2.99999,-2.99999 v -8.99992 c 0,-1.68779 1.31205,-2.99999 2.99999,-2.99999 z m 12.00117,-2.99997 v 8.99993 h 5.99994 v -8.99993 h 2.99998 v 20.99984 h -2.99998 v -8.99993 H 338.001 v -11.99991 h 2.99999 v 0"
         style="fill:#ffffff;fill-rule:evenodd;stroke-width:1.5"
         id="path6303"
         sodipodi:nodetypes="sscssscsssssssssssscccccscscscccccsssccsssssssssssssscccccccccccc" />
    </g>
    <g
       id="g5210"
       transform="matrix(4,0,0,4,-1136,-532)">
      <path
         d="m 334.99993,165.5 c -2.19869,0 -4,1.80122 -4,4 0,1.19813 0.54611,2.26507 1.38866,3 -0.84255,0.73493 -1.38866,1.80187 -1.38866,3 0,2.19878 1.80131,4 4,4 2.19868,0 4,-1.80122 4,-4 0,-1.19813 -0.54613,-2.26507 -1.38867,-3 0.84254,-0.73493 1.38867,-1.80187 1.38867,-3 0,-2.19878 -1.80132,-4 -4,-4 z m 0,2 c 1.12529,0 2,0.87481 2,2 0,1.12519 -0.87471,2 -2,2 -1.1253,0 -2,-0.87481 -2,-2 0,-1.12519 0.8747,-2 2,-2 z m 0,6 c 1.12529,0 2,0.87481 2,2 0,1.12519 -0.87471,2 -2,2 -1.1253,0 -2,-0.87481 -2,-2 0,-1.12519 0.8747,-2 2,-2 z m -29.99989,-7.99989 c 0,0 -0.9588,-0.02 -1.94718,0.4804 -0.98859,0.49439 -2.05278,1.68618 -2.05278,3.51957 h 1.99998 c 0,-1.99999 1.99999,-1.99999 1.99999,-1.99999 0,0 1.99998,0 1.99998,1.99999 0,0.74999 -0.255,1.31439 -0.72499,1.91498 -0.4702,0.6006 -1.16519,1.19159 -1.91519,1.81659 -0.74999,0.62499 -1.55499,1.28399 -2.20978,2.12098 -0.655,0.8368 -1.14999,1.89739 -1.14999,3.14738 V 179.5 h 7.99994 v -1.99998 h -5.81757 c 0.12201,-0.3148 0.3044,-0.6106 0.5428,-0.915 0.46999,-0.60059 1.16499,-1.19159 1.91499,-1.81658 0.75,-0.625 1.55498,-1.28399 2.20997,-2.12099 0.65481,-0.83679 1.14981,-1.89738 1.14981,-3.14737 0,-1.83339 -1.06421,-3.02518 -2.0528,-3.51957 -0.98838,-0.4942 -1.94718,-0.4804 -1.94718,-0.4804 z m 9.99992,0 c -2.19868,0 -3.99997,1.80119 -3.99997,3.99997 v 5.99995 c 0,2.19878 1.80129,3.99997 3.99997,3.99997 2.19868,0 3.99997,-1.80119 3.99997,-3.99997 v -5.99995 c 0,-2.19878 -1.80129,-3.99997 -3.99997,-3.99997 z m 0,1.99998 c 1.12529,0 1.99998,0.8748 1.99998,1.99999 v 5.99995 c 0,1.12539 -0.87469,1.99999 -1.99998,1.99999 -1.12529,0 -1.99999,-0.8746 -1.99999,-1.99999 v -5.99995 c 0,-1.12519 0.8747,-1.99999 1.99999,-1.99999 z m 8.00078,-1.99998 v 5.99995 h 3.99996 v -5.99995 h 1.99999 V 179.5 h -1.99999 v -5.99995 h -5.99995 v -7.99994 h 1.99999 v 0"
         style="opacity:0.2;fill:#000000;fill-rule:evenodd"
         id="path5188" />
      <path
         d="m 334.99993,165 c -2.19869,0 -4,1.80122 -4,4 0,1.19813 0.54611,2.26507 1.38866,3 -0.84255,0.73493 -1.38866,1.80187 -1.38866,3 0,2.19878 1.80131,4 4,4 2.19868,0 4,-1.80122 4,-4 0,-1.19813 -0.54613,-2.26507 -1.38867,-3 0.84254,-0.73493 1.38867,-1.80187 1.38867,-3 0,-2.19878 -1.80132,-4 -4,-4 z m 0,2 c 1.12529,0 2,0.87481 2,2 0,1.12519 -0.87471,2 -2,2 -1.1253,0 -2,-0.87481 -2,-2 0,-1.12519 0.8747,-2 2,-2 z m 0,6 c 1.12529,0 2,0.87481 2,2 0,1.12519 -0.87471,2 -2,2 -1.1253,0 -2,-0.87481 -2,-2 0,-1.12519 0.8747,-2 2,-2 z m -29.99989,-7.99989 c 0,0 -0.9588,-0.02 -1.94718,0.4804 -0.98859,0.49439 -2.05278,1.68618 -2.05278,3.51957 h 1.99998 c 0,-1.99999 1.99999,-1.99999 1.99999,-1.99999 0,0 1.99998,0 1.99998,1.99999 0,0.74999 -0.255,1.31439 -0.72499,1.91498 -0.4702,0.6006 -1.16519,1.19159 -1.91519,1.81659 -0.74999,0.62499 -1.55499,1.28399 -2.20978,2.12098 -0.655,0.8368 -1.14999,1.89739 -1.14999,3.14738 V 179 h 7.99994 v -1.99998 h -5.81757 c 0.12201,-0.3148 0.3044,-0.6106 0.5428,-0.915 0.46999,-0.60059 1.16499,-1.19159 1.91499,-1.81658 0.75,-0.625 1.55498,-1.28399 2.20997,-2.12099 0.65481,-0.83679 1.14981,-1.89738 1.14981,-3.14737 0,-1.83339 -1.06421,-3.02518 -2.0528,-3.51957 -0.98838,-0.4942 -1.94718,-0.4804 -1.94718,-0.4804 z m 9.99992,0 c -2.19868,0 -3.99997,1.80119 -3.99997,3.99997 v 5.99995 c 0,2.19878 1.80129,3.99997 3.99997,3.99997 2.19868,0 3.99997,-1.80119 3.99997,-3.99997 v -5.99995 c 0,-2.19878 -1.80129,-3.99997 -3.99997,-3.99997 z m 0,1.99998 c 1.12529,0 1.99998,0.8748 1.99998,1.99999 v 5.99995 c 0,1.12539 -0.87469,1.99999 -1.99998,1.99999 -1.12529,0 -1.99999,-0.8746 -1.99999,-1.99999 v -5.99995 c 0,-1.12519 0.8747,-1.99999 1.99999,-1.99999 z m 8.00078,-1.99998 v 5.99995 h 3.99996 v -5.99995 h 1.99999 V 179 h -1.99999 v -5.99995 h -5.99995 v -7.99994 h 1.99999 v 0"
         style="fill:#ffffff;fill-rule:evenodd"
         id="path5160" />
    </g>
  </g>
  <g
     id="Highlights">
    <path
       id="rect653"
       style="opacity:0.2;fill:#ffffff"
       d="M 80,44 C 53.408027,44 32,65.408027 32,92 v 2 C 32,67.408027 53.408027,46 80,46 h 128 c 26.59197,0 48,21.408027 48,48 V 92 C 256,65.408027 234.59197,44 208,44 Z"
       sodipodi:nodetypes="sscsscsss" />
    <path
       id="rect773"
       style="opacity:0.2;fill:#ffffff"
       d="m 312,34 c -9.97199,0 -18,8.02801 -18,18 v 1 c 0,-9.97199 8.02801,-18 18,-18 h 48 c 9.97199,0 18,8.02801 18,18 v -1 c 0,-9.97199 -8.02801,-18 -18,-18 z" />
    <path
       id="rect1135"
       style="opacity:0.2;fill:#ffffff;fill-opacity:1"
       d="m 304,144 c -6.64799,0 -12,5.35201 -12,12 v 1 c 0,-6.64799 5.35201,-12 12,-12 h 32 c 6.64799,0 12,5.35201 12,12 v -1 c 0,-6.64799 -5.35201,-12 -12,-12 z" />
    <path
       id="rect1265"
       style="opacity:0.2;fill:#ffffff;fill-opacity:1"
       d="m 300,223 c -4.986,0 -9,4.014 -9,9 v 1 c 0,-4.986 4.014,-9 9,-9 h 24 c 4.986,0 9,4.014 9,9 v -1 c 0,-4.986 -4.014,-9 -9,-9 z" />
    <path
       id="rect1368"
       style="opacity:0.2;fill:#ffffff;fill-opacity:1"
       d="m 424,54 c -3.324,0 -6,2.676003 -6,6 v 1 c 0,-3.323997 2.676,-6 6,-6 h 16 c 3.324,0 6,2.676003 6,6 v -1 c 0,-3.323997 -2.676,-6 -6,-6 z" />
    <path
       id="rect1402"
       style="opacity:0.2;fill:#ffffff;fill-opacity:1"
       d="m 420,140 c -2.216,0 -4,1.784 -4,4 v 1 c 0,-2.216 1.784,-4 4,-4 h 8 c 2.216,0 4,1.784 4,4 v -1 c 0,-2.216 -1.784,-4 -4,-4 z" />
    <path
       id="rect1436"
       style="opacity:0.2;fill:#ffffff;fill-opacity:1"
       d="m 422,102 c -2.216,0 -4,1.784 -4,4 v 1 c 0,-2.216 1.784,-4 4,-4 h 12 c 2.216,0 4,1.784 4,4 v -1 c 0,-2.216 -1.784,-4 -4,-4 z" />
  </g>
</svg>
