<?xml version="1.0" encoding="UTF-8" standalone="no"?>
<!-- Created with Inkscape (http://www.inkscape.org/) -->

<svg
   width="480"
   height="300"
   viewBox="0 0 480 300"
   version="1.1"
   id="svg5"
   inkscape:version="1.2.2 (1:1.2.2+202305151914+b0a8486541)"
   sodipodi:docname="abiword.svg"
   xmlns:inkscape="http://www.inkscape.org/namespaces/inkscape"
   xmlns:sodipodi="http://sodipodi.sourceforge.net/DTD/sodipodi-0.dtd"
   xmlns="http://www.w3.org/2000/svg"
   xmlns:svg="http://www.w3.org/2000/svg">
  <sodipodi:namedview
     id="namedview7"
     pagecolor="#888888"
     bordercolor="#000000"
     borderopacity="0.25"
     inkscape:showpageshadow="true"
     inkscape:pageopacity="0"
     inkscape:pagecheckerboard="0"
     inkscape:deskcolor="#888888"
     inkscape:document-units="px"
     showgrid="false"
     showborder="false"
     inkscape:zoom="2.6866667"
     inkscape:cx="240.07444"
     inkscape:cy="150"
     inkscape:window-width="1920"
     inkscape:window-height="1008"
     inkscape:window-x="0"
     inkscape:window-y="0"
     inkscape:window-maximized="1"
     inkscape:current-layer="svg5" />
  <defs
     id="defs2" />
  <g
     id="Baseplate"
     style="display:none">
    <text
       y="19.774782"
       xml:space="preserve"
       x="15.006946"
       style="font-style:normal;font-variant:normal;font-weight:normal;font-stretch:normal;line-height:0%;font-family:'DejaVu Sans';-inkscape-font-specification:'DejaVu Sans';display:inline;fill:#000000;fill-opacity:1;stroke:none;enable-background:new"
       inkscape:label="context"
       id="context"><tspan
         style="font-style:normal;font-variant:normal;font-weight:normal;font-stretch:normal;font-size:18px;line-height:1.25;font-family:'DejaVu Sans';-inkscape-font-specification:'DejaVu Sans'"
         y="19.774782"
         x="15.006946"
         sodipodi:role="line"
         id="tspan3933">apps</tspan></text>
    <text
       y="19.774782"
       xml:space="preserve"
       x="122.48839"
       style="font-style:normal;font-variant:normal;font-weight:bold;font-stretch:normal;line-height:0%;font-family:'DejaVu Sans';-inkscape-font-specification:'DejaVu Sans Bold';text-align:start;writing-mode:lr-tb;text-anchor:start;display:inline;fill:#000000;fill-opacity:1;stroke:none;enable-background:new"
       inkscape:label="icon-name"
       id="icon-name"><tspan
         style="font-style:normal;font-variant:normal;font-weight:bold;font-stretch:normal;font-size:18px;line-height:1.25;font-family:'DejaVu Sans';-inkscape-font-specification:'DejaVu Sans Bold'"
         y="19.774782"
         x="122.48839"
         sodipodi:role="line"
         id="tspan3937">abiword</tspan></text>
    <rect
       style="fill:#ffffff"
       id="256x256"
       width="256"
       height="256"
       x="16"
       y="28" />
    <rect
       style="fill:#ffffff"
       id="96x96"
       width="96"
       height="96"
       x="288"
       y="28" />
    <rect
       style="fill:#ffffff"
       id="64x64"
       width="64"
       height="64"
       x="288"
       y="140" />
    <rect
       style="fill:#ffffff"
       id="48x48"
       width="48"
       height="48"
       x="288"
       y="220" />
    <rect
       style="fill:#ffffff"
       id="32x32"
       width="32"
       height="32"
       x="416"
       y="52" />
    <rect
       style="fill:#ffffff"
       id="24x24"
       width="24"
       height="24"
       x="416"
       y="100" />
    <rect
       style="fill:#ffffff"
       id="22x22"
       width="22"
       height="22"
       x="417"
       y="101" />
    <rect
       style="fill:#ffffff"
       id="16x16"
       width="16"
       height="16"
       x="416"
       y="140" />
  </g>
  <g
     id="Shadow"
     style="display:inline">
    <rect
       style="opacity:0.2;fill:#000000"
       id="rect651"
       width="224"
       height="224"
       x="32"
       y="46"
       ry="48" />
    <rect
       style="opacity:0.2;fill:#000000"
       id="rect769"
       width="84"
       height="85"
       x="294"
       y="34"
       ry="18" />
    <rect
       style="opacity:0.2;fill:#000000;fill-opacity:1"
       id="rect1131"
       width="56"
       height="56"
       x="292"
       y="145"
       ry="12" />
    <rect
       style="opacity:0.2;fill:#000000;fill-opacity:1"
       id="rect1261"
       width="42"
       height="42"
       x="291"
       y="224"
       ry="9" />
    <rect
       style="opacity:0.2;fill:#000000;fill-opacity:1"
       id="rect1364"
       width="28"
       height="29"
       x="418"
       y="54"
       ry="6" />
    <rect
       style="opacity:0.2;fill:#000000;fill-opacity:1"
       id="rect1398"
       width="16"
       height="16"
       x="416"
       y="141"
       ry="4" />
    <rect
       style="opacity:0.2;fill:#000000;fill-opacity:1"
       id="rect1432"
       width="20"
       height="20"
       x="418"
       y="103"
       ry="4" />
  </g>
  <g
     id="Background">
    <rect
       style="fill:#4692eb;fill-opacity:1"
       id="rect597"
       width="224"
       height="224"
       x="32"
       y="44"
       ry="48" />
    <rect
       style="opacity:1;fill:#4692eb;fill-opacity:1"
       id="rect771"
       width="84"
       height="84"
       x="294"
       y="34"
       ry="18" />
    <rect
       style="opacity:1;fill:#4692eb;fill-opacity:1"
       id="rect1133"
       width="56"
       height="56"
       x="292"
       y="144"
       ry="12" />
    <rect
       style="opacity:1;fill:#4692eb;fill-opacity:1"
       id="rect1263"
       width="42"
       height="42"
       x="291"
       y="223"
       ry="9" />
    <rect
       style="opacity:1;fill:#4692eb;fill-opacity:1"
       id="rect1366"
       width="28"
       height="28"
       x="418"
       y="54"
       ry="6" />
    <rect
       style="opacity:1;fill:#4692eb;fill-opacity:1"
       id="rect1400"
       width="16"
       height="16"
       x="416"
       y="140"
       ry="4" />
    <rect
       style="opacity:1;fill:#4692eb;fill-opacity:1"
       id="rect1434"
       width="20"
       height="20"
       x="418"
       y="102"
       ry="4" />
  </g>
  <g
     id="g3781">
    <g
       id="g3758">
      <path
         d="m 426.45806,150.30326 c -1.85056,0.87052 -3.75467,1.68737 -5.77612,2.12264 -0.65166,-0.003 -0.33011,-0.81053 -0.22488,-1.17632 0.5055,-1.55407 1.28933,-3.00902 2.03472,-4.46797 0.29513,-0.46096 0.50448,-1.09623 1.09955,-1.27359 0.578,-0.0611 0.95778,0.4708 1.25717,0.85884 1.22422,1.78417 2.38034,3.61502 3.39428,5.51477 0.25667,0.49527 0.50833,0.99264 0.75722,1.49159 -0.74,-2.87475 -1.73666,-5.72687 -3.34278,-8.279 -0.36,-0.50368 -0.68777,-1.05053 -1.17333,-1.456 -0.47333,-0.34595 -1.05556,0.0266 -1.40556,0.36141 -1.09933,1.04912 -1.76894,2.41808 -2.42505,3.73988 -0.76522,1.56437 -1.26728,3.2319 -1.63584,4.91634 -0.12921,0.56725 0.48397,0.97905 1.02889,0.803 1.50934,-0.29872 2.92773,-0.92532 4.26267,-1.64437 0.76934,-0.42988 1.50917,-0.91801 2.14922,-1.51154 z"
         style="fill:#000000;stroke-width:0.54074;opacity:0.2"
         id="path3736" />
      <path
         d="m 426.45806,149.80327 c -1.85056,0.87052 -3.75467,1.68737 -5.77612,2.12264 -0.65166,-0.003 -0.33011,-0.81053 -0.22488,-1.17632 0.5055,-1.55407 1.28933,-3.00902 2.03472,-4.46797 0.29513,-0.46096 0.50448,-1.09623 1.09955,-1.27359 0.578,-0.0611 0.95778,0.4708 1.25717,0.85884 1.22422,1.78417 2.38034,3.61502 3.39428,5.51477 0.25667,0.49527 0.50833,0.99264 0.75722,1.49159 -0.74,-2.87475 -1.73666,-5.72687 -3.34278,-8.279 -0.36,-0.50368 -0.68777,-1.05053 -1.17333,-1.456 -0.47333,-0.34595 -1.05556,0.0266 -1.40556,0.36141 -1.09933,1.04912 -1.76894,2.41808 -2.42505,3.73988 -0.76522,1.56437 -1.26728,3.2319 -1.63584,4.91634 -0.12921,0.56725 0.48397,0.97905 1.02889,0.803 1.50934,-0.29872 2.92773,-0.92532 4.26267,-1.64437 0.76934,-0.42988 1.50917,-0.91801 2.14922,-1.51154 z"
         style="fill:#ffffff;stroke-width:0.54074"
         id="path3681"
         sodipodi:nodetypes="ccccccccccccccccc" />
    </g>
    <g
       id="g3671">
      <path
         d="m 431.44128,115.02456 c -2.59078,1.21874 -5.25653,2.36233 -8.08656,2.9717 -0.91233,-0.004 -0.46216,-1.13474 -0.31484,-1.64685 0.70771,-2.1757 1.80507,-4.21262 2.84861,-6.25516 0.41319,-0.64534 0.70627,-1.53471 1.53937,-1.78302 0.8092,-0.0856 1.3409,0.65912 1.76004,1.20238 1.71391,2.49784 3.33248,5.06103 4.75199,7.72068 0.35934,0.69337 0.71167,1.38969 1.06011,2.08822 -1.036,-4.02465 -2.43132,-8.01762 -4.67989,-11.5906 -0.504,-0.70515 -0.96288,-1.47074 -1.64266,-2.0384 -0.66267,-0.48433 -1.47779,0.0372 -1.96779,0.50598 -1.53906,1.46876 -2.47651,3.3853 -3.39507,5.23582 -1.07131,2.19013 -1.77419,4.52467 -2.29017,6.88288 -0.1809,0.79416 0.67756,1.37067 1.44044,1.12421 2.11308,-0.41822 4.09882,-1.29545 5.96774,-2.30213 1.07708,-0.60183 2.11284,-1.28521 3.00891,-2.11615 z"
         style="fill:#000000;stroke-width:0.757036;opacity:0.2"
         id="path3649" />
      <path
         d="m 431.44128,114.52457 c -2.59078,1.21874 -5.25653,2.36233 -8.08656,2.9717 -0.91233,-0.004 -0.46216,-1.13474 -0.31484,-1.64685 0.70771,-2.1757 1.80507,-4.21262 2.84861,-6.25516 0.41319,-0.64534 0.70627,-1.53471 1.53937,-1.78302 0.8092,-0.0856 1.3409,0.65912 1.76004,1.20238 1.71391,2.49784 3.33248,5.06103 4.75199,7.72068 0.35934,0.69337 0.71167,1.38969 1.06011,2.08822 -1.036,-4.02465 -2.43132,-8.01762 -4.67989,-11.5906 -0.504,-0.70515 -0.96288,-1.47074 -1.64266,-2.0384 -0.66267,-0.48433 -1.47779,0.0372 -1.96779,0.50598 -1.53906,1.46876 -2.47651,3.3853 -3.39507,5.23582 -1.07131,2.19013 -1.77419,4.52467 -2.29017,6.88288 -0.1809,0.79416 0.67756,1.37067 1.44044,1.12421 2.11308,-0.41822 4.09882,-1.29545 5.96774,-2.30213 1.07708,-0.60183 2.11284,-1.28521 3.00891,-2.11615 z"
         style="fill:#ffffff;stroke-width:0.757036"
         id="path3620"
         sodipodi:nodetypes="ccccccccccccccccc" />
    </g>
    <g
       id="g3505">
      <path
         d="m 436.42451,71.92614 c -3.33101,1.654 -6.7584,3.206 -10.397,4.033 -1.173,-0.006 -0.5942,-1.54 -0.40481,-2.235 0.90992,-2.9527 2.32081,-5.7171 3.66251,-8.4891 0.53124,-0.87581 0.90805,-2.0828 1.9792,-2.4198 1.04039,-0.11612 1.72399,0.89452 2.2629,1.6318 2.2036,3.3899 4.2846,6.8685 6.10969,10.478 0.462,0.941 0.91501,1.886 1.363,2.834 -1.332,-5.462 -3.12599,-10.881 -6.017,-15.73 -0.648,-0.957 -1.238,-1.996 -2.112,-2.7664 -0.852,-0.6573 -1.9,0.0504 -2.53,0.6867 -1.97879,1.9933 -3.1841,4.5943 -4.36509,7.1057 -1.37741,2.9723 -2.2811,6.1406 -2.9445,9.341 -0.23258,1.0778 0.87114,1.8602 1.85199,1.5257 2.7168,-0.56757 5.2699,-1.7581 7.6728,-3.1243 1.3848,-0.81676 2.7165,-1.7442 3.8686,-2.8719 z"
         style="fill:#000000;opacity:0.2"
         id="path2728" />
      <path
         d="m 436.4245,70.92614 c -3.331,1.654 -6.7584,3.206 -10.397,4.033 -1.173,-0.006 -0.5942,-1.54 -0.4048,-2.235 0.90991,-2.9527 2.3208,-5.7171 3.6625,-8.4891 0.53124,-0.87581 0.90805,-2.0828 1.9792,-2.4198 1.0404,-0.11612 1.724,0.89452 2.2629,1.6318 2.2036,3.3899 4.2846,6.8685 6.1097,10.478 0.462,0.941 0.915,1.886 1.363,2.834 -1.332,-5.462 -3.126,-10.881 -6.017,-15.73 -0.648,-0.957 -1.238,-1.996 -2.112,-2.7664 -0.852,-0.6573 -1.9,0.0504 -2.53,0.6867 -1.9788,1.9933 -3.1841,4.5943 -4.3651,7.1057 -1.3774,2.9723 -2.2811,6.1406 -2.9445,9.341 -0.23258,1.0778 0.87114,1.8602 1.852,1.5257 2.7168,-0.56757 5.2699,-1.7581 7.6728,-3.1243 1.3848,-0.81676 2.7165,-1.7442 3.8686,-2.8719 z"
         style="fill:#ffffff"
         id="path2543"
         sodipodi:nodetypes="ccccccccccccccccc" />
    </g>
    <g
       id="g3550">
      <path
         d="m 318.88255,250.72948 c -5.18155,2.52455 -10.51306,4.89341 -16.17311,6.15568 -1.82467,-0.009 -0.92431,-2.35055 -0.62968,-3.41134 1.41541,-4.50678 3.61013,-8.72616 5.69722,-12.95712 0.82637,-1.33678 1.41252,-3.17903 3.07876,-3.6934 1.61839,-0.17724 2.68177,1.36533 3.52006,2.49065 3.42783,5.17409 6.66494,10.48356 9.50398,15.99284 0.71867,1.43626 1.42333,2.87864 2.12022,4.3256 -2.072,-8.33679 -4.86267,-16.60794 -9.35977,-24.00909 -1.00801,-1.46069 -1.92578,-3.04654 -3.28534,-4.22242 -1.32533,-1.00326 -2.95556,0.0769 -3.93556,1.04812 -3.07813,3.04242 -4.95305,7.0124 -6.79015,10.84561 -2.14263,4.53669 -3.54838,9.37255 -4.58033,14.2574 -0.3618,1.64507 1.3551,2.83927 2.88089,2.32872 4.22612,-0.8663 8.19762,-2.68344 11.93546,-4.76871 2.15413,-1.24664 4.22567,-2.66221 6.01782,-4.38344 z"
         style="opacity:0.2;fill:#000000;stroke-width:1.54088"
         id="path3528"
         sodipodi:nodetypes="ccccccccccccccccc" />
      <path
         d="m 318.88255,249.72948 c -5.18155,2.52455 -10.51306,4.89341 -16.17311,6.15568 -1.82467,-0.009 -0.92431,-2.35055 -0.62968,-3.41134 1.41541,-4.50678 3.61013,-8.72616 5.69722,-12.95712 0.82637,-1.33678 1.41252,-3.17903 3.07876,-3.6934 1.61839,-0.17724 2.68177,1.36533 3.52006,2.49065 3.42783,5.17409 6.66494,10.48356 9.50398,15.99284 0.71867,1.43626 1.42333,2.87864 2.12022,4.3256 -2.072,-8.33679 -4.86267,-16.60794 -9.35977,-24.00909 -1.00801,-1.46069 -1.92578,-3.04654 -3.28534,-4.22242 -1.32533,-1.00326 -2.95556,0.0769 -3.93556,1.04812 -3.07813,3.04242 -4.95305,7.0124 -6.79015,10.84561 -2.14263,4.53669 -3.54838,9.37255 -4.58033,14.2574 -0.3618,1.64507 1.3551,2.83927 2.88089,2.32872 4.22612,-0.8663 8.19762,-2.68344 11.93546,-4.76871 2.15413,-1.24664 4.22567,-2.66221 6.01782,-4.38344 z"
         style="fill:#ffffff;stroke-width:1.54088"
         id="path3496"
         sodipodi:nodetypes="ccccccccccccccccc" />
    </g>
    <g
       id="g3360">
      <path
         d="m 328.84904,179.85242 c -6.66203,3.30802 -13.51687,6.41204 -20.79411,8.06605 -2.34601,-0.012 -1.18841,-3.08002 -0.8096,-4.47003 1.81983,-5.90543 4.64162,-11.43426 7.32504,-16.97829 1.06248,-1.75163 1.81611,-4.16562 3.95842,-4.83963 2.08081,-0.23224 3.44802,1.78905 4.52582,3.26362 4.40723,6.77984 8.56925,13.73709 12.21947,20.95611 0.92401,1.88203 1.83001,3.77202 2.72602,5.66804 -2.66402,-10.92406 -6.25204,-21.7621 -12.03407,-31.46018 -1.29601,-1.91401 -2.47601,-3.99202 -4.22402,-5.53283 -1.70401,-1.3146 -3.80003,0.1008 -5.06003,1.37341 -3.95762,3.98662 -6.36824,9.18865 -8.73025,14.21148 -2.75481,5.94463 -4.56222,12.28129 -5.88903,18.6821 -0.46516,2.15563 1.74229,3.72042 3.70402,3.05144 5.43363,-1.13517 10.53986,-3.51624 15.34568,-6.24864 2.76962,-1.63355 5.43303,-3.48844 7.73724,-5.74385 z"
         style="opacity:0.2;fill:#000000;stroke-width:2.00001"
         id="path3338"
         sodipodi:nodetypes="ccccccccccccccccc" />
      <path
         d="m 328.84904,178.85242 c -6.66203,3.30802 -13.51687,6.41204 -20.79411,8.06605 -2.34601,-0.012 -1.18841,-3.08002 -0.8096,-4.47003 1.81983,-5.90543 4.64162,-11.43426 7.32504,-16.97829 1.06248,-1.75163 1.81611,-4.16562 3.95842,-4.83963 2.08081,-0.23224 3.44802,1.78905 4.52582,3.26362 4.40723,6.77984 8.56925,13.73709 12.21947,20.95611 0.92401,1.88203 1.83001,3.77202 2.72602,5.66804 -2.66402,-10.92406 -6.25204,-21.7621 -12.03407,-31.46018 -1.29601,-1.91401 -2.47601,-3.99202 -4.22402,-5.53283 -1.70401,-1.3146 -3.80003,0.1008 -5.06003,1.37341 -3.95762,3.98662 -6.36824,9.18865 -8.73025,14.21148 -2.75481,5.94463 -4.56222,12.28129 -5.88903,18.6821 -0.46516,2.15563 1.74229,3.72042 3.70402,3.05144 5.43363,-1.13517 10.53986,-3.51624 15.34568,-6.24864 2.76962,-1.63355 5.43303,-3.48844 7.73724,-5.74385 z"
         style="fill:#ffffff;stroke-width:2.00001"
         id="path3310"
         sodipodi:nodetypes="ccccccccccccccccc" />
    </g>
    <g
       id="g3610"
       transform="matrix(2.0000005,0,0,2.0000005,-287.00016,-412.00011)">
      <path
         d="m 318.88255,250.22948 c -5.18155,2.52455 -10.51306,4.89341 -16.17311,6.15568 -1.82467,-0.009 -0.92431,-2.35055 -0.62968,-3.41134 1.41541,-4.50678 3.61013,-8.72616 5.69722,-12.95712 0.82637,-1.33678 1.41252,-3.17903 3.07876,-3.6934 1.61839,-0.17724 2.68177,1.36533 3.52006,2.49065 3.42783,5.17409 6.66494,10.48356 9.50398,15.99284 0.71867,1.43626 1.42333,2.87864 2.12022,4.3256 -2.072,-8.33679 -4.86267,-16.60794 -9.35977,-24.00909 -1.00801,-1.46069 -1.92578,-3.04654 -3.28534,-4.22242 -1.32533,-1.00326 -2.95556,0.0769 -3.93556,1.04812 -3.07813,3.04242 -4.95305,7.0124 -6.79015,10.84561 -2.14263,4.53669 -3.54838,9.37255 -4.58033,14.2574 -0.3618,1.64507 1.3551,2.83927 2.88089,2.32872 4.22612,-0.8663 8.19762,-2.68344 11.93546,-4.76871 2.15413,-1.24664 4.22567,-2.66221 6.01782,-4.38344 z"
         style="opacity:0.2;fill:#000000;stroke-width:1.54088"
         id="path3588" />
      <path
         d="m 318.88255,249.72948 c -5.18155,2.52455 -10.51306,4.89341 -16.17311,6.15568 -1.82467,-0.009 -0.92431,-2.35055 -0.62968,-3.41134 1.41541,-4.50678 3.61013,-8.72616 5.69722,-12.95712 0.82637,-1.33678 1.41252,-3.17903 3.07876,-3.6934 1.61839,-0.17724 2.68177,1.36533 3.52006,2.49065 3.42783,5.17409 6.66494,10.48356 9.50398,15.99284 0.71867,1.43626 1.42333,2.87864 2.12022,4.3256 -2.072,-8.33679 -4.86267,-16.60794 -9.35977,-24.00909 -1.00801,-1.46069 -1.92578,-3.04654 -3.28534,-4.22242 -1.32533,-1.00326 -2.95556,0.0769 -3.93556,1.04812 -3.07813,3.04242 -4.95305,7.0124 -6.79015,10.84561 -2.14263,4.53669 -3.54838,9.37255 -4.58033,14.2574 -0.3618,1.64507 1.3551,2.83927 2.88089,2.32872 4.22612,-0.8663 8.19762,-2.68344 11.93546,-4.76871 2.15413,-1.24664 4.22567,-2.66221 6.01782,-4.38344 z"
         style="fill:#ffffff;stroke-width:1.54088"
         id="path3560" />
    </g>
    <g
       id="g3420"
       transform="matrix(4,0,0,4,-1136,-532)">
      <path
         d="m 328.84904,179.35242 c -6.66203,3.30802 -13.51687,6.41204 -20.79411,8.06605 -2.34601,-0.012 -1.18841,-3.08002 -0.8096,-4.47003 1.81983,-5.90543 4.64162,-11.43426 7.32504,-16.97829 1.06248,-1.75163 1.81611,-4.16562 3.95842,-4.83963 2.08081,-0.23224 3.44802,1.78905 4.52582,3.26362 4.40723,6.77984 8.56925,13.73709 12.21947,20.95611 0.92401,1.88203 1.83001,3.77202 2.72602,5.66804 -2.66402,-10.92406 -6.25204,-21.7621 -12.03407,-31.46018 -1.29601,-1.91401 -2.47601,-3.99202 -4.22402,-5.53283 -1.70401,-1.3146 -3.80003,0.1008 -5.06003,1.37341 -3.95762,3.98662 -6.36824,9.18865 -8.73025,14.21148 -2.75481,5.94463 -4.56222,12.28129 -5.88903,18.6821 -0.46516,2.15563 1.74229,3.72042 3.70402,3.05144 5.43363,-1.13517 10.53986,-3.51624 15.34568,-6.24864 2.76962,-1.63355 5.43303,-3.48844 7.73724,-5.74385 z"
         style="opacity:0.2;fill:#000000;stroke-width:2.00001"
         id="path3398" />
      <path
         d="m 328.84904,178.85242 c -6.66203,3.30802 -13.51687,6.41204 -20.79411,8.06605 -2.34601,-0.012 -1.18841,-3.08002 -0.8096,-4.47003 1.81983,-5.90543 4.64162,-11.43426 7.32504,-16.97829 1.06248,-1.75163 1.81611,-4.16562 3.95842,-4.83963 2.08081,-0.23224 3.44802,1.78905 4.52582,3.26362 4.40723,6.77984 8.56925,13.73709 12.21947,20.95611 0.92401,1.88203 1.83001,3.77202 2.72602,5.66804 -2.66402,-10.92406 -6.25204,-21.7621 -12.03407,-31.46018 -1.29601,-1.91401 -2.47601,-3.99202 -4.22402,-5.53283 -1.70401,-1.3146 -3.80003,0.1008 -5.06003,1.37341 -3.95762,3.98662 -6.36824,9.18865 -8.73025,14.21148 -2.75481,5.94463 -4.56222,12.28129 -5.88903,18.6821 -0.46516,2.15563 1.74229,3.72042 3.70402,3.05144 5.43363,-1.13517 10.53986,-3.51624 15.34568,-6.24864 2.76962,-1.63355 5.43303,-3.48844 7.73724,-5.74385 z"
         style="fill:#ffffff;stroke-width:2.00001"
         id="path3370" />
    </g>
  </g>
  <g
     id="Highlights">
    <path
       id="rect653"
       style="opacity:0.2;fill:#ffffff"
       d="M 80,44 C 53.408027,44 32,65.408027 32,92 v 2 C 32,67.408027 53.408027,46 80,46 h 128 c 26.59197,0 48,21.408027 48,48 V 92 C 256,65.408027 234.59197,44 208,44 Z"
       sodipodi:nodetypes="sscsscsss" />
    <path
       id="rect773"
       style="opacity:0.2;fill:#ffffff"
       d="m 312,34 c -9.97199,0 -18,8.02801 -18,18 v 1 c 0,-9.97199 8.02801,-18 18,-18 h 48 c 9.97199,0 18,8.02801 18,18 v -1 c 0,-9.97199 -8.02801,-18 -18,-18 z" />
    <path
       id="rect1135"
       style="opacity:0.2;fill:#ffffff;fill-opacity:1"
       d="m 304,144 c -6.64799,0 -12,5.35201 -12,12 v 1 c 0,-6.64799 5.35201,-12 12,-12 h 32 c 6.64799,0 12,5.35201 12,12 v -1 c 0,-6.64799 -5.35201,-12 -12,-12 z" />
    <path
       id="rect1265"
       style="opacity:0.2;fill:#ffffff;fill-opacity:1"
       d="m 300,223 c -4.986,0 -9,4.014 -9,9 v 1 c 0,-4.986 4.014,-9 9,-9 h 24 c 4.986,0 9,4.014 9,9 v -1 c 0,-4.986 -4.014,-9 -9,-9 z" />
    <path
       id="rect1368"
       style="opacity:0.2;fill:#ffffff;fill-opacity:1"
       d="m 424,54 c -3.324,0 -6,2.676003 -6,6 v 1 c 0,-3.323997 2.676,-6 6,-6 h 16 c 3.324,0 6,2.676003 6,6 v -1 c 0,-3.323997 -2.676,-6 -6,-6 z" />
    <path
       id="rect1402"
       style="opacity:0.2;fill:#ffffff;fill-opacity:1"
       d="m 420,140 c -2.216,0 -4,1.784 -4,4 v 1 c 0,-2.216 1.784,-4 4,-4 h 8 c 2.216,0 4,1.784 4,4 v -1 c 0,-2.216 -1.784,-4 -4,-4 z" />
    <path
       id="rect1436"
       style="opacity:0.2;fill:#ffffff;fill-opacity:1"
       d="m 422,102 c -2.216,0 -4,1.784 -4,4 v 1 c 0,-2.216 1.784,-4 4,-4 h 12 c 2.216,0 4,1.784 4,4 v -1 c 0,-2.216 -1.784,-4 -4,-4 z" />
  </g>
</svg>
