<?xml version="1.0" encoding="UTF-8" standalone="no"?>
<!-- Created with Inkscape (http://www.inkscape.org/) -->

<svg
   width="480"
   height="300"
   viewBox="0 0 480 300"
   version="1.1"
   id="svg5"
   inkscape:version="1.2.2 (1:1.2.2+202305151914+b0a8486541)"
   sodipodi:docname="addressbook.svg"
   xmlns:inkscape="http://www.inkscape.org/namespaces/inkscape"
   xmlns:sodipodi="http://sodipodi.sourceforge.net/DTD/sodipodi-0.dtd"
   xmlns="http://www.w3.org/2000/svg"
   xmlns:svg="http://www.w3.org/2000/svg">
  <sodipodi:namedview
     id="namedview7"
     pagecolor="#888888"
     bordercolor="#000000"
     borderopacity="0.25"
     inkscape:showpageshadow="true"
     inkscape:pageopacity="0"
     inkscape:pagecheckerboard="0"
     inkscape:deskcolor="#888888"
     inkscape:document-units="px"
     showgrid="false"
     showborder="false"
     inkscape:zoom="2.6866667"
     inkscape:cx="240.07444"
     inkscape:cy="150"
     inkscape:window-width="1920"
     inkscape:window-height="1008"
     inkscape:window-x="0"
     inkscape:window-y="0"
     inkscape:window-maximized="1"
     inkscape:current-layer="svg5" />
  <defs
     id="defs2" />
  <g
     id="Baseplate"
     style="display:none">
    <text
       y="19.774782"
       xml:space="preserve"
       x="15.006946"
       style="font-style:normal;font-variant:normal;font-weight:normal;font-stretch:normal;line-height:0%;font-family:'DejaVu Sans';-inkscape-font-specification:'DejaVu Sans';display:inline;fill:#000000;fill-opacity:1;stroke:none;enable-background:new"
       inkscape:label="context"
       id="context"><tspan
         style="font-style:normal;font-variant:normal;font-weight:normal;font-stretch:normal;font-size:18px;line-height:1.25;font-family:'DejaVu Sans';-inkscape-font-specification:'DejaVu Sans'"
         y="19.774782"
         x="15.006946"
         sodipodi:role="line"
         id="tspan3933">apps</tspan></text>
    <text
       y="19.774782"
       xml:space="preserve"
       x="122.48839"
       style="font-style:normal;font-variant:normal;font-weight:bold;font-stretch:normal;line-height:0%;font-family:'DejaVu Sans';-inkscape-font-specification:'DejaVu Sans Bold';text-align:start;writing-mode:lr-tb;text-anchor:start;display:inline;fill:#000000;fill-opacity:1;stroke:none;enable-background:new"
       inkscape:label="icon-name"
       id="icon-name"><tspan
         style="font-style:normal;font-variant:normal;font-weight:bold;font-stretch:normal;font-size:18px;line-height:1.25;font-family:'DejaVu Sans';-inkscape-font-specification:'DejaVu Sans Bold'"
         y="19.774782"
         x="122.48839"
         sodipodi:role="line"
         id="tspan3937">addressbook</tspan></text>
    <rect
       style="fill:#ffffff"
       id="256x256"
       width="256"
       height="256"
       x="16"
       y="28" />
    <rect
       style="fill:#ffffff"
       id="96x96"
       width="96"
       height="96"
       x="288"
       y="28" />
    <rect
       style="fill:#ffffff"
       id="64x64"
       width="64"
       height="64"
       x="288"
       y="140" />
    <rect
       style="fill:#ffffff"
       id="48x48"
       width="48"
       height="48"
       x="288"
       y="220" />
    <rect
       style="fill:#ffffff"
       id="32x32"
       width="32"
       height="32"
       x="416"
       y="52" />
    <rect
       style="fill:#ffffff"
       id="24x24"
       width="24"
       height="24"
       x="416"
       y="100" />
    <rect
       style="fill:#ffffff"
       id="22x22"
       width="22"
       height="22"
       x="417"
       y="101" />
    <rect
       style="fill:#ffffff"
       id="16x16"
       width="16"
       height="16"
       x="416"
       y="140" />
  </g>
  <g
     id="Shadow">
    <rect
       style="opacity:0.2;fill:#000000"
       id="rect651"
       width="224"
       height="224"
       x="32"
       y="46"
       ry="48" />
    <rect
       style="opacity:0.2;fill:#000000"
       id="rect769"
       width="84"
       height="85"
       x="294"
       y="34"
       ry="18" />
    <rect
       style="opacity:0.2;fill:#000000;fill-opacity:1"
       id="rect1131"
       width="56"
       height="56"
       x="292"
       y="145"
       ry="12" />
    <rect
       style="opacity:0.2;fill:#000000;fill-opacity:1"
       id="rect1261"
       width="42"
       height="42"
       x="291"
       y="224"
       ry="9" />
    <rect
       style="opacity:0.2;fill:#000000;fill-opacity:1"
       id="rect1364"
       width="28"
       height="29"
       x="418"
       y="54"
       ry="6" />
    <rect
       style="opacity:0.2;fill:#000000;fill-opacity:1"
       id="rect1398"
       width="16"
       height="16"
       x="416"
       y="141"
       ry="4" />
    <rect
       style="opacity:0.2;fill:#000000;fill-opacity:1"
       id="rect1432"
       width="20"
       height="20"
       x="418"
       y="103"
       ry="4" />
  </g>
  <g
     id="Background">
    <rect
       style="fill:#55558d;fill-opacity:1"
       id="rect597"
       width="224"
       height="224"
       x="32"
       y="44"
       ry="48" />
    <rect
       style="opacity:1;fill:#55558d;fill-opacity:1"
       id="rect771"
       width="84"
       height="84"
       x="294"
       y="34"
       ry="18" />
    <rect
       style="opacity:1;fill:#55558d;fill-opacity:1"
       id="rect1133"
       width="56"
       height="56"
       x="292"
       y="144"
       ry="12" />
    <rect
       style="opacity:1;fill:#55558d;fill-opacity:1"
       id="rect1263"
       width="42"
       height="42"
       x="291"
       y="223"
       ry="9" />
    <rect
       style="opacity:1;fill:#55558d;fill-opacity:1"
       id="rect1366"
       width="28"
       height="28"
       x="418"
       y="54"
       ry="6" />
    <rect
       style="opacity:1;fill:#55558d;fill-opacity:1"
       id="rect1400"
       width="16"
       height="16"
       x="416"
       y="140"
       ry="4" />
    <rect
       style="opacity:1;fill:#55558d;fill-opacity:1"
       id="rect1434"
       width="20"
       height="20"
       x="418"
       y="102"
       ry="4" />
  </g>
  <g
     id="g1124">
    <g
       id="g1941">
      <path
         d="m 424,144.5002 c -2.2091,0 -3.9999,1.7908 -3.9999,3.9999 0,2.2089 1.7908,3.9999 3.9999,3.9999 h 2.4999 c 0,0 0.4687,0 0.5,-0.5 0,-0.5 -0.5,-0.5 -0.5,-0.5 H 424 c -1.6568,0 -2.9999,-1.3431 -2.9999,-2.9999 0,-1.6568 1.3431,-2.9999 2.9999,-2.9999 1.6568,0 2.9999,1.3431 2.9999,2.9999 v 0.5 c 0,0.2761 -0.2239,0.5 -0.5,0.5 -0.2761,0 -0.5,-0.2239 -0.5,-0.5 v -0.5 c 0,-1.1045 -0.8954,-2 -2,-2 -1.1045,0 -2,0.8954 -2,2 0,1.1045 0.8954,1.9999 2,1.9999 0.5231,0 0.9951,-0.2053 1.3515,-0.5341 0.285,0.3385 0.7055,0.534 1.1485,0.534 0.8282,0 1.5002,-0.6716 1.5002,-1.5 v -0.5 c 0,-2.2089 -1.7912,-3.9999 -4.0002,-3.9999 z m 0,2.9999 c 0.5523,0 1,0.4477 1,1 0,0.5522 -0.4477,0.9999 -1,0.9999 -0.5523,0 -1,-0.4477 -1,-1 0,-0.5523 0.4477,-1 1,-1 z"
         style="fill:#000000;opacity:0.2"
         id="path1627" />
      <path
         d="m 423.9999,144.0002 c -2.2091,0 -3.9999,1.7908 -3.9999,3.9999 0,2.2089 1.7908,3.9999 3.9999,3.9999 h 2.4999 c 0,0 0.4687,0 0.5,-0.5 0,-0.5 -0.5,-0.5 -0.5,-0.5 h -2.4999 C 422.3431,151 421,149.6569 421,148.0001 c 0,-1.6568 1.3431,-2.9999 2.9999,-2.9999 1.6568,0 2.9999,1.3431 2.9999,2.9999 v 0.5 c 0,0.2761 -0.2239,0.5 -0.5,0.5 -0.2761,0 -0.5,-0.2239 -0.5,-0.5 v -0.5 c 0,-1.1045 -0.8954,-2 -2,-2 -1.1045,0 -2,0.8954 -2,2 0,1.1045 0.8954,1.9999 2,1.9999 0.5231,0 0.9951,-0.2053 1.3515,-0.5341 0.285,0.3385 0.7055,0.534 1.1485,0.534 0.8282,0 1.5002,-0.6716 1.5002,-1.5 v -0.5 C 428,145.791 426.2088,144 423.9998,144 Z m 0,2.9999 c 0.5523,0 1,0.4477 1,1 0,0.5522 -0.4477,0.9999 -1,0.9999 -0.5523,0 -1,-0.4477 -1,-1 0,-0.5523 0.4477,-1 1,-1 z"
         style="fill:#ffffff"
         id="path1595"
         sodipodi:nodetypes="csscccssssssssssscssscccssscc" />
    </g>
    <g
       id="g1986">
      <path
         d="m 428,106.5 c -3.31371,0 -6,2.68629 -6,6 0,3.31371 2.68629,6 6,6 h 4 c 0.277,0 0.5,-0.223 0.5,-0.5 0,-0.277 -0.223,-0.5 -0.5,-0.5 h -4 c -2.76142,0 -5,-2.23858 -5,-5 0,-2.76142 2.23858,-5 5,-5 2.76142,0 5,2.23858 5,5 v 1 c 0,0.55228 -0.44772,1 -1,1 -0.55228,0 -1,-0.44772 -1,-1 v -1 c 0,-1.65685 -1.34315,-3 -3,-3 -1.65685,0 -3,1.34315 -3,3 0,1.65685 1.34315,3 3,3 0.86427,-2.7e-4 1.68643,-0.37327 2.25586,-1.02344 0.35338,0.63159 1.02041,1.02299 1.74414,1.02344 1.10457,0 2,-0.89543 2,-2 v -1 c 0,-3.31371 -2.68629,-6 -6,-6 z m 0,4 c 1.10457,0 2,0.89543 2,2 0,1.10457 -0.89543,2 -2,2 -1.10457,0 -2,-0.89543 -2,-2 0,-1.10457 0.89543,-2 2,-2 z"
         style="fill:#000000;fill-opacity:1;stroke-linecap:round;stroke-linejoin:round;opacity:0.2"
         id="path3472" />
      <path
         id="path3204"
         style="opacity:1;fill:#ffffff;fill-opacity:1;stroke-linecap:round;stroke-linejoin:round"
         d="m 428,106 c -3.31371,0 -6,2.68629 -6,6 0,3.31371 2.68629,6 6,6 h 4 c 0.277,0 0.5,-0.223 0.5,-0.5 0,-0.277 -0.223,-0.5 -0.5,-0.5 h -4 c -2.76142,0 -5,-2.23858 -5,-5 0,-2.76142 2.23858,-5 5,-5 2.76142,0 5,2.23858 5,5 v 1 c 0,0.55228 -0.44772,1 -1,1 -0.55228,0 -1,-0.44772 -1,-1 v -1 c 0,-1.65685 -1.34315,-3 -3,-3 -1.65685,0 -3,1.34315 -3,3 0,1.65685 1.34315,3 3,3 0.86427,-2.7e-4 1.68643,-0.37327 2.25586,-1.02344 0.35338,0.63159 1.02041,1.02299 1.74414,1.02344 1.10457,0 2,-0.89543 2,-2 v -1 c 0,-3.31371 -2.68629,-6 -6,-6 z m 0,4 c 1.10457,0 2,0.89543 2,2 0,1.10457 -0.89543,2 -2,2 -1.10457,0 -2,-0.89543 -2,-2 0,-1.10457 0.89543,-2 2,-2 z"
         sodipodi:nodetypes="sssssssssssssssscccssssssss" />
    </g>
    <g
       id="g1116">
      <path
         d="m 431.99995,61.0004 c -4.4183,0 -8,3.5817 -8,8 0,4.4183 3.5817,8 8,8 h 5 c 0,0 0.9375,0 1,-1 0,-1 -1,-1 -1,-1 h -5 c -3.3137,0 -6,-2.6863 -6,-6 0,-3.3137 2.6863,-6 6,-6 3.3137,0 6,2.6863 6,6 v 1 c 0,0.55228 -0.44772,1 -1,1 -0.55228,0 -1,-0.44772 -1,-1 v -1 c 0,-2.2091 -1.7909,-4 -4,-4 -2.2091,0 -4,1.7909 -4,4 0,2.2091 1.7909,4 4,4 1.0462,0 1.9903,-0.4109 2.7031,-1.0684 0.57,0.677 1.411,1.068 2.297,1.068 1.6568,0 3,-1.3432 3,-3 v -1 c 0,-4.418 -3.582,-8 -8,-8 z m 0,6 c 1.1046,0 2,0.89543 2,2 0,1.10457 -0.89543,2 -2,2 -1.10457,0 -2,-0.89543 -2,-2 0,-1.10457 0.89543,-2 2,-2 z"
         style="fill:#000000;opacity:0.2"
         id="path1094" />
      <path
         d="m 431.99995,60.0002 c -4.4183,0 -8,3.5817 -8,8 0,4.4183 3.5817,8 8,8 h 5 c 0,0 0.9375,0 1,-1 0,-1 -1,-1 -1,-1 h -5 c -3.3137,0 -6,-2.6863 -6,-6 0,-3.3137 2.6863,-6 6,-6 3.3137,0 6,2.6863 6,6 v 1 c 0,0.55228 -0.44772,1 -1,1 -0.55228,0 -1,-0.44772 -1,-1 v -1 c 0,-2.2091 -1.7909,-4 -4,-4 -2.2091,0 -4,1.7909 -4,4 0,2.2091 1.7909,4 4,4 1.0462,0 1.9903,-0.4109 2.7031,-1.0684 0.57,0.677 1.411,1.068 2.297,1.068 1.6568,0 3,-1.3432 3,-3 v -1 c 0,-4.418 -3.582,-8 -8,-8 z m 0,6 c 1.1046,0 2,0.89543 2,2 0,1.10457 -0.89543,2 -2,2 -1.10457,0 -2,-0.89543 -2,-2 0,-1.10457 0.89543,-2 2,-2 z"
         style="fill:#ffffff"
         id="path1062"
         sodipodi:nodetypes="csscccssssssssssscsssccsssss" />
    </g>
    <g
       id="g1604">
      <path
         d="m 312,233 c -6.627,0 -12,5.373 -12,12 0,6.627 5.373,12 12,12 h 7.5 c 0,0 1.4063,0 1.5,-1.5 0,-1.5 -1.5,-1.5 -1.5,-1.5 H 312 c -4.9706,0 -9,-4.0294 -9,-9 0,-4.9706 4.0294,-9 9,-9 4.971,0 9,4.029 9,9 v 1.5 c 0,0.828 -0.672,1.5 -1.5,1.5 -0.828,0 -1.5,-0.672 -1.5,-1.5 V 245 c 0,-3.314 -2.686,-6 -6,-6 -3.314,0 -6,2.686 -6,6 0,3.314 2.686,6 6,6 1.569,0 2.986,-0.616 4.055,-1.603 0.855,1.017 2.116,1.604 3.445,1.603 2.485,0 4.5,-2.015 4.5,-4.5 V 245 c 0,-6.627 -5.373,-12 -12,-12 z m 0,9 c 1.6568,0 3,1.3432 3,3 0,1.657 -1.343,3 -3,3 -1.657,0 -3,-1.343 -3,-3 0,-1.6568 1.3432,-3 3,-3 z"
         style="fill:#000000;opacity:0.2"
         id="path1281"
         sodipodi:nodetypes="ssscccsssssssssssccssssssss" />
      <path
         d="m 312,232 c -6.627,0 -12,5.373 -12,12 0,6.627 5.373,12 12,12 h 7.5 c 0,0 1.4063,0 1.5,-1.5 0,-1.5 -1.5,-1.5 -1.5,-1.5 H 312 c -4.9706,0 -9,-4.0294 -9,-9 0,-4.9706 4.0294,-9 9,-9 4.971,0 9,4.029 9,9 v 1.5 c 0,0.828 -0.672,1.5 -1.5,1.5 -0.828,0 -1.5,-0.672 -1.5,-1.5 V 244 c 0,-3.314 -2.686,-6 -6,-6 -3.314,0 -6,2.686 -6,6 0,3.314 2.686,6 6,6 1.569,0 2.986,-0.616 4.055,-1.603 0.855,1.017 2.116,1.604 3.445,1.603 2.485,0 4.5,-2.015 4.5,-4.5 V 244 c 0,-6.627 -5.373,-12 -12,-12 z m 0,9 c 1.6568,0 3,1.3432 3,3 0,1.657 -1.343,3 -3,3 -1.657,0 -3,-1.343 -3,-3 0,-1.6568 1.3432,-3 3,-3 z"
         style="fill:#ffffff"
         id="path1309"
         sodipodi:nodetypes="ssscccsssssssssssccssssssss" />
    </g>
    <g
       id="g1071">
      <path
         d="m 319.9999,157.0008 c -8.83647,0 -15.99977,7.1633 -15.99977,15.99977 0,8.83647 7.1633,15.99977 15.99977,15.99977 h 9.99986 c 0,0 1.87497,0 1.99997,-1.99997 0,-1.99997 -1.99997,-1.99997 -1.99997,-1.99997 h -9.99986 c -6.6273,0 -11.99983,-5.37252 -11.99983,-11.99983 0,-6.62731 5.37253,-11.99983 11.99983,-11.99983 6.62731,0 11.99983,5.37252 11.99983,11.99983 v 1.99997 c 0,1.10455 -0.89543,1.99997 -1.99997,1.99997 -1.10455,0 -1.99997,-0.89542 -1.99997,-1.99997 v -1.99997 c 0,-4.41814 -3.58175,-7.99989 -7.99989,-7.99989 -4.41814,0 -7.99988,3.58175 -7.99988,7.99989 0,4.41814 3.58174,7.99989 7.99988,7.99989 2.09237,0 3.98054,-0.82179 5.40612,-2.13677 1.13999,1.35398 2.82196,2.13597 4.59394,2.13597 3.31355,0 5.99991,-2.68637 5.99991,-5.99992 v -1.99997 C 335.99987,164.1639 328.83597,157 320.0001,157 Z m 0,11.99983 c 2.20917,0 3.99994,1.79083 3.99994,3.99994 0,2.20911 -1.79083,3.99994 -3.99994,3.99994 -2.20911,0 -3.99994,-1.79083 -3.99994,-3.99994 0,-2.20911 1.79083,-3.99994 3.99994,-3.99994 z"
         style="fill:#000000;opacity:0.2"
         id="path887" />
      <path
         d="m 319.9999,156.0008 c -8.83647,0 -15.99977,7.1633 -15.99977,15.99977 0,8.83647 7.1633,15.99977 15.99977,15.99977 h 9.99986 c 0,0 1.87497,0 1.99997,-1.99997 0,-1.99997 -1.99997,-1.99997 -1.99997,-1.99997 h -9.99986 c -6.6273,0 -11.99983,-5.37252 -11.99983,-11.99983 0,-6.62731 5.37253,-11.99983 11.99983,-11.99983 6.62731,0 11.99983,5.37252 11.99983,11.99983 v 1.99997 c 0,1.10455 -0.89543,1.99997 -1.99997,1.99997 -1.10455,0 -1.99997,-0.89542 -1.99997,-1.99997 v -1.99997 c 0,-4.41814 -3.58175,-7.99989 -7.99989,-7.99989 -4.41814,0 -7.99988,3.58175 -7.99988,7.99989 0,4.41814 3.58174,7.99989 7.99988,7.99989 2.09237,0 3.98054,-0.82179 5.40612,-2.13677 1.13999,1.35398 2.82196,2.13597 4.59394,2.13597 3.31355,0 5.99991,-2.68637 5.99991,-5.99992 v -1.99997 C 335.99987,163.1639 328.83597,156 320.0001,156 Z m 0,11.99983 c 2.20917,0 3.99994,1.79083 3.99994,3.99994 0,2.20911 -1.79083,3.99994 -3.99994,3.99994 -2.20911,0 -3.99994,-1.79083 -3.99994,-3.99994 0,-2.20911 1.79083,-3.99994 3.99994,-3.99994 z"
         style="fill:#ffffff"
         id="path859"
         sodipodi:nodetypes="csscccssssssssssscsssccsssss" />
    </g>
    <g
       id="g1733">
      <path
         d="m 336,53 c -13.254,0 -24,10.746 -24,24 0,13.254 10.746,24 24,24 h 15 c 0,0 2.8126,0 3,-3 0,-3 -3,-3 -3,-3 h -15 c -9.9412,0 -18,-8.0588 -18,-18 0,-9.9412 8.0588,-18 18,-18 9.942,0 18,8.058 18,18 v 3 c 0,1.656 -1.344,3 -3,3 -1.656,0 -3,-1.344 -3,-3 v -3 c 0,-6.628 -5.372,-12 -12,-12 -6.628,0 -12,5.372 -12,12 0,6.628 5.372,12 12,12 3.138,0 5.972,-1.232 8.11,-3.206 1.71,2.034 4.232,3.208 6.89,3.206 4.97,0 9,-4.03 9,-9 V 77 C 360,63.746 349.254,53 336,53 Z m 0,18 c 3.3136,0 6,2.6864 6,6 0,3.314 -2.686,6 -6,6 -3.314,0 -6,-2.686 -6,-6 0,-3.3136 2.6864,-6 6,-6 z"
         style="fill:#000000;stroke-width:2;opacity:0.2"
         id="path1683" />
      <path
         d="m 336,52 c -13.254,0 -24,10.746 -24,24 0,13.254 10.746,24 24,24 h 15 c 0,0 2.8126,0 3,-3 0,-3 -3,-3 -3,-3 h -15 c -9.9412,0 -18,-8.0588 -18,-18 0,-9.9412 8.0588,-18 18,-18 9.942,0 18,8.058 18,18 v 3 c 0,1.656 -1.344,3 -3,3 -1.656,0 -3,-1.344 -3,-3 v -3 c 0,-6.628 -5.372,-12 -12,-12 -6.628,0 -12,5.372 -12,12 0,6.628 5.372,12 12,12 3.138,0 5.972,-1.232 8.11,-3.206 1.71,2.034 4.232,3.208 6.89,3.206 4.97,0 9,-4.03 9,-9 V 76 C 360,62.746 349.254,52 336,52 Z m 0,18 c 3.3136,0 6,2.6864 6,6 0,3.314 -2.686,6 -6,6 -3.314,0 -6,-2.686 -6,-6 0,-3.3136 2.6864,-6 6,-6 z"
         style="fill:#ffffff;stroke-width:2"
         id="path1655"
         sodipodi:nodetypes="ssscccsssssssssssccssssssss" />
    </g>
    <g
       id="g1990">
      <path
         d="M 143.9996,94.0032 C 108.65343,94.0032 80,122.65663 80,158.0028 c 0,35.34617 28.65343,63.99964 63.9996,63.99964 h 39.99976 c 0,0 7.49995,0 7.99995,-7.99994 0,-7.99995 -7.99995,-7.99995 -7.99995,-7.99995 H 143.9996 c -26.50942,0 -47.99971,-21.49025 -47.99971,-47.99971 0,-26.50946 21.49029,-47.99971 47.99971,-47.99971 26.50946,0 47.99971,21.49025 47.99971,47.99971 v 7.99995 c 0,4.41819 -3.58175,7.99994 -7.99995,7.99994 -4.41823,0 -7.99994,-3.58175 -7.99994,-7.99994 v -7.99995 c 0,-17.6727 -14.32712,-31.99982 -31.99982,-31.99982 -17.6727,0 -31.99978,14.32712 -31.99978,31.99982 0,17.6727 14.32708,31.99982 31.99978,31.99982 8.36955,0 15.92229,-3.28719 21.62466,-8.54715 4.55999,5.41596 11.28793,8.54391 18.37591,8.54391 13.2543,0 23.99983,-10.74557 23.99983,-23.99988 V 157.9996 C 208,122.65583 179.34417,94 144.0004,94 Z m 0,47.99971 c 8.83675,0 15.99989,7.16338 15.99989,15.99989 0,8.83655 -7.16338,15.99993 -15.99989,15.99993 -8.83651,0 -15.99989,-7.16338 -15.99989,-15.99993 0,-8.83651 7.16338,-15.99989 15.99989,-15.99989 z"
         style="fill:#000000;stroke-width:4.00003;opacity:0.2"
         id="path1711"
         sodipodi:nodetypes="csscccssssssssssscsssccsssss" />
      <path
         d="M 143.9996,92.0032 C 108.65343,92.0032 80,120.65663 80,156.0028 c 0,35.34617 28.65343,63.99964 63.9996,63.99964 h 39.99976 c 0,0 7.49995,0 7.99995,-7.99994 0,-7.99995 -7.99995,-7.99995 -7.99995,-7.99995 H 143.9996 c -26.50942,0 -47.99971,-21.49025 -47.99971,-47.99971 0,-26.50946 21.49029,-47.99971 47.99971,-47.99971 26.50946,0 47.99971,21.49025 47.99971,47.99971 v 7.99995 c 0,4.41819 -3.58175,7.99994 -7.99995,7.99994 -4.41823,0 -7.99994,-3.58175 -7.99994,-7.99994 v -7.99995 c 0,-17.6727 -14.32712,-31.99982 -31.99982,-31.99982 -17.6727,0 -31.99978,14.32712 -31.99978,31.99982 0,17.6727 14.32708,31.99982 31.99978,31.99982 8.36955,0 15.92229,-3.28719 21.62466,-8.54715 4.55999,5.41596 11.28793,8.54391 18.37591,8.54391 13.2543,0 23.99983,-10.74557 23.99983,-23.99988 V 155.9996 C 208,120.65583 179.34417,92 144.0004,92 Z m 0,47.99971 c 8.83675,0 15.99989,7.16338 15.99989,15.99989 0,8.83655 -7.16338,15.99993 -15.99989,15.99993 -8.83651,0 -15.99989,-7.16338 -15.99989,-15.99993 0,-8.83651 7.16338,-15.99989 15.99989,-15.99989 z"
         style="fill:#ffffff;stroke-width:4.00003"
         id="path1743" />
    </g>
  </g>
  <g
     id="Highlights">
    <path
       id="rect653"
       style="opacity:0.2;fill:#ffffff"
       d="M 80,44 C 53.408027,44 32,65.408027 32,92 v 2 C 32,67.408027 53.408027,46 80,46 h 128 c 26.59197,0 48,21.408027 48,48 V 92 C 256,65.408027 234.59197,44 208,44 Z"
       sodipodi:nodetypes="sscsscsss" />
    <path
       id="rect773"
       style="opacity:0.2;fill:#ffffff"
       d="m 312,34 c -9.97199,0 -18,8.02801 -18,18 v 1 c 0,-9.97199 8.02801,-18 18,-18 h 48 c 9.97199,0 18,8.02801 18,18 v -1 c 0,-9.97199 -8.02801,-18 -18,-18 z" />
    <path
       id="rect1135"
       style="opacity:0.2;fill:#ffffff;fill-opacity:1"
       d="m 304,144 c -6.64799,0 -12,5.35201 -12,12 v 1 c 0,-6.64799 5.35201,-12 12,-12 h 32 c 6.64799,0 12,5.35201 12,12 v -1 c 0,-6.64799 -5.35201,-12 -12,-12 z" />
    <path
       id="rect1265"
       style="opacity:0.2;fill:#ffffff;fill-opacity:1"
       d="m 300,223 c -4.986,0 -9,4.014 -9,9 v 1 c 0,-4.986 4.014,-9 9,-9 h 24 c 4.986,0 9,4.014 9,9 v -1 c 0,-4.986 -4.014,-9 -9,-9 z" />
    <path
       id="rect1368"
       style="opacity:0.2;fill:#ffffff;fill-opacity:1"
       d="m 424,54 c -3.324,0 -6,2.676003 -6,6 v 1 c 0,-3.323997 2.676,-6 6,-6 h 16 c 3.324,0 6,2.676003 6,6 v -1 c 0,-3.323997 -2.676,-6 -6,-6 z" />
    <path
       id="rect1402"
       style="opacity:0.2;fill:#ffffff;fill-opacity:1"
       d="m 420,140 c -2.216,0 -4,1.784 -4,4 v 1 c 0,-2.216 1.784,-4 4,-4 h 8 c 2.216,0 4,1.784 4,4 v -1 c 0,-2.216 -1.784,-4 -4,-4 z" />
    <path
       id="rect1436"
       style="opacity:0.2;fill:#ffffff;fill-opacity:1"
       d="m 422,102 c -2.216,0 -4,1.784 -4,4 v 1 c 0,-2.216 1.784,-4 4,-4 h 12 c 2.216,0 4,1.784 4,4 v -1 c 0,-2.216 -1.784,-4 -4,-4 z" />
  </g>
</svg>
