<?xml version="1.0" encoding="UTF-8" standalone="no"?>
<!-- Created with Inkscape (http://www.inkscape.org/) -->

<svg
   width="480"
   height="300"
   viewBox="0 0 480 300"
   version="1.1"
   id="svg5"
   inkscape:version="1.2.2 (1:1.2.2+202305151914+b0a8486541)"
   sodipodi:docname="air.svg"
   xmlns:inkscape="http://www.inkscape.org/namespaces/inkscape"
   xmlns:sodipodi="http://sodipodi.sourceforge.net/DTD/sodipodi-0.dtd"
   xmlns="http://www.w3.org/2000/svg"
   xmlns:svg="http://www.w3.org/2000/svg">
  <sodipodi:namedview
     id="namedview7"
     pagecolor="#888888"
     bordercolor="#000000"
     borderopacity="0.25"
     inkscape:showpageshadow="true"
     inkscape:pageopacity="0"
     inkscape:pagecheckerboard="0"
     inkscape:deskcolor="#888888"
     inkscape:document-units="px"
     showgrid="false"
     showborder="false"
     inkscape:zoom="2.6866667"
     inkscape:cx="240.44665"
     inkscape:cy="150"
     inkscape:window-width="1920"
     inkscape:window-height="1008"
     inkscape:window-x="0"
     inkscape:window-y="0"
     inkscape:window-maximized="1"
     inkscape:current-layer="svg5" />
  <defs
     id="defs2" />
  <g
     id="Baseplate"
     style="display:none">
    <text
       y="19.774782"
       xml:space="preserve"
       x="15.006946"
       style="font-style:normal;font-variant:normal;font-weight:normal;font-stretch:normal;line-height:0%;font-family:'DejaVu Sans';-inkscape-font-specification:'DejaVu Sans';display:inline;fill:#000000;fill-opacity:1;stroke:none;enable-background:new"
       inkscape:label="context"
       id="context"><tspan
         style="font-style:normal;font-variant:normal;font-weight:normal;font-stretch:normal;font-size:18px;line-height:1.25;font-family:'DejaVu Sans';-inkscape-font-specification:'DejaVu Sans'"
         y="19.774782"
         x="15.006946"
         sodipodi:role="line"
         id="tspan3933">apps</tspan></text>
    <text
       y="19.774782"
       xml:space="preserve"
       x="122.48839"
       style="font-style:normal;font-variant:normal;font-weight:bold;font-stretch:normal;line-height:0%;font-family:'DejaVu Sans';-inkscape-font-specification:'DejaVu Sans Bold';text-align:start;writing-mode:lr-tb;text-anchor:start;display:inline;fill:#000000;fill-opacity:1;stroke:none;enable-background:new"
       inkscape:label="icon-name"
       id="icon-name"><tspan
         style="font-style:normal;font-variant:normal;font-weight:bold;font-stretch:normal;font-size:18px;line-height:1.25;font-family:'DejaVu Sans';-inkscape-font-specification:'DejaVu Sans Bold'"
         y="19.774782"
         x="122.48839"
         sodipodi:role="line"
         id="tspan3937">air</tspan></text>
    <rect
       style="fill:#ffffff"
       id="256x256"
       width="256"
       height="256"
       x="16"
       y="28" />
    <rect
       style="fill:#ffffff"
       id="96x96"
       width="96"
       height="96"
       x="288"
       y="28" />
    <rect
       style="fill:#ffffff"
       id="64x64"
       width="64"
       height="64"
       x="288"
       y="140" />
    <rect
       style="fill:#ffffff"
       id="48x48"
       width="48"
       height="48"
       x="288"
       y="220" />
    <rect
       style="fill:#ffffff"
       id="32x32"
       width="32"
       height="32"
       x="416"
       y="52" />
    <rect
       style="fill:#ffffff"
       id="24x24"
       width="24"
       height="24"
       x="416"
       y="100" />
    <rect
       style="fill:#ffffff"
       id="22x22"
       width="22"
       height="22"
       x="417"
       y="101" />
    <rect
       style="fill:#ffffff"
       id="16x16"
       width="16"
       height="16"
       x="416"
       y="140" />
  </g>
  <g
     id="Shadow">
    <rect
       style="opacity:0.2;fill:#000000"
       id="rect651"
       width="224"
       height="224"
       x="32"
       y="46"
       ry="48" />
    <rect
       style="opacity:0.2;fill:#000000"
       id="rect769"
       width="84"
       height="85"
       x="294"
       y="34"
       ry="18" />
    <rect
       style="opacity:0.2;fill:#000000;fill-opacity:1"
       id="rect1131"
       width="56"
       height="56"
       x="292"
       y="145"
       ry="12" />
    <rect
       style="opacity:0.2;fill:#000000;fill-opacity:1"
       id="rect1261"
       width="42"
       height="42"
       x="291"
       y="224"
       ry="9" />
    <rect
       style="opacity:0.2;fill:#000000;fill-opacity:1"
       id="rect1364"
       width="28"
       height="29"
       x="418"
       y="54"
       ry="6" />
    <rect
       style="opacity:0.2;fill:#000000;fill-opacity:1"
       id="rect1398"
       width="16"
       height="16"
       x="416"
       y="141"
       ry="4" />
    <rect
       style="opacity:0.2;fill:#000000;fill-opacity:1"
       id="rect1432"
       width="20"
       height="20"
       x="418"
       y="103"
       ry="4" />
  </g>
  <g
     id="Background">
    <rect
       style="fill:#c2352a;fill-opacity:1"
       id="rect597"
       width="224"
       height="224"
       x="32"
       y="44"
       ry="48" />
    <rect
       style="opacity:1;fill:#c2352a;fill-opacity:1"
       id="rect771"
       width="84"
       height="84"
       x="294"
       y="34"
       ry="18" />
    <rect
       style="opacity:1;fill:#c2352a;fill-opacity:1"
       id="rect1133"
       width="56"
       height="56"
       x="292"
       y="144"
       ry="12" />
    <rect
       style="opacity:1;fill:#c2352a;fill-opacity:1"
       id="rect1263"
       width="42"
       height="42"
       x="291"
       y="223"
       ry="9" />
    <rect
       style="opacity:1;fill:#c2352a;fill-opacity:1"
       id="rect1366"
       width="28"
       height="28"
       x="418"
       y="54"
       ry="6" />
    <rect
       style="opacity:1;fill:#c2352a;fill-opacity:1"
       id="rect1400"
       width="16"
       height="16"
       x="416"
       y="140"
       ry="4" />
    <rect
       style="opacity:1;fill:#c2352a;fill-opacity:1"
       id="rect1434"
       width="20"
       height="20"
       x="418"
       y="102"
       ry="4" />
  </g>
  <g
     id="g1477">
    <g
       id="g1472">
      <path
         d="m 425,143.50013 c -1.41421,0 -1.99997,3.00003 -2.52539,3.47461 -0.62588,0.60812 -1.03726,1.0731 -1.97461,1.52539 -0.74611,0.36001 -1.5,0.67157 -1.5,1.5 0,0.82843 0.67157,1.5 1.5,1.5 1.5,0 2.39945,-0.33091 3.5,0 0.60761,0.20672 1.55855,0.50656 2.12695,1.09766 0.41336,0.42986 0.77669,0.90125 1.37305,0.90234 0.008,6e-5 0.0156,6e-5 0.0234,0 h 0.002 c 0.8184,-0.0139 1.47468,-0.68139 1.47456,-1.5 -4.6e-4,-0.0137 -10e-4,-0.0274 -0.002,-0.041 l 0.002,-0.002 -0.002,-0.004 c -0.0132,-0.42222 -0.29109,-0.74208 -0.52534,-1.09371 -0.43005,-0.64551 -0.72477,-1.58037 -1.01563,-2.35937 -0.38467,-1.03027 -0.45703,-1.65797 -0.45703,-3 0,-0.10431 -0.0142,-0.18168 -0.0195,-0.27539 0.0121,-0.0743 0.0187,-0.14936 0.0195,-0.22461 5e-5,-0.33822 -0.1142,-0.66653 -0.32422,-0.93164 l -0.002,-0.002 c -0.17212,-0.25526 -0.39949,-0.40007 -0.66206,-0.47461 -0.16393,-0.0602 -0.3371,-0.0912 -0.51172,-0.0918 -0.0621,7.1e-4 -0.12404,0.005 -0.18555,0.0137 -0.10582,-0.002 -0.2074,-0.0137 -0.31445,-0.0137 z m -0.5,4 c 0.82843,0 1.5,0.67157 1.5,1.5 0,0.82843 -0.67157,1.5 -1.5,1.5 -0.82843,0 -1.5,-0.67157 -1.5,-1.5 0,-0.82843 0.67157,-1.5 1.5,-1.5 z"
         style="fill:#000000;opacity:0.2"
         id="path1450" />
      <path
         d="m 425.00002,143.00004 c -1.41421,0 -1.99997,3.00003 -2.52539,3.47461 -0.62588,0.60812 -1.03726,1.0731 -1.97461,1.52539 -0.74611,0.36001 -1.5,0.67157 -1.5,1.5 0,0.82843 0.67157,1.5 1.5,1.5 1.5,0 2.39945,-0.33091 3.5,0 0.60761,0.20672 1.55855,0.50656 2.12695,1.09766 0.41336,0.42986 0.77669,0.90125 1.37305,0.90234 0.008,6e-5 0.0156,6e-5 0.0234,0 h 0.002 c 0.8184,-0.0139 1.47468,-0.68139 1.47456,-1.5 -4.6e-4,-0.0137 -10e-4,-0.0274 -0.002,-0.041 l 0.002,-0.002 -0.002,-0.004 c -0.0132,-0.42222 -0.29109,-0.74208 -0.52534,-1.09371 -0.43005,-0.64551 -0.72477,-1.58037 -1.01563,-2.35937 -0.38467,-1.03027 -0.45703,-1.65797 -0.45703,-3 0,-0.10431 -0.0142,-0.18168 -0.0195,-0.27539 0.0121,-0.0743 0.0187,-0.14936 0.0195,-0.22461 5e-5,-0.33822 -0.1142,-0.66653 -0.32422,-0.93164 l -0.002,-0.002 c -0.17212,-0.25526 -0.39949,-0.40007 -0.66206,-0.47461 -0.16393,-0.0602 -0.3371,-0.0912 -0.51172,-0.0918 -0.0621,7.1e-4 -0.12404,0.005 -0.18555,0.0137 -0.10582,-0.002 -0.2074,-0.0137 -0.31445,-0.0137 z m -0.5,4 c 0.82843,0 1.5,0.67157 1.5,1.5 0,0.82843 -0.67157,1.5 -1.5,1.5 -0.82843,0 -1.5,-0.67157 -1.5,-1.5 0,-0.82843 0.67157,-1.5 1.5,-1.5 z"
         style="fill:#ffffff"
         id="path298"
         sodipodi:nodetypes="ccssscssssccccssscccccccccsssss" />
    </g>
    <g
       id="g3119">
      <path
         d="m 434.40802,115.20114 c -0.0408,-0.0553 -0.10557,-0.13299 -0.17843,-0.2077 -0.75799,-0.77785 -1.32413,-1.69628 -1.62912,-2.71355 -0.014,-0.0473 -0.028,-0.0946 -0.0405,-0.142 -0.0131,-0.0477 -0.0245,-0.0964 -0.0362,-0.14485 -0.24414,-1.03285 -0.21429,-2.11184 0.0544,-3.16397 0,0 0.041,-0.17371 0.0516,-0.24528 0.22585,-1.32942 -0.59257,-2.63626 -1.92041,-2.99226 -1.35384,-0.36271 -2.7414,0.39643 -3.18411,1.70584 -0.0183,0.0489 -0.0556,0.17229 -0.056,0.17414 -0.291,1.03142 -0.79656,1.96784 -1.51084,2.73441 -0.81142,0.8517 -1.84298,1.45727 -2.99954,1.76712 -1.40884,0.37742 -2.24583,1.82812 -1.86827,3.23754 0.37814,1.40912 1.82656,2.24611 3.2364,1.86812 1.05198,-0.26857 2.13097,-0.299 3.16425,-0.055 0.0481,0.012 0.0966,0.0239 0.14457,0.0369 0.0482,0.0129 0.0958,0.0269 0.14357,0.0404 1.01685,0.30527 1.93626,0.87098 2.71297,1.6294 0.0954,0.0956 0.17785,0.16286 0.25485,0.21729 1.04413,0.79571 2.52983,0.7347 3.48183,-0.21729 0.96627,-0.9657 1.02227,-2.49154 0.17914,-3.52924 z m -6.40207,0.47757 c -1.37928,-0.36957 -2.19813,-1.78784 -1.82856,-3.16711 0.36986,-1.37941 1.78784,-2.19826 3.16711,-1.82869 1.37984,0.36985 2.19841,1.78769 1.8287,3.16711 -0.36971,1.37941 -1.78741,2.1984 -3.16725,1.82869 z"
         style="display:inline;fill:#000000;fill-opacity:1;stroke-width:0.5;enable-background:new;opacity:0.2"
         id="path2587" />
      <path
         d="m 434.40802,114.70135 c -0.0408,-0.0553 -0.10557,-0.13299 -0.17843,-0.2077 -0.75799,-0.77785 -1.32413,-1.69628 -1.62912,-2.71355 -0.014,-0.0473 -0.028,-0.0946 -0.0405,-0.142 -0.0131,-0.0477 -0.0245,-0.0964 -0.0362,-0.14485 -0.24414,-1.03285 -0.21429,-2.11184 0.0544,-3.16397 0,0 0.041,-0.17371 0.0516,-0.24528 0.22585,-1.32942 -0.59257,-2.63626 -1.92041,-2.99226 -1.35384,-0.36271 -2.7414,0.39643 -3.18411,1.70584 -0.0183,0.0489 -0.0556,0.17229 -0.056,0.17414 -0.291,1.03142 -0.79656,1.96784 -1.51084,2.73441 -0.81142,0.8517 -1.84298,1.45727 -2.99954,1.76712 -1.40884,0.37742 -2.24583,1.82812 -1.86827,3.23754 0.37814,1.40912 1.82656,2.24611 3.2364,1.86812 1.05198,-0.26857 2.13097,-0.299 3.16425,-0.055 0.0481,0.012 0.0966,0.0239 0.14457,0.0369 0.0482,0.0129 0.0958,0.0269 0.14357,0.0404 1.01685,0.30527 1.93626,0.87098 2.71297,1.6294 0.0954,0.0956 0.17785,0.16286 0.25485,0.21729 1.04413,0.79571 2.52983,0.7347 3.48183,-0.21729 0.96627,-0.9657 1.02227,-2.49154 0.17914,-3.52924 z m -6.40207,0.47757 c -1.37928,-0.36957 -2.19813,-1.78784 -1.82856,-3.16711 0.36986,-1.37941 1.78784,-2.19826 3.16711,-1.82869 1.37984,0.36985 2.19841,1.78769 1.8287,3.16711 -0.36971,1.37941 -1.78741,2.1984 -3.16725,1.82869 z"
         style="display:inline;fill:#ffffff;fill-opacity:1;stroke-width:0.5;enable-background:new"
         id="path2555"
         sodipodi:nodetypes="cccccccccccsccccccccccsccss" />
    </g>
    <g
       id="g2564">
      <path
         d="m 441.15448,72.859342 c -0.0584,-0.07897 -0.15082,-0.189995 -0.2549,-0.29673 -1.08285,-1.111209 -1.89161,-2.423239 -2.32732,-3.876489 -0.02,-0.06755 -0.04,-0.1351 -0.058,-0.202855 -0.0188,-0.06817 -0.0351,-0.137755 -0.0518,-0.206935 -0.34877,-1.47549 -0.30612,-3.016905 0.0778,-4.51995 0,0 0.0586,-0.24816 0.0737,-0.350405 0.32265,-1.899165 -0.84653,-3.76608 -2.74344,-4.27465 -1.93406,-0.518155 -3.91628,0.56632 -4.54873,2.436915 -0.0261,0.06979 -0.0794,0.246115 -0.08,0.24877 -0.41571,1.473455 -1.13794,2.811195 -2.15834,3.90629 -1.15917,1.216715 -2.63283,2.08181 -4.28506,2.524455 -2.01262,0.539185 -3.20833,2.611605 -2.66895,4.625054 0.5402,2.01304 2.60937,3.20874 4.62343,2.668745 1.50283,-0.38367 3.04425,-0.427135 4.52036,-0.07857 0.0688,0.01715 0.13795,0.0341 0.20652,0.05266 0.0688,0.01835 0.13694,0.03835 0.2051,0.05776 1.45264,0.43611 2.76609,1.244265 3.87568,2.327725 0.13632,0.13653 0.25407,0.23265 0.36407,0.310405 1.49162,1.136725 3.61404,1.04958 4.97403,-0.310405 1.38039,-1.379575 1.46039,-3.55935 0.25592,-5.04178 z m -9.14582,0.68224 c -1.97039,-0.527955 -3.14018,-2.554054 -2.61222,-4.524439 0.52836,-1.97059 2.55405,-3.14038 4.52444,-2.612425 1.9712,0.528365 3.14058,2.55385 2.61242,4.52444 -0.52815,1.970594 -2.55344,3.140579 -4.52464,2.612424 z"
         style="display:inline;fill:#000000;fill-opacity:1;stroke-width:0.5;enable-background:new;opacity:0.2"
         id="path2527" />
      <path
         d="m 441.15448,71.859073 c -0.0584,-0.07897 -0.15082,-0.189995 -0.2549,-0.29673 -1.08285,-1.111209 -1.89161,-2.423239 -2.32732,-3.876489 -0.02,-0.06755 -0.04,-0.1351 -0.058,-0.202855 -0.0188,-0.06817 -0.0351,-0.137755 -0.0518,-0.206935 -0.34877,-1.47549 -0.30612,-3.016905 0.0778,-4.51995 0,0 0.0586,-0.24816 0.0737,-0.350405 0.32265,-1.899165 -0.84653,-3.76608 -2.74344,-4.27465 -1.93406,-0.518155 -3.91628,0.56632 -4.54873,2.436915 -0.0261,0.06979 -0.0794,0.246115 -0.08,0.24877 -0.41571,1.473455 -1.13794,2.811195 -2.15834,3.90629 -1.15917,1.216715 -2.63283,2.08181 -4.28506,2.524455 -2.01262,0.539185 -3.20833,2.611605 -2.66895,4.625054 0.5402,2.01304 2.60937,3.20874 4.62343,2.668745 1.50283,-0.38367 3.04425,-0.427135 4.52036,-0.07857 0.0688,0.01715 0.13795,0.0341 0.20652,0.05266 0.0688,0.01835 0.13694,0.03835 0.2051,0.05776 1.45264,0.43611 2.76609,1.244265 3.87568,2.327725 0.13632,0.13653 0.25407,0.23265 0.36407,0.310405 1.49162,1.136725 3.61404,1.04958 4.97403,-0.310405 1.38039,-1.379575 1.46039,-3.55935 0.25592,-5.04178 z m -9.14582,0.68224 c -1.97039,-0.527955 -3.14018,-2.554054 -2.61222,-4.524439 0.52836,-1.97059 2.55405,-3.14038 4.52444,-2.612425 1.9712,0.528365 3.14058,2.55385 2.61242,4.52444 -0.52815,1.970594 -2.55344,3.140579 -4.52464,2.612424 z"
         style="display:inline;fill:#ffffff;fill-opacity:1;stroke-width:0.5;enable-background:new"
         id="path2499"
         sodipodi:nodetypes="sccccccccccsccccccccsssccss" />
    </g>
    <g
       id="g2370">
      <path
         d="m 324.81625,250.40274 c -0.0817,-0.11056 -0.21114,-0.26599 -0.35686,-0.41541 -1.51599,-1.5557 -2.64826,-3.39255 -3.25825,-5.4271 -0.028,-0.0946 -0.056,-0.18914 -0.0811,-0.28399 -0.0263,-0.0954 -0.0491,-0.19285 -0.0725,-0.28971 -0.48828,-2.06569 -0.42857,-4.22367 0.10885,-6.32793 0,0 0.082,-0.34743 0.10315,-0.49057 0.45171,-2.65883 -1.18514,-5.27251 -3.84082,-5.98451 -2.70768,-0.72542 -5.4828,0.79286 -6.36822,3.41168 -0.0366,0.0977 -0.11114,0.34457 -0.112,0.34828 -0.58199,2.06284 -1.59312,3.93568 -3.02168,5.46881 -1.62283,1.7034 -3.68596,2.91454 -5.99908,3.53424 -2.81768,0.75485 -4.49166,3.65625 -3.73653,6.47508 0.75628,2.81825 3.65311,4.49223 6.47279,3.73624 2.10397,-0.53714 4.26195,-0.598 6.32851,-0.11 0.0963,0.024 0.19314,0.0477 0.28913,0.0737 0.0963,0.0257 0.19171,0.0537 0.28714,0.0808 2.0337,0.61055 3.87253,1.74197 5.42595,3.25881 0.19085,0.19115 0.3557,0.32571 0.5097,0.43457 2.08826,1.59142 5.05966,1.46941 6.96365,-0.43457 1.93254,-1.9314 2.04454,-4.98309 0.35828,-7.05849 z m -12.80415,0.95514 c -2.75855,-0.73914 -4.39625,-3.57568 -3.65711,-6.33422 0.73971,-2.75882 3.57568,-4.39652 6.33422,-3.65739 2.75968,0.73971 4.39681,3.57539 3.65739,6.33422 -0.73942,2.75883 -3.57481,4.39681 -6.3345,3.65739 z"
         style="display:inline;opacity:0.2;fill:#000000;fill-opacity:1;enable-background:new"
         id="path2320"
         sodipodi:nodetypes="cccccccccccsccccccccccsccss" />
      <path
         d="m 324.81625,249.40228 c -0.0817,-0.11056 -0.21114,-0.26599 -0.35686,-0.41541 -1.51599,-1.5557 -2.64826,-3.39255 -3.25825,-5.4271 -0.028,-0.0946 -0.056,-0.18914 -0.0811,-0.28399 -0.0263,-0.0954 -0.0491,-0.19285 -0.0725,-0.28971 -0.48828,-2.06569 -0.42857,-4.22367 0.10885,-6.32793 0,0 0.082,-0.34743 0.10315,-0.49057 0.45171,-2.65883 -1.18514,-5.27251 -3.84082,-5.98451 -2.70768,-0.72542 -5.4828,0.79286 -6.36822,3.41168 -0.0366,0.0977 -0.11114,0.34457 -0.112,0.34828 -0.58199,2.06284 -1.59312,3.93568 -3.02168,5.46881 -1.62283,1.7034 -3.68596,2.91454 -5.99908,3.53424 -2.81768,0.75485 -4.49166,3.65625 -3.73653,6.47508 0.75628,2.81825 3.65311,4.49223 6.47279,3.73624 2.10397,-0.53714 4.26195,-0.598 6.32851,-0.11 0.0963,0.024 0.19314,0.0477 0.28913,0.0737 0.0963,0.0257 0.19171,0.0537 0.28714,0.0808 2.0337,0.61055 3.87253,1.74197 5.42595,3.25881 0.19085,0.19115 0.3557,0.32571 0.5097,0.43457 2.08826,1.59142 5.05966,1.46941 6.96365,-0.43457 1.93254,-1.9314 2.04454,-4.98309 0.35828,-7.05849 z m -12.80415,0.95514 c -2.75855,-0.73914 -4.39625,-3.57568 -3.65711,-6.33422 0.73971,-2.75882 3.57568,-4.39652 6.33422,-3.65739 2.75968,0.73971 4.39681,3.57539 3.65739,6.33422 -0.73942,2.75883 -3.57481,4.39681 -6.3345,3.65739 z"
         style="display:inline;fill:#ffffff;fill-opacity:1;enable-background:new"
         id="path2348"
         sodipodi:nodetypes="cccccccccccsccccccccccsccss" />
    </g>
    <g
       id="g1772">
      <path
         d="m 338.30908,180.71769 c -0.11673,-0.15795 -0.30163,-0.37999 -0.5098,-0.59346 -2.16569,-2.22242 -3.78322,-4.84648 -4.65464,-7.75298 -0.04,-0.1351 -0.08,-0.2702 -0.11591,-0.40571 -0.0376,-0.13633 -0.0702,-0.27551 -0.10368,-0.41387 -0.69754,-2.95098 -0.61224,-6.03381 0.1555,-9.0399 0,0 0.11715,-0.49632 0.14736,-0.70081 0.6453,-3.79833 -1.69306,-7.53216 -5.48688,-8.5493 -3.86812,-1.03631 -7.83257,1.13264 -9.09746,4.87383 -0.0523,0.13959 -0.15877,0.49223 -0.16,0.49754 -0.83142,2.94691 -2.27589,5.62239 -4.31668,7.81258 -2.31834,2.43343 -5.26566,4.16362 -8.57012,5.04891 -4.02525,1.07837 -6.41666,5.22321 -5.3379,9.25011 1.0804,4.02608 5.21873,6.41748 9.24685,5.33749 3.00567,-0.76734 6.0885,-0.85427 9.04072,-0.15714 0.13754,0.0343 0.27591,0.0682 0.41304,0.10531 0.13757,0.0367 0.27388,0.0767 0.4102,0.11551 2.90528,0.87222 5.53219,2.48853 7.75136,4.65545 0.27264,0.27306 0.50815,0.4653 0.72814,0.62081 2.98324,2.27345 7.22809,2.09916 9.94807,-0.62081 2.76078,-2.75915 2.92078,-7.1187 0.51183,-10.08356 z m -18.29164,1.36448 c -3.94078,-1.05591 -6.28035,-5.10811 -5.22444,-9.04888 1.05673,-3.94118 5.10811,-6.28076 9.04888,-5.22485 3.94241,1.05673 6.28116,5.1077 5.22485,9.04888 -1.05631,3.94119 -5.10688,6.28116 -9.04929,5.22485 z"
         style="display:inline;fill:#000000;fill-opacity:1;enable-background:new;opacity:0.2"
         id="path2264" />
      <path
         d="m 338.30908,179.71816 c -0.11673,-0.15795 -0.30163,-0.37999 -0.5098,-0.59346 -2.16569,-2.22242 -3.78322,-4.84648 -4.65464,-7.75298 -0.04,-0.1351 -0.08,-0.2702 -0.11591,-0.40571 -0.0376,-0.13633 -0.0702,-0.27551 -0.10368,-0.41387 -0.69754,-2.95098 -0.61224,-6.03381 0.1555,-9.0399 0,0 0.11715,-0.49632 0.14736,-0.70081 0.6453,-3.79833 -1.69306,-7.53216 -5.48688,-8.5493 -3.86812,-1.03631 -7.83257,1.13264 -9.09746,4.87383 -0.0523,0.13959 -0.15877,0.49223 -0.16,0.49754 -0.83142,2.94691 -2.27589,5.62239 -4.31668,7.81258 -2.31834,2.43343 -5.26566,4.16362 -8.57012,5.04891 -4.02525,1.07837 -6.41666,5.22321 -5.3379,9.25011 1.0804,4.02608 5.21873,6.41748 9.24685,5.33749 3.00567,-0.76734 6.0885,-0.85427 9.04072,-0.15714 0.13754,0.0343 0.27591,0.0682 0.41304,0.10531 0.13757,0.0367 0.27388,0.0767 0.4102,0.11551 2.90528,0.87222 5.53219,2.48853 7.75136,4.65545 0.27264,0.27306 0.50815,0.4653 0.72814,0.62081 2.98324,2.27345 7.22809,2.09916 9.94807,-0.62081 2.76078,-2.75915 2.92078,-7.1187 0.51183,-10.08356 z m -18.29164,1.36448 c -3.94078,-1.05591 -6.28035,-5.10811 -5.22444,-9.04888 1.05673,-3.94118 5.10811,-6.28076 9.04888,-5.22485 3.94241,1.05673 6.28116,5.1077 5.22485,9.04888 -1.05631,3.94119 -5.10688,6.28116 -9.04929,5.22485 z"
         style="display:inline;fill:#ffffff;fill-opacity:1;enable-background:new"
         id="path2236"
         sodipodi:nodetypes="cccccccccccscccccccccsccss" />
    </g>
    <g
       id="g2430"
       transform="matrix(2,0,0,2,-288,-412)">
      <path
         d="m 324.81625,249.90228 c -0.0817,-0.11056 -0.21114,-0.26599 -0.35686,-0.41541 -1.51599,-1.5557 -2.64826,-3.39255 -3.25825,-5.4271 -0.028,-0.0946 -0.056,-0.18914 -0.0811,-0.28399 -0.0263,-0.0954 -0.0491,-0.19285 -0.0725,-0.28971 -0.48828,-2.06569 -0.42857,-4.22367 0.10885,-6.32793 0,0 0.082,-0.34743 0.10315,-0.49057 0.45171,-2.65883 -1.18514,-5.27251 -3.84082,-5.98451 -2.70768,-0.72542 -5.4828,0.79286 -6.36822,3.41168 -0.0366,0.0977 -0.11114,0.34457 -0.112,0.34828 -0.58199,2.06284 -1.59312,3.93568 -3.02168,5.46881 -1.62283,1.7034 -3.68596,2.91454 -5.99908,3.53424 -2.81768,0.75485 -4.49166,3.65625 -3.73653,6.47508 0.75628,2.81825 3.65311,4.49223 6.47279,3.73624 2.10397,-0.53714 4.26195,-0.598 6.32851,-0.11 0.0963,0.024 0.19314,0.0477 0.28913,0.0737 0.0963,0.0257 0.19171,0.0537 0.28714,0.0808 2.0337,0.61055 3.87253,1.74197 5.42595,3.25881 0.19085,0.19115 0.3557,0.32571 0.5097,0.43457 2.08826,1.59142 5.05966,1.46941 6.96365,-0.43457 1.93254,-1.9314 2.04454,-4.98309 0.35828,-7.05849 z m -12.80415,0.95514 c -2.75855,-0.73914 -4.39625,-3.57568 -3.65711,-6.33422 0.73971,-2.75882 3.57568,-4.39652 6.33422,-3.65739 2.75968,0.73971 4.39681,3.57539 3.65739,6.33422 -0.73942,2.75883 -3.57481,4.39681 -6.3345,3.65739 z"
         style="display:inline;opacity:0.2;fill:#000000;fill-opacity:1;enable-background:new"
         id="path2380" />
      <path
         d="m 324.81625,249.40228 c -0.0817,-0.11056 -0.21114,-0.26599 -0.35686,-0.41541 -1.51599,-1.5557 -2.64826,-3.39255 -3.25825,-5.4271 -0.028,-0.0946 -0.056,-0.18914 -0.0811,-0.28399 -0.0263,-0.0954 -0.0491,-0.19285 -0.0725,-0.28971 -0.48828,-2.06569 -0.42857,-4.22367 0.10885,-6.32793 0,0 0.082,-0.34743 0.10315,-0.49057 0.45171,-2.65883 -1.18514,-5.27251 -3.84082,-5.98451 -2.70768,-0.72542 -5.4828,0.79286 -6.36822,3.41168 -0.0366,0.0977 -0.11114,0.34457 -0.112,0.34828 -0.58199,2.06284 -1.59312,3.93568 -3.02168,5.46881 -1.62283,1.7034 -3.68596,2.91454 -5.99908,3.53424 -2.81768,0.75485 -4.49166,3.65625 -3.73653,6.47508 0.75628,2.81825 3.65311,4.49223 6.47279,3.73624 2.10397,-0.53714 4.26195,-0.598 6.32851,-0.11 0.0963,0.024 0.19314,0.0477 0.28913,0.0737 0.0963,0.0257 0.19171,0.0537 0.28714,0.0808 2.0337,0.61055 3.87253,1.74197 5.42595,3.25881 0.19085,0.19115 0.3557,0.32571 0.5097,0.43457 2.08826,1.59142 5.05966,1.46941 6.96365,-0.43457 1.93254,-1.9314 2.04454,-4.98309 0.35828,-7.05849 z m -12.80415,0.95514 c -2.75855,-0.73914 -4.39625,-3.57568 -3.65711,-6.33422 0.73971,-2.75882 3.57568,-4.39652 6.33422,-3.65739 2.75968,0.73971 4.39681,3.57539 3.65739,6.33422 -0.73942,2.75883 -3.57481,4.39681 -6.3345,3.65739 z"
         style="display:inline;fill:#ffffff;fill-opacity:1;enable-background:new"
         id="path2408" />
    </g>
    <g
       id="g2668"
       transform="matrix(4,0,0,4,-1136,-532)">
      <path
         d="m 338.30908,180.21769 c -0.11673,-0.15795 -0.30163,-0.37999 -0.5098,-0.59346 -2.16569,-2.22242 -3.78322,-4.84648 -4.65464,-7.75298 -0.04,-0.1351 -0.08,-0.2702 -0.11591,-0.40571 -0.0376,-0.13633 -0.0702,-0.27551 -0.10368,-0.41387 -0.69754,-2.95098 -0.61224,-6.03381 0.1555,-9.0399 0,0 0.11715,-0.49632 0.14736,-0.70081 0.6453,-3.79833 -1.69306,-7.53216 -5.48688,-8.5493 -3.86812,-1.03631 -7.83257,1.13264 -9.09746,4.87383 -0.0523,0.13959 -0.15877,0.49223 -0.16,0.49754 -0.83142,2.94691 -2.27589,5.62239 -4.31668,7.81258 -2.31834,2.43343 -5.26566,4.16362 -8.57012,5.04891 -4.02525,1.07837 -6.41666,5.22321 -5.3379,9.25011 1.0804,4.02608 5.21873,6.41748 9.24685,5.33749 3.00567,-0.76734 6.0885,-0.85427 9.04072,-0.15714 0.13754,0.0343 0.27591,0.0682 0.41304,0.10531 0.13757,0.0367 0.27388,0.0767 0.4102,0.11551 2.90528,0.87222 5.53219,2.48853 7.75136,4.65545 0.27264,0.27306 0.50815,0.4653 0.72814,0.62081 2.98324,2.27345 7.22809,2.09916 9.94807,-0.62081 2.76078,-2.75915 2.92078,-7.1187 0.51183,-10.08356 z m -18.29164,1.36448 c -3.94078,-1.05591 -6.28035,-5.10811 -5.22444,-9.04888 1.05673,-3.94118 5.10811,-6.28076 9.04888,-5.22485 3.94241,1.05673 6.28116,5.1077 5.22485,9.04888 -1.05631,3.94119 -5.10688,6.28116 -9.04929,5.22485 z"
         style="display:inline;opacity:0.2;fill:#000000;fill-opacity:1;enable-background:new"
         id="path2615"
         sodipodi:nodetypes="cccccccccccscccccccccsccss" />
      <path
         d="m 338.30908,179.71816 c -0.11673,-0.15795 -0.30163,-0.37999 -0.5098,-0.59346 -2.16569,-2.22242 -3.78322,-4.84648 -4.65464,-7.75298 -0.04,-0.1351 -0.08,-0.2702 -0.11591,-0.40571 -0.0376,-0.13633 -0.0702,-0.27551 -0.10368,-0.41387 -0.69754,-2.95098 -0.61224,-6.03381 0.1555,-9.0399 0,0 0.11715,-0.49632 0.14736,-0.70081 0.6453,-3.79833 -1.69306,-7.53216 -5.48688,-8.5493 -3.86812,-1.03631 -7.83257,1.13264 -9.09746,4.87383 -0.0523,0.13959 -0.15877,0.49223 -0.16,0.49754 -0.83142,2.94691 -2.27589,5.62239 -4.31668,7.81258 -2.31834,2.43343 -5.26566,4.16362 -8.57012,5.04891 -4.02525,1.07837 -6.41666,5.22321 -5.3379,9.25011 1.0804,4.02608 5.21873,6.41748 9.24685,5.33749 3.00567,-0.76734 6.0885,-0.85427 9.04072,-0.15714 0.13754,0.0343 0.27591,0.0682 0.41304,0.10531 0.13757,0.0367 0.27388,0.0767 0.4102,0.11551 2.90528,0.87222 5.53219,2.48853 7.75136,4.65545 0.27264,0.27306 0.50815,0.4653 0.72814,0.62081 2.98324,2.27345 7.22809,2.09916 9.94807,-0.62081 2.76078,-2.75915 2.92078,-7.1187 0.51183,-10.08356 z m -18.29164,1.36448 c -3.94078,-1.05591 -6.28035,-5.10811 -5.22444,-9.04888 1.05673,-3.94118 5.10811,-6.28076 9.04888,-5.22485 3.94241,1.05673 6.28116,5.1077 5.22485,9.04888 -1.05631,3.94119 -5.10688,6.28116 -9.04929,5.22485 z"
         style="display:inline;fill:#ffffff;fill-opacity:1;enable-background:new"
         id="path2643" />
    </g>
  </g>
  <g
     id="Highlights">
    <path
       id="rect653"
       style="opacity:0.2;fill:#ffffff"
       d="M 80,44 C 53.408027,44 32,65.408027 32,92 v 2 C 32,67.408027 53.408027,46 80,46 h 128 c 26.59197,0 48,21.408027 48,48 V 92 C 256,65.408027 234.59197,44 208,44 Z"
       sodipodi:nodetypes="sscsscsss" />
    <path
       id="rect773"
       style="opacity:0.2;fill:#ffffff"
       d="m 312,34 c -9.97199,0 -18,8.02801 -18,18 v 1 c 0,-9.97199 8.02801,-18 18,-18 h 48 c 9.97199,0 18,8.02801 18,18 v -1 c 0,-9.97199 -8.02801,-18 -18,-18 z" />
    <path
       id="rect1135"
       style="opacity:0.2;fill:#ffffff;fill-opacity:1"
       d="m 304,144 c -6.64799,0 -12,5.35201 -12,12 v 1 c 0,-6.64799 5.35201,-12 12,-12 h 32 c 6.64799,0 12,5.35201 12,12 v -1 c 0,-6.64799 -5.35201,-12 -12,-12 z" />
    <path
       id="rect1265"
       style="opacity:0.2;fill:#ffffff;fill-opacity:1"
       d="m 300,223 c -4.986,0 -9,4.014 -9,9 v 1 c 0,-4.986 4.014,-9 9,-9 h 24 c 4.986,0 9,4.014 9,9 v -1 c 0,-4.986 -4.014,-9 -9,-9 z" />
    <path
       id="rect1368"
       style="opacity:0.2;fill:#ffffff;fill-opacity:1"
       d="m 424,54 c -3.324,0 -6,2.676003 -6,6 v 1 c 0,-3.323997 2.676,-6 6,-6 h 16 c 3.324,0 6,2.676003 6,6 v -1 c 0,-3.323997 -2.676,-6 -6,-6 z" />
    <path
       id="rect1402"
       style="opacity:0.2;fill:#ffffff;fill-opacity:1"
       d="m 420,140 c -2.216,0 -4,1.784 -4,4 v 1 c 0,-2.216 1.784,-4 4,-4 h 8 c 2.216,0 4,1.784 4,4 v -1 c 0,-2.216 -1.784,-4 -4,-4 z" />
    <path
       id="rect1436"
       style="opacity:0.2;fill:#ffffff;fill-opacity:1"
       d="m 422,102 c -2.216,0 -4,1.784 -4,4 v 1 c 0,-2.216 1.784,-4 4,-4 h 12 c 2.216,0 4,1.784 4,4 v -1 c 0,-2.216 -1.784,-4 -4,-4 z" />
  </g>
</svg>
