<?xml version="1.0" encoding="UTF-8" standalone="no"?>
<!-- Created with Inkscape (http://www.inkscape.org/) -->

<svg
   width="480"
   height="300"
   viewBox="0 0 480 300"
   version="1.1"
   id="svg5"
   inkscape:version="1.2.2 (1:1.2.2+202305151914+b0a8486541)"
   sodipodi:docname="aisleriot.svg"
   xmlns:inkscape="http://www.inkscape.org/namespaces/inkscape"
   xmlns:sodipodi="http://sodipodi.sourceforge.net/DTD/sodipodi-0.dtd"
   xmlns="http://www.w3.org/2000/svg"
   xmlns:svg="http://www.w3.org/2000/svg">
  <sodipodi:namedview
     id="namedview7"
     pagecolor="#888888"
     bordercolor="#000000"
     borderopacity="0.25"
     inkscape:showpageshadow="true"
     inkscape:pageopacity="0"
     inkscape:pagecheckerboard="0"
     inkscape:deskcolor="#888888"
     inkscape:document-units="px"
     showgrid="false"
     showborder="false"
     inkscape:zoom="2.6866667"
     inkscape:cx="240.07444"
     inkscape:cy="150"
     inkscape:window-width="1920"
     inkscape:window-height="1008"
     inkscape:window-x="0"
     inkscape:window-y="0"
     inkscape:window-maximized="1"
     inkscape:current-layer="svg5" />
  <defs
     id="defs2" />
  <g
     id="Baseplate"
     style="display:none">
    <text
       y="19.774782"
       xml:space="preserve"
       x="15.006946"
       style="font-style:normal;font-variant:normal;font-weight:normal;font-stretch:normal;line-height:0%;font-family:'DejaVu Sans';-inkscape-font-specification:'DejaVu Sans';display:inline;fill:#000000;fill-opacity:1;stroke:none;enable-background:new"
       inkscape:label="context"
       id="context"><tspan
         style="font-style:normal;font-variant:normal;font-weight:normal;font-stretch:normal;font-size:18px;line-height:1.25;font-family:'DejaVu Sans';-inkscape-font-specification:'DejaVu Sans'"
         y="19.774782"
         x="15.006946"
         sodipodi:role="line"
         id="tspan3933">apps</tspan></text>
    <text
       y="19.774782"
       xml:space="preserve"
       x="122.48839"
       style="font-style:normal;font-variant:normal;font-weight:bold;font-stretch:normal;line-height:0%;font-family:'DejaVu Sans';-inkscape-font-specification:'DejaVu Sans Bold';text-align:start;writing-mode:lr-tb;text-anchor:start;display:inline;fill:#000000;fill-opacity:1;stroke:none;enable-background:new"
       inkscape:label="icon-name"
       id="icon-name"><tspan
         style="font-style:normal;font-variant:normal;font-weight:bold;font-stretch:normal;font-size:18px;line-height:1.25;font-family:'DejaVu Sans';-inkscape-font-specification:'DejaVu Sans Bold'"
         y="19.774782"
         x="122.48839"
         sodipodi:role="line"
         id="tspan3937">aisleriot</tspan></text>
    <rect
       style="fill:#ffffff"
       id="256x256"
       width="256"
       height="256"
       x="16"
       y="28" />
    <rect
       style="fill:#ffffff"
       id="96x96"
       width="96"
       height="96"
       x="288"
       y="28" />
    <rect
       style="fill:#ffffff"
       id="64x64"
       width="64"
       height="64"
       x="288"
       y="140" />
    <rect
       style="fill:#ffffff"
       id="48x48"
       width="48"
       height="48"
       x="288"
       y="220" />
    <rect
       style="fill:#ffffff"
       id="32x32"
       width="32"
       height="32"
       x="416"
       y="52" />
    <rect
       style="fill:#ffffff"
       id="24x24"
       width="24"
       height="24"
       x="416"
       y="100" />
    <rect
       style="fill:#ffffff"
       id="22x22"
       width="22"
       height="22"
       x="417"
       y="101" />
    <rect
       style="fill:#ffffff"
       id="16x16"
       width="16"
       height="16"
       x="416"
       y="140" />
  </g>
  <g
     id="Shadow">
    <rect
       style="opacity:0.2;fill:#000000"
       id="rect651"
       width="224"
       height="224"
       x="32"
       y="46"
       ry="48" />
    <rect
       style="opacity:0.2;fill:#000000"
       id="rect769"
       width="84"
       height="85"
       x="294"
       y="34"
       ry="18" />
    <rect
       style="opacity:0.2;fill:#000000;fill-opacity:1"
       id="rect1131"
       width="56"
       height="56"
       x="292"
       y="145"
       ry="12" />
    <rect
       style="opacity:0.2;fill:#000000;fill-opacity:1"
       id="rect1261"
       width="42"
       height="42"
       x="291"
       y="224"
       ry="9" />
    <rect
       style="opacity:0.2;fill:#000000;fill-opacity:1"
       id="rect1364"
       width="28"
       height="29"
       x="418"
       y="54"
       ry="6" />
    <rect
       style="opacity:0.2;fill:#000000;fill-opacity:1"
       id="rect1398"
       width="16"
       height="16"
       x="416"
       y="141"
       ry="4" />
    <rect
       style="opacity:0.2;fill:#000000;fill-opacity:1"
       id="rect1432"
       width="20"
       height="20"
       x="418"
       y="103"
       ry="4" />
  </g>
  <g
     id="Background">
    <rect
       style="fill:#e4e4e4;fill-opacity:1"
       id="rect597"
       width="224"
       height="224"
       x="32"
       y="44"
       ry="48" />
    <rect
       style="opacity:1;fill:#e4e4e4;fill-opacity:1"
       id="rect771"
       width="84"
       height="84"
       x="294"
       y="34"
       ry="18" />
    <rect
       style="opacity:1;fill:#e4e4e4;fill-opacity:1"
       id="rect1133"
       width="56"
       height="56"
       x="292"
       y="144"
       ry="12" />
    <rect
       style="opacity:1;fill:#e4e4e4;fill-opacity:1"
       id="rect1263"
       width="42"
       height="42"
       x="291"
       y="223"
       ry="9" />
    <rect
       style="opacity:1;fill:#e4e4e4;fill-opacity:1"
       id="rect1366"
       width="28"
       height="28"
       x="418"
       y="54"
       ry="6" />
    <rect
       style="opacity:1;fill:#e4e4e4;fill-opacity:1"
       id="rect1400"
       width="16"
       height="16"
       x="416"
       y="140"
       ry="4" />
    <rect
       style="opacity:1;fill:#e4e4e4;fill-opacity:1"
       id="rect1434"
       width="20"
       height="20"
       x="418"
       y="102"
       ry="4" />
  </g>
  <g
     id="g1602">
    <g
       id="g2637">
      <path
         d="m 422.1608,145.5 c -1.1896,0 -2.1608,0.8377 -2.1608,1.8749 0,0.5399 0.2604,1.0324 0.6786,1.375 l 3.2679,2.7501 3.3755,-2.7501 c 0.418,-0.342 0.678,-0.8348 0.678,-1.3747 0,-1.0373 -0.971,-1.875 -2.1608,-1.875 -0.78318,0 -1.4624,0.3607 -1.8392,0.906 -0.3767,-0.5452 -1.0559,-0.906 -1.8391,-0.906 z"
         style="opacity:0.2;fill:#000000;stroke-width:1"
         id="path1739"
         sodipodi:nodetypes="cscccssccc" />
      <path
         d="m 422.1608,145 c -1.1896,0 -2.1608,0.8377 -2.1608,1.8749 0,0.5399 0.2604,1.0324 0.6786,1.375 l 3.2679,2.7501 3.3755,-2.7501 c 0.418,-0.342 0.678,-0.8348 0.678,-1.3747 0,-1.0373 -0.971,-1.875 -2.1608,-1.875 -0.78318,0 -1.4624,0.3607 -1.8392,0.906 -0.3767,-0.5452 -1.0559,-0.906 -1.8391,-0.906 z"
         style="fill:#e74c3c;stroke-width:1"
         id="path1767" />
    </g>
    <g
       id="g2633">
      <path
         id="path1938"
         style="opacity:0.2;fill:#000000"
         d="M 422.06055,104.5 421,107.5 h 0.74219 l 0.17969,-0.54688 h 1.15429 L 423.25781,107.5 H 424 l -1.06055,-3 z m 0.4375,0.70312 0.39453,1.19336 h -0.78516 z m 3.66211,4.29688 c -1.1896,0 -2.16016,0.8378 -2.16016,1.875 0,0.5399 0.25953,1.0324 0.67773,1.375 l 3.26954,2.75 3.375,-2.75 c 0.418,-0.342 0.67773,-0.8351 0.67773,-1.375 0,-1.0373 -0.97036,-1.875 -2.16016,-1.875 -0.78318,0 -1.46304,0.36095 -1.83984,0.90625 -0.3767,-0.5452 -1.05664,-0.90625 -1.83984,-0.90625 z m 5.83984,7 1.06055,3 h 0.8789 L 435,116.5 h -0.74219 l -0.18164,0.54688 h -1.15429 L 432.74219,116.5 Z m 1.10742,1.10352 h 0.78516 l -0.39453,1.19336 z"
         sodipodi:nodetypes="cccccccccccccsscccsscsccccccccccccc" />
      <path
         id="path2009"
         style="fill:#e74c3c;fill-opacity:1"
         d="M 422.06055,104 421,107 h 0.74219 l 0.17969,-0.54688 h 1.15429 L 423.25781,107 H 424 l -1.06055,-3 z m 0.4375,0.70312 0.39453,1.19336 h -0.78516 z M 426.16016,109 c -1.1896,0 -2.16016,0.8378 -2.16016,1.875 0,0.5399 0.25953,1.0324 0.67773,1.375 l 3.26954,2.75 3.375,-2.75 C 431.74027,111.908 432,111.4149 432,110.875 432,109.8377 431.02964,109 429.83984,109 429.05666,109 428.3768,109.36095 428,109.90625 427.6233,109.36105 426.94336,109 426.16016,109 Z m 5.83984,7 1.06055,3 h 0.8789 L 435,116 h -0.74219 l -0.18164,0.54688 h -1.15429 L 432.74219,116 Z m 1.10742,1.10352 h 0.78516 l -0.39453,1.19336 z"
         sodipodi:nodetypes="cccccccccccccsscccsscsccccccccccccc" />
    </g>
    <g
       id="g2682">
      <path
         d="m 441.92,75 c 0.594,0 1.08,-0.419 1.08,-0.938 0,-0.269 -0.13,-0.516 -0.339,-0.687 L 441.027,72 439.339,73.375 C 439.13,73.546 439,73.793 439,74.062 c 0,0.519 0.486,0.938 1.08,0.938 0.392,0 0.732,-0.18 0.92,-0.453 0.188,0.273 0.528,0.453 0.92,0.453 z M 423.9042,61.2713 h -1.6129 L 422.0368,62 H 421 l 1.4816,-4 h 1.2297 l 1.4817,4 h -1.037 z m -1.3557,-0.74213 h 1.0958 l -0.5465,-1.5915 -0.5492,1.5914 z M 422.0804,63 C 421.4855,63 421,63.419 421,63.938 c 0,0.269 0.1302,0.516 0.3393,0.687 L 422.9732,66 424.661,64.625 C 424.87,64.454 425,64.207 425,63.938 425,63.419 424.514,63 423.9196,63 423.5278,63 423.1884,63.18 423,63.453 422.8116,63.18 422.4722,63 422.0804,63 Z m 18.0156,13.729 h 1.6129 L 441.9629,76 h 1.037 l -1.4816,4 h -1.2297 l -1.4816,-4 h 1.0368 l 0.25184,0.72873 z m 1.3557,0.74213 h -1.0958 l 0.54655,1.5914 0.54923,-1.5914 z M 429.701,65 c -1.487,0 -2.701,1.117 -2.701,2.5 0,0.71979 0.32553,1.3765 0.84822,1.8333 l 4.085,3.667 4.219,-3.667 c 0.523,-0.456 0.848,-1.113 0.848,-1.833 0,-1.383 -1.214,-2.5 -2.701,-2.5 -0.979,0 -1.828,0.481 -2.299,1.208 -0.471,-0.727 -1.32,-1.208 -2.299,-1.208 z"
         style="fill:#000000;opacity:0.2"
         id="path2660" />
      <path
         d="m 441.92,74 c 0.594,0 1.08,-0.419 1.08,-0.938 0,-0.269 -0.13,-0.516 -0.339,-0.687 L 441.027,71 439.339,72.375 C 439.13,72.546 439,72.793 439,73.062 c 0,0.519 0.486,0.938 1.08,0.938 0.392,0 0.732,-0.18 0.92,-0.453 0.188,0.273 0.528,0.453 0.92,0.453 z M 423.9042,60.2713 h -1.6129 L 422.0368,61 H 421 l 1.4816,-4 h 1.2297 l 1.4817,4 h -1.037 z m -1.3557,-0.74213 h 1.0958 l -0.5465,-1.5915 -0.5492,1.5914 z M 422.0804,62 C 421.4855,62 421,62.419 421,62.938 c 0,0.269 0.1302,0.516 0.3393,0.687 L 422.9732,65 424.661,63.625 C 424.87,63.454 425,63.207 425,62.938 425,62.419 424.514,62 423.9196,62 423.5278,62 423.1884,62.18 423,62.453 422.8116,62.18 422.4722,62 422.0804,62 Z m 18.0156,13.729 h 1.6129 L 441.9629,75 h 1.037 l -1.4816,4 h -1.2297 l -1.4816,-4 h 1.0368 l 0.25184,0.72873 z m 1.3557,0.74213 h -1.0958 l 0.54655,1.5914 0.54923,-1.5914 z M 429.701,64 c -1.487,0 -2.701,1.117 -2.701,2.5 0,0.71979 0.32553,1.3765 0.84822,1.8333 l 4.085,3.667 4.219,-3.667 c 0.523,-0.456 0.848,-1.113 0.848,-1.833 0,-1.383 -1.214,-2.5 -2.701,-2.5 -0.979,0 -1.828,0.481 -2.299,1.208 -0.471,-0.727 -1.32,-1.208 -2.299,-1.208 z"
         style="fill:#e74c3c"
         id="path2624"
         sodipodi:nodetypes="sscccsscsccccccccccccccsscccsscsccccccccccccccccscccssccc" />
    </g>
    <g
       id="g2952">
      <path
         d="m 308.781,239 c -2.082,0 -3.781,1.675 -3.781,3.75 0,1.0797 0.45574,2.0647 1.1875,2.75 l 5.718,5.5 5.906,-5.5 c 0.732,-0.685 1.188,-1.67 1.188,-2.75 0,-2.075 -1.699,-3.75 -3.781,-3.75 -1.372,0 -2.56,0.721 -3.219,1.812 -0.66,-1.091 -1.848,-1.812 -3.22,-1.812 z m 14.863,18.093 h 2.4193 l 0.382,-1.093 h 1.555 l -2.2224,6 h -1.8446 l -2.2224,-6 h 1.5553 l 0.37776,1.0931 z m 2.0335,1.1132 h -1.6437 l 0.81983,2.3871 0.82384,-2.3871 z M 326.379,255 c 0.893,0 1.621,-0.698 1.621,-1.562 0,-0.45 -0.195,-0.861 -0.509,-1.146 L 325.04,250 l -2.531,2.292 c -0.314,0.285 -0.509,0.696 -0.509,1.146 0,0.864 0.728,1.562 1.621,1.562 0.587,0 1.096,-0.3 1.379,-0.755 0.283,0.455 0.792,0.755 1.379,0.755 z m -28.758,-20 c -0.893,0 -1.621,0.698 -1.621,1.562 0,0.44987 0.19532,0.8603 0.50893,1.1458 l 2.451,2.292 2.531,-2.292 c 0.314,-0.285 0.509,-0.696 0.509,-1.146 0,-0.864 -0.728,-1.562 -1.621,-1.562 -0.587,0 -1.096,0.3 -1.379,0.755 -0.283,-0.455 -0.792,-0.755 -1.379,-0.755 z m 2.735,-2.093 h -2.4193 l -0.382,1.093 h -1.555 l 2.222,-6 h 1.8446 l 2.222,6 h -1.555 l -0.378,-1.093 z m -2.0335,-1.1132 h 1.6437 l -0.81983,-2.3871 -0.82384,2.3871 z"
         style="opacity:0.2;fill:#000000"
         id="path2915"
         sodipodi:nodetypes="cscccssccccccccccccccccccsscccsscscscccsscccccccccccccccccc" />
      <path
         d="m 308.781,238 c -2.082,0 -3.781,1.675 -3.781,3.75 0,1.0797 0.45574,2.0647 1.1875,2.75 l 5.718,5.5 5.906,-5.5 c 0.732,-0.685 1.188,-1.67 1.188,-2.75 0,-2.075 -1.699,-3.75 -3.781,-3.75 -1.372,0 -2.56,0.721 -3.219,1.812 -0.66,-1.091 -1.848,-1.812 -3.22,-1.812 z m 14.863,18.093 h 2.4193 l 0.382,-1.093 h 1.555 l -2.2224,6 h -1.8446 l -2.2224,-6 h 1.5553 l 0.37776,1.0931 z m 2.0335,1.1132 h -1.6437 l 0.81983,2.3871 0.82384,-2.3871 z M 326.379,254 c 0.893,0 1.621,-0.698 1.621,-1.562 0,-0.45 -0.195,-0.861 -0.509,-1.146 L 325.04,249 l -2.531,2.292 c -0.314,0.285 -0.509,0.696 -0.509,1.146 0,0.864 0.728,1.562 1.621,1.562 0.587,0 1.096,-0.3 1.379,-0.755 0.283,0.455 0.792,0.755 1.379,0.755 z m -28.758,-20 c -0.893,0 -1.621,0.698 -1.621,1.562 0,0.44987 0.19532,0.8603 0.50893,1.1458 l 2.451,2.292 2.531,-2.292 c 0.314,-0.285 0.509,-0.696 0.509,-1.146 0,-0.864 -0.728,-1.562 -1.621,-1.562 -0.587,0 -1.096,0.3 -1.379,0.755 -0.283,-0.455 -0.792,-0.755 -1.379,-0.755 z m 2.735,-2.093 h -2.4193 l -0.382,1.093 h -1.555 l 2.222,-6 h 1.8446 l 2.222,6 h -1.555 l -0.378,-1.093 z m -2.0335,-1.1132 h 1.6437 l -0.81983,-2.3871 -0.82384,2.3871 z"
         style="fill:#e74c3c"
         id="path2887"
         sodipodi:nodetypes="cscccssccccccccccccccccccsscccsscscscccsscccccccccccccccccc" />
    </g>
    <g
       id="g1594">
      <path
         d="M 300.96289,152 298,160 h 2 l 0.5,-1 h 3 l 0.5,1 h 2.08594 L 303,152 Z m 1.03711,2 0.98828,3 h -1.89062 z m -1.83984,8 c -1.1898,0 -2.16016,0.83895 -2.16016,1.87695 0,0.538 0.25954,1.03105 0.67773,1.37305 l 3.26954,2.75 3.375,-2.75 C 305.74027,164.908 306,164.41495 306,163.87695 306,162.83895 305.02864,162 303.83984,162 303.05624,162 302.3768,162.36025 302,162.90625 301.6232,162.36025 300.94375,162 300.16016,162 Z m 15.24218,4 C 312.42835,166 310,168.234 310,171 c 0,1.43958 0.65189,2.75242 1.69727,3.66602 l 8.16992,7.33398 8.4375,-7.33398 C 329.35069,173.75402 330,172.44 330,171 c 0,-2.766 -2.42835,-5 -5.40234,-5 -1.958,0 -3.65566,0.96202 -4.59766,2.41602 C 319.058,166.96202 317.36034,166 315.40234,166 Z m 22.65235,14 -3.37696,2.75 c -0.418,0.342 -0.67773,0.83505 -0.67773,1.37305 0,1.038 0.97216,1.87695 2.16016,1.87695 0.784,0 1.46384,-0.36025 1.83984,-0.90625 0.376,0.546 1.05584,0.90625 1.83984,0.90625 1.188,0 2.16016,-0.83895 2.16016,-1.87695 0,-0.538 -0.25973,-1.03105 -0.67773,-1.37305 z M 334,188 l 2.96289,8 H 339 l 3.08594,-8 H 340 l -0.5,1 h -3 l -0.5,-1 z m 3.09766,3 h 1.89062 L 338,194 Z"
         style="fill:#000000;opacity:0.2"
         id="path1512" />
      <path
         d="M 300.96289,151 298,159 h 2 l 0.5,-1 h 3 l 0.5,1 h 2.08594 L 303,151 Z m 1.03711,2 0.98828,3 h -1.89062 z m -1.83984,8 c -1.1898,0 -2.16016,0.83895 -2.16016,1.87695 0,0.538 0.25954,1.03105 0.67773,1.37305 l 3.26954,2.75 3.375,-2.75 C 305.74027,163.908 306,163.41495 306,162.87695 306,161.83895 305.02864,161 303.83984,161 303.05624,161 302.3768,161.36025 302,161.90625 301.6232,161.36025 300.94375,161 300.16016,161 Z m 15.24218,4 C 312.42835,165 310,167.234 310,170 c 0,1.43958 0.65189,2.75242 1.69727,3.66602 l 8.16992,7.33398 8.4375,-7.33398 C 329.35069,172.75402 330,171.44 330,170 c 0,-2.766 -2.42835,-5 -5.40234,-5 -1.958,0 -3.65566,0.96202 -4.59766,2.41602 C 319.058,165.96202 317.36034,165 315.40234,165 Z m 22.65235,14 -3.37696,2.75 c -0.418,0.342 -0.67773,0.83505 -0.67773,1.37305 0,1.038 0.97216,1.87695 2.16016,1.87695 0.784,0 1.46384,-0.36025 1.83984,-0.90625 0.376,0.546 1.05584,0.90625 1.83984,0.90625 1.188,0 2.16016,-0.83895 2.16016,-1.87695 0,-0.538 -0.25973,-1.03105 -0.67773,-1.37305 z M 334,187 l 2.96289,8 H 339 l 3.08594,-8 H 340 l -0.5,1 h -3 l -0.5,-1 z m 3.09766,3 h 1.89062 L 338,193 Z"
         style="fill:#e74c3c"
         id="path361"
         sodipodi:nodetypes="cccccccccccccsscccsscssscccsscsccsscssccccccccccccccc" />
    </g>
    <g
       id="g2997"
       transform="matrix(2,0,0,2,-287.9994,-412)">
      <path
         d="m 308.781,238.5 c -2.082,0 -3.781,1.675 -3.781,3.75 0,1.0797 0.45574,2.0647 1.1875,2.75 l 5.718,5.5 5.906,-5.5 c 0.732,-0.685 1.188,-1.67 1.188,-2.75 0,-2.075 -1.699,-3.75 -3.781,-3.75 -1.372,0 -2.56,0.721 -3.219,1.812 -0.66,-1.091 -1.848,-1.812 -3.22,-1.812 z m 14.863,18.093 h 2.4193 l 0.382,-1.093 h 1.555 l -2.2224,6 h -1.8446 l -2.2224,-6 h 1.5553 l 0.37776,1.0931 z m 2.0335,1.1132 h -1.6437 l 0.81983,2.3871 0.82384,-2.3871 z M 326.379,254.5 c 0.893,0 1.621,-0.698 1.621,-1.562 0,-0.45 -0.195,-0.861 -0.509,-1.146 l -2.451,-2.292 -2.531,2.292 c -0.314,0.285 -0.509,0.696 -0.509,1.146 0,0.864 0.728,1.562 1.621,1.562 0.587,0 1.096,-0.3 1.379,-0.755 0.283,0.455 0.792,0.755 1.379,0.755 z m -28.758,-20 c -0.893,0 -1.621,0.698 -1.621,1.562 0,0.44987 0.19532,0.8603 0.50893,1.1458 l 2.451,2.292 2.531,-2.292 c 0.314,-0.285 0.509,-0.696 0.509,-1.146 0,-0.864 -0.728,-1.562 -1.621,-1.562 -0.587,0 -1.096,0.3 -1.379,0.755 -0.283,-0.455 -0.792,-0.755 -1.379,-0.755 z m 2.735,-2.093 h -2.4193 l -0.382,1.093 h -1.555 l 2.222,-6 h 1.8446 l 2.222,6 h -1.555 l -0.378,-1.093 z m -2.0335,-1.1132 h 1.6437 l -0.81983,-2.3871 -0.82384,2.3871 z"
         style="opacity:0.2;fill:#000000"
         id="path2943" />
      <path
         d="m 308.781,238 c -2.082,0 -3.781,1.675 -3.781,3.75 0,1.0797 0.45574,2.0647 1.1875,2.75 l 5.718,5.5 5.906,-5.5 c 0.732,-0.685 1.188,-1.67 1.188,-2.75 0,-2.075 -1.699,-3.75 -3.781,-3.75 -1.372,0 -2.56,0.721 -3.219,1.812 -0.66,-1.091 -1.848,-1.812 -3.22,-1.812 z m 14.863,18.093 h 2.4193 l 0.382,-1.093 h 1.555 l -2.2224,6 h -1.8446 l -2.2224,-6 h 1.5553 l 0.37776,1.0931 z m 2.0335,1.1132 h -1.6437 l 0.81983,2.3871 0.82384,-2.3871 z M 326.379,254 c 0.893,0 1.621,-0.698 1.621,-1.562 0,-0.45 -0.195,-0.861 -0.509,-1.146 L 325.04,249 l -2.531,2.292 c -0.314,0.285 -0.509,0.696 -0.509,1.146 0,0.864 0.728,1.562 1.621,1.562 0.587,0 1.096,-0.3 1.379,-0.755 0.283,0.455 0.792,0.755 1.379,0.755 z m -28.758,-20 c -0.893,0 -1.621,0.698 -1.621,1.562 0,0.44987 0.19532,0.8603 0.50893,1.1458 l 2.451,2.292 2.531,-2.292 c 0.314,-0.285 0.509,-0.696 0.509,-1.146 0,-0.864 -0.728,-1.562 -1.621,-1.562 -0.587,0 -1.096,0.3 -1.379,0.755 -0.283,-0.455 -0.792,-0.755 -1.379,-0.755 z m 2.735,-2.093 h -2.4193 l -0.382,1.093 h -1.555 l 2.222,-6 h 1.8446 l 2.222,6 h -1.555 l -0.378,-1.093 z m -2.0335,-1.1132 h 1.6437 l -0.81983,-2.3871 -0.82384,2.3871 z"
         style="fill:#e74c3c"
         id="path2975" />
    </g>
    <g
       id="g1590"
       transform="matrix(4.0000018,0,0,4.0000018,-1136.1725,-536.00031)">
      <path
         d="M 300.96289,151.5 298,159.49999 h 2 l 0.5,-1 h 3 l 0.5,1 h 2.08594 L 303,151.5 Z m 1.03711,2 0.98828,3 h -1.89062 z m -1.83984,7.99999 c -1.1898,0 -2.16016,0.83895 -2.16016,1.87695 0,0.538 0.25954,1.03105 0.67773,1.37305 l 3.26954,2.75 3.375,-2.75 c 0.418,-0.342 0.67773,-0.83505 0.67773,-1.37305 0,-1.038 -0.97136,-1.87695 -2.16016,-1.87695 -0.7836,0 -1.46304,0.36025 -1.83984,0.90625 -0.3768,-0.546 -1.05625,-0.90625 -1.83984,-0.90625 z m 15.24218,4 c -2.97399,0 -5.40234,2.234 -5.40234,5 0,1.43958 0.65189,2.75242 1.69727,3.66602 l 8.16992,7.33398 8.4375,-7.33398 c 1.046,-0.912 1.69531,-2.22602 1.69531,-3.66602 0,-2.766 -2.42835,-5 -5.40234,-5 -1.958,0 -3.65566,0.96202 -4.59766,2.41602 -0.942,-1.454 -2.63966,-2.41602 -4.59766,-2.41602 z m 22.65235,14 -3.37696,2.75 c -0.418,0.342 -0.67773,0.83505 -0.67773,1.37305 0,1.03801 0.97216,1.87695 2.16016,1.87695 0.784,0 1.46384,-0.36025 1.83984,-0.90625 0.376,0.546 1.05584,0.90625 1.83984,0.90625 1.188,0 2.16016,-0.83895 2.16016,-1.87695 0,-0.538 -0.25973,-1.03105 -0.67773,-1.37305 z m -4.05469,8 2.96289,8 H 339 l 3.08594,-8 H 340 l -0.5,1 h -3 l -0.5,-1 z m 3.09766,3 h 1.89062 l -0.98828,3 z"
         style="opacity:0.2;fill:#000000"
         id="path1568" />
      <path
         d="M 300.96289,151.00001 298,159 h 2 l 0.5,-1 h 3 l 0.5,1 h 2.08594 L 303,151.00001 Z m 1.03711,2 0.98828,3 h -1.89062 z M 300.16016,161 c -1.1898,0 -2.16016,0.83895 -2.16016,1.87695 0,0.538 0.25954,1.03105 0.67773,1.37305 l 3.26954,2.75 3.375,-2.75 C 305.74027,163.908 306,163.41495 306,162.87695 306,161.83895 305.02864,161 303.83984,161 303.05624,161 302.3768,161.36025 302,161.90625 301.6232,161.36025 300.94375,161 300.16016,161 Z m 15.24218,4 C 312.42835,165 310,167.234 310,170 c 0,1.43958 0.65189,2.75242 1.69727,3.66602 l 8.16992,7.33398 8.4375,-7.33398 C 329.35069,172.75402 330,171.44 330,170 c 0,-2.766 -2.42835,-5 -5.40234,-5 -1.958,0 -3.65566,0.96202 -4.59766,2.41602 C 319.058,165.96202 317.36034,165 315.40234,165 Z m 22.65235,14 -3.37696,2.75 c -0.418,0.342 -0.67773,0.83505 -0.67773,1.37305 0,1.03801 0.97216,1.87695 2.16016,1.87695 0.784,0 1.46384,-0.36025 1.83984,-0.90625 0.376,0.546 1.05584,0.90625 1.83984,0.90625 1.188,0 2.16016,-0.83895 2.16016,-1.87695 0,-0.538 -0.25973,-1.03105 -0.67773,-1.37305 z M 334,187 l 2.96289,8 H 339 l 3.08594,-8 H 340 l -0.5,1 h -3 l -0.5,-1 z m 3.09766,3 h 1.89062 L 338,193 Z"
         style="fill:#e74c3c"
         id="path1540"
         sodipodi:nodetypes="cccccccccccccsscccsscssscccsscsccsscssccccccccccccccc" />
    </g>
  </g>
  <g
     id="Highlights">
    <path
       id="rect653"
       style="opacity:0.2;fill:#ffffff"
       d="M 80,44 C 53.408027,44 32,65.408027 32,92 v 2 C 32,67.408027 53.408027,46 80,46 h 128 c 26.59197,0 48,21.408027 48,48 V 92 C 256,65.408027 234.59197,44 208,44 Z"
       sodipodi:nodetypes="sscsscsss" />
    <path
       id="rect773"
       style="opacity:0.2;fill:#ffffff"
       d="m 312,34 c -9.97199,0 -18,8.02801 -18,18 v 1 c 0,-9.97199 8.02801,-18 18,-18 h 48 c 9.97199,0 18,8.02801 18,18 v -1 c 0,-9.97199 -8.02801,-18 -18,-18 z" />
    <path
       id="rect1135"
       style="opacity:0.2;fill:#ffffff;fill-opacity:1"
       d="m 304,144 c -6.64799,0 -12,5.35201 -12,12 v 1 c 0,-6.64799 5.35201,-12 12,-12 h 32 c 6.64799,0 12,5.35201 12,12 v -1 c 0,-6.64799 -5.35201,-12 -12,-12 z" />
    <path
       id="rect1265"
       style="opacity:0.2;fill:#ffffff;fill-opacity:1"
       d="m 300,223 c -4.986,0 -9,4.014 -9,9 v 1 c 0,-4.986 4.014,-9 9,-9 h 24 c 4.986,0 9,4.014 9,9 v -1 c 0,-4.986 -4.014,-9 -9,-9 z" />
    <path
       id="rect1368"
       style="opacity:0.2;fill:#ffffff;fill-opacity:1"
       d="m 424,54 c -3.324,0 -6,2.676003 -6,6 v 1 c 0,-3.323997 2.676,-6 6,-6 h 16 c 3.324,0 6,2.676003 6,6 v -1 c 0,-3.323997 -2.676,-6 -6,-6 z" />
    <path
       id="rect1402"
       style="opacity:0.2;fill:#ffffff;fill-opacity:1"
       d="m 420,140 c -2.216,0 -4,1.784 -4,4 v 1 c 0,-2.216 1.784,-4 4,-4 h 8 c 2.216,0 4,1.784 4,4 v -1 c 0,-2.216 -1.784,-4 -4,-4 z" />
    <path
       id="rect1436"
       style="opacity:0.2;fill:#ffffff;fill-opacity:1"
       d="m 422,102 c -2.216,0 -4,1.784 -4,4 v 1 c 0,-2.216 1.784,-4 4,-4 h 12 c 2.216,0 4,1.784 4,4 v -1 c 0,-2.216 -1.784,-4 -4,-4 z" />
  </g>
</svg>
