<?xml version="1.0" encoding="UTF-8" standalone="no"?>
<!-- Created with Inkscape (http://www.inkscape.org/) -->

<svg
   width="480"
   height="300"
   viewBox="0 0 480 300"
   version="1.1"
   id="svg5"
   inkscape:version="1.2.2 (1:1.2.2+202305151914+b0a8486541)"
   sodipodi:docname="androidstudio.svg"
   xmlns:inkscape="http://www.inkscape.org/namespaces/inkscape"
   xmlns:sodipodi="http://sodipodi.sourceforge.net/DTD/sodipodi-0.dtd"
   xmlns="http://www.w3.org/2000/svg"
   xmlns:svg="http://www.w3.org/2000/svg">
  <sodipodi:namedview
     id="namedview7"
     pagecolor="#888888"
     bordercolor="#000000"
     borderopacity="0.25"
     inkscape:showpageshadow="true"
     inkscape:pageopacity="0"
     inkscape:pagecheckerboard="0"
     inkscape:deskcolor="#888888"
     inkscape:document-units="px"
     showgrid="false"
     showborder="false"
     inkscape:zoom="2.7333333"
     inkscape:cx="239.08537"
     inkscape:cy="150"
     inkscape:window-width="1920"
     inkscape:window-height="1008"
     inkscape:window-x="0"
     inkscape:window-y="0"
     inkscape:window-maximized="1"
     inkscape:current-layer="svg5" />
  <defs
     id="defs2" />
  <g
     id="Baseplate"
     style="display:none">
    <text
       y="19.774782"
       xml:space="preserve"
       x="15.006946"
       style="font-style:normal;font-variant:normal;font-weight:normal;font-stretch:normal;line-height:0%;font-family:'DejaVu Sans';-inkscape-font-specification:'DejaVu Sans';display:inline;fill:#000000;fill-opacity:1;stroke:none;enable-background:new"
       inkscape:label="context"
       id="context"><tspan
         style="font-style:normal;font-variant:normal;font-weight:normal;font-stretch:normal;font-size:18px;line-height:1.25;font-family:'DejaVu Sans';-inkscape-font-specification:'DejaVu Sans'"
         y="19.774782"
         x="15.006946"
         sodipodi:role="line"
         id="tspan3933">apps</tspan></text>
    <text
       y="19.774782"
       xml:space="preserve"
       x="122.48839"
       style="font-style:normal;font-variant:normal;font-weight:bold;font-stretch:normal;line-height:0%;font-family:'DejaVu Sans';-inkscape-font-specification:'DejaVu Sans Bold';text-align:start;writing-mode:lr-tb;text-anchor:start;display:inline;fill:#000000;fill-opacity:1;stroke:none;enable-background:new"
       inkscape:label="icon-name"
       id="icon-name"><tspan
         style="font-style:normal;font-variant:normal;font-weight:bold;font-stretch:normal;font-size:18px;line-height:1.25;font-family:'DejaVu Sans';-inkscape-font-specification:'DejaVu Sans Bold'"
         y="19.774782"
         x="122.48839"
         sodipodi:role="line"
         id="tspan3937">androidstudio</tspan></text>
    <rect
       style="fill:#ffffff"
       id="256x256"
       width="256"
       height="256"
       x="16"
       y="28" />
    <rect
       style="fill:#ffffff"
       id="96x96"
       width="96"
       height="96"
       x="288"
       y="28" />
    <rect
       style="fill:#ffffff"
       id="64x64"
       width="64"
       height="64"
       x="288"
       y="140" />
    <rect
       style="fill:#ffffff"
       id="48x48"
       width="48"
       height="48"
       x="288"
       y="220" />
    <rect
       style="fill:#ffffff"
       id="32x32"
       width="32"
       height="32"
       x="416"
       y="52" />
    <rect
       style="fill:#ffffff"
       id="24x24"
       width="24"
       height="24"
       x="416"
       y="100" />
    <rect
       style="fill:#ffffff"
       id="22x22"
       width="22"
       height="22"
       x="417"
       y="101" />
    <rect
       style="fill:#ffffff"
       id="16x16"
       width="16"
       height="16"
       x="416"
       y="140" />
  </g>
  <g
     id="Shadow">
    <rect
       style="opacity:0.2;fill:#000000"
       id="rect651"
       width="224"
       height="224"
       x="32"
       y="46"
       ry="48" />
    <rect
       style="opacity:0.2;fill:#000000"
       id="rect769"
       width="84"
       height="85"
       x="294"
       y="34"
       ry="18" />
    <rect
       style="opacity:0.2;fill:#000000;fill-opacity:1"
       id="rect1131"
       width="56"
       height="56"
       x="292"
       y="145"
       ry="12" />
    <rect
       style="opacity:0.2;fill:#000000;fill-opacity:1"
       id="rect1261"
       width="42"
       height="42"
       x="291"
       y="224"
       ry="9" />
    <rect
       style="opacity:0.2;fill:#000000;fill-opacity:1"
       id="rect1364"
       width="28"
       height="29"
       x="418"
       y="54"
       ry="6" />
    <rect
       style="opacity:0.2;fill:#000000;fill-opacity:1"
       id="rect1398"
       width="16"
       height="16"
       x="416"
       y="141"
       ry="4" />
    <rect
       style="opacity:0.2;fill:#000000;fill-opacity:1"
       id="rect1432"
       width="20"
       height="20"
       x="418"
       y="103"
       ry="4" />
  </g>
  <g
     id="Background">
    <rect
       style="fill:#efefef;fill-opacity:1"
       id="rect597"
       width="224"
       height="224"
       x="32"
       y="44"
       ry="48" />
    <rect
       style="opacity:1;fill:#efefef;fill-opacity:1"
       id="rect771"
       width="84"
       height="84"
       x="294"
       y="34"
       ry="18" />
    <rect
       style="opacity:1;fill:#efefef;fill-opacity:1"
       id="rect1133"
       width="56"
       height="56"
       x="292"
       y="144"
       ry="12" />
    <rect
       style="opacity:1;fill:#efefef;fill-opacity:1"
       id="rect1263"
       width="42"
       height="42"
       x="291"
       y="223"
       ry="9" />
    <rect
       style="opacity:1;fill:#efefef;fill-opacity:1"
       id="rect1366"
       width="28"
       height="28"
       x="418"
       y="54"
       ry="6" />
    <rect
       style="opacity:1;fill:#efefef;fill-opacity:1"
       id="rect1400"
       width="16"
       height="16"
       x="416"
       y="140"
       ry="4" />
    <rect
       style="opacity:1;fill:#efefef;fill-opacity:1"
       id="rect1434"
       width="20"
       height="20"
       x="418"
       y="102"
       ry="4" />
  </g>
  <g
     id="g2329">
    <g
       id="g3186">
      <path
         d="m 435,118.5 h -11.69533 c -0.72026,-0.005 -1.30234,-0.58799 -1.30465,-1.3075 v -9.2655 c 0,1.09294 0.99998,1.573 1.59398,1.573 h 9.49985 c 0,0 1.90615,-0.12193 1.90615,1.31252 z"
         style="fill:#000000;opacity:0.2"
         id="path4090" />
      <path
         style="fill:#0a455f"
         d="m 427.95345,106.00007 h -4.35467 c -0.88344,0.003 -1.59809,0.67455 -1.59808,1.50243 -0.0263,0.81997 0.67614,1.49794 1.55154,1.49757 H 428 Z"
         id="path2970" />
      <path
         id="path5757"
         style="fill:#000000;opacity:0.1"
         d="M 423.59961 106 C 422.71617 106.003 421.99999 106.67407 422 107.50195 C 421.99704 107.59437 422.00478 107.68539 422.01953 107.77344 C 422.13661 107.05382 422.79899 106.50272 423.59961 106.5 L 427.95312 106.5 L 427.99219 109 L 428 109 L 427.95312 106 L 423.59961 106 z " />
      <path
         d="m 425.58027,104.60007 c -0.18032,-0.004 -0.29237,0.19438 -0.19511,0.34629 l 0.76113,1.22344 c -1.33201,0.81743 -2.14452,2.26744 -2.14629,3.83027 0,2.48528 2.01472,4.5 4.5,4.5 2.48528,0 4.5,-2.01472 4.5,-4.5 -0.002,-1.5627 -0.81509,-3.01233 -2.14717,-3.82939 l 0.76201,-1.22432 c 0.0973,-0.15191 -0.0148,-0.35078 -0.19511,-0.34629 -0.0766,0.002 -0.14684,0.0433 -0.18633,0.10899 l -0.7752,1.24541 c -0.61012,-0.29719 -1.27955,-0.45253 -1.9582,-0.4544 -0.67881,0.001 -1.34855,0.15593 -1.95908,0.45264 l -0.77432,-1.24365 c -0.0395,-0.0657 -0.10971,-0.10677 -0.18633,-0.10899 z"
         style="fill:#000000;opacity:0.2"
         id="path4202" />
      <path
         style="fill:#3ddc84"
         d="m 425.58027,104.10007 c -0.18032,-0.004 -0.29237,0.19438 -0.19511,0.34629 l 0.76113,1.22344 c -1.33201,0.81743 -2.14452,2.26744 -2.14629,3.83027 0,2.48528 2.01472,4.5 4.5,4.5 2.48528,0 4.5,-2.01472 4.5,-4.5 -0.002,-1.5627 -0.81509,-3.01233 -2.14717,-3.82939 l 0.76201,-1.22432 c 0.0973,-0.15191 -0.0148,-0.35078 -0.19511,-0.34629 -0.0766,0.002 -0.14684,0.0433 -0.18633,0.10899 l -0.7752,1.24541 c -0.61012,-0.29719 -1.27955,-0.45253 -1.9582,-0.4544 -0.67881,0.001 -1.34855,0.15593 -1.95908,0.45264 l -0.77432,-1.24365 c -0.0395,-0.0657 -0.10971,-0.10677 -0.18633,-0.10899 z"
         id="path2972" />
      <path
         id="path4174"
         style="fill:#ffffff;opacity:0.2"
         d="M 425.58008 104.09961 C 425.39976 104.09561 425.28751 104.29536 425.38477 104.44727 L 425.49023 104.61719 C 425.51769 104.606 425.54724 104.59888 425.58008 104.59961 C 425.6567 104.60183 425.72613 104.64328 425.76562 104.70898 L 426.54102 105.95312 C 427.15155 105.65642 427.82119 105.501 428.5 105.5 C 429.17865 105.50187 429.84886 105.65789 430.45898 105.95508 L 431.23438 104.70898 C 431.27386 104.64329 431.34332 104.60161 431.41992 104.59961 C 431.45276 104.59879 431.48231 104.60603 431.50977 104.61719 L 431.61523 104.44727 C 431.71253 104.29536 431.60023 104.09512 431.41992 104.09961 C 431.34332 104.10161 431.27386 104.14329 431.23438 104.20898 L 430.45898 105.45508 C 429.84886 105.15789 429.17865 105.00187 428.5 105 C 427.82119 105.001 427.15155 105.15642 426.54102 105.45312 L 425.76562 104.20898 C 425.72613 104.14328 425.6567 104.10183 425.58008 104.09961 z M 425.92578 105.81445 C 424.72523 106.65157 424.00167 108.02543 424 109.5 C 424 109.58695 424.00295 109.67403 424.00781 109.75977 C 424.0881 108.28992 424.8832 106.94518 426.14648 106.16992 L 425.92578 105.81445 z M 431.07422 105.81641 L 430.85352 106.16992 C 432.11687 106.94483 432.91165 108.29007 432.99219 109.75977 C 432.99705 109.67403 433 109.58695 433 109.5 C 432.99811 108.02607 432.27412 106.65326 431.07422 105.81641 z " />
      <path
         style="fill:#4285f4"
         d="m 435,118.00007 h -11.69533 c -0.72026,-0.005 -1.30234,-0.58799 -1.30465,-1.3075 v -9.2655 c 0,1.09294 0.99998,1.573 1.59398,1.573 h 9.49985 c 0,0 1.90615,-0.12193 1.90615,1.31252 z"
         id="path2974" />
      <path
         d="m 433.67613,112.49998 h -0.60048 c -0.0418,0 -0.0756,0.0858 -0.0756,0.12305 v 7.80357 c -8e-5,0.0356 0.031,0.0652 0.0709,0.0674 h 0.61939 c 0.72408,-0.002 1.3097,-0.52582 1.30969,-1.17079 V 111.245 c 2e-5,0.64992 -0.59425,1.25968 -1.32388,1.255 z"
         style="fill:#000000;opacity:0.2"
         id="path4118" />
      <path
         style="fill:#073042"
         d="m 428.8802,112.22801 a 0.6725945,0.68055508 0 1 0 0.25809,1.30571 0.66868411,0.6765984 0 0 0 -0.25809,-1.30571 z"
         id="path2976" />
      <path
         d="m 428.49392,111.50005 c -0.21437,0.003 -0.3856,0.17763 -0.38283,0.38971 v 0.45328 c -0.4656,0.16399 -0.77713,0.60224 -0.77782,1.09422 5.1e-4,0.34446 0.15436,0.67096 0.42005,0.89141 l -2.68742,5.2974 c -0.10223,0.19695 -0.0846,0.43112 0.0463,0.61219 0.13281,0.17937 0.35599,0.27796 0.5864,0.25955 0.23048,-0.021 0.43088,-0.15903 0.52336,-0.3602 l 1.79794,-3.3216 c 0.0867,-0.16819 0.26656,-0.27844 0.46411,-0.27923 0.005,-10e-6 0.0105,0.002 0.016,0.002 0.005,-1.5e-4 0.0104,-0.002 0.0159,-0.002 0.19755,7.8e-4 0.37739,0.11104 0.46411,0.27923 l 1.79794,3.3216 c 0.0925,0.20117 0.29288,0.33923 0.52336,0.3602 0.23041,0.0184 0.45359,-0.0802 0.5864,-0.25955 0.13091,-0.18107 0.14856,-0.41524 0.0463,-0.61219 l -2.68667,-5.29588 c 0.26582,-0.22094 0.41942,-0.54806 0.41929,-0.89293 -3.7e-4,-0.49226 -0.31196,-0.93089 -0.77781,-1.09498 v -0.45252 c 0.003,-0.21679 -0.17586,-0.39309 -0.39499,-0.38971 z m 0.006,1.16232 c 0.42958,1e-5 0.77782,0.34693 0.77782,0.77489 0,0.42795 -0.34824,0.77488 -0.77782,0.77488 -0.42958,0 -0.77782,-0.34693 -0.77782,-0.77488 0,-0.42796 0.34824,-0.77489 0.77782,-0.77489 z"
         style="opacity:0.1;fill:#000000"
         id="path4146" />
      <path
         style="fill:#0a455f"
         d="m 428.49392,111.00012 c -0.21437,0.003 -0.3856,0.17763 -0.38283,0.38971 v 0.45328 c -0.4656,0.16399 -0.77713,0.60224 -0.77782,1.09422 5.1e-4,0.34446 0.15436,0.67096 0.42005,0.89141 l -2.68742,5.2974 c -0.10223,0.19695 -0.0846,0.43112 0.0463,0.61219 0.13281,0.17937 0.35599,0.27796 0.5864,0.25955 0.23048,-0.021 0.43088,-0.15903 0.52336,-0.3602 l 1.79794,-3.3216 c 0.0867,-0.16819 0.26656,-0.27844 0.46411,-0.27923 0.005,-1e-5 0.0105,0.002 0.016,0.002 0.005,-1.5e-4 0.0104,-0.002 0.0159,-0.002 0.19755,7.8e-4 0.37739,0.11104 0.46411,0.27923 l 1.79794,3.3216 c 0.0925,0.20117 0.29288,0.33923 0.52336,0.3602 0.23041,0.0184 0.45359,-0.0802 0.5864,-0.25955 0.13091,-0.18107 0.14856,-0.41524 0.0463,-0.61219 l -2.68667,-5.29588 c 0.26582,-0.22094 0.41942,-0.54806 0.41929,-0.89293 -3.7e-4,-0.49226 -0.31196,-0.93089 -0.77781,-1.09498 v -0.45252 c 0.003,-0.21679 -0.17586,-0.39309 -0.39499,-0.38971 z m 0.006,1.16232 c 0.42958,1e-5 0.77782,0.34693 0.77782,0.77489 0,0.42795 -0.34824,0.77488 -0.77782,0.77488 -0.42958,0 -0.77782,-0.34693 -0.77782,-0.77488 0,-0.42796 0.34824,-0.77489 0.77782,-0.77489 z"
         id="path2978" />
      <path
         style="fill:#0a455f"
         d="m 433.67613,112.00007 h -0.60048 c -0.0418,0 -0.0756,0.0858 -0.0756,0.12305 v 7.80357 c -8e-5,0.0356 0.031,0.0652 0.0709,0.0674 h 0.61939 c 0.72408,-0.002 1.3097,-0.52582 1.30969,-1.17079 v -8.07821 c 2e-5,0.64992 -0.59425,1.25968 -1.32388,1.255 z"
         id="path2984" />
      <path
         d="m 426.5,107.5 c -0.27614,0 -0.5,0.22386 -0.5,0.5 0,0.27614 0.22386,0.5 0.5,0.5 0.27614,0 0.5,-0.22386 0.5,-0.5 0,-0.27614 -0.22386,-0.5 -0.5,-0.5 z m 4,0 c -0.27614,0 -0.5,0.22386 -0.5,0.5 0,0.27614 0.22386,0.5 0.5,0.5 0.27614,0 0.5,-0.22386 0.5,-0.5 0,-0.27614 -0.22386,-0.5 -0.5,-0.5 z"
         style="fill:#000000;fill-opacity:1;stroke-width:4;stroke-linecap:square;opacity:0.2"
         id="path4316" />
      <path
         id="path4278"
         style="opacity:1;fill:#ffffff;fill-opacity:1;stroke-width:4;stroke-linecap:square"
         d="m 426.5,107 c -0.27614,0 -0.5,0.22386 -0.5,0.5 0,0.27614 0.22386,0.5 0.5,0.5 0.27614,0 0.5,-0.22386 0.5,-0.5 0,-0.27614 -0.22386,-0.5 -0.5,-0.5 z m 4,0 c -0.27614,0 -0.5,0.22386 -0.5,0.5 0,0.27614 0.22386,0.5 0.5,0.5 0.27614,0 0.5,-0.22386 0.5,-0.5 0,-0.27614 -0.22386,-0.5 -0.5,-0.5 z" />
    </g>
    <g
       id="g5837"
       transform="translate(0,-1.0003151)">
      <path
         d="m 422.96898,145 h -2.90311 c -0.58896,0.002 -1.0654,0.4497 -1.06539,1.00162 -0.0175,0.54665 0.45076,0.99863 1.03436,0.99838 h 2.96517 z"
         style="fill:#0a455f;stroke-width:0.666667"
         id="path5813" />
      <path
         id="path6021"
         style="fill:#000000;stroke-width:0.666667;opacity:0.1"
         d="M 420.06641 145.00032 C 419.47745 145.00232 418.99999 145.45035 419 146.00227 C 418.9971 146.09271 419.00923 146.18035 419.03125 146.26399 C 419.14512 145.82709 419.56513 145.50202 420.06641 145.50032 L 422.96875 145.50032 L 422.99219 147.00032 L 423 147.00032 L 422.96875 145.00032 L 420.06641 145.00032 z " />
      <path
         d="m 421.74414,143.90079 c -0.0403,0.001 -0.0817,0.0116 -0.11914,0.0332 -0.11994,0.0692 -0.16105,0.22185 -0.0918,0.3418 l 0.53711,0.92968 c -0.67796,0.56955 -1.06969,1.40949 -1.07031,2.29493 0,1.65686 1.34315,3 3,3 1.65685,0 3,-1.34314 3,-3 -4e-5,-0.88612 -0.39183,-1.72689 -1.07031,-2.29688 l 0.53711,-0.92773 c 0.0693,-0.11995 0.0281,-0.27255 -0.0918,-0.3418 -0.11994,-0.0693 -0.27255,-0.0282 -0.3418,0.0918 l -0.51172,0.88867 c -0.46117,-0.27121 -0.98647,-0.41417 -1.52148,-0.41406 -0.53423,0.002 -1.05813,0.14733 -1.51758,0.41992 l -0.51562,-0.89453 c -0.0476,-0.0825 -0.13404,-0.1274 -0.22266,-0.125 z"
         style="fill:#000000;fill-opacity:1;stroke-width:4;stroke-linecap:square;opacity:0.2"
         id="path5937" />
      <path
         id="path5839"
         style="opacity:1;fill:#3ddc84;fill-opacity:1;stroke-width:4;stroke-linecap:square"
         d="m 421.74414,143.40071 c -0.0403,0.001 -0.0817,0.0116 -0.11914,0.0332 -0.11994,0.0693 -0.16105,0.22185 -0.0918,0.3418 l 0.53711,0.92968 c -0.67796,0.56954 -1.06969,1.40949 -1.07031,2.29493 0,1.65685 1.34315,3 3,3 1.65685,0 3,-1.34315 3,-3 -4e-5,-0.88612 -0.39183,-1.7269 -1.07031,-2.29688 l 0.53711,-0.92773 c 0.0693,-0.11995 0.0281,-0.27255 -0.0918,-0.3418 -0.11994,-0.0693 -0.27255,-0.0282 -0.3418,0.0918 l -0.51172,0.88867 c -0.46117,-0.27122 -0.98647,-0.41418 -1.52148,-0.41406 -0.53423,0.002 -1.05813,0.14732 -1.51758,0.41992 l -0.51562,-0.89453 c -0.0476,-0.0825 -0.13404,-0.1274 -0.22266,-0.125 z" />
      <path
         id="path5965"
         style="fill:#ffffff;fill-opacity:1;stroke-width:4;stroke-linecap:square;opacity:0.2"
         d="M 421.74414 143.40071 C 421.70384 143.40171 421.66244 143.41231 421.625 143.43391 C 421.50506 143.50321 421.46395 143.65576 421.5332 143.77571 L 421.625 143.93391 C 421.66244 143.91231 421.70384 143.90171 421.74414 143.90071 C 421.83276 143.89831 421.9192 143.94321 421.9668 144.02571 L 422.48242 144.92024 C 422.94187 144.64764 423.46577 144.50232 424 144.50032 C 424.53501 144.5002 425.06031 144.64316 425.52148 144.91438 L 426.0332 144.02571 C 426.10245 143.90571 426.25506 143.86461 426.375 143.93391 L 426.4668 143.77571 C 426.5361 143.65576 426.4949 143.50316 426.375 143.43391 C 426.25506 143.36461 426.10245 143.40571 426.0332 143.52571 L 425.52148 144.41438 C 425.06031 144.14316 424.53501 144.0002 424 144.00032 C 423.46577 144.00232 422.94187 144.14764 422.48242 144.42024 L 421.9668 143.52571 C 421.9192 143.44321 421.83276 143.39831 421.74414 143.40071 z M 426.11719 144.87727 L 425.92969 145.20344 C 426.54354 145.71912 426.92158 146.45632 426.98828 147.24836 C 426.995 147.16644 427 147.08397 427 147.00032 C 426.99996 146.20004 426.67888 145.4375 426.11719 144.87727 z M 421.88281 144.87922 C 421.3215 145.439 421.00056 146.20065 421 147.00032 C 421 147.08397 421.005 147.16644 421.01172 147.24836 C 421.07883 146.45696 421.45693 145.72068 422.07031 145.20539 L 421.88281 144.87922 z " />
      <path
         d="m 429.00008,153.49945 h -8.69542 c -0.72026,-0.005 -1.30234,-0.58799 -1.30465,-1.3075 l 4.7e-4,-5.69063 c -4.8e-4,0.48983 0.44036,0.99838 1.03436,0.99838 h 7.0591 c 0,0 1.90615,-0.12193 1.90615,1.31252 z"
         style="fill:#000000;opacity:0.2"
         id="path6077" />
      <path
         d="m 429.00008,152.99975 h -8.69542 c -0.72026,-0.005 -1.30234,-0.58799 -1.30465,-1.3075 l 4.7e-4,-5.69063 C 419,146.49145 419.44084,147 420.03484,147 h 7.0591 c 0,0 1.90615,-0.12193 1.90615,1.31252 z"
         style="fill:#4285f4"
         id="path5698" />
      <path
         d="m 423.49394,148.50036 c -0.21437,0.003 -0.3856,0.17763 -0.38283,0.38971 v 0.45328 c -0.4656,0.16399 -0.77713,0.60224 -0.77782,1.09422 5.1e-4,0.34446 0.15436,0.67096 0.42005,0.89141 l -1.68737,3.2974 c -0.10223,0.19695 -0.0846,0.43112 0.0463,0.61219 0.13281,0.17937 0.35599,0.27796 0.5864,0.25955 0.23048,-0.021 0.43088,-0.15903 0.52336,-0.3602 l 0.79789,-1.52199 c 0.0867,-0.16819 0.26656,-0.27844 0.46411,-0.27923 0.005,-1e-5 0.0105,0.002 0.016,0.002 0.005,-1.5e-4 0.0104,-0.002 0.0159,-0.002 0.19755,7.8e-4 0.37739,0.11104 0.46411,0.27923 l 0.79793,1.52199 c 0.0925,0.20117 0.29288,0.33923 0.52336,0.3602 0.23041,0.0184 0.45359,-0.0802 0.5864,-0.25955 0.13091,-0.18107 0.14856,-0.41524 0.0463,-0.61219 l -1.68666,-3.29588 c 0.26582,-0.22094 0.41942,-0.54806 0.41929,-0.89293 -3.7e-4,-0.49226 -0.31196,-0.93089 -0.77781,-1.09498 v -0.45252 c 0.003,-0.21679 -0.17586,-0.39309 -0.39499,-0.38971 z m 0.006,1.16232 c 0.42958,1e-5 0.77782,0.34693 0.77782,0.77489 0,0.42795 -0.34824,0.77488 -0.77782,0.77488 -0.42958,0 -0.77782,-0.34693 -0.77782,-0.77488 0,-0.42796 0.34824,-0.77489 0.77782,-0.77489 z"
         style="fill:#000000;opacity:0.1"
         id="path6161" />
      <path
         d="m 423.49394,148.00036 c -0.21437,0.003 -0.3856,0.17763 -0.38283,0.38971 v 0.45328 c -0.4656,0.16399 -0.77713,0.60224 -0.77782,1.09422 5.1e-4,0.34446 0.15436,0.67096 0.42005,0.89141 l -1.68737,3.2974 c -0.10223,0.19695 -0.0846,0.43112 0.0463,0.61219 0.13281,0.17937 0.35599,0.27796 0.5864,0.25955 0.23048,-0.021 0.43088,-0.15903 0.52336,-0.3602 l 0.79789,-1.52199 c 0.0867,-0.16819 0.26656,-0.27844 0.46411,-0.27923 0.005,-1e-5 0.0105,0.002 0.016,0.002 0.005,-1.5e-4 0.0104,-0.002 0.0159,-0.002 0.19755,7.8e-4 0.37739,0.11104 0.46411,0.27923 l 0.79793,1.52199 c 0.0925,0.20117 0.29288,0.33923 0.52336,0.3602 0.23041,0.0184 0.45359,-0.0802 0.5864,-0.25955 0.13091,-0.18107 0.14856,-0.41524 0.0463,-0.61219 l -1.68666,-3.29588 c 0.26582,-0.22094 0.41942,-0.54806 0.41929,-0.89293 -3.7e-4,-0.49226 -0.31196,-0.93089 -0.77781,-1.09498 v -0.45252 c 0.003,-0.21679 -0.17586,-0.39309 -0.39499,-0.38971 z m 0.006,1.16232 c 0.42958,1e-5 0.77782,0.34693 0.77782,0.77489 0,0.42795 -0.34824,0.77488 -0.77782,0.77488 -0.42958,0 -0.77782,-0.34693 -0.77782,-0.77488 0,-0.42796 0.34824,-0.77489 0.77782,-0.77489 z"
         style="fill:#0a455f"
         id="path6133" />
      <path
         d="m 427.67619,149.8713 h -0.60048 c -0.0418,0 -0.0756,0.0858 -0.0756,0.12306 v 4.80407 c -8e-5,0.0356 0.031,0.0652 0.0709,0.0674 h 0.61939 c 0.72408,-0.002 1.3097,-0.52583 1.30969,-1.1708 v -5.07871 c 2e-5,0.64992 -0.59425,1.25968 -1.32388,1.255 z"
         style="fill:#000000;opacity:0.2"
         id="path6105" />
      <path
         d="m 427.67619,149.37176 h -0.60048 c -0.0418,0 -0.0756,0.0858 -0.0756,0.12306 v 4.80407 c -8e-5,0.0356 0.031,0.0652 0.0709,0.0674 h 0.61939 c 0.72408,-0.002 1.3097,-0.52583 1.30969,-1.1708 v -5.07871 c 2e-5,0.64992 -0.59425,1.25968 -1.32388,1.255 z"
         style="fill:#0a455f"
         id="path5729" />
    </g>
    <g
       id="g2012"
       transform="translate(-1.6221409,2.7413574)">
      <path
         d="m 441.62348,73.258669 h -14.39419 c -0.88647,-0.0057 -1.60289,-0.723715 -1.60573,-1.609297 V 60.614643 c -0.005,0.933845 0.78216,1.701318 1.71521,1.644069 h 11.93869 c 0,0 2.34602,-0.22747 2.34602,1.53807 z"
         style="opacity:0.2;fill:#000000"
         id="path690" />
      <path
         d="m 431.57629,58.258794 h -4.35465 c -0.88343,0.0027 -1.59809,0.674546 -1.59808,1.502418 -0.0263,0.819974 0.67613,1.49794 1.55154,1.49757 h 4.44773 z"
         style="fill:#0a455f"
         id="path507" />
      <path
         id="path535"
         style="opacity:0.1;fill:#000000"
         d="m 427.22247,58.258726 c -0.88343,0.0027 -1.59961,0.674083 -1.59961,1.501953 -0.006,0.182399 0.0258,0.35709 0.0859,0.519531 0.2135,-0.592174 0.80981,-1.019354 1.51367,-1.021484 h 4.35351 l 0.0312,2 h 0.0156 l -0.0469,-3 z" />
      <path
         d="m 430.3787,56.258726 c -0.20036,-0.005 -0.32487,0.215974 -0.2168,0.384764 l 0.8457,1.359369 c -1.48,0.908258 -2.38279,2.519367 -2.38475,4.255843 0,2.761413 2.23857,4.999981 4.99998,4.999981 2.76141,0 4.99998,-2.238567 4.99998,-4.999981 -0.002,-1.736323 -0.90565,-3.347028 -2.38573,-4.254866 l 0.84667,-1.360346 c 0.10807,-0.16879 -0.0164,-0.389762 -0.21679,-0.384764 -0.0851,0.0025 -0.16315,0.0481 -0.20703,0.121093 l -0.86133,1.383784 c -0.67791,-0.330206 -1.42172,-0.502806 -2.17577,-0.504881 -0.75423,0.0013 -1.49839,0.173253 -2.17675,0.502927 l -0.86035,-1.38183 c -0.0439,-0.07299 -0.1219,-0.118624 -0.20703,-0.121093 z"
         style="fill:#000000;opacity:0.2"
         id="path4230" />
      <path
         d="m 430.3787,55.258769 c -0.20036,-0.005 -0.32487,0.215974 -0.2168,0.384764 l 0.8457,1.359369 c -1.48,0.908258 -2.38279,2.519367 -2.38475,4.255843 0,2.761413 2.23857,4.999981 4.99998,4.999981 2.76141,0 4.99998,-2.238567 4.99998,-4.999981 -0.002,-1.736323 -0.90565,-3.347028 -2.38573,-4.254866 l 0.84667,-1.360346 c 0.10807,-0.16879 -0.0164,-0.389762 -0.21679,-0.384764 -0.0851,0.0025 -0.16315,0.0481 -0.20703,0.121093 l -0.86133,1.383784 c -0.67791,-0.330206 -1.42172,-0.502806 -2.17577,-0.504881 -0.75423,0.0013 -1.49839,0.173253 -2.17675,0.502927 l -0.86035,-1.38183 c -0.0439,-0.07299 -0.1219,-0.118624 -0.20703,-0.121093 z"
         style="fill:#3ddc84"
         id="path423" />
      <path
         id="path451"
         style="opacity:0.2;fill:#ffffff"
         d="m 430.37872,55.258726 c -0.20036,-0.005 -0.32487,0.215976 -0.2168,0.384766 l 0.84571,1.359375 c -0.009,0.0052 -0.0169,0.01037 -0.0254,0.01563 l 0.4629,0.74414 c 0.67836,-0.329674 1.4235,-0.502587 2.17773,-0.503906 0.75405,0.0021 1.49787,0.175654 2.17578,0.505859 l 0.46289,-0.74414 c -0.008,-0.0053 -0.0169,-0.01041 -0.0254,-0.01563 l 0.84766,-1.361328 c 0.10807,-0.16879 -0.0164,-0.389764 -0.2168,-0.384766 -0.0851,0.0025 -0.16315,0.0481 -0.20703,0.121094 l -0.86133,1.384765 c -0.67791,-0.330205 -1.42173,-0.503784 -2.17578,-0.505859 -0.75423,0.0013 -1.49937,0.174232 -2.17773,0.503906 l -0.85938,-1.382812 c -0.0439,-0.07299 -0.1219,-0.118625 -0.20703,-0.121094 z m 0.19531,2.046875 c -1.21967,0.939003 -1.9494,2.3942 -1.95117,3.953125 0,0.17599 0.01,0.350186 0.0273,0.521484 0.15068,-1.55008 1.01449,-2.953207 2.35743,-3.777343 z m 6.09766,0 -0.43555,0.699219 c 1.343,0.823755 2.20825,2.22549 2.35938,3.77539 0.0177,-0.171297 0.0273,-0.345495 0.0273,-0.521484 -0.002,-1.558407 -0.73191,-3.014469 -1.95117,-3.953125 z" />
      <path
         d="m 441.62348,72.258739 h -14.39419 c -0.88647,-0.0057 -1.60289,-0.723715 -1.60573,-1.609297 v -11.03473 c -0.005,0.933846 0.78216,1.701319 1.71521,1.64407 h 11.93869 c 0,0 2.34602,-0.227471 2.34602,1.53807 z"
         style="fill:#4285f4"
         id="path606" />
      <circle
         style="fill:#073042;fill-opacity:1;stroke-width:3.60121;stroke-linecap:square"
         id="path818"
         cx="433.49792"
         cy="65.883873"
         r="0.875" />
      <path
         d="m 433.11512,64.258704 c -0.27561,0.0043 -0.49575,0.229228 -0.49219,0.502928 v 0.584958 c -0.59859,0.211633 -0.9991,0.777205 -0.99999,1.412104 6.5e-4,0.44454 0.19845,0.865892 0.54003,1.150386 l -3.45506,7.221652 c -0.13143,0.254164 -0.10873,0.55637 0.0596,0.790036 0.17075,0.231482 0.45768,0.358718 0.7539,0.33496 0.29632,-0.02707 0.55396,-0.20524 0.67285,-0.464842 l 2.31152,-4.671857 c 0.11149,-0.217061 0.3427,-0.359341 0.59667,-0.36035 0.007,-2.1e-5 0.0134,0.0027 0.0205,0.003 0.007,-2e-4 0.0134,-0.003 0.0205,-0.003 0.25397,0.001 0.48518,0.143289 0.59668,0.36035 l 2.31151,4.671857 c 0.11889,0.259602 0.37653,0.437772 0.67285,0.464842 0.29622,0.02376 0.58315,-0.103478 0.7539,-0.33496 0.1683,-0.233666 0.191,-0.535872 0.0596,-0.790036 l -3.45408,-7.219698 c 0.34175,-0.285116 0.53924,-0.707273 0.53908,-1.15234 -4.8e-4,-0.635258 -0.40107,-1.201327 -1,-1.41308 v -0.583982 c 0.004,-0.279774 -0.22609,-0.507294 -0.50781,-0.502928 z m 0.008,1.499994 c 0.55228,0 1,0.447713 1,0.999996 0,0.552283 -0.44772,0.999996 -1,0.999996 -0.55228,0 -0.99999,-0.447714 -1,-0.999996 1e-5,-0.552282 0.44772,-0.999996 1,-0.999996 z"
         style="opacity:0.1;fill:#000000"
         id="path718" />
      <path
         d="m 433.11511,63.258877 c -0.27561,0.0043 -0.49575,0.229229 -0.49219,0.502928 v 0.584958 c -0.59859,0.211633 -0.9991,0.777205 -0.99999,1.412104 6.5e-4,0.44454 0.19845,0.865892 0.54003,1.150386 l -3.45506,7.221652 c -0.13143,0.254164 -0.10873,0.556369 0.0596,0.790036 0.17075,0.231482 0.45768,0.358718 0.7539,0.33496 0.29632,-0.02707 0.55396,-0.20524 0.67285,-0.464842 l 2.31152,-4.671857 c 0.11149,-0.217061 0.3427,-0.359341 0.59667,-0.36035 0.007,-2.1e-5 0.0135,0.0027 0.0205,0.0029 0.007,-2e-4 0.0134,-0.0029 0.0205,-0.0029 0.25397,10e-4 0.48519,0.143289 0.59668,0.36035 l 2.31151,4.671857 c 0.1189,0.259602 0.37653,0.437772 0.67285,0.464842 0.29623,0.02376 0.58315,-0.103478 0.75391,-0.33496 0.1683,-0.233667 0.191,-0.535872 0.0596,-0.790036 l -3.4541,-7.219698 c 0.34175,-0.285119 0.53923,-0.707276 0.53906,-1.15234 -4.7e-4,-0.635258 -0.40106,-1.201327 -0.99999,-1.41308 v -0.583982 c 0.004,-0.279774 -0.22609,-0.507295 -0.50781,-0.502928 z m 0.008,1.499994 c 0.55228,0 0.99999,0.447713 0.99999,0.999996 0,0.552283 -0.44771,0.999996 -0.99999,0.999996 -0.55228,0 -1,-0.447714 -1,-0.999996 0,-0.552282 0.44772,-0.999996 1,-0.999996 z"
         style="fill:#0a455f"
         id="path746" />
      <path
         d="m 440.29893,65.258637 h -0.60048 c -0.0418,0 -0.0756,0.02816 -0.0756,0.07397 v 10.343054 c -8e-5,0.04386 0.031,0.0802 0.0709,0.08294 h 0.61939 c 0.72408,-0.0028 1.30968,-0.647192 1.30968,-1.441031 V 63.758643 c 2e-5,0.799925 -0.59425,1.505748 -1.32387,1.499994 z"
         style="opacity:0.2;fill:#000000"
         id="path662" />
      <path
         d="m 440.29893,64.258771 h -0.60047 c -0.0418,0 -0.0756,0.02816 -0.0756,0.07397 v 10.343054 c -8e-5,0.04386 0.031,0.0802 0.0709,0.08294 h 0.61938 c 0.72408,-0.0029 1.30969,-0.647192 1.30968,-1.441031 V 62.758776 c 2e-5,0.799925 -0.59424,1.505749 -1.32386,1.499995 z"
         style="fill:#0a455f"
         id="path634" />
      <path
         d="m 431.12214,59.758643 c -0.27614,0 -0.5,0.223858 -0.5,0.5 0,0.276143 0.22386,0.5 0.5,0.5 0.27614,0 0.5,-0.223857 0.5,-0.5 0,-0.276142 -0.22386,-0.5 -0.5,-0.5 z m 5.00195,0 c -0.27614,0 -0.5,0.223858 -0.5,0.5 0,0.276143 0.22386,0.5 0.5,0.5 0.27614,0 0.5,-0.223857 0.5,-0.5 0,-0.276142 -0.22386,-0.5 -0.5,-0.5 z"
         style="fill:#000000;fill-opacity:1;stroke-width:4;stroke-linecap:square;opacity:0.2"
         id="path5615" />
      <path
         id="path1411"
         style="fill:#ffffff;fill-opacity:1;stroke-width:4;stroke-linecap:square"
         d="m 431.12214,59.258643 c -0.27614,0 -0.5,0.223858 -0.5,0.5 0,0.276142 0.22386,0.5 0.5,0.5 0.27614,0 0.5,-0.223858 0.5,-0.5 0,-0.276142 -0.22386,-0.5 -0.5,-0.5 z m 5.00195,0 c -0.27614,0 -0.5,0.223858 -0.5,0.5 0,0.276142 0.22386,0.5 0.5,0.5 0.27614,0 0.5,-0.223858 0.5,-0.5 0,-0.276142 -0.22386,-0.5 -0.5,-0.5 z" />
    </g>
    <g
       id="g3237">
      <path
         d="m 310.9069,232.00013 h -8.70932 c -1.76686,0.005 -3.19615,1.34909 -3.19615,3.00483 -0.0525,1.63995 1.35226,2.99589 3.10307,2.99516 H 311 Z"
         style="fill:#0a455f;stroke-width:2"
         id="path3580" />
      <path
         id="path3608"
         style="fill:#000000;stroke-width:2;opacity:0.1"
         d="M 302.19727 232 C 300.43041 232.005 299.00195 233.35012 299.00195 235.00586 C 298.99602 235.19129 299.00934 235.37221 299.03906 235.54883 C 299.27323 234.10945 300.59605 233.00453 302.19727 233 L 310.90625 233 L 310.98438 238 L 311 238 L 310.90625 232 L 302.19727 232 z " />
      <path
         d="m 306.16055,228.20014 c -0.36065,-0.009 -0.58475,0.38876 -0.39022,0.69258 l 1.52226,2.44687 c -2.66402,1.63487 -4.28903,4.53487 -4.29257,7.66053 0,4.97055 4.02943,8.99998 8.99998,8.99998 4.97055,0 8.99998,-4.02943 8.99998,-8.99998 -0.005,-3.12539 -1.63017,-6.02466 -4.29433,-7.65877 l 1.52402,-2.44863 c 0.19453,-0.30382 -0.0296,-0.70157 -0.39022,-0.69258 -0.15323,0.004 -0.29367,0.0866 -0.37266,0.21796 l -1.5504,2.49081 c -1.22024,-0.59436 -2.5591,-0.90504 -3.91639,-0.90877 -1.35761,0.002 -2.6971,0.31186 -3.91815,0.90527 l -1.54864,-2.48731 c -0.079,-0.13138 -0.21943,-0.21352 -0.37266,-0.21796 z"
         style="fill:#3ddc84;stroke-width:2"
         id="path3496" />
      <path
         id="path3524"
         style="fill:#f9f9f9;stroke-width:2;opacity:0.2"
         d="M 306.16016 228.19922 C 305.79951 228.19022 305.575 228.58876 305.76953 228.89258 L 305.98242 229.23633 C 306.03713 229.21422 306.0948 229.19759 306.16016 229.19922 C 306.31339 229.20366 306.4542 229.28659 306.5332 229.41797 L 308.08203 231.90625 C 309.30308 231.31284 310.64239 231.002 312 231 C 313.35729 231.00373 314.69578 231.31384 315.91602 231.9082 L 317.4668 229.41797 C 317.54579 229.28661 317.68661 229.20322 317.83984 229.19922 C 317.90519 229.19759 317.96287 229.21422 318.01758 229.23633 L 318.23047 228.89258 C 318.425 228.58876 318.20046 228.19023 317.83984 228.19922 C 317.68661 228.20322 317.54579 228.28661 317.4668 228.41797 L 315.91602 230.9082 C 314.69578 230.31384 313.35729 230.00373 312 230 C 310.64239 230.002 309.30308 230.31284 308.08203 230.90625 L 306.5332 228.41797 C 306.4542 228.28659 306.31339 228.20366 306.16016 228.19922 z M 306.85156 231.62891 C 304.45046 233.30314 303.00334 236.05085 303 239 C 303 239.17457 303.00582 239.34742 303.01562 239.51953 C 303.1757 236.57922 304.76593 233.89065 307.29297 232.33984 L 306.85156 231.62891 z M 317.14648 231.63281 L 316.70508 232.3418 C 319.23179 233.8916 320.82255 236.58014 320.98438 239.51953 C 320.99418 239.34742 321 239.17457 321 239 C 320.99528 236.05146 319.5472 233.30639 317.14648 231.63281 z " />
      <path
         d="m 324.99997,256.99995 h -23.39061 c -1.44051,-0.01 -2.60467,-1.176 -2.60929,-2.615 V 235.854 c 0,2.18587 1.99995,3.14599 3.18795,3.14599 h 18.99966 c 0,0 3.81229,-0.24386 3.81229,2.62501 z"
         style="fill:#000000;stroke-width:2;opacity:0.2"
         id="path3692" />
      <path
         d="m 324.99997,256.00008 h -23.39061 c -1.44051,-0.01 -2.60467,-1.176 -2.60929,-2.615 v -18.53095 c 0,2.18587 1.99995,3.14599 3.18795,3.14599 h 18.99966 c 0,0 3.81229,-0.24386 3.81229,2.62501 z"
         style="fill:#4285f4;stroke-width:2"
         id="path3664" />
      <circle
         style="opacity:1;fill:#073042;fill-opacity:1;stroke-width:3.66667;stroke-linecap:square"
         id="path3820"
         cx="312.77499"
         cy="245.825"
         r="1.375" />
      <path
         d="m 311.98784,243.0001 c -0.42874,0.006 -0.7712,0.35524 -0.76566,0.77942 v 0.90654 c -0.9312,0.328 -1.55425,1.20449 -1.55563,2.18843 0.001,0.68894 0.30871,1.34194 0.84009,1.78284 l -5.37482,10.59477 c -0.20446,0.3939 -0.1692,0.86224 0.0926,1.22436 0.26562,0.35876 0.71198,0.55594 1.1728,0.51912 0.46096,-0.042 0.86176,-0.31808 1.04672,-0.7204 l 3.59587,-6.64318 c 0.1734,-0.3364 0.53312,-0.5569 0.92822,-0.55846 0.012,-4e-5 0.021,0.004 0.032,0.004 0.01,-3.2e-4 0.0208,-0.004 0.0318,-0.004 0.3951,0.002 0.75478,0.22206 0.92822,0.55846 l 3.59587,6.64318 c 0.185,0.40232 0.58576,0.67844 1.04672,0.7204 0.46082,0.0368 0.90718,-0.1604 1.1728,-0.51912 0.26181,-0.36212 0.29711,-0.83046 0.0926,-1.22436 l -5.37332,-10.59175 c 0.53164,-0.44186 0.83883,-1.0961 0.83857,-1.78586 -7.4e-4,-0.9845 -0.62391,-1.86177 -1.55561,-2.18993 v -0.90504 c 0.006,-0.43358 -0.35172,-0.7862 -0.78998,-0.77942 z m 0.012,2.32463 c 0.85916,0 1.55564,0.69386 1.55564,1.54976 0,0.85592 -0.69648,1.54976 -1.55564,1.54976 -0.85916,0 -1.55564,-0.69384 -1.55564,-1.54976 0,-0.8559 0.69648,-1.54976 1.55564,-1.54976 z"
         style="fill:#000000;stroke-width:2;opacity:0.1"
         id="path3954" />
      <path
         d="m 311.98784,242.00021 c -0.42874,0.006 -0.7712,0.35524 -0.76566,0.77942 v 0.90654 c -0.9312,0.328 -1.55425,1.20449 -1.55563,2.18843 0.001,0.68894 0.30871,1.34194 0.84009,1.78284 l -5.37482,10.59477 c -0.20446,0.3939 -0.1692,0.86224 0.0926,1.22436 0.26562,0.35876 0.71198,0.55594 1.1728,0.51912 0.46096,-0.042 0.86176,-0.31808 1.04672,-0.7204 l 3.59587,-6.64318 c 0.1734,-0.3364 0.53312,-0.5569 0.92822,-0.55846 0.012,-4e-5 0.021,0.004 0.032,0.004 0.01,-3.2e-4 0.0208,-0.004 0.0318,-0.004 0.3951,0.002 0.75478,0.22206 0.92822,0.55846 l 3.59587,6.64318 c 0.185,0.40232 0.58576,0.67844 1.04672,0.7204 0.46082,0.0368 0.90718,-0.1604 1.1728,-0.51912 0.26181,-0.36212 0.29711,-0.83046 0.0926,-1.22436 l -5.37332,-10.59175 c 0.53164,-0.44186 0.83883,-1.0961 0.83857,-1.78586 -7.4e-4,-0.9845 -0.62391,-1.86177 -1.55561,-2.18993 v -0.90504 c 0.006,-0.43358 -0.35172,-0.7862 -0.78998,-0.77942 z m 0.012,2.32463 c 0.85916,0 1.55564,0.69386 1.55564,1.54976 0,0.85592 -0.69648,1.54976 -1.55564,1.54976 -0.85916,0 -1.55564,-0.69384 -1.55564,-1.54976 0,-0.8559 0.69648,-1.54976 1.55564,-1.54976 z"
         style="fill:#0a455f;stroke-width:2"
         id="path3926" />
      <path
         d="m 322.3522,244.99996 h -1.20096 c -0.0836,0 -0.1512,0.17159 -0.1512,0.24609 v 15.60711 c -1.6e-4,0.0712 0.062,0.1304 0.1418,0.1348 h 1.23878 c 1.44815,-0.004 2.61939,-1.05164 2.61937,-2.34157 V 242.49 c 4e-5,1.29982 -1.1885,2.51936 -2.64775,2.51 z"
         style="fill:#000000;stroke-width:2;opacity:0.2"
         id="path3748" />
      <path
         d="m 322.35228,244.00015 h -1.20096 c -0.0836,0 -0.1512,0.17159 -0.1512,0.24609 v 15.60711 c -1.6e-4,0.0712 0.062,0.1304 0.1418,0.1348 h 1.23878 c 1.44815,-0.004 2.61939,-1.05164 2.61937,-2.34157 v -16.15639 c 4e-5,1.29982 -1.1885,2.51936 -2.64775,2.51 z"
         style="fill:#0a455f;stroke-width:2"
         id="path3720" />
      <path
         d="m 308,235 c -0.55228,0 -1,0.44771 -1,1 0,0.55229 0.44772,1 1,1 0.55228,0 1,-0.44771 1,-1 0,-0.55229 -0.44772,-1 -1,-1 z m 8,0 c -0.55228,0 -1,0.44771 -1,1 0,0.55229 0.44772,1 1,1 0.55228,0 1,-0.44771 1,-1 0,-0.55229 -0.44772,-1 -1,-1 z"
         style="fill:#000000;fill-opacity:1;stroke-width:4;stroke-linecap:square;opacity:0.2"
         id="path3467" />
      <path
         id="path3291"
         style="opacity:1;fill:#ffffff;fill-opacity:1;stroke-width:4;stroke-linecap:square"
         d="m 308,234 c -0.55228,0 -1,0.44771 -1,1 0,0.55229 0.44772,1 1,1 0.55228,0 1,-0.44771 1,-1 0,-0.55229 -0.44772,-1 -1,-1 z m 8,0 c -0.55228,0 -1,0.44771 -1,1 0,0.55229 0.44772,1 1,1 0.55228,0 1,-0.44771 1,-1 0,-0.55229 -0.44772,-1 -1,-1 z"
         sodipodi:nodetypes="ssssssssss" />
    </g>
    <g
       id="g2004"
       transform="translate(-4.7058825,-4.2895133)">
      <path
         d="m 340.70658,190.28968 h -28.7885 c -1.77295,-0.0114 -3.20578,-1.44744 -3.21146,-3.21861 v -22.06954 c -0.01,1.8677 1.56432,3.40265 3.43043,3.28815 h 23.87746 c 0,0 4.69207,-0.45494 4.69207,3.07615 z"
         style="opacity:0.2;fill:#000000"
         id="path517" />
      <path
         d="m 320.61212,161.28968 h -8.70934 c -1.76687,0.005 -3.19618,1.3491 -3.19617,3.00485 -0.0525,1.63995 1.35227,2.99589 3.10309,2.99515 h 8.89551 z"
         style="fill:#0a455f"
         id="path430" />
      <path
         d="m 311.90296,161.28968 c -1.76615,0.006 -3.19477,1.34884 -3.19532,3.00391 -0.005,0.18303 0.008,0.36614 0.0391,0.54687 0.23855,-1.46244 1.57754,-2.54457 3.15625,-2.55078 h 8.70899 l 0.0781,5 h 0.0156 l -0.0937,-6 z"
         style="opacity:0.1;fill:#000000"
         id="path458" />
      <path
         d="m 318.21693,157.28968 c -0.40072,-0.01 -0.64974,0.43195 -0.43359,0.76953 l 1.6914,2.71875 c -2.96002,1.81652 -4.7656,5.03875 -4.76953,8.51172 0,5.52285 4.47715,10 10,10 5.52285,0 10,-4.47715 10,-10 -0.005,-3.47266 -1.8113,-6.69408 -4.77148,-8.50977 l 1.69336,-2.7207 c 0.21614,-0.33758 -0.0329,-0.77953 -0.4336,-0.76953 -0.17026,0.005 -0.3263,0.0962 -0.41406,0.24219 l -1.72266,2.76758 c -1.35582,-0.66042 -2.84345,-1.00562 -4.35156,-1.00977 -1.50846,0.003 -2.99678,0.34651 -4.35352,1.00586 l -1.7207,-2.76367 c -0.0878,-0.14598 -0.2438,-0.23725 -0.41406,-0.24219 z"
         style="fill:#000000;opacity:0.2"
         id="path2014" />
      <path
         d="m 318.21693,156.28968 c -0.40072,-0.01 -0.64974,0.43195 -0.43359,0.76953 l 1.6914,2.71875 c -2.96002,1.81652 -4.7656,5.03875 -4.76953,8.51172 0,5.52285 4.47715,10 10,10 5.52285,0 10,-4.47715 10,-10 -0.005,-3.47266 -1.8113,-6.69408 -4.77148,-8.50977 l 1.69336,-2.7207 c 0.21614,-0.33758 -0.0329,-0.77953 -0.4336,-0.76953 -0.17026,0.005 -0.3263,0.0962 -0.41406,0.24219 l -1.72266,2.76758 c -1.35582,-0.66042 -2.84345,-1.00562 -4.35156,-1.00977 -1.50846,0.003 -2.99678,0.34651 -4.35352,1.00586 l -1.7207,-2.76367 c -0.0878,-0.14598 -0.2438,-0.23725 -0.41406,-0.24219 z"
         style="fill:#3ddc84"
         id="path374"
         sodipodi:nodetypes="ccccscccccccccc" />
      <path
         d="m 318.21693,156.28968 c -0.40072,-0.01 -0.64974,0.43195 -0.43359,0.76953 l 0.18164,0.29102 c 0.0772,-0.042 0.1641,-0.0629 0.25195,-0.0606 0.17026,0.005 0.3263,0.0962 0.41406,0.24219 l 1.7207,2.76367 c 1.35674,-0.65935 2.84506,-1.00322 4.35352,-1.00586 1.50811,0.004 2.99574,0.34935 4.35156,1.00977 l 1.72266,-2.76758 c 0.0878,-0.14598 0.2438,-0.23725 0.41406,-0.24219 0.0878,-0.002 0.17475,0.0186 0.25195,0.0606 l 0.18165,-0.29102 c 0.21614,-0.33758 -0.0329,-0.77953 -0.4336,-0.76953 -0.17026,0.005 -0.3263,0.0962 -0.41406,0.24219 l -1.72266,2.76758 c -1.35582,-0.66042 -2.84345,-1.00562 -4.35156,-1.00977 -1.50846,0.003 -2.99678,0.34651 -4.35352,1.00586 l -1.7207,-2.76367 c -0.0878,-0.14598 -0.2438,-0.23725 -0.41406,-0.24219 z m 0.82226,3.78711 c -2.70526,1.8602 -4.3251,4.9298 -4.33398,8.21289 0.004,0.16164 0.013,0.32315 0.0254,0.48437 0.17084,-3.28316 1.9445,-6.27261 4.74414,-7.99609 z m 11.33204,0 -0.4375,0.70312 c 2.83013,1.7417 4.61017,4.77553 4.75,8.09571 0.0129,-0.19506 0.02,-0.39046 0.0215,-0.58594 -0.009,-3.28309 -1.62873,-6.35269 -4.33399,-8.21289 z"
         style="opacity:0.2;fill:#ffffff"
         id="path402" />
      <path
         d="m 340.70658,189.28968 h -28.7885 c -1.77295,-0.0114 -3.20578,-1.44744 -3.21146,-3.21861 v -22.06954 c -0.01,1.8677 1.56432,3.40265 3.43043,3.28815 h 23.87746 c 0,0 4.69207,-0.45494 4.69207,3.07615 z"
         style="fill:#4285f4"
         id="path489" />
      <ellipse
         style="fill:#073042;fill-opacity:1;stroke-width:4;stroke-linecap:square"
         id="path750"
         cx="325.4552"
         cy="176.54018"
         rx="1.7499999"
         ry="1.75" />
      <path
         d="m 324.68959,172.28988 c -0.55122,0.009 -0.99151,0.45846 -0.98438,1.00586 v 1.16993 c -1.19719,0.42326 -1.99822,1.55441 -2,2.82421 10e-4,0.88909 0.39691,1.7318 1.08008,2.30079 l -6.91016,14.44336 c -0.26286,0.50833 -0.21746,1.11274 0.11914,1.58007 0.34151,0.46297 0.91537,0.71744 1.50782,0.66993 0.59264,-0.0541 1.10791,-0.41049 1.3457,-0.92969 l 4.62305,-9.34375 c 0.22298,-0.43413 0.68541,-0.71869 1.19335,-0.72071 0.0142,-4e-5 0.0269,0.005 0.041,0.006 0.0141,-4e-4 0.0268,-0.006 0.041,-0.006 0.50794,0.002 0.97037,0.28658 1.19336,0.72071 l 4.62304,9.34375 c 0.23779,0.5192 0.75306,0.87555 1.34571,0.92969 0.59245,0.0475 1.1663,-0.20696 1.50781,-0.66993 0.3366,-0.46733 0.382,-1.07174 0.11914,-1.58007 l -6.9082,-14.43946 c 0.6835,-0.57023 1.07848,-1.41455 1.07816,-2.30469 -9.6e-4,-1.27052 -0.80214,-2.40266 -2,-2.82617 v -1.16797 c 0.007,-0.55954 -0.45218,-1.01459 -1.01562,-1.00586 z m 0.0156,3 c 1.10457,0 2,0.89544 2,2 0,1.10457 -0.89543,2 -2,2 -1.10457,0 -2,-0.89543 -2,-2 0,-1.10456 0.89543,-2 2,-2 z"
         style="opacity:0.1;fill:#000000"
         id="path650" />
      <path
         d="m 324.68958,171.28988 c -0.55121,0.009 -0.9915,0.45846 -0.98437,1.00586 v 1.16993 c -1.19719,0.42326 -1.99822,1.55441 -2,2.82421 10e-4,0.88909 0.3969,1.7318 1.08008,2.30079 l -6.91016,14.44336 c -0.26286,0.50833 -0.21746,1.11274 0.11914,1.58007 0.34151,0.46297 0.91536,0.71744 1.50781,0.66993 0.59264,-0.0541 1.10792,-0.41049 1.34571,-0.92969 l 4.62304,-9.34375 c 0.22299,-0.43413 0.68542,-0.71869 1.19336,-0.72071 0.0141,-4e-5 0.0269,0.005 0.041,0.006 0.0141,-4e-4 0.0268,-0.006 0.041,-0.006 0.50794,0.002 0.97037,0.28658 1.19336,0.72071 l 4.62305,9.34375 c 0.23779,0.5192 0.75306,0.87555 1.3457,0.92969 0.59245,0.0475 1.1663,-0.20696 1.50781,-0.66993 0.3366,-0.46733 0.382,-1.07174 0.11914,-1.58007 l -6.90821,-14.43946 c 0.68349,-0.57024 1.07846,-1.41455 1.07813,-2.30469 -9.6e-4,-1.27052 -0.80214,-2.40266 -2,-2.82617 v -1.16797 c 0.007,-0.55955 -0.45218,-1.01459 -1.01563,-1.00586 z m 0.0156,3 c 1.10457,0 2,0.89544 2,2 0,1.10457 -0.89543,2 -2,2 -1.10457,0 -2,-0.89543 -2,-2 0,-1.10456 0.89543,-2 2,-2 z"
         style="fill:#0a455f"
         id="path678" />
      <path
         d="m 338.05746,174.28968 h -1.20095 c -0.0836,0 -0.1513,0.0563 -0.1513,0.14794 v 20.68619 c -1.6e-4,0.0877 0.062,0.16039 0.14185,0.16587 h 1.23877 c 1.44817,-0.006 2.61939,-1.29439 2.61938,-2.88207 v -21.11793 c 4e-5,1.59986 -1.1885,3.01151 -2.64775,3 z"
         style="opacity:0.2;fill:#000000"
         id="path573" />
      <path
         d="m 338.05746,173.28968 h -1.20095 c -0.0836,0 -0.1513,0.0563 -0.1513,0.14794 v 20.68619 c -1.6e-4,0.0877 0.062,0.16039 0.14185,0.16587 h 1.23877 c 1.44817,-0.006 2.61939,-1.29439 2.61938,-2.88207 v -21.11793 c 4e-5,1.59986 -1.1885,3.01151 -2.64775,3 z"
         style="fill:#0a455f"
         id="path545" />
      <path
         id="path1691"
         style="opacity:0.2;fill:#000000;fill-opacity:1;stroke-width:4;stroke-linecap:square"
         d="m 320.70521,163.28968 a 1,1 0 0 0 -1,1 1,1 0 0 0 1,1 1,1 0 0 0 1,-1 1,1 0 0 0 -1,-1 z m 8,0 a 1,1 0 0 0 -1,1 1,1 0 0 0 1,1 1,1 0 0 0 1,-1 1,1 0 0 0 -1,-1 z" />
      <path
         id="path1316"
         style="fill:#ffffff;fill-opacity:1;stroke-width:4;stroke-linecap:square"
         d="m 320.70521,162.28968 a 1,1 0 0 0 -1,1 1,1 0 0 0 1,1 1,1 0 0 0 1,-1 1,1 0 0 0 -1,-1 z m 8,0 a 1,1 0 0 0 -1,1 1,1 0 0 0 1,1 1,1 0 0 0 1,-1 1,1 0 0 0 -1,-1 z" />
    </g>
    <g
       id="g5548"
       transform="matrix(2,0,0,2,-287.99999,-412)">
      <path
         d="m 310.9069,232.00013 h -8.70932 c -1.76686,0.005 -3.19615,1.34909 -3.19615,3.00483 -0.0525,1.63995 1.35226,2.99589 3.10307,2.99516 H 311 Z"
         style="fill:#0a455f;stroke-width:2"
         id="path5352" />
      <path
         id="path5380"
         style="opacity:0.1;fill:#000000;stroke-width:2"
         d="m 302.19727,232 c -1.76686,0.005 -3.19532,1.35012 -3.19532,3.00586 -0.003,0.10011 2.8e-4,0.19936 0.008,0.29687 0.11125,-1.56114 1.49355,-2.79794 3.1875,-2.80273 h 8.70898 l 0.0859,5.5 H 311 l -0.0937,-6 z" />
      <path
         d="m 306.16055,228.70015 c -0.36065,-0.009 -0.58475,0.38876 -0.39022,0.69258 l 1.52226,2.44687 c -2.66402,1.63487 -4.28903,4.53487 -4.29257,7.66053 0,4.97055 4.02943,8.99998 8.99998,8.99998 4.97055,0 8.99998,-4.02943 8.99998,-8.99998 -0.005,-3.12539 -1.63017,-6.02466 -4.29433,-7.65877 l 1.52402,-2.44863 c 0.19453,-0.30382 -0.0296,-0.70157 -0.39022,-0.69258 -0.15323,0.004 -0.29367,0.0866 -0.37266,0.21796 l -1.5504,2.49081 c -1.22024,-0.59436 -2.5591,-0.90504 -3.91639,-0.90877 -1.35761,0.002 -2.6971,0.31186 -3.91815,0.90527 l -1.54864,-2.48731 c -0.079,-0.13138 -0.21943,-0.21352 -0.37266,-0.21796 z"
         style="opacity:0.2;fill:#000000;stroke-width:2"
         id="path4477" />
      <path
         d="m 306.16073,228.20015 c -0.36065,-0.009 -0.58475,0.38876 -0.39022,0.69258 l 1.52226,2.44687 c -2.66402,1.63487 -4.28903,4.53487 -4.29257,7.66053 0,4.97055 4.02943,8.99998 8.99998,8.99998 4.97055,0 8.99998,-4.02943 8.99998,-8.99998 -0.005,-3.12539 -1.63017,-6.02466 -4.29433,-7.65877 l 1.52402,-2.44863 c 0.19453,-0.30382 -0.0296,-0.70157 -0.39022,-0.69258 -0.15323,0.004 -0.29367,0.0866 -0.37266,0.21796 l -1.5504,2.49081 c -1.22024,-0.59436 -2.5591,-0.90504 -3.91639,-0.90877 -1.35761,0.002 -2.6971,0.31186 -3.91815,0.90527 l -1.54864,-2.48731 c -0.079,-0.13138 -0.21943,-0.21352 -0.37266,-0.21796 z"
         style="fill:#3ddc84;stroke-width:2"
         id="path4449" />
      <path
         id="path4505"
         style="opacity:0.2;fill:#ffffff;stroke-width:2"
         d="m 306.16016,228.20015 c -0.36065,-0.009 -0.58516,0.38954 -0.39063,0.69336 l 0.008,0.0117 c 0.0803,-0.12159 0.21493,-0.20927 0.38282,-0.20508 0.15323,0.004 0.29404,0.0874 0.37304,0.21875 l 1.54883,2.48828 c 1.22105,-0.59341 2.56036,-0.90425 3.91797,-0.90625 1.35729,0.004 2.69578,0.31384 3.91602,0.9082 l 1.55078,-2.49023 c 0.079,-0.13136 0.21981,-0.21475 0.37304,-0.21875 0.16739,-0.004 0.30246,0.0821 0.38282,0.20312 l 0.006,-0.01 c 0.19453,-0.30382 -0.0281,-0.70235 -0.38868,-0.69336 -0.15323,0.004 -0.29405,0.0874 -0.37304,0.21875 l -1.55078,2.49023 c -1.22024,-0.59436 -2.55873,-0.90447 -3.91602,-0.9082 -1.35761,0.002 -2.69692,0.31284 -3.91797,0.90625 l -1.54883,-2.48828 c -0.079,-0.13138 -0.21981,-0.21431 -0.37304,-0.21875 z m 0.91211,3.28516 c -2.53133,1.65732 -4.06883,4.47822 -4.07227,7.51562 0,0.0957 0.005,0.19018 0.008,0.28516 0.076,-3.04311 1.6824,-5.84804 4.28516,-7.44532 z m 9.85351,0.002 -0.2207,0.35547 c 2.60269,1.5964 4.20949,4.40081 4.28711,7.44336 0.003,-0.095 0.008,-0.18947 0.008,-0.28516 -0.005,-3.03714 -1.54275,-5.85708 -4.07422,-7.51367 z" />
      <path
         d="m 324.99997,256.49995 h -23.39061 c -1.44051,-0.01 -2.60467,-1.176 -2.60929,-2.615 V 235.354 c 0,2.18587 1.99995,3.14599 3.18795,3.14599 h 18.99966 c 0,0 3.81229,-0.24386 3.81229,2.62501 z"
         style="opacity:0.2;fill:#000000;stroke-width:2"
         id="path5324" />
      <path
         d="m 324.99997,256.00008 h -23.39061 c -1.44051,-0.01 -2.60467,-1.176 -2.60929,-2.615 v -18.53095 c 0,2.18587 1.99995,3.14599 3.18795,3.14599 h 18.99966 c 0,0 3.81229,-0.24386 3.81229,2.62501 z"
         style="fill:#4285f4;stroke-width:2"
         id="path5296" />
      <circle
         style="fill:#073042;fill-opacity:1;stroke-width:3.83646;stroke-linecap:square"
         id="path4707"
         cx="312.77499"
         cy="245.825"
         r="1.375" />
      <path
         d="m 311.98784,242.5001 c -0.42874,0.006 -0.7712,0.35524 -0.76566,0.77942 v 0.90654 c -0.9312,0.328 -1.55425,1.20449 -1.55563,2.18843 0.001,0.68894 0.30871,1.34194 0.84009,1.78284 l -5.37482,10.59477 c -0.20446,0.3939 -0.1692,0.86224 0.0926,1.22436 0.26562,0.35876 0.71198,0.55594 1.1728,0.51912 0.46096,-0.042 0.86176,-0.31808 1.04672,-0.7204 l 3.59587,-6.64318 c 0.1734,-0.3364 0.53312,-0.5569 0.92822,-0.55846 0.012,-4e-5 0.021,0.004 0.032,0.004 0.01,-3.2e-4 0.0208,-0.004 0.0318,-0.004 0.3951,0.002 0.75478,0.22206 0.92822,0.55846 l 3.59587,6.64318 c 0.185,0.40232 0.58576,0.67844 1.04672,0.7204 0.46082,0.0368 0.90718,-0.1604 1.1728,-0.51912 0.26181,-0.36212 0.29711,-0.83046 0.0926,-1.22436 l -5.37332,-10.59175 c 0.53164,-0.44186 0.83883,-1.0961 0.83857,-1.78586 -7.4e-4,-0.9845 -0.62391,-1.86177 -1.55561,-2.18993 v -0.90504 c 0.006,-0.43358 -0.35172,-0.7862 -0.78998,-0.77942 z m 0.012,2.32463 c 0.85916,0 1.55564,0.69386 1.55564,1.54976 0,0.85592 -0.69648,1.54976 -1.55564,1.54976 -0.85916,0 -1.55564,-0.69384 -1.55564,-1.54976 0,-0.8559 0.69648,-1.54976 1.55564,-1.54976 z"
         style="opacity:0.1;fill:#000000;stroke-width:2"
         id="path4687" />
      <path
         d="m 311.98784,242.00021 c -0.42874,0.006 -0.7712,0.35524 -0.76566,0.77942 v 0.90654 c -0.9312,0.328 -1.55425,1.20449 -1.55563,2.18843 0.001,0.68894 0.30871,1.34194 0.84009,1.78284 l -5.37482,10.59477 c -0.20446,0.3939 -0.1692,0.86224 0.0926,1.22436 0.26562,0.35876 0.71198,0.55594 1.1728,0.51912 0.46096,-0.042 0.86176,-0.31808 1.04672,-0.7204 l 3.59587,-6.64318 c 0.1734,-0.3364 0.53312,-0.5569 0.92822,-0.55846 0.012,-4e-5 0.021,0.004 0.032,0.004 0.01,-3.2e-4 0.0208,-0.004 0.0318,-0.004 0.3951,0.002 0.75478,0.22206 0.92822,0.55846 l 3.59587,6.64318 c 0.185,0.40232 0.58576,0.67844 1.04672,0.7204 0.46082,0.0368 0.90718,-0.1604 1.1728,-0.51912 0.26181,-0.36212 0.29711,-0.83046 0.0926,-1.22436 l -5.37332,-10.59175 c 0.53164,-0.44186 0.83883,-1.0961 0.83857,-1.78586 -7.4e-4,-0.9845 -0.62391,-1.86177 -1.55561,-2.18993 v -0.90504 c 0.006,-0.43358 -0.35172,-0.7862 -0.78998,-0.77942 z m 0.012,2.32463 c 0.85916,0 1.55564,0.69386 1.55564,1.54976 0,0.85592 -0.69648,1.54976 -1.55564,1.54976 -0.85916,0 -1.55564,-0.69384 -1.55564,-1.54976 0,-0.8559 0.69648,-1.54976 1.55564,-1.54976 z"
         style="fill:#0a455f;stroke-width:2"
         id="path4659" />
      <path
         d="m 322.35228,244.49996 h -1.20096 c -0.0836,0 -0.1512,0.17159 -0.1512,0.24609 v 15.60711 c -1.6e-4,0.0712 0.062,0.1304 0.1418,0.1348 h 1.23878 c 1.44815,-0.004 2.61939,-1.05164 2.61937,-2.34157 V 241.99 c 4e-5,1.29982 -1.1885,2.51936 -2.64775,2.51 z"
         style="opacity:0.2;fill:#000000;stroke-width:2"
         id="path4631" />
      <path
         d="m 322.35228,244.00015 h -1.20096 c -0.0836,0 -0.1512,0.17159 -0.1512,0.24609 v 15.60711 c -1.6e-4,0.0712 0.062,0.1304 0.1418,0.1348 h 1.23878 c 1.44815,-0.004 2.61939,-1.05164 2.61937,-2.34157 v -16.15639 c 4e-5,1.29982 -1.1885,2.51936 -2.64775,2.51 z"
         style="fill:#0a455f;stroke-width:2"
         id="path4603" />
      <path
         d="m 308,234.5 c -0.55228,0 -1,0.44771 -1,1 0,0.55229 0.44772,1 1,1 0.55228,0 1,-0.44771 1,-1 0,-0.55229 -0.44772,-1 -1,-1 z m 8,0 c -0.55228,0 -1,0.44771 -1,1 0,0.55229 0.44772,1 1,1 0.55228,0 1,-0.44771 1,-1 0,-0.55229 -0.44772,-1 -1,-1 z"
         style="opacity:0.2;fill:#000000;fill-opacity:1;stroke-width:4;stroke-linecap:square"
         id="path4547" />
      <path
         d="m 308,234 c -0.55228,0 -1,0.44771 -1,1 0,0.55229 0.44772,1 1,1 0.55228,0 1,-0.44771 1,-1 0,-0.55229 -0.44772,-1 -1,-1 z m 8,0 c -0.55228,0 -1,0.44771 -1,1 0,0.55229 0.44772,1 1,1 0.55228,0 1,-0.44771 1,-1 0,-0.55229 -0.44772,-1 -1,-1 z"
         style="fill:#ffffff;fill-opacity:1;stroke-width:4;stroke-linecap:square"
         id="path4575" />
    </g>
    <g
       id="g2229"
       transform="matrix(4,0,0,4,-1136,-529.9993)">
      <path
         d="M 336.00069,185.5 H 307.2122 c -1.77295,-0.0114 -3.20578,-1.44744 -3.21146,-3.21861 v -22.06954 c -0.01,1.8677 1.56432,3.40265 3.43043,3.28815 h 23.87745 c 0,0 4.69207,-0.45494 4.69207,3.07615 z"
         style="opacity:0.2;fill:#000000"
         id="path517-3" />
      <path
         d="m 315.90624,157.00017 h -8.70934 c -1.76687,0.005 -3.19618,1.3491 -3.19617,3.00485 -0.0525,1.63995 1.35227,2.99589 3.10309,2.99515 h 8.89551 z"
         style="fill:#0a455f"
         id="path430-5" />
      <path
         id="path458-6"
         style="opacity:0.1;fill:#000000"
         d="m 307.19727,157 c -1.76615,0.006 -3.19477,1.34884 -3.19532,3.00391 -0.003,0.0981 1.3e-4,0.19711 0.008,0.29492 0.11276,-1.55947 1.49494,-2.79308 3.1875,-2.79883 h 8.70898 l 0.0859,5.5 H 316 l -0.0937,-6 z" />
      <path
         d="m 313.51172,152.50017 c -0.40072,-0.01 -0.64974,0.43195 -0.43359,0.76953 l 1.6914,2.71875 c -2.96002,1.81652 -4.7656,5.03875 -4.76953,8.51172 0,5.52285 4.47715,10 10,10 5.52285,0 10,-4.47715 10,-10 -0.005,-3.47266 -1.8113,-6.69408 -4.77148,-8.50977 l 1.69336,-2.7207 c 0.21614,-0.33758 -0.0329,-0.77953 -0.4336,-0.76953 -0.17026,0.005 -0.3263,0.0962 -0.41406,0.24219 l -1.72266,2.76758 c -1.35582,-0.66042 -2.84345,-1.00562 -4.35156,-1.00977 -1.50846,0.003 -2.99678,0.34651 -4.35352,1.00586 l -1.7207,-2.76367 c -0.0878,-0.14598 -0.2438,-0.23725 -0.41406,-0.24219 z"
         style="opacity:0.2;fill:#000000"
         id="path2014-2" />
      <path
         d="m 313.51172,152.00017 c -0.40072,-0.01 -0.64974,0.43195 -0.43359,0.76953 l 1.6914,2.71875 c -2.96002,1.81652 -4.7656,5.03875 -4.76953,8.51172 0,5.52285 4.47715,10 10,10 5.52285,0 10,-4.47715 10,-10 -0.005,-3.47266 -1.8113,-6.69408 -4.77148,-8.50977 l 1.69336,-2.7207 c 0.21614,-0.33758 -0.0329,-0.77953 -0.4336,-0.76953 -0.17026,0.005 -0.3263,0.0962 -0.41406,0.24219 l -1.72266,2.76758 c -1.35582,-0.66042 -2.84345,-1.00562 -4.35156,-1.00977 -1.50846,0.003 -2.99678,0.34651 -4.35352,1.00586 l -1.7207,-2.76367 c -0.0878,-0.14598 -0.2438,-0.23725 -0.41406,-0.24219 z"
         style="fill:#3ddc84"
         id="path374-9"
         sodipodi:nodetypes="ccccscccccccccc" />
      <path
         id="path402-1"
         style="opacity:0.2;fill:#ffffff"
         d="m 313.51239,152 c -0.39191,-0.01 -0.63489,0.41171 -0.44336,0.74609 0.0865,-0.14695 0.24677,-0.251 0.44336,-0.24609 0.17026,0.005 0.32626,0.0962 0.41406,0.24219 l 1.7207,2.76367 c 1.35674,-0.65935 2.84506,-1.00286 4.35352,-1.00586 1.50811,0.004 2.99574,0.34935 4.35156,1.00977 l 1.72266,-2.76758 c 0.0878,-0.14599 0.2438,-0.23719 0.41406,-0.24219 0.19764,-0.005 0.35713,0.0998 0.44336,0.24805 0.19308,-0.33461 -0.0509,-0.75784 -0.44336,-0.74805 -0.17026,0.005 -0.3263,0.0962 -0.41406,0.24219 l -1.72266,2.76758 c -1.35582,-0.66042 -2.84345,-1.00562 -4.35156,-1.00977 -1.50846,0.003 -2.99678,0.34651 -4.35352,1.00586 l -1.7207,-2.76367 c -0.0878,-0.14598 -0.2438,-0.23725 -0.41406,-0.24219 z m 0.82226,3.78711 c -2.70525,1.8602 -4.3251,4.9298 -4.33398,8.21289 0.002,0.0645 0.007,0.12889 0.01,0.19336 0.10381,-3.26705 1.79767,-6.27705 4.53906,-8.06055 z m 11.33204,0 -0.2168,0.34961 c 2.75631,1.79272 4.45349,4.82392 4.54101,8.11133 0.003,-0.0827 0.009,-0.16529 0.01,-0.24805 -0.009,-3.28309 -1.62873,-6.35269 -4.33398,-8.21289 z" />
      <path
         d="m 336.0007,185.00017 h -28.7885 c -1.77295,-0.0114 -3.20578,-1.44744 -3.21146,-3.21861 v -22.06954 c -0.01,1.8677 1.56432,3.40265 3.43043,3.28815 h 23.87746 c 0,0 4.69207,-0.45494 4.69207,3.07615 z"
         style="fill:#4285f4"
         id="path489-2" />
      <ellipse
         style="fill:#073042;fill-opacity:1;stroke-width:4;stroke-linecap:square"
         id="path750-7"
         cx="320.74933"
         cy="172.25066"
         rx="1.7499999"
         ry="1.75" />
      <path
         d="m 319.98371,167.5002 c -0.55122,0.009 -0.99151,0.45846 -0.98438,1.00586 v 1.16993 c -1.19719,0.42326 -1.99822,1.55441 -2,2.82421 0.001,0.88909 0.39691,1.7318 1.08008,2.30079 l -6.91016,14.44336 c -0.26286,0.50833 -0.21746,1.11274 0.11914,1.58007 0.34151,0.46297 0.91537,0.71744 1.50782,0.66993 0.59264,-0.0541 1.10791,-0.41049 1.3457,-0.92969 l 4.62305,-9.34375 c 0.22298,-0.43413 0.68541,-0.71869 1.19335,-0.72071 0.0142,-4e-5 0.0269,0.005 0.041,0.006 0.0141,-4e-4 0.0268,-0.006 0.041,-0.006 0.50794,0.002 0.97037,0.28658 1.19336,0.72071 l 4.62303,9.34375 c 0.23779,0.5192 0.75306,0.87555 1.34571,0.92969 0.59245,0.0475 1.1663,-0.20696 1.50781,-0.66993 0.3366,-0.46733 0.382,-1.07174 0.11914,-1.58007 l -6.90819,-14.43946 c 0.6835,-0.57023 1.07848,-1.41455 1.07816,-2.30469 -9.6e-4,-1.27052 -0.80214,-2.40266 -2,-2.82617 v -1.16797 c 0.007,-0.55954 -0.45218,-1.01459 -1.01562,-1.00586 z m 0.0156,3 c 1.10457,0 2,0.89544 2,2 0,1.10457 -0.89543,2 -2,2 -1.10457,0 -2,-0.89543 -2,-2 0,-1.10456 0.89543,-2 2,-2 z"
         style="opacity:0.1;fill:#000000"
         id="path650-0" />
      <path
         d="m 319.9837,167.00037 c -0.55121,0.009 -0.9915,0.45846 -0.98437,1.00586 v 1.16993 c -1.19719,0.42326 -1.99822,1.55441 -2,2.82421 0.001,0.88909 0.3969,1.7318 1.08008,2.30079 l -6.91016,14.44336 c -0.26286,0.50833 -0.21746,1.11274 0.11914,1.58007 0.34151,0.46297 0.91536,0.71744 1.50781,0.66993 0.59264,-0.0541 1.10792,-0.41049 1.34571,-0.92969 l 4.62304,-9.34375 c 0.22299,-0.43413 0.68542,-0.71869 1.19336,-0.72071 0.0141,-4e-5 0.0269,0.005 0.041,0.006 0.0141,-4e-4 0.0268,-0.006 0.041,-0.006 0.50794,0.002 0.97037,0.28658 1.19336,0.72071 l 4.62305,9.34375 c 0.23779,0.5192 0.75306,0.87555 1.3457,0.92969 0.59245,0.0475 1.1663,-0.20696 1.50781,-0.66993 0.3366,-0.46733 0.382,-1.07174 0.11914,-1.58007 l -6.90821,-14.43946 c 0.68349,-0.57024 1.07846,-1.41455 1.07813,-2.30469 -9.6e-4,-1.27052 -0.80214,-2.40266 -2,-2.82617 v -1.16797 c 0.007,-0.55955 -0.45218,-1.01459 -1.01563,-1.00586 z m 0.0156,3 c 1.10457,0 2,0.89544 2,2 0,1.10457 -0.89543,2 -2,2 -1.10457,0 -2,-0.89543 -2,-2 0,-1.10456 0.89543,-2 2,-2 z"
         style="fill:#0a455f"
         id="path678-9" />
      <path
         d="m 333.35157,169.5 h -1.20095 c -0.0836,0 -0.1513,0.0563 -0.1513,0.14794 v 20.68619 c -1.6e-4,0.0877 0.062,0.16039 0.14185,0.16587 h 1.23877 c 1.44817,-0.006 2.61939,-1.29439 2.61938,-2.88207 V 166.5 c 4e-5,1.59986 -1.1885,3.01151 -2.64775,3 z"
         style="opacity:0.2;fill:#000000"
         id="path573-3" />
      <path
         d="m 333.35158,169.00017 h -1.20095 c -0.0836,0 -0.1513,0.0563 -0.1513,0.14794 v 20.68619 c -1.6e-4,0.0877 0.062,0.16039 0.14185,0.16587 h 1.23877 c 1.44817,-0.006 2.61939,-1.29439 2.61938,-2.88207 v -21.11793 c 4e-5,1.59986 -1.1885,3.01151 -2.64775,3 z"
         style="fill:#0a455f"
         id="path545-6" />
      <path
         id="path1691-0"
         style="opacity:0.2;fill:#000000;fill-opacity:1;stroke-width:4;stroke-linecap:square"
         d="m 316,158.5 a 0.99999977,1 0 0 0 -1,1 0.99999977,1 0 0 0 1,1 0.99999977,1 0 0 0 1,-1 0.99999977,1 0 0 0 -1,-1 z m 8,0 a 0.99999977,1 0 0 0 -1,1 0.99999977,1 0 0 0 1,1 0.99999977,1 0 0 0 1,-1 0.99999977,1 0 0 0 -1,-1 z" />
      <path
         id="path1316-6"
         style="fill:#ffffff;fill-opacity:1;stroke-width:4;stroke-linecap:square"
         d="m 316,158.00017 a 1,1 0 0 0 -1,1 1,1 0 0 0 1,1 1,1 0 0 0 1,-1 1,1 0 0 0 -1,-1 z m 8,0 a 1,1 0 0 0 -1,1 1,1 0 0 0 1,1 1,1 0 0 0 1,-1 1,1 0 0 0 -1,-1 z" />
    </g>
  </g>
  <g
     id="Highlights">
    <path
       id="rect653"
       style="opacity:0.2;fill:#ffffff"
       d="M 80,44 C 53.408027,44 32,65.408027 32,92 v 2 C 32,67.408027 53.408027,46 80,46 h 128 c 26.59197,0 48,21.408027 48,48 V 92 C 256,65.408027 234.59197,44 208,44 Z"
       sodipodi:nodetypes="sscsscsss" />
    <path
       id="rect773"
       style="opacity:0.2;fill:#ffffff"
       d="m 312,34 c -9.97199,0 -18,8.02801 -18,18 v 1 c 0,-9.97199 8.02801,-18 18,-18 h 48 c 9.97199,0 18,8.02801 18,18 v -1 c 0,-9.97199 -8.02801,-18 -18,-18 z" />
    <path
       id="rect1135"
       style="opacity:0.2;fill:#ffffff;fill-opacity:1"
       d="m 304,144 c -6.64799,0 -12,5.35201 -12,12 v 1 c 0,-6.64799 5.35201,-12 12,-12 h 32 c 6.64799,0 12,5.35201 12,12 v -1 c 0,-6.64799 -5.35201,-12 -12,-12 z" />
    <path
       id="rect1265"
       style="opacity:0.2;fill:#ffffff;fill-opacity:1"
       d="m 300,223 c -4.986,0 -9,4.014 -9,9 v 1 c 0,-4.986 4.014,-9 9,-9 h 24 c 4.986,0 9,4.014 9,9 v -1 c 0,-4.986 -4.014,-9 -9,-9 z" />
    <path
       id="rect1368"
       style="opacity:0.2;fill:#ffffff;fill-opacity:1"
       d="m 424,54 c -3.324,0 -6,2.676003 -6,6 v 1 c 0,-3.323997 2.676,-6 6,-6 h 16 c 3.324,0 6,2.676003 6,6 v -1 c 0,-3.323997 -2.676,-6 -6,-6 z" />
    <path
       id="rect1402"
       style="opacity:0.2;fill:#ffffff;fill-opacity:1"
       d="m 420,140 c -2.216,0 -4,1.784 -4,4 v 1 c 0,-2.216 1.784,-4 4,-4 h 8 c 2.216,0 4,1.784 4,4 v -1 c 0,-2.216 -1.784,-4 -4,-4 z" />
    <path
       id="rect1436"
       style="opacity:0.2;fill:#ffffff;fill-opacity:1"
       d="m 422,102 c -2.216,0 -4,1.784 -4,4 v 1 c 0,-2.216 1.784,-4 4,-4 h 12 c 2.216,0 4,1.784 4,4 v -1 c 0,-2.216 -1.784,-4 -4,-4 z" />
  </g>
</svg>
