<?xml version="1.0" encoding="UTF-8" standalone="no"?>
<!-- Created with Inkscape (http://www.inkscape.org/) -->

<svg
   width="480"
   height="300"
   viewBox="0 0 480 300"
   version="1.1"
   id="svg5"
   inkscape:version="1.2.2 (1:1.2.2+202305151914+b0a8486541)"
   sodipodi:docname="archive-manager.svg"
   xmlns:inkscape="http://www.inkscape.org/namespaces/inkscape"
   xmlns:sodipodi="http://sodipodi.sourceforge.net/DTD/sodipodi-0.dtd"
   xmlns="http://www.w3.org/2000/svg"
   xmlns:svg="http://www.w3.org/2000/svg">
  <sodipodi:namedview
     id="namedview7"
     pagecolor="#888888"
     bordercolor="#000000"
     borderopacity="0.25"
     inkscape:showpageshadow="true"
     inkscape:pageopacity="0"
     inkscape:pagecheckerboard="0"
     inkscape:deskcolor="#888888"
     inkscape:document-units="px"
     showgrid="false"
     showborder="false"
     inkscape:zoom="1.8988764"
     inkscape:cx="199.59172"
     inkscape:cy="170.62722"
     inkscape:window-width="1920"
     inkscape:window-height="1008"
     inkscape:window-x="0"
     inkscape:window-y="0"
     inkscape:window-maximized="1"
     inkscape:current-layer="svg5" />
  <defs
     id="defs2" />
  <g
     id="Baseplate"
     style="display:none">
    <text
       y="19.774782"
       xml:space="preserve"
       x="15.006946"
       style="font-style:normal;font-variant:normal;font-weight:normal;font-stretch:normal;line-height:0%;font-family:'DejaVu Sans';-inkscape-font-specification:'DejaVu Sans';display:inline;fill:#000000;fill-opacity:1;stroke:none;enable-background:new"
       inkscape:label="context"
       id="context"><tspan
         style="font-style:normal;font-variant:normal;font-weight:normal;font-stretch:normal;font-size:18px;line-height:1.25;font-family:'DejaVu Sans';-inkscape-font-specification:'DejaVu Sans'"
         y="19.774782"
         x="15.006946"
         sodipodi:role="line"
         id="tspan3933">apps</tspan></text>
    <text
       y="19.774782"
       xml:space="preserve"
       x="122.48839"
       style="font-style:normal;font-variant:normal;font-weight:bold;font-stretch:normal;line-height:0%;font-family:'DejaVu Sans';-inkscape-font-specification:'DejaVu Sans Bold';text-align:start;writing-mode:lr-tb;text-anchor:start;display:inline;fill:#000000;fill-opacity:1;stroke:none;enable-background:new"
       inkscape:label="icon-name"
       id="icon-name"><tspan
         style="font-style:normal;font-variant:normal;font-weight:bold;font-stretch:normal;font-size:18px;line-height:1.25;font-family:'DejaVu Sans';-inkscape-font-specification:'DejaVu Sans Bold'"
         y="19.774782"
         x="122.48839"
         sodipodi:role="line"
         id="tspan3937">archive-manager</tspan></text>
    <rect
       style="fill:#ffffff"
       id="256x256"
       width="256"
       height="256"
       x="16"
       y="28" />
    <rect
       style="fill:#ffffff"
       id="96x96"
       width="96"
       height="96"
       x="288"
       y="28" />
    <rect
       style="fill:#ffffff"
       id="64x64"
       width="64"
       height="64"
       x="288"
       y="140" />
    <rect
       style="fill:#ffffff"
       id="48x48"
       width="48"
       height="48"
       x="288"
       y="220" />
    <rect
       style="fill:#ffffff"
       id="32x32"
       width="32"
       height="32"
       x="416"
       y="52" />
    <rect
       style="fill:#ffffff"
       id="24x24"
       width="24"
       height="24"
       x="416"
       y="100" />
    <rect
       style="fill:#ffffff"
       id="22x22"
       width="22"
       height="22"
       x="417"
       y="101" />
    <rect
       style="fill:#ffffff"
       id="16x16"
       width="16"
       height="16"
       x="416"
       y="140" />
  </g>
  <g
     id="Shadow">
    <rect
       style="opacity:0.2;fill:#000000"
       id="rect651"
       width="224"
       height="224"
       x="32"
       y="46"
       ry="48" />
    <rect
       style="opacity:0.2;fill:#000000"
       id="rect769"
       width="84"
       height="85"
       x="294"
       y="34"
       ry="18" />
    <rect
       style="opacity:0.2;fill:#000000;fill-opacity:1"
       id="rect1131"
       width="56"
       height="56"
       x="292"
       y="145"
       ry="12" />
    <rect
       style="opacity:0.2;fill:#000000;fill-opacity:1"
       id="rect1261"
       width="42"
       height="42"
       x="291"
       y="224"
       ry="9" />
    <rect
       style="opacity:0.2;fill:#000000;fill-opacity:1"
       id="rect1364"
       width="28"
       height="29"
       x="418"
       y="54"
       ry="6" />
    <rect
       style="opacity:0.2;fill:#000000;fill-opacity:1"
       id="rect1398"
       width="16"
       height="16"
       x="416"
       y="141"
       ry="4" />
    <rect
       style="opacity:0.2;fill:#000000;fill-opacity:1"
       id="rect1432"
       width="20"
       height="20"
       x="418"
       y="103"
       ry="4" />
  </g>
  <g
     id="Background">
    <rect
       style="fill:#ecc079;fill-opacity:1"
       id="rect597"
       width="224"
       height="224"
       x="32"
       y="44"
       ry="48" />
    <rect
       style="opacity:1;fill:#ecc079;fill-opacity:1"
       id="rect771"
       width="84"
       height="84"
       x="294"
       y="34"
       ry="18" />
    <rect
       style="opacity:1;fill:#ecc079;fill-opacity:1"
       id="rect1133"
       width="56"
       height="56"
       x="292"
       y="144"
       ry="12" />
    <rect
       style="opacity:1;fill:#ecc079;fill-opacity:1"
       id="rect1263"
       width="42"
       height="42"
       x="291"
       y="223"
       ry="9" />
    <rect
       style="opacity:1;fill:#ecc079;fill-opacity:1"
       id="rect1366"
       width="28"
       height="28"
       x="418"
       y="54"
       ry="6" />
    <rect
       style="opacity:1;fill:#ecc079;fill-opacity:1"
       id="rect1400"
       width="16"
       height="16"
       x="416"
       y="140"
       ry="4" />
    <rect
       style="opacity:1;fill:#ecc079;fill-opacity:1"
       id="rect1434"
       width="20"
       height="20"
       x="418"
       y="102"
       ry="4" />
  </g>
  <g
     id="Symbols">
    <g
       id="g1828">
      <rect
         style="opacity:0.2;fill:#000000;fill-opacity:1"
         id="rect1515"
         width="4"
         height="7"
         x="422"
         y="140" />
      <path
         d="m 424,140 v 1 h 1 v -1 z m 0,1 h -1 v 1 h 1 z m 0,1 v 1 h 1 v -1 z m 0,1 h -1 v 1 h 1 z m 0,1 v 1 h 1 v -1 z"
         style="fill:#ffffff"
         id="path1027" />
      <path
         d="m 424,144 c 1.5,0 1.5,2 2,2 v 2.5 c 0,0.277 -0.223,0.5 -0.5,0.5 h -3 c -0.277,0 -0.5,-0.223 -0.5,-0.5 V 146 c 0.5,0 0.5,-2 2,-2 z"
         style="fill:#4b4b4b"
         id="path392" />
      <path
         d="m 424,146 c -1.105,0 -2,0.9 -2,2 v 4 c 0,1.1 0.895,2 2,2 1.105,0 2,-0.9 2,-2 v -4 c 0,-1.1 -0.895,-2 -2,-2 z m 0,5 c 0.55228,0 1,0.44771 1,1 0,0.55228 -0.44772,1 -1,1 -0.55229,0 -1,-0.44772 -1,-1 0,-0.55229 0.44771,-1 1,-1 z"
         style="fill:#ffffff"
         id="path364" />
      <rect
         style="fill:#909090;fill-opacity:1"
         id="rect1047"
         width="1.0001"
         height="3.0000002"
         x="423.49997"
         y="145"
         ry="0.5" />
    </g>
    <g
       id="g3793">
      <rect
         style="opacity:0.2;fill:#000000"
         width="4"
         height="9.5"
         x="426"
         y="102"
         id="rect3554" />
      <path
         id="rect3558"
         style="fill:#ffffff"
         d="m 428,102 v 1 h 1 v -1 z m 0,1 h -1 v 1 h 1 z m 0,1 v 1 h 1 v -1 z m 0,1 h -1 v 1 h 1 z m 0,1 v 1 h 1 v -1 z m 0,1 h -1 v 1 h 1 z m 0,1 v 1 h 1 v -1 z m 0,1 h -1 v 1 h 1 z" />
      <path
         style="fill:#4b4b4b"
         d="m 428,109 c 1.5,0 1.5,2 2,2 v 2.5 c 0,0.277 -0.223,0.5 -0.5,0.5 h -3 c -0.277,0 -0.5,-0.223 -0.5,-0.5 V 111 c 0.5,0 0.5,-2 2,-2 z"
         id="path3560" />
      <path
         style="opacity:0.2;fill:#000000"
         d="m 428,111.5 c -1.105,0 -2,0.9 -2,2 v 4 c 0,1.1 0.895,2 2,2 1.105,0 2,-0.9 2,-2 v -4 c 0,-1.1 -0.895,-2 -2,-2 z m 0,5 a 1,1 0 0 1 1,1 1,1 0 0 1 -1,1 1,1 0 0 1 -1,-1 1,1 0 0 1 1,-1 z"
         id="path3576" />
      <path
         style="fill:#ffffff"
         d="m 428,111 c -1.105,0 -2,0.9 -2,2 v 4 c 0,1.1 0.895,2 2,2 1.105,0 2,-0.9 2,-2 v -4 c 0,-1.1 -0.895,-2 -2,-2 z m 0,5 a 1,1 0 0 1 1,1 1,1 0 0 1 -1,1 1,1 0 0 1 -1,-1 1,1 0 0 1 1,-1 z"
         id="path3578" />
      <path
         style="fill:#909090"
         d="M 427.99219,110.00006 A 0.50005,0.49772427 0 0 0 427.5,110.50454 v 1.9907 a 0.50005,0.49772427 0 1 0 1,0 v -1.9907 a 0.50005,0.49772427 0 0 0 -0.50781,-0.50448 z"
         id="path3580" />
    </g>
    <g
       id="g3548">
      <rect
         style="opacity:0.2;fill:#000000"
         width="6"
         height="13.3"
         x="429"
         y="54"
         id="rect3337" />
      <path
         id="rect3339"
         style="fill:#ffffff"
         d="m 432,54 v 2 h 2 v -2 z m 0,2 h -2 v 2 h 2 z m 0,2 v 2 h 2 v -2 z m 0,2 h -2 v 2 h 2 z m 0,2 v 2 h 2 v -2 z m 0,2 h -2 v 2 h 2 z" />
      <path
         style="fill:#4b4b4b"
         d="m 432,64 c 2.25,0 2.25,2.8 3,2.8 v 3.5 c 0,0.3878 -0.3345,0.7 -0.75,0.7 h -4.5 C 429.3345,71 429,70.6878 429,70.3 v -3.5 c 0.75,0 0.75,-2.8 3,-2.8 z"
         id="path3343" />
      <path
         style="opacity:0.2;fill:#000000"
         d="M 431.80078,68 C 430.24958,68 429,69.249581 429,70.800781 v 5.398438 C 429,77.750419 430.24958,79 431.80078,79 h 0.39844 C 433.75042,79 435,77.750419 435,76.199219 V 70.800781 C 435,69.249581 433.75042,68 432.19922,68 Z M 432,74 a 2,2 0 0 1 2,2 2,2 0 0 1 -2,2 2,2 0 0 1 -2,-2 2,2 0 0 1 2,-2 z"
         id="path3347" />
      <path
         style="fill:#ffffff"
         d="M 431.80078,67 C 430.24958,67 429,68.249581 429,69.800781 v 5.398438 C 429,76.750419 430.24958,78 431.80078,78 h 0.39844 C 433.75042,78 435,76.750419 435,75.199219 V 69.800781 C 435,68.249581 433.75042,67 432.19922,67 Z M 432,73 a 2,2 0 0 1 2,2 2,2 0 0 1 -2,2 2,2 0 0 1 -2,-2 2,2 0 0 1 2,-2 z"
         id="path3349" />
      <path
         style="fill:#909090"
         d="m 431.98438,65.0001 a 1,0.82954037 0 0 0 -0.98428,0.840798 v 3.31783 a 1,0.82954037 0 1 0 1.9998,0 v -3.31783 A 1,0.82954037 0 0 0 431.98438,65.0001 Z"
         id="path3351" />
    </g>
    <g
       id="g3134"
       transform="translate(-61.12645,-10.11328)">
      <rect
         style="opacity:0.2;fill:#000000"
         width="8"
         height="19"
         x="369.12646"
         y="233.11288"
         id="rect2877" />
      <path
         id="rect2881"
         style="fill:#ffffff"
         d="m 373.12695,233.11328 v 2 h 2 v -2 z m 0,2 h -2 v 2 h 2 z m 0,2 v 2 h 2 v -2 z m 0,2 h -2 v 2 h 2 z m 0,2 v 2 h 2 v -2 z m 0,2 h -2 v 2 h 2 z m 0,2 v 2 h 2 v -2 z m 0,2 h -2 v 2 h 2 z" />
      <path
         style="fill:#4b4b4b"
         d="m 373.12645,247.11288 c 3,0 3,4 4,4 v 5 c 0,0.554 -0.446,1 -1,1 h -6 c -0.554,0 -1,-0.446 -1,-1 v -5 c 1,0 1,-4 4,-4 z"
         id="path2883" />
      <path
         style="opacity:0.2;fill:#000000"
         d="m 372.86082,253.11288 c -2.06826,0 -3.73437,1.65963 -3.73437,3.71875 v 7.5625 c 0,2.05912 1.66611,3.71875 3.73437,3.71875 h 0.53125 c 2.06827,0 3.73438,-1.65963 3.73438,-3.71875 v -7.5625 c 0,-2.05912 -1.66611,-3.71875 -3.73438,-3.71875 z m 0.26563,8 c 1.65685,0 3,1.34515 3,3.00195 0,1.65681 -1.34315,2.99805 -3,2.99805 -1.65685,0 -3,-1.34124 -3,-2.99805 0,-1.6568 1.34315,-3.00195 3,-3.00195 z"
         id="path2899" />
      <path
         style="fill:#ffffff"
         d="m 372.86082,252.11288 c -2.06826,0 -3.73437,1.65963 -3.73437,3.71875 v 7.5625 c 0,2.05912 1.66611,3.71875 3.73437,3.71875 h 0.53125 c 2.06827,0 3.73438,-1.65963 3.73438,-3.71875 v -7.5625 c 0,-2.05912 -1.66611,-3.71875 -3.73438,-3.71875 z m 0.26563,8 c 1.65685,0 3,1.34515 3,3.00195 0,1.65681 -1.34315,2.99805 -3,2.99805 -1.65685,0 -3,-1.34124 -3,-2.99805 0,-1.6568 1.34315,-3.00195 3,-3.00195 z"
         id="path2901" />
      <path
         style="fill:#909090"
         d="m 373.11082,249.113 a 1.0001,0.99544853 0 0 0 -0.98437,1.00896 v 3.98139 a 1.0001,0.99544853 0 1 0 2,0 v -3.98139 a 1.0001,0.99544853 0 0 0 -1.01563,-1.00896 z"
         id="path2903" />
    </g>
    <g
       id="g2780">
      <rect
         style="opacity:0.2;fill:#000000;fill-opacity:1"
         id="rect2693"
         width="10"
         height="30"
         x="315"
         y="144" />
      <path
         id="rect2365"
         style="fill:#ffffff"
         d="m 320,144 v 3 h 3 v -3 z m 0,3 h -3 v 3 h 3 z m 0,3 v 3 h 3 v -3 z m 0,3 h -3 v 3 h 3 z m 0,3 v 3 h 3 v -3 z m 0,3 h -3 v 3 h 3 z m 0,3 v 3 h 3 v -3 z m 0,3 h -3 v 3 h 3 z" />
      <path
         style="fill:#4b4b4b"
         d="m 320,165 c 3.75,0 3.75,5.6 5,5.6 v 7 c 0,0.7756 -0.5575,1.4 -1.25,1.4 h -7.5 c -0.6925,0 -1.25,-0.6244 -1.25,-1.4 v -7 c 1.25,0 1.25,-5.6 5,-5.6 z"
         id="path2369" />
      <path
         d="M 319.66797,172 C 317.08264,172 315,174.10272 315,176.71094 v 9.57812 c 0,2.60822 2.08264,4.71094 4.66797,4.71094 h 0.66406 C 322.91736,191 325,188.89728 325,186.28906 v -9.57812 C 325,174.10272 322.91736,172 320.33203,172 Z M 320,182 c 2.20914,0 4,1.79288 4,4.00195 0,2.20908 -1.79086,3.99805 -4,3.99805 -2.20914,0 -4,-1.78897 -4,-3.99805 C 316,183.79288 317.79086,182 320,182 Z"
         style="opacity:0.2;fill:#000000"
         id="path2570" />
      <path
         style="fill:#ffffff"
         d="M 319.66797,171 C 317.08264,171 315,173.10272 315,175.71094 v 9.57812 c 0,2.60822 2.08264,4.71094 4.66797,4.71094 h 0.66406 C 322.91736,190 325,187.89728 325,185.28906 v -9.57812 C 325,173.10272 322.91736,171 320.33203,171 Z M 320,181 c 2.20914,0 4,1.79288 4,4.00195 0,2.20908 -1.79086,3.99805 -4,3.99805 -2.20914,0 -4,-1.78897 -4,-3.99805 C 316,182.79288 317.79086,181 320,181 Z"
         id="path2373" />
      <path
         style="fill:#909090"
         d="M 319.98437,167.00012 A 1.0001,0.99660733 0 0 0 319,168.01025 v 5.97905 a 1.0001,0.99660733 0 1 0 2,0 v -5.97905 a 1.0001,0.99660733 0 0 0 -1.01563,-1.01013 z"
         id="path2375" />
    </g>
    <g
       id="g3225">
      <rect
         style="opacity:0.2;stroke-width:1.99999;fill:#000000"
         width="15.999949"
         height="37.999878"
         x="328.00003"
         y="34"
         id="rect2877-6" />
      <path
         id="rect2881-2"
         style="fill:#ffffff;stroke-width:2"
         d="m 335.99999,34 v 4.000002 H 340 V 34 Z m 0,4.000002 H 332 v 4.000002 h 3.99999 z m 0,4.000002 v 4.000002 H 340 v -4.000002 z m 0,4.000002 H 332 v 4.000002 h 3.99999 z m 0,4.000002 v 4.000003 H 340 v -4.000003 z m 0,4.000003 H 332 v 4.000002 h 3.99999 z m 0,4.000002 v 4.000002 H 340 v -4.000002 z m 0,4.000002 H 332 v 4.000002 h 3.99999 z" />
      <path
         style="fill:#4b4b4b;stroke-width:1.99999"
         d="m 335.99994,61.999898 c 5.99999,0 5.99999,7.999976 7.99998,7.999976 v 9.99997 c 0,1.10799 -0.892,1.99999 -1.99999,1.99999 h -11.99997 c -1.10799,0 -1.99999,-0.892 -1.99999,-1.99999 v -9.99997 c 1.99999,0 1.99999,-7.999976 7.99997,-7.999976 z"
         id="path2883-9" />
      <path
         style="opacity:0.2;stroke-width:1.99999;fill:#000000"
         d="m 335.46869,73.999864 c -4.13651,0 -7.46872,3.31924 -7.46872,7.43747 v 15.12495 c 0,4.118226 3.33221,7.437476 7.46872,7.437476 h 1.06249 c 4.13653,0 7.46874,-3.31925 7.46874,-7.437476 v -15.12495 c 0,-4.11823 -3.33221,-7.43747 -7.46874,-7.43747 z m 0.53125,15.99994 c 3.31369,0 5.99999,2.6903 5.99999,6.00388 0,3.313606 -2.6863,5.996086 -5.99999,5.996086 -3.31369,0 -5.99998,-2.68248 -5.99998,-5.996086 0,-3.31358 2.68629,-6.00388 5.99998,-6.00388 z"
         id="path2899-1" />
      <path
         style="fill:#ffffff;stroke-width:1.99999"
         d="m 335.46869,71.999864 c -4.13651,0 -7.46872,3.31925 -7.46872,7.43748 v 15.12495 c 0,4.11823 3.33221,7.437476 7.46872,7.437476 h 1.06249 c 4.13653,0 7.46874,-3.319246 7.46874,-7.437476 v -15.12495 c 0,-4.11823 -3.33221,-7.43748 -7.46874,-7.43748 z m 0.53125,15.99995 c 3.31369,0 5.99999,2.69029 5.99999,6.00388 0,3.31361 -2.6863,5.996076 -5.99999,5.996076 -3.31369,0 -5.99998,-2.682466 -5.99998,-5.996076 0,-3.31359 2.68629,-6.00388 5.99998,-6.00388 z"
         id="path2901-2" />
      <path
         style="fill:#909090;stroke-width:1.99999"
         d="m 335.96868,66.000125 a 2.0001936,1.9908907 0 0 0 -1.96873,2.017914 v 7.962755 a 2.0001936,1.9908907 0 1 0 3.99999,0 v -7.962755 a 2.0001936,1.9908907 0 0 0 -2.03126,-2.017914 z"
         id="path2903-7" />
    </g>
    <g
       id="g2871">
      <rect
         style="opacity:0.2;fill:#000000;fill-opacity:1;stroke-width:4"
         id="rect2693-3"
         width="40"
         height="120"
         x="124"
         y="43.999989" />
      <path
         id="rect2365-6"
         style="fill:#ffffff;stroke-width:4"
         d="m 144,44 v 12 h 12 V 44 Z m 0,12 h -12 v 12 h 12 z m 0,12 v 12 h 12 V 68 Z m 0,12 h -12 v 12 h 12 z m 0,12 v 12 h 12 V 92 Z m 0,12 h -12 v 12 h 12 z m 0,12 v 12 h 12 v -12 z m 0,12 h -12 v 12 h 12 z" />
      <path
         style="fill:#4b4b4b;stroke-width:4"
         d="m 144,128 c 15,0 15,22.4 20,22.4 v 28 c 0,3.1024 -2.23,5.6 -5,5.6 h -30 c -2.77,0 -5,-2.4976 -5,-5.6 v -28 c 5,0 5,-22.4 20,-22.4 z"
         id="path2369-7" />
      <path
         d="M 142.67188,154 C 132.33056,154 124,162.41088 124,172.84376 v 38.31248 C 124,221.58912 132.33056,230 142.67188,230 h 2.65624 C 155.66944,230 164,221.58912 164,211.15624 V 172.84376 C 164,162.41088 155.66944,154 145.32812,154 Z M 144,194 c 8.83656,0 16,7.17152 16,16.0078 0,8.83632 -7.16344,15.9922 -16,15.9922 -8.83656,0 -16,-7.15588 -16,-15.9922 C 128,201.17152 135.16344,194 144,194 Z"
         style="opacity:0.2;fill:#000000;stroke-width:4"
         id="path2570-5" />
      <path
         style="fill:#ffffff;stroke-width:4"
         d="M 142.67188,152 C 132.33056,152 124,160.41088 124,170.84376 v 38.31248 C 124,219.58912 132.33056,228 142.67188,228 h 2.65624 C 155.66944,228 164,219.58912 164,209.15624 V 170.84376 C 164,160.41088 155.66944,152 145.32812,152 Z M 144,192 c 8.83656,0 16,7.17152 16,16.0078 0,8.83632 -7.16344,15.9922 -16,15.9922 -8.83656,0 -16,-7.15588 -16,-15.9922 C 128,199.17152 135.16344,192 144,192 Z"
         id="path2373-3"
         inkscape:label="path2373-3" />
      <path
         style="fill:#909090;stroke-width:4"
         d="M 143.93748,136.00048 A 4.0004,3.9864293 0 0 0 140,140.041 v 23.9162 a 4.0004,3.9864293 0 1 0 8,0 V 140.041 a 4.0004,3.9864293 0 0 0 -4.06252,-4.04052 z"
         id="path2375-5" />
    </g>
  </g>
  <g
     id="Highlights">
    <path
       id="rect653"
       style="opacity:0.2;fill:#ffffff"
       d="M 80,44 C 53.408027,44 32,65.408027 32,92 v 2 C 32,67.408027 53.408027,46 80,46 h 128 c 26.59197,0 48,21.408027 48,48 V 92 C 256,65.408027 234.59197,44 208,44 Z"
       sodipodi:nodetypes="sscsscsss" />
    <path
       id="rect773"
       style="opacity:0.2;fill:#ffffff"
       d="m 312,34 c -9.97199,0 -18,8.02801 -18,18 v 1 c 0,-9.97199 8.02801,-18 18,-18 h 48 c 9.97199,0 18,8.02801 18,18 v -1 c 0,-9.97199 -8.02801,-18 -18,-18 z" />
    <path
       id="rect1135"
       style="opacity:0.2;fill:#ffffff;fill-opacity:1"
       d="m 304,144 c -6.64799,0 -12,5.35201 -12,12 v 1 c 0,-6.64799 5.35201,-12 12,-12 h 32 c 6.64799,0 12,5.35201 12,12 v -1 c 0,-6.64799 -5.35201,-12 -12,-12 z" />
    <path
       id="rect1265"
       style="opacity:0.2;fill:#ffffff;fill-opacity:1"
       d="m 300,223 c -4.986,0 -9,4.014 -9,9 v 1 c 0,-4.986 4.014,-9 9,-9 h 24 c 4.986,0 9,4.014 9,9 v -1 c 0,-4.986 -4.014,-9 -9,-9 z" />
    <path
       id="rect1368"
       style="opacity:0.2;fill:#ffffff;fill-opacity:1"
       d="m 424,54 c -3.324,0 -6,2.676003 -6,6 v 1 c 0,-3.323997 2.676,-6 6,-6 h 16 c 3.324,0 6,2.676003 6,6 v -1 c 0,-3.323997 -2.676,-6 -6,-6 z" />
    <path
       id="rect1402"
       style="opacity:0.2;fill:#ffffff;fill-opacity:1"
       d="m 420,140 c -2.216,0 -4,1.784 -4,4 v 1 c 0,-2.216 1.784,-4 4,-4 h 8 c 2.216,0 4,1.784 4,4 v -1 c 0,-2.216 -1.784,-4 -4,-4 z" />
    <path
       id="rect1436"
       style="opacity:0.2;fill:#ffffff;fill-opacity:1"
       d="m 422,102 c -2.216,0 -4,1.784 -4,4 v 1 c 0,-2.216 1.784,-4 4,-4 h 12 c 2.216,0 4,1.784 4,4 v -1 c 0,-2.216 -1.784,-4 -4,-4 z" />
  </g>
</svg>
