<?xml version="1.0" encoding="UTF-8" standalone="no"?>
<!-- Created with Inkscape (http://www.inkscape.org/) -->

<svg
   width="480"
   height="300"
   viewBox="0 0 480 300"
   version="1.1"
   id="svg5"
   inkscape:version="1.2.2 (1:1.2.2+202305151914+b0a8486541)"
   sodipodi:docname="authy.svg"
   xmlns:inkscape="http://www.inkscape.org/namespaces/inkscape"
   xmlns:sodipodi="http://sodipodi.sourceforge.net/DTD/sodipodi-0.dtd"
   xmlns="http://www.w3.org/2000/svg"
   xmlns:svg="http://www.w3.org/2000/svg">
  <sodipodi:namedview
     id="namedview7"
     pagecolor="#888888"
     bordercolor="#000000"
     borderopacity="0.25"
     inkscape:showpageshadow="true"
     inkscape:pageopacity="0"
     inkscape:pagecheckerboard="0"
     inkscape:deskcolor="#888888"
     inkscape:document-units="px"
     showgrid="false"
     showborder="false"
     inkscape:zoom="2.6866667"
     inkscape:cx="239.88834"
     inkscape:cy="150"
     inkscape:window-width="1920"
     inkscape:window-height="1008"
     inkscape:window-x="0"
     inkscape:window-y="0"
     inkscape:window-maximized="1"
     inkscape:current-layer="svg5" />
  <defs
     id="defs2" />
  <g
     id="Baseplate"
     style="display:none">
    <text
       y="19.774782"
       xml:space="preserve"
       x="15.006946"
       style="font-style:normal;font-variant:normal;font-weight:normal;font-stretch:normal;line-height:0%;font-family:'DejaVu Sans';-inkscape-font-specification:'DejaVu Sans';display:inline;fill:#000000;fill-opacity:1;stroke:none;enable-background:new"
       inkscape:label="context"
       id="context"><tspan
         style="font-style:normal;font-variant:normal;font-weight:normal;font-stretch:normal;font-size:18px;line-height:1.25;font-family:'DejaVu Sans';-inkscape-font-specification:'DejaVu Sans'"
         y="19.774782"
         x="15.006946"
         sodipodi:role="line"
         id="tspan3933">apps</tspan></text>
    <text
       y="19.774782"
       xml:space="preserve"
       x="122.48839"
       style="font-style:normal;font-variant:normal;font-weight:bold;font-stretch:normal;line-height:0%;font-family:'DejaVu Sans';-inkscape-font-specification:'DejaVu Sans Bold';text-align:start;writing-mode:lr-tb;text-anchor:start;display:inline;fill:#000000;fill-opacity:1;stroke:none;enable-background:new"
       inkscape:label="icon-name"
       id="icon-name"><tspan
         style="font-style:normal;font-variant:normal;font-weight:bold;font-stretch:normal;font-size:18px;line-height:1.25;font-family:'DejaVu Sans';-inkscape-font-specification:'DejaVu Sans Bold'"
         y="19.774782"
         x="122.48839"
         sodipodi:role="line"
         id="tspan3937">authy</tspan></text>
    <rect
       style="fill:#ffffff"
       id="256x256"
       width="256"
       height="256"
       x="16"
       y="28" />
    <rect
       style="fill:#ffffff"
       id="96x96"
       width="96"
       height="96"
       x="288"
       y="28" />
    <rect
       style="fill:#ffffff"
       id="64x64"
       width="64"
       height="64"
       x="288"
       y="140" />
    <rect
       style="fill:#ffffff"
       id="48x48"
       width="48"
       height="48"
       x="288"
       y="220" />
    <rect
       style="fill:#ffffff"
       id="32x32"
       width="32"
       height="32"
       x="416"
       y="52" />
    <rect
       style="fill:#ffffff"
       id="24x24"
       width="24"
       height="24"
       x="416"
       y="100" />
    <rect
       style="fill:#ffffff"
       id="22x22"
       width="22"
       height="22"
       x="417"
       y="101" />
    <rect
       style="fill:#ffffff"
       id="16x16"
       width="16"
       height="16"
       x="416"
       y="140" />
  </g>
  <g
     id="Shadow">
    <rect
       style="opacity:0.2;fill:#000000"
       id="rect651"
       width="224"
       height="224"
       x="32"
       y="46"
       ry="48" />
    <rect
       style="opacity:0.2;fill:#000000"
       id="rect769"
       width="84"
       height="85"
       x="294"
       y="34"
       ry="18" />
    <rect
       style="opacity:0.2;fill:#000000;fill-opacity:1"
       id="rect1131"
       width="56"
       height="56"
       x="292"
       y="145"
       ry="12" />
    <rect
       style="opacity:0.2;fill:#000000;fill-opacity:1"
       id="rect1261"
       width="42"
       height="42"
       x="291"
       y="224"
       ry="9" />
    <rect
       style="opacity:0.2;fill:#000000;fill-opacity:1"
       id="rect1364"
       width="28"
       height="29"
       x="418"
       y="54"
       ry="6" />
    <rect
       style="opacity:0.2;fill:#000000;fill-opacity:1"
       id="rect1398"
       width="16"
       height="16"
       x="416"
       y="141"
       ry="4" />
    <rect
       style="opacity:0.2;fill:#000000;fill-opacity:1"
       id="rect1432"
       width="20"
       height="20"
       x="418"
       y="103"
       ry="4" />
  </g>
  <g
     id="Background">
    <rect
       style="fill:#ef5350;fill-opacity:1"
       id="rect597"
       width="224"
       height="224"
       x="32"
       y="44"
       ry="48" />
    <rect
       style="opacity:1;fill:#ef5350;fill-opacity:1"
       id="rect771"
       width="84"
       height="84"
       x="294"
       y="34"
       ry="18" />
    <rect
       style="opacity:1;fill:#ef5350;fill-opacity:1"
       id="rect1133"
       width="56"
       height="56"
       x="292"
       y="144"
       ry="12" />
    <rect
       style="opacity:1;fill:#ef5350;fill-opacity:1"
       id="rect1263"
       width="42"
       height="42"
       x="291"
       y="223"
       ry="9" />
    <rect
       style="opacity:1;fill:#ef5350;fill-opacity:1"
       id="rect1366"
       width="28"
       height="28"
       x="418"
       y="54"
       ry="6" />
    <rect
       style="opacity:1;fill:#ef5350;fill-opacity:1"
       id="rect1400"
       width="16"
       height="16"
       x="416"
       y="140"
       ry="4" />
    <rect
       style="opacity:1;fill:#ef5350;fill-opacity:1"
       id="rect1434"
       width="20"
       height="20"
       x="418"
       y="102"
       ry="4" />
  </g>
  <g
     id="g4781">
    <g
       id="g4530">
      <path
         d="m 423.40458,147.02891 1.6653,1.6654 c 0.2408,0.2407 0.6309,0.2405 0.8716,-2e-4 0.2406,-0.2409 0.2406,-0.631 3e-4,-0.8717 l -1.6654,-1.6655 c -1.1917,-1.1918 -3.1176,-1.2112 -4.3347,-0.0603 -0.0112,0.009 -0.0223,0.0192 -0.0328,0.0297 -0.005,0.005 -0.01,0.0106 -0.0149,0.0159 -0.005,0.005 -0.0108,0.01 -0.0158,0.0147 -0.0107,0.0107 -0.0201,0.0216 -0.0296,0.0327 -1.151,1.2173 -1.1313,3.143 0.0603,4.3348 l 1.6654,1.6652 c 0.24075,0.24075 0.63074,0.24075 0.87149,0 0.24075,-0.24095 0.24095,-0.63104 2e-4,-0.87159 l -1.6653,-1.6649 c -0.7266,-0.7266 -0.7316,-1.9056 -0.015,-2.6388 0.733,-0.7163 1.9121,-0.7114 2.6388,0.0153 z m 2.1494,-2.2178 c -0.2408,0.2407 -0.2406,0.6309 2e-4,0.8716 l 1.6653,1.6653 c 0.72667,0.72687 0.7312,1.9058 0.0148,2.639 -0.73311,0.71621 -1.912,0.71149 -2.6387,-0.0151 l -1.6649,-1.6654 c -0.24075,-0.24066 -0.63124,-0.24066 -0.87199,0 -0.24075,0.24095 -0.24075,0.63144 0,0.87208 l 1.6653,1.6653 c 1.1918,1.1918 3.1177,1.21121 4.3345,0.0603 0.0112,-0.01 0.0223,-0.0189 0.0329,-0.0297 0.005,-0.005 0.01,-0.0105 0.015,-0.0156 0.005,-0.005 0.0108,-0.0101 0.016,-0.0151 0.0105,-0.0107 0.0197,-0.0217 0.0293,-0.0329 1.1512,-1.21679 1.1316,-3.1427 -0.0601,-4.3345 l -1.665,-1.66569 c -0.241,-0.24091 -0.6315,-0.24091 -0.8721,-1e-4 z"
         style="fill:#000000;opacity:0.2"
         id="path4508" />
      <path
         d="m 423.40458,146.52891 1.6653,1.6654 c 0.2408,0.2407 0.6309,0.2405 0.8716,-2e-4 0.2406,-0.2409 0.2406,-0.631 3e-4,-0.8717 l -1.6654,-1.6655 c -1.1917,-1.1918 -3.1176,-1.2112 -4.3347,-0.0603 -0.0112,0.009 -0.0223,0.0192 -0.0328,0.0297 -0.005,0.005 -0.01,0.0106 -0.0149,0.0159 -0.005,0.005 -0.0108,0.01 -0.0158,0.0147 -0.0107,0.0107 -0.0201,0.0216 -0.0296,0.0327 -1.151,1.2173 -1.1313,3.143 0.0603,4.3348 l 1.6654,1.6652 c 0.24075,0.24075 0.63074,0.24075 0.87149,0 0.24075,-0.24095 0.24095,-0.63104 2e-4,-0.87159 l -1.6653,-1.6649 c -0.7266,-0.7266 -0.7316,-1.9056 -0.015,-2.6388 0.733,-0.7163 1.9121,-0.7114 2.6388,0.0153 z m 2.1494,-2.2178 c -0.2408,0.2407 -0.2406,0.6309 2e-4,0.8716 l 1.6653,1.6653 c 0.72667,0.72687 0.7312,1.9058 0.0148,2.639 -0.73311,0.71621 -1.912,0.71149 -2.6387,-0.0151 l -1.6649,-1.6654 c -0.24075,-0.24066 -0.63124,-0.24066 -0.87199,0 -0.24075,0.24095 -0.24075,0.63144 0,0.87208 l 1.6653,1.6653 c 1.1918,1.1918 3.1177,1.21121 4.3345,0.0603 0.0112,-0.01 0.0223,-0.0189 0.0329,-0.0297 0.005,-0.005 0.01,-0.0105 0.015,-0.0156 0.005,-0.005 0.0108,-0.0101 0.016,-0.0151 0.0105,-0.0107 0.0197,-0.0217 0.0293,-0.0329 1.1512,-1.21679 1.1316,-3.1427 -0.0601,-4.3345 l -1.665,-1.66569 c -0.241,-0.24091 -0.6315,-0.24091 -0.8721,-1e-4 z"
         style="fill:#ffffff"
         id="path4476"
         sodipodi:nodetypes="ccccscscccccccccccscccccccscssccccss" />
    </g>
    <g
       id="g4758">
      <path
         d="m 430.17602,107.76074 c -0.33746,0.3474 -0.33675,0.91057 2.8e-4,1.25791 l 2.33203,2.40342 c 1.01763,1.04904 1.02396,2.75047 0.0213,3.80867 -1.02659,1.0337 -2.67744,1.02688 -3.69508,-0.0213 l -2.33188,-2.40364 c -0.33746,-0.3474 -0.88393,-0.3474 -1.22103,0 -0.33746,0.34741 -0.33746,0.91129 0,1.25862 l 2.33202,2.4035 c 1.6689,1.71997 4.36573,1.74797 6.06973,0.0867 l 0.0426,-0.0426 0.0213,-0.0213 0.0213,-0.0213 c 0.0142,-0.0142 0.0284,-0.0284 0.0426,-0.0497 1.61199,-1.75614 1.58471,-4.53567 -0.0838,-6.25565 l -2.33173,-2.4035 c -0.33746,-0.3474 -0.88422,-0.3474 -1.22125,-1.4e-4 z m -3.01078,3.20025 2.33202,2.40357 c 0.33746,0.3474 0.88344,0.34669 1.22054,-2.9e-4 0.33746,-0.3474 0.33746,-0.91071 4.3e-4,-1.25805 l -2.33217,-2.4037 c -1.66875,-1.71998 -4.36566,-1.74804 -6.07001,-0.0874 l -0.0426,0.0426 -0.0213,0.0213 -0.0213,0.0213 c -0.0142,0.0142 -0.0284,0.0284 -0.0426,0.0497 -1.6117,1.75685 -1.58421,4.53609 0.0846,6.25607 l 2.33216,2.40328 c 0.33746,0.34741 0.88322,0.34741 1.22033,0 0.33746,-0.3474 0.33746,-0.91071 2.8e-4,-1.25784 l -2.33202,-2.40377 c -1.01743,-1.04861 -1.02446,-2.75019 -0.0213,-3.80839 1.02645,-1.03377 2.67759,-1.02666 3.69515,0.0213 z"
         style="stroke-width:1.0078;opacity:0.2;fill:#000000"
         id="path4709" />
      <path
         d="m 430.17602,107.26074 c -0.33746,0.3474 -0.33675,0.91057 2.8e-4,1.25791 l 2.33203,2.40342 c 1.01763,1.04904 1.02396,2.75047 0.0213,3.80867 -1.02659,1.0337 -2.67744,1.02688 -3.69508,-0.0213 l -2.33188,-2.40364 c -0.33746,-0.3474 -0.88393,-0.3474 -1.22103,0 -0.33746,0.34741 -0.33746,0.91129 0,1.25862 l 2.33202,2.4035 c 1.6689,1.71997 4.36573,1.74797 6.06973,0.0867 l 0.0426,-0.0426 0.0213,-0.0213 0.0213,-0.0213 c 0.0142,-0.0142 0.0284,-0.0284 0.0426,-0.0497 1.61199,-1.75614 1.58471,-4.53567 -0.0838,-6.25565 l -2.33173,-2.4035 c -0.33746,-0.3474 -0.88422,-0.3474 -1.22125,-1.4e-4 z m -3.01078,3.20025 2.33202,2.40357 c 0.33746,0.3474 0.88344,0.34669 1.22054,-2.9e-4 0.33746,-0.3474 0.33746,-0.91071 4.3e-4,-1.25805 l -2.33217,-2.4037 c -1.66875,-1.71998 -4.36566,-1.74804 -6.07001,-0.0874 l -0.0426,0.0426 -0.0213,0.0213 -0.0213,0.0213 c -0.0142,0.0142 -0.0284,0.0284 -0.0426,0.0497 -1.6117,1.75685 -1.58421,4.53609 0.0846,6.25607 l 2.33216,2.40328 c 0.33746,0.34741 0.88322,0.34741 1.22033,0 0.33746,-0.3474 0.33746,-0.91071 2.8e-4,-1.25784 l -2.33202,-2.40377 c -1.01743,-1.04861 -1.02446,-2.75019 -0.0213,-3.80839 1.02645,-1.03377 2.67759,-1.02666 3.69515,0.0213 z"
         id="path4681"
         style="stroke-width:1.0078;fill:#ffffff"
         sodipodi:nodetypes="csccccccscccscccccccscscccsccccccccc" />
    </g>
    <g
       id="g4000">
      <path
         d="m 430.80926,66.059507 3.33143,3.331606 c 0.48138,0.481432 1.26193,0.480984 1.74357,-4.02e-4 0.48187,-0.482028 0.48237,-1.262354 5.9e-4,-1.74376 l -3.33163,-3.33181 c -2.38388,-2.384091 -6.23653,-2.422916 -8.67132,-0.120694 -0.0199,0.01889 -0.0448,0.03829 -0.0656,0.05933 -0.01,0.01044 -0.0199,0.02088 -0.0298,0.03182 -0.01,0.0099 -0.0199,0.01939 -0.0298,0.02934 -0.0199,0.02138 -0.0398,0.04326 -0.0592,0.0654 -2.30238,2.435188 -2.26319,6.287432 0.12084,8.671525 l 3.33158,3.331209 c 0.48138,0.481629 1.26179,0.481629 1.74337,0 0.48137,-0.482028 0.48187,-1.262359 3.9e-4,-1.743561 l -3.33146,-3.331817 c -1.45349,-1.453469 -1.46354,-3.812009 -0.0298,-5.278756 1.46632,-1.43295 3.82509,-1.423092 5.27873,0.03033 z m 4.30105,-4.435845 c -0.48138,0.48163 -0.48138,1.262154 4e-4,1.743556 l 3.33143,3.331412 c 1.45369,1.45407 1.46274,3.812411 0.0298,5.279157 -1.46657,1.432747 -3.8249,1.423288 -5.27859,-0.03033 l -3.33118,-3.331611 c -0.48138,-0.481381 -1.26277,-0.481381 -1.74436,0 -0.48188,0.482028 -0.48188,1.263159 0,1.744565 l 3.33138,3.331408 c 2.38413,2.384091 6.23678,2.422914 8.67093,0.120693 0.0199,-0.0189 0.0448,-0.03779 0.0656,-0.05933 0.01,-0.01044 0.0199,-0.02088 0.0298,-0.03133 0.01,-0.01044 0.0199,-0.01989 0.0298,-0.03033 0.0199,-0.02138 0.0398,-0.04327 0.0587,-0.0658 2.30283,-2.434183 2.26378,-6.286826 -0.12034,-8.670917 l -3.33104,-3.331408 c -0.48138,-0.481829 -1.26313,-0.481829 -1.74456,-1.99e-4 z"
         style="opacity:0.2;fill:#000000;stroke-width:1.00021"
         id="path3977"
         sodipodi:nodetypes="ccccssccccccccccccccccccccsssscccccc" />
      <path
         d="m 430.80926,65.059507 3.33143,3.331606 c 0.48138,0.481432 1.26193,0.480984 1.74357,-4.02e-4 0.48187,-0.482028 0.48237,-1.262354 5.9e-4,-1.74376 l -3.33163,-3.33181 c -2.38388,-2.384091 -6.23653,-2.422916 -8.67132,-0.120694 -0.0199,0.01889 -0.0448,0.03829 -0.0656,0.05933 -0.01,0.01044 -0.0199,0.02088 -0.0298,0.03182 -0.01,0.0099 -0.0199,0.01939 -0.0298,0.02934 -0.0199,0.02138 -0.0398,0.04326 -0.0592,0.0654 -2.30238,2.435188 -2.26319,6.287432 0.12084,8.671525 l 3.33158,3.331209 c 0.48138,0.481629 1.26179,0.481629 1.74337,0 0.48137,-0.482028 0.48187,-1.262359 3.9e-4,-1.743561 l -3.33146,-3.331817 c -1.45349,-1.453469 -1.46354,-3.812009 -0.0298,-5.278756 1.46632,-1.43295 3.82509,-1.423092 5.27873,0.03033 z m 4.30105,-4.435845 c -0.48138,0.48163 -0.48138,1.262154 4e-4,1.743556 l 3.33143,3.331412 c 1.45369,1.45407 1.46274,3.812411 0.0298,5.279157 -1.46657,1.432747 -3.8249,1.423288 -5.27859,-0.03033 l -3.33118,-3.331611 c -0.48138,-0.481381 -1.26277,-0.481381 -1.74436,0 -0.48188,0.482028 -0.48188,1.263159 0,1.744565 l 3.33138,3.331408 c 2.38413,2.384091 6.23678,2.422914 8.67093,0.120693 0.0199,-0.0189 0.0448,-0.03779 0.0656,-0.05933 0.01,-0.01044 0.0199,-0.02088 0.0298,-0.03133 0.01,-0.01044 0.0199,-0.01989 0.0298,-0.03033 0.0199,-0.02138 0.0398,-0.04327 0.0587,-0.0658 2.30283,-2.434183 2.26378,-6.286826 -0.12034,-8.670917 l -3.33104,-3.331408 c -0.48138,-0.481829 -1.26313,-0.481829 -1.74456,-1.99e-4 z"
         id="path3949"
         style="fill:#ffffff;stroke-width:1.00021"
         sodipodi:nodetypes="ccccssccccccccccccccccccccsssscccccc" />
    </g>
    <g
       id="g4337">
      <path
         d="m 310.21399,240.08425 4.99714,4.99739 c 0.72206,0.72215 1.89289,0.72148 2.61534,-6e-4 0.72281,-0.72304 0.72356,-1.89352 7.5e-4,-2.61563 l -4.99743,-4.9977 c -3.57581,-3.57613 -9.35477,-3.63437 -13.00695,-0.18104 -0.0298,0.0283 -0.0672,0.0574 -0.0984,0.089 -0.015,0.0157 -0.0298,0.0314 -0.0447,0.0477 -0.015,0.0149 -0.0299,0.0291 -0.0447,0.044 -0.0299,0.0321 -0.0597,0.0649 -0.0888,0.0981 -3.45357,3.65277 -3.39478,9.43112 0.18126,13.00725 l 4.99735,4.9968 c 0.72207,0.72244 1.89268,0.72244 2.61505,0 0.72205,-0.72303 0.7228,-1.89353 5.9e-4,-2.61533 l -4.99718,-4.99771 c -2.18023,-2.1802 -2.19531,-5.718 -0.0447,-7.91812 2.19947,-2.14941 5.73762,-2.13463 7.91807,0.0455 z m 6.45156,-6.65375 c -0.72207,0.72244 -0.72207,1.89323 6e-4,2.61532 l 4.99713,4.99711 c 2.18053,2.1811 2.19411,5.7186 0.0447,7.91872 -2.19984,2.14912 -5.73733,2.13493 -7.91786,-0.0455 l -4.99676,-4.9974 c -0.72207,-0.72207 -1.89415,-0.72207 -2.61653,0 -0.72282,0.72304 -0.72282,1.89473 0,2.61684 l 4.99706,4.9971 c 3.57618,3.57613 9.35514,3.63436 13.00636,0.18104 0.0299,-0.0283 0.0672,-0.0567 0.0984,-0.089 0.015,-0.0157 0.0298,-0.0314 0.0447,-0.047 0.015,-0.0157 0.0299,-0.0299 0.0447,-0.0455 0.0299,-0.0321 0.0597,-0.0649 0.0881,-0.0987 3.45423,-3.65126 3.39566,-9.43021 -0.18051,-13.00634 l -4.99655,-4.9971 c -0.72207,-0.72274 -1.89469,-0.72274 -2.61683,-3e-4 z"
         style="opacity:0.2;fill:#000000;stroke-width:1.50031"
         id="path4253"
         sodipodi:nodetypes="ccccccccccccccccccccccccccsscscccccc" />
      <path
         d="m 310.21399,239.08425 4.99714,4.99739 c 0.72206,0.72215 1.89289,0.72148 2.61534,-6e-4 0.72281,-0.72304 0.72356,-1.89352 7.5e-4,-2.61563 l -4.99743,-4.9977 c -3.57581,-3.57613 -9.35477,-3.63437 -13.00695,-0.18104 -0.0298,0.0283 -0.0672,0.0574 -0.0984,0.089 -0.015,0.0157 -0.0298,0.0314 -0.0447,0.0477 -0.015,0.0149 -0.0299,0.0291 -0.0447,0.044 -0.0299,0.0321 -0.0597,0.0649 -0.0888,0.0981 -3.45357,3.65277 -3.39478,9.43112 0.18126,13.00725 l 4.99735,4.9968 c 0.72207,0.72244 1.89268,0.72244 2.61505,0 0.72205,-0.72303 0.7228,-1.89353 5.9e-4,-2.61533 l -4.99718,-4.99771 c -2.18023,-2.1802 -2.19531,-5.718 -0.0447,-7.91812 2.19947,-2.14941 5.73762,-2.13463 7.91807,0.0455 z m 6.45156,-6.65375 c -0.72207,0.72244 -0.72207,1.89323 6e-4,2.61532 l 4.99713,4.99711 c 2.18053,2.1811 2.19411,5.7186 0.0447,7.91872 -2.19984,2.14912 -5.73733,2.13493 -7.91786,-0.0455 l -4.99676,-4.9974 c -0.72207,-0.72207 -1.89415,-0.72207 -2.61653,0 -0.72282,0.72304 -0.72282,1.89473 0,2.61684 l 4.99706,4.9971 c 3.57618,3.57613 9.35514,3.63436 13.00636,0.18104 0.0299,-0.0283 0.0672,-0.0567 0.0984,-0.089 0.015,-0.0157 0.0298,-0.0314 0.0447,-0.047 0.015,-0.0157 0.0299,-0.0299 0.0447,-0.0455 0.0299,-0.0321 0.0597,-0.0649 0.0881,-0.0987 3.45423,-3.65126 3.39566,-9.43021 -0.18051,-13.00634 l -4.99655,-4.9971 c -0.72207,-0.72274 -1.89469,-0.72274 -2.61683,-3e-4 z"
         style="fill:#ffffff;stroke-width:1.50031"
         id="path4225"
         sodipodi:nodetypes="ccccccccccccccccccccccccccsscscccccc" />
    </g>
    <g
       id="g4275">
      <path
         d="m 317.61852,167.11901 6.66286,6.66322 c 0.96276,0.96286 2.52386,0.96196 3.48714,-8.1e-4 0.96374,-0.96405 0.96474,-2.52471 10e-4,-3.48752 l -6.66326,-6.66362 c -4.76758,-4.76818 -12.47288,-4.84583 -17.34246,-0.24139 -0.0398,0.0378 -0.0896,0.0766 -0.1312,0.11866 -0.02,0.0209 -0.0398,0.0418 -0.0596,0.0636 -0.02,0.0198 -0.0398,0.0388 -0.0596,0.0587 -0.0398,0.0428 -0.0796,0.0865 -0.1184,0.1308 -4.60476,4.87038 -4.52638,12.57487 0.24168,17.34305 l 6.66316,6.66242 c 0.96276,0.96326 2.52358,0.96326 3.48674,0 0.96274,-0.96405 0.96374,-2.52472 7.8e-4,-3.48712 l -6.66292,-6.66363 c -2.90698,-2.90694 -2.92708,-7.62402 -0.0596,-10.55752 2.93264,-2.8659 7.65018,-2.84618 10.55746,0.0607 z m 8.6021,-8.87169 c -0.96276,0.96326 -0.96276,2.52431 8e-4,3.48712 l 6.66286,6.66282 c 2.90738,2.90814 2.92548,7.62482 0.0596,10.55831 -2.93314,2.8655 -7.6498,2.84658 -10.55718,-0.0607 l -6.66236,-6.66322 c -0.96276,-0.96276 -2.52554,-0.96276 -3.48872,0 -0.96376,0.96406 -0.96376,2.52632 0,3.48913 l 6.66276,6.66282 c 4.76826,4.76818 12.47356,4.84583 17.34186,0.24138 0.0398,-0.0378 0.0896,-0.0756 0.1312,-0.11866 0.02,-0.0209 0.0398,-0.0418 0.0596,-0.0627 0.02,-0.0209 0.0398,-0.0398 0.0596,-0.0607 0.0398,-0.0428 0.0796,-0.0865 0.1174,-0.1316 4.60566,-4.86836 4.52756,-12.57365 -0.24068,-17.34183 l -6.66208,-6.66282 c -0.96276,-0.96365 -2.52626,-0.96365 -3.48912,-3.9e-4 z"
         style="opacity:0.2;fill:#000000;stroke-width:2.00042"
         id="path4038"
         sodipodi:nodetypes="cccccccccccccccccccccccccccccccccccc" />
      <path
         d="m 317.61852,166.11901 6.66286,6.66321 c 0.96276,0.96287 2.52386,0.96197 3.48714,-8e-4 0.96374,-0.96406 0.96474,-2.52471 10e-4,-3.48752 l -6.66326,-6.66362 c -4.76776,-4.76818 -12.47306,-4.84583 -17.34264,-0.24138 -0.0398,0.0378 -0.0896,0.0766 -0.1312,0.11866 -0.02,0.0209 -0.0398,0.0418 -0.0596,0.0636 -0.02,0.0198 -0.0398,0.0388 -0.0596,0.0587 -0.0398,0.0428 -0.0796,0.0865 -0.1184,0.1308 -4.60476,4.87037 -4.52638,12.57486 0.24168,17.34304 l 6.66316,6.66242 c 0.96276,0.96326 2.52358,0.96326 3.48674,0 0.96274,-0.96405 0.96374,-2.52472 7.8e-4,-3.48712 l -6.66292,-6.66363 c -2.90698,-2.90694 -2.92708,-7.62402 -0.0596,-10.55752 2.93264,-2.86589 7.65018,-2.84618 10.55746,0.0607 z m 8.6021,-8.87169 c -0.96276,0.96326 -0.96276,2.52431 8e-4,3.48711 l 6.66286,6.66283 c 2.90738,2.90814 2.92548,7.62482 0.0596,10.55831 -2.93314,2.8655 -7.6498,2.84658 -10.55718,-0.0607 l -6.66236,-6.66322 c -0.96276,-0.96276 -2.52554,-0.96276 -3.48872,0 -0.96376,0.96406 -0.96376,2.52632 0,3.48913 l 6.66276,6.66282 c 4.76826,4.76818 12.47356,4.84582 17.34186,0.24138 0.0398,-0.0378 0.0896,-0.0756 0.1312,-0.11866 0.02,-0.0209 0.0398,-0.0418 0.0596,-0.0627 0.02,-0.0209 0.0398,-0.0398 0.0596,-0.0607 0.0398,-0.0428 0.0796,-0.0865 0.1174,-0.1316 4.60566,-4.86836 4.52756,-12.57365 -0.24068,-17.34183 l -6.66208,-6.66282 c -0.96276,-0.96366 -2.52626,-0.96366 -3.48912,-4e-4 z"
         style="fill:#ffffff;stroke-width:2.00042"
         id="path4010"
         sodipodi:nodetypes="cccccccccccccccccccccccccccccccccccc" />
    </g>
    <g
       id="g4485">
      <path
         d="m 332.42799,67.1685 9.99428,9.99478 c 1.44412,1.4443 3.78578,1.44296 5.23068,-0.001 1.44562,-1.44608 1.44712,-3.78704 0.002,-5.23126 l -9.99486,-9.9954 c -7.15162,-7.15226 -18.70954,-7.26874 -26.0139,-0.36208 -0.0596,0.0566 -0.1344,0.1148 -0.1968,0.178 -0.03,0.0314 -0.0596,0.0628 -0.0894,0.0954 -0.03,0.0298 -0.0598,0.0582 -0.0894,0.088 -0.0598,0.0642 -0.1194,0.1298 -0.1776,0.1962 -6.90714,7.30554 -6.78956,18.86224 0.36252,26.0145 l 9.9947,9.9936 c 1.44414,1.44488 3.78536,1.44488 5.2301,0 1.4441,-1.44606 1.4456,-3.78706 10e-4,-5.23066 l -9.99436,-9.99542 c -4.36046,-4.3604 -4.39062,-11.436 -0.0894,-15.83624 4.39894,-4.29882 11.47524,-4.26926 15.83614,0.091 z M 345.33111,53.861 c -1.44414,1.44488 -1.44414,3.78646 10e-4,5.23064 l 9.99426,9.99422 c 4.36106,4.3622 4.38822,11.4372 0.0894,15.83744 -4.39968,4.29824 -11.47466,4.26986 -15.83572,-0.091 l -9.99352,-9.9948 c -1.44414,-1.44414 -3.7883,-1.44414 -5.23306,0 -1.44564,1.44608 -1.44564,3.78946 0,5.23368 l 9.99412,9.9942 c 7.15236,7.15226 18.71028,7.26872 26.01272,0.36208 0.0598,-0.0566 0.1344,-0.1134 0.1968,-0.178 0.03,-0.0314 0.0596,-0.0628 0.0894,-0.094 0.03,-0.0314 0.0598,-0.0598 0.0894,-0.091 0.0598,-0.0642 0.1194,-0.1298 0.1762,-0.1974 6.90846,-7.30252 6.79132,-18.86042 -0.36102,-26.01268 l -9.9931,-9.9942 c -1.44414,-1.44548 -3.78938,-1.44548 -5.23366,-6e-4 z"
         style="opacity:0.2;fill:#000000;stroke-width:3.00062"
         id="path4313" />
      <path
         d="m 332.42799,66.1685 9.99428,9.99478 c 1.44412,1.4443 3.78578,1.44296 5.23068,-0.001 1.44562,-1.44608 1.44712,-3.78704 0.002,-5.23126 l -9.99486,-9.9954 c -7.15162,-7.15226 -18.70954,-7.26874 -26.0139,-0.36208 -0.0596,0.0566 -0.1344,0.1148 -0.1968,0.178 -0.03,0.0314 -0.0596,0.0628 -0.0894,0.0954 -0.03,0.0298 -0.0598,0.0582 -0.0894,0.088 -0.0598,0.0642 -0.1194,0.1298 -0.1776,0.1962 -6.90714,7.30554 -6.78956,18.86224 0.36252,26.0145 l 9.9947,9.9936 c 1.44414,1.44488 3.78536,1.44488 5.2301,0 1.4441,-1.44606 1.4456,-3.78706 10e-4,-5.23066 l -9.99436,-9.99542 c -4.36046,-4.3604 -4.39062,-11.436 -0.0894,-15.83624 4.39894,-4.29882 11.47524,-4.26926 15.83614,0.091 z M 345.33111,52.861 c -1.44414,1.44488 -1.44414,3.78646 10e-4,5.23064 l 9.99426,9.99422 c 4.36106,4.3622 4.38822,11.4372 0.0894,15.83744 -4.39968,4.29824 -11.47466,4.26986 -15.83572,-0.091 l -9.99352,-9.9948 c -1.44414,-1.44414 -3.7883,-1.44414 -5.23306,0 -1.44564,1.44608 -1.44564,3.78946 0,5.23368 l 9.99412,9.9942 c 7.15236,7.15226 18.71028,7.26872 26.01272,0.36208 0.0598,-0.0566 0.1344,-0.1134 0.1968,-0.178 0.03,-0.0314 0.0596,-0.0628 0.0894,-0.094 0.03,-0.0314 0.0598,-0.0598 0.0894,-0.091 0.0598,-0.0642 0.1194,-0.1298 0.1762,-0.1974 6.90846,-7.30252 6.79132,-18.86042 -0.36102,-26.01268 l -9.9931,-9.9942 c -1.44414,-1.44548 -3.78938,-1.44548 -5.23366,-6e-4 z"
         style="fill:#ffffff;stroke-width:3.00062"
         id="path4285" />
    </g>
    <g
       id="g4167">
      <path
         d="m 134.47408,134.47652 26.65144,26.65288 c 3.85104,3.85144 10.09544,3.84784 13.94856,-0.003 3.85496,-3.8562 3.85896,-10.09884 0.004,-13.95008 L 148.42504,120.5216 c -19.07032,-19.07272 -49.89152,-19.38332 -69.36984,-0.96556 -0.1592,0.1512 -0.3584,0.3064 -0.5248,0.47464 -0.08,0.0836 -0.1592,0.1672 -0.2384,0.2544 -0.08,0.0792 -0.1592,0.1552 -0.2384,0.2348 -0.1592,0.1712 -0.3184,0.346 -0.4736,0.5232 -18.41904,19.48152 -18.10552,50.29948 0.96672,69.3722 l 26.65264,26.64968 c 3.85104,3.85304 10.09432,3.85304 13.94696,0 3.85096,-3.8562 3.85496,-10.09888 0.003,-13.94848 L 92.49764,176.46196 c -11.62792,-11.62776 -11.70832,-30.49608 -0.2384,-42.23008 11.73056,-11.4636 30.60072,-11.38472 42.22984,0.2428 z m 34.4084,-35.48676 c -3.85104,3.85304 -3.85104,10.09724 0.003,13.94848 l 26.65144,26.65128 c 11.62952,11.63256 11.70192,30.49928 0.2384,42.23324 -11.73256,11.462 -30.5992,11.38632 -42.22872,-0.2428 l -26.64944,-26.65284 c -3.85104,-3.85108 -10.10216,-3.85108 -13.95488,0 -3.85504,3.8562 -3.85504,10.10528 0,13.95648 l 26.65104,26.65132 c 19.07304,19.07272 49.89424,19.38332 69.36744,0.96548 0.1592,-0.1512 0.3584,-0.3024 0.5248,-0.47464 0.08,-0.0836 0.1592,-0.1672 0.2384,-0.2508 0.08,-0.0836 0.1592,-0.1592 0.2384,-0.2428 0.1592,-0.1712 0.3184,-0.346 0.4696,-0.5264 18.42264,-19.47344 18.11024,-50.29456 -0.96272,-69.36732 L 182.82092,98.98716 c -3.85104,-3.8546 -10.10504,-3.8546 -13.95648,-0.002 z"
         style="opacity:0.2;fill:#000000;stroke-width:8.00168"
         id="path4141" />
      <path
         d="m 134.47408,132.47604 26.65144,26.65284 c 3.85104,3.85148 10.09544,3.84788 13.94856,-0.003 3.85496,-3.85624 3.85896,-10.09884 0.004,-13.95008 L 148.42504,118.52112 C 129.354,99.4484 98.5328,99.1378 79.05448,117.5556 c -0.1592,0.1512 -0.3584,0.3064 -0.5248,0.47464 -0.08,0.0836 -0.1592,0.1672 -0.2384,0.2544 -0.08,0.0792 -0.1592,0.1552 -0.2384,0.2348 -0.1592,0.1712 -0.3184,0.346 -0.4736,0.5232 -18.41904,19.48148 -18.10552,50.29944 0.96672,69.37216 l 26.65264,26.64968 c 3.85104,3.85304 10.09432,3.85304 13.94696,0 3.85096,-3.8562 3.85496,-10.09888 0.003,-13.94848 L 92.49692,174.46148 C 80.869,162.83372 80.7886,143.9654 92.25852,132.2314 c 11.73056,-11.46356 30.60072,-11.38472 42.22984,0.2428 z m 34.4084,-35.48676 c -3.85104,3.85304 -3.85104,10.09724 0.003,13.94844 l 26.65144,26.65132 c 11.62952,11.63256 11.70192,30.49928 0.2384,42.23324 -11.73256,11.462 -30.5992,11.38632 -42.22872,-0.2428 L 126.89736,152.9266 c -3.85104,-3.85104 -10.10216,-3.85104 -13.95488,0 -3.85504,3.85624 -3.85504,10.10528 0,13.95652 l 26.65104,26.65128 c 19.07304,19.07272 49.89424,19.38328 69.36744,0.96552 0.1592,-0.1512 0.3584,-0.3024 0.5248,-0.47464 0.08,-0.0836 0.1592,-0.1672 0.2384,-0.2508 0.08,-0.0836 0.1592,-0.1592 0.2384,-0.2428 0.1592,-0.1712 0.3184,-0.346 0.4696,-0.5264 18.42264,-19.47344 18.11024,-50.2946 -0.96272,-69.36732 L 182.82112,96.98668 c -3.85104,-3.85464 -10.10504,-3.85464 -13.95648,-0.002 z"
         style="fill:#ffffff;stroke-width:8.00168"
         id="path4113" />
    </g>
  </g>
  <g
     id="Highlights">
    <path
       id="rect653"
       style="opacity:0.2;fill:#ffffff"
       d="M 80,44 C 53.408027,44 32,65.408027 32,92 v 2 C 32,67.408027 53.408027,46 80,46 h 128 c 26.59197,0 48,21.408027 48,48 V 92 C 256,65.408027 234.59197,44 208,44 Z"
       sodipodi:nodetypes="sscsscsss" />
    <path
       id="rect773"
       style="opacity:0.2;fill:#ffffff"
       d="m 312,34 c -9.97199,0 -18,8.02801 -18,18 v 1 c 0,-9.97199 8.02801,-18 18,-18 h 48 c 9.97199,0 18,8.02801 18,18 v -1 c 0,-9.97199 -8.02801,-18 -18,-18 z" />
    <path
       id="rect1135"
       style="opacity:0.2;fill:#ffffff;fill-opacity:1"
       d="m 304,144 c -6.64799,0 -12,5.35201 -12,12 v 1 c 0,-6.64799 5.35201,-12 12,-12 h 32 c 6.64799,0 12,5.35201 12,12 v -1 c 0,-6.64799 -5.35201,-12 -12,-12 z" />
    <path
       id="rect1265"
       style="opacity:0.2;fill:#ffffff;fill-opacity:1"
       d="m 300,223 c -4.986,0 -9,4.014 -9,9 v 1 c 0,-4.986 4.014,-9 9,-9 h 24 c 4.986,0 9,4.014 9,9 v -1 c 0,-4.986 -4.014,-9 -9,-9 z" />
    <path
       id="rect1368"
       style="opacity:0.2;fill:#ffffff;fill-opacity:1"
       d="m 424,54 c -3.324,0 -6,2.676003 -6,6 v 1 c 0,-3.323997 2.676,-6 6,-6 h 16 c 3.324,0 6,2.676003 6,6 v -1 c 0,-3.323997 -2.676,-6 -6,-6 z" />
    <path
       id="rect1402"
       style="opacity:0.2;fill:#ffffff;fill-opacity:1"
       d="m 420,140 c -2.216,0 -4,1.784 -4,4 v 1 c 0,-2.216 1.784,-4 4,-4 h 8 c 2.216,0 4,1.784 4,4 v -1 c 0,-2.216 -1.784,-4 -4,-4 z" />
    <path
       id="rect1436"
       style="opacity:0.2;fill:#ffffff;fill-opacity:1"
       d="m 422,102 c -2.216,0 -4,1.784 -4,4 v 1 c 0,-2.216 1.784,-4 4,-4 h 12 c 2.216,0 4,1.784 4,4 v -1 c 0,-2.216 -1.784,-4 -4,-4 z" />
  </g>
</svg>
