<?xml version="1.0" encoding="UTF-8" standalone="no"?>
<!-- Created with Inkscape (http://www.inkscape.org/) -->

<svg
   width="480"
   height="300"
   viewBox="0 0 480 300"
   version="1.1"
   id="svg5"
   inkscape:version="1.2.2 (1:1.2.2+202305151914+b0a8486541)"
   sodipodi:docname="blender.svg"
   xmlns:inkscape="http://www.inkscape.org/namespaces/inkscape"
   xmlns:sodipodi="http://sodipodi.sourceforge.net/DTD/sodipodi-0.dtd"
   xmlns="http://www.w3.org/2000/svg"
   xmlns:svg="http://www.w3.org/2000/svg">
  <sodipodi:namedview
     id="namedview7"
     pagecolor="#888888"
     bordercolor="#000000"
     borderopacity="0.25"
     inkscape:showpageshadow="true"
     inkscape:pageopacity="0"
     inkscape:pagecheckerboard="0"
     inkscape:deskcolor="#888888"
     inkscape:document-units="px"
     showgrid="false"
     showborder="false"
     inkscape:zoom="2.6866667"
     inkscape:cx="240.07444"
     inkscape:cy="150"
     inkscape:window-width="1920"
     inkscape:window-height="1008"
     inkscape:window-x="0"
     inkscape:window-y="0"
     inkscape:window-maximized="1"
     inkscape:current-layer="svg5" />
  <defs
     id="defs2" />
  <g
     id="Baseplate"
     style="display:none">
    <text
       y="19.774782"
       xml:space="preserve"
       x="15.006946"
       style="font-style:normal;font-variant:normal;font-weight:normal;font-stretch:normal;line-height:0%;font-family:'DejaVu Sans';-inkscape-font-specification:'DejaVu Sans';display:inline;fill:#000000;fill-opacity:1;stroke:none;enable-background:new"
       inkscape:label="context"
       id="context"><tspan
         style="font-style:normal;font-variant:normal;font-weight:normal;font-stretch:normal;font-size:18px;line-height:1.25;font-family:'DejaVu Sans';-inkscape-font-specification:'DejaVu Sans'"
         y="19.774782"
         x="15.006946"
         sodipodi:role="line"
         id="tspan3933">apps</tspan></text>
    <text
       y="19.774782"
       xml:space="preserve"
       x="122.48839"
       style="font-style:normal;font-variant:normal;font-weight:bold;font-stretch:normal;line-height:0%;font-family:'DejaVu Sans';-inkscape-font-specification:'DejaVu Sans Bold';text-align:start;writing-mode:lr-tb;text-anchor:start;display:inline;fill:#000000;fill-opacity:1;stroke:none;enable-background:new"
       inkscape:label="icon-name"
       id="icon-name"><tspan
         style="font-style:normal;font-variant:normal;font-weight:bold;font-stretch:normal;font-size:18px;line-height:1.25;font-family:'DejaVu Sans';-inkscape-font-specification:'DejaVu Sans Bold'"
         y="19.774782"
         x="122.48839"
         sodipodi:role="line"
         id="tspan3937">blender</tspan></text>
    <rect
       style="fill:#ffffff"
       id="256x256"
       width="256"
       height="256"
       x="16"
       y="28" />
    <rect
       style="fill:#ffffff"
       id="96x96"
       width="96"
       height="96"
       x="288"
       y="28" />
    <rect
       style="fill:#ffffff"
       id="64x64"
       width="64"
       height="64"
       x="288"
       y="140" />
    <rect
       style="fill:#ffffff"
       id="48x48"
       width="48"
       height="48"
       x="288"
       y="220" />
    <rect
       style="fill:#ffffff"
       id="32x32"
       width="32"
       height="32"
       x="416"
       y="52" />
    <rect
       style="fill:#ffffff"
       id="24x24"
       width="24"
       height="24"
       x="416"
       y="100" />
    <rect
       style="fill:#ffffff"
       id="22x22"
       width="22"
       height="22"
       x="417"
       y="101" />
    <rect
       style="fill:#ffffff"
       id="16x16"
       width="16"
       height="16"
       x="416"
       y="140" />
  </g>
  <g
     id="Shadow">
    <rect
       style="opacity:0.2;fill:#000000"
       id="rect651"
       width="224"
       height="224"
       x="32"
       y="46"
       ry="48" />
    <rect
       style="opacity:0.2;fill:#000000"
       id="rect769"
       width="84"
       height="85"
       x="294"
       y="34"
       ry="18" />
    <rect
       style="opacity:0.2;fill:#000000;fill-opacity:1"
       id="rect1131"
       width="56"
       height="56"
       x="292"
       y="145"
       ry="12" />
    <rect
       style="opacity:0.2;fill:#000000;fill-opacity:1"
       id="rect1261"
       width="42"
       height="42"
       x="291"
       y="224"
       ry="9" />
    <rect
       style="opacity:0.2;fill:#000000;fill-opacity:1"
       id="rect1364"
       width="28"
       height="29"
       x="418"
       y="54"
       ry="6" />
    <rect
       style="opacity:0.2;fill:#000000;fill-opacity:1"
       id="rect1398"
       width="16"
       height="16"
       x="416"
       y="141"
       ry="4" />
    <rect
       style="opacity:0.2;fill:#000000;fill-opacity:1"
       id="rect1432"
       width="20"
       height="20"
       x="418"
       y="103"
       ry="4" />
  </g>
  <g
     id="Background">
    <rect
       style="fill:#ff8f00;fill-opacity:1"
       id="rect597"
       width="224"
       height="224"
       x="32"
       y="44"
       ry="48" />
    <rect
       style="opacity:1;fill:#ff8f00;fill-opacity:1"
       id="rect771"
       width="84"
       height="84"
       x="294"
       y="34"
       ry="18" />
    <rect
       style="opacity:1;fill:#ff8f00;fill-opacity:1"
       id="rect1133"
       width="56"
       height="56"
       x="292"
       y="144"
       ry="12" />
    <rect
       style="opacity:1;fill:#ff8f00;fill-opacity:1"
       id="rect1263"
       width="42"
       height="42"
       x="291"
       y="223"
       ry="9" />
    <rect
       style="opacity:1;fill:#ff8f00;fill-opacity:1"
       id="rect1366"
       width="28"
       height="28"
       x="418"
       y="54"
       ry="6" />
    <rect
       style="opacity:1;fill:#ff8f00;fill-opacity:1"
       id="rect1434"
       width="20"
       height="20"
       x="418"
       y="102"
       ry="4" />
    <rect
       style="opacity:1;fill:#ff8f00;fill-opacity:1"
       id="rect1400"
       width="16"
       height="16"
       x="416"
       y="140"
       ry="4" />
  </g>
  <g
     id="g3540">
    <g
       id="g6670">
      <path
         d="m 424.23281,143.28337 c -0.12781,0 -0.25558,0.0486 -0.35351,0.14649 -0.19587,0.19587 -0.19588,0.51116 0,0.70703 l 1.37109,1.37109 c -0.0832,-0.005 -0.1666,-0.008 -0.25,-0.008 h -5.5 c -0.277,0 -0.5,0.223 -0.5,0.5 0,0.277 0.223,0.5 0.5,0.5 h 2.85742 c -0.0611,0.058 -0.12039,0.11794 -0.17773,0.17969 l -0.008,-0.008 -3.24218,3.24219 c -0.19587,0.19587 -0.19587,0.51116 0,0.70703 0.19587,0.19587 0.51116,0.19588 0.70703,0 l 1.38281,-1.38281 c -0.009,0.087 -0.0159,0.17429 -0.0195,0.26172 0,2.20914 1.79086,4 4,4 2.20914,0 4,-1.79086 4,-4 -1.6e-4,-1.06081 -0.42169,-2.07811 -1.17188,-2.82813 l -3.24218,-3.24218 c -0.0979,-0.0979 -0.22571,-0.14649 -0.35352,-0.14649 z"
         style="fill:#000000;fill-opacity:1;stroke-width:1.33333;stroke-linecap:square;stroke-linejoin:round;opacity:0.2"
         id="path4995" />
      <path
         id="path344"
         style="opacity:1;fill:#ffecb3;fill-opacity:1;stroke-width:1.33333;stroke-linecap:square;stroke-linejoin:round"
         d="m 424.23281,142.78321 c -0.12781,0 -0.25558,0.0486 -0.35351,0.14649 -0.19587,0.19587 -0.19588,0.51116 0,0.70703 l 1.37109,1.37109 c -0.0832,-0.005 -0.1666,-0.008 -0.25,-0.008 h -5.5 c -0.277,0 -0.5,0.223 -0.5,0.5 0,0.277 0.223,0.5 0.5,0.5 h 2.85742 c -0.0611,0.058 -0.12039,0.11794 -0.17773,0.17969 l -0.008,-0.008 -3.24218,3.24219 c -0.19587,0.19587 -0.19587,0.51116 0,0.70703 0.19587,0.19587 0.51116,0.19588 0.70703,0 l 1.38281,-1.38281 c -0.009,0.087 -0.0159,0.17429 -0.0195,0.26172 0,2.20914 1.79086,4 4,4 2.20914,0 4,-1.79086 4,-4 -1.6e-4,-1.06081 -0.42169,-2.07811 -1.17188,-2.82813 l -3.24218,-3.24218 c -0.0979,-0.0979 -0.22571,-0.14649 -0.35352,-0.14649 z"
         sodipodi:nodetypes="cssccssscccsssccsccscc" />
      <path
         id="path5023"
         style="fill:#ffffff;fill-opacity:1;stroke-width:1.33333;stroke-linecap:square;stroke-linejoin:round;opacity:0.2"
         d="M 424.23242 142.7832 C 424.10461 142.7832 423.97684 142.8318 423.87891 142.92969 C 423.71467 143.09392 423.68959 143.34185 423.80078 143.5332 C 423.8222 143.49634 423.84727 143.46132 423.87891 143.42969 C 423.97684 143.3318 424.10461 143.2832 424.23242 143.2832 C 424.36023 143.2832 424.48804 143.33179 424.58594 143.42969 L 427.82812 146.67188 C 428.51798 147.36157 428.93026 148.27642 428.99219 149.24414 C 428.99709 149.16308 429 149.0823 429 149 C 428.99984 147.93919 428.57831 146.92189 427.82812 146.17188 L 424.58594 142.92969 C 424.48804 142.83179 424.36023 142.7832 424.23242 142.7832 z M 419.5 145 C 419.223 145 419 145.223 419 145.5 C 419 145.59192 419.02737 145.67615 419.07031 145.75 C 419.15677 145.60131 419.31492 145.5 419.5 145.5 L 425 145.5 C 425.0834 145.5 425.1668 145.50281 425.25 145.50781 L 424.74219 145 L 419.5 145 z M 421.84375 146.5 L 418.92969 149.41406 C 418.76545 149.5783 418.74038 149.82622 418.85156 150.01758 C 418.87298 149.98072 418.89805 149.9457 418.92969 149.91406 L 422.17188 146.67188 L 422.17969 146.67969 C 422.23703 146.61794 422.29632 146.558 422.35742 146.5 L 421.84375 146.5 z M 421.01953 149.23828 L 421.00977 149.24805 C 421.01109 149.26959 421.01201 149.29105 421.01367 149.3125 C 421.01586 149.28778 421.01698 149.26296 421.01953 149.23828 z " />
      <circle
         style="opacity:0.2;fill:#000000;fill-opacity:1;stroke-width:2;stroke-linecap:square"
         id="path4985"
         cx="425.0004"
         cy="149.5"
         r="3" />
      <circle
         style="fill:#ffffff;stroke-width:1.5;stroke-linecap:square;stroke-linejoin:round"
         id="path629"
         cx="425.0004"
         cy="149"
         r="3" />
      <circle
         style="opacity:1;fill:#408ef4;fill-opacity:1;stroke-width:2;stroke-linecap:square"
         id="path4875"
         cx="425.0004"
         cy="149"
         r="1.5" />
    </g>
    <g
       id="g3250">
      <path
         id="path545"
         style="opacity:0.2;fill:#000000;stroke-width:1;stroke-linecap:square;stroke-linejoin:round"
         d="m 427.87891,105.51367 c -0.12781,0 -0.25558,0.0505 -0.35352,0.14844 -0.19587,0.19587 -0.19587,0.51116 0,0.70703 l 2.18164,2.18164 C 429.47285,108.51718 429.23658,108.5002 429,108.5 h -7.5 c -0.277,0 -0.5,0.223 -0.5,0.5 0,0.277 0.223,0.5 0.5,0.5 h 4.52148 c -0.19413,0.14408 -0.37755,0.30205 -0.54882,0.47266 l -0.008,-0.008 -4.30273,4.30274 c -0.19587,0.19587 -0.19587,0.51116 0,0.70703 0.19587,0.19587 0.51116,0.19587 0.70703,0 l 2.18164,-2.18164 c -0.0336,0.23418 -0.0506,0.47045 -0.0508,0.70703 0,2.76142 2.23858,5 5,5 2.76142,0 5,-2.23858 5,-5 -2e-4,-1.32601 -0.52711,-2.59763 -1.46484,-3.53516 l -4.30274,-4.30273 c -0.0979,-0.0979 -0.2257,-0.14844 -0.35351,-0.14844 z"
         sodipodi:nodetypes="sssccssscccsssccsccss" />
      <path
         id="path924"
         style="opacity:1;fill:#ffecb3;fill-opacity:1;stroke-width:1;stroke-linecap:square;stroke-linejoin:round"
         d="m 427.87891,105.01367 c -0.12781,0 -0.25558,0.0505 -0.35352,0.14844 -0.19587,0.19587 -0.19587,0.51116 0,0.70703 l 2.18164,2.18164 C 429.47285,108.01718 429.23658,108.0002 429,108 h -7.5 c -0.277,0 -0.5,0.223 -0.5,0.5 0,0.277 0.223,0.5 0.5,0.5 h 4.52148 c -0.19413,0.14408 -0.37755,0.30205 -0.54882,0.47266 l -0.008,-0.008 -4.30273,4.30274 c -0.19587,0.19587 -0.19587,0.51116 0,0.70703 0.19587,0.19587 0.51116,0.19587 0.70703,0 l 2.18164,-2.18164 c -0.0336,0.23418 -0.0506,0.47045 -0.0508,0.70703 0,2.76142 2.23858,5 5,5 2.76142,0 5,-2.23858 5,-5 -2e-4,-1.32601 -0.52711,-2.59763 -1.46484,-3.53516 l -4.30274,-4.30273 c -0.0979,-0.0979 -0.2257,-0.14844 -0.35351,-0.14844 z"
         sodipodi:nodetypes="sssccssscccsssccsccsss" />
      <path
         id="path5079"
         style="fill:#ffffff;fill-opacity:1;stroke-width:1;stroke-linecap:square;stroke-linejoin:round;opacity:0.2"
         d="M 427.87891 105.01367 C 427.7511 105.01367 427.62333 105.06417 427.52539 105.16211 C 427.36116 105.32634 427.33608 105.57427 427.44727 105.76562 C 427.46868 105.72877 427.49376 105.69374 427.52539 105.66211 C 427.62333 105.56417 427.7511 105.51367 427.87891 105.51367 C 428.00672 105.51367 428.13452 105.56421 428.23242 105.66211 L 432.53516 109.96484 C 433.41428 110.84378 433.93265 112.01622 433.99414 113.25195 C 433.99827 113.16864 434 113.08433 434 113 C 433.9998 111.67399 433.47289 110.40237 432.53516 109.46484 L 428.23242 105.16211 C 428.13452 105.06421 428.00672 105.01367 427.87891 105.01367 z M 421.5 108 C 421.223 108 421 108.223 421 108.5 C 421 108.59158 421.02572 108.67633 421.06836 108.75 C 421.15456 108.60033 421.31419 108.5 421.5 108.5 L 429 108.5 C 429.23658 108.5002 429.47285 108.51718 429.70703 108.55078 L 429.16211 108.00586 C 429.10793 108.00405 429.05424 108.00005 429 108 L 421.5 108 z M 425.42969 109.5 L 421.16211 113.76758 C 420.99781 113.93188 420.97265 114.17971 421.08398 114.37109 C 421.10542 114.33416 421.13041 114.29927 421.16211 114.26758 L 425.46484 109.96484 L 425.47266 109.97266 C 425.64393 109.80205 425.82735 109.64408 426.02148 109.5 L 425.42969 109.5 z M 424.05078 112.79297 L 424.00586 112.83789 C 424.00407 112.89179 424.00005 112.94605 424 113 C 424 113.09294 424.00281 113.18565 424.00781 113.27734 C 424.01516 113.11512 424.02771 112.9538 424.05078 112.79297 z " />
      <circle
         style="opacity:0.2;fill:#000000;fill-opacity:1;stroke-width:2;stroke-linecap:square"
         id="path4931"
         cx="429"
         cy="113.5"
         r="3.5" />
      <circle
         style="opacity:1;fill:#ffffff;fill-opacity:1;stroke-width:2;stroke-linecap:square"
         id="path4929"
         cx="429"
         cy="113.00021"
         r="3.5" />
      <circle
         style="fill:#408ef4;fill-opacity:1;stroke-width:2.00001;stroke-linecap:square;stroke-linejoin:round"
         id="path632"
         cx="429"
         cy="113.00021"
         r="2" />
    </g>
    <g
       id="g9037">
      <path
         d="m 432.38486,59.125 c -0.25562,0 -0.51116,0.0971 -0.70703,0.292969 -0.39173,0.391736 -0.39173,1.022325 0,1.414062 l 3.17419,3.175297 c -0.095,-0.0044 -0.19006,-0.007 -0.28516,-0.0078 h -10.5664 c -0.554,0 -1,0.446001 -1,1 0,0.553999 0.446,1 1,1 h 5.48633 c -0.0711,0.06893 -0.14073,0.139253 -0.20899,0.210938 l -0.0137,-0.01367 -6.9703,6.970701 c -0.39173,0.391737 -0.39173,1.022326 0,1.414062 0.39174,0.391737 1.02235,0.39176 1.41407,0 l 3.38045,-3.380857 c -0.009,0.09946 -0.0163,0.199084 -0.0215,0.298826 0,4.142136 3.35786,7.5 7.5,7.5 4.14214,0 7.5,-3.357864 7.5,-7.5 -3e-4,-1.989009 -0.79067,-3.896443 -2.19727,-5.302734 l -6.7777,-6.778825 C 432.89599,59.2221 432.64044,59.125 432.38482,59.125 Z"
         style="opacity:0.2;fill:#000000;stroke-width:1.36364;stroke-linecap:square;stroke-linejoin:round"
         id="path7916" />
      <path
         d="m 432.38486,58.125 c -0.25562,0 -0.51116,0.0971 -0.70703,0.292969 -0.39173,0.391736 -0.39173,1.022325 0,1.414062 l 3.17419,3.175297 c -0.095,-0.0044 -0.19006,-0.007 -0.28516,-0.0078 h -10.5664 c -0.554,0 -1,0.446001 -1,1 0,0.553999 0.446,1 1,1 h 5.48633 c -0.0711,0.06893 -0.14073,0.139253 -0.20899,0.210938 l -0.0137,-0.01367 -6.9703,6.970701 c -0.39173,0.391737 -0.39173,1.022326 0,1.414062 0.39174,0.391737 1.02235,0.39176 1.41407,0 l 3.38045,-3.380857 c -0.009,0.09946 -0.0163,0.199084 -0.0215,0.298826 0,4.142136 3.35786,7.5 7.5,7.5 4.14214,0 7.5,-3.357864 7.5,-7.5 -3e-4,-1.989009 -0.79067,-3.896443 -2.19727,-5.302734 l -6.7777,-6.778825 C 432.89599,58.2221 432.64044,58.125 432.38482,58.125 Z"
         style="opacity:1;fill:#ffecb5;fill-opacity:1;stroke-width:1.36364;stroke-linecap:square;stroke-linejoin:round"
         id="path7888"
         sodipodi:nodetypes="sscccsssccccssccscccss" />
      <path
         id="path8427"
         style="fill:#ffffff;fill-opacity:1;stroke-width:1.36364;stroke-linecap:square;stroke-linejoin:round;opacity:0.2"
         d="M 432.38477 58.125 C 432.12915 58.125 431.8736 58.2221 431.67773 58.417969 C 431.34921 58.746497 431.29898 59.242259 431.52148 59.625 C 431.56429 59.551363 431.61453 59.481176 431.67773 59.417969 C 431.8736 59.2221 432.12915 59.125 432.38477 59.125 C 432.64039 59.125 432.89594 59.2221 433.0918 59.417969 L 439.86914 66.197266 C 441.15851 67.486353 441.92699 69.195801 442.04688 71.003906 C 442.058 70.836775 442.06641 70.669949 442.06641 70.5 C 442.06611 68.510993 441.27574 66.603555 439.86914 65.197266 L 433.0918 58.417969 C 432.89594 58.2221 432.64039 58.125 432.38477 58.125 z M 424 63 C 423.446 63 423 63.446002 423 64 C 423 64.183939 423.05271 64.352243 423.13867 64.5 C 423.3114 64.201912 423.62932 64 424 64 L 434.56641 64 C 434.66151 64.0008 434.75656 64.003413 434.85156 64.007812 L 433.84375 63 L 424 63 z M 428.46094 66 L 422.29297 72.167969 C 421.96391 72.497029 421.91686 72.99201 422.14062 73.375 C 422.1834 73.301494 422.22986 73.231075 422.29297 73.167969 L 429.26367 66.197266 L 429.27734 66.210938 C 429.3456 66.139253 429.41523 66.06893 429.48633 66 L 428.46094 66 z " />
      <circle
         style="opacity:0.2;fill:#000000;fill-opacity:1;stroke-width:2;stroke-linecap:square"
         id="path8540"
         cx="434.5"
         cy="71.5"
         r="5.5" />
      <circle
         style="opacity:1;fill:#ffffff;fill-opacity:1;stroke-width:2;stroke-linecap:square"
         id="path8542"
         cx="434.5"
         cy="70.5"
         r="5.5" />
      <circle
         style="opacity:1;fill:#408ef4;fill-opacity:1;stroke-width:2.4;stroke-linecap:square"
         id="path8545"
         cx="434.5"
         cy="70.5"
         r="2.5" />
    </g>
    <g
       id="g6673">
      <path
         d="m 311.75776,229.82017 c -0.38343,0 -0.76674,0.1476 -1.06054,0.44141 -0.58761,0.5876 -0.58761,1.53349 0,2.12109 l 4.625,4.625 c -0.10738,-0.004 -0.21482,-0.007 -0.32227,-0.008 h -15.5 c -0.831,0 -1.5,0.669 -1.5,1.5 0,0.831 0.669,1.5 1.5,1.5 h 7.98437 c -0.082,0.0795 -0.16272,0.16021 -0.24218,0.24219 l -0.0195,-0.0195 -9.96094,9.96094 c -0.5876,0.5876 -0.5876,1.53348 0,2.12109 0.5876,0.5876 1.53349,0.5876 2.12109,0 l 4.64063,-4.64063 c -0.01,0.11185 -0.0173,0.22385 -0.0234,0.33594 0,6.07513 4.92487,11 11,11 6.07513,0 11,-4.92487 11,-11 8e-5,-2.91693 -1.15842,-5.71446 -3.2207,-7.77734 l -9.96094,-9.96095 c -0.2938,-0.2938 -0.67712,-0.44141 -1.06055,-0.44141 z"
         style="opacity:0.2;fill:#000000;fill-opacity:1;stroke-width:0.916667;stroke-linecap:square;stroke-linejoin:round"
         id="path5436"
         sodipodi:nodetypes="cssccssscccsssccsscscc" />
      <path
         d="m 311.75776,228.82017 c -0.38342,0 -0.76674,0.1476 -1.06054,0.44141 -0.5876,0.5876 -0.5876,1.53349 0,2.12109 l 4.625,4.625 c -0.10737,-0.004 -0.21481,-0.007 -0.32227,-0.008 h -15.5 c -0.831,0 -1.5,0.669 -1.5,1.5 0,0.831 0.669,1.5 1.5,1.5 h 7.98437 c -0.082,0.0795 -0.16271,0.16021 -0.24218,0.24219 l -0.0195,-0.0195 -9.96094,9.96094 c -0.5876,0.5876 -0.5876,1.53348 0,2.12109 0.58761,0.5876 1.53349,0.5876 2.12109,0 l 4.64063,-4.64063 c -0.01,0.11185 -0.0173,0.22385 -0.0234,0.33594 0,6.07513 4.92487,11 11,11 6.07513,0 11,-4.92487 11,-11 9e-5,-2.91693 -1.15841,-5.71446 -3.2207,-7.77734 l -9.96094,-9.96095 c -0.2938,-0.2938 -0.67712,-0.44141 -1.06055,-0.44141 z"
         style="fill:#ffecb3;fill-opacity:1;stroke-width:0.916667;stroke-linecap:square;stroke-linejoin:round"
         id="path6683"
         sodipodi:nodetypes="cssccssscccsssccsccscc" />
      <path
         id="path8483"
         style="fill:#ffffff;fill-opacity:1;stroke-width:0.916667;stroke-linecap:square;stroke-linejoin:round;opacity:0.2"
         d="M 311.75781 228.82031 C 311.37439 228.82031 310.99107 228.96791 310.69727 229.26172 C 310.27353 229.68546 310.16025 230.29461 310.34766 230.82227 C 310.42011 230.61807 310.5333 230.42569 310.69727 230.26172 C 310.99107 229.96791 311.37439 229.82031 311.75781 229.82031 C 312.14124 229.82031 312.52456 229.96792 312.81836 230.26172 L 322.7793 240.22266 C 324.72563 242.16955 325.86617 244.77135 325.98828 247.50977 C 325.99599 247.34081 326 247.17086 326 247 C 326.00009 244.08307 324.84158 241.28553 322.7793 239.22266 L 312.81836 229.26172 C 312.52456 228.96792 312.14124 228.82031 311.75781 228.82031 z M 299.5 236 C 298.669 236 298 236.669 298 237.5 C 298 237.67676 298.03614 237.84278 298.0918 238 C 298.29746 237.41743 298.8453 237 299.5 237 L 315 237 C 315.10746 237.001 315.2149 237.00381 315.32227 237.00781 L 314.31445 236 L 299.5 236 z M 306.44531 240 L 297.26172 249.18359 C 296.83798 249.60733 296.7247 250.21648 296.91211 250.74414 C 296.98457 250.53994 297.09775 250.34756 297.26172 250.18359 L 307.22266 240.22266 L 307.24219 240.24219 C 307.32166 240.16021 307.40238 240.0795 307.48438 240 L 306.44531 240 z M 304.02344 247.66406 L 304.02148 247.66602 C 304.02176 247.67057 304.02121 247.67514 304.02148 247.67969 C 304.02194 247.67446 304.02297 247.66928 304.02344 247.66406 z " />
      <circle
         style="opacity:0.2;fill:#000000;fill-opacity:1;stroke-width:2;stroke-linecap:square"
         id="path6703"
         cx="315"
         cy="248"
         r="8" />
      <circle
         style="opacity:1;fill:#ffffff;fill-opacity:1;stroke-width:2;stroke-linecap:square"
         id="path7098"
         cx="315"
         cy="247"
         r="8" />
      <circle
         style="opacity:1;fill:#408ef4;fill-opacity:1;stroke-width:2;stroke-linecap:square"
         id="path7100"
         cx="315"
         cy="247"
         r="4" />
    </g>
    <g
       id="g9637">
      <path
         d="m 320.76863,153.251 c -0.51124,0 -1.02233,0.1942 -1.41407,0.58594 -0.78347,0.78347 -0.78347,2.04465 0,2.82812 l 6.34838,6.3506 c -0.18998,-0.009 -0.38013,-0.014 -0.57031,-0.0156 h -21.13281 c -1.108,0 -2,0.892 -2,2 0,1.10799 0.892,2 2,2 h 10.97265 c -0.1421,0.13786 -0.28144,0.2785 -0.41797,0.42187 l -0.0273,-0.0273 -13.94059,13.9414 c -0.78348,0.78348 -0.78348,2.04466 0,2.82813 0.78347,0.78347 2.04469,0.78352 2.82812,0 l 6.76091,-6.76172 c -0.0184,0.19892 -0.0326,0.39817 -0.043,0.59766 0,8.28427 6.71573,15 15,15 8.28427,0 15,-6.71573 15,-15 -6e-4,-3.97802 -1.58135,-7.79289 -4.39453,-10.60547 l -13.5554,-13.55765 c -0.39174,-0.39174 -0.90282,-0.58594 -1.41406,-0.58594 z"
         style="opacity:0.2;fill:#000000;fill-opacity:1;stroke-width:2.72728;stroke-linecap:square;stroke-linejoin:round"
         id="path9342"
         sodipodi:nodetypes="sscccsssccccssccscccss" />
      <path
         d="m 320.76863,152.251 c -0.51124,0 -1.02233,0.1942 -1.41407,0.58594 -0.78347,0.78347 -0.78347,2.04465 0,2.82812 l 6.34838,6.3506 c -0.18998,-0.009 -0.38013,-0.014 -0.57031,-0.0156 h -21.13281 c -1.108,0 -2,0.892 -2,2 0,1.10799 0.892,2 2,2 h 10.97265 c -0.1421,0.13786 -0.28144,0.2785 -0.41797,0.42187 l -0.0273,-0.0273 -13.94059,13.9414 c -0.78348,0.78348 -0.78348,2.04466 0,2.82813 0.78347,0.78347 2.04469,0.78352 2.82812,0 l 6.76091,-6.76172 c -0.0184,0.19892 -0.0326,0.39817 -0.043,0.59766 0,8.28427 6.71573,15 15,15 8.28427,0 15,-6.71573 15,-15 -6e-4,-3.97802 -1.58135,-7.79289 -4.39453,-10.60547 l -13.5554,-13.55765 c -0.39174,-0.39174 -0.90282,-0.58594 -1.41406,-0.58594 z"
         style="opacity:1;fill:#ffecb3;fill-opacity:1;stroke-width:2.72728;stroke-linecap:square;stroke-linejoin:round"
         id="path9245"
         sodipodi:nodetypes="sscccsssccccssccscccss" />
      <path
         id="path9370"
         style="opacity:0.2;fill:#ffffff;fill-opacity:1;stroke-width:2.72728;stroke-linecap:square;stroke-linejoin:round"
         d="M 320.76953 152.25195 C 320.25829 152.25195 319.74721 152.44615 319.35547 152.83789 C 318.83472 153.35864 318.66639 154.08772 318.83789 154.75 C 318.92458 154.41653 319.09322 154.10014 319.35547 153.83789 C 319.74721 153.44616 320.25829 153.25195 320.76953 153.25195 C 321.28077 153.25195 321.79185 153.44616 322.18359 153.83789 L 335.73828 167.39453 C 338.43562 170.09129 339.99436 173.7098 340.11914 177.50977 C 340.12482 177.34008 340.13281 177.17107 340.13281 177 C 340.13221 173.02198 338.55146 169.20711 335.73828 166.39453 L 322.18359 152.83789 C 321.79185 152.44615 321.28077 152.25195 320.76953 152.25195 z M 304 162 C 302.892 162 302 162.892 302 164 C 302 164.17383 302.02901 164.33941 302.07031 164.5 C 302.29226 163.63701 303.06584 163 304 163 L 325.13281 163 C 325.32299 163.0016 325.51315 163.00663 325.70312 163.01562 L 324.6875 162 L 304 162 z M 313.92188 167 L 300.58594 180.33594 C 300.06486 180.85701 299.89828 181.58739 300.07031 182.25 C 300.15695 181.91632 300.32353 181.59834 300.58594 181.33594 L 314.52734 167.39453 L 314.55469 167.42188 C 314.69122 167.27851 314.83056 167.13786 314.97266 167 L 313.92188 167 z M 310.17578 177.40234 L 310.14453 177.43359 C 310.14744 177.53579 310.1474 177.63856 310.15234 177.74023 C 310.16013 177.6276 310.16538 177.51478 310.17578 177.40234 z " />
      <circle
         style="opacity:0.2;fill:#000000;fill-opacity:1;stroke-width:2;stroke-linecap:square"
         id="path9418"
         cx="325"
         cy="178"
         r="11" />
      <circle
         style="opacity:1;fill:#ffffff;fill-opacity:1;stroke-width:2;stroke-linecap:square"
         id="path9420"
         cx="325"
         cy="177"
         r="11" />
      <circle
         style="opacity:1;fill:#408ef4;fill-opacity:1;stroke-width:2;stroke-linecap:square"
         id="path9422"
         cx="325"
         cy="177"
         r="5" />
    </g>
    <g
       id="g9898"
       transform="matrix(2,0,0,2,-288,-412)">
      <path
         d="m 311.75776,229.32017 c -0.38342,0 -0.76674,0.1476 -1.06054,0.44141 -0.5876,0.5876 -0.5876,1.53349 0,2.12109 l 4.625,4.625 c -0.10737,-0.004 -0.21481,-0.007 -0.32227,-0.008 h -15.5 c -0.831,0 -1.5,0.669 -1.5,1.5 0,0.831 0.669,1.5 1.5,1.5 h 7.98437 c -0.082,0.0795 -0.16271,0.16021 -0.24218,0.24219 l -0.0195,-0.0195 -9.96094,9.96094 c -0.5876,0.5876 -0.5876,1.53348 0,2.12109 0.58761,0.5876 1.53349,0.5876 2.12109,0 l 4.64063,-4.64063 c -0.01,0.11185 -0.0173,0.22385 -0.0234,0.33594 0,6.07513 4.92487,11 11,11 6.07513,0 11,-4.92487 11,-11 9e-5,-2.91693 -1.15841,-5.71446 -3.2207,-7.77734 l -9.96094,-9.96095 c -0.2938,-0.2938 -0.67712,-0.44141 -1.06055,-0.44141 z"
         style="opacity:0.2;fill:#000000;fill-opacity:1;stroke-width:0.916667;stroke-linecap:square;stroke-linejoin:round"
         id="path9647"
         sodipodi:nodetypes="cssccssscccsssccsccscc" />
      <path
         d="m 311.75783,228.82 c -0.38342,0 -0.76674,0.1476 -1.06054,0.44141 -0.5876,0.5876 -0.5876,1.53349 0,2.12109 l 4.625,4.625 c -0.10737,-0.004 -0.21481,-0.007 -0.32227,-0.008 h -15.5 c -0.831,0 -1.5,0.669 -1.5,1.5 0,0.831 0.669,1.5 1.5,1.5 h 7.98437 c -0.082,0.0795 -0.16271,0.16021 -0.24218,0.24219 l -0.0195,-0.0195 -9.96094,9.96094 c -0.5876,0.5876 -0.5876,1.53348 0,2.12109 0.58761,0.5876 1.53349,0.5876 2.12109,0 l 4.64063,-4.64063 c -0.01,0.11185 -0.0173,0.22385 -0.0234,0.33594 0,6.07513 4.92487,11 11,11 6.07513,0 11,-4.92487 11,-11 9e-5,-2.91693 -1.15841,-5.71446 -3.2207,-7.77734 l -9.96094,-9.96095 c -0.2938,-0.2938 -0.67712,-0.44141 -1.06055,-0.44141 z"
         style="fill:#ffecb3;fill-opacity:1;stroke-width:0.916667;stroke-linecap:square;stroke-linejoin:round"
         id="path9675"
         sodipodi:nodetypes="cssccssscccsssccsccscc" />
      <path
         id="path9717"
         style="opacity:0.2;fill:#ffffff;fill-opacity:1;stroke-width:0.916667;stroke-linecap:square;stroke-linejoin:round"
         d="m 311.75781,228.82031 c -0.38342,0 -0.76674,0.1476 -1.06054,0.44141 -0.35775,0.35775 -0.49584,0.8489 -0.41797,1.31055 0.05,-0.29661 0.18811,-0.5807 0.41797,-0.81055 0.2938,-0.29381 0.67712,-0.44141 1.06054,-0.44141 0.38343,0 0.76675,0.14761 1.06055,0.44141 l 9.96094,9.96094 c 2.00408,2.00465 3.15157,4.70368 3.21484,7.53125 0.002,-0.0846 0.006,-0.16881 0.006,-0.25391 9e-5,-2.91693 -1.15842,-5.71447 -3.2207,-7.77734 l -9.96094,-9.96094 c -0.2938,-0.2938 -0.67712,-0.44141 -1.06055,-0.44141 z M 299.5,236 c -0.831,0 -1.5,0.669 -1.5,1.5 0,0.0858 0.0117,0.16824 0.0254,0.25 0.119,-0.7104 0.72938,-1.25 1.47461,-1.25 H 315 c 0.10746,0.001 0.2149,0.004 0.32227,0.008 L 314.81445,236 Z m 7.44531,3.5 -9.68359,9.68359 c -0.35818,0.35818 -0.49646,0.84841 -0.41797,1.31055 0.05,-0.29661 0.18812,-0.58069 0.41797,-0.81055 l 9.96094,-9.96093 0.0195,0.0195 c 0.0795,-0.082 0.16019,-0.16269 0.24219,-0.24219 z m -2.92187,7.66406 -0.0195,0.0195 c 10e-4,0.0626 0.004,0.12515 0.006,0.1875 0.004,-0.069 0.008,-0.13811 0.0137,-0.20703 z" />
      <circle
         style="opacity:0.2;fill:#000000;fill-opacity:1;stroke-width:2;stroke-linecap:square"
         id="path9817"
         cx="315"
         cy="247.5"
         r="8" />
      <circle
         style="opacity:1;fill:#ffffff;fill-opacity:1;stroke-width:2;stroke-linecap:square"
         id="path9819"
         cx="315"
         cy="247"
         r="8" />
      <circle
         style="opacity:1;fill:#408ef4;fill-opacity:1;stroke-width:2;stroke-linecap:square"
         id="path9821"
         cx="315"
         cy="247"
         r="4" />
    </g>
    <g
       id="g1383"
       transform="matrix(4,0,0,4,-1136,-532)">
      <path
         d="m 320.76963,152.751 c -0.51124,0 -1.02233,0.1942 -1.41407,0.58594 -0.78347,0.78347 -0.78347,2.04465 0,2.82812 l 6.34838,6.3506 c -0.18998,-0.009 -0.38013,-0.014 -0.57031,-0.0156 h -21.13281 c -1.108,0 -2,0.892 -2,2 0,1.10799 0.892,2 2,2 h 10.97265 c -0.1421,0.13786 -0.28144,0.2785 -0.41797,0.42187 l -0.0273,-0.0273 -13.94059,13.9414 c -0.78348,0.78348 -0.78348,2.04466 0,2.82813 0.78347,0.78347 2.04469,0.78352 2.82812,0 l 6.76091,-6.76172 c -0.0184,0.19892 -0.0326,0.39817 -0.043,0.59766 0,8.28427 6.71573,15 15,15 8.28427,0 15,-6.71573 15,-15 -6e-4,-3.97802 -1.58135,-7.79289 -4.39453,-10.60547 l -13.5554,-13.55765 c -0.39174,-0.39174 -0.90282,-0.58594 -1.41406,-0.58594 z"
         style="opacity:0.2;fill:#000000;fill-opacity:1;stroke-width:2.72728;stroke-linecap:square;stroke-linejoin:round"
         id="path449" />
      <path
         d="m 320.76915,152.2514 c -0.51124,0 -1.02233,0.1942 -1.41407,0.58594 -0.78347,0.78347 -0.78347,2.04465 0,2.82812 l 6.34838,6.3506 c -0.18998,-0.009 -0.38013,-0.014 -0.57031,-0.0156 h -21.13281 c -1.108,0 -2,0.892 -2,2 0,1.10799 0.892,2 2,2 h 10.97265 c -0.1421,0.13786 -0.28144,0.2785 -0.41797,0.42187 l -0.0273,-0.0273 -13.94059,13.9414 c -0.78348,0.78348 -0.78348,2.04466 0,2.82813 0.78347,0.78347 2.04469,0.78352 2.82812,0 l 6.76091,-6.76172 c -0.0184,0.19892 -0.0326,0.39817 -0.043,0.59766 0,8.28427 6.71573,15 15,15 8.28427,0 15,-6.71573 15,-15 -6e-4,-3.97802 -1.58135,-7.79289 -4.39453,-10.60547 l -13.5554,-13.55765 c -0.39174,-0.39174 -0.90282,-0.58594 -1.41406,-0.58594 z"
         style="fill:#ffecb3;fill-opacity:1;stroke-width:2.72728;stroke-linecap:square;stroke-linejoin:round"
         id="path421"
         sodipodi:nodetypes="sscccsssccccssccscccss" />
      <path
         id="path477"
         style="opacity:0.2;fill:#ffffff;fill-opacity:1;stroke-width:2.72728;stroke-linecap:square;stroke-linejoin:round"
         d="m 320.76953,152.25195 c -0.51124,0 -1.02232,0.1942 -1.41406,0.58594 -0.456,0.456 -0.63926,1.07279 -0.56445,1.66406 0.0535,-0.42507 0.23665,-0.83626 0.56445,-1.16406 0.39174,-0.39174 0.90282,-0.58594 1.41406,-0.58594 0.51124,0 1.02232,0.1942 1.41406,0.58594 l 13.55469,13.55664 c 2.75226,2.75168 4.3213,6.46308 4.38867,10.34766 10e-4,-0.081 0.006,-0.16092 0.006,-0.24219 -6e-4,-3.97802 -1.58135,-7.79289 -4.39453,-10.60547 l -13.55469,-13.55664 c -0.39174,-0.39174 -0.90282,-0.58594 -1.41406,-0.58594 z M 304,162 c -1.108,0 -2,0.892 -2,2 0,0.0856 0.015,0.16725 0.0254,0.25 0.12351,-0.98782 0.95225,-1.75 1.97461,-1.75 h 21.13281 c 0.19018,0.002 0.38034,0.007 0.57031,0.0156 l -0.51367,-0.51367 c -0.0189,-2.2e-4 -0.0378,-0.002 -0.0566,-0.002 z m 10.42188,4.5 -13.83399,13.83594 c -0.45568,0.45568 -0.63883,1.07317 -0.56445,1.66406 0.0537,-0.42462 0.23697,-0.83659 0.56445,-1.16406 l 13.93945,-13.94141 0.0274,0.0273 c 0.13653,-0.14337 0.27587,-0.28402 0.41797,-0.42188 z m -4.2461,10.40234 -0.0391,0.0391 c -0.001,0.0195 -0.003,0.039 -0.004,0.0586 0,0.12387 0.007,0.24599 0.01,0.36914 0.009,-0.15572 0.0188,-0.31144 0.0332,-0.4668 z" />
      <circle
         style="opacity:0.2;fill:#000000;stroke-width:2;stroke-linecap:square"
         id="path577"
         cx="325"
         cy="177.5"
         r="11" />
      <circle
         style="opacity:1;fill:#ffffff;stroke-width:2;stroke-linecap:square"
         id="path683"
         cx="325"
         cy="177"
         r="11" />
      <circle
         style="opacity:1;fill:#408ef4;fill-opacity:1;stroke-width:2;stroke-linecap:square"
         id="path685"
         cx="325"
         cy="177"
         r="5" />
    </g>
  </g>
  <g
     id="Highlights">
    <path
       id="rect653"
       style="opacity:0.2;fill:#ffffff"
       d="M 80,44 C 53.408027,44 32,65.408027 32,92 v 2 C 32,67.408027 53.408027,46 80,46 h 128 c 26.59197,0 48,21.408027 48,48 V 92 C 256,65.408027 234.59197,44 208,44 Z"
       sodipodi:nodetypes="sscsscsss" />
    <path
       id="rect773"
       style="opacity:0.2;fill:#ffffff"
       d="m 312,34 c -9.97199,0 -18,8.02801 -18,18 v 1 c 0,-9.97199 8.02801,-18 18,-18 h 48 c 9.97199,0 18,8.02801 18,18 v -1 c 0,-9.97199 -8.02801,-18 -18,-18 z" />
    <path
       id="rect1135"
       style="opacity:0.2;fill:#ffffff;fill-opacity:1"
       d="m 304,144 c -6.64799,0 -12,5.35201 -12,12 v 1 c 0,-6.64799 5.35201,-12 12,-12 h 32 c 6.64799,0 12,5.35201 12,12 v -1 c 0,-6.64799 -5.35201,-12 -12,-12 z" />
    <path
       id="rect1265"
       style="opacity:0.2;fill:#ffffff;fill-opacity:1"
       d="m 300,223 c -4.986,0 -9,4.014 -9,9 v 1 c 0,-4.986 4.014,-9 9,-9 h 24 c 4.986,0 9,4.014 9,9 v -1 c 0,-4.986 -4.014,-9 -9,-9 z" />
    <path
       id="rect1368"
       style="opacity:0.2;fill:#ffffff;fill-opacity:1"
       d="m 424,54 c -3.324,0 -6,2.676003 -6,6 v 1 c 0,-3.323997 2.676,-6 6,-6 h 16 c 3.324,0 6,2.676003 6,6 v -1 c 0,-3.323997 -2.676,-6 -6,-6 z" />
    <path
       id="rect1402"
       style="opacity:0.2;fill:#ffffff;fill-opacity:1"
       d="m 420,140 c -2.216,0 -4,1.784 -4,4 v 1 c 0,-2.216 1.784,-4 4,-4 h 8 c 2.216,0 4,1.784 4,4 v -1 c 0,-2.216 -1.784,-4 -4,-4 z" />
    <path
       id="rect1436"
       style="opacity:0.2;fill:#ffffff;fill-opacity:1"
       d="m 422,102 c -2.216,0 -4,1.784 -4,4 v 1 c 0,-2.216 1.784,-4 4,-4 h 12 c 2.216,0 4,1.784 4,4 v -1 c 0,-2.216 -1.784,-4 -4,-4 z" />
  </g>
</svg>
