<?xml version="1.0" encoding="UTF-8" standalone="no"?>
<!-- Created with Inkscape (http://www.inkscape.org/) -->

<svg
   width="480"
   height="300"
   viewBox="0 0 480 300"
   version="1.1"
   id="svg5"
   inkscape:version="1.2.2 (1:1.2.2+202305151914+b0a8486541)"
   sodipodi:docname="brave-browser-nightly.svg"
   xmlns:inkscape="http://www.inkscape.org/namespaces/inkscape"
   xmlns:sodipodi="http://sodipodi.sourceforge.net/DTD/sodipodi-0.dtd"
   xmlns="http://www.w3.org/2000/svg"
   xmlns:svg="http://www.w3.org/2000/svg">
  <sodipodi:namedview
     id="namedview7"
     pagecolor="#888888"
     bordercolor="#000000"
     borderopacity="0.25"
     inkscape:showpageshadow="true"
     inkscape:pageopacity="0"
     inkscape:pagecheckerboard="0"
     inkscape:deskcolor="#888888"
     inkscape:document-units="px"
     showgrid="false"
     showborder="false"
     inkscape:zoom="2.6866667"
     inkscape:cx="240.07444"
     inkscape:cy="150"
     inkscape:window-width="1920"
     inkscape:window-height="1008"
     inkscape:window-x="0"
     inkscape:window-y="0"
     inkscape:window-maximized="1"
     inkscape:current-layer="svg5" />
  <defs
     id="defs2" />
  <g
     id="Baseplate"
     style="display:none">
    <text
       y="19.774782"
       xml:space="preserve"
       x="15.006946"
       style="font-style:normal;font-variant:normal;font-weight:normal;font-stretch:normal;line-height:0%;font-family:'DejaVu Sans';-inkscape-font-specification:'DejaVu Sans';display:inline;fill:#000000;fill-opacity:1;stroke:none;enable-background:new"
       inkscape:label="context"
       id="context"><tspan
         style="font-style:normal;font-variant:normal;font-weight:normal;font-stretch:normal;font-size:18px;line-height:1.25;font-family:'DejaVu Sans';-inkscape-font-specification:'DejaVu Sans'"
         y="19.774782"
         x="15.006946"
         sodipodi:role="line"
         id="tspan3933">apps</tspan></text>
    <text
       y="19.774782"
       xml:space="preserve"
       x="122.48839"
       style="font-style:normal;font-variant:normal;font-weight:bold;font-stretch:normal;line-height:0%;font-family:'DejaVu Sans';-inkscape-font-specification:'DejaVu Sans Bold';text-align:start;writing-mode:lr-tb;text-anchor:start;display:inline;fill:#000000;fill-opacity:1;stroke:none;enable-background:new"
       inkscape:label="icon-name"
       id="icon-name"><tspan
         style="font-style:normal;font-variant:normal;font-weight:bold;font-stretch:normal;font-size:18px;line-height:1.25;font-family:'DejaVu Sans';-inkscape-font-specification:'DejaVu Sans Bold'"
         y="19.774782"
         x="122.48839"
         sodipodi:role="line"
         id="tspan3937">brave-browser-nightly</tspan></text>
    <rect
       style="fill:#ffffff"
       id="256x256"
       width="256"
       height="256"
       x="16"
       y="28" />
    <rect
       style="fill:#ffffff"
       id="96x96"
       width="96"
       height="96"
       x="288"
       y="28" />
    <rect
       style="fill:#ffffff"
       id="64x64"
       width="64"
       height="64"
       x="288"
       y="140" />
    <rect
       style="fill:#ffffff"
       id="48x48"
       width="48"
       height="48"
       x="288"
       y="220" />
    <rect
       style="fill:#ffffff"
       id="32x32"
       width="32"
       height="32"
       x="416"
       y="52" />
    <rect
       style="fill:#ffffff"
       id="24x24"
       width="24"
       height="24"
       x="416"
       y="100" />
    <rect
       style="fill:#ffffff"
       id="22x22"
       width="22"
       height="22"
       x="417"
       y="101" />
    <rect
       style="fill:#ffffff"
       id="16x16"
       width="16"
       height="16"
       x="416"
       y="140" />
  </g>
  <g
     id="Shadow">
    <rect
       style="opacity:0.2;fill:#000000"
       id="rect651"
       width="224"
       height="224"
       x="32"
       y="46"
       ry="48" />
    <rect
       style="opacity:0.2;fill:#000000"
       id="rect769"
       width="84"
       height="85"
       x="294"
       y="34"
       ry="18" />
    <rect
       style="opacity:0.2;fill:#000000;fill-opacity:1"
       id="rect1131"
       width="56"
       height="56"
       x="292"
       y="145"
       ry="12" />
    <rect
       style="opacity:0.2;fill:#000000;fill-opacity:1"
       id="rect1261"
       width="42"
       height="42"
       x="291"
       y="224"
       ry="9" />
    <rect
       style="opacity:0.2;fill:#000000;fill-opacity:1"
       id="rect1364"
       width="28"
       height="29"
       x="418"
       y="54"
       ry="6" />
    <rect
       style="opacity:0.2;fill:#000000;fill-opacity:1"
       id="rect1398"
       width="16"
       height="16"
       x="416"
       y="141"
       ry="4" />
    <rect
       style="opacity:0.2;fill:#000000;fill-opacity:1"
       id="rect1432"
       width="20"
       height="20"
       x="418"
       y="103"
       ry="4" />
  </g>
  <g
     id="Background">
    <rect
       style="fill:#efefef;fill-opacity:1"
       id="rect597"
       width="224"
       height="224"
       x="32"
       y="44"
       ry="48" />
    <rect
       style="opacity:1;fill:#efefef;fill-opacity:1"
       id="rect771"
       width="84"
       height="84"
       x="294"
       y="34"
       ry="18" />
    <rect
       style="opacity:1;fill:#efefef;fill-opacity:1"
       id="rect1133"
       width="56"
       height="56"
       x="292"
       y="144"
       ry="12" />
    <rect
       style="opacity:1;fill:#efefef;fill-opacity:1"
       id="rect1263"
       width="42"
       height="42"
       x="291"
       y="223"
       ry="9" />
    <rect
       style="opacity:1;fill:#efefef;fill-opacity:1"
       id="rect1366"
       width="28"
       height="28"
       x="418"
       y="54"
       ry="6" />
    <rect
       style="opacity:1;fill:#efefef;fill-opacity:1"
       id="rect1400"
       width="16"
       height="16"
       x="416"
       y="140"
       ry="4" />
    <rect
       style="opacity:1;fill:#efefef;fill-opacity:1"
       id="rect1434"
       width="20"
       height="20"
       x="418"
       y="102"
       ry="4" />
  </g>
  <g
     id="g2753">
    <g
       id="g3635">
      <path
         d="m 422.15538,143.5 -0.98199,1.18983 c -0.0131,0.004 -0.10911,-0.0714 -0.21376,-0.10026 -0.28044,-0.0777 -0.63593,-0.0637 -0.87782,0.0399 -0.15822,0.0678 -0.21942,0.11485 -0.5957,0.46346 C 419.0805,145.4686 419,145.51547 419,145.59525 c 0,0.0207 0.14701,0.26561 0.21918,0.42355 l 0.13021,0.28747 -0.16819,0.4348 c -0.0924,0.23922 -0.17228,0.44904 -0.17794,0.46549 -0.0143,0.0419 1.29857,4.56078 1.36718,4.71425 0.12456,0.27868 0.32034,0.52975 0.574,0.73457 0.22906,0.1849 2.55429,1.67982 2.78429,1.79034 0.0683,0.033 0.17738,0.0522 0.27127,0.0543 0.0939,-0.002 0.20293,-0.0213 0.27127,-0.0543 0.23,-0.11052 2.55431,-1.60544 2.7832,-1.79034 0.25389,-0.20482 0.44955,-0.45589 0.574,-0.73457 0.0689,-0.15347 1.38272,-4.67229 1.36827,-4.71425 -0.006,-0.0165 -0.0851,-0.22627 -0.17795,-0.46549 l -0.16818,-0.4348 0.1302,-0.28747 c 0.0722,-0.15794 0.21919,-0.40286 0.21919,-0.42355 0,-0.0797 -0.0794,-0.12665 -0.48502,-0.50232 -0.37668,-0.34861 -0.43847,-0.39568 -0.5968,-0.46346 -0.24167,-0.10361 -0.59726,-0.11757 -0.87781,-0.0399 -0.10445,0.029 -0.20099,0.10434 -0.21377,0.10026 L 425.84462,143.5 Z"
         style="fill:#000000;stroke-width:0.539453;opacity:0.2"
         id="path3498" />
      <path
         d="m 422.15538,143 -0.98199,1.18983 c -0.0131,0.004 -0.10911,-0.0714 -0.21376,-0.10026 -0.28044,-0.0777 -0.63593,-0.0637 -0.87782,0.0399 -0.15822,0.0678 -0.21942,0.11485 -0.5957,0.46346 C 419.0805,144.9686 419,145.01547 419,145.09525 c 0,0.0207 0.14701,0.26561 0.21918,0.42355 l 0.13021,0.28747 -0.16819,0.4348 c -0.0924,0.23922 -0.17228,0.44904 -0.17794,0.46549 -0.0143,0.0419 1.29857,4.56078 1.36718,4.71425 0.12456,0.27868 0.32034,0.52975 0.574,0.73457 0.22906,0.1849 2.55429,1.67982 2.78429,1.79034 0.0683,0.033 0.17738,0.0522 0.27127,0.0543 0.0939,-0.002 0.20293,-0.0213 0.27127,-0.0543 0.23,-0.11052 2.55431,-1.60544 2.7832,-1.79034 0.25389,-0.20482 0.44955,-0.45589 0.574,-0.73457 0.0689,-0.15347 1.38272,-4.67229 1.36827,-4.71425 -0.006,-0.0165 -0.0851,-0.22627 -0.17795,-0.46549 l -0.16818,-0.4348 0.1302,-0.28747 c 0.0722,-0.15794 0.21919,-0.40286 0.21919,-0.42355 0,-0.0797 -0.0794,-0.12665 -0.48502,-0.50232 -0.37668,-0.34861 -0.43847,-0.39568 -0.5968,-0.46346 -0.24167,-0.10361 -0.59726,-0.11757 -0.87781,-0.0399 -0.10445,0.029 -0.20099,0.10434 -0.21377,0.10026 L 425.84462,143 Z"
         style="fill:#ab47bc;stroke-width:0.539453;fill-opacity:1"
         id="path3470"
         sodipodi:nodetypes="cccsssccccsscccccccccsccsccc" />
      <path
         d="m 425.37904,151.81461 c 0.24628,-0.18317 0.28514,-0.22983 0.24457,-0.29458 -0.032,-0.0519 -0.82516,-0.4579 -1.2046,-0.61655 -0.39829,-0.16741 -0.44058,-0.16741 -0.82745,-0.002 -0.34687,0.14641 -1.12734,0.54831 -1.19282,0.61422 -0.0677,0.0677 -0.0336,0.13008 0.13686,0.25025 0.49309,0.2339 0.89311,0.73438 1.46397,0.73438 0.57202,0 0.90746,-0.43457 1.37947,-0.68538 z m -2.76744,-0.79039 c 0.47595,-0.23274 0.54738,-0.28115 0.91082,-0.61656 0.3063,-0.28174 0.36287,-0.36574 0.31944,-0.47248 -0.0149,-0.0362 -0.24458,-0.25724 -0.51087,-0.49056 -0.62939,-0.55239 -0.60305,-0.47482 -0.36344,-1.07387 0.14229,-0.35594 0.17886,-0.47505 0.17886,-0.57368 -10e-4,-0.14905 -0.0543,-0.26098 -0.16114,-0.33827 -0.0429,-0.0316 -0.42327,-0.19091 -0.84466,-0.35471 -0.42138,-0.16379 -0.76372,-0.30851 -0.76075,-0.32181 0.007,-0.0303 0.47144,-0.0829 0.80875,-0.0917 l 0.25516,-0.007 0.46892,0.17063 c 0.40973,0.14874 0.47373,0.17918 0.50459,0.23967 0.0194,0.0382 0.0348,0.0894 0.0343,0.11374 0,0.0245 -0.076,0.37811 -0.16857,0.78584 -0.16172,0.71404 -0.1663,0.7432 -0.12401,0.78695 0.0669,0.0688 0.72117,0.22982 0.92517,0.21349 0.23315,-0.0181 0.70973,-0.16683 0.7583,-0.21641 0.0389,-0.0402 0.0314,-0.0857 -0.12685,-0.7842 -0.0926,-0.40774 -0.16859,-0.76139 -0.16916,-0.78584 0,-0.0245 0.0154,-0.0758 0.0349,-0.11421 0.0309,-0.0603 0.0914,-0.0902 0.45601,-0.2227 0.58744,-0.21403 0.57544,-0.21228 1.10917,-0.16293 0.24915,0.0232 0.46287,0.0517 0.47544,0.0636 0.0126,0.0132 -0.002,0.031 -0.0366,0.0448 -0.0326,0.0132 -0.376,0.14699 -0.76344,0.2983 -0.38801,0.15143 -0.74574,0.30256 -0.79545,0.33604 -0.11658,0.0788 -0.17372,0.19109 -0.17429,0.34538 -5.7e-4,0.0976 0.036,0.21582 0.17486,0.56039 0.096,0.24008 0.17487,0.45941 0.17487,0.48683 0,0.11141 -0.0794,0.20123 -0.52174,0.58855 -0.25429,0.22282 -0.48001,0.43749 -0.50173,0.47774 -0.0211,0.0397 -0.0337,0.10091 -0.0274,0.13532 0.0114,0.0595 0.31601,0.36574 0.62574,0.62998 0.13029,0.11083 0.91888,0.62472 1.04517,0.64514 0.10571,0.0175 0.21885,-0.14641 0.40401,-0.30624 0.18171,-0.15691 0.28971,-0.31323 0.36286,-0.52615 0.0691,-0.19948 0.052,-0.33424 -0.0846,-0.65738 -0.104,-0.24675 -0.13142,-0.38266 -0.0966,-0.47482 0.008,-0.0222 0.28973,-0.29866 0.62573,-0.61655 0.73202,-0.69251 0.90688,-0.81652 0.94688,-0.94024 0.0446,-0.13738 0.0131,-0.31826 -0.0869,-0.50025 -0.23943,-0.4352 -1.23316,-1.79793 -1.31775,-1.79793 -0.43487,0.0722 -0.79829,0.2325 -1.25659,0.30612 -0.036,6e-5 -0.18916,-0.039 -0.34059,-0.0869 -0.64515,-0.20392 -0.8543,-0.21932 -0.97945,-0.21932 -0.12457,0 -0.33429,0.0154 -0.97945,0.21932 -0.15086,0.0478 -0.3059,0.0869 -0.3439,0.0869 -0.45138,-0.0679 -0.78601,-0.25083 -1.25328,-0.30624 -0.0729,0.0503 -0.71922,0.97337 -0.98682,1.37667 -0.3147,0.47429 -0.40367,0.5353 -0.42927,0.71583 -0.0358,0.25276 0.0552,0.29528 0.99545,1.18279 0.31623,0.29806 0.58144,0.55939 0.58933,0.58039 0.0352,0.0933 0.007,0.23448 -0.0952,0.48181 -0.14086,0.33889 -0.15349,0.4334 -0.0855,0.63814 0.0738,0.22283 0.1992,0.40248 0.38846,0.55822 0.17601,0.14467 0.24413,0.28933 0.34795,0.29166 0.0371,0.001 0.2463,-0.19483 0.46476,-0.30157 z"
         style="fill:#000000;stroke-width:0.577345;opacity:0.2"
         id="path3582"
         sodipodi:nodetypes="ccccccsccccccsccsccccsccccccccccccccccscccccscccscccccscccsscccccccc" />
      <path
         id="path3526"
         style="fill:#ffffff;stroke-width:0.539453;opacity:0.1"
         d="M 422.15625 143 L 421.17383 144.18945 C 421.16073 144.19345 421.06363 144.1187 420.95898 144.08984 C 420.67854 144.01214 420.32392 144.02531 420.08203 144.12891 C 419.92381 144.19671 419.86261 144.24514 419.48633 144.59375 C 419.08072 144.96942 419 145.01592 419 145.0957 C 419 145.11156 419.08148 145.25735 419.1543 145.39648 C 419.22808 145.32791 419.316 145.25151 419.48633 145.09375 C 419.86261 144.74514 419.92381 144.69671 420.08203 144.62891 C 420.32392 144.52531 420.67854 144.51214 420.95898 144.58984 C 421.06363 144.6187 421.16073 144.69345 421.17383 144.68945 L 422.15625 143.5 L 425.84375 143.5 L 426.82617 144.68945 C 426.83895 144.69353 426.93657 144.61884 427.04102 144.58984 C 427.32157 144.51217 427.6763 144.5253 427.91797 144.62891 C 428.0763 144.69669 428.13895 144.74514 428.51562 145.09375 C 428.68541 145.251 428.77213 145.32792 428.8457 145.39648 C 428.91853 145.25735 429 145.11156 429 145.0957 C 429 145.016 428.92124 144.96942 428.51562 144.59375 C 428.13895 144.24514 428.0763 144.19669 427.91797 144.12891 C 427.6763 144.0253 427.32157 144.01217 427.04102 144.08984 C 426.93657 144.11884 426.83895 144.19353 426.82617 144.18945 L 425.84375 143 L 422.15625 143 z M 419.24414 146.07617 L 419.18164 146.24023 C 419.08924 146.47945 419.00957 146.69058 419.00391 146.70703 C 419.00181 146.71318 419.03309 146.83466 419.08008 147.00586 C 419.11318 146.91898 419.12903 146.87643 419.18164 146.74023 L 419.34961 146.30664 L 419.24414 146.07617 z M 428.75586 146.07617 L 428.65039 146.30664 L 428.81836 146.74023 C 428.87122 146.87643 428.88693 146.91899 428.91992 147.00586 C 428.96693 146.83466 428.99822 146.71319 428.99609 146.70703 C 428.99009 146.69053 428.91121 146.47945 428.81836 146.24023 L 428.75586 146.07617 z " />
      <path
         d="m 425.37904,151.31461 c 0.24628,-0.18317 0.28514,-0.22983 0.24457,-0.29458 -0.032,-0.0519 -0.82516,-0.4579 -1.2046,-0.61655 -0.39829,-0.16741 -0.44058,-0.16741 -0.82745,-0.002 -0.34687,0.14641 -1.12734,0.54831 -1.19282,0.61422 -0.0677,0.0677 -0.0336,0.13008 0.13686,0.25025 0.49309,0.2339 0.89311,0.73438 1.46397,0.73438 0.57202,0 0.90746,-0.43457 1.37947,-0.68538 z m -2.76744,-0.79039 c 0.47595,-0.23274 0.54738,-0.28115 0.91082,-0.61656 0.3063,-0.28174 0.36287,-0.36574 0.31944,-0.47248 -0.0149,-0.0362 -0.24458,-0.25724 -0.51087,-0.49056 -0.62939,-0.55239 -0.60305,-0.47482 -0.36344,-1.07387 0.14229,-0.35594 0.17886,-0.47505 0.17886,-0.57368 -10e-4,-0.14905 -0.0543,-0.26098 -0.16114,-0.33827 -0.0429,-0.0316 -0.42327,-0.19091 -0.84466,-0.35471 -0.42138,-0.16379 -0.76372,-0.30851 -0.76075,-0.32181 0.007,-0.0303 0.47144,-0.0829 0.80875,-0.0917 l 0.25516,-0.007 0.46892,0.17063 c 0.40973,0.14874 0.47373,0.17918 0.50459,0.23967 0.0194,0.0382 0.0348,0.0894 0.0343,0.11374 0,0.0245 -0.076,0.37811 -0.16857,0.78584 -0.16172,0.71404 -0.1663,0.7432 -0.12401,0.78695 0.0669,0.0688 0.72117,0.22982 0.92517,0.21349 0.23315,-0.0181 0.70973,-0.16683 0.7583,-0.21641 0.0389,-0.0402 0.0314,-0.0857 -0.12685,-0.7842 -0.0926,-0.40774 -0.16859,-0.76139 -0.16916,-0.78584 0,-0.0245 0.0154,-0.0758 0.0349,-0.11421 0.0309,-0.0603 0.0914,-0.0902 0.45601,-0.2227 0.58744,-0.21403 0.57544,-0.21228 1.10917,-0.16293 0.24915,0.0232 0.46287,0.0517 0.47544,0.0636 0.0126,0.0132 -0.002,0.031 -0.0366,0.0448 -0.0326,0.0132 -0.376,0.14699 -0.76344,0.2983 -0.38801,0.15143 -0.74574,0.30256 -0.79545,0.33604 -0.11658,0.0788 -0.17372,0.19109 -0.17429,0.34538 -5.7e-4,0.0976 0.036,0.21582 0.17486,0.56039 0.096,0.24008 0.17487,0.45941 0.17487,0.48683 0,0.11141 -0.0794,0.20123 -0.52174,0.58855 -0.25429,0.22282 -0.48001,0.43749 -0.50173,0.47774 -0.0211,0.0397 -0.0337,0.10091 -0.0274,0.13532 0.0114,0.0595 0.31601,0.36574 0.62574,0.62998 0.13029,0.11083 0.91888,0.62472 1.04517,0.64514 0.10571,0.0175 0.21885,-0.14641 0.40401,-0.30624 0.18171,-0.15691 0.28971,-0.31323 0.36286,-0.52615 0.0691,-0.19948 0.052,-0.33424 -0.0846,-0.65738 -0.104,-0.24675 -0.13142,-0.38266 -0.0966,-0.47482 0.008,-0.0222 0.28973,-0.29866 0.62573,-0.61655 0.73202,-0.69251 0.90688,-0.81652 0.94688,-0.94024 0.0446,-0.13738 0.0131,-0.31826 -0.0869,-0.50025 -0.23943,-0.4352 -1.23316,-1.79793 -1.31775,-1.79793 -0.43487,0.0722 -0.79829,0.2325 -1.25659,0.30612 -0.036,6e-5 -0.18916,-0.039 -0.34059,-0.0869 -0.64515,-0.20392 -0.8543,-0.21932 -0.97945,-0.21932 -0.12457,0 -0.33429,0.0154 -0.97945,0.21932 -0.15086,0.0478 -0.3059,0.0869 -0.3439,0.0869 -0.45138,-0.0679 -0.78601,-0.25083 -1.25328,-0.30624 -0.0729,0.0503 -0.71922,0.97337 -0.98682,1.37667 -0.3147,0.47429 -0.40367,0.5353 -0.42927,0.71583 -0.0358,0.25276 0.0552,0.29528 0.99545,1.18279 0.31623,0.29806 0.58144,0.55939 0.58933,0.58039 0.0352,0.0933 0.007,0.23448 -0.0952,0.48181 -0.14086,0.33889 -0.15349,0.4334 -0.0855,0.63814 0.0738,0.22283 0.1992,0.40248 0.38846,0.55822 0.17601,0.14467 0.24413,0.28933 0.34795,0.29166 0.0371,0.001 0.2463,-0.19483 0.46476,-0.30157 z"
         style="fill:#ffffff;stroke-width:0.577345"
         id="path3610" />
    </g>
    <g
       id="g3460"
       transform="matrix(0.49999981,0,0,0.49999981,272.00006,-9.4999565)">
      <path
         d="m 307.20299,230 -2.55223,2.56811 c -0.0339,0.011 -0.2833,-0.1949 -0.55521,-0.27397 -0.72908,-0.21182 -1.65479,-0.1756 -2.28366,0.10693 -0.41134,0.18482 -0.57081,0.31489 -1.54917,1.26568 -1.05462,1.02461 -1.26273,1.2705 -1.26273,1.48821 0,0.0565 0.38112,0.60643 0.56864,1.03715 l 0.34029,0.78364 -0.43724,1.18661 c -0.2405,0.65228 -0.44795,1.22228 -0.46269,1.26728 -0.0374,0.11465 3.37675,13.11857 3.55518,13.5375 0.32391,0.76072 0.83308,1.44215 1.49251,2.00143 0.5955,0.50357 6.63898,4.58357 7.23698,4.88464 0.17767,0.09 0.46259,0.14143 0.70633,0.14679 0.24375,-0.005 0.52867,-0.0568 0.70633,-0.14679 0.598,-0.30107 6.64192,-4.38107 7.23667,-4.88464 0.65974,-0.55928 1.16892,-1.24071 1.49283,-2.00143 0.17875,-0.41893 3.59234,-13.42285 3.5555,-13.5375 -0.0152,-0.045 -0.22208,-0.615 -0.46258,-1.26728 l -0.43767,-1.18661 0.34017,-0.78364 c 0.18741,-0.43072 0.56875,-0.98068 0.56875,-1.03715 0,-0.21771 -0.208,-0.4636 -1.26317,-1.48821 -0.97825,-0.95079 -1.1375,-1.08086 -1.54915,-1.26568 -0.62834,-0.28253 -1.5546,-0.31875 -2.28367,-0.10693 -0.27192,0.0791 -0.52108,0.285 -0.55467,0.27397 L 316.79701,230 Z"
         style="opacity:0.2;fill:#000000;stroke-width:1.07736"
         id="path3379" />
      <path
         d="m 307.203,229 -2.55223,2.56811 c -0.0339,0.011 -0.28329,-0.1949 -0.5552,-0.27397 -0.72909,-0.21182 -1.65479,-0.1756 -2.28367,0.10693 -0.41134,0.18482 -0.57081,0.31489 -1.54917,1.26568 -1.05462,1.02461 -1.26273,1.2705 -1.26273,1.48821 0,0.0565 0.38112,0.60643 0.56864,1.03715 l 0.34028,0.78364 -0.43724,1.18661 c -0.2405,0.65228 -0.44795,1.22228 -0.46269,1.26728 -0.0374,0.11465 3.37675,13.11857 3.55518,13.5375 0.32391,0.76072 0.83308,1.44215 1.49251,2.00143 0.5955,0.50357 6.63899,4.58357 7.23699,4.88464 0.17766,0.09 0.46258,0.14143 0.70633,0.14679 0.24375,-0.005 0.52867,-0.0568 0.70633,-0.14679 0.598,-0.30107 6.64192,-4.38107 7.23667,-4.88464 0.65975,-0.55928 1.16892,-1.24071 1.49283,-2.00143 0.17875,-0.41893 3.59234,-13.42285 3.5555,-13.5375 -0.0152,-0.045 -0.22208,-0.615 -0.46258,-1.26728 l -0.43767,-1.18661 0.34017,-0.78364 C 324.61867,234.76139 325,234.21143 325,234.15496 c 0,-0.21771 -0.208,-0.4636 -1.26317,-1.48821 -0.97825,-0.95079 -1.1375,-1.08086 -1.54916,-1.26568 -0.62834,-0.28253 -1.55459,-0.31875 -2.28367,-0.10693 -0.27192,0.0791 -0.52108,0.285 -0.55467,0.27397 L 316.797,229 Z"
         style="fill:#ab47bc;stroke-width:1.07736;fill-opacity:1"
         id="path3323" />
      <path
         d="m 313.12795,252.247 c 0,0 1.227,-0.809 2.32,-1.59 0.614,-0.44 0.711,-0.552 0.611,-0.707 -0.081,-0.125 -2.063,-1.1 -3.011,-1.481 -0.997,-0.401 -1.102,-0.401 -2.069,-0.008 -0.867,0.352 -2.819,1.317 -2.982,1.474 -0.17,0.163 -0.084,0.313 0.342,0.601 0.877,0.594 2.56,1.736 2.56,1.736 1.145,0.974 1.056,0.975 2.229,-0.024 z m -4.599,-3.487 c 1.19,-0.559 1.368,-0.675 2.277,-1.48 0.765,-0.677 0.907,-0.879 0.798,-1.135 -0.037,-0.087 -0.612,-0.617 -1.277,-1.178 -1.573,-1.325 -1.507,-1.138 -0.909,-2.577 0.356,-0.854 0.448,-1.14 0.447,-1.377 -0.002,-0.358 -0.135,-0.627 -0.402,-0.812 -0.108,-0.076 -1.058,-0.459 -2.112,-0.852 -1.053,-0.3927 -1.909,-0.7403 -1.9016,-0.7721 0.0168,-0.0728 1.1786,-0.1992 2.0216,-0.2201 l 0.638,-0.0159 1.173,0.4093 c 1.023,0.3568 1.184,0.4308 1.261,0.5758 0.048,0.091 0.087,0.214 0.086,0.273 -10e-4,0.058 -0.19,0.907 -0.421,1.886 -0.405,1.714 -0.416,1.783 -0.311,1.888 0.167,0.166 1.802,0.552 2.313,0.513 0.583,-0.044 1.775,-0.4 1.895,-0.519 0.098,-0.097 0.079,-0.206 -0.317,-1.882 -0.231,-0.979 -0.421,-1.828 -0.422,-1.886 -10e-4,-0.059 0.038,-0.183 0.087,-0.275 0.077,-0.145 0.228,-0.216 1.139,-0.5342 1.469,-0.5137 1.439,-0.5095 2.774,-0.391 0.623,0.0553 1.157,0.1238 1.188,0.1524 0.032,0.0307 -0.005,0.0749 -0.092,0.1074 -0.08,0.0305 -0.939,0.3524 -1.908,0.7164 -0.969,0.363 -1.864,0.726 -1.988,0.806 -0.292,0.189 -0.434,0.459 -0.436,0.829 -0.002,0.235 0.091,0.519 0.436,1.346 0.242,0.576 0.439,1.102 0.439,1.168 0,0.268 -0.2,0.484 -1.306,1.413 -0.635,0.534 -1.199,1.05 -1.253,1.146 -0.054,0.096 -0.085,0.243 -0.068,0.326 0.028,0.142 0.788,0.878 1.564,1.511 0.325,0.266 2.297,1.5 2.612,1.55 0.265,0.042 0.548,-0.353 1.01,-0.736 0.454,-0.376 0.724,-0.752 0.908,-1.263 0.172,-0.479 0.129,-0.802 -0.212,-1.578 -0.26,-0.592 -0.329,-0.918 -0.242,-1.14 0.02,-0.051 0.724,-0.717 1.565,-1.48 1.83,-1.662 2.267,-1.96 2.368,-2.257 0.111,-0.329 0.032,-1.263 -0.218,-1.7 -0.598,-1.0448 -3.083,-4.3159 -3.294,-4.3159 -1.087,0.1738 -1.997,0.5582 -3.142,0.7348 -0.09,1e-4 -0.473,-0.0934 -0.851,-0.2082 -1.613,-0.4892 -2.136,-0.5267 -2.449,-0.5267 -0.312,0 -0.835,0.0373 -2.448,0.5267 -0.378,0.1145 -0.765,0.2084 -0.86,0.2084 -1.129,-0.1632 -1.965,-0.6019 -3.1333,-0.735 -0.1821,0.1206 -1.798,2.3365 -2.467,3.3047 -0.7867,1.1382 -1.0091,1.7842 -1.0731,2.2182 -0.0895,0.606 0.1381,0.708 2.4885,2.838 0.7906,0.717 1.4536,1.344 1.4733,1.394 0.0886,0.225 0.0185,0.563 -0.2379,1.156 -0.3521,0.814 -0.3836,1.041 -0.2137,1.532 0.1848,0.535 0.4982,0.967 0.9712,1.341 0.44,0.347 0.61,0.694 0.87,0.7 0.093,0.002 0.616,-0.468 1.162,-0.724 z"
         style="opacity:0.2;fill:#000000"
         id="path3407"
         sodipodi:nodetypes="ccccccccccccsccccscccccscccccsccsccccccscsccscccsccccccsccccccsccccc" />
      <path
         d="m 307.20312,229 -2.55273,2.56836 c -0.0339,0.011 -0.28278,-0.19437 -0.55469,-0.27344 -0.72909,-0.21182 -1.65432,-0.17706 -2.2832,0.10547 -0.41134,0.18482 -0.57047,0.31484 -1.54883,1.26563 -1.05462,1.0246 -1.26367,1.27057 -1.26367,1.48828 0,0.0337 0.13771,0.24876 0.28711,0.5039 0.18831,-0.21527 0.48415,-0.51379 0.97656,-0.99218 0.97836,-0.9508 1.13749,-1.08081 1.54883,-1.26563 0.62888,-0.28254 1.55411,-0.31728 2.2832,-0.10547 0.27191,0.0791 0.52079,0.28444 0.55469,0.27344 L 307.20312,230 h 9.59376 l 2.55273,2.56836 c 0.0336,0.011 0.28277,-0.19434 0.55469,-0.27344 0.72908,-0.21182 1.65486,-0.17706 2.2832,0.10547 0.41166,0.18482 0.57058,0.31484 1.54883,1.26563 0.49267,0.47839 0.78821,0.77692 0.97656,0.99218 0.14944,-0.25514 0.28711,-0.47019 0.28711,-0.5039 0,-0.21771 -0.2085,-0.46368 -1.26367,-1.48828 -0.97825,-0.95079 -1.13717,-1.08081 -1.54883,-1.26563 -0.62834,-0.28253 -1.55412,-0.31729 -2.2832,-0.10547 -0.27192,0.0791 -0.5211,0.28447 -0.55469,0.27344 L 316.79688,229 Z m 17.0879,7.51562 -0.19922,0.46094 0.4375,1.18555 c 0.16781,0.45514 0.24089,0.66015 0.32226,0.88477 0.0924,-0.3762 0.14529,-0.60267 0.14063,-0.61719 -0.0152,-0.045 -0.22239,-0.6153 -0.46289,-1.26758 z m -24.58204,0.002 -0.23632,0.64453 c -0.2405,0.65228 -0.44815,1.22258 -0.46289,1.26758 -0.005,0.0145 0.0482,0.24099 0.14062,0.61719 0.0814,-0.22462 0.15445,-0.42963 0.32227,-0.88477 l 0.43554,-1.18555 z"
         style="opacity:0.1;fill:#ffffff;stroke-width:1.07736"
         id="path3351" />
      <path
         d="m 313.12795,251.247 c 0,0 1.227,-0.809 2.32,-1.59 0.614,-0.44 0.711,-0.552 0.611,-0.707 -0.081,-0.125 -2.063,-1.1 -3.011,-1.481 -0.997,-0.401 -1.102,-0.401 -2.069,-0.008 -0.867,0.352 -2.819,1.317 -2.982,1.474 -0.17,0.163 -0.084,0.313 0.342,0.601 0.877,0.594 2.56,1.736 2.56,1.736 1.145,0.974 1.056,0.975 2.229,-0.024 z m -4.599,-3.487 c 1.19,-0.559 1.368,-0.675 2.277,-1.48 0.765,-0.677 0.907,-0.879 0.798,-1.135 -0.037,-0.087 -0.612,-0.617 -1.277,-1.178 -1.573,-1.325 -1.507,-1.138 -0.909,-2.577 0.356,-0.854 0.448,-1.14 0.447,-1.377 -0.002,-0.358 -0.135,-0.627 -0.402,-0.812 -0.108,-0.076 -1.058,-0.459 -2.112,-0.852 -1.053,-0.3927 -1.909,-0.7403 -1.9016,-0.7721 0.0168,-0.0728 1.1786,-0.1992 2.0216,-0.2201 l 0.638,-0.0159 1.173,0.4093 c 1.023,0.3568 1.184,0.4308 1.261,0.5758 0.048,0.091 0.087,0.214 0.086,0.273 -10e-4,0.058 -0.19,0.907 -0.421,1.886 -0.405,1.714 -0.416,1.783 -0.311,1.888 0.167,0.166 1.802,0.552 2.313,0.513 0.583,-0.044 1.775,-0.4 1.895,-0.519 0.098,-0.097 0.079,-0.206 -0.317,-1.882 -0.231,-0.979 -0.421,-1.828 -0.422,-1.886 -10e-4,-0.059 0.038,-0.183 0.087,-0.275 0.077,-0.145 0.228,-0.216 1.139,-0.5342 1.469,-0.5137 1.439,-0.5095 2.774,-0.391 0.623,0.0553 1.157,0.1238 1.188,0.1524 0.032,0.0307 -0.005,0.0749 -0.092,0.1074 -0.08,0.0305 -0.939,0.3524 -1.908,0.7164 -0.969,0.363 -1.864,0.726 -1.988,0.806 -0.292,0.189 -0.434,0.459 -0.436,0.829 -0.002,0.235 0.091,0.519 0.436,1.346 0.242,0.576 0.439,1.102 0.439,1.168 0,0.268 -0.2,0.484 -1.306,1.413 -0.635,0.534 -1.199,1.05 -1.253,1.146 -0.054,0.096 -0.085,0.243 -0.068,0.326 0.028,0.142 0.788,0.878 1.564,1.511 0.325,0.266 2.297,1.5 2.612,1.55 0.265,0.042 0.548,-0.353 1.01,-0.736 0.454,-0.376 0.724,-0.752 0.908,-1.263 0.172,-0.479 0.129,-0.802 -0.212,-1.578 -0.26,-0.592 -0.329,-0.918 -0.242,-1.14 0.02,-0.051 0.724,-0.717 1.565,-1.48 1.83,-1.662 2.267,-1.96 2.368,-2.257 0.111,-0.329 0.032,-1.263 -0.218,-1.7 -0.598,-1.0448 -3.083,-4.3159 -3.294,-4.3159 -1.087,0.1738 -1.997,0.5582 -3.142,0.7348 -0.09,1e-4 -0.473,-0.0934 -0.851,-0.2082 -1.613,-0.4892 -2.136,-0.5267 -2.449,-0.5267 -0.312,0 -0.835,0.0373 -2.448,0.5267 -0.378,0.1145 -0.765,0.2084 -0.86,0.2084 -1.129,-0.1632 -1.965,-0.6019 -3.1333,-0.735 -0.1821,0.1206 -1.798,2.3365 -2.467,3.3047 -0.7867,1.1382 -1.0091,1.7842 -1.0731,2.2182 -0.0895,0.606 0.1381,0.708 2.4885,2.838 0.7906,0.717 1.4536,1.344 1.4733,1.394 0.0886,0.225 0.0185,0.563 -0.2379,1.156 -0.3521,0.814 -0.3836,1.041 -0.2137,1.532 0.1848,0.535 0.4982,0.967 0.9712,1.341 0.44,0.347 0.61,0.694 0.87,0.7 0.093,0.002 0.616,-0.468 1.162,-0.724 z"
         style="opacity:1;fill:#ffffff"
         id="path3435" />
    </g>
    <g
       id="g2046">
      <path
         d="m 428.679,58 -1.7669,2.272044 c -0.0235,0.0076 -0.1961,-0.136402 -0.3844,-0.191704 -0.5048,-0.148303 -1.1456,-0.123002 -1.581,0.0748 -0.2848,0.129402 -0.3952,0.220505 -1.0725,0.886017 C 423.1441,61.75837 423,61.847696 423,62 c 0,0.0395 0.2638,0.507385 0.3937,0.808891 l 0.2356,0.54861 -0.3028,0.830617 c -0.1664,0.456707 -0.3101,0.855516 -0.3203,0.886917 -0.0258,0.0801 2.3378,8.708862 2.4613,9.001868 0.2242,0.532011 0.5767,1.010021 1.0333,1.401027 0.4123,0.353008 4.5962,3.208062 5.0102,3.419066 0.123,0.063 0.32,0.099 0.489,0.103005 0.169,-0.004 0.366,-0.04001 0.489,-0.103005 0.414,-0.211004 4.598,-3.066058 5.01,-3.419066 0.457,-0.391006 0.809,-0.869016 1.033,-1.401027 0.124,-0.293006 2.488,-8.921767 2.462,-9.001868 -0.01,-0.0314 -0.154,-0.43021 -0.321,-0.886917 l -0.302,-0.830617 0.235,-0.54861 C 440.736,62.507385 441,62.039502 441,62 c 0,-0.152304 -0.144,-0.24163 -0.874,-0.958843 -0.678,-0.665512 -0.788,-0.756615 -1.073,-0.886017 -0.435,-0.197804 -1.076,-0.223105 -1.581,-0.0748 -0.188,0.05531 -0.361,0.199404 -0.384,0.191704 L 435.321,58"
         style="opacity:0.2;fill:#000000;stroke-width:1.00001"
         id="path1909"
         sodipodi:nodetypes="ccsscsccccsscccccccccsccscc" />
      <path
         id="path1881"
         style="fill:#ab47bc;stroke-width:1.00001;fill-opacity:1"
         d="m 428.67969,57 -1.76758,2.271484 c -0.0235,0.0076 -0.19647,-0.136105 -0.38477,-0.191406 -0.5048,-0.148303 -1.14467,-0.121631 -1.58007,0.07617 -0.2848,0.129403 -0.39497,0.219253 -1.07227,0.884766 C 423.1449,60.758228 423,60.847697 423,61 c 0,0.0395 0.26463,0.507088 0.39453,0.808594 l 0.23438,0.548828 -0.30274,0.830078 c -0.1664,0.456708 -0.31011,0.857272 -0.32031,0.888672 -0.0258,0.0801 2.33744,8.706994 2.46094,9 0.2242,0.532009 0.5766,1.011336 1.0332,1.402344 0.4123,0.353005 4.59772,3.206966 5.01172,3.417968 0.123,0.063 0.31928,0.09951 0.48828,0.103516 0.169,-0.004 0.36528,-0.04051 0.48828,-0.103516 0.414,-0.211002 4.59777,-3.064963 5.00977,-3.417968 0.457,-0.391008 0.8092,-0.870335 1.0332,-1.402344 0.124,-0.293006 2.48889,-8.919898 2.46289,-9 -0.01,-0.03139 -0.15331,-0.431964 -0.32031,-0.888672 l -0.30274,-0.830078 0.23438,-0.548828 C 440.73547,61.507088 441,61.039501 441,61 c 0,-0.152303 -0.14305,-0.241771 -0.87305,-0.958984 -0.678,-0.665513 -0.78922,-0.755363 -1.07422,-0.884766 -0.435,-0.197803 -1.07507,-0.224476 -1.58007,-0.07617 -0.188,0.05531 -0.36177,0.199105 -0.38477,0.191406 L 435.32031,57 Z"
         sodipodi:nodetypes="ccsscsccccsscccccccccscccccc" />
      <path
         id="path2552"
         style="opacity:0.1;fill:#ffffff;stroke-width:1.00001"
         d="m 428.67969,57 -1.76758,2.271484 c -0.0235,0.0076 -0.19647,-0.136105 -0.38477,-0.191406 -0.5048,-0.148303 -1.14467,-0.121631 -1.58007,0.07617 -0.2848,0.129403 -0.39497,0.219253 -1.07227,0.884766 C 423.1449,60.758227 423,60.847697 423,61 c 0,0.03151 0.16086,0.330764 0.29492,0.605469 0.13296,-0.130534 0.28214,-0.271776 0.58008,-0.564453 0.6773,-0.665513 0.78747,-0.757316 1.07227,-0.886719 0.4354,-0.197803 1.07527,-0.222522 1.58007,-0.07422 0.1883,0.0553 0.36127,0.199006 0.38477,0.191406 L 428.67969,58 h 6.64062 l 1.76758,2.271484 c 0.023,0.0077 0.19677,-0.136096 0.38477,-0.191406 0.505,-0.148304 1.14507,-0.123584 1.58007,0.07422 0.285,0.129403 0.39622,0.221206 1.07422,0.886719 0.29688,0.291678 0.44554,0.432019 0.57813,0.5625 C 440.83904,61.329238 441,61.031446 441,61 c 0,-0.152303 -0.14305,-0.241772 -0.87305,-0.958984 -0.678,-0.665513 -0.78922,-0.755363 -1.07422,-0.884766 -0.435,-0.197803 -1.07507,-0.224476 -1.58007,-0.07617 -0.188,0.05531 -0.36177,0.199105 -0.38477,0.191406 L 435.32031,57 Z m -5.24805,5.896484 -0.10547,0.291016 c -0.1664,0.456708 -0.31011,0.857272 -0.32031,0.888672 -0.004,0.01198 0.0569,0.25755 0.14453,0.595703 0.0593,-0.164437 0.0848,-0.234763 0.17578,-0.484375 l 0.30274,-0.830078 z m 17.13672,0 -0.19727,0.460938 0.30274,0.830078 c 0.0913,0.249612 0.11656,0.319937 0.17578,0.484375 0.0876,-0.338153 0.14842,-0.583717 0.14453,-0.595703 -0.01,-0.03139 -0.15331,-0.431964 -0.32031,-0.888672 z" />
      <path
         d="m 434.41319,72.825001 c 0.431,-0.313999 0.499,-0.394 0.428,-0.504999 -0.056,-0.089 -1.444,-0.785 -2.108,-1.057 -0.697,-0.287001 -0.771,-0.287001 -1.448,-0.004 -0.607,0.251001 -1.9728,0.94 -2.0874,1.053 -0.1184,0.116 -0.0588,0.223 0.2395,0.429 0.8629,0.401 1.5629,1.259 2.5619,1.259 1.001,0 1.588,-0.745 2.414,-1.175001 z m -4.8429,-1.355 c 0.8329,-0.399 0.9579,-0.482 1.5939,-1.057 0.536,-0.483 0.635,-0.627 0.559,-0.81 -0.026,-0.062 -0.428,-0.441 -0.894,-0.841 -1.1014,-0.947 -1.0553,-0.813999 -0.636,-1.840999 0.249,-0.610201 0.313,-0.814401 0.313,-0.983501 -0.002,-0.2555 -0.095,-0.4474 -0.282,-0.579899 -0.075,-0.0541 -0.7407,-0.3273 -1.4781,-0.6081 -0.7374,-0.2808 -1.3365,-0.5289 -1.3313,-0.5517 0.0118,-0.0521 0.825,-0.1421 1.4153,-0.1572 l 0.4465,-0.0113 0.8206,0.2925 c 0.717,0.255 0.829,0.3072 0.883,0.4109 0.034,0.0654 0.061,0.153099 0.06,0.194999 0,0.042 -0.133,0.648201 -0.295,1.3472 -0.283,1.2241 -0.291,1.274101 -0.217,1.3491 0.117,0.118 1.262,0.394 1.619,0.366 0.408,-0.031 1.242,-0.286 1.327,-0.371 0.068,-0.069 0.055,-0.147 -0.222,-1.344399 -0.162,-0.699 -0.295,-1.3053 -0.296,-1.3472 0,-0.042 0.027,-0.13 0.061,-0.195801 0.054,-0.103499 0.16,-0.1545 0.798,-0.3818 1.028,-0.3669 1.007,-0.3639 1.941,-0.2793 0.436,0.0397 0.81,0.0885 0.832,0.1089 0.022,0.0226 -0.003,0.0533 -0.064,0.0767 -0.057,0.0227 -0.658,0.251999 -1.336,0.511399 -0.679,0.259601 -1.305,0.5187 -1.392,0.5761 -0.204,0.1349 -0.304,0.3276 -0.305,0.5921 -0.001,0.1674 0.063,0.37 0.306,0.9607 0.168,0.411601 0.306,0.7876 0.306,0.8346 0,0.191 -0.139,0.345 -0.913,1.009 -0.445,0.382 -0.84,0.75 -0.878,0.819 -0.037,0.068 -0.059,0.173 -0.048,0.232 0.02,0.102 0.553,0.627 1.095,1.08 0.228,0.19 1.608,1.071 1.829,1.106 0.185,0.03 0.383,-0.251 0.707,-0.525 0.318,-0.269 0.507,-0.537 0.635,-0.902 0.121,-0.342 0.091,-0.573 -0.148,-1.127 -0.182,-0.423 -0.23,-0.656 -0.169,-0.814 0.014,-0.038 0.507,-0.512 1.095,-1.057 1.281,-1.1872 1.587,-1.3998 1.657,-1.6119 0.078,-0.2355 0.023,-0.5456 -0.152,-0.8576 -0.419,-0.7461 -2.158,-3.0823 -2.306,-3.0823 -0.761,0.1239 -1.397,0.3986 -2.199,0.5248 -0.063,1e-4 -0.331,-0.0669 -0.596,-0.1489 -1.129,-0.3496 -1.495,-0.376 -1.714,-0.376 -0.218,0 -0.585,0.0264 -1.714,0.376 -0.264,0.082 -0.5353,0.1489 -0.6018,0.1489 -0.7899,-0.1164 -1.3755,-0.43 -2.1932,-0.525 -0.1275,0.0862 -1.2586,1.6687 -1.7269,2.3601 -0.5507,0.8131 -0.7064,0.9177 -0.7512,1.2272 -0.0626,0.4333 0.0967,0.5062 1.742,2.0277 0.5534,0.511 1.0175,0.959 1.0313,0.995 0.0617,0.16 0.0129,0.402 -0.1665,0.826 -0.2465,0.581 -0.2686,0.743 -0.1496,1.094 0.1293,0.382 0.3486,0.69 0.6798,0.957 0.308,0.248 0.4272,0.496 0.6089,0.5 0.065,0.002 0.431,-0.334 0.8133,-0.517 z"
         style="opacity:0.2;fill:#000000"
         id="path2021" />
      <path
         d="m 434.41319,71.825 c 0.431,-0.314 0.499,-0.394 0.428,-0.505 -0.056,-0.089 -1.444,-0.785 -2.108,-1.057 -0.697,-0.287 -0.771,-0.287 -1.448,-0.004 -0.607,0.251 -1.9728,0.94 -2.0874,1.053 -0.1184,0.116 -0.0588,0.223 0.2395,0.429 0.8629,0.401 1.5629,1.259 2.5619,1.259 1.001,0 1.588,-0.745 2.414,-1.175 z m -4.8429,-1.355 c 0.8329,-0.399 0.9579,-0.482 1.5939,-1.057 0.536,-0.483 0.635,-0.627 0.559,-0.81 -0.026,-0.062 -0.428,-0.441 -0.894,-0.841 -1.1014,-0.947 -1.0553,-0.814 -0.636,-1.841 0.249,-0.6102 0.313,-0.8144 0.313,-0.9835 -0.002,-0.2555 -0.095,-0.4474 -0.282,-0.5799 -0.075,-0.0541 -0.7407,-0.3273 -1.4781,-0.6081 -0.7374,-0.2808 -1.3365,-0.5289 -1.3313,-0.5517 0.0118,-0.0521 0.825,-0.1421 1.4153,-0.1572 l 0.4465,-0.0113 0.8206,0.2925 c 0.717,0.255 0.829,0.3072 0.883,0.4109 0.034,0.0654 0.061,0.1531 0.06,0.195 0,0.042 -0.133,0.6482 -0.295,1.3472 -0.283,1.2241 -0.291,1.2741 -0.217,1.3491 0.117,0.118 1.262,0.394 1.619,0.366 0.408,-0.031 1.242,-0.286 1.327,-0.371 0.068,-0.069 0.055,-0.147 -0.222,-1.3444 -0.162,-0.699 -0.295,-1.3053 -0.296,-1.3472 0,-0.042 0.027,-0.13 0.061,-0.1958 0.054,-0.1035 0.16,-0.1545 0.798,-0.3818 1.028,-0.3669 1.007,-0.3639 1.941,-0.2793 0.436,0.0397 0.81,0.0885 0.832,0.1089 0.022,0.0226 -0.003,0.0533 -0.064,0.0767 -0.057,0.0227 -0.658,0.252 -1.336,0.5114 -0.679,0.2596 -1.305,0.5187 -1.392,0.5761 -0.204,0.1349 -0.304,0.3276 -0.305,0.5921 -0.001,0.1674 0.063,0.37 0.306,0.9607 0.168,0.4116 0.306,0.7876 0.306,0.8346 0,0.191 -0.139,0.345 -0.913,1.009 -0.445,0.382 -0.84,0.75 -0.878,0.819 -0.037,0.068 -0.059,0.173 -0.048,0.232 0.02,0.102 0.553,0.627 1.095,1.08 0.228,0.19 1.608,1.071 1.829,1.106 0.185,0.03 0.383,-0.251 0.707,-0.525 0.318,-0.269 0.507,-0.537 0.635,-0.902 0.121,-0.342 0.091,-0.573 -0.148,-1.127 -0.182,-0.423 -0.23,-0.656 -0.169,-0.814 0.014,-0.038 0.507,-0.512 1.095,-1.057 1.281,-1.1872 1.587,-1.3998 1.657,-1.6119 0.078,-0.2355 0.023,-0.5456 -0.152,-0.8576 -0.419,-0.7461 -2.158,-3.0823 -2.306,-3.0823 -0.761,0.1239 -1.397,0.3986 -2.199,0.5248 -0.063,1e-4 -0.331,-0.0669 -0.596,-0.1489 -1.129,-0.3496 -1.495,-0.376 -1.714,-0.376 -0.218,0 -0.585,0.0264 -1.714,0.376 -0.264,0.082 -0.5353,0.1489 -0.6018,0.1489 -0.7899,-0.1164 -1.3755,-0.43 -2.1932,-0.525 -0.1275,0.0862 -1.2586,1.6687 -1.7269,2.3601 -0.5507,0.8131 -0.7064,0.9177 -0.7512,1.2272 -0.0626,0.4333 0.0967,0.5062 1.742,2.0277 0.5534,0.511 1.0175,0.959 1.0313,0.995 0.0617,0.16 0.0129,0.402 -0.1665,0.826 -0.2465,0.581 -0.2686,0.743 -0.1496,1.094 0.1293,0.382 0.3486,0.69 0.6798,0.957 0.308,0.248 0.4272,0.496 0.6089,0.5 0.065,0.002 0.431,-0.334 0.8133,-0.517 z"
         style="fill:#ffffff"
         id="path1993"
         sodipodi:nodetypes="ccccccsccccccccsscccsccccccccccccccccscccccscccccccccscccscccccccc" />
    </g>
    <g
       id="g2437">
      <path
         d="m 307.20299,230 -2.55223,2.56811 c -0.0339,0.011 -0.28329,-0.1949 -0.5552,-0.27397 -0.72909,-0.21182 -1.65479,-0.1756 -2.28367,0.10693 -0.41134,0.18482 -0.57081,0.31489 -1.54917,1.26568 -1.05462,1.02461 -1.26273,1.2705 -1.26273,1.48821 0,0.0565 0.38112,0.60643 0.56864,1.03715 l 0.34029,0.78364 -0.43724,1.18661 c -0.2405,0.65228 -0.44795,1.22228 -0.46269,1.26728 -0.0374,0.11465 3.37675,13.11857 3.55518,13.5375 0.32391,0.76072 0.83308,1.44215 1.49251,2.00143 0.5955,0.50357 6.63898,4.58357 7.23698,4.88464 0.17767,0.09 0.46259,0.14143 0.70633,0.14679 0.24375,-0.005 0.52867,-0.0568 0.70633,-0.14679 0.598,-0.30107 6.64192,-4.38107 7.23667,-4.88464 0.65975,-0.55928 1.16892,-1.24071 1.49283,-2.00143 0.17875,-0.41893 3.59234,-13.42285 3.5555,-13.5375 -0.0152,-0.045 -0.22208,-0.615 -0.46258,-1.26728 l -0.43767,-1.18661 0.34017,-0.78364 c 0.18742,-0.43072 0.56875,-0.98068 0.56875,-1.03715 0,-0.21771 -0.208,-0.4636 -1.26317,-1.48821 -0.97825,-0.95079 -1.1375,-1.08086 -1.54915,-1.26568 -0.62834,-0.28253 -1.5546,-0.31875 -2.28367,-0.10693 -0.27192,0.0791 -0.52108,0.285 -0.55467,0.27397 L 316.79701,230 Z"
         style="opacity:0.2;fill:#000000;stroke-width:1.07736"
         id="path2412"
         sodipodi:nodetypes="cccscscccccccccccccccscccccc" />
      <path
         d="m 307.203,229 -2.55223,2.56811 c -0.0339,0.011 -0.28329,-0.1949 -0.5552,-0.27397 -0.72909,-0.21182 -1.65479,-0.1756 -2.28367,0.10693 -0.41134,0.18482 -0.57081,0.31489 -1.54917,1.26568 -1.05462,1.02461 -1.26273,1.2705 -1.26273,1.48821 0,0.0565 0.38112,0.60643 0.56864,1.03715 l 0.34028,0.78364 -0.43724,1.18661 c -0.2405,0.65228 -0.44795,1.22228 -0.46269,1.26728 -0.0374,0.11465 3.37675,13.11857 3.55518,13.5375 0.32391,0.76072 0.83308,1.44215 1.49251,2.00143 0.5955,0.50357 6.63899,4.58357 7.23699,4.88464 0.17766,0.09 0.46258,0.14143 0.70633,0.14679 0.24375,-0.005 0.52867,-0.0568 0.70633,-0.14679 0.598,-0.30107 6.64192,-4.38107 7.23667,-4.88464 0.65975,-0.55928 1.16892,-1.24071 1.49283,-2.00143 0.17875,-0.41893 3.59234,-13.42285 3.5555,-13.5375 -0.0152,-0.045 -0.22208,-0.615 -0.46258,-1.26728 l -0.43767,-1.18661 0.34017,-0.78364 C 324.61867,234.76139 325,234.21143 325,234.15496 c 0,-0.21771 -0.208,-0.4636 -1.26317,-1.48821 -0.97825,-0.95079 -1.1375,-1.08086 -1.54916,-1.26568 -0.62834,-0.28253 -1.55459,-0.31875 -2.28367,-0.10693 -0.27192,0.0791 -0.52108,0.285 -0.55467,0.27397 L 316.797,229 Z"
         style="fill:#ab47bc;stroke-width:1.07736;fill-opacity:1"
         id="path2245"
         sodipodi:nodetypes="cccscsccccsccccccccccsccsccc" />
      <path
         d="m 313.12795,252.247 c 0,0 1.227,-0.809 2.32,-1.59 0.614,-0.44 0.711,-0.552 0.611,-0.707 -0.081,-0.125 -2.063,-1.1 -3.011,-1.481 -0.997,-0.401 -1.102,-0.401 -2.069,-0.008 -0.867,0.352 -2.819,1.317 -2.982,1.474 -0.17,0.163 -0.084,0.313 0.342,0.601 0.877,0.594 2.56,1.736 2.56,1.736 1.145,0.974 1.056,0.975 2.229,-0.024 z m -4.599,-3.487 c 1.19,-0.559 1.368,-0.675 2.277,-1.48 0.765,-0.677 0.907,-0.879 0.798,-1.135 -0.037,-0.087 -0.612,-0.617 -1.277,-1.178 -1.573,-1.325 -1.507,-1.138 -0.909,-2.577 0.356,-0.854 0.448,-1.14 0.447,-1.377 -0.002,-0.358 -0.135,-0.627 -0.402,-0.812 -0.108,-0.076 -1.058,-0.459 -2.112,-0.852 -1.053,-0.3927 -1.909,-0.7403 -1.9016,-0.7721 0.0168,-0.0728 1.1786,-0.1992 2.0216,-0.2201 l 0.638,-0.0159 1.173,0.4093 c 1.023,0.3568 1.184,0.4308 1.261,0.5758 0.048,0.091 0.087,0.214 0.086,0.273 -10e-4,0.058 -0.19,0.907 -0.421,1.886 -0.405,1.714 -0.416,1.783 -0.311,1.888 0.167,0.166 1.802,0.552 2.313,0.513 0.583,-0.044 1.775,-0.4 1.895,-0.519 0.098,-0.097 0.079,-0.206 -0.317,-1.882 -0.231,-0.979 -0.421,-1.828 -0.422,-1.886 -10e-4,-0.059 0.038,-0.183 0.087,-0.275 0.077,-0.145 0.228,-0.216 1.139,-0.5342 1.469,-0.5137 1.439,-0.5095 2.774,-0.391 0.623,0.0553 1.157,0.1238 1.188,0.1524 0.032,0.0307 -0.005,0.0749 -0.092,0.1074 -0.08,0.0305 -0.939,0.3524 -1.908,0.7164 -0.969,0.363 -1.864,0.726 -1.988,0.806 -0.292,0.189 -0.434,0.459 -0.436,0.829 -0.002,0.235 0.091,0.519 0.436,1.346 0.242,0.576 0.439,1.102 0.439,1.168 0,0.268 -0.2,0.484 -1.306,1.413 -0.635,0.534 -1.199,1.05 -1.253,1.146 -0.054,0.096 -0.085,0.243 -0.068,0.326 0.028,0.142 0.788,0.878 1.564,1.511 0.325,0.266 2.297,1.5 2.612,1.55 0.265,0.042 0.548,-0.353 1.01,-0.736 0.454,-0.376 0.724,-0.752 0.908,-1.263 0.172,-0.479 0.129,-0.802 -0.212,-1.578 -0.26,-0.592 -0.329,-0.918 -0.242,-1.14 0.02,-0.051 0.724,-0.717 1.565,-1.48 1.83,-1.662 2.267,-1.96 2.368,-2.257 0.111,-0.329 0.032,-1.263 -0.218,-1.7 -0.598,-1.0448 -3.083,-4.3159 -3.294,-4.3159 -1.087,0.1738 -1.997,0.5582 -3.142,0.7348 -0.09,1e-4 -0.473,-0.0934 -0.851,-0.2082 -1.613,-0.4892 -2.136,-0.5267 -2.449,-0.5267 -0.312,0 -0.835,0.0373 -2.448,0.5267 -0.378,0.1145 -0.765,0.2084 -0.86,0.2084 -1.129,-0.1632 -1.965,-0.6019 -3.1333,-0.735 -0.1821,0.1206 -1.798,2.3365 -2.467,3.3047 -0.7867,1.1382 -1.0091,1.7842 -1.0731,2.2182 -0.0895,0.606 0.1381,0.708 2.4885,2.838 0.7906,0.717 1.4536,1.344 1.4733,1.394 0.0886,0.225 0.0185,0.563 -0.2379,1.156 -0.3521,0.814 -0.3836,1.041 -0.2137,1.532 0.1848,0.535 0.4982,0.967 0.9712,1.341 0.44,0.347 0.61,0.694 0.87,0.7 0.093,0.002 0.616,-0.468 1.162,-0.724 z"
         style="opacity:0.2;fill:#000000"
         id="path2357"
         sodipodi:nodetypes="ccccccccccccsccccscccccscccccsccsccccccscsccscccsccccccsccccccsccccc" />
      <path
         id="path2301"
         style="opacity:0.1;fill:#ffffff;stroke-width:1.07736"
         d="m 307.20312,229 -2.55273,2.56836 c -0.0339,0.011 -0.28278,-0.19437 -0.55469,-0.27344 -0.72909,-0.21182 -1.65432,-0.17706 -2.2832,0.10547 -0.41134,0.18482 -0.57047,0.31484 -1.54883,1.26563 -1.05462,1.0246 -1.26367,1.27057 -1.26367,1.48828 0,0.0337 0.13771,0.24876 0.28711,0.5039 0.18831,-0.21527 0.48415,-0.51379 0.97656,-0.99218 0.97836,-0.9508 1.13749,-1.08081 1.54883,-1.26563 0.62888,-0.28254 1.55411,-0.31728 2.2832,-0.10547 0.27191,0.0791 0.52079,0.28444 0.55469,0.27344 L 307.20312,230 h 9.59376 l 2.55273,2.56836 c 0.0336,0.011 0.28277,-0.19434 0.55469,-0.27344 0.72908,-0.21182 1.65486,-0.17706 2.2832,0.10547 0.41166,0.18482 0.57058,0.31484 1.54883,1.26563 0.49267,0.47839 0.78821,0.77692 0.97656,0.99218 0.14944,-0.25514 0.28711,-0.47019 0.28711,-0.5039 0,-0.21771 -0.2085,-0.46368 -1.26367,-1.48828 -0.97825,-0.95079 -1.13717,-1.08081 -1.54883,-1.26563 -0.62834,-0.28253 -1.55412,-0.31729 -2.2832,-0.10547 -0.27192,0.0791 -0.5211,0.28447 -0.55469,0.27344 L 316.79688,229 Z m 17.0879,7.51562 -0.19922,0.46094 0.4375,1.18555 c 0.16781,0.45514 0.24089,0.66015 0.32226,0.88477 0.0924,-0.3762 0.14529,-0.60267 0.14063,-0.61719 -0.0152,-0.045 -0.22239,-0.6153 -0.46289,-1.26758 z m -24.58204,0.002 -0.23632,0.64453 c -0.2405,0.65228 -0.44815,1.22258 -0.46289,1.26758 -0.005,0.0145 0.0482,0.24099 0.14062,0.61719 0.0814,-0.22462 0.15445,-0.42963 0.32227,-0.88477 l 0.43554,-1.18555 z"
         sodipodi:nodetypes="cccscsccssccccccccscccccccccccscccscccc" />
      <path
         d="m 313.12795,251.247 c 0,0 1.227,-0.809 2.32,-1.59 0.614,-0.44 0.711,-0.552 0.611,-0.707 -0.081,-0.125 -2.063,-1.1 -3.011,-1.481 -0.997,-0.401 -1.102,-0.401 -2.069,-0.008 -0.867,0.352 -2.819,1.317 -2.982,1.474 -0.17,0.163 -0.084,0.313 0.342,0.601 0.877,0.594 2.56,1.736 2.56,1.736 1.145,0.974 1.056,0.975 2.229,-0.024 z m -4.599,-3.487 c 1.19,-0.559 1.368,-0.675 2.277,-1.48 0.765,-0.677 0.907,-0.879 0.798,-1.135 -0.037,-0.087 -0.612,-0.617 -1.277,-1.178 -1.573,-1.325 -1.507,-1.138 -0.909,-2.577 0.356,-0.854 0.448,-1.14 0.447,-1.377 -0.002,-0.358 -0.135,-0.627 -0.402,-0.812 -0.108,-0.076 -1.058,-0.459 -2.112,-0.852 -1.053,-0.3927 -1.909,-0.7403 -1.9016,-0.7721 0.0168,-0.0728 1.1786,-0.1992 2.0216,-0.2201 l 0.638,-0.0159 1.173,0.4093 c 1.023,0.3568 1.184,0.4308 1.261,0.5758 0.048,0.091 0.087,0.214 0.086,0.273 -10e-4,0.058 -0.19,0.907 -0.421,1.886 -0.405,1.714 -0.416,1.783 -0.311,1.888 0.167,0.166 1.802,0.552 2.313,0.513 0.583,-0.044 1.775,-0.4 1.895,-0.519 0.098,-0.097 0.079,-0.206 -0.317,-1.882 -0.231,-0.979 -0.421,-1.828 -0.422,-1.886 -10e-4,-0.059 0.038,-0.183 0.087,-0.275 0.077,-0.145 0.228,-0.216 1.139,-0.5342 1.469,-0.5137 1.439,-0.5095 2.774,-0.391 0.623,0.0553 1.157,0.1238 1.188,0.1524 0.032,0.0307 -0.005,0.0749 -0.092,0.1074 -0.08,0.0305 -0.939,0.3524 -1.908,0.7164 -0.969,0.363 -1.864,0.726 -1.988,0.806 -0.292,0.189 -0.434,0.459 -0.436,0.829 -0.002,0.235 0.091,0.519 0.436,1.346 0.242,0.576 0.439,1.102 0.439,1.168 0,0.268 -0.2,0.484 -1.306,1.413 -0.635,0.534 -1.199,1.05 -1.253,1.146 -0.054,0.096 -0.085,0.243 -0.068,0.326 0.028,0.142 0.788,0.878 1.564,1.511 0.325,0.266 2.297,1.5 2.612,1.55 0.265,0.042 0.548,-0.353 1.01,-0.736 0.454,-0.376 0.724,-0.752 0.908,-1.263 0.172,-0.479 0.129,-0.802 -0.212,-1.578 -0.26,-0.592 -0.329,-0.918 -0.242,-1.14 0.02,-0.051 0.724,-0.717 1.565,-1.48 1.83,-1.662 2.267,-1.96 2.368,-2.257 0.111,-0.329 0.032,-1.263 -0.218,-1.7 -0.598,-1.0448 -3.083,-4.3159 -3.294,-4.3159 -1.087,0.1738 -1.997,0.5582 -3.142,0.7348 -0.09,1e-4 -0.473,-0.0934 -0.851,-0.2082 -1.613,-0.4892 -2.136,-0.5267 -2.449,-0.5267 -0.312,0 -0.835,0.0373 -2.448,0.5267 -0.378,0.1145 -0.765,0.2084 -0.86,0.2084 -1.129,-0.1632 -1.965,-0.6019 -3.1333,-0.735 -0.1821,0.1206 -1.798,2.3365 -2.467,3.3047 -0.7867,1.1382 -1.0091,1.7842 -1.0731,2.2182 -0.0895,0.606 0.1381,0.708 2.4885,2.838 0.7906,0.717 1.4536,1.344 1.4733,1.394 0.0886,0.225 0.0185,0.563 -0.2379,1.156 -0.3521,0.814 -0.3836,1.041 -0.2137,1.532 0.1848,0.535 0.4982,0.967 0.9712,1.341 0.44,0.347 0.61,0.694 0.87,0.7 0.093,0.002 0.616,-0.468 1.162,-0.724 z"
         style="fill:#ffffff"
         id="path2273"
         sodipodi:nodetypes="ccccccccccccsccccscccccscccccsccsccccccscsccscccsccccccsccccccsccccc" />
    </g>
    <g
       id="g2733">
      <path
         id="path2593"
         style="fill:#000000;stroke-width:2.00002;opacity:0.2"
         d="m 313.35742,152 -3.5332,4.54492 c -0.047,0.016 -0.39293,-0.27221 -0.76953,-0.38281 -1.0096,-0.29662 -2.29131,-0.24718 -3.16211,0.14844 -0.5696,0.25879 -0.78993,0.44046 -2.14453,1.77148 C 302.28785,159.51647 302,159.69538 302,160 c 0,0.079 0.52731,1.01612 0.78711,1.61914 l 0.4707,1.0957 -0.60546,1.66211 c -0.3328,0.91342 -0.62023,1.71064 -0.64063,1.77344 -0.0516,0.1602 4.67683,17.41789 4.92383,18.0039 0.4484,1.06402 1.15321,2.02072 2.06641,2.80274 0.82459,0.706 9.19153,6.41589 10.01953,6.83789 0.246,0.126 0.64051,0.19706 0.97851,0.20508 0.338,-0.008 0.73252,-0.0791 0.97852,-0.20508 0.828,-0.422 9.19553,-6.13189 10.01953,-6.83789 0.914,-0.78202 1.61841,-1.73872 2.06641,-2.80274 0.248,-0.58601 4.97582,-17.8437 4.92382,-18.0039 -0.02,-0.0628 -0.30857,-0.86002 -0.64257,-1.77344 l -0.60352,-1.66211 0.46875,-1.0957 C 337.47094,161.01612 338,160.079 338,160 c 0,-0.30462 -0.28805,-0.48353 -1.74804,-1.91797 -1.356,-1.33102 -1.57649,-1.51269 -2.14649,-1.77148 -0.87,-0.39562 -2.15211,-0.44506 -3.16211,-0.14844 -0.376,0.1106 -0.72158,0.39821 -0.76758,0.38281 L 326.64258,152 Z" />
      <path
         id="path2565"
         style="fill:#ab47bc;stroke-width:2.00002;fill-opacity:1"
         d="m 313.35742,151 -3.5332,4.54492 c -0.047,0.016 -0.39293,-0.27416 -0.76953,-0.38476 -1.0096,-0.29662 -2.29131,-0.24523 -3.16211,0.15039 -0.5696,0.2588 -0.78993,0.44046 -2.14453,1.77148 C 302.28785,158.51647 302,158.69538 302,159 c 0,0.079 0.52731,1.01417 0.78711,1.61719 l 0.4707,1.09765 -0.60547,1.66211 c -0.3328,0.91342 -0.62022,1.71064 -0.64062,1.77344 -0.0516,0.1602 4.67683,17.41789 4.92383,18.00391 0.4484,1.06402 1.1532,2.01876 2.0664,2.80078 0.8246,0.706 9.19154,6.41784 10.01953,6.83984 0.246,0.126 0.64052,0.19706 0.97852,0.20508 0.338,-0.008 0.73252,-0.0791 0.97852,-0.20508 0.82799,-0.422 9.19553,-6.13384 10.01953,-6.83984 0.914,-0.78202 1.6184,-1.73676 2.0664,-2.80078 0.248,-0.58602 4.97583,-17.84371 4.92383,-18.00391 -0.02,-0.0628 -0.30858,-0.86002 -0.64258,-1.77344 l -0.60351,-1.66211 0.4707,-1.09765 C 337.47289,160.01417 338,159.079 338,159 c 0,-0.30462 -0.28805,-0.48353 -1.74805,-1.91797 -1.356,-1.33102 -1.57648,-1.51268 -2.14648,-1.77148 -0.87,-0.39562 -2.15211,-0.44701 -3.16211,-0.15039 -0.376,0.1106 -0.72158,0.40016 -0.76758,0.38476 L 326.64258,151 Z"
         sodipodi:nodetypes="cccscsccccsccccccccccscccccc" />
      <path
         d="m 324.82649,180.65051 c 0.86202,-0.62801 0.99802,-0.78802 0.85602,-1.01002 -0.112,-0.17801 -2.88807,-1.57004 -4.2161,-2.11405 -1.39403,-0.57402 -1.54204,-0.57402 -2.89607,-0.008 -1.21403,0.50201 -3.94569,1.88004 -4.1749,2.10605 -0.2368,0.232 -0.1176,0.44601 0.47902,0.85802 1.72584,0.80202 3.12587,2.51806 5.12392,2.51806 2.00204,0 3.17607,-1.49004 4.82811,-2.35006 z m -9.68603,-2.71006 c 1.66584,-0.79802 1.91585,-0.96402 3.18788,-2.11405 1.07202,-0.96602 1.27003,-1.25403 1.11802,-1.62004 -0.052,-0.124 -0.85602,-0.88202 -1.78804,-1.68204 -2.20285,-1.89404 -2.11065,-1.62804 -1.27203,-3.68209 0.49801,-1.22043 0.62602,-1.62884 0.62602,-1.96704 -0.004,-0.51102 -0.19001,-0.89482 -0.56402,-1.15983 -0.15,-0.1082 -1.48143,-0.65462 -2.95627,-1.21623 -1.47483,-0.56161 -2.67306,-1.05782 -2.66266,-1.10343 0.0236,-0.1042 1.65004,-0.2842 2.83067,-0.3144 l 0.89302,-0.0226 1.64124,0.58501 c 1.43403,0.51001 1.65804,0.61441 1.76604,0.82182 0.068,0.1308 0.122,0.30621 0.12,0.39001 0,0.084 -0.26601,1.29643 -0.59001,2.69446 -0.56602,2.44826 -0.58202,2.54826 -0.43401,2.69827 0.234,0.236 2.52406,0.78801 3.23807,0.73201 0.81602,-0.062 2.48406,-0.57201 2.65407,-0.74201 0.136,-0.13801 0.11,-0.29401 -0.44401,-2.68887 -0.32401,-1.39803 -0.59002,-2.61066 -0.59202,-2.69446 0,-0.084 0.054,-0.26001 0.122,-0.39161 0.10801,-0.20701 0.32001,-0.30901 1.59604,-0.76362 2.05605,-0.73382 2.01405,-0.72782 3.88209,-0.55861 0.87203,0.0794 1.62004,0.177 1.66404,0.2178 0.044,0.0452 -0.006,0.10661 -0.128,0.15341 -0.114,0.0454 -1.31603,0.50401 -2.67206,1.02282 -1.35803,0.51921 -2.61006,1.03743 -2.78407,1.15223 -0.40801,0.2698 -0.60801,0.65521 -0.61001,1.18423 -0.002,0.3348 0.126,0.74001 0.61201,1.92144 0.33601,0.82322 0.61202,1.57524 0.61202,1.66924 0,0.38201 -0.27801,0.69002 -1.82605,2.01805 -0.89002,0.76402 -1.68004,1.50003 -1.75604,1.63804 -0.074,0.136 -0.118,0.34601 -0.096,0.46401 0.04,0.204 1.10603,1.25403 2.19005,2.16005 0.45601,0.38001 3.21608,2.14205 3.65809,2.21205 0.37001,0.06 0.76602,-0.50201 1.41403,-1.05002 0.63602,-0.53802 1.01403,-1.07403 1.27003,-1.80405 0.24201,-0.68401 0.18201,-1.14602 -0.29601,-2.25405 -0.364,-0.84602 -0.46001,-1.31203 -0.338,-1.62804 0.028,-0.076 1.01402,-1.02402 2.19005,-2.11405 2.56206,-2.37445 3.17407,-2.79966 3.31408,-3.22387 0.156,-0.47101 0.046,-1.09123 -0.30401,-1.71524 -0.83802,-1.49224 -4.3161,-6.16475 -4.61211,-6.16475 -1.52204,0.24781 -2.79407,0.79722 -4.3981,1.04962 -0.12601,2e-4 -0.66202,-0.1338 -1.19203,-0.2978 -2.25806,-0.69922 -2.99007,-0.75202 -3.42808,-0.75202 -0.43601,0 -1.17003,0.0528 -3.42808,0.75202 -0.52802,0.164 -1.07063,0.2978 -1.20363,0.2978 -1.57984,-0.2328 -2.75107,-0.86002 -4.38651,-1.05002 -0.255,0.1724 -2.51726,3.33748 -3.45388,4.72031 -1.10142,1.62624 -1.41283,1.83545 -1.50243,2.45446 -0.12521,0.86662 0.1934,1.01242 3.48408,4.0555 1.10682,1.02202 2.03505,1.91804 2.06265,1.99004 0.1234,0.32001 0.0258,0.80402 -0.33301,1.65204 -0.49301,1.16203 -0.53721,1.48604 -0.29921,2.18805 0.25861,0.76402 0.69722,1.38004 1.35963,1.91405 0.61602,0.49601 0.85442,0.99202 1.21783,1.00002 0.13001,0.004 0.86202,-0.66801 1.62664,-1.03402 z"
         style="opacity:0.2;fill:#000000;stroke-width:2.00005"
         id="path2708"
         sodipodi:nodetypes="ccccccsccccccccscccccccccccccccccccccscccccccccccccccscccscccccccc" />
      <path
         id="path2624"
         style="fill:#ffffff;stroke-width:2.00002;opacity:0.1"
         d="M 313.35742 151 L 309.82422 155.54492 C 309.77722 155.56092 309.43129 155.27076 309.05469 155.16016 C 308.04509 154.86354 306.76338 154.91493 305.89258 155.31055 C 305.32298 155.56935 305.10265 155.75101 303.74805 157.08203 C 302.28785 158.51647 302 158.69538 302 159 C 302 159.03493 302.12424 159.27403 302.26172 159.54102 C 302.49878 159.28279 302.92737 158.88823 303.74805 158.08203 C 305.10265 156.75101 305.32298 156.56935 305.89258 156.31055 C 306.76338 155.91493 308.04509 155.86354 309.05469 156.16016 C 309.43129 156.27076 309.77722 156.56092 309.82422 156.54492 L 313.35742 152 L 326.64258 152 L 330.17578 156.54492 C 330.22178 156.56032 330.56736 156.27076 330.94336 156.16016 C 331.95336 155.86354 333.23547 155.91493 334.10547 156.31055 C 334.67547 156.56935 334.89595 156.75101 336.25195 158.08203 C 337.07252 158.88823 337.50118 159.28279 337.73828 159.54102 C 337.87573 159.27403 338 159.03493 338 159 C 338 158.69538 337.71195 158.51647 336.25195 157.08203 C 334.89595 155.75101 334.67547 155.56935 334.10547 155.31055 C 333.23547 154.91493 331.95336 154.86354 330.94336 155.16016 C 330.56736 155.27076 330.22178 155.56032 330.17578 155.54492 L 326.64258 151 L 313.35742 151 z M 303.06055 162.25586 L 302.65234 163.37695 C 302.31954 164.29037 302.03212 165.08759 302.01172 165.15039 C 302.00681 165.16564 302.08056 165.45983 302.1543 165.75586 C 302.25401 165.47674 302.39358 165.08716 302.65234 164.37695 L 303.25781 162.71484 L 303.06055 162.25586 z M 336.93945 162.25586 L 336.74219 162.71484 L 337.3457 164.37695 C 337.60575 165.08812 337.74605 165.47929 337.8457 165.75781 C 337.91992 165.45981 337.99325 165.1657 337.98828 165.15039 C 337.96828 165.08759 337.6797 164.29037 337.3457 163.37695 L 336.93945 162.25586 z " />
      <path
         d="m 324.82649,179.65051 c 0.86202,-0.62801 0.99802,-0.78802 0.85602,-1.01002 -0.112,-0.17801 -2.88807,-1.57004 -4.2161,-2.11405 -1.39403,-0.57402 -1.54204,-0.57402 -2.89607,-0.008 -1.21403,0.50201 -3.94569,1.88004 -4.1749,2.10605 -0.2368,0.232 -0.1176,0.44601 0.47902,0.85802 1.72584,0.80202 3.12587,2.51806 5.12392,2.51806 2.00204,0 3.17607,-1.49004 4.82811,-2.35006 z m -9.68603,-2.71006 c 1.66584,-0.79802 1.91585,-0.96402 3.18788,-2.11405 1.07202,-0.96602 1.27003,-1.25403 1.11802,-1.62004 -0.052,-0.124 -0.85602,-0.88202 -1.78804,-1.68204 -2.20285,-1.89404 -2.11065,-1.62804 -1.27203,-3.68209 0.49801,-1.22043 0.62602,-1.62884 0.62602,-1.96704 -0.004,-0.51102 -0.19001,-0.89482 -0.56402,-1.15983 -0.15,-0.1082 -1.48143,-0.65462 -2.95627,-1.21623 -1.47483,-0.56161 -2.67306,-1.05782 -2.66266,-1.10343 0.0236,-0.1042 1.65004,-0.2842 2.83067,-0.3144 l 0.89302,-0.0226 1.64124,0.58501 c 1.43403,0.51001 1.65804,0.61441 1.76604,0.82182 0.068,0.1308 0.122,0.30621 0.12,0.39001 0,0.084 -0.26601,1.29643 -0.59001,2.69446 -0.56602,2.44826 -0.58202,2.54826 -0.43401,2.69827 0.234,0.236 2.52406,0.78801 3.23807,0.73201 0.81602,-0.062 2.48406,-0.57201 2.65407,-0.74201 0.136,-0.13801 0.11,-0.29401 -0.44401,-2.68887 -0.32401,-1.39803 -0.59002,-2.61066 -0.59202,-2.69446 0,-0.084 0.054,-0.26001 0.122,-0.39161 0.10801,-0.20701 0.32001,-0.30901 1.59604,-0.76362 2.05605,-0.73382 2.01405,-0.72782 3.88209,-0.55861 0.87203,0.0794 1.62004,0.177 1.66404,0.2178 0.044,0.0452 -0.006,0.10661 -0.128,0.15341 -0.114,0.0454 -1.31603,0.50401 -2.67206,1.02282 -1.35803,0.51921 -2.61006,1.03743 -2.78407,1.15223 -0.40801,0.2698 -0.60801,0.65521 -0.61001,1.18423 -0.002,0.3348 0.126,0.74001 0.61201,1.92144 0.33601,0.82322 0.61202,1.57524 0.61202,1.66924 0,0.38201 -0.27801,0.69002 -1.82605,2.01805 -0.89002,0.76402 -1.68004,1.50003 -1.75604,1.63804 -0.074,0.136 -0.118,0.34601 -0.096,0.46401 0.04,0.204 1.10603,1.25403 2.19005,2.16005 0.45601,0.38001 3.21608,2.14205 3.65809,2.21205 0.37001,0.06 0.76602,-0.50201 1.41403,-1.05002 0.63602,-0.53802 1.01403,-1.07403 1.27003,-1.80405 0.24201,-0.68401 0.18201,-1.14602 -0.29601,-2.25405 -0.364,-0.84602 -0.46001,-1.31203 -0.338,-1.62804 0.028,-0.076 1.01402,-1.02402 2.19005,-2.11405 2.56206,-2.37445 3.17407,-2.79966 3.31408,-3.22387 0.156,-0.47101 0.046,-1.09123 -0.30401,-1.71524 -0.83802,-1.49224 -4.3161,-6.16475 -4.61211,-6.16475 -1.52204,0.24781 -2.79407,0.79722 -4.3981,1.04962 -0.12601,2e-4 -0.66202,-0.1338 -1.19203,-0.2978 -2.25806,-0.69922 -2.99007,-0.75202 -3.42808,-0.75202 -0.43601,0 -1.17003,0.0528 -3.42808,0.75202 -0.52802,0.164 -1.07063,0.2978 -1.20363,0.2978 -1.57984,-0.2328 -2.75107,-0.86002 -4.38651,-1.05002 -0.255,0.1724 -2.51726,3.33748 -3.45388,4.72031 -1.10142,1.62624 -1.41283,1.83545 -1.50243,2.45446 -0.12521,0.86662 0.1934,1.01242 3.48408,4.0555 1.10682,1.02202 2.03505,1.91804 2.06265,1.99004 0.1234,0.32001 0.0258,0.80402 -0.33301,1.65204 -0.49301,1.16203 -0.53721,1.48604 -0.29921,2.18805 0.25861,0.76402 0.69722,1.38004 1.35963,1.91405 0.61602,0.49601 0.85442,0.99202 1.21783,1.00002 0.13001,0.004 0.86202,-0.66801 1.62664,-1.03402 z"
         style="fill:#ffffff;stroke-width:2.00005"
         id="path2680"
         sodipodi:nodetypes="ccccccsccccccccscccccccccccccccccccccscccccccccccccccscccscccccccc" />
    </g>
    <g
       id="g2928"
       transform="matrix(2,0,0,2,-288,-412)">
      <path
         d="m 307.203,229.5 -2.55223,2.56811 c -0.0339,0.011 -0.28329,-0.1949 -0.5552,-0.27397 -0.72909,-0.21182 -1.65479,-0.1756 -2.28367,0.10693 -0.41134,0.18482 -0.57081,0.31489 -1.54917,1.26568 -1.05462,1.02461 -1.26273,1.2705 -1.26273,1.48821 0,0.0565 0.38112,0.60643 0.56864,1.03715 l 0.34028,0.78364 -0.43724,1.18661 c -0.2405,0.65228 -0.44795,1.22228 -0.46269,1.26728 -0.0374,0.11465 3.37675,13.11857 3.55518,13.5375 0.32391,0.76072 0.83308,1.44215 1.49251,2.00143 0.5955,0.50357 6.63899,4.58357 7.23699,4.88464 0.17766,0.09 0.46258,0.14143 0.70633,0.14679 0.24375,-0.005 0.52867,-0.0568 0.70633,-0.14679 0.598,-0.30107 6.64192,-4.38107 7.23667,-4.88464 0.65975,-0.55928 1.16892,-1.24071 1.49283,-2.00143 0.17875,-0.41893 3.59234,-13.42285 3.5555,-13.5375 -0.0152,-0.045 -0.22208,-0.615 -0.46258,-1.26728 l -0.43767,-1.18661 0.34017,-0.78364 C 324.61867,235.26139 325,234.71143 325,234.65496 c 0,-0.21771 -0.208,-0.4636 -1.26317,-1.48821 -0.97825,-0.95079 -1.1375,-1.08086 -1.54916,-1.26568 -0.62834,-0.28253 -1.55459,-0.31875 -2.28367,-0.10693 -0.27192,0.0791 -0.52108,0.285 -0.55467,0.27397 L 316.797,229.5 Z"
         style="opacity:0.2;fill:#000000;stroke-width:1.07736"
         id="path2791"
         sodipodi:nodetypes="cccscscccccccccccccccscccccc" />
      <path
         d="m 307.203,229 -2.55223,2.56811 c -0.0339,0.011 -0.28329,-0.1949 -0.5552,-0.27397 -0.72909,-0.21182 -1.65479,-0.1756 -2.28367,0.10693 -0.41134,0.18482 -0.57081,0.31489 -1.54917,1.26568 -1.05462,1.02461 -1.26273,1.2705 -1.26273,1.48821 0,0.0565 0.38112,0.60643 0.56864,1.03715 l 0.34028,0.78364 -0.43724,1.18661 c -0.2405,0.65228 -0.44795,1.22228 -0.46269,1.26728 -0.0374,0.11465 3.37675,13.11857 3.55518,13.5375 0.32391,0.76072 0.83308,1.44215 1.49251,2.00143 0.5955,0.50357 6.63899,4.58357 7.23699,4.88464 0.17766,0.09 0.46258,0.14143 0.70633,0.14679 0.24375,-0.005 0.52867,-0.0568 0.70633,-0.14679 0.598,-0.30107 6.64192,-4.38107 7.23667,-4.88464 0.65975,-0.55928 1.16892,-1.24071 1.49283,-2.00143 0.17875,-0.41893 3.59234,-13.42285 3.5555,-13.5375 -0.0152,-0.045 -0.22208,-0.615 -0.46258,-1.26728 l -0.43767,-1.18661 0.34017,-0.78364 C 324.61867,234.76139 325,234.21143 325,234.15496 c 0,-0.21771 -0.208,-0.4636 -1.26317,-1.48821 -0.97825,-0.95079 -1.1375,-1.08086 -1.54916,-1.26568 -0.62834,-0.28253 -1.55459,-0.31875 -2.28367,-0.10693 -0.27192,0.0791 -0.52108,0.285 -0.55467,0.27397 L 316.797,229 Z"
         style="fill:#ab47bc;stroke-width:1.07736;fill-opacity:1"
         id="path2763"
         sodipodi:nodetypes="cccscscccccccccccccccscccccc" />
      <path
         d="m 313.12795,251.747 c 0,0 1.227,-0.809 2.32,-1.59 0.614,-0.44 0.711,-0.552 0.611,-0.707 -0.081,-0.125 -2.063,-1.1 -3.011,-1.481 -0.997,-0.401 -1.102,-0.401 -2.069,-0.008 -0.867,0.352 -2.819,1.317 -2.982,1.474 -0.17,0.163 -0.084,0.313 0.342,0.601 0.877,0.594 2.56,1.736 2.56,1.736 1.145,0.974 1.056,0.975 2.229,-0.024 z m -4.599,-3.487 c 1.19,-0.559 1.368,-0.675 2.277,-1.48 0.765,-0.677 0.907,-0.879 0.798,-1.135 -0.037,-0.087 -0.612,-0.617 -1.277,-1.178 -1.573,-1.325 -1.507,-1.138 -0.909,-2.577 0.356,-0.854 0.448,-1.14 0.447,-1.377 -0.002,-0.358 -0.135,-0.627 -0.402,-0.812 -0.108,-0.076 -1.058,-0.459 -2.112,-0.852 -1.053,-0.3927 -1.909,-0.7403 -1.9016,-0.7721 0.0168,-0.0728 1.1786,-0.1992 2.0216,-0.2201 l 0.638,-0.0159 1.173,0.4093 c 1.023,0.3568 1.184,0.4308 1.261,0.5758 0.048,0.091 0.087,0.214 0.086,0.273 -10e-4,0.058 -0.19,0.907 -0.421,1.886 -0.405,1.714 -0.416,1.783 -0.311,1.888 0.167,0.166 1.802,0.552 2.313,0.513 0.583,-0.044 1.775,-0.4 1.895,-0.519 0.098,-0.097 0.079,-0.206 -0.317,-1.882 -0.231,-0.979 -0.421,-1.828 -0.422,-1.886 -10e-4,-0.059 0.038,-0.183 0.087,-0.275 0.077,-0.145 0.228,-0.216 1.139,-0.5342 1.469,-0.5137 1.439,-0.5095 2.774,-0.391 0.623,0.0553 1.157,0.1238 1.188,0.1524 0.032,0.0307 -0.005,0.0749 -0.092,0.1074 -0.08,0.0305 -0.939,0.3524 -1.908,0.7164 -0.969,0.363 -1.864,0.726 -1.988,0.806 -0.292,0.189 -0.434,0.459 -0.436,0.829 -0.002,0.235 0.091,0.519 0.436,1.346 0.242,0.576 0.439,1.102 0.439,1.168 0,0.268 -0.2,0.484 -1.306,1.413 -0.635,0.534 -1.199,1.05 -1.253,1.146 -0.054,0.096 -0.085,0.243 -0.068,0.326 0.028,0.142 0.788,0.878 1.564,1.511 0.325,0.266 2.297,1.5 2.612,1.55 0.265,0.042 0.548,-0.353 1.01,-0.736 0.454,-0.376 0.724,-0.752 0.908,-1.263 0.172,-0.479 0.129,-0.802 -0.212,-1.578 -0.26,-0.592 -0.329,-0.918 -0.242,-1.14 0.02,-0.051 0.724,-0.717 1.565,-1.48 1.83,-1.662 2.267,-1.96 2.368,-2.257 0.111,-0.329 0.032,-1.263 -0.218,-1.7 -0.598,-1.0448 -3.083,-4.3159 -3.294,-4.3159 -1.087,0.1738 -1.997,0.5582 -3.142,0.7348 -0.09,1e-4 -0.473,-0.0934 -0.851,-0.2082 -1.613,-0.4892 -2.136,-0.5267 -2.449,-0.5267 -0.312,0 -0.835,0.0373 -2.448,0.5267 -0.378,0.1145 -0.765,0.2084 -0.86,0.2084 -1.129,-0.1632 -1.965,-0.6019 -3.1333,-0.735 -0.1821,0.1206 -1.798,2.3365 -2.467,3.3047 -0.7867,1.1382 -1.0091,1.7842 -1.0731,2.2182 -0.0895,0.606 0.1381,0.708 2.4885,2.838 0.7906,0.717 1.4536,1.344 1.4733,1.394 0.0886,0.225 0.0185,0.563 -0.2379,1.156 -0.3521,0.814 -0.3836,1.041 -0.2137,1.532 0.1848,0.535 0.4982,0.967 0.9712,1.341 0.44,0.347 0.61,0.694 0.87,0.7 0.093,0.002 0.616,-0.468 1.162,-0.724 z"
         style="opacity:0.2;fill:#000000"
         id="path2903" />
      <path
         id="path2819"
         style="opacity:0.1;fill:#ffffff;stroke-width:1.07736"
         d="m 307.20312,229 -2.55273,2.56836 c -0.0339,0.011 -0.28278,-0.19437 -0.55469,-0.27344 -0.72909,-0.21182 -1.65432,-0.17706 -2.2832,0.10547 -0.41134,0.18482 -0.57047,0.31484 -1.54883,1.26563 -1.05462,1.0246 -1.26367,1.27057 -1.26367,1.48828 0,0.0194 0.0527,0.10994 0.11914,0.2207 0.14372,-0.21383 0.45341,-0.53753 1.14453,-1.20898 0.97836,-0.95079 1.13749,-1.08081 1.54883,-1.26563 0.62888,-0.28253 1.55411,-0.31729 2.2832,-0.10547 0.27191,0.0791 0.52079,0.28444 0.55469,0.27344 L 307.20312,229.5 h 9.59376 l 2.55273,2.56836 c 0.0336,0.011 0.28277,-0.19434 0.55469,-0.27344 0.72908,-0.21182 1.65486,-0.17706 2.2832,0.10547 0.41166,0.18482 0.57058,0.31484 1.54883,1.26563 0.69148,0.67145 1.0008,0.99515 1.14453,1.20898 0.0668,-0.11122 0.11914,-0.20128 0.11914,-0.2207 0,-0.21771 -0.2085,-0.46368 -1.26367,-1.48828 -0.97825,-0.95079 -1.13717,-1.08081 -1.54883,-1.26563 -0.62834,-0.28253 -1.55412,-0.31729 -2.2832,-0.10547 -0.27192,0.0791 -0.5211,0.28447 -0.55469,0.27344 L 316.79688,229 Z m -7.39453,7.24609 -0.33593,0.91602 c -0.2405,0.65228 -0.44815,1.22258 -0.46289,1.26758 -0.002,0.007 0.0457,0.20055 0.0703,0.30859 0.0589,-0.1643 0.18842,-0.52246 0.39258,-1.07617 l 0.43554,-1.18555 z m 24.38282,0 -0.0996,0.23047 0.4375,1.18555 c 0.20416,0.55371 0.33356,0.91187 0.39258,1.07617 0.0246,-0.10804 0.0727,-0.30119 0.0703,-0.30859 -0.0152,-0.045 -0.22239,-0.6153 -0.46289,-1.26758 z" />
      <path
         d="m 313.12795,251.247 c 0,0 1.227,-0.809 2.32,-1.59 0.614,-0.44 0.711,-0.552 0.611,-0.707 -0.081,-0.125 -2.063,-1.1 -3.011,-1.481 -0.997,-0.401 -1.102,-0.401 -2.069,-0.008 -0.867,0.352 -2.819,1.317 -2.982,1.474 -0.17,0.163 -0.084,0.313 0.342,0.601 0.877,0.594 2.56,1.736 2.56,1.736 1.145,0.974 1.056,0.975 2.229,-0.024 z m -4.599,-3.487 c 1.19,-0.559 1.368,-0.675 2.277,-1.48 0.765,-0.677 0.907,-0.879 0.798,-1.135 -0.037,-0.087 -0.612,-0.617 -1.277,-1.178 -1.573,-1.325 -1.507,-1.138 -0.909,-2.577 0.356,-0.854 0.448,-1.14 0.447,-1.377 -0.002,-0.358 -0.135,-0.627 -0.402,-0.812 -0.108,-0.076 -1.058,-0.459 -2.112,-0.852 -1.053,-0.3927 -1.909,-0.7403 -1.9016,-0.7721 0.0168,-0.0728 1.1786,-0.1992 2.0216,-0.2201 l 0.638,-0.0159 1.173,0.4093 c 1.023,0.3568 1.184,0.4308 1.261,0.5758 0.048,0.091 0.087,0.214 0.086,0.273 -10e-4,0.058 -0.19,0.907 -0.421,1.886 -0.405,1.714 -0.416,1.783 -0.311,1.888 0.167,0.166 1.802,0.552 2.313,0.513 0.583,-0.044 1.775,-0.4 1.895,-0.519 0.098,-0.097 0.079,-0.206 -0.317,-1.882 -0.231,-0.979 -0.421,-1.828 -0.422,-1.886 -10e-4,-0.059 0.038,-0.183 0.087,-0.275 0.077,-0.145 0.228,-0.216 1.139,-0.5342 1.469,-0.5137 1.439,-0.5095 2.774,-0.391 0.623,0.0553 1.157,0.1238 1.188,0.1524 0.032,0.0307 -0.005,0.0749 -0.092,0.1074 -0.08,0.0305 -0.939,0.3524 -1.908,0.7164 -0.969,0.363 -1.864,0.726 -1.988,0.806 -0.292,0.189 -0.434,0.459 -0.436,0.829 -0.002,0.235 0.091,0.519 0.436,1.346 0.242,0.576 0.439,1.102 0.439,1.168 0,0.268 -0.2,0.484 -1.306,1.413 -0.635,0.534 -1.199,1.05 -1.253,1.146 -0.054,0.096 -0.085,0.243 -0.068,0.326 0.028,0.142 0.788,0.878 1.564,1.511 0.325,0.266 2.297,1.5 2.612,1.55 0.265,0.042 0.548,-0.353 1.01,-0.736 0.454,-0.376 0.724,-0.752 0.908,-1.263 0.172,-0.479 0.129,-0.802 -0.212,-1.578 -0.26,-0.592 -0.329,-0.918 -0.242,-1.14 0.02,-0.051 0.724,-0.717 1.565,-1.48 1.83,-1.662 2.267,-1.96 2.368,-2.257 0.111,-0.329 0.032,-1.263 -0.218,-1.7 -0.598,-1.0448 -3.083,-4.3159 -3.294,-4.3159 -1.087,0.1738 -1.997,0.5582 -3.142,0.7348 -0.09,1e-4 -0.473,-0.0934 -0.851,-0.2082 -1.613,-0.4892 -2.136,-0.5267 -2.449,-0.5267 -0.312,0 -0.835,0.0373 -2.448,0.5267 -0.378,0.1145 -0.765,0.2084 -0.86,0.2084 -1.129,-0.1632 -1.965,-0.6019 -3.1333,-0.735 -0.1821,0.1206 -1.798,2.3365 -2.467,3.3047 -0.7867,1.1382 -1.0091,1.7842 -1.0731,2.2182 -0.0895,0.606 0.1381,0.708 2.4885,2.838 0.7906,0.717 1.4536,1.344 1.4733,1.394 0.0886,0.225 0.0185,0.563 -0.2379,1.156 -0.3521,0.814 -0.3836,1.041 -0.2137,1.532 0.1848,0.535 0.4982,0.967 0.9712,1.341 0.44,0.347 0.61,0.694 0.87,0.7 0.093,0.002 0.616,-0.468 1.162,-0.724 z"
         style="fill:#ffffff"
         id="path2875"
         sodipodi:nodetypes="ccccccccccccsccccscccccscccccsccsccccccscsccscccsccccccsccccccsccccc" />
    </g>
    <g
       id="g3259"
       transform="matrix(4,0,0,4,-1136,-531.99999)">
      <path
         d="m 313.35742,151.5 -3.5332,4.54492 c -0.047,0.016 -0.39293,-0.27416 -0.76953,-0.38476 -1.0096,-0.29662 -2.29131,-0.24523 -3.16211,0.15039 -0.5696,0.2588 -0.78993,0.44046 -2.14453,1.77148 C 302.28785,159.01647 302,159.19538 302,159.5 c 0,0.079 0.52731,1.01417 0.78711,1.61719 l 0.4707,1.09765 -0.60547,1.66211 c -0.3328,0.91342 -0.62022,1.71064 -0.64062,1.77344 -0.0516,0.1602 4.67683,17.41789 4.92383,18.00391 0.4484,1.06402 1.1532,2.01876 2.0664,2.80078 0.8246,0.706 9.19154,6.41784 10.01953,6.83984 0.246,0.126 0.64052,0.19706 0.97852,0.20508 0.338,-0.008 0.73252,-0.0791 0.97852,-0.20508 0.82799,-0.422 9.19553,-6.13384 10.01953,-6.83984 0.914,-0.78202 1.6184,-1.73676 2.0664,-2.80078 0.248,-0.58602 4.97583,-17.84371 4.92383,-18.00391 -0.02,-0.0628 -0.30858,-0.86002 -0.64258,-1.77344 l -0.60351,-1.66211 0.4707,-1.09765 C 337.47289,160.51417 338,159.579 338,159.5 c 0,-0.30462 -0.28805,-0.48353 -1.74805,-1.91797 -1.356,-1.33102 -1.57648,-1.51268 -2.14648,-1.77148 -0.87,-0.39562 -2.15211,-0.44701 -3.16211,-0.15039 -0.376,0.1106 -0.72158,0.40016 -0.76758,0.38476 L 326.64258,151.5 Z"
         style="opacity:0.2;fill:#000000;stroke-width:2.00002"
         id="path3094" />
      <path
         d="m 313.35742,151 -3.5332,4.54492 c -0.047,0.016 -0.39293,-0.27416 -0.76953,-0.38476 -1.0096,-0.29662 -2.29131,-0.24523 -3.16211,0.15039 -0.5696,0.2588 -0.78993,0.44046 -2.14453,1.77148 C 302.28785,158.51647 302,158.69538 302,159 c 0,0.079 0.52731,1.01417 0.78711,1.61719 l 0.4707,1.09765 -0.60547,1.66211 c -0.3328,0.91342 -0.62022,1.71064 -0.64062,1.77344 -0.0516,0.1602 4.67683,17.41789 4.92383,18.00391 0.4484,1.06402 1.1532,2.01876 2.0664,2.80078 0.8246,0.706 9.19154,6.41784 10.01953,6.83984 0.246,0.126 0.64052,0.19706 0.97852,0.20508 0.338,-0.008 0.73252,-0.0791 0.97852,-0.20508 0.82799,-0.422 9.19553,-6.13384 10.01953,-6.83984 0.914,-0.78202 1.6184,-1.73676 2.0664,-2.80078 0.248,-0.58602 4.97583,-17.84371 4.92383,-18.00391 -0.02,-0.0628 -0.30858,-0.86002 -0.64258,-1.77344 l -0.60351,-1.66211 0.4707,-1.09765 C 337.47289,160.01417 338,159.079 338,159 c 0,-0.30462 -0.28805,-0.48353 -1.74805,-1.91797 -1.356,-1.33102 -1.57648,-1.51268 -2.14648,-1.77148 -0.87,-0.39562 -2.15211,-0.44701 -3.16211,-0.15039 -0.376,0.1106 -0.72158,0.40016 -0.76758,0.38476 L 326.64258,151 Z"
         style="fill:#ab47bc;stroke-width:2.00002;fill-opacity:1"
         id="path3122"
         sodipodi:nodetypes="cccscsccccsccccccccccscccccc" />
      <path
         d="m 324.82649,180.15051 c 0.86202,-0.62801 0.99802,-0.78802 0.85602,-1.01002 -0.112,-0.17801 -2.88807,-1.57004 -4.2161,-2.11405 -1.39403,-0.57402 -1.54204,-0.57402 -2.89607,-0.008 -1.21403,0.50201 -3.94569,1.88004 -4.1749,2.10605 -0.2368,0.232 -0.1176,0.44601 0.47902,0.85802 1.72584,0.80202 3.12587,2.51806 5.12392,2.51806 2.00204,0 3.17607,-1.49004 4.82811,-2.35006 z m -9.68603,-2.71006 c 1.66584,-0.79802 1.91585,-0.96402 3.18788,-2.11405 1.07202,-0.96602 1.27003,-1.25403 1.11802,-1.62004 -0.052,-0.124 -0.85602,-0.88202 -1.78804,-1.68204 -2.20285,-1.89404 -2.11065,-1.62804 -1.27203,-3.68209 0.49801,-1.22043 0.62602,-1.62884 0.62602,-1.96704 -0.004,-0.51102 -0.19001,-0.89482 -0.56402,-1.15983 -0.15,-0.1082 -1.48143,-0.65462 -2.95627,-1.21623 -1.47483,-0.56161 -2.67306,-1.05782 -2.66266,-1.10343 0.0236,-0.1042 1.65004,-0.2842 2.83067,-0.3144 l 0.89302,-0.0226 1.64124,0.58501 c 1.43403,0.51001 1.65804,0.61441 1.76604,0.82182 0.068,0.1308 0.122,0.30621 0.12,0.39001 0,0.084 -0.26601,1.29643 -0.59001,2.69446 -0.56602,2.44826 -0.58202,2.54826 -0.43401,2.69827 0.234,0.236 2.52406,0.78801 3.23807,0.73201 0.81602,-0.062 2.48406,-0.57201 2.65407,-0.74201 0.136,-0.13801 0.11,-0.29401 -0.44401,-2.68887 -0.32401,-1.39803 -0.59002,-2.61066 -0.59202,-2.69446 0,-0.084 0.054,-0.26001 0.122,-0.39161 0.10801,-0.20701 0.32001,-0.30901 1.59604,-0.76362 2.05605,-0.73382 2.01405,-0.72782 3.88209,-0.55861 0.87203,0.0794 1.62004,0.177 1.66404,0.2178 0.044,0.0452 -0.006,0.10661 -0.128,0.15341 -0.114,0.0454 -1.31603,0.50401 -2.67206,1.02282 -1.35803,0.51921 -2.61006,1.03743 -2.78407,1.15223 -0.40801,0.2698 -0.60801,0.65521 -0.61001,1.18423 -0.002,0.3348 0.126,0.74001 0.61201,1.92144 0.33601,0.82322 0.61202,1.57524 0.61202,1.66924 0,0.38201 -0.27801,0.69002 -1.82605,2.01805 -0.89002,0.76402 -1.68004,1.50003 -1.75604,1.63804 -0.074,0.136 -0.118,0.34601 -0.096,0.46401 0.04,0.204 1.10603,1.25403 2.19005,2.16005 0.45601,0.38001 3.21608,2.14205 3.65809,2.21205 0.37001,0.06 0.76602,-0.50201 1.41403,-1.05002 0.63602,-0.53802 1.01403,-1.07403 1.27003,-1.80405 0.24201,-0.68401 0.18201,-1.14602 -0.29601,-2.25405 -0.364,-0.84602 -0.46001,-1.31203 -0.338,-1.62804 0.028,-0.076 1.01402,-1.02402 2.19005,-2.11405 2.56206,-2.37445 3.17407,-2.79966 3.31408,-3.22387 0.156,-0.47101 0.046,-1.09123 -0.30401,-1.71524 -0.83802,-1.49224 -4.3161,-6.16475 -4.61211,-6.16475 -1.52204,0.24781 -2.79407,0.79722 -4.3981,1.04962 -0.12601,2e-4 -0.66202,-0.1338 -1.19203,-0.2978 -2.25806,-0.69922 -2.99007,-0.75202 -3.42808,-0.75202 -0.43601,0 -1.17003,0.0528 -3.42808,0.75202 -0.52802,0.164 -1.07063,0.2978 -1.20363,0.2978 -1.57984,-0.2328 -2.75107,-0.86002 -4.38651,-1.05002 -0.255,0.1724 -2.51726,3.33748 -3.45388,4.72031 -1.10142,1.62624 -1.41283,1.83545 -1.50243,2.45446 -0.12521,0.86662 0.1934,1.01242 3.48408,4.0555 1.10682,1.02202 2.03505,1.91804 2.06265,1.99004 0.1234,0.32001 0.0258,0.80402 -0.33301,1.65204 -0.49301,1.16203 -0.53721,1.48604 -0.29921,2.18805 0.25861,0.76402 0.69722,1.38004 1.35963,1.91405 0.61602,0.49601 0.85442,0.99202 1.21783,1.00002 0.13001,0.004 0.86202,-0.66801 1.62664,-1.03402 z"
         style="opacity:0.2;fill:#000000;stroke-width:2.00005"
         id="path3206" />
      <path
         d="m 324.82649,179.65051 c 0.86202,-0.62801 0.99802,-0.78802 0.85602,-1.01002 -0.112,-0.17801 -2.88807,-1.57004 -4.2161,-2.11405 -1.39403,-0.57402 -1.54204,-0.57402 -2.89607,-0.008 -1.21403,0.50201 -3.94569,1.88004 -4.1749,2.10605 -0.2368,0.232 -0.1176,0.44601 0.47902,0.85802 1.72584,0.80202 3.12587,2.51806 5.12392,2.51806 2.00204,0 3.17607,-1.49004 4.82811,-2.35006 z m -9.68603,-2.71006 c 1.66584,-0.79802 1.91585,-0.96402 3.18788,-2.11405 1.07202,-0.96602 1.27003,-1.25403 1.11802,-1.62004 -0.052,-0.124 -0.85602,-0.88202 -1.78804,-1.68204 -2.20285,-1.89404 -2.11065,-1.62804 -1.27203,-3.68209 0.49801,-1.22043 0.62602,-1.62884 0.62602,-1.96704 -0.004,-0.51102 -0.19001,-0.89482 -0.56402,-1.15983 -0.15,-0.1082 -1.48143,-0.65462 -2.95627,-1.21623 -1.47483,-0.56161 -2.67306,-1.05782 -2.66266,-1.10343 0.0236,-0.1042 1.65004,-0.2842 2.83067,-0.3144 l 0.89302,-0.0226 1.64124,0.58501 c 1.43403,0.51001 1.65804,0.61441 1.76604,0.82182 0.068,0.1308 0.122,0.30621 0.12,0.39001 0,0.084 -0.26601,1.29643 -0.59001,2.69446 -0.56602,2.44826 -0.58202,2.54826 -0.43401,2.69827 0.234,0.236 2.52406,0.78801 3.23807,0.73201 0.81602,-0.062 2.48406,-0.57201 2.65407,-0.74201 0.136,-0.13801 0.11,-0.29401 -0.44401,-2.68887 -0.32401,-1.39803 -0.59002,-2.61066 -0.59202,-2.69446 0,-0.084 0.054,-0.26001 0.122,-0.39161 0.10801,-0.20701 0.32001,-0.30901 1.59604,-0.76362 2.05605,-0.73382 2.01405,-0.72782 3.88209,-0.55861 0.87203,0.0794 1.62004,0.177 1.66404,0.2178 0.044,0.0452 -0.006,0.10661 -0.128,0.15341 -0.114,0.0454 -1.31603,0.50401 -2.67206,1.02282 -1.35803,0.51921 -2.61006,1.03743 -2.78407,1.15223 -0.40801,0.2698 -0.60801,0.65521 -0.61001,1.18423 -0.002,0.3348 0.126,0.74001 0.61201,1.92144 0.33601,0.82322 0.61202,1.57524 0.61202,1.66924 0,0.38201 -0.27801,0.69002 -1.82605,2.01805 -0.89002,0.76402 -1.68004,1.50003 -1.75604,1.63804 -0.074,0.136 -0.118,0.34601 -0.096,0.46401 0.04,0.204 1.10603,1.25403 2.19005,2.16005 0.45601,0.38001 3.21608,2.14205 3.65809,2.21205 0.37001,0.06 0.76602,-0.50201 1.41403,-1.05002 0.63602,-0.53802 1.01403,-1.07403 1.27003,-1.80405 0.24201,-0.68401 0.18201,-1.14602 -0.29601,-2.25405 -0.364,-0.84602 -0.46001,-1.31203 -0.338,-1.62804 0.028,-0.076 1.01402,-1.02402 2.19005,-2.11405 2.56206,-2.37445 3.17407,-2.79966 3.31408,-3.22387 0.156,-0.47101 0.046,-1.09123 -0.30401,-1.71524 -0.83802,-1.49224 -4.3161,-6.16475 -4.61211,-6.16475 -1.52204,0.24781 -2.79407,0.79722 -4.3981,1.04962 -0.12601,2e-4 -0.66202,-0.1338 -1.19203,-0.2978 -2.25806,-0.69922 -2.99007,-0.75202 -3.42808,-0.75202 -0.43601,0 -1.17003,0.0528 -3.42808,0.75202 -0.52802,0.164 -1.07063,0.2978 -1.20363,0.2978 -1.57984,-0.2328 -2.75107,-0.86002 -4.38651,-1.05002 -0.255,0.1724 -2.51726,3.33748 -3.45388,4.72031 -1.10142,1.62624 -1.41283,1.83545 -1.50243,2.45446 -0.12521,0.86662 0.1934,1.01242 3.48408,4.0555 1.10682,1.02202 2.03505,1.91804 2.06265,1.99004 0.1234,0.32001 0.0258,0.80402 -0.33301,1.65204 -0.49301,1.16203 -0.53721,1.48604 -0.29921,2.18805 0.25861,0.76402 0.69722,1.38004 1.35963,1.91405 0.61602,0.49601 0.85442,0.99202 1.21783,1.00002 0.13001,0.004 0.86202,-0.66801 1.62664,-1.03402 z"
         style="fill:#ffffff;stroke-width:2.00005"
         id="path3234" />
      <path
         id="path3150"
         style="opacity:0.1;fill:#ffffff;stroke-width:2.00002"
         d="m 313.35742,151 -3.5332,4.54492 c -0.047,0.016 -0.39293,-0.27416 -0.76953,-0.38476 -1.0096,-0.29662 -2.29131,-0.24523 -3.16211,0.15039 -0.5696,0.2588 -0.78993,0.44046 -2.14453,1.77148 C 302.28785,158.51647 302,158.69538 302,159 c 0,0.0145 0.0787,0.15962 0.10938,0.22461 0.17116,-0.24697 0.60141,-0.62362 1.63867,-1.64258 1.3546,-1.33102 1.57493,-1.51268 2.14453,-1.77148 0.8708,-0.39562 2.15251,-0.44701 3.16211,-0.15039 0.3766,0.1106 0.72253,0.40076 0.76953,0.38476 l 3.5332,-4.54492 h 13.28516 l 3.5332,4.54492 c 0.046,0.0154 0.39158,-0.27416 0.76758,-0.38476 1.01,-0.29662 2.29211,-0.24523 3.16211,0.15039 0.57,0.2588 0.79048,0.44046 2.14648,1.77148 1.03712,1.01896 1.46747,1.39561 1.63867,1.64258 C 337.92131,159.15962 338,159.01452 338,159 c 0,-0.30462 -0.28805,-0.48353 -1.74805,-1.91797 -1.356,-1.33102 -1.57648,-1.51268 -2.14648,-1.77148 -0.87,-0.39562 -2.15211,-0.44701 -3.16211,-0.15039 -0.376,0.1106 -0.72158,0.40016 -0.76758,0.38476 L 326.64258,151 Z m -10.19726,10.98438 -0.50782,1.39257 c -0.3328,0.91342 -0.62022,1.71064 -0.64062,1.77344 -0.002,0.008 0.054,0.22116 0.0723,0.30273 0.0686,-0.1944 0.27264,-0.76452 0.56836,-1.57617 l 0.60547,-1.66211 z m 33.67968,0.002 -0.0976,0.22851 0.60351,1.66211 c 0.29725,0.8129 0.50427,1.38505 0.57227,1.57813 0.0184,-0.0824 0.0728,-0.29702 0.0703,-0.30469 -0.02,-0.0628 -0.30858,-0.86002 -0.64258,-1.77344 z" />
    </g>
  </g>
  <g
     id="Highlights">
    <path
       id="rect653"
       style="opacity:0.2;fill:#ffffff"
       d="M 80,44 C 53.408027,44 32,65.408027 32,92 v 2 C 32,67.408027 53.408027,46 80,46 h 128 c 26.59197,0 48,21.408027 48,48 V 92 C 256,65.408027 234.59197,44 208,44 Z"
       sodipodi:nodetypes="sscsscsss" />
    <path
       id="rect773"
       style="opacity:0.2;fill:#ffffff"
       d="m 312,34 c -9.97199,0 -18,8.02801 -18,18 v 1 c 0,-9.97199 8.02801,-18 18,-18 h 48 c 9.97199,0 18,8.02801 18,18 v -1 c 0,-9.97199 -8.02801,-18 -18,-18 z" />
    <path
       id="rect1135"
       style="opacity:0.2;fill:#ffffff;fill-opacity:1"
       d="m 304,144 c -6.64799,0 -12,5.35201 -12,12 v 1 c 0,-6.64799 5.35201,-12 12,-12 h 32 c 6.64799,0 12,5.35201 12,12 v -1 c 0,-6.64799 -5.35201,-12 -12,-12 z" />
    <path
       id="rect1265"
       style="opacity:0.2;fill:#ffffff;fill-opacity:1"
       d="m 300,223 c -4.986,0 -9,4.014 -9,9 v 1 c 0,-4.986 4.014,-9 9,-9 h 24 c 4.986,0 9,4.014 9,9 v -1 c 0,-4.986 -4.014,-9 -9,-9 z" />
    <path
       id="rect1368"
       style="opacity:0.2;fill:#ffffff;fill-opacity:1"
       d="m 424,54 c -3.324,0 -6,2.676003 -6,6 v 1 c 0,-3.323997 2.676,-6 6,-6 h 16 c 3.324,0 6,2.676003 6,6 v -1 c 0,-3.323997 -2.676,-6 -6,-6 z" />
    <path
       id="rect1402"
       style="opacity:0.2;fill:#ffffff;fill-opacity:1"
       d="m 420,140 c -2.216,0 -4,1.784 -4,4 v 1 c 0,-2.216 1.784,-4 4,-4 h 8 c 2.216,0 4,1.784 4,4 v -1 c 0,-2.216 -1.784,-4 -4,-4 z" />
    <path
       id="rect1436"
       style="opacity:0.2;fill:#ffffff;fill-opacity:1"
       d="m 422,102 c -2.216,0 -4,1.784 -4,4 v 1 c 0,-2.216 1.784,-4 4,-4 h 12 c 2.216,0 4,1.784 4,4 v -1 c 0,-2.216 -1.784,-4 -4,-4 z" />
  </g>
</svg>
