<?xml version="1.0" encoding="UTF-8" standalone="no"?>
<!-- Created with Inkscape (http://www.inkscape.org/) -->

<svg
   width="480"
   height="300"
   viewBox="0 0 480 300"
   version="1.1"
   id="svg5"
   inkscape:version="1.2.2 (1:1.2.2+202305151914+b0a8486541)"
   sodipodi:docname="ccstudio.svg"
   xmlns:inkscape="http://www.inkscape.org/namespaces/inkscape"
   xmlns:sodipodi="http://sodipodi.sourceforge.net/DTD/sodipodi-0.dtd"
   xmlns="http://www.w3.org/2000/svg"
   xmlns:svg="http://www.w3.org/2000/svg">
  <sodipodi:namedview
     id="namedview7"
     pagecolor="#888888"
     bordercolor="#000000"
     borderopacity="0.25"
     inkscape:showpageshadow="true"
     inkscape:pageopacity="0"
     inkscape:pagecheckerboard="0"
     inkscape:deskcolor="#888888"
     inkscape:document-units="px"
     showgrid="false"
     showborder="false"
     inkscape:zoom="2.6866667"
     inkscape:cx="240.07444"
     inkscape:cy="150"
     inkscape:window-width="1920"
     inkscape:window-height="1008"
     inkscape:window-x="0"
     inkscape:window-y="0"
     inkscape:window-maximized="1"
     inkscape:current-layer="svg5"
     showguides="false" />
  <defs
     id="defs2" />
  <g
     id="Baseplate"
     style="display:none">
    <text
       y="19.774782"
       xml:space="preserve"
       x="15.006946"
       style="font-style:normal;font-variant:normal;font-weight:normal;font-stretch:normal;line-height:0%;font-family:'DejaVu Sans';-inkscape-font-specification:'DejaVu Sans';display:inline;fill:#000000;fill-opacity:1;stroke:none;enable-background:new"
       inkscape:label="context"
       id="context"><tspan
         style="font-style:normal;font-variant:normal;font-weight:normal;font-stretch:normal;font-size:18px;line-height:1.25;font-family:'DejaVu Sans';-inkscape-font-specification:'DejaVu Sans'"
         y="19.774782"
         x="15.006946"
         sodipodi:role="line"
         id="tspan3933">apps</tspan></text>
    <text
       y="19.774782"
       xml:space="preserve"
       x="122.48839"
       style="font-style:normal;font-variant:normal;font-weight:bold;font-stretch:normal;line-height:0%;font-family:'DejaVu Sans';-inkscape-font-specification:'DejaVu Sans Bold';text-align:start;writing-mode:lr-tb;text-anchor:start;display:inline;fill:#000000;fill-opacity:1;stroke:none;enable-background:new"
       inkscape:label="icon-name"
       id="icon-name"><tspan
         style="font-style:normal;font-variant:normal;font-weight:bold;font-stretch:normal;font-size:18px;line-height:1.25;font-family:'DejaVu Sans';-inkscape-font-specification:'DejaVu Sans Bold'"
         y="19.774782"
         x="122.48839"
         sodipodi:role="line"
         id="tspan3937">ccstudio</tspan></text>
    <rect
       style="fill:#ffffff"
       id="256x256"
       width="256"
       height="256"
       x="16"
       y="28" />
    <rect
       style="fill:#ffffff"
       id="96x96"
       width="96"
       height="96"
       x="288"
       y="28" />
    <rect
       style="fill:#ffffff"
       id="64x64"
       width="64"
       height="64"
       x="288"
       y="140" />
    <rect
       style="fill:#ffffff"
       id="48x48"
       width="48"
       height="48"
       x="288"
       y="220" />
    <rect
       style="fill:#ffffff"
       id="32x32"
       width="32"
       height="32"
       x="416"
       y="52" />
    <rect
       style="fill:#ffffff"
       id="24x24"
       width="24"
       height="24"
       x="416"
       y="100" />
    <rect
       style="fill:#ffffff"
       id="22x22"
       width="22"
       height="22"
       x="417"
       y="101" />
    <rect
       style="fill:#ffffff"
       id="16x16"
       width="16"
       height="16"
       x="416"
       y="140" />
  </g>
  <g
     id="Shadow"
     style="display:inline">
    <rect
       style="opacity:0.2;fill:#000000"
       id="rect651"
       width="224"
       height="224"
       x="32"
       y="46"
       ry="48" />
    <rect
       style="opacity:0.2;fill:#000000"
       id="rect769"
       width="84"
       height="85"
       x="294"
       y="34"
       ry="18" />
    <rect
       style="opacity:0.2;fill:#000000;fill-opacity:1"
       id="rect1131"
       width="56"
       height="56"
       x="292"
       y="145"
       ry="12" />
    <rect
       style="opacity:0.2;fill:#000000;fill-opacity:1"
       id="rect1261"
       width="42"
       height="42"
       x="291"
       y="224"
       ry="9" />
    <rect
       style="opacity:0.2;fill:#000000;fill-opacity:1"
       id="rect1364"
       width="28"
       height="29"
       x="418"
       y="54"
       ry="6" />
    <rect
       style="opacity:0.2;fill:#000000;fill-opacity:1"
       id="rect1398"
       width="16"
       height="16"
       x="416"
       y="141"
       ry="4" />
    <rect
       style="opacity:0.2;fill:#000000;fill-opacity:1"
       id="rect1432"
       width="20"
       height="20"
       x="418"
       y="103"
       ry="4" />
  </g>
  <g
     id="Background">
    <rect
       style="fill:#e4e4e4;fill-opacity:1"
       id="rect597"
       width="224"
       height="224"
       x="32"
       y="44"
       ry="48" />
    <rect
       style="opacity:1;fill:#e4e4e4;fill-opacity:1"
       id="rect771"
       width="84"
       height="84"
       x="294"
       y="34"
       ry="18" />
    <rect
       style="opacity:1;fill:#e4e4e4;fill-opacity:1"
       id="rect1133"
       width="56"
       height="56"
       x="292"
       y="144"
       ry="12" />
    <rect
       style="opacity:1;fill:#e4e4e4;fill-opacity:1"
       id="rect1263"
       width="42"
       height="42"
       x="291"
       y="223"
       ry="9" />
    <rect
       style="opacity:1;fill:#e4e4e4;fill-opacity:1"
       id="rect1366"
       width="28"
       height="28"
       x="418"
       y="54"
       ry="6" />
    <rect
       style="opacity:1;fill:#e4e4e4;fill-opacity:1"
       id="rect1400"
       width="16"
       height="16"
       x="416"
       y="140"
       ry="4" />
    <rect
       style="opacity:1;fill:#e4e4e4;fill-opacity:1"
       id="rect1434"
       width="20"
       height="20"
       x="418"
       y="102"
       ry="4" />
  </g>
  <g
     id="g606">
    <g
       id="g602">
      <path
         d="m 421,140 v 5 h -5 v 1 h 5 v 4 h -5 v 1 h 5 v 5 h 1 v -5 h 4 v 5 h 1 v -5 h 5 v -1 h -5 v -4 h 5 v -1 h -5 v -5 h -1 v 5 h -4 v -5 z"
         style="fill:#000000;fill-opacity:1;opacity:0.2"
         id="path997"
         sodipodi:nodetypes="ccccccccccccccccccccccccccccc" />
      <path
         id="path657"
         style="fill:#000000;fill-opacity:1;opacity:0.2"
         d="m 424,102 v 6 h -6 v 1 h 6 v 6 h -6 v 1 h 6 v 6 h 1 v -6 h 6 v 6 h 1 v -6 h 6 v -1 h -6 v -6 h 6 v -1 h -6 v -6 h -1 v 6 h -6 v -6 z"
         sodipodi:nodetypes="ccccccccccccccccccccccccccccc" />
      <path
         d="m 427,54 v 9 h -9 v 1 h 9 v 8 h -9 v 1 h 9 v 9 h 1 v -9 h 8 v 9 h 1 v -9 h 9 v -1 h -9 v -8 h 9 v -1 h -9 v -9 h -1 v 9 h -8 v -9 z"
         style="fill:#000000;stroke-width:0.5;fill-opacity:1;opacity:0.2"
         id="path742"
         sodipodi:nodetypes="ccccccccccccccccccccccccccccc" />
      <path
         d="m 304,223 v 13 h -13 v 2 h 13 v 12 h -13 v 2 h 13 v 13 h 2 v -13 h 12 v 13 h 2 v -13 h 13 v -2 h -13 v -12 h 13 v -2 h -13 v -13 h -2 v 13 h -12 v -13 z"
         style="fill:#000000;fill-opacity:1;opacity:0.2"
         id="path913"
         sodipodi:nodetypes="ccccccccccccccccccccccccccccc" />
      <path
         d="m 310,144 v 18 h -18 v 2 h 18 v 16 h -18 v 2 h 18 v 18 h 2 v -18 h 16 v 18 h 2 v -18 h 18 v -2 h -18 v -16 h 18 v -2 h -18 v -18 h -2 v 18 h -16 v -18 z"
         style="fill:#000000;fill-opacity:1;opacity:0.2"
         id="path310"
         sodipodi:nodetypes="ccccccccccccccccccccccccccccc" />
      <path
         d="m 320,34 v 26 h -26 v 3 h 26 v 26 h -26 v 3 h 26 v 26 h 3 V 92 h 26 v 26 h 3 V 92 h 26 V 89 H 352 V 63 h 26 V 60 H 352 V 34 h -3 V 60 H 323 V 34 Z"
         style="fill:#000000;stroke-width:2;fill-opacity:1;opacity:0.2"
         id="path941"
         sodipodi:nodetypes="ccccccccccccccccccccccccccccc" />
      <path
         d="m 104,44 v 72.00001 H 32 v 6 h 72 v 68 H 32 v 6 h 72 v 72 h 6 v -72 h 68 v 72 h 6 v -72 h 72 v -6 h -72 v -68 h 72 v -6 H 184 V 44 h -6 v 72.00001 H 110 V 44 Z"
         style="fill:#000000;stroke-width:4;fill-opacity:1;opacity:0.2"
         id="path4279"
         sodipodi:nodetypes="ccccccccccccccccccccccccccccc" />
    </g>
    <g
       id="g969">
      <g
         id="g1056">
        <rect
           style="opacity:0.2;fill:#000000;fill-opacity:1;stroke-width:2;stroke-linecap:square"
           id="rect1110"
           width="6"
           height="6"
           x="421"
           y="145.5" />
        <rect
           style="opacity:1;fill:#6d6d6d;fill-opacity:1;stroke-width:2;stroke-linecap:square"
           id="rect1033"
           width="6"
           height="6"
           x="421"
           y="145" />
      </g>
      <g
         id="g1053">
        <rect
           style="opacity:0.2;fill:#000000;fill-opacity:1;stroke-width:2;stroke-linecap:square"
           id="rect1112"
           width="8"
           height="8"
           x="424"
           y="108.5" />
        <rect
           style="opacity:1;fill:#6d6d6d;fill-opacity:1;stroke-width:2;stroke-linecap:square"
           id="rect1031"
           width="8"
           height="8"
           x="424"
           y="108" />
      </g>
      <g
         id="g1050">
        <rect
           style="opacity:0.2;fill:#000000;fill-opacity:1;stroke-width:2;stroke-linecap:square"
           id="rect1114"
           width="10"
           height="10"
           x="427"
           y="64" />
        <rect
           style="opacity:1;fill:#6d6d6d;fill-opacity:1;stroke-width:2;stroke-linecap:square"
           id="rect1029"
           width="10"
           height="10"
           x="427"
           y="63" />
      </g>
      <g
         id="g1047">
        <rect
           style="opacity:0.2;fill:#000000;fill-opacity:1;stroke-width:2;stroke-linecap:square"
           id="rect1116"
           width="16"
           height="16"
           x="304"
           y="237" />
        <rect
           style="opacity:1;fill:#6d6d6d;fill-opacity:1;stroke-width:2;stroke-linecap:square"
           id="rect1027"
           width="16"
           height="16"
           x="304"
           y="236" />
      </g>
      <g
         id="g1044">
        <rect
           style="opacity:0.2;fill:#000000;fill-opacity:1;stroke-width:2;stroke-linecap:square"
           id="rect1118"
           width="20"
           height="20"
           x="310"
           y="163" />
        <rect
           style="opacity:1;fill:#6d6d6d;fill-opacity:1;stroke-width:2;stroke-linecap:square"
           id="rect1025"
           width="20"
           height="20"
           x="310"
           y="162" />
      </g>
      <g
         id="g1041">
        <rect
           style="opacity:0.2;fill:#000000;fill-opacity:1;stroke-width:2;stroke-linecap:square"
           id="rect1120"
           width="32"
           height="32"
           x="320"
           y="61" />
        <rect
           style="opacity:1;fill:#6d6d6d;fill-opacity:1;stroke-width:2;stroke-linecap:square"
           id="rect1023"
           width="32"
           height="32"
           x="320"
           y="60" />
      </g>
      <g
         id="g964">
        <rect
           style="opacity:0.2;fill:#000000;stroke-width:2;stroke-linecap:square"
           id="rect406"
           width="80"
           height="80"
           x="104"
           y="118.00001" />
        <rect
           style="opacity:1;fill:#6d6d6d;stroke-width:2;stroke-linecap:square;fill-opacity:1"
           id="rect404"
           width="80"
           height="80"
           x="104"
           y="116.00001" />
      </g>
    </g>
  </g>
  <g
     id="Highlights">
    <path
       id="rect653"
       style="opacity:0.2;fill:#ffffff"
       d="M 80,44 C 53.408027,44 32,65.408027 32,92 v 2 C 32,67.408027 53.408027,46 80,46 h 128 c 26.59197,0 48,21.408027 48,48 V 92 C 256,65.408027 234.59197,44 208,44 Z"
       sodipodi:nodetypes="sscsscsss" />
    <path
       id="rect773"
       style="opacity:0.2;fill:#ffffff"
       d="m 312,34 c -9.97199,0 -18,8.02801 -18,18 v 1 c 0,-9.97199 8.02801,-18 18,-18 h 48 c 9.97199,0 18,8.02801 18,18 v -1 c 0,-9.97199 -8.02801,-18 -18,-18 z" />
    <path
       id="rect1135"
       style="opacity:0.2;fill:#ffffff;fill-opacity:1"
       d="m 304,144 c -6.64799,0 -12,5.35201 -12,12 v 1 c 0,-6.64799 5.35201,-12 12,-12 h 32 c 6.64799,0 12,5.35201 12,12 v -1 c 0,-6.64799 -5.35201,-12 -12,-12 z" />
    <path
       id="rect1265"
       style="opacity:0.2;fill:#ffffff;fill-opacity:1"
       d="m 300,223 c -4.986,0 -9,4.014 -9,9 v 1 c 0,-4.986 4.014,-9 9,-9 h 24 c 4.986,0 9,4.014 9,9 v -1 c 0,-4.986 -4.014,-9 -9,-9 z" />
    <path
       id="rect1368"
       style="opacity:0.2;fill:#ffffff;fill-opacity:1"
       d="m 424,54 c -3.324,0 -6,2.676003 -6,6 v 1 c 0,-3.323997 2.676,-6 6,-6 h 16 c 3.324,0 6,2.676003 6,6 v -1 c 0,-3.323997 -2.676,-6 -6,-6 z" />
    <path
       id="rect1402"
       style="opacity:0.2;fill:#ffffff;fill-opacity:1"
       d="m 420,140 c -2.216,0 -4,1.784 -4,4 v 1 c 0,-2.216 1.784,-4 4,-4 h 8 c 2.216,0 4,1.784 4,4 v -1 c 0,-2.216 -1.784,-4 -4,-4 z" />
    <path
       id="rect1436"
       style="opacity:0.2;fill:#ffffff;fill-opacity:1"
       d="m 422,102 c -2.216,0 -4,1.784 -4,4 v 1 c 0,-2.216 1.784,-4 4,-4 h 12 c 2.216,0 4,1.784 4,4 v -1 c 0,-2.216 -1.784,-4 -4,-4 z" />
  </g>
</svg>
