<?xml version="1.0" encoding="UTF-8" standalone="no"?>
<!-- Created with Inkscape (http://www.inkscape.org/) -->

<svg
   width="480"
   height="300"
   viewBox="0 0 480 300"
   version="1.1"
   id="svg5"
   inkscape:version="1.2.2 (1:1.2.2+202305151914+b0a8486541)"
   sodipodi:docname="cheese.svg"
   xmlns:inkscape="http://www.inkscape.org/namespaces/inkscape"
   xmlns:sodipodi="http://sodipodi.sourceforge.net/DTD/sodipodi-0.dtd"
   xmlns="http://www.w3.org/2000/svg"
   xmlns:svg="http://www.w3.org/2000/svg">
  <sodipodi:namedview
     id="namedview7"
     pagecolor="#888888"
     bordercolor="#000000"
     borderopacity="0.25"
     inkscape:showpageshadow="true"
     inkscape:pageopacity="0"
     inkscape:pagecheckerboard="0"
     inkscape:deskcolor="#888888"
     inkscape:document-units="px"
     showgrid="false"
     showborder="false"
     inkscape:zoom="2.6866667"
     inkscape:cx="240.44665"
     inkscape:cy="150"
     inkscape:window-width="1920"
     inkscape:window-height="1008"
     inkscape:window-x="0"
     inkscape:window-y="0"
     inkscape:window-maximized="1"
     inkscape:current-layer="svg5" />
  <defs
     id="defs2">
    <mask
       maskUnits="userSpaceOnUse"
       id="mask5803">
      <rect
         style="opacity:1;fill:#ffffff;fill-opacity:1;stroke-width:4;stroke-linecap:round;stroke-linejoin:round"
         id="rect5805"
         width="16"
         height="16"
         x="416"
         y="140"
         ry="4" />
    </mask>
    <mask
       maskUnits="userSpaceOnUse"
       id="mask5809">
      <rect
         style="opacity:1;fill:#ffffff;fill-opacity:1;stroke-width:4;stroke-linecap:round;stroke-linejoin:round"
         id="rect5811"
         width="16"
         height="16"
         x="416"
         y="140"
         ry="4" />
    </mask>
  </defs>
  <g
     id="Baseplate"
     style="display:none">
    <text
       y="19.774782"
       xml:space="preserve"
       x="15.006946"
       style="font-style:normal;font-variant:normal;font-weight:normal;font-stretch:normal;line-height:0%;font-family:'DejaVu Sans';-inkscape-font-specification:'DejaVu Sans';display:inline;fill:#000000;fill-opacity:1;stroke:none;enable-background:new"
       inkscape:label="context"
       id="context"><tspan
         style="font-style:normal;font-variant:normal;font-weight:normal;font-stretch:normal;font-size:18px;line-height:1.25;font-family:'DejaVu Sans';-inkscape-font-specification:'DejaVu Sans'"
         y="19.774782"
         x="15.006946"
         sodipodi:role="line"
         id="tspan3933">apps</tspan></text>
    <text
       y="19.774782"
       xml:space="preserve"
       x="122.48839"
       style="font-style:normal;font-variant:normal;font-weight:bold;font-stretch:normal;line-height:0%;font-family:'DejaVu Sans';-inkscape-font-specification:'DejaVu Sans Bold';text-align:start;writing-mode:lr-tb;text-anchor:start;display:inline;fill:#000000;fill-opacity:1;stroke:none;enable-background:new"
       inkscape:label="icon-name"
       id="icon-name"><tspan
         style="font-style:normal;font-variant:normal;font-weight:bold;font-stretch:normal;font-size:18px;line-height:1.25;font-family:'DejaVu Sans';-inkscape-font-specification:'DejaVu Sans Bold'"
         y="19.774782"
         x="122.48839"
         sodipodi:role="line"
         id="tspan3937">cheese</tspan></text>
    <rect
       style="fill:#ffffff"
       id="256x256"
       width="256"
       height="256"
       x="16"
       y="28" />
    <rect
       style="fill:#ffffff"
       id="96x96"
       width="96"
       height="96"
       x="288"
       y="28" />
    <rect
       style="fill:#ffffff"
       id="64x64"
       width="64"
       height="64"
       x="288"
       y="140" />
    <rect
       style="fill:#ffffff"
       id="48x48"
       width="48"
       height="48"
       x="288"
       y="220" />
    <rect
       style="fill:#ffffff"
       id="32x32"
       width="32"
       height="32"
       x="416"
       y="52" />
    <rect
       style="fill:#ffffff"
       id="24x24"
       width="24"
       height="24"
       x="416"
       y="100" />
    <rect
       style="fill:#ffffff"
       id="22x22"
       width="22"
       height="22"
       x="417"
       y="101" />
    <rect
       style="fill:#ffffff"
       id="16x16"
       width="16"
       height="16"
       x="416"
       y="140" />
  </g>
  <g
     id="Shadow">
    <rect
       style="opacity:0.2;fill:#000000"
       id="rect651"
       width="224"
       height="224"
       x="32"
       y="46"
       ry="48" />
    <rect
       style="opacity:0.2;fill:#000000"
       id="rect769"
       width="84"
       height="85"
       x="294"
       y="34"
       ry="18" />
    <rect
       style="opacity:0.2;fill:#000000;fill-opacity:1"
       id="rect1131"
       width="56"
       height="56"
       x="292"
       y="145"
       ry="12" />
    <rect
       style="opacity:0.2;fill:#000000;fill-opacity:1"
       id="rect1261"
       width="42"
       height="42"
       x="291"
       y="224"
       ry="9" />
    <rect
       style="opacity:0.2;fill:#000000;fill-opacity:1"
       id="rect1364"
       width="28"
       height="29"
       x="418"
       y="54"
       ry="6" />
    <rect
       style="opacity:0.2;fill:#000000;fill-opacity:1"
       id="rect1398"
       width="16"
       height="16"
       x="416"
       y="141"
       ry="4" />
    <rect
       style="opacity:0.2;fill:#000000;fill-opacity:1"
       id="rect1432"
       width="20"
       height="20"
       x="418"
       y="103"
       ry="4" />
  </g>
  <g
     id="Background">
    <rect
       style="fill:#a159b2;fill-opacity:1"
       id="rect597"
       width="224"
       height="224"
       x="32"
       y="44"
       ry="48" />
    <rect
       style="opacity:1;fill:#a159b2;fill-opacity:1"
       id="rect771"
       width="84"
       height="84"
       x="294"
       y="34"
       ry="18" />
    <rect
       style="opacity:1;fill:#a159b2;fill-opacity:1"
       id="rect1133"
       width="56"
       height="56"
       x="292"
       y="144"
       ry="12" />
    <rect
       style="opacity:1;fill:#a159b2;fill-opacity:1"
       id="rect1263"
       width="42"
       height="42"
       x="291"
       y="223"
       ry="9" />
    <rect
       style="opacity:1;fill:#a159b2;fill-opacity:1"
       id="rect1366"
       width="28"
       height="28"
       x="418"
       y="54"
       ry="6" />
    <rect
       style="opacity:1;fill:#a159b2;fill-opacity:1"
       id="rect1400"
       width="16"
       height="16"
       x="416"
       y="140"
       ry="4" />
    <rect
       style="opacity:1;fill:#a159b2;fill-opacity:1"
       id="rect1434"
       width="20"
       height="20"
       x="418"
       y="102"
       ry="4" />
  </g>
  <g
     id="g2899">
    <g
       id="g6287">
      <path
         d="m 431.99998,147.5 -0.38375,0.18395 c -5.95948,2.86544 -11.81432,2.69452 -15.48194,2.13834 l -0.13431,-0.0366 v 3.42857 l 0.1144,0.0791 c 2.38805,1.62984 4.70241,2.20768 6.87775,2.20657 0.59951,-3e-4 1.18845,-0.0276 1.76547,-0.10953 2.67078,-0.37907 5.10308,-1.61769 7.1671,-3.26268 L 432,152.07142 Z"
         style="color:#000000;fill:#000000;fill-rule:evenodd;stroke-width:0.380898px;-inkscape-stroke:none;opacity:0.2"
         id="path5677"
         mask="url(#mask5809)" />
      <path
         d="m 431.99998,147 -0.38375,0.18395 c -5.95948,2.86544 -11.81432,2.69452 -15.48194,2.13834 l -0.13431,-0.0366 v 3.42857 l 0.1144,0.0791 c 2.38805,1.62984 4.70241,2.20768 6.87775,2.20657 0.59951,-3e-4 1.18845,-0.0276 1.76547,-0.10953 2.67078,-0.37907 5.10308,-1.61769 7.1671,-3.26268 L 432,151.57142 Z"
         style="color:#000000;fill:#eeeeec;fill-rule:evenodd;stroke-width:0.380898px;-inkscape-stroke:none;opacity:1;fill-opacity:1"
         id="path5642"
         sodipodi:nodetypes="ccccccscccc"
         mask="url(#mask5803)" />
      <path
         d="m 416.001,145.13165 c 2.50658,-1.83571 4.31029,-1.42738 5.91441,-0.49508 -1.86492,-3.22246 -3.81868,-3.61969 -5.91441,0.49508 z m 16,-2.77703 c -2.71916,-0.74476 -4.49572,0.50998 -6.01643,2.21524 1.54519,-4.19698 3.47426,-5.50945 6.01643,-2.21524 z"
         style="display:inline;fill:#000000;fill-opacity:1;fill-rule:evenodd;stroke:none;enable-background:new;opacity:0.2"
         id="path6263" />
      <path
         d="m 416.001,144.63165 c 2.50658,-1.83571 4.31029,-1.42738 5.91441,-0.49508 -1.86492,-3.22246 -3.81868,-3.61969 -5.91441,0.49508 z m 16,-2.77703 c -2.71916,-0.74476 -4.49572,0.50998 -6.01643,2.21524 1.54519,-4.19698 3.47426,-5.50945 6.01643,-2.21524 z"
         style="display:inline;fill:#3f3f3f;fill-opacity:1;fill-rule:evenodd;stroke:none;enable-background:new"
         id="path6097"
         sodipodi:nodetypes="cccccc" />
    </g>
    <g
       id="g5654">
      <path
         d="m 416.751,107.741 c 3.32995,-1.72239 5.72611,-1.33928 7.85715,-0.46453 -2.47748,-3.02355 -5.07301,-3.39626 -7.85715,0.46453 z m 22,-2.29752 c -3.94878,-0.77242 -6.52869,0.52892 -8.73706,2.29752 2.24392,-4.35285 5.04532,-5.71405 8.73706,-2.29752 z"
         style="fill:#000000;fill-opacity:1;fill-rule:evenodd;stroke:none;stroke-width:0.925206;opacity:0.2"
         id="path5317" />
      <path
         d="m 416.751,107.241 c 3.32995,-1.72239 5.72611,-1.33928 7.85715,-0.46453 -2.47748,-3.02355 -5.07301,-3.39626 -7.85715,0.46453 z m 22,-2.29752 c -3.94878,-0.77242 -6.52869,0.52892 -8.73706,2.29752 2.24392,-4.35285 5.04532,-5.71405 8.73706,-2.29752 z"
         style="fill:#3f3f3f;fill-opacity:1;fill-rule:evenodd;stroke:none;stroke-width:0.925206"
         id="path5289"
         sodipodi:nodetypes="cccccc" />
      <path
         d="m 438,111.5 -0.47969,0.22994 c -7.44935,3.5818 -14.7679,3.36815 -19.35242,2.67292 L 418,114.35716 v 4.28571 l 0.143,0.0989 c 2.98506,2.03731 5.87801,2.7596 8.59719,2.75822 0.74938,-3.8e-4 1.48556,-0.0345 2.20684,-0.13691 3.33847,-0.47384 6.37884,-2.02212 8.95887,-4.07836 L 438,117.21432 Z"
         style="color:#000000;fill:#000000;fill-rule:evenodd;stroke-width:0.476122px;-inkscape-stroke:none;opacity:0.2"
         id="path5517" />
      <path
         d="m 438,111 -0.47969,0.22994 c -7.44935,3.5818 -14.7679,3.36815 -19.35242,2.67292 L 418,113.85716 v 4.28571 l 0.143,0.0989 c 2.98506,2.03731 5.87801,2.7596 8.59719,2.75822 0.74938,-3.8e-4 1.48556,-0.0345 2.20684,-0.13691 3.33847,-0.47384 6.37884,-2.02212 8.95887,-4.07836 L 438,116.71432 Z"
         style="color:#000000;fill:#eeeeec;fill-rule:evenodd;stroke-width:0.476122px;-inkscape-stroke:none"
         id="path5483"
         sodipodi:nodetypes="ccccccscccc" />
      <path
         d="m 423.85713,114.3724 0.8402,0.0468 -0.57113,5.87361 -0.26907,-5.92032 z m 8.73619,-1.20855 -0.80206,0.24224 2.00384,5.21765 z m 3.64952,-1.06885 -0.79361,0.18816 1.61577,5.14603 z m -16.37683,2.2774 0.69597,0.12022 -1.07398,4.60209 0.37801,-4.72226 z m 9.44519,-0.57835 -0.82707,0.17159 1.32182,6.29126 z"
         style="fill:#ff8686;fill-opacity:1;fill-rule:evenodd;stroke:none;stroke-width:1.00002"
         id="path5545" />
    </g>
    <g
       id="g5279">
      <path
         d="m 415.876,61.888756 c 4.74798,-1.65295 8.16452,-1.285279 11.20303,-0.445787 -3.53245,-2.901652 -7.23329,-3.259333 -11.20303,0.445787 z m 30,-3.142882 c -4.99349,-0.633232 -8.25599,0.433609 -11.04864,1.883503 2.83761,-3.568461 6.38019,-4.684383 11.04864,-1.883503 z"
         style="fill:#000000;fill-opacity:1;fill-rule:evenodd;stroke:none;stroke-width:1;opacity:0.2"
         id="path4798" />
      <path
         d="m 446,67 -0.67156,0.321913 c -10.4291,5.014511 -20.67506,4.715412 -27.0934,3.742097 L 418,71.000001 v 6 l 0.2002,0.138487 c 4.17909,2.852242 8.22921,3.86345 12.03607,3.861513 1.04913,-5.34e-4 2.07978,-0.04835 3.08957,-0.191675 4.67386,-0.663373 8.93038,-2.830974 12.54242,-5.709711 L 446,75.000005 Z"
         style="color:#000000;fill:#000000;fill-rule:evenodd;stroke-width:0.666571px;-inkscape-stroke:none;opacity:0.2"
         id="path5254" />
      <path
         d="m 446,66 -0.67156,0.321913 c -10.4291,5.014512 -20.67506,4.715412 -27.0934,3.742098 L 418,70 v 6 l 0.2002,0.138487 c 4.17909,2.852242 8.22921,3.86345 12.03607,3.861513 1.04913,-5.34e-4 2.07978,-0.04835 3.08957,-0.191674 4.67386,-0.663373 8.93038,-2.830974 12.54242,-5.709712 L 446,74 Z"
         style="color:#000000;fill:#eeeeec;fill-rule:evenodd;stroke-width:0.666571px;-inkscape-stroke:none"
         id="path4118"
         sodipodi:nodetypes="ccccccssccc" />
      <path
         d="m 426.61133,70.753178 1.06799,0.06156 -0.72597,7.745872 -0.34202,-7.80746 z m 12.91505,-2.150672 -1.02187,0.334928 2.5382,8.075535 z m -17.98816,2.150672 0.88465,0.15846 -1.36516,6.069035 z m 12.00581,-0.762697 -1.0513,0.226272 1.68018,8.296626 z"
         style="fill:#ff8686;fill-opacity:1;fill-rule:evenodd;stroke:none;stroke-width:0.999997"
         id="path4827" />
      <path
         d="m 415.876,60.888756 c 4.74798,-1.65295 8.16452,-1.285279 11.20303,-0.445787 -3.53245,-2.901652 -7.23329,-3.259333 -11.20303,0.445787 z m 30,-3.142882 c -4.99349,-0.633232 -8.25599,0.433609 -11.04864,1.883503 2.83761,-3.568461 6.38019,-4.684383 11.04864,-1.883503 z"
         style="fill:#3f3f3f;fill-opacity:1;fill-rule:evenodd;stroke:none;stroke-width:1"
         id="path4563"
         sodipodi:nodetypes="cccccc" />
    </g>
    <g
       id="g4032">
      <path
         style="opacity:0.1;stroke-width:1.16667"
         d="m 333,243.002 c -1.4452,0.62291 -2.88605,1.18571 -4.31611,1.69905 0.61453,1.79495 2.89035,7.9431 3.15506,8.65857 0.3901,-0.26447 0.77933,-0.52859 1.16105,-0.80131 z m -5.34255,2.06262 c -1.95107,0.66827 -3.88338,1.23566 -5.78845,1.72131 -0.1531,1.1642 2.17605,8.37797 2.90264,10.58763 2.47658,-1.13639 4.82871,-2.50135 7.05048,-4.00652 -0.42516,-1.07031 -2.8037,-6.97239 -4.16467,-8.30242 z m -6.89062,1.99584 c -2.22735,0.53261 -4.41187,0.95 -6.54568,1.26873 -0.0437,2.51296 1.03975,9.88685 1.35457,11.97508 3.2091,-0.56848 6.27676,-1.59301 9.17909,-2.92329 -0.7386,-2.16337 -3.14229,-9.12471 -3.98798,-10.32052 z m -5.19111,13.24381 c -0.32234,-2.09626 -1.52604,-9.61436 -2.54086,-11.81185 -2.54682,0.34082 -5.01071,0.54894 -7.3702,0.64549 -0.74376,1.8795 -0.81682,9.26906 -0.82452,11.27765 3.72288,0.58653 7.30795,0.49591 10.73558,-0.1113 z m -10.73558,0.11129 c -0.002,-1.98385 -0.0389,-9.1005 -0.38702,-11.23311 -2.34614,0.0615 -4.57468,0.0168 -6.67187,-0.0965 -0.79969,1.49255 -1.48568,6.50942 -1.75841,8.68824 3.0088,1.33296 5.95363,2.19018 8.8173,2.64134 z M 291,248.4405 v 6.69239 c 1.68474,1.03077 3.35036,1.90289 4.99759,2.63392 0.21247,-2.15367 0.68734,-7.0927 0.72356,-8.74759 C 294.66422,248.88213 292.7477,248.6781 291,248.4405 Z"
         id="path12-7" />
      <path
         style="opacity:0.1;stroke-width:1.02253"
         d="m 328.083,256.72687 c -9.51049,5.14627 -15.67774,7.61021 -28.083,3.77236 12.99107,6.25937 18.83674,3.19633 28.083,-3.77236 z"
         id="path14-0" />
      <path
         style="fill:#ff8686;stroke-width:1.16667"
         d="m 333,242 c -16.35056,7.04766 -31.94276,6.80932 -42,5.44209 v 6.68839 c 16.29031,9.96694 30.92582,5.33643 42,-2.57565 z"
         id="path18-93" />
      <path
         style="fill:#ffffff;stroke-width:1.16667"
         d="m 333,242.00158 c -1.4452,0.62292 -2.88605,1.18572 -4.31611,1.69906 0.61453,1.79494 2.89035,7.9431 3.15506,8.65856 0.3901,-0.26446 0.77933,-0.52859 1.16105,-0.8013 z m -5.34255,2.06261 c -1.95107,0.66828 -3.88338,1.23567 -5.78845,1.72133 -0.1531,1.1642 2.17605,8.37796 2.90264,10.58763 2.47658,-1.13641 4.82871,-2.50136 7.05048,-4.00654 -0.42516,-1.07029 -2.8037,-6.97238 -4.16467,-8.30242 z m -6.89062,1.99585 c -2.22735,0.53262 -4.41187,0.95 -6.54568,1.26873 -0.0437,2.51296 1.03975,9.88685 1.35457,11.97508 3.2091,-0.56848 6.27676,-1.59299 9.17909,-2.92328 -0.7386,-2.16338 -3.14229,-9.12471 -3.98798,-10.32053 z m -5.19111,13.24381 c -0.32234,-2.09624 -1.52604,-9.61436 -2.54086,-11.81184 -2.54682,0.34081 -5.01071,0.54893 -7.3702,0.64549 -0.74376,1.8795 -0.81682,9.26904 -0.82452,11.27765 3.72288,0.58652 7.30795,0.4959 10.73558,-0.1113 z m -10.73558,0.1113 c -0.002,-1.98386 -0.0389,-9.1005 -0.38702,-11.23313 -2.34614,0.0615 -4.57468,0.0168 -6.67187,-0.0965 -0.79969,1.49255 -1.48568,6.50943 -1.75841,8.68823 3.0088,1.33297 5.95363,2.19019 8.8173,2.64135 z M 291,247.44009 v 6.69239 c 1.68474,1.03078 3.35036,1.90288 4.99759,2.63392 0.21247,-2.15368 0.68734,-7.09271 0.72356,-8.74759 -2.05693,-0.13709 -3.97345,-0.34113 -5.72115,-0.57872 z"
         id="path20-6" />
      <path
         d="m 333.001,231.34055 c -7.3238,-0.94068 -12.10876,0.64416 -16.20468,2.79808 4.16184,-5.3012 9.35764,-6.95896 16.20468,-2.79808 z m -44,4.669 c 6.96372,-2.4556 11.97464,-1.9094 16.43112,-0.66224 -5.18092,-4.3106 -10.60884,-4.84196 -16.43112,0.66224 z"
         style="fill:#000000;fill-opacity:1;fill-rule:evenodd;stroke:none;stroke-width:1;opacity:0.2"
         id="path3961" />
      <path
         d="m 333.001,230.34054 c -7.3238,-0.94068 -12.10876,0.64416 -16.20468,2.79808 4.16184,-5.3012 9.35764,-6.95896 16.20468,-2.79808 z m -44,4.669 c 6.96372,-2.4556 11.97464,-1.9094 16.43112,-0.66224 -5.18092,-4.3106 -10.60884,-4.84196 -16.43112,0.66224 z"
         style="fill:#3f3f3f;fill-opacity:1;fill-rule:evenodd;stroke:none;stroke-width:1"
         id="path3718"
         sodipodi:nodetypes="cccccc" />
    </g>
    <g
       id="g3008">
      <path
         id="path10"
         style="opacity:0.1;stroke-width:1.48681"
         d="m 340.08398,148.41406 c -5.01587,-0.0905 -9.25076,2.57349 -12.91601,7.24219 5.77149,-3.03509 12.51401,-5.26889 22.83398,-3.94336 -3.61807,-2.19866 -6.90844,-3.24452 -9.91797,-3.29883 z m -40.16796,4.22461 c -3.85017,0.0232 -7.81199,1.78542 -11.91407,5.68555 9.81251,-3.47993 16.87274,-2.70683 23.15235,-0.93945 -3.65022,-3.05438 -7.38811,-4.76928 -11.23828,-4.7461 z" />
      <path
         style="opacity:0.1;stroke-width:1.55556"
         d="m 348,168.339 c -1.92693,0.83055 -3.84807,1.58095 -5.75481,2.26541 0.81937,2.39326 3.8538,10.59079 4.20674,11.54475 0.52013,-0.35262 1.03911,-0.70478 1.54807,-1.06841 z m -7.1234,2.75016 c -2.60142,0.89103 -5.17784,1.64755 -7.71794,2.29509 -0.20412,1.55226 2.90141,11.17062 3.87019,14.11684 3.30211,-1.5152 6.43829,-3.33514 9.40065,-5.34204 -0.56688,-1.42707 -3.73827,-9.29651 -5.5529,-11.06989 z m -9.1875,2.66112 c -2.96979,0.71015 -5.88249,1.26667 -8.72756,1.69165 -0.0582,3.3506 1.38633,13.18246 1.80608,15.96676 4.27881,-0.75797 8.36902,-2.124 12.23879,-3.89771 -0.98479,-2.88449 -4.18972,-12.16628 -5.31731,-13.7607 z m -6.92148,17.65841 c -0.42978,-2.795 -2.03471,-12.81914 -3.38781,-15.74913 -3.39576,0.45443 -6.68094,0.73192 -9.82693,0.86066 -0.99168,2.506 -1.08909,12.35874 -1.09936,15.03686 4.96384,0.78204 9.74394,0.66122 14.3141,-0.1484 z m -14.3141,0.1484 c -0.003,-2.64514 -0.0518,-12.134 -0.51602,-14.97749 -3.12819,0.082 -6.09958,0.0224 -8.89583,-0.12865 -1.06626,1.99007 -1.98091,8.67923 -2.34455,11.58432 4.01173,1.77728 7.93817,2.92024 11.7564,3.52179 z M 292,175.59034 v 8.92318 c 2.24632,1.37437 4.46715,2.53719 6.66346,3.5119 0.28329,-2.87157 0.91645,-9.45694 0.96474,-11.66346 -2.74257,-0.18278 -5.29793,-0.45483 -7.6282,-0.77162 z"
         id="path12" />
      <path
         style="opacity:0.1;stroke-width:1.55556"
         d="m 344.11111,186.9729 c -14.48698,7.81879 -23.88131,11.56227 -42.77778,5.73139 19.7888,9.50991 28.6933,4.85621 42.77778,-5.73139 z"
         id="path14" />
      <path
         style="fill:#ff8686;stroke-width:1.55556"
         d="m 348,167.33707 c -21.80074,9.39688 -42.59035,9.07909 -56,7.25612 v 8.91786 c 21.72041,13.28925 41.23443,7.11524 56,-3.4342 z"
         id="path18" />
      <path
         style="fill:#ffffff;stroke-width:1.55556"
         d="m 348,167.33917 c -1.92693,0.83057 -3.84807,1.58097 -5.75481,2.26542 0.81937,2.39325 3.8538,10.5908 4.20674,11.54474 0.52013,-0.35261 1.03911,-0.70478 1.54807,-1.0684 z m -7.1234,2.75016 c -2.60142,0.89104 -5.17784,1.64755 -7.71794,2.2951 -0.20412,1.55227 2.90141,11.17061 3.87019,14.11684 3.30211,-1.51521 6.43829,-3.33515 9.40065,-5.34205 -0.56688,-1.42706 -3.73827,-9.29651 -5.5529,-11.06989 z m -9.1875,2.66112 c -2.96979,0.71016 -5.88249,1.26667 -8.72756,1.69165 -0.0582,3.35061 1.38633,13.18246 1.80608,15.96677 4.27881,-0.75798 8.36902,-2.12399 12.23879,-3.89771 -0.98479,-2.8845 -4.18972,-12.16628 -5.31731,-13.76071 z m -6.92148,17.65842 c -0.42978,-2.79499 -2.03471,-12.81915 -3.38781,-15.74912 -3.39576,0.45441 -6.68094,0.73191 -9.82693,0.86065 -0.99168,2.506 -1.08909,12.35873 -1.09936,15.03687 4.96384,0.78202 9.74394,0.6612 14.3141,-0.1484 z m -14.3141,0.1484 c -0.003,-2.64515 -0.0518,-12.134 -0.51602,-14.9775 -3.12819,0.082 -6.09958,0.0224 -8.89583,-0.12864 -1.06626,1.99007 -1.98091,8.67924 -2.34455,11.58431 4.01173,1.7773 7.93817,2.92026 11.7564,3.5218 z M 292,174.59052 v 8.92319 c 2.24632,1.37437 4.46715,2.53718 6.66346,3.51189 0.28329,-2.87157 0.91645,-9.45694 0.96474,-11.66345 -2.74257,-0.18278 -5.29793,-0.45484 -7.6282,-0.77163 z"
         id="path20" />
      <path
         id="path24"
         style="fill:#3f3f3f;stroke-width:1.48681"
         d="m 340.08203,147.41406 c -5.01588,-0.0905 -9.24881,2.57154 -12.91406,7.24024 5.77149,-3.03509 12.51401,-5.26889 22.83398,-3.94336 -3.61807,-2.19866 -6.91039,-3.24257 -9.91992,-3.29688 z m -40.16601,4.22461 c -3.85017,0.0232 -7.81199,1.78543 -11.91407,5.68555 9.81251,-3.4799 16.87274,-2.70681 23.15235,-0.93945 -3.65022,-3.05438 -7.38811,-4.76928 -11.23828,-4.7461 z" />
    </g>
    <g
       id="g2930"
       transform="matrix(4,0,0,4,-1136,-532)">
      <path
         style="opacity:0.1;fill:#000000;stroke-width:1.55556"
         d="m 348,167.83918 c -1.92693,0.83055 -3.84807,1.58095 -5.75481,2.26541 0.81937,2.39326 3.8538,10.59079 4.20674,11.54475 0.52013,-0.35262 1.03911,-0.70478 1.54807,-1.06841 z m -7.1234,2.75016 c -2.60142,0.89103 -5.17784,1.64755 -7.71794,2.29509 -0.20412,1.55226 2.90141,11.17062 3.87019,14.11684 3.30211,-1.5152 6.43829,-3.33514 9.40065,-5.34204 -0.56688,-1.42707 -3.73827,-9.29651 -5.5529,-11.06989 z m -9.1875,2.66112 c -2.96979,0.71015 -5.88249,1.26667 -8.72756,1.69165 -0.0582,3.3506 1.38633,13.18246 1.80608,15.96676 4.27881,-0.75797 8.36902,-2.124 12.23879,-3.89771 -0.98479,-2.88449 -4.18972,-12.16628 -5.31731,-13.7607 z m -6.92148,17.65841 c -0.42978,-2.795 -2.03471,-12.81914 -3.38781,-15.74913 -3.39576,0.45443 -6.68094,0.73192 -9.82693,0.86066 -0.99168,2.506 -1.08909,12.35874 -1.09936,15.03686 4.96384,0.78204 9.74394,0.66122 14.3141,-0.1484 z m -14.3141,0.1484 c -0.003,-2.64514 -0.0518,-12.134 -0.51602,-14.97749 -3.12819,0.082 -6.09958,0.0224 -8.89583,-0.12865 -1.06626,1.99007 -1.98091,8.67923 -2.34455,11.58432 4.01173,1.77728 7.93817,2.92024 11.7564,3.52179 z M 292,175.09052 v 8.92318 c 2.24632,1.37437 4.46715,2.53719 6.66346,3.5119 0.28329,-2.87157 0.91645,-9.45694 0.96474,-11.66346 -2.74257,-0.18278 -5.29793,-0.45483 -7.6282,-0.77162 z"
         id="path12-3" />
      <path
         style="opacity:0.1;stroke-width:1.55556"
         d="m 344.11111,186.4729 c -14.48698,7.81879 -23.88131,11.56227 -42.77778,5.73139 19.7888,9.50991 28.6933,4.85621 42.77778,-5.73139 z"
         id="path14-6" />
      <path
         style="fill:#ff8686;stroke-width:1.55556"
         d="m 348,167.33707 c -21.80074,9.39688 -42.59035,9.07909 -56,7.25612 v 8.91786 c 21.72041,13.28925 41.23443,7.11524 56,-3.4342 z"
         id="path18-7" />
      <path
         style="fill:#ffffff;stroke-width:1.55556"
         d="m 348,167.33917 c -1.92693,0.83057 -3.84807,1.58097 -5.75481,2.26542 0.81937,2.39325 3.8538,10.5908 4.20674,11.54474 0.52013,-0.35261 1.03911,-0.70478 1.54807,-1.0684 z m -7.1234,2.75016 c -2.60142,0.89104 -5.17784,1.64755 -7.71794,2.2951 -0.20412,1.55227 2.90141,11.17061 3.87019,14.11684 3.30211,-1.51521 6.43829,-3.33515 9.40065,-5.34205 -0.56688,-1.42706 -3.73827,-9.29651 -5.5529,-11.06989 z m -9.1875,2.66112 c -2.96979,0.71016 -5.88249,1.26667 -8.72756,1.69165 -0.0582,3.35061 1.38633,13.18246 1.80608,15.96677 4.27881,-0.75798 8.36902,-2.12399 12.23879,-3.89771 -0.98479,-2.8845 -4.18972,-12.16628 -5.31731,-13.76071 z m -6.92148,17.65842 c -0.42978,-2.79499 -2.03471,-12.81915 -3.38781,-15.74912 -3.39576,0.45441 -6.68094,0.73191 -9.82693,0.86065 -0.99168,2.506 -1.08909,12.35873 -1.09936,15.03687 4.96384,0.78202 9.74394,0.6612 14.3141,-0.1484 z m -14.3141,0.1484 c -0.003,-2.64515 -0.0518,-12.134 -0.51602,-14.9775 -3.12819,0.082 -6.09958,0.0224 -8.89583,-0.12864 -1.06626,1.99007 -1.98091,8.67924 -2.34455,11.58431 4.01173,1.7773 7.93817,2.92026 11.7564,3.5218 z M 292,174.59052 v 8.92319 c 2.24632,1.37437 4.46715,2.53718 6.66346,3.51189 0.28329,-2.87157 0.91645,-9.45694 0.96474,-11.66345 -2.74257,-0.18278 -5.29793,-0.45484 -7.6282,-0.77163 z"
         id="path20-5" />
      <path
         id="path10-3"
         style="opacity:0.1;stroke-width:1.36459"
         d="m 337.55059,148.41775 c -4.60353,-0.0831 -8.49029,2.36194 -11.85424,6.64684 5.29704,-2.78559 11.48529,-4.83576 20.9569,-3.61919 -3.32064,-2.01792 -6.34053,-2.9778 -9.10266,-3.02765 z m -36.86592,3.87732 c -3.53367,0.0213 -7.1698,1.63865 -10.93467,5.21817 9.00587,-3.19386 15.48571,-2.48431 21.2491,-0.86222 -3.35016,-2.8033 -6.78077,-4.37722 -10.31443,-4.35595 z" />
      <path
         id="path24-5"
         style="fill:#3f3f3f;stroke-width:1.36459"
         d="m 337.5488,147.91955 c -4.60354,-0.0831 -8.4885,2.36014 -11.85245,6.64505 5.29704,-2.78559 11.48529,-4.83576 20.9569,-3.6192 -3.32064,-2.01791 -6.34232,-2.97601 -9.10445,-3.02585 z m -36.86413,3.87732 c -3.53367,0.0213 -7.1698,1.63866 -10.93467,5.21817 9.00587,-3.19384 15.48571,-2.4843 21.2491,-0.86223 -3.35016,-2.80329 -6.78077,-4.37721 -10.31443,-4.35594 z" />
    </g>
    <g
       id="g3731">
      <path
         style="opacity:0.1;stroke-width:2.33334"
         d="m 378,69.997 c -2.8904,1.245825 -5.77211,2.371425 -8.63222,3.398115 1.22906,3.58989 5.7807,15.886185 6.31012,17.317125 0.78019,-0.52893 1.55866,-1.05717 2.3221,-1.602615 z m -10.6851,4.12524 c -3.90213,1.336545 -7.76676,2.471325 -11.57691,3.442635 -0.30618,2.32839 4.35211,16.755928 5.80528,21.17526 4.95317,-2.272802 9.65744,-5.002712 14.10098,-8.01306 C 374.79393,88.58647 370.03684,76.78231 367.3149,74.12224 Z m -13.78125,3.99168 c -4.45468,1.065225 -8.82374,1.900005 -13.09133,2.537475 -0.0873,5.0259 2.07948,19.773695 2.70912,23.950145 6.41822,-1.13695 12.55352,-3.186 18.35819,-5.846565 -1.47718,-4.326742 -6.2846,-18.249425 -7.97598,-20.641055 z m -10.38221,26.48762 c -0.64466,-4.1925 -3.05207,-19.228715 -5.08171,-23.6237 -5.09364,0.681645 -10.02142,1.09788 -14.74039,1.29099 -1.48753,3.759 -1.63364,18.53812 -1.64904,22.5553 7.44576,1.17306 14.6159,0.99182 21.47114,-0.2226 z m -21.47114,0.2226 c -0.005,-3.96771 -0.0777,-18.201005 -0.77405,-22.46624 -4.69229,0.123 -9.14937,0.0336 -13.34375,-0.192975 -1.59938,2.985105 -2.97135,13.018848 -3.51682,17.376482 6.01759,2.665923 11.90726,4.380363 17.6346,5.282693 z M 294,80.87401 v 13.384773 c 3.3695,2.06155 6.70073,3.805782 9.99519,5.267854 0.42493,-4.307364 1.37468,-14.185417 1.44711,-17.495197 C 301.32844,81.75727 297.49541,81.349195 294,80.87401 Z"
         id="path12-6" />
      <path
         style="opacity:0.1;stroke-width:2.33334"
         d="M 372.16666,97.454 C 350.43619,109.18217 336.3447,114.7974 308,106.05107 c 29.68319,14.26486 43.03994,7.28431 64.16666,-8.59707 z"
         id="path14-2" />
      <path
         style="fill:#ff8686;stroke-width:2.33334"
         d="m 378,69 c -32.70111,14.09532 -63.88553,13.618635 -84,10.88418 v 13.37679 c 32.58063,19.93386 61.85164,10.67286 84,-5.1513 z"
         id="path18-9" />
      <path
         style="fill:#ffffff;stroke-width:2.33334"
         d="m 378,69.00315 c -2.8904,1.245855 -5.77211,2.371455 -8.63222,3.39813 1.22906,3.589875 5.7807,15.8862 6.31012,17.31711 0.78019,-0.528915 1.55866,-1.05717 2.3221,-1.6026 z m -10.6851,4.12524 c -3.90213,1.33656 -7.76676,2.471325 -11.57691,3.44265 -0.30618,2.328405 4.35211,16.755915 5.80528,21.175258 4.95317,-2.27281 9.65744,-5.002723 14.10098,-8.013073 -0.85032,-2.14059 -5.60741,-13.944765 -8.32935,-16.604835 z m -13.78125,3.99168 c -4.45468,1.06524 -8.82374,1.900005 -13.09133,2.537475 -0.0873,5.025915 2.07948,19.773695 2.70912,23.950155 6.41822,-1.13697 12.55352,-3.18598 18.35819,-5.846562 -1.47718,-4.326753 -6.2846,-18.249423 -7.97598,-20.641068 z m -10.38221,26.48762 c -0.64466,-4.19247 -3.05207,-19.228715 -5.08171,-23.62367 -5.09364,0.681615 -10.02142,1.097865 -14.74039,1.290975 -1.48753,3.759 -1.63364,18.538095 -1.64904,22.555295 7.44576,1.17303 14.6159,0.9918 21.47114,-0.2226 z m -21.47114,0.2226 c -0.005,-3.96771 -0.0777,-18.20099 -0.77405,-22.46624 -4.69229,0.123 -9.14937,0.0336 -13.34375,-0.19296 -1.59938,2.985105 -2.97135,13.018858 -3.51682,17.37647 6.01759,2.66595 11.90726,4.38038 17.6346,5.28269 z M 294,79.880175 V 93.26496 c 3.3695,2.061558 6.70073,3.805768 9.99519,5.26784 0.42493,-4.307362 1.37468,-14.185415 1.44711,-17.49518 C 301.32844,80.76345 297.49541,80.35536 294,79.880175 Z"
         id="path20-1" />
      <path
         d="M 379.501,44.474045 C 364.18758,42.507155 354.18263,45.82094 345.61853,50.3246 354.32049,39.240254 365.1844,35.774026 379.501,44.474045 Z m -92,9.762412 c 14.56048,-5.134379 25.03788,-3.992328 34.35598,-1.384684 C 311.02411,43.838684 299.6749,42.727681 287.501,54.236457 Z"
         style="fill:#000000;fill-opacity:1;fill-rule:evenodd;stroke:none;stroke-width:0.999998;opacity:0.2"
         id="path3416" />
      <path
         d="M 379.501,43.474045 C 364.18758,41.507155 354.18263,44.82094 345.61853,49.3246 354.32049,38.240254 365.1844,34.774026 379.501,43.474045 Z m -92,9.762412 c 14.56048,-5.134379 25.03788,-3.992328 34.35598,-1.384684 C 311.02411,42.838684 299.6749,41.727681 287.501,53.236457 Z"
         style="fill:#3f3f3f;fill-opacity:1;fill-rule:evenodd;stroke:none;stroke-width:0.999998"
         id="path3035"
         sodipodi:nodetypes="cccccc" />
    </g>
  </g>
  <g
     id="Highlights">
    <path
       id="rect653"
       style="opacity:0.2;fill:#ffffff"
       d="M 80,44 C 53.408027,44 32,65.408027 32,92 v 2 C 32,67.408027 53.408027,46 80,46 h 128 c 26.59197,0 48,21.408027 48,48 V 92 C 256,65.408027 234.59197,44 208,44 Z"
       sodipodi:nodetypes="sscsscsss" />
    <path
       id="rect773"
       style="opacity:0.2;fill:#ffffff"
       d="m 312,34 c -9.97199,0 -18,8.02801 -18,18 v 1 c 0,-9.97199 8.02801,-18 18,-18 h 48 c 9.97199,0 18,8.02801 18,18 v -1 c 0,-9.97199 -8.02801,-18 -18,-18 z" />
    <path
       id="rect1135"
       style="opacity:0.2;fill:#ffffff;fill-opacity:1"
       d="m 304,144 c -6.64799,0 -12,5.35201 -12,12 v 1 c 0,-6.64799 5.35201,-12 12,-12 h 32 c 6.64799,0 12,5.35201 12,12 v -1 c 0,-6.64799 -5.35201,-12 -12,-12 z" />
    <path
       id="rect1265"
       style="opacity:0.2;fill:#ffffff;fill-opacity:1"
       d="m 300,223 c -4.986,0 -9,4.014 -9,9 v 1 c 0,-4.986 4.014,-9 9,-9 h 24 c 4.986,0 9,4.014 9,9 v -1 c 0,-4.986 -4.014,-9 -9,-9 z" />
    <path
       id="rect1368"
       style="opacity:0.2;fill:#ffffff;fill-opacity:1"
       d="m 424,54 c -3.324,0 -6,2.676003 -6,6 v 1 c 0,-3.323997 2.676,-6 6,-6 h 16 c 3.324,0 6,2.676003 6,6 v -1 c 0,-3.323997 -2.676,-6 -6,-6 z" />
    <path
       id="rect1402"
       style="opacity:0.2;fill:#ffffff;fill-opacity:1"
       d="m 420,140 c -2.216,0 -4,1.784 -4,4 v 1 c 0,-2.216 1.784,-4 4,-4 h 8 c 2.216,0 4,1.784 4,4 v -1 c 0,-2.216 -1.784,-4 -4,-4 z" />
    <path
       id="rect1436"
       style="opacity:0.2;fill:#ffffff;fill-opacity:1"
       d="m 422,102 c -2.216,0 -4,1.784 -4,4 v 1 c 0,-2.216 1.784,-4 4,-4 h 12 c 2.216,0 4,1.784 4,4 v -1 c 0,-2.216 -1.784,-4 -4,-4 z" />
  </g>
</svg>
