<?xml version="1.0" encoding="UTF-8" standalone="no"?>
<!-- Created with Inkscape (http://www.inkscape.org/) -->

<svg
   width="480"
   height="300"
   viewBox="0 0 480 300"
   version="1.1"
   id="svg5"
   inkscape:version="1.2.2 (1:1.2.2+202305151914+b0a8486541)"
   sodipodi:docname="chromium.svg"
   xmlns:inkscape="http://www.inkscape.org/namespaces/inkscape"
   xmlns:sodipodi="http://sodipodi.sourceforge.net/DTD/sodipodi-0.dtd"
   xmlns="http://www.w3.org/2000/svg"
   xmlns:svg="http://www.w3.org/2000/svg">
  <sodipodi:namedview
     id="namedview7"
     pagecolor="#888888"
     bordercolor="#000000"
     borderopacity="0.25"
     inkscape:showpageshadow="true"
     inkscape:pageopacity="0"
     inkscape:pagecheckerboard="0"
     inkscape:deskcolor="#888888"
     inkscape:document-units="px"
     showgrid="false"
     showborder="false"
     inkscape:zoom="2.6866667"
     inkscape:cx="240.07444"
     inkscape:cy="150"
     inkscape:window-width="1920"
     inkscape:window-height="1008"
     inkscape:window-x="0"
     inkscape:window-y="0"
     inkscape:window-maximized="1"
     inkscape:current-layer="svg5" />
  <defs
     id="defs2" />
  <g
     id="Baseplate"
     style="display:none">
    <text
       y="19.774782"
       xml:space="preserve"
       x="15.006946"
       style="font-style:normal;font-variant:normal;font-weight:normal;font-stretch:normal;line-height:0%;font-family:'DejaVu Sans';-inkscape-font-specification:'DejaVu Sans';display:inline;fill:#000000;fill-opacity:1;stroke:none;enable-background:new"
       inkscape:label="context"
       id="context"><tspan
         style="font-style:normal;font-variant:normal;font-weight:normal;font-stretch:normal;font-size:18px;line-height:1.25;font-family:'DejaVu Sans';-inkscape-font-specification:'DejaVu Sans'"
         y="19.774782"
         x="15.006946"
         sodipodi:role="line"
         id="tspan3933">apps</tspan></text>
    <text
       y="19.774782"
       xml:space="preserve"
       x="122.48839"
       style="font-style:normal;font-variant:normal;font-weight:bold;font-stretch:normal;line-height:0%;font-family:'DejaVu Sans';-inkscape-font-specification:'DejaVu Sans Bold';text-align:start;writing-mode:lr-tb;text-anchor:start;display:inline;fill:#000000;fill-opacity:1;stroke:none;enable-background:new"
       inkscape:label="icon-name"
       id="icon-name"><tspan
         style="font-style:normal;font-variant:normal;font-weight:bold;font-stretch:normal;font-size:18px;line-height:1.25;font-family:'DejaVu Sans';-inkscape-font-specification:'DejaVu Sans Bold'"
         y="19.774782"
         x="122.48839"
         sodipodi:role="line"
         id="tspan3937">chromium</tspan></text>
    <rect
       style="fill:#ffffff"
       id="256x256"
       width="256"
       height="256"
       x="16"
       y="28" />
    <rect
       style="fill:#ffffff"
       id="96x96"
       width="96"
       height="96"
       x="288"
       y="28" />
    <rect
       style="fill:#ffffff"
       id="64x64"
       width="64"
       height="64"
       x="288"
       y="140" />
    <rect
       style="fill:#ffffff"
       id="48x48"
       width="48"
       height="48"
       x="288"
       y="220" />
    <rect
       style="fill:#ffffff"
       id="32x32"
       width="32"
       height="32"
       x="416"
       y="52" />
    <rect
       style="fill:#ffffff"
       id="24x24"
       width="24"
       height="24"
       x="416"
       y="100" />
    <rect
       style="fill:#ffffff"
       id="22x22"
       width="22"
       height="22"
       x="417"
       y="101" />
    <rect
       style="fill:#ffffff"
       id="16x16"
       width="16"
       height="16"
       x="416"
       y="140" />
  </g>
  <g
     id="Shadow">
    <rect
       style="opacity:0.2;fill:#000000"
       id="rect651"
       width="224"
       height="224"
       x="32"
       y="46"
       ry="48" />
    <rect
       style="opacity:0.2;fill:#000000"
       id="rect769"
       width="84"
       height="85"
       x="294"
       y="34"
       ry="18" />
    <rect
       style="opacity:0.2;fill:#000000;fill-opacity:1"
       id="rect1131"
       width="56"
       height="56"
       x="292"
       y="145"
       ry="12" />
    <rect
       style="opacity:0.2;fill:#000000;fill-opacity:1"
       id="rect1261"
       width="42"
       height="42"
       x="291"
       y="224"
       ry="9" />
    <rect
       style="opacity:0.2;fill:#000000;fill-opacity:1"
       id="rect1364"
       width="28"
       height="29"
       x="418"
       y="54"
       ry="6" />
    <rect
       style="opacity:0.2;fill:#000000;fill-opacity:1"
       id="rect1398"
       width="16"
       height="16"
       x="416"
       y="141"
       ry="4" />
    <rect
       style="opacity:0.2;fill:#000000;fill-opacity:1"
       id="rect1432"
       width="20"
       height="20"
       x="418"
       y="103"
       ry="4" />
  </g>
  <g
     id="Background">
    <rect
       style="fill:#efefef;fill-opacity:1"
       id="rect597"
       width="224"
       height="224"
       x="32"
       y="44"
       ry="48" />
    <rect
       style="opacity:1;fill:#efefef;fill-opacity:1"
       id="rect771"
       width="84"
       height="84"
       x="294"
       y="34"
       ry="18" />
    <rect
       style="opacity:1;fill:#efefef;fill-opacity:1"
       id="rect1133"
       width="56"
       height="56"
       x="292"
       y="144"
       ry="12" />
    <rect
       style="opacity:1;fill:#efefef;fill-opacity:1"
       id="rect1263"
       width="42"
       height="42"
       x="291"
       y="223"
       ry="9" />
    <rect
       style="opacity:1;fill:#efefef;fill-opacity:1"
       id="rect1366"
       width="28"
       height="28"
       x="418"
       y="54"
       ry="6" />
    <rect
       style="opacity:1;fill:#efefef;fill-opacity:1"
       id="rect1400"
       width="16"
       height="16"
       x="416"
       y="140"
       ry="4" />
    <rect
       style="opacity:1;fill:#efefef;fill-opacity:1"
       id="rect1434"
       width="20"
       height="20"
       x="418"
       y="102"
       ry="4" />
  </g>
  <g
     id="Symbols"
     transform="translate(-105.00745,23.866005)">
    <g
       id="chromium-16"
       transform="matrix(1.2,0,0,1.2,517.85594,114.43703)">
      <path
         d="m 9.2929189,3.080812 c -1.8506347,0 -3.4651958,1.0061482 -4.3297602,2.5006071 l 0.1630996,2.916032 2.0015586,0.8333658 2.165102,-1.2499715 V 5.5808286 H 13.622382 C 12.75767,4.0867388 11.143331,3.080812 9.2929189,3.080812 Z"
         style="fill:#1967d2;fill-opacity:1;stroke-width:0.0195312"
         id="path1309-0" />
      <path
         d="m 4.2929586,8.0808454 c 0,2.7614086 2.2384774,4.9999586 4.9999596,4.9999586 L 11.485852,11.908511 11.45802,9.3308169 9.2929182,8.0808454 7.1278169,9.3308169 4.9631582,5.5814191 C 4.5376896,6.316889 4.2929293,7.169923 4.2929293,8.0807717"
         style="fill:#669df6;fill-opacity:1;stroke-width:0.0195312"
         id="path1449-615"
         sodipodi:nodetypes="cccccccc" />
      <path
         d="M 9.2929708,8.0808454 11.458072,9.3308169 9.2929708,13.080804 c 2.7614072,0 4.9999582,-2.23855 4.9999582,-4.9999586 0,-0.9109962 -0.24484,-1.7643403 -0.670547,-2.5000168 H 9.2929189 Z"
         style="fill:#aecbfa;fill-opacity:1;stroke-width:0.0195312"
         id="path1829-54" />
      <path
         d="m 11.792988,8.0808454 c 0,1.3807041 -1.119313,2.5000166 -2.5000172,2.5000166 -1.3807047,0 -2.5000172,-1.1193125 -2.5000172,-2.5000166 0,-1.3807045 1.1193125,-2.5000168 2.5000172,-2.5000168 1.3807042,0 2.5000172,1.1193123 2.5000172,2.5000168"
         style="fill:#ffffff;stroke-width:0.0195312"
         id="path2229-7" />
      <path
         d="m 10.959638,8.0808142 c 0,0.9204615 -0.746207,1.6666655 -1.6666673,1.6666655 -0.9204614,0 -1.6666668,-0.746204 -1.6666668,-1.6666655 0,-0.9204611 0.7462054,-1.6666664 1.6666668,-1.6666664 0.9204603,0 1.6666673,0.7462053 1.6666673,1.6666664"
         style="fill:#1a73e8;fill-opacity:1;stroke-width:0.0160255"
         id="path2029-6" />
    </g>
    <g
       id="chromium-24"
       transform="matrix(1.6000001,0,0,1.6000001,519.52866,67.915813)">
      <path
         d="m 8.4242321,7.6363676 c -1.8506347,0 -3.4651958,1.0061482 -4.3297602,2.5006074 l 0.1630996,2.916032 2.0015586,0.833365 2.165102,-1.249971 V 10.136384 H 12.753695 C 11.888983,8.6422944 10.274644,7.6363676 8.4242321,7.6363676 Z"
         style="fill:#1967d2;fill-opacity:1;stroke-width:0.0195312"
         id="path1309-3" />
      <path
         d="m 3.4242718,12.636401 c 0,2.761409 2.2384774,4.999959 4.9999596,4.999959 L 10.617165,16.464066 10.589333,13.886372 8.4242314,12.636401 6.2591301,13.886372 4.0944714,10.136975 c -0.4254686,0.73547 -0.6702289,1.588504 -0.6702289,2.499352"
         style="fill:#669df6;fill-opacity:1;stroke-width:0.0195312"
         id="path1449-61"
         sodipodi:nodetypes="cccccccc" />
      <path
         d="m 8.424284,12.636401 2.165101,1.249971 -2.165101,3.749988 c 2.761408,0 4.999958,-2.23855 4.999958,-4.999959 0,-0.910996 -0.24484,-1.76434 -0.670547,-2.500017 H 8.4242321 Z"
         style="fill:#aecbfa;fill-opacity:1;stroke-width:0.0195312"
         id="path1829-0" />
      <path
         d="m 10.924301,12.636401 c 0,1.380704 -1.1193128,2.500017 -2.500017,2.500017 -1.3807047,0 -2.5000172,-1.119313 -2.5000172,-2.500017 0,-1.380705 1.1193125,-2.500017 2.5000172,-2.500017 1.3807042,0 2.500017,1.119312 2.500017,2.500017"
         style="fill:#ffffff;stroke-width:0.0195312"
         id="path2229-6" />
      <path
         d="m 10.299284,12.636401 c 0,1.03552 -0.8394815,1.874999 -1.8749998,1.874999 -1.035519,0 -1.8750001,-0.839479 -1.8750001,-1.874999 0,-1.035518 0.8394811,-1.874999 1.8750001,-1.874999 1.0355183,0 1.8749998,0.839481 1.8749998,1.874999"
         style="fill:#1a73e8;fill-opacity:1;stroke-width:0.0180287"
         id="path2029-32" />
    </g>
    <g
       id="chromium-32"
       transform="matrix(2.2232514,0,0,2.2232514,522.88991,30.016356)">
      <path
         d="m 6.3499908,1.8520833 c -1.6648002,0 -3.1172325,0.9051142 -3.8949803,2.2495046 L 2.6017322,6.7248018 4.4023011,7.4744838 6.3499908,6.3500302 V 4.1010567 H 10.244704 C 9.4668234,2.7569983 8.014591,1.8520833 6.3499908,1.8520833 Z"
         style="fill:#1967d2;fill-opacity:1;stroke-width:0.0175699"
         id="path1309-9" />
      <path
         d="m 1.8521097,6.3500302 c 0,2.4841174 2.013697,4.4978798 4.4978805,4.4978798 L 8.322717,9.7933342 8.2976798,7.4744838 6.3499902,6.3500302 4.4023011,7.4744838 2.4550101,4.1015879 C 2.0722656,4.7632044 1.8520833,5.5305796 1.8520833,6.3499639"
         style="fill:#669df6;fill-opacity:1;stroke-width:0.0175699"
         id="path1449-47"
         sodipodi:nodetypes="cccccccc" />
      <path
         d="m 6.3500375,6.3500302 1.947689,1.1244536 -1.947689,3.3734262 c 2.4841163,0 4.4978795,-2.0137624 4.4978795,-4.4978798 0,-0.819517 -0.220254,-1.5871712 -0.603213,-2.2489735 H 6.3499908 Z"
         style="fill:#aecbfa;fill-opacity:1;stroke-width:0.0175699"
         id="path1829-8" />
      <path
         d="m 8.5990112,6.3500302 c 0,1.2420585 -1.0069151,2.2489734 -2.2489737,2.2489734 -1.242059,0 -2.2489739,-1.0069149 -2.2489739,-2.2489734 0,-1.2420588 1.0069149,-2.2489735 2.2489739,-2.2489735 1.2420586,0 2.2489737,1.0069147 2.2489737,2.2489735"
         style="fill:#ffffff;stroke-width:0.0175699"
         id="path2229-45" />
      <path
         d="m 8.1492041,6.3500006 c 0,0.9936382 -0.8055294,1.7991655 -1.7991667,1.7991655 -0.9936381,0 -1.7991668,-0.8055273 -1.7991668,-1.7991655 0,-0.9936377 0.8055287,-1.7991663 1.7991668,-1.7991663 0.9936373,0 1.7991667,0.8055286 1.7991667,1.7991663"
         style="fill:#1a73e8;fill-opacity:1;stroke-width:0.0172995"
         id="path2029-0" />
    </g>
    <g
       id="chromium-48"
       transform="matrix(3.2000002,0,0,3.2000002,390.04978,179.69763)">
      <path
         d="m 8.4242321,7.6363676 c -1.8506347,0 -3.4651958,1.0061482 -4.3297602,2.5006074 l 0.1630996,2.916032 2.0015586,0.833365 2.165102,-1.249971 V 10.136384 H 12.753695 C 11.888983,8.6422944 10.274644,7.6363676 8.4242321,7.6363676 Z"
         style="fill:#1967d2;fill-opacity:1;stroke-width:0.0195312"
         id="path1309-73" />
      <path
         d="m 3.4242718,12.636401 c 0,2.761409 2.2384774,4.999959 4.9999596,4.999959 L 10.617165,16.464066 10.589333,13.886372 8.4242314,12.636401 6.2591301,13.886372 4.0944714,10.136975 c -0.4254686,0.73547 -0.6702289,1.588504 -0.6702289,2.499352"
         style="fill:#669df6;fill-opacity:1;stroke-width:0.0195312"
         id="path1449-6"
         sodipodi:nodetypes="cccccccc" />
      <path
         d="m 8.424284,12.636401 2.165101,1.249971 -2.165101,3.749988 c 2.761408,0 4.999958,-2.23855 4.999958,-4.999959 0,-0.910996 -0.24484,-1.76434 -0.670547,-2.500017 H 8.4242321 Z"
         style="fill:#aecbfa;fill-opacity:1;stroke-width:0.0195312"
         id="path1829-12" />
      <path
         d="m 10.924301,12.636401 c 0,1.380704 -1.1193128,2.500017 -2.500017,2.500017 -1.3807047,0 -2.5000172,-1.119313 -2.5000172,-2.500017 0,-1.380705 1.1193125,-2.500017 2.5000172,-2.500017 1.3807042,0 2.500017,1.119312 2.500017,2.500017"
         style="fill:#ffffff;stroke-width:0.0195312"
         id="path2229-9" />
      <path
         d="m 10.299284,12.636401 c 0,1.03552 -0.8394815,1.874999 -1.8749998,1.874999 -1.035519,0 -1.8750001,-0.839479 -1.8750001,-1.874999 0,-1.035518 0.8394811,-1.874999 1.8750001,-1.874999 1.0355183,0 1.8749998,0.839481 1.8749998,1.874999"
         style="fill:#1a73e8;fill-opacity:1;stroke-width:0.0180287"
         id="path2029-31" />
    </g>
    <g
       id="chromium-64"
       transform="matrix(4.4465028,0,0,4.4465028,396.77195,119.89872)">
      <path
         d="m 6.3499908,1.8520833 c -1.6648002,0 -3.1172325,0.9051142 -3.8949803,2.2495046 L 2.6017322,6.7248018 4.4023011,7.4744838 6.3499908,6.3500302 V 4.1010567 H 10.244704 C 9.4668234,2.7569983 8.014591,1.8520833 6.3499908,1.8520833 Z"
         style="fill:#1967d2;fill-opacity:1;stroke-width:0.0175699"
         id="path1309-5-5" />
      <path
         d="m 1.8521097,6.3500302 c 0,2.4841174 2.013697,4.4978798 4.4978805,4.4978798 L 8.322717,9.7933342 8.2976798,7.4744838 6.3499902,6.3500302 4.4023011,7.4744838 2.4550101,4.1015879 C 2.0722656,4.7632044 1.8520833,5.5305796 1.8520833,6.3499639"
         style="fill:#669df6;fill-opacity:1;stroke-width:0.0175699"
         id="path1449-69-4"
         sodipodi:nodetypes="cccccccc" />
      <path
         d="m 6.3500375,6.3500302 1.947689,1.1244536 -1.947689,3.3734262 c 2.4841163,0 4.4978795,-2.0137624 4.4978795,-4.4978798 0,-0.819517 -0.220254,-1.5871712 -0.603213,-2.2489735 H 6.3499908 Z"
         style="fill:#aecbfa;fill-opacity:1;stroke-width:0.0175699"
         id="path1829-3-7" />
      <path
         d="m 8.5990112,6.3500302 c 0,1.2420585 -1.0069151,2.2489734 -2.2489737,2.2489734 -1.242059,0 -2.2489739,-1.0069149 -2.2489739,-2.2489734 0,-1.2420588 1.0069149,-2.2489735 2.2489739,-2.2489735 1.2420586,0 2.2489737,1.0069147 2.2489737,2.2489735"
         style="fill:#ffffff;stroke-width:0.0175699"
         id="path2229-74-4" />
      <path
         d="m 8.1492041,6.3500006 c 0,0.9936382 -0.8055294,1.7991655 -1.7991667,1.7991655 -0.9936381,0 -1.7991668,-0.8055273 -1.7991668,-1.7991655 0,-0.9936377 0.8055287,-1.7991663 1.7991668,-1.7991663 0.9936373,0 1.7991667,0.8055286 1.7991667,1.7991663"
         style="fill:#1a73e8;fill-opacity:1;stroke-width:0.0172995"
         id="path2029-5-4" />
    </g>
    <g
       id="chromium-96"
       transform="matrix(6.4000003,0,0,6.4000003,387.0923,-28.738735)">
      <path
         d="m 8.4242321,7.6363676 c -1.8506347,0 -3.4651958,1.0061482 -4.3297602,2.5006074 l 0.1630996,2.916032 2.0015586,0.833365 2.165102,-1.249971 V 10.136384 H 12.753695 C 11.888983,8.6422944 10.274644,7.6363676 8.4242321,7.6363676 Z"
         style="fill:#1967d2;fill-opacity:1;stroke-width:0.0195312"
         id="path1309-73-4" />
      <path
         d="m 3.4242718,12.636401 c 0,2.761409 2.2384774,4.999959 4.9999596,4.999959 L 10.617165,16.464066 10.589333,13.886372 8.4242314,12.636401 6.2591301,13.886372 4.0944714,10.136975 c -0.4254686,0.73547 -0.6702289,1.588504 -0.6702289,2.499352"
         style="fill:#669df6;fill-opacity:1;stroke-width:0.0195312"
         id="path1449-6-3"
         sodipodi:nodetypes="cccccccc" />
      <path
         d="m 8.424284,12.636401 2.165101,1.249971 -2.165101,3.749988 c 2.761408,0 4.999958,-2.23855 4.999958,-4.999959 0,-0.910996 -0.24484,-1.76434 -0.670547,-2.500017 H 8.4242321 Z"
         style="fill:#aecbfa;fill-opacity:1;stroke-width:0.0195312"
         id="path1829-12-1" />
      <path
         d="m 10.924301,12.636401 c 0,1.380704 -1.1193128,2.500017 -2.500017,2.500017 -1.3807047,0 -2.5000172,-1.119313 -2.5000172,-2.500017 0,-1.380705 1.1193125,-2.500017 2.5000172,-2.500017 1.3807042,0 2.500017,1.119312 2.500017,2.500017"
         style="fill:#ffffff;stroke-width:0.0195312"
         id="path2229-9-4" />
      <path
         d="m 10.455533,12.636401 c 0,1.121813 -0.9094384,2.031249 -2.0312498,2.031249 -1.1218123,0 -2.0312501,-0.909436 -2.0312501,-2.031249 0,-1.121811 0.9094378,-2.031249 2.0312501,-2.031249 1.1218114,0 2.0312498,0.909438 2.0312498,2.031249"
         style="fill:#1a73e8;fill-opacity:1;stroke-width:0.0195311"
         id="path2029-31-9" />
    </g>
    <g
       id="chromium-256"
       transform="matrix(17.786011,0,0,17.786011,136.06544,19.192885)">
      <path
         d="m 6.3499908,1.8520833 c -1.6648002,0 -3.1172325,0.9051142 -3.8949803,2.2495046 L 2.6017322,6.7248018 4.4023011,7.4744838 6.3499908,6.3500302 V 4.1010567 H 10.244704 C 9.4668234,2.7569983 8.014591,1.8520833 6.3499908,1.8520833 Z"
         style="fill:#1967d2;fill-opacity:1;stroke-width:0.0175699"
         id="path1309-5" />
      <path
         d="m 1.8521097,6.3500302 c 0,2.4841174 2.013697,4.4978798 4.4978805,4.4978798 L 8.322717,9.7933342 8.2976798,7.4744838 6.3499902,6.3500302 4.4023011,7.4744838 2.4550101,4.1015879 C 2.0722656,4.7632044 1.8520833,5.5305796 1.8520833,6.3499639"
         style="fill:#669df6;fill-opacity:1;stroke-width:0.0175699"
         id="path1449-69"
         sodipodi:nodetypes="cccccccc" />
      <path
         d="m 6.3500375,6.3500302 1.947689,1.1244536 -1.947689,3.3734262 c 2.4841163,0 4.4978795,-2.0137624 4.4978795,-4.4978798 0,-0.819517 -0.220254,-1.5871712 -0.603213,-2.2489735 H 6.3499908 Z"
         style="fill:#aecbfa;fill-opacity:1;stroke-width:0.0175699"
         id="path1829-3" />
      <path
         d="m 8.5990112,6.3500302 c 0,1.2420585 -1.0069151,2.2489734 -2.2489737,2.2489734 -1.242059,0 -2.2489739,-1.0069149 -2.2489739,-2.2489734 0,-1.2420588 1.0069149,-2.2489735 2.2489739,-2.2489735 1.2420586,0 2.2489737,1.0069147 2.2489737,2.2489735"
         style="fill:#ffffff;stroke-width:0.0175699"
         id="path2229-74" />
      <path
         d="m 8.1492041,6.3500006 c 0,0.9936382 -0.8055294,1.7991655 -1.7991667,1.7991655 -0.9936381,0 -1.7991668,-0.8055273 -1.7991668,-1.7991655 0,-0.9936377 0.8055287,-1.7991663 1.7991668,-1.7991663 0.9936373,0 1.7991667,0.8055286 1.7991667,1.7991663"
         style="fill:#1a73e8;fill-opacity:1;stroke-width:0.0172995"
         id="path2029-5" />
    </g>
  </g>
  <g
     id="Highlights">
    <path
       id="rect653"
       style="opacity:0.5;fill:#ffffff"
       d="M 80,44 C 53.408027,44 32,65.408027 32,92 v 2 C 32,67.408027 53.408027,46 80,46 h 128 c 26.59197,0 48,21.408027 48,48 V 92 C 256,65.408027 234.59197,44 208,44 Z"
       sodipodi:nodetypes="sscsscsss" />
    <path
       id="rect773"
       style="opacity:0.5;fill:#ffffff"
       d="m 312,34 c -9.97199,0 -18,8.02801 -18,18 v 1 c 0,-9.97199 8.02801,-18 18,-18 h 48 c 9.97199,0 18,8.02801 18,18 v -1 c 0,-9.97199 -8.02801,-18 -18,-18 z" />
    <path
       id="rect1135"
       style="opacity:0.5;fill:#ffffff;fill-opacity:1"
       d="m 304,144 c -6.64799,0 -12,5.35201 -12,12 v 1 c 0,-6.64799 5.35201,-12 12,-12 h 32 c 6.64799,0 12,5.35201 12,12 v -1 c 0,-6.64799 -5.35201,-12 -12,-12 z" />
    <path
       id="rect1265"
       style="opacity:0.5;fill:#ffffff;fill-opacity:1"
       d="m 300,223 c -4.986,0 -9,4.014 -9,9 v 1 c 0,-4.986 4.014,-9 9,-9 h 24 c 4.986,0 9,4.014 9,9 v -1 c 0,-4.986 -4.014,-9 -9,-9 z" />
    <path
       id="rect1368"
       style="opacity:0.5;fill:#ffffff;fill-opacity:1"
       d="m 424,54 c -3.324,0 -6,2.676003 -6,6 v 1 c 0,-3.323997 2.676,-6 6,-6 h 16 c 3.324,0 6,2.676003 6,6 v -1 c 0,-3.323997 -2.676,-6 -6,-6 z" />
    <path
       id="rect1402"
       style="opacity:0.5;fill:#ffffff;fill-opacity:1"
       d="m 420,140 c -2.216,0 -4,1.784 -4,4 v 1 c 0,-2.216 1.784,-4 4,-4 h 8 c 2.216,0 4,1.784 4,4 v -1 c 0,-2.216 -1.784,-4 -4,-4 z" />
    <path
       id="rect1436"
       style="opacity:0.5;fill:#ffffff;fill-opacity:1"
       d="m 422,102 c -2.216,0 -4,1.784 -4,4 v 1 c 0,-2.216 1.784,-4 4,-4 h 12 c 2.216,0 4,1.784 4,4 v -1 c 0,-2.216 -1.784,-4 -4,-4 z" />
  </g>
</svg>
