<?xml version="1.0" encoding="UTF-8" standalone="no"?>
<!-- Created with Inkscape (http://www.inkscape.org/) -->

<svg
   width="480"
   height="300"
   viewBox="0 0 480 300"
   version="1.1"
   id="svg5"
   inkscape:version="1.2.2 (1:1.2.2+202305151914+b0a8486541)"
   sodipodi:docname="codeblocks.svg"
   xmlns:inkscape="http://www.inkscape.org/namespaces/inkscape"
   xmlns:sodipodi="http://sodipodi.sourceforge.net/DTD/sodipodi-0.dtd"
   xmlns="http://www.w3.org/2000/svg"
   xmlns:svg="http://www.w3.org/2000/svg">
  <sodipodi:namedview
     id="namedview7"
     pagecolor="#888888"
     bordercolor="#000000"
     borderopacity="0.25"
     inkscape:showpageshadow="true"
     inkscape:pageopacity="0"
     inkscape:pagecheckerboard="0"
     inkscape:deskcolor="#888888"
     inkscape:document-units="px"
     showgrid="false"
     showborder="false"
     inkscape:zoom="2.6866667"
     inkscape:cx="239.88834"
     inkscape:cy="150"
     inkscape:window-width="1920"
     inkscape:window-height="1008"
     inkscape:window-x="0"
     inkscape:window-y="0"
     inkscape:window-maximized="1"
     inkscape:current-layer="svg5" />
  <defs
     id="defs2">
    <mask
       maskUnits="userSpaceOnUse"
       id="mask1781">
      <rect
         style="opacity:1;fill:#ffffff;fill-opacity:1;stroke-width:2;stroke-linecap:square"
         id="rect1783"
         width="224"
         height="224"
         x="32"
         y="44"
         ry="48" />
    </mask>
    <mask
       maskUnits="userSpaceOnUse"
       id="mask1785">
      <rect
         style="opacity:1;fill:#ffffff;fill-opacity:1;stroke-width:2;stroke-linecap:square"
         id="rect1787"
         width="224"
         height="224"
         x="32"
         y="44"
         ry="48" />
    </mask>
    <mask
       maskUnits="userSpaceOnUse"
       id="mask1791">
      <rect
         style="opacity:1;fill:#ffffff;fill-opacity:1;stroke-width:2;stroke-linecap:square"
         id="rect1793"
         width="84"
         height="84"
         x="294"
         y="34"
         ry="18" />
    </mask>
    <mask
       maskUnits="userSpaceOnUse"
       id="mask1795">
      <rect
         style="opacity:1;fill:#ffffff;fill-opacity:1;stroke-width:2;stroke-linecap:square"
         id="rect1797"
         width="84"
         height="84"
         x="294"
         y="34"
         ry="18" />
    </mask>
    <mask
       maskUnits="userSpaceOnUse"
       id="mask1801">
      <rect
         style="opacity:1;fill:#ffffff;fill-opacity:1;stroke-width:2;stroke-linecap:square"
         id="rect1803"
         width="56"
         height="56"
         x="292"
         y="144"
         ry="12" />
    </mask>
    <mask
       maskUnits="userSpaceOnUse"
       id="mask1805">
      <rect
         style="opacity:1;fill:#ffffff;fill-opacity:1;stroke-width:2;stroke-linecap:square"
         id="rect1807"
         width="56"
         height="56"
         x="292"
         y="144"
         ry="12" />
    </mask>
    <mask
       maskUnits="userSpaceOnUse"
       id="mask1811">
      <rect
         style="opacity:1;fill:#ffffff;fill-opacity:1;stroke-width:2;stroke-linecap:square"
         id="rect1813"
         width="42"
         height="42"
         x="291"
         y="223"
         ry="9" />
    </mask>
    <mask
       maskUnits="userSpaceOnUse"
       id="mask1815">
      <rect
         style="opacity:1;fill:#ffffff;fill-opacity:1;stroke-width:2;stroke-linecap:square"
         id="rect1817"
         width="42"
         height="42"
         x="291"
         y="223"
         ry="9" />
    </mask>
    <mask
       maskUnits="userSpaceOnUse"
       id="mask1890">
      <rect
         style="opacity:1;fill:#ffffff;fill-opacity:1;stroke-width:2;stroke-linecap:square"
         id="rect1892"
         width="28"
         height="28"
         x="418"
         y="54"
         ry="6" />
    </mask>
    <mask
       maskUnits="userSpaceOnUse"
       id="mask1894">
      <rect
         style="opacity:1;fill:#ffffff;fill-opacity:1;stroke-width:2;stroke-linecap:square"
         id="rect1896"
         width="28"
         height="28"
         x="418"
         y="54"
         ry="6" />
    </mask>
    <mask
       maskUnits="userSpaceOnUse"
       id="mask2115">
      <rect
         style="opacity:1;fill:#ffffff;fill-opacity:1;stroke-width:2;stroke-linecap:square"
         id="rect2117"
         width="20"
         height="20"
         x="418"
         y="102"
         ry="4" />
    </mask>
    <mask
       maskUnits="userSpaceOnUse"
       id="mask2119">
      <rect
         style="opacity:1;fill:#ffffff;fill-opacity:1;stroke-width:2;stroke-linecap:square"
         id="rect2121"
         width="20"
         height="20"
         x="418"
         y="102"
         ry="4" />
    </mask>
    <mask
       maskUnits="userSpaceOnUse"
       id="mask2125">
      <rect
         style="opacity:1;fill:#ffffff;fill-opacity:1;stroke-width:2;stroke-linecap:square"
         id="rect2127"
         width="16"
         height="16"
         x="416"
         y="140"
         ry="4" />
    </mask>
    <mask
       maskUnits="userSpaceOnUse"
       id="mask2129">
      <rect
         style="opacity:1;fill:#ffffff;fill-opacity:1;stroke-width:2;stroke-linecap:square"
         id="rect2131"
         width="16"
         height="16"
         x="416"
         y="140"
         ry="4" />
    </mask>
    <mask
       maskUnits="userSpaceOnUse"
       id="mask1741">
      <rect
         style="opacity:1;fill:#ffffff;stroke-width:2;stroke-linecap:square"
         id="rect1743"
         width="112"
         height="112"
         x="32"
         y="156" />
    </mask>
    <mask
       maskUnits="userSpaceOnUse"
       id="mask1745">
      <rect
         style="opacity:1;fill:#ffffff;stroke-width:2;stroke-linecap:square"
         id="rect1747"
         width="42"
         height="42"
         x="294"
         y="76" />
    </mask>
    <mask
       maskUnits="userSpaceOnUse"
       id="mask1749">
      <rect
         style="opacity:1;fill:#ffffff;stroke-width:2;stroke-linecap:square"
         id="rect1751"
         width="28"
         height="28"
         x="292"
         y="172" />
    </mask>
    <mask
       maskUnits="userSpaceOnUse"
       id="mask1753">
      <rect
         style="opacity:1;fill:#ffffff;stroke-width:2;stroke-linecap:square"
         id="rect1755"
         width="21"
         height="21"
         x="291"
         y="244" />
    </mask>
    <mask
       maskUnits="userSpaceOnUse"
       id="mask1757">
      <rect
         style="opacity:1;fill:#ffffff;stroke-width:2;stroke-linecap:square"
         id="rect1759"
         width="8"
         height="8"
         x="416"
         y="148" />
    </mask>
    <mask
       maskUnits="userSpaceOnUse"
       id="mask1761">
      <rect
         style="opacity:1;fill:#ffffff;stroke-width:2;stroke-linecap:square"
         id="rect1763"
         width="10"
         height="10"
         x="418"
         y="112" />
    </mask>
    <mask
       maskUnits="userSpaceOnUse"
       id="mask1765">
      <rect
         style="opacity:1;fill:#ffffff;stroke-width:2;stroke-linecap:square"
         id="rect1767"
         width="14"
         height="14"
         x="418"
         y="68" />
    </mask>
    <mask
       maskUnits="userSpaceOnUse"
       id="mask1907">
      <rect
         style="opacity:1;fill:#ffffff;fill-opacity:1;stroke-width:2;stroke-linecap:square"
         id="rect1909"
         width="112"
         height="112"
         x="32"
         y="44" />
    </mask>
    <mask
       maskUnits="userSpaceOnUse"
       id="mask2017">
      <rect
         style="fill:#ffffff;fill-opacity:1;stroke-width:0.380952;stroke-linecap:square"
         id="rect2019"
         width="8"
         height="8"
         x="416"
         y="140" />
    </mask>
    <mask
       maskUnits="userSpaceOnUse"
       id="mask2021">
      <rect
         style="fill:#ffffff;fill-opacity:1;stroke-width:0.47619;stroke-linecap:square"
         id="rect2023"
         width="10"
         height="10"
         x="418"
         y="102" />
    </mask>
    <mask
       maskUnits="userSpaceOnUse"
       id="mask2025">
      <rect
         style="fill:#ffffff;fill-opacity:1;stroke-width:0.666667;stroke-linecap:square"
         id="rect2027"
         width="14"
         height="14"
         x="418"
         y="54" />
    </mask>
    <mask
       maskUnits="userSpaceOnUse"
       id="mask2029">
      <rect
         style="opacity:1;fill:#ffffff;fill-opacity:1;stroke-width:2;stroke-linecap:square"
         id="rect2031"
         width="42"
         height="42"
         x="294"
         y="34" />
    </mask>
    <mask
       maskUnits="userSpaceOnUse"
       id="mask2033">
      <rect
         style="fill:#ffffff;fill-opacity:1;stroke-width:1.33333;stroke-linecap:square"
         id="rect2035"
         width="28"
         height="28"
         x="292"
         y="144" />
    </mask>
    <mask
       maskUnits="userSpaceOnUse"
       id="mask2037">
      <rect
         style="fill:#ffffff;fill-opacity:1;stroke-width:1;stroke-linecap:square"
         id="rect2039"
         width="21"
         height="21"
         x="291"
         y="223" />
    </mask>
    <mask
       maskUnits="userSpaceOnUse"
       id="mask1741-1">
      <rect
         style="opacity:1;fill:#ffffff;stroke-width:2;stroke-linecap:square"
         id="rect1743-2"
         width="112"
         height="112"
         x="32"
         y="156" />
    </mask>
    <mask
       maskUnits="userSpaceOnUse"
       id="mask1907-7">
      <rect
         style="opacity:1;fill:#ffffff;fill-opacity:1;stroke-width:2;stroke-linecap:square"
         id="rect1909-0"
         width="112"
         height="112"
         x="32"
         y="44" />
    </mask>
    <mask
       maskUnits="userSpaceOnUse"
       id="mask1741-1-6">
      <rect
         style="opacity:1;fill:#ffffff;stroke-width:2;stroke-linecap:square"
         id="rect1743-2-0"
         width="112"
         height="112"
         x="32"
         y="156" />
    </mask>
    <mask
       maskUnits="userSpaceOnUse"
       id="mask1741-1-2">
      <rect
         style="opacity:1;fill:#ffffff;stroke-width:2;stroke-linecap:square"
         id="rect1743-2-6"
         width="112"
         height="112"
         x="32"
         y="156" />
    </mask>
    <mask
       maskUnits="userSpaceOnUse"
       id="mask1741-1-8">
      <rect
         style="opacity:1;fill:#ffffff;stroke-width:2;stroke-linecap:square"
         id="rect1743-2-7"
         width="112"
         height="112"
         x="32"
         y="156" />
    </mask>
    <mask
       maskUnits="userSpaceOnUse"
       id="mask1741-1-20">
      <rect
         style="opacity:1;fill:#ffffff;stroke-width:2;stroke-linecap:square"
         id="rect1743-2-2"
         width="112"
         height="112"
         x="32"
         y="156" />
    </mask>
    <mask
       maskUnits="userSpaceOnUse"
       id="mask1741-1-7">
      <rect
         style="opacity:1;fill:#ffffff;stroke-width:2;stroke-linecap:square"
         id="rect1743-2-5"
         width="112"
         height="112"
         x="32"
         y="156" />
    </mask>
    <mask
       maskUnits="userSpaceOnUse"
       id="mask1741-1-28">
      <rect
         style="opacity:1;fill:#ffffff;stroke-width:2;stroke-linecap:square"
         id="rect1743-2-9"
         width="112"
         height="112"
         x="32"
         y="156" />
    </mask>
    <mask
       maskUnits="userSpaceOnUse"
       id="mask1907-7-3">
      <rect
         style="opacity:1;fill:#ffffff;fill-opacity:1;stroke-width:2;stroke-linecap:square"
         id="rect1909-0-6"
         width="112"
         height="112"
         x="32"
         y="44" />
    </mask>
    <mask
       maskUnits="userSpaceOnUse"
       id="mask1907-7-3-2">
      <rect
         style="opacity:1;fill:#ffffff;fill-opacity:1;stroke-width:2;stroke-linecap:square"
         id="rect1909-0-6-9"
         width="112"
         height="112"
         x="32"
         y="44" />
    </mask>
    <mask
       maskUnits="userSpaceOnUse"
       id="mask1907-7-3-1">
      <rect
         style="opacity:1;fill:#ffffff;fill-opacity:1;stroke-width:2;stroke-linecap:square"
         id="rect1909-0-6-94"
         width="112"
         height="112"
         x="32"
         y="44" />
    </mask>
    <mask
       maskUnits="userSpaceOnUse"
       id="mask1907-7-3-8">
      <rect
         style="opacity:1;fill:#ffffff;fill-opacity:1;stroke-width:2;stroke-linecap:square"
         id="rect1909-0-6-4"
         width="112"
         height="112"
         x="32"
         y="44" />
    </mask>
    <mask
       maskUnits="userSpaceOnUse"
       id="mask1907-7-3-0">
      <rect
         style="opacity:1;fill:#ffffff;fill-opacity:1;stroke-width:2;stroke-linecap:square"
         id="rect1909-0-6-3"
         width="112"
         height="112"
         x="32"
         y="44" />
    </mask>
    <mask
       maskUnits="userSpaceOnUse"
       id="mask1907-7-3-10">
      <rect
         style="opacity:1;fill:#ffffff;fill-opacity:1;stroke-width:2;stroke-linecap:square"
         id="rect1909-0-6-6"
         width="112"
         height="112"
         x="32"
         y="44" />
    </mask>
  </defs>
  <g
     id="Baseplate"
     style="display:none">
    <text
       y="19.774782"
       xml:space="preserve"
       x="15.006946"
       style="font-style:normal;font-variant:normal;font-weight:normal;font-stretch:normal;line-height:0%;font-family:'DejaVu Sans';-inkscape-font-specification:'DejaVu Sans';display:inline;fill:#000000;fill-opacity:1;stroke:none;enable-background:new"
       inkscape:label="context"
       id="context"><tspan
         style="font-style:normal;font-variant:normal;font-weight:normal;font-stretch:normal;font-size:18px;line-height:1.25;font-family:'DejaVu Sans';-inkscape-font-specification:'DejaVu Sans'"
         y="19.774782"
         x="15.006946"
         sodipodi:role="line"
         id="tspan3933">apps</tspan></text>
    <text
       y="19.774782"
       xml:space="preserve"
       x="122.48839"
       style="font-style:normal;font-variant:normal;font-weight:bold;font-stretch:normal;line-height:0%;font-family:'DejaVu Sans';-inkscape-font-specification:'DejaVu Sans Bold';text-align:start;writing-mode:lr-tb;text-anchor:start;display:inline;fill:#000000;fill-opacity:1;stroke:none;enable-background:new"
       inkscape:label="icon-name"
       id="icon-name"><tspan
         style="font-style:normal;font-variant:normal;font-weight:bold;font-stretch:normal;font-size:18px;line-height:1.25;font-family:'DejaVu Sans';-inkscape-font-specification:'DejaVu Sans Bold'"
         y="19.774782"
         x="122.48839"
         sodipodi:role="line"
         id="tspan3937">codeblocks</tspan></text>
    <rect
       style="fill:#ffffff"
       id="256x256"
       width="256"
       height="256"
       x="16"
       y="28" />
    <rect
       style="fill:#ffffff"
       id="96x96"
       width="96"
       height="96"
       x="288"
       y="28" />
    <rect
       style="fill:#ffffff"
       id="64x64"
       width="64"
       height="64"
       x="288"
       y="140" />
    <rect
       style="fill:#ffffff"
       id="48x48"
       width="48"
       height="48"
       x="288"
       y="220" />
    <rect
       style="fill:#ffffff"
       id="32x32"
       width="32"
       height="32"
       x="416"
       y="52" />
    <rect
       style="fill:#ffffff"
       id="24x24"
       width="24"
       height="24"
       x="416"
       y="100" />
    <rect
       style="fill:#ffffff"
       id="22x22"
       width="22"
       height="22"
       x="417"
       y="101" />
    <rect
       style="fill:#ffffff"
       id="16x16"
       width="16"
       height="16"
       x="416"
       y="140" />
  </g>
  <g
     id="Shadow">
    <rect
       style="opacity:0.2;fill:#000000"
       id="rect651"
       width="224"
       height="224"
       x="32"
       y="46"
       ry="48" />
    <rect
       style="opacity:0.2;fill:#000000"
       id="rect769"
       width="84"
       height="85"
       x="294"
       y="34"
       ry="18" />
    <rect
       style="opacity:0.2;fill:#000000;fill-opacity:1"
       id="rect1131"
       width="56"
       height="56"
       x="292"
       y="145"
       ry="12" />
    <rect
       style="opacity:0.2;fill:#000000;fill-opacity:1"
       id="rect1261"
       width="42"
       height="42"
       x="291"
       y="224"
       ry="9" />
    <rect
       style="opacity:0.2;fill:#000000;fill-opacity:1"
       id="rect1364"
       width="28"
       height="29"
       x="418"
       y="54"
       ry="6" />
    <rect
       style="opacity:0.2;fill:#000000;fill-opacity:1"
       id="rect1398"
       width="16"
       height="16"
       x="416"
       y="141"
       ry="4" />
    <rect
       style="opacity:0.2;fill:#000000;fill-opacity:1"
       id="rect1432"
       width="20"
       height="20"
       x="418"
       y="103"
       ry="4" />
  </g>
  <g
     id="Background">
    <rect
       style="fill:#f2ae37;fill-opacity:1"
       id="rect597"
       width="224"
       height="224"
       x="32"
       y="44"
       ry="48"
       mask="url(#mask1741)" />
    <rect
       style="opacity:1;fill:#f2ae37;fill-opacity:1"
       id="rect771"
       width="84"
       height="84"
       x="294"
       y="34"
       ry="18"
       mask="url(#mask1745)" />
    <rect
       style="opacity:1;fill:#f2ae37;fill-opacity:1"
       id="rect1133"
       width="56"
       height="56"
       x="292"
       y="144"
       ry="12"
       mask="url(#mask1749)" />
    <rect
       style="opacity:1;fill:#f2ae37;fill-opacity:1"
       id="rect1263"
       width="42"
       height="42"
       x="291"
       y="223"
       ry="9"
       mask="url(#mask1753)" />
    <rect
       style="opacity:1;fill:#f2ae37;fill-opacity:1"
       id="rect1366"
       width="28"
       height="28"
       x="418"
       y="54"
       ry="6"
       mask="url(#mask1765)" />
    <rect
       style="opacity:1;fill:#f2ae37;fill-opacity:1"
       id="rect1400"
       width="16"
       height="16"
       x="416"
       y="140"
       ry="4"
       mask="url(#mask1757)" />
    <rect
       style="opacity:1;fill:#f2ae37;fill-opacity:1"
       id="rect1434"
       width="20"
       height="20"
       x="418"
       y="102"
       ry="4"
       mask="url(#mask1761)" />
    <rect
       style="opacity:1;fill:#e44545;fill-opacity:1;stroke-width:2;stroke-linecap:square"
       id="rect1838"
       width="224"
       height="224"
       x="32"
       y="44"
       ry="48"
       mask="url(#mask1907)" />
    <rect
       style="opacity:1;fill:#e44545;fill-opacity:1;stroke-width:2;stroke-linecap:square"
       id="rect1893"
       width="84"
       height="84"
       x="294"
       y="34"
       ry="18"
       mask="url(#mask2029)" />
    <rect
       style="opacity:1;fill:#e44545;fill-opacity:1;stroke-width:2;stroke-linecap:square"
       id="rect1895"
       width="56"
       height="56"
       x="292"
       y="144"
       ry="12"
       mask="url(#mask2033)" />
    <rect
       style="opacity:1;fill:#e44545;fill-opacity:1;stroke-width:2;stroke-linecap:square"
       id="rect1897"
       width="42"
       height="42"
       x="291"
       y="223"
       ry="9"
       mask="url(#mask2037)" />
    <rect
       style="opacity:1;fill:#e44545;fill-opacity:1;stroke-width:2;stroke-linecap:square"
       id="rect1899"
       width="28"
       height="28"
       x="418"
       y="54"
       ry="6"
       mask="url(#mask2025)" />
    <rect
       style="opacity:1;fill:#e44545;fill-opacity:1;stroke-width:2;stroke-linecap:square"
       id="rect1901"
       width="20"
       height="20"
       x="418"
       y="102"
       ry="4"
       mask="url(#mask2021)" />
    <rect
       style="opacity:1;fill:#e44545;fill-opacity:1;stroke-width:2;stroke-linecap:square"
       id="rect1903"
       width="16"
       height="16"
       x="416"
       y="140"
       ry="4"
       mask="url(#mask2017)" />
    <rect
       style="fill:#38ac52;fill-opacity:1;stroke-width:2;stroke-linecap:square"
       id="rect1838-3"
       width="224"
       height="224"
       x="32"
       y="44"
       ry="48"
       mask="url(#mask1907-7)"
       transform="matrix(-1,0,0,1,288,0)" />
    <rect
       style="fill:#38ac52;fill-opacity:1;stroke-width:2;stroke-linecap:square"
       id="rect1838-3-1-3"
       width="224"
       height="224"
       x="32"
       y="44"
       ry="48"
       mask="url(#mask1907-7-3-2)"
       transform="matrix(-0.375,0,0,0.375,390,17.5)" />
    <rect
       style="fill:#38ac52;fill-opacity:1;stroke-width:2;stroke-linecap:square"
       id="rect1838-3-1-7"
       width="224"
       height="224"
       x="32"
       y="44"
       ry="48"
       mask="url(#mask1907-7-3-1)"
       transform="matrix(-0.25,0,0,0.25,356,133)" />
    <rect
       style="fill:#38ac52;fill-opacity:1;stroke-width:2;stroke-linecap:square"
       id="rect1838-3-1"
       width="224"
       height="224"
       x="32"
       y="44"
       ry="48"
       mask="url(#mask1907-7-3)"
       transform="matrix(-0.1875,0,0,0.1875,339,214.75)" />
    <rect
       style="fill:#38ac52;fill-opacity:1;stroke-width:2;stroke-linecap:square"
       id="rect1838-3-1-5"
       width="224"
       height="224"
       x="32"
       y="44"
       ry="48"
       mask="url(#mask1907-7-3-8)"
       transform="matrix(-0.125,0,0,0.125,450,48.5)" />
    <rect
       style="fill:#38ac52;fill-opacity:1;stroke-width:2;stroke-linecap:square"
       id="rect1838-3-1-6"
       width="224"
       height="224"
       x="32"
       y="44"
       ry="44.800003"
       mask="url(#mask1907-7-3-0)"
       transform="matrix(-0.08928571,0,0,0.08928571,440.85714,98.071429)" />
    <rect
       style="fill:#38ac52;fill-opacity:1;stroke-width:2;stroke-linecap:square"
       id="rect1838-3-1-32"
       width="224"
       height="224"
       x="32"
       y="44"
       ry="56"
       mask="url(#mask1907-7-3-10)"
       transform="matrix(-0.07142857,0,0,0.07142857,434.28571,136.85714)" />
    <rect
       style="fill:#3776f2;fill-opacity:1"
       id="rect597-9"
       width="224"
       height="224"
       x="32"
       y="44"
       ry="48"
       mask="url(#mask1741-1)"
       transform="matrix(-1,0,0,1,288,0)" />
    <rect
       style="fill:#3776f2;fill-opacity:1"
       id="rect597-9-6"
       width="224"
       height="224"
       x="32"
       y="44"
       ry="48"
       mask="url(#mask1741-1-6)"
       transform="matrix(-0.375,0,0,0.375,390,17.5)" />
    <rect
       style="fill:#3776f2;fill-opacity:1"
       id="rect597-9-1"
       width="224"
       height="224"
       x="32"
       y="44"
       ry="48"
       mask="url(#mask1741-1-2)"
       transform="matrix(-0.25,0,0,0.25,356,133)" />
    <rect
       style="fill:#3776f2;fill-opacity:1"
       id="rect597-9-9"
       width="224"
       height="224"
       x="32"
       y="44"
       ry="48"
       mask="url(#mask1741-1-8)"
       transform="matrix(-0.1875,0,0,0.1875,339,214.75)" />
    <rect
       style="fill:#3776f2;fill-opacity:1"
       id="rect597-9-3"
       width="224"
       height="224"
       x="32"
       y="44"
       ry="48"
       mask="url(#mask1741-1-20)"
       transform="matrix(-0.125,0,0,0.125,450,48.5)" />
    <rect
       style="fill:#3776f2;fill-opacity:1"
       id="rect597-9-92"
       width="224"
       height="224"
       x="32"
       y="44"
       ry="44.800003"
       mask="url(#mask1741-1-7)"
       transform="matrix(-0.08928571,0,0,0.08928571,440.85714,98.071429)" />
    <rect
       style="fill:#3776f2;fill-opacity:1"
       id="rect597-9-7"
       width="224"
       height="224"
       x="32"
       y="44"
       ry="56"
       mask="url(#mask1741-1-28)"
       transform="matrix(-0.07142857,0,0,0.07142857,434.28571,136.85714)" />
  </g>
  <g
     id="Highlights">
    <path
       id="rect653"
       style="opacity:0.2;fill:#ffffff"
       d="M 80,44 C 53.408027,44 32,65.408027 32,92 v 2 C 32,67.408027 53.408027,46 80,46 h 128 c 26.59197,0 48,21.408027 48,48 V 92 C 256,65.408027 234.59197,44 208,44 Z"
       sodipodi:nodetypes="sscsscsss" />
    <path
       id="rect773"
       style="opacity:0.2;fill:#ffffff"
       d="m 312,34 c -9.97199,0 -18,8.02801 -18,18 v 1 c 0,-9.97199 8.02801,-18 18,-18 h 48 c 9.97199,0 18,8.02801 18,18 v -1 c 0,-9.97199 -8.02801,-18 -18,-18 z" />
    <path
       id="rect1135"
       style="opacity:0.2;fill:#ffffff;fill-opacity:1"
       d="m 304,144 c -6.64799,0 -12,5.35201 -12,12 v 1 c 0,-6.64799 5.35201,-12 12,-12 h 32 c 6.64799,0 12,5.35201 12,12 v -1 c 0,-6.64799 -5.35201,-12 -12,-12 z" />
    <path
       id="rect1265"
       style="opacity:0.2;fill:#ffffff;fill-opacity:1"
       d="m 300,223 c -4.986,0 -9,4.014 -9,9 v 1 c 0,-4.986 4.014,-9 9,-9 h 24 c 4.986,0 9,4.014 9,9 v -1 c 0,-4.986 -4.014,-9 -9,-9 z" />
    <path
       id="rect1368"
       style="opacity:0.2;fill:#ffffff;fill-opacity:1"
       d="m 424,54 c -3.324,0 -6,2.676003 -6,6 v 1 c 0,-3.323997 2.676,-6 6,-6 h 16 c 3.324,0 6,2.676003 6,6 v -1 c 0,-3.323997 -2.676,-6 -6,-6 z" />
    <path
       id="rect1402"
       style="opacity:0.2;fill:#ffffff;fill-opacity:1"
       d="m 420,140 c -2.216,0 -4,1.784 -4,4 v 1 c 0,-2.216 1.784,-4 4,-4 h 8 c 2.216,0 4,1.784 4,4 v -1 c 0,-2.216 -1.784,-4 -4,-4 z" />
    <path
       id="rect1436"
       style="opacity:0.2;fill:#ffffff;fill-opacity:1"
       d="m 422,102 c -2.216,0 -4,1.784 -4,4 v 1 c 0,-2.216 1.784,-4 4,-4 h 12 c 2.216,0 4,1.784 4,4 v -1 c 0,-2.216 -1.784,-4 -4,-4 z" />
  </g>
</svg>
