<?xml version="1.0" encoding="UTF-8" standalone="no"?>
<!-- Created with Inkscape (http://www.inkscape.org/) -->

<svg
   width="480"
   height="300"
   viewBox="0 0 480 300"
   version="1.1"
   id="svg5"
   inkscape:version="1.2.2 (1:1.2.2+202305151914+b0a8486541)"
   sodipodi:docname="com.github.maoschanz.drawing.svg"
   xmlns:inkscape="http://www.inkscape.org/namespaces/inkscape"
   xmlns:sodipodi="http://sodipodi.sourceforge.net/DTD/sodipodi-0.dtd"
   xmlns="http://www.w3.org/2000/svg"
   xmlns:svg="http://www.w3.org/2000/svg">
  <sodipodi:namedview
     id="namedview7"
     pagecolor="#888888"
     bordercolor="#000000"
     borderopacity="0.25"
     inkscape:showpageshadow="true"
     inkscape:pageopacity="0"
     inkscape:pagecheckerboard="0"
     inkscape:deskcolor="#888888"
     inkscape:document-units="px"
     showgrid="false"
     showborder="false"
     inkscape:zoom="2.6866667"
     inkscape:cx="240.07444"
     inkscape:cy="150"
     inkscape:window-width="1920"
     inkscape:window-height="1008"
     inkscape:window-x="0"
     inkscape:window-y="0"
     inkscape:window-maximized="1"
     inkscape:current-layer="Symbols" />
  <defs
     id="defs2">
    <mask
       maskUnits="userSpaceOnUse"
       id="mask506">
      <rect
         style="opacity:1;fill:#ffffff;fill-opacity:1"
         id="rect508"
         width="16"
         height="16"
         x="416"
         y="140"
         ry="4" />
    </mask>
    <mask
       maskUnits="userSpaceOnUse"
       id="mask501">
      <rect
         style="opacity:1;fill:#ffffff;fill-opacity:1"
         id="rect503"
         width="20"
         height="20"
         x="418"
         y="102"
         ry="4" />
    </mask>
    <mask
       maskUnits="userSpaceOnUse"
       id="mask496">
      <rect
         style="opacity:1;fill:#ffffff;fill-opacity:1"
         id="rect498"
         width="28"
         height="28"
         x="418"
         y="54"
         ry="6" />
    </mask>
    <mask
       maskUnits="userSpaceOnUse"
       id="mask918">
      <rect
         style="opacity:1;fill:#ffffff;fill-opacity:1"
         id="rect920"
         width="42"
         height="42"
         x="291"
         y="223"
         ry="9" />
    </mask>
    <mask
       maskUnits="userSpaceOnUse"
       id="mask732">
      <rect
         style="opacity:1;fill:#ffffff;fill-opacity:1"
         id="rect734"
         width="56"
         height="56"
         x="292"
         y="143"
         ry="12" />
    </mask>
    <mask
       maskUnits="userSpaceOnUse"
       id="mask889">
      <rect
         style="opacity:1;fill:#ffffff;fill-opacity:1"
         id="rect891"
         width="84"
         height="84"
         x="294"
         y="34"
         ry="18" />
    </mask>
    <mask
       maskUnits="userSpaceOnUse"
       id="mask434">
      <rect
         style="opacity:1;fill:#ffffff;fill-opacity:1;stroke-width:0.999999"
         id="rect436"
         width="224"
         height="224"
         x="32"
         y="44"
         ry="48" />
    </mask>
  </defs>
  <g
     id="Baseplate"
     style="display:none">
    <text
       y="19.774782"
       xml:space="preserve"
       x="15.006946"
       style="font-style:normal;font-variant:normal;font-weight:normal;font-stretch:normal;line-height:0%;font-family:'DejaVu Sans';-inkscape-font-specification:'DejaVu Sans';display:inline;fill:#000000;fill-opacity:1;stroke:none;enable-background:new"
       inkscape:label="context"
       id="context"><tspan
         style="font-style:normal;font-variant:normal;font-weight:normal;font-stretch:normal;font-size:18px;line-height:1.25;font-family:'DejaVu Sans';-inkscape-font-specification:'DejaVu Sans'"
         y="19.774782"
         x="15.006946"
         sodipodi:role="line"
         id="tspan3933">apps</tspan></text>
    <text
       y="19.774782"
       xml:space="preserve"
       x="122.48839"
       style="font-style:normal;font-variant:normal;font-weight:bold;font-stretch:normal;line-height:0%;font-family:'DejaVu Sans';-inkscape-font-specification:'DejaVu Sans Bold';text-align:start;writing-mode:lr-tb;text-anchor:start;display:inline;fill:#000000;fill-opacity:1;stroke:none;enable-background:new"
       inkscape:label="icon-name"
       id="icon-name"><tspan
         style="font-style:normal;font-variant:normal;font-weight:bold;font-stretch:normal;font-size:18px;line-height:1.25;font-family:'DejaVu Sans';-inkscape-font-specification:'DejaVu Sans Bold'"
         y="19.774782"
         x="122.48839"
         sodipodi:role="line"
         id="tspan3937">com.github.maoschanz.drawing</tspan></text>
    <rect
       style="fill:#ffffff"
       id="256x256"
       width="256"
       height="256"
       x="16"
       y="28" />
    <rect
       style="fill:#ffffff"
       id="96x96"
       width="96"
       height="96"
       x="288"
       y="28" />
    <rect
       style="fill:#ffffff"
       id="64x64"
       width="64"
       height="64"
       x="288"
       y="140" />
    <rect
       style="fill:#ffffff"
       id="48x48"
       width="48"
       height="48"
       x="288"
       y="220" />
    <rect
       style="fill:#ffffff"
       id="32x32"
       width="32"
       height="32"
       x="416"
       y="52" />
    <rect
       style="fill:#ffffff"
       id="24x24"
       width="24"
       height="24"
       x="416"
       y="100" />
    <rect
       style="fill:#ffffff"
       id="22x22"
       width="22"
       height="22"
       x="417"
       y="101" />
    <rect
       style="fill:#ffffff"
       id="16x16"
       width="16"
       height="16"
       x="416"
       y="140" />
  </g>
  <g
     id="Shadow">
    <rect
       style="opacity:0.2;fill:#000000"
       id="rect651"
       width="224"
       height="224"
       x="32"
       y="46"
       ry="48" />
    <rect
       style="opacity:0.2;fill:#000000"
       id="rect769"
       width="84"
       height="85"
       x="294"
       y="34"
       ry="18" />
    <rect
       style="opacity:0.2;fill:#000000;fill-opacity:1"
       id="rect1131"
       width="56"
       height="56"
       x="292"
       y="145"
       ry="12" />
    <rect
       style="opacity:0.2;fill:#000000;fill-opacity:1"
       id="rect1261"
       width="42"
       height="42"
       x="291"
       y="224"
       ry="9" />
    <rect
       style="opacity:0.2;fill:#000000;fill-opacity:1"
       id="rect1364"
       width="28"
       height="29"
       x="418"
       y="54"
       ry="6" />
    <rect
       style="opacity:0.2;fill:#000000;fill-opacity:1"
       id="rect1398"
       width="16"
       height="16"
       x="416"
       y="141"
       ry="4" />
    <rect
       style="opacity:0.2;fill:#000000;fill-opacity:1"
       id="rect1432"
       width="20"
       height="20"
       x="418"
       y="103"
       ry="4" />
  </g>
  <g
     id="Background">
    <path
       id="rect597"
       style="fill:#e4e4e4;fill-opacity:1"
       d="M 32 93 L 32 220 C 32 246.59197 53.408027 268 80 268 L 208 268 C 234.59197 268 256 246.59197 256 220 L 256 93 L 32 93 z " />
    <path
       id="rect771"
       style="opacity:1;fill:#e4e4e4;fill-opacity:1"
       d="M 294 54 L 294 100 C 294 109.97199 302.02801 118 312 118 L 360 118 C 369.97199 118 378 109.97199 378 100 L 378 54 L 294 54 z " />
    <path
       id="rect1133"
       style="opacity:1;fill:#e4e4e4;fill-opacity:1"
       d="M 292 158 L 292 188 C 292 194.64799 297.35201 200 304 200 L 336 200 C 342.64799 200 348 194.64799 348 188 L 348 158 L 292 158 z " />
    <path
       id="rect1263"
       style="opacity:1;fill:#e4e4e4;fill-opacity:1"
       d="M 291 233 L 291 256 C 291 260.986 295.014 265 300 265 L 324 265 C 328.986 265 333 260.986 333 256 L 333 233 L 291 233 z " />
    <path
       id="rect1366"
       style="opacity:1;fill:#e4e4e4;fill-opacity:1"
       d="M 418 61 L 418 76 C 418 79.323997 420.676 82 424 82 L 440 82 C 443.324 82 446 79.323997 446 76 L 446 61 L 418 61 z " />
    <path
       id="rect1400"
       style="opacity:1;fill:#e4e4e4;fill-opacity:1"
       d="M 416 144 L 416 152 C 416 154.216 417.784 156 420 156 L 428 156 C 430.216 156 432 154.216 432 152 L 432 144 L 416 144 z " />
    <path
       id="rect1434"
       style="opacity:1;fill:#e4e4e4;fill-opacity:1"
       d="M 418 107 L 418 118 C 418 120.216 419.784 122 422 122 L 434 122 C 436.216 122 438 120.216 438 118 L 438 107 L 418 107 z " />
  </g>
  <g
     id="Symbols">
    <g
       id="g2107"
       transform="matrix(1,0,0,-1,-75.888334,274.86724)">
      <rect
         style="opacity:1;fill:#565064;fill-opacity:1;stroke-width:0.894427"
         id="rect1565"
         width="16"
         height="4"
         x="416"
         y="152"
         mask="url(#mask506)"
         transform="translate(75.888334,-21.13276)" />
      <rect
         style="opacity:1;fill:#565064;fill-opacity:1;stroke-width:0.912871"
         id="rect1563"
         width="20"
         height="5"
         x="418"
         y="117"
         mask="url(#mask501)"
         transform="translate(75.888334,50.86724)" />
      <rect
         style="opacity:1;fill:#565064;fill-opacity:1;stroke-width:0.935414"
         id="rect1561"
         width="28"
         height="7"
         x="418"
         y="75"
         mask="url(#mask496)"
         transform="translate(75.888334,138.86724)" />
      <rect
         style="opacity:1;fill:#565064;fill-opacity:1;stroke-width:0.953463"
         id="rect1519"
         width="42"
         height="10"
         x="291"
         y="255"
         mask="url(#mask918)"
         transform="translate(75.888334,-213.13276)" />
      <rect
         style="opacity:1;fill:#565064;fill-opacity:1;stroke-width:0.25"
         id="rect1286"
         width="56"
         height="14"
         x="292"
         y="185"
         mask="url(#mask732)"
         transform="translate(75.888334,-68.13276)" />
      <rect
         style="opacity:1;fill:#565064;fill-opacity:1;stroke-width:0.975898"
         id="rect1517"
         width="84"
         height="20"
         x="294"
         y="98"
         mask="url(#mask889)"
         transform="translate(75.888334,122.86724)" />
      <rect
         style="opacity:1;fill:#565064;fill-opacity:1;stroke-width:1.11802"
         id="rect364"
         width="224"
         height="50"
         x="32"
         y="218"
         mask="url(#mask434)"
         transform="translate(75.888334,-37.132756)" />
      <rect
         style="opacity:0.1;fill:#000000;fill-opacity:1;stroke-width:4;stroke-linecap:round;stroke-linejoin:round"
         id="rect4018"
         width="224"
         height="2"
         x="107.88834"
         y="-180.86723"
         transform="scale(1,-1)" />
      <rect
         style="opacity:0.1;fill:#000000;fill-opacity:1;stroke-width:4;stroke-linecap:round;stroke-linejoin:round"
         id="rect4020"
         width="84"
         height="1"
         x="369.88834"
         y="-220.86723"
         transform="scale(1,-1)" />
      <rect
         style="opacity:0.1;fill:#000000;fill-opacity:1;stroke-width:4;stroke-linecap:round;stroke-linejoin:round"
         id="rect4022"
         width="56"
         height="1"
         x="367.88834"
         y="-116.86724"
         transform="scale(1,-1)" />
      <rect
         style="opacity:0.1;fill:#000000;fill-opacity:1;stroke-width:4;stroke-linecap:round;stroke-linejoin:round"
         id="rect4024"
         width="41.999985"
         height="1"
         x="366.88834"
         y="-41.867241"
         transform="scale(1,-1)" />
      <rect
         style="opacity:0.1;fill:#000000;fill-opacity:1;stroke-width:4;stroke-linecap:round;stroke-linejoin:round"
         id="rect4026"
         width="28"
         height="1"
         x="493.88834"
         y="-213.86723"
         transform="scale(1,-1)" />
      <rect
         style="opacity:0.1;fill:#000000;fill-opacity:1;stroke-width:4;stroke-linecap:round;stroke-linejoin:round"
         id="rect4028"
         width="20"
         height="0.5"
         x="493.88834"
         y="-167.86723"
         transform="scale(1,-1)" />
      <rect
         style="opacity:0.1;fill:#000000;fill-opacity:1;stroke-width:4;stroke-linecap:round;stroke-linejoin:round"
         id="rect4030"
         width="16"
         height="0.5"
         x="491.88834"
         y="-130.86723"
         transform="scale(1,-1)" />
    </g>
    <g
       id="g1736">
      <path
         d="m 429.15234,143.50131 c -0.10161,0.008 -0.21364,0.0596 -0.32617,0.1875 l -8.02734,8.01563 0.20117,0.20117 -1,2.19531 0.40039,0.40039 2.19726,-1 0.20118,0.20117 8.03906,-8.02929 c 0.39377,-0.39328 -0.0566,-0.77539 -0.0566,-0.77539 l -1.23438,-1.23047 c 0,0 -0.17098,-0.18458 -0.39453,-0.16602 z"
         style="fill:#000000;opacity:0.2"
         id="path2765" />
      <path
         d="m 417.49815,147.98243 c -0.1904,-0.0643 -0.39683,0.0381 -0.46094,0.22852 -0.0643,0.19039 0.0381,0.39682 0.22851,0.46093 0.36033,0.12229 0.38572,0.21655 0.40821,0.41993 0.0225,0.20337 -0.0546,0.53377 -0.12891,0.89062 -0.0743,0.35685 -0.15856,0.77191 0.0586,1.16992 0.21715,0.39801 0.69748,0.61614 1.41601,0.66211 0.30786,0.0197 0.48128,0.12135 0.61914,0.26758 0.13787,0.14623 0.2342,0.35538 0.29102,0.58008 0.11363,0.44939 0.0645,0.91406 0.0645,0.91406 -0.0227,0.19888 0.11959,0.37871 0.31836,0.40235 0.19959,0.0239 0.38069,-0.11874 0.4043,-0.31836 0,0 0.0719,-0.56877 -0.082,-1.17774 -0.077,-0.30448 -0.21289,-0.63108 -0.4668,-0.90039 -0.25391,-0.2693 -0.63229,-0.46411 -1.10156,-0.49414 -0.60381,-0.0386 -0.76558,-0.17572 -0.82422,-0.2832 -0.0587,-0.10749 -0.0523,-0.34767 0.0156,-0.67383 0.0679,-0.32616 0.18443,-0.70537 0.13867,-1.11914 -0.0458,-0.41377 -0.35152,-0.84368 -0.89843,-1.0293 z"
         style="color:#000000;fill:#ff4e4a;stroke-linecap:round;-inkscape-stroke:none"
         id="path550"
         sodipodi:nodetypes="sccsssssscccssssssss" />
      <path
         d="m 422.79947,153.20122 -1.99955,-1.99698 8.0268,-8.01646 c 0.36009,-0.40933 0.72074,-0.0219 0.72074,-0.0219 l 1.23335,1.23176 c 0,0 0.45197,0.3811 0.0582,0.77438 z"
         style="fill:#ff4e4a"
         id="path310" />
      <path
         d="m 427.99815,144.01954 -0.40039,0.40039 2,1.9961 0.39843,-0.39844 z m -2,1.99219 -1.99805,1.99805 c 0.27684,0.27387 0.94686,0.0502 1.49805,-0.5 0.55238,-0.55156 0.77627,-1.22236 0.5,-1.49805 z m -3.59766,3.59765 -0.40039,0.4004 2,1.99609 0.40039,-0.39844 z"
         style="fill:#3d3846"
         id="path441" />
      <path
         d="m 422.59952,153.00152 -1.59964,-1.59758 -0.99978,2.19667 0.39991,0.3994 z"
         style="fill:#c02924"
         id="path469" />
    </g>
    <g
       id="g3705">
      <path
         d="m 434.5625,106.5013 c -0.15837,-0.0111 -0.34321,0.0465 -0.52734,0.25586 l -8.94531,8.93164 0.27343,0.27344 -1.36328,2.99414 0.54492,0.54492 3,-1.36133 0.27149,0.27148 8.96289,-8.94921 c 0.53702,-0.53628 -0.0781,-1.05664 -0.0781,-1.05664 l -1.68359,-1.67969 c 0,0 -0.19112,-0.20609 -0.45508,-0.22461 z"
         style="fill:#000000;opacity:0.2"
         id="path3766" />
      <path
         style="color:#000000;fill:#ff4e4a;stroke-linecap:round;-inkscape-stroke:none"
         d="m 419.66072,111.02733 a 0.49999958,0.49999958 0 0 0 -0.63477,0.3125 0.49999958,0.49999958 0 0 0 0.31445,0.63282 c 0.51371,0.17434 0.56652,0.31357 0.60938,0.5332 0.0429,0.21963 -0.0243,0.5926 -0.0918,1.01953 -0.0675,0.42693 -0.13489,0.97341 0.21289,1.45117 0.34778,0.47776 0.98199,0.70519 1.95703,0.76758 0.82843,0.053 1.28677,0.66667 1.59375,1.37891 0.30699,0.71224 0.38086,1.42578 0.38086,1.42578 a 0.49999958,0.49999958 0 0 0 0.54688,0.44922 0.49999958,0.49999958 0 0 0 0.44922,-0.54688 c 0,0 -0.0794,-0.84397 -0.45899,-1.72461 -0.37957,-0.88064 -1.14055,-1.89673 -2.44922,-1.98047 -0.84316,-0.054 -1.12788,-0.24527 -1.21093,-0.35937 -0.0831,-0.1141 -0.0924,-0.33047 -0.0332,-0.70508 0.0592,-0.37461 0.18854,-0.84144 0.0859,-1.36719 -0.1026,-0.52574 -0.53774,-1.03809 -1.27148,-1.28711 z"
         id="path3471" />
      <path
         style="fill:#ff4e4a"
         d="m 427.81788,117.91073 -2.72666,-2.72315 8.94563,-8.93153 c 0.49103,-0.55818 0.98283,-0.0298 0.98283,-0.0298 l 1.68183,1.67966 c 0,0 0.61632,0.51969 0.0793,1.05597 z"
         id="path3475"
         sodipodi:nodetypes="ccccccc" />
      <path
         d="m 432.91072,107.38085 -0.54492,0.54492 2.72656,2.72461 0.54687,-0.54492 z m -1.64788,1.64483 -2.72656,2.72266 c 0.37599,0.37664 1.29164,0.0723 2.04492,-0.67969 0.75339,-0.75226 1.05864,-1.66715 0.68164,-2.04297 z m -3.98494,3.98017 -0.54687,0.54492 2.72656,2.72266 0.54688,-0.54297 z"
         style="fill:#3d3846"
         id="path3617"
         sodipodi:nodetypes="cccccccccccccc" />
      <path
         style="fill:#c02924"
         d="m 427.54521,117.63842 -2.18133,-2.17852 -1.36333,2.99546 0.54534,0.54463 z"
         id="path3481" />
    </g>
    <g
       id="g5104">
      <path
         d="M 430.08976,77.547653 426.45421,73.916787 441.0484,59.3414 c 0.6547,-0.74424 1.31044,-0.03974 1.31044,-0.03974 l 2.24244,2.239556 c 0,0 0.82176,0.692913 0.10579,1.407962 z m -0.36356,-0.363085 -2.90844,-2.904693 -1.81777,3.993952 L 425.7271,79 Z"
         style="fill:#000000;opacity:0.2"
         id="path5114" />
      <path
         style="color:#000000;fill:#ff4e4a;stroke-linecap:round;-inkscape-stroke:none"
         d="m 419.8789,67.09375 c -0.34464,-0.116997 -0.71887,0.0675 -0.83594,0.412109 -0.11682,0.3452 0.0687,0.719686 0.41406,0.835938 0.67432,0.228853 0.74687,0.412872 0.80469,0.714844 0.0578,0.301971 -0.0343,0.808188 -0.12305,1.382812 -0.0888,0.574624 -0.1772,1.299981 0.27735,1.939453 0.45455,0.639473 1.29446,0.952773 2.58203,1.035156 0.53276,0.03409 0.85107,0.232881 1.1289,0.560547 0.27784,0.327667 0.48325,0.805797 0.61133,1.306641 0.25616,1.001688 0.20313,2.025391 0.20313,2.025391 -0.0217,0.363568 0.25555,0.675837 0.61914,0.697265 0.36429,0.02171 0.67687,-0.256729 0.69726,-0.621094 0,0 0.0769,-1.179947 -0.24219,-2.427734 -0.15954,-0.623893 -0.41868,-1.282348 -0.88476,-1.832031 -0.46609,-0.549683 -1.17305,-0.969355 -2.04883,-1.025391 -1.10916,-0.07097 -1.47843,-0.322929 -1.5918,-0.482422 -0.11337,-0.159492 -0.12714,-0.467611 -0.0488,-0.974609 0.0783,-0.506998 0.24719,-1.132678 0.11328,-1.832031 -0.13392,-0.699354 -0.70574,-1.385624 -1.67578,-1.714844 z"
         id="path4842"
         sodipodi:nodetypes="cccsssssscccssssssc" />
      <path
         d="M 430.08976,76.547653 426.45421,72.916787 441.0484,58.3414 c 0.6547,-0.74424 1.31044,-0.03974 1.31044,-0.03974 l 2.24244,2.239556 c 0,0 0.82176,0.692913 0.10579,1.407962 z"
         style="fill:#ff4e4a"
         id="path4987"
         sodipodi:nodetypes="cccccsc" />
      <path
         d="m 439.54296,59.849609 -0.72656,0.726563 3.63476,3.63086 0.72656,-0.726563 z m -3.63672,3.626953 -3.63477,3.63086 c 0.50222,0.500917 1.72284,0.09433 2.72657,-0.908203 1.00361,-1.002643 1.41019,-2.221522 0.9082,-2.722657 z m -6.53711,6.535157 -0.72852,0.726562 3.63477,3.630859 0.72852,-0.726562 z"
         style="fill:#3d3846"
         id="path5016" />
      <path
         style="fill:#c02924"
         d="m 429.7262,76.184568 -2.90844,-2.904693 -1.81777,3.993952 L 425.7271,78 Z"
         id="path4852"
         sodipodi:nodetypes="ccccc" />
    </g>
    <g
       id="g4432"
       transform="translate(0,-2.2324224)">
      <path
         d="m 309.63457,259.0539 -5.45332,-5.4463 21.89128,-21.86308 c 0.98206,-1.11636 1.96566,-0.0596 1.96566,-0.0596 l 3.36367,3.35933 c 0,0 1.23263,1.03937 0.15867,2.11195 z m -0.54533,-0.54463 -4.36266,-4.35704 -2.72666,5.99093 1.09066,1.08926 z"
         style="opacity:0.2;fill:#000000"
         id="path4457"
         sodipodi:nodetypes="cccccscccccc" />
      <path
         style="color:#000000;fill:#ff4e4a;stroke-linecap:round;-inkscape-stroke:none"
         d="m 294.32293,244.2859 c -0.52318,-0.17833 -1.09181,0.10161 -1.26953,0.625 -0.17833,0.52318 0.10161,1.09181 0.625,1.26953 1.02741,0.34869 1.13693,0.62519 1.22265,1.06445 0.0857,0.43925 -0.0505,1.1852 -0.18555,2.03906 -0.13502,0.85386 -0.26782,1.94487 0.42774,2.90039 0.69555,0.95552 1.96007,1.41429 3.91015,1.53907 0.82595,0.0528 1.31704,0.34615 1.73243,0.80468 0.41539,0.45854 0.72091,1.12047 0.91211,1.81836 0.38239,1.39579 0.30468,2.82422 0.30468,2.82422 -0.0345,0.55121 0.38434,1.02603 0.93555,1.06055 0.55121,0.0345 1.02603,-0.38434 1.06055,-0.93555 0,0 0.11734,-1.68855 -0.37305,-3.47851 -0.24519,-0.89499 -0.64411,-1.84346 -1.35742,-2.63086 -0.71331,-0.7874 -1.77479,-1.3751 -3.08594,-1.45899 -1.68633,-0.1079 -2.25576,-0.49055 -2.42187,-0.71875 -0.16612,-0.2282 -0.18879,-0.66288 -0.0703,-1.41211 0.11847,-0.74922 0.37902,-1.68288 0.17383,-2.73437 -0.2052,-1.0515 -1.07354,-2.07813 -2.54102,-2.57617 z"
         id="path3794"
         sodipodi:nodetypes="sccsssssscscssssssss" />
      <path
         d="m 309.63457,258.0539 -5.45332,-5.4463 21.89128,-21.86308 c 0.98206,-1.11636 1.96566,-0.0596 1.96566,-0.0596 l 3.36367,3.35933 c 0,0 1.23263,1.03937 0.15867,2.11195 z"
         style="fill:#ff4e4a"
         id="path4302"
         sodipodi:nodetypes="cccccsc" />
      <path
         d="m 323.80851,233 -1.09179,1.08984 5.45312,5.44531 1.0918,-1.08984 z m -5.44922,5.44726 -5.45312,5.44727 c 0.75376,0.75074 2.58459,0.14047 4.08984,-1.36328 1.50537,-1.50364 2.11564,-3.33184 1.36328,-4.08399 z m -9.82031,9.80274 -1.08984,1.08789 5.45312,5.44727 1.08985,-1.08985 z"
         style="fill:#3d3846"
         id="path4359"
         sodipodi:nodetypes="cccccccccccccc" />
      <path
         d="m 309.08924,257.50927 -4.36266,-4.35704 -2.72666,5.99093 1.09066,1.08926 z"
         style="fill:#c02924"
         id="path4330"
         sodipodi:nodetypes="ccccc" />
    </g>
    <g
       id="g3090">
      <path
         d="m 340.28504,153.00479 c -0.36951,0.0307 -0.77831,0.21258 -1.1875,0.67773 l -29.1875,29.15234 0.72656,0.72461 -3.63672,7.98828 1.45508,1.45313 7.99804,-3.63086 0.72657,0.72656 29.23437,-29.19726 c 1.43194,-1.4301 -0.21094,-2.81641 -0.21094,-2.81641 l -4.48437,-4.47852 c 0,0 -0.62068,-0.66706 -1.43359,-0.5996 z"
         style="fill:#000000;opacity:0.2"
         id="path3079" />
      <path
         style="color:#000000;fill:#ff4e4a;stroke-linecap:round;-inkscape-stroke:none"
         d="m 297.73283,171.0879 c -0.68927,-0.23399 -1.43774,0.135 -1.67187,0.82422 -0.23399,0.68927 0.135,1.43774 0.82422,1.67187 0.66712,0.22642 0.99603,0.47557 1.16015,0.66602 0.16412,0.19045 0.22143,0.34517 0.24414,0.63477 0.0454,0.5792 -0.26816,1.62867 -0.60156,2.77929 -0.3334,1.15062 -0.75075,2.56959 0.0332,3.96094 0.78395,1.39135 2.47162,2.0381 5.05078,2.20312 1.10424,0.0707 1.76224,0.45004 2.30469,1.02149 0.54245,0.57145 0.93475,1.38691 1.18359,2.25195 0.49768,1.73008 0.39844,3.50196 0.39844,3.50196 -0.0481,0.72651 0.502,1.3544 1.22852,1.40234 0.72651,0.0481 1.3544,-0.502 1.40234,-1.22852 0,0 0.15672,-2.13492 -0.49609,-4.40429 -0.32641,-1.13469 -0.8593,-2.34196 -1.80469,-3.33789 -0.94539,-0.99594 -2.336,-1.7283 -4.04883,-1.83789 -2.2143,-0.14169 -2.79491,-0.64186 -2.92187,-0.86719 -0.12697,-0.22533 -0.0995,-0.89402 0.20117,-1.93164 0.30065,-1.03763 0.81038,-2.27851 0.69726,-3.72071 -0.0566,-0.7211 -0.3234,-1.50834 -0.875,-2.14843 -0.5516,-0.64009 -1.33135,-1.10975 -2.30859,-1.44141 z"
         id="path2822"
         sodipodi:nodetypes="sccssssssscccssssssss" />
      <path
         d="m 317.17995,189.09532 -7.2711,-7.26173 29.18838,-29.15078 c 1.30941,-1.48848 2.62088,-0.0795 2.62088,-0.0795 l 4.48489,4.47911 c 0,0 1.64351,1.38583 0.21157,2.81593 z"
         style="fill:#ff4e4a"
         id="path2967"
         sodipodi:nodetypes="cccccsc" />
      <path
         d="m 336.08049,155.69142 -1.45313,1.45117 7.26953,7.26172 1.45506,-1.4512 z m -7.26757,7.26173 -7.26953,7.26172 c 1.00354,1.0031 3.44503,0.19073 5.45313,-1.81446 2.00864,-2.00616 2.82204,-4.4455 1.8164,-5.44726 z m -13.0879,13.06835 -1.45505,1.4512 7.27149,7.26172 1.45312,-1.45118 z"
         style="fill:#3d3846"
         id="path3169"
         sodipodi:nodetypes="cccccccccccccc" />
      <path
         style="fill:#c02924"
         d="m 316.45284,188.36914 -5.81688,-5.80938 -3.63555,7.9879 1.45422,1.45235 z"
         id="path2832"
         sodipodi:nodetypes="ccccc" />
    </g>
    <g
       id="g4622"
       transform="matrix(2,0,0,2,-288,-412)">
      <path
         d="m 309.63457,256.32148 -5.45332,-5.4463 21.89128,-21.86308 c 0.98206,-1.11636 1.96566,-0.0596 1.96566,-0.0596 l 3.36367,3.35933 c 0,0 1.23263,1.03937 0.15867,2.11195 z m -0.54533,-0.54463 -4.36266,-4.35704 -2.72666,5.99093 1.09066,1.08926 z"
         style="opacity:0.2;fill:#000000"
         id="path4597" />
      <path
         d="m 294.32293,242.05348 c -0.52318,-0.17833 -1.09181,0.10161 -1.26953,0.625 -0.17833,0.52318 0.10161,1.09181 0.625,1.26953 1.02741,0.34869 1.13693,0.62519 1.22265,1.06445 0.0857,0.43925 -0.0505,1.1852 -0.18555,2.03906 -0.13502,0.85386 -0.26782,1.94487 0.42774,2.90039 0.69555,0.95552 1.96007,1.41429 3.91015,1.53907 0.82595,0.0528 1.31704,0.34615 1.73243,0.80468 0.41539,0.45854 0.72091,1.12047 0.91211,1.81836 0.38239,1.39579 0.30468,2.82422 0.30468,2.82422 -0.0345,0.55121 0.38434,1.02603 0.93555,1.06055 0.55121,0.0345 1.02603,-0.38434 1.06055,-0.93555 0,0 0.11734,-1.68855 -0.37305,-3.47851 -0.24519,-0.89499 -0.64411,-1.84346 -1.35742,-2.63086 -0.71331,-0.7874 -1.77479,-1.3751 -3.08594,-1.45899 -1.68633,-0.1079 -2.25576,-0.49055 -2.42187,-0.71875 -0.16612,-0.2282 -0.18879,-0.66288 -0.0703,-1.41211 0.11847,-0.74922 0.37902,-1.68288 0.17383,-2.73437 -0.2052,-1.0515 -1.07354,-2.07813 -2.54102,-2.57617 z"
         style="color:#000000;fill:#ff4e4a;stroke-linecap:round;-inkscape-stroke:none"
         id="path4569" />
      <path
         d="m 309.63457,255.82148 -5.45332,-5.4463 21.89128,-21.86308 c 0.98206,-1.11636 1.96566,-0.0596 1.96566,-0.0596 l 3.36367,3.35933 c 0,0 1.23263,1.03937 0.15867,2.11195 z"
         style="fill:#ff4e4a"
         id="path4485" />
      <path
         d="m 323.80851,230.76758 -1.09179,1.08984 5.45312,5.44531 1.0918,-1.08984 z m -5.44922,5.44726 -5.45312,5.44727 c 0.75376,0.75074 2.58459,0.14047 4.08984,-1.36328 1.50537,-1.50364 2.11564,-3.33184 1.36328,-4.08399 z m -9.82031,9.80274 -1.08984,1.08789 5.45312,5.44727 1.08985,-1.08985 z"
         style="fill:#3d3846"
         id="path4541" />
      <path
         d="m 309.08924,255.27685 -4.36266,-4.35704 -2.72666,5.99093 1.09066,1.08926 z"
         style="fill:#c02924"
         id="path4513" />
    </g>
    <g
       id="g3312"
       transform="matrix(4,0,0,4,-1136,-532)">
      <path
         d="m 340.50026,152.50353 c -0.42234,-0.0296 -0.91326,0.12151 -1.40429,0.67968 l -29.1875,29.1504 0.72656,0.72656 -3.63477,7.98829 1.45313,1.45117 7.99805,-3.63087 0.72851,0.72656 29.23438,-29.19725 c 1.43193,-1.43012 -0.21289,-2.81446 -0.21289,-2.81446 l -4.48438,-4.48046 c 0,0 -0.5129,-0.55023 -1.2168,-0.59962 z"
         style="opacity:0.2;fill:#000000"
         id="path3287" />
      <path
         d="m 297.73283,171.0879 c -0.68927,-0.23399 -1.43774,0.135 -1.67187,0.82422 -0.23399,0.68927 0.135,1.43774 0.82422,1.67187 0.66712,0.22642 0.99603,0.47557 1.16015,0.66602 0.16412,0.19045 0.22143,0.34517 0.24414,0.63477 0.0454,0.5792 -0.26816,1.62867 -0.60156,2.77929 -0.3334,1.15062 -0.75075,2.56959 0.0332,3.96094 0.78395,1.39135 2.47162,2.0381 5.05078,2.20312 1.10424,0.0707 1.76224,0.45004 2.30469,1.02149 0.54245,0.57145 0.93475,1.38691 1.18359,2.25195 0.49768,1.73008 0.39844,3.50196 0.39844,3.50196 -0.0481,0.72651 0.502,1.3544 1.22852,1.40234 0.72651,0.0481 1.3544,-0.502 1.40234,-1.22852 0,0 0.15672,-2.13492 -0.49609,-4.40429 -0.32641,-1.13469 -0.8593,-2.34196 -1.80469,-3.33789 -0.94539,-0.99594 -2.336,-1.7283 -4.04883,-1.83789 -2.2143,-0.14169 -2.79491,-0.64186 -2.92187,-0.86719 -0.12697,-0.22533 -0.0995,-0.89402 0.20117,-1.93164 0.30065,-1.03763 0.81038,-2.27851 0.69726,-3.72071 -0.0566,-0.7211 -0.3234,-1.50834 -0.875,-2.14843 -0.5516,-0.64009 -1.33135,-1.10975 -2.30859,-1.44141 z"
         style="color:#000000;fill:#ff4e4a;stroke-linecap:round;-inkscape-stroke:none"
         id="path3225" />
      <path
         d="m 317.17995,189.09532 -7.2711,-7.26173 29.18838,-29.15077 c 1.30941,-1.48849 2.62088,-0.0795 2.62088,-0.0795 l 4.48489,4.4791 c 0,0 1.64351,1.38583 0.21157,2.81594 z"
         style="fill:#ff4e4a"
         id="path3113" />
      <path
         d="m 336.08049,155.69142 -1.45313,1.45117 7.26953,7.26172 1.45506,-1.4512 z m -7.26757,7.26173 -7.26953,7.26172 c 1.00354,1.0031 3.44503,0.19073 5.45313,-1.81446 2.00864,-2.00616 2.82204,-4.4455 1.8164,-5.44726 z m -13.0879,13.06835 -1.45505,1.4512 7.27149,7.26172 1.45312,-1.45118 z"
         style="fill:#3d3846"
         id="path3197" />
      <path
         d="m 316.45284,188.36914 -5.81688,-5.80938 -3.63555,7.9879 1.45422,1.45235 z"
         style="fill:#c02924"
         id="path3141" />
    </g>
  </g>
  <g
     id="Highlights">
    <path
       id="rect653"
       style="opacity:0.1;fill:#ffffff"
       d="M 80,44 C 53.408027,44 32,65.408027 32,92 v 2 C 32,67.408027 53.408027,46 80,46 h 128 c 26.59197,0 48,21.408027 48,48 V 92 C 256,65.408027 234.59197,44 208,44 Z"
       sodipodi:nodetypes="sscsscsss" />
    <path
       id="rect773"
       style="opacity:0.1;fill:#ffffff"
       d="m 312,34 c -9.97199,0 -18,8.02801 -18,18 v 1 c 0,-9.97199 8.02801,-18 18,-18 h 48 c 9.97199,0 18,8.02801 18,18 v -1 c 0,-9.97199 -8.02801,-18 -18,-18 z" />
    <path
       id="rect1135"
       style="opacity:0.1;fill:#ffffff;fill-opacity:1"
       d="m 304,144 c -6.64799,0 -12,5.35201 -12,12 v 1 c 0,-6.64799 5.35201,-12 12,-12 h 32 c 6.64799,0 12,5.35201 12,12 v -1 c 0,-6.64799 -5.35201,-12 -12,-12 z" />
    <path
       id="rect1265"
       style="opacity:0.1;fill:#ffffff;fill-opacity:1"
       d="m 300,223 c -4.986,0 -9,4.014 -9,9 v 1 c 0,-4.986 4.014,-9 9,-9 h 24 c 4.986,0 9,4.014 9,9 v -1 c 0,-4.986 -4.014,-9 -9,-9 z" />
    <path
       id="rect1368"
       style="opacity:0.1;fill:#ffffff;fill-opacity:1"
       d="m 424,54 c -3.324,0 -6,2.676003 -6,6 v 1 c 0,-3.323997 2.676,-6 6,-6 h 16 c 3.324,0 6,2.676003 6,6 v -1 c 0,-3.323997 -2.676,-6 -6,-6 z" />
    <path
       id="rect1402"
       style="opacity:0.1;fill:#ffffff;fill-opacity:1"
       d="m 420,140 c -2.216,0 -4,1.784 -4,4 v 1 c 0,-2.216 1.784,-4 4,-4 h 8 c 2.216,0 4,1.784 4,4 v -1 c 0,-2.216 -1.784,-4 -4,-4 z" />
    <path
       id="rect1436"
       style="opacity:0.1;fill:#ffffff;fill-opacity:1"
       d="m 422,102 c -2.216,0 -4,1.784 -4,4 v 1 c 0,-2.216 1.784,-4 4,-4 h 12 c 2.216,0 4,1.784 4,4 v -1 c 0,-2.216 -1.784,-4 -4,-4 z" />
  </g>
</svg>
