<?xml version="1.0" encoding="UTF-8" standalone="no"?>
<!-- Created with Inkscape (http://www.inkscape.org/) -->

<svg
   width="480"
   height="300"
   viewBox="0 0 480 300"
   version="1.1"
   id="svg5"
   inkscape:version="1.2.2 (1:1.2.2+202305151914+b0a8486541)"
   sodipodi:docname="deja-dup.svg"
   xmlns:inkscape="http://www.inkscape.org/namespaces/inkscape"
   xmlns:sodipodi="http://sodipodi.sourceforge.net/DTD/sodipodi-0.dtd"
   xmlns="http://www.w3.org/2000/svg"
   xmlns:svg="http://www.w3.org/2000/svg">
  <sodipodi:namedview
     id="namedview7"
     pagecolor="#888888"
     bordercolor="#000000"
     borderopacity="0.25"
     inkscape:showpageshadow="true"
     inkscape:pageopacity="0"
     inkscape:pagecheckerboard="0"
     inkscape:deskcolor="#888888"
     inkscape:document-units="px"
     showgrid="false"
     showborder="false"
     inkscape:zoom="2.6866667"
     inkscape:cx="240.07444"
     inkscape:cy="150"
     inkscape:window-width="1920"
     inkscape:window-height="1008"
     inkscape:window-x="0"
     inkscape:window-y="0"
     inkscape:window-maximized="1"
     inkscape:current-layer="svg5" />
  <defs
     id="defs2" />
  <g
     id="Baseplate"
     style="display:none">
    <text
       y="19.774782"
       xml:space="preserve"
       x="15.006946"
       style="font-style:normal;font-variant:normal;font-weight:normal;font-stretch:normal;line-height:0%;font-family:'DejaVu Sans';-inkscape-font-specification:'DejaVu Sans';display:inline;fill:#000000;fill-opacity:1;stroke:none;enable-background:new"
       inkscape:label="context"
       id="context"><tspan
         style="font-style:normal;font-variant:normal;font-weight:normal;font-stretch:normal;font-size:18px;line-height:1.25;font-family:'DejaVu Sans';-inkscape-font-specification:'DejaVu Sans'"
         y="19.774782"
         x="15.006946"
         sodipodi:role="line"
         id="tspan3933">apps</tspan></text>
    <text
       y="19.774782"
       xml:space="preserve"
       x="122.48839"
       style="font-style:normal;font-variant:normal;font-weight:bold;font-stretch:normal;line-height:0%;font-family:'DejaVu Sans';-inkscape-font-specification:'DejaVu Sans Bold';text-align:start;writing-mode:lr-tb;text-anchor:start;display:inline;fill:#000000;fill-opacity:1;stroke:none;enable-background:new"
       inkscape:label="icon-name"
       id="icon-name"><tspan
         style="font-style:normal;font-variant:normal;font-weight:bold;font-stretch:normal;font-size:18px;line-height:1.25;font-family:'DejaVu Sans';-inkscape-font-specification:'DejaVu Sans Bold'"
         y="19.774782"
         x="122.48839"
         sodipodi:role="line"
         id="tspan3937">deja-dup</tspan></text>
    <rect
       style="fill:#ffffff"
       id="256x256"
       width="256"
       height="256"
       x="16"
       y="28" />
    <rect
       style="fill:#ffffff"
       id="96x96"
       width="96"
       height="96"
       x="288"
       y="28" />
    <rect
       style="fill:#ffffff"
       id="64x64"
       width="64"
       height="64"
       x="288"
       y="140" />
    <rect
       style="fill:#ffffff"
       id="48x48"
       width="48"
       height="48"
       x="288"
       y="220" />
    <rect
       style="fill:#ffffff"
       id="32x32"
       width="32"
       height="32"
       x="416"
       y="52" />
    <rect
       style="fill:#ffffff"
       id="24x24"
       width="24"
       height="24"
       x="416"
       y="100" />
    <rect
       style="fill:#ffffff"
       id="22x22"
       width="22"
       height="22"
       x="417"
       y="101" />
    <rect
       style="fill:#ffffff"
       id="16x16"
       width="16"
       height="16"
       x="416"
       y="140" />
  </g>
  <g
     id="Shadow"
     style="display:inline">
    <rect
       style="opacity:0.2;fill:#000000"
       id="rect651"
       width="224"
       height="224"
       x="32"
       y="46"
       ry="48" />
    <rect
       style="opacity:0.2;fill:#000000"
       id="rect769"
       width="84"
       height="85"
       x="294"
       y="34"
       ry="18" />
    <rect
       style="opacity:0.2;fill:#000000;fill-opacity:1"
       id="rect1131"
       width="56"
       height="56"
       x="292"
       y="145"
       ry="12" />
    <rect
       style="opacity:0.2;fill:#000000;fill-opacity:1"
       id="rect1261"
       width="42"
       height="42"
       x="291"
       y="224"
       ry="9" />
    <rect
       style="opacity:0.2;fill:#000000;fill-opacity:1"
       id="rect1364"
       width="28"
       height="29"
       x="418"
       y="54"
       ry="6" />
    <rect
       style="opacity:0.2;fill:#000000;fill-opacity:1"
       id="rect1398"
       width="16"
       height="16"
       x="416"
       y="141"
       ry="4" />
    <rect
       style="opacity:0.2;fill:#000000;fill-opacity:1"
       id="rect1432"
       width="20"
       height="20"
       x="418"
       y="103"
       ry="4" />
  </g>
  <g
     id="Background">
    <rect
       style="fill:#3d3d3d;fill-opacity:1"
       id="rect597"
       width="224"
       height="224"
       x="32"
       y="44"
       ry="48" />
    <rect
       style="opacity:1;fill:#3d3d3d;fill-opacity:1"
       id="rect771"
       width="84"
       height="84"
       x="294"
       y="34"
       ry="18" />
    <rect
       style="opacity:1;fill:#3d3d3d;fill-opacity:1"
       id="rect1133"
       width="56"
       height="56"
       x="292"
       y="144"
       ry="12" />
    <rect
       style="opacity:1;fill:#3d3d3d;fill-opacity:1"
       id="rect1263"
       width="42"
       height="42"
       x="291"
       y="223"
       ry="9" />
    <rect
       style="opacity:1;fill:#3d3d3d;fill-opacity:1"
       id="rect1366"
       width="28"
       height="28"
       x="418"
       y="54"
       ry="6" />
    <rect
       style="opacity:1;fill:#3d3d3d;fill-opacity:1"
       id="rect1400"
       width="16"
       height="16"
       x="416"
       y="140"
       ry="4" />
    <rect
       style="opacity:1;fill:#3d3d3d;fill-opacity:1"
       id="rect1434"
       width="20"
       height="20"
       x="418"
       y="102"
       ry="4" />
  </g>
  <g
     id="g681">
    <g
       id="g669">
      <path
         d="m 419.33009,144.3654 c -0.35448,-0.01 -0.70214,0.17016 -0.89258,0.5 -0.277,0.47978 -0.11259,1.09019 0.36719,1.36719 l 4.19531,2.42188 v 4.8457 c 0,0.554 0.446,1 1,1 0.554,0 1,-0.446 1,-1 v -4.8457 l 4.19531,-2.42188 c 0.47978,-0.277 0.64419,-0.88741 0.36719,-1.36719 -0.277,-0.47977 -0.88741,-0.64223 -1.36719,-0.36523 l -4.19531,2.42187 -4.19531,-2.42187 c -0.14993,-0.0866 -0.31348,-0.13041 -0.47461,-0.13477 z"
         style="opacity:0.2;fill:#000000;fill-opacity:1;stroke-width:2;stroke-linecap:round;stroke-linejoin:round"
         id="path790" />
      <path
         id="rect290"
         style="opacity:1;fill:#bfbfbf;fill-opacity:1;stroke-width:2;stroke-linecap:round;stroke-linejoin:round"
         d="m 419.33009,143.86523 c -0.35448,-0.01 -0.70214,0.17016 -0.89258,0.5 -0.277,0.47978 -0.11259,1.09019 0.36719,1.36719 l 4.19531,2.42188 V 153 c 0,0.554 0.446,1 1,1 0.554,0 1,-0.446 1,-1 v -4.8457 l 4.19531,-2.42188 c 0.47978,-0.277 0.64419,-0.88741 0.36719,-1.36719 -0.277,-0.47977 -0.88741,-0.64223 -1.36719,-0.36523 l -4.19531,2.42187 L 419.8047,144 c -0.14993,-0.0866 -0.31348,-0.13041 -0.47461,-0.13477 z"
         sodipodi:nodetypes="csccsssccscccc" />
      <circle
         style="opacity:0.2;fill:#000000;stroke-width:5;stroke-linecap:round;stroke-linejoin:round"
         id="path862"
         cx="424"
         cy="148.5"
         r="2" />
      <circle
         style="fill:#ffffff;fill-opacity:1;stroke-width:2;stroke-linecap:round;stroke-linejoin:round"
         id="path1350"
         cx="424"
         cy="148"
         r="2" />
    </g>
    <g
       id="g2394">
      <path
         d="m 421.96287,107.84939 c -0.35448,-0.01 -0.70214,0.17211 -0.89258,0.50195 -0.277,0.47978 -0.11259,1.08824 0.36719,1.36524 l 5.51172,3.18164 c 0.0151,0.0348 0.0313,0.0679 0.0508,0.10156 v 6.5 c 0,0.554 0.446,1 1,1 0.554,0 1,-0.446 1,-1 v -6.5 l 5.42773,-3.13281 c 0.47978,-0.277 0.64419,-0.88741 0.36719,-1.36719 -0.277,-0.47978 -0.88741,-0.64223 -1.36719,-0.36523 l -5.36523,3.09765 -5.625,-3.24805 c -0.14993,-0.0866 -0.31348,-0.13041 -0.47461,-0.13476 z"
         style="opacity:0.2;fill:#000000;stroke-width:2;stroke-linecap:round;stroke-linejoin:round"
         id="path2895" />
      <path
         d="m 421.96287,107.34961 c -0.35448,-0.01 -0.70214,0.17211 -0.89258,0.50195 -0.277,0.47978 -0.11259,1.08824 0.36719,1.36524 l 5.51172,3.18164 c 0.0151,0.0348 0.0313,0.0679 0.0508,0.10156 v 6.5 c 0,0.554 0.446,1 1,1 0.554,0 1,-0.446 1,-1 v -6.5 l 5.42773,-3.13281 c 0.47978,-0.277 0.64419,-0.88741 0.36719,-1.36719 -0.277,-0.47978 -0.88741,-0.64223 -1.36719,-0.36523 l -5.36523,3.09765 -5.625,-3.24805 c -0.14993,-0.0866 -0.31348,-0.13041 -0.47461,-0.13476 z"
         style="opacity:1;fill:#bfbfbf;stroke-width:2;stroke-linecap:round;stroke-linejoin:round;fill-opacity:1"
         id="path2453" />
      <circle
         style="opacity:0.2;fill:#000000;fill-opacity:1;stroke-width:5;stroke-linecap:round;stroke-linejoin:round"
         id="path2915"
         cx="428"
         cy="112.5"
         r="2" />
      <circle
         style="opacity:1;fill:#ffffff;fill-opacity:1;stroke-width:5;stroke-linecap:round;stroke-linejoin:round"
         id="path2917"
         cx="428"
         cy="112"
         r="2" />
    </g>
    <g
       id="g3443">
      <path
         id="rect1709"
         style="opacity:0.2;fill:#000000;stroke-width:2;stroke-linecap:round;stroke-linejoin:round"
         d="m 423.36523,62.998362 c -0.35447,-0.0096 -0.70214,0.172106 -0.89257,0.501953 -0.277,0.479778 -0.11259,1.088235 0.36718,1.365234 L 431,69.576487 v 9.423828 c 0,0.553999 0.446,1 1,1 0.554,0 1,-0.446001 1,-1 v -9.423828 l 8.16016,-4.710938 c 0.47977,-0.276999 0.64418,-0.885456 0.36718,-1.365234 -0.277,-0.479778 -0.88741,-0.644187 -1.36718,-0.367188 L 432,67.844065 423.83984,63.133127 c -0.14993,-0.08656 -0.31348,-0.130413 -0.47461,-0.134765 z"
         sodipodi:nodetypes="ssccsssccscccs" />
      <path
         d="m 423.36523,61.998363 c -0.35447,-0.0096 -0.70214,0.172106 -0.89257,0.501953 -0.277,0.479778 -0.11259,1.088235 0.36718,1.365234 L 431,68.576488 v 9.423828 c 0,0.553999 0.446,1 1,1 0.554,0 1,-0.446001 1,-1 v -9.423828 l 8.16016,-4.710938 c 0.47977,-0.276999 0.64418,-0.885456 0.36718,-1.365234 -0.277,-0.479778 -0.88741,-0.644187 -1.36718,-0.367188 L 432,66.844066 423.83984,62.133128 c -0.14993,-0.08656 -0.31348,-0.130413 -0.47461,-0.134765 z"
         style="opacity:1;fill:#bfbfbf;stroke-width:2;stroke-linecap:round;stroke-linejoin:round;fill-opacity:1"
         id="path3140" />
      <circle
         style="opacity:0.2;fill:#000000;fill-opacity:1;stroke-width:5;stroke-linecap:round;stroke-linejoin:round"
         id="path3436"
         cx="432"
         cy="69"
         r="2" />
      <circle
         style="fill:#ffffff;stroke-width:2;stroke-linecap:round;stroke-linejoin:round"
         id="path1828"
         cx="432"
         cy="68"
         r="2" />
    </g>
    <g
       id="g5520">
      <path
         d="m 299.92578,235.69922 c -0.70896,-0.0191 -1.40428,0.34421 -1.78516,1.00391 -0.55399,0.95955 -0.22518,2.17646 0.73438,2.73046 l 11.02344,6.36329 c 0.0303,0.0695 0.0627,0.13581 0.10156,0.20312 v 13 c 0,1.108 0.892,2 2,2 1.108,0 2,-0.892 2,-2 v -13 l 10.85547,-6.26562 c 0.95955,-0.554 1.28837,-1.77482 0.73437,-2.73438 -0.554,-0.95955 -1.77482,-1.28447 -2.73437,-0.73047 l -10.73047,6.19531 -11.25,-6.49609 c -0.29986,-0.17312 -0.62696,-0.26083 -0.94922,-0.26953 z"
         style="opacity:0.2;fill:#000000;stroke-width:4;stroke-linecap:round;stroke-linejoin:round"
         id="path4110"
         sodipodi:nodetypes="sscccsssccscccs" />
      <path
         d="m 299.92578,234.69922 c -0.70896,-0.0191 -1.40428,0.34421 -1.78516,1.00391 -0.55399,0.95955 -0.22518,2.17646 0.73438,2.73046 l 11.02344,6.36329 c 0.0303,0.0695 0.0627,0.13581 0.10156,0.20312 v 13 c 0,1.108 0.892,2 2,2 1.108,0 2,-0.892 2,-2 v -13 l 10.85547,-6.26562 c 0.95955,-0.554 1.28837,-1.77482 0.73437,-2.73438 -0.554,-0.95955 -1.77482,-1.28447 -2.73437,-0.73047 l -10.73047,6.19531 -11.25,-6.49609 c -0.29986,-0.17312 -0.62696,-0.26083 -0.94922,-0.26953 z"
         style="fill:#bfbfbf;fill-opacity:1;stroke-width:4;stroke-linecap:round;stroke-linejoin:round"
         id="path4153" />
      <circle
         style="opacity:0.2;fill:#000000;stroke-width:5;stroke-linecap:round;stroke-linejoin:round"
         id="path4225"
         cx="312"
         cy="245.0005"
         r="4" />
      <circle
         style="fill:#ffffff;fill-opacity:1;stroke-width:5;stroke-linecap:round;stroke-linejoin:round"
         id="path5469"
         cx="312"
         cy="244"
         r="4" />
    </g>
    <g
       id="g3749">
      <path
         d="m 302.73046,160.99671 c -0.70896,-0.0192 -1.40428,0.34422 -1.78516,1.00391 -0.554,0.95956 -0.22518,2.17647 0.73438,2.73047 l 16.32031,9.42187 v 18.84766 c 0,1.108 0.892,2 2,2 1.108,0 2,-0.892 2,-2 v -18.84766 l 16.32031,-9.42187 c 0.95956,-0.554 1.28838,-1.77091 0.73438,-2.73047 -0.554,-0.95956 -1.77482,-1.28837 -2.73438,-0.73438 l -16.32031,9.42188 -16.32031,-9.42188 c -0.29986,-0.17312 -0.62697,-0.26082 -0.94922,-0.26953 z"
         style="opacity:0.2;fill:#000000;stroke-width:4;stroke-linecap:round;stroke-linejoin:round"
         id="path3581"
         sodipodi:nodetypes="csccsssccscccc" />
      <path
         d="m 302.73046,159.99671 c -0.70896,-0.0192 -1.40428,0.34422 -1.78516,1.00391 -0.554,0.95956 -0.22518,2.17647 0.73438,2.73047 l 16.32031,9.42187 v 18.84766 c 0,1.108 0.892,2 2,2 1.108,0 2,-0.892 2,-2 v -18.84766 l 16.32031,-9.42187 c 0.95956,-0.554 1.28838,-1.77091 0.73438,-2.73047 -0.554,-0.95956 -1.77482,-1.28837 -2.73438,-0.73438 l -16.32031,9.42188 -16.32031,-9.42188 c -0.29986,-0.17312 -0.62697,-0.26082 -0.94922,-0.26953 z"
         style="opacity:1;fill:#bfbfbf;fill-opacity:1;stroke-width:4;stroke-linecap:round;stroke-linejoin:round"
         id="path3626"
         sodipodi:nodetypes="ssccsssccscccs" />
      <circle
         style="opacity:0.2;fill:#000000;stroke-width:5;stroke-linecap:round;stroke-linejoin:round"
         id="path3601"
         cx="320"
         cy="173"
         r="4" />
      <circle
         style="fill:#ffffff;stroke-width:5;stroke-linecap:round;stroke-linejoin:round"
         id="path3698"
         cx="320"
         cy="172"
         r="4" />
    </g>
    <g
       id="g673">
      <path
         d="m 311.85156,58.398441 c -1.41791,-0.0383 -2.80856,0.688423 -3.57031,2.007812 -1.108,1.91911 -0.45036,4.352938 1.46875,5.460938 l 22.04688,12.726564 c 0.0606,0.13908 0.1254,0.271632 0.20312,0.406248 v 25.999987 c 0,2.216 1.784,4 4,4 2.216,0 4,-1.784 4,-4 V 79.000002 l 21.71094,-12.53125 c 1.91911,-1.107997 2.57675,-3.54964 1.46875,-5.46875 -1.108,-1.91911 -3.54964,-2.568936 -5.46875,-1.460938 L 336.25,71.929691 313.75,58.937503 c -0.59972,-0.34625 -1.25393,-0.521654 -1.89844,-0.539062 z"
         style="opacity:0.2;fill:#000000;stroke-width:8;stroke-linecap:round;stroke-linejoin:round"
         id="path1584" />
      <path
         id="rect401"
         style="opacity:1;fill:#bfbfbf;stroke-width:8;stroke-linecap:round;stroke-linejoin:round;fill-opacity:1"
         d="m 311.85156,57.398435 c -1.41791,-0.0383 -2.80856,0.688424 -3.57031,2.007812 -1.108,1.91911 -0.45036,4.352938 1.46875,5.460938 l 22.04688,12.726564 c 0.0606,0.13908 0.1254,0.271632 0.20312,0.406248 v 25.999993 c 0,2.216 1.784,4 4,4 2.216,0 4,-1.784 4,-4 V 77.999997 l 21.71094,-12.53125 c 1.91911,-1.107998 2.57675,-3.54964 1.46875,-5.46875 -1.108,-1.91911 -3.54964,-2.568936 -5.46875,-1.460938 L 336.25,70.929685 313.75,57.937497 c -0.59972,-0.34625 -1.25393,-0.521654 -1.89844,-0.539062 z"
         sodipodi:nodetypes="sscccsssccscccs" />
      <circle
         style="opacity:0.2;fill:#000000;fill-opacity:1;stroke-width:5;stroke-linecap:round;stroke-linejoin:round"
         id="path1522"
         cx="336"
         cy="77"
         r="8" />
      <circle
         style="fill:#ffffff;stroke-width:8;stroke-linecap:round;stroke-linejoin:round"
         id="path345"
         cx="336"
         cy="76"
         r="8" />
    </g>
    <g
       id="g5586"
       transform="matrix(4,0,0,4,-1136,-532)">
      <path
         d="m 302.73046,160.49672 c -0.70896,-0.0192 -1.40428,0.34422 -1.78516,1.00391 -0.554,0.95956 -0.22518,2.17647 0.73438,2.73047 l 16.32031,9.42187 v 18.84766 c 0,1.108 0.892,2 2,2 1.108,0 2,-0.892 2,-2 v -18.84766 l 16.32031,-9.42187 c 0.95956,-0.554 1.28838,-1.77091 0.73438,-2.73047 -0.554,-0.95956 -1.77482,-1.28837 -2.73438,-0.73438 l -16.32031,9.42188 -16.32031,-9.42188 c -0.29986,-0.17312 -0.62697,-0.26082 -0.94922,-0.26953 z"
         style="opacity:0.2;fill:#000000;fill-opacity:1;stroke-width:4;stroke-linecap:round;stroke-linejoin:round"
         id="path5530"
         sodipodi:nodetypes="ssccsssccscccs" />
      <path
         d="m 302.73046,159.99671 c -0.70896,-0.0192 -1.40428,0.34422 -1.78516,1.00391 -0.554,0.95956 -0.22518,2.17647 0.73438,2.73047 l 16.32031,9.42187 v 18.84766 c 0,1.108 0.892,2 2,2 1.108,0 2,-0.892 2,-2 v -18.84766 l 16.32031,-9.42187 c 0.95956,-0.554 1.28838,-1.77091 0.73438,-2.73047 -0.554,-0.95956 -1.77482,-1.28837 -2.73438,-0.73438 l -16.32031,9.42188 -16.32031,-9.42188 c -0.29986,-0.17312 -0.62697,-0.26082 -0.94922,-0.26953 z"
         style="fill:#bfbfbf;fill-opacity:1;stroke-width:4;stroke-linecap:round;stroke-linejoin:round"
         id="path5558" />
      <circle
         style="opacity:0.2;fill:#000000;fill-opacity:1;stroke-width:5;stroke-linecap:round;stroke-linejoin:round"
         id="path5578"
         cx="320"
         cy="172.5"
         r="4" />
      <circle
         style="opacity:1;fill:#ffffff;fill-opacity:1;stroke-width:5;stroke-linecap:round;stroke-linejoin:round"
         id="path5580"
         cx="320"
         cy="172"
         r="4" />
    </g>
  </g>
  <g
     id="Highlights">
    <path
       id="rect653"
       style="opacity:0.2;fill:#ffffff"
       d="M 80,44 C 53.408027,44 32,65.408027 32,92 v 2 C 32,67.408027 53.408027,46 80,46 h 128 c 26.59197,0 48,21.408027 48,48 V 92 C 256,65.408027 234.59197,44 208,44 Z"
       sodipodi:nodetypes="sscsscsss" />
    <path
       id="rect773"
       style="opacity:0.2;fill:#ffffff"
       d="m 312,34 c -9.97199,0 -18,8.02801 -18,18 v 1 c 0,-9.97199 8.02801,-18 18,-18 h 48 c 9.97199,0 18,8.02801 18,18 v -1 c 0,-9.97199 -8.02801,-18 -18,-18 z" />
    <path
       id="rect1135"
       style="opacity:0.2;fill:#ffffff;fill-opacity:1"
       d="m 304,144 c -6.64799,0 -12,5.35201 -12,12 v 1 c 0,-6.64799 5.35201,-12 12,-12 h 32 c 6.64799,0 12,5.35201 12,12 v -1 c 0,-6.64799 -5.35201,-12 -12,-12 z" />
    <path
       id="rect1265"
       style="opacity:0.2;fill:#ffffff;fill-opacity:1"
       d="m 300,223 c -4.986,0 -9,4.014 -9,9 v 1 c 0,-4.986 4.014,-9 9,-9 h 24 c 4.986,0 9,4.014 9,9 v -1 c 0,-4.986 -4.014,-9 -9,-9 z" />
    <path
       id="rect1368"
       style="opacity:0.2;fill:#ffffff;fill-opacity:1"
       d="m 424,54 c -3.324,0 -6,2.676003 -6,6 v 1 c 0,-3.323997 2.676,-6 6,-6 h 16 c 3.324,0 6,2.676003 6,6 v -1 c 0,-3.323997 -2.676,-6 -6,-6 z" />
    <path
       id="rect1402"
       style="opacity:0.2;fill:#ffffff;fill-opacity:1"
       d="m 420,140 c -2.216,0 -4,1.784 -4,4 v 1 c 0,-2.216 1.784,-4 4,-4 h 8 c 2.216,0 4,1.784 4,4 v -1 c 0,-2.216 -1.784,-4 -4,-4 z" />
    <path
       id="rect1436"
       style="opacity:0.2;fill:#ffffff;fill-opacity:1"
       d="m 422,102 c -2.216,0 -4,1.784 -4,4 v 1 c 0,-2.216 1.784,-4 4,-4 h 12 c 2.216,0 4,1.784 4,4 v -1 c 0,-2.216 -1.784,-4 -4,-4 z" />
  </g>
</svg>
