<?xml version="1.0" encoding="UTF-8" standalone="no"?>
<!-- Created with Inkscape (http://www.inkscape.org/) -->

<svg
   width="480"
   height="300"
   viewBox="0 0 480 300"
   version="1.1"
   id="svg5"
   inkscape:version="1.2.2 (1:1.2.2+202305151914+b0a8486541)"
   sodipodi:docname="desktop-environment-xfce.svg"
   xmlns:inkscape="http://www.inkscape.org/namespaces/inkscape"
   xmlns:sodipodi="http://sodipodi.sourceforge.net/DTD/sodipodi-0.dtd"
   xmlns="http://www.w3.org/2000/svg"
   xmlns:svg="http://www.w3.org/2000/svg">
  <sodipodi:namedview
     id="namedview7"
     pagecolor="#888888"
     bordercolor="#000000"
     borderopacity="0.25"
     inkscape:showpageshadow="true"
     inkscape:pageopacity="0"
     inkscape:pagecheckerboard="0"
     inkscape:deskcolor="#888888"
     inkscape:document-units="px"
     showgrid="false"
     showborder="false"
     inkscape:zoom="2.6866667"
     inkscape:cx="240.07444"
     inkscape:cy="150"
     inkscape:window-width="1920"
     inkscape:window-height="1008"
     inkscape:window-x="0"
     inkscape:window-y="0"
     inkscape:window-maximized="1"
     inkscape:current-layer="svg5" />
  <defs
     id="defs2" />
  <g
     id="Baseplate"
     style="display:none">
    <text
       y="19.774782"
       xml:space="preserve"
       x="15.006946"
       style="font-style:normal;font-variant:normal;font-weight:normal;font-stretch:normal;line-height:0%;font-family:'DejaVu Sans';-inkscape-font-specification:'DejaVu Sans';display:inline;fill:#000000;fill-opacity:1;stroke:none;enable-background:new"
       inkscape:label="context"
       id="context"><tspan
         style="font-style:normal;font-variant:normal;font-weight:normal;font-stretch:normal;font-size:18px;line-height:1.25;font-family:'DejaVu Sans';-inkscape-font-specification:'DejaVu Sans'"
         y="19.774782"
         x="15.006946"
         sodipodi:role="line"
         id="tspan3933">apps</tspan></text>
    <text
       y="19.774782"
       xml:space="preserve"
       x="122.48839"
       style="font-style:normal;font-variant:normal;font-weight:bold;font-stretch:normal;line-height:0%;font-family:'DejaVu Sans';-inkscape-font-specification:'DejaVu Sans Bold';text-align:start;writing-mode:lr-tb;text-anchor:start;display:inline;fill:#000000;fill-opacity:1;stroke:none;enable-background:new"
       inkscape:label="icon-name"
       id="icon-name"><tspan
         style="font-style:normal;font-variant:normal;font-weight:bold;font-stretch:normal;font-size:18px;line-height:1.25;font-family:'DejaVu Sans';-inkscape-font-specification:'DejaVu Sans Bold'"
         y="19.774782"
         x="122.48839"
         sodipodi:role="line"
         id="tspan3937">desktop-environment-xfce</tspan></text>
    <rect
       style="fill:#ffffff"
       id="256x256"
       width="256"
       height="256"
       x="16"
       y="28" />
    <rect
       style="fill:#ffffff"
       id="96x96"
       width="96"
       height="96"
       x="288"
       y="28" />
    <rect
       style="fill:#ffffff"
       id="64x64"
       width="64"
       height="64"
       x="288"
       y="140" />
    <rect
       style="fill:#ffffff"
       id="48x48"
       width="48"
       height="48"
       x="288"
       y="220" />
    <rect
       style="fill:#ffffff"
       id="32x32"
       width="32"
       height="32"
       x="416"
       y="52" />
    <rect
       style="fill:#ffffff"
       id="24x24"
       width="24"
       height="24"
       x="416"
       y="100" />
    <rect
       style="fill:#ffffff"
       id="22x22"
       width="22"
       height="22"
       x="417"
       y="101" />
    <rect
       style="fill:#ffffff"
       id="16x16"
       width="16"
       height="16"
       x="416"
       y="140" />
  </g>
  <g
     id="Shadow">
    <rect
       style="opacity:0.2;fill:#000000"
       id="rect651"
       width="224"
       height="224"
       x="32"
       y="46"
       ry="48" />
    <rect
       style="opacity:0.2;fill:#000000"
       id="rect769"
       width="84"
       height="85"
       x="294"
       y="34"
       ry="18" />
    <rect
       style="opacity:0.2;fill:#000000;fill-opacity:1"
       id="rect1131"
       width="56"
       height="56"
       x="292"
       y="145"
       ry="12" />
    <rect
       style="opacity:0.2;fill:#000000;fill-opacity:1"
       id="rect1261"
       width="42"
       height="42"
       x="291"
       y="224"
       ry="9" />
    <rect
       style="opacity:0.2;fill:#000000;fill-opacity:1"
       id="rect1364"
       width="28"
       height="29"
       x="418"
       y="54"
       ry="6" />
    <rect
       style="opacity:0.2;fill:#000000;fill-opacity:1"
       id="rect1398"
       width="16"
       height="16"
       x="416"
       y="141"
       ry="4" />
    <rect
       style="opacity:0.2;fill:#000000;fill-opacity:1"
       id="rect1432"
       width="20"
       height="20"
       x="418"
       y="103"
       ry="4" />
  </g>
  <g
     id="Background">
    <rect
       style="fill:#1579d2;fill-opacity:1"
       id="rect597"
       width="224"
       height="224"
       x="32"
       y="44"
       ry="48" />
    <rect
       style="opacity:1;fill:#1579d2;fill-opacity:1"
       id="rect771"
       width="84"
       height="84"
       x="294"
       y="34"
       ry="18" />
    <rect
       style="opacity:1;fill:#1579d2;fill-opacity:1"
       id="rect1133"
       width="56"
       height="56"
       x="292"
       y="144"
       ry="12" />
    <rect
       style="opacity:1;fill:#1579d2;fill-opacity:1"
       id="rect1263"
       width="42"
       height="42"
       x="291"
       y="223"
       ry="9" />
    <rect
       style="opacity:1;fill:#1579d2;fill-opacity:1"
       id="rect1366"
       width="28"
       height="28"
       x="418"
       y="54"
       ry="6" />
    <rect
       style="opacity:1;fill:#1579d2;fill-opacity:1"
       id="rect1400"
       width="16"
       height="16"
       x="416"
       y="140"
       ry="4" />
    <rect
       style="opacity:1;fill:#1579d2;fill-opacity:1"
       id="rect1434"
       width="20"
       height="20"
       x="418"
       y="102"
       ry="4" />
  </g>
  <g
     id="g3058">
    <g
       id="g3470">
      <path
         d="m 424,143.5 c -2.76142,0 -5,2.23858 -5,5 0,2.76142 2.23858,5 5,5 2.76142,0 5,-2.23858 5,-5 0,-2.76142 -2.23858,-5 -5,-5 z m -0.84375,1.78125 c 0.0391,-0.002 0.08,-0.001 0.125,0.006 0.0751,0.042 0.44654,-0.009 0.54297,1.03516 0.0256,0.17581 0.062,0.57784 0.0723,0.75585 0.0201,0.15401 1.69378,0.0913 3.17774,1.0625 0.17307,0.10414 0.8764,0.78816 0.16016,1.38086 -0.29391,0.29601 -2.67308,1.527 -2.8125,1.625 -0.0392,1.12167 1.28029,1.34546 -0.42188,1.35352 -2.20931,0 -4,-1.79068 -4,-4 0.14277,-0.10556 0.58655,-0.0161 0.8125,-0.0566 0.32471,-0.0764 0.45448,-0.6354 0.47852,-1.06836 -7.2e-4,-0.19283 -0.13896,-0.79004 -0.14063,-0.92188 -0.01,-0.4589 0.42902,-0.66027 0.55273,-0.63476 0.12915,0.033 0.3961,0.0882 0.85938,1.22266 0.0777,0.14442 0.0701,0.0843 0.29102,0.10546 -0.23031,-0.76163 -0.28412,-1.83132 0.30273,-1.86523 z m 3.54297,1.01953 c 10e-4,-0.001 0.002,-5e-5 0.004,0.002 0.058,0.0561 0.0127,1.11523 -0.17578,1.31641 -0.0107,0.0114 -0.0679,-1.03587 0.16602,-1.3125 0.002,-0.003 0.004,-0.005 0.006,-0.006 z m 0.76562,0.20508 c 0.0173,0.0299 0.0343,0.0575 0.0508,0.0879 -0.11305,0.36324 -0.61772,1.20152 -0.6289,1.13477 -0.0331,-0.30349 0.40179,-1.01528 0.57812,-1.22266 z m -3.21484,1.34766 c -0.1594,0 -0.29102,0.13585 -0.29102,0.30273 0,0.16685 0.13744,0.3125 0.29688,0.3125 0.15944,0 0.28125,-0.14565 0.28125,-0.3125 0,-0.16688 -0.12766,-0.30273 -0.28711,-0.30273 z m -0.64648,0.2871 c -0.0708,-0.004 -0.067,0.54982 0.18945,0.69336 0.26506,0.1248 0.6537,-0.0825 0.58789,-0.0898 -0.57221,-0.0635 -0.67428,-0.33124 -0.76172,-0.59375 -0.005,-0.006 -0.009,-0.009 -0.0137,-0.01 z m 1.55859,1.3125 c -0.3369,0.0114 -1.11275,0.48633 -1.05273,0.53711 0.0905,0.0766 1.25376,-0.50677 1.11523,-0.53711 -0.0183,-0.004 -0.0401,-5.4e-4 -0.0625,0 z m 0.17773,0.38086 c -0.26729,0.0603 -0.78464,0.66796 -0.72461,0.71875 0.0905,0.0766 0.89732,-0.70938 0.77539,-0.71875 -0.0154,-7.2e-4 -0.033,-0.004 -0.0508,0 z"
         style="fill:#000000;fill-opacity:1;stroke-width:5;stroke-linecap:round;stroke-linejoin:round;opacity:0.2"
         id="path3448" />
      <path
         id="path3437"
         style="opacity:1;fill:#ffffff;fill-opacity:1;stroke-width:5;stroke-linecap:round;stroke-linejoin:round"
         d="m 424,143 c -2.76142,0 -5,2.23858 -5,5 0,2.76142 2.23858,5 5,5 2.76142,0 5,-2.23858 5,-5 0,-2.76142 -2.23858,-5 -5,-5 z m -0.84375,1.78125 c 0.0391,-0.002 0.08,-0.001 0.125,0.006 0.0751,0.042 0.44654,-0.009 0.54297,1.03516 0.0256,0.17581 0.062,0.57784 0.0723,0.75585 0.0201,0.15401 1.69378,0.0913 3.17774,1.0625 0.17307,0.10414 0.8764,0.78816 0.16016,1.38086 -0.29391,0.29601 -2.67308,1.527 -2.8125,1.625 -0.0392,1.12167 1.28029,1.34546 -0.42188,1.35352 -2.20931,0 -4,-1.79068 -4,-4 0.14277,-0.10556 0.58655,-0.0161 0.8125,-0.0566 0.32471,-0.0764 0.45448,-0.6354 0.47852,-1.06836 -7.2e-4,-0.19283 -0.13896,-0.79004 -0.14063,-0.92188 -0.01,-0.4589 0.42902,-0.66027 0.55273,-0.63476 0.12915,0.033 0.3961,0.0882 0.85938,1.22266 0.0777,0.14442 0.0701,0.0843 0.29102,0.10546 -0.23031,-0.76163 -0.28412,-1.83132 0.30273,-1.86523 z m 3.54297,1.01953 c 0.001,-0.001 0.002,-5e-5 0.004,0.002 0.058,0.0561 0.0127,1.11523 -0.17578,1.31641 -0.0107,0.0114 -0.0679,-1.03587 0.16602,-1.3125 0.002,-0.003 0.004,-0.005 0.006,-0.006 z m 0.76562,0.20508 c 0.0173,0.0299 0.0343,0.0575 0.0508,0.0879 -0.11305,0.36324 -0.61772,1.20152 -0.6289,1.13477 -0.0331,-0.30349 0.40179,-1.01528 0.57812,-1.22266 z m -3.21484,1.34766 c -0.1594,0 -0.29102,0.13585 -0.29102,0.30273 0,0.16685 0.13744,0.3125 0.29688,0.3125 0.15944,0 0.28125,-0.14565 0.28125,-0.3125 0,-0.16688 -0.12766,-0.30273 -0.28711,-0.30273 z m -0.64648,0.2871 c -0.0708,-0.004 -0.067,0.54982 0.18945,0.69336 0.26506,0.1248 0.6537,-0.0825 0.58789,-0.0898 -0.57221,-0.0635 -0.67428,-0.33124 -0.76172,-0.59375 -0.005,-0.006 -0.009,-0.009 -0.0137,-0.01 z m 1.55859,1.3125 c -0.3369,0.0114 -1.11275,0.48633 -1.05273,0.53711 0.0905,0.0766 1.25376,-0.50677 1.11523,-0.53711 -0.0183,-0.004 -0.0401,-5.4e-4 -0.0625,0 z m 0.17773,0.38086 c -0.26729,0.0603 -0.78464,0.66796 -0.72461,0.71875 0.0905,0.0766 0.89732,-0.70938 0.77539,-0.71875 -0.0154,-7.2e-4 -0.033,-0.004 -0.0508,0 z"
         sodipodi:nodetypes="sssssccccccccccccccccscsssccccsssssccsccccssccscc" />
    </g>
    <g
       id="g3380">
      <path
         d="m 428,105.5 c -3.86599,0 -7,3.13401 -7,7 0,3.86599 3.13401,7 7,7 3.86599,0 7,-3.13401 7,-7 0,-3.86599 -3.13401,-7 -7,-7 z m -1.09766,2.49219 c 0.0291,8.7e-4 0.0603,0.003 0.0918,0.008 0.10512,0.0588 0.62283,-0.011 0.75781,1.45117 0.0358,0.24612 0.0871,0.80939 0.10157,1.0586 0.0281,0.2156 2.3718,0.12681 4.44921,1.48632 0.24228,0.14578 1.2273,1.10387 0.22461,1.9336 -0.41144,0.41439 -3.74231,2.13625 -3.9375,2.27343 -0.0549,1.57024 1.79304,1.8852 -0.58984,1.89649 -3.09285,0 -5.59961,-2.50676 -5.59961,-5.59961 0.19987,-0.14777 0.82041,-0.0234 1.13672,-0.0801 0.45457,-0.10693 0.63822,-0.88999 0.67187,-1.49609 -9.9e-4,-0.26995 -0.19492,-1.1045 -0.19726,-1.28906 -0.0134,-0.64244 0.60025,-0.92635 0.77344,-0.89063 0.18081,0.0462 0.55458,0.12675 1.20312,1.71484 0.10877,0.20217 0.099,0.11489 0.4082,0.14454 -0.3224,-1.06622 -0.39965,-2.5619 0.42188,-2.60938 0.0274,-0.002 0.0549,-0.003 0.084,-0.002 z m 4.875,1.42969 c 0.002,-0.001 0.005,-8e-4 0.008,0.002 0.0812,0.0785 0.0159,1.56211 -0.24805,1.84375 -0.015,0.0159 -0.095,-1.45063 0.23242,-1.83789 0.004,-0.004 0.006,-0.006 0.008,-0.008 z m 1.07227,0.28515 c 0.0242,0.0419 0.0492,0.0823 0.0723,0.125 -0.15828,0.50851 -0.86718,1.68134 -0.88282,1.58789 -0.0463,-0.42486 0.5637,-1.42258 0.81055,-1.71289 z m -4.5,1.88867 c -0.22314,0 -0.4082,0.19022 -0.4082,0.42383 0,0.23358 0.19281,0.4375 0.41601,0.4375 0.22321,0 0.39453,-0.20392 0.39453,-0.4375 0,-0.23361 -0.17913,-0.42383 -0.40234,-0.42383 z m -0.9043,0.40039 c -0.0991,-0.005 -0.0952,0.76976 0.26367,0.97071 0.37106,0.17471 0.91633,-0.11274 0.82422,-0.12305 -0.80105,-0.0889 -0.94204,-0.46454 -1.06445,-0.83203 -0.007,-0.008 -0.0168,-0.0151 -0.0234,-0.0156 z m 2.18164,1.83789 c -0.47163,0.016 -1.55861,0.68087 -1.47461,0.75196 0.12673,0.10721 1.75449,-0.70948 1.56055,-0.75196 -0.0256,-0.005 -0.0545,-7.7e-4 -0.0859,0 z m 0.24805,0.53321 c -0.37419,0.0844 -1.09769,0.93476 -1.01367,1.00586 0.12676,0.10721 1.25662,-0.99274 1.08594,-1.00586 -0.0215,-10e-4 -0.0474,-0.006 -0.0723,0 z"
         style="fill:#000000;fill-opacity:1;stroke-width:5;stroke-linecap:round;stroke-linejoin:round;opacity:0.2"
         id="path3358" />
      <path
         id="path3347"
         style="opacity:1;fill:#ffffff;fill-opacity:1;stroke-width:5;stroke-linecap:round;stroke-linejoin:round"
         d="m 428,105 c -3.86599,0 -7,3.13401 -7,7 0,3.86599 3.13401,7 7,7 3.86599,0 7,-3.13401 7,-7 0,-3.86599 -3.13401,-7 -7,-7 z m -1.09766,2.49219 c 0.0291,8.7e-4 0.0603,0.003 0.0918,0.008 0.10512,0.0588 0.62283,-0.011 0.75781,1.45117 0.0358,0.24612 0.0871,0.80939 0.10157,1.0586 0.0281,0.2156 2.3718,0.12681 4.44921,1.48632 0.24228,0.14578 1.2273,1.10387 0.22461,1.9336 -0.41144,0.41439 -3.74231,2.13625 -3.9375,2.27343 -0.0549,1.57024 1.79304,1.8852 -0.58984,1.89649 -3.09285,0 -5.59961,-2.50676 -5.59961,-5.59961 0.19987,-0.14777 0.82041,-0.0234 1.13672,-0.0801 0.45457,-0.10693 0.63822,-0.88999 0.67187,-1.49609 -9.9e-4,-0.26995 -0.19492,-1.1045 -0.19726,-1.28906 -0.0134,-0.64244 0.60025,-0.92635 0.77344,-0.89063 0.18081,0.0462 0.55458,0.12675 1.20312,1.71484 0.10877,0.20217 0.099,0.11489 0.4082,0.14454 -0.3224,-1.06622 -0.39965,-2.5619 0.42188,-2.60938 0.0274,-0.002 0.0549,-0.003 0.084,-0.002 z m 4.875,1.42969 c 0.002,-0.001 0.005,-8e-4 0.008,0.002 0.0812,0.0785 0.0159,1.56211 -0.24805,1.84375 -0.015,0.0159 -0.095,-1.45063 0.23242,-1.83789 0.004,-0.004 0.006,-0.006 0.008,-0.008 z m 1.07227,0.28515 c 0.0242,0.0419 0.0492,0.0823 0.0723,0.125 -0.15828,0.50851 -0.86718,1.68134 -0.88282,1.58789 -0.0463,-0.42486 0.5637,-1.42258 0.81055,-1.71289 z m -4.5,1.88867 c -0.22314,0 -0.4082,0.19022 -0.4082,0.42383 0,0.23358 0.19281,0.4375 0.41601,0.4375 0.22321,0 0.39453,-0.20392 0.39453,-0.4375 0,-0.23361 -0.17913,-0.42383 -0.40234,-0.42383 z m -0.9043,0.40039 c -0.0991,-0.005 -0.0952,0.76976 0.26367,0.97071 0.37106,0.17471 0.91633,-0.11274 0.82422,-0.12305 -0.80105,-0.0889 -0.94204,-0.46454 -1.06445,-0.83203 -0.007,-0.008 -0.0168,-0.0151 -0.0234,-0.0156 z m 2.18164,1.83789 c -0.47163,0.016 -1.55861,0.68087 -1.47461,0.75196 0.12673,0.10721 1.75449,-0.70948 1.56055,-0.75196 -0.0256,-0.005 -0.0545,-7.7e-4 -0.0859,0 z m 0.24805,0.53321 c -0.37419,0.0844 -1.09769,0.93476 -1.01367,1.00586 0.12676,0.10721 1.25662,-0.99274 1.08594,-1.00586 -0.0215,-10e-4 -0.0474,-0.006 -0.0723,0 z"
         sodipodi:nodetypes="ssssssccccccccccccccssscscsccccsssssccccccscccscc" />
    </g>
    <g
       id="g3560">
      <path
         id="path3472"
         style="opacity:0.2;fill:#000000;fill-opacity:1;stroke-width:5;stroke-linecap:round;stroke-linejoin:round"
         d="m 432,59 c -5.52285,0 -10,4.477153 -10,10 0,5.522847 4.47715,10 10,10 5.52285,0 10,-4.477153 10,-10 0,-5.522847 -4.47715,-10 -10,-10 z m -1.56641,3.560547 c 0.0415,0.0013 0.084,0.0044 0.12891,0.01172 0.15018,0.08405 0.89113,-0.01461 1.08398,2.074218 0.0511,0.351597 0.12377,1.153757 0.14454,1.509766 0.0401,0.308005 3.38777,0.182859 6.35546,2.125 0.34611,0.208248 1.75466,1.574468 0.32227,2.759766 -0.58776,0.591982 -5.34616,3.054019 -5.625,3.25 C 432.76535,76.534183 435.40406,76.98387 432,77 c -4.41828,0 -8,-3.581723 -8,-8 0.28552,-0.211092 1.17314,-0.03415 1.625,-0.115234 0.64937,-0.152743 0.91091,-1.268926 0.95898,-2.134766 -0.002,-0.38564 -0.27791,-1.580108 -0.28125,-1.84375 -0.0191,-0.917754 0.85611,-1.322522 1.10352,-1.271484 0.2583,0.06597 0.79228,0.180535 1.71875,2.449218 0.15538,0.288801 0.14228,0.164672 0.58398,0.207032 -0.46057,-1.523146 -0.57007,-3.660688 0.60352,-3.728516 0.0391,-0.0022 0.0796,-0.0033 0.12109,-0.002 z m 6.96289,2.041015 c 0.003,-0.0021 0.006,-0.0018 0.01,0.002 0.116,0.112175 0.0236,2.234385 -0.35352,2.636718 -0.0214,0.0227 -0.13571,-2.071785 0.33204,-2.625 0.005,-0.0057 0.009,-0.01156 0.0117,-0.01367 z m 1.53125,0.408204 c 0.0346,0.05991 0.0704,0.116852 0.10352,0.177734 -0.22611,0.726428 -1.23741,2.40498 -1.25977,2.271484 -0.0662,-0.606935 0.80361,-2.034498 1.15625,-2.449218 z M 432.5,67.708984 c -0.31879,0 -0.58398,0.269786 -0.58398,0.603516 0,0.333676 0.27489,0.625 0.59375,0.625 0.31885,0 0.5625,-0.291324 0.5625,-0.625 0,-0.33373 -0.25341,-0.603516 -0.57227,-0.603516 z m -1.29102,0.572266 c -0.14149,-0.0074 -0.13765,1.097693 0.375,1.384766 0.53007,0.249575 1.30739,-0.161055 1.17579,-0.175782 -1.14433,-0.126969 -1.34467,-0.662521 -1.51954,-1.1875 -0.0105,-0.01095 -0.0217,-0.02082 -0.0312,-0.02148 z m 3.17969,2.621094 c -0.0211,7.75e-4 -0.0439,0.0034 -0.0664,0.0039 -0.67375,0.02284 -2.22355,0.970705 -2.10352,1.072266 0.18104,0.153154 2.50556,-1.011578 2.22852,-1.072266 -0.0183,-0.0036 -0.0375,-0.0047 -0.0586,-0.0039 z m 0.3418,0.759765 c -0.0178,-7.37e-4 -0.0349,-9.3e-5 -0.0527,0.0039 -0.53456,0.120562 -1.56925,1.33593 -1.44921,1.4375 0.18108,0.153159 1.79656,-1.418747 1.55273,-1.4375 -0.0154,-0.001 -0.033,-0.0032 -0.0508,-0.0039 z"
         sodipodi:nodetypes="ssssssccccccccccccccssscccsccccssssscccccscscsscscs" />
      <path
         d="m 432,58 c -5.52285,0 -10,4.477153 -10,10 0,5.522847 4.47715,10 10,10 5.52285,0 10,-4.477153 10,-10 0,-5.522847 -4.47715,-10 -10,-10 z m -1.56641,3.560547 c 0.0415,0.0013 0.084,0.0044 0.12891,0.01172 0.15018,0.08405 0.89113,-0.01461 1.08398,2.074218 0.0511,0.351597 0.12377,1.153757 0.14454,1.509766 0.0401,0.308005 3.38777,0.182859 6.35546,2.125 0.34611,0.208248 1.75466,1.574468 0.32227,2.759766 -0.58776,0.591982 -5.34616,3.054019 -5.625,3.25 C 432.76535,75.534183 435.40406,75.98387 432,76 c -4.41828,0 -8,-3.581723 -8,-8 0.28552,-0.211092 1.17314,-0.03415 1.625,-0.115234 0.64937,-0.152743 0.91091,-1.268926 0.95898,-2.134766 -0.002,-0.38564 -0.27791,-1.580108 -0.28125,-1.84375 -0.0191,-0.917754 0.85611,-1.322522 1.10352,-1.271484 0.2583,0.06597 0.79228,0.180535 1.71875,2.449218 0.15538,0.288801 0.14228,0.164672 0.58398,0.207032 -0.46057,-1.523146 -0.57007,-3.660688 0.60352,-3.728516 0.0391,-0.0022 0.0796,-0.0033 0.12109,-0.002 z m 6.96289,2.041015 c 0.003,-0.0021 0.006,-0.0018 0.01,0.002 0.116,0.112175 0.0236,2.234385 -0.35352,2.636718 -0.0214,0.0227 -0.13571,-2.071785 0.33204,-2.625 0.005,-0.0057 0.009,-0.01156 0.0117,-0.01367 z m 1.53125,0.408204 c 0.0346,0.05991 0.0704,0.116852 0.10352,0.177734 -0.22611,0.726428 -1.23741,2.40498 -1.25977,2.271484 -0.0662,-0.606935 0.80361,-2.034498 1.15625,-2.449218 z M 432.5,66.708984 c -0.31879,0 -0.58398,0.269786 -0.58398,0.603516 0,0.333676 0.27489,0.625 0.59375,0.625 0.31885,0 0.5625,-0.291324 0.5625,-0.625 0,-0.33373 -0.25341,-0.603516 -0.57227,-0.603516 z m -1.29102,0.572266 c -0.14149,-0.0074 -0.13765,1.097693 0.375,1.384766 0.53007,0.249575 1.30739,-0.161055 1.17579,-0.175782 -1.14433,-0.126969 -1.34467,-0.662521 -1.51954,-1.1875 -0.0105,-0.01095 -0.0217,-0.02082 -0.0312,-0.02148 z m 3.17969,2.621094 c -0.0211,7.75e-4 -0.0439,0.0034 -0.0664,0.0039 -0.67375,0.02284 -2.22355,0.970705 -2.10352,1.072266 0.18104,0.153154 2.50556,-1.011578 2.22852,-1.072266 -0.0183,-0.0036 -0.0375,-0.0047 -0.0586,-0.0039 z m 0.3418,0.759765 c -0.0178,-7.37e-4 -0.0349,-9.3e-5 -0.0527,0.0039 -0.53456,0.120562 -1.56925,1.33593 -1.44921,1.4375 0.18108,0.153159 1.79656,-1.418747 1.55273,-1.4375 -0.0154,-0.001 -0.033,-0.0032 -0.0508,-0.0039 z"
         style="opacity:1;fill:#ffffff;fill-opacity:1;stroke-width:5;stroke-linecap:round;stroke-linejoin:round"
         id="path3538" />
    </g>
    <g
       id="g3262">
      <path
         d="m 312,230 c -8.28427,0 -15,6.71573 -15,15 0,8.28427 6.71573,15 15,15 8.28427,0 15,-6.71573 15,-15 0,-8.28427 -6.71573,-15 -15,-15 z m -2.19336,5.98438 c 0.0581,0.002 0.11869,0.007 0.18164,0.0176 0.21024,0.11774 1.24563,-0.0221 1.51563,2.90235 0.0715,0.49225 0.176,1.61681 0.20507,2.11523 0.0561,0.43121 4.7397,0.25556 8.89454,2.97461 0.48456,0.29154 2.45849,2.2058 0.45312,3.86524 -0.82289,0.82878 -7.48463,4.27444 -7.875,4.54882 -0.10976,3.14048 3.58411,3.77041 -1.18164,3.79297 -6.18569,0 -11.19922,-5.0155 -11.19922,-11.20117 0.39972,-0.29554 1.64083,-0.0466 2.27344,-0.16016 0.90913,-0.21384 1.27449,-1.77804 1.3418,-2.99023 -0.003,-0.53991 -0.38791,-2.21098 -0.39258,-2.58008 -0.0267,-1.28488 1.19854,-1.85076 1.54492,-1.7793 0.36163,0.0924 1.10918,0.24959 2.40625,3.42579 0.21755,0.40433 0.19801,0.23367 0.81641,0.29296 -0.64481,-2.13242 -0.79736,-5.12575 0.8457,-5.2207 0.0547,-0.003 0.11184,-0.006 0.16992,-0.004 z m 9.74805,2.85937 c 0.004,-0.003 0.008,-0.003 0.0137,0.002 0.16241,0.15704 0.0318,3.12618 -0.49609,3.68946 -0.0301,0.0318 -0.18807,-2.89932 0.46679,-3.67383 0.007,-0.008 0.0114,-0.0146 0.0156,-0.0176 z m 2.14453,0.57031 c 0.0484,0.0839 0.0982,0.16282 0.14453,0.24805 -0.31656,1.01703 -1.73239,3.36659 -1.76367,3.17969 -0.0927,-0.84972 1.12544,-2.84711 1.61914,-3.42774 z m -9,3.77735 c -0.44633,0 -0.81641,0.37847 -0.81641,0.8457 0,0.46715 0.38561,0.875 0.83203,0.875 0.44638,0 0.78711,-0.40785 0.78711,-0.875 0,-0.46723 -0.35634,-0.8457 -0.80273,-0.8457 z m -1.80664,0.80273 c -0.1981,-0.01 -0.19429,1.53756 0.52344,1.93945 0.74209,0.34943 1.83269,-0.22741 1.64843,-0.24804 -1.60208,-0.17775 -1.88408,-0.92712 -2.1289,-1.66211 -0.0147,-0.0154 -0.0295,-0.0285 -0.043,-0.0293 z m 4.35937,3.67383 c -0.94327,0.0321 -3.11335,1.36173 -2.94531,1.50391 0.25347,0.21442 3.50895,-1.41893 3.12109,-1.50391 -0.0511,-0.01 -0.11292,-0.001 -0.17578,0 z m 0.4961,1.06641 c -0.7484,0.1688 -2.1954,1.86952 -2.02735,2.01171 0.25352,0.21443 2.5152,-1.98545 2.17383,-2.01171 -0.043,-0.003 -0.0965,-0.0112 -0.14648,0 z"
         style="opacity:0.2;fill:#000000;fill-opacity:1;stroke-width:5;stroke-linecap:round;stroke-linejoin:round"
         id="path3180"
         sodipodi:nodetypes="sssssscccccccccccccccssscccssccccsssssscccsscscccscc" />
      <path
         id="path3167"
         style="opacity:1;fill:#ffffff;fill-opacity:1;stroke-width:5;stroke-linecap:round;stroke-linejoin:round"
         d="m 312,229 c -8.28427,0 -15,6.71573 -15,15 0,8.28427 6.71573,15 15,15 8.28427,0 15,-6.71573 15,-15 0,-8.28427 -6.71573,-15 -15,-15 z m -2.19336,5.98438 c 0.0581,0.002 0.11869,0.007 0.18164,0.0176 0.21024,0.11774 1.24563,-0.0221 1.51563,2.90235 0.0715,0.49225 0.176,1.61681 0.20507,2.11523 0.0561,0.43121 4.7397,0.25556 8.89454,2.97461 0.48456,0.29154 2.45849,2.2058 0.45312,3.86524 -0.82289,0.82878 -7.48463,4.27444 -7.875,4.54882 -0.10976,3.14048 3.58411,3.77041 -1.18164,3.79297 -6.18569,0 -11.19922,-5.0155 -11.19922,-11.20117 0.39972,-0.29554 1.64083,-0.0466 2.27344,-0.16016 0.90913,-0.21384 1.27449,-1.77804 1.3418,-2.99023 -0.003,-0.53991 -0.38791,-2.21098 -0.39258,-2.58008 -0.0267,-1.28488 1.19854,-1.85076 1.54492,-1.7793 0.36163,0.0924 1.10918,0.24959 2.40625,3.42579 0.21755,0.40433 0.19801,0.23367 0.81641,0.29296 -0.64481,-2.13242 -0.79736,-5.12575 0.8457,-5.2207 0.0547,-0.003 0.11184,-0.006 0.16992,-0.004 z m 9.74805,2.85937 c 0.004,-0.003 0.008,-0.003 0.0137,0.002 0.16241,0.15704 0.0318,3.12618 -0.49609,3.68946 -0.0301,0.0318 -0.18807,-2.89932 0.46679,-3.67383 0.007,-0.008 0.0114,-0.0146 0.0156,-0.0176 z m 2.14453,0.57031 c 0.0484,0.0839 0.0982,0.16282 0.14453,0.24805 -0.31656,1.01703 -1.73239,3.36659 -1.76367,3.17969 -0.0927,-0.84972 1.12544,-2.84711 1.61914,-3.42774 z m -9,3.77735 c -0.44633,0 -0.81641,0.37847 -0.81641,0.8457 0,0.46715 0.38561,0.875 0.83203,0.875 0.44638,0 0.78711,-0.40785 0.78711,-0.875 0,-0.46723 -0.35634,-0.8457 -0.80273,-0.8457 z m -1.80664,0.80273 c -0.1981,-0.01 -0.19429,1.53756 0.52344,1.93945 0.74209,0.34943 1.83269,-0.22741 1.64843,-0.24804 -1.60208,-0.17775 -1.88408,-0.92712 -2.1289,-1.66211 -0.0147,-0.0154 -0.0295,-0.0285 -0.043,-0.0293 z m 4.35937,3.67383 c -0.94327,0.0321 -3.11335,1.36173 -2.94531,1.50391 0.25347,0.21442 3.50895,-1.41893 3.12109,-1.50391 -0.0511,-0.01 -0.11292,-0.001 -0.17578,0 z m 0.4961,1.06641 c -0.7484,0.1688 -2.1954,1.86952 -2.02735,2.01171 0.25352,0.21443 2.5152,-1.98545 2.17383,-2.01171 -0.043,-0.003 -0.0965,-0.0112 -0.14648,0 z"
         sodipodi:nodetypes="sssssscccccccccccccccsscccsccscsscssccccccscccsccscc" />
    </g>
    <g
       id="g3050">
      <path
         d="m 320,153 c -11.04569,0 -20,8.95431 -20,20 0,11.04569 8.95431,20 20,20 11.04569,0 20,-8.95431 20,-20 0,-11.04569 -8.95431,-20 -20,-20 z m -3.13281,7.11914 c 0.0829,0.003 0.16788,0.0105 0.25781,0.0254 0.30034,0.16809 1.7803,-0.0311 2.16602,4.14649 0.1022,0.70319 0.25143,2.30946 0.29296,3.02148 0.0801,0.61601 6.77164,0.36571 12.70704,4.25 0.69221,0.41649 3.51126,3.14893 0.64648,5.51953 -1.17551,1.18397 -10.69234,6.10805 -11.25,6.5 -0.15672,4.48635 5.1206,5.38573 -1.6875,5.41797 -8.83654,0 -16,-7.16346 -16,-16 0.57103,-0.42219 2.34629,-0.0683 3.25,-0.23047 1.29874,-0.30549 1.81987,-2.53785 1.91602,-4.26953 -0.005,-0.77128 -0.55584,-3.16022 -0.5625,-3.6875 -0.0382,-1.83551 1.71416,-2.64505 2.20898,-2.54297 0.51661,0.13194 1.58456,0.35912 3.4375,4.89649 0.31077,0.5776 0.2826,0.33129 1.16602,0.41601 -0.92116,-3.04629 -1.13821,-7.32138 1.20898,-7.45703 0.0782,-0.005 0.15923,-0.008 0.24219,-0.006 z m 13.92578,4.08398 c 0.006,-0.004 0.0118,-0.004 0.0195,0.004 0.23199,0.22435 0.045,4.46682 -0.70898,5.27149 -0.0429,0.0454 -0.26752,-4.14358 0.66796,-5.25 0.01,-0.0114 0.0154,-0.0212 0.0215,-0.0254 z m 3.06055,0.81641 c 0.0692,0.11983 0.14283,0.23371 0.20898,0.35547 -0.45223,1.45286 -2.47678,4.80801 -2.52148,4.54102 -0.13243,-1.21388 1.60722,-4.06704 2.3125,-4.89649 z M 321,170.41602 c -0.63759,0 -1.16602,0.54152 -1.16602,1.20898 0,0.66735 0.54979,1.25 1.1875,1.25 0.63769,0 1.125,-0.58265 1.125,-1.25 0,-0.66746 -0.50878,-1.20898 -1.14648,-1.20898 z m -2.58398,1.14648 c -0.28299,-0.0148 -0.27531,2.19539 0.75,2.76953 1.06011,0.49916 2.61868,-0.32406 2.35546,-0.35351 -2.28863,-0.25394 -2.69322,-1.32506 -3.04296,-2.375 -0.021,-0.0219 -0.0433,-0.0396 -0.0625,-0.041 z m 6.36132,5.24219 c -0.0422,0.002 -0.0859,0.007 -0.13086,0.008 -1.3475,0.0457 -4.44903,1.94141 -4.20898,2.14453 0.36209,0.30631 5.01306,-2.02315 4.45898,-2.14453 -0.0365,-0.007 -0.077,-0.009 -0.11914,-0.008 z m 0.68555,1.51953 c -0.0355,-0.001 -0.0737,-1.9e-4 -0.10937,0.008 -1.06912,0.24113 -3.1346,2.67188 -2.89454,2.875 0.36216,0.30632 3.59118,-2.83749 3.10352,-2.875 -0.0307,-0.002 -0.0641,-0.006 -0.0996,-0.008 z"
         style="fill:#000000;fill-opacity:1;stroke-width:5;stroke-linecap:round;stroke-linejoin:round;opacity:0.2"
         id="path2968" />
      <path
         id="path2905"
         style="opacity:1;fill:#ffffff;fill-opacity:1;stroke-width:5;stroke-linecap:round;stroke-linejoin:round"
         d="m 320,152 c -11.04569,0 -20,8.95431 -20,20 0,11.04569 8.95431,20 20,20 11.04569,0 20,-8.95431 20,-20 0,-11.04569 -8.95431,-20 -20,-20 z m -3.13281,7.11914 c 0.0829,0.003 0.16788,0.0105 0.25781,0.0254 0.30034,0.16809 1.7803,-0.0311 2.16602,4.14649 0.1022,0.70319 0.25143,2.30946 0.29296,3.02148 0.0801,0.61601 6.77164,0.36571 12.70704,4.25 0.69221,0.41649 3.51126,3.14893 0.64648,5.51953 -1.17551,1.18397 -10.69234,6.10805 -11.25,6.5 -0.15672,4.48635 5.1206,5.38573 -1.6875,5.41797 -8.83654,0 -16,-7.16346 -16,-16 0.57103,-0.42219 2.34629,-0.0683 3.25,-0.23047 1.29874,-0.30549 1.81987,-2.53785 1.91602,-4.26953 -0.005,-0.77128 -0.55584,-3.16022 -0.5625,-3.6875 -0.0382,-1.83551 1.71416,-2.64505 2.20898,-2.54297 0.51661,0.13194 1.58456,0.35912 3.4375,4.89649 0.31077,0.5776 0.2826,0.33129 1.16602,0.41601 -0.92116,-3.04629 -1.13821,-7.32138 1.20898,-7.45703 0.0782,-0.005 0.15923,-0.008 0.24219,-0.006 z m 13.92578,4.08398 c 0.006,-0.004 0.0118,-0.004 0.0195,0.004 0.23199,0.22435 0.045,4.46682 -0.70898,5.27149 -0.0429,0.0454 -0.26752,-4.14358 0.66796,-5.25 0.01,-0.0114 0.0154,-0.0212 0.0215,-0.0254 z m 3.06055,0.81641 c 0.0692,0.11983 0.14283,0.23371 0.20898,0.35547 -0.45223,1.45286 -2.47678,4.80801 -2.52148,4.54102 -0.13243,-1.21388 1.60722,-4.06704 2.3125,-4.89649 z M 321,169.41602 c -0.63759,0 -1.16602,0.54152 -1.16602,1.20898 0,0.66735 0.54979,1.25 1.1875,1.25 0.63769,0 1.125,-0.58265 1.125,-1.25 0,-0.66746 -0.50878,-1.20898 -1.14648,-1.20898 z m -2.58398,1.14648 c -0.28299,-0.0148 -0.27531,2.19539 0.75,2.76953 1.06011,0.49916 2.61868,-0.32406 2.35546,-0.35351 -2.28863,-0.25394 -2.69322,-1.32506 -3.04296,-2.375 -0.021,-0.0219 -0.0433,-0.0396 -0.0625,-0.041 z m 6.36132,5.24219 c -0.0422,0.002 -0.0859,0.007 -0.13086,0.008 -1.3475,0.0457 -4.44903,1.94141 -4.20898,2.14453 0.36209,0.30631 5.01306,-2.02315 4.45898,-2.14453 -0.0365,-0.007 -0.077,-0.009 -0.11914,-0.008 z m 0.68555,1.51953 c -0.0355,-0.001 -0.0737,-1.9e-4 -0.10937,0.008 -1.06912,0.24113 -3.1346,2.67188 -2.89454,2.875 0.36216,0.30632 3.59118,-2.83749 3.10352,-2.875 -0.0307,-0.002 -0.0641,-0.006 -0.0996,-0.008 z"
         sodipodi:nodetypes="ssssssccccccccccccccssscccsccscsscssccsccscscsscccsccsc" />
    </g>
    <g
       id="g3258"
       transform="matrix(2,0,0,2,-288,-412)">
      <path
         d="m 312,229.5 c -8.28427,0 -15,6.71573 -15,15 0,8.28427 6.71573,15 15,15 8.28427,0 15,-6.71573 15,-15 0,-8.28427 -6.71573,-15 -15,-15 z m -2.19336,5.98438 c 0.0581,0.002 0.11869,0.007 0.18164,0.0176 0.21024,0.11774 1.24563,-0.0221 1.51563,2.90235 0.0715,0.49225 0.176,1.61681 0.20507,2.11523 0.0561,0.43121 4.7397,0.25556 8.89454,2.97461 0.48456,0.29154 2.45849,2.2058 0.45312,3.86524 -0.82289,0.82878 -7.48463,4.27444 -7.875,4.54882 -0.10976,3.14048 3.58411,3.77041 -1.18164,3.79297 -6.18569,0 -11.19922,-5.0155 -11.19922,-11.20117 0.39972,-0.29554 1.64083,-0.0466 2.27344,-0.16016 0.90913,-0.21384 1.27449,-1.77804 1.3418,-2.99023 -0.003,-0.53991 -0.38791,-2.21098 -0.39258,-2.58008 -0.0267,-1.28488 1.19854,-1.85076 1.54492,-1.7793 0.36163,0.0924 1.10918,0.24959 2.40625,3.42579 0.21755,0.40433 0.19801,0.23367 0.81641,0.29296 -0.64481,-2.13242 -0.79736,-5.12575 0.8457,-5.2207 0.0547,-0.003 0.11184,-0.006 0.16992,-0.004 z m 9.74805,2.85937 c 0.004,-0.003 0.008,-0.003 0.0137,0.002 0.16241,0.15704 0.0318,3.12618 -0.49609,3.68946 -0.0301,0.0318 -0.18807,-2.89932 0.46679,-3.67383 0.007,-0.008 0.0114,-0.0146 0.0156,-0.0176 z m 2.14453,0.57031 c 0.0484,0.0839 0.0982,0.16282 0.14453,0.24805 -0.31656,1.01703 -1.73239,3.36659 -1.76367,3.17969 -0.0927,-0.84972 1.12544,-2.84711 1.61914,-3.42774 z m -9,3.77735 c -0.44633,0 -0.81641,0.37847 -0.81641,0.8457 0,0.46715 0.38561,0.875 0.83203,0.875 0.44638,0 0.78711,-0.40785 0.78711,-0.875 0,-0.46723 -0.35634,-0.8457 -0.80273,-0.8457 z m -1.80664,0.80273 c -0.1981,-0.01 -0.19429,1.53756 0.52344,1.93945 0.74209,0.34943 1.83269,-0.22741 1.64843,-0.24804 -1.60208,-0.17775 -1.88408,-0.92712 -2.1289,-1.66211 -0.0147,-0.0154 -0.0295,-0.0285 -0.043,-0.0293 z m 4.35937,3.67383 c -0.94327,0.0321 -3.11335,1.36173 -2.94531,1.50391 0.25347,0.21442 3.50895,-1.41893 3.12109,-1.50391 -0.0511,-0.01 -0.11292,-0.001 -0.17578,0 z m 0.4961,1.06641 c -0.7484,0.1688 -2.1954,1.86952 -2.02735,2.01171 0.25352,0.21443 2.5152,-1.98545 2.17383,-2.01171 -0.043,-0.003 -0.0965,-0.0112 -0.14648,0 z"
         style="opacity:0.2;fill:#000000;fill-opacity:1;stroke-width:5;stroke-linecap:round;stroke-linejoin:round"
         id="path3208" />
      <path
         d="m 312,229 c -8.28427,0 -15,6.71573 -15,15 0,8.28427 6.71573,15 15,15 8.28427,0 15,-6.71573 15,-15 0,-8.28427 -6.71573,-15 -15,-15 z m -2.19336,5.98438 c 0.0581,0.002 0.11869,0.007 0.18164,0.0176 0.21024,0.11774 1.24563,-0.0221 1.51563,2.90235 0.0715,0.49225 0.176,1.61681 0.20507,2.11523 0.0561,0.43121 4.7397,0.25556 8.89454,2.97461 0.48456,0.29154 2.45849,2.2058 0.45312,3.86524 -0.82289,0.82878 -7.48463,4.27444 -7.875,4.54882 -0.10976,3.14048 3.58411,3.77041 -1.18164,3.79297 -6.18569,0 -11.19922,-5.0155 -11.19922,-11.20117 0.39972,-0.29554 1.64083,-0.0466 2.27344,-0.16016 0.90913,-0.21384 1.27449,-1.77804 1.3418,-2.99023 -0.003,-0.53991 -0.38791,-2.21098 -0.39258,-2.58008 -0.0267,-1.28488 1.19854,-1.85076 1.54492,-1.7793 0.36163,0.0924 1.10918,0.24959 2.40625,3.42579 0.21755,0.40433 0.19801,0.23367 0.81641,0.29296 -0.64481,-2.13242 -0.79736,-5.12575 0.8457,-5.2207 0.0547,-0.003 0.11184,-0.006 0.16992,-0.004 z m 9.74805,2.85937 c 0.004,-0.003 0.008,-0.003 0.0137,0.002 0.16241,0.15704 0.0318,3.12618 -0.49609,3.68946 -0.0301,0.0318 -0.18807,-2.89932 0.46679,-3.67383 0.007,-0.008 0.0114,-0.0146 0.0156,-0.0176 z m 2.14453,0.57031 c 0.0484,0.0839 0.0982,0.16282 0.14453,0.24805 -0.31656,1.01703 -1.73239,3.36659 -1.76367,3.17969 -0.0927,-0.84972 1.12544,-2.84711 1.61914,-3.42774 z m -9,3.77735 c -0.44633,0 -0.81641,0.37847 -0.81641,0.8457 0,0.46715 0.38561,0.875 0.83203,0.875 0.44638,0 0.78711,-0.40785 0.78711,-0.875 0,-0.46723 -0.35634,-0.8457 -0.80273,-0.8457 z m -1.80664,0.80273 c -0.1981,-0.01 -0.19429,1.53756 0.52344,1.93945 0.74209,0.34943 1.83269,-0.22741 1.64843,-0.24804 -1.60208,-0.17775 -1.88408,-0.92712 -2.1289,-1.66211 -0.0147,-0.0154 -0.0295,-0.0285 -0.043,-0.0293 z m 4.35937,3.67383 c -0.94327,0.0321 -3.11335,1.36173 -2.94531,1.50391 0.25347,0.21442 3.50895,-1.41893 3.12109,-1.50391 -0.0511,-0.01 -0.11292,-0.001 -0.17578,0 z m 0.4961,1.06641 c -0.7484,0.1688 -2.1954,1.86952 -2.02735,2.01171 0.25352,0.21443 2.5152,-1.98545 2.17383,-2.01171 -0.043,-0.003 -0.0965,-0.0112 -0.14648,0 z"
         style="fill:#ffffff;fill-opacity:1;stroke-width:5;stroke-linecap:round;stroke-linejoin:round"
         id="path3236" />
    </g>
    <g
       id="g3046"
       transform="matrix(4,0,0,4,-1136,-530)">
      <path
         d="m 320,152.5 c -11.04568,0 -20,8.95431 -20,20 0,11.04569 8.95432,20 20,20 11.04569,0 20,-8.95431 20,-20 0,-11.04569 -8.95431,-20 -20,-20 z m -3.1328,7.11914 c 0.0829,0.003 0.16787,0.0105 0.2578,0.0254 0.30034,0.16809 1.7803,-0.0311 2.16602,4.14649 0.10221,0.70319 0.25143,2.30946 0.29296,3.02148 0.0801,0.61601 6.77165,0.36571 12.70704,4.25 0.69222,0.41649 3.51126,3.14893 0.64648,5.51953 -1.1755,1.18397 -10.69233,6.10805 -11.25,6.5 -0.15671,4.48635 5.12061,5.38573 -1.6875,5.41797 -8.83654,0 -16,-7.16346 -16,-16 0.57104,-0.42219 2.3463,-0.0683 3.25,-0.23047 1.29875,-0.30549 1.81987,-2.53785 1.91602,-4.26953 -0.005,-0.77128 -0.55584,-3.16022 -0.5625,-3.6875 -0.0382,-1.83551 1.71416,-2.64505 2.20898,-2.54297 0.51661,0.13194 1.58456,0.35912 3.4375,4.89649 0.31078,0.5776 0.2826,0.33129 1.16602,0.41601 -0.92116,-3.04629 -1.1382,-7.32138 1.20898,-7.45703 0.0782,-0.005 0.15923,-0.008 0.2422,-0.006 z m 13.92577,4.08398 c 0.006,-0.004 0.0118,-0.004 0.0195,0.004 0.23199,0.22435 0.045,4.46682 -0.70898,5.27149 -0.0429,0.0454 -0.26752,-4.14358 0.66796,-5.25 0.01,-0.0114 0.0154,-0.0212 0.0215,-0.0254 z m 3.06055,0.81641 c 0.0692,0.11983 0.14283,0.23371 0.20898,0.35547 -0.45223,1.45286 -2.47678,4.80801 -2.52148,4.54102 -0.13243,-1.21388 1.60722,-4.06704 2.3125,-4.89649 z M 321,169.91602 c -0.63758,0 -1.16602,0.54152 -1.16602,1.20898 0,0.66735 0.54979,1.25 1.1875,1.25 0.63769,0 1.125,-0.58265 1.125,-1.25 0,-0.66746 -0.50878,-1.20898 -1.14648,-1.20898 z m -2.58398,1.14648 c -0.28298,-0.0148 -0.27531,2.19539 0.75,2.76953 1.06011,0.49916 2.61869,-0.32406 2.35546,-0.35351 -2.28863,-0.25394 -2.69322,-1.32506 -3.04296,-2.375 -0.021,-0.0219 -0.0433,-0.0396 -0.0625,-0.041 z m 6.36132,5.24219 c -0.0422,0.002 -0.0859,0.007 -0.13086,0.008 -1.3475,0.0457 -4.44903,1.94141 -4.20898,2.14453 0.3621,0.30631 5.01306,-2.02315 4.45898,-2.14453 -0.0365,-0.007 -0.077,-0.009 -0.11914,-0.008 z m 0.68555,1.51953 c -0.0355,-0.001 -0.0737,-1.9e-4 -0.10937,0.008 -1.06912,0.24113 -3.1346,2.67188 -2.89454,2.875 0.36216,0.30632 3.59118,-2.83749 3.10352,-2.875 -0.0307,-0.002 -0.0641,-0.006 -0.0996,-0.008 z"
         style="opacity:0.2;fill:#000000;fill-opacity:1;stroke-width:5;stroke-linecap:round;stroke-linejoin:round"
         id="path3024" />
      <path
         d="m 320,152 c -11.04569,0 -20,8.95431 -20,20 0,11.04569 8.95431,20 20,20 11.04569,0 20,-8.95431 20,-20 0,-11.04569 -8.95431,-20 -20,-20 z m -3.13281,7.11914 c 0.0829,0.003 0.16788,0.0105 0.25781,0.0254 0.30034,0.16809 1.7803,-0.0311 2.16602,4.14649 0.1022,0.70319 0.25143,2.30946 0.29296,3.02148 0.0801,0.61601 6.77164,0.36571 12.70704,4.25 0.69221,0.41649 3.51126,3.14893 0.64648,5.51953 -1.17551,1.18397 -10.69234,6.10805 -11.25,6.5 -0.15672,4.48635 5.1206,5.38573 -1.6875,5.41797 -8.83654,0 -16,-7.16346 -16,-16 0.57103,-0.42219 2.34629,-0.0683 3.25,-0.23047 1.29874,-0.30549 1.81987,-2.53785 1.91602,-4.26953 -0.005,-0.77128 -0.55584,-3.16022 -0.5625,-3.6875 -0.0382,-1.83551 1.71416,-2.64505 2.20898,-2.54297 0.51661,0.13194 1.58456,0.35912 3.4375,4.89649 0.31077,0.5776 0.2826,0.33129 1.16602,0.41601 -0.92116,-3.04629 -1.13821,-7.32138 1.20898,-7.45703 0.0782,-0.005 0.15923,-0.008 0.24219,-0.006 z m 13.92578,4.08398 c 0.006,-0.004 0.0118,-0.004 0.0195,0.004 0.23199,0.22435 0.045,4.46682 -0.70898,5.27149 -0.0429,0.0454 -0.26752,-4.14358 0.66796,-5.25 0.01,-0.0114 0.0154,-0.0212 0.0215,-0.0254 z m 3.06055,0.81641 c 0.0692,0.11983 0.14283,0.23371 0.20898,0.35547 -0.45223,1.45286 -2.47678,4.80801 -2.52148,4.54102 -0.13243,-1.21388 1.60722,-4.06704 2.3125,-4.89649 z M 321,169.41602 c -0.63759,0 -1.16602,0.54152 -1.16602,1.20898 0,0.66735 0.54979,1.25 1.1875,1.25 0.63769,0 1.125,-0.58265 1.125,-1.25 0,-0.66746 -0.50878,-1.20898 -1.14648,-1.20898 z m -2.58398,1.14648 c -0.28299,-0.0148 -0.27531,2.19539 0.75,2.76953 1.06011,0.49916 2.61868,-0.32406 2.35546,-0.35351 -2.28863,-0.25394 -2.69322,-1.32506 -3.04296,-2.375 -0.021,-0.0219 -0.0433,-0.0396 -0.0625,-0.041 z m 6.36132,5.24219 c -0.0422,0.002 -0.0859,0.007 -0.13086,0.008 -1.3475,0.0457 -4.44903,1.94141 -4.20898,2.14453 0.36209,0.30631 5.01306,-2.02315 4.45898,-2.14453 -0.0365,-0.007 -0.077,-0.009 -0.11914,-0.008 z m 0.68555,1.51953 c -0.0355,-0.001 -0.0737,-1.9e-4 -0.10937,0.008 -1.06912,0.24113 -3.1346,2.67188 -2.89454,2.875 0.36216,0.30632 3.59118,-2.83749 3.10352,-2.875 -0.0307,-0.002 -0.0641,-0.006 -0.0996,-0.008 z"
         style="fill:#ffffff;fill-opacity:1;stroke-width:5;stroke-linecap:round;stroke-linejoin:round"
         id="path2996"
         sodipodi:nodetypes="sssssccccccccccccccccccscccssccccsssssscccssccsccscccss" />
    </g>
  </g>
  <g
     id="Highlights">
    <path
       id="rect653"
       style="opacity:0.2;fill:#ffffff"
       d="M 80,44 C 53.408027,44 32,65.408027 32,92 v 2 C 32,67.408027 53.408027,46 80,46 h 128 c 26.59197,0 48,21.408027 48,48 V 92 C 256,65.408027 234.59197,44 208,44 Z"
       sodipodi:nodetypes="sscsscsss" />
    <path
       id="rect773"
       style="opacity:0.2;fill:#ffffff"
       d="m 312,34 c -9.97199,0 -18,8.02801 -18,18 v 1 c 0,-9.97199 8.02801,-18 18,-18 h 48 c 9.97199,0 18,8.02801 18,18 v -1 c 0,-9.97199 -8.02801,-18 -18,-18 z" />
    <path
       id="rect1135"
       style="opacity:0.2;fill:#ffffff;fill-opacity:1"
       d="m 304,144 c -6.64799,0 -12,5.35201 -12,12 v 1 c 0,-6.64799 5.35201,-12 12,-12 h 32 c 6.64799,0 12,5.35201 12,12 v -1 c 0,-6.64799 -5.35201,-12 -12,-12 z" />
    <path
       id="rect1265"
       style="opacity:0.2;fill:#ffffff;fill-opacity:1"
       d="m 300,223 c -4.986,0 -9,4.014 -9,9 v 1 c 0,-4.986 4.014,-9 9,-9 h 24 c 4.986,0 9,4.014 9,9 v -1 c 0,-4.986 -4.014,-9 -9,-9 z" />
    <path
       id="rect1368"
       style="opacity:0.2;fill:#ffffff;fill-opacity:1"
       d="m 424,54 c -3.324,0 -6,2.676003 -6,6 v 1 c 0,-3.323997 2.676,-6 6,-6 h 16 c 3.324,0 6,2.676003 6,6 v -1 c 0,-3.323997 -2.676,-6 -6,-6 z" />
    <path
       id="rect1402"
       style="opacity:0.2;fill:#ffffff;fill-opacity:1"
       d="m 420,140 c -2.216,0 -4,1.784 -4,4 v 1 c 0,-2.216 1.784,-4 4,-4 h 8 c 2.216,0 4,1.784 4,4 v -1 c 0,-2.216 -1.784,-4 -4,-4 z" />
    <path
       id="rect1436"
       style="opacity:0.2;fill:#ffffff;fill-opacity:1"
       d="m 422,102 c -2.216,0 -4,1.784 -4,4 v 1 c 0,-2.216 1.784,-4 4,-4 h 12 c 2.216,0 4,1.784 4,4 v -1 c 0,-2.216 -1.784,-4 -4,-4 z" />
  </g>
</svg>
