<?xml version="1.0" encoding="UTF-8" standalone="no"?>
<!-- Created with Inkscape (http://www.inkscape.org/) -->

<svg
   width="480"
   height="300"
   viewBox="0 0 480 300"
   version="1.1"
   id="svg5"
   inkscape:version="1.2.2 (1:1.2.2+202305151914+b0a8486541)"
   sodipodi:docname="desktop-environment-gnome.svg"
   xmlns:inkscape="http://www.inkscape.org/namespaces/inkscape"
   xmlns:sodipodi="http://sodipodi.sourceforge.net/DTD/sodipodi-0.dtd"
   xmlns="http://www.w3.org/2000/svg"
   xmlns:svg="http://www.w3.org/2000/svg">
  <sodipodi:namedview
     id="namedview7"
     pagecolor="#888888"
     bordercolor="#000000"
     borderopacity="0.25"
     inkscape:showpageshadow="true"
     inkscape:pageopacity="0"
     inkscape:pagecheckerboard="0"
     inkscape:deskcolor="#888888"
     inkscape:document-units="px"
     showgrid="false"
     showborder="false"
     inkscape:zoom="2.6866667"
     inkscape:cx="240.07444"
     inkscape:cy="150"
     inkscape:window-width="1920"
     inkscape:window-height="1008"
     inkscape:window-x="0"
     inkscape:window-y="0"
     inkscape:window-maximized="1"
     inkscape:current-layer="svg5" />
  <defs
     id="defs2" />
  <g
     id="Baseplate"
     style="display:none">
    <text
       y="19.774782"
       xml:space="preserve"
       x="15.006946"
       style="font-style:normal;font-variant:normal;font-weight:normal;font-stretch:normal;line-height:0%;font-family:'DejaVu Sans';-inkscape-font-specification:'DejaVu Sans';display:inline;fill:#000000;fill-opacity:1;stroke:none;enable-background:new"
       inkscape:label="context"
       id="context"><tspan
         style="font-style:normal;font-variant:normal;font-weight:normal;font-stretch:normal;font-size:18px;line-height:1.25;font-family:'DejaVu Sans';-inkscape-font-specification:'DejaVu Sans'"
         y="19.774782"
         x="15.006946"
         sodipodi:role="line"
         id="tspan3933">apps</tspan></text>
    <text
       y="19.774782"
       xml:space="preserve"
       x="122.48839"
       style="font-style:normal;font-variant:normal;font-weight:bold;font-stretch:normal;line-height:0%;font-family:'DejaVu Sans';-inkscape-font-specification:'DejaVu Sans Bold';text-align:start;writing-mode:lr-tb;text-anchor:start;display:inline;fill:#000000;fill-opacity:1;stroke:none;enable-background:new"
       inkscape:label="icon-name"
       id="icon-name"><tspan
         style="font-style:normal;font-variant:normal;font-weight:bold;font-stretch:normal;font-size:18px;line-height:1.25;font-family:'DejaVu Sans';-inkscape-font-specification:'DejaVu Sans Bold'"
         y="19.774782"
         x="122.48839"
         sodipodi:role="line"
         id="tspan3937">desktop-environment-gnome</tspan></text>
    <rect
       style="fill:#ffffff"
       id="256x256"
       width="256"
       height="256"
       x="16"
       y="28" />
    <rect
       style="fill:#ffffff"
       id="96x96"
       width="96"
       height="96"
       x="288"
       y="28" />
    <rect
       style="fill:#ffffff"
       id="64x64"
       width="64"
       height="64"
       x="288"
       y="140" />
    <rect
       style="fill:#ffffff"
       id="48x48"
       width="48"
       height="48"
       x="288"
       y="220" />
    <rect
       style="fill:#ffffff"
       id="32x32"
       width="32"
       height="32"
       x="416"
       y="52" />
    <rect
       style="fill:#ffffff"
       id="24x24"
       width="24"
       height="24"
       x="416"
       y="100" />
    <rect
       style="fill:#ffffff"
       id="22x22"
       width="22"
       height="22"
       x="417"
       y="101" />
    <rect
       style="fill:#ffffff"
       id="16x16"
       width="16"
       height="16"
       x="416"
       y="140" />
  </g>
  <g
     id="Shadow">
    <rect
       style="opacity:0.2;fill:#000000"
       id="rect651"
       width="224"
       height="224"
       x="32"
       y="46"
       ry="48" />
    <rect
       style="opacity:0.2;fill:#000000"
       id="rect769"
       width="84"
       height="85"
       x="294"
       y="34"
       ry="18" />
    <rect
       style="opacity:0.2;fill:#000000;fill-opacity:1"
       id="rect1131"
       width="56"
       height="56"
       x="292"
       y="145"
       ry="12" />
    <rect
       style="opacity:0.2;fill:#000000;fill-opacity:1"
       id="rect1261"
       width="42"
       height="42"
       x="291"
       y="224"
       ry="9" />
    <rect
       style="opacity:0.2;fill:#000000;fill-opacity:1"
       id="rect1364"
       width="28"
       height="29"
       x="418"
       y="54"
       ry="6" />
    <rect
       style="opacity:0.2;fill:#000000;fill-opacity:1"
       id="rect1398"
       width="16"
       height="16"
       x="416"
       y="141"
       ry="4" />
    <rect
       style="opacity:0.2;fill:#000000;fill-opacity:1"
       id="rect1432"
       width="20"
       height="20"
       x="418"
       y="103"
       ry="4" />
  </g>
  <g
     id="Background">
    <rect
       style="fill:#7986cb;fill-opacity:1"
       id="rect597"
       width="224"
       height="224"
       x="32"
       y="44"
       ry="48" />
    <rect
       style="opacity:1;fill:#7986cb;fill-opacity:1"
       id="rect771"
       width="84"
       height="84"
       x="294"
       y="34"
       ry="18" />
    <rect
       style="opacity:1;fill:#7986cb;fill-opacity:1"
       id="rect1133"
       width="56"
       height="56"
       x="292"
       y="144"
       ry="12" />
    <rect
       style="opacity:1;fill:#7986cb;fill-opacity:1"
       id="rect1263"
       width="42"
       height="42"
       x="291"
       y="223"
       ry="9" />
    <rect
       style="opacity:1;fill:#7986cb;fill-opacity:1"
       id="rect1366"
       width="28"
       height="28"
       x="418"
       y="54"
       ry="6" />
    <rect
       style="opacity:1;fill:#7986cb;fill-opacity:1"
       id="rect1400"
       width="16"
       height="16"
       x="416"
       y="140"
       ry="4" />
    <rect
       style="opacity:1;fill:#7986cb;fill-opacity:1"
       id="rect1434"
       width="20"
       height="20"
       x="418"
       y="102"
       ry="4" />
  </g>
  <g
     id="g1647">
    <g
       id="g2295">
      <path
         d="m 427.0837,142.5 c -2.22142,0 -2.63737,3.5 -1.38769,3.5 1.24949,0 3.60921,-3.5 1.38769,-3.5 z m -3.77637,0.50781 c -1.27051,0.17011 -0.82298,2.44861 -0.14648,2.49121 0.67623,0.0426 1.41745,-2.66131 0.14648,-2.49121 z m -2.04785,0.99512 c -0.0649,0.006 -0.13466,0.0199 -0.20898,0.0449 -1.18945,0.40128 -0.18099,2.05859 0.48535,1.94727 0.62519,-0.10421 0.69707,-2.07666 -0.27637,-1.99219 z M 419.69503,145.5 c -0.10617,-0.002 -0.22053,0.0214 -0.34277,0.0791 -0.97754,0.46119 0.32916,1.57611 0.90429,1.40332 0.50324,-0.15126 0.18169,-1.46534 -0.56152,-1.48242 z m 4.64453,0.50097 c -1.68566,-0.031 -3.90887,0.88747 -4.28808,2.73243 -0.41071,1.99657 1.69126,4.7666 3.88378,4.7666 1.07861,0 2.32193,-1.05806 2.55469,-2.39844 0.0781,-0.44894 -0.31222,-0.6063 -0.76758,-0.60156 -0.58136,0.006 -1.26839,0.28577 -1.22265,0.66504 0.0666,0.55253 -0.27601,0.83963 -0.66016,0.84863 -0.52448,-0.066 -0.78158,-0.38041 -0.85058,-0.85547 -0.0939,-1.24745 3.56039,-2.13602 3.26074,-4.07031 -0.1096,-0.70746 -0.89876,-1.06832 -1.91016,-1.08692 z"
         style="fill:#000000;stroke-width:0.5;opacity:0.2"
         id="path2273" />
      <path
         d="m 427.0837,142 c -2.22142,0 -2.63737,3.5 -1.38769,3.5 1.24949,0 3.60921,-3.5 1.38769,-3.5 z m -3.77637,0.50781 c -1.27051,0.17011 -0.82298,2.44861 -0.14648,2.49121 0.67623,0.0426 1.41745,-2.66131 0.14648,-2.49121 z m -2.04785,0.99512 c -0.0649,0.006 -0.13466,0.0199 -0.20898,0.0449 -1.18945,0.40128 -0.18099,2.05859 0.48535,1.94727 0.62519,-0.10421 0.69707,-2.07666 -0.27637,-1.99219 z M 419.69503,145 c -0.10617,-0.002 -0.22053,0.0214 -0.34277,0.0791 -0.97754,0.46119 0.32916,1.57611 0.90429,1.40332 0.50324,-0.15126 0.18169,-1.46534 -0.56152,-1.48242 z m 4.64453,0.50097 c -1.68566,-0.031 -3.90887,0.88747 -4.28808,2.73243 -0.41071,1.99657 1.69126,4.7666 3.88378,4.7666 1.07861,0 2.32193,-1.05806 2.55469,-2.39844 0.0781,-0.44894 -0.31222,-0.6063 -0.76758,-0.60156 -0.58136,0.006 -1.26839,0.28577 -1.22265,0.66504 0.0666,0.55253 -0.27601,0.83963 -0.66016,0.84863 -0.52448,-0.066 -0.78158,-0.38041 -0.85058,-0.85547 -0.0939,-1.24745 3.56039,-2.13602 3.26074,-4.07031 -0.1096,-0.70746 -0.89876,-1.06832 -1.91016,-1.08692 z"
         style="fill:#ffffff;stroke-width:0.5"
         id="path2245"
         sodipodi:nodetypes="sssssssccssccscscscssccss" />
    </g>
    <g
       id="g1663">
      <path
         d="m 432.77856,104.5 c -2.96175,0 -3.51677,4.49998 -1.85062,4.49998 1.66591,0 4.81249,-4.49998 1.85062,-4.49998 z m -4.70126,0.51074 c -1.69404,0.23813 -1.09831,3.42863 -0.19629,3.48827 0.90165,0.0596 1.89095,-3.7264 0.19629,-3.48827 z m -3.06451,0.99316 c -0.0865,0.008 -0.17922,0.0307 -0.27832,0.0684 -1.58589,0.60197 -0.24096,3.08692 0.64747,2.91991 0.83357,-0.15633 0.92874,-3.11498 -0.36915,-2.98827 z m -2.085,1.99609 c -0.14159,-0.004 -0.29498,0.0358 -0.45801,0.13183 -1.30368,0.76867 0.43906,2.62587 1.20607,2.33788 0.67114,-0.2521 0.24312,-2.44125 -0.74806,-2.46971 z m 6.08117,1.50097 c -2.33395,-0.0413 -5.41256,1.18359 -5.93761,3.64353 -0.56865,2.66209 2.34131,6.35544 5.37705,6.35544 1.49343,0 3.21588,-1.41106 3.53815,-3.19823 0.24614,-1.36281 -3.09638,-0.8168 -2.98345,0.085 0.0922,0.73671 -0.29332,1.11984 -0.82521,1.13184 -0.72619,-0.088 -1.08222,-0.50722 -1.17776,-1.14062 -0.13005,-1.66328 5.10834,-2.84866 4.69345,-5.42771 -0.15175,-0.94329 -1.28425,-1.42443 -2.68462,-1.44921 z"
         style="opacity:0.2;fill:#000000"
         id="path329"
         sodipodi:nodetypes="sssssssccsssccsscscsccsss" />
      <path
         d="m 432.77856,104 c -2.96175,0 -3.51677,4.49998 -1.85062,4.49998 1.66591,0 4.81249,-4.49998 1.85062,-4.49998 z m -4.70126,0.51074 c -1.69404,0.23813 -1.09831,3.42863 -0.19629,3.48827 0.90165,0.0596 1.89095,-3.7264 0.19629,-3.48827 z m -3.06451,0.99316 c -0.0865,0.008 -0.17922,0.0307 -0.27832,0.0684 -1.58589,0.60197 -0.24096,3.08692 0.64747,2.91991 0.83357,-0.15633 0.92874,-3.11498 -0.36915,-2.98827 z m -2.085,1.99609 c -0.14159,-0.004 -0.29498,0.0358 -0.45801,0.13183 -1.30368,0.76867 0.43906,2.62587 1.20607,2.33788 0.67114,-0.2521 0.24312,-2.44125 -0.74806,-2.46971 z m 6.08117,1.50097 c -2.33395,-0.0413 -5.41256,1.18359 -5.93761,3.64353 -0.56865,2.66209 2.34131,6.35544 5.37705,6.35544 1.49343,0 3.21588,-1.41106 3.53815,-3.19823 0.24614,-1.36281 -3.09638,-0.8168 -2.98345,0.085 0.0922,0.73671 -0.29332,1.11984 -0.82521,1.13184 -0.72619,-0.088 -1.08222,-0.50722 -1.17776,-1.14062 -0.13005,-1.66328 5.10834,-2.84866 4.69345,-5.42771 -0.15175,-0.94329 -1.28425,-1.42443 -2.68462,-1.44921 z"
         style="fill:#ffffff"
         id="path2441"
         sodipodi:nodetypes="sssssssccsssccsscscsccsss" />
    </g>
    <g
       id="g1659">
      <path
         d="m 438.23501,59.000005 c -3.94925,0.006 -3.95467,5.75 -1.733,5.75 2.22136,0 5.6044,-5.755898 1.733,-5.75 z m -5.883,0.923295 c -2.25872,0.309287 -1.5527,3.999256 -0.35,4.076705 1.20219,0.07746 2.60953,-4.38599 0.35,-4.076705 z m -4.33308,1.809304 c -0.11537,0.01024 -0.23938,0.03609 -0.37153,0.08167 -2.11461,0.729594 -0.32176,3.7429 0.86287,3.540483 1.11146,-0.189469 1.23925,-3.775733 -0.49134,-3.62216 z m -2.73322,2.721946 c -0.18877,-0.0045 -0.39207,0.03902 -0.6094,0.143821 -1.73786,0.838535 0.30323,2.715796 1.3257,2.401634 0.89466,-0.275009 0.60496,-2.514402 -0.7163,-2.545455 z m 8.209,0.910867 c -2.99677,-0.05634 -6.94922,1.613569 -7.62338,4.96804 -0.73014,3.630117 3.00675,8.666548 6.90462,8.666548 1.91756,0 4.12793,-1.923747 4.54174,-4.360795 0.1388,-0.816251 -0.55507,-1.102363 -1.36461,-1.09375 -1.03356,0.011 -2.25495,0.519588 -2.17364,1.209161 0.11839,1.004603 -0.49069,1.526615 -1.17363,1.542969 -0.93242,-0.120004 -1.3895,-0.69166 -1.51217,-1.555398 -0.16699,-2.268099 6.32968,-3.883672 5.79696,-7.400568 -0.19484,-1.286302 -1.59782,-1.942408 -3.39589,-1.976207 z"
         style="opacity:0.2;fill:#000000;stroke-width:0.89894"
         id="path1619"
         sodipodi:nodetypes="ssscscsccsssccsscscssccss" />
      <path
         d="m 438.23501,58 c -3.94925,0.006 -3.95467,5.75 -1.733,5.75 2.22136,0 5.6044,-5.755898 1.733,-5.75 z m -5.883,0.923295 c -2.25872,0.309287 -1.5527,3.999256 -0.35,4.076705 1.20219,0.07746 2.60953,-4.38599 0.35,-4.076705 z m -4.33308,1.809304 c -0.11537,0.01024 -0.23938,0.03609 -0.37153,0.08167 -2.11461,0.729594 -0.32176,3.7429 0.86287,3.540483 1.11146,-0.189469 1.23925,-3.775733 -0.49134,-3.62216 z m -2.73322,2.721946 c -0.18877,-0.0045 -0.39207,0.03902 -0.6094,0.143821 -1.73786,0.838535 0.30323,2.715796 1.3257,2.401634 0.89466,-0.275009 0.60496,-2.514402 -0.7163,-2.545455 z m 8.209,0.910867 c -2.99677,-0.05634 -6.94922,1.613569 -7.62338,4.96804 C 425.14119,72.963569 428.87808,78 432.77595,78 c 1.91756,0 4.12793,-1.923747 4.54174,-4.360795 0.1388,-0.816251 -0.55507,-1.102363 -1.36461,-1.09375 -1.03356,0.011 -2.25495,0.519588 -2.17364,1.209161 0.11839,1.004603 -0.49069,1.526615 -1.17363,1.542969 -0.93242,-0.120004 -1.3895,-0.69166 -1.51217,-1.555398 -0.16699,-2.268099 6.32968,-3.883672 5.79696,-7.400568 -0.19484,-1.286302 -1.59782,-1.942408 -3.39589,-1.976207 z"
         style="fill:#ffffff;stroke-width:0.89894"
         id="path1542"
         sodipodi:nodetypes="ssscscsccsssccsscscssccss" />
    </g>
    <g
       id="g1655">
      <path
         d="m 321.55721,230 c -5.92353,0 -7.03358,9 -3.70126,9 3.33184,0 9.62503,-9 3.70126,-9 z m -9.40257,1.02148 c -3.38809,0.47627 -2.19663,6.8573 -0.39258,6.97658 1.80331,0.1192 3.78192,-7.45284 0.39258,-6.97658 z m -6.12904,1.98633 c -0.17301,0.016 -0.35845,0.0614 -0.55665,0.1368 -3.17179,1.20395 -0.48192,6.17387 1.29495,5.83985 1.66715,-0.31266 1.85749,-6.22999 -0.7383,-5.97657 z m -4.17002,3.9922 c -0.28319,-0.008 -0.58997,0.0716 -0.91603,0.26366 -2.60737,1.53735 0.87813,5.25177 2.41215,4.67579 1.34229,-0.50421 0.48625,-4.88253 -1.49612,-4.93945 z m 12.16239,3.00196 c -4.66792,-0.0826 -10.82517,2.36719 -11.87527,7.28709 -1.13731,5.32421 4.68264,12.71094 10.75415,12.71094 2.98687,0 6.43179,-2.82213 7.07633,-6.39649 0.49228,-2.72563 -6.19279,-1.63361 -5.96693,0.17 0.1844,1.47343 -0.58664,2.23969 -1.65043,2.26369 -1.45238,-0.176 -2.16445,-1.01444 -2.35553,-2.28125 -0.2601,-3.32657 10.21673,-5.69735 9.38695,-10.85547 -0.3035,-1.88659 -2.56851,-2.84887 -5.36927,-2.89843 z"
         style="opacity:0.2;fill:#000000;stroke-width:2.00001"
         id="path407"
         sodipodi:nodetypes="ssscsccccccccccccsccccscc" />
      <path
         d="m 321.55721,229 c -5.92353,0 -7.03358,9 -3.70126,9 3.33184,0 9.62503,-9 3.70126,-9 z m -9.40257,1.02148 c -3.38809,0.47627 -2.19663,6.8573 -0.39258,6.97658 1.80331,0.1192 3.78192,-7.45284 0.39258,-6.97658 z m -6.12904,1.98633 c -0.17301,0.016 -0.35845,0.0614 -0.55665,0.1368 -3.17179,1.20395 -0.48192,6.17387 1.29495,5.83985 1.66715,-0.31266 1.85749,-6.22999 -0.7383,-5.97657 z m -4.17002,3.9922 c -0.28319,-0.008 -0.58997,0.0716 -0.91603,0.26366 -2.60737,1.53735 0.87813,5.25177 2.41215,4.67579 1.34229,-0.50421 0.48625,-4.88253 -1.49612,-4.93945 z m 12.16239,3.00196 c -4.66792,-0.0826 -10.82517,2.36719 -11.87527,7.28709 -1.13731,5.32421 4.68264,12.71094 10.75415,12.71094 2.98687,0 6.43179,-2.82213 7.07633,-6.39649 0.49228,-2.72563 -6.19279,-1.63361 -5.96693,0.17 0.1844,1.47343 -0.58664,2.23969 -1.65043,2.26369 -1.45238,-0.176 -2.16445,-1.01444 -2.35553,-2.28125 -0.2601,-3.32657 10.21673,-5.69735 9.38695,-10.85547 -0.3035,-1.88659 -2.56851,-2.84887 -5.36927,-2.89843 z"
         style="opacity:1;fill:#ffffff;stroke-width:2.00001"
         id="path435"
         sodipodi:nodetypes="ssscsccccccccccccsccccscc" />
    </g>
    <g
       id="g1723"
       transform="matrix(1.9999848,0,0,1.9999848,-543.99355,36.000891)">
      <path
         d="m 438.23501,58.500005 c -3.94925,0.006 -3.95467,5.75 -1.733,5.75 2.22136,0 5.6044,-5.755898 1.733,-5.75 z m -5.883,0.923295 c -2.25872,0.309287 -1.5527,3.999256 -0.35,4.076705 1.20219,0.07746 2.60953,-4.38599 0.35,-4.076705 z m -4.33308,1.809304 c -0.11537,0.01024 -0.23938,0.03609 -0.37153,0.08167 -2.11461,0.729594 -0.32176,3.7429 0.86287,3.540483 1.11146,-0.189469 1.23925,-3.775733 -0.49134,-3.62216 z m -2.73322,2.721946 c -0.18877,-0.0045 -0.39207,0.03902 -0.6094,0.143821 -1.73786,0.838535 0.30323,2.715796 1.3257,2.401634 0.89466,-0.275009 0.60496,-2.514402 -0.7163,-2.545455 z m 8.209,0.910867 c -2.99677,-0.05634 -6.94922,1.613569 -7.62338,4.96804 -0.73014,3.630117 3.00675,8.666548 6.90462,8.666548 1.91756,0 4.12793,-1.923747 4.54174,-4.360795 0.1388,-0.816251 -0.55507,-1.102363 -1.36461,-1.09375 -1.03356,0.011 -2.25495,0.519588 -2.17364,1.209161 0.11839,1.004603 -0.49069,1.526615 -1.17363,1.542969 -0.93242,-0.120004 -1.3895,-0.69166 -1.51217,-1.555398 -0.16699,-2.268099 6.32968,-3.883672 5.79696,-7.400568 -0.19484,-1.286302 -1.59782,-1.942408 -3.39589,-1.976207 z"
         style="opacity:0.2;fill:#000000;stroke-width:0.89894"
         id="path1701" />
      <path
         d="m 438.23501,58 c -3.94925,0.006 -3.95467,5.75 -1.733,5.75 2.22136,0 5.6044,-5.755898 1.733,-5.75 z m -5.883,0.923295 c -2.25872,0.309287 -1.5527,3.999256 -0.35,4.076705 1.20219,0.07746 2.60953,-4.38599 0.35,-4.076705 z m -4.33308,1.809304 c -0.11537,0.01024 -0.23938,0.03609 -0.37153,0.08167 -2.11461,0.729594 -0.32176,3.7429 0.86287,3.540483 1.11146,-0.189469 1.23925,-3.775733 -0.49134,-3.62216 z m -2.73322,2.721946 c -0.18877,-0.0045 -0.39207,0.03902 -0.6094,0.143821 -1.73786,0.838535 0.30323,2.715796 1.3257,2.401634 0.89466,-0.275009 0.60496,-2.514402 -0.7163,-2.545455 z m 8.209,0.910867 c -2.99677,-0.05634 -6.94922,1.613569 -7.62338,4.96804 C 425.14119,72.963569 428.87808,78 432.77595,78 c 1.91756,0 4.12793,-1.923747 4.54174,-4.360795 0.1388,-0.816251 -0.55507,-1.102363 -1.36461,-1.09375 -1.03356,0.011 -2.25495,0.519588 -2.17364,1.209161 0.11839,1.004603 -0.49069,1.526615 -1.17363,1.542969 -0.93242,-0.120004 -1.3895,-0.69166 -1.51217,-1.555398 -0.16699,-2.268099 6.32968,-3.883672 5.79696,-7.400568 -0.19484,-1.286302 -1.59782,-1.942408 -3.39589,-1.976207 z"
         style="fill:#ffffff;stroke-width:0.89894"
         id="path1673"
         sodipodi:nodetypes="ssscccsccssccccscscscccss" />
    </g>
    <g
       id="g1651">
      <path
         d="M 355.11443,47 C 343.26737,47 341.04727,64.999997 347.71191,64.999997 354.37559,64.999997 366.96197,47 355.11443,47 Z m -18.80514,2.04296 c -6.77618,0.952539 -4.39326,13.714597 -0.78516,13.953157 3.60662,0.2384 7.56384,-14.905677 0.78516,-13.953157 z m -12.25808,3.972659 c -0.34602,0.032 -0.7169,0.1228 -1.11329,0.2736 -6.34358,2.4079 -0.96384,12.347738 2.58989,11.679698 3.3343,-0.62532 3.71498,-12.459978 -1.4766,-11.953138 z m -8.34003,7.984399 c -0.56638,-0.016 -1.17994,0.143199 -1.83206,0.527319 -5.21474,3.0747 1.75626,10.503539 4.8243,9.351579 2.68458,-1.00842 0.9725,-9.765058 -2.99224,-9.878898 z m 24.32477,6.003918 c -9.33584,-0.1652 -21.65033,4.73438 -23.75053,14.574178 -2.27462,10.648418 9.36527,25.421876 21.50829,25.421876 5.97374,0 12.86358,-5.64426 14.15266,-12.792978 0.98456,-5.451259 -12.38558,-3.26722 -11.93386,0.34 0.3688,2.946859 -1.17328,4.479379 -3.30086,4.527379 -2.90476,-0.352 -4.3289,-2.02888 -4.71106,-4.562499 -0.5202,-6.653139 20.43346,-11.394698 18.7739,-21.710937 -0.607,-3.773179 -5.13702,-5.697739 -10.73854,-5.796859 z"
         style="opacity:0.2;fill:#000000;stroke-width:4.00002"
         id="path1208" />
      <path
         d="m 355.11443,46 c -11.84706,0 -14.06716,18 -7.40252,18 6.66368,0 19.25006,-18 7.40252,-18 z m -18.80514,2.04296 c -6.77618,0.95254 -4.39326,13.7146 -0.78516,13.95316 3.60662,0.2384 7.56384,-14.90568 0.78516,-13.95316 z m -12.25808,3.97266 c -0.34602,0.032 -0.7169,0.1228 -1.1133,0.2736 -6.34358,2.4079 -0.96384,12.34774 2.5899,11.6797 3.3343,-0.62532 3.71498,-12.45998 -1.4766,-11.95314 z m -8.34004,7.9844 c -0.56638,-0.016 -1.17994,0.1432 -1.83206,0.52732 -5.21474,3.0747 1.75626,10.50354 4.8243,9.35158 2.68458,-1.00842 0.9725,-9.76506 -2.99224,-9.8789 z m 24.32478,6.00392 c -9.33584,-0.1652 -21.65034,4.73438 -23.75054,14.57418 C 314.01079,91.22654 325.65069,106 337.79371,106 c 5.97374,0 12.86358,-5.64426 14.15266,-12.79298 0.98456,-5.45126 -12.38558,-3.26722 -11.93386,0.34 0.3688,2.94686 -1.17328,4.47938 -3.30086,4.52738 -2.90476,-0.352 -4.3289,-2.02888 -4.71106,-4.5625 -0.5202,-6.65314 20.43346,-11.3947 18.7739,-21.71094 -0.607,-3.77318 -5.13702,-5.69774 -10.73854,-5.79686 z"
         style="fill:#ffffff;stroke-width:4.00002"
         id="path1180" />
    </g>
    <g
       id="g1783"
       transform="matrix(3.9999996,0,0,3.9999996,-1135.9999,-531.99994)">
      <path
         d="M 332.46981,152.50001 C 324.57137,152.51201 324.56053,164 329.00384,164 c 4.44268,0 11.20871,-11.51179 3.46597,-11.49999 z m -11.76591,1.84659 c -4.51741,0.61857 -3.10538,7.99851 -0.7,8.1534 2.40437,0.15492 5.21902,-8.77197 0.7,-8.1534 z m -8.6661,3.61861 c -0.23073,0.0205 -0.47875,0.0722 -0.74305,0.16333 -4.22919,1.45919 -0.64352,7.48581 1.72573,7.08097 2.2229,-0.37894 2.47848,-7.55146 -0.98268,-7.24432 z m -5.46639,5.44389 c -0.37754,-0.009 -0.78414,0.078 -1.2188,0.28764 -3.47569,1.67706 0.60646,5.43159 2.65138,4.80327 1.78931,-0.55003 1.20992,-5.02881 -1.43258,-5.09091 z m 16.41787,1.82173 c -5.99349,-0.11268 -13.89833,3.22714 -15.24664,9.93608 -1.46027,7.26022 6.01345,17.33309 13.80913,17.33309 3.83509,0 8.2558,-3.84749 9.0834,-8.72159 0.27761,-1.6325 -1.11012,-2.20473 -2.72919,-2.1875 -2.0671,0.022 -4.50986,1.03918 -4.34724,2.41832 0.23677,2.00921 -0.98138,3.05322 -2.34725,3.08594 -1.86482,-0.24001 -2.77897,-1.38333 -3.02431,-3.1108 -0.33398,-4.53619 12.65926,-7.76734 11.59383,-14.80113 -0.38968,-2.5726 -3.19562,-3.88482 -6.79173,-3.95241 z"
         style="opacity:0.2;fill:#000000;stroke-width:0.898945"
         id="path1761" />
      <path
         d="m 332.46981,152.00001 c -7.89844,0.012 -7.90928,11.49999 -3.46597,11.49999 4.44268,0 11.20871,-11.51179 3.46597,-11.49999 z m -11.76591,1.84659 c -4.51741,0.61857 -3.10538,7.99851 -0.7,8.1534 2.40437,0.15492 5.21902,-8.77197 0.7,-8.1534 z m -8.6661,3.61861 c -0.23073,0.0205 -0.47875,0.0722 -0.74305,0.16333 -4.22919,1.45919 -0.64352,7.48581 1.72573,7.08097 2.2229,-0.37894 2.47848,-7.55146 -0.98268,-7.24432 z m -5.46639,5.44389 c -0.37754,-0.009 -0.78414,0.078 -1.2188,0.28764 -3.47569,1.67706 0.60646,5.43159 2.65138,4.80327 1.78931,-0.55003 1.20992,-5.02881 -1.43258,-5.09091 z m 16.41787,1.82173 c -5.99349,-0.11268 -13.89833,3.22714 -15.24664,9.93608 -1.46027,7.26022 6.01345,17.33309 13.80913,17.33309 3.83509,0 8.2558,-3.84749 9.0834,-8.72159 0.27761,-1.6325 -1.11012,-2.20473 -2.72919,-2.1875 -2.0671,0.022 -4.50986,1.03918 -4.34724,2.41832 0.23677,2.00921 -0.98138,3.05322 -2.34725,3.08594 -1.86482,-0.24001 -2.77897,-1.38333 -3.02431,-3.1108 -0.33398,-4.53619 12.65926,-7.76734 11.59383,-14.80113 -0.38968,-2.5726 -3.19562,-3.88482 -6.79173,-3.95241 z"
         style="fill:#ffffff;stroke-width:0.898945"
         id="path1733"
         sodipodi:nodetypes="ssscccsccssccccscscscccss" />
    </g>
  </g>
  <g
     id="Highlights">
    <path
       id="rect653"
       style="opacity:0.2;fill:#ffffff"
       d="M 80,44 C 53.408027,44 32,65.408027 32,92 v 2 C 32,67.408027 53.408027,46 80,46 h 128 c 26.59197,0 48,21.408027 48,48 V 92 C 256,65.408027 234.59197,44 208,44 Z"
       sodipodi:nodetypes="sscsscsss" />
    <path
       id="rect773"
       style="opacity:0.2;fill:#ffffff"
       d="m 312,34 c -9.97199,0 -18,8.02801 -18,18 v 1 c 0,-9.97199 8.02801,-18 18,-18 h 48 c 9.97199,0 18,8.02801 18,18 v -1 c 0,-9.97199 -8.02801,-18 -18,-18 z" />
    <path
       id="rect1135"
       style="opacity:0.2;fill:#ffffff;fill-opacity:1"
       d="m 304,144 c -6.64799,0 -12,5.35201 -12,12 v 1 c 0,-6.64799 5.35201,-12 12,-12 h 32 c 6.64799,0 12,5.35201 12,12 v -1 c 0,-6.64799 -5.35201,-12 -12,-12 z" />
    <path
       id="rect1265"
       style="opacity:0.2;fill:#ffffff;fill-opacity:1"
       d="m 300,223 c -4.986,0 -9,4.014 -9,9 v 1 c 0,-4.986 4.014,-9 9,-9 h 24 c 4.986,0 9,4.014 9,9 v -1 c 0,-4.986 -4.014,-9 -9,-9 z" />
    <path
       id="rect1368"
       style="opacity:0.2;fill:#ffffff;fill-opacity:1"
       d="m 424,54 c -3.324,0 -6,2.676003 -6,6 v 1 c 0,-3.323997 2.676,-6 6,-6 h 16 c 3.324,0 6,2.676003 6,6 v -1 c 0,-3.323997 -2.676,-6 -6,-6 z" />
    <path
       id="rect1402"
       style="opacity:0.2;fill:#ffffff;fill-opacity:1"
       d="m 420,140 c -2.216,0 -4,1.784 -4,4 v 1 c 0,-2.216 1.784,-4 4,-4 h 8 c 2.216,0 4,1.784 4,4 v -1 c 0,-2.216 -1.784,-4 -4,-4 z" />
    <path
       id="rect1436"
       style="opacity:0.2;fill:#ffffff;fill-opacity:1"
       d="m 422,102 c -2.216,0 -4,1.784 -4,4 v 1 c 0,-2.216 1.784,-4 4,-4 h 12 c 2.216,0 4,1.784 4,4 v -1 c 0,-2.216 -1.784,-4 -4,-4 z" />
  </g>
</svg>
