<?xml version="1.0" encoding="UTF-8" standalone="no"?>
<!-- Created with Inkscape (http://www.inkscape.org/) -->

<svg
   width="480"
   height="300"
   viewBox="0 0 480 300"
   version="1.1"
   id="svg5"
   inkscape:version="1.2.2 (1:1.2.2+202305151914+b0a8486541)"
   sodipodi:docname="dia.svg"
   xmlns:inkscape="http://www.inkscape.org/namespaces/inkscape"
   xmlns:sodipodi="http://sodipodi.sourceforge.net/DTD/sodipodi-0.dtd"
   xmlns="http://www.w3.org/2000/svg"
   xmlns:svg="http://www.w3.org/2000/svg">
  <sodipodi:namedview
     id="namedview7"
     pagecolor="#888888"
     bordercolor="#000000"
     borderopacity="0.25"
     inkscape:showpageshadow="true"
     inkscape:pageopacity="0"
     inkscape:pagecheckerboard="0"
     inkscape:deskcolor="#888888"
     inkscape:document-units="px"
     showgrid="false"
     showborder="false"
     inkscape:zoom="2.6866667"
     inkscape:cx="240.07444"
     inkscape:cy="150"
     inkscape:window-width="1920"
     inkscape:window-height="1008"
     inkscape:window-x="0"
     inkscape:window-y="0"
     inkscape:window-maximized="1"
     inkscape:current-layer="svg5" />
  <defs
     id="defs2" />
  <g
     id="Baseplate"
     style="display:none">
    <text
       y="19.774782"
       xml:space="preserve"
       x="15.006946"
       style="font-style:normal;font-variant:normal;font-weight:normal;font-stretch:normal;line-height:0%;font-family:'DejaVu Sans';-inkscape-font-specification:'DejaVu Sans';display:inline;fill:#000000;fill-opacity:1;stroke:none;enable-background:new"
       inkscape:label="context"
       id="context"><tspan
         style="font-style:normal;font-variant:normal;font-weight:normal;font-stretch:normal;font-size:18px;line-height:1.25;font-family:'DejaVu Sans';-inkscape-font-specification:'DejaVu Sans'"
         y="19.774782"
         x="15.006946"
         sodipodi:role="line"
         id="tspan3933">apps</tspan></text>
    <text
       y="19.774782"
       xml:space="preserve"
       x="122.48839"
       style="font-style:normal;font-variant:normal;font-weight:bold;font-stretch:normal;line-height:0%;font-family:'DejaVu Sans';-inkscape-font-specification:'DejaVu Sans Bold';text-align:start;writing-mode:lr-tb;text-anchor:start;display:inline;fill:#000000;fill-opacity:1;stroke:none;enable-background:new"
       inkscape:label="icon-name"
       id="icon-name"><tspan
         style="font-style:normal;font-variant:normal;font-weight:bold;font-stretch:normal;font-size:18px;line-height:1.25;font-family:'DejaVu Sans';-inkscape-font-specification:'DejaVu Sans Bold'"
         y="19.774782"
         x="122.48839"
         sodipodi:role="line"
         id="tspan3937">dia</tspan></text>
    <rect
       style="fill:#ffffff"
       id="256x256"
       width="256"
       height="256"
       x="16"
       y="28" />
    <rect
       style="fill:#ffffff"
       id="96x96"
       width="96"
       height="96"
       x="288"
       y="28" />
    <rect
       style="fill:#ffffff"
       id="64x64"
       width="64"
       height="64"
       x="288"
       y="140" />
    <rect
       style="fill:#ffffff"
       id="48x48"
       width="48"
       height="48"
       x="288"
       y="220" />
    <rect
       style="fill:#ffffff"
       id="32x32"
       width="32"
       height="32"
       x="416"
       y="52" />
    <rect
       style="fill:#ffffff"
       id="24x24"
       width="24"
       height="24"
       x="416"
       y="100" />
    <rect
       style="fill:#ffffff"
       id="22x22"
       width="22"
       height="22"
       x="417"
       y="101" />
    <rect
       style="fill:#ffffff"
       id="16x16"
       width="16"
       height="16"
       x="416"
       y="140" />
  </g>
  <g
     id="Shadow">
    <rect
       style="opacity:0.2;fill:#000000"
       id="rect651"
       width="224"
       height="224"
       x="32"
       y="46"
       ry="48" />
    <rect
       style="opacity:0.2;fill:#000000"
       id="rect769"
       width="84"
       height="85"
       x="294"
       y="34"
       ry="18" />
    <rect
       style="opacity:0.2;fill:#000000;fill-opacity:1"
       id="rect1131"
       width="56"
       height="56"
       x="292"
       y="145"
       ry="12" />
    <rect
       style="opacity:0.2;fill:#000000;fill-opacity:1"
       id="rect1261"
       width="42"
       height="42"
       x="291"
       y="224"
       ry="9" />
    <rect
       style="opacity:0.2;fill:#000000;fill-opacity:1"
       id="rect1364"
       width="28"
       height="29"
       x="418"
       y="54"
       ry="6" />
    <rect
       style="opacity:0.2;fill:#000000;fill-opacity:1"
       id="rect1398"
       width="16"
       height="16"
       x="416"
       y="141"
       ry="4" />
    <rect
       style="opacity:0.2;fill:#000000;fill-opacity:1"
       id="rect1432"
       width="20"
       height="20"
       x="418"
       y="103"
       ry="4" />
  </g>
  <g
     id="Background">
    <rect
       style="fill:#e4e4e4;fill-opacity:1"
       id="rect597"
       width="224"
       height="224"
       x="32"
       y="44"
       ry="48" />
    <rect
       style="opacity:1;fill:#e4e4e4;fill-opacity:1"
       id="rect771"
       width="84"
       height="84"
       x="294"
       y="34"
       ry="18" />
    <rect
       style="opacity:1;fill:#e4e4e4;fill-opacity:1"
       id="rect1133"
       width="56"
       height="56"
       x="292"
       y="144"
       ry="12" />
    <rect
       style="opacity:1;fill:#e4e4e4;fill-opacity:1"
       id="rect1263"
       width="42"
       height="42"
       x="291"
       y="223"
       ry="9" />
    <rect
       style="opacity:1;fill:#e4e4e4;fill-opacity:1"
       id="rect1366"
       width="28"
       height="28"
       x="418"
       y="54"
       ry="6" />
    <rect
       style="opacity:1;fill:#e4e4e4;fill-opacity:1"
       id="rect1400"
       width="16"
       height="16"
       x="416"
       y="140"
       ry="4" />
    <rect
       style="opacity:1;fill:#e4e4e4;fill-opacity:1"
       id="rect1434"
       width="20"
       height="20"
       x="418"
       y="102"
       ry="4" />
  </g>
  <g
     id="g1549"
     transform="translate(0,0.11090088)">
    <g
       id="g1566">
      <path
         id="path2540"
         style="color:#000000;opacity:0.2;fill:#000000;-inkscape-stroke:none"
         d="m 419,144.3891 v 1 h 2 v 6 h -2 v 1 h 2 v 1 h -1 l 1.5,2 1.5,-2 h -1 v -1 h 2.99219 c 0,0 0.98128,0.0221 1.97851,-0.46875 0.99724,-0.49088 2.0293,-1.58997 2.0293,-3.53125 0,-1.90844 -1.03212,-3.00274 -2.02539,-3.50195 -0.99327,-0.49922 -1.97266,-0.49805 -1.97266,-0.49805 z m 3,1 h 3 c 0.002,3e-5 0.76957,0.0107 1.52539,0.39062 0.75673,0.38033 1.47461,1.03601 1.47461,2.60938 0,1.61304 -0.71794,2.26423 -1.4707,2.63476 -0.75277,0.37053 -1.52149,0.36524 -1.52149,0.36524 h -0.004 H 422 Z m 2.50195,0.38281 -2.31054,4.61719 h 4.61718 z m 0,2.23633 0.68946,1.38086 h -1.38086 z"
         sodipodi:nodetypes="ccccccccccccccsssccccssscccccccccccc" />
      <path
         id="path2666"
         style="fill:#000000;fill-opacity:1;opacity:0.2"
         d="M 422 106.3891 L 422 107.3891 L 424 107.3891 L 424 116.3891 L 422 116.3891 L 422 117.3891 L 424 117.3891 L 424 118.3891 L 423 118.3891 L 424.5 120.3891 L 426 118.3891 L 425 118.3891 L 425 117.3891 L 429.5 117.3891 C 432.547 117.3891 435 114.9361 435 111.8891 C 435 108.8421 432.547 106.3891 429.5 106.3891 L 422 106.3891 z M 425 107.3891 L 429.5 107.3891 C 431.993 107.3891 434 109.3961 434 111.8891 C 434 114.3821 431.993 116.3891 429.5 116.3891 L 425 116.3891 L 425 107.3891 z M 429.19141 108.57269 L 426.38086 114.3891 L 431.99805 114.3891 L 429.19141 108.57269 z M 429.19141 110.80902 L 430.38086 113.3891 L 428 113.3891 L 429.19141 110.80902 z " />
      <path
         id="path3654"
         style="color:#000000;fill:#000000;stroke-width:0.5;-inkscape-stroke:none;opacity:0.2"
         d="M 423 59.889099 L 423 61.889099 L 425 61.889099 L 425 73.889099 L 423 73.889099 L 423 75.889099 L 425 75.889099 L 425 77.889099 L 423 77.889099 L 426 79.889099 L 429 77.889099 L 427 77.889099 L 427 75.889099 L 433.00586 75.889099 L 433.01172 75.889099 C 433.01172 75.889099 434.88906 75.877496 436.89648 74.875427 C 438.90391 73.873398 441 71.687475 441 67.889099 C 441 64.111363 438.90344 61.927628 436.89844 60.920349 C 434.89345 59.91307 433.01953 59.889099 433.01953 59.889099 L 433.00977 59.889099 L 423 59.889099 z M 427 61.889099 L 432.98047 61.889099 C 432.98047 61.889099 434.45501 61.931199 436 62.707458 C 437.545 63.483648 439 64.800742 439 67.889099 C 439 71.002676 437.54451 72.316386 436.00195 73.086365 C 434.45938 73.856354 432.98828 73.889099 432.98828 73.889099 L 427 73.889099 L 427 61.889099 z M 432.30859 64.271912 L 428.99805 70.889099 L 435.61523 70.889099 L 432.30859 64.271912 z M 432.30859 66.50824 L 433.99805 69.889099 L 430.61719 69.889099 L 432.30859 66.50824 z " />
      <path
         id="path1354"
         style="color:#000000;opacity:0.2;fill:#000000;-inkscape-stroke:none"
         d="m 298,231.8891 v 3 h 4 v 18 h -4 v 3 h 4 v 3 h -3 l 4.5,4 4.5,-4 h -3 v -3 h 11.01758 0.0176 c 0,0 2.71874,-0.0462 5.45117,-1.58789 C 324.21876,252.75954 327,249.49114 327,243.8891 c 0,-5.68086 -2.7788,-8.95797 -5.52148,-10.48047 -2.7427,-1.5225 -5.47071,-1.51953 -5.47071,-1.51953 h -0.004 z m 7,3 h 11 c 0.0123,1.8e-4 2.02033,0.0317 4.02148,1.14258 2.0073,1.11427 3.97852,3.0854 3.97852,7.85742 0,4.67791 -1.96877,6.6605 -3.98633,7.79883 -2.01756,1.13833 -4.04883,1.20117 -4.04883,1.20117 H 305 Z m 8.38281,3.76367 -5.61719,11.23633 H 319 Z m 0,4.47266 2.38281,4.76367 H 311 Z"
         sodipodi:nodetypes="cccccccccccccccssscccccsssccccccccccc" />
      <path
         id="path1916"
         style="color:#000000;opacity:0.2;fill:#000000;-inkscape-stroke:none"
         d="m 302,154.88908 v 4 h 4 v 24 h -4 v 4 h 4 v 4 h -4 l 6,4 6,-4 h -4 v -4 h 11.8125 0.0117 c 0,0 3.95389,-0.0233 7.96875,-2.02734 4.01486,-2.00405 8.20705,-6.37592 8.20705,-13.97266 0,-7.55547 -4.19314,-11.92294 -8.20312,-13.9375 -4.00998,-2.01456 -7.95899,-2.0625 -7.95899,-2.0625 h -0.0195 z m 8,4 h 11.76172 c 0,0 3.15024,0.0843 6.24023,1.63672 3.09,1.55237 5.99805,4.18656 5.99805,10.36328 0,6.22714 -2.90901,8.85457 -5.99414,10.39453 -3.08513,1.53997 -6.23047,1.60547 -6.23047,1.60547 H 310 Z m 10,5.76367 -6.61719,13.23633 h 13.23438 z m 0,4.47266 3.38281,6.76367 h -6.76562 z"
         sodipodi:nodetypes="cccccccccccccccssscccccsssccccccccccc" />
      <path
         d="m 308,50.8891 v 6 h 8 v 36 h -8 v 6 h 8 v 6 h -6 l 9,8 9,-8 h -6 v -6 h 22.03516 0.0352 c 0,0 5.43748,-0.0924 10.90234,-3.17578 C 360.43752,92.62998 366,86.09318 366,74.8891 c 0,-11.36172 -5.5576,-17.91594 -11.04296,-20.96094 -5.4854,-3.045 -10.94142,-3.03906 -10.94142,-3.03906 h -0.008 z m 14,6 h 22 c 0.0246,3.6e-4 4.04066,0.0634 8.04296,2.28516 4.0146,2.22854 7.95704,6.1708 7.95704,15.71484 0,9.35582 -3.93754,13.321 -7.97266,15.59766 -4.03512,2.27666 -8.09766,2.40234 -8.09766,2.40234 H 322 Z m 16.76562,6.527339 -11.23438,22.47266 H 350 Z m 0,8.94532 4.76562,9.52734 H 334 Z"
         style="color:#000000;opacity:0.2;fill:#000000;stroke-width:2;-inkscape-stroke:none"
         id="path1441"
         sodipodi:nodetypes="cccccccccccccccssscccccsssccccccccccc" />
      <path
         d="M 71.99988,85.889099 V 101.8891 h 16 v 96 h -16 v 16 h 16 v 16 h -16 l 24,16 24.00001,-16 h -16 v -16 h 47.25 0.0468 c 0,0 15.81556,-0.0932 31.875,-8.10936 16.05944,-8.0162 32.8282,-25.50368 32.8282,-55.89064 0,-30.22188 -16.77256,-47.69176 -32.81248,-55.750001 -16.03992,-8.05824 -31.83596,-8.25 -31.83596,-8.25 h -0.078 z m 32.00001,16.000001 h 47.04688 c 0,0 12.60096,0.3372 24.96092,6.54688 12.36,6.20948 23.9922,16.74624 23.9922,41.45312 0,24.90856 -11.63604,35.41828 -23.97656,41.57812 -12.34052,6.15988 -24.92188,6.42188 -24.92188,6.42188 h -47.10156 z m 42,21.05468 -26.46876,52.94532 h 52.93752 z m 0,17.89064 13.53124,27.05468 h -27.06248 z"
         style="color:#000000;opacity:0.2;fill:#000000;stroke-width:4;-inkscape-stroke:none"
         id="path2170"
         sodipodi:nodetypes="cccccccccccccccsssccccccssccccccccccc" />
    </g>
    <g
       id="g1598">
      <path
         d="m 419,143.8891 v 1 h 2 v 6 h -2 v 1 h 2 v 1 h -1 l 1.5,2 1.5,-2 h -1 v -1 h 2.99219 c 0,0 0.98128,0.0221 1.97851,-0.46875 0.99724,-0.49088 2.0293,-1.58997 2.0293,-3.53125 0,-1.90844 -1.03212,-3.00274 -2.02539,-3.50195 -0.99327,-0.49922 -1.97266,-0.49805 -1.97266,-0.49805 z m 3,1 h 3 c 0.002,3e-5 0.76957,0.0107 1.52539,0.39063 0.75673,0.38033 1.47461,1.036 1.47461,2.60937 0,1.61304 -0.71794,2.26423 -1.4707,2.63477 -0.75277,0.37053 -1.52149,0.36523 -1.52149,0.36523 h -0.004 -3.00391 z"
         style="color:#000000;fill:#4f4f4f;-inkscape-stroke:none"
         id="path2512"
         sodipodi:nodetypes="ccccccccccccccsssccccssscccc" />
      <path
         d="m 422,105.8891 v 1 h 2 v 9 h -2 v 1 h 2 v 1 h -1 l 1.5,2 1.5,-2 h -1 v -1 h 4.5 c 3.047,0 5.5,-2.453 5.5,-5.5 0,-3.047 -2.453,-5.5 -5.5,-5.5 z m 3,1 h 4.5 c 2.493,0 4.5,2.007 4.5,4.5 0,2.493 -2.007,4.5 -4.5,4.5 H 425 Z"
         style="fill:#4f4f4f;fill-opacity:1"
         id="path2037"
         sodipodi:nodetypes="cccccccccccccsssccssscc" />
      <path
         d="m 422.99993,58.889099 v 2 h 2 v 12.00001 h -2 v 2 h 2 v 2 h -2 l 3,2 3,-2 h -2 v -2 h 6.00628 0.006 c 0,0 1.87692,-0.0116 3.88435,-1.01367 2.00743,-1.00203 4.10352,-3.18796 4.10352,-6.98634 0,-3.77774 -2.09657,-5.96147 -4.10157,-6.96875 -2.00499,-1.00728 -3.87947,-1.03125 -3.87947,-1.03125 h -0.01 z m 4,2 h 5.98088 c 0,0 1.4751,0.0421 3.02009,0.81836 1.545,0.77619 2.99903,2.09328 2.99903,5.18164 0,3.11358 -1.45452,4.42729 -2.99708,5.19727 -1.54257,0.76999 -3.01522,0.80274 -3.01522,0.80274 h -5.9877 z"
         style="color:#000000;fill:#4f4f4f;stroke-width:0.5;-inkscape-stroke:none"
         id="path3525"
         sodipodi:nodetypes="cccccccccccccccssscccccsssccc" />
      <path
         d="m 298,230.8891 v 3 h 4 v 18 h -4 v 3 h 4 v 3 h -3 l 4.5,4 4.5,-4 h -3 v -3 h 11.01758 0.0176 c 0,0 2.71874,-0.0462 5.45117,-1.58789 2.73243,-1.54167 5.51367,-4.81006 5.51367,-10.41211 0,-5.68086 -2.77879,-8.95797 -5.52148,-10.48047 -2.7427,-1.5225 -5.47071,-1.51953 -5.47071,-1.51953 h -0.004 z m 7,3 h 11 c 0.0123,1.8e-4 2.02032,0.0317 4.02148,1.14258 2.0073,1.11427 3.97852,3.0854 3.97852,7.85742 0,4.67792 -1.96877,6.6605 -3.98633,7.79883 -2.01756,1.13833 -4.04883,1.20117 -4.04883,1.20117 H 305 Z"
         style="color:#000000;fill:#4f4f4f;-inkscape-stroke:none"
         id="path464"
         sodipodi:nodetypes="cccccccccccccccssscccccsssccc" />
      <path
         d="m 302,153.8891 v 4 h 4 v 24 h -4 v 4 h 4 v 4 h -4 l 6,4 6,-4 h -4 v -4 h 11.8125 0.0117 c 0,0 3.95389,-0.0233 7.96875,-2.02734 4.01485,-2.00405 8.20703,-6.37591 8.20703,-13.97266 0,-7.55548 -4.19314,-11.92294 -8.20313,-13.9375 -4.00998,-2.01456 -7.95898,-2.0625 -7.95898,-2.0625 h -0.0195 z m 8,4 h 11.76172 c 0,0 3.15023,0.0843 6.24023,1.63672 3.09,1.55237 5.99805,4.18655 5.99805,10.36328 0,6.22715 -2.90901,8.85457 -5.99414,10.39453 -3.08513,1.53997 -6.23047,1.60547 -6.23047,1.60547 H 310 Z"
         style="color:#000000;fill:#4f4f4f;-inkscape-stroke:none"
         id="path1888"
         sodipodi:nodetypes="cccccccccccccccssscccccsssccc" />
      <path
         d="m 308,49.8891 v 6 h 8 v 36 h -8 v 6 h 8 v 6 h -6 l 9,8 9,-8 h -6 v -6 h 22.03516 0.0352 c 0,0 5.43748,-0.0924 10.90234,-3.17578 5.46486,-3.08334 11.02734,-9.62012 11.02734,-20.82422 0,-11.36172 -5.55758,-17.91594 -11.04296,-20.96094 -5.4854,-3.045 -10.94142,-3.03906 -10.94142,-3.03906 h -0.008 z m 14,6 h 22 c 0.0246,3.6e-4 4.04064,0.0634 8.04296,2.28516 4.0146,2.22854 7.95704,6.1708 7.95704,15.71484 0,9.35584 -3.93754,13.321 -7.97266,15.59766 -4.03512,2.27666 -8.09766,2.40234 -8.09766,2.40234 H 322 Z"
         style="color:#000000;fill:#4f4f4f;stroke-width:2;-inkscape-stroke:none"
         id="path1497" />
      <path
         d="m 72.00004,83.889099 v 16 h 16 V 195.8891 h -16 v 16 h 16 v 16 h -16 l 24,16 24.00001,-16 h -16 v -16 h 47.25 0.0468 c 0,0 15.81556,-0.0932 31.875,-8.10936 16.0594,-8.0162 32.82812,-25.50364 32.82812,-55.89064 0,-30.22188 -16.7726,-47.69176 -32.81252,-55.750001 -16.03992,-8.0582 -31.83592,-8.25 -31.83592,-8.25 h -0.078 z m 32.00001,16 h 47.04688 c 0,0 12.60092,0.337201 24.96092,6.546881 12.36,6.20948 23.9922,16.74624 23.9922,41.45312 0,24.9086 -11.63608,35.41828 -23.9766,41.57816 -12.34048,6.15988 -24.92188,6.42184 -24.92188,6.42184 h -47.10152 z"
         style="color:#000000;fill:#4f4f4f;stroke-width:4;-inkscape-stroke:none"
         id="path2114" />
    </g>
    <g
       id="g2104">
      <path
         d="m 424.50195,145.27148 -2.31054,4.61719 h 4.61718 z m 0,2.23633 0.68946,1.38086 h -1.38086 z"
         style="color:#000000;fill:#ff8f00;fill-opacity:1;stroke:none;-inkscape-stroke:none"
         id="path2617"
         sodipodi:nodetypes="cccccccc" />
      <path
         d="m 429.19114,108.0721 -2.81014,5.81717 h 5.61673 z m 0,2.23633 1.18941,2.58084 h -2.38041 z"
         style="color:#000000;fill:#ff8f00;fill-opacity:1;stroke:none;-inkscape-stroke:none"
         id="path2694"
         sodipodi:nodetypes="cccccccc" />
      <path
         d="m 432.31,63.272099 -3.31007,6.61719 h 6.61718 z m 0,2.23633 1.68993,3.38086 h -3.38086 z"
         style="color:#000000;fill:#ff8f00;fill-opacity:1;stroke:none;-inkscape-stroke:none"
         id="path3697"
         sodipodi:nodetypes="cccccccc" />
      <path
         d="m 313.38262,237.6531 -5.617,11.23633 H 319 Z m 0,4.47266 2.383,4.76367 H 311 Z"
         style="color:#000000;fill:#ff8f00;fill-opacity:1;-inkscape-stroke:none"
         id="path1382"
         sodipodi:nodetypes="cccccccc" />
      <path
         d="m 320,163.6531 -6.61719,13.23633 h 13.23438 z m 0,4.47266 3.38281,6.76367 h -6.76562 z"
         style="color:#000000;fill:#ff8f00;fill-opacity:1;-inkscape-stroke:none"
         id="path2052"
         sodipodi:nodetypes="cccccccc" />
      <path
         d="m 338.76524,62.417099 -11.234,22.47266 H 350 Z m 0,8.94532 4.766,9.52734 H 334 Z"
         style="color:#000000;fill:#ff8f00;fill-opacity:1;stroke-width:2;-inkscape-stroke:none"
         id="path1469"
         sodipodi:nodetypes="cccccccc" />
      <path
         d="m 145.99989,120.94378 -26.46876,52.94532 h 52.93752 z m 0,17.89064 13.53124,27.05468 h -27.06248 z"
         style="color:#000000;fill:#ff8f00;fill-opacity:1;stroke-width:4;-inkscape-stroke:none"
         id="path2082"
         sodipodi:nodetypes="cccccccc" />
    </g>
    <g
       id="g2337">
      <rect
         style="opacity:0.2;fill:#000000;fill-opacity:1;stroke:none;stroke-width:1;stroke-linecap:butt;stroke-dasharray:none;stroke-opacity:1"
         id="rect3427"
         width="3"
         height="3"
         x="420"
         y="143.3891" />
      <rect
         style="opacity:0.2;fill:#000000;fill-opacity:1;stroke-width:0.375"
         id="rect2629"
         width="3"
         height="3"
         x="423"
         y="105.3891" />
      <rect
         style="opacity:0.2;fill:#000000;fill-opacity:1;stroke:none;stroke-width:0.5;stroke-linecap:butt;stroke-dasharray:none;stroke-opacity:1"
         id="rect3545"
         width="4"
         height="4"
         x="424"
         y="58.889099" />
      <rect
         style="opacity:0.2;fill:#000000;stroke-width:1.4"
         id="rect696"
         width="7"
         height="7"
         x="300"
         y="229.8891" />
      <rect
         style="opacity:0.2;fill:#000000;fill-opacity:1;stroke:none;stroke-width:2;stroke-linecap:butt;stroke-opacity:1"
         id="rect2333"
         width="8"
         height="8"
         x="304"
         y="152.8891" />
      <rect
         style="opacity:0.2;fill:#000000;fill-opacity:1;stroke-width:2"
         id="rect1517"
         width="14"
         height="14"
         x="312"
         y="46.889099" />
      <rect
         style="opacity:0.2;fill:#000000;fill-opacity:1;stroke:none;stroke-width:2;stroke-linecap:butt;stroke-opacity:1"
         id="rect2331"
         width="32"
         height="32"
         x="80"
         y="77.889099" />
    </g>
    <g
       id="g2329">
      <rect
         style="opacity:1;fill:#26a69a;fill-opacity:1;stroke:none;stroke-width:1;stroke-linecap:butt;stroke-dasharray:none;stroke-opacity:1"
         id="rect3287"
         width="3"
         height="3"
         x="420"
         y="142.8891" />
      <rect
         style="fill:#26a69a;fill-opacity:1"
         id="rect2324"
         width="3"
         height="3"
         x="423"
         y="104.8891" />
      <rect
         style="opacity:1;fill:#26a69a;fill-opacity:1;stroke:none;stroke-width:1;stroke-linecap:butt;stroke-dasharray:none;stroke-opacity:1"
         id="rect3574"
         width="4.0044851"
         height="4"
         x="424"
         y="57.889099" />
      <rect
         style="opacity:1;fill:#26a69a;fill-opacity:1;stroke-width:0.875"
         id="rect667"
         width="7"
         height="7"
         x="300"
         y="228.8891" />
      <rect
         style="fill:#26a69a;fill-opacity:1;stroke:none;stroke-width:2;stroke-linecap:butt;stroke-opacity:1"
         id="rect2244"
         width="8"
         height="8"
         x="304"
         y="151.8891" />
      <rect
         style="opacity:1;fill:#26a69a;fill-opacity:1;stroke-width:2.82842"
         id="rect1519"
         width="14"
         height="14"
         x="312"
         y="45.889099" />
      <rect
         style="opacity:1;fill:#26a69a;fill-opacity:1;stroke:none;stroke-width:8;stroke-linecap:butt;stroke-opacity:1"
         id="rect2325"
         width="32"
         height="32"
         x="80"
         y="75.889099" />
    </g>
  </g>
  <g
     id="Highlights">
    <path
       id="rect653"
       style="opacity:0.2;fill:#ffffff"
       d="M 80,44 C 53.408027,44 32,65.408027 32,92 v 2 C 32,67.408027 53.408027,46 80,46 h 128 c 26.59197,0 48,21.408027 48,48 V 92 C 256,65.408027 234.59197,44 208,44 Z"
       sodipodi:nodetypes="sscsscsss" />
    <path
       id="rect773"
       style="opacity:0.2;fill:#ffffff"
       d="m 312,34 c -9.97199,0 -18,8.02801 -18,18 v 1 c 0,-9.97199 8.02801,-18 18,-18 h 48 c 9.97199,0 18,8.02801 18,18 v -1 c 0,-9.97199 -8.02801,-18 -18,-18 z" />
    <path
       id="rect1135"
       style="opacity:0.2;fill:#ffffff;fill-opacity:1"
       d="m 304,144 c -6.64799,0 -12,5.35201 -12,12 v 1 c 0,-6.64799 5.35201,-12 12,-12 h 32 c 6.64799,0 12,5.35201 12,12 v -1 c 0,-6.64799 -5.35201,-12 -12,-12 z" />
    <path
       id="rect1265"
       style="opacity:0.2;fill:#ffffff;fill-opacity:1"
       d="m 300,223 c -4.986,0 -9,4.014 -9,9 v 1 c 0,-4.986 4.014,-9 9,-9 h 24 c 4.986,0 9,4.014 9,9 v -1 c 0,-4.986 -4.014,-9 -9,-9 z" />
    <path
       id="rect1368"
       style="opacity:0.2;fill:#ffffff;fill-opacity:1"
       d="m 424,54 c -3.324,0 -6,2.676003 -6,6 v 1 c 0,-3.323997 2.676,-6 6,-6 h 16 c 3.324,0 6,2.676003 6,6 v -1 c 0,-3.323997 -2.676,-6 -6,-6 z" />
    <path
       id="rect1402"
       style="opacity:0.2;fill:#ffffff;fill-opacity:1"
       d="m 420,140 c -2.216,0 -4,1.784 -4,4 v 1 c 0,-2.216 1.784,-4 4,-4 h 8 c 2.216,0 4,1.784 4,4 v -1 c 0,-2.216 -1.784,-4 -4,-4 z" />
    <path
       id="rect1436"
       style="opacity:0.2;fill:#ffffff;fill-opacity:1"
       d="m 422,102 c -2.216,0 -4,1.784 -4,4 v 1 c 0,-2.216 1.784,-4 4,-4 h 12 c 2.216,0 4,1.784 4,4 v -1 c 0,-2.216 -1.784,-4 -4,-4 z" />
  </g>
</svg>
