<?xml version="1.0" encoding="UTF-8" standalone="no"?>
<!-- Created with Inkscape (http://www.inkscape.org/) -->

<svg
   width="480"
   height="300"
   viewBox="0 0 480 300"
   version="1.1"
   id="svg5"
   inkscape:version="1.2.2 (1:1.2.2+202305151914+b0a8486541)"
   sodipodi:docname="discord-canary.svg"
   xmlns:inkscape="http://www.inkscape.org/namespaces/inkscape"
   xmlns:sodipodi="http://sodipodi.sourceforge.net/DTD/sodipodi-0.dtd"
   xmlns="http://www.w3.org/2000/svg"
   xmlns:svg="http://www.w3.org/2000/svg">
  <sodipodi:namedview
     id="namedview7"
     pagecolor="#888888"
     bordercolor="#000000"
     borderopacity="0.25"
     inkscape:showpageshadow="true"
     inkscape:pageopacity="0"
     inkscape:pagecheckerboard="0"
     inkscape:deskcolor="#888888"
     inkscape:document-units="px"
     showgrid="false"
     showborder="false"
     inkscape:zoom="2.6866667"
     inkscape:cx="240.44665"
     inkscape:cy="150"
     inkscape:window-width="1920"
     inkscape:window-height="1008"
     inkscape:window-x="0"
     inkscape:window-y="0"
     inkscape:window-maximized="1"
     inkscape:current-layer="svg5" />
  <defs
     id="defs2" />
  <g
     id="Baseplate"
     style="display:none">
    <text
       y="19.774782"
       xml:space="preserve"
       x="15.006946"
       style="font-style:normal;font-variant:normal;font-weight:normal;font-stretch:normal;line-height:0%;font-family:'DejaVu Sans';-inkscape-font-specification:'DejaVu Sans';display:inline;fill:#000000;fill-opacity:1;stroke:none;enable-background:new"
       inkscape:label="context"
       id="context"><tspan
         style="font-style:normal;font-variant:normal;font-weight:normal;font-stretch:normal;font-size:18px;line-height:1.25;font-family:'DejaVu Sans';-inkscape-font-specification:'DejaVu Sans'"
         y="19.774782"
         x="15.006946"
         sodipodi:role="line"
         id="tspan3933">apps</tspan></text>
    <text
       y="19.774782"
       xml:space="preserve"
       x="122.48839"
       style="font-style:normal;font-variant:normal;font-weight:bold;font-stretch:normal;line-height:0%;font-family:'DejaVu Sans';-inkscape-font-specification:'DejaVu Sans Bold';text-align:start;writing-mode:lr-tb;text-anchor:start;display:inline;fill:#000000;fill-opacity:1;stroke:none;enable-background:new"
       inkscape:label="icon-name"
       id="icon-name"><tspan
         style="font-style:normal;font-variant:normal;font-weight:bold;font-stretch:normal;font-size:18px;line-height:1.25;font-family:'DejaVu Sans';-inkscape-font-specification:'DejaVu Sans Bold'"
         y="19.774782"
         x="122.48839"
         sodipodi:role="line"
         id="tspan3937">discord-canary</tspan></text>
    <rect
       style="fill:#ffffff"
       id="256x256"
       width="256"
       height="256"
       x="16"
       y="28" />
    <rect
       style="fill:#ffffff"
       id="96x96"
       width="96"
       height="96"
       x="288"
       y="28" />
    <rect
       style="fill:#ffffff"
       id="64x64"
       width="64"
       height="64"
       x="288"
       y="140" />
    <rect
       style="fill:#ffffff"
       id="48x48"
       width="48"
       height="48"
       x="288"
       y="220" />
    <rect
       style="fill:#ffffff"
       id="32x32"
       width="32"
       height="32"
       x="416"
       y="52" />
    <rect
       style="fill:#ffffff"
       id="24x24"
       width="24"
       height="24"
       x="416"
       y="100" />
    <rect
       style="fill:#ffffff"
       id="22x22"
       width="22"
       height="22"
       x="417"
       y="101" />
    <rect
       style="fill:#ffffff"
       id="16x16"
       width="16"
       height="16"
       x="416"
       y="140" />
  </g>
  <g
     id="Shadow">
    <rect
       style="opacity:0.2;fill:#000000"
       id="rect651"
       width="224"
       height="224"
       x="32"
       y="46"
       ry="48" />
    <rect
       style="opacity:0.2;fill:#000000"
       id="rect769"
       width="84"
       height="85"
       x="294"
       y="34"
       ry="18" />
    <rect
       style="opacity:0.2;fill:#000000;fill-opacity:1"
       id="rect1131"
       width="56"
       height="56"
       x="292"
       y="145"
       ry="12" />
    <rect
       style="opacity:0.2;fill:#000000;fill-opacity:1"
       id="rect1261"
       width="42"
       height="42"
       x="291"
       y="224"
       ry="9" />
    <rect
       style="opacity:0.2;fill:#000000;fill-opacity:1"
       id="rect1364"
       width="28"
       height="29"
       x="418"
       y="54"
       ry="6" />
    <rect
       style="opacity:0.2;fill:#000000;fill-opacity:1"
       id="rect1398"
       width="16"
       height="16"
       x="416"
       y="141"
       ry="4" />
    <rect
       style="opacity:0.2;fill:#000000;fill-opacity:1"
       id="rect1432"
       width="20"
       height="20"
       x="418"
       y="103"
       ry="4" />
  </g>
  <g
     id="Background">
    <rect
       style="fill:#ffb030;fill-opacity:1"
       id="rect597"
       width="224"
       height="224"
       x="32"
       y="44"
       ry="48" />
    <rect
       style="opacity:1;fill:#ffb030;fill-opacity:1"
       id="rect771"
       width="84"
       height="84"
       x="294"
       y="34"
       ry="18" />
    <rect
       style="opacity:1;fill:#ffb030;fill-opacity:1"
       id="rect1133"
       width="56"
       height="56"
       x="292"
       y="144"
       ry="12" />
    <rect
       style="opacity:1;fill:#ffb030;fill-opacity:1"
       id="rect1263"
       width="42"
       height="42"
       x="291"
       y="223"
       ry="9" />
    <rect
       style="opacity:1;fill:#ffb030;fill-opacity:1"
       id="rect1366"
       width="28"
       height="28"
       x="418"
       y="54"
       ry="6" />
    <rect
       style="opacity:1;fill:#ffb030;fill-opacity:1"
       id="rect1400"
       width="16"
       height="16"
       x="416"
       y="140"
       ry="4" />
    <rect
       style="opacity:1;fill:#ffb030;fill-opacity:1"
       id="rect1434"
       width="20"
       height="20"
       x="418"
       y="102"
       ry="4" />
  </g>
  <g
     id="g193">
    <path
       d="m 422.56651,144.99976 c -0.71421,0.12911 -1.39741,0.3567 -2.03516,0.66406 -0.006,0.003 -0.009,0.006 -0.0117,0.0117 -1.29639,2.03282 -1.65273,4.01439 -1.47851,5.97266 8e-4,0.01 0.007,0.0196 0.0137,0.0254 0.85532,0.65927 1.68295,1.05893 2.49609,1.32422 0.013,0.004 0.0269,-4.8e-4 0.0352,-0.0117 0.19235,-0.2757 0.36471,-0.64742 0.51172,-0.95313 0.009,-0.0179 1.6e-4,-0.0378 -0.0176,-0.0449 -0.27197,-0.10828 -0.53019,-0.2407 -0.7793,-0.39062 -0.0197,-0.0121 -0.022,-0.0425 -0.004,-0.0566 0.0524,-0.0412 0.10424,-0.0836 0.1543,-0.12696 0.009,-0.008 0.0226,-0.009 0.0332,-0.004 1.63653,0.78424 3.40817,0.78424 5.02539,0 0.0106,-0.005 0.0218,-0.004 0.0312,0.004 0.0501,0.0433 0.10343,0.0857 0.15625,0.12696 0.0181,0.0142 0.0177,0.0446 -0.002,0.0566 -0.24911,0.15283 -0.50889,0.28275 -0.78125,0.39062 -0.0177,0.007 -0.0263,0.027 -0.0176,0.0449 0.15017,0.30528 0.32292,0.67742 0.51172,0.95313 0.008,0.0117 0.0221,0.0159 0.0352,0.0117 0.81709,-0.26529 1.64468,-0.66495 2.5,-1.32422 0.007,-0.006 0.0129,-0.0158 0.0137,-0.0254 0.20851,-2.26398 -0.34925,-4.22928 -1.47851,-5.97266 -0.003,-0.006 -0.008,-0.009 -0.0137,-0.0117 -0.63731,-0.30694 -1.32051,-0.53454 -2.03511,-0.66406 -0.013,-0.003 -0.0265,0.003 -0.0332,0.0156 -0.0879,0.16409 -0.18377,0.29855 -0.25195,0.4668 -0.7686,-0.12077 -1.53426,-0.12077 -2.28711,0 -0.0682,-0.17199 -0.16952,-0.30271 -0.25781,-0.4668 -0.007,-0.0121 -0.0182,-0.0177 -0.0312,-0.0156 z m -0.56641,3 c 0.56125,0 1.00877,0.45274 1,1 0,0.5512 -0.44314,1 -1,1 -0.54812,0 -1,-0.4488 -1,-1 0,-0.5512 0.44312,-1 1,-1 z m 4,0 c 0.56125,0 1.00877,0.45274 1,1 0,0.5512 -0.44314,1 -1,1 -0.54812,0 -1,-0.4488 -1,-1 0,-0.5512 0.44312,-1 1,-1 z"
       style="fill:#000000;opacity:0.2"
       id="path505"
       sodipodi:nodetypes="cccccccccccccccscscsccccccccccccscsssscsss" />
    <path
       d="m 422.56651,143.99976 c -0.71421,0.12911 -1.39741,0.3567 -2.03516,0.66406 -0.006,0.003 -0.009,0.006 -0.0117,0.0117 -1.29639,2.03282 -1.65273,4.01439 -1.47851,5.97266 8e-4,0.01 0.007,0.0196 0.0137,0.0254 0.85532,0.65927 1.68295,1.05893 2.49609,1.32422 0.013,0.004 0.0269,-4.8e-4 0.0352,-0.0117 0.19235,-0.2757 0.36471,-0.64742 0.51172,-0.95313 0.009,-0.0179 1.6e-4,-0.0378 -0.0176,-0.0449 -0.27197,-0.10828 -0.53019,-0.2407 -0.7793,-0.39062 -0.0197,-0.0121 -0.022,-0.0425 -0.004,-0.0566 0.0524,-0.0412 0.10424,-0.0836 0.1543,-0.12696 0.009,-0.008 0.0226,-0.009 0.0332,-0.004 1.63653,0.78424 3.40817,0.78424 5.02539,0 0.0106,-0.005 0.0218,-0.004 0.0312,0.004 0.0501,0.0433 0.10343,0.0857 0.15625,0.12696 0.0181,0.0142 0.0177,0.0446 -0.002,0.0566 -0.24911,0.15283 -0.50889,0.28275 -0.78125,0.39062 -0.0177,0.007 -0.0263,0.027 -0.0176,0.0449 0.15017,0.30528 0.32292,0.67742 0.51172,0.95313 0.008,0.0117 0.0221,0.0159 0.0352,0.0117 0.81709,-0.26529 1.64468,-0.66495 2.5,-1.32422 0.007,-0.006 0.0129,-0.0158 0.0137,-0.0254 0.20851,-2.26398 -0.34925,-4.22928 -1.47851,-5.97266 -0.003,-0.006 -0.008,-0.009 -0.0137,-0.0117 -0.63731,-0.30694 -1.32051,-0.53454 -2.03511,-0.66406 -0.013,-0.003 -0.0265,0.003 -0.0332,0.0156 -0.0879,0.16409 -0.18377,0.29855 -0.25195,0.4668 -0.7686,-0.12077 -1.53426,-0.12077 -2.28711,0 -0.0682,-0.17199 -0.16952,-0.30271 -0.25781,-0.4668 -0.007,-0.0121 -0.0182,-0.0177 -0.0312,-0.0156 z m -0.56641,3 c 0.56125,0 1.00877,0.45274 1,1 0,0.5512 -0.44314,1 -1,1 -0.54812,0 -1,-0.4488 -1,-1 0,-0.5512 0.44312,-1 1,-1 z m 4,0 c 0.56125,0 1.00877,0.45274 1,1 0,0.5512 -0.44314,1 -1,1 -0.54812,0 -1,-0.4488 -1,-1 0,-0.5512 0.44312,-1 1,-1 z"
       style="fill:#ffffff"
       id="path1451" />
    <path
       d="m 426.28119,108.9997 c -0.85705,0.14525 -1.67806,0.4003 -2.44336,0.74609 -0.007,0.003 -0.0119,0.008 -0.0156,0.0137 -1.55567,2.287 -1.9825,4.51757 -1.77344,6.7207 9.7e-4,0.0108 0.007,0.0208 0.0156,0.0273 1.02639,0.74171 2.02033,1.19177 2.9961,1.49023 0.0156,0.005 0.033,-0.001 0.043,-0.0137 0.23081,-0.31017 0.43686,-0.50177 0.61328,-0.8457 0.0104,-0.0202 -2e-4,-0.0448 -0.0215,-0.0527 -0.32636,-0.12181 -0.63661,-0.36844 -0.93554,-0.53711 -0.0237,-0.0136 -0.0256,-0.0485 -0.004,-0.0644 0.0629,-0.0464 0.12548,-0.0939 0.18554,-0.14258 0.0109,-0.009 0.0263,-0.0115 0.0391,-0.006 1.96384,0.8823 4.09058,0.8823 6.03125,0 0.0128,-0.006 0.0277,-0.005 0.0391,0.004 0.0601,0.0487 0.12216,0.0982 0.18554,0.14453 0.0217,0.0159 0.0197,0.0509 -0.004,0.0644 -0.29893,0.17195 -0.60871,0.41576 -0.93554,0.53711 -0.0213,0.008 -0.0299,0.0326 -0.0195,0.0527 0.1802,0.34345 0.38476,0.53552 0.61132,0.84571 0.01,0.0131 0.0274,0.0184 0.043,0.0137 0.9805,-0.29847 1.97362,-0.74853 3,-1.49024 0.009,-0.007 0.0166,-0.0166 0.0176,-0.0273 0.25021,-2.54706 -0.42027,-4.75934 -1.77539,-6.7207 -0.003,-0.007 -0.009,-0.0109 -0.0156,-0.0137 -0.76482,-0.34526 -1.58388,-0.60033 -2.4414,-0.74605 -0.0156,-0.003 -0.033,0.004 -0.041,0.0176 -0.10548,0.1846 -0.22092,0.33609 -0.30274,0.52539 -0.92232,-0.13588 -1.84072,-0.13588 -2.74414,0 -0.0818,-0.1935 -0.20264,-0.34079 -0.30859,-0.52539 -0.008,-0.0136 -0.0235,-0.0199 -0.0391,-0.0176 z m -0.28125,4 c 0.56125,0 1.00877,0.45274 1,1 0,0.5512 -0.44314,1 -1,1 -0.54812,0 -1,-0.4488 -1,-1 0,-0.5512 0.44312,-1 1,-1 z m 4,0 c 0.56126,0 1.00876,0.45274 1,1 0,0.5512 -0.43874,1 -1,1 -0.5481,0 -1,-0.4488 -1,-1 0,-0.5512 0.44312,-1 1,-1 z"
       style="fill:#000000;opacity:0.2"
       id="path3803"
       sodipodi:nodetypes="sccscccsccsccccscsccccccccccccssscsssscsss" />
    <path
       d="m 426.28119,107.9997 c -0.85705,0.14525 -1.67806,0.4003 -2.44336,0.74609 -0.007,0.003 -0.0119,0.008 -0.0156,0.0137 -1.55567,2.287 -1.9825,4.51757 -1.77344,6.7207 9.7e-4,0.0108 0.007,0.0208 0.0156,0.0273 1.02639,0.74171 2.02033,1.19177 2.9961,1.49023 0.0156,0.005 0.033,-0.001 0.043,-0.0137 0.23081,-0.31017 0.43686,-0.50177 0.61328,-0.8457 0.0104,-0.0202 -2e-4,-0.0448 -0.0215,-0.0527 -0.32636,-0.12181 -0.63661,-0.36844 -0.93554,-0.53711 -0.0237,-0.0136 -0.0256,-0.0485 -0.004,-0.0644 0.0629,-0.0464 0.12548,-0.0939 0.18554,-0.14258 0.0109,-0.009 0.0263,-0.0115 0.0391,-0.006 1.96384,0.8823 4.09058,0.8823 6.03125,0 0.0128,-0.006 0.0277,-0.005 0.0391,0.004 0.0601,0.0487 0.12216,0.0982 0.18554,0.14453 0.0217,0.0159 0.0197,0.0509 -0.004,0.0644 -0.29893,0.17195 -0.60871,0.41576 -0.93554,0.53711 -0.0213,0.008 -0.0299,0.0326 -0.0195,0.0527 0.1802,0.34345 0.38476,0.53552 0.61132,0.84571 0.01,0.0131 0.0274,0.0184 0.043,0.0137 0.9805,-0.29847 1.97362,-0.74853 3,-1.49024 0.009,-0.007 0.0166,-0.0166 0.0176,-0.0273 0.25021,-2.54706 -0.42027,-4.75934 -1.77539,-6.7207 -0.003,-0.007 -0.009,-0.0109 -0.0156,-0.0137 -0.76482,-0.34526 -1.58388,-0.60033 -2.4414,-0.74605 -0.0156,-0.003 -0.033,0.004 -0.041,0.0176 -0.10548,0.1846 -0.22092,0.33609 -0.30274,0.52539 -0.92232,-0.13588 -1.84072,-0.13588 -2.74414,0 -0.0818,-0.1935 -0.20264,-0.34079 -0.30859,-0.52539 -0.008,-0.0136 -0.0235,-0.0199 -0.0391,-0.0176 z m -0.28125,4 c 0.56125,0 1.00877,0.45274 1,1 0,0.5512 -0.44314,1 -1,1 -0.54812,0 -1,-0.4488 -1,-1 0,-0.5512 0.44312,-1 1,-1 z m 4,0 c 0.56126,0 1.00876,0.45274 1,1 0,0.5512 -0.43874,1 -1,1 -0.5481,0 -1,-0.4488 -1,-1 0,-0.5512 0.44312,-1 1,-1 z"
       style="fill:#ffffff"
       id="path3831" />
    <path
       id="path3529"
       style="opacity:0.2;fill:#000000;stroke-width:0.499991"
       d="M 429.41992 62.001953 C 428.13504 62.227953 426.90518 62.622534 425.75781 63.160156 C 425.74781 63.164656 425.73997 63.172191 425.73438 63.181641 C 423.40091 66.739118 422.76064 70.207746 423.07422 73.634766 C 423.07522 73.651516 423.08486 73.667584 423.09766 73.677734 C 424.6372 74.831477 426.12818 75.531827 427.5918 75.996094 C 427.6152 76.003394 427.64125 75.996062 427.65625 75.976562 C 428.00248 75.494087 428.31156 75.095536 428.57617 74.560547 C 428.59177 74.529197 428.57662 74.490906 428.54492 74.478516 C 428.05539 74.289015 427.589 74.05925 427.14062 73.796875 C 427.10513 73.775725 427.10237 73.723999 427.13477 73.699219 C 427.22907 73.627069 427.32396 73.550413 427.41406 73.474609 C 427.43036 73.460759 427.45346 73.458047 427.47266 73.466797 C 430.41836 74.839226 433.60662 74.839226 436.51758 73.466797 C 436.53678 73.457297 436.55722 73.460709 436.57422 73.474609 C 436.66432 73.550409 436.7604 73.627071 436.85547 73.699219 C 436.88807 73.724019 436.88521 73.775745 436.84961 73.796875 C 436.40122 74.06435 435.93555 74.289745 435.44531 74.478516 C 435.41341 74.490916 435.39846 74.529197 435.41406 74.560547 C 435.68435 75.094786 435.9922 75.492109 436.33203 75.974609 C 436.34623 75.995009 436.37308 76.003394 436.39648 75.996094 C 437.86721 75.531827 439.35889 74.831482 440.89844 73.677734 C 440.91194 73.667534 440.92048 73.651516 440.92188 73.634766 C 441.29717 69.672757 440.29239 66.234541 438.25977 63.183594 C 438.25477 63.173394 438.24623 63.164506 438.23633 63.160156 C 437.08911 62.622991 435.86049 62.228618 434.57422 62.001953 C 434.55072 61.997453 434.52577 62.007447 434.51367 62.029297 C 434.35546 62.316457 434.18131 62.350077 434.05859 62.644531 C 432.67514 62.433175 431.29845 62.433175 429.94336 62.644531 C 429.8206 62.343537 429.6394 62.316457 429.48047 62.029297 C 429.4687 62.008727 429.44475 61.999122 429.42188 62.001953 L 429.41992 62.001953 z M 428.99805 68 C 430.12047 68 431.0175 68.905515 431 70 C 431 71.102369 430.11171 72 428.99805 72 C 427.9019 72 427 71.102368 427 70 C 427 68.89763 427.88438 68.000001 428.99805 68 z M 434.99805 68 C 436.12047 68 437.0175 68.905515 437 70 C 437 71.102369 436.11171 72 434.99805 72 C 433.9019 72 433 71.102368 433 70 C 433 68.89763 433.88438 68.000001 434.99805 68 z " />
    <path
       id="path3557"
       style="fill:#ffffff;stroke-width:0.499991"
       d="M 429.41992 61.001953 C 428.13504 61.227954 426.90518 61.622534 425.75781 62.160156 C 425.74781 62.164656 425.73997 62.172191 425.73438 62.181641 C 423.40091 65.739118 422.76064 69.209699 423.07422 72.636719 C 423.07522 72.653469 423.08486 72.669538 423.09766 72.679688 C 424.6372 73.83343 426.12818 74.53378 427.5918 74.998047 C 427.6152 75.005347 427.64125 74.996062 427.65625 74.976562 C 428.00248 74.494087 428.31156 74.095536 428.57617 73.560547 C 428.59177 73.529197 428.57662 73.492859 428.54492 73.480469 C 428.05539 73.290968 427.589 73.05925 427.14062 72.796875 C 427.10513 72.775725 427.10237 72.723999 427.13477 72.699219 C 427.22907 72.627069 427.32396 72.552365 427.41406 72.476562 C 427.43036 72.462713 427.45346 72.46 427.47266 72.46875 C 430.41836 73.841178 433.60662 73.841178 436.51758 72.46875 C 436.53678 72.45925 436.55722 72.460709 436.57422 72.474609 C 436.66432 72.550409 436.7604 72.627071 436.85547 72.699219 C 436.88807 72.724019 436.88521 72.775745 436.84961 72.796875 C 436.40122 73.064351 435.93555 73.291697 435.44531 73.480469 C 435.41341 73.492869 435.39846 73.529197 435.41406 73.560547 C 435.68435 74.094786 435.9922 74.494062 436.33203 74.976562 C 436.34623 74.996962 436.37308 75.005347 436.39648 74.998047 C 437.86721 74.53378 439.35889 73.833435 440.89844 72.679688 C 440.91194 72.669488 440.92048 72.653469 440.92188 72.636719 C 441.29717 68.674711 440.29239 65.234541 438.25977 62.183594 C 438.25477 62.173394 438.24623 62.164506 438.23633 62.160156 C 437.08911 61.622991 435.86049 61.228619 434.57422 61.001953 C 434.55072 60.997453 434.52577 61.007447 434.51367 61.029297 C 434.35546 61.316457 434.18131 61.350077 434.05859 61.644531 C 432.67514 61.433174 431.29845 61.433174 429.94336 61.644531 C 429.8206 61.343537 429.6394 61.316457 429.48047 61.029297 C 429.4687 61.008727 429.44475 60.999122 429.42188 61.001953 L 429.41992 61.001953 z M 428.99805 67 C 430.12047 67 431.01754 67.905515 431 69 C 431 70.102369 430.11171 71 428.99805 71 C 427.9019 71 427 70.102368 427 69 C 427 67.89763 427.88438 67.000001 428.99805 67 z M 434.99805 67 C 436.12047 67 437.01754 67.905515 437 69 C 437 70.102369 436.11171 71 434.99805 71 C 433.9019 71 433 70.102368 433 69 C 433 67.89763 433.88438 67.000001 434.99805 67 z " />
    <path
       d="m 308.27528,235.0021 c -1.85699,0.32277 -3.63479,0.88785 -5.29297,1.65625 -0.0144,0.006 -0.025,0.0158 -0.0332,0.0293 -3.37068,5.08205 -4.29477,10.03988 -3.8418,14.93555 0.002,0.024 0.0147,0.046 0.0332,0.0606 2.22388,1.64819 4.37799,2.64928 6.49219,3.3125 0.0338,0.0104 0.0703,-0.001 0.0918,-0.0293 0.50012,-0.68924 0.94589,-1.1166 1.32813,-1.88086 0.0226,-0.0448 10e-4,-0.0975 -0.0449,-0.11523 -0.70713,-0.27071 -1.37965,-0.5998 -2.02735,-0.97461 -0.0512,-0.0302 -0.0569,-0.10522 -0.01,-0.14063 0.1363,-0.10307 0.27415,-0.21007 0.4043,-0.31836 0.0236,-0.0198 0.0563,-0.0242 0.084,-0.0117 4.25506,1.96058 8.86155,1.96058 13.06641,0 0.0277,-0.0135 0.0594,-0.0101 0.084,0.01 0.13018,0.10828 0.26697,0.21724 0.40429,0.32031 0.0471,0.0354 0.0434,0.11044 -0.008,0.14063 -0.64769,0.38209 -1.32114,0.70494 -2.02929,0.97461 -0.0461,0.0177 -0.0655,0.0705 -0.043,0.11523 0.39044,0.76319 0.83528,1.18963 1.32617,1.87891 0.0205,0.0292 0.058,0.0417 0.0918,0.0312 2.12446,-0.66322 4.27807,-1.66431 6.50195,-3.3125 0.0195,-0.0146 0.0331,-0.0366 0.0352,-0.0606 0.54212,-5.65993 -0.90957,-10.57516 -3.8457,-14.93359 -0.007,-0.0146 -0.0188,-0.025 -0.0332,-0.0312 -1.65715,-0.76737 -3.433,-1.33245 -5.29102,-1.65625 -0.0338,-0.006 -0.0685,0.008 -0.0859,0.0391 -0.22854,0.41022 -0.48092,0.74537 -0.6582,1.16601 -1.99841,-0.30193 -3.98788,-0.30193 -5.94531,0 -0.17731,-0.42999 -0.4384,-0.75579 -0.66797,-1.16601 -0.0174,-0.0302 -0.0521,-0.0443 -0.0859,-0.0391 z m -0.77734,8.99805 c 1.40321,0 2.52389,1.13184 2.50195,2.5 0,1.37801 -1.10971,2.5 -2.50195,2.5 -1.37039,0 -2.49805,-1.12199 -2.49805,-2.5 0,-1.37801 1.10577,-2.5 2.49805,-2.5 z m 9.00195,0 c 1.40325,0 2.5219,1.13184 2.5,2.5 0,1.37801 -1.09675,2.5 -2.5,2.5 -1.37034,0 -2.5,-1.12199 -2.5,-2.5 0,-1.37801 1.10772,-2.5 2.5,-2.5 z"
       style="fill:#000000;opacity:0.2"
       id="path2969" />
    <path
       d="m 308.27528,234.0021 c -1.85699,0.32277 -3.63479,0.88785 -5.29297,1.65625 -0.0144,0.006 -0.025,0.0158 -0.0332,0.0293 -3.37068,5.08205 -4.29477,10.03988 -3.8418,14.93555 0.002,0.024 0.0147,0.046 0.0332,0.0606 2.22388,1.64819 4.37799,2.64928 6.49219,3.3125 0.0338,0.0104 0.0703,-0.001 0.0918,-0.0293 0.50012,-0.68924 0.94589,-1.1166 1.32813,-1.88086 0.0226,-0.0448 10e-4,-0.0975 -0.0449,-0.11523 -0.70713,-0.27071 -1.37965,-0.5998 -2.02735,-0.97461 -0.0512,-0.0302 -0.0569,-0.10522 -0.01,-0.14063 0.1363,-0.10307 0.27415,-0.21007 0.4043,-0.31836 0.0236,-0.0198 0.0563,-0.0242 0.084,-0.0117 4.25506,1.96058 8.86155,1.96058 13.06641,0 0.0277,-0.0135 0.0594,-0.0101 0.084,0.01 0.13018,0.10828 0.26697,0.21724 0.40429,0.32031 0.0471,0.0354 0.0434,0.11044 -0.008,0.14063 -0.64769,0.38209 -1.32114,0.70494 -2.02929,0.97461 -0.0461,0.0177 -0.0655,0.0705 -0.043,0.11523 0.39044,0.76319 0.83528,1.18963 1.32617,1.87891 0.0205,0.0292 0.058,0.0417 0.0918,0.0312 2.12446,-0.66322 4.27807,-1.66431 6.50195,-3.3125 0.0195,-0.0146 0.0331,-0.0366 0.0352,-0.0606 0.54212,-5.65993 -0.90957,-10.57516 -3.8457,-14.93359 -0.007,-0.0146 -0.0188,-0.025 -0.0332,-0.0312 -1.65715,-0.76737 -3.433,-1.33245 -5.29102,-1.65625 -0.0338,-0.006 -0.0685,0.008 -0.0859,0.0391 -0.22854,0.41022 -0.48092,0.74537 -0.6582,1.16601 -1.99841,-0.30193 -3.98788,-0.30193 -5.94531,0 -0.17731,-0.42999 -0.4384,-0.75579 -0.66797,-1.16601 -0.0174,-0.0302 -0.0521,-0.0443 -0.0859,-0.0391 z m -0.77734,8.99805 c 1.40321,0 2.52389,1.13184 2.50195,2.5 0,1.37801 -1.10971,2.5 -2.50195,2.5 -1.37039,0 -2.49805,-1.12199 -2.49805,-2.5 0,-1.37801 1.10577,-2.5 2.49805,-2.5 z m 9.00195,0 c 1.40325,0 2.5219,1.13184 2.5,2.5 0,1.37801 -1.09675,2.5 -2.5,2.5 -1.37034,0 -2.5,-1.12199 -2.5,-2.5 0,-1.37801 1.10772,-2.5 2.5,-2.5 z"
       style="fill:#ffffff"
       id="path2941"
       sodipodi:nodetypes="cccccccccccccccsccccccccccccccccscsssscsss" />
    <path
       d="m 314.84165,159.002 c -2.57117,0.4519 -5.03223,1.24257 -7.32813,2.31836 -0.0199,0.009 -0.0336,0.0221 -0.0449,0.041 -4.66701,7.11509 -5.94749,14.05599 -5.32031,20.91016 0.003,0.0335 0.0213,0.0656 0.0469,0.0859 3.07916,2.30753 6.06098,3.70817 8.98828,4.63672 0.0469,0.0146 0.0971,-0.002 0.12695,-0.041 0.69246,-0.96497 1.31061,-1.76203 1.83985,-2.83203 0.0312,-0.0627 0.001,-0.13733 -0.0625,-0.16211 -0.97908,-0.37901 -1.90985,-0.84048 -2.80664,-1.36524 -0.0709,-0.0423 -0.0788,-0.14574 -0.0137,-0.19531 0.18871,-0.14431 0.37839,-0.29566 0.55859,-0.44727 0.0326,-0.0277 0.0789,-0.0331 0.11719,-0.0156 5.89152,2.74491 12.26979,2.74491 18.0918,0 0.0383,-0.0189 0.0812,-0.0142 0.11523,0.0137 0.18025,0.1516 0.37041,0.30492 0.56055,0.44922 0.0652,0.0496 0.0592,0.15304 -0.0117,0.19531 -0.89679,0.53496 -1.82809,0.98769 -2.8086,1.36524 -0.0638,0.0248 -0.0918,0.0994 -0.0606,0.16211 0.5406,1.0685 1.15626,1.86506 1.83594,2.83008 0.0284,0.0408 0.0801,0.0576 0.12695,0.043 2.94151,-0.92855 5.92475,-2.32918 9.00391,-4.63672 0.027,-0.0204 0.046,-0.0524 0.0488,-0.0859 0.75061,-7.92417 -1.26083,-14.80424 -5.32617,-20.90625 -0.01,-0.0204 -0.025,-0.0362 -0.0449,-0.0449 -2.29448,-1.07435 -4.75359,-1.86502 -7.32617,-2.31836 -0.0469,-0.009 -0.095,0.0111 -0.11914,0.0547 -0.31644,0.57433 -0.66471,0.6435 -0.91016,1.23242 -2.76698,-0.42272 -5.52218,-0.42272 -8.23242,0 -0.24551,-0.602 -0.60792,-0.65809 -0.92578,-1.23242 -0.0241,-0.0423 -0.0723,-0.062 -0.11914,-0.0547 z m -1.34571,12.99805 c 1.96437,0 3.53462,1.58452 3.50391,3.5 0,1.92928 -1.55489,3.5 -3.50391,3.5 -1.91841,0 -3.49609,-1.57072 -3.49609,-3.5 0,-1.92928 1.54703,-3.5 3.49609,-3.5 z m 13.00391,0 c 1.96442,0 3.53066,1.58452 3.5,3.5 0,1.92928 -1.53558,3.5 -3.5,3.5 -1.91836,0 -3.5,-1.57072 -3.5,-3.5 0,-1.92928 1.55093,-3.5 3.5,-3.5 z"
       style="opacity:0.2;fill:#000000"
       id="path3130"
       sodipodi:nodetypes="cccsccccccccccccccccccccccccccccscsssscsss" />
    <path
       d="m 314.84198,158.002 c -2.57117,0.4519 -5.03223,1.24257 -7.32813,2.31836 -0.0199,0.009 -0.0336,0.0221 -0.0449,0.041 -4.66701,7.11509 -5.94749,14.05599 -5.32031,20.91016 0.003,0.0335 0.0213,0.0656 0.0469,0.0859 3.07916,2.30753 6.06098,3.70817 8.98828,4.63672 0.0469,0.0146 0.0971,-0.002 0.12695,-0.041 0.69246,-0.96497 1.31061,-1.76203 1.83985,-2.83203 0.0312,-0.0627 10e-4,-0.13733 -0.0625,-0.16211 -0.97908,-0.37901 -1.90985,-0.84048 -2.80664,-1.36524 -0.0709,-0.0423 -0.0788,-0.14574 -0.0137,-0.19531 0.18871,-0.14431 0.37839,-0.29566 0.55859,-0.44727 0.0326,-0.0277 0.0789,-0.0331 0.11719,-0.0156 5.89152,2.74491 12.26979,2.74491 18.0918,0 0.0383,-0.0189 0.0812,-0.0142 0.11523,0.0137 0.18025,0.1516 0.37041,0.30492 0.56055,0.44922 0.0652,0.0496 0.0592,0.15304 -0.0117,0.19531 -0.89679,0.53496 -1.82809,0.98769 -2.8086,1.36524 -0.0638,0.0248 -0.0918,0.0994 -0.0606,0.16211 0.5406,1.0685 1.15626,1.86506 1.83594,2.83008 0.0284,0.0408 0.0801,0.0576 0.12695,0.043 2.94151,-0.92855 5.92475,-2.32918 9.00391,-4.63672 0.027,-0.0204 0.046,-0.0524 0.0488,-0.0859 0.75061,-7.92417 -1.26083,-14.80424 -5.32617,-20.90625 -0.01,-0.0204 -0.025,-0.0362 -0.0449,-0.0449 -2.29448,-1.07435 -4.75359,-1.86502 -7.32617,-2.31836 -0.0469,-0.009 -0.095,0.0111 -0.11914,0.0547 -0.31644,0.57433 -0.66471,0.6435 -0.91016,1.23242 -2.76698,-0.42272 -5.52218,-0.42272 -8.23242,0 -0.24551,-0.602 -0.60792,-0.65809 -0.92578,-1.23242 -0.0241,-0.0423 -0.0723,-0.062 -0.11914,-0.0547 z m -1.34571,12.99805 c 1.96437,0 3.53462,1.58452 3.50391,3.5 0,1.92928 -1.55489,3.5 -3.50391,3.5 -1.91841,0 -3.49609,-1.57072 -3.49609,-3.5 0,-1.92928 1.54703,-3.5 3.49609,-3.5 z m 13.00391,0 c 1.96442,0 3.53066,1.58452 3.5,3.5 0,1.92928 -1.53558,3.5 -3.5,3.5 -1.91836,0 -3.5,-1.57072 -3.5,-3.5 0,-1.92928 1.55093,-3.5 3.5,-3.5 z"
       style="fill:#ffffff"
       id="path3158"
       sodipodi:nodetypes="cccsccccccccccccccccccccccccccccscsssscsss" />
    <path
       d="m 328.55061,57.0042 c -3.71396,0.64554 -7.26953,1.77569 -10.58587,3.31248 -0.0288,0.012 -0.05,0.0316 -0.0664,0.0586 -6.74132,10.16403 -8.58949,20.07963 -7.68355,29.87091 0.004,0.048 0.0294,0.092 0.0664,0.1212 4.44774,3.29636 8.75593,5.29853 12.9843,6.62496 0.0676,0.0208 0.1406,-0.002 0.1836,-0.0586 1.00024,-1.37847 1.89177,-2.23319 2.65625,-3.7617 0.0452,-0.0896 0.002,-0.195 -0.0898,-0.23046 -1.41426,-0.54141 -2.75929,-1.19959 -4.05468,-1.9492 -0.1024,-0.0604 -0.1138,-0.21044 -0.02,-0.28126 0.2726,-0.20614 0.5483,-0.42014 0.8086,-0.63672 0.0472,-0.0396 0.1126,-0.0484 0.168,-0.0234 8.51006,3.92114 17.72298,3.92114 26.13265,0 0.0554,-0.027 0.1188,-0.0202 0.168,0.02 0.26036,0.21656 0.53394,0.43448 0.80857,0.64062 0.0942,0.0708 0.0868,0.22088 -0.016,0.28126 -1.29537,0.76417 -2.64226,1.40987 -4.05855,1.9492 -0.0922,0.0354 -0.131,0.141 -0.086,0.23046 0.78088,1.52637 1.67055,2.37925 2.65232,3.7578 0.041,0.0584 0.116,0.0834 0.1836,0.0624 4.2489,-1.32643 8.55609,-3.3286 13.00382,-6.62496 0.039,-0.0292 0.0662,-0.0732 0.0704,-0.1212 1.08423,-11.31979 -1.81913,-21.15019 -7.69135,-29.86699 -0.014,-0.0292 -0.0376,-0.05 -0.0664,-0.0624 -3.31428,-1.53473 -6.86596,-2.66488 -10.58197,-3.31248 -0.0676,-0.012 -0.137,0.016 -0.1718,0.0782 -0.45708,0.82043 -0.96184,1.49073 -1.31639,2.332 -3.9968,-0.60385 -7.97571,-0.60385 -11.89055,0 -0.35462,-0.85997 -0.87679,-1.51157 -1.33593,-2.332 -0.0348,-0.0604 -0.1042,-0.0886 -0.1718,-0.0782 z M 327,75.00019 c 2.8064,0 5.04369,2.26366 4.99981,4.99997 0,2.756 -2.21535,4.99996 -4.99981,4.99996 -2.74076,0 -5.00013,-2.24396 -5.00013,-4.99996 0,-2.75601 2.21559,-4.99997 5.00013,-4.99997 z m 17.99973,0 c 2.80648,0 5.04376,2.26366 4.99996,4.99997 0,2.756 -2.19348,4.99996 -4.99996,4.99996 -2.74067,0 -4.99997,-2.24396 -4.99997,-4.99996 0,-2.75601 2.21542,-4.99997 4.99997,-4.99997 z"
       style="fill:#000000;stroke-width:1.99999;opacity:0.2"
       id="path3242"
       sodipodi:nodetypes="ccccccccccccccccccccccccccccccccscsssscsss" />
    <path
       d="m 328.55061,56.0042 c -3.71396,0.64554 -7.26953,1.77569 -10.58587,3.31248 -0.0288,0.012 -0.05,0.0316 -0.0664,0.0586 -6.74132,10.16403 -8.58949,20.07963 -7.68355,29.870911 0.004,0.048 0.0294,0.092 0.0664,0.1212 4.44774,3.29636 8.75593,5.29853 12.9843,6.62496 0.0676,0.0208 0.1406,-0.002 0.1836,-0.0586 1.00024,-1.37847 1.89177,-2.23319 2.65625,-3.7617 0.0452,-0.0896 0.002,-0.195 -0.0898,-0.23046 -1.41426,-0.54141 -2.75929,-1.19959 -4.05468,-1.9492 -0.1024,-0.0604 -0.1138,-0.21044 -0.02,-0.28126 0.2726,-0.20614 0.5483,-0.42014 0.8086,-0.63672 0.0472,-0.0396 0.1126,-0.0484 0.168,-0.0234 8.51006,3.92114 17.72298,3.92114 26.13265,0 0.0554,-0.027 0.1188,-0.0202 0.168,0.02 0.26036,0.21656 0.53394,0.43448 0.80857,0.64062 0.0942,0.0708 0.0868,0.22088 -0.016,0.28126 -1.29537,0.76417 -2.64226,1.40987 -4.05855,1.9492 -0.0922,0.0354 -0.131,0.141 -0.086,0.23046 0.78088,1.52637 1.67055,2.37925 2.65232,3.7578 0.041,0.0584 0.116,0.0834 0.1836,0.0624 4.2489,-1.32643 8.55609,-3.3286 13.00382,-6.62496 0.039,-0.0292 0.0662,-0.0732 0.0704,-0.1212 C 362.8605,77.9268 359.95714,68.0964 354.08492,59.3796 c -0.014,-0.0292 -0.0376,-0.05 -0.0664,-0.0624 -3.31428,-1.53473 -6.86596,-2.66488 -10.58197,-3.31248 -0.0676,-0.012 -0.137,0.016 -0.1718,0.0782 -0.45708,0.82043 -0.96184,1.49073 -1.31639,2.332 -3.9968,-0.60385 -7.97571,-0.60385 -11.89055,0 -0.35462,-0.85997 -0.87679,-1.51157 -1.33593,-2.332 -0.0348,-0.0604 -0.1042,-0.0886 -0.1718,-0.0782 z M 327,74.00019 c 2.8064,0 5.04369,2.26366 4.99981,4.99997 0,2.756 -2.21535,4.99996 -4.99981,4.99996 -2.74076,0 -5.00013,-2.24396 -5.00013,-4.99996 0,-2.75601 2.21559,-4.99997 5.00013,-4.99997 z m 17.99973,0 c 2.80648,0 5.04376,2.26366 4.99996,4.99997 0,2.756 -2.19348,4.99996 -4.99996,4.99996 -2.74067,0 -4.99997,-2.24396 -4.99997,-4.99996 0,-2.75601 2.21542,-4.99997 4.99997,-4.99997 z"
       style="fill:#ffffff;stroke-width:1.99999"
       id="path3270" />
    <path
       d="m 123.36841,102.00804 c -10.28478,1.80761 -20.12912,4.97032 -29.312804,9.27353 -0.0796,0.036 -0.13441,0.0884 -0.17961,0.164 -18.66822,28.46063 -23.79019,56.2245 -21.28144,83.64145 0.012,0.134 0.0852,0.2624 0.1876,0.3436 12.31676,9.23021 24.24415,14.83283 35.953474,18.54706 0.1876,0.0584 0.3884,-0.008 0.5078,-0.164 2.76987,-3.85992 5.24249,-7.04819 7.35947,-11.32823 0.12481,-0.2508 0.004,-0.54932 -0.25,-0.64844 -3.91636,-1.51606 -7.63947,-3.36196 -11.22667,-5.46102 -0.2836,-0.1692 -0.3152,-0.58296 -0.0548,-0.78124 0.75485,-0.57725 1.51358,-1.18266 2.23438,-1.7891 0.13041,-0.1108 0.31561,-0.1324 0.46877,-0.0624 23.56631,10.97974 49.07964,10.97974 72.3679,0 0.1532,-0.0756 0.32481,-0.0568 0.46093,0.0548 0.721,0.6064 1.48165,1.21969 2.24222,1.7969 0.2608,0.1984 0.2368,0.61216 -0.0468,0.78124 -3.5872,2.13986 -7.31243,3.9508 -11.23451,5.46102 -0.2552,0.0992 -0.3672,0.3976 -0.2424,0.64844 2.16242,4.27404 4.62508,7.46031 7.34383,11.32043 0.1136,0.1632 0.3204,0.2304 0.5078,0.172 11.76616,-3.71423 23.69923,-9.31681 36.01599,-18.54706 0.108,-0.0816 0.184,-0.2096 0.1952,-0.3436 3.00247,-31.69699 -5.04336,-59.21754 -21.30488,-83.62581 -0.04,-0.0816 -0.1,-0.1448 -0.1796,-0.1796 -9.17801,-4.29745 -19.01455,-7.46016 -29.30497,-9.27353 -0.1876,-0.036 -0.38,0.0444 -0.47656,0.2188 -1.26578,2.29734 -2.65887,2.57402 -3.64068,4.92973 -11.06803,-1.6909 -22.08893,-1.6909 -32.93,0 -0.98205,-2.40803 -2.4317,-2.63239 -3.70316,-4.92973 -0.0964,-0.1692 -0.2892,-0.248 -0.47656,-0.2188 z m -5.38289,51.9927 c 7.85755,0 14.13862,6.33814 14.01577,14.00014 0,7.71719 -6.21962,14.00013 -14.01577,14.00013 -7.67372,0 -13.9845,-6.28294 -13.9845,-14.00013 0,-7.7172 6.18818,-14.00014 13.9845,-14.00014 z m 52.01614,0 c 7.85776,0 14.12278,6.33814 14.00014,14.00014 0,7.71719 -6.14238,14.00013 -14.00014,14.00013 -7.67351,0 -14.00013,-6.28294 -14.00013,-14.00013 0,-7.7172 6.20378,-14.00014 14.00013,-14.00014 z"
       style="opacity:0.2;fill:#000000;stroke-width:4.00004"
       id="path3214" />
    <path
       d="m 123.36841,100.008 c -10.28478,1.80761 -20.12912,4.97032 -29.312804,9.27353 -0.0796,0.036 -0.13441,0.0884 -0.17961,0.164 -18.66822,28.46063 -23.79019,56.2245 -21.28144,83.64145 0.012,0.134 0.0852,0.2624 0.1876,0.3436 12.31676,9.23021 24.24415,14.83283 35.953474,18.54706 0.1876,0.0584 0.3884,-0.008 0.5078,-0.164 2.76987,-3.85991 5.24249,-7.04819 7.35947,-11.32823 0.12481,-0.2508 0.004,-0.54932 -0.25,-0.64844 -3.91636,-1.51606 -7.63947,-3.36196 -11.22667,-5.46102 -0.2836,-0.1692 -0.3152,-0.58296 -0.0548,-0.78124 0.75485,-0.57725 1.51358,-1.18266 2.23438,-1.7891 0.13041,-0.1108 0.31561,-0.1324 0.46877,-0.0624 23.56631,10.97974 49.07964,10.97974 72.3679,0 0.1532,-0.0756 0.32481,-0.0568 0.46093,0.0548 0.721,0.6064 1.48165,1.21969 2.24222,1.7969 0.2608,0.1984 0.2368,0.61216 -0.0468,0.78124 -3.5872,2.13986 -7.31243,3.9508 -11.23451,5.46102 -0.2552,0.0992 -0.3672,0.3976 -0.2424,0.64844 2.16242,4.27404 4.62508,7.46032 7.34383,11.32043 0.1136,0.1632 0.3204,0.23041 0.5078,0.172 11.76616,-3.71423 23.69923,-9.31681 36.01599,-18.54706 0.108,-0.0816 0.184,-0.2096 0.1952,-0.3436 3.00247,-31.69699 -5.04336,-59.21753 -21.30488,-83.62581 -0.04,-0.0816 -0.1,-0.1448 -0.1796,-0.1796 -9.17801,-4.29745 -19.01455,-7.46016 -29.30497,-9.27353 -0.1876,-0.036 -0.38,0.0444 -0.47656,0.2188 -1.26578,2.29734 -2.65887,2.57402 -3.64068,4.92973 -11.06803,-1.6909 -22.08893,-1.6909 -32.93,0 -0.98205,-2.40803 -2.4317,-2.63239 -3.70316,-4.92973 -0.0964,-0.1692 -0.2892,-0.248005 -0.47656,-0.2188 z m -5.38289,51.9927 c 7.85755,0 14.13862,6.33814 14.01577,14.00014 0,7.71719 -6.21962,14.00013 -14.01577,14.00013 -7.67372,0 -13.9845,-6.28294 -13.9845,-14.00013 0,-7.7172 6.18818,-14.00014 13.9845,-14.00014 z m 52.01614,0 c 7.85776,0 14.12278,6.33814 14.00014,14.00014 0,7.71719 -6.14238,14.00013 -14.00014,14.00013 -7.67351,0 -14.00013,-6.28294 -14.00013,-14.00013 0,-7.7172 6.20378,-14.00014 14.00013,-14.00014 z"
       style="fill:#ffffff;stroke-width:4.00004"
       id="path3186" />
  </g>
  <g
     id="Highlights">
    <path
       id="rect653"
       style="opacity:0.2;fill:#ffffff"
       d="M 80,44 C 53.408027,44 32,65.408027 32,92 v 2 C 32,67.408027 53.408027,46 80,46 h 128 c 26.59197,0 48,21.408027 48,48 V 92 C 256,65.408027 234.59197,44 208,44 Z"
       sodipodi:nodetypes="sscsscsss" />
    <path
       id="rect773"
       style="opacity:0.2;fill:#ffffff"
       d="m 312,34 c -9.97199,0 -18,8.02801 -18,18 v 1 c 0,-9.97199 8.02801,-18 18,-18 h 48 c 9.97199,0 18,8.02801 18,18 v -1 c 0,-9.97199 -8.02801,-18 -18,-18 z" />
    <path
       id="rect1135"
       style="opacity:0.2;fill:#ffffff;fill-opacity:1"
       d="m 304,144 c -6.64799,0 -12,5.35201 -12,12 v 1 c 0,-6.64799 5.35201,-12 12,-12 h 32 c 6.64799,0 12,5.35201 12,12 v -1 c 0,-6.64799 -5.35201,-12 -12,-12 z" />
    <path
       id="rect1265"
       style="opacity:0.2;fill:#ffffff;fill-opacity:1"
       d="m 300,223 c -4.986,0 -9,4.014 -9,9 v 1 c 0,-4.986 4.014,-9 9,-9 h 24 c 4.986,0 9,4.014 9,9 v -1 c 0,-4.986 -4.014,-9 -9,-9 z" />
    <path
       id="rect1368"
       style="opacity:0.2;fill:#ffffff;fill-opacity:1"
       d="m 424,54 c -3.324,0 -6,2.676003 -6,6 v 1 c 0,-3.323997 2.676,-6 6,-6 h 16 c 3.324,0 6,2.676003 6,6 v -1 c 0,-3.323997 -2.676,-6 -6,-6 z" />
    <path
       id="rect1402"
       style="opacity:0.2;fill:#ffffff;fill-opacity:1"
       d="m 420,140 c -2.216,0 -4,1.784 -4,4 v 1 c 0,-2.216 1.784,-4 4,-4 h 8 c 2.216,0 4,1.784 4,4 v -1 c 0,-2.216 -1.784,-4 -4,-4 z" />
    <path
       id="rect1436"
       style="opacity:0.2;fill:#ffffff;fill-opacity:1"
       d="m 422,102 c -2.216,0 -4,1.784 -4,4 v 1 c 0,-2.216 1.784,-4 4,-4 h 12 c 2.216,0 4,1.784 4,4 v -1 c 0,-2.216 -1.784,-4 -4,-4 z" />
  </g>
</svg>
