<?xml version="1.0" encoding="UTF-8" standalone="no"?>
<!-- Created with Inkscape (http://www.inkscape.org/) -->

<svg
   width="480"
   height="300"
   viewBox="0 0 480 300"
   version="1.1"
   id="svg5"
   inkscape:version="1.2.2 (1:1.2.2+202305151914+b0a8486541)"
   sodipodi:docname="disks.svg"
   xmlns:inkscape="http://www.inkscape.org/namespaces/inkscape"
   xmlns:sodipodi="http://sodipodi.sourceforge.net/DTD/sodipodi-0.dtd"
   xmlns="http://www.w3.org/2000/svg"
   xmlns:svg="http://www.w3.org/2000/svg">
  <sodipodi:namedview
     id="namedview7"
     pagecolor="#888888"
     bordercolor="#000000"
     borderopacity="0.25"
     inkscape:showpageshadow="true"
     inkscape:pageopacity="0"
     inkscape:pagecheckerboard="0"
     inkscape:deskcolor="#888888"
     inkscape:document-units="px"
     showgrid="false"
     showborder="false"
     inkscape:zoom="2.6866667"
     inkscape:cx="240.44665"
     inkscape:cy="150"
     inkscape:window-width="1920"
     inkscape:window-height="1008"
     inkscape:window-x="0"
     inkscape:window-y="0"
     inkscape:window-maximized="1"
     inkscape:current-layer="svg5" />
  <defs
     id="defs2" />
  <g
     id="Baseplate"
     style="display:none">
    <text
       y="19.774782"
       xml:space="preserve"
       x="15.006946"
       style="font-style:normal;font-variant:normal;font-weight:normal;font-stretch:normal;line-height:0%;font-family:'DejaVu Sans';-inkscape-font-specification:'DejaVu Sans';display:inline;fill:#000000;fill-opacity:1;stroke:none;enable-background:new"
       inkscape:label="context"
       id="context"><tspan
         style="font-style:normal;font-variant:normal;font-weight:normal;font-stretch:normal;font-size:18px;line-height:1.25;font-family:'DejaVu Sans';-inkscape-font-specification:'DejaVu Sans'"
         y="19.774782"
         x="15.006946"
         sodipodi:role="line"
         id="tspan3933">apps</tspan></text>
    <text
       y="19.774782"
       xml:space="preserve"
       x="122.48839"
       style="font-style:normal;font-variant:normal;font-weight:bold;font-stretch:normal;line-height:0%;font-family:'DejaVu Sans';-inkscape-font-specification:'DejaVu Sans Bold';text-align:start;writing-mode:lr-tb;text-anchor:start;display:inline;fill:#000000;fill-opacity:1;stroke:none;enable-background:new"
       inkscape:label="icon-name"
       id="icon-name"><tspan
         style="font-style:normal;font-variant:normal;font-weight:bold;font-stretch:normal;font-size:18px;line-height:1.25;font-family:'DejaVu Sans';-inkscape-font-specification:'DejaVu Sans Bold'"
         y="19.774782"
         x="122.48839"
         sodipodi:role="line"
         id="tspan3937">disks</tspan></text>
    <rect
       style="fill:#ffffff"
       id="256x256"
       width="256"
       height="256"
       x="16"
       y="28" />
    <rect
       style="fill:#ffffff"
       id="96x96"
       width="96"
       height="96"
       x="288"
       y="28" />
    <rect
       style="fill:#ffffff"
       id="64x64"
       width="64"
       height="64"
       x="288"
       y="140" />
    <rect
       style="fill:#ffffff"
       id="48x48"
       width="48"
       height="48"
       x="288"
       y="220" />
    <rect
       style="fill:#ffffff"
       id="32x32"
       width="32"
       height="32"
       x="416"
       y="52" />
    <rect
       style="fill:#ffffff"
       id="24x24"
       width="24"
       height="24"
       x="416"
       y="100" />
    <rect
       style="fill:#ffffff"
       id="22x22"
       width="22"
       height="22"
       x="417"
       y="101" />
    <rect
       style="fill:#ffffff"
       id="16x16"
       width="16"
       height="16"
       x="416"
       y="140" />
  </g>
  <g
     id="Shadow">
    <rect
       style="opacity:0.2;fill:#000000"
       id="rect651"
       width="224"
       height="224"
       x="32"
       y="46"
       ry="48" />
    <rect
       style="opacity:0.2;fill:#000000"
       id="rect769"
       width="84"
       height="85"
       x="294"
       y="34"
       ry="18" />
    <rect
       style="opacity:0.2;fill:#000000;fill-opacity:1"
       id="rect1131"
       width="56"
       height="56"
       x="292"
       y="145"
       ry="12" />
    <rect
       style="opacity:0.2;fill:#000000;fill-opacity:1"
       id="rect1261"
       width="42"
       height="42"
       x="291"
       y="224"
       ry="9" />
    <rect
       style="opacity:0.2;fill:#000000;fill-opacity:1"
       id="rect1364"
       width="28"
       height="29"
       x="418"
       y="54"
       ry="6" />
    <rect
       style="opacity:0.2;fill:#000000;fill-opacity:1"
       id="rect1398"
       width="16"
       height="16"
       x="416"
       y="141"
       ry="4" />
    <rect
       style="opacity:0.2;fill:#000000;fill-opacity:1"
       id="rect1432"
       width="20"
       height="20"
       x="418"
       y="103"
       ry="4" />
  </g>
  <g
     id="Background">
    <rect
       style="fill:#9e9e9e;fill-opacity:1"
       id="rect597"
       width="224"
       height="224"
       x="32"
       y="44"
       ry="48" />
    <rect
       style="opacity:1;fill:#9e9e9e;fill-opacity:1"
       id="rect771"
       width="84"
       height="84"
       x="294"
       y="34"
       ry="18" />
    <rect
       style="opacity:1;fill:#9e9e9e;fill-opacity:1"
       id="rect1133"
       width="56"
       height="56"
       x="292"
       y="144"
       ry="12" />
    <rect
       style="opacity:1;fill:#9e9e9e;fill-opacity:1"
       id="rect1263"
       width="42"
       height="42"
       x="291"
       y="223"
       ry="9" />
    <rect
       style="opacity:1;fill:#9e9e9e;fill-opacity:1"
       id="rect1366"
       width="28"
       height="28"
       x="418"
       y="54"
       ry="6" />
    <rect
       style="opacity:1;fill:#9e9e9e;fill-opacity:1"
       id="rect1400"
       width="16"
       height="16"
       x="416"
       y="140"
       ry="4" />
    <rect
       style="opacity:1;fill:#9e9e9e;fill-opacity:1"
       id="rect1434"
       width="20"
       height="20"
       x="418"
       y="102"
       ry="4" />
  </g>
  <g
     id="g295">
    <path
       id="path4750"
       style="color:#444444;fill:#5a5a5a;fill-opacity:1;stroke-width:1.25"
       d="M 424 143 C 421.23863 143 419 145.23862 419 148 L 419 153 L 424 153 C 426.76125 153 429 150.76137 429 148 C 429 145.23862 426.76125 143 424 143 z M 424 146 A 2 2 0 0 1 426 148 A 2 2 0 0 1 424 150 A 2 2 0 0 1 422 148 A 2 2 0 0 1 424 146 z " />
    <path
       d="m 428,105.5 c -3.86599,0 -7,3.13401 -7,7 v 7 h 7 c 3.86599,0 7,-3.13401 7,-7 0,-3.86599 -3.13401,-7 -7,-7 z m 0,4 c 1.65685,0 3,1.34314 3,3 0,1.65685 -1.34315,3 -3,3 -1.65686,0 -3,-1.34315 -3,-3 0,-1.65686 1.34314,-3 3,-3 z"
       style="fill:#000000;fill-opacity:1;stroke-width:0.499999;opacity:0.2"
       id="path4638" />
    <path
       d="m 428,105 c -3.86599,0 -7,3.13401 -7,7 v 7 h 7 c 3.86599,0 7,-3.13401 7,-7 0,-3.86599 -3.13401,-7 -7,-7 z m 0,4 c 1.65685,0 3,1.34314 3,3 0,1.65685 -1.34315,3 -3,3 -1.65686,0 -3,-1.34315 -3,-3 0,-1.65686 1.34314,-3 3,-3 z"
       style="fill:#5a5a5a;fill-opacity:1;stroke-width:0.499999"
       id="path4610"
       sodipodi:nodetypes="sscssssssss" />
    <path
       d="m 320,155 c -9.94113,0 -18,8.05887 -18,18 v 18 h 18 c 9.94113,0 18,-8.05887 18,-18 0,-9.94113 -8.05887,-18 -18,-18 z m 0,10 c 4.41828,0 8,3.58172 8,8 0,4.41828 -3.58172,8 -8,8 -4.41828,0 -8,-3.58172 -8,-8 0,-4.41828 3.58172,-8 8,-8 z"
       style="opacity:0.2;fill:#000000;fill-opacity:1;stroke-width:1.28571"
       id="path4694"
       sodipodi:nodetypes="sscssssssss" />
    <path
       d="m 320,154 c -9.94113,0 -18,8.05887 -18,18 v 18 h 18 c 9.94113,0 18,-8.05887 18,-18 0,-9.94113 -8.05887,-18 -18,-18 z m 0,10 c 4.41828,0 8,3.58172 8,8 0,4.41828 -3.58172,8 -8,8 -4.41828,0 -8,-3.58172 -8,-8 0,-4.41828 3.58172,-8 8,-8 z"
       style="fill:#5a5a5a;fill-opacity:1;stroke-width:1.28571"
       id="path4336"
       sodipodi:nodetypes="sscssssssss" />
    <path
       d="m 312,231 c -7.73198,0 -14,6.26802 -14,14 v 14 h 14 c 7.73198,0 14,-6.26802 14,-14 0,-7.73198 -6.26802,-14 -14,-14 z m 0,8 c 3.31371,0 6,2.68629 6,6 0,3.31371 -2.68629,6 -6,6 -3.31371,0 -6,-2.68629 -6,-6 0,-3.31371 2.68629,-6 6,-6 z"
       style="opacity:0.2;fill:#000000;fill-opacity:1;stroke-width:0.999997"
       id="path4526"
       sodipodi:nodetypes="sscssssssss" />
    <path
       id="path4469"
       style="fill:#5a5a5a;fill-opacity:1;stroke-width:0.999997"
       d="m 312,230 c -7.73198,0 -14,6.26802 -14,14 v 14 h 14 c 7.73198,0 14,-6.26802 14,-14 0,-7.73198 -6.26802,-14 -14,-14 z m 0,8 c 3.31371,0 6,2.68629 6,6 0,3.31371 -2.68629,6 -6,6 -3.31371,0 -6,-2.68629 -6,-6 0,-3.31371 2.68629,-6 6,-6 z"
       sodipodi:nodetypes="sscssssssss" />
    <path
       d="m 432,60 c -4.97056,0 -9,4.02943 -9,9 v 9 h 9 c 4.97056,0 9,-4.02944 9,-9 0,-4.97057 -4.02944,-9 -9,-9 z m 0,5 c 2.20914,0 4,1.79086 4,4 0,2.20914 -1.79086,4 -4,4 -2.20914,0 -4,-1.79086 -4,-4 0,-2.20914 1.79086,-4 4,-4 z"
       style="opacity:0.2;fill:#000000;fill-opacity:1;stroke-width:0.642855"
       id="path4392" />
    <path
       d="m 432,59 c -4.97056,0 -9,4.02943 -9,9 v 9 h 9 c 4.97056,0 9,-4.02944 9,-9 0,-4.97057 -4.02944,-9 -9,-9 z m 0,5 c 2.20914,0 4,1.79086 4,4 0,2.20914 -1.79086,4 -4,4 -2.20914,0 -4,-1.79086 -4,-4 0,-2.20914 1.79086,-4 4,-4 z"
       style="fill:#5a5a5a;fill-opacity:1;stroke-width:0.642855"
       id="path4364" />
    <path
       d="m 336,49 c -15.46396,0 -28,12.53604 -28,28 v 28 h 28 c 15.46396,0 28,-12.53604 28,-28 0,-15.46396 -12.53604,-28 -28,-28 z m 0,16 c 6.62742,0 12,5.37258 12,12 0,6.62742 -5.37258,12 -12,12 -6.62742,0 -12,-5.37258 -12,-12 0,-6.62742 5.37258,-12 12,-12 z"
       style="opacity:0.2;fill:#000000;fill-opacity:1;stroke-width:1.99999"
       id="path4582" />
    <path
       d="m 336,48 c -15.46396,0 -28,12.53604 -28,28 v 28 h 28 c 15.46396,0 28,-12.53604 28,-28 0,-15.46396 -12.53604,-28 -28,-28 z m 0,16 c 6.62742,0 12,5.37258 12,12 0,6.62742 -5.37258,12 -12,12 -6.62742,0 -12,-5.37258 -12,-12 0,-6.62742 5.37258,-12 12,-12 z"
       style="fill:#5a5a5a;fill-opacity:1;stroke-width:1.99999"
       id="path4554" />
    <path
       d="m 144,86 c -39.76452,0 -72,32.23548 -72,72 v 72 h 72 c 39.76448,0 72,-32.23548 72,-72 0,-39.76452 -32.23552,-72 -72,-72 z m 0,40 c 17.67308,0 32,14.32688 32,32 0,17.67312 -14.32692,32 -32,32 -17.67312,0 -32,-14.32688 -32,-32 0,-17.67312 14.32688,-32 32,-32 z"
       style="opacity:0.2;fill:#000000;fill-opacity:1;stroke-width:5.14284"
       id="path4722" />
    <path
       d="m 144,84 c -39.76452,0 -72,32.23548 -72,72 v 72 h 72 c 39.76452,0 72,-32.23548 72,-72 0,-39.76452 -32.23548,-72 -72,-72 z m 0,40 c 17.67312,0 32,14.32688 32,32 0,17.67312 -14.32688,32 -32,32 -17.67312,0 -32,-14.32688 -32,-32 0,-17.67312 14.32688,-32 32,-32 z"
       style="fill:#5a5a5a;fill-opacity:1;stroke-width:5.14284"
       id="path4666" />
  </g>
  <g
     id="Highlights">
    <path
       id="rect653"
       style="opacity:0.2;fill:#ffffff"
       d="M 80,44 C 53.408027,44 32,65.408027 32,92 v 2 C 32,67.408027 53.408027,46 80,46 h 128 c 26.59197,0 48,21.408027 48,48 V 92 C 256,65.408027 234.59197,44 208,44 Z"
       sodipodi:nodetypes="sscsscsss" />
    <path
       id="rect773"
       style="opacity:0.2;fill:#ffffff"
       d="m 312,34 c -9.97199,0 -18,8.02801 -18,18 v 1 c 0,-9.97199 8.02801,-18 18,-18 h 48 c 9.97199,0 18,8.02801 18,18 v -1 c 0,-9.97199 -8.02801,-18 -18,-18 z" />
    <path
       id="rect1135"
       style="opacity:0.2;fill:#ffffff;fill-opacity:1"
       d="m 304,144 c -6.64799,0 -12,5.35201 -12,12 v 1 c 0,-6.64799 5.35201,-12 12,-12 h 32 c 6.64799,0 12,5.35201 12,12 v -1 c 0,-6.64799 -5.35201,-12 -12,-12 z" />
    <path
       id="rect1265"
       style="opacity:0.2;fill:#ffffff;fill-opacity:1"
       d="m 300,223 c -4.986,0 -9,4.014 -9,9 v 1 c 0,-4.986 4.014,-9 9,-9 h 24 c 4.986,0 9,4.014 9,9 v -1 c 0,-4.986 -4.014,-9 -9,-9 z" />
    <path
       id="rect1368"
       style="opacity:0.2;fill:#ffffff;fill-opacity:1"
       d="m 424,54 c -3.324,0 -6,2.676003 -6,6 v 1 c 0,-3.323997 2.676,-6 6,-6 h 16 c 3.324,0 6,2.676003 6,6 v -1 c 0,-3.323997 -2.676,-6 -6,-6 z" />
    <path
       id="rect1402"
       style="opacity:0.2;fill:#ffffff;fill-opacity:1"
       d="m 420,140 c -2.216,0 -4,1.784 -4,4 v 1 c 0,-2.216 1.784,-4 4,-4 h 8 c 2.216,0 4,1.784 4,4 v -1 c 0,-2.216 -1.784,-4 -4,-4 z" />
    <path
       id="rect1436"
       style="opacity:0.2;fill:#ffffff;fill-opacity:1"
       d="m 422,102 c -2.216,0 -4,1.784 -4,4 v 1 c 0,-2.216 1.784,-4 4,-4 h 12 c 2.216,0 4,1.784 4,4 v -1 c 0,-2.216 -1.784,-4 -4,-4 z" />
  </g>
</svg>
