<?xml version="1.0" encoding="UTF-8" standalone="no"?>
<!-- Created with Inkscape (http://www.inkscape.org/) -->

<svg
   width="480"
   height="300"
   viewBox="0 0 480 300"
   version="1.1"
   id="svg5"
   inkscape:version="1.2.2 (1:1.2.2+202305151914+b0a8486541)"
   sodipodi:docname="disk-usage-analyzer.svg"
   xmlns:inkscape="http://www.inkscape.org/namespaces/inkscape"
   xmlns:sodipodi="http://sodipodi.sourceforge.net/DTD/sodipodi-0.dtd"
   xmlns="http://www.w3.org/2000/svg"
   xmlns:svg="http://www.w3.org/2000/svg">
  <sodipodi:namedview
     id="namedview7"
     pagecolor="#888888"
     bordercolor="#000000"
     borderopacity="0.25"
     inkscape:showpageshadow="true"
     inkscape:pageopacity="0"
     inkscape:pagecheckerboard="0"
     inkscape:deskcolor="#888888"
     inkscape:document-units="px"
     showgrid="false"
     showborder="false"
     inkscape:zoom="2.7625"
     inkscape:cx="240"
     inkscape:cy="149.86425"
     inkscape:window-width="1920"
     inkscape:window-height="1008"
     inkscape:window-x="0"
     inkscape:window-y="0"
     inkscape:window-maximized="1"
     inkscape:current-layer="svg5" />
  <defs
     id="defs2">
    <clipPath
       clipPathUnits="userSpaceOnUse"
       id="clipPath2270">
      <rect
         style="fill:#ffffff;fill-opacity:1;stroke-width:0.25"
         id="rect2272"
         width="56"
         height="56"
         x="292"
         y="144"
         ry="12" />
    </clipPath>
    <clipPath
       clipPathUnits="userSpaceOnUse"
       id="clipPath2356">
      <path
         id="path2358"
         style="fill:#ffffff;stroke-width:1;stroke-linecap:square"
         d="m 292,172 14,-2.5 14,2.5 16.5,11.5 11.5,16.5 h -56 z"
         sodipodi:nodetypes="ccccccc" />
    </clipPath>
    <clipPath
       clipPathUnits="userSpaceOnUse"
       id="clipPath2364">
      <path
         id="path2366"
         style="opacity:1;fill:#ffffff;stroke-width:4;stroke-linecap:square"
         d="m 32,156 56,-10 56,10 66,46 46,66 H 32 Z"
         sodipodi:nodetypes="ccccccc" />
    </clipPath>
    <clipPath
       clipPathUnits="userSpaceOnUse"
       id="clipPath2474">
      <rect
         style="opacity:1;fill:#ffffff;fill-opacity:1;stroke-width:4;stroke-linecap:square"
         id="rect2476"
         width="56"
         height="56"
         x="292"
         y="144"
         ry="12" />
    </clipPath>
    <clipPath
       clipPathUnits="userSpaceOnUse"
       id="clipPath2953">
      <rect
         style="opacity:1;fill:#ffffff;fill-opacity:1;stroke-width:4;stroke-linecap:square"
         id="rect2955"
         width="42"
         height="42"
         x="291"
         y="223"
         ry="9" />
    </clipPath>
    <clipPath
       clipPathUnits="userSpaceOnUse"
       id="clipPath2957">
      <rect
         style="opacity:1;fill:#ffffff;fill-opacity:1;stroke-width:4;stroke-linecap:square"
         id="rect2959"
         width="84"
         height="84"
         x="294"
         y="34"
         ry="18" />
    </clipPath>
    <clipPath
       clipPathUnits="userSpaceOnUse"
       id="clipPath2993">
      <path
         id="path2995"
         style="fill:#ffffff;stroke-width:2;stroke-linecap:square"
         d="m 291,244 10.5,-2 10.5,2 12.5,9.5 8.5,11.5 h -42 z"
         sodipodi:nodetypes="ccccccc" />
    </clipPath>
    <clipPath
       clipPathUnits="userSpaceOnUse"
       id="clipPath2997">
      <path
         id="path2999"
         style="opacity:1;fill:#ffffff;stroke-width:4;stroke-linecap:square"
         d="m 294,76 21,-4 21,4 25,19 17,23 h -84 z"
         sodipodi:nodetypes="ccccccc" />
    </clipPath>
    <clipPath
       clipPathUnits="userSpaceOnUse"
       id="clipPath3315">
      <rect
         style="fill:#ffffff;fill-opacity:1"
         id="rect3317"
         width="28"
         height="28"
         x="418"
         y="54"
         ry="6" />
    </clipPath>
    <clipPath
       clipPathUnits="userSpaceOnUse"
       id="clipPath3791">
      <rect
         style="fill:#ffffff;fill-opacity:1"
         id="rect3793"
         width="20"
         height="20"
         x="418"
         y="102"
         ry="4"
         inkscape:label="rect1434" />
    </clipPath>
    <clipPath
       clipPathUnits="userSpaceOnUse"
       id="clipPath3825">
      <path
         id="path3827"
         style="opacity:1;fill:#ffffff;stroke-width:4;stroke-linecap:square"
         d="m 418,112 5,-2 5,2 7,3 3,7 h -20 z"
         sodipodi:nodetypes="ccccccc" />
    </clipPath>
    <clipPath
       clipPathUnits="userSpaceOnUse"
       id="clipPath3856">
      <path
         id="path3858"
         style="fill:#ffffff;stroke-width:4;stroke-linecap:square"
         d="m 418,68 7,-2 7,2 9,5 5,9 h -28 z"
         sodipodi:nodetypes="ccccccc" />
    </clipPath>
    <clipPath
       clipPathUnits="userSpaceOnUse"
       id="clipPath4107">
      <rect
         style="fill:#ffffff;fill-opacity:1"
         id="rect4109"
         width="16"
         height="16"
         x="416"
         y="140"
         ry="4" />
    </clipPath>
    <clipPath
       clipPathUnits="userSpaceOnUse"
       id="clipPath4111">
      <path
         id="path4113"
         style="fill:#ffffff;stroke-width:4;stroke-linecap:square"
         d="m 416,148 3,-2 5,2 5,3 3,5 h -16 z"
         sodipodi:nodetypes="ccccccc" />
    </clipPath>
  </defs>
  <g
     id="Baseplate"
     style="display:none">
    <text
       y="19.774782"
       xml:space="preserve"
       x="15.006946"
       style="font-style:normal;font-variant:normal;font-weight:normal;font-stretch:normal;line-height:0%;font-family:'DejaVu Sans';-inkscape-font-specification:'DejaVu Sans';display:inline;fill:#000000;fill-opacity:1;stroke:none;enable-background:new"
       inkscape:label="context"
       id="context"><tspan
         style="font-style:normal;font-variant:normal;font-weight:normal;font-stretch:normal;font-size:18px;line-height:1.25;font-family:'DejaVu Sans';-inkscape-font-specification:'DejaVu Sans'"
         y="19.774782"
         x="15.006946"
         sodipodi:role="line"
         id="tspan3933">apps</tspan></text>
    <text
       y="19.774782"
       xml:space="preserve"
       x="122.48839"
       style="font-style:normal;font-variant:normal;font-weight:bold;font-stretch:normal;line-height:0%;font-family:'DejaVu Sans';-inkscape-font-specification:'DejaVu Sans Bold';text-align:start;writing-mode:lr-tb;text-anchor:start;display:inline;fill:#000000;fill-opacity:1;stroke:none;enable-background:new"
       inkscape:label="icon-name"
       id="icon-name"><tspan
         style="font-style:normal;font-variant:normal;font-weight:bold;font-stretch:normal;font-size:18px;line-height:1.25;font-family:'DejaVu Sans';-inkscape-font-specification:'DejaVu Sans Bold'"
         y="19.774782"
         x="122.48839"
         sodipodi:role="line"
         id="tspan3937">disk-usage-analyzer</tspan></text>
    <rect
       style="fill:#ffffff"
       id="256x256"
       width="256"
       height="256"
       x="16"
       y="28" />
    <rect
       style="fill:#ffffff"
       id="96x96"
       width="96"
       height="96"
       x="288"
       y="28" />
    <rect
       style="fill:#ffffff"
       id="64x64"
       width="64"
       height="64"
       x="288"
       y="140" />
    <rect
       style="fill:#ffffff"
       id="48x48"
       width="48"
       height="48"
       x="288"
       y="220" />
    <rect
       style="fill:#ffffff"
       id="32x32"
       width="32"
       height="32"
       x="416"
       y="52" />
    <rect
       style="fill:#ffffff"
       id="24x24"
       width="24"
       height="24"
       x="416"
       y="100" />
    <rect
       style="fill:#ffffff"
       id="22x22"
       width="22"
       height="22"
       x="417"
       y="101" />
    <rect
       style="fill:#ffffff"
       id="16x16"
       width="16"
       height="16"
       x="416"
       y="140" />
  </g>
  <g
     id="Shadow">
    <rect
       style="opacity:0.2;fill:#000000"
       id="rect651"
       width="224"
       height="224"
       x="32"
       y="46"
       ry="48" />
    <rect
       style="opacity:0.2;fill:#000000"
       id="rect769"
       width="84"
       height="85"
       x="294"
       y="34"
       ry="18" />
    <rect
       style="opacity:0.2;fill:#000000;fill-opacity:1"
       id="rect1131"
       width="56"
       height="56"
       x="292"
       y="145"
       ry="12" />
    <rect
       style="opacity:0.2;fill:#000000;fill-opacity:1"
       id="rect1261"
       width="42"
       height="42"
       x="291"
       y="224"
       ry="9" />
    <rect
       style="opacity:0.2;fill:#000000;fill-opacity:1"
       id="rect1364"
       width="28"
       height="29"
       x="418"
       y="54"
       ry="6" />
    <rect
       style="opacity:0.2;fill:#000000;fill-opacity:1"
       id="rect1398"
       width="16"
       height="16"
       x="416"
       y="141"
       ry="4" />
    <rect
       style="opacity:0.2;fill:#000000;fill-opacity:1"
       id="rect1432"
       width="20"
       height="20"
       x="418"
       y="103"
       ry="4" />
  </g>
  <g
     id="Background">
    <rect
       style="fill:#ffc107;fill-opacity:1"
       id="rect597"
       width="224"
       height="224"
       x="32"
       y="44"
       ry="48"
       clip-path="url(#clipPath2364)" />
    <rect
       style="opacity:1;fill:#ffc107;fill-opacity:1"
       id="rect771"
       width="84"
       height="84"
       x="294"
       y="34"
       ry="18"
       clip-path="url(#clipPath2997)" />
    <rect
       style="opacity:1;fill:#ffc107;fill-opacity:1"
       id="rect1434"
       width="20"
       height="20"
       x="418"
       y="102"
       ry="4"
       inkscape:label="rect1434"
       clip-path="url(#clipPath3825)" />
    <rect
       style="opacity:1;fill:#ffc107;fill-opacity:1"
       id="rect1133"
       width="56"
       height="56"
       x="292"
       y="144"
       ry="12"
       clip-path="url(#clipPath2356)" />
    <rect
       style="opacity:1;fill:#ffc107;fill-opacity:1"
       id="rect1263"
       width="42"
       height="42"
       x="291"
       y="223"
       ry="9"
       clip-path="url(#clipPath2993)" />
    <rect
       style="opacity:1;fill:#ffc107;fill-opacity:1"
       id="rect1366"
       width="28"
       height="28"
       x="418"
       y="54"
       ry="6"
       clip-path="url(#clipPath3856)" />
    <rect
       style="opacity:1;fill:#ffc107;fill-opacity:1"
       id="rect1400"
       width="16"
       height="16"
       x="416"
       y="140"
       ry="4"
       clip-path="url(#clipPath4111)" />
    <rect
       style="opacity:1;fill:#ffffff;fill-opacity:1;stroke-width:4;stroke-linecap:square"
       id="rect2961"
       width="0.13666558"
       height="0.22441964"
       x="225.02023"
       y="248.79495"
       ry="0.068332791" />
  </g>
  <g
     id="g4150">
    <g
       id="g4078"
       clip-path="url(#clipPath4107)">
      <path
         d="m 424,140.5 h 8 v 16 l -8,-8 z"
         style="fill:#000000;fill-opacity:1;stroke-width:4;stroke-linecap:square;opacity:0.2"
         id="path4024" />
      <rect
         style="opacity:0.2;fill:#000000;fill-opacity:1;stroke-width:4;stroke-linecap:square"
         id="rect4044"
         width="12"
         height="0.5"
         x="416"
         y="148" />
      <path
         d="m 416,140 h 8 l 1,4 -1,4 h -8 z"
         style="fill:#1976d2;stroke-width:4;stroke-linecap:square"
         id="path4054" />
      <path
         d="m 424,140 h 8 v 16 l -8,-8 z"
         style="fill:#ef5350;fill-opacity:1;stroke-width:4;stroke-linecap:square"
         id="path3996" />
    </g>
    <g
       id="g3762"
       clip-path="url(#clipPath3791)">
      <path
         d="m 428,102.5 h 10 v 20 l -10,-10 z"
         style="opacity:0.2;fill:#000000;stroke-width:4;stroke-linecap:square"
         id="path3332" />
      <rect
         style="opacity:0.2;fill:#000000;fill-opacity:1;stroke-width:4;stroke-linecap:square"
         id="rect3322"
         width="12"
         height="0.5"
         x="418"
         y="112" />
      <path
         d="m 418,102 h 10 l 2,5 -2,5 h -10 z"
         style="fill:#1976d2;stroke-width:4;stroke-linecap:square"
         id="path3736" />
      <path
         d="m 428,102 h 10 v 20 l -10,-10 z"
         style="opacity:1;fill:#ef5350;stroke-width:4;stroke-linecap:square;fill-opacity:1"
         id="path3360" />
    </g>
    <g
       id="g3286"
       clip-path="url(#clipPath3315)">
      <path
         d="m 432,55 h 14 V 83 L 432,69 Z"
         style="fill:#000000;fill-opacity:1;stroke-width:2;stroke-linecap:square;opacity:0.2"
         id="path3260" />
      <rect
         style="opacity:0.2;fill:#000000;fill-opacity:1;stroke-width:4;stroke-linecap:square"
         id="rect3280"
         width="20"
         height="1"
         x="418"
         y="68" />
      <path
         d="m 418,54 h 14 l 2,7 -2,7 h -14 z"
         style="fill:#1976d2;fill-opacity:1;stroke-width:2;stroke-linecap:square"
         id="path3232" />
      <path
         d="m 432,54 h 14 V 82 L 432,68 Z"
         style="fill:#ef5350;fill-opacity:1;stroke-width:2;stroke-linecap:square"
         id="path3204" />
    </g>
    <g
       id="g2942"
       clip-path="url(#clipPath2953)">
      <rect
         style="opacity:0.2;fill:#000000;fill-opacity:1;stroke-width:4;stroke-linecap:square"
         id="rect2908"
         width="24"
         height="1"
         x="291"
         y="244" />
      <path
         d="m 312,224 h 21 v 42 l -21,-21 z"
         style="opacity:0.2;fill:#000000;stroke-width:2;stroke-linecap:square"
         id="path2918" />
      <path
         d="m 291,223 h 21 l 3,10.5 -3,10.5 h -21 z"
         style="fill:#1976d2;fill-opacity:1;stroke-width:2;stroke-linecap:square"
         id="path2888" />
      <path
         d="m 312,223 h 21 v 42 l -21,-21 z"
         style="fill:#ef5350;fill-opacity:1;stroke-width:2;stroke-linecap:square"
         id="path2860" />
    </g>
    <g
       id="g1229"
       clip-path="url(#clipPath2474)">
      <path
         d="m 292,144 h 28 l 4,14 -4,14 h -28 z"
         style="fill:#1976d2;fill-opacity:1;stroke-width:4;stroke-linecap:square"
         id="path1095" />
      <path
         d="m 320,145 h 28 v 56 l -28,-28 z"
         style="fill:#000000;fill-opacity:1;stroke-width:4;stroke-linecap:square;opacity:0.2"
         id="path1151" />
      <rect
         style="opacity:0.2;fill:#000000;fill-opacity:1;stroke-width:4;stroke-linecap:square"
         id="rect1223"
         width="30"
         height="1"
         x="292"
         y="172" />
      <path
         d="m 320,144 h 28 v 56 l -28,-28 z"
         style="fill:#ef5350;fill-opacity:1;stroke-width:4;stroke-linecap:square"
         id="path1123" />
    </g>
    <g
       id="g2850"
       clip-path="url(#clipPath2957)">
      <path
         d="m 336,35 h 42 v 84 L 336,77.000002 Z"
         style="opacity:0.2;fill:#000000;stroke-width:4;stroke-linecap:square"
         id="path2548" />
      <rect
         style="opacity:0.2;fill:#000000;fill-opacity:1;stroke-width:4;stroke-linecap:square"
         id="rect2844"
         width="46"
         height="1"
         x="294"
         y="76" />
      <path
         d="m 294,34 h 42 l 6,21 -6,21 h -42 z"
         style="fill:#1976d2;fill-opacity:1;stroke-width:4;stroke-linecap:square"
         id="path2489" />
      <path
         d="m 336,34 h 42 v 84 L 336,76 Z"
         style="fill:#ef5350;fill-opacity:1;stroke-width:4;stroke-linecap:square"
         id="path2520" />
    </g>
    <g
       id="g2099"
       transform="matrix(4,0,0,4,-1136,-532)"
       clip-path="url(#clipPath2270)">
      <rect
         style="opacity:0.2;fill:#000000;fill-opacity:1;stroke-width:4;stroke-linecap:square"
         id="rect1231"
         width="30"
         height="0.5"
         x="292"
         y="172" />
      <path
         d="m 292,144 h 28 l 4,14 -4,14 h -28 z"
         style="opacity:1;fill:#1976d2;fill-opacity:1;stroke-width:4;stroke-linecap:square"
         id="path1244" />
      <path
         id="path1272"
         style="opacity:0.2;stroke-width:4;stroke-linecap:square"
         d="m 320,144.5 v 28 l 28,28 v -56 z" />
      <path
         d="m 320,144 v 28 l 28,28 v -56 z"
         style="opacity:1;fill:#ef5350;fill-opacity:1;stroke-width:4;stroke-linecap:square"
         id="path1301" />
    </g>
  </g>
  <g
     id="Highlights">
    <path
       id="rect653"
       style="opacity:0.2;fill:#ffffff"
       d="M 80,44 C 53.408027,44 32,65.408027 32,92 v 2 C 32,67.408027 53.408027,46 80,46 h 128 c 26.59197,0 48,21.408027 48,48 V 92 C 256,65.408027 234.59197,44 208,44 Z"
       sodipodi:nodetypes="sscsscsss" />
    <path
       id="rect773"
       style="opacity:0.2;fill:#ffffff"
       d="m 312,34 c -9.97199,0 -18,8.02801 -18,18 v 1 c 0,-9.97199 8.02801,-18 18,-18 h 48 c 9.97199,0 18,8.02801 18,18 v -1 c 0,-9.97199 -8.02801,-18 -18,-18 z" />
    <path
       id="rect1135"
       style="opacity:0.2;fill:#ffffff;fill-opacity:1"
       d="m 304,144 c -6.64799,0 -12,5.35201 -12,12 v 1 c 0,-6.64799 5.35201,-12 12,-12 h 32 c 6.64799,0 12,5.35201 12,12 v -1 c 0,-6.64799 -5.35201,-12 -12,-12 z" />
    <path
       id="rect1265"
       style="opacity:0.2;fill:#ffffff;fill-opacity:1"
       d="m 300,223 c -4.986,0 -9,4.014 -9,9 v 1 c 0,-4.986 4.014,-9 9,-9 h 24 c 4.986,0 9,4.014 9,9 v -1 c 0,-4.986 -4.014,-9 -9,-9 z" />
    <path
       id="rect1368"
       style="opacity:0.2;fill:#ffffff;fill-opacity:1"
       d="m 424,54 c -3.324,0 -6,2.676003 -6,6 v 1 c 0,-3.323997 2.676,-6 6,-6 h 16 c 3.324,0 6,2.676003 6,6 v -1 c 0,-3.323997 -2.676,-6 -6,-6 z" />
    <path
       id="rect1402"
       style="opacity:0.2;fill:#ffffff;fill-opacity:1"
       d="m 420,140 c -2.216,0 -4,1.784 -4,4 v 1 c 0,-2.216 1.784,-4 4,-4 h 8 c 2.216,0 4,1.784 4,4 v -1 c 0,-2.216 -1.784,-4 -4,-4 z" />
    <path
       id="rect1436"
       style="opacity:0.2;fill:#ffffff;fill-opacity:1"
       d="m 422,102 c -2.216,0 -4,1.784 -4,4 v 1 c 0,-2.216 1.784,-4 4,-4 h 12 c 2.216,0 4,1.784 4,4 v -1 c 0,-2.216 -1.784,-4 -4,-4 z" />
  </g>
</svg>
