<?xml version="1.0" encoding="UTF-8" standalone="no"?>
<!-- Created with Inkscape (http://www.inkscape.org/) -->

<svg
   width="480"
   height="300"
   viewBox="0 0 480 300"
   version="1.1"
   id="svg5"
   inkscape:version="1.2.2 (1:1.2.2+202305151914+b0a8486541)"
   sodipodi:docname="dolphin-emu.svg"
   xmlns:inkscape="http://www.inkscape.org/namespaces/inkscape"
   xmlns:sodipodi="http://sodipodi.sourceforge.net/DTD/sodipodi-0.dtd"
   xmlns="http://www.w3.org/2000/svg"
   xmlns:svg="http://www.w3.org/2000/svg">
  <sodipodi:namedview
     id="namedview7"
     pagecolor="#888888"
     bordercolor="#000000"
     borderopacity="0.25"
     inkscape:showpageshadow="true"
     inkscape:pageopacity="0"
     inkscape:pagecheckerboard="0"
     inkscape:deskcolor="#888888"
     inkscape:document-units="px"
     showgrid="false"
     showborder="false"
     inkscape:zoom="2.6866667"
     inkscape:cx="240.07444"
     inkscape:cy="150"
     inkscape:window-width="1920"
     inkscape:window-height="1008"
     inkscape:window-x="0"
     inkscape:window-y="0"
     inkscape:window-maximized="1"
     inkscape:current-layer="svg5" />
  <defs
     id="defs2" />
  <g
     id="Baseplate"
     style="display:none">
    <text
       y="19.774782"
       xml:space="preserve"
       x="15.006946"
       style="font-style:normal;font-variant:normal;font-weight:normal;font-stretch:normal;line-height:0%;font-family:'DejaVu Sans';-inkscape-font-specification:'DejaVu Sans';display:inline;fill:#000000;fill-opacity:1;stroke:none;enable-background:new"
       inkscape:label="context"
       id="context"><tspan
         style="font-style:normal;font-variant:normal;font-weight:normal;font-stretch:normal;font-size:18px;line-height:1.25;font-family:'DejaVu Sans';-inkscape-font-specification:'DejaVu Sans'"
         y="19.774782"
         x="15.006946"
         sodipodi:role="line"
         id="tspan3933">apps</tspan></text>
    <text
       y="19.774782"
       xml:space="preserve"
       x="122.48839"
       style="font-style:normal;font-variant:normal;font-weight:bold;font-stretch:normal;line-height:0%;font-family:'DejaVu Sans';-inkscape-font-specification:'DejaVu Sans Bold';text-align:start;writing-mode:lr-tb;text-anchor:start;display:inline;fill:#000000;fill-opacity:1;stroke:none;enable-background:new"
       inkscape:label="icon-name"
       id="icon-name"><tspan
         style="font-style:normal;font-variant:normal;font-weight:bold;font-stretch:normal;font-size:18px;line-height:1.25;font-family:'DejaVu Sans';-inkscape-font-specification:'DejaVu Sans Bold'"
         y="19.774782"
         x="122.48839"
         sodipodi:role="line"
         id="tspan3937">dolphin-emu</tspan></text>
    <rect
       style="fill:#ffffff"
       id="256x256"
       width="256"
       height="256"
       x="16"
       y="28" />
    <rect
       style="fill:#ffffff"
       id="96x96"
       width="96"
       height="96"
       x="288"
       y="28" />
    <rect
       style="fill:#ffffff"
       id="64x64"
       width="64"
       height="64"
       x="288"
       y="140" />
    <rect
       style="fill:#ffffff"
       id="48x48"
       width="48"
       height="48"
       x="288"
       y="220" />
    <rect
       style="fill:#ffffff"
       id="32x32"
       width="32"
       height="32"
       x="416"
       y="52" />
    <rect
       style="fill:#ffffff"
       id="24x24"
       width="24"
       height="24"
       x="416"
       y="100" />
    <rect
       style="fill:#ffffff"
       id="22x22"
       width="22"
       height="22"
       x="417"
       y="101" />
    <rect
       style="fill:#ffffff"
       id="16x16"
       width="16"
       height="16"
       x="416"
       y="140" />
  </g>
  <g
     id="Shadow"
     style="display:inline">
    <rect
       style="opacity:0.2;fill:#000000"
       id="rect651"
       width="224"
       height="224"
       x="32"
       y="46"
       ry="48" />
    <rect
       style="opacity:0.2;fill:#000000"
       id="rect769"
       width="84"
       height="85"
       x="294"
       y="34"
       ry="18" />
    <rect
       style="opacity:0.2;fill:#000000;fill-opacity:1"
       id="rect1131"
       width="56"
       height="56"
       x="292"
       y="145"
       ry="12" />
    <rect
       style="opacity:0.2;fill:#000000;fill-opacity:1"
       id="rect1261"
       width="42"
       height="42"
       x="291"
       y="224"
       ry="9" />
    <rect
       style="opacity:0.2;fill:#000000;fill-opacity:1"
       id="rect1364"
       width="28"
       height="29"
       x="418"
       y="54"
       ry="6" />
    <rect
       style="opacity:0.2;fill:#000000;fill-opacity:1"
       id="rect1398"
       width="16"
       height="16"
       x="416"
       y="141"
       ry="4" />
    <rect
       style="opacity:0.2;fill:#000000;fill-opacity:1"
       id="rect1432"
       width="20"
       height="20"
       x="418"
       y="103"
       ry="4" />
  </g>
  <g
     id="Background">
    <rect
       style="fill:#0096f4;fill-opacity:1"
       id="rect597"
       width="224"
       height="224"
       x="32"
       y="44"
       ry="48" />
    <rect
       style="opacity:1;fill:#0096f4;fill-opacity:1"
       id="rect771"
       width="84"
       height="84"
       x="294"
       y="34"
       ry="18" />
    <rect
       style="opacity:1;fill:#0096f4;fill-opacity:1"
       id="rect1133"
       width="56"
       height="56"
       x="292"
       y="144"
       ry="12" />
    <rect
       style="opacity:1;fill:#0096f4;fill-opacity:1"
       id="rect1263"
       width="42"
       height="42"
       x="291"
       y="223"
       ry="9" />
    <rect
       style="opacity:1;fill:#0096f4;fill-opacity:1"
       id="rect1366"
       width="28"
       height="28"
       x="418"
       y="54"
       ry="6" />
    <rect
       style="opacity:1;fill:#0096f4;fill-opacity:1"
       id="rect1400"
       width="16"
       height="16"
       x="416"
       y="140"
       ry="4" />
    <rect
       style="opacity:1;fill:#0096f4;fill-opacity:1"
       id="rect1434"
       width="20"
       height="20"
       x="418"
       y="102"
       ry="4" />
  </g>
  <g
     id="g1614">
    <g
       id="g2338">
      <path
         d="m 426.20542,145.50394 c -0.69976,0.0448 -1.32742,0.45397 -1.44492,0.51165 -0.37622,-0.1078 -0.80637,-0.33232 -1.30849,-0.4176 -1.73813,-0.2947 -3.20902,0.17558 -3.94716,0.68848 -0.96688,0.67092 -0.94055,1.4255 -1.0208,1.73838 -0.0494,0.19438 -0.48909,0.55179 -0.48408,0.80386 0.009,0.32856 0.2132,0.4339 0.2132,0.4339 0.18434,-0.0146 0.46023,-0.14672 0.69474,-0.24329 0.34988,-0.14421 0.37622,-0.22197 1.33107,-0.36368 0.43892,-0.0656 0.90167,-0.085 1.24528,-0.0879 0.13418,0.28342 0.46651,0.8653 1.04338,1.14371 0.34236,0.15801 0.85778,0.22824 1.08602,0.27339 l 0.6659,0.0988 v -0.26961 h -8.5e-4 c 0,0 -0.55931,-0.232 -0.90293,-0.57562 -0.14547,-0.14547 -0.14672,-0.31853 -0.18685,-0.49285 0.53047,0.0998 1.00199,0.17558 2.12049,0.60321 1.02959,0.39377 1.73299,0.96688 1.73374,0.96813 l 8.6e-4,8.5e-4 0.002,0.002 v -0.26962 l -0.003,-0.002 c -0.009,-0.0116 -0.7311,-0.90543 -1.94378,-1.50437 -1.00325,-0.4941 -1.8263,-0.73864 -2.96686,-0.79508 -1.18509,-0.0574 -1.97214,0.0803 -2.05779,0.0946 0.10157,-0.2019 0.30724,-0.46149 0.86029,-0.72108 0.81889,-0.38375 2.10531,-0.4477 3.5831,-0.0711 2.08776,0.53297 2.79969,1.43953 3.69773,2.37669 0.95559,0.99698 1.78051,2.67191 1.78152,2.67391 l 8.5e-4,0.002 0.002,0.004 v -0.27088 l -0.008,-0.0209 c -0.0399,-0.13418 -0.28844,-0.94055 -0.70729,-1.71455 -0.55179,-1.01955 -1.02708,-1.74803 -1.81914,-2.48806 -0.55179,-0.41132 -1.1136,-0.97314 -1.0183,-1.21518 0.24831,-0.32731 0.92299,-0.5267 0.9255,-0.52795 h 0.002 v -8.6e-4 -0.26837 c 0,0 -0.42638,-0.14547 -1.17128,-0.0971 z m 0.83646,4.8087 c 0,0 0.007,0.006 0,0 z"
         style="fill:#000000;stroke-width:0.857259;opacity:0.2"
         id="path2316" />
      <path
         d="m 426.20542,145.00394 c -0.69976,0.0448 -1.32742,0.45397 -1.44492,0.51165 -0.37622,-0.1078 -0.80637,-0.33232 -1.30849,-0.4176 -1.73813,-0.2947 -3.20902,0.17558 -3.94716,0.68848 -0.96688,0.67092 -0.94055,1.4255 -1.0208,1.73838 -0.0494,0.19438 -0.48909,0.55179 -0.48408,0.80386 0.009,0.32856 0.2132,0.4339 0.2132,0.4339 0.18434,-0.0146 0.46023,-0.14672 0.69474,-0.24329 0.34988,-0.14421 0.37622,-0.22197 1.33107,-0.36368 0.43892,-0.0656 0.90167,-0.085 1.24528,-0.0879 0.13418,0.28342 0.46651,0.8653 1.04338,1.14371 0.34236,0.15801 0.85778,0.22824 1.08602,0.27339 l 0.6659,0.0988 v -0.26961 h -8.5e-4 c 0,0 -0.55931,-0.232 -0.90293,-0.57562 -0.14547,-0.14547 -0.14672,-0.31853 -0.18685,-0.49285 0.53047,0.0998 1.00199,0.17558 2.12049,0.60321 1.02959,0.39377 1.73299,0.96688 1.73374,0.96813 l 8.6e-4,8.5e-4 0.002,0.002 v -0.26962 l -0.003,-0.002 c -0.009,-0.0116 -0.7311,-0.90543 -1.94378,-1.50437 -1.00325,-0.4941 -1.8263,-0.73864 -2.96686,-0.79508 -1.18509,-0.0574 -1.97214,0.0803 -2.05779,0.0946 0.10157,-0.2019 0.30724,-0.46149 0.86029,-0.72108 0.81889,-0.38375 2.10531,-0.4477 3.5831,-0.0711 2.08776,0.53297 2.79969,1.43953 3.69773,2.37669 0.95559,0.99698 1.78051,2.67191 1.78152,2.67391 l 8.5e-4,0.002 0.002,0.004 v -0.27088 l -0.008,-0.0209 c -0.0399,-0.13418 -0.28844,-0.94055 -0.70729,-1.71455 -0.55179,-1.01955 -1.02708,-1.74803 -1.81914,-2.48806 -0.55179,-0.41132 -1.1136,-0.97314 -1.0183,-1.21518 0.24831,-0.32731 0.92299,-0.5267 0.9255,-0.52795 h 0.002 v -8.6e-4 -0.26837 c 0,0 -0.42638,-0.14547 -1.17128,-0.0971 z m 0.83646,4.8087 c 0,0 0.007,0.006 0,0 z"
         style="fill:#ffffff;stroke-width:0.857259"
         id="path2288"
         sodipodi:nodetypes="cccccccccccccccsccccccccccccccccccscccccccccc" />
    </g>
    <g
       id="g2062">
      <path
         d="m 430.57311,108.5047 c -0.8164,0.0523 -1.54868,0.52964 -1.68577,0.59694 -0.43893,-0.12577 -0.94077,-0.38772 -1.52659,-0.48721 -2.02785,-0.34382 -3.74391,0.20484 -4.60509,0.80324 -1.12804,0.78275 -1.09732,1.6631 -1.19095,2.02814 -0.0576,0.22678 -0.57061,0.64376 -0.56476,0.93784 0.01,0.38333 0.24873,0.50623 0.24873,0.50623 0.21507,-0.017 0.53695,-0.17118 0.81055,-0.28384 0.4082,-0.16825 0.43893,-0.25897 1.55293,-0.4243 0.51208,-0.0765 1.05196,-0.0992 1.45285,-0.10256 0.15655,0.33066 0.54427,1.00953 1.21729,1.33434 0.39943,0.18435 1.00076,0.26628 1.26704,0.31896 l 0.7769,0.11524 v -0.31456 h -9.9e-4 c 0,0 -0.65254,-0.27067 -1.05343,-0.67156 -0.16972,-0.16972 -0.17118,-0.37163 -0.218,-0.575 0.61889,0.11645 1.16901,0.20484 2.47394,0.70375 1.2012,0.45941 2.02185,1.12805 2.02273,1.12951 l 10e-4,9.9e-4 0.002,0.002 v -0.31456 l -0.003,-0.002 c -0.0108,-0.0135 -0.85297,-1.05635 -2.26778,-1.75513 -1.17048,-0.57646 -2.13071,-0.86176 -3.46139,-0.9276 -1.38262,-0.067 -2.30086,0.0937 -2.40079,0.11038 0.1185,-0.23556 0.35846,-0.53842 1.00369,-0.84128 0.95539,-0.44771 2.45623,-0.52232 4.18034,-0.083 2.43576,0.62181 3.26636,1.67948 4.31408,2.77285 1.11487,1.16316 2.07729,3.11727 2.07847,3.11961 l 9.9e-4,0.002 0.002,0.005 v -0.31603 l -0.009,-0.0244 c -0.0465,-0.15655 -0.33651,-1.09732 -0.82518,-2.00034 -0.64376,-1.18949 -1.19828,-2.0394 -2.12236,-2.90277 -0.64376,-0.47989 -1.29922,-1.13535 -1.18803,-1.41773 0.2897,-0.38187 1.07684,-0.6145 1.07976,-0.61596 h 0.002 v -10e-4 -0.3131 c 0,0 -0.49745,-0.16972 -1.36652,-0.1133 z m 0.97588,5.61023 c 0,0 0.008,0.007 0,0 z"
         style="fill:#000000;stroke-width:1.00015;opacity:0.2"
         id="path1985"
         sodipodi:nodetypes="cccccccccccccccscccccccccccccsccccscccccccccc" />
      <path
         d="m 430.57311,108.0047 c -0.8164,0.0523 -1.54868,0.52964 -1.68577,0.59694 -0.43893,-0.12577 -0.94077,-0.38772 -1.52659,-0.48721 -2.02785,-0.34382 -3.74391,0.20484 -4.60509,0.80324 -1.12804,0.78275 -1.09732,1.6631 -1.19095,2.02814 -0.0576,0.22678 -0.57061,0.64376 -0.56476,0.93784 0.01,0.38333 0.24873,0.50623 0.24873,0.50623 0.21507,-0.017 0.53695,-0.17118 0.81055,-0.28384 0.4082,-0.16825 0.43893,-0.25897 1.55293,-0.4243 0.51208,-0.0765 1.05196,-0.0992 1.45285,-0.10256 0.15655,0.33066 0.54427,1.00953 1.21729,1.33434 0.39943,0.18435 1.00076,0.26628 1.26704,0.31896 l 0.7769,0.11524 v -0.31456 h -9.9e-4 c 0,0 -0.65254,-0.27067 -1.05343,-0.67156 -0.16972,-0.16972 -0.17118,-0.37163 -0.218,-0.575 0.61889,0.11645 1.16901,0.20484 2.47394,0.70375 1.2012,0.45941 2.02185,1.12805 2.02273,1.12951 l 10e-4,9.9e-4 0.002,0.002 v -0.31456 l -0.003,-0.002 c -0.0108,-0.0135 -0.85297,-1.05635 -2.26778,-1.75513 -1.17048,-0.57646 -2.13071,-0.86176 -3.46139,-0.9276 -1.38262,-0.067 -2.30086,0.0937 -2.40079,0.11038 0.1185,-0.23556 0.35846,-0.53842 1.00369,-0.84128 0.95539,-0.44771 2.45623,-0.52232 4.18034,-0.083 2.43576,0.62181 3.26636,1.67948 4.31408,2.77285 1.11487,1.16316 2.07729,3.11727 2.07847,3.11961 l 9.9e-4,0.002 0.002,0.005 v -0.31603 l -0.009,-0.0244 c -0.0465,-0.15655 -0.33651,-1.09732 -0.82518,-2.00034 -0.64376,-1.18949 -1.19828,-2.0394 -2.12236,-2.90277 -0.64376,-0.47989 -1.29922,-1.13535 -1.18803,-1.41773 0.2897,-0.38187 1.07684,-0.6145 1.07976,-0.61596 h 0.002 v -10e-4 -0.3131 c 0,0 -0.49745,-0.16972 -1.36652,-0.1133 z m 0.97588,5.61023 c 0,0 0.008,0.007 0,0 z"
         style="fill:#ffffff;stroke-width:1.00015"
         id="path2040"
         sodipodi:nodetypes="cccccccccccccccscccccccccccccsccccscccccccccc" />
    </g>
    <g
       id="g1838">
      <path
         d="m 435.67232,63.999615 c -1.16504,0.07474 -2.21132,0.757584 -2.40686,0.849722 -0.62449,-0.184277 -1.34317,-0.552831 -2.17959,-0.696157 -2.89622,-0.491406 -5.34608,0.29689 -6.57664,1.146612 -1.61242,1.118971 -1.56738,2.375127 -1.70047,2.896221 -0.0823,0.327604 -0.81901,0.921385 -0.80877,1.33908 0.0143,0.542594 0.35832,0.726871 0.35832,0.726871 0.30713,-0.02426 0.76782,-0.245703 1.1589,-0.409505 0.58354,-0.235465 0.62449,-0.368554 2.21746,-0.604019 0.72687,-0.112614 1.50186,-0.143327 2.07517,-0.143327 0.22522,0.47093 0.77806,1.440432 1.73937,1.90522 0.5733,0.266178 1.42917,0.378792 1.80898,0.450455 l 1.10976,0.163802 v -0.450455 h -10e-4 c 0,0 -0.93162,-0.389029 -1.50493,-0.962336 -0.2457,-0.245702 -0.2457,-0.532356 -0.30713,-0.819009 0.88044,0.163802 1.67078,0.296891 3.533,1.003286 1.71583,0.655208 2.88701,1.611401 2.88803,1.612424 l 10e-4,0.0014 0.003,0.0028 v -0.450455 l -0.004,-0.0028 c -0.0156,-0.01935 -1.21725,-1.509025 -3.23815,-2.506168 -1.67078,-0.819009 -3.04262,-1.231585 -4.94272,-1.323723 -1.97381,-0.09572 -3.28525,0.133088 -3.42858,0.153564 0.17404,-0.337842 0.51188,-0.90091 1.43224,-1.333961 1.36365,-0.634732 3.50741,-0.747346 5.96955,-0.122852 3.47772,0.890673 4.66426,2.530738 6.15998,4.092998 1.59195,1.660541 2.96686,4.451314 2.96788,4.454386 l 10e-4,0.0029 0.003,0.007 v -0.450493 l -0.0126,-0.03491 c -0.0665,-0.225228 -0.48117,-1.567379 -1.17835,-2.856295 -0.92138,-1.69842 -1.71173,-2.912601 -3.03033,-4.145209 -0.92139,-0.68592 -1.85608,-1.620614 -1.69637,-2.023976 0.4095,-0.542594 1.53666,-0.880435 1.54076,-0.880435 h 0.003 v -0.0013 -0.450455 c 0,0 -0.7064,-0.245703 -1.95129,-0.163802 z m 1.39334,8.010933 c 0,0 0.0112,0.0097 0,0 z"
         style="fill:#000000;stroke-width:0.999748;opacity:0.2"
         id="path1816" />
      <path
         d="m 435.67232,62.999615 c -1.16504,0.07474 -2.21132,0.757584 -2.40686,0.849722 -0.62449,-0.184277 -1.34317,-0.552831 -2.17959,-0.696157 -2.89622,-0.491406 -5.34608,0.29689 -6.57664,1.146612 -1.61242,1.118971 -1.56738,2.375127 -1.70047,2.896221 -0.0823,0.327604 -0.81901,0.921385 -0.80877,1.33908 0.0143,0.542594 0.35832,0.726871 0.35832,0.726871 0.30713,-0.02426 0.76782,-0.245703 1.1589,-0.409505 0.58354,-0.235465 0.62449,-0.368554 2.21746,-0.604019 0.72687,-0.112614 1.50186,-0.143327 2.07517,-0.143327 0.22522,0.47093 0.77806,1.440432 1.73937,1.90522 0.5733,0.266178 1.42917,0.378792 1.80898,0.450455 l 1.10976,0.163802 v -0.450455 h -10e-4 c 0,0 -0.93162,-0.389029 -1.50493,-0.962336 -0.2457,-0.245702 -0.2457,-0.532356 -0.30713,-0.819009 0.88044,0.163802 1.67078,0.296891 3.533,1.003286 1.71583,0.655208 2.88701,1.611401 2.88803,1.612424 l 10e-4,0.0014 0.003,0.0028 v -0.450455 l -0.004,-0.0028 c -0.0156,-0.01935 -1.21725,-1.509025 -3.23815,-2.506168 -1.67078,-0.819009 -3.04262,-1.231585 -4.94272,-1.323723 -1.97381,-0.09572 -3.28525,0.133088 -3.42858,0.153564 0.17404,-0.337842 0.51188,-0.90091 1.43224,-1.333961 1.36365,-0.634732 3.50741,-0.747346 5.96955,-0.122852 3.47772,0.890673 4.66426,2.530738 6.15998,4.092998 1.59195,1.660541 2.96686,4.451314 2.96788,4.454386 l 10e-4,0.0029 0.003,0.007 v -0.450493 l -0.0126,-0.03491 c -0.0665,-0.225228 -0.48117,-1.567379 -1.17835,-2.856295 -0.92138,-1.69842 -1.71173,-2.912601 -3.03033,-4.145209 -0.92139,-0.68592 -1.85608,-1.620614 -1.69637,-2.023976 0.4095,-0.542594 1.53666,-0.880435 1.54076,-0.880435 h 0.003 v -0.0013 -0.450455 c 0,0 -0.7064,-0.245703 -1.95129,-0.163802 z m 1.39334,8.010933 c 0,0 0.0112,0.0097 0,0 z"
         style="fill:#ffffff;stroke-width:0.999748"
         id="path1761"
         sodipodi:nodetypes="cccccccccccccccsccccccccsccccscccccccsccccccc" />
    </g>
    <g
       id="g1313">
      <path
         d="m 317.50881,238.15122 c -1.74785,0.11136 -3.31816,1.13473 -3.61172,1.27873 -0.94132,-0.2688 -2.01454,-0.83022 -3.27066,-1.04334 -4.34461,-0.73729 -8.02127,0.43931 -9.86636,1.71996 -2.41835,1.67849 -2.35146,3.56319 -2.55083,4.34548 -0.12365,0.48462 -1.22263,1.38012 -1.2095,2.00873 0.0215,0.82062 0.53441,1.08482 0.53441,1.08482 0.46148,-0.0364 1.14982,-0.3648 1.7381,-0.60749 0.87323,-0.36097 0.9407,-0.55413 3.32714,-0.9101 1.09791,-0.16512 2.25342,-0.2112 3.11372,-0.21888 0.33485,0.70695 1.1673,2.16156 2.60943,2.85854 0.85572,0.39399 2.14453,0.56986 2.71402,0.68237 l 1.66569,0.24577 v -0.67393 h -0.002 c 0,0 -1.39789,-0.57985 -2.25784,-1.43964 -0.36287,-0.36481 -0.36633,-0.7972 -0.46663,-1.23035 1.32523,0.2496 2.50593,0.43853 5.30042,1.50876 2.57379,0.98574 4.33164,2.41731 4.33366,2.41923 l 0.002,0.002 0.005,0.005 v -0.67393 l -0.006,-0.005 c -0.0234,-0.029 -1.82642,-2.26487 -4.8589,-3.76057 -2.50624,-1.23611 -4.56491,-1.84744 -7.41598,-1.98607 -2.96097,-0.14208 -4.92938,0.19968 -5.14348,0.23808 0.25381,-0.50458 0.76821,-1.37896 2.14905,-2.02678 2.04576,-0.95963 5.26242,-1.12014 8.95611,-0.17664 5.21837,1.33135 6.99809,3.82315 9.24278,6.16585 2.38774,2.49182 4.45055,6.67897 4.45293,6.68385 l 0.002,0.004 0.005,0.0105 v -0.67815 l -0.0188,-0.0538 c -0.0998,-0.33412 -0.72018,-2.35169 -1.76822,-4.28573 -1.38068,-2.54788 -2.56864,-4.36944 -4.5471,-6.21923 -1.38033,-1.02952 -2.78472,-2.43153 -2.54453,-3.03633 0.62115,-0.81717 2.30603,-1.31715 2.31226,-1.31829 h 0.005 v -0.002 -0.67163 c 0,0 -1.06509,-0.36097 -2.92749,-0.24193 z m 2.09046,12.01998 c 0,0 0.0167,0.0147 0,0 z"
         style="fill:#000000;stroke-width:0.749985;opacity:0.2"
         id="path1291" />
      <path
         d="m 317.50881,237.15122 c -1.74785,0.11136 -3.31816,1.13473 -3.61172,1.27873 -0.94132,-0.2688 -2.01454,-0.83022 -3.27066,-1.04334 -4.34461,-0.73729 -8.02127,0.43931 -9.86636,1.71996 -2.41835,1.67849 -2.35146,3.56319 -2.55083,4.34548 -0.12365,0.48462 -1.22263,1.38012 -1.2095,2.00873 0.0215,0.82062 0.53441,1.08482 0.53441,1.08482 0.46148,-0.0364 1.14982,-0.3648 1.7381,-0.60749 0.87323,-0.36097 0.9407,-0.55413 3.32714,-0.9101 1.09791,-0.16512 2.25342,-0.2112 3.11372,-0.21888 0.33485,0.70695 1.1673,2.16156 2.60943,2.85854 0.85572,0.39399 2.14453,0.56986 2.71402,0.68237 l 1.66569,0.24577 v -0.67393 h -0.002 c 0,0 -1.39789,-0.57985 -2.25784,-1.43964 -0.36287,-0.36481 -0.36633,-0.7972 -0.46663,-1.23035 1.32523,0.2496 2.50593,0.43853 5.30042,1.50876 2.57379,0.98574 4.33164,2.41731 4.33366,2.41923 l 0.002,0.002 0.005,0.005 v -0.67393 l -0.006,-0.005 c -0.0234,-0.029 -1.82642,-2.26487 -4.8589,-3.76057 -2.50624,-1.23611 -4.56491,-1.84744 -7.41598,-1.98607 -2.96097,-0.14208 -4.92938,0.19968 -5.14348,0.23808 0.25381,-0.50458 0.76821,-1.37896 2.14905,-2.02678 2.04576,-0.95963 5.26242,-1.12014 8.95611,-0.17664 5.21837,1.33135 6.99809,3.82315 9.24278,6.16585 2.38774,2.49182 4.45055,6.67897 4.45293,6.68385 l 0.002,0.004 0.005,0.0105 v -0.67815 l -0.0188,-0.0538 c -0.0998,-0.33412 -0.72018,-2.35169 -1.76822,-4.28573 -1.38068,-2.54788 -2.56864,-4.36944 -4.5471,-6.21923 -1.38033,-1.02952 -2.78472,-2.43153 -2.54453,-3.03633 0.62115,-0.81717 2.30603,-1.31715 2.31226,-1.31829 h 0.005 v -0.002 -0.67163 c 0,0 -1.06509,-0.36097 -2.92749,-0.24193 z m 2.09046,12.01998 c 0,0 0.0167,0.0147 0,0 z"
         style="fill:#ffffff;stroke-width:0.749985"
         id="path1263"
         sodipodi:nodetypes="cccscccccccccccccssccccscccccsccccscccccccccc" />
    </g>
    <g
       id="g1062">
      <path
         d="m 327.34558,162.98793 c -2.33047,0.14848 -4.42421,1.51298 -4.81563,1.70498 -1.25509,-0.3584 -2.68605,-1.10696 -4.36088,-1.39112 -5.79281,-0.98305 -10.69502,0.58574 -13.15514,2.29328 -3.22447,2.23798 -3.13528,4.75091 -3.4011,5.79397 -0.16487,0.64616 -1.63018,1.84016 -1.61267,2.67831 0.0287,1.09416 0.71254,1.44642 0.71254,1.44642 0.61531,-0.0485 1.5331,-0.4864 2.31747,-0.80999 1.16431,-0.48129 1.25427,-0.73883 4.43619,-1.21346 1.46388,-0.22016 3.00456,-0.2816 4.15163,-0.29184 0.44646,0.9426 1.5564,2.88208 3.47923,3.81138 1.14097,0.52532 2.85937,0.75982 3.61869,0.90983 l 2.22092,0.32769 v -0.89857 h -0.003 c 0,0 -1.86385,-0.77313 -3.01045,-1.91952 -0.48383,-0.48641 -0.48844,-1.06293 -0.62217,-1.64047 1.76697,0.33281 3.34124,0.58471 7.06722,2.01168 3.43172,1.31432 5.77553,3.22308 5.77822,3.22564 l 0.003,0.003 0.006,0.006 v -0.89857 l -0.008,-0.006 c -0.0312,-0.0387 -2.43523,-3.01982 -6.47853,-5.01409 -3.34166,-1.64815 -6.08655,-2.46326 -9.88798,-2.6481 -3.94796,-0.18944 -6.5725,0.26625 -6.85797,0.31745 0.33842,-0.67278 1.02428,-1.83862 2.8654,-2.70238 2.72768,-1.2795 7.01656,-1.49352 11.94148,-0.23552 6.95782,1.77513 9.33078,5.09754 12.3237,8.22114 3.18366,3.32242 5.93407,8.90529 5.93725,8.91179 l 0.003,0.006 0.006,0.014 v -0.9042 l -0.0251,-0.0717 c -0.13312,-0.4455 -0.96024,-3.13559 -2.35762,-5.71431 -1.84091,-3.39717 -3.42486,-5.82592 -6.0628,-8.29231 -1.84045,-1.37269 -3.71296,-3.24203 -3.39271,-4.04844 0.8282,-1.08955 3.07471,-1.75619 3.08301,-1.75772 h 0.006 v -0.003 -0.8955 c 0,0 -1.42012,-0.48129 -3.90332,-0.32257 z m 2.78728,16.02664 c 0,0 0.0223,0.0196 0,0 z"
         style="opacity:0.2;fill:#000000;stroke-width:0.99998"
         id="path635"
         sodipodi:nodetypes="cccscccccccccccccscccccscccccsccccscccccccccc" />
      <path
         d="m 327.34558,161.98793 c -2.33047,0.14848 -4.42421,1.51298 -4.81563,1.70498 -1.25509,-0.3584 -2.68605,-1.10696 -4.36088,-1.39112 -5.79281,-0.98305 -10.69502,0.58574 -13.15514,2.29328 -3.22447,2.23798 -3.13528,4.75091 -3.4011,5.79397 -0.16487,0.64616 -1.63018,1.84016 -1.61267,2.67831 0.0287,1.09416 0.71254,1.44642 0.71254,1.44642 0.61531,-0.0485 1.5331,-0.4864 2.31747,-0.80999 1.16431,-0.48129 1.25427,-0.73883 4.43619,-1.21346 1.46388,-0.22016 3.00456,-0.2816 4.15163,-0.29184 0.44646,0.9426 1.5564,2.88208 3.47923,3.81138 1.14097,0.52532 2.85937,0.75982 3.61869,0.90983 l 2.22092,0.32769 v -0.89857 h -0.003 c 0,0 -1.86385,-0.77313 -3.01045,-1.91952 -0.48383,-0.48641 -0.48844,-1.06293 -0.62217,-1.64047 1.76697,0.33281 3.34124,0.58471 7.06722,2.01168 3.43172,1.31432 5.77553,3.22308 5.77822,3.22564 l 0.003,0.003 0.006,0.006 v -0.89857 l -0.008,-0.006 c -0.0312,-0.0387 -2.43523,-3.01982 -6.47853,-5.01409 -3.34166,-1.64815 -6.08655,-2.46326 -9.88798,-2.6481 -3.94796,-0.18944 -6.5725,0.26625 -6.85797,0.31745 0.33842,-0.67278 1.02428,-1.83862 2.8654,-2.70238 2.72768,-1.2795 7.01656,-1.49352 11.94148,-0.23552 6.95782,1.77513 9.33078,5.09754 12.3237,8.22114 3.18366,3.32242 5.93407,8.90529 5.93725,8.91179 l 0.003,0.006 0.006,0.014 v -0.9042 l -0.0251,-0.0717 c -0.13312,-0.4455 -0.96024,-3.13559 -2.35762,-5.71431 -1.84091,-3.39717 -3.42486,-5.82592 -6.0628,-8.29231 -1.84045,-1.37269 -3.71296,-3.24203 -3.39271,-4.04844 0.8282,-1.08955 3.07471,-1.75619 3.08301,-1.75772 h 0.006 v -0.003 -0.8955 c 0,0 -1.42012,-0.48129 -3.90332,-0.32257 z m 2.78728,16.02664 c 0,0 0.0223,0.0196 0,0 z"
         style="fill:#ffffff;stroke-width:0.99998"
         id="path358"
         sodipodi:nodetypes="cccscccccccccccccscccccscccccsccccscccccccccc" />
    </g>
    <g
       id="g1376"
       transform="matrix(2,0,0,2,-288,-412)">
      <path
         d="m 317.5083,237.65122 c -1.74781,0.11136 -3.31808,1.13473 -3.61163,1.27873 -0.9413,-0.2688 -2.01449,-0.83022 -3.27058,-1.04334 -4.3445,-0.73729 -8.02107,0.43931 -9.86611,1.71996 -2.41829,1.67849 -2.35141,3.56319 -2.55077,4.34548 -0.12365,0.48462 -1.2226,1.38012 -1.20947,2.00873 0.0215,0.82062 0.5344,1.08482 0.5344,1.08482 0.46147,-0.0364 1.14979,-0.3648 1.73805,-0.60749 0.87321,-0.36097 0.94068,-0.55413 3.32706,-0.9101 1.09788,-0.16512 2.25336,-0.2112 3.11364,-0.21888 0.33484,0.70695 1.16727,2.16156 2.60937,2.85854 0.8557,0.39399 2.14447,0.56986 2.71395,0.68237 l 1.66565,0.24577 v -0.67393 h -0.002 c 0,0 -1.39786,-0.57985 -2.25778,-1.43964 -0.36287,-0.36481 -0.36633,-0.7972 -0.46662,-1.23035 1.32519,0.2496 2.50586,0.43853 5.30029,1.50876 2.57372,0.98574 4.33153,2.41731 4.33355,2.41923 l 0.002,0.002 0.005,0.005 v -0.67393 l -0.006,-0.005 c -0.0234,-0.029 -1.82638,-2.26487 -4.85878,-3.76057 -2.50618,-1.23611 -4.5648,-1.84744 -7.4158,-1.98607 -2.96089,-0.14208 -4.92925,0.19968 -5.14335,0.23808 0.2538,-0.50458 0.76819,-1.37896 2.149,-2.02678 2.04571,-0.95963 5.26229,-1.12014 8.95588,-0.17664 5.21824,1.33135 6.99792,3.82315 9.24255,6.16585 2.38768,2.49182 4.45044,6.67897 4.45282,6.68385 l 0.002,0.004 0.005,0.0105 v -0.67815 l -0.0188,-0.0538 c -0.0998,-0.33412 -0.72016,-2.35169 -1.76817,-4.28573 -1.38065,-2.54788 -2.56858,-4.36944 -4.54699,-6.21923 -1.38029,-1.02952 -2.78465,-2.43153 -2.54447,-3.03633 0.62114,-0.81717 2.30598,-1.31715 2.31221,-1.31829 h 0.005 v -0.002 -0.67163 c 0,0 -1.06507,-0.36097 -2.92742,-0.24193 z m 2.09041,12.01998 c 0,0 0.0167,0.0147 0,0 z"
         style="opacity:0.2;fill:#000000;stroke-width:0.749976"
         id="path1354" />
      <path
         d="m 317.5083,237.15122 c -1.74781,0.11136 -3.31808,1.13473 -3.61163,1.27873 -0.9413,-0.2688 -2.01449,-0.83022 -3.27058,-1.04334 -4.3445,-0.73729 -8.02107,0.43931 -9.86611,1.71996 -2.41829,1.67849 -2.35141,3.56319 -2.55077,4.34548 -0.12365,0.48462 -1.2226,1.38012 -1.20947,2.00873 0.0215,0.82062 0.5344,1.08482 0.5344,1.08482 0.46147,-0.0364 1.14979,-0.3648 1.73805,-0.60749 0.87321,-0.36097 0.94068,-0.55413 3.32706,-0.9101 1.09788,-0.16512 2.25336,-0.2112 3.11364,-0.21888 0.33484,0.70695 1.16727,2.16156 2.60937,2.85854 0.8557,0.39399 2.14447,0.56986 2.71395,0.68237 l 1.66565,0.24577 v -0.67393 h -0.002 c 0,0 -1.39786,-0.57985 -2.25778,-1.43964 -0.36287,-0.36481 -0.36633,-0.7972 -0.46662,-1.23035 1.32519,0.2496 2.50586,0.43853 5.30029,1.50876 2.57372,0.98574 4.33153,2.41731 4.33355,2.41923 l 0.002,0.002 0.005,0.005 v -0.67393 l -0.006,-0.005 c -0.0234,-0.029 -1.82638,-2.26487 -4.85878,-3.76057 -2.50618,-1.23611 -4.5648,-1.84744 -7.4158,-1.98607 -2.96089,-0.14208 -4.92925,0.19968 -5.14335,0.23808 0.2538,-0.50458 0.76819,-1.37896 2.149,-2.02678 2.04571,-0.95963 5.26229,-1.12014 8.95588,-0.17664 5.21824,1.33135 6.99792,3.82315 9.24255,6.16585 2.38768,2.49182 4.45044,6.67897 4.45282,6.68385 l 0.002,0.004 0.005,0.0105 v -0.67815 l -0.0188,-0.0538 c -0.0998,-0.33412 -0.72016,-2.35169 -1.76817,-4.28573 -1.38065,-2.54788 -2.56858,-4.36944 -4.54699,-6.21923 -1.38029,-1.02952 -2.78465,-2.43153 -2.54447,-3.03633 0.62114,-0.81717 2.30598,-1.31715 2.31221,-1.31829 h 0.005 v -0.002 -0.67163 c 0,0 -1.06507,-0.36097 -2.92742,-0.24193 z m 2.09041,12.01998 c 0,0 0.0167,0.0147 0,0 z"
         style="fill:#ffffff;stroke-width:0.749976"
         id="path1326"
         sodipodi:nodetypes="cccscccccccccccccssccccscccccsccccscccccccccc" />
    </g>
    <g
       id="g1058"
       transform="matrix(4,0,0,4,-1136,-532)">
      <path
         d="m 327.34558,162.48793 c -2.33047,0.14848 -4.42421,1.51298 -4.81563,1.70498 -1.25509,-0.3584 -2.68605,-1.10696 -4.36088,-1.39112 -5.79281,-0.98305 -10.69502,0.58574 -13.15514,2.29328 -3.22447,2.23798 -3.13528,4.75091 -3.4011,5.79397 -0.16487,0.64616 -1.63018,1.84016 -1.61267,2.67831 0.0287,1.09416 0.71254,1.44642 0.71254,1.44642 0.61531,-0.0485 1.5331,-0.4864 2.31747,-0.80999 1.16431,-0.48129 1.25427,-0.73883 4.43619,-1.21346 1.46388,-0.22016 3.00456,-0.2816 4.15163,-0.29184 0.44646,0.9426 1.5564,2.88208 3.47923,3.81138 1.14097,0.52532 2.85937,0.75982 3.61869,0.90983 l 2.22092,0.32769 v -0.89857 h -0.003 c 0,0 -1.86385,-0.77313 -3.01045,-1.91952 -0.48383,-0.48641 -0.48844,-1.06293 -0.62217,-1.64047 1.76697,0.33281 3.34124,0.58471 7.06722,2.01168 3.43172,1.31432 5.77553,3.22308 5.77822,3.22564 l 0.003,0.003 0.006,0.006 v -0.89857 l -0.008,-0.006 c -0.0312,-0.0387 -2.43523,-3.01982 -6.47853,-5.01409 -3.34166,-1.64815 -6.08655,-2.46326 -9.88798,-2.6481 -3.94796,-0.18944 -6.5725,0.26625 -6.85797,0.31745 0.33842,-0.67278 1.02428,-1.83862 2.8654,-2.70238 2.72768,-1.2795 7.01656,-1.49352 11.94148,-0.23552 6.95782,1.77513 9.33078,5.09754 12.3237,8.22114 3.18366,3.32242 5.93407,8.90529 5.93725,8.91179 l 0.003,0.006 0.006,0.014 v -0.9042 l -0.0251,-0.0717 c -0.13312,-0.4455 -0.96024,-3.13559 -2.35762,-5.71431 -1.84091,-3.39717 -3.42486,-5.82592 -6.0628,-8.29231 -1.84045,-1.37269 -3.71296,-3.24203 -3.39271,-4.04844 0.8282,-1.08955 3.07471,-1.75619 3.08301,-1.75772 h 0.006 v -0.003 -0.8955 c 0,0 -1.42012,-0.48129 -3.90332,-0.32257 z m 2.78728,16.02664 c 0,0 0.0223,0.0196 0,0 z"
         style="opacity:0.2;fill:#000000;stroke-width:0.99998"
         id="path1036" />
      <path
         d="m 327.34558,161.98793 c -2.33047,0.14848 -4.42421,1.51298 -4.81563,1.70498 -1.25509,-0.3584 -2.68605,-1.10696 -4.36088,-1.39112 -5.79281,-0.98305 -10.69502,0.58574 -13.15514,2.29328 -3.22447,2.23798 -3.13528,4.75091 -3.4011,5.79397 -0.16487,0.64616 -1.63018,1.84016 -1.61267,2.67831 0.0287,1.09416 0.71254,1.44642 0.71254,1.44642 0.61531,-0.0485 1.5331,-0.4864 2.31747,-0.80999 1.16431,-0.48129 1.25427,-0.73883 4.43619,-1.21346 1.46388,-0.22016 3.00456,-0.2816 4.15163,-0.29184 0.44646,0.9426 1.5564,2.88208 3.47923,3.81138 1.14097,0.52532 2.85937,0.75982 3.61869,0.90983 l 2.22092,0.32769 v -0.89857 h -0.003 c 0,0 -1.86385,-0.77313 -3.01045,-1.91952 -0.48383,-0.48641 -0.48844,-1.06293 -0.62217,-1.64047 1.76697,0.33281 3.34124,0.58471 7.06722,2.01168 3.43172,1.31432 5.77553,3.22308 5.77822,3.22564 l 0.003,0.003 0.006,0.006 v -0.89857 l -0.008,-0.006 c -0.0312,-0.0387 -2.43523,-3.01982 -6.47853,-5.01409 -3.34166,-1.64815 -6.08655,-2.46326 -9.88798,-2.6481 -3.94796,-0.18944 -6.5725,0.26625 -6.85797,0.31745 0.33842,-0.67278 1.02428,-1.83862 2.8654,-2.70238 2.72768,-1.2795 7.01656,-1.49352 11.94148,-0.23552 6.95782,1.77513 9.33078,5.09754 12.3237,8.22114 3.18366,3.32242 5.93407,8.90529 5.93725,8.91179 l 0.003,0.006 0.006,0.014 v -0.9042 l -0.0251,-0.0717 c -0.13312,-0.4455 -0.96024,-3.13559 -2.35762,-5.71431 -1.84091,-3.39717 -3.42486,-5.82592 -6.0628,-8.29231 -1.84045,-1.37269 -3.71296,-3.24203 -3.39271,-4.04844 0.8282,-1.08955 3.07471,-1.75619 3.08301,-1.75772 h 0.006 v -0.003 -0.8955 c 0,0 -1.42012,-0.48129 -3.90332,-0.32257 z m 2.78728,16.02664 c 0,0 0.0223,0.0196 0,0 z"
         style="fill:#ffffff;stroke-width:0.99998"
         id="path1008" />
    </g>
  </g>
  <g
     id="Highlights">
    <path
       id="rect653"
       style="opacity:0.2;fill:#ffffff"
       d="M 80,44 C 53.408027,44 32,65.408027 32,92 v 2 C 32,67.408027 53.408027,46 80,46 h 128 c 26.59197,0 48,21.408027 48,48 V 92 C 256,65.408027 234.59197,44 208,44 Z"
       sodipodi:nodetypes="sscsscsss" />
    <path
       id="rect773"
       style="opacity:0.2;fill:#ffffff"
       d="m 312,34 c -9.97199,0 -18,8.02801 -18,18 v 1 c 0,-9.97199 8.02801,-18 18,-18 h 48 c 9.97199,0 18,8.02801 18,18 v -1 c 0,-9.97199 -8.02801,-18 -18,-18 z" />
    <path
       id="rect1135"
       style="opacity:0.2;fill:#ffffff;fill-opacity:1"
       d="m 304,144 c -6.64799,0 -12,5.35201 -12,12 v 1 c 0,-6.64799 5.35201,-12 12,-12 h 32 c 6.64799,0 12,5.35201 12,12 v -1 c 0,-6.64799 -5.35201,-12 -12,-12 z" />
    <path
       id="rect1265"
       style="opacity:0.2;fill:#ffffff;fill-opacity:1"
       d="m 300,223 c -4.986,0 -9,4.014 -9,9 v 1 c 0,-4.986 4.014,-9 9,-9 h 24 c 4.986,0 9,4.014 9,9 v -1 c 0,-4.986 -4.014,-9 -9,-9 z" />
    <path
       id="rect1368"
       style="opacity:0.2;fill:#ffffff;fill-opacity:1"
       d="m 424,54 c -3.324,0 -6,2.676003 -6,6 v 1 c 0,-3.323997 2.676,-6 6,-6 h 16 c 3.324,0 6,2.676003 6,6 v -1 c 0,-3.323997 -2.676,-6 -6,-6 z" />
    <path
       id="rect1402"
       style="opacity:0.2;fill:#ffffff;fill-opacity:1"
       d="m 420,140 c -2.216,0 -4,1.784 -4,4 v 1 c 0,-2.216 1.784,-4 4,-4 h 8 c 2.216,0 4,1.784 4,4 v -1 c 0,-2.216 -1.784,-4 -4,-4 z" />
    <path
       id="rect1436"
       style="opacity:0.2;fill:#ffffff;fill-opacity:1"
       d="m 422,102 c -2.216,0 -4,1.784 -4,4 v 1 c 0,-2.216 1.784,-4 4,-4 h 12 c 2.216,0 4,1.784 4,4 v -1 c 0,-2.216 -1.784,-4 -4,-4 z" />
  </g>
</svg>
