<?xml version="1.0" encoding="UTF-8" standalone="no"?>
<!-- Created with Inkscape (http://www.inkscape.org/) -->

<svg
   width="480"
   height="300"
   viewBox="0 0 480 300"
   version="1.1"
   id="svg5"
   inkscape:version="1.2.2 (1:1.2.2+202305151914+b0a8486541)"
   sodipodi:docname="easytag.svg"
   xmlns:inkscape="http://www.inkscape.org/namespaces/inkscape"
   xmlns:sodipodi="http://sodipodi.sourceforge.net/DTD/sodipodi-0.dtd"
   xmlns="http://www.w3.org/2000/svg"
   xmlns:svg="http://www.w3.org/2000/svg">
  <sodipodi:namedview
     id="namedview7"
     pagecolor="#888888"
     bordercolor="#000000"
     borderopacity="0.25"
     inkscape:showpageshadow="true"
     inkscape:pageopacity="0"
     inkscape:pagecheckerboard="0"
     inkscape:deskcolor="#888888"
     inkscape:document-units="px"
     showgrid="false"
     showborder="false"
     inkscape:zoom="2.6866667"
     inkscape:cx="240.07444"
     inkscape:cy="150"
     inkscape:window-width="1920"
     inkscape:window-height="1008"
     inkscape:window-x="0"
     inkscape:window-y="0"
     inkscape:window-maximized="1"
     inkscape:current-layer="svg5" />
  <defs
     id="defs2" />
  <g
     id="Baseplate"
     style="display:none">
    <text
       y="19.774782"
       xml:space="preserve"
       x="15.006946"
       style="font-style:normal;font-variant:normal;font-weight:normal;font-stretch:normal;line-height:0%;font-family:'DejaVu Sans';-inkscape-font-specification:'DejaVu Sans';display:inline;fill:#000000;fill-opacity:1;stroke:none;enable-background:new"
       inkscape:label="context"
       id="context"><tspan
         style="font-style:normal;font-variant:normal;font-weight:normal;font-stretch:normal;font-size:18px;line-height:1.25;font-family:'DejaVu Sans';-inkscape-font-specification:'DejaVu Sans'"
         y="19.774782"
         x="15.006946"
         sodipodi:role="line"
         id="tspan3933">apps</tspan></text>
    <text
       y="19.774782"
       xml:space="preserve"
       x="122.48839"
       style="font-style:normal;font-variant:normal;font-weight:bold;font-stretch:normal;line-height:0%;font-family:'DejaVu Sans';-inkscape-font-specification:'DejaVu Sans Bold';text-align:start;writing-mode:lr-tb;text-anchor:start;display:inline;fill:#000000;fill-opacity:1;stroke:none;enable-background:new"
       inkscape:label="icon-name"
       id="icon-name"><tspan
         style="font-style:normal;font-variant:normal;font-weight:bold;font-stretch:normal;font-size:18px;line-height:1.25;font-family:'DejaVu Sans';-inkscape-font-specification:'DejaVu Sans Bold'"
         y="19.774782"
         x="122.48839"
         sodipodi:role="line"
         id="tspan3937">easytag</tspan></text>
    <rect
       style="fill:#ffffff"
       id="256x256"
       width="256"
       height="256"
       x="16"
       y="28" />
    <rect
       style="fill:#ffffff"
       id="96x96"
       width="96"
       height="96"
       x="288"
       y="28" />
    <rect
       style="fill:#ffffff"
       id="64x64"
       width="64"
       height="64"
       x="288"
       y="140" />
    <rect
       style="fill:#ffffff"
       id="48x48"
       width="48"
       height="48"
       x="288"
       y="220" />
    <rect
       style="fill:#ffffff"
       id="32x32"
       width="32"
       height="32"
       x="416"
       y="52" />
    <rect
       style="fill:#ffffff"
       id="24x24"
       width="24"
       height="24"
       x="416"
       y="100" />
    <rect
       style="fill:#ffffff"
       id="22x22"
       width="22"
       height="22"
       x="417"
       y="101" />
    <rect
       style="fill:#ffffff"
       id="16x16"
       width="16"
       height="16"
       x="416"
       y="140" />
  </g>
  <g
     id="Shadow">
    <rect
       style="opacity:0.2;fill:#000000"
       id="rect651"
       width="224"
       height="224"
       x="32"
       y="46"
       ry="48" />
    <rect
       style="opacity:0.2;fill:#000000"
       id="rect769"
       width="84"
       height="85"
       x="294"
       y="34"
       ry="18" />
    <rect
       style="opacity:0.2;fill:#000000;fill-opacity:1"
       id="rect1131"
       width="56"
       height="56"
       x="292"
       y="145"
       ry="12" />
    <rect
       style="opacity:0.2;fill:#000000;fill-opacity:1"
       id="rect1261"
       width="42"
       height="42"
       x="291"
       y="224"
       ry="9" />
    <rect
       style="opacity:0.2;fill:#000000;fill-opacity:1"
       id="rect1364"
       width="28"
       height="29"
       x="418"
       y="54"
       ry="6" />
    <rect
       style="opacity:0.2;fill:#000000;fill-opacity:1"
       id="rect1398"
       width="16"
       height="16"
       x="416"
       y="141"
       ry="4" />
    <rect
       style="opacity:0.2;fill:#000000;fill-opacity:1"
       id="rect1432"
       width="20"
       height="20"
       x="418"
       y="103"
       ry="4" />
  </g>
  <g
     id="Background">
    <rect
       style="fill:#5bb237;fill-opacity:1"
       id="rect597"
       width="224"
       height="224"
       x="32"
       y="44"
       ry="48" />
    <rect
       style="opacity:1;fill:#5bb237;fill-opacity:1"
       id="rect771"
       width="84"
       height="84"
       x="294"
       y="34"
       ry="18" />
    <rect
       style="opacity:1;fill:#5bb237;fill-opacity:1"
       id="rect1133"
       width="56"
       height="56"
       x="292"
       y="144"
       ry="12" />
    <rect
       style="opacity:1;fill:#5bb237;fill-opacity:1"
       id="rect1263"
       width="42"
       height="42"
       x="291"
       y="223"
       ry="9" />
    <rect
       style="opacity:1;fill:#5bb237;fill-opacity:1"
       id="rect1366"
       width="28"
       height="28"
       x="418"
       y="54"
       ry="6" />
    <rect
       style="opacity:1;fill:#5bb237;fill-opacity:1"
       id="rect1400"
       width="16"
       height="16"
       x="416"
       y="140"
       ry="4" />
    <rect
       style="opacity:1;fill:#5bb237;fill-opacity:1"
       id="rect1434"
       width="20"
       height="20"
       x="418"
       y="102"
       ry="4" />
  </g>
  <g
     id="g721">
    <g
       id="g1139">
      <path
         d="m 423.07465,149.84411 c 0.0443,0.38117 0.0902,0.7014 0.1165,1.0231 0.027,0.33447 0.16031,0.4398 0.50248,0.33922 1.19179,-0.35009 2.3906,-0.67739 3.5864,-1.01339 0.14088,-0.0396 0.28181,-0.0792 0.4762,-0.13376 0.0439,0.65159 0.0852,1.2606 0.12727,1.88126 -0.0603,0.0316 -0.10289,0.0639 -0.15059,0.0773 -1.6511,0.4647 -3.30169,0.92976 -4.95432,1.38734 -0.19333,0.0535 -0.398,0.0753 -0.59914,0.0895 -0.6222,0.0454 -1.03566,-0.19771 -1.18023,-0.80692 -0.1737,-0.73217 -0.27902,-1.482 -0.38292,-2.22888 -0.17639,-1.26819 -0.35299,-2.53728 -0.48289,-3.81107 -0.10559,-1.03381 0.27901,-1.62061 1.27273,-1.9258 1.34169,-0.41209 2.69478,-0.79273 4.055,-1.14008 0.97345,-0.24825 1.4746,0.0581 1.67315,1.05001 0.17096,0.85558 0.27222,1.73168 0.3253,2.60324 0.0529,0.87082 -0.30809,1.36919 -1.14156,1.6472 -0.90844,0.30314 -1.83514,0.55213 -2.75404,0.82402 -0.15302,0.0451 -0.30719,0.0865 -0.48934,0.13767 z m -0.24261,-1.65876 c 0.69533,-0.19543 1.34729,-0.36523 1.98716,-0.57254 0.0978,-0.0316 0.20531,-0.23966 0.19713,-0.35854 -0.031,-0.45641 -0.11044,-0.90934 -0.16504,-1.3646 -0.0264,-0.2195 -0.14083,-0.26455 -0.33754,-0.20778 -0.54474,0.15771 -1.09718,0.29231 -1.63359,0.47456 -0.1155,0.0396 -0.25749,0.24525 -0.24915,0.36487 0.0371,0.5364 0.12416,1.06948 0.20103,1.66403 z"
         style="clip-rule:evenodd;fill:#000000;fill-opacity:1;fill-rule:evenodd;opacity:0.2"
         id="path1116" />
      <path
         d="m 423.07465,149.34411 c 0.0443,0.38117 0.0902,0.7014 0.1165,1.0231 0.027,0.33447 0.16031,0.4398 0.50248,0.33922 1.19179,-0.35009 2.3906,-0.67739 3.5864,-1.01339 0.14088,-0.0396 0.28181,-0.0792 0.4762,-0.13376 0.0439,0.65159 0.0852,1.2606 0.12727,1.88126 -0.0603,0.0316 -0.10289,0.0639 -0.15059,0.0773 -1.6511,0.4647 -3.30169,0.92976 -4.95432,1.38734 -0.19333,0.0535 -0.398,0.0753 -0.59914,0.0895 -0.6222,0.0454 -1.03566,-0.19771 -1.18023,-0.80692 -0.1737,-0.73217 -0.27902,-1.482 -0.38292,-2.22888 -0.17639,-1.26819 -0.35299,-2.53728 -0.48289,-3.81107 -0.10559,-1.03381 0.27901,-1.62061 1.27273,-1.9258 1.34169,-0.41209 2.69478,-0.79273 4.055,-1.14008 0.97345,-0.24825 1.4746,0.0581 1.67315,1.05001 0.17096,0.85558 0.27222,1.73168 0.3253,2.60324 0.0529,0.87082 -0.30809,1.36919 -1.14156,1.6472 -0.90844,0.30314 -1.83514,0.55213 -2.75404,0.82402 -0.15302,0.0451 -0.30719,0.0865 -0.48934,0.13767 z m -0.24261,-1.65876 c 0.69533,-0.19543 1.34729,-0.36523 1.98716,-0.57254 0.0978,-0.0316 0.20531,-0.23966 0.19713,-0.35854 -0.031,-0.45641 -0.11044,-0.90934 -0.16504,-1.3646 -0.0264,-0.2195 -0.14083,-0.26455 -0.33754,-0.20778 -0.54474,0.15771 -1.09718,0.29231 -1.63359,0.47456 -0.1155,0.0396 -0.25749,0.24525 -0.24915,0.36487 0.0371,0.5364 0.12416,1.06948 0.20103,1.66403 z"
         style="clip-rule:evenodd;fill:#f9f9f9;fill-opacity:1;fill-rule:evenodd"
         id="path731"
         sodipodi:nodetypes="sccscccscsscscccccsscscscccc" />
    </g>
    <g
       id="g1462">
      <path
         d="m 426.70452,114.3817 c 0.062,0.53364 0.12632,0.98196 0.1631,1.43234 0.0378,0.46827 0.22443,0.61572 0.70347,0.47492 1.66851,-0.49013 3.34684,-0.94835 5.02096,-1.41875 0.19724,-0.0554 0.39454,-0.11088 0.66668,-0.18726 0.0615,0.91222 0.1193,1.76483 0.17818,2.63376 -0.0844,0.0442 -0.14405,0.0895 -0.21083,0.10822 -2.31154,0.65058 -4.62236,1.30167 -6.93605,1.94227 -0.27066,0.0749 -0.5572,0.10542 -0.83879,0.12537 -0.87108,0.0635 -1.44993,-0.2768 -1.65233,-1.1297 -0.24318,-1.02503 -0.39063,-2.0748 -0.53608,-3.12043 -0.24695,-1.77547 -0.49419,-3.5522 -0.67606,-5.3355 -0.14782,-1.44734 0.39062,-2.26886 1.78183,-2.69612 1.87837,-0.57693 3.7727,-1.10983 5.677,-1.59612 1.36283,-0.34755 2.06445,0.0813 2.34242,1.47002 0.23934,1.19781 0.3811,2.42435 0.45542,3.64454 0.0741,1.21915 -0.43133,1.91686 -1.59819,2.30608 -1.27182,0.42439 -2.5692,0.77298 -3.85566,1.15363 -0.21422,0.0632 -0.43007,0.12115 -0.68507,0.19273 z m -0.33966,-2.32226 c 0.97347,-0.27361 1.88621,-0.51133 2.78203,-0.80156 0.13696,-0.0443 0.28743,-0.33552 0.27598,-0.50195 -0.0434,-0.63898 -0.15461,-1.27308 -0.23106,-1.91044 -0.037,-0.3073 -0.19716,-0.37038 -0.47255,-0.2909 -0.76264,0.2208 -1.53606,0.40924 -2.28703,0.66439 -0.1617,0.0554 -0.36048,0.34335 -0.34881,0.51082 0.0519,0.75096 0.17382,1.49727 0.28144,2.32964 z"
         style="clip-rule:evenodd;fill:#000000;fill-opacity:1;fill-rule:evenodd;opacity:0.2"
         id="path1149"
         sodipodi:nodetypes="cccscccscsscscccccccscccccc" />
      <path
         d="m 426.70452,113.8817 c 0.062,0.53364 0.12632,0.98196 0.1631,1.43234 0.0378,0.46827 0.22443,0.61572 0.70347,0.47492 1.66851,-0.49013 3.34684,-0.94835 5.02096,-1.41875 0.19724,-0.0554 0.39454,-0.11088 0.66668,-0.18726 0.0615,0.91222 0.1193,1.76483 0.17818,2.63376 -0.0844,0.0442 -0.14405,0.0895 -0.21083,0.10822 -2.31154,0.65058 -4.62236,1.30167 -6.93605,1.94227 -0.27066,0.0749 -0.5572,0.10542 -0.83879,0.12537 -0.87108,0.0635 -1.44993,-0.2768 -1.65233,-1.1297 -0.24318,-1.02503 -0.39063,-2.0748 -0.53608,-3.12043 -0.24695,-1.77547 -0.49419,-3.5522 -0.67606,-5.3355 -0.14782,-1.44734 0.39062,-2.26886 1.78183,-2.69612 1.87837,-0.57693 3.7727,-1.10983 5.677,-1.59612 1.36283,-0.34755 2.06445,0.0813 2.34242,1.47002 0.23934,1.19781 0.3811,2.42435 0.45542,3.64454 0.0741,1.21915 -0.43133,1.91686 -1.59819,2.30608 -1.27182,0.42439 -2.5692,0.77298 -3.85566,1.15363 -0.21422,0.0632 -0.43007,0.12115 -0.68507,0.19273 z m -0.33966,-2.32226 c 0.97347,-0.27361 1.88621,-0.51133 2.78203,-0.80156 0.13696,-0.0443 0.28743,-0.33552 0.27598,-0.50195 -0.0434,-0.63898 -0.15461,-1.27308 -0.23106,-1.91044 -0.037,-0.3073 -0.19716,-0.37038 -0.47255,-0.2909 -0.76264,0.2208 -1.53606,0.40924 -2.28703,0.66439 -0.1617,0.0554 -0.36048,0.34335 -0.34881,0.51082 0.0519,0.75096 0.17382,1.49727 0.28144,2.32964 z"
         style="clip-rule:evenodd;fill:#f9f9f9;fill-opacity:1;fill-rule:evenodd"
         id="path1315" />
    </g>
    <g
       id="g1466">
      <path
         d="m 430.14931,71.688138 c 0.0886,0.762343 0.18046,1.402802 0.23301,2.046202 0.054,0.66895 0.3206,0.87959 1.00495,0.67845 2.38358,-0.70018 4.7812,-1.35478 7.1728,-2.026788 0.28177,-0.07915 0.56363,-0.1584 0.9524,-0.267515 0.0879,1.303173 0.17043,2.521193 0.25454,3.762523 -0.12052,0.0632 -0.20578,0.1278 -0.30118,0.1546 -3.30221,0.9294 -6.60337,1.85953 -9.90864,2.77467 -0.38666,0.10701 -0.796,0.1506 -1.19828,0.17909 -1.2444,0.0907 -2.07132,-0.39542 -2.36047,-1.61385 -0.3474,-1.46433 -0.55804,-2.964 -0.76583,-4.457758 -0.35278,-2.536387 -0.70598,-5.074569 -0.96579,-7.622142 -0.21117,-2.067627 0.55803,-3.241215 2.54546,-3.851594 2.68339,-0.824182 5.38957,-1.585466 8.11,-2.280163 1.9469,-0.496512 2.94922,0.116188 3.34632,2.100024 0.34191,1.711151 0.54443,3.463354 0.65059,5.206482 0.10584,1.741648 -0.61618,2.738369 -2.28312,3.2944 -1.81689,0.606263 -3.67029,1.104254 -5.50808,1.648045 -0.30604,0.09033 -0.61439,0.173067 -0.97868,0.275324 z m -0.48522,-3.317512 c 1.39066,-0.390879 2.69458,-0.730469 3.97432,-1.145094 0.19566,-0.06321 0.41062,-0.479312 0.39426,-0.717069 -0.062,-0.912825 -0.22087,-1.818685 -0.33009,-2.729188 -0.0529,-0.439 -0.28166,-0.529121 -0.67507,-0.415573 -1.08948,0.315424 -2.19437,0.58463 -3.26718,0.949127 -0.231,0.07915 -0.51498,0.490497 -0.4983,0.729734 0.0741,1.072806 0.24831,2.138963 0.40206,3.328063 z"
         style="clip-rule:evenodd;fill:#000000;fill-opacity:1;fill-rule:evenodd;opacity:0.2"
         id="path1343"
         sodipodi:nodetypes="cccscccsccscscccccccccccccc" />
      <path
         d="m 430.14931,70.688142 c 0.0886,0.762343 0.18046,1.402802 0.23301,2.046202 0.054,0.66895 0.3206,0.87959 1.00495,0.67845 2.38358,-0.70018 4.7812,-1.35478 7.1728,-2.026788 0.28177,-0.07915 0.56363,-0.1584 0.9524,-0.267515 0.0879,1.303173 0.17043,2.521193 0.25454,3.762523 -0.12052,0.0632 -0.20578,0.1278 -0.30118,0.1546 -3.30221,0.9294 -6.60337,1.85953 -9.90864,2.77467 -0.38666,0.10701 -0.796,0.1506 -1.19828,0.17909 -1.2444,0.0907 -2.07132,-0.39542 -2.36047,-1.61385 -0.3474,-1.46433 -0.55804,-2.964 -0.76583,-4.457758 -0.35278,-2.536387 -0.70598,-5.074569 -0.96579,-7.622142 -0.21117,-2.067627 0.55803,-3.241215 2.54546,-3.851594 2.68339,-0.824182 5.38957,-1.585466 8.11,-2.280163 1.9469,-0.496512 2.94922,0.116188 3.34632,2.100024 0.34191,1.711151 0.54443,3.463354 0.65059,5.206482 0.10584,1.741648 -0.61618,2.738369 -2.28312,3.2944 -1.81689,0.606263 -3.67029,1.104254 -5.50808,1.648045 -0.30604,0.09033 -0.61439,0.173067 -0.97868,0.275324 z m -0.48522,-3.317512 c 1.39066,-0.390879 2.69458,-0.730469 3.97432,-1.145094 0.19566,-0.06321 0.41062,-0.479312 0.39426,-0.717069 -0.062,-0.912825 -0.22087,-1.818685 -0.33009,-2.729188 -0.0529,-0.439 -0.28166,-0.529121 -0.67507,-0.415573 -1.08948,0.315424 -2.19437,0.58463 -3.26718,0.949127 -0.231,0.07915 -0.51498,0.490497 -0.4983,0.729734 0.0741,1.072806 0.24831,2.138963 0.40206,3.328063 z"
         style="clip-rule:evenodd;fill:#f9f9f9;fill-opacity:1;fill-rule:evenodd"
         id="path1440"
         sodipodi:nodetypes="cccscccsccscscccccccccccccc" />
    </g>
    <g
       id="g1526">
      <path
         d="m 309.72347,249.03222 c 0.1329,1.14352 0.27069,2.1042 0.34952,3.0693 0.081,1.00343 0.4809,1.31939 1.50742,1.01768 3.57537,-1.05027 7.17181,-2.03217 10.75921,-3.04018 0.42265,-0.11865 0.84544,-0.2376 1.4286,-0.40128 0.13185,1.95476 0.25564,3.78179 0.38181,5.64379 -0.18078,0.0948 -0.30867,0.1917 -0.45177,0.2319 -4.95332,1.3941 -9.90506,2.78929 -14.86297,4.162 -0.57999,0.16052 -1.194,0.22591 -1.79742,0.26864 -1.8666,0.13605 -3.10698,-0.59313 -3.54071,-2.42078 -0.5211,-2.19649 -0.83706,-4.446 -1.14874,-6.68662 -0.52917,-3.80459 -1.05897,-7.61186 -1.44869,-11.43324 -0.31675,-3.10143 0.83705,-4.86181 3.81819,-5.77738 4.02509,-1.23628 8.08436,-2.37821 12.16501,-3.42025 2.92035,-0.74478 4.42383,0.17427 5.01948,3.15004 0.51287,2.56672 0.81665,5.19504 0.97589,7.80972 0.15876,2.61248 -0.92427,4.10756 -3.42468,4.9416 -2.72534,0.90941 -5.50544,1.65639 -8.26213,2.47208 -0.45906,0.13545 -0.92158,0.25959 -1.46802,0.41298 z m -0.72783,-4.97627 c 2.08599,-0.58632 4.04187,-1.0957 5.96148,-1.71763 0.29349,-0.0948 0.61593,-0.71899 0.59139,-1.07561 -0.093,-1.36925 -0.3313,-2.72804 -0.49513,-4.09379 -0.0794,-0.6585 -0.42249,-0.79368 -1.01261,-0.62335 -1.63422,0.47313 -3.29155,0.87694 -4.90077,1.42368 -0.3465,0.11865 -0.77247,0.73575 -0.74745,1.09461 0.11115,1.6092 0.37247,3.20844 0.60309,4.99209 z"
         style="clip-rule:evenodd;opacity:0.2;fill:#000000;fill-opacity:1;fill-rule:evenodd;stroke-width:1.5"
         id="path1476"
         sodipodi:nodetypes="cccccccsccscccccccccccccccc" />
      <path
         d="m 309.72347,248.03222 c 0.1329,1.14352 0.27069,2.1042 0.34952,3.0693 0.081,1.00343 0.4809,1.31939 1.50742,1.01768 3.57537,-1.05027 7.17181,-2.03217 10.75921,-3.04018 0.42265,-0.11865 0.84544,-0.2376 1.4286,-0.40128 0.13185,1.95476 0.25564,3.78179 0.38181,5.64379 -0.18078,0.0948 -0.30867,0.1917 -0.45177,0.2319 -4.95332,1.3941 -9.90506,2.78929 -14.86297,4.162 -0.57999,0.16052 -1.194,0.22591 -1.79742,0.26864 -1.8666,0.13605 -3.10698,-0.59313 -3.54071,-2.42078 -0.5211,-2.19649 -0.83706,-4.446 -1.14874,-6.68662 -0.52917,-3.80459 -1.05897,-7.61186 -1.44869,-11.43324 -0.31675,-3.10143 0.83705,-4.86181 3.81819,-5.77738 4.02509,-1.23628 8.08436,-2.37821 12.16501,-3.42025 2.92035,-0.74478 4.42383,0.17427 5.01948,3.15004 0.51287,2.56672 0.81665,5.19504 0.97589,7.80972 0.15876,2.61248 -0.92427,4.10756 -3.42468,4.9416 -2.72534,0.90941 -5.50544,1.65639 -8.26213,2.47208 -0.45906,0.13545 -0.92158,0.25959 -1.46802,0.41298 z m -0.72783,-4.97627 c 2.08599,-0.58632 4.04187,-1.0957 5.96148,-1.71763 0.29349,-0.0948 0.61593,-0.71899 0.59139,-1.07561 -0.093,-1.36925 -0.3313,-2.72804 -0.49513,-4.09379 -0.0794,-0.6585 -0.42249,-0.79368 -1.01261,-0.62335 -1.63422,0.47313 -3.29155,0.87694 -4.90077,1.42368 -0.3465,0.11865 -0.77247,0.73575 -0.74745,1.09461 0.11115,1.6092 0.37247,3.20844 0.60309,4.99209 z"
         style="clip-rule:evenodd;fill:#f9f9f9;fill-opacity:1;fill-rule:evenodd;stroke-width:1.5"
         id="path1504"
         sodipodi:nodetypes="cccccccsccscccccccccccccccc" />
    </g>
    <g
       id="g740">
      <path
         d="m 316.29863,178.37627 c 0.17729,1.52469 0.36091,2.8056 0.46602,4.09242 0.10806,1.33789 0.64119,1.75916 2.0099,1.35689 4.76716,-1.40037 9.5624,-2.70957 14.3456,-4.05358 0.56353,-0.15829 1.12726,-0.3168 1.9048,-0.53503 0.17581,2.60635 0.34086,5.04238 0.50907,7.52506 -0.24103,0.12642 -0.41156,0.25559 -0.60236,0.3092 -6.60442,1.85879 -13.20673,3.71905 -19.81728,5.54934 -0.77331,0.21402 -1.592,0.30118 -2.39655,0.35817 -2.4888,0.18151 -4.14265,-0.79084 -4.72094,-3.2277 -0.6948,-2.92866 -1.11608,-5.928 -1.53166,-8.91552 -0.70556,-5.07277 -1.41196,-10.14914 -1.93159,-15.24428 -0.42233,-4.13526 1.11607,-6.48243 5.09093,-7.70319 5.36677,-1.64836 10.77913,-3.17093 16.22,-4.56033 3.8938,-0.99302 5.89843,0.23238 6.69264,4.20005 0.68382,3.4223 1.08885,6.92671 1.30117,10.41296 0.21169,3.4833 -1.23236,5.47674 -4.56623,6.5888 -3.63379,1.21253 -7.34059,2.20851 -11.01617,3.2961 -0.61206,0.18066 -1.22878,0.34613 -1.95735,0.55064 z m -0.97044,-6.63502 c 2.78132,-0.78176 5.38915,-1.46094 7.94864,-2.29019 0.39131,-0.12642 0.82123,-0.95862 0.78852,-1.43414 -0.1241,-1.82565 -0.44175,-3.63737 -0.66018,-5.45837 -0.10575,-0.878 -0.56332,-1.05825 -1.35015,-0.83115 -2.17896,0.63085 -4.38873,1.16926 -6.53435,1.89826 -0.462,0.15829 -1.02996,0.98099 -0.99661,1.45946 0.14817,2.14561 0.49662,4.27793 0.80413,6.65613 z"
         style="clip-rule:evenodd;fill:#000000;fill-rule:evenodd;opacity:0.2"
         id="path698" />
      <path
         d="m 316.29863,177.37627 c 0.17729,1.52469 0.36091,2.8056 0.46602,4.09242 0.10806,1.33789 0.64119,1.75916 2.0099,1.35689 4.76716,-1.40037 9.5624,-2.70957 14.3456,-4.05358 0.56353,-0.15829 1.12726,-0.3168 1.9048,-0.53503 0.17581,2.60635 0.34086,5.04238 0.50907,7.52506 -0.24103,0.12642 -0.41156,0.25559 -0.60236,0.3092 -6.60442,1.85879 -13.20673,3.71905 -19.81728,5.54934 -0.77331,0.21402 -1.592,0.30118 -2.39655,0.35817 -2.4888,0.18151 -4.14265,-0.79084 -4.72094,-3.2277 -0.6948,-2.92866 -1.11608,-5.928 -1.53166,-8.91552 -0.70556,-5.07277 -1.41196,-10.14914 -1.93159,-15.24428 -0.42233,-4.13526 1.11607,-6.48243 5.09093,-7.70319 5.36677,-1.64836 10.77913,-3.17093 16.22,-4.56033 3.8938,-0.99302 5.89843,0.23238 6.69264,4.20005 0.68382,3.4223 1.08885,6.92671 1.30117,10.41296 0.21169,3.4833 -1.23236,5.47674 -4.56623,6.5888 -3.63379,1.21253 -7.34059,2.20851 -11.01617,3.2961 -0.61206,0.18066 -1.22878,0.34613 -1.95735,0.55064 z m -0.97044,-6.63502 c 2.78132,-0.78176 5.38915,-1.46094 7.94864,-2.29019 0.39131,-0.12642 0.82123,-0.95862 0.78852,-1.43414 -0.1241,-1.82565 -0.44175,-3.63737 -0.66018,-5.45837 -0.10575,-0.878 -0.56332,-1.05825 -1.35015,-0.83115 -2.17896,0.63085 -4.38873,1.16926 -6.53435,1.89826 -0.462,0.15829 -1.02996,0.98099 -0.99661,1.45946 0.14817,2.14561 0.49662,4.27793 0.80413,6.65613 z"
         style="clip-rule:evenodd;fill:#f9f9f9;fill-rule:evenodd"
         id="path513"
         sodipodi:nodetypes="cccsccccccccccccccccccccccc" />
    </g>
    <g
       id="g1586"
       transform="matrix(2,0,0,2,-288,-412)">
      <path
         d="m 309.72347,248.53222 c 0.1329,1.14352 0.27069,2.1042 0.34952,3.0693 0.081,1.00343 0.4809,1.31939 1.50742,1.01768 3.57537,-1.05027 7.17181,-2.03217 10.75921,-3.04018 0.42265,-0.11865 0.84544,-0.2376 1.4286,-0.40128 0.13185,1.95476 0.25564,3.78179 0.38181,5.64379 -0.18078,0.0948 -0.30867,0.1917 -0.45177,0.2319 -4.95332,1.3941 -9.90506,2.78929 -14.86297,4.162 -0.57999,0.16052 -1.194,0.22591 -1.79742,0.26864 -1.8666,0.13605 -3.10698,-0.59313 -3.54071,-2.42078 -0.5211,-2.19649 -0.83706,-4.446 -1.14874,-6.68662 -0.52917,-3.80459 -1.05897,-7.61186 -1.44869,-11.43324 -0.31675,-3.10143 0.83705,-4.86181 3.81819,-5.77738 4.02509,-1.23628 8.08436,-2.37821 12.16501,-3.42025 2.92035,-0.74478 4.42383,0.17427 5.01948,3.15004 0.51287,2.56672 0.81665,5.19504 0.97589,7.80972 0.15876,2.61248 -0.92427,4.10756 -3.42468,4.9416 -2.72534,0.90941 -5.50544,1.65639 -8.26213,2.47208 -0.45906,0.13545 -0.92158,0.25959 -1.46802,0.41298 z m -0.72783,-4.97627 c 2.08599,-0.58632 4.04187,-1.0957 5.96148,-1.71763 0.29349,-0.0948 0.61593,-0.71899 0.59139,-1.07561 -0.093,-1.36925 -0.3313,-2.72804 -0.49513,-4.09379 -0.0794,-0.6585 -0.42249,-0.79368 -1.01261,-0.62335 -1.63422,0.47313 -3.29155,0.87694 -4.90077,1.42368 -0.3465,0.11865 -0.77247,0.73575 -0.74745,1.09461 0.11115,1.6092 0.37247,3.20844 0.60309,4.99209 z"
         style="clip-rule:evenodd;opacity:0.2;fill:#000000;fill-opacity:1;fill-rule:evenodd;stroke-width:1.5"
         id="path1564" />
      <path
         d="m 309.72347,248.03222 c 0.1329,1.14352 0.27069,2.1042 0.34952,3.0693 0.081,1.00343 0.4809,1.31939 1.50742,1.01768 3.57537,-1.05027 7.17181,-2.03217 10.75921,-3.04018 0.42265,-0.11865 0.84544,-0.2376 1.4286,-0.40128 0.13185,1.95476 0.25564,3.78179 0.38181,5.64379 -0.18078,0.0948 -0.30867,0.1917 -0.45177,0.2319 -4.95332,1.3941 -9.90506,2.78929 -14.86297,4.162 -0.57999,0.16052 -1.194,0.22591 -1.79742,0.26864 -1.8666,0.13605 -3.10698,-0.59313 -3.54071,-2.42078 -0.5211,-2.19649 -0.83706,-4.446 -1.14874,-6.68662 -0.52917,-3.80459 -1.05897,-7.61186 -1.44869,-11.43324 -0.31675,-3.10143 0.83705,-4.86181 3.81819,-5.77738 4.02509,-1.23628 8.08436,-2.37821 12.16501,-3.42025 2.92035,-0.74478 4.42383,0.17427 5.01948,3.15004 0.51287,2.56672 0.81665,5.19504 0.97589,7.80972 0.15876,2.61248 -0.92427,4.10756 -3.42468,4.9416 -2.72534,0.90941 -5.50544,1.65639 -8.26213,2.47208 -0.45906,0.13545 -0.92158,0.25959 -1.46802,0.41298 z m -0.72783,-4.97627 c 2.08599,-0.58632 4.04187,-1.0957 5.96148,-1.71763 0.29349,-0.0948 0.61593,-0.71899 0.59139,-1.07561 -0.093,-1.36925 -0.3313,-2.72804 -0.49513,-4.09379 -0.0794,-0.6585 -0.42249,-0.79368 -1.01261,-0.62335 -1.63422,0.47313 -3.29155,0.87694 -4.90077,1.42368 -0.3465,0.11865 -0.77247,0.73575 -0.74745,1.09461 0.11115,1.6092 0.37247,3.20844 0.60309,4.99209 z"
         style="clip-rule:evenodd;fill:#f9f9f9;fill-opacity:1;fill-rule:evenodd;stroke-width:1.5"
         id="path1536" />
    </g>
    <g
       id="g1700"
       transform="matrix(4,0,0,4,-1136,-532)">
      <path
         d="m 316.29863,177.87627 c 0.17729,1.52469 0.36091,2.8056 0.46602,4.09242 0.10806,1.33789 0.64119,1.75916 2.0099,1.35689 4.76716,-1.40037 9.5624,-2.70957 14.3456,-4.05358 0.56353,-0.15829 1.12726,-0.3168 1.9048,-0.53503 0.17581,2.60635 0.34086,5.04238 0.50907,7.52506 -0.24103,0.12642 -0.41156,0.25559 -0.60236,0.3092 -6.60442,1.85879 -13.20673,3.71905 -19.81728,5.54934 -0.77331,0.21402 -1.592,0.30118 -2.39655,0.35817 -2.4888,0.18151 -4.14265,-0.79084 -4.72094,-3.2277 -0.6948,-2.92866 -1.11608,-5.928 -1.53166,-8.91552 -0.70556,-5.07277 -1.41196,-10.14914 -1.93159,-15.24428 -0.42233,-4.13526 1.11607,-6.48243 5.09093,-7.70319 5.36677,-1.64836 10.77913,-3.17093 16.22,-4.56033 3.8938,-0.99302 5.89843,0.23238 6.69264,4.20005 0.68382,3.4223 1.08885,6.92671 1.30117,10.41296 0.21169,3.4833 -1.23236,5.47674 -4.56623,6.5888 -3.63379,1.21253 -7.34059,2.20851 -11.01617,3.2961 -0.61206,0.18066 -1.22878,0.34613 -1.95735,0.55064 z m -0.97044,-6.63502 c 2.78132,-0.78176 5.38915,-1.46094 7.94864,-2.29019 0.39131,-0.12642 0.82123,-0.95862 0.78852,-1.43414 -0.1241,-1.82565 -0.44175,-3.63737 -0.66018,-5.45837 -0.10575,-0.878 -0.56332,-1.05825 -1.35015,-0.83115 -2.17896,0.63085 -4.38873,1.16926 -6.53435,1.89826 -0.462,0.15829 -1.02996,0.98099 -0.99661,1.45946 0.14817,2.14561 0.49662,4.27793 0.80413,6.65613 z"
         style="clip-rule:evenodd;opacity:0.2;fill:#000000;fill-rule:evenodd"
         id="path1650"
         sodipodi:nodetypes="cccsccccccccccccccccccccccc" />
      <path
         d="m 316.29863,177.37627 c 0.17729,1.52469 0.36091,2.8056 0.46602,4.09242 0.10806,1.33789 0.64119,1.75916 2.0099,1.35689 4.76716,-1.40037 9.5624,-2.70957 14.3456,-4.05358 0.56353,-0.15829 1.12726,-0.3168 1.9048,-0.53503 0.17581,2.60635 0.34086,5.04238 0.50907,7.52506 -0.24103,0.12642 -0.41156,0.25559 -0.60236,0.3092 -6.60442,1.85879 -13.20673,3.71905 -19.81728,5.54934 -0.77331,0.21402 -1.592,0.30118 -2.39655,0.35817 -2.4888,0.18151 -4.14265,-0.79084 -4.72094,-3.2277 -0.6948,-2.92866 -1.11608,-5.928 -1.53166,-8.91552 -0.70556,-5.07277 -1.41196,-10.14914 -1.93159,-15.24428 -0.42233,-4.13526 1.11607,-6.48243 5.09093,-7.70319 5.36677,-1.64836 10.77913,-3.17093 16.22,-4.56033 3.8938,-0.99302 5.89843,0.23238 6.69264,4.20005 0.68382,3.4223 1.08885,6.92671 1.30117,10.41296 0.21169,3.4833 -1.23236,5.47674 -4.56623,6.5888 -3.63379,1.21253 -7.34059,2.20851 -11.01617,3.2961 -0.61206,0.18066 -1.22878,0.34613 -1.95735,0.55064 z m -0.97044,-6.63502 c 2.78132,-0.78176 5.38915,-1.46094 7.94864,-2.29019 0.39131,-0.12642 0.82123,-0.95862 0.78852,-1.43414 -0.1241,-1.82565 -0.44175,-3.63737 -0.66018,-5.45837 -0.10575,-0.878 -0.56332,-1.05825 -1.35015,-0.83115 -2.17896,0.63085 -4.38873,1.16926 -6.53435,1.89826 -0.462,0.15829 -1.02996,0.98099 -0.99661,1.45946 0.14817,2.14561 0.49662,4.27793 0.80413,6.65613 z"
         style="clip-rule:evenodd;fill:#f9f9f9;fill-rule:evenodd"
         id="path1678" />
    </g>
  </g>
  <g
     id="Highlights">
    <path
       id="rect653"
       style="opacity:0.2;fill:#ffffff"
       d="M 80,44 C 53.408027,44 32,65.408027 32,92 v 2 C 32,67.408027 53.408027,46 80,46 h 128 c 26.59197,0 48,21.408027 48,48 V 92 C 256,65.408027 234.59197,44 208,44 Z"
       sodipodi:nodetypes="sscsscsss" />
    <path
       id="rect773"
       style="opacity:0.2;fill:#ffffff"
       d="m 312,34 c -9.97199,0 -18,8.02801 -18,18 v 1 c 0,-9.97199 8.02801,-18 18,-18 h 48 c 9.97199,0 18,8.02801 18,18 v -1 c 0,-9.97199 -8.02801,-18 -18,-18 z" />
    <path
       id="rect1135"
       style="opacity:0.2;fill:#ffffff;fill-opacity:1"
       d="m 304,144 c -6.64799,0 -12,5.35201 -12,12 v 1 c 0,-6.64799 5.35201,-12 12,-12 h 32 c 6.64799,0 12,5.35201 12,12 v -1 c 0,-6.64799 -5.35201,-12 -12,-12 z" />
    <path
       id="rect1265"
       style="opacity:0.2;fill:#ffffff;fill-opacity:1"
       d="m 300,223 c -4.986,0 -9,4.014 -9,9 v 1 c 0,-4.986 4.014,-9 9,-9 h 24 c 4.986,0 9,4.014 9,9 v -1 c 0,-4.986 -4.014,-9 -9,-9 z" />
    <path
       id="rect1368"
       style="opacity:0.2;fill:#ffffff;fill-opacity:1"
       d="m 424,54 c -3.324,0 -6,2.676003 -6,6 v 1 c 0,-3.323997 2.676,-6 6,-6 h 16 c 3.324,0 6,2.676003 6,6 v -1 c 0,-3.323997 -2.676,-6 -6,-6 z" />
    <path
       id="rect1402"
       style="opacity:0.2;fill:#ffffff;fill-opacity:1"
       d="m 420,140 c -2.216,0 -4,1.784 -4,4 v 1 c 0,-2.216 1.784,-4 4,-4 h 8 c 2.216,0 4,1.784 4,4 v -1 c 0,-2.216 -1.784,-4 -4,-4 z" />
    <path
       id="rect1436"
       style="opacity:0.2;fill:#ffffff;fill-opacity:1"
       d="m 422,102 c -2.216,0 -4,1.784 -4,4 v 1 c 0,-2.216 1.784,-4 4,-4 h 12 c 2.216,0 4,1.784 4,4 v -1 c 0,-2.216 -1.784,-4 -4,-4 z" />
  </g>
</svg>
