<?xml version="1.0" encoding="UTF-8" standalone="no"?>
<!-- Created with Inkscape (http://www.inkscape.org/) -->

<svg
   width="480"
   height="300"
   viewBox="0 0 480 300"
   version="1.1"
   id="svg5"
   inkscape:version="1.2.2 (1:1.2.2+202305151914+b0a8486541)"
   sodipodi:docname="emacs.svg"
   xmlns:inkscape="http://www.inkscape.org/namespaces/inkscape"
   xmlns:sodipodi="http://sodipodi.sourceforge.net/DTD/sodipodi-0.dtd"
   xmlns="http://www.w3.org/2000/svg"
   xmlns:svg="http://www.w3.org/2000/svg">
  <sodipodi:namedview
     id="namedview7"
     pagecolor="#888888"
     bordercolor="#000000"
     borderopacity="0.25"
     inkscape:showpageshadow="true"
     inkscape:pageopacity="0"
     inkscape:pagecheckerboard="0"
     inkscape:deskcolor="#888888"
     inkscape:document-units="px"
     showgrid="false"
     showborder="false"
     inkscape:zoom="2.6866667"
     inkscape:cx="240.44665"
     inkscape:cy="150"
     inkscape:window-width="1920"
     inkscape:window-height="1008"
     inkscape:window-x="0"
     inkscape:window-y="0"
     inkscape:window-maximized="1"
     inkscape:current-layer="svg5" />
  <defs
     id="defs2" />
  <g
     id="Baseplate"
     style="display:none">
    <text
       y="19.774782"
       xml:space="preserve"
       x="15.006946"
       style="font-style:normal;font-variant:normal;font-weight:normal;font-stretch:normal;line-height:0%;font-family:'DejaVu Sans';-inkscape-font-specification:'DejaVu Sans';display:inline;fill:#000000;fill-opacity:1;stroke:none;enable-background:new"
       inkscape:label="context"
       id="context"><tspan
         style="font-style:normal;font-variant:normal;font-weight:normal;font-stretch:normal;font-size:18px;line-height:1.25;font-family:'DejaVu Sans';-inkscape-font-specification:'DejaVu Sans'"
         y="19.774782"
         x="15.006946"
         sodipodi:role="line"
         id="tspan3933">apps</tspan></text>
    <text
       y="19.774782"
       xml:space="preserve"
       x="122.48839"
       style="font-style:normal;font-variant:normal;font-weight:bold;font-stretch:normal;line-height:0%;font-family:'DejaVu Sans';-inkscape-font-specification:'DejaVu Sans Bold';text-align:start;writing-mode:lr-tb;text-anchor:start;display:inline;fill:#000000;fill-opacity:1;stroke:none;enable-background:new"
       inkscape:label="icon-name"
       id="icon-name"><tspan
         style="font-style:normal;font-variant:normal;font-weight:bold;font-stretch:normal;font-size:18px;line-height:1.25;font-family:'DejaVu Sans';-inkscape-font-specification:'DejaVu Sans Bold'"
         y="19.774782"
         x="122.48839"
         sodipodi:role="line"
         id="tspan3937">emacs</tspan></text>
    <rect
       style="fill:#ffffff"
       id="256x256"
       width="256"
       height="256"
       x="16"
       y="28" />
    <rect
       style="fill:#ffffff"
       id="96x96"
       width="96"
       height="96"
       x="288"
       y="28" />
    <rect
       style="fill:#ffffff"
       id="64x64"
       width="64"
       height="64"
       x="288"
       y="140" />
    <rect
       style="fill:#ffffff"
       id="48x48"
       width="48"
       height="48"
       x="288"
       y="220" />
    <rect
       style="fill:#ffffff"
       id="32x32"
       width="32"
       height="32"
       x="416"
       y="52" />
    <rect
       style="fill:#ffffff"
       id="24x24"
       width="24"
       height="24"
       x="416"
       y="100" />
    <rect
       style="fill:#ffffff"
       id="22x22"
       width="22"
       height="22"
       x="417"
       y="101" />
    <rect
       style="fill:#ffffff"
       id="16x16"
       width="16"
       height="16"
       x="416"
       y="140" />
  </g>
  <g
     id="Shadow">
    <rect
       style="opacity:0.2;fill:#000000"
       id="rect651"
       width="224"
       height="224"
       x="32"
       y="46"
       ry="48" />
    <rect
       style="opacity:0.2;fill:#000000"
       id="rect769"
       width="84"
       height="85"
       x="294"
       y="34"
       ry="18" />
    <rect
       style="opacity:0.2;fill:#000000;fill-opacity:1"
       id="rect1131"
       width="56"
       height="56"
       x="292"
       y="145"
       ry="12" />
    <rect
       style="opacity:0.2;fill:#000000;fill-opacity:1"
       id="rect1261"
       width="42"
       height="42"
       x="291"
       y="224"
       ry="9" />
    <rect
       style="opacity:0.2;fill:#000000;fill-opacity:1"
       id="rect1364"
       width="28"
       height="29"
       x="418"
       y="54"
       ry="6" />
    <rect
       style="opacity:0.2;fill:#000000;fill-opacity:1"
       id="rect1398"
       width="16"
       height="16"
       x="416"
       y="141"
       ry="4" />
    <rect
       style="opacity:0.2;fill:#000000;fill-opacity:1"
       id="rect1432"
       width="20"
       height="20"
       x="418"
       y="103"
       ry="4" />
  </g>
  <g
     id="Background">
    <rect
       style="fill:#6966b2;fill-opacity:1"
       id="rect597"
       width="224"
       height="224"
       x="32"
       y="44"
       ry="48" />
    <rect
       style="opacity:1;fill:#6966b2;fill-opacity:1"
       id="rect771"
       width="84"
       height="84"
       x="294"
       y="34"
       ry="18" />
    <rect
       style="opacity:1;fill:#6966b2;fill-opacity:1"
       id="rect1133"
       width="56"
       height="56"
       x="292"
       y="144"
       ry="12" />
    <rect
       style="opacity:1;fill:#6966b2;fill-opacity:1"
       id="rect1263"
       width="42"
       height="42"
       x="291"
       y="223"
       ry="9" />
    <rect
       style="opacity:1;fill:#6966b2;fill-opacity:1"
       id="rect1366"
       width="28"
       height="28"
       x="418"
       y="54"
       ry="6" />
    <rect
       style="opacity:1;fill:#6966b2;fill-opacity:1"
       id="rect1400"
       width="16"
       height="16"
       x="416"
       y="140"
       ry="4" />
    <rect
       style="opacity:1;fill:#6966b2;fill-opacity:1"
       id="rect1434"
       width="20"
       height="20"
       x="418"
       y="102"
       ry="4" />
  </g>
  <g
     id="Symbols">
    <path
       d="m 421.26891,153.5964 c 0,0 0.5365,0.15578 1.2506,0.24484 0.28921,0.0361 1.3896,0.16212 2.2333,0.15882 0,0 1.0275,9.5e-4 1.5947,-0.0794 0.5935,-0.0843 0.9297,-0.1919 1.1168,-0.40662 0.005,-0.0512 0.0903,-0.21808 -0.14038,-0.379 -0.59,-0.412 -1.352,-0.524 -2.8334,-0.876 -1.6377,-0.412 -2.1271,-0.806 -2.3716,-1.091 -0.2319,-0.2862 0.0435,-0.8801 1.3631,-1.1715 0.6681,-0.1626 3.1569,-0.1925 3.1569,-0.1925 -0.714,-0.5668 -2.0546,-1.5816 -2.3285,-1.7974 -0.24028,-0.18928 -0.6275,-0.47974 -0.6691,-0.7393 -0.0562,-0.25267 0.34157,-0.37433 0.55215,-0.38836 0.67845,-0.0468 1.6049,0.0327 2.4284,0.19652 0.41395,0.0823 0.48662,0.0702 0.48662,0.0702 0.58955,0.0281 1.0481,-0.28074 1.0247,-0.93115 -0.005,-0.65975 -0.6643,-1.1888 -1.3943,-1.2119 -0.6875,-0.0218 -2.3816,0.0983 -2.3816,0.0983 1.9746,0.40708 2.2974,0.51095 2.4004,0.74865 0.061,0.14045 -0.1015,0.28 -0.6455,0.25275 -0.5925,-0.0297 -1.8065,-0.17315 -1.8065,-0.17315 -1.1555,-0.1778 -1.9605,-0.34625 -2.3115,0.1123 -0.22927,0.29958 0.0328,0.66445 0.13569,0.87965 0.45855,0.80015 1.2515,1.3491 1.7546,1.7359 0.18932,0.14556 0.76735,0.46791 0.76735,0.46791 -1.7967,-0.4913 -3.2285,-0.21524 -4.1363,0.26203 -1.0434,0.61765 -0.86495,1.6599 0.79075,2.6343 0.97795,0.57555 1.4648,0.852 3.066,1.0486 0.9359,0.14923 1.0753,0.21029 1.0682,0.28819 -0.01,0.10968 -1.1077,0.15124 -1.4094,0.17205 -0.7676,0.0529 -2.7528,0.0662 -2.7627,0.0662 z"
       style="fill:#000000;opacity:0.2"
       id="path1805" />
    <path
       d="m 421.26891,152.5964 c 0,0 0.5365,0.15578 1.2506,0.24484 0.28921,0.0361 1.3896,0.16212 2.2333,0.15882 0,0 1.0275,9.5e-4 1.5947,-0.0794 0.5935,-0.0843 0.9297,-0.1919 1.1168,-0.40662 0.005,-0.0512 0.0903,-0.21808 -0.14038,-0.379 -0.59,-0.412 -1.352,-0.524 -2.8334,-0.876 -1.6377,-0.412 -2.1271,-0.806 -2.3716,-1.091 -0.2319,-0.2862 0.0435,-0.8801 1.3631,-1.1715 0.6681,-0.1626 3.1569,-0.1925 3.1569,-0.1925 -0.714,-0.5668 -2.0546,-1.5816 -2.3285,-1.7974 -0.24028,-0.18928 -0.6275,-0.47974 -0.6691,-0.7393 -0.0562,-0.25267 0.34157,-0.37433 0.55215,-0.38836 0.67845,-0.0468 1.6049,0.0327 2.4284,0.19652 0.41395,0.0823 0.48662,0.0702 0.48662,0.0702 0.58955,0.0281 1.0481,-0.28074 1.0247,-0.93115 -0.005,-0.65975 -0.6643,-1.1888 -1.3943,-1.2119 -0.6875,-0.0218 -2.3816,0.0983 -2.3816,0.0983 1.9746,0.40708 2.2974,0.51095 2.4004,0.74865 0.061,0.14045 -0.1015,0.28 -0.6455,0.25275 -0.5925,-0.0297 -1.8065,-0.17315 -1.8065,-0.17315 -1.1555,-0.1778 -1.9605,-0.34625 -2.3115,0.1123 -0.22927,0.29958 0.0328,0.66445 0.13569,0.87965 0.45855,0.80015 1.2515,1.3491 1.7546,1.7359 0.18932,0.14556 0.76735,0.46791 0.76735,0.46791 -1.7967,-0.4913 -3.2285,-0.21524 -4.1363,0.26203 -1.0434,0.61765 -0.86495,1.6599 0.79075,2.6343 0.97795,0.57555 1.4648,0.852 3.066,1.0486 0.9359,0.14923 1.0753,0.21029 1.0682,0.28819 -0.01,0.10968 -1.1077,0.15124 -1.4094,0.17205 -0.7676,0.0529 -2.7528,0.0662 -2.7627,0.0662 z"
       style="fill:#ffffff"
       id="path1777"
       sodipodi:nodetypes="csccccccccsccsccsccscscsccscsscc" />
    <path
       d="m 423.75102,119.372 c 0,0 0.83455,0.24232 1.94546,0.38086 0.44989,0.0561 2.16166,0.25219 3.47406,0.24704 0,0 1.59841,0.002 2.48076,-0.12352 0.92321,-0.13114 1.44626,-0.29851 1.73731,-0.6325 0.008,-0.0796 0.14049,-0.33924 -0.21836,-0.58956 -0.91746,-0.64 -2.10351,-0.8152 -4.40732,-1.3623 -2.54756,-0.6405 -3.30886,-1.25381 -3.68922,-1.69771 -0.36059,-0.44486 0.0677,-1.3687 2.12046,-1.82196 1.03936,-0.25292 4.91032,-0.29939 4.91032,-0.29939 -1.11055,-0.88171 -3.19551,-2.46031 -3.62166,-2.79601 -0.37377,-0.29443 -0.97611,-0.74626 -1.04086,-1.15001 -0.0873,-0.39305 0.53136,-0.5823 0.85891,-0.6041 1.0554,-0.0728 2.49656,0.051 3.77761,0.3057 0.64391,0.12806 0.75701,0.10918 0.75701,0.10918 0.9171,0.0437 1.6304,-0.43672 1.594,-1.44846 -0.007,-1.0263 -1.0334,-1.8492 -2.16901,-1.88515 -1.06945,-0.0339 -3.70481,0.15285 -3.70481,0.15285 3.07156,0.63325 3.57371,0.79485 3.73391,1.1646 0.0946,0.21836 -0.15806,0.43547 -1.00445,0.39304 -0.92145,-0.0462 -2.80956,-0.2693 -2.80956,-0.2693 -1.79781,-0.27659 -3.04976,-0.5386 -3.59562,0.17469 -0.35663,0.46601 0.051,1.03355 0.21108,1.36835 0.71331,1.24466 1.94676,2.09856 2.72947,2.70036 0.29451,0.22644 1.1937,0.72786 1.1937,0.72786 -2.79501,-0.76426 -5.02202,-0.33482 -6.43453,0.4076 -1.6231,0.96081 -1.3455,2.58212 1.23011,4.09787 1.52121,0.89525 2.27866,1.32536 4.76937,1.63116 1.45586,0.23214 1.67281,0.32712 1.66176,0.4483 -0.0156,0.17062 -1.72316,0.23526 -2.19251,0.26764 -1.19406,0.0823 -4.28212,0.10294 -4.29757,0.10294 z"
       style="opacity:0.2;fill:#000000;stroke-width:0.500002"
       id="path1523"
       sodipodi:nodetypes="cscccsccccsccsccscsscscsccscsscc" />
    <path
       d="m 423.75102,118.372 c 0,0 0.83455,0.24232 1.94546,0.38086 0.44989,0.0561 2.16166,0.25219 3.47406,0.24704 0,0 1.59841,0.002 2.48076,-0.12352 0.92321,-0.13114 1.44626,-0.29851 1.73731,-0.6325 0.008,-0.0796 0.14049,-0.33924 -0.21836,-0.58956 -0.91746,-0.64 -2.10351,-0.8152 -4.40732,-1.3623 -2.54756,-0.6405 -3.30886,-1.25381 -3.68922,-1.69771 -0.36059,-0.44486 0.0677,-1.3687 2.12046,-1.82196 1.03936,-0.25292 4.91032,-0.29939 4.91032,-0.29939 -1.11055,-0.88171 -3.19551,-2.46031 -3.62166,-2.79601 -0.37377,-0.29443 -0.97611,-0.74626 -1.04086,-1.15001 -0.0873,-0.39305 0.53136,-0.5823 0.85891,-0.6041 1.0554,-0.0728 2.49656,0.051 3.77761,0.3057 0.64391,0.12806 0.75701,0.10918 0.75701,0.10918 0.9171,0.0437 1.6304,-0.43672 1.594,-1.44846 -0.007,-1.0263 -1.0334,-1.8492 -2.16901,-1.88515 -1.06945,-0.0339 -3.70481,0.15285 -3.70481,0.15285 3.07156,0.63325 3.57371,0.79485 3.73391,1.1646 0.0946,0.21836 -0.15806,0.43547 -1.00445,0.39304 -0.92145,-0.0462 -2.80956,-0.2693 -2.80956,-0.2693 -1.79781,-0.27659 -3.04976,-0.5386 -3.59562,0.17469 -0.35663,0.46601 0.051,1.03355 0.21108,1.36835 0.71331,1.24466 1.94676,2.09856 2.72947,2.70036 0.29451,0.22644 1.1937,0.72786 1.1937,0.72786 -2.79501,-0.76426 -5.02202,-0.33482 -6.43453,0.4076 -1.6231,0.96081 -1.3455,2.58212 1.23011,4.09787 1.52121,0.89525 2.27866,1.32536 4.76937,1.63116 1.45586,0.23214 1.67281,0.32712 1.66176,0.4483 -0.0156,0.17062 -1.72316,0.23526 -2.19251,0.26764 -1.19406,0.0823 -4.28212,0.10294 -4.29757,0.10294 z"
       style="opacity:1;fill:#ffffff;stroke-width:0.500002"
       id="path1551" />
    <path
       d="m 426.52047,76.999427 c 0,0 1.07294,0.504728 2.50115,0.682827 0.57838,0.07213 2.77902,0.324219 4.46631,0.317619 0,0 2.05498,0.002 3.1893,-0.15881 1.18693,-0.168599 1.85929,-0.383776 2.23356,-0.813177 0.01,-0.102386 0.18063,-0.436125 -0.28074,-0.757963 -1.17953,-0.822827 -2.70433,-1.048034 -5.66615,-1.75149 -3.27519,-0.823437 -4.30417,-1.611999 -4.79324,-2.182559 -0.46359,-0.571925 0.13727,-1.759689 2.77637,-2.342354 1.33622,-0.325169 6.03633,-0.493833 6.03633,-0.493833 -1.42781,-1.133531 -3.83177,-3.054085 -4.37963,-3.485655 -0.48053,-0.378527 -1.25492,-0.959412 -1.33812,-1.478509 -0.11228,-0.505307 0.6831,-0.748614 1.10424,-0.776678 1.35681,-0.09358 3.20969,0.265321 4.85659,0.59283 0.82784,0.164629 0.97318,0.140375 0.97318,0.140375 1.17903,0.05614 2.33041,-0.761274 2.28361,-2.062004 -0.009,-1.319414 -1.56285,-2.377448 -3.02286,-2.423646 C 435.98339,60 432.48351,60 432.48351,60 c 3.94895,0.814117 4.80838,1.224728 5.01436,1.700096 0.12199,0.280886 -0.20298,0.559966 -1.29092,0.505468 -1.18492,-0.05939 -3.61277,-0.346278 -3.61277,-0.346278 -2.31085,-0.355573 -3.72075,-0.692456 -4.42271,0.224587 -0.45851,0.599114 0.0655,1.328819 0.27137,1.759189 0.91704,1.6002 2.30285,2.698032 3.30908,3.47168 0.37863,0.291115 1.53461,0.935763 1.53461,0.935763 -3.59328,-0.982551 -6.6566,-0.430455 -8.47198,0.524027 -2.08677,1.235222 -1.72979,3.31959 1.5814,5.268367 1.95577,1.151026 3.12941,1.703892 6.33151,2.097068 1.87168,0.29844 2.25067,0.420551 2.23647,0.576345 -0.02,0.219343 -2.31546,0.30246 -2.91882,0.344078 -1.53511,0.105862 -5.50526,-0.06098 -5.52506,-0.06098 z"
       style="opacity:0.2;fill:#000000;stroke-width:0.499983"
       id="path1622" />
    <path
       d="m 426.52047,75.999427 c 0,0 1.07294,0.504728 2.50115,0.682827 0.57838,0.07213 2.77902,0.324219 4.46631,0.317619 0,0 2.05498,0.002 3.1893,-0.15881 1.18693,-0.168599 1.85929,-0.383776 2.23356,-0.813177 0.01,-0.102386 0.18063,-0.436125 -0.28074,-0.757963 -1.17953,-0.822827 -2.70433,-1.048034 -5.66615,-1.75149 -3.27519,-0.823436 -4.30417,-1.611999 -4.79324,-2.182559 -0.46359,-0.571926 0.13727,-1.75969 2.77637,-2.342354 1.33622,-0.325169 6.03633,-0.493833 6.03633,-0.493833 -1.42782,-1.133531 -3.83177,-3.054085 -4.37963,-3.485655 -0.48053,-0.378527 -1.25492,-0.959412 -1.33812,-1.478509 -0.11228,-0.505307 0.6831,-0.748614 1.10423,-0.776678 1.35682,-0.09358 3.2097,0.265321 4.8566,0.59283 0.82784,0.164629 0.97318,0.140375 0.97318,0.140375 1.17903,0.05614 2.33041,-0.761274 2.28361,-2.062004 -0.009,-1.319414 -1.56285,-2.377448 -3.02286,-2.423646 C 435.98339,59 432.48351,59 432.48351,59 c 3.94895,0.814117 4.80837,1.224728 5.01436,1.700096 0.12199,0.280886 -0.20299,0.559966 -1.29092,0.505468 -1.18492,-0.05939 -3.61277,-0.346278 -3.61277,-0.346278 -2.31085,-0.355573 -3.72075,-0.692456 -4.42271,0.224587 -0.45851,0.599114 0.0655,1.328819 0.27137,1.759189 0.91704,1.6002 2.30285,2.698032 3.30908,3.47168 0.37863,0.291115 1.53461,0.935763 1.53461,0.935763 -3.59328,-0.982551 -6.6566,-0.430455 -8.47198,0.524027 -2.08677,1.235222 -1.72979,3.31959 1.5814,5.268368 1.95577,1.151025 3.12941,1.703891 6.33151,2.097067 1.87168,0.29844 2.25066,0.420551 2.23647,0.576345 -0.0201,0.219343 -2.31546,0.30246 -2.91882,0.344078 -1.53511,0.105862 -5.50526,-0.06098 -5.52506,-0.06098 z"
       style="fill:#ffffff;stroke-width:0.499983"
       id="path1579" />
    <path
       d="m 303.50207,257.74389 c 0,0 1.6691,0.48464 3.8909,0.76171 0.89978,0.11221 4.3233,0.50438 6.9481,0.49409 0,0 3.1968,0.004 4.9615,-0.24705 1.8464,-0.26228 2.8925,-0.59701 3.4746,-1.265 0.0152,-0.15928 0.28099,-0.67847 -0.43672,-1.1791 -1.8349,-1.28 -4.207,-1.6304 -8.8146,-2.7246 -5.0951,-1.281 -6.6177,-2.5076 -7.3784,-3.3954 -0.72118,-0.88971 0.13537,-2.7374 4.2409,-3.6439 2.0787,-0.50585 9.8206,-0.59879 9.8206,-0.59879 -2.2211,-1.7634 -6.391,-4.9206 -7.2433,-5.592 -0.74754,-0.58885 -1.9522,-1.4925 -2.0817,-2.3 -0.17468,-0.78609 1.0627,-1.1646 1.7178,-1.2082 2.1108,-0.14557 4.9931,0.1019 7.5552,0.6114 1.2878,0.25611 1.514,0.21836 1.514,0.21836 1.8342,0.0874 3.2608,-0.87343 3.188,-2.8969 -0.0146,-2.0526 -2.0668,-3.6984 -4.338,-3.7703 -2.1389,-0.0677 -7.4096,0.3057 -7.4096,0.3057 6.1431,1.2665 7.1474,1.5897 7.4678,2.3292 0.18924,0.43671 -0.31612,0.87093 -2.0089,0.78608 -1.8429,-0.0923 -5.6191,-0.5386 -5.6191,-0.5386 -3.5956,-0.55319 -6.0995,-1.0772 -7.1912,0.34937 -0.71327,0.93202 0.1019,2.0671 0.42216,2.7367 1.4266,2.4893 3.8935,4.1971 5.4589,5.4007 0.58903,0.45287 2.3874,1.4557 2.3874,1.4557 -5.59,-1.5285 -10.044,-0.66963 -12.869,0.81521 -3.2462,1.9216 -2.691,5.1642 2.4602,8.1957 3.0424,1.7905 4.5573,2.6507 9.5387,3.2623 2.9117,0.46428 3.3456,0.65424 3.3235,0.89661 -0.0312,0.34122 -3.4463,0.47051 -4.385,0.53526 -2.3881,0.16469 -8.5642,0.20588 -8.5951,0.20588 z"
       style="opacity:0.2;fill:#000000"
       id="path304"
       sodipodi:nodetypes="cscccsccccsccsccscsscscsccsccscc" />
    <path
       d="m 303.50207,256.74389 c 0,0 1.6691,0.48464 3.8909,0.76171 0.89978,0.11221 4.3233,0.50438 6.9481,0.49409 0,0 3.1968,0.004 4.9615,-0.24705 1.8464,-0.26228 2.8925,-0.59701 3.4746,-1.265 0.0152,-0.15928 0.28099,-0.67847 -0.43672,-1.1791 -1.8349,-1.28 -4.207,-1.6304 -8.8146,-2.7246 -5.0951,-1.281 -6.6177,-2.5076 -7.3784,-3.3954 -0.72118,-0.88971 0.13537,-2.7374 4.2409,-3.6439 2.0787,-0.50585 9.8206,-0.59879 9.8206,-0.59879 -2.2211,-1.7634 -6.391,-4.9206 -7.2433,-5.592 -0.74754,-0.58885 -1.9522,-1.4925 -2.0817,-2.3 -0.17468,-0.78609 1.0627,-1.1646 1.7178,-1.2082 2.1108,-0.14557 4.9931,0.1019 7.5552,0.6114 1.2878,0.25611 1.514,0.21836 1.514,0.21836 1.8342,0.0874 3.2608,-0.87343 3.188,-2.8969 -0.0146,-2.0526 -2.0668,-3.6984 -4.338,-3.7703 -2.1389,-0.0677 -7.4096,0.3057 -7.4096,0.3057 6.1431,1.2665 7.1474,1.5897 7.4678,2.3292 0.18924,0.43671 -0.31612,0.87093 -2.0089,0.78608 -1.8429,-0.0923 -5.6191,-0.5386 -5.6191,-0.5386 -3.5956,-0.55319 -6.0995,-1.0772 -7.1912,0.34937 -0.71327,0.93202 0.1019,2.0671 0.42216,2.7367 1.4266,2.4893 3.8935,4.1971 5.4589,5.4007 0.58903,0.45287 2.3874,1.4557 2.3874,1.4557 -5.59,-1.5285 -10.044,-0.66963 -12.869,0.81521 -3.2462,1.9216 -2.691,5.1642 2.4602,8.1957 3.0424,1.7905 4.5573,2.6507 9.5387,3.2623 2.9117,0.46428 3.3456,0.65424 3.3235,0.89661 -0.0312,0.34122 -3.4463,0.47051 -4.385,0.53526 -2.3881,0.16469 -8.5642,0.20588 -8.5951,0.20588 z"
       style="fill:#ffffff"
       id="path1092"
       sodipodi:nodetypes="cscccsccccsccsccscsscscsccsccscc" />
    <path
       d="m 309.07339,189.00003 c 0,0 2.14594,1.00949 5.00246,1.3657 1.15681,0.14426 5.55824,0.64846 8.93294,0.63526 0,0 4.11009,0.004 6.37882,-0.31763 2.37393,-0.33721 3.7187,-0.76758 4.46727,-1.62641 0.0196,-0.20478 0.36127,-0.87228 -0.5615,-1.51598 -2.35913,-1.64571 -5.40885,-2.09614 -11.33268,-3.5031 -6.55061,-1.64693 -8.60865,-3.22411 -9.58682,-4.36527 -0.92721,-1.14389 0.27455,-3.5195 5.55294,-4.68487 2.67252,-0.65036 12.07306,-0.9877 12.07306,-0.9877 -2.85572,-2.26714 -7.66379,-6.10838 -8.75956,-6.97155 -0.96109,-0.75708 -2.50992,-1.91889 -2.67632,-2.95712 -0.22457,-1.01065 1.36624,-1.49728 2.20854,-1.55341 2.71372,-0.18716 6.41961,0.53066 9.71352,1.1857 1.65575,0.32927 1.94644,0.28076 1.94644,0.28076 2.35814,0.11229 4.66098,-1.5226 4.56738,-4.12415 -0.0188,-2.63892 -3.12582,-4.75506 -6.04593,-4.84746 C 327.99988,155 320.99988,155 320.99988,155 c 7.89817,1.62829 9.61708,2.44954 10.02906,3.40031 0.244,0.56179 -0.40598,1.11997 -2.58192,1.01097 -2.36993,-0.11879 -7.2258,-0.69258 -7.2258,-0.69258 -4.62186,-0.71117 -7.44176,-1.38496 -8.84572,0.44919 -0.91706,1.19827 0.13103,2.65773 0.54276,3.5185 1.83415,3.20051 4.60585,5.39625 6.61839,6.9436 0.75728,0.58225 3.06932,1.87159 3.06932,1.87159 -7.1868,-1.96517 -13.31365,-0.86094 -16.94455,1.04809 -4.17368,2.47053 -3.4597,6.63941 3.16291,10.5371 3.91169,2.30213 6.25905,3.4079 12.66347,4.19428 3.74349,0.5969 4.50148,0.84113 4.47308,1.15273 -0.0401,0.4387 -4.63108,0.60494 -5.83784,0.68818 C 317.05272,189.33369 309.11215,189 309.07255,189 Z"
       style="opacity:0.2;fill:#000000"
       id="path1281"
       sodipodi:nodetypes="cscccsccccsccscccccscccsccsccscc" />
    <path
       d="m 309.07339,188.00003 c 0,0 2.14594,1.00949 5.00246,1.3657 1.15681,0.14426 5.55824,0.64846 8.93294,0.63526 0,0 4.11009,0.004 6.37882,-0.31763 2.37393,-0.33721 3.7187,-0.76758 4.46727,-1.62641 0.0196,-0.20478 0.36127,-0.87228 -0.5615,-1.51598 -2.35913,-1.64571 -5.40885,-2.09614 -11.33268,-3.5031 -6.55061,-1.64693 -8.60865,-3.22411 -9.58682,-4.36527 -0.92721,-1.14389 0.27455,-3.5195 5.55294,-4.68487 2.67252,-0.65036 12.07306,-0.9877 12.07306,-0.9877 -2.85572,-2.26714 -7.66379,-6.10838 -8.75956,-6.97155 -0.96109,-0.75708 -2.50992,-1.91889 -2.67632,-2.95712 -0.22457,-1.01065 1.36624,-1.49728 2.20854,-1.55341 2.71372,-0.18716 6.41961,0.53066 9.71352,1.1857 1.65575,0.32927 1.94644,0.28076 1.94644,0.28076 2.35814,0.11229 4.66098,-1.5226 4.56738,-4.12415 -0.0188,-2.63892 -3.12582,-4.75506 -6.04593,-4.84746 C 327.99988,154 320.99988,154 320.99988,154 c 7.89817,1.62829 9.61708,2.44954 10.02906,3.40031 0.244,0.56179 -0.40598,1.11997 -2.58192,1.01097 -2.36993,-0.11879 -7.2258,-0.69258 -7.2258,-0.69258 -4.62186,-0.71117 -7.44176,-1.38496 -8.84572,0.44919 -0.91706,1.19827 0.13103,2.65773 0.54276,3.5185 1.83415,3.20051 4.60585,5.39625 6.61839,6.9436 0.75728,0.58225 3.06932,1.87159 3.06932,1.87159 -7.1868,-1.96517 -13.31365,-0.86094 -16.94455,1.04809 -4.17368,2.47053 -3.4597,6.63941 3.16291,10.5371 3.91169,2.30213 6.25905,3.4079 12.66347,4.19428 3.74349,0.5969 4.50148,0.84113 4.47308,1.15273 -0.0401,0.4387 -4.63108,0.60494 -5.83784,0.68818 C 317.05272,188.33369 309.11215,188 309.07255,188 Z"
       style="fill:#ffffff"
       id="path1253"
       sodipodi:nodetypes="cscccsccccsccscccccscccsccsccscc" />
    <path
       d="m 319.00406,102.48799 c 0,0 3.33822,0.96929 7.78184,1.52343 1.79956,0.22442 8.64663,1.00876 13.89625,0.98818 0,0 6.39363,0.008 9.92304,-0.4941 3.69282,-0.52456 5.78503,-1.19402 6.94923,-2.53001 0.0304,-0.31856 0.56198,-1.35694 -0.87344,-2.358208 -3.66982,-2.560011 -8.41404,-3.260814 -17.62927,-5.449223 -10.19024,-2.56201 -13.23546,-5.01522 -14.75686,-6.790827 -1.44237,-1.779428 0.27074,-5.474823 8.48183,-7.28783 4.15742,-1.011704 19.64128,-1.197585 19.64128,-1.197585 -4.44222,-3.526814 -12.78205,-9.84124 -14.48666,-11.184046 -1.49508,-1.177705 -3.90441,-2.985012 -4.16341,-4.600019 -0.34937,-1.572186 2.1254,-2.329209 3.43561,-2.41641 4.22162,-0.291141 9.98624,0.203801 15.11046,1.222805 2.57561,0.512222 3.02801,0.436722 3.02801,0.436722 3.66842,0.174801 6.52163,-1.746867 6.37603,-5.793824 -0.0292,-4.105217 -4.13362,-7.39683 -8.67604,-7.540631 -4.27781,-0.1354 -14.81926,0.611403 -14.81926,0.611403 12.28625,2.53301 14.29486,3.179413 14.93566,4.658419 0.37849,0.873424 -0.63224,1.741867 -4.01781,1.572166 -3.68582,-0.1846 -11.23825,-1.077204 -11.23825,-1.077204 -7.19123,-1.106385 -12.19905,-2.154409 -14.38246,0.698743 -1.42654,1.864048 0.2038,4.134217 0.84433,5.473422 2.85321,4.978621 7.78703,8.394235 10.91784,10.801445 1.17807,0.905744 4.77482,2.911412 4.77482,2.911412 -11.18004,-3.057013 -20.08808,-1.339266 -25.7381,1.630426 -6.49243,3.843216 -5.38203,10.328443 4.92042,16.391467 6.08482,3.581015 9.11463,5.301422 19.07747,6.524627 5.82343,0.92856 6.69123,1.30848 6.64703,1.79323 -0.0624,0.68244 -6.89263,0.94102 -8.77004,1.07052 -4.77621,0.32938 -17.12847,0.41176 -17.19027,0.41176 z"
       style="opacity:0.2;fill:#000000;stroke-width:2.00001"
       id="path1393" />
    <path
       d="m 319.00406,101.48799 c 0,0 3.33822,0.96929 7.78184,1.52343 1.79956,0.22442 8.64663,1.00876 13.89625,0.98818 0,0 6.39363,0.008 9.92304,-0.4941 3.69282,-0.52456 5.78503,-1.19402 6.94923,-2.53001 0.0304,-0.31856 0.56198,-1.356945 -0.87344,-2.358209 -3.66982,-2.560011 -8.41404,-3.260814 -17.62927,-5.449223 -10.19024,-2.56201 -13.23546,-5.01522 -14.75686,-6.790827 -1.44237,-1.779428 0.27074,-5.474823 8.48183,-7.28783 4.15742,-1.011704 19.64128,-1.197585 19.64128,-1.197585 -4.44222,-3.526814 -12.78205,-9.84124 -14.48666,-11.184046 -1.49508,-1.177705 -3.90441,-2.985012 -4.16341,-4.600019 -0.34937,-1.572186 2.1254,-2.329209 3.43561,-2.416409 4.22162,-0.291142 9.98624,0.2038 15.11046,1.222805 2.57561,0.512222 3.02801,0.436721 3.02801,0.436721 3.66842,0.174801 6.52163,-1.746867 6.37603,-5.793823 -0.0292,-4.105217 -4.13362,-7.396831 -8.67604,-7.540631 -4.27781,-0.135401 -14.81926,0.611402 -14.81926,0.611402 12.28625,2.533011 14.29486,3.179413 14.93566,4.658419 0.37849,0.873424 -0.63224,1.741868 -4.01781,1.572167 -3.68582,-0.184601 -11.23825,-1.077205 -11.23825,-1.077205 -7.19123,-1.106384 -12.19905,-2.154408 -14.38246,0.698743 -1.42654,1.864048 0.2038,4.134217 0.84433,5.473423 2.85321,4.97862 7.78703,8.394234 10.91784,10.801444 1.17807,0.905744 4.77482,2.911412 4.77482,2.911412 -11.18004,-3.057013 -20.08808,-1.339266 -25.7381,1.630426 -6.49243,3.843216 -5.38203,10.328443 4.92042,16.391467 6.08482,3.581015 9.11463,5.301422 19.07747,6.524627 5.82343,0.928564 6.69123,1.308485 6.64703,1.793231 -0.0624,0.68244 -6.89263,0.94102 -8.77004,1.07052 -4.77621,0.32938 -17.12847,0.41176 -17.19027,0.41176 z"
       style="fill:#ffffff;stroke-width:2.00001"
       id="path1365" />
    <path
       d="m 100.16379,221.99542 c 0,0 8.58347,4.03782 20.00915,5.46261 4.62708,0.57702 22.23219,2.59375 35.73053,2.54095 0,0 16.43979,0.016 25.51439,-1.27047 9.4954,-1.3488 14.87429,-3.07022 17.86847,-6.50542 0.0784,-0.81909 1.44503,-3.489 -2.24593,-6.06371 -9.43619,-6.58261 -21.63465,-8.38427 -45.32915,-14.01191 -26.20153,-6.5875 -34.43341,-12.896 -38.34595,-17.46048 -3.70872,-4.5754 1.09816,-14.07751 22.21099,-18.73883 10.68971,-2.60135 48.29057,-3.95067 48.29057,-3.95067 -11.42249,-9.06824 -30.6541,-24.43267 -35.03703,-27.88523 -3.84423,-3.02822 -10.03933,-7.6753 -10.70491,-11.82807 -0.89825,-4.04246 5.46477,-5.98892 8.83386,-6.21343 10.8545,-0.74861 25.67755,2.12257 38.85273,4.74264 6.62277,1.31703 7.78549,1.123 7.78549,1.123 9.43224,0.44914 18.64328,-6.09019 18.26889,-16.49603 C 211.79069,94.88505 199.36304,86.42079 187.68301,86.0512 175.86714,86 147.8681,86 147.8681,86 c 31.59159,6.51293 38.46699,9.79782 40.11486,13.600769 0.97596,2.247081 -1.62387,4.479731 -10.32733,4.043741 -9.47939,-0.47514 -28.9022,-2.77022 -28.9022,-2.77022 -18.4868,-2.844591 -29.76601,-5.53965 -35.38165,1.79669 -3.66812,4.79292 0.5241,10.63056 2.17096,14.07352 7.33635,12.80159 18.42276,21.58425 26.47265,27.77344 3.02901,2.32892 12.27685,7.4861 12.27685,7.4861 -28.7462,-7.86041 -53.25276,-3.44364 -67.775859,4.19221 -16.69414,9.88178 -13.83832,26.55673 12.65121,42.14695 15.646219,9.2082 25.035329,13.63113 50.652129,16.77654 14.97344,2.38751 18.00529,3.3644 17.8917,4.61076 -0.1604,1.75474 -18.52368,2.41967 -23.35055,2.75262 -12.28086,0.84689 -44.04204,-0.48782 -44.20044,-0.48782 z"
       style="opacity:0.2;fill:#000000;stroke-width:3.99986"
       id="path1309" />
    <path
       d="m 100.16378,219.99542 c 0,0 8.58347,4.03782 20.00915,5.46261 4.62708,0.57702 22.23219,2.59375 35.73053,2.54095 0,0 16.43979,0.016 25.5144,-1.27047 9.49539,-1.3488 14.87428,-3.07022 17.86846,-6.50542 0.0784,-0.81909 1.44503,-3.489 -2.24592,-6.06371 -9.4362,-6.58261 -21.63466,-8.38427 -45.32916,-14.01191 -26.20153,-6.5875 -34.43341,-12.896 -38.34595,-17.46048 -3.70871,-4.5754 1.09816,-14.07752 22.21099,-18.73883 10.68971,-2.60135 48.29057,-3.95067 48.29057,-3.95067 -11.42248,-9.06824 -30.6541,-24.43267 -35.03703,-27.88523 -3.84422,-3.02822 -10.03933,-7.6753 -10.70491,-11.82808 -0.89825,-4.04246 5.46477,-5.98891 8.83386,-6.21342 10.8545,-0.74862 25.67755,2.12257 38.85274,4.74263 6.62277,1.31704 7.78549,1.12301 7.78549,1.12301 9.43223,0.44914 18.64327,-6.09019 18.26889,-16.49603 -0.0752,-10.55532 -12.50285,-19.019584 -24.18289,-19.389171 -11.81587,-0.0512 -39.8149,-0.0512 -39.8149,-0.0512 31.59158,6.512941 38.46699,9.797821 40.11485,13.600771 0.97597,2.24708 -1.62386,4.47972 -10.32732,4.04374 -9.4794,-0.47514 -28.9022,-2.77022 -28.9022,-2.77022 -18.48681,-2.84458 -29.76602,-5.53965 -35.38166,1.7967 -3.66812,4.79291 0.5241,10.63054 2.17096,14.07351 7.33635,12.80159 18.42277,21.58425 26.47265,27.77344 3.02901,2.32892 12.27685,7.4861 12.27685,7.4861 -28.7462,-7.86041 -53.25276,-3.44364 -67.77586,4.19221 -16.69414,9.88178 -13.83832,26.55673 12.65121,42.14695 15.64622,9.2082 25.03533,13.63113 50.65213,16.77654 14.97344,2.38751 18.0053,3.3644 17.8917,4.61076 -0.16039,1.75474 -18.52368,2.41967 -23.35055,2.75262 -12.28086,0.84689 -44.04204,-0.48782 -44.20044,-0.48782 z"
       style="fill:#ffffff;stroke-width:3.99986"
       id="path1337" />
  </g>
  <g
     id="Highlights">
    <path
       id="rect653"
       style="opacity:0.2;fill:#ffffff"
       d="M 80,44 C 53.408027,44 32,65.408027 32,92 v 2 C 32,67.408027 53.408027,46 80,46 h 128 c 26.59197,0 48,21.408027 48,48 V 92 C 256,65.408027 234.59197,44 208,44 Z"
       sodipodi:nodetypes="sscsscsss" />
    <path
       id="rect773"
       style="opacity:0.2;fill:#ffffff"
       d="m 312,34 c -9.97199,0 -18,8.02801 -18,18 v 1 c 0,-9.97199 8.02801,-18 18,-18 h 48 c 9.97199,0 18,8.02801 18,18 v -1 c 0,-9.97199 -8.02801,-18 -18,-18 z" />
    <path
       id="rect1135"
       style="opacity:0.2;fill:#ffffff;fill-opacity:1"
       d="m 304,144 c -6.64799,0 -12,5.35201 -12,12 v 1 c 0,-6.64799 5.35201,-12 12,-12 h 32 c 6.64799,0 12,5.35201 12,12 v -1 c 0,-6.64799 -5.35201,-12 -12,-12 z" />
    <path
       id="rect1265"
       style="opacity:0.2;fill:#ffffff;fill-opacity:1"
       d="m 300,223 c -4.986,0 -9,4.014 -9,9 v 1 c 0,-4.986 4.014,-9 9,-9 h 24 c 4.986,0 9,4.014 9,9 v -1 c 0,-4.986 -4.014,-9 -9,-9 z" />
    <path
       id="rect1368"
       style="opacity:0.2;fill:#ffffff;fill-opacity:1"
       d="m 424,54 c -3.324,0 -6,2.676003 -6,6 v 1 c 0,-3.323997 2.676,-6 6,-6 h 16 c 3.324,0 6,2.676003 6,6 v -1 c 0,-3.323997 -2.676,-6 -6,-6 z" />
    <path
       id="rect1402"
       style="opacity:0.2;fill:#ffffff;fill-opacity:1"
       d="m 420,140 c -2.216,0 -4,1.784 -4,4 v 1 c 0,-2.216 1.784,-4 4,-4 h 8 c 2.216,0 4,1.784 4,4 v -1 c 0,-2.216 -1.784,-4 -4,-4 z" />
    <path
       id="rect1436"
       style="opacity:0.2;fill:#ffffff;fill-opacity:1"
       d="m 422,102 c -2.216,0 -4,1.784 -4,4 v 1 c 0,-2.216 1.784,-4 4,-4 h 12 c 2.216,0 4,1.784 4,4 v -1 c 0,-2.216 -1.784,-4 -4,-4 z" />
  </g>
</svg>
