<?xml version="1.0" encoding="UTF-8" standalone="no"?>
<!-- Created with Inkscape (http://www.inkscape.org/) -->

<svg
   width="480"
   height="300"
   viewBox="0 0 480 300"
   version="1.1"
   id="svg5"
   inkscape:version="1.2.2 (1:1.2.2+202305151914+b0a8486541)"
   sodipodi:docname="exaile.svg"
   xmlns:inkscape="http://www.inkscape.org/namespaces/inkscape"
   xmlns:sodipodi="http://sodipodi.sourceforge.net/DTD/sodipodi-0.dtd"
   xmlns="http://www.w3.org/2000/svg"
   xmlns:svg="http://www.w3.org/2000/svg">
  <sodipodi:namedview
     id="namedview7"
     pagecolor="#888888"
     bordercolor="#000000"
     borderopacity="0.25"
     inkscape:showpageshadow="true"
     inkscape:pageopacity="0"
     inkscape:pagecheckerboard="0"
     inkscape:deskcolor="#888888"
     inkscape:document-units="px"
     showgrid="false"
     showborder="false"
     inkscape:zoom="2.6866667"
     inkscape:cx="239.88834"
     inkscape:cy="150"
     inkscape:window-width="1920"
     inkscape:window-height="1008"
     inkscape:window-x="0"
     inkscape:window-y="0"
     inkscape:window-maximized="1"
     inkscape:current-layer="g1599" />
  <defs
     id="defs2" />
  <g
     id="Baseplate"
     style="display:none">
    <text
       y="19.774782"
       xml:space="preserve"
       x="15.006946"
       style="font-style:normal;font-variant:normal;font-weight:normal;font-stretch:normal;line-height:0%;font-family:'DejaVu Sans';-inkscape-font-specification:'DejaVu Sans';display:inline;fill:#000000;fill-opacity:1;stroke:none;enable-background:new"
       inkscape:label="context"
       id="context"><tspan
         style="font-style:normal;font-variant:normal;font-weight:normal;font-stretch:normal;font-size:18px;line-height:1.25;font-family:'DejaVu Sans';-inkscape-font-specification:'DejaVu Sans'"
         y="19.774782"
         x="15.006946"
         sodipodi:role="line"
         id="tspan3933">apps</tspan></text>
    <text
       y="19.774782"
       xml:space="preserve"
       x="122.48839"
       style="font-style:normal;font-variant:normal;font-weight:bold;font-stretch:normal;line-height:0%;font-family:'DejaVu Sans';-inkscape-font-specification:'DejaVu Sans Bold';text-align:start;writing-mode:lr-tb;text-anchor:start;display:inline;fill:#000000;fill-opacity:1;stroke:none;enable-background:new"
       inkscape:label="icon-name"
       id="icon-name"><tspan
         style="font-style:normal;font-variant:normal;font-weight:bold;font-stretch:normal;font-size:18px;line-height:1.25;font-family:'DejaVu Sans';-inkscape-font-specification:'DejaVu Sans Bold'"
         y="19.774782"
         x="122.48839"
         sodipodi:role="line"
         id="tspan3937">exaile</tspan></text>
    <rect
       style="fill:#ffffff"
       id="256x256"
       width="256"
       height="256"
       x="16"
       y="28" />
    <rect
       style="fill:#ffffff"
       id="96x96"
       width="96"
       height="96"
       x="288"
       y="28" />
    <rect
       style="fill:#ffffff"
       id="64x64"
       width="64"
       height="64"
       x="288"
       y="140" />
    <rect
       style="fill:#ffffff"
       id="48x48"
       width="48"
       height="48"
       x="288"
       y="220" />
    <rect
       style="fill:#ffffff"
       id="32x32"
       width="32"
       height="32"
       x="416"
       y="52" />
    <rect
       style="fill:#ffffff"
       id="24x24"
       width="24"
       height="24"
       x="416"
       y="100" />
    <rect
       style="fill:#ffffff"
       id="22x22"
       width="22"
       height="22"
       x="417"
       y="101" />
    <rect
       style="fill:#ffffff"
       id="16x16"
       width="16"
       height="16"
       x="416"
       y="140" />
  </g>
  <g
     id="Shadow">
    <rect
       style="opacity:0.2;fill:#000000"
       id="rect651"
       width="224"
       height="224"
       x="32"
       y="46"
       ry="48" />
    <rect
       style="opacity:0.2;fill:#000000"
       id="rect769"
       width="84"
       height="85"
       x="294"
       y="34"
       ry="18" />
    <rect
       style="opacity:0.2;fill:#000000;fill-opacity:1"
       id="rect1131"
       width="56"
       height="56"
       x="292"
       y="145"
       ry="12" />
    <rect
       style="opacity:0.2;fill:#000000;fill-opacity:1"
       id="rect1261"
       width="42"
       height="42"
       x="291"
       y="224"
       ry="9" />
    <rect
       style="opacity:0.2;fill:#000000;fill-opacity:1"
       id="rect1364"
       width="28"
       height="29"
       x="418"
       y="54"
       ry="6" />
    <rect
       style="opacity:0.2;fill:#000000;fill-opacity:1"
       id="rect1398"
       width="16"
       height="16"
       x="416"
       y="141"
       ry="4" />
    <rect
       style="opacity:0.2;fill:#000000;fill-opacity:1"
       id="rect1432"
       width="20"
       height="20"
       x="418"
       y="103"
       ry="4" />
  </g>
  <g
     id="Background">
    <rect
       style="fill:#90ae32;fill-opacity:1"
       id="rect597"
       width="224"
       height="224"
       x="32"
       y="44"
       ry="48" />
    <rect
       style="opacity:1;fill:#90ae32;fill-opacity:1"
       id="rect771"
       width="84"
       height="84"
       x="294"
       y="34"
       ry="18" />
    <rect
       style="opacity:1;fill:#90ae32;fill-opacity:1"
       id="rect1133"
       width="56"
       height="56"
       x="292"
       y="144"
       ry="12" />
    <rect
       style="opacity:1;fill:#90ae32;fill-opacity:1"
       id="rect1263"
       width="42"
       height="42"
       x="291"
       y="223"
       ry="9" />
    <rect
       style="opacity:1;fill:#90ae32;fill-opacity:1"
       id="rect1366"
       width="28"
       height="28"
       x="418"
       y="54"
       ry="6" />
    <rect
       style="opacity:1;fill:#90ae32;fill-opacity:1"
       id="rect1400"
       width="16"
       height="16"
       x="416"
       y="140"
       ry="4" />
    <rect
       style="opacity:1;fill:#90ae32;fill-opacity:1"
       id="rect1434"
       width="20"
       height="20"
       x="418"
       y="102"
       ry="4" />
  </g>
  <g
     id="g1599">
    <g
       id="g2086">
      <path
         d="m 428.00001,148.49986 c 0,0.63691 -6.07529,4.29897 -6.60379,3.98057 -0.52829,-0.31846 -0.52829,-7.64272 0,-7.96085 0.52836,-0.3184 6.60379,3.34361 6.60379,3.98055 z"
         style="opacity:0.2;fill:#000000;stroke-width:1.36625"
         id="path2036"
         sodipodi:nodetypes="ccccc" />
      <path
         d="m 428.00001,147.99986 c 0,0.63691 -6.07529,4.29897 -6.60379,3.98057 -0.52829,-0.31846 -0.52829,-7.64272 0,-7.96085 0.52836,-0.3184 6.60379,3.34361 6.60379,3.98055 z"
         style="fill:#ffffff;stroke-width:1.36625"
         id="path2064" />
    </g>
    <g
       id="g1594">
      <path
         d="m 431.99996,111.99983 c 0,0.71649 -6.9428,4.8363 -7.5467,4.478 -0.6042,-0.358 -0.6042,-8.5979 -5e-4,-8.9558 0.6037,-0.3583 7.5472,3.7615 7.5472,4.4778 z"
         style="fill:#000000;opacity:0.2"
         id="path1572" />
      <path
         d="m 431.99996,111.49983 c 0,0.71649 -6.9428,4.8363 -7.5467,4.478 -0.6042,-0.358 -0.6042,-8.5979 -5e-4,-8.9558 0.6037,-0.3583 7.5472,3.7615 7.5472,4.4778 z"
         style="fill:#ffffff"
         id="path922"
         sodipodi:nodetypes="sccs" />
    </g>
    <g
       id="g1899">
      <path
         d="m 438.99975,68.999844 c 0,1.114558 -11.28199,7.523239 -12.26333,6.96588 -0.98181,-0.556901 -0.98181,-13.37471 -4.6e-4,-13.931448 C 427.71688,61.476917 439,67.885584 439,68.999844 Z"
         style="fill:#000000;stroke-width:1.58989;opacity:0.2"
         id="path1849"
         sodipodi:nodetypes="ccccc" />
      <path
         d="m 438.99975,67.999844 c 0,1.114558 -11.28199,7.523239 -12.26333,6.96588 -0.98181,-0.556901 -0.98181,-13.37471 -4.6e-4,-13.931448 C 427.71688,60.476917 439,66.885584 439,67.999844 Z"
         style="fill:#ffffff;stroke-width:1.58989"
         id="path1877" />
    </g>
    <g
       id="g1790">
      <path
         d="m 321.99999,244.99978 c 0,1.59223 -15.62147,10.74749 -16.98027,9.95126 -1.35946,-0.79557 -1.35946,-19.10673 -0.001,-19.90207 1.35823,-0.79623 16.98127,8.35901 16.98127,9.95081 z"
         style="fill:#000000;stroke-width:2.23609;opacity:0.2"
         id="path1637" />
      <path
         d="m 321.99999,243.99978 c 0,1.59223 -15.62147,10.74749 -16.98027,9.95126 -1.35946,-0.79557 -1.35946,-19.10673 -0.001,-19.90207 1.35823,-0.79623 16.98127,8.35901 16.98127,9.95081 z"
         style="fill:#ffffff;stroke-width:2.23609"
         id="path1609"
         sodipodi:nodetypes="sccs" />
    </g>
    <g
       id="g1794">
      <path
         d="m 334.99948,172.99967 c 0,2.38834 -24.29968,16.12123 -26.41334,14.92689 -2.11468,-1.19336 -2.11468,-28.6601 -10e-4,-29.85311 2.11276,-1.19434 26.41489,12.53852 26.41489,14.92622 z"
         style="opacity:0.2;fill:#000000;stroke-width:3.41565"
         id="path1693"
         sodipodi:nodetypes="ccccc" />
      <path
         d="m 334.99948,171.99967 c 0,2.38834 -24.29968,16.12123 -26.41334,14.92689 -2.11468,-1.19336 -2.11468,-28.6601 -10e-4,-29.85311 2.11276,-1.19434 26.41489,12.53852 26.41489,14.92622 z"
         style="fill:#ffffff;stroke-width:3.41565"
         id="path1665"
         sodipodi:nodetypes="ccccc" />
    </g>
    <g
       id="g1839">
      <path
         d="m 354,76.999568 c 0,3.18446 -31.24296,21.49498 -33.96056,19.90252 -2.71892,-1.59114 -2.71892,-38.21348 -0.002,-39.804155 C 322.7539,55.505463 354,73.815958 354,76.999568 Z"
         style="fill:#000000;stroke-width:4.47218;opacity:0.2"
         id="path1817" />
      <path
         d="m 354,75.999563 c 0,3.18446 -31.24296,21.49499 -33.96056,19.90253 -2.71892,-1.59114 -2.71892,-38.21348 -0.002,-39.80416 C 322.7539,54.505463 354,72.815963 354,75.999563 Z"
         style="fill:#ffffff;stroke-width:4.47218"
         id="path1781"
         sodipodi:nodetypes="sccs" />
    </g>
    <g
       id="g1771"
       transform="translate(2.0000385,-8.3705874e-5)">
      <path
         d="m 199.99768,157.99866 c 0,9.55335 -97.19856,64.48482 -105.653192,59.70747 -8.4587,-4.77343 -8.4587,-114.64022 -0.004,-119.412255 8.451032,-4.77735 105.659392,50.154005 105.659392,59.704785 z"
         style="opacity:0.2;fill:#000000;stroke-width:13.6626"
         id="path1749" />
      <path
         d="m 199.99776,155.99867 c 0,9.55334 -97.19856,64.48481 -105.653192,59.70746 -8.4587,-4.77343 -8.4587,-114.64021 -0.004,-119.412255 8.451032,-4.77735 105.659392,50.154005 105.659392,59.704795 z"
         style="fill:#ffffff;stroke-width:13.6626"
         id="path1721" />
    </g>
  </g>
  <g
     id="Highlights">
    <path
       id="rect653"
       style="opacity:0.5;fill:#ffffff"
       d="M 80,44 C 53.408027,44 32,65.408027 32,92 v 2 C 32,67.408027 53.408027,46 80,46 h 128 c 26.59197,0 48,21.408027 48,48 V 92 C 256,65.408027 234.59197,44 208,44 Z"
       sodipodi:nodetypes="sscsscsss" />
    <path
       id="rect773"
       style="opacity:0.5;fill:#ffffff"
       d="m 312,34 c -9.97199,0 -18,8.02801 -18,18 v 1 c 0,-9.97199 8.02801,-18 18,-18 h 48 c 9.97199,0 18,8.02801 18,18 v -1 c 0,-9.97199 -8.02801,-18 -18,-18 z" />
    <path
       id="rect1135"
       style="opacity:0.5;fill:#ffffff;fill-opacity:1"
       d="m 304,144 c -6.64799,0 -12,5.35201 -12,12 v 1 c 0,-6.64799 5.35201,-12 12,-12 h 32 c 6.64799,0 12,5.35201 12,12 v -1 c 0,-6.64799 -5.35201,-12 -12,-12 z" />
    <path
       id="rect1265"
       style="opacity:0.5;fill:#ffffff;fill-opacity:1"
       d="m 300,223 c -4.986,0 -9,4.014 -9,9 v 1 c 0,-4.986 4.014,-9 9,-9 h 24 c 4.986,0 9,4.014 9,9 v -1 c 0,-4.986 -4.014,-9 -9,-9 z" />
    <path
       id="rect1368"
       style="opacity:0.5;fill:#ffffff;fill-opacity:1"
       d="m 424,54 c -3.324,0 -6,2.676003 -6,6 v 1 c 0,-3.323997 2.676,-6 6,-6 h 16 c 3.324,0 6,2.676003 6,6 v -1 c 0,-3.323997 -2.676,-6 -6,-6 z" />
    <path
       id="rect1402"
       style="opacity:0.5;fill:#ffffff;fill-opacity:1"
       d="m 420,140 c -2.216,0 -4,1.784 -4,4 v 1 c 0,-2.216 1.784,-4 4,-4 h 8 c 2.216,0 4,1.784 4,4 v -1 c 0,-2.216 -1.784,-4 -4,-4 z" />
    <path
       id="rect1436"
       style="opacity:0.5;fill:#ffffff;fill-opacity:1"
       d="m 422,102 c -2.216,0 -4,1.784 -4,4 v 1 c 0,-2.216 1.784,-4 4,-4 h 12 c 2.216,0 4,1.784 4,4 v -1 c 0,-2.216 -1.784,-4 -4,-4 z" />
  </g>
</svg>
