<?xml version="1.0" encoding="UTF-8" standalone="no"?>
<!-- Created with Inkscape (http://www.inkscape.org/) -->

<svg
   width="480"
   height="300"
   viewBox="0 0 480 300"
   version="1.1"
   id="svg5"
   inkscape:version="1.2.2 (1:1.2.2+202305151914+b0a8486541)"
   sodipodi:docname="firewall.svg"
   xmlns:inkscape="http://www.inkscape.org/namespaces/inkscape"
   xmlns:sodipodi="http://sodipodi.sourceforge.net/DTD/sodipodi-0.dtd"
   xmlns="http://www.w3.org/2000/svg"
   xmlns:svg="http://www.w3.org/2000/svg">
  <sodipodi:namedview
     id="namedview7"
     pagecolor="#888888"
     bordercolor="#000000"
     borderopacity="0.25"
     inkscape:showpageshadow="true"
     inkscape:pageopacity="0"
     inkscape:pagecheckerboard="0"
     inkscape:deskcolor="#888888"
     inkscape:document-units="px"
     showgrid="false"
     showborder="false"
     inkscape:zoom="2.6866667"
     inkscape:cx="240.07444"
     inkscape:cy="150"
     inkscape:window-width="1920"
     inkscape:window-height="1008"
     inkscape:window-x="0"
     inkscape:window-y="0"
     inkscape:window-maximized="1"
     inkscape:current-layer="svg5" />
  <defs
     id="defs2">
    <mask
       maskUnits="userSpaceOnUse"
       id="mask2274">
      <rect
         style="opacity:1;fill:#ffffff;fill-opacity:1;stroke-width:5;stroke-linecap:round;stroke-linejoin:round"
         id="rect2276"
         width="16"
         height="16"
         x="416"
         y="140"
         ry="4" />
    </mask>
    <mask
       maskUnits="userSpaceOnUse"
       id="mask2278">
      <rect
         style="opacity:1;fill:#ffffff;fill-opacity:1;stroke-width:5;stroke-linecap:round;stroke-linejoin:round"
         id="rect2280"
         width="16"
         height="16"
         x="416"
         y="140"
         ry="4" />
    </mask>
    <mask
       maskUnits="userSpaceOnUse"
       id="mask2401">
      <rect
         style="opacity:1;fill:#ffffff;fill-opacity:1;stroke-width:5;stroke-linecap:round;stroke-linejoin:round"
         id="rect2403"
         width="20"
         height="20"
         x="418"
         y="102"
         ry="4" />
    </mask>
    <mask
       maskUnits="userSpaceOnUse"
       id="mask2927">
      <rect
         style="opacity:1;fill:#ffffff;fill-opacity:1;stroke-width:5;stroke-linecap:round;stroke-linejoin:round"
         id="rect2929"
         width="20"
         height="20"
         x="418"
         y="102"
         ry="4" />
    </mask>
    <mask
       maskUnits="userSpaceOnUse"
       id="mask2931">
      <rect
         style="opacity:1;fill:#ffffff;fill-opacity:1;stroke-width:5;stroke-linecap:round;stroke-linejoin:round"
         id="rect2933"
         width="28"
         height="28"
         x="418"
         y="54"
         ry="6" />
    </mask>
    <mask
       maskUnits="userSpaceOnUse"
       id="mask2935">
      <rect
         style="opacity:1;fill:#ffffff;fill-opacity:1;stroke-width:5;stroke-linecap:round;stroke-linejoin:round"
         id="rect2937"
         width="28"
         height="28"
         x="418"
         y="54"
         ry="6" />
    </mask>
    <mask
       maskUnits="userSpaceOnUse"
       id="mask2931-6">
      <rect
         style="opacity:1;fill:#ffffff;fill-opacity:1;stroke-width:5;stroke-linecap:round;stroke-linejoin:round"
         id="rect2933-0"
         width="28"
         height="28"
         x="418"
         y="54"
         ry="6" />
    </mask>
    <mask
       maskUnits="userSpaceOnUse"
       id="mask2935-6">
      <rect
         style="opacity:1;fill:#ffffff;fill-opacity:1;stroke-width:5;stroke-linecap:round;stroke-linejoin:round"
         id="rect2937-2"
         width="28"
         height="28"
         x="418"
         y="54"
         ry="6" />
    </mask>
    <mask
       maskUnits="userSpaceOnUse"
       id="mask3206">
      <rect
         style="opacity:1;fill:#ffffff;fill-opacity:1;stroke-width:5;stroke-linecap:round;stroke-linejoin:round"
         id="rect3208"
         width="42"
         height="42"
         x="291"
         y="223"
         ry="9" />
    </mask>
    <mask
       maskUnits="userSpaceOnUse"
       id="mask3210">
      <rect
         style="opacity:1;fill:#ffffff;fill-opacity:1;stroke-width:5;stroke-linecap:round;stroke-linejoin:round"
         id="rect3212"
         width="42"
         height="42"
         x="291"
         y="223"
         ry="9" />
    </mask>
    <mask
       maskUnits="userSpaceOnUse"
       id="mask3620">
      <rect
         style="fill:#ffffff;fill-opacity:1;stroke-width:5;stroke-linecap:round;stroke-linejoin:round"
         id="rect3622"
         width="84"
         height="84"
         x="294"
         y="34"
         ry="18" />
    </mask>
    <mask
       maskUnits="userSpaceOnUse"
       id="mask3624">
      <rect
         style="opacity:1;fill:#ffffff;fill-opacity:1;stroke-width:5;stroke-linecap:round;stroke-linejoin:round"
         id="rect3626"
         width="84"
         height="84"
         x="294"
         y="34"
         ry="18" />
    </mask>
    <mask
       maskUnits="userSpaceOnUse"
       id="mask4360">
      <rect
         style="fill:#ffffff;fill-opacity:1"
         id="rect4362"
         width="224"
         height="224"
         x="31.999996"
         y="44"
         ry="48" />
    </mask>
    <mask
       maskUnits="userSpaceOnUse"
       id="mask4364">
      <rect
         style="fill:#ffffff;fill-opacity:1"
         id="rect4366"
         width="224"
         height="224"
         x="31.999998"
         y="44"
         ry="48" />
    </mask>
  </defs>
  <g
     id="Baseplate"
     style="display:none">
    <text
       y="19.774782"
       xml:space="preserve"
       x="15.006946"
       style="font-style:normal;font-variant:normal;font-weight:normal;font-stretch:normal;line-height:0%;font-family:'DejaVu Sans';-inkscape-font-specification:'DejaVu Sans';display:inline;fill:#000000;fill-opacity:1;stroke:none;enable-background:new"
       inkscape:label="context"
       id="context"><tspan
         style="font-style:normal;font-variant:normal;font-weight:normal;font-stretch:normal;font-size:18px;line-height:1.25;font-family:'DejaVu Sans';-inkscape-font-specification:'DejaVu Sans'"
         y="19.774782"
         x="15.006946"
         sodipodi:role="line"
         id="tspan3933">apps</tspan></text>
    <text
       y="19.774782"
       xml:space="preserve"
       x="122.48839"
       style="font-style:normal;font-variant:normal;font-weight:bold;font-stretch:normal;line-height:0%;font-family:'DejaVu Sans';-inkscape-font-specification:'DejaVu Sans Bold';text-align:start;writing-mode:lr-tb;text-anchor:start;display:inline;fill:#000000;fill-opacity:1;stroke:none;enable-background:new"
       inkscape:label="icon-name"
       id="icon-name"><tspan
         style="font-style:normal;font-variant:normal;font-weight:bold;font-stretch:normal;font-size:18px;line-height:1.25;font-family:'DejaVu Sans';-inkscape-font-specification:'DejaVu Sans Bold'"
         y="19.774782"
         x="122.48839"
         sodipodi:role="line"
         id="tspan3937">firewall</tspan></text>
    <rect
       style="fill:#ffffff"
       id="256x256"
       width="256"
       height="256"
       x="16"
       y="28" />
    <rect
       style="fill:#ffffff"
       id="96x96"
       width="96"
       height="96"
       x="288"
       y="28" />
    <rect
       style="fill:#ffffff"
       id="64x64"
       width="64"
       height="64"
       x="288"
       y="140" />
    <rect
       style="fill:#ffffff"
       id="48x48"
       width="48"
       height="48"
       x="288"
       y="220" />
    <rect
       style="fill:#ffffff"
       id="32x32"
       width="32"
       height="32"
       x="416"
       y="52" />
    <rect
       style="fill:#ffffff"
       id="24x24"
       width="24"
       height="24"
       x="416"
       y="100" />
    <rect
       style="fill:#ffffff"
       id="22x22"
       width="22"
       height="22"
       x="417"
       y="101" />
    <rect
       style="fill:#ffffff"
       id="16x16"
       width="16"
       height="16"
       x="416"
       y="140" />
  </g>
  <g
     id="Shadow">
    <rect
       style="opacity:0.2;fill:#000000"
       id="rect651"
       width="224"
       height="224"
       x="32"
       y="46"
       ry="48" />
    <rect
       style="opacity:0.2;fill:#000000"
       id="rect769"
       width="84"
       height="85"
       x="294"
       y="34"
       ry="18" />
    <rect
       style="opacity:0.2;fill:#000000;fill-opacity:1"
       id="rect1131"
       width="56"
       height="56"
       x="292"
       y="145"
       ry="12" />
    <rect
       style="opacity:0.2;fill:#000000;fill-opacity:1"
       id="rect1261"
       width="42"
       height="42"
       x="291"
       y="224"
       ry="9" />
    <rect
       style="opacity:0.2;fill:#000000;fill-opacity:1"
       id="rect1364"
       width="28"
       height="29"
       x="418"
       y="54"
       ry="6" />
    <rect
       style="opacity:0.2;fill:#000000;fill-opacity:1"
       id="rect1398"
       width="16"
       height="16"
       x="416"
       y="141"
       ry="4" />
    <rect
       style="opacity:0.2;fill:#000000;fill-opacity:1"
       id="rect1432"
       width="20"
       height="20"
       x="418"
       y="103"
       ry="4" />
  </g>
  <g
     id="Background">
    <rect
       style="fill:#4f4f4f;fill-opacity:1"
       id="rect597"
       width="224"
       height="224"
       x="32"
       y="44"
       ry="48" />
    <rect
       style="opacity:1;fill:#4f4f4f;fill-opacity:1"
       id="rect771"
       width="84"
       height="84"
       x="294"
       y="34"
       ry="18" />
    <rect
       style="opacity:1;fill:#4f4f4f;fill-opacity:1"
       id="rect1133"
       width="56"
       height="56"
       x="292"
       y="144"
       ry="12" />
    <rect
       style="opacity:1;fill:#4f4f4f;fill-opacity:1"
       id="rect1263"
       width="42"
       height="42"
       x="291"
       y="223"
       ry="9" />
    <rect
       style="opacity:1;fill:#4f4f4f;fill-opacity:1"
       id="rect1366"
       width="28"
       height="28"
       x="418"
       y="54"
       ry="6" />
    <rect
       style="opacity:1;fill:#4f4f4f;fill-opacity:1"
       id="rect1400"
       width="16"
       height="16"
       x="416"
       y="140"
       ry="4" />
    <rect
       style="opacity:1;fill:#4f4f4f;fill-opacity:1"
       id="rect1434"
       width="20"
       height="20"
       x="418"
       y="102"
       ry="4" />
  </g>
  <g
     id="g2158">
    <g
       id="g2162">
      <path
         d="m 411,141.5 c -0.554,0 -1,0.446 -1,1 v 2 c 0,0.554 0.446,1 1,1 h 4 c 0.554,0 1,-0.446 1,-1 v -2 c 0,-0.554 -0.446,-1 -1,-1 z m 7,0 c -0.554,0 -1,0.446 -1,1 v 2 c 0,0.554 0.446,1 1,1 h 4 c 0.554,0 1,-0.446 1,-1 v -2 c 0,-0.554 -0.446,-1 -1,-1 z m 7,0 c -0.554,0 -1,0.446 -1,1 v 2 c 0,0.554 0.446,1 1,1 h 4 c 0.554,0 1,-0.446 1,-1 v -2 c 0,-0.554 -0.446,-1 -1,-1 z m 7,0 c -0.554,0 -1,0.446 -1,1 v 2 c 0,0.554 0.446,1 1,1 h 4 c 0.554,0 1,-0.446 1,-1 v -2 c 0,-0.554 -0.446,-1 -1,-1 z m -17,5 c -0.554,0 -1,0.446 -1,1 v 2 c 0,0.554 0.446,1 1,1 h 4 c 0.554,0 1,-0.446 1,-1 v -2 c 0,-0.554 -0.446,-1 -1,-1 z m 7,0 c -0.554,0 -1,0.446 -1,1 v 2 c 0,0.554 0.446,1 1,1 h 4 c 0.554,0 1,-0.446 1,-1 v -2 c 0,-0.554 -0.446,-1 -1,-1 z m 7,0 c -0.554,0 -1,0.446 -1,1 v 2 c 0,0.554 0.446,1 1,1 h 4 c 0.554,0 1,-0.446 1,-1 v -2 c 0,-0.554 -0.446,-1 -1,-1 z m -18,5 c -0.554,0 -1,0.446 -1,1 v 2 c 0,0.554 0.446,1 1,1 h 4 c 0.554,0 1,-0.446 1,-1 v -2 c 0,-0.554 -0.446,-1 -1,-1 z m 7,0 c -0.554,0 -1,0.446 -1,1 v 2 c 0,0.554 0.446,1 1,1 h 4 c 0.554,0 1,-0.446 1,-1 v -2 c 0,-0.554 -0.446,-1 -1,-1 z m 7,0 c -0.554,0 -1,0.446 -1,1 v 2 c 0,0.554 0.446,1 1,1 h 4 c 0.554,0 1,-0.446 1,-1 v -2 c 0,-0.554 -0.446,-1 -1,-1 z m 7,0 c -0.554,0 -1,0.446 -1,1 v 2 c 0,0.554 0.446,1 1,1 h 4 c 0.554,0 1,-0.446 1,-1 v -2 c 0,-0.554 -0.446,-1 -1,-1 z"
         style="fill:#000000;fill-opacity:1;stroke-width:5;stroke-linecap:round;stroke-linejoin:round;opacity:0.2"
         id="path2136"
         mask="url(#mask2278)" />
      <path
         d="m 411,141 c -0.554,0 -1,0.446 -1,1 v 2 c 0,0.554 0.446,1 1,1 h 4 c 0.554,0 1,-0.446 1,-1 v -2 c 0,-0.554 -0.446,-1 -1,-1 z m 7,0 c -0.554,0 -1,0.446 -1,1 v 2 c 0,0.554 0.446,1 1,1 h 4 c 0.554,0 1,-0.446 1,-1 v -2 c 0,-0.554 -0.446,-1 -1,-1 z m 7,0 c -0.554,0 -1,0.446 -1,1 v 2 c 0,0.554 0.446,1 1,1 h 4 c 0.554,0 1,-0.446 1,-1 v -2 c 0,-0.554 -0.446,-1 -1,-1 z m 7,0 c -0.554,0 -1,0.446 -1,1 v 2 c 0,0.554 0.446,1 1,1 h 4 c 0.554,0 1,-0.446 1,-1 v -2 c 0,-0.554 -0.446,-1 -1,-1 z m -17,5 c -0.554,0 -1,0.446 -1,1 v 2 c 0,0.554 0.446,1 1,1 h 4 c 0.554,0 1,-0.446 1,-1 v -2 c 0,-0.554 -0.446,-1 -1,-1 z m 7,0 c -0.554,0 -1,0.446 -1,1 v 2 c 0,0.554 0.446,1 1,1 h 4 c 0.554,0 1,-0.446 1,-1 v -2 c 0,-0.554 -0.446,-1 -1,-1 z m 7,0 c -0.554,0 -1,0.446 -1,1 v 2 c 0,0.554 0.446,1 1,1 h 4 c 0.554,0 1,-0.446 1,-1 v -2 c 0,-0.554 -0.446,-1 -1,-1 z m -18,5 c -0.554,0 -1,0.446 -1,1 v 2 c 0,0.554 0.446,1 1,1 h 4 c 0.554,0 1,-0.446 1,-1 v -2 c 0,-0.554 -0.446,-1 -1,-1 z m 7,0 c -0.554,0 -1,0.446 -1,1 v 2 c 0,0.554 0.446,1 1,1 h 4 c 0.554,0 1,-0.446 1,-1 v -2 c 0,-0.554 -0.446,-1 -1,-1 z m 7,0 c -0.554,0 -1,0.446 -1,1 v 2 c 0,0.554 0.446,1 1,1 h 4 c 0.554,0 1,-0.446 1,-1 v -2 c 0,-0.554 -0.446,-1 -1,-1 z m 7,0 c -0.554,0 -1,0.446 -1,1 v 2 c 0,0.554 0.446,1 1,1 h 4 c 0.554,0 1,-0.446 1,-1 v -2 c 0,-0.554 -0.446,-1 -1,-1 z"
         style="fill:#f45c49;fill-opacity:1;stroke-width:5;stroke-linecap:round;stroke-linejoin:round"
         id="path2108"
         sodipodi:nodetypes="sssssssssssssssssssssssssssssssssssssssssssssssssssssssssssssssssssssssssssssssssssssssssssssssssss"
         mask="url(#mask2274)" />
    </g>
    <g
       id="g2918">
      <path
         d="m 417,100.5 c -0.554,0 -1,0.446 -1,1 v 2 c 0,0.554 0.446,1 1,1 h 5 c 0.554,0 1,-0.446 1,-1 v -2 c 0,-0.554 -0.446,-1 -1,-1 z m 8,0 c -0.554,0 -1,0.446 -1,1 v 2 c 0,0.554 0.446,1 1,1 h 5 c 0.554,0 1,-0.446 1,-1 v -2 c 0,-0.554 -0.446,-1 -1,-1 z m 8,0 c -0.554,0 -1,0.446 -1,1 v 2 c 0,0.554 0.446,1 1,1 h 5 c 0.554,0 1,-0.446 1,-1 v -2 c 0,-0.554 -0.446,-1 -1,-1 z m -20,5 c -0.554,0 -1,0.446 -1,1 v 2 c 0,0.554 0.446,1 1,1 h 5 c 0.554,0 1,-0.446 1,-1 v -2 c 0,-0.554 -0.446,-1 -1,-1 z m 8,0 c -0.554,0 -1,0.446 -1,1 v 2 c 0,0.554 0.446,1 1,1 h 5 c 0.554,0 1,-0.446 1,-1 v -2 c 0,-0.554 -0.446,-1 -1,-1 z m 8,0 c -0.554,0 -1,0.446 -1,1 v 2 c 0,0.554 0.446,1 1,1 h 5 c 0.554,0 1,-0.446 1,-1 v -2 c 0,-0.554 -0.446,-1 -1,-1 z m 8,0 c -0.554,0 -1,0.446 -1,1 v 2 c 0,0.554 0.446,1 1,1 h 5 c 0.554,0 1,-0.446 1,-1 v -2 c 0,-0.554 -0.446,-1 -1,-1 z m -20,5 c -0.554,0 -1,0.446 -1,1 v 2 c 0,0.554 0.446,1 1,1 h 5 c 0.554,0 1,-0.446 1,-1 v -2 c 0,-0.554 -0.446,-1 -1,-1 z m 8,0 c -0.554,0 -1,0.446 -1,1 v 2 c 0,0.554 0.446,1 1,1 h 5 c 0.554,0 1,-0.446 1,-1 v -2 c 0,-0.554 -0.446,-1 -1,-1 z m 8,0 c -0.554,0 -1,0.446 -1,1 v 2 c 0,0.554 0.446,1 1,1 h 5 c 0.554,0 1,-0.446 1,-1 v -2 c 0,-0.554 -0.446,-1 -1,-1 z m -20,5 c -0.554,0 -1,0.446 -1,1 v 2 c 0,0.554 0.446,1 1,1 h 5 c 0.554,0 1,-0.446 1,-1 v -2 c 0,-0.554 -0.446,-1 -1,-1 z m 8,0 c -0.554,0 -1,0.446 -1,1 v 2 c 0,0.554 0.446,1 1,1 h 5 c 0.554,0 1,-0.446 1,-1 v -2 c 0,-0.554 -0.446,-1 -1,-1 z m 8,0 c -0.554,0 -1,0.446 -1,1 v 2 c 0,0.554 0.446,1 1,1 h 5 c 0.554,0 1,-0.446 1,-1 v -2 c 0,-0.554 -0.446,-1 -1,-1 z m 8,0 c -0.554,0 -1,0.446 -1,1 v 2 c 0,0.554 0.446,1 1,1 h 5 c 0.554,0 1,-0.446 1,-1 v -2 c 0,-0.554 -0.446,-1 -1,-1 z m -20,5 c -0.554,0 -1,0.446 -1,1 v 2 c 0,0.554 0.446,1 1,1 h 5 c 0.554,0 1,-0.446 1,-1 v -2 c 0,-0.554 -0.446,-1 -1,-1 z m 8,0 c -0.554,0 -1,0.446 -1,1 v 2 c 0,0.554 0.446,1 1,1 h 5 c 0.554,0 1,-0.446 1,-1 v -2 c 0,-0.554 -0.446,-1 -1,-1 z m 8,0 c -0.554,0 -1,0.446 -1,1 v 2 c 0,0.554 0.446,1 1,1 h 5 c 0.554,0 1,-0.446 1,-1 v -2 c 0,-0.554 -0.446,-1 -1,-1 z"
         style="fill:#000000;fill-opacity:1;stroke-width:5;stroke-linecap:round;stroke-linejoin:round;opacity:0.2"
         id="path2373"
         mask="url(#mask2927)" />
      <path
         id="path2290"
         style="fill:#f45c49;fill-opacity:1;stroke-width:5;stroke-linecap:round;stroke-linejoin:round"
         d="m 417,100 c -0.554,0 -1,0.446 -1,1 v 2 c 0,0.554 0.446,1 1,1 h 5 c 0.554,0 1,-0.446 1,-1 v -2 c 0,-0.554 -0.446,-1 -1,-1 z m 8,0 c -0.554,0 -1,0.446 -1,1 v 2 c 0,0.554 0.446,1 1,1 h 5 c 0.554,0 1,-0.446 1,-1 v -2 c 0,-0.554 -0.446,-1 -1,-1 z m 8,0 c -0.554,0 -1,0.446 -1,1 v 2 c 0,0.554 0.446,1 1,1 h 5 c 0.554,0 1,-0.446 1,-1 v -2 c 0,-0.554 -0.446,-1 -1,-1 z m -20,5 c -0.554,0 -1,0.446 -1,1 v 2 c 0,0.554 0.446,1 1,1 h 5 c 0.554,0 1,-0.446 1,-1 v -2 c 0,-0.554 -0.446,-1 -1,-1 z m 8,0 c -0.554,0 -1,0.446 -1,1 v 2 c 0,0.554 0.446,1 1,1 h 5 c 0.554,0 1,-0.446 1,-1 v -2 c 0,-0.554 -0.446,-1 -1,-1 z m 8,0 c -0.554,0 -1,0.446 -1,1 v 2 c 0,0.554 0.446,1 1,1 h 5 c 0.554,0 1,-0.446 1,-1 v -2 c 0,-0.554 -0.446,-1 -1,-1 z m 8,0 c -0.554,0 -1,0.446 -1,1 v 2 c 0,0.554 0.446,1 1,1 h 5 c 0.554,0 1,-0.446 1,-1 v -2 c 0,-0.554 -0.446,-1 -1,-1 z m -20,5 c -0.554,0 -1,0.446 -1,1 v 2 c 0,0.554 0.446,1 1,1 h 5 c 0.554,0 1,-0.446 1,-1 v -2 c 0,-0.554 -0.446,-1 -1,-1 z m 8,0 c -0.554,0 -1,0.446 -1,1 v 2 c 0,0.554 0.446,1 1,1 h 5 c 0.554,0 1,-0.446 1,-1 v -2 c 0,-0.554 -0.446,-1 -1,-1 z m 8,0 c -0.554,0 -1,0.446 -1,1 v 2 c 0,0.554 0.446,1 1,1 h 5 c 0.554,0 1,-0.446 1,-1 v -2 c 0,-0.554 -0.446,-1 -1,-1 z m -20,5 c -0.554,0 -1,0.446 -1,1 v 2 c 0,0.554 0.446,1 1,1 h 5 c 0.554,0 1,-0.446 1,-1 v -2 c 0,-0.554 -0.446,-1 -1,-1 z m 8,0 c -0.554,0 -1,0.446 -1,1 v 2 c 0,0.554 0.446,1 1,1 h 5 c 0.554,0 1,-0.446 1,-1 v -2 c 0,-0.554 -0.446,-1 -1,-1 z m 8,0 c -0.554,0 -1,0.446 -1,1 v 2 c 0,0.554 0.446,1 1,1 h 5 c 0.554,0 1,-0.446 1,-1 v -2 c 0,-0.554 -0.446,-1 -1,-1 z m 8,0 c -0.554,0 -1,0.446 -1,1 v 2 c 0,0.554 0.446,1 1,1 h 5 c 0.554,0 1,-0.446 1,-1 v -2 c 0,-0.554 -0.446,-1 -1,-1 z m -20,5 c -0.554,0 -1,0.446 -1,1 v 2 c 0,0.554 0.446,1 1,1 h 5 c 0.554,0 1,-0.446 1,-1 v -2 c 0,-0.554 -0.446,-1 -1,-1 z m 8,0 c -0.554,0 -1,0.446 -1,1 v 2 c 0,0.554 0.446,1 1,1 h 5 c 0.554,0 1,-0.446 1,-1 v -2 c 0,-0.554 -0.446,-1 -1,-1 z m 8,0 c -0.554,0 -1,0.446 -1,1 v 2 c 0,0.554 0.446,1 1,1 h 5 c 0.554,0 1,-0.446 1,-1 v -2 c 0,-0.554 -0.446,-1 -1,-1 z"
         sodipodi:nodetypes="sssssssssssssssssssssssssssssssssssssssssssssssssssssssssssssssssssssssssssssssssssssssssssssssssssssssssssssssssssssssssssssssssssssssssssssssssssssssss"
         mask="url(#mask2401)" />
    </g>
    <g
       id="g3079">
      <path
         d="m 417,52 c -0.554,0 -1,0.446001 -1,1 v 2 c 0,0.553999 0.446,1 1,1 h 5 c 0.554,0 1,-0.446001 1,-1 v -2 c 0,-0.553999 -0.446,-1 -1,-1 z m 8,0 c -0.554,0 -1,0.446001 -1,1 v 2 c 0,0.553999 0.446,1 1,1 h 5 c 0.554,0 1,-0.446001 1,-1 v -2 c 0,-0.553999 -0.446,-1 -1,-1 z m 8,0 c -0.554,0 -1,0.446001 -1,1 v 2 c 0,0.553999 0.446,1 1,1 h 5 c 0.554,0 1,-0.446001 1,-1 v -2 c 0,-0.553999 -0.446,-1 -1,-1 z m 8,0 c -0.554,0 -1,0.446001 -1,1 v 2 c 0,0.553999 0.446,1 1,1 h 5 c 0.554,0 1,-0.446001 1,-1 v -2 c 0,-0.553999 -0.446,-1 -1,-1 z m -28,5 c -0.554,0 -1,0.446001 -1,1 v 2 c 0,0.553999 0.446,1 1,1 h 5 c 0.554,0 1,-0.446001 1,-1 v -2 c 0,-0.553999 -0.446,-1 -1,-1 z m 8,0 c -0.554,0 -1,0.446001 -1,1 v 2 c 0,0.553999 0.446,1 1,1 h 5 c 0.554,0 1,-0.446001 1,-1 v -2 c 0,-0.553999 -0.446,-1 -1,-1 z m 8,0 c -0.554,0 -1,0.446001 -1,1 v 2 c 0,0.553999 0.446,1 1,1 h 5 c 0.554,0 1,-0.446001 1,-1 v -2 c 0,-0.553999 -0.446,-1 -1,-1 z m 8,0 c -0.554,0 -1,0.446001 -1,1 v 2 c 0,0.553999 0.446,1 1,1 h 5 c 0.554,0 1,-0.446001 1,-1 v -2 c 0,-0.553999 -0.446,-1 -1,-1 z m 8,0 c -0.554,0 -1,0.446001 -1,1 v 2 c 0,0.553999 0.446,1 1,1 h 5 c 0.554,0 1,-0.446001 1,-1 v -2 c 0,-0.553999 -0.446,-1 -1,-1 z m -28,5 c -0.554,0 -1,0.446001 -1,1 v 2 c 0,0.553999 0.446,1 1,1 h 5 c 0.554,0 1,-0.446001 1,-1 v -2 c 0,-0.553999 -0.446,-1 -1,-1 z m 8,0 c -0.554,0 -1,0.446001 -1,1 v 2 c 0,0.553999 0.446,1 1,1 h 5 c 0.554,0 1,-0.446001 1,-1 v -2 c 0,-0.553999 -0.446,-1 -1,-1 z m 8,0 c -0.554,0 -1,0.446001 -1,1 v 2 c 0,0.553999 0.446,1 1,1 h 5 c 0.554,0 1,-0.446001 1,-1 v -2 c 0,-0.553999 -0.446,-1 -1,-1 z m 8,0 c -0.554,0 -1,0.446001 -1,1 v 2 c 0,0.553999 0.446,1 1,1 h 5 c 0.554,0 1,-0.446001 1,-1 v -2 c 0,-0.553999 -0.446,-1 -1,-1 z m -28,5 c -0.554,0 -1,0.446001 -1,1 v 2 c 0,0.553999 0.446,1 1,1 h 5 c 0.554,0 1,-0.446001 1,-1 v -2 c 0,-0.553999 -0.446,-1 -1,-1 z m 8,0 c -0.554,0 -1,0.446001 -1,1 v 2 c 0,0.553999 0.446,1 1,1 h 5 c 0.554,0 1,-0.446001 1,-1 v -2 c 0,-0.553999 -0.446,-1 -1,-1 z m 8,0 c -0.554,0 -1,0.446001 -1,1 v 2 c 0,0.553999 0.446,1 1,1 h 5 c 0.554,0 1,-0.446001 1,-1 v -2 c 0,-0.553999 -0.446,-1 -1,-1 z m 8,0 c -0.554,0 -1,0.446001 -1,1 v 2 c 0,0.553999 0.446,1 1,1 h 5 c 0.554,0 1,-0.446001 1,-1 v -2 c 0,-0.553999 -0.446,-1 -1,-1 z m 8,0 c -0.554,0 -1,0.446001 -1,1 v 2 c 0,0.553999 0.446,1 1,1 h 5 c 0.554,0 1,-0.446001 1,-1 v -2 c 0,-0.553999 -0.446,-1 -1,-1 z m -28,5 c -0.554,0 -1,0.446001 -1,1 v 2 c 0,0.553999 0.446,1 1,1 h 5 c 0.554,0 1,-0.446001 1,-1 v -2 c 0,-0.553999 -0.446,-1 -1,-1 z m 8,0 c -0.554,0 -1,0.446001 -1,1 v 2 c 0,0.553999 0.446,1 1,1 h 5 c 0.554,0 1,-0.446001 1,-1 v -2 c 0,-0.553999 -0.446,-1 -1,-1 z m 8,0 c -0.554,0 -1,0.446001 -1,1 v 2 c 0,0.553999 0.446,1 1,1 h 5 c 0.554,0 1,-0.446001 1,-1 v -2 c 0,-0.553999 -0.446,-1 -1,-1 z m 8,0 c -0.554,0 -1,0.446001 -1,1 v 2 c 0,0.553999 0.446,1 1,1 h 5 c 0.554,0 1,-0.446001 1,-1 v -2 c 0,-0.553999 -0.446,-1 -1,-1 z m -28,5 c -0.554,0 -1,0.446001 -1,1 v 2 c 0,0.553999 0.446,1 1,1 h 5 c 0.554,0 1,-0.446001 1,-1 v -2 c 0,-0.553999 -0.446,-1 -1,-1 z m 8,0 c -0.554,0 -1,0.446001 -1,1 v 2 c 0,0.553999 0.446,1 1,1 h 5 c 0.554,0 1,-0.446001 1,-1 v -2 c 0,-0.553999 -0.446,-1 -1,-1 z m 8,0 c -0.554,0 -1,0.446001 -1,1 v 2 c 0,0.553999 0.446,1 1,1 h 5 c 0.554,0 1,-0.446001 1,-1 v -2 c 0,-0.553999 -0.446,-1 -1,-1 z m 8,0 c -0.554,0 -1,0.446001 -1,1 v 2 c 0,0.553999 0.446,1 1,1 h 5 c 0.554,0 1,-0.446001 1,-1 v -2 c 0,-0.553999 -0.446,-1 -1,-1 z m 8,0 c -0.554,0 -1,0.446001 -1,1 v 2 c 0,0.553999 0.446,1 1,1 h 5 c 0.554,0 1,-0.446001 1,-1 v -2 c 0,-0.553999 -0.446,-1 -1,-1 z m -28,5 c -0.554,0 -1,0.446001 -1,1 v 2 c 0,0.553999 0.446,1 1,1 h 5 c 0.554,0 1,-0.446001 1,-1 v -2 c 0,-0.553999 -0.446,-1 -1,-1 z m 8,0 c -0.554,0 -1,0.446001 -1,1 v 2 c 0,0.553999 0.446,1 1,1 h 5 c 0.554,0 1,-0.446001 1,-1 v -2 c 0,-0.553999 -0.446,-1 -1,-1 z m 8,0 c -0.554,0 -1,0.446001 -1,1 v 2 c 0,0.553999 0.446,1 1,1 h 5 c 0.554,0 1,-0.446001 1,-1 v -2 c 0,-0.553999 -0.446,-1 -1,-1 z m 8,0 c -0.554,0 -1,0.446001 -1,1 v 2 c 0,0.553999 0.446,1 1,1 h 5 c 0.554,0 1,-0.446001 1,-1 v -2 c 0,-0.553999 -0.446,-1 -1,-1 z"
         style="fill:#000000;fill-opacity:1;stroke-width:5;stroke-linecap:round;stroke-linejoin:round;opacity:0.2"
         id="path2896"
         mask="url(#mask2931)" />
      <path
         id="path2758"
         style="fill:#f45c49;fill-opacity:1;stroke-width:5;stroke-linecap:round;stroke-linejoin:round"
         d="m 417,51 c -0.554,0 -1,0.446001 -1,1 v 2 c 0,0.553999 0.446,1 1,1 h 5 c 0.554,0 1,-0.446001 1,-1 v -2 c 0,-0.553999 -0.446,-1 -1,-1 z m 8,0 c -0.554,0 -1,0.446001 -1,1 v 2 c 0,0.553999 0.446,1 1,1 h 5 c 0.554,0 1,-0.446001 1,-1 v -2 c 0,-0.553999 -0.446,-1 -1,-1 z m 8,0 c -0.554,0 -1,0.446001 -1,1 v 2 c 0,0.553999 0.446,1 1,1 h 5 c 0.554,0 1,-0.446001 1,-1 v -2 c 0,-0.553999 -0.446,-1 -1,-1 z m 8,0 c -0.554,0 -1,0.446001 -1,1 v 2 c 0,0.553999 0.446,1 1,1 h 5 c 0.554,0 1,-0.446001 1,-1 v -2 c 0,-0.553999 -0.446,-1 -1,-1 z m -28,5 c -0.554,0 -1,0.446001 -1,1 v 2 c 0,0.553999 0.446,1 1,1 h 5 c 0.554,0 1,-0.446001 1,-1 v -2 c 0,-0.553999 -0.446,-1 -1,-1 z m 8,0 c -0.554,0 -1,0.446001 -1,1 v 2 c 0,0.553999 0.446,1 1,1 h 5 c 0.554,0 1,-0.446001 1,-1 v -2 c 0,-0.553999 -0.446,-1 -1,-1 z m 8,0 c -0.554,0 -1,0.446001 -1,1 v 2 c 0,0.553999 0.446,1 1,1 h 5 c 0.554,0 1,-0.446001 1,-1 v -2 c 0,-0.553999 -0.446,-1 -1,-1 z m 8,0 c -0.554,0 -1,0.446001 -1,1 v 2 c 0,0.553999 0.446,1 1,1 h 5 c 0.554,0 1,-0.446001 1,-1 v -2 c 0,-0.553999 -0.446,-1 -1,-1 z m 8,0 c -0.554,0 -1,0.446001 -1,1 v 2 c 0,0.553999 0.446,1 1,1 h 5 c 0.554,0 1,-0.446001 1,-1 v -2 c 0,-0.553999 -0.446,-1 -1,-1 z m -28,5 c -0.554,0 -1,0.446001 -1,1 v 2 c 0,0.553999 0.446,1 1,1 h 5 c 0.554,0 1,-0.446001 1,-1 v -2 c 0,-0.553999 -0.446,-1 -1,-1 z m 8,0 c -0.554,0 -1,0.446001 -1,1 v 2 c 0,0.553999 0.446,1 1,1 h 5 c 0.554,0 1,-0.446001 1,-1 v -2 c 0,-0.553999 -0.446,-1 -1,-1 z m 8,0 c -0.554,0 -1,0.446001 -1,1 v 2 c 0,0.553999 0.446,1 1,1 h 5 c 0.554,0 1,-0.446001 1,-1 v -2 c 0,-0.553999 -0.446,-1 -1,-1 z m 8,0 c -0.554,0 -1,0.446001 -1,1 v 2 c 0,0.553999 0.446,1 1,1 h 5 c 0.554,0 1,-0.446001 1,-1 v -2 c 0,-0.553999 -0.446,-1 -1,-1 z m -28,5 c -0.554,0 -1,0.446001 -1,1 v 2 c 0,0.553999 0.446,1 1,1 h 5 c 0.554,0 1,-0.446001 1,-1 v -2 c 0,-0.553999 -0.446,-1 -1,-1 z m 8,0 c -0.554,0 -1,0.446001 -1,1 v 2 c 0,0.553999 0.446,1 1,1 h 5 c 0.554,0 1,-0.446001 1,-1 v -2 c 0,-0.553999 -0.446,-1 -1,-1 z m 8,0 c -0.554,0 -1,0.446001 -1,1 v 2 c 0,0.553999 0.446,1 1,1 h 5 c 0.554,0 1,-0.446001 1,-1 v -2 c 0,-0.553999 -0.446,-1 -1,-1 z m 8,0 c -0.554,0 -1,0.446001 -1,1 v 2 c 0,0.553999 0.446,1 1,1 h 5 c 0.554,0 1,-0.446001 1,-1 v -2 c 0,-0.553999 -0.446,-1 -1,-1 z m 8,0 c -0.554,0 -1,0.446001 -1,1 v 2 c 0,0.553999 0.446,1 1,1 h 5 c 0.554,0 1,-0.446001 1,-1 v -2 c 0,-0.553999 -0.446,-1 -1,-1 z m -28,5 c -0.554,0 -1,0.446001 -1,1 v 2 c 0,0.553999 0.446,1 1,1 h 5 c 0.554,0 1,-0.446001 1,-1 v -2 c 0,-0.553999 -0.446,-1 -1,-1 z m 8,0 c -0.554,0 -1,0.446001 -1,1 v 2 c 0,0.553999 0.446,1 1,1 h 5 c 0.554,0 1,-0.446001 1,-1 v -2 c 0,-0.553999 -0.446,-1 -1,-1 z m 8,0 c -0.554,0 -1,0.446001 -1,1 v 2 c 0,0.553999 0.446,1 1,1 h 5 c 0.554,0 1,-0.446001 1,-1 v -2 c 0,-0.553999 -0.446,-1 -1,-1 z m 8,0 c -0.554,0 -1,0.446001 -1,1 v 2 c 0,0.553999 0.446,1 1,1 h 5 c 0.554,0 1,-0.446001 1,-1 v -2 c 0,-0.553999 -0.446,-1 -1,-1 z m -28,5 c -0.554,0 -1,0.446001 -1,1 v 2 c 0,0.553999 0.446,1 1,1 h 5 c 0.554,0 1,-0.446001 1,-1 v -2 c 0,-0.553999 -0.446,-1 -1,-1 z m 8,0 c -0.554,0 -1,0.446001 -1,1 v 2 c 0,0.553999 0.446,1 1,1 h 5 c 0.554,0 1,-0.446001 1,-1 v -2 c 0,-0.553999 -0.446,-1 -1,-1 z m 8,0 c -0.554,0 -1,0.446001 -1,1 v 2 c 0,0.553999 0.446,1 1,1 h 5 c 0.554,0 1,-0.446001 1,-1 v -2 c 0,-0.553999 -0.446,-1 -1,-1 z m 8,0 c -0.554,0 -1,0.446001 -1,1 v 2 c 0,0.553999 0.446,1 1,1 h 5 c 0.554,0 1,-0.446001 1,-1 v -2 c 0,-0.553999 -0.446,-1 -1,-1 z m 8,0 c -0.554,0 -1,0.446001 -1,1 v 2 c 0,0.553999 0.446,1 1,1 h 5 c 0.554,0 1,-0.446001 1,-1 v -2 c 0,-0.553999 -0.446,-1 -1,-1 z m -28,5 c -0.554,0 -1,0.446001 -1,1 v 2 c 0,0.553999 0.446,1 1,1 h 5 c 0.554,0 1,-0.446001 1,-1 v -2 c 0,-0.553999 -0.446,-1 -1,-1 z m 8,0 c -0.554,0 -1,0.446001 -1,1 v 2 c 0,0.553999 0.446,1 1,1 h 5 c 0.554,0 1,-0.446001 1,-1 v -2 c 0,-0.553999 -0.446,-1 -1,-1 z m 8,0 c -0.554,0 -1,0.446001 -1,1 v 2 c 0,0.553999 0.446,1 1,1 h 5 c 0.554,0 1,-0.446001 1,-1 v -2 c 0,-0.553999 -0.446,-1 -1,-1 z m 8,0 c -0.554,0 -1,0.446001 -1,1 v 2 c 0,0.553999 0.446,1 1,1 h 5 c 0.554,0 1,-0.446001 1,-1 v -2 c 0,-0.553999 -0.446,-1 -1,-1 z"
         sodipodi:nodetypes="sssssssssssssssssssssssssssssssssssssssssssssssssssssssssssssssssssssssssssssssssssssssssssssssssssssssssssssssssssssssssssssssssssssssssssssssssssssssssssssssssssssssssssssssssssssssssssssssssssssssssssssssssssssssssssssssssssssssssssssssssssssssssssssssssssssssssssssssssssssss"
         mask="url(#mask2935)" />
    </g>
    <g
       id="g3438">
      <path
         d="m 275,221 c -1.108,0 -2,0.892 -2,2 v 4 c 0,1.108 0.892,2 2,2 h 10 c 1.108,0 2,-0.892 2,-2 v -4 c 0,-1.108 -0.892,-2 -2,-2 z m 16,0 c -1.108,0 -2,0.892 -2,2 v 4 c 0,1.108 0.892,2 2,2 h 10 c 1.108,0 2,-0.892 2,-2 v -4 c 0,-1.108 -0.892,-2 -2,-2 z m 16,0 c -1.108,0 -2,0.892 -2,2 v 4 c 0,1.108 0.892,2 2,2 h 10 c 1.108,0 2,-0.892 2,-2 v -4 c 0,-1.108 -0.892,-2 -2,-2 z m 16,0 c -1.108,0 -2,0.892 -2,2 v 4 c 0,1.108 0.892,2 2,2 h 10 c 1.108,0 2,-0.892 2,-2 v -4 c 0,-1.108 -0.892,-2 -2,-2 z m 16,0 c -1.108,0 -2,0.892 -2,2 v 4 c 0,1.108 0.892,2 2,2 h 10 c 1.108,0 2,-0.892 2,-2 v -4 c 0,-1.108 -0.892,-2 -2,-2 z m -56,10 c -1.108,0 -2,0.892 -2,2 v 4 c 0,1.108 0.892,2 2,2 h 10 c 1.108,0 2,-0.892 2,-2 v -4 c 0,-1.108 -0.892,-2 -2,-2 z m 16,0 c -1.108,0 -2,0.892 -2,2 v 4 c 0,1.108 0.892,2 2,2 h 10 c 1.108,0 2,-0.892 2,-2 v -4 c 0,-1.108 -0.892,-2 -2,-2 z m 16,0 c -1.108,0 -2,0.892 -2,2 v 4 c 0,1.108 0.892,2 2,2 h 10 c 1.108,0 2,-0.892 2,-2 v -4 c 0,-1.108 -0.892,-2 -2,-2 z m 16,0 c -1.108,0 -2,0.892 -2,2 v 4 c 0,1.108 0.892,2 2,2 h 10 c 1.108,0 2,-0.892 2,-2 v -4 c 0,-1.108 -0.892,-2 -2,-2 z m -56,10 c -1.108,0 -2,0.892 -2,2 v 4 c 0,1.108 0.892,2 2,2 h 10 c 1.108,0 2,-0.892 2,-2 v -4 c 0,-1.108 -0.892,-2 -2,-2 z m 16,0 c -1.108,0 -2,0.892 -2,2 v 4 c 0,1.108 0.892,2 2,2 h 10 c 1.108,0 2,-0.892 2,-2 v -4 c 0,-1.108 -0.892,-2 -2,-2 z m 16,0 c -1.108,0 -2,0.892 -2,2 v 4 c 0,1.108 0.892,2 2,2 h 10 c 1.108,0 2,-0.892 2,-2 v -4 c 0,-1.108 -0.892,-2 -2,-2 z m 16,0 c -1.108,0 -2,0.892 -2,2 v 4 c 0,1.108 0.892,2 2,2 h 10 c 1.108,0 2,-0.892 2,-2 v -4 c 0,-1.108 -0.892,-2 -2,-2 z m 16,0 c -1.108,0 -2,0.892 -2,2 v 4 c 0,1.108 0.892,2 2,2 h 10 c 1.108,0 2,-0.892 2,-2 v -4 c 0,-1.108 -0.892,-2 -2,-2 z m -56,10 c -1.108,0 -2,0.892 -2,2 v 4 c 0,1.108 0.892,2 2,2 h 10 c 1.108,0 2,-0.892 2,-2 v -4 c 0,-1.108 -0.892,-2 -2,-2 z m 16,0 c -1.108,0 -2,0.892 -2,2 v 4 c 0,1.108 0.892,2 2,2 h 10 c 1.108,0 2,-0.892 2,-2 v -4 c 0,-1.108 -0.892,-2 -2,-2 z m 16,0 c -1.108,0 -2,0.892 -2,2 v 4 c 0,1.108 0.892,2 2,2 h 10 c 1.108,0 2,-0.892 2,-2 v -4 c 0,-1.108 -0.892,-2 -2,-2 z m 16,0 c -1.108,0 -2,0.892 -2,2 v 4 c 0,1.108 0.892,2 2,2 h 10 c 1.108,0 2,-0.892 2,-2 v -4 c 0,-1.108 -0.892,-2 -2,-2 z m -56,10 c -1.108,0 -2,0.892 -2,2 v 4 c 0,1.108 0.892,2 2,2 h 10 c 1.108,0 2,-0.892 2,-2 v -4 c 0,-1.108 -0.892,-2 -2,-2 z m 16,0 c -1.108,0 -2,0.892 -2,2 v 4 c 0,1.108 0.892,2 2,2 h 10 c 1.108,0 2,-0.892 2,-2 v -4 c 0,-1.108 -0.892,-2 -2,-2 z m 16,0 c -1.108,0 -2,0.892 -2,2 v 4 c 0,1.108 0.892,2 2,2 h 10 c 1.108,0 2,-0.892 2,-2 v -4 c 0,-1.108 -0.892,-2 -2,-2 z m 16,0 c -1.108,0 -2,0.892 -2,2 v 4 c 0,1.108 0.892,2 2,2 h 10 c 1.108,0 2,-0.892 2,-2 v -4 c 0,-1.108 -0.892,-2 -2,-2 z m 16,0 c -1.108,0 -2,0.892 -2,2 v 4 c 0,1.108 0.892,2 2,2 h 10 c 1.108,0 2,-0.892 2,-2 v -4 c 0,-1.108 -0.892,-2 -2,-2 z"
         style="fill:#000000;fill-opacity:1;stroke-width:5;stroke-linecap:round;stroke-linejoin:round;opacity:0.2"
         id="path3154"
         sodipodi:nodetypes="sssssssssssssssssssssssssssssssssssssssssssssssssssssssssssssssssssssssssssssssssssssssssssssssssssssssssssssssssssssssssssssssssssssssssssssssssssssssssssssssssssssssssssssssssssssssssssssssssssssssssssssss"
         mask="url(#mask3206)" />
      <path
         d="m 275,220 c -1.108,0 -2,0.892 -2,2 v 4 c 0,1.108 0.892,2 2,2 h 10 c 1.108,0 2,-0.892 2,-2 v -4 c 0,-1.108 -0.892,-2 -2,-2 z m 16,0 c -1.108,0 -2,0.892 -2,2 v 4 c 0,1.108 0.892,2 2,2 h 10 c 1.108,0 2,-0.892 2,-2 v -4 c 0,-1.108 -0.892,-2 -2,-2 z m 16,0 c -1.108,0 -2,0.892 -2,2 v 4 c 0,1.108 0.892,2 2,2 h 10 c 1.108,0 2,-0.892 2,-2 v -4 c 0,-1.108 -0.892,-2 -2,-2 z m 16,0 c -1.108,0 -2,0.892 -2,2 v 4 c 0,1.108 0.892,2 2,2 h 10 c 1.108,0 2,-0.892 2,-2 v -4 c 0,-1.108 -0.892,-2 -2,-2 z m 16,0 c -1.108,0 -2,0.892 -2,2 v 4 c 0,1.108 0.892,2 2,2 h 10 c 1.108,0 2,-0.892 2,-2 v -4 c 0,-1.108 -0.892,-2 -2,-2 z m -56,10 c -1.108,0 -2,0.892 -2,2 v 4 c 0,1.108 0.892,2 2,2 h 10 c 1.108,0 2,-0.892 2,-2 v -4 c 0,-1.108 -0.892,-2 -2,-2 z m 16,0 c -1.108,0 -2,0.892 -2,2 v 4 c 0,1.108 0.892,2 2,2 h 10 c 1.108,0 2,-0.892 2,-2 v -4 c 0,-1.108 -0.892,-2 -2,-2 z m 16,0 c -1.108,0 -2,0.892 -2,2 v 4 c 0,1.108 0.892,2 2,2 h 10 c 1.108,0 2,-0.892 2,-2 v -4 c 0,-1.108 -0.892,-2 -2,-2 z m 16,0 c -1.108,0 -2,0.892 -2,2 v 4 c 0,1.108 0.892,2 2,2 h 10 c 1.108,0 2,-0.892 2,-2 v -4 c 0,-1.108 -0.892,-2 -2,-2 z m -56,10 c -1.108,0 -2,0.892 -2,2 v 4 c 0,1.108 0.892,2 2,2 h 10 c 1.108,0 2,-0.892 2,-2 v -4 c 0,-1.108 -0.892,-2 -2,-2 z m 16,0 c -1.108,0 -2,0.892 -2,2 v 4 c 0,1.108 0.892,2 2,2 h 10 c 1.108,0 2,-0.892 2,-2 v -4 c 0,-1.108 -0.892,-2 -2,-2 z m 16,0 c -1.108,0 -2,0.892 -2,2 v 4 c 0,1.108 0.892,2 2,2 h 10 c 1.108,0 2,-0.892 2,-2 v -4 c 0,-1.108 -0.892,-2 -2,-2 z m 16,0 c -1.108,0 -2,0.892 -2,2 v 4 c 0,1.108 0.892,2 2,2 h 10 c 1.108,0 2,-0.892 2,-2 v -4 c 0,-1.108 -0.892,-2 -2,-2 z m 16,0 c -1.108,0 -2,0.892 -2,2 v 4 c 0,1.108 0.892,2 2,2 h 10 c 1.108,0 2,-0.892 2,-2 v -4 c 0,-1.108 -0.892,-2 -2,-2 z m -56,10 c -1.108,0 -2,0.892 -2,2 v 4 c 0,1.108 0.892,2 2,2 h 10 c 1.108,0 2,-0.892 2,-2 v -4 c 0,-1.108 -0.892,-2 -2,-2 z m 16,0 c -1.108,0 -2,0.892 -2,2 v 4 c 0,1.108 0.892,2 2,2 h 10 c 1.108,0 2,-0.892 2,-2 v -4 c 0,-1.108 -0.892,-2 -2,-2 z m 16,0 c -1.108,0 -2,0.892 -2,2 v 4 c 0,1.108 0.892,2 2,2 h 10 c 1.108,0 2,-0.892 2,-2 v -4 c 0,-1.108 -0.892,-2 -2,-2 z m 16,0 c -1.108,0 -2,0.892 -2,2 v 4 c 0,1.108 0.892,2 2,2 h 10 c 1.108,0 2,-0.892 2,-2 v -4 c 0,-1.108 -0.892,-2 -2,-2 z m -56,10 c -1.108,0 -2,0.892 -2,2 v 4 c 0,1.108 0.892,2 2,2 h 10 c 1.108,0 2,-0.892 2,-2 v -4 c 0,-1.108 -0.892,-2 -2,-2 z m 16,0 c -1.108,0 -2,0.892 -2,2 v 4 c 0,1.108 0.892,2 2,2 h 10 c 1.108,0 2,-0.892 2,-2 v -4 c 0,-1.108 -0.892,-2 -2,-2 z m 16,0 c -1.108,0 -2,0.892 -2,2 v 4 c 0,1.108 0.892,2 2,2 h 10 c 1.108,0 2,-0.892 2,-2 v -4 c 0,-1.108 -0.892,-2 -2,-2 z m 16,0 c -1.108,0 -2,0.892 -2,2 v 4 c 0,1.108 0.892,2 2,2 h 10 c 1.108,0 2,-0.892 2,-2 v -4 c 0,-1.108 -0.892,-2 -2,-2 z m 16,0 c -1.108,0 -2,0.892 -2,2 v 4 c 0,1.108 0.892,2 2,2 h 10 c 1.108,0 2,-0.892 2,-2 v -4 c 0,-1.108 -0.892,-2 -2,-2 z"
         style="fill:#f45c49;fill-opacity:1;stroke-width:5;stroke-linecap:round;stroke-linejoin:round"
         id="path3182"
         mask="url(#mask3210)" />
    </g>
    <g
       id="g3144"
       transform="matrix(2,0,0,2,-409.03937,-76.97879)">
      <path
         d="m 417.5,51.5 c -0.554,0 -1,0.446001 -1,1 v 2 c 0,0.553999 0.446,1 1,1 h 5 c 0.554,0 1,-0.446001 1,-1 v -2 c 0,-0.553999 -0.446,-1 -1,-1 z m 8,0 c -0.554,0 -1,0.446001 -1,1 v 2 c 0,0.553999 0.446,1 1,1 h 5 c 0.554,0 1,-0.446001 1,-1 v -2 c 0,-0.553999 -0.446,-1 -1,-1 z m 8,0 c -0.554,0 -1,0.446001 -1,1 v 2 c 0,0.553999 0.446,1 1,1 h 5 c 0.554,0 1,-0.446001 1,-1 v -2 c 0,-0.553999 -0.446,-1 -1,-1 z m 8,0 c -0.554,0 -1,0.446001 -1,1 v 2 c 0,0.553999 0.446,1 1,1 h 5 c 0.554,0 1,-0.446001 1,-1 v -2 c 0,-0.553999 -0.446,-1 -1,-1 z m -28,5 c -0.554,0 -1,0.446001 -1,1 v 2 c 0,0.553999 0.446,1 1,1 h 5 c 0.554,0 1,-0.446001 1,-1 v -2 c 0,-0.553999 -0.446,-1 -1,-1 z m 8,0 c -0.554,0 -1,0.446001 -1,1 v 2 c 0,0.553999 0.446,1 1,1 h 5 c 0.554,0 1,-0.446001 1,-1 v -2 c 0,-0.553999 -0.446,-1 -1,-1 z m 8,0 c -0.554,0 -1,0.446001 -1,1 v 2 c 0,0.553999 0.446,1 1,1 h 5 c 0.554,0 1,-0.446001 1,-1 v -2 c 0,-0.553999 -0.446,-1 -1,-1 z m 8,0 c -0.554,0 -1,0.446001 -1,1 v 2 c 0,0.553999 0.446,1 1,1 h 5 c 0.554,0 1,-0.446001 1,-1 v -2 c 0,-0.553999 -0.446,-1 -1,-1 z m 8,0 c -0.554,0 -1,0.446001 -1,1 v 2 c 0,0.553999 0.446,1 1,1 h 5 c 0.554,0 1,-0.446001 1,-1 v -2 c 0,-0.553999 -0.446,-1 -1,-1 z m -28,5 c -0.554,0 -1,0.446001 -1,1 v 2 c 0,0.553999 0.446,1 1,1 h 5 c 0.554,0 1,-0.446001 1,-1 v -2 c 0,-0.553999 -0.446,-1 -1,-1 z m 8,0 c -0.554,0 -1,0.446001 -1,1 v 2 c 0,0.553999 0.446,1 1,1 h 5 c 0.554,0 1,-0.446001 1,-1 v -2 c 0,-0.553999 -0.446,-1 -1,-1 z m 8,0 c -0.554,0 -1,0.446001 -1,1 v 2 c 0,0.553999 0.446,1 1,1 h 5 c 0.554,0 1,-0.446001 1,-1 v -2 c 0,-0.553999 -0.446,-1 -1,-1 z m 8,0 c -0.554,0 -1,0.446001 -1,1 v 2 c 0,0.553999 0.446,1 1,1 h 5 c 0.554,0 1,-0.446001 1,-1 v -2 c 0,-0.553999 -0.446,-1 -1,-1 z m -28,5 c -0.554,0 -1,0.446001 -1,1 v 2 c 0,0.553999 0.446,1 1,1 h 5 c 0.554,0 1,-0.446001 1,-1 v -2 c 0,-0.553999 -0.446,-1 -1,-1 z m 8,0 c -0.554,0 -1,0.446001 -1,1 v 2 c 0,0.553999 0.446,1 1,1 h 5 c 0.554,0 1,-0.446001 1,-1 v -2 c 0,-0.553999 -0.446,-1 -1,-1 z m 8,0 c -0.554,0 -1,0.446001 -1,1 v 2 c 0,0.553999 0.446,1 1,1 h 5 c 0.554,0 1,-0.446001 1,-1 v -2 c 0,-0.553999 -0.446,-1 -1,-1 z m 8,0 c -0.554,0 -1,0.446001 -1,1 v 2 c 0,0.553999 0.446,1 1,1 h 5 c 0.554,0 1,-0.446001 1,-1 v -2 c 0,-0.553999 -0.446,-1 -1,-1 z m 8,0 c -0.554,0 -1,0.446001 -1,1 v 2 c 0,0.553999 0.446,1 1,1 h 5 c 0.554,0 1,-0.446001 1,-1 v -2 c 0,-0.553999 -0.446,-1 -1,-1 z m -28,5 c -0.554,0 -1,0.446001 -1,1 v 2 c 0,0.553999 0.446,1 1,1 h 5 c 0.554,0 1,-0.446001 1,-1 v -2 c 0,-0.553999 -0.446,-1 -1,-1 z m 8,0 c -0.554,0 -1,0.446001 -1,1 v 2 c 0,0.553999 0.446,1 1,1 h 5 c 0.554,0 1,-0.446001 1,-1 v -2 c 0,-0.553999 -0.446,-1 -1,-1 z m 8,0 c -0.554,0 -1,0.446001 -1,1 v 2 c 0,0.553999 0.446,1 1,1 h 5 c 0.554,0 1,-0.446001 1,-1 v -2 c 0,-0.553999 -0.446,-1 -1,-1 z m 8,0 c -0.554,0 -1,0.446001 -1,1 v 2 c 0,0.553999 0.446,1 1,1 h 5 c 0.554,0 1,-0.446001 1,-1 v -2 c 0,-0.553999 -0.446,-1 -1,-1 z m -28,5 c -0.554,0 -1,0.446001 -1,1 v 2 c 0,0.553999 0.446,1 1,1 h 5 c 0.554,0 1,-0.446001 1,-1 v -2 c 0,-0.553999 -0.446,-1 -1,-1 z m 8,0 c -0.554,0 -1,0.446001 -1,1 v 2 c 0,0.553999 0.446,1 1,1 h 5 c 0.554,0 1,-0.446001 1,-1 v -2 c 0,-0.553999 -0.446,-1 -1,-1 z m 8,0 c -0.554,0 -1,0.446001 -1,1 v 2 c 0,0.553999 0.446,1 1,1 h 5 c 0.554,0 1,-0.446001 1,-1 v -2 c 0,-0.553999 -0.446,-1 -1,-1 z m 8,0 c -0.554,0 -1,0.446001 -1,1 v 2 c 0,0.553999 0.446,1 1,1 h 5 c 0.554,0 1,-0.446001 1,-1 v -2 c 0,-0.553999 -0.446,-1 -1,-1 z m 8,0 c -0.554,0 -1,0.446001 -1,1 v 2 c 0,0.553999 0.446,1 1,1 h 5 c 0.554,0 1,-0.446001 1,-1 v -2 c 0,-0.553999 -0.446,-1 -1,-1 z m -28,5 c -0.554,0 -1,0.446001 -1,1 v 2 c 0,0.553999 0.446,1 1,1 h 5 c 0.554,0 1,-0.446001 1,-1 v -2 c 0,-0.553999 -0.446,-1 -1,-1 z m 8,0 c -0.554,0 -1,0.446001 -1,1 v 2 c 0,0.553999 0.446,1 1,1 h 5 c 0.554,0 1,-0.446001 1,-1 v -2 c 0,-0.553999 -0.446,-1 -1,-1 z m 8,0 c -0.554,0 -1,0.446001 -1,1 v 2 c 0,0.553999 0.446,1 1,1 h 5 c 0.554,0 1,-0.446001 1,-1 v -2 c 0,-0.553999 -0.446,-1 -1,-1 z m 8,0 c -0.554,0 -1,0.446001 -1,1 v 2 c 0,0.553999 0.446,1 1,1 h 5 c 0.554,0 1,-0.446001 1,-1 v -2 c 0,-0.553999 -0.446,-1 -1,-1 z"
         style="opacity:0.2;fill:#000000;fill-opacity:1;stroke-width:5;stroke-linecap:round;stroke-linejoin:round"
         id="path2896-1"
         mask="url(#mask2931-6)"
         transform="translate(-67.480313,56.489395)"
         sodipodi:nodetypes="sssssssssssssssssssssssssssssssssssssssssssssssssssssssssssssssssssssssssssssssssssssssssssssssssssssssssssssssssssssssssssssssssssssssssssssssssssssssssssssssssssssssssssssssssssssssssssssssssssssssssssssssssssssssssssssssssssssssssssssssssssssssssssssssssssssssssssssssssssssss" />
      <path
         id="path2758-8"
         style="fill:#f45c49;fill-opacity:1;stroke-width:5;stroke-linecap:round;stroke-linejoin:round"
         d="m 417.5,51 c -0.554,0 -1,0.446001 -1,1 v 2 c 0,0.553999 0.446,1 1,1 h 5 c 0.554,0 1,-0.446001 1,-1 v -2 c 0,-0.553999 -0.446,-1 -1,-1 z m 8,0 c -0.554,0 -1,0.446001 -1,1 v 2 c 0,0.553999 0.446,1 1,1 h 5 c 0.554,0 1,-0.446001 1,-1 v -2 c 0,-0.553999 -0.446,-1 -1,-1 z m 8,0 c -0.554,0 -1,0.446001 -1,1 v 2 c 0,0.553999 0.446,1 1,1 h 5 c 0.554,0 1,-0.446001 1,-1 v -2 c 0,-0.553999 -0.446,-1 -1,-1 z m 8,0 c -0.554,0 -1,0.446001 -1,1 v 2 c 0,0.553999 0.446,1 1,1 h 5 c 0.554,0 1,-0.446001 1,-1 v -2 c 0,-0.553999 -0.446,-1 -1,-1 z m -28,5 c -0.554,0 -1,0.446001 -1,1 v 2 c 0,0.553999 0.446,1 1,1 h 5 c 0.554,0 1,-0.446001 1,-1 v -2 c 0,-0.553999 -0.446,-1 -1,-1 z m 8,0 c -0.554,0 -1,0.446001 -1,1 v 2 c 0,0.553999 0.446,1 1,1 h 5 c 0.554,0 1,-0.446001 1,-1 v -2 c 0,-0.553999 -0.446,-1 -1,-1 z m 8,0 c -0.554,0 -1,0.446001 -1,1 v 2 c 0,0.553999 0.446,1 1,1 h 5 c 0.554,0 1,-0.446001 1,-1 v -2 c 0,-0.553999 -0.446,-1 -1,-1 z m 8,0 c -0.554,0 -1,0.446001 -1,1 v 2 c 0,0.553999 0.446,1 1,1 h 5 c 0.554,0 1,-0.446001 1,-1 v -2 c 0,-0.553999 -0.446,-1 -1,-1 z m 8,0 c -0.554,0 -1,0.446001 -1,1 v 2 c 0,0.553999 0.446,1 1,1 h 5 c 0.554,0 1,-0.446001 1,-1 v -2 c 0,-0.553999 -0.446,-1 -1,-1 z m -28,5 c -0.554,0 -1,0.446001 -1,1 v 2 c 0,0.553999 0.446,1 1,1 h 5 c 0.554,0 1,-0.446001 1,-1 v -2 c 0,-0.553999 -0.446,-1 -1,-1 z m 8,0 c -0.554,0 -1,0.446001 -1,1 v 2 c 0,0.553999 0.446,1 1,1 h 5 c 0.554,0 1,-0.446001 1,-1 v -2 c 0,-0.553999 -0.446,-1 -1,-1 z m 8,0 c -0.554,0 -1,0.446001 -1,1 v 2 c 0,0.553999 0.446,1 1,1 h 5 c 0.554,0 1,-0.446001 1,-1 v -2 c 0,-0.553999 -0.446,-1 -1,-1 z m 8,0 c -0.554,0 -1,0.446001 -1,1 v 2 c 0,0.553999 0.446,1 1,1 h 5 c 0.554,0 1,-0.446001 1,-1 v -2 c 0,-0.553999 -0.446,-1 -1,-1 z m -28,5 c -0.554,0 -1,0.446001 -1,1 v 2 c 0,0.553999 0.446,1 1,1 h 5 c 0.554,0 1,-0.446001 1,-1 v -2 c 0,-0.553999 -0.446,-1 -1,-1 z m 8,0 c -0.554,0 -1,0.446001 -1,1 v 2 c 0,0.553999 0.446,1 1,1 h 5 c 0.554,0 1,-0.446001 1,-1 v -2 c 0,-0.553999 -0.446,-1 -1,-1 z m 8,0 c -0.554,0 -1,0.446001 -1,1 v 2 c 0,0.553999 0.446,1 1,1 h 5 c 0.554,0 1,-0.446001 1,-1 v -2 c 0,-0.553999 -0.446,-1 -1,-1 z m 8,0 c -0.554,0 -1,0.446001 -1,1 v 2 c 0,0.553999 0.446,1 1,1 h 5 c 0.554,0 1,-0.446001 1,-1 v -2 c 0,-0.553999 -0.446,-1 -1,-1 z m 8,0 c -0.554,0 -1,0.446001 -1,1 v 2 c 0,0.553999 0.446,1 1,1 h 5 c 0.554,0 1,-0.446001 1,-1 v -2 c 0,-0.553999 -0.446,-1 -1,-1 z m -28,5 c -0.554,0 -1,0.446001 -1,1 v 2 c 0,0.553999 0.446,1 1,1 h 5 c 0.554,0 1,-0.446001 1,-1 v -2 c 0,-0.553999 -0.446,-1 -1,-1 z m 8,0 c -0.554,0 -1,0.446001 -1,1 v 2 c 0,0.553999 0.446,1 1,1 h 5 c 0.554,0 1,-0.446001 1,-1 v -2 c 0,-0.553999 -0.446,-1 -1,-1 z m 8,0 c -0.554,0 -1,0.446001 -1,1 v 2 c 0,0.553999 0.446,1 1,1 h 5 c 0.554,0 1,-0.446001 1,-1 v -2 c 0,-0.553999 -0.446,-1 -1,-1 z m 8,0 c -0.554,0 -1,0.446001 -1,1 v 2 c 0,0.553999 0.446,1 1,1 h 5 c 0.554,0 1,-0.446001 1,-1 v -2 c 0,-0.553999 -0.446,-1 -1,-1 z m -28,5 c -0.554,0 -1,0.446001 -1,1 v 2 c 0,0.553999 0.446,1 1,1 h 5 c 0.554,0 1,-0.446001 1,-1 v -2 c 0,-0.553999 -0.446,-1 -1,-1 z m 8,0 c -0.554,0 -1,0.446001 -1,1 v 2 c 0,0.553999 0.446,1 1,1 h 5 c 0.554,0 1,-0.446001 1,-1 v -2 c 0,-0.553999 -0.446,-1 -1,-1 z m 8,0 c -0.554,0 -1,0.446001 -1,1 v 2 c 0,0.553999 0.446,1 1,1 h 5 c 0.554,0 1,-0.446001 1,-1 v -2 c 0,-0.553999 -0.446,-1 -1,-1 z m 8,0 c -0.554,0 -1,0.446001 -1,1 v 2 c 0,0.553999 0.446,1 1,1 h 5 c 0.554,0 1,-0.446001 1,-1 v -2 c 0,-0.553999 -0.446,-1 -1,-1 z m 8,0 c -0.554,0 -1,0.446001 -1,1 v 2 c 0,0.553999 0.446,1 1,1 h 5 c 0.554,0 1,-0.446001 1,-1 v -2 c 0,-0.553999 -0.446,-1 -1,-1 z m -28,5 c -0.554,0 -1,0.446001 -1,1 v 2 c 0,0.553999 0.446,1 1,1 h 5 c 0.554,0 1,-0.446001 1,-1 v -2 c 0,-0.553999 -0.446,-1 -1,-1 z m 8,0 c -0.554,0 -1,0.446001 -1,1 v 2 c 0,0.553999 0.446,1 1,1 h 5 c 0.554,0 1,-0.446001 1,-1 v -2 c 0,-0.553999 -0.446,-1 -1,-1 z m 8,0 c -0.554,0 -1,0.446001 -1,1 v 2 c 0,0.553999 0.446,1 1,1 h 5 c 0.554,0 1,-0.446001 1,-1 v -2 c 0,-0.553999 -0.446,-1 -1,-1 z m 8,0 c -0.554,0 -1,0.446001 -1,1 v 2 c 0,0.553999 0.446,1 1,1 h 5 c 0.554,0 1,-0.446001 1,-1 v -2 c 0,-0.553999 -0.446,-1 -1,-1 z"
         sodipodi:nodetypes="sssssssssssssssssssssssssssssssssssssssssssssssssssssssssssssssssssssssssssssssssssssssssssssssssssssssssssssssssssssssssssssssssssssssssssssssssssssssssssssssssssssssssssssssssssssssssssssssssssssssssssssssssssssssssssssssssssssssssssssssssssssssssssssssssssssssssssssssssssssss"
         mask="url(#mask2935-6)"
         transform="translate(-67.480313,56.489395)" />
    </g>
    <g
       id="g4147">
      <path
         d="m 283,33 c -1.108,0 -2,0.892002 -2,2 v 4 c 0,1.107998 0.892,2 2,2 h 10 c 1.108,0 2,-0.892002 2,-2 v -4 c 0,-1.107998 -0.892,-2 -2,-2 z m 16,0 c -1.108,0 -2,0.892002 -2,2 v 4 c 0,1.107998 0.892,2 2,2 h 10 c 1.108,0 2,-0.892002 2,-2 v -4 c 0,-1.107998 -0.892,-2 -2,-2 z m 16,0 c -1.108,0 -2,0.892002 -2,2 v 4 c 0,1.107998 0.892,2 2,2 h 10 c 1.108,0 2,-0.892002 2,-2 v -4 c 0,-1.107998 -0.892,-2 -2,-2 z m 16,0 c -1.108,0 -2,0.892002 -2,2 v 4 c 0,1.107998 0.892,2 2,2 h 10 c 1.108,0 2,-0.892002 2,-2 v -4 c 0,-1.107998 -0.892,-2 -2,-2 z m 16,0 c -1.108,0 -2,0.892002 -2,2 v 4 c 0,1.107998 0.892,2 2,2 h 10 c 1.108,0 2,-0.892002 2,-2 v -4 c 0,-1.107998 -0.892,-2 -2,-2 z m 16,0 c -1.108,0 -2,0.892002 -2,2 v 4 c 0,1.107998 0.892,2 2,2 h 10 c 1.108,0 2,-0.892002 2,-2 v -4 c 0,-1.107998 -0.892,-2 -2,-2 z m 16,0 c -1.108,0 -2,0.892002 -2,2 v 4 c 0,1.107998 0.892,2 2,2 h 10 c 1.108,0 2,-0.892002 2,-2 v -4 c 0,-1.107998 -0.892,-2 -2,-2 z m -88,10 c -1.108,0 -2,0.892002 -2,2 v 4 c 0,1.107998 0.892,2 2,2 h 10 c 1.108,0 2,-0.892002 2,-2 v -4 c 0,-1.107998 -0.892,-2 -2,-2 z m 16,0 c -1.108,0 -2,0.892002 -2,2 v 4 c 0,1.107998 0.892,2 2,2 h 10 c 1.108,0 2,-0.892002 2,-2 v -4 c 0,-1.107998 -0.892,-2 -2,-2 z m 16,0 c -1.108,0 -2,0.892002 -2,2 v 4 c 0,1.107998 0.892,2 2,2 h 10 c 1.108,0 2,-0.892002 2,-2 v -4 c 0,-1.107998 -0.892,-2 -2,-2 z m 16,0 c -1.108,0 -2,0.892002 -2,2 v 4 c 0,1.107998 0.892,2 2,2 h 10 c 1.108,0 2,-0.892002 2,-2 v -4 c 0,-1.107998 -0.892,-2 -2,-2 z m 16,0 c -1.108,0 -2,0.892002 -2,2 v 4 c 0,1.107998 0.892,2 2,2 h 10 c 1.108,0 2,-0.892002 2,-2 v -4 c 0,-1.107998 -0.892,-2 -2,-2 z m 16,0 c -1.108,0 -2,0.892002 -2,2 v 4 c 0,1.107998 0.892,2 2,2 h 10 c 1.108,0 2,-0.892002 2,-2 v -4 c 0,-1.107998 -0.892,-2 -2,-2 z m -88,10 c -1.108,0 -2,0.892002 -2,2 v 4 c 0,1.107998 0.892,2 2,2 h 10 c 1.108,0 2,-0.892002 2,-2 v -4 c 0,-1.107998 -0.892,-2 -2,-2 z m 16,0 c -1.108,0 -2,0.892002 -2,2 v 4 c 0,1.107998 0.892,2 2,2 h 10 c 1.108,0 2,-0.892002 2,-2 v -4 c 0,-1.107998 -0.892,-2 -2,-2 z m 16,0 c -1.108,0 -2,0.892002 -2,2 v 4 c 0,1.107998 0.892,2 2,2 h 10 c 1.108,0 2,-0.892002 2,-2 v -4 c 0,-1.107998 -0.892,-2 -2,-2 z m 16,0 c -1.108,0 -2,0.892002 -2,2 v 4 c 0,1.107998 0.892,2 2,2 h 10 c 1.108,0 2,-0.892002 2,-2 v -4 c 0,-1.107998 -0.892,-2 -2,-2 z m 16,0 c -1.108,0 -2,0.892002 -2,2 v 4 c 0,1.107998 0.892,2 2,2 h 10 c 1.108,0 2,-0.892002 2,-2 v -4 c 0,-1.107998 -0.892,-2 -2,-2 z m 16,0 c -1.108,0 -2,0.892002 -2,2 v 4 c 0,1.107998 0.892,2 2,2 h 10 c 1.108,0 2,-0.892002 2,-2 v -4 c 0,-1.107998 -0.892,-2 -2,-2 z m 16,0 c -1.108,0 -2,0.892002 -2,2 v 4 c 0,1.107998 0.892,2 2,2 h 10 c 1.108,0 2,-0.892002 2,-2 v -4 c 0,-1.107998 -0.892,-2 -2,-2 z m -88,10 c -1.108,0 -2,0.892002 -2,2 v 4 c 0,1.107998 0.892,2 2,2 h 10 c 1.108,0 2,-0.892002 2,-2 v -4 c 0,-1.107998 -0.892,-2 -2,-2 z m 16,0 c -1.108,0 -2,0.892002 -2,2 v 4 c 0,1.107998 0.892,2 2,2 h 10 c 1.108,0 2,-0.892002 2,-2 v -4 c 0,-1.107998 -0.892,-2 -2,-2 z m 16,0 c -1.108,0 -2,0.892002 -2,2 v 4 c 0,1.107998 0.892,2 2,2 h 10 c 1.108,0 2,-0.892002 2,-2 v -4 c 0,-1.107998 -0.892,-2 -2,-2 z m 16,0 c -1.108,0 -2,0.892002 -2,2 v 4 c 0,1.107998 0.892,2 2,2 h 10 c 1.108,0 2,-0.892002 2,-2 v -4 c 0,-1.107998 -0.892,-2 -2,-2 z m 16,0 c -1.108,0 -2,0.892002 -2,2 v 4 c 0,1.107998 0.892,2 2,2 h 10 c 1.108,0 2,-0.892002 2,-2 v -4 c 0,-1.107998 -0.892,-2 -2,-2 z m 16,0 c -1.108,0 -2,0.892002 -2,2 v 4 c 0,1.107998 0.892,2 2,2 h 10 c 1.108,0 2,-0.892002 2,-2 v -4 c 0,-1.107998 -0.892,-2 -2,-2 z m -88,10 c -1.108,0 -2,0.892002 -2,2 v 4 c 0,1.107994 0.892,2.000004 2,2.000004 h 10 c 1.108,0 2,-0.89201 2,-2.000004 v -4 c 0,-1.107998 -0.892,-2 -2,-2 z m 16,0 c -1.108,0 -2,0.892002 -2,2 v 4 c 0,1.107994 0.892,2.000004 2,2.000004 h 10 c 1.108,0 2,-0.89201 2,-2.000004 v -4 c 0,-1.107998 -0.892,-2 -2,-2 z m 16,0 c -1.108,0 -2,0.892002 -2,2 v 4 c 0,1.107994 0.892,2.000004 2,2.000004 h 10 c 1.108,0 2,-0.89201 2,-2.000004 v -4 c 0,-1.107998 -0.892,-2 -2,-2 z m 16,0 c -1.108,0 -2,0.892002 -2,2 v 4 c 0,1.107994 0.892,2.000004 2,2.000004 h 10 c 1.108,0 2,-0.89201 2,-2.000004 v -4 c 0,-1.107998 -0.892,-2 -2,-2 z m 16,0 c -1.108,0 -2,0.892002 -2,2 v 4 c 0,1.107994 0.892,2.000004 2,2.000004 h 10 c 1.108,0 2,-0.89201 2,-2.000004 v -4 c 0,-1.107998 -0.892,-2 -2,-2 z m 16,0 c -1.108,0 -2,0.892002 -2,2 v 4 c 0,1.107994 0.892,2.000004 2,2.000004 h 10 c 1.108,0 2,-0.89201 2,-2.000004 v -4 c 0,-1.107998 -0.892,-2 -2,-2 z m 16,0 c -1.108,0 -2,0.892002 -2,2 v 4 c 0,1.107994 0.892,2.000004 2,2.000004 h 10 c 1.108,0 2,-0.89201 2,-2.000004 v -4 c 0,-1.107998 -0.892,-2 -2,-2 z m -88,10.000004 c -1.108,0 -2,0.892 -2,2 v 4 c 0,1.10799 0.892,2 2,2 h 10 c 1.108,0 2,-0.89201 2,-2 v -4 c 0,-1.108 -0.892,-2 -2,-2 z m 16,0 c -1.108,0 -2,0.892 -2,2 v 4 c 0,1.10799 0.892,2 2,2 h 10 c 1.108,0 2,-0.89201 2,-2 v -4 c 0,-1.108 -0.892,-2 -2,-2 z m 16,0 c -1.108,0 -2,0.892 -2,2 v 4 c 0,1.10799 0.892,2 2,2 h 10 c 1.108,0 2,-0.89201 2,-2 v -4 c 0,-1.108 -0.892,-2 -2,-2 z m 16,0 c -1.108,0 -2,0.892 -2,2 v 4 c 0,1.10799 0.892,2 2,2 h 10 c 1.108,0 2,-0.89201 2,-2 v -4 c 0,-1.108 -0.892,-2 -2,-2 z m 16,0 c -1.108,0 -2,0.892 -2,2 v 4 c 0,1.10799 0.892,2 2,2 h 10 c 1.108,0 2,-0.89201 2,-2 v -4 c 0,-1.108 -0.892,-2 -2,-2 z m 16,0 c -1.108,0 -2,0.892 -2,2 v 4 c 0,1.10799 0.892,2 2,2 h 10 c 1.108,0 2,-0.89201 2,-2 v -4 c 0,-1.108 -0.892,-2 -2,-2 z m -88,10 c -1.108,0 -2,0.892 -2,2 v 4 C 281,100.10799 281.892,101 283,101 h 10 c 1.108,0 2,-0.89201 2,-1.999996 v -4 c 0,-1.108 -0.892,-2 -2,-2 z m 16,0 c -1.108,0 -2,0.892 -2,2 v 4 C 297,100.10799 297.892,101 299,101 h 10 c 1.108,0 2,-0.89201 2,-1.999996 v -4 c 0,-1.108 -0.892,-2 -2,-2 z m 16,0 c -1.108,0 -2,0.892 -2,2 v 4 C 313,100.10799 313.892,101 315,101 h 10 c 1.108,0 2,-0.89201 2,-1.999996 v -4 c 0,-1.108 -0.892,-2 -2,-2 z m 16,0 c -1.108,0 -2,0.892 -2,2 v 4 C 329,100.10799 329.892,101 331,101 h 10 c 1.108,0 2,-0.89201 2,-1.999996 v -4 c 0,-1.108 -0.892,-2 -2,-2 z m 16,0 c -1.108,0 -2,0.892 -2,2 v 4 C 345,100.10799 345.892,101 347,101 h 10 c 1.108,0 2,-0.89201 2,-1.999996 v -4 c 0,-1.108 -0.892,-2 -2,-2 z m 16,0 c -1.108,0 -2,0.892 -2,2 v 4 C 361,100.10799 361.892,101 363,101 h 10 c 1.108,0 2,-0.89201 2,-1.999996 v -4 c 0,-1.108 -0.892,-2 -2,-2 z m 16,0 c -1.108,0 -2,0.892 -2,2 v 4 C 377,100.10799 377.892,101 379,101 h 10 c 1.108,0 2,-0.89201 2,-1.999996 v -4 c 0,-1.108 -0.892,-2 -2,-2 z M 291,103 c -1.108,0 -2,0.892 -2,2 v 4 c 0,1.108 0.892,2 2,2 h 10 c 1.108,0 2,-0.892 2,-2 v -4 c 0,-1.108 -0.892,-2 -2,-2 z m 16,0 c -1.108,0 -2,0.892 -2,2 v 4 c 0,1.108 0.892,2 2,2 h 10 c 1.108,0 2,-0.892 2,-2 v -4 c 0,-1.108 -0.892,-2 -2,-2 z m 16,0 c -1.108,0 -2,0.892 -2,2 v 4 c 0,1.108 0.892,2 2,2 h 10 c 1.108,0 2,-0.892 2,-2 v -4 c 0,-1.108 -0.892,-2 -2,-2 z m 16,0 c -1.108,0 -2,0.892 -2,2 v 4 c 0,1.108 0.892,2 2,2 h 10 c 1.108,0 2,-0.892 2,-2 v -4 c 0,-1.108 -0.892,-2 -2,-2 z m 16,0 c -1.108,0 -2,0.892 -2,2 v 4 c 0,1.108 0.892,2 2,2 h 10 c 1.108,0 2,-0.892 2,-2 v -4 c 0,-1.108 -0.892,-2 -2,-2 z m 16,0 c -1.108,0 -2,0.892 -2,2 v 4 c 0,1.108 0.892,2 2,2 h 10 c 1.108,0 2,-0.892 2,-2 v -4 c 0,-1.108 -0.892,-2 -2,-2 z m -88,10 c -1.10801,0 -2,0.892 -2,2 v 4 c 0,1.108 0.89199,2 2,2 h 10 c 1.108,0 2,-0.892 2,-2 v -4 c 0,-1.108 -0.892,-2 -2,-2 z m 16,0 c -1.10801,0 -2,0.892 -2,2 v 4 c 0,1.108 0.89199,2 2,2 h 10 c 1.108,0 2,-0.892 2,-2 v -4 c 0,-1.108 -0.892,-2 -2,-2 z m 16,0 c -1.10801,0 -2,0.892 -2,2 v 4 c 0,1.108 0.89199,2 2,2 h 10 c 1.108,0 2,-0.892 2,-2 v -4 c 0,-1.108 -0.892,-2 -2,-2 z m 16,0 c -1.10801,0 -2,0.892 -2,2 v 4 c 0,1.108 0.89199,2 2,2 h 10 c 1.108,0 2,-0.892 2,-2 v -4 c 0,-1.108 -0.892,-2 -2,-2 z m 16,0 c -1.10801,0 -2,0.892 -2,2 v 4 c 0,1.108 0.89199,2 2,2 h 10 c 1.108,0 2,-0.892 2,-2 v -4 c 0,-1.108 -0.892,-2 -2,-2 z m 16,0 c -1.10801,0 -2,0.892 -2,2 v 4 c 0,1.108 0.89199,2 2,2 h 10 c 1.108,0 2,-0.892 2,-2 v -4 c 0,-1.108 -0.892,-2 -2,-2 z m 16,0 c -1.108,0 -2,0.892 -2,2 v 4 c 0,1.108 0.892,2 2,2 h 10 c 1.10801,0 2,-0.892 2,-2 v -4 c 0,-1.108 -0.89199,-2 -2,-2 z"
         style="opacity:0.2;fill:#000000;fill-opacity:1;stroke-width:5;stroke-linecap:round;stroke-linejoin:round"
         id="path3571"
         mask="url(#mask3624)" />
      <path
         id="path3429"
         style="opacity:1;fill:#f45c49;fill-opacity:1;stroke-width:5;stroke-linecap:round;stroke-linejoin:round"
         d="m 283,32 c -1.108,0 -2,0.892002 -2,2 v 4 c 0,1.107998 0.892,2 2,2 h 10 c 1.108,0 2,-0.892002 2,-2 v -4 c 0,-1.107998 -0.892,-2 -2,-2 z m 16,0 c -1.108,0 -2,0.892002 -2,2 v 4 c 0,1.107998 0.892,2 2,2 h 10 c 1.108,0 2,-0.892002 2,-2 v -4 c 0,-1.107998 -0.892,-2 -2,-2 z m 16,0 c -1.108,0 -2,0.892002 -2,2 v 4 c 0,1.107998 0.892,2 2,2 h 10 c 1.108,0 2,-0.892002 2,-2 v -4 c 0,-1.107998 -0.892,-2 -2,-2 z m 16,0 c -1.108,0 -2,0.892002 -2,2 v 4 c 0,1.107998 0.892,2 2,2 h 10 c 1.108,0 2,-0.892002 2,-2 v -4 c 0,-1.107998 -0.892,-2 -2,-2 z m 16,0 c -1.108,0 -2,0.892002 -2,2 v 4 c 0,1.107998 0.892,2 2,2 h 10 c 1.108,0 2,-0.892002 2,-2 v -4 c 0,-1.107998 -0.892,-2 -2,-2 z m 16,0 c -1.108,0 -2,0.892002 -2,2 v 4 c 0,1.107998 0.892,2 2,2 h 10 c 1.108,0 2,-0.892002 2,-2 v -4 c 0,-1.107998 -0.892,-2 -2,-2 z m 16,0 c -1.108,0 -2,0.892002 -2,2 v 4 c 0,1.107998 0.892,2 2,2 h 10 c 1.108,0 2,-0.892002 2,-2 v -4 c 0,-1.107998 -0.892,-2 -2,-2 z m -88,10 c -1.108,0 -2,0.892002 -2,2 v 4 c 0,1.107998 0.892,2 2,2 h 10 c 1.108,0 2,-0.892002 2,-2 v -4 c 0,-1.107998 -0.892,-2 -2,-2 z m 16,0 c -1.108,0 -2,0.892002 -2,2 v 4 c 0,1.107998 0.892,2 2,2 h 10 c 1.108,0 2,-0.892002 2,-2 v -4 c 0,-1.107998 -0.892,-2 -2,-2 z m 16,0 c -1.108,0 -2,0.892002 -2,2 v 4 c 0,1.107998 0.892,2 2,2 h 10 c 1.108,0 2,-0.892002 2,-2 v -4 c 0,-1.107998 -0.892,-2 -2,-2 z m 16,0 c -1.108,0 -2,0.892002 -2,2 v 4 c 0,1.107998 0.892,2 2,2 h 10 c 1.108,0 2,-0.892002 2,-2 v -4 c 0,-1.107998 -0.892,-2 -2,-2 z m 16,0 c -1.108,0 -2,0.892002 -2,2 v 4 c 0,1.107998 0.892,2 2,2 h 10 c 1.108,0 2,-0.892002 2,-2 v -4 c 0,-1.107998 -0.892,-2 -2,-2 z m 16,0 c -1.108,0 -2,0.892002 -2,2 v 4 c 0,1.107998 0.892,2 2,2 h 10 c 1.108,0 2,-0.892002 2,-2 v -4 c 0,-1.107998 -0.892,-2 -2,-2 z m -88,10 c -1.108,0 -2,0.892002 -2,2 v 4 c 0,1.107998 0.892,2 2,2 h 10 c 1.108,0 2,-0.892002 2,-2 v -4 c 0,-1.107998 -0.892,-2 -2,-2 z m 16,0 c -1.108,0 -2,0.892002 -2,2 v 4 c 0,1.107998 0.892,2 2,2 h 10 c 1.108,0 2,-0.892002 2,-2 v -4 c 0,-1.107998 -0.892,-2 -2,-2 z m 16,0 c -1.108,0 -2,0.892002 -2,2 v 4 c 0,1.107998 0.892,2 2,2 h 10 c 1.108,0 2,-0.892002 2,-2 v -4 c 0,-1.107998 -0.892,-2 -2,-2 z m 16,0 c -1.108,0 -2,0.892002 -2,2 v 4 c 0,1.107998 0.892,2 2,2 h 10 c 1.108,0 2,-0.892002 2,-2 v -4 c 0,-1.107998 -0.892,-2 -2,-2 z m 16,0 c -1.108,0 -2,0.892002 -2,2 v 4 c 0,1.107998 0.892,2 2,2 h 10 c 1.108,0 2,-0.892002 2,-2 v -4 c 0,-1.107998 -0.892,-2 -2,-2 z m 16,0 c -1.108,0 -2,0.892002 -2,2 v 4 c 0,1.107998 0.892,2 2,2 h 10 c 1.108,0 2,-0.892002 2,-2 v -4 c 0,-1.107998 -0.892,-2 -2,-2 z m 16,0 c -1.108,0 -2,0.892002 -2,2 v 4 c 0,1.107998 0.892,2 2,2 h 10 c 1.108,0 2,-0.892002 2,-2 v -4 c 0,-1.107998 -0.892,-2 -2,-2 z m -88,10 c -1.108,0 -2,0.892002 -2,2 v 4 c 0,1.107998 0.892,2 2,2 h 10 c 1.108,0 2,-0.892002 2,-2 v -4 c 0,-1.107998 -0.892,-2 -2,-2 z m 16,0 c -1.108,0 -2,0.892002 -2,2 v 4 c 0,1.107998 0.892,2 2,2 h 10 c 1.108,0 2,-0.892002 2,-2 v -4 c 0,-1.107998 -0.892,-2 -2,-2 z m 16,0 c -1.108,0 -2,0.892002 -2,2 v 4 c 0,1.107998 0.892,2 2,2 h 10 c 1.108,0 2,-0.892002 2,-2 v -4 c 0,-1.107998 -0.892,-2 -2,-2 z m 16,0 c -1.108,0 -2,0.892002 -2,2 v 4 c 0,1.107998 0.892,2 2,2 h 10 c 1.108,0 2,-0.892002 2,-2 v -4 c 0,-1.107998 -0.892,-2 -2,-2 z m 16,0 c -1.108,0 -2,0.892002 -2,2 v 4 c 0,1.107998 0.892,2 2,2 h 10 c 1.108,0 2,-0.892002 2,-2 v -4 c 0,-1.107998 -0.892,-2 -2,-2 z m 16,0 c -1.108,0 -2,0.892002 -2,2 v 4 c 0,1.107998 0.892,2 2,2 h 10 c 1.108,0 2,-0.892002 2,-2 v -4 c 0,-1.107998 -0.892,-2 -2,-2 z m -88,10 c -1.108,0 -2,0.892002 -2,2 v 4 c 0,1.107998 0.892,2 2,2 h 10 c 1.108,0 2,-0.892002 2,-2 v -4 c 0,-1.107998 -0.892,-2 -2,-2 z m 16,0 c -1.108,0 -2,0.892002 -2,2 v 4 c 0,1.107998 0.892,2 2,2 h 10 c 1.108,0 2,-0.892002 2,-2 v -4 c 0,-1.107998 -0.892,-2 -2,-2 z m 16,0 c -1.108,0 -2,0.892002 -2,2 v 4 c 0,1.107998 0.892,2 2,2 h 10 c 1.108,0 2,-0.892002 2,-2 v -4 c 0,-1.107998 -0.892,-2 -2,-2 z m 16,0 c -1.108,0 -2,0.892002 -2,2 v 4 c 0,1.107998 0.892,2 2,2 h 10 c 1.108,0 2,-0.892002 2,-2 v -4 c 0,-1.107998 -0.892,-2 -2,-2 z m 16,0 c -1.108,0 -2,0.892002 -2,2 v 4 c 0,1.107998 0.892,2 2,2 h 10 c 1.108,0 2,-0.892002 2,-2 v -4 c 0,-1.107998 -0.892,-2 -2,-2 z m 16,0 c -1.108,0 -2,0.892002 -2,2 v 4 c 0,1.107998 0.892,2 2,2 h 10 c 1.108,0 2,-0.892002 2,-2 v -4 c 0,-1.107998 -0.892,-2 -2,-2 z m 16,0 c -1.108,0 -2,0.892002 -2,2 v 4 c 0,1.107998 0.892,2 2,2 h 10 c 1.108,0 2,-0.892002 2,-2 v -4 c 0,-1.107998 -0.892,-2 -2,-2 z m -88,10 c -1.108,0 -2,0.892002 -2,2 v 4 c 0,1.107998 0.892,2 2,2 h 10 c 1.108,0 2,-0.892002 2,-2 v -4 c 0,-1.107998 -0.892,-2 -2,-2 z m 16,0 c -1.108,0 -2,0.892002 -2,2 v 4 c 0,1.107998 0.892,2 2,2 h 10 c 1.108,0 2,-0.892002 2,-2 v -4 c 0,-1.107998 -0.892,-2 -2,-2 z m 16,0 c -1.108,0 -2,0.892002 -2,2 v 4 c 0,1.107998 0.892,2 2,2 h 10 c 1.108,0 2,-0.892002 2,-2 v -4 c 0,-1.107998 -0.892,-2 -2,-2 z m 16,0 c -1.108,0 -2,0.892002 -2,2 v 4 c 0,1.107998 0.892,2 2,2 h 10 c 1.108,0 2,-0.892002 2,-2 v -4 c 0,-1.107998 -0.892,-2 -2,-2 z m 16,0 c -1.108,0 -2,0.892002 -2,2 v 4 c 0,1.107998 0.892,2 2,2 h 10 c 1.108,0 2,-0.892002 2,-2 v -4 c 0,-1.107998 -0.892,-2 -2,-2 z m 16,0 c -1.108,0 -2,0.892002 -2,2 v 4 c 0,1.107998 0.892,2 2,2 h 10 c 1.108,0 2,-0.892002 2,-2 v -4 c 0,-1.107998 -0.892,-2 -2,-2 z m -88,10 c -1.108,0 -2,0.892002 -2,2 v 4 c 0,1.107998 0.892,2 2,2 h 10 c 1.108,0 2,-0.892002 2,-2 v -4 c 0,-1.107998 -0.892,-2 -2,-2 z m 16,0 c -1.108,0 -2,0.892002 -2,2 v 4 c 0,1.107998 0.892,2 2,2 h 10 c 1.108,0 2,-0.892002 2,-2 v -4 c 0,-1.107998 -0.892,-2 -2,-2 z m 16,0 c -1.108,0 -2,0.892002 -2,2 v 4 c 0,1.107998 0.892,2 2,2 h 10 c 1.108,0 2,-0.892002 2,-2 v -4 c 0,-1.107998 -0.892,-2 -2,-2 z m 16,0 c -1.108,0 -2,0.892002 -2,2 v 4 c 0,1.107998 0.892,2 2,2 h 10 c 1.108,0 2,-0.892002 2,-2 v -4 c 0,-1.107998 -0.892,-2 -2,-2 z m 16,0 c -1.108,0 -2,0.892002 -2,2 v 4 c 0,1.107998 0.892,2 2,2 h 10 c 1.108,0 2,-0.892002 2,-2 v -4 c 0,-1.107998 -0.892,-2 -2,-2 z m 16,0 c -1.108,0 -2,0.892002 -2,2 v 4 c 0,1.107998 0.892,2 2,2 h 10 c 1.108,0 2,-0.892002 2,-2 v -4 c 0,-1.107998 -0.892,-2 -2,-2 z m 16,0 c -1.108,0 -2,0.892002 -2,2 v 4 c 0,1.107998 0.892,2 2,2 h 10 c 1.108,0 2,-0.892002 2,-2 v -4 c 0,-1.107998 -0.892,-2 -2,-2 z m -88,10 c -1.108,0 -2,0.892 -2,2 v 4 c 0,1.108 0.892,2 2,2 h 10 c 1.108,0 2,-0.892 2,-2 v -4 c 0,-1.108 -0.892,-2 -2,-2 z m 16,0 c -1.108,0 -2,0.892 -2,2 v 4 c 0,1.108 0.892,2 2,2 h 10 c 1.108,0 2,-0.892 2,-2 v -4 c 0,-1.108 -0.892,-2 -2,-2 z m 16,0 c -1.108,0 -2,0.892 -2,2 v 4 c 0,1.108 0.892,2 2,2 h 10 c 1.108,0 2,-0.892 2,-2 v -4 c 0,-1.108 -0.892,-2 -2,-2 z m 16,0 c -1.108,0 -2,0.892 -2,2 v 4 c 0,1.108 0.892,2 2,2 h 10 c 1.108,0 2,-0.892 2,-2 v -4 c 0,-1.108 -0.892,-2 -2,-2 z m 16,0 c -1.108,0 -2,0.892 -2,2 v 4 c 0,1.108 0.892,2 2,2 h 10 c 1.108,0 2,-0.892 2,-2 v -4 c 0,-1.108 -0.892,-2 -2,-2 z m 16,0 c -1.108,0 -2,0.892 -2,2 v 4 c 0,1.108 0.892,2 2,2 h 10 c 1.108,0 2,-0.892 2,-2 v -4 c 0,-1.108 -0.892,-2 -2,-2 z m -88,10 c -1.10801,0 -2,0.892 -2,2 v 4 c 0,1.108 0.89199,2 2,2 h 10 c 1.108,0 2,-0.892 2,-2 v -4 c 0,-1.108 -0.892,-2 -2,-2 z m 16,0 c -1.10801,0 -2,0.892 -2,2 v 4 c 0,1.108 0.89199,2 2,2 h 10 c 1.108,0 2,-0.892 2,-2 v -4 c 0,-1.108 -0.892,-2 -2,-2 z m 16,0 c -1.10801,0 -2,0.892 -2,2 v 4 c 0,1.108 0.89199,2 2,2 h 10 c 1.108,0 2,-0.892 2,-2 v -4 c 0,-1.108 -0.892,-2 -2,-2 z m 16,0 c -1.10801,0 -2,0.892 -2,2 v 4 c 0,1.108 0.89199,2 2,2 h 10 c 1.108,0 2,-0.892 2,-2 v -4 c 0,-1.108 -0.892,-2 -2,-2 z m 16,0 c -1.10801,0 -2,0.892 -2,2 v 4 c 0,1.108 0.89199,2 2,2 h 10 c 1.108,0 2,-0.892 2,-2 v -4 c 0,-1.108 -0.892,-2 -2,-2 z m 16,0 c -1.10801,0 -2,0.892 -2,2 v 4 c 0,1.108 0.89199,2 2,2 h 10 c 1.108,0 2,-0.892 2,-2 v -4 c 0,-1.108 -0.892,-2 -2,-2 z m 16,0 c -1.108,0 -2,0.892 -2,2 v 4 c 0,1.108 0.892,2 2,2 h 10 c 1.10801,0 2,-0.892 2,-2 v -4 c 0,-1.108 -0.89199,-2 -2,-2 z"
         sodipodi:nodetypes="sssssssssssssssssssssssssssssssssssssssssssssssssssssssssssssssssssssssssssssssssssssssssssssssssssssssssssssssssssssssssssssssssssssssssssssssssssssssssssssssssssssssssssssssssssssssssssssssssssssssssssssssssssssssssssssssssssssssssssssssssssssssssssssssssssssssssssssssssssssssssssssssssssssssssssssssssssssssssssssssssssssssssssssssssssssssssssssssssssssssssssssssssssssssssssssssssssssssssssssssssssssssssssssssssssssssssssssssssssssssssssssssssssssssssssssssssssssssssssssssssssssssssssssssssssssssssssssssssssssssssssssssssss"
         mask="url(#mask3620)" />
    </g>
    <g
       id="g4331">
      <path
         d="m 22,50 c -2.216,0 -4,1.784004 -4,4 v 8 c 0,2.215996 1.784,4 4,4 h 20 c 2.216,0 4,-1.784004 4,-4 v -8 c 0,-2.215996 -1.784,-4 -4,-4 z m 32,0 c -2.216,0 -4,1.784004 -4,4 v 8 c 0,2.215996 1.784,4 4,4 h 20 c 2.215996,0 4,-1.784004 4,-4 v -8 c 0,-2.215996 -1.784004,-4 -4,-4 z m 32,0 c -2.215996,0 -4,1.784004 -4,4 v 8 c 0,2.215996 1.784004,4 4,4 h 20 c 2.216,0 4,-1.784004 4,-4 v -8 c 0,-2.215996 -1.784,-4 -4,-4 z m 32,0 c -2.216,0 -4,1.784004 -4,4 v 8 c 0,2.215996 1.784,4 4,4 h 20 c 2.216,0 4,-1.784004 4,-4 v -8 c 0,-2.215996 -1.784,-4 -4,-4 z m 32,0 c -2.216,0 -4,1.784004 -4,4 v 8 c 0,2.215996 1.784,4 4,4 h 20 c 2.216,0 4,-1.784004 4,-4 v -8 c 0,-2.215996 -1.784,-4 -4,-4 z m 32,0 c -2.216,0 -4,1.784004 -4,4 v 8 c 0,2.215996 1.784,4 4,4 h 20 c 2.216,0 4,-1.784004 4,-4 v -8 c 0,-2.215996 -1.784,-4 -4,-4 z m 32,0 c -2.216,0 -4,1.784004 -4,4 v 8 c 0,2.215996 1.784,4 4,4 h 20 c 2.216,0 4,-1.784004 4,-4 v -8 c 0,-2.215996 -1.784,-4 -4,-4 z m 32,0 c -2.216,0 -4,1.784012 -4,4 v 8 c 0,2.215998 1.784,4 4,4 h 20 c 2.216,0 4,-1.784002 4,-4 v -8 c 0,-2.215988 -1.784,-4 -4,-4 z M 38,70 c -2.216,0 -4,1.784004 -4,4 v 8 c 0,2.215996 1.784,4 4,4 h 20 c 2.216,0 4,-1.784004 4,-4 v -8 c 0,-2.215996 -1.784,-4 -4,-4 z m 32,0 c -2.216,0 -4,1.784004 -4,4 v 8 c 0,2.215996 1.784,4 4,4 h 20 c 2.215996,0 4,-1.784004 4,-4 v -8 c 0,-2.215996 -1.784004,-4 -4,-4 z m 32,0 c -2.215998,0 -4,1.784004 -4,4 v 8 c 0,2.215996 1.784002,4 4,4 h 20 c 2.216,0 4,-1.784004 4,-4 v -8 c 0,-2.215996 -1.784,-4 -4,-4 z m 32,0 c -2.216,0 -4,1.784004 -4,4 v 8 c 0,2.215996 1.784,4 4,4 h 20 c 2.216,0 4,-1.784004 4,-4 v -8 c 0,-2.215996 -1.784,-4 -4,-4 z m 32,0 c -2.216,0 -4,1.784004 -4,4 v 8 c 0,2.215996 1.784,4 4,4 h 20 c 2.216,0 4,-1.784004 4,-4 v -8 c 0,-2.215996 -1.784,-4 -4,-4 z m 32,0 c -2.216,0 -4,1.784004 -4,4 v 8 c 0,2.215996 1.784,4 4,4 h 20 c 2.216,0 4,-1.784004 4,-4 v -8 c 0,-2.215996 -1.784,-4 -4,-4 z m 32,0 c -2.216,0 -4,1.784004 -4,4 v 8 c 0,2.215996 1.784,4 4,4 h 20 c 2.216,0 4,-1.784004 4,-4 v -8 c 0,-2.215996 -1.784,-4 -4,-4 z M 22,90 c -2.216,0 -4,1.784004 -4,4 v 8 c 0,2.216 1.784,4 4,4 h 20 c 2.216,0 4,-1.784 4,-4 v -8 c 0,-2.215996 -1.784,-4 -4,-4 z m 32,0 c -2.216,0 -4,1.784024 -4,4 v 8 c 0,2.216 1.784,4 4,4 h 20 c 2.215996,0 4,-1.784 4,-4 v -8 c 0,-2.215976 -1.784004,-4 -4,-4 z m 32,0 c -2.215996,0 -4,1.784024 -4,4 v 8 c 0,2.216 1.784004,4 4,4 h 20 c 2.216,0 4,-1.784 4,-4 v -8 c 0,-2.215976 -1.784,-4 -4,-4 z m 32,0 c -2.216,0 -4,1.784024 -4,4 v 8 c 0,2.216 1.784,4 4,4 h 20 c 2.216,0 4,-1.784 4,-4 v -8 c 0,-2.215976 -1.784,-4 -4,-4 z m 32,0 c -2.216,0 -4,1.784024 -4,4 v 8 c 0,2.216 1.784,4 4,4 h 20 c 2.216,0 4,-1.784 4,-4 v -8 c 0,-2.215976 -1.784,-4 -4,-4 z m 32,0 c -2.216,0 -4,1.784024 -4,4 v 8 c 0,2.216 1.784,4 4,4 h 20 c 2.216,0 4,-1.784 4,-4 v -8 c 0,-2.215976 -1.784,-4 -4,-4 z m 32,0 c -2.216,0 -4,1.784024 -4,4 v 8 c 0,2.216 1.784,4 4,4 h 20 c 2.216,0 4,-1.784 4,-4 v -8 c 0,-2.215976 -1.784,-4 -4,-4 z m 32,0 c -2.216,0 -4,1.784002 -4,4 v 8 c 0,2.216 1.784,4 4,4 h 20 c 2.216,0 4,-1.784 4,-4 v -8 c 0,-2.215998 -1.784,-4 -4,-4 z M 38,110 c -2.216,0 -4,1.78402 -4,4 v 8 c 0,2.21599 1.784,4 4,4 h 20 c 2.216,0 4,-1.78401 4,-4 v -8 c 0,-2.21598 -1.784,-4 -4,-4 z m 32,0 c -2.216,0 -4,1.78402 -4,4 v 8 c 0,2.21599 1.784,4 4,4 h 20 c 2.215996,0 4,-1.78401 4,-4 v -8 c 0,-2.21598 -1.784004,-4 -4,-4 z m 32,0 c -2.215998,0 -4,1.78402 -4,4 v 8 c 0,2.21599 1.784002,4 4,4 h 20 c 2.216,0 4,-1.78401 4,-4 v -8 c 0,-2.21598 -1.784,-4 -4,-4 z m 32,0 c -2.216,0 -4,1.78402 -4,4 v 8 c 0,2.21599 1.784,4 4,4 h 20 c 2.216,0 4,-1.78401 4,-4 v -8 c 0,-2.21598 -1.784,-4 -4,-4 z m 32,0 c -2.216,0 -4,1.78402 -4,4 v 8 c 0,2.21599 1.784,4 4,4 h 20 c 2.216,0 4,-1.78401 4,-4 v -8 c 0,-2.21598 -1.784,-4 -4,-4 z m 32,0 c -2.216,0 -4,1.78402 -4,4 v 8 c 0,2.21599 1.784,4 4,4 h 20 c 2.216,0 4,-1.78401 4,-4 v -8 c 0,-2.21598 -1.784,-4 -4,-4 z m 32,0 c -2.216,0 -4,1.78402 -4,4 v 8 c 0,2.21599 1.784,4 4,4 h 20 c 2.216,0 4,-1.78401 4,-4 v -8 c 0,-2.21598 -1.784,-4 -4,-4 z M 22,130 c -2.216,0 -4,1.78399 -4,4 v 8 c 0,2.21601 1.784,4 4,4 h 20 c 2.216,0 4,-1.78399 4,-4 v -8 c 0,-2.216 -1.784,-4 -4,-4 z m 32,0 c -2.216,0 -4,1.78401 -4,4 v 8 c 0,2.21601 1.784,4 4,4 h 20 c 2.215996,0 4,-1.78399 4,-4 v -8 c 0,-2.21599 -1.784004,-4 -4,-4 z m 32,0 c -2.215996,0 -4,1.78401 -4,4 v 8 c 0,2.21601 1.784004,4 4,4 h 20 c 2.216,0 4,-1.78399 4,-4 v -8 c 0,-2.21599 -1.784,-4 -4,-4 z m 32,0 c -2.216,0 -4,1.78401 -4,4 v 8 c 0,2.21601 1.784,4 4,4 h 20 c 2.216,0 4,-1.78399 4,-4 v -8 c 0,-2.21599 -1.784,-4 -4,-4 z m 32,0 c -2.216,0 -4,1.78401 -4,4 v 8 c 0,2.21601 1.784,4 4,4 h 20 c 2.216,0 4,-1.78399 4,-4 v -8 c 0,-2.21599 -1.784,-4 -4,-4 z m 32,0 c -2.216,0 -4,1.78401 -4,4 v 8 c 0,2.21601 1.784,4 4,4 h 20 c 2.216,0 4,-1.78399 4,-4 v -8 c 0,-2.21599 -1.784,-4 -4,-4 z m 32,0 c -2.216,0 -4,1.78401 -4,4 v 8 c 0,2.21601 1.784,4 4,4 h 20 c 2.216,0 4,-1.78399 4,-4 v -8 c 0,-2.21599 -1.784,-4 -4,-4 z m 32,0 c -2.216,0 -4,1.78399 -4,4 v 8 c 0,2.21601 1.784,4 4,4 h 20 c 2.216,0 4,-1.78399 4,-4 v -8 c 0,-2.216 -1.784,-4 -4,-4 z M 38,150 c -2.216,0 -4,1.78401 -4,4 v 8 c 0,2.21601 1.784,4 4,4 h 20 c 2.216,0 4,-1.78399 4,-4 v -8 c 0,-2.21599 -1.784,-4 -4,-4 z m 32,0 c -2.216,0 -4,1.78401 -4,4 v 8 c 0,2.21601 1.784,4 4,4 h 20 c 2.215996,0 4,-1.78399 4,-4 v -8 c 0,-2.21599 -1.784004,-4 -4,-4 z m 32,0 c -2.215998,0 -4,1.78401 -4,4 v 8 c 0,2.21601 1.784002,4 4,4 h 20 c 2.216,0 4,-1.78399 4,-4 v -8 c 0,-2.21599 -1.784,-4 -4,-4 z m 32,0 c -2.216,0 -4,1.78401 -4,4 v 8 c 0,2.21601 1.784,4 4,4 h 20 c 2.216,0 4,-1.78399 4,-4 v -8 c 0,-2.21599 -1.784,-4 -4,-4 z m 32,0 c -2.216,0 -4,1.78401 -4,4 v 8 c 0,2.21601 1.784,4 4,4 h 20 c 2.216,0 4,-1.78399 4,-4 v -8 c 0,-2.21599 -1.784,-4 -4,-4 z m 32,0 c -2.216,0 -4,1.78401 -4,4 v 8 c 0,2.21601 1.784,4 4,4 h 20 c 2.216,0 4,-1.78399 4,-4 v -8 c 0,-2.21599 -1.784,-4 -4,-4 z m 32,0 c -2.216,0 -4,1.78401 -4,4 v 8 c 0,2.21601 1.784,4 4,4 h 20 c 2.216,0 4,-1.78399 4,-4 v -8 c 0,-2.21599 -1.784,-4 -4,-4 z M 22,170 c -2.216,0 -4,1.78399 -4,4 v 8 c 0,2.21601 1.784,4 4,4 h 20 c 2.216,0 4,-1.78399 4,-4 v -8 c 0,-2.21601 -1.784,-4 -4,-4 z m 32,0 c -2.216,0 -4,1.78401 -4,4 v 8 c 0,2.21601 1.784,4 4,4 h 20 c 2.215996,0 4,-1.78399 4,-4 v -8 c 0,-2.21599 -1.784004,-4 -4,-4 z m 32,0 c -2.215996,0 -4,1.78401 -4,4 v 8 c 0,2.21601 1.784004,4 4,4 h 20 c 2.216,0 4,-1.78399 4,-4 v -8 c 0,-2.21599 -1.784,-4 -4,-4 z m 32,0 c -2.216,0 -4,1.78401 -4,4 v 8 c 0,2.21601 1.784,4 4,4 h 20 c 2.216,0 4,-1.78399 4,-4 v -8 c 0,-2.21599 -1.784,-4 -4,-4 z m 32,0 c -2.216,0 -4,1.78401 -4,4 v 8 c 0,2.21601 1.784,4 4,4 h 20 c 2.216,0 4,-1.78399 4,-4 v -8 c 0,-2.21599 -1.784,-4 -4,-4 z m 32,0 c -2.216,0 -4,1.78401 -4,4 v 8 c 0,2.21601 1.784,4 4,4 h 20 c 2.216,0 4,-1.78399 4,-4 v -8 c 0,-2.21599 -1.784,-4 -4,-4 z m 32,0 c -2.216,0 -4,1.78401 -4,4 v 8 c 0,2.21601 1.784,4 4,4 h 20 c 2.216,0 4,-1.78399 4,-4 v -8 c 0,-2.21599 -1.784,-4 -4,-4 z m 32,0 c -2.216,0 -4,1.78399 -4,4 v 8 c 0,2.21601 1.784,4 4,4 h 20 c 2.216,0 4,-1.78399 4,-4 v -8 c 0,-2.21601 -1.784,-4 -4,-4 z M 38,190 c -2.216,0 -4,1.78401 -4,4 v 8 c 0,2.21601 1.784,4 4,4 h 20 c 2.216,0 4,-1.78399 4,-4 v -8 c 0,-2.21599 -1.784,-4 -4,-4 z m 32,0 c -2.216,0 -4,1.78401 -4,4 v 8 c 0,2.21601 1.784,4 4,4 h 20 c 2.215996,0 4,-1.78399 4,-4 v -8 c 0,-2.21599 -1.784004,-4 -4,-4 z m 32,0 c -2.215998,0 -4,1.78401 -4,4 v 8 c 0,2.21601 1.784002,4 4,4 h 20 c 2.216,0 4,-1.78399 4,-4 v -8 c 0,-2.21599 -1.784,-4 -4,-4 z m 32,0 c -2.216,0 -4,1.78401 -4,4 v 8 c 0,2.21601 1.784,4 4,4 h 20 c 2.216,0 4,-1.78399 4,-4 v -8 c 0,-2.21599 -1.784,-4 -4,-4 z m 32,0 c -2.216,0 -4,1.78401 -4,4 v 8 c 0,2.21601 1.784,4 4,4 h 20 c 2.216,0 4,-1.78399 4,-4 v -8 c 0,-2.21599 -1.784,-4 -4,-4 z m 32,0 c -2.216,0 -4,1.78401 -4,4 v 8 c 0,2.21601 1.784,4 4,4 h 20 c 2.216,0 4,-1.78399 4,-4 v -8 c 0,-2.21599 -1.784,-4 -4,-4 z m 32,0 c -2.216,0 -4,1.78401 -4,4 v 8 c 0,2.21601 1.784,4 4,4 h 20 c 2.216,0 4,-1.78399 4,-4 v -8 c 0,-2.21599 -1.784,-4 -4,-4 z M 22,210 c -2.216,0 -4,1.78399 -4,4 v 8 c 0,2.21601 1.784,4 4,4 h 20 c 2.216,0 4,-1.78399 4,-4 v -8 c 0,-2.21601 -1.784,-4 -4,-4 z m 32,0 c -2.216,0 -4,1.78399 -4,4 v 8 c 0,2.21601 1.784,4 4,4 h 20 c 2.215996,0 4,-1.78399 4,-4 v -8 c 0,-2.21601 -1.784004,-4 -4,-4 z m 32,0 c -2.215996,0 -4,1.78399 -4,4 v 8 c 0,2.21601 1.784004,4 4,4 h 20 c 2.216,0 4,-1.78399 4,-4 v -8 c 0,-2.21601 -1.784,-4 -4,-4 z m 32,0 c -2.216,0 -4,1.78399 -4,4 v 8 c 0,2.21601 1.784,4 4,4 h 20 c 2.216,0 4,-1.78399 4,-4 v -8 c 0,-2.21601 -1.784,-4 -4,-4 z m 32,0 c -2.216,0 -4,1.78399 -4,4 v 8 c 0,2.21601 1.784,4 4,4 h 20 c 2.216,0 4,-1.78399 4,-4 v -8 c 0,-2.21601 -1.784,-4 -4,-4 z m 32,0 c -2.216,0 -4,1.78399 -4,4 v 8 c 0,2.21601 1.784,4 4,4 h 20 c 2.216,0 4,-1.78399 4,-4 v -8 c 0,-2.21601 -1.784,-4 -4,-4 z m 32,0 c -2.216,0 -4,1.78399 -4,4 v 8 c 0,2.21601 1.784,4 4,4 h 20 c 2.216,0 4,-1.78399 4,-4 v -8 c 0,-2.21601 -1.784,-4 -4,-4 z m 32,0 c -2.216,0 -4,1.78399 -4,4 v 8 c 0,2.21601 1.784,4 4,4 h 20 c 2.216,0 4,-1.78399 4,-4 v -8 c 0,-2.21601 -1.784,-4 -4,-4 z M 38,230 c -2.21602,0 -4,1.78399 -4,4 v 8 c 0,2.21601 1.78398,4 4,4 h 20 c 2.216,0 4,-1.78399 4,-4 v -8 c 0,-2.21601 -1.784,-4 -4,-4 z m 32,0 c -2.21604,0 -4,1.78399 -4,4 v 8 c 0,2.21601 1.78396,4 4,4 h 20 c 2.215996,0 4,-1.78399 4,-4 v -8 c 0,-2.21601 -1.784004,-4 -4,-4 z m 32,0 c -2.216038,0 -4,1.78399 -4,4 v 8 c 0,2.21601 1.783962,4 4,4 h 20 c 2.216,0 4,-1.78399 4,-4 v -8 c 0,-2.21601 -1.784,-4 -4,-4 z m 32,0 c -2.21604,0 -4,1.78399 -4,4 v 8 c 0,2.21601 1.78396,4 4,4 h 20 c 2.216,0 4,-1.78399 4,-4 v -8 c 0,-2.21601 -1.784,-4 -4,-4 z m 32,0 c -2.21604,0 -4,1.78399 -4,4 v 8 c 0,2.21601 1.78396,4 4,4 h 20 c 2.216,0 4,-1.78399 4,-4 v -8 c 0,-2.21601 -1.784,-4 -4,-4 z m 32,0 c -2.21604,0 -4,1.78399 -4,4 v 8 c 0,2.21601 1.78396,4 4,4 h 20 c 2.216,0 4,-1.78399 4,-4 v -8 c 0,-2.21601 -1.784,-4 -4,-4 z m 32,0 c -2.216,0 -4,1.78399 -4,4 v 8 c 0,2.21601 1.784,4 4,4 h 20 c 2.216,0 4,-1.78399 4,-4 v -8 c 0,-2.21601 -1.784,-4 -4,-4 z M 22,250 c -2.216,0 -4,1.78399 -4,4 v 8 c 0,2.21601 1.784,4 4,4 h 20 c 2.216,0 4,-1.78399 4,-4 v -8 c 0,-2.21601 -1.784,-4 -4,-4 z m 32,0 c -2.216,0 -4,1.78399 -4,4 v 8 c 0,2.21601 1.784,4 4,4 h 20 c 2.215996,0 4,-1.78399 4,-4 v -8 c 0,-2.21601 -1.784004,-4 -4,-4 z m 32,0 c -2.215996,0 -4,1.78399 -4,4 v 8 c 0,2.21601 1.784004,4 4,4 h 20 c 2.216,0 4,-1.78399 4,-4 v -8 c 0,-2.21601 -1.784,-4 -4,-4 z m 32,0 c -2.216,0 -4,1.78399 -4,4 v 8 c 0,2.21601 1.784,4 4,4 h 20 c 2.216,0 4,-1.78399 4,-4 v -8 c 0,-2.21601 -1.784,-4 -4,-4 z m 32,0 c -2.216,0 -4,1.78399 -4,4 v 8 c 0,2.21601 1.784,4 4,4 h 20 c 2.216,0 4,-1.78399 4,-4 v -8 c 0,-2.21601 -1.784,-4 -4,-4 z m 32,0 c -2.216,0 -4,1.78399 -4,4 v 8 c 0,2.21601 1.784,4 4,4 h 20 c 2.216,0 4,-1.78399 4,-4 v -8 c 0,-2.21601 -1.784,-4 -4,-4 z m 32,0 c -2.216,0 -4,1.78399 -4,4 v 8 c 0,2.21601 1.784,4 4,4 h 20 c 2.216,0 4,-1.78399 4,-4 v -8 c 0,-2.21601 -1.784,-4 -4,-4 z m 32,0 c -2.216,0 -4,1.78399 -4,4 v 8 c 0,2.21601 1.784,4 4,4 h 20 c 2.216,0 4,-1.78399 4,-4 v -8 c 0,-2.21601 -1.784,-4 -4,-4 z"
         style="fill:#000000;fill-opacity:1;stroke-width:10;stroke-linecap:round;stroke-linejoin:round;opacity:0.2"
         id="path4308"
         mask="url(#mask4364)" />
      <path
         id="path3843"
         style="fill:#f45c49;fill-opacity:1;stroke-width:10;stroke-linecap:round;stroke-linejoin:round"
         d="m 22,48 c -2.215996,0 -4,1.784004 -4,4 v 8 c 0,2.215996 1.784004,4 4,4 h 20 c 2.215996,0 4,-1.784004 4,-4 v -8 c 0,-2.215996 -1.784004,-4 -4,-4 z m 32,0 c -2.215996,0 -4,1.784004 -4,4 v 8 c 0,2.215996 1.784004,4 4,4 h 20 c 2.215996,0 4,-1.784004 4,-4 v -8 c 0,-2.215996 -1.784004,-4 -4,-4 z m 32,0 c -2.215996,0 -4,1.784004 -4,4 v 8 c 0,2.215996 1.784004,4 4,4 h 20 c 2.216,0 4,-1.784004 4,-4 v -8 c 0,-2.215996 -1.784,-4 -4,-4 z m 32,0 c -2.216,0 -4,1.784004 -4,4 v 8 c 0,2.215996 1.784,4 4,4 h 20 c 2.216,0 4,-1.784004 4,-4 v -8 c 0,-2.215996 -1.784,-4 -4,-4 z m 32,0 c -2.216,0 -4,1.784004 -4,4 v 8 c 0,2.215996 1.784,4 4,4 h 20 c 2.216,0 4,-1.784004 4,-4 v -8 c 0,-2.215996 -1.784,-4 -4,-4 z m 32,0 c -2.216,0 -4,1.784004 -4,4 v 8 c 0,2.215996 1.784,4 4,4 h 20 c 2.216,0 4,-1.784004 4,-4 v -8 c 0,-2.215996 -1.784,-4 -4,-4 z m 32,0 c -2.216,0 -4,1.784004 -4,4 v 8 c 0,2.215996 1.784,4 4,4 h 20 c 2.216,0 4,-1.784004 4,-4 v -8 c 0,-2.215996 -1.784,-4 -4,-4 z m 32,0 c -2.216,0 -4,1.784012 -4,4 v 8 c 0,2.215998 1.784,4 4,4 h 20 c 2.216,0 4,-1.784002 4,-4 v -8 c 0,-2.215988 -1.784,-4 -4,-4 z M 38,68 c -2.215996,0 -4,1.784004 -4,4 v 8 c 0,2.215996 1.784004,4 4,4 h 20 c 2.215996,0 4,-1.784004 4,-4 v -8 c 0,-2.215996 -1.784004,-4 -4,-4 z m 32,0 c -2.215996,0 -4,1.784004 -4,4 v 8 c 0,2.215996 1.784004,4 4,4 h 20 c 2.215996,0 4,-1.784004 4,-4 v -8 c 0,-2.215996 -1.784004,-4 -4,-4 z m 32,0 c -2.215998,0 -4,1.784004 -4,4 v 8 c 0,2.215996 1.784002,4 4,4 h 20 c 2.216,0 4,-1.784004 4,-4 v -8 c 0,-2.215996 -1.784,-4 -4,-4 z m 32,0 c -2.216,0 -4,1.784004 -4,4 v 8 c 0,2.215996 1.784,4 4,4 h 20 c 2.216,0 4,-1.784004 4,-4 v -8 c 0,-2.215996 -1.784,-4 -4,-4 z m 32,0 c -2.216,0 -4,1.784004 -4,4 v 8 c 0,2.215996 1.784,4 4,4 h 20 c 2.216,0 4,-1.784004 4,-4 v -8 c 0,-2.215996 -1.784,-4 -4,-4 z m 32,0 c -2.216,0 -4,1.784004 -4,4 v 8 c 0,2.215996 1.784,4 4,4 h 20 c 2.216,0 4,-1.784004 4,-4 v -8 c 0,-2.215996 -1.784,-4 -4,-4 z m 32,0 c -2.216,0 -4,1.784004 -4,4 v 8 c 0,2.215996 1.784,4 4,4 h 20 c 2.216,0 4,-1.784004 4,-4 v -8 c 0,-2.215996 -1.784,-4 -4,-4 z M 22,88 c -2.215996,0 -4,1.784004 -4,4 v 8 c 0,2.216 1.784004,4 4,4 h 20 c 2.215996,0 4,-1.784 4,-4 v -8 c 0,-2.215996 -1.784004,-4 -4,-4 z m 32,0 c -2.215996,0 -4,1.784024 -4,4 v 8 c 0,2.216 1.784004,4 4,4 h 20 c 2.215996,0 4,-1.784 4,-4 v -8 c 0,-2.215976 -1.784004,-4 -4,-4 z m 32,0 c -2.215996,0 -4,1.784024 -4,4 v 8 c 0,2.216 1.784004,4 4,4 h 20 c 2.216,0 4,-1.784 4,-4 v -8 c 0,-2.215976 -1.784,-4 -4,-4 z m 32,0 c -2.216,0 -4,1.784024 -4,4 v 8 c 0,2.216 1.784,4 4,4 h 20 c 2.216,0 4,-1.784 4,-4 v -8 c 0,-2.215976 -1.784,-4 -4,-4 z m 32,0 c -2.216,0 -4,1.784024 -4,4 v 8 c 0,2.216 1.784,4 4,4 h 20 c 2.216,0 4,-1.784 4,-4 v -8 c 0,-2.215976 -1.784,-4 -4,-4 z m 32,0 c -2.216,0 -4,1.784024 -4,4 v 8 c 0,2.216 1.784,4 4,4 h 20 c 2.216,0 4,-1.784 4,-4 v -8 c 0,-2.215976 -1.784,-4 -4,-4 z m 32,0 c -2.216,0 -4,1.784024 -4,4 v 8 c 0,2.216 1.784,4 4,4 h 20 c 2.216,0 4,-1.784 4,-4 v -8 c 0,-2.215976 -1.784,-4 -4,-4 z m 32,0 c -2.216,0 -4,1.784002 -4,4 v 8 c 0,2.216 1.784,4 4,4 h 20 c 2.216,0 4,-1.784 4,-4 v -8 c 0,-2.215998 -1.784,-4 -4,-4 z M 38,108 c -2.215996,0 -4,1.78402 -4,4 v 8 c 0,2.216 1.784004,4 4,4 h 20 c 2.215996,0 4,-1.784 4,-4 v -8 c 0,-2.21598 -1.784004,-4 -4,-4 z m 32,0 c -2.215996,0 -4,1.78402 -4,4 v 8 c 0,2.216 1.784004,4 4,4 h 20 c 2.215996,0 4,-1.784 4,-4 v -8 c 0,-2.21598 -1.784004,-4 -4,-4 z m 32,0 c -2.215998,0 -4,1.78402 -4,4 v 8 c 0,2.216 1.784002,4 4,4 h 20 c 2.216,0 4,-1.784 4,-4 v -8 c 0,-2.21598 -1.784,-4 -4,-4 z m 32,0 c -2.216,0 -4,1.78402 -4,4 v 8 c 0,2.216 1.784,4 4,4 h 20 c 2.216,0 4,-1.784 4,-4 v -8 c 0,-2.21598 -1.784,-4 -4,-4 z m 32,0 c -2.216,0 -4,1.78402 -4,4 v 8 c 0,2.216 1.784,4 4,4 h 20 c 2.216,0 4,-1.784 4,-4 v -8 c 0,-2.21598 -1.784,-4 -4,-4 z m 32,0 c -2.216,0 -4,1.78402 -4,4 v 8 c 0,2.216 1.784,4 4,4 h 20 c 2.216,0 4,-1.784 4,-4 v -8 c 0,-2.21598 -1.784,-4 -4,-4 z m 32,0 c -2.216,0 -4,1.78402 -4,4 v 8 c 0,2.216 1.784,4 4,4 h 20 c 2.216,0 4,-1.784 4,-4 v -8 c 0,-2.21598 -1.784,-4 -4,-4 z M 22,128 c -2.215996,0 -4,1.784 -4,4 v 8 c 0,2.216 1.784004,4 4,4 h 20 c 2.215996,0 4,-1.784 4,-4 v -8 c 0,-2.216 -1.784004,-4 -4,-4 z m 32,0 c -2.215996,0 -4,1.78402 -4,4 v 8 c 0,2.216 1.784004,4 4,4 h 20 c 2.215996,0 4,-1.784 4,-4 v -8 c 0,-2.21598 -1.784004,-4 -4,-4 z m 32,0 c -2.215996,0 -4,1.78402 -4,4 v 8 c 0,2.216 1.784004,4 4,4 h 20 c 2.216,0 4,-1.784 4,-4 v -8 c 0,-2.21598 -1.784,-4 -4,-4 z m 32,0 c -2.216,0 -4,1.78402 -4,4 v 8 c 0,2.216 1.784,4 4,4 h 20 c 2.216,0 4,-1.784 4,-4 v -8 c 0,-2.21598 -1.784,-4 -4,-4 z m 32,0 c -2.216,0 -4,1.78402 -4,4 v 8 c 0,2.216 1.784,4 4,4 h 20 c 2.216,0 4,-1.784 4,-4 v -8 c 0,-2.21598 -1.784,-4 -4,-4 z m 32,0 c -2.216,0 -4,1.78402 -4,4 v 8 c 0,2.216 1.784,4 4,4 h 20 c 2.216,0 4,-1.784 4,-4 v -8 c 0,-2.21598 -1.784,-4 -4,-4 z m 32,0 c -2.216,0 -4,1.78402 -4,4 v 8 c 0,2.216 1.784,4 4,4 h 20 c 2.216,0 4,-1.784 4,-4 v -8 c 0,-2.21598 -1.784,-4 -4,-4 z m 32,0 c -2.216,0 -4,1.784 -4,4 v 8 c 0,2.216 1.784,4 4,4 h 20 c 2.216,0 4,-1.784 4,-4 v -8 c 0,-2.216 -1.784,-4 -4,-4 z M 38,148 c -2.215996,0 -4,1.78402 -4,4 v 8 c 0,2.216 1.784004,4 4,4 h 20 c 2.215996,0 4,-1.784 4,-4 v -8 c 0,-2.21598 -1.784004,-4 -4,-4 z m 32,0 c -2.215996,0 -4,1.78402 -4,4 v 8 c 0,2.216 1.784004,4 4,4 h 20 c 2.215996,0 4,-1.784 4,-4 v -8 c 0,-2.21598 -1.784004,-4 -4,-4 z m 32,0 c -2.215998,0 -4,1.78402 -4,4 v 8 c 0,2.216 1.784002,4 4,4 h 20 c 2.216,0 4,-1.784 4,-4 v -8 c 0,-2.21598 -1.784,-4 -4,-4 z m 32,0 c -2.216,0 -4,1.78402 -4,4 v 8 c 0,2.216 1.784,4 4,4 h 20 c 2.216,0 4,-1.784 4,-4 v -8 c 0,-2.21598 -1.784,-4 -4,-4 z m 32,0 c -2.216,0 -4,1.78402 -4,4 v 8 c 0,2.216 1.784,4 4,4 h 20 c 2.216,0 4,-1.784 4,-4 v -8 c 0,-2.21598 -1.784,-4 -4,-4 z m 32,0 c -2.216,0 -4,1.78402 -4,4 v 8 c 0,2.216 1.784,4 4,4 h 20 c 2.216,0 4,-1.784 4,-4 v -8 c 0,-2.21598 -1.784,-4 -4,-4 z m 32,0 c -2.216,0 -4,1.78402 -4,4 v 8 c 0,2.216 1.784,4 4,4 h 20 c 2.216,0 4,-1.784 4,-4 v -8 c 0,-2.21598 -1.784,-4 -4,-4 z M 22,168 c -2.215996,0 -4,1.784 -4,4 v 8 c 0,2.216 1.784004,4 4,4 h 20 c 2.215996,0 4,-1.784 4,-4 v -8 c 0,-2.216 -1.784004,-4 -4,-4 z m 32,0 c -2.215996,0 -4,1.78402 -4,4 v 8 c 0,2.216 1.784004,4 4,4 h 20 c 2.215996,0 4,-1.784 4,-4 v -8 c 0,-2.21598 -1.784004,-4 -4,-4 z m 32,0 c -2.215996,0 -4,1.78402 -4,4 v 8 c 0,2.216 1.784004,4 4,4 h 20 c 2.216,0 4,-1.784 4,-4 v -8 c 0,-2.21598 -1.784,-4 -4,-4 z m 32,0 c -2.216,0 -4,1.78402 -4,4 v 8 c 0,2.216 1.784,4 4,4 h 20 c 2.216,0 4,-1.784 4,-4 v -8 c 0,-2.21598 -1.784,-4 -4,-4 z m 32,0 c -2.216,0 -4,1.78402 -4,4 v 8 c 0,2.216 1.784,4 4,4 h 20 c 2.216,0 4,-1.784 4,-4 v -8 c 0,-2.21598 -1.784,-4 -4,-4 z m 32,0 c -2.216,0 -4,1.78402 -4,4 v 8 c 0,2.216 1.784,4 4,4 h 20 c 2.216,0 4,-1.784 4,-4 v -8 c 0,-2.21598 -1.784,-4 -4,-4 z m 32,0 c -2.216,0 -4,1.78402 -4,4 v 8 c 0,2.216 1.784,4 4,4 h 20 c 2.216,0 4,-1.784 4,-4 v -8 c 0,-2.21598 -1.784,-4 -4,-4 z m 32,0 c -2.216,0 -4,1.784 -4,4 v 8 c 0,2.216 1.784,4 4,4 h 20 c 2.216,0 4,-1.784 4,-4 v -8 c 0,-2.216 -1.784,-4 -4,-4 z M 38,188 c -2.215996,0 -4,1.78402 -4,4 v 8 c 0,2.216 1.784004,4 4,4 h 20 c 2.215996,0 4,-1.784 4,-4 v -8 c 0,-2.21598 -1.784004,-4 -4,-4 z m 32,0 c -2.215996,0 -4,1.78402 -4,4 v 8 c 0,2.216 1.784004,4 4,4 h 20 c 2.215996,0 4,-1.784 4,-4 v -8 c 0,-2.21598 -1.784004,-4 -4,-4 z m 32,0 c -2.215998,0 -4,1.78402 -4,4 v 8 c 0,2.216 1.784002,4 4,4 h 20 c 2.216,0 4,-1.784 4,-4 v -8 c 0,-2.21598 -1.784,-4 -4,-4 z m 32,0 c -2.216,0 -4,1.78402 -4,4 v 8 c 0,2.216 1.784,4 4,4 h 20 c 2.216,0 4,-1.784 4,-4 v -8 c 0,-2.21598 -1.784,-4 -4,-4 z m 32,0 c -2.216,0 -4,1.78402 -4,4 v 8 c 0,2.216 1.784,4 4,4 h 20 c 2.216,0 4,-1.784 4,-4 v -8 c 0,-2.21598 -1.784,-4 -4,-4 z m 32,0 c -2.216,0 -4,1.78402 -4,4 v 8 c 0,2.216 1.784,4 4,4 h 20 c 2.216,0 4,-1.784 4,-4 v -8 c 0,-2.21598 -1.784,-4 -4,-4 z m 32,0 c -2.216,0 -4,1.78402 -4,4 v 8 c 0,2.216 1.784,4 4,4 h 20 c 2.216,0 4,-1.784 4,-4 v -8 c 0,-2.21598 -1.784,-4 -4,-4 z M 22,208 c -2.215996,0 -4,1.784 -4,4 v 8 c 0,2.216 1.784004,4 4,4 h 20 c 2.215996,0 4,-1.784 4,-4 v -8 c 0,-2.216 -1.784004,-4 -4,-4 z m 32,0 c -2.215996,0 -4,1.784 -4,4 v 8 c 0,2.216 1.784004,4 4,4 h 20 c 2.215996,0 4,-1.784 4,-4 v -8 c 0,-2.216 -1.784004,-4 -4,-4 z m 32,0 c -2.215996,0 -4,1.784 -4,4 v 8 c 0,2.216 1.784004,4 4,4 h 20 c 2.216,0 4,-1.784 4,-4 v -8 c 0,-2.216 -1.784,-4 -4,-4 z m 32,0 c -2.216,0 -4,1.784 -4,4 v 8 c 0,2.216 1.784,4 4,4 h 20 c 2.216,0 4,-1.784 4,-4 v -8 c 0,-2.216 -1.784,-4 -4,-4 z m 32,0 c -2.216,0 -4,1.784 -4,4 v 8 c 0,2.216 1.784,4 4,4 h 20 c 2.216,0 4,-1.784 4,-4 v -8 c 0,-2.216 -1.784,-4 -4,-4 z m 32,0 c -2.216,0 -4,1.784 -4,4 v 8 c 0,2.216 1.784,4 4,4 h 20 c 2.216,0 4,-1.784 4,-4 v -8 c 0,-2.216 -1.784,-4 -4,-4 z m 32,0 c -2.216,0 -4,1.784 -4,4 v 8 c 0,2.216 1.784,4 4,4 h 20 c 2.216,0 4,-1.784 4,-4 v -8 c 0,-2.216 -1.784,-4 -4,-4 z m 32,0 c -2.216,0 -4,1.784 -4,4 v 8 c 0,2.216 1.784,4 4,4 h 20 c 2.216,0 4,-1.784 4,-4 v -8 c 0,-2.216 -1.784,-4 -4,-4 z M 38,228 c -2.216016,0 -4,1.784 -4,4 v 8 c 0,2.216 1.783984,4 4,4 h 20 c 2.215996,0 4,-1.784 4,-4 v -8 c 0,-2.216 -1.784004,-4 -4,-4 z m 32,0 c -2.216036,0 -4,1.784 -4,4 v 8 c 0,2.216 1.783964,4 4,4 h 20 c 2.215996,0 4,-1.784 4,-4 v -8 c 0,-2.216 -1.784004,-4 -4,-4 z m 32,0 c -2.216038,0 -4,1.784 -4,4 v 8 c 0,2.216 1.783962,4 4,4 h 20 c 2.216,0 4,-1.784 4,-4 v -8 c 0,-2.216 -1.784,-4 -4,-4 z m 32,0 c -2.21604,0 -4,1.784 -4,4 v 8 c 0,2.216 1.78396,4 4,4 h 20 c 2.216,0 4,-1.784 4,-4 v -8 c 0,-2.216 -1.784,-4 -4,-4 z m 32,0 c -2.21604,0 -4,1.784 -4,4 v 8 c 0,2.216 1.78396,4 4,4 h 20 c 2.216,0 4,-1.784 4,-4 v -8 c 0,-2.216 -1.784,-4 -4,-4 z m 32,0 c -2.21604,0 -4,1.784 -4,4 v 8 c 0,2.216 1.78396,4 4,4 h 20 c 2.216,0 4,-1.784 4,-4 v -8 c 0,-2.216 -1.784,-4 -4,-4 z m 32,0 c -2.216,0 -4,1.784 -4,4 v 8 c 0,2.216 1.784,4 4,4 h 20 c 2.216,0 4,-1.784 4,-4 v -8 c 0,-2.216 -1.784,-4 -4,-4 z M 22,248 c -2.215996,0 -4,1.784 -4,4 v 8 c 0,2.216 1.784004,4 4,4 h 20 c 2.215996,0 4,-1.784 4,-4 v -8 c 0,-2.216 -1.784004,-4 -4,-4 z m 32,0 c -2.215996,0 -4,1.784 -4,4 v 8 c 0,2.216 1.784004,4 4,4 h 20 c 2.215996,0 4,-1.784 4,-4 v -8 c 0,-2.216 -1.784004,-4 -4,-4 z m 32,0 c -2.215996,0 -4,1.784 -4,4 v 8 c 0,2.216 1.784004,4 4,4 h 20 c 2.216,0 4,-1.784 4,-4 v -8 c 0,-2.216 -1.784,-4 -4,-4 z m 32,0 c -2.216,0 -4,1.784 -4,4 v 8 c 0,2.216 1.784,4 4,4 h 20 c 2.216,0 4,-1.784 4,-4 v -8 c 0,-2.216 -1.784,-4 -4,-4 z m 32,0 c -2.216,0 -4,1.784 -4,4 v 8 c 0,2.216 1.784,4 4,4 h 20 c 2.216,0 4,-1.784 4,-4 v -8 c 0,-2.216 -1.784,-4 -4,-4 z m 32,0 c -2.216,0 -4,1.784 -4,4 v 8 c 0,2.216 1.784,4 4,4 h 20 c 2.216,0 4,-1.784 4,-4 v -8 c 0,-2.216 -1.784,-4 -4,-4 z m 32,0 c -2.216,0 -4,1.784 -4,4 v 8 c 0,2.216 1.784,4 4,4 h 20 c 2.216,0 4,-1.784 4,-4 v -8 c 0,-2.216 -1.784,-4 -4,-4 z m 32,0 c -2.216,0 -4,1.784 -4,4 v 8 c 0,2.216 1.784,4 4,4 h 20 c 2.216,0 4,-1.784 4,-4 v -8 c 0,-2.216 -1.784,-4 -4,-4 z"
         sodipodi:nodetypes="sssssssssssssssssssssssssssssssssssssssssssssssssssssssssssssssssssssssssssssssssssssssssssssssssssssssssssssssssssssssssssssssssssssssssssssssssssssssssssssssssssssssssssssssssssssssssssssssssssssssssssssssssssssssssssssssssssssssssssssssssssssssssssssssssssssssssssssssssssssssssssssssssssssssssssssssssssssssssssssssssssssssssssssssssssssssssssssssssssssssssssssssssssssssssssssssssssssssssssssssssssssssssssssssssssssssssssssssssssssssssssssssssssssssssssssssssssssssssssssssssssssssssssssssssssssssssssssssssssssssssssssssssssssssssssssssssssssssssssssssssssssssssssssssssssssssssssssssssssssssssssssssssssssssssssssssssssssssssssssssssssssssssssssssssssssssssssssssssssssssssssssssssssssssssssssssssssssssssssssssssssssssssssssssssssssssssss"
         mask="url(#mask4360)" />
    </g>
  </g>
  <g
     id="Highlights">
    <path
       id="rect653"
       style="opacity:0.2;fill:#ffffff"
       d="M 80,44 C 53.408027,44 32,65.408027 32,92 v 2 C 32,67.408027 53.408027,46 80,46 h 128 c 26.59197,0 48,21.408027 48,48 V 92 C 256,65.408027 234.59197,44 208,44 Z"
       sodipodi:nodetypes="sscsscsss" />
    <path
       id="rect773"
       style="opacity:0.2;fill:#ffffff"
       d="m 312,34 c -9.97199,0 -18,8.02801 -18,18 v 1 c 0,-9.97199 8.02801,-18 18,-18 h 48 c 9.97199,0 18,8.02801 18,18 v -1 c 0,-9.97199 -8.02801,-18 -18,-18 z" />
    <path
       id="rect1135"
       style="opacity:0.2;fill:#ffffff;fill-opacity:1"
       d="m 304,144 c -6.64799,0 -12,5.35201 -12,12 v 1 c 0,-6.64799 5.35201,-12 12,-12 h 32 c 6.64799,0 12,5.35201 12,12 v -1 c 0,-6.64799 -5.35201,-12 -12,-12 z" />
    <path
       id="rect1265"
       style="opacity:0.2;fill:#ffffff;fill-opacity:1"
       d="m 300,223 c -4.986,0 -9,4.014 -9,9 v 1 c 0,-4.986 4.014,-9 9,-9 h 24 c 4.986,0 9,4.014 9,9 v -1 c 0,-4.986 -4.014,-9 -9,-9 z" />
    <path
       id="rect1368"
       style="opacity:0.2;fill:#ffffff;fill-opacity:1"
       d="m 424,54 c -3.324,0 -6,2.676003 -6,6 v 1 c 0,-3.323997 2.676,-6 6,-6 h 16 c 3.324,0 6,2.676003 6,6 v -1 c 0,-3.323997 -2.676,-6 -6,-6 z" />
    <path
       id="rect1402"
       style="opacity:0.2;fill:#ffffff;fill-opacity:1"
       d="m 420,140 c -2.216,0 -4,1.784 -4,4 v 1 c 0,-2.216 1.784,-4 4,-4 h 8 c 2.216,0 4,1.784 4,4 v -1 c 0,-2.216 -1.784,-4 -4,-4 z" />
    <path
       id="rect1436"
       style="opacity:0.2;fill:#ffffff;fill-opacity:1"
       d="m 422,102 c -2.216,0 -4,1.784 -4,4 v 1 c 0,-2.216 1.784,-4 4,-4 h 12 c 2.216,0 4,1.784 4,4 v -1 c 0,-2.216 -1.784,-4 -4,-4 z" />
  </g>
</svg>
