<?xml version="1.0" encoding="UTF-8" standalone="no"?>
<!-- Created with Inkscape (http://www.inkscape.org/) -->

<svg
   width="480"
   height="300"
   viewBox="0 0 480 300"
   version="1.1"
   id="svg5"
   inkscape:version="1.2.2 (1:1.2.2+202305151914+b0a8486541)"
   sodipodi:docname="gnome-screenshot.svg"
   xmlns:inkscape="http://www.inkscape.org/namespaces/inkscape"
   xmlns:sodipodi="http://sodipodi.sourceforge.net/DTD/sodipodi-0.dtd"
   xmlns="http://www.w3.org/2000/svg"
   xmlns:svg="http://www.w3.org/2000/svg">
  <sodipodi:namedview
     id="namedview7"
     pagecolor="#888888"
     bordercolor="#000000"
     borderopacity="0.25"
     inkscape:showpageshadow="true"
     inkscape:pageopacity="0"
     inkscape:pagecheckerboard="0"
     inkscape:deskcolor="#888888"
     inkscape:document-units="px"
     showgrid="false"
     showborder="false"
     inkscape:zoom="2.7270833"
     inkscape:cx="240"
     inkscape:cy="149.97708"
     inkscape:window-width="1920"
     inkscape:window-height="1008"
     inkscape:window-x="0"
     inkscape:window-y="0"
     inkscape:window-maximized="1"
     inkscape:current-layer="svg5" />
  <defs
     id="defs2" />
  <g
     id="Baseplate"
     style="display:none">
    <text
       y="19.774782"
       xml:space="preserve"
       x="15.006946"
       style="font-style:normal;font-variant:normal;font-weight:normal;font-stretch:normal;line-height:0%;font-family:'DejaVu Sans';-inkscape-font-specification:'DejaVu Sans';display:inline;fill:#000000;fill-opacity:1;stroke:none;enable-background:new"
       inkscape:label="context"
       id="context"><tspan
         style="font-style:normal;font-variant:normal;font-weight:normal;font-stretch:normal;font-size:18px;line-height:1.25;font-family:'DejaVu Sans';-inkscape-font-specification:'DejaVu Sans'"
         y="19.774782"
         x="15.006946"
         sodipodi:role="line"
         id="tspan3933">apps</tspan></text>
    <text
       y="19.774782"
       xml:space="preserve"
       x="122.48839"
       style="font-style:normal;font-variant:normal;font-weight:bold;font-stretch:normal;line-height:0%;font-family:'DejaVu Sans';-inkscape-font-specification:'DejaVu Sans Bold';text-align:start;writing-mode:lr-tb;text-anchor:start;display:inline;fill:#000000;fill-opacity:1;stroke:none;enable-background:new"
       inkscape:label="icon-name"
       id="icon-name"><tspan
         style="font-style:normal;font-variant:normal;font-weight:bold;font-stretch:normal;font-size:18px;line-height:1.25;font-family:'DejaVu Sans';-inkscape-font-specification:'DejaVu Sans Bold'"
         y="19.774782"
         x="122.48839"
         sodipodi:role="line"
         id="tspan3937">gnome-screenshot</tspan></text>
    <rect
       style="fill:#ffffff"
       id="256x256"
       width="256"
       height="256"
       x="16"
       y="28" />
    <rect
       style="fill:#ffffff"
       id="96x96"
       width="96"
       height="96"
       x="288"
       y="28" />
    <rect
       style="fill:#ffffff"
       id="64x64"
       width="64"
       height="64"
       x="288"
       y="140" />
    <rect
       style="fill:#ffffff"
       id="48x48"
       width="48"
       height="48"
       x="288"
       y="220" />
    <rect
       style="fill:#ffffff"
       id="32x32"
       width="32"
       height="32"
       x="416"
       y="52" />
    <rect
       style="fill:#ffffff"
       id="24x24"
       width="24"
       height="24"
       x="416"
       y="100" />
    <rect
       style="fill:#ffffff"
       id="22x22"
       width="22"
       height="22"
       x="417"
       y="101" />
    <rect
       style="fill:#ffffff"
       id="16x16"
       width="16"
       height="16"
       x="416"
       y="140" />
  </g>
  <g
     id="Shadow">
    <rect
       style="opacity:0.2;fill:#000000"
       id="rect651"
       width="224"
       height="224"
       x="32"
       y="46"
       ry="48" />
    <rect
       style="opacity:0.2;fill:#000000"
       id="rect769"
       width="84"
       height="85"
       x="294"
       y="34"
       ry="18" />
    <rect
       style="opacity:0.2;fill:#000000;fill-opacity:1"
       id="rect1131"
       width="56"
       height="56"
       x="292"
       y="145"
       ry="12" />
    <rect
       style="opacity:0.2;fill:#000000;fill-opacity:1"
       id="rect1261"
       width="42"
       height="42"
       x="291"
       y="224"
       ry="9" />
    <rect
       style="opacity:0.2;fill:#000000;fill-opacity:1"
       id="rect1364"
       width="28"
       height="29"
       x="418"
       y="54"
       ry="6" />
    <rect
       style="opacity:0.2;fill:#000000;fill-opacity:1"
       id="rect1398"
       width="16"
       height="16"
       x="416"
       y="141"
       ry="4" />
    <rect
       style="opacity:0.2;fill:#000000;fill-opacity:1"
       id="rect1432"
       width="20"
       height="20"
       x="418"
       y="103"
       ry="4" />
  </g>
  <g
     id="Background">
    <rect
       style="fill:#3f51b5;fill-opacity:1"
       id="rect597"
       width="224"
       height="224"
       x="32"
       y="44"
       ry="48" />
    <rect
       style="opacity:1;fill:#3f51b5;fill-opacity:1"
       id="rect771"
       width="84"
       height="84"
       x="294"
       y="34"
       ry="18" />
    <rect
       style="opacity:1;fill:#3f51b5;fill-opacity:1"
       id="rect1133"
       width="56"
       height="56"
       x="292"
       y="144"
       ry="12" />
    <rect
       style="opacity:1;fill:#3f51b5;fill-opacity:1"
       id="rect1263"
       width="42"
       height="42"
       x="291"
       y="223"
       ry="9" />
    <rect
       style="opacity:1;fill:#3f51b5;fill-opacity:1"
       id="rect1366"
       width="28"
       height="28"
       x="418"
       y="54"
       ry="6" />
    <rect
       style="opacity:1;fill:#3f51b5;fill-opacity:1"
       id="rect1400"
       width="16"
       height="16"
       x="416"
       y="140"
       ry="4" />
    <rect
       style="opacity:1;fill:#3f51b5;fill-opacity:1"
       id="rect1434"
       width="20"
       height="20"
       x="418"
       y="102"
       ry="4" />
  </g>
  <g
     id="g1142">
    <path
       d="m 424,143.5 c -1.22145,0.002 -2.39975,0.45198 -3.3125,1.26367 l 1.58008,2.73438 2.28906,-3.96485 C 424.37186,143.5118 424.18602,143.5007 424,143.5 Z m 1.58203,0.26172 L 424,146.5 h 4.57617 c -0.5662,-1.29489 -1.65395,-2.28969 -2.99414,-2.73828 z m -5.60156,1.77539 c -0.63458,0.85772 -0.97814,1.89595 -0.98047,2.96289 0.002,0.33603 0.0368,0.67106 0.10547,1 h 3.16211 z m 5.75195,1.96289 2.28711,3.96289 c 0.63458,-0.85772 0.97814,-1.89595 0.98047,-2.96289 -0.002,-0.33603 -0.0368,-0.67106 -0.10547,-1 z m 0,2 -2.29101,3.9668 c 0.18543,0.0215 0.37192,0.0326 0.55859,0.0332 1.22145,-0.002 2.39975,-0.45198 3.3125,-1.26368 z m -6.30859,1 c 0.5662,1.29489 1.65395,2.28969 2.99414,2.73828 L 424,150.5 Z"
       style="opacity:0.2;fill:#000000"
       id="path376" />
    <path
       d="m 424,143 c -1.22145,0.002 -2.39975,0.45198 -3.3125,1.26367 l 1.58008,2.73438 2.28906,-3.96485 C 424.37186,143.0118 424.18602,143.0007 424,143 Z m 1.58203,0.26172 L 424,146 h 4.57617 c -0.5662,-1.29489 -1.65395,-2.28969 -2.99414,-2.73828 z m -5.60156,1.77539 C 419.34589,145.89483 419.00233,146.93306 419,148 c 10e-4,0.33603 0.0368,0.67106 0.10547,1 h 3.16211 z m 5.75195,1.96289 2.28711,3.96289 C 428.65411,150.10517 428.99767,149.06694 429,148 c -0.002,-0.33603 -0.0368,-0.67106 -0.10547,-1 z m 0,2 -2.29101,3.9668 c 0.18543,0.0215 0.37192,0.0326 0.55859,0.0332 1.22145,-0.002 2.39975,-0.45198 3.3125,-1.26368 z m -6.30859,1 c 0.5662,1.29489 1.65395,2.28969 2.99414,2.73828 L 424,150 Z"
       style="fill:#ffffff"
       id="path348"
       sodipodi:nodetypes="cccccccccccccccccccccccccccc" />
  </g>
  <g
     id="g2499">
    <path
       id="path2246"
       style="fill:#000000;opacity:0.2"
       d="M 428 105.5 A 7 7 0 0 0 422.92188 107.70312 L 425.11328 111.5 L 428.56445 105.52344 A 7 7 0 0 0 428 105.5 z M 429.62109 105.69141 L 427.42188 109.5 L 434.32422 109.5 A 7 7 0 0 0 429.62109 105.69141 z M 422.24805 108.5332 A 7 7 0 0 0 421 112.5 A 7 7 0 0 0 421.29297 114.5 L 425.69141 114.5 L 422.24805 108.5332 z M 430.30859 110.5 L 433.75195 116.4668 A 7 7 0 0 0 435 112.5 A 7 7 0 0 0 434.70703 110.5 L 430.30859 110.5 z M 430.88672 113.5 L 427.44531 119.46094 A 7 7 0 0 0 428 119.5 A 7 7 0 0 0 433.07812 117.29688 L 430.88672 113.5 z M 421.68359 115.5 A 7 7 0 0 0 426.38672 119.29492 L 428.57812 115.5 L 421.68359 115.5 z " />
    <path
       id="path2218"
       style="fill:#ffffff"
       d="M 428 105 A 7 7 0 0 0 422.92188 107.20312 L 425.11328 111 L 428.56445 105.02344 A 7 7 0 0 0 428 105 z M 429.62109 105.19141 L 427.42188 109 L 434.32422 109 A 7 7 0 0 0 429.62109 105.19141 z M 422.24805 108.0332 A 7 7 0 0 0 421 112 A 7 7 0 0 0 421.29297 114 L 425.69141 114 L 422.24805 108.0332 z M 430.30859 110 L 433.75195 115.9668 A 7 7 0 0 0 435 112 A 7 7 0 0 0 434.70703 110 L 430.30859 110 z M 430.88672 113 L 427.44531 118.96094 A 7 7 0 0 0 428 119 A 7 7 0 0 0 433.07812 116.79688 L 430.88672 113 z M 421.68359 115 A 7 7 0 0 0 426.38672 118.79492 L 428.57812 115 L 421.68359 115 z " />
  </g>
  <g
     id="g2607">
    <path
       d="m 432,59 c -2.44281,0.0029 -4.80009,0.899781 -6.62695,2.521484 L 428.53516,67 l 4.58007,-7.935547 c -0.37025,-0.04225 -0.74258,-0.06376 -1.11523,-0.06445 z m 3.16602,0.517578 L 432,65 h 9.16211 c -1.13281,-2.593652 -3.31162,-4.58581 -5.99609,-5.482422 z M 423.9668,63.087891 C 422.69832,64.798853 422.00926,66.870131 422,69 c 0.008,0.67259 0.084,1.34265 0.22656,2 h 6.3086 z M 435.46484,67 440.0332,74.912109 C 441.30168,73.201147 441.99074,71.129869 442,69 c -3.6e-4,-0.671797 -0.0684,-1.341849 -0.20312,-2 z m 0,4 -4.57226,7.921875 c 0.36741,0.04653 0.73712,0.07261 1.10742,0.07813 2.44281,-0.0029 4.80009,-0.899781 6.62695,-2.521484 z m -12.61914,2 c 1.13593,2.588453 3.3143,4.575235 5.9961,5.46875 L 432,73 Z"
       style="fill:#000000;opacity:0.2"
       id="path2525" />
    <path
       id="path2490"
       style="fill:#ffffff"
       d="m 432,58 c -2.44281,0.0029 -4.80009,0.899781 -6.62695,2.521484 L 428.53516,66 433.11523,58.064453 C 432.74498,58.022206 432.37265,58.000688 432,58 Z m 3.16602,0.517578 L 432,64 h 9.16211 c -1.13281,-2.593652 -3.31162,-4.58581 -5.99609,-5.482422 z M 423.9668,62.087891 C 422.69832,63.798853 422.00926,65.870131 422,68 c 0.008,0.67259 0.084,1.34265 0.22656,2 h 6.3086 z M 435.46484,66 440.0332,73.912109 C 441.30168,72.201147 441.99074,70.129869 442,68 c -3.6e-4,-0.671797 -0.0684,-1.341849 -0.20312,-2 z m 0,4 -4.57226,7.921875 c 0.36741,0.04653 0.73712,0.07261 1.10742,0.07813 2.44281,-0.0029 4.80009,-0.899781 6.62695,-2.521484 z m -12.61914,2 c 1.13593,2.588453 3.3143,4.575235 5.9961,5.46875 L 432,72 Z" />
  </g>
  <g
     id="g2603">
    <path
       d="m 312,230.00002 c -3.66421,0.005 -7.20013,1.34967 -9.94042,3.78222 l 4.74317,8.21778 6.8701,-11.90332 C 313.11748,230.0334 312.55897,230.001 312,230 Z m 4.74903,0.77637 L 312,239.00002 h 13.74318 c -1.69923,-3.89047 -4.96744,-6.87871 -8.99415,-8.22363 z m -16.79883,5.35547 c -1.90271,2.56644 -2.93631,5.67336 -2.9502,8.86817 0.012,1.00888 0.126,2.01397 0.33984,3 h 9.4629 z m 17.24706,5.86817 6.85254,11.86816 c 1.90272,-2.56644 2.93631,-5.67336 2.9502,-8.86816 -5.4e-4,-1.0077 -0.1026,-2.01278 -0.30468,-3 z m 0,6 -6.85839,11.8828 c 0.55113,0.0697 1.10568,0.1089 1.66113,0.11715 3.66422,-0.005 7.20014,-1.34967 9.94043,-3.78222 z m -18.92871,3 c 1.70389,3.88267 4.97145,6.86284 8.99415,8.20312 L 312,251.00003 Z"
       style="fill:#000000;stroke-width:1.5;opacity:0.2"
       id="path2581" />
    <path
       d="m 312,229.00003 c -3.66421,0.005 -7.20014,1.34967 -9.94043,3.78222 l 4.74317,8.21778 6.8701,-11.90332 c -0.55537,-0.0633 -1.11387,-0.0957 -1.67284,-0.0967 z m 4.74903,0.77637 L 312,238.00003 h 13.74317 c -1.69922,-3.89047 -4.96744,-6.87871 -8.99414,-8.22363 z m -16.79883,5.35547 c -1.90272,2.56644 -2.93631,5.67336 -2.9502,8.86817 0.012,1.00888 0.126,2.01397 0.33984,3 h 9.4629 z m 17.24706,5.86817 6.85254,11.86816 c 1.90272,-2.56644 2.93631,-5.67336 2.9502,-8.86816 -5.4e-4,-1.0077 -0.1026,-2.01278 -0.30468,-3 z m 0,6 -6.85839,11.8828 c 0.55112,0.0697 1.10568,0.1089 1.66113,0.11715 3.66422,-0.005 7.20014,-1.34967 9.94043,-3.78222 z m -18.92871,3 c 1.70389,3.88267 4.97145,6.86284 8.99415,8.20312 L 312,250.00004 Z"
       style="fill:#ffffff;stroke-width:1.5"
       id="path2553" />
  </g>
  <g
     id="g2787">
    <path
       d="m 320,153 c -4.88562,0.006 -9.60018,1.79957 -13.2539,5.04296 L 313.07032,169 l 9.16014,-15.8711 c -0.7405,-0.0844 -1.48516,-0.1276 -2.23046,-0.1288 z m 6.33204,1.03516 L 320,165 h 18.32422 c -2.26562,-5.1873 -6.62324,-9.17161 -11.99218,-10.96484 z m -22.39844,7.14063 C 301.39664,164.59771 300.01852,168.74027 300,173 c 0.016,1.34519 0.168,2.68531 0.45312,4 h 12.6172 z M 326.92968,169 336.0664,184.82422 C 338.60336,181.4023 339.98148,177.25974 340,173 c -7.2e-4,-1.3436 -0.1368,-2.6837 -0.40624,-4 z m 0,8 -9.14452,15.84374 c 0.73482,0.093 1.47424,0.1452 2.21484,0.15621 4.88562,-0.006 9.60018,-1.79957 13.2539,-5.04296 z m -25.23828,4 c 2.27186,5.1769 6.6286,9.15046 11.9922,10.9375 L 320,181 Z"
       style="opacity:0.2;fill:#000000;stroke-width:2"
       id="path2645" />
    <path
       d="m 320,152 c -4.88562,0.006 -9.60018,1.79956 -13.2539,5.04296 L 313.07032,168 l 9.16014,-15.8711 c -0.7405,-0.0844 -1.48516,-0.1276 -2.23046,-0.1288 z m 6.33204,1.03516 L 320,164 h 18.32422 c -2.26562,-5.1873 -6.62324,-9.17162 -11.99218,-10.96484 z m -22.39844,7.14062 C 301.39664,163.5977 300.01852,167.74026 300,172 c 0.016,1.34518 0.168,2.6853 0.45312,4 h 12.6172 z M 326.92968,168 336.0664,183.82422 C 338.60336,180.4023 339.98148,176.25974 340,172 c -7.2e-4,-1.3436 -0.1368,-2.6837 -0.40624,-4 z m 0,8 -9.14452,15.84374 c 0.73482,0.093 1.47424,0.1452 2.21484,0.1562 4.88562,-0.006 9.60018,-1.79956 13.2539,-5.04296 z m -25.23828,4 c 2.27186,5.1769 6.6286,9.15046 11.9922,10.9375 L 320,180 Z"
       style="fill:#ffffff;stroke-width:2"
       id="path2617" />
  </g>
  <g
     id="g2723">
    <path
       d="m 336,47.00004 c -7.32842,0.01 -14.40028,2.69934 -19.88086,7.56444 l 9.48634,16.435562 13.7402,-23.806642 C 338.23494,47.0668 337.11794,47.002 336,47 Z m 9.49806,1.55274 L 336,65.000042 h 27.48634 C 360.0879,57.219102 353.55146,51.24262 345.49806,48.55278 Z M 311.9004,59.263722 c -3.80544,5.13288 -5.87262,11.34672 -5.9004,17.73634 0.024,2.01776 0.252,4.02794 0.67968,6 h 18.9258 z m 34.49412,11.73634 13.70508,23.73632 c 3.80544,-5.13288 5.87262,-11.34672 5.9004,-17.73632 -10e-4,-2.0154 -0.2052,-4.02556 -0.60936,-6 z m 0,12 -13.71678,23.765598 c 1.10224,0.1394 2.21136,0.2178 3.32226,0.2343 7.32844,-0.01 14.40028,-2.69934 19.88086,-7.564438 z m -37.85742,6 c 3.40778,7.76534 9.9429,13.725678 17.9883,16.406238 L 336,89.000062 Z"
       style="fill:#000000;stroke-width:3;opacity:0.2"
       id="path2701" />
    <path
       d="m 336,46.00004 c -7.32842,0.01 -14.40028,2.69934 -19.88086,7.56444 l 9.48634,16.43556 13.7402,-23.80664 C 338.23494,46.0668 337.11794,46.002 336,46 Z m 9.49806,1.55274 L 336,64.00004 h 27.48634 C 360.0879,56.2191 353.55146,50.24262 345.49806,47.55278 Z M 311.9004,58.26372 c -3.80544,5.13288 -5.87262,11.34672 -5.9004,17.73634 0.024,2.01776 0.252,4.02794 0.67968,6 h 18.9258 z m 34.49412,11.73634 13.70508,23.73632 c 3.80544,-5.13288 5.87262,-11.34672 5.9004,-17.73632 -10e-4,-2.0154 -0.2052,-4.02556 -0.60936,-6 z m 0,12 -13.71678,23.7656 c 1.10224,0.1394 2.21136,0.2178 3.32226,0.2343 7.32844,-0.01 14.40028,-2.69934 19.88086,-7.56444 z m -37.85742,6 c 3.40778,7.76534 9.9429,13.72568 17.9883,16.40624 L 336,88.00006 Z"
       style="fill:#ffffff;stroke-width:3"
       id="path2673" />
  </g>
  <g
     id="g2783"
     transform="translate(-236,-76)">
    <path
       d="m 380,154 c -19.54248,0.024 -38.40072,7.19828 -53.0156,20.17184 L 352.28128,218 388.92184,154.5156 c -2.962,-0.3376 -5.94064,-0.5104 -8.92184,-0.5152 z m 25.32816,4.14064 L 380,202 h 73.29688 C 444.2344,181.2508 426.80392,165.31356 405.32816,158.14064 Z M 315.7344,186.70316 C 305.58656,200.39084 300.07408,216.96108 300,234 c 0.064,5.38076 0.672,10.74124 1.81248,16 h 50.4688 z M 407.71872,218 444.2656,281.29688 C 454.41344,267.6092 459.92592,251.03896 460,234 c -0.003,-5.3744 -0.5472,-10.7348 -1.62496,-16 z m 0,32 -36.57808,63.37496 c 2.93928,0.372 5.89696,0.5808 8.85936,0.62484 19.54248,-0.024 38.40072,-7.19828 53.0156,-20.17184 z M 306.7656,266 c 9.08744,20.7076 26.5144,36.60184 47.9688,43.75 L 380,266 Z"
       style="opacity:0.2;fill:#000000;stroke-width:8"
       id="path2761" />
    <path
       d="m 380,152 c -19.54248,0.024 -38.40072,7.19824 -53.0156,20.17184 L 352.28128,216 388.92184,152.5156 c -2.962,-0.3376 -5.94064,-0.5104 -8.92184,-0.5152 z m 25.32816,4.14064 L 380,200 h 73.29688 C 444.2344,179.2508 426.80392,163.31352 405.32816,156.14064 Z M 315.7344,184.70312 C 305.58656,198.3908 300.07408,214.96104 300,232 c 0.064,5.38072 0.672,10.7412 1.81248,16 h 50.4688 z M 407.71872,216 444.2656,279.29688 C 454.41344,265.6092 459.92592,249.03896 460,232 c -0.003,-5.3744 -0.5472,-10.7348 -1.62496,-16 z m 0,32 -36.57808,63.37496 c 2.93928,0.372 5.89696,0.5808 8.85936,0.6248 19.54248,-0.024 38.40072,-7.19824 53.0156,-20.17184 z M 306.7656,264 c 9.08744,20.7076 26.5144,36.60184 47.9688,43.75 L 380,264 Z"
       style="fill:#ffffff;stroke-width:8"
       id="path2733" />
  </g>
  <g
     id="Highlights">
    <path
       id="rect653"
       style="opacity:0.2;fill:#ffffff"
       d="M 80,44 C 53.408027,44 32,65.408027 32,92 v 2 C 32,67.408027 53.408027,46 80,46 h 128 c 26.59197,0 48,21.408027 48,48 V 92 C 256,65.408027 234.59197,44 208,44 Z"
       sodipodi:nodetypes="sscsscsss" />
    <path
       id="rect773"
       style="opacity:0.2;fill:#ffffff"
       d="m 312,34 c -9.97199,0 -18,8.02801 -18,18 v 1 c 0,-9.97199 8.02801,-18 18,-18 h 48 c 9.97199,0 18,8.02801 18,18 v -1 c 0,-9.97199 -8.02801,-18 -18,-18 z" />
    <path
       id="rect1135"
       style="opacity:0.2;fill:#ffffff;fill-opacity:1"
       d="m 304,144 c -6.64799,0 -12,5.35201 -12,12 v 1 c 0,-6.64799 5.35201,-12 12,-12 h 32 c 6.64799,0 12,5.35201 12,12 v -1 c 0,-6.64799 -5.35201,-12 -12,-12 z" />
    <path
       id="rect1265"
       style="opacity:0.2;fill:#ffffff;fill-opacity:1"
       d="m 300,223 c -4.986,0 -9,4.014 -9,9 v 1 c 0,-4.986 4.014,-9 9,-9 h 24 c 4.986,0 9,4.014 9,9 v -1 c 0,-4.986 -4.014,-9 -9,-9 z" />
    <path
       id="rect1368"
       style="opacity:0.2;fill:#ffffff;fill-opacity:1"
       d="m 424,54 c -3.324,0 -6,2.676003 -6,6 v 1 c 0,-3.323997 2.676,-6 6,-6 h 16 c 3.324,0 6,2.676003 6,6 v -1 c 0,-3.323997 -2.676,-6 -6,-6 z" />
    <path
       id="rect1402"
       style="opacity:0.2;fill:#ffffff;fill-opacity:1"
       d="m 420,140 c -2.216,0 -4,1.784 -4,4 v 1 c 0,-2.216 1.784,-4 4,-4 h 8 c 2.216,0 4,1.784 4,4 v -1 c 0,-2.216 -1.784,-4 -4,-4 z" />
    <path
       id="rect1436"
       style="opacity:0.2;fill:#ffffff;fill-opacity:1"
       d="m 422,102 c -2.216,0 -4,1.784 -4,4 v 1 c 0,-2.216 1.784,-4 4,-4 h 12 c 2.216,0 4,1.784 4,4 v -1 c 0,-2.216 -1.784,-4 -4,-4 z" />
  </g>
</svg>
