<?xml version="1.0" encoding="UTF-8" standalone="no"?>
<!-- Created with Inkscape (http://www.inkscape.org/) -->

<svg
   width="480"
   height="300"
   viewBox="0 0 480 300"
   version="1.1"
   id="svg5"
   inkscape:version="1.2.2 (1:1.2.2+202305151914+b0a8486541)"
   sodipodi:docname="gnome-robots.svg"
   xmlns:inkscape="http://www.inkscape.org/namespaces/inkscape"
   xmlns:sodipodi="http://sodipodi.sourceforge.net/DTD/sodipodi-0.dtd"
   xmlns="http://www.w3.org/2000/svg"
   xmlns:svg="http://www.w3.org/2000/svg">
  <sodipodi:namedview
     id="namedview7"
     pagecolor="#888888"
     bordercolor="#000000"
     borderopacity="0.25"
     inkscape:showpageshadow="true"
     inkscape:pageopacity="0"
     inkscape:pagecheckerboard="0"
     inkscape:deskcolor="#888888"
     inkscape:document-units="px"
     showgrid="false"
     showborder="false"
     inkscape:zoom="2.6866667"
     inkscape:cx="240.07444"
     inkscape:cy="150"
     inkscape:window-width="1920"
     inkscape:window-height="1008"
     inkscape:window-x="0"
     inkscape:window-y="0"
     inkscape:window-maximized="1"
     inkscape:current-layer="g1849" />
  <defs
     id="defs2" />
  <g
     id="Baseplate"
     style="display:none">
    <text
       y="19.774782"
       xml:space="preserve"
       x="15.006946"
       style="font-style:normal;font-variant:normal;font-weight:normal;font-stretch:normal;line-height:0%;font-family:'DejaVu Sans';-inkscape-font-specification:'DejaVu Sans';display:inline;fill:#000000;fill-opacity:1;stroke:none;enable-background:new"
       inkscape:label="context"
       id="context"><tspan
         style="font-style:normal;font-variant:normal;font-weight:normal;font-stretch:normal;font-size:18px;line-height:1.25;font-family:'DejaVu Sans';-inkscape-font-specification:'DejaVu Sans'"
         y="19.774782"
         x="15.006946"
         sodipodi:role="line"
         id="tspan3933">apps</tspan></text>
    <text
       y="19.774782"
       xml:space="preserve"
       x="122.48839"
       style="font-style:normal;font-variant:normal;font-weight:bold;font-stretch:normal;line-height:0%;font-family:'DejaVu Sans';-inkscape-font-specification:'DejaVu Sans Bold';text-align:start;writing-mode:lr-tb;text-anchor:start;display:inline;fill:#000000;fill-opacity:1;stroke:none;enable-background:new"
       inkscape:label="icon-name"
       id="icon-name"><tspan
         style="font-style:normal;font-variant:normal;font-weight:bold;font-stretch:normal;font-size:18px;line-height:1.25;font-family:'DejaVu Sans';-inkscape-font-specification:'DejaVu Sans Bold'"
         y="19.774782"
         x="122.48839"
         sodipodi:role="line"
         id="tspan3937">gnome-robots</tspan></text>
    <rect
       style="fill:#ffffff"
       id="256x256"
       width="256"
       height="256"
       x="16"
       y="28" />
    <rect
       style="fill:#ffffff"
       id="96x96"
       width="96"
       height="96"
       x="288"
       y="28" />
    <rect
       style="fill:#ffffff"
       id="64x64"
       width="64"
       height="64"
       x="288"
       y="140" />
    <rect
       style="fill:#ffffff"
       id="48x48"
       width="48"
       height="48"
       x="288"
       y="220" />
    <rect
       style="fill:#ffffff"
       id="32x32"
       width="32"
       height="32"
       x="416"
       y="52" />
    <rect
       style="fill:#ffffff"
       id="24x24"
       width="24"
       height="24"
       x="416"
       y="100" />
    <rect
       style="fill:#ffffff"
       id="22x22"
       width="22"
       height="22"
       x="417"
       y="101" />
    <rect
       style="fill:#ffffff"
       id="16x16"
       width="16"
       height="16"
       x="416"
       y="140" />
  </g>
  <g
     id="Shadow">
    <rect
       style="opacity:0.2;fill:#000000"
       id="rect651"
       width="224"
       height="224"
       x="32"
       y="46"
       ry="48" />
    <rect
       style="opacity:0.2;fill:#000000"
       id="rect769"
       width="84"
       height="85"
       x="294"
       y="34"
       ry="18" />
    <rect
       style="opacity:0.2;fill:#000000;fill-opacity:1"
       id="rect1131"
       width="56"
       height="56"
       x="292"
       y="145"
       ry="12" />
    <rect
       style="opacity:0.2;fill:#000000;fill-opacity:1"
       id="rect1261"
       width="42"
       height="42"
       x="291"
       y="224"
       ry="9" />
    <rect
       style="opacity:0.2;fill:#000000;fill-opacity:1"
       id="rect1364"
       width="28"
       height="29"
       x="418"
       y="54"
       ry="6" />
    <rect
       style="opacity:0.2;fill:#000000;fill-opacity:1"
       id="rect1398"
       width="16"
       height="16"
       x="416"
       y="141"
       ry="4" />
    <rect
       style="opacity:0.2;fill:#000000;fill-opacity:1"
       id="rect1432"
       width="20"
       height="20"
       x="418"
       y="103"
       ry="4" />
  </g>
  <g
     id="Background">
    <rect
       style="fill:#e4e4e4;fill-opacity:1"
       id="rect597"
       width="224"
       height="224"
       x="32"
       y="44"
       ry="48" />
    <rect
       style="opacity:1;fill:#e4e4e4;fill-opacity:1"
       id="rect771"
       width="84"
       height="84"
       x="294"
       y="34"
       ry="18" />
    <rect
       style="opacity:1;fill:#e4e4e4;fill-opacity:1"
       id="rect1133"
       width="56"
       height="56"
       x="292"
       y="144"
       ry="12" />
    <rect
       style="opacity:1;fill:#e4e4e4;fill-opacity:1"
       id="rect1263"
       width="42"
       height="42"
       x="291"
       y="223"
       ry="9" />
    <rect
       style="opacity:1;fill:#e4e4e4;fill-opacity:1"
       id="rect1366"
       width="28"
       height="28"
       x="418"
       y="54"
       ry="6" />
    <rect
       style="opacity:1;fill:#e4e4e4;fill-opacity:1"
       id="rect1400"
       width="16"
       height="16"
       x="416"
       y="140"
       ry="4" />
    <rect
       style="opacity:1;fill:#e4e4e4;fill-opacity:1"
       id="rect1434"
       width="20"
       height="20"
       x="418"
       y="102"
       ry="4" />
  </g>
  <g
     id="g1849">
    <g
       id="g1841">
      <rect
         style="opacity:1;fill:#4f4f4f;fill-opacity:1;stroke-width:2;stroke-linecap:square"
         id="rect876"
         width="16"
         height="6"
         x="416"
         y="145" />
      <path
         d="m 419,146.5 c -1.10457,0 -2,0.89543 -2,2 0,1.10457 0.89543,2 2,2 1.10457,0 2,-0.89543 2,-2 0,-1.10457 -0.89543,-2 -2,-2 z m 5,0 c -1.10457,0 -2,0.89543 -2,2 0,1.10457 0.89543,2 2,2 1.10457,0 2,-0.89543 2,-2 0,-1.10457 -0.89543,-2 -2,-2 z m 5,0 c -1.10457,0 -2,0.89543 -2,2 0,1.10457 0.89543,2 2,2 1.10457,0 2,-0.89543 2,-2 0,-1.10457 -0.89543,-2 -2,-2 z"
         style="fill:#000000;fill-opacity:1;stroke-width:2;stroke-linecap:square;opacity:0.2"
         id="path1816" />
      <path
         id="path930"
         style="opacity:1;fill:#ff6363;fill-opacity:1;stroke-width:2;stroke-linecap:square"
         d="m 419,146 c -1.10457,0 -2,0.89543 -2,2 0,1.10457 0.89543,2 2,2 1.10457,0 2,-0.89543 2,-2 0,-1.10457 -0.89543,-2 -2,-2 z m 5,0 c -1.10457,0 -2,0.89543 -2,2 0,1.10457 0.89543,2 2,2 1.10457,0 2,-0.89543 2,-2 0,-1.10457 -0.89543,-2 -2,-2 z m 5,0 c -1.10457,0 -2,0.89543 -2,2 0,1.10457 0.89543,2 2,2 1.10457,0 2,-0.89543 2,-2 0,-1.10457 -0.89543,-2 -2,-2 z"
         sodipodi:nodetypes="sssssssssssssss" />
      <rect
         style="opacity:0.2;fill:#000000;fill-opacity:1;stroke-width:2;stroke-linecap:square"
         id="rect1510"
         width="16"
         height="0.5"
         x="416"
         y="145" />
      <rect
         style="opacity:0.2;fill:#ffffff;fill-opacity:1;stroke-width:2;stroke-linecap:square"
         id="rect1564"
         width="16"
         height="0.5"
         x="416"
         y="151" />
    </g>
    <g
       id="g2592">
      <rect
         style="opacity:1;fill:#4f4f4f;fill-opacity:1;stroke-width:2;stroke-linecap:square"
         id="rect2197"
         width="20"
         height="6"
         x="418"
         y="109" />
      <path
         d="m 422,110.5 c -1.10457,0 -2,0.89544 -2,2 0,1.10457 0.89543,2 2,2 1.10457,0 2,-0.89543 2,-2 0,-1.10456 -0.89543,-2 -2,-2 z m 6,0 c -1.10457,0 -2,0.89544 -2,2 0,1.10457 0.89543,2 2,2 1.10457,0 2,-0.89543 2,-2 0,-1.10456 -0.89543,-2 -2,-2 z m 6,0 c -1.10457,0 -2,0.89544 -2,2 0,1.10457 0.89543,2 2,2 1.10457,0 2,-0.89543 2,-2 0,-1.10456 -0.89543,-2 -2,-2 z"
         style="fill:#000000;fill-opacity:1;stroke-width:2;stroke-linecap:square;opacity:0.2"
         id="path2567" />
      <path
         d="m 422,110 c -1.10457,0 -2,0.89543 -2,2 0,1.10457 0.89543,2 2,2 1.10457,0 2,-0.89543 2,-2 0,-1.10457 -0.89543,-2 -2,-2 z m 6,0 c -1.10457,0 -2,0.89543 -2,2 0,1.10457 0.89543,2 2,2 1.10457,0 2,-0.89543 2,-2 0,-1.10457 -0.89543,-2 -2,-2 z m 6,0 c -1.10457,0 -2,0.89543 -2,2 0,1.10457 0.89543,2 2,2 1.10457,0 2,-0.89543 2,-2 0,-1.10457 -0.89543,-2 -2,-2 z"
         style="fill:#ff6363;fill-opacity:1;stroke-width:2;stroke-linecap:square"
         id="path2539"
         sodipodi:nodetypes="sssssssssssssss" />
      <rect
         style="opacity:0.2;fill:#000000;fill-opacity:1;stroke-width:2;stroke-linecap:square"
         id="rect2527"
         width="20"
         height="0.5"
         x="418"
         y="109" />
      <rect
         style="opacity:0.2;fill:#ffffff;fill-opacity:1;stroke-width:2;stroke-linecap:square"
         id="rect2529"
         width="20"
         height="0.5"
         x="418"
         y="115" />
    </g>
    <g
       id="g3487">
      <rect
         style="opacity:1;fill:#4f4f4f;fill-opacity:1;stroke-width:2;stroke-linecap:square"
         id="rect2839"
         width="28"
         height="10"
         x="418"
         y="63" />
      <path
         d="m 423,66 c -1.65685,0 -3,1.343146 -3,3 0,1.656854 1.34315,3 3,3 1.65685,0 3,-1.343146 3,-3 0,-1.656854 -1.34315,-3 -3,-3 z m 9,0 c -1.65685,0 -3,1.343146 -3,3 0,1.656854 1.34315,3 3,3 1.65685,0 3,-1.343146 3,-3 0,-1.656854 -1.34315,-3 -3,-3 z m 9,0 c -1.65685,0 -3,1.343146 -3,3 0,1.656854 1.34315,3 3,3 1.65685,0 3,-1.343146 3,-3 0,-1.656854 -1.34315,-3 -3,-3 z"
         style="opacity:0.2;fill:#000000;fill-opacity:1;stroke-width:2;stroke-linecap:square"
         id="path3324"
         sodipodi:nodetypes="sssssssssssssss" />
      <path
         id="path2914"
         style="opacity:1;fill:#ff6363;fill-opacity:1;stroke-width:2;stroke-linecap:square"
         d="m 423,65 c -1.65685,0 -3,1.343146 -3,3 0,1.656854 1.34315,3 3,3 1.65685,0 3,-1.343146 3,-3 0,-1.656854 -1.34315,-3 -3,-3 z m 9,0 c -1.65685,0 -3,1.343146 -3,3 0,1.656854 1.34315,3 3,3 1.65685,0 3,-1.343146 3,-3 0,-1.656854 -1.34315,-3 -3,-3 z m 9,0 c -1.65685,0 -3,1.343146 -3,3 0,1.656854 1.34315,3 3,3 1.65685,0 3,-1.343146 3,-3 0,-1.656854 -1.34315,-3 -3,-3 z"
         sodipodi:nodetypes="sssssssssssssss" />
      <rect
         style="opacity:0.2;fill:#000000;fill-opacity:1;stroke-width:2;stroke-linecap:square"
         id="rect2912"
         width="28"
         height="1"
         x="418"
         y="63" />
      <rect
         style="opacity:0.2;fill:#ffffff;fill-opacity:1;stroke-width:2;stroke-linecap:square"
         id="rect2910"
         width="28"
         height="1"
         x="418"
         y="73" />
    </g>
    <g
       id="g4004">
      <rect
         style="opacity:1;fill:#4f4f4f;fill-opacity:1;stroke-width:1.73205;stroke-linecap:square"
         id="rect3489"
         width="42"
         height="14"
         x="291"
         y="237" />
      <path
         d="m 299,240 c -2.76141,0 -5,2.23858 -5,5 0,2.76142 2.23859,5 5,5 2.76144,0 5,-2.23858 5,-5 0,-2.76142 -2.23856,-5 -5,-5 z m 13.25,0 c -2.76141,0 -5,2.23858 -5,5 0,2.76142 2.23859,5 5,5 2.76144,0 5,-2.23858 5,-5 0,-2.76142 -2.23856,-5 -5,-5 z m 12.75,0 c -2.76141,0 -5,2.23858 -5,5 0,2.76142 2.23859,5 5,5 2.76144,0 5,-2.23858 5,-5 0,-2.76142 -2.23856,-5 -5,-5 z"
         style="opacity:0.2;fill:#000000;fill-opacity:1;stroke-width:2.5;stroke-linecap:square"
         id="path3975"
         sodipodi:nodetypes="sssssssssssssss" />
      <path
         id="path3910"
         style="opacity:1;fill:#ff6363;fill-opacity:1;stroke-width:2.5;stroke-linecap:square"
         d="m 299,239 c -2.76142,0 -5,2.23858 -5,5 0,2.76142 2.23858,5 5,5 2.76142,0 5,-2.23858 5,-5 0,-2.76142 -2.23858,-5 -5,-5 z m 13.25,0 c -2.76142,0 -5,2.23858 -5,5 0,2.76142 2.23858,5 5,5 2.76142,0 5,-2.23858 5,-5 0,-2.76142 -2.23858,-5 -5,-5 z m 12.75,0 c -2.76142,0 -5,2.23858 -5,5 0,2.76142 2.23858,5 5,5 2.76142,0 5,-2.23858 5,-5 0,-2.76142 -2.23858,-5 -5,-5 z"
         sodipodi:nodetypes="sssssssssssssss" />
      <rect
         style="opacity:0.2;fill:#000000;fill-opacity:1;stroke-width:2;stroke-linecap:square"
         id="rect3995"
         width="42"
         height="1"
         x="291"
         y="237" />
      <rect
         style="opacity:0.2;fill:#ffffff;fill-opacity:1;stroke-width:2;stroke-linecap:square"
         id="rect3997"
         width="42"
         height="1"
         x="291"
         y="251" />
    </g>
    <g
       id="g3480"
       transform="matrix(2,0,0,2,-544,36)">
      <rect
         style="opacity:1;fill:#4f4f4f;fill-opacity:1;stroke-width:2;stroke-linecap:square"
         id="rect3359"
         width="28"
         height="10"
         x="418"
         y="63" />
      <path
         d="m 423,65.5 c -1.65685,0 -3,1.343146 -3,3 0,1.656854 1.34315,3 3,3 1.65685,0 3,-1.343146 3,-3 0,-1.656854 -1.34315,-3 -3,-3 z m 9,0 c -1.65685,0 -3,1.343146 -3,3 0,1.656854 1.34315,3 3,3 1.65685,0 3,-1.343146 3,-3 0,-1.656854 -1.34315,-3 -3,-3 z m 9,0 c -1.65685,0 -3,1.343146 -3,3 0,1.656854 1.34315,3 3,3 1.65685,0 3,-1.343146 3,-3 0,-1.656854 -1.34315,-3 -3,-3 z"
         style="opacity:0.2;fill:#000000;fill-opacity:1;stroke-width:2;stroke-linecap:square"
         id="path3455" />
      <path
         d="m 423,65 c -1.65685,0 -3,1.343146 -3,3 0,1.656854 1.34315,3 3,3 1.65685,0 3,-1.343146 3,-3 0,-1.656854 -1.34315,-3 -3,-3 z m 9,0 c -1.65685,0 -3,1.343146 -3,3 0,1.656854 1.34315,3 3,3 1.65685,0 3,-1.343146 3,-3 0,-1.656854 -1.34315,-3 -3,-3 z m 9,0 c -1.65685,0 -3,1.343146 -3,3 0,1.656854 1.34315,3 3,3 1.65685,0 3,-1.343146 3,-3 0,-1.656854 -1.34315,-3 -3,-3 z"
         style="fill:#ff6363;fill-opacity:1;stroke-width:2;stroke-linecap:square"
         id="path3352"
         sodipodi:nodetypes="sssssssssssssss" />
      <rect
         style="opacity:0.2;fill:#ffffff;fill-opacity:1;stroke-width:2;stroke-linecap:square"
         id="rect3430"
         width="28"
         height="0.5"
         x="418"
         y="73" />
      <rect
         style="opacity:0.2;fill:#000000;fill-opacity:1;stroke-width:2;stroke-linecap:square"
         id="rect3432"
         width="28"
         height="0.5"
         x="418"
         y="63" />
    </g>
    <g
       id="g4603"
       transform="matrix(1.5,0,0,1.5,-144,-182)">
      <rect
         style="opacity:1;fill:#4f4f4f;fill-opacity:1;stroke-width:2;stroke-linecap:square"
         id="rect4364"
         width="56"
         height="20"
         x="292"
         y="162" />
      <path
         d="m 302,166.66667 c -3.31371,0 -6,2.68627 -6,6 0,3.31371 2.68629,6 6,6 3.3137,0 6,-2.68629 6,-6 0,-3.31373 -2.6863,-6 -6,-6 z m 18,0 c -3.31371,0 -6,2.68627 -6,6 0,3.31371 2.68629,6 6,6 3.3137,0 6,-2.68629 6,-6 0,-3.31373 -2.6863,-6 -6,-6 z m 18,0 c -3.31371,0 -6,2.68627 -6,6 0,3.31371 2.68629,6 6,6 3.3137,0 6,-2.68629 6,-6 0,-3.31373 -2.6863,-6 -6,-6 z"
         style="fill:#000000;fill-opacity:1;stroke-width:1.33333;stroke-linecap:square;opacity:0.2"
         id="path4613" />
      <path
         d="m 302,166 c -3.3137,0 -6,2.68629 -6,6 0,3.31371 2.6863,6 6,6 3.3137,0 6,-2.68629 6,-6 0,-3.31371 -2.6863,-6 -6,-6 z m 18,0 c -3.3137,0 -6,2.68629 -6,6 0,3.31371 2.6863,6 6,6 3.3137,0 6,-2.68629 6,-6 0,-3.31371 -2.6863,-6 -6,-6 z m 18,0 c -3.3137,0 -6,2.68629 -6,6 0,3.31371 2.6863,6 6,6 3.3137,0 6,-2.68629 6,-6 0,-3.31371 -2.6863,-6 -6,-6 z"
         style="fill:#ff6363;fill-opacity:1;stroke-width:2;stroke-linecap:square"
         id="path4581"
         sodipodi:nodetypes="sssssssssssssss" />
      <rect
         style="opacity:0.2;fill:#000000;fill-opacity:1;stroke-width:1.33333;stroke-linecap:square"
         id="rect4633"
         width="56"
         height="0.66666669"
         x="292"
         y="162" />
      <rect
         style="opacity:0.2;fill:#ffffff;fill-opacity:1;stroke-width:1.33333;stroke-linecap:square"
         id="rect4635"
         width="56"
         height="0.66666669"
         x="292"
         y="182" />
    </g>
    <g
       id="g4358"
       transform="matrix(4,0,0,4,-1136,-532)">
      <rect
         style="opacity:1;fill:#4f4f4f;fill-opacity:1;stroke-width:2;stroke-linecap:square"
         id="rect4055"
         width="56"
         height="20"
         x="292"
         y="162" />
      <path
         d="m 302,166.5 c -3.31371,0 -6,2.68629 -6,6 0,3.31371 2.68629,6 6,6 3.31371,0 6,-2.68629 6,-6 0,-3.31371 -2.68629,-6 -6,-6 z m 18,0 c -3.31371,0 -6,2.68629 -6,6 0,3.31371 2.68629,6 6,6 3.31371,0 6,-2.68629 6,-6 0,-3.31371 -2.68629,-6 -6,-6 z m 18,0 c -3.31371,0 -6,2.68629 -6,6 0,3.31371 2.68629,6 6,6 3.31371,0 6,-2.68629 6,-6 0,-3.31371 -2.68629,-6 -6,-6 z"
         style="opacity:0.2;fill:#000000;fill-opacity:1;stroke-width:2;stroke-linecap:square"
         id="path4329" />
      <path
         id="path4126"
         style="opacity:1;fill:#ff6363;fill-opacity:1;stroke-width:2;stroke-linecap:square"
         d="m 302,166 c -3.31371,0 -6,2.68629 -6,6 0,3.31371 2.68629,6 6,6 3.31371,0 6,-2.68629 6,-6 0,-3.31371 -2.68629,-6 -6,-6 z m 18,0 c -3.31371,0 -6,2.68629 -6,6 0,3.31371 2.68629,6 6,6 3.31371,0 6,-2.68629 6,-6 0,-3.31371 -2.68629,-6 -6,-6 z m 18,0 c -3.31371,0 -6,2.68629 -6,6 0,3.31371 2.68629,6 6,6 3.31371,0 6,-2.68629 6,-6 0,-3.31371 -2.68629,-6 -6,-6 z"
         sodipodi:nodetypes="sssssssssssssss" />
      <rect
         style="opacity:0.2;fill:#000000;fill-opacity:1;stroke-width:2;stroke-linecap:square"
         id="rect4349"
         width="56"
         height="0.5"
         x="292"
         y="162" />
      <rect
         style="opacity:0.2;fill:#ffffff;fill-opacity:1;stroke-width:2;stroke-linecap:square"
         id="rect4351"
         width="56"
         height="0.5"
         x="292"
         y="182" />
    </g>
  </g>
  <g
     id="Highlights">
    <path
       id="rect653"
       style="opacity:0.2;fill:#ffffff"
       d="M 80,44 C 53.408027,44 32,65.408027 32,92 v 2 C 32,67.408027 53.408027,46 80,46 h 128 c 26.59197,0 48,21.408027 48,48 V 92 C 256,65.408027 234.59197,44 208,44 Z"
       sodipodi:nodetypes="sscsscsss" />
    <path
       id="rect773"
       style="opacity:0.2;fill:#ffffff"
       d="m 312,34 c -9.97199,0 -18,8.02801 -18,18 v 1 c 0,-9.97199 8.02801,-18 18,-18 h 48 c 9.97199,0 18,8.02801 18,18 v -1 c 0,-9.97199 -8.02801,-18 -18,-18 z" />
    <path
       id="rect1135"
       style="opacity:0.2;fill:#ffffff;fill-opacity:1"
       d="m 304,144 c -6.64799,0 -12,5.35201 -12,12 v 1 c 0,-6.64799 5.35201,-12 12,-12 h 32 c 6.64799,0 12,5.35201 12,12 v -1 c 0,-6.64799 -5.35201,-12 -12,-12 z" />
    <path
       id="rect1265"
       style="opacity:0.2;fill:#ffffff;fill-opacity:1"
       d="m 300,223 c -4.986,0 -9,4.014 -9,9 v 1 c 0,-4.986 4.014,-9 9,-9 h 24 c 4.986,0 9,4.014 9,9 v -1 c 0,-4.986 -4.014,-9 -9,-9 z" />
    <path
       id="rect1368"
       style="opacity:0.2;fill:#ffffff;fill-opacity:1"
       d="m 424,54 c -3.324,0 -6,2.676003 -6,6 v 1 c 0,-3.323997 2.676,-6 6,-6 h 16 c 3.324,0 6,2.676003 6,6 v -1 c 0,-3.323997 -2.676,-6 -6,-6 z" />
    <path
       id="rect1402"
       style="opacity:0.2;fill:#ffffff;fill-opacity:1"
       d="m 420,140 c -2.216,0 -4,1.784 -4,4 v 1 c 0,-2.216 1.784,-4 4,-4 h 8 c 2.216,0 4,1.784 4,4 v -1 c 0,-2.216 -1.784,-4 -4,-4 z" />
    <path
       id="rect1436"
       style="opacity:0.2;fill:#ffffff;fill-opacity:1"
       d="m 422,102 c -2.216,0 -4,1.784 -4,4 v 1 c 0,-2.216 1.784,-4 4,-4 h 12 c 2.216,0 4,1.784 4,4 v -1 c 0,-2.216 -1.784,-4 -4,-4 z" />
  </g>
</svg>
