<?xml version="1.0" encoding="UTF-8" standalone="no"?>
<!-- Created with Inkscape (http://www.inkscape.org/) -->

<svg
   width="480"
   height="300"
   viewBox="0 0 480 300"
   version="1.1"
   id="svg5"
   inkscape:version="1.3 (1:1.3+202307231459+0e150ed6c4)"
   sodipodi:docname="gnome-power-statistics.svg"
   xmlns:inkscape="http://www.inkscape.org/namespaces/inkscape"
   xmlns:sodipodi="http://sodipodi.sourceforge.net/DTD/sodipodi-0.dtd"
   xmlns="http://www.w3.org/2000/svg"
   xmlns:svg="http://www.w3.org/2000/svg">
  <sodipodi:namedview
     id="namedview7"
     pagecolor="#888888"
     bordercolor="#000000"
     borderopacity="0.25"
     inkscape:showpageshadow="true"
     inkscape:pageopacity="0"
     inkscape:pagecheckerboard="0"
     inkscape:deskcolor="#888888"
     inkscape:document-units="px"
     showgrid="false"
     showborder="false"
     inkscape:zoom="2.29375"
     inkscape:cx="240"
     inkscape:cy="150.19074"
     inkscape:window-width="1920"
     inkscape:window-height="1008"
     inkscape:window-x="0"
     inkscape:window-y="0"
     inkscape:window-maximized="1"
     inkscape:current-layer="svg5" />
  <defs
     id="defs2">
    <mask
       maskUnits="userSpaceOnUse"
       id="mask7">
      <rect
         style="fill:#ffffff;fill-opacity:1;stroke-width:1"
         id="rect8"
         width="56"
         height="56"
         x="292"
         y="144"
         ry="12" />
    </mask>
    <mask
       maskUnits="userSpaceOnUse"
       id="mask8">
      <rect
         style="fill:#ffffff;fill-opacity:1"
         id="rect9"
         width="42"
         height="42"
         x="291"
         y="223"
         ry="9" />
    </mask>
    <mask
       maskUnits="userSpaceOnUse"
       id="mask9">
      <rect
         style="fill:#ffffff;fill-opacity:1"
         id="rect10"
         width="56"
         height="56"
         x="292"
         y="144"
         ry="12" />
    </mask>
    <mask
       maskUnits="userSpaceOnUse"
       id="mask8-0">
      <rect
         style="fill:#ffffff;fill-opacity:1"
         id="rect9-9"
         width="42"
         height="42"
         x="291"
         y="223"
         ry="9" />
    </mask>
    <mask
       maskUnits="userSpaceOnUse"
       id="mask11">
      <rect
         style="fill:#ffffff;fill-opacity:1"
         id="rect11"
         width="16"
         height="16"
         x="416"
         y="140"
         ry="4" />
    </mask>
    <mask
       maskUnits="userSpaceOnUse"
       id="mask9-5">
      <rect
         style="fill:#ffffff;fill-opacity:1"
         id="rect10-9"
         width="56"
         height="56"
         x="292"
         y="144"
         ry="12" />
    </mask>
    <mask
       maskUnits="userSpaceOnUse"
       id="mask13">
      <rect
         style="opacity:1;fill:#ffffff;fill-opacity:1;stroke-linecap:round;stroke-linejoin:round"
         id="rect14"
         width="20"
         height="20"
         x="418"
         y="102"
         ry="4" />
    </mask>
  </defs>
  <g
     id="Baseplate"
     style="display:none">
    <text
       y="19.774782"
       xml:space="preserve"
       x="15.006946"
       style="font-style:normal;font-variant:normal;font-weight:normal;font-stretch:normal;line-height:0%;font-family:'DejaVu Sans';-inkscape-font-specification:'DejaVu Sans';display:inline;fill:#000000;fill-opacity:1;stroke:none;enable-background:new"
       inkscape:label="context"
       id="context"><tspan
         style="font-style:normal;font-variant:normal;font-weight:normal;font-stretch:normal;font-size:18px;line-height:1.25;font-family:'DejaVu Sans';-inkscape-font-specification:'DejaVu Sans'"
         y="19.774782"
         x="15.006946"
         sodipodi:role="line"
         id="tspan3933">apps</tspan></text>
    <text
       y="19.774782"
       xml:space="preserve"
       x="122.48839"
       style="font-style:normal;font-variant:normal;font-weight:bold;font-stretch:normal;line-height:0%;font-family:'DejaVu Sans';-inkscape-font-specification:'DejaVu Sans Bold';text-align:start;writing-mode:lr-tb;text-anchor:start;display:inline;fill:#000000;fill-opacity:1;stroke:none;enable-background:new"
       inkscape:label="icon-name"
       id="icon-name"><tspan
         style="font-style:normal;font-variant:normal;font-weight:bold;font-stretch:normal;font-size:18px;line-height:1.25;font-family:'DejaVu Sans';-inkscape-font-specification:'DejaVu Sans Bold'"
         y="19.774782"
         x="122.48839"
         sodipodi:role="line"
         id="tspan3937">gnome-power-statistics</tspan></text>
    <rect
       style="fill:#ffffff"
       id="256x256"
       width="256"
       height="256"
       x="16"
       y="28" />
    <rect
       style="fill:#ffffff"
       id="96x96"
       width="96"
       height="96"
       x="288"
       y="28" />
    <rect
       style="fill:#ffffff"
       id="64x64"
       width="64"
       height="64"
       x="288"
       y="140" />
    <rect
       style="fill:#ffffff"
       id="48x48"
       width="48"
       height="48"
       x="288"
       y="220" />
    <rect
       style="fill:#ffffff"
       id="32x32"
       width="32"
       height="32"
       x="416"
       y="52" />
    <rect
       style="fill:#ffffff"
       id="24x24"
       width="24"
       height="24"
       x="416"
       y="100" />
    <rect
       style="fill:#ffffff"
       id="22x22"
       width="22"
       height="22"
       x="417"
       y="101" />
    <rect
       style="fill:#ffffff"
       id="16x16"
       width="16"
       height="16"
       x="416"
       y="140" />
  </g>
  <g
     id="Shadow">
    <rect
       style="opacity:0.2;fill:#000000"
       id="rect651"
       width="224"
       height="224"
       x="32"
       y="46"
       ry="48" />
    <rect
       style="opacity:0.2;fill:#000000"
       id="rect769"
       width="84"
       height="85"
       x="294"
       y="34"
       ry="18" />
    <rect
       style="opacity:0.2;fill:#000000;fill-opacity:1"
       id="rect1131"
       width="56"
       height="56"
       x="292"
       y="145"
       ry="12" />
    <rect
       style="opacity:0.2;fill:#000000;fill-opacity:1"
       id="rect1261"
       width="42"
       height="42"
       x="291"
       y="224"
       ry="9" />
    <rect
       style="opacity:0.2;fill:#000000;fill-opacity:1"
       id="rect1364"
       width="28"
       height="29"
       x="418"
       y="54"
       ry="6" />
    <rect
       style="opacity:0.2;fill:#000000;fill-opacity:1"
       id="rect1398"
       width="16"
       height="16"
       x="416"
       y="141"
       ry="4" />
    <rect
       style="opacity:0.2;fill:#000000;fill-opacity:1"
       id="rect1432"
       width="20"
       height="20"
       x="418"
       y="103"
       ry="4" />
  </g>
  <g
     id="Background">
    <rect
       style="fill:#fecd38;fill-opacity:1"
       id="rect597"
       width="224"
       height="224"
       x="32"
       y="44"
       ry="48" />
    <rect
       style="opacity:1;fill:#fecd38;fill-opacity:1"
       id="rect771"
       width="84"
       height="84"
       x="294"
       y="34"
       ry="18" />
    <rect
       style="opacity:1;fill:#fecd38;fill-opacity:1"
       id="rect1133"
       width="56"
       height="56"
       x="292"
       y="144"
       ry="12" />
    <rect
       style="opacity:1;fill:#fecd38;fill-opacity:1"
       id="rect1263"
       width="42"
       height="42"
       x="291"
       y="223"
       ry="9" />
    <rect
       style="opacity:1;fill:#fecd38;fill-opacity:1"
       id="rect1366"
       width="28"
       height="28"
       x="418"
       y="54"
       ry="6" />
    <rect
       style="opacity:1;fill:#fecd38;fill-opacity:1"
       id="rect1400"
       width="16"
       height="16"
       x="416"
       y="140"
       ry="4" />
    <rect
       style="opacity:1;fill:#fecd38;fill-opacity:1"
       id="rect1434"
       width="20"
       height="20"
       x="418"
       y="102"
       ry="4" />
  </g>
  <g
     id="g16">
    <g
       id="g5">
      <path
         d="m 427.82817,143.683 -0.22781,0.41119 -3.84428,6.02228 -3.43913,-3.27782 -0.24976,-0.21094 -0.22781,0.23344 -5.33338,5.33338 0.50007,0.50006 5.10556,-5.10556 3.51693,3.34999 0.32794,0.27788 0.21094,-0.37801 3.82757,-5.98892 4.28892,4.28892 0.50007,-0.50006 -4.62226,-4.62227 z"
         style="color:#000000;font-style:normal;font-variant:normal;font-weight:normal;font-stretch:normal;font-size:medium;line-height:normal;font-family:Sans;-inkscape-font-specification:Sans;text-indent:0;text-align:start;text-decoration:none;text-decoration-line:none;letter-spacing:normal;word-spacing:normal;text-transform:none;writing-mode:lr-tb;direction:ltr;baseline-shift:baseline;text-anchor:start;display:inline;overflow:visible;visibility:visible;fill:#444444;fill-opacity:1;stroke:none;stroke-width:4.00003;marker:none;enable-background:accumulate"
         id="path1-7"
         mask="url(#mask11)"
         sodipodi:nodetypes="ccccccccccccccccc" />
      <path
         d="m 433.52051,105.81469 -0.3135,0.5655 -4.85043,8.53414 -5.64295,-4.75873 -0.34377,-0.29056 -0.31349,0.32085 -7.11137,7.5862 0.68779,0.68779 6.79805,-7.27292 5.74993,4.85805 0.45087,0.38224 0.29057,-0.51967 4.82751,-8.48826 5.64949,6.14984 0.68779,-0.68775 -6.10801,-6.60836 z"
         style="color:#000000;font-style:normal;font-variant:normal;font-weight:normal;font-stretch:normal;font-size:medium;line-height:normal;font-family:Sans;-inkscape-font-specification:Sans;text-indent:0;text-align:start;text-decoration:none;text-decoration-line:none;letter-spacing:normal;word-spacing:normal;text-transform:none;writing-mode:lr-tb;direction:ltr;baseline-shift:baseline;text-anchor:start;display:inline;overflow:visible;visibility:visible;fill:#444444;fill-opacity:1;stroke:none;stroke-width:4.00157;marker:none;enable-background:accumulate"
         id="path1-61"
         mask="url(#mask13)"
         sodipodi:nodetypes="ccccccccccccccccc" />
      <path
         d="m 335.35557,155.812 -0.85418,1.54168 -12.54171,22.58343 -14.77092,-12.29172 -0.9375,-0.79167 -0.85417,0.87501 -20.00009,20.0001 1.87501,1.87501 19.14591,-19.14593 15.06258,12.56256 1.22919,1.04167 0.79165,-1.41667 12.47924,-22.45844 16.08341,16.08341 1.87501,-1.87501 -17.33343,-17.33343 z"
         style="color:#000000;font-style:normal;font-variant:normal;font-weight:normal;font-stretch:normal;font-size:medium;line-height:normal;font-family:Sans;-inkscape-font-specification:Sans;text-indent:0;text-align:start;text-decoration:none;text-decoration-line:none;letter-spacing:normal;word-spacing:normal;text-transform:none;writing-mode:lr-tb;direction:ltr;baseline-shift:baseline;text-anchor:start;display:inline;overflow:visible;visibility:visible;fill:#444444;fill-opacity:1;stroke:none;stroke-width:4.00002;marker:none;enable-background:accumulate"
         id="path1-22"
         mask="url(#mask9-5)"
         clip-path="none"
         transform="matrix(0.5,0,0,0.5,272,-18)"
         sodipodi:nodetypes="ccccccccccccccccc" />
      <path
         d="m 322.54746,232.669 -0.59792,1.07916 -9.27887,15.80828 -10.33955,-8.60414 -0.65625,-0.55415 -0.59792,0.6125 -13.99995,13.99994 1.3125,1.3125 13.40203,-13.40205 10.54372,8.79372 0.86042,0.72917 0.55416,-0.99167 9.23515,-15.72076 10.75852,11.25828 1.3125,-1.3125 -11.63354,-12.13329 z"
         style="color:#000000;font-style:normal;font-variant:normal;font-weight:normal;font-stretch:normal;font-size:medium;line-height:normal;font-family:Sans;-inkscape-font-specification:Sans;text-indent:0;text-align:start;text-decoration:none;text-decoration-line:none;letter-spacing:normal;word-spacing:normal;text-transform:none;writing-mode:lr-tb;direction:ltr;baseline-shift:baseline;text-anchor:start;display:inline;overflow:visible;visibility:visible;fill:#444444;fill-opacity:1;stroke:none;stroke-width:3.99999;marker:none;enable-background:accumulate"
         id="path1-2"
         clip-path="none"
         mask="url(#mask8)"
         sodipodi:nodetypes="ccccccccccccccccc" />
      <path
         d="m 334.35457,155.812 -0.85418,1.54168 -12.54171,22.58343 -14.77092,-12.29172 -0.9375,-0.79167 -0.85417,0.87501 -20.00009,20.0001 1.87501,1.87501 19.14591,-19.14593 15.06258,12.56256 1.22919,1.04167 0.79165,-1.41667 12.47924,-22.45844 16.08341,16.08341 1.87501,-1.87501 -17.33343,-17.33343 z"
         style="color:#000000;font-style:normal;font-variant:normal;font-weight:normal;font-stretch:normal;font-size:medium;line-height:normal;font-family:Sans;-inkscape-font-specification:Sans;text-indent:0;text-align:start;text-decoration:none;text-decoration-line:none;letter-spacing:normal;word-spacing:normal;text-transform:none;writing-mode:lr-tb;direction:ltr;baseline-shift:baseline;text-anchor:start;display:inline;overflow:visible;visibility:visible;fill:#444444;fill-opacity:1;stroke:none;stroke-width:4.00002;marker:none;enable-background:accumulate"
         id="path1"
         mask="url(#mask9)"
         clip-path="none" />
      <path
         d="m 322.54796,232.669 -0.59792,1.07916 -9.27937,15.80828 -10.33955,-8.60414 -0.65625,-0.55415 -0.59792,0.6125 -13.99995,13.99994 1.3125,1.3125 13.40203,-13.40205 10.54372,8.79372 0.86042,0.72917 0.55416,-0.99167 9.23565,-15.72076 10.75802,11.25828 1.3125,-1.3125 -11.63305,-12.13329 z"
         style="color:#000000;font-style:normal;font-variant:normal;font-weight:normal;font-stretch:normal;font-size:medium;line-height:normal;font-family:Sans;-inkscape-font-specification:Sans;text-indent:0;text-align:start;text-decoration:none;text-decoration-line:none;letter-spacing:normal;word-spacing:normal;text-transform:none;writing-mode:lr-tb;direction:ltr;baseline-shift:baseline;text-anchor:start;display:inline;overflow:visible;visibility:visible;fill:#444444;fill-opacity:1;stroke:none;stroke-width:3.99999;marker:none;enable-background:accumulate"
         id="path1-2-3"
         clip-path="none"
         mask="url(#mask8-0)"
         transform="matrix(2,0,0,2,-288,-411.738)"
         sodipodi:nodetypes="ccccccccccccccccc" />
      <path
         d="m 334.35457,155.812 -0.85418,1.54168 -12.54171,22.58343 -14.77092,-12.29172 -0.9375,-0.79167 -0.85417,0.87501 -20.00009,20.0001 1.87501,1.87501 19.14591,-19.14593 15.06258,12.56256 1.22919,1.04167 0.79165,-1.41667 12.47924,-22.45844 16.08341,16.08341 1.87501,-1.87501 -17.33343,-17.33343 z"
         style="color:#000000;font-style:normal;font-variant:normal;font-weight:normal;font-stretch:normal;font-size:medium;line-height:normal;font-family:Sans;-inkscape-font-specification:Sans;text-indent:0;text-align:start;text-decoration:none;text-decoration-line:none;letter-spacing:normal;word-spacing:normal;text-transform:none;writing-mode:lr-tb;direction:ltr;baseline-shift:baseline;text-anchor:start;display:inline;overflow:visible;visibility:visible;fill:#444444;fill-opacity:1;stroke:none;stroke-width:4.00002;marker:none;enable-background:accumulate"
         id="path1-5"
         mask="url(#mask7)"
         transform="matrix(4,0,0,4,-1136,-532)" />
    </g>
    <g
       id="g15">
      <path
         d="m 428,143.5 c -0.55228,0 -1,0.44772 -1,1 0,0.55228 0.44772,1 1,1 0.55228,0 1,-0.44772 1,-1 0,-0.55228 -0.44772,-1 -1,-1 z m -8,3 c -0.55228,0 -1,0.44772 -1,1 0,0.55228 0.44772,1 1,1 0.55228,0 1,-0.44772 1,-1 0,-0.55228 -0.44772,-1 -1,-1 z m 4,4 c -0.55228,0 -1,0.44772 -1,1 0,0.55228 0.44772,1 1,1 0.55228,0 1,-0.44772 1,-1 0,-0.55228 -0.44772,-1 -1,-1 z"
         style="fill:#1a1a1a;fill-opacity:1;stroke-linecap:round;stroke-linejoin:round;opacity:0.2"
         id="path1-23" />
      <path
         d="m 433.5,105.5 c -0.82843,0 -1.5,0.67157 -1.5,1.5 0,0.82843 0.67157,1.5 1.5,1.5 0.82843,0 1.5,-0.67157 1.5,-1.5 0,-0.82843 -0.67157,-1.5 -1.5,-1.5 z m -11,4 c -0.82843,0 -1.5,0.67157 -1.5,1.5 0,0.82843 0.67157,1.5 1.5,1.5 0.82843,0 1.5,-0.67157 1.5,-1.5 0,-0.82843 -0.67157,-1.5 -1.5,-1.5 z m 6,5 c -0.82843,0 -1.5,0.67157 -1.5,1.5 0,0.82843 0.67157,1.5 1.5,1.5 0.82843,0 1.5,-0.67157 1.5,-1.5 0,-0.82843 -0.67157,-1.5 -1.5,-1.5 z"
         style="fill:#000000;fill-opacity:1;stroke-linecap:round;stroke-linejoin:round;opacity:0.2"
         id="path1-3" />
      <path
         d="m 440,60 c -1.10457,0 -2,0.895431 -2,2 0,1.104569 0.89543,2 2,2 1.10457,0 2,-0.895431 2,-2 0,-1.104569 -0.89543,-2 -2,-2 z m -15,5 c -1.10457,0 -2,0.895431 -2,2 0,1.104569 0.89543,2 2,2 1.10457,0 2,-0.895431 2,-2 0,-1.104569 -0.89543,-2 -2,-2 z m 8,7 c -1.10457,0 -2,0.895431 -2,2 0,1.104569 0.89543,2 2,2 1.10457,0 2,-0.895431 2,-2 0,-1.104569 -0.89543,-2 -2,-2 z"
         style="opacity:0.2;fill:#1a1a1a;fill-opacity:1;stroke-linecap:round;stroke-linejoin:round"
         id="path1-73" />
      <path
         d="m 323,233 c -1.65675,0 -2.99986,1.3431 -3,3 1.4e-4,1.6569 1.34325,3 3,3 1.65675,0 2.99986,-1.3431 3,-3 -1.4e-4,-1.6569 -1.34325,-3 -3,-3 z m -21,7 c -1.65675,0 -2.99986,1.3431 -3,3 1.4e-4,1.6569 1.34325,3 3,3 1.65675,0 2.99986,-1.3431 3,-3 -1.4e-4,-1.6569 -1.34325,-3 -3,-3 z m 11,9 c -1.65675,0 -2.99986,1.3431 -3,3 1.4e-4,1.6569 1.34325,3 3,3 1.65675,0 2.99986,-1.3431 3,-3 -1.4e-4,-1.6569 -1.34325,-3 -3,-3 z"
         style="fill:#000000;fill-opacity:1;stroke-linecap:round;stroke-linejoin:round;opacity:0.2"
         id="path1-6" />
      <path
         d="m 335,156 c -2.20914,0 -4,1.79086 -4,4 0,2.20914 1.79086,4 4,4 2.20914,0 4,-1.79086 4,-4 0,-2.20914 -1.79086,-4 -4,-4 z m -30,10 c -2.20914,0 -4,1.79086 -4,4 0,2.20914 1.79086,4 4,4 2.20914,0 4,-1.79086 4,-4 0,-2.20914 -1.79086,-4 -4,-4 z m 16,13 c -2.20914,0 -4,1.79086 -4,4 0,2.20914 1.79086,4 4,4 2.20914,0 4,-1.79086 4,-4 0,-2.20914 -1.79086,-4 -4,-4 z"
         style="fill:#000000;fill-opacity:1;stroke-linecap:round;stroke-linejoin:round;opacity:0.2"
         id="path1-1" />
      <path
         d="m 358,53 c -3.31371,0 -6,2.686291 -6,6.000001 0,3.31371 2.68629,6 6,6 3.31371,0 6,-2.68629 6,-6 C 364,55.686291 361.31371,53 358,53 Z m -42,14.000001 c -3.31371,0 -6,2.68629 -6,6 0,3.31371 2.68629,6 6,6 3.31371,0 6,-2.68629 6,-6 0,-3.31371 -2.68629,-6 -6,-6 z m 22,18 c -3.31371,0 -6,2.68629 -6,6 0,3.31371 2.68629,6 6,6 3.31371,0 6,-2.68629 6,-6 0,-3.31371 -2.68629,-6 -6,-6 z"
         style="opacity:0.2;fill:#000000;fill-opacity:1;stroke-width:2;stroke-linecap:round;stroke-linejoin:round"
         id="path1-18" />
      <path
         d="m 204,90 c -8.83656,0 -16,7.163444 -16,16 0,8.83656 7.16344,16 16,16 8.83656,0 16,-7.16344 16,-16 0,-8.836556 -7.16344,-16 -16,-16 z M 84,130 c -8.83656,0 -16,7.16344 -16,16 0,8.83656 7.16344,16 16,16 8.83656,0 16,-7.16344 16,-16 0,-8.83656 -7.16344,-16 -16,-16 z m 64,52 c -8.83656,0 -16,7.16344 -16,16 0,8.83656 7.16344,16 16,16 8.83656,0 16,-7.16344 16,-16 0,-8.83656 -7.16344,-16 -16,-16 z"
         style="fill:#000000;fill-opacity:1;stroke-width:4;stroke-linecap:round;stroke-linejoin:round;opacity:0.2"
         id="path1-9" />
    </g>
    <g
       id="g6">
      <path
         id="path12"
         style="opacity:1;fill:#444444;fill-opacity:1;stroke-linecap:round;stroke-linejoin:round"
         d="m 428,143 c -0.55228,0 -1,0.44772 -1,1 0,0.55228 0.44772,1 1,1 0.55228,0 1,-0.44772 1,-1 0,-0.55228 -0.44772,-1 -1,-1 z m -8,3 c -0.55228,0 -1,0.44772 -1,1 0,0.55228 0.44772,1 1,1 0.55228,0 1,-0.44772 1,-1 0,-0.55228 -0.44772,-1 -1,-1 z m 4,4 c -0.55228,0 -1,0.44772 -1,1 0,0.55228 0.44772,1 1,1 0.55228,0 1,-0.44772 1,-1 0,-0.55228 -0.44772,-1 -1,-1 z"
         sodipodi:nodetypes="sssssssssssssss" />
      <path
         id="path14"
         style="opacity:1;fill:#444444;fill-opacity:1;stroke-linecap:round;stroke-linejoin:round"
         d="m 433.5,105 c -0.82843,0 -1.5,0.67157 -1.5,1.5 0,0.82843 0.67157,1.5 1.5,1.5 0.82843,0 1.5,-0.67157 1.5,-1.5 0,-0.82843 -0.67157,-1.5 -1.5,-1.5 z m -11,4 c -0.82843,0 -1.5,0.67157 -1.5,1.5 0,0.82843 0.67157,1.5 1.5,1.5 0.82843,0 1.5,-0.67157 1.5,-1.5 0,-0.82843 -0.67157,-1.5 -1.5,-1.5 z m 6,5 c -0.82843,0 -1.5,0.67157 -1.5,1.5 0,0.82843 0.67157,1.5 1.5,1.5 0.82843,0 1.5,-0.67157 1.5,-1.5 0,-0.82843 -0.67157,-1.5 -1.5,-1.5 z"
         sodipodi:nodetypes="sssssssssssssss" />
      <path
         id="path13"
         style="opacity:1;fill:#444444;fill-opacity:1;stroke-linecap:round;stroke-linejoin:round"
         d="m 440,59 c -1.10457,0 -2,0.895431 -2,2 0,1.104569 0.89543,2 2,2 1.10457,0 2,-0.895431 2,-2 0,-1.104569 -0.89543,-2 -2,-2 z m -15,5 c -1.10457,0 -2,0.895431 -2,2 0,1.104569 0.89543,2 2,2 1.10457,0 2,-0.895431 2,-2 0,-1.104569 -0.89543,-2 -2,-2 z m 8,7 c -1.10457,0 -2,0.895431 -2,2 0,1.104569 0.89543,2 2,2 1.10457,0 2,-0.895431 2,-2 0,-1.104569 -0.89543,-2 -2,-2 z"
         sodipodi:nodetypes="sssssssssssssss" />
      <path
         id="path10"
         style="opacity:1;fill:#444444;fill-opacity:1;stroke-linecap:round;stroke-linejoin:round"
         d="m 323,232 c -1.65675,0 -2.99986,1.3431 -3,3 1.4e-4,1.6569 1.34325,3 3,3 1.65675,0 2.99986,-1.3431 3,-3 -1.4e-4,-1.6569 -1.34325,-3 -3,-3 z m -21,7 c -1.65675,0 -2.99986,1.3431 -3,3 1.4e-4,1.6569 1.34325,3 3,3 1.65675,0 2.99986,-1.3431 3,-3 -1.4e-4,-1.6569 -1.34325,-3 -3,-3 z m 11,9 c -1.65675,0 -2.99986,1.3431 -3,3 1.4e-4,1.6569 1.34325,3 3,3 1.65675,0 2.99986,-1.3431 3,-3 -1.4e-4,-1.6569 -1.34325,-3 -3,-3 z"
         sodipodi:nodetypes="scscsscscsscscs" />
      <path
         id="path2"
         style="fill:#444444;fill-opacity:1;stroke-linecap:round;stroke-linejoin:round"
         d="m 335,155 c -2.20914,0 -4,1.79086 -4,4 0,2.20914 1.79086,4 4,4 2.20914,0 4,-1.79086 4,-4 0,-2.20914 -1.79086,-4 -4,-4 z m -30,10 c -2.20914,0 -4,1.79086 -4,4 0,2.20914 1.79086,4 4,4 2.20914,0 4,-1.79086 4,-4 0,-2.20914 -1.79086,-4 -4,-4 z m 16,13 c -2.20914,0 -4,1.79086 -4,4 0,2.20914 1.79086,4 4,4 2.20914,0 4,-1.79086 4,-4 0,-2.20914 -1.79086,-4 -4,-4 z"
         sodipodi:nodetypes="sssssssssssssss" />
      <path
         id="path11"
         style="opacity:1;fill:#444444;fill-opacity:1;stroke-width:2;stroke-linecap:round;stroke-linejoin:round"
         d="m 358,51.999999 c -3.31371,0 -6,2.686292 -6,6 0,3.313708 2.68629,6 6,6 3.31371,0 6,-2.686292 6,-6 0,-3.313708 -2.68629,-6 -6,-6 z m -42,14 c -3.31371,0 -6,2.686292 -6,6 0,3.313708 2.68629,6 6,6 3.31371,0 6,-2.686292 6,-6 0,-3.313708 -2.68629,-6 -6,-6 z m 22,18 c -3.31371,0 -6,2.686292 -6,6 0,3.313708 2.68629,6 6,6 3.31371,0 6,-2.686292 6,-6 0,-3.313708 -2.68629,-6 -6,-6 z"
         sodipodi:nodetypes="sssssssssssssss" />
      <path
         id="path3"
         style="fill:#444444;fill-opacity:1;stroke-width:4;stroke-linecap:round;stroke-linejoin:round"
         d="m 204,88 c -8.83656,0 -16,7.163444 -16,16 0,8.83656 7.16344,16 16,16 8.83656,0 16,-7.16344 16,-16 0,-8.836556 -7.16344,-16 -16,-16 z M 84,128 c -8.836556,0 -16,7.16344 -16,16 0,8.83656 7.163444,16 16,16 8.836556,0 16,-7.16344 16,-16 0,-8.83656 -7.163444,-16 -16,-16 z m 64,52 c -8.83656,0 -16,7.16344 -16,16 0,8.83656 7.16344,16 16,16 8.83656,0 16,-7.16344 16,-16 0,-8.83656 -7.16344,-16 -16,-16 z"
         sodipodi:nodetypes="sssssssssssssss" />
    </g>
  </g>
  <g
     id="Highlights">
    <path
       id="rect653"
       style="opacity:0.2;fill:#ffffff"
       d="M 80,44 C 53.408027,44 32,65.408027 32,92 v 2 C 32,67.408027 53.408027,46 80,46 h 128 c 26.59197,0 48,21.408027 48,48 V 92 C 256,65.408027 234.59197,44 208,44 Z"
       sodipodi:nodetypes="sscsscsss" />
    <path
       id="rect773"
       style="opacity:0.2;fill:#ffffff"
       d="m 312,34 c -9.97199,0 -18,8.02801 -18,18 v 1 c 0,-9.97199 8.02801,-18 18,-18 h 48 c 9.97199,0 18,8.02801 18,18 v -1 c 0,-9.97199 -8.02801,-18 -18,-18 z" />
    <path
       id="rect1135"
       style="opacity:0.2;fill:#ffffff;fill-opacity:1"
       d="m 304,144 c -6.64799,0 -12,5.35201 -12,12 v 1 c 0,-6.64799 5.35201,-12 12,-12 h 32 c 6.64799,0 12,5.35201 12,12 v -1 c 0,-6.64799 -5.35201,-12 -12,-12 z" />
    <path
       id="rect1265"
       style="opacity:0.2;fill:#ffffff;fill-opacity:1"
       d="m 300,223 c -4.986,0 -9,4.014 -9,9 v 1 c 0,-4.986 4.014,-9 9,-9 h 24 c 4.986,0 9,4.014 9,9 v -1 c 0,-4.986 -4.014,-9 -9,-9 z" />
    <path
       id="rect1368"
       style="opacity:0.2;fill:#ffffff;fill-opacity:1"
       d="m 424,54 c -3.324,0 -6,2.676003 -6,6 v 1 c 0,-3.323997 2.676,-6 6,-6 h 16 c 3.324,0 6,2.676003 6,6 v -1 c 0,-3.323997 -2.676,-6 -6,-6 z" />
    <path
       id="rect1402"
       style="opacity:0.2;fill:#ffffff;fill-opacity:1"
       d="m 420,140 c -2.216,0 -4,1.784 -4,4 v 1 c 0,-2.216 1.784,-4 4,-4 h 8 c 2.216,0 4,1.784 4,4 v -1 c 0,-2.216 -1.784,-4 -4,-4 z" />
    <path
       id="rect1436"
       style="opacity:0.2;fill:#ffffff;fill-opacity:1"
       d="m 422,102 c -2.216,0 -4,1.784 -4,4 v 1 c 0,-2.216 1.784,-4 4,-4 h 12 c 2.216,0 4,1.784 4,4 v -1 c 0,-2.216 -1.784,-4 -4,-4 z" />
  </g>
</svg>
