<?xml version="1.0" encoding="UTF-8" standalone="no"?>
<!-- Created with Inkscape (http://www.inkscape.org/) -->

<svg
   width="480"
   height="300"
   viewBox="0 0 480 300"
   version="1.1"
   id="svg5"
   inkscape:version="1.2.2 (1:1.2.2+202305151914+b0a8486541)"
   sodipodi:docname="gnome-sound-recorder.svg"
   xmlns:inkscape="http://www.inkscape.org/namespaces/inkscape"
   xmlns:sodipodi="http://sodipodi.sourceforge.net/DTD/sodipodi-0.dtd"
   xmlns="http://www.w3.org/2000/svg"
   xmlns:svg="http://www.w3.org/2000/svg">
  <sodipodi:namedview
     id="namedview7"
     pagecolor="#888888"
     bordercolor="#000000"
     borderopacity="0.25"
     inkscape:showpageshadow="true"
     inkscape:pageopacity="0"
     inkscape:pagecheckerboard="0"
     inkscape:deskcolor="#888888"
     inkscape:document-units="px"
     showgrid="false"
     showborder="false"
     inkscape:zoom="2.75"
     inkscape:cx="240"
     inkscape:cy="149.81818"
     inkscape:window-width="1920"
     inkscape:window-height="1008"
     inkscape:window-x="0"
     inkscape:window-y="0"
     inkscape:window-maximized="1"
     inkscape:current-layer="svg5" />
  <defs
     id="defs2" />
  <g
     id="Baseplate"
     style="display:none">
    <text
       y="19.774782"
       xml:space="preserve"
       x="15.006946"
       style="font-style:normal;font-variant:normal;font-weight:normal;font-stretch:normal;line-height:0%;font-family:'DejaVu Sans';-inkscape-font-specification:'DejaVu Sans';display:inline;fill:#000000;fill-opacity:1;stroke:none;enable-background:new"
       inkscape:label="context"
       id="context"><tspan
         style="font-style:normal;font-variant:normal;font-weight:normal;font-stretch:normal;font-size:18px;line-height:1.25;font-family:'DejaVu Sans';-inkscape-font-specification:'DejaVu Sans'"
         y="19.774782"
         x="15.006946"
         sodipodi:role="line"
         id="tspan3933">apps</tspan></text>
    <text
       y="19.774782"
       xml:space="preserve"
       x="122.48839"
       style="font-style:normal;font-variant:normal;font-weight:bold;font-stretch:normal;line-height:0%;font-family:'DejaVu Sans';-inkscape-font-specification:'DejaVu Sans Bold';text-align:start;writing-mode:lr-tb;text-anchor:start;display:inline;fill:#000000;fill-opacity:1;stroke:none;enable-background:new"
       inkscape:label="icon-name"
       id="icon-name"><tspan
         style="font-style:normal;font-variant:normal;font-weight:bold;font-stretch:normal;font-size:18px;line-height:1.25;font-family:'DejaVu Sans';-inkscape-font-specification:'DejaVu Sans Bold'"
         y="19.774782"
         x="122.48839"
         sodipodi:role="line"
         id="tspan3937">gnome-sound-recorder</tspan></text>
    <rect
       style="fill:#ffffff"
       id="256x256"
       width="256"
       height="256"
       x="16"
       y="28" />
    <rect
       style="fill:#ffffff"
       id="96x96"
       width="96"
       height="96"
       x="288"
       y="28" />
    <rect
       style="fill:#ffffff"
       id="64x64"
       width="64"
       height="64"
       x="288"
       y="140" />
    <rect
       style="fill:#ffffff"
       id="48x48"
       width="48"
       height="48"
       x="288"
       y="220" />
    <rect
       style="fill:#ffffff"
       id="32x32"
       width="32"
       height="32"
       x="416"
       y="52" />
    <rect
       style="fill:#ffffff"
       id="24x24"
       width="24"
       height="24"
       x="416"
       y="100" />
    <rect
       style="fill:#ffffff"
       id="22x22"
       width="22"
       height="22"
       x="417"
       y="101" />
    <rect
       style="fill:#ffffff"
       id="16x16"
       width="16"
       height="16"
       x="416"
       y="140" />
  </g>
  <g
     id="Shadow">
    <rect
       style="opacity:0.2;fill:#000000"
       id="rect651"
       width="224"
       height="224"
       x="32"
       y="46"
       ry="48" />
    <rect
       style="opacity:0.2;fill:#000000"
       id="rect769"
       width="84"
       height="85"
       x="294"
       y="34"
       ry="18" />
    <rect
       style="opacity:0.2;fill:#000000;fill-opacity:1"
       id="rect1131"
       width="56"
       height="56"
       x="292"
       y="145"
       ry="12" />
    <rect
       style="opacity:0.2;fill:#000000;fill-opacity:1"
       id="rect1261"
       width="42"
       height="42"
       x="291"
       y="224"
       ry="9" />
    <rect
       style="opacity:0.2;fill:#000000;fill-opacity:1"
       id="rect1364"
       width="28"
       height="29"
       x="418"
       y="54"
       ry="6" />
    <rect
       style="opacity:0.2;fill:#000000;fill-opacity:1"
       id="rect1398"
       width="16"
       height="16"
       x="416"
       y="141"
       ry="4" />
    <rect
       style="opacity:0.2;fill:#000000;fill-opacity:1"
       id="rect1432"
       width="20"
       height="20"
       x="418"
       y="103"
       ry="4" />
  </g>
  <g
     id="Background">
    <rect
       style="fill:#ef5350;fill-opacity:1"
       id="rect597"
       width="224"
       height="224"
       x="32"
       y="44"
       ry="48" />
    <rect
       style="opacity:1;fill:#ef5350;fill-opacity:1"
       id="rect771"
       width="84"
       height="84"
       x="294"
       y="34"
       ry="18" />
    <rect
       style="opacity:1;fill:#ef5350;fill-opacity:1"
       id="rect1133"
       width="56"
       height="56"
       x="292"
       y="144"
       ry="12" />
    <rect
       style="opacity:1;fill:#ef5350;fill-opacity:1"
       id="rect1263"
       width="42"
       height="42"
       x="291"
       y="223"
       ry="9" />
    <rect
       style="opacity:1;fill:#ef5350;fill-opacity:1"
       id="rect1366"
       width="28"
       height="28"
       x="418"
       y="54"
       ry="6" />
    <rect
       style="opacity:1;fill:#ef5350;fill-opacity:1"
       id="rect1400"
       width="16"
       height="16"
       x="416"
       y="140"
       ry="4" />
    <rect
       style="opacity:1;fill:#ef5350;fill-opacity:1"
       id="rect1434"
       width="20"
       height="20"
       x="418"
       y="102"
       ry="4" />
  </g>
  <g
     id="g2389">
    <path
       d="m 424,143.5 c -1.385,0 -2.5,1.115 -2.5,2.5 v 1 c 0,1.385 1.115,2.5 2.5,2.5 1.385,0 2.5,-1.115 2.5,-2.5 v -1 c 0,-1.385 -1.115,-2.5 -2.5,-2.5 z m -3.5,4 c -0.27614,0 -0.5,0.22386 -0.5,0.5 v 0.375 c 0,1.58965 1.1611,2.89281 3,3.0957 V 152.5 h -1.5 c -0.27614,0 -0.5,0.22386 -0.5,0.5 0,0.27614 0.22386,0.5 0.5,0.5 h 5 c 0.27614,0 0.5,-0.22386 0.5,-0.5 0,-0.27614 -0.22386,-0.5 -0.5,-0.5 H 425 v -1.0293 c 1.839,-0.20299 3,-1.5062 3,-3.0957 V 148 147.998 c -5e-4,-0.27576 -0.22424,-0.49806 -0.5,-0.49805 -0.27576,-1e-5 -0.49946,0.22229 -0.5,0.49805 v 0.002 0.20898 c 0,1.2695 -1.2265,2.29102 -2.75,2.29102 h -0.5 c -1.5235,0 -2.75,-1.02152 -2.75,-2.29102 V 148 147.998 c -5e-4,-0.27576 -0.22424,-0.49806 -0.5,-0.49805 z"
       style="opacity:0.2;fill:#000000;stroke-width:0.5"
       id="path2366" />
    <path
       d="m 420.5,147.00002 c -0.27614,0 -0.5,0.22386 -0.5,0.5 v 0.375 c 0,1.58965 1.1611,2.89183 3,3.09472 V 152 h -1.5 c -0.27614,0 -0.5,0.22386 -0.5,0.5 0,0.27614 0.22386,0.5 0.5,0.5 h 5 c 0.27614,0 0.5,-0.22386 0.5,-0.5 0,-0.27614 -0.22386,-0.5 -0.5,-0.5 H 425 v -1.03026 c 1.839,-0.20299 3,-1.5062 3,-3.0957 v -0.37402 -0.001 c -5e-4,-0.27576 -0.22424,-0.49903 -0.5,-0.49902 -0.27576,-1e-5 -0.49946,0.22326 -0.5,0.49902 v 0.001 0.20898 c 0,1.2695 -1.2265,2.29004 -2.75,2.29004 h -0.5 c -1.5235,0 -2.75,-1.02054 -2.75,-2.29004 v -0.20898 -0.001 c -5e-4,-0.27576 -0.22424,-0.49903 -0.5,-0.49902 z"
       style="fill:#ffffff;stroke-width:0.5"
       id="path2295" />
    <path
       d="m 424,143 c -1.385,0 -2.5,1.115 -2.5,2.5 v 1 c 0,1.385 1.115,2.5 2.5,2.5 1.385,0 2.5,-1.115 2.5,-2.5 v -1 c 0,-1.385 -1.115,-2.5 -2.5,-2.5 z"
       style="fill:#f2f2f2;stroke-width:0.5"
       id="path2267" />
  </g>
  <g
     id="g2150">
    <path
       d="m 424.00019,110.5 c -0.55229,0 -1,0.44771 -1,1 -1.2e-4,0.0372 0.002,0.0744 0.006,0.11133 0.0637,2.43506 1.19302,4.42536 3.99395,4.81445 V 117.5 H 425 c -0.55228,0 -1,0.44771 -1,1 0,0.55229 0.44772,1 1,1 h 6 c 0.55228,0 1,-0.44771 1,-1 0,-0.55229 -0.44772,-1 -1,-1 h -1.99986 v -1.07422 c 2.80468,-0.38961 3.93571,-2.38667 3.99395,-4.82617 0.004,-0.0331 0.006,-0.0663 0.006,-0.0996 0,-0.55228 -0.44771,-1 -1,-1 -0.55228,0 -1,0.44772 -1,1 h -0.0156 c -0.0836,2.06779 -0.98422,3 -2.98422,3 -2,0 -2.90067,-0.93221 -2.98419,-3 h -0.0156 c 0,-0.55229 -0.44772,-1 -1,-1 z M 431,110.1664 v -1.3328 c 0,-1.84681 -1.338,-3.3336 -3,-3.3336 -1.662,0 -3,1.48679 -3,3.3336 v 1.3328 c 0,1.84681 1.338,3.3336 3,3.3336 1.662,0 3,-1.48679 3,-3.3336 z"
       style="opacity:0.2;fill:#000000"
       id="path2078" />
    <path
       d="m 424.00019,110 c -0.55229,0 -1,0.44771 -1,1 -1.2e-4,0.0372 0.002,0.0744 0.006,0.11133 0.0637,2.43506 1.19302,4.42536 3.99395,4.81445 V 117 H 425 c -0.55228,0 -1,0.44771 -1,1 0,0.55229 0.44772,1 1,1 h 6 c 0.55228,0 1,-0.44771 1,-1 0,-0.55229 -0.44772,-1 -1,-1 h -1.99986 v -1.07422 c 2.80468,-0.38961 3.93571,-2.38667 3.99395,-4.82617 0.004,-0.0331 0.006,-0.0663 0.006,-0.0996 0,-0.55228 -0.44771,-1 -1,-1 -0.55228,0 -1,0.44772 -1,1 h -0.0156 c -0.0836,2.06779 -0.98422,3 -2.98422,3 -2,0 -2.90067,-0.93221 -2.98419,-3 h -0.0156 c 0,-0.55229 -0.44772,-1 -1,-1 z"
       style="fill:#ffffff"
       id="path1435" />
    <path
       d="m 431,109.6664 v -1.3328 C 431,106.48679 429.662,105 428,105 c -1.662,0 -3,1.48679 -3,3.3336 v 1.3328 c 0,1.84681 1.338,3.3336 3,3.3336 1.662,0 3,-1.48679 3,-3.3336 z"
       style="fill:#f2f2f2;stroke-width:0.774596"
       id="path2017" />
  </g>
  <g
     id="g2168">
    <path
       d="m 432,59 c -2.77,0 -5,2.230006 -5,5 v 2 c 0,2.769994 2.23,5 5,5 2.77,0 5,-2.230006 5,-5 v -2 c 0,-2.769994 -2.23,-5 -5,-5 z m -7,7 c -0.55228,0 -1,0.447716 -1,1 v 0.75 c 0,3.179294 2.3222,5.783655 6,6.189453 V 77 h -3 c -0.55228,0 -1,0.447716 -1,1 0,0.552285 0.44772,1 1,1 h 10 c 0.55228,0 1,-0.447715 1,-1 0,-0.552284 -0.44772,-1 -1,-1 h -3 v -3.060547 c 3.678,-0.405998 6,-3.012412 6,-6.191406 V 67 66.998 c -10e-4,-0.551521 -0.44848,-0.998048 -1,-0.998047 -0.55152,-1e-6 -0.99892,0.446526 -1,0.998047 V 67 67.417969 c 0,2.538994 -2.453,4.580078 -5.5,4.580078 h -1 c -3.047,0 -5.5,-2.041084 -5.5,-4.580078 V 67 66.998 c -10e-4,-0.551521 -0.44848,-0.998048 -1,-0.998047 z"
       style="fill:#000000;opacity:0.2"
       id="path2140" />
    <path
       d="m 425,65 c -0.55228,0 -1,0.447715 -1,1 v 0.75 c 0,3.179297 2.3222,5.783654 6,6.189453 V 76 h -3 c -0.55228,0 -1,0.447715 -1,1 0,0.552285 0.44772,1 1,1 h 10 c 0.55228,0 1,-0.447715 1,-1 0,-0.552285 -0.44772,-1 -1,-1 h -3 v -3.060547 c 3.678,-0.405999 6,-3.012409 6,-6.191406 V 66 65.998 c -10e-4,-0.551522 -0.44848,-0.998048 -1,-0.998047 -0.55152,-1e-6 -0.99892,0.446525 -1,0.998047 V 66 66.417969 c 0,2.538997 -2.453,4.580078 -5.5,4.580078 h -1 c -3.047,0 -5.5,-2.041081 -5.5,-4.580078 V 66 65.998 c -10e-4,-0.551522 -0.44848,-0.998048 -1,-0.998047 z"
       style="fill:#ffffff"
       id="path464" />
    <path
       d="m 432,58 c -2.77,0 -5,2.230003 -5,5 v 2 c 0,2.769997 2.23,5 5,5 2.77,0 5,-2.230003 5,-5 v -2 c 0,-2.769997 -2.23,-5 -5,-5 z"
       style="fill:#f2f2f2"
       id="path591" />
  </g>
  <g
     id="g3235">
    <path
       d="m 312,230 c -4.432,0 -8,3.53214 -8,7.91797 v 3.16602 c 0,4.38584 3.568,7.91601 8,7.91601 4.432,0 8,-3.53017 8,-7.91601 v -3.16602 C 320,233.53214 316.432,230 312,230 Z m -10.5,11 c -0.82842,0 -1.5,0.67156 -1.5,1.5 v 1.125 c 0,4.76896 4.48331,8.67647 10,9.28517 V 257 h -5.5 c -0.82842,0 -1.5,0.67156 -1.5,1.5 0,0.82844 0.67158,1.5 1.5,1.5 h 15 c 0.82842,0 1.5,-0.67156 1.5,-1.5 0,-0.82844 -0.67158,-1.5 -1.5,-1.5 H 314 v -4.08983 c 5.51699,-0.60901 10,-4.51862 10,-9.28712 V 242.5 242.498 c -10e-4,-0.82728 -0.67272,-1.49805 -1.5,-1.49805 -0.82728,0 -1.49838,0.67077 -1.5,1.49805 v 0.002 0.62696 c 0,3.80849 -3.9295,6.87109 -8.5,6.87109 h -1 c -4.5705,0 -8.5,-3.06261 -8.5,-6.87109 V 242.5 242.498 c -10e-4,-0.82729 -0.67272,-1.49805 -1.5,-1.49805 z"
       style="opacity:0.2;fill:#000000;stroke-width:1.5"
       id="path3212" />
    <path
       d="m 301.5,240.00007 c -0.82842,0 -1.5,0.67156 -1.5,1.5 v 1.125 c 0,4.76895 4.4833,8.67547 10,9.28417 V 256 h -5.5 c -0.82842,0 -1.5,0.67156 -1.5,1.5 0,0.82843 0.67158,1.5 1.5,1.5 h 15 c 0.82842,0 1.5,-0.67157 1.5,-1.5 0,-0.82844 -0.67158,-1.5 -1.5,-1.5 H 314 v -4.09076 c 5.517,-0.609 10,-4.51861 10,-9.2871 v -1.12207 -0.003 C 323.999,240.66979 323.32728,240 322.5,240 c -0.82728,0 -1.49838,0.66979 -1.5,1.49707 v 0.003 0.62695 c 0,3.8085 -3.9295,6.87012 -8.5,6.87012 h -1 c -4.5705,0 -8.5,-3.06162 -8.5,-6.87012 v -0.62695 -0.003 C 302.999,240.66979 302.32728,240 301.5,240 Z"
       style="fill:#ffffff;stroke-width:1.5"
       id="path3122" />
    <path
       d="m 312,229 c -4.432,0 -8,3.53083 -8,7.91667 v 3.16666 c 0,4.38584 3.568,7.91667 8,7.91667 4.432,0 8,-3.53083 8,-7.91667 v -3.16666 C 320,232.53083 316.432,229 312,229 Z"
       style="fill:#f2f2f2;stroke-width:1.59164"
       id="path3150" />
  </g>
  <g
     id="g2935">
    <path
       d="m 320,153 c -5.53999,0 -10,4.46 -10,10 v 4 c 0,5.53999 4.46001,10 10,10 5.54,0 10,-4.46001 10,-10 v -4 c 0,-5.54 -4.46,-10 -10,-10 z m -13,13 c -1.10457,0 -2,0.89543 -2,2 v 2.5 c 0,6.35809 5.645,11.56491 13,12.37695 V 189 h -8 c -1.10457,0 -2,0.89543 -2,2 0,1.10457 0.89543,2 2,2 h 20 c 1.10457,0 2,-0.89543 2,-2 0,-1.10457 -0.89543,-2 -2,-2 h -8 v -6.12305 c 7.35501,-0.81204 13,-6.01886 13,-12.37695 V 168 c 0,-1.10457 -0.89543,-2 -2,-2 -1.10457,0 -2,0.89543 -2,2 v 1.83398 c 0,5.078 -4.906,9.16602 -11,9.16602 -6.09399,0 -11,-4.08802 -11,-9.16602 V 168 c 0,-1.10457 -0.89543,-2 -2,-2 z"
       style="opacity:0.2;fill:#000000;fill-opacity:1"
       id="path2212" />
    <path
       d="m 307,165 c -1.10457,0 -2,0.89543 -2,2 v 2.5 c 0,6.3581 5.64499,11.56491 13,12.37695 V 188 h -8 c -1.10457,0 -2,0.89543 -2,2 0,1.10457 0.89543,2 2,2 h 20 c 1.10457,0 2,-0.89543 2,-2 0,-1.10457 -0.89543,-2 -2,-2 h -8 v -6.12305 c 7.35501,-0.81204 13,-6.01885 13,-12.37695 V 167 c 0,-1.10457 -0.89543,-2 -2,-2 -1.10457,0 -2,0.89543 -2,2 v 1.83398 c 0,5.078 -4.906,9.16602 -11,9.16602 -6.094,0 -11,-4.08802 -11,-9.16602 V 167 c 0,-1.10457 -0.89543,-2 -2,-2 z"
       style="fill:#ffffff;fill-opacity:1"
       id="path806" />
    <path
       d="m 330,166 v -4 c 0,-5.54 -4.46,-10 -10,-10 -5.54,0 -10,4.46 -10,10 v 4 c 0,5.54 4.46,10 10,10 5.54,0 10,-4.46 10,-10 z"
       style="fill:#f2f2f2;fill-opacity:1"
       id="path835" />
  </g>
  <g
     id="g3295">
    <path
       d="m 336,47 c -8.30999,0 -15,6.690009 -15,15 v 6 c 0,8.309997 6.69001,14.999997 15,14.999997 8.30999,0 15,-6.69 15,-14.999997 v -6 c 0,-8.309991 -6.69001,-14.999999 -15,-15 z m -20,20 c -1.65686,0 -3,1.343142 -3,2.999997 v 3.75 c 0,9.53714 8.96749,17.3464 20,18.56446 V 101 h -12 c -1.65686,0 -3,1.34313 -3,2.99999 0,1.65685 1.34314,3 3,3 h 30 c 1.65686,0 3,-1.34315 3,-3 C 354,102.34313 352.65686,101 351,101 h -12 v -8.685543 c 11.0325,-1.21806 20,-9.02732 20,-18.56446 v -3.75 C 359,68.343142 357.65686,67 356,67 c -1.65686,0 -3,1.343142 -3,2.999997 v 2.75 c 0,7.617 -7.85901,13.75 -17,13.75 -9.14099,0 -17,-6.133 -17,-13.75 v -2.75 C 319,68.343142 317.65686,67 316,67 Z"
       style="fill:#000000;fill-opacity:1;stroke-width:1.5;opacity:0.2"
       id="path3339" />
    <path
       d="m 316,66 c -1.65686,0 -3,1.34314 -3,3 v 3.75 c 0,9.53715 8.96748,17.34736 20,18.56542 v 8.684573 h -12 c -1.65686,0 -3,1.343147 -3,3.000007 0,1.65685 1.34314,3 3,3 h 30 c 1.65686,0 3,-1.34315 3,-3 0,-1.65686 -1.34314,-3.000007 -3,-3.000007 H 339 V 91.31542 C 350.03251,90.09736 359,82.28715 359,72.75 V 69 c 0,-1.65686 -1.34314,-3 -3,-3 -1.65686,0 -3,1.34314 -3,3 v 2.75097 c 0,7.617 -7.859,13.74903 -17,13.74903 -9.141,0 -17,-6.13203 -17,-13.74903 V 69 c 0,-1.65686 -1.34314,-3 -3,-3 z"
       style="fill:#ffffff;fill-opacity:1;stroke-width:1.5"
       id="path3245"
       sodipodi:nodetypes="sssccssssssccsssssssss" />
    <path
       d="m 351,67.000003 v -6 c 0,-8.31 -6.69,-15.000005 -15,-15.000005 -8.31,0 -15,6.690005 -15,15.000005 v 6 c 0,8.31 6.69,15 15,15 8.31,0 15,-6.69 15,-15 z"
       style="fill:#f2f2f2;fill-opacity:1;stroke-width:1.5"
       id="path3273" />
  </g>
  <g
     id="g3024"
     transform="matrix(4,0,0,4,-1136,-532)">
    <path
       d="m 320,152.5 c -5.53999,0 -10,4.46 -10,10 v 4 c 0,5.53999 4.46001,10 10,10 5.54,0 10,-4.46001 10,-10 v -4 c 0,-5.54 -4.46,-10 -10,-10 z m -13,13 c -1.10457,0 -2,0.89543 -2,2 v 2.5 c 0,6.35809 5.645,11.56491 13,12.37695 V 188.5 h -8 c -1.10457,0 -2,0.89543 -2,2 0,1.10457 0.89543,2 2,2 h 20 c 1.10457,0 2,-0.89543 2,-2 0,-1.10457 -0.89543,-2 -2,-2 h -8 v -6.12305 c 7.35501,-0.81204 13,-6.01886 13,-12.37695 v -2.5 c 0,-1.10457 -0.89543,-2 -2,-2 -1.10457,0 -2,0.89543 -2,2 v 1.83398 c 0,5.078 -4.906,9.16602 -11,9.16602 -6.09399,0 -11,-4.08802 -11,-9.16602 V 167.5 c 0,-1.10457 -0.89543,-2 -2,-2 z"
       style="opacity:0.2;fill:#000000;fill-opacity:1"
       id="path3001" />
    <path
       d="m 307,165 c -1.10457,0 -2,0.89543 -2,2 v 2.5 c 0,6.3581 5.64499,11.56491 13,12.37695 V 188 h -8 c -1.10457,0 -2,0.89543 -2,2 0,1.10457 0.89543,2 2,2 h 20 c 1.10457,0 2,-0.89543 2,-2 0,-1.10457 -0.89543,-2 -2,-2 h -8 v -6.12305 c 7.35501,-0.81204 13,-6.01885 13,-12.37695 V 167 c 0,-1.10457 -0.89543,-2 -2,-2 -1.10457,0 -2,0.89543 -2,2 v 1.83398 c 0,5.078 -4.906,9.16602 -11,9.16602 -6.094,0 -11,-4.08802 -11,-9.16602 V 167 c 0,-1.10457 -0.89543,-2 -2,-2 z"
       style="fill:#ffffff;fill-opacity:1"
       id="path2973" />
    <path
       d="m 330,166 v -4 c 0,-5.54 -4.46,-10 -10,-10 -5.54,0 -10,4.46 -10,10 v 4 c 0,5.54 4.46,10 10,10 5.54,0 10,-4.46 10,-10 z"
       style="fill:#f2f2f2;fill-opacity:1"
       id="path2945" />
  </g>
  <g
     id="Highlights">
    <path
       id="rect653"
       style="opacity:0.2;fill:#ffffff"
       d="M 80,44 C 53.408027,44 32,65.408027 32,92 v 2 C 32,67.408027 53.408027,46 80,46 h 128 c 26.59197,0 48,21.408027 48,48 V 92 C 256,65.408027 234.59197,44 208,44 Z"
       sodipodi:nodetypes="sscsscsss" />
    <path
       id="rect773"
       style="opacity:0.2;fill:#ffffff"
       d="m 312,34 c -9.97199,0 -18,8.02801 -18,18 v 1 c 0,-9.97199 8.02801,-18 18,-18 h 48 c 9.97199,0 18,8.02801 18,18 v -1 c 0,-9.97199 -8.02801,-18 -18,-18 z" />
    <path
       id="rect1135"
       style="opacity:0.2;fill:#ffffff;fill-opacity:1"
       d="m 304,144 c -6.64799,0 -12,5.35201 -12,12 v 1 c 0,-6.64799 5.35201,-12 12,-12 h 32 c 6.64799,0 12,5.35201 12,12 v -1 c 0,-6.64799 -5.35201,-12 -12,-12 z" />
    <path
       id="rect1265"
       style="opacity:0.2;fill:#ffffff;fill-opacity:1"
       d="m 300,223 c -4.986,0 -9,4.014 -9,9 v 1 c 0,-4.986 4.014,-9 9,-9 h 24 c 4.986,0 9,4.014 9,9 v -1 c 0,-4.986 -4.014,-9 -9,-9 z" />
    <path
       id="rect1368"
       style="opacity:0.2;fill:#ffffff;fill-opacity:1"
       d="m 424,54 c -3.324,0 -6,2.676003 -6,6 v 1 c 0,-3.323997 2.676,-6 6,-6 h 16 c 3.324,0 6,2.676003 6,6 v -1 c 0,-3.323997 -2.676,-6 -6,-6 z" />
    <path
       id="rect1402"
       style="opacity:0.2;fill:#ffffff;fill-opacity:1"
       d="m 420,140 c -2.216,0 -4,1.784 -4,4 v 1 c 0,-2.216 1.784,-4 4,-4 h 8 c 2.216,0 4,1.784 4,4 v -1 c 0,-2.216 -1.784,-4 -4,-4 z" />
    <path
       id="rect1436"
       style="opacity:0.2;fill:#ffffff;fill-opacity:1"
       d="m 422,102 c -2.216,0 -4,1.784 -4,4 v 1 c 0,-2.216 1.784,-4 4,-4 h 12 c 2.216,0 4,1.784 4,4 v -1 c 0,-2.216 -1.784,-4 -4,-4 z" />
  </g>
</svg>
