<?xml version="1.0" encoding="UTF-8" standalone="no"?>
<!-- Created with Inkscape (http://www.inkscape.org/) -->

<svg
   width="480"
   height="300"
   viewBox="0 0 480 300"
   version="1.1"
   id="svg5"
   inkscape:version="1.2.2 (1:1.2.2+202305151914+b0a8486541)"
   sodipodi:docname="google-chrome.svg"
   xmlns:inkscape="http://www.inkscape.org/namespaces/inkscape"
   xmlns:sodipodi="http://sodipodi.sourceforge.net/DTD/sodipodi-0.dtd"
   xmlns="http://www.w3.org/2000/svg"
   xmlns:svg="http://www.w3.org/2000/svg">
  <sodipodi:namedview
     id="namedview7"
     pagecolor="#888888"
     bordercolor="#000000"
     borderopacity="0.25"
     inkscape:showpageshadow="true"
     inkscape:pageopacity="0"
     inkscape:pagecheckerboard="0"
     inkscape:deskcolor="#888888"
     inkscape:document-units="px"
     showgrid="false"
     showborder="false"
     inkscape:zoom="2.6866667"
     inkscape:cx="240.07444"
     inkscape:cy="150"
     inkscape:window-width="1920"
     inkscape:window-height="1008"
     inkscape:window-x="0"
     inkscape:window-y="0"
     inkscape:window-maximized="1"
     inkscape:current-layer="Symbols" />
  <defs
     id="defs2" />
  <g
     id="Baseplate"
     style="display:none">
    <text
       y="19.774782"
       xml:space="preserve"
       x="15.006946"
       style="font-style:normal;font-variant:normal;font-weight:normal;font-stretch:normal;line-height:0%;font-family:'DejaVu Sans';-inkscape-font-specification:'DejaVu Sans';display:inline;fill:#000000;fill-opacity:1;stroke:none;enable-background:new"
       inkscape:label="context"
       id="context"><tspan
         style="font-style:normal;font-variant:normal;font-weight:normal;font-stretch:normal;font-size:18px;line-height:1.25;font-family:'DejaVu Sans';-inkscape-font-specification:'DejaVu Sans'"
         y="19.774782"
         x="15.006946"
         sodipodi:role="line"
         id="tspan3933">apps</tspan></text>
    <text
       y="19.774782"
       xml:space="preserve"
       x="122.48839"
       style="font-style:normal;font-variant:normal;font-weight:bold;font-stretch:normal;line-height:0%;font-family:'DejaVu Sans';-inkscape-font-specification:'DejaVu Sans Bold';text-align:start;writing-mode:lr-tb;text-anchor:start;display:inline;fill:#000000;fill-opacity:1;stroke:none;enable-background:new"
       inkscape:label="icon-name"
       id="icon-name"><tspan
         style="font-style:normal;font-variant:normal;font-weight:bold;font-stretch:normal;font-size:18px;line-height:1.25;font-family:'DejaVu Sans';-inkscape-font-specification:'DejaVu Sans Bold'"
         y="19.774782"
         x="122.48839"
         sodipodi:role="line"
         id="tspan3937">google-chrome</tspan></text>
    <rect
       style="fill:#ffffff"
       id="256x256"
       width="256"
       height="256"
       x="16"
       y="28" />
    <rect
       style="fill:#ffffff"
       id="96x96"
       width="96"
       height="96"
       x="288"
       y="28" />
    <rect
       style="fill:#ffffff"
       id="64x64"
       width="64"
       height="64"
       x="288"
       y="140" />
    <rect
       style="fill:#ffffff"
       id="48x48"
       width="48"
       height="48"
       x="288"
       y="220" />
    <rect
       style="fill:#ffffff"
       id="32x32"
       width="32"
       height="32"
       x="416"
       y="52" />
    <rect
       style="fill:#ffffff"
       id="24x24"
       width="24"
       height="24"
       x="416"
       y="100" />
    <rect
       style="fill:#ffffff"
       id="22x22"
       width="22"
       height="22"
       x="417"
       y="101" />
    <rect
       style="fill:#ffffff"
       id="16x16"
       width="16"
       height="16"
       x="416"
       y="140" />
  </g>
  <g
     id="Shadow">
    <rect
       style="opacity:0.2;fill:#000000"
       id="rect651"
       width="224"
       height="224"
       x="32"
       y="46"
       ry="48" />
    <rect
       style="opacity:0.2;fill:#000000"
       id="rect769"
       width="84"
       height="85"
       x="294"
       y="34"
       ry="18" />
    <rect
       style="opacity:0.2;fill:#000000;fill-opacity:1"
       id="rect1131"
       width="56"
       height="56"
       x="292"
       y="145"
       ry="12" />
    <rect
       style="opacity:0.2;fill:#000000;fill-opacity:1"
       id="rect1261"
       width="42"
       height="42"
       x="291"
       y="224"
       ry="9" />
    <rect
       style="opacity:0.2;fill:#000000;fill-opacity:1"
       id="rect1364"
       width="28"
       height="29"
       x="418"
       y="54"
       ry="6" />
    <rect
       style="opacity:0.2;fill:#000000;fill-opacity:1"
       id="rect1398"
       width="16"
       height="16"
       x="416"
       y="141"
       ry="4" />
    <rect
       style="opacity:0.2;fill:#000000;fill-opacity:1"
       id="rect1432"
       width="20"
       height="20"
       x="418"
       y="103"
       ry="4" />
  </g>
  <g
     id="Background">
    <rect
       style="fill:#efefef;fill-opacity:1"
       id="rect597"
       width="224"
       height="224"
       x="32"
       y="44"
       ry="48" />
    <rect
       style="opacity:1;fill:#efefef;fill-opacity:1"
       id="rect771"
       width="84"
       height="84"
       x="294"
       y="34"
       ry="18" />
    <rect
       style="opacity:1;fill:#efefef;fill-opacity:1"
       id="rect1133"
       width="56"
       height="56"
       x="292"
       y="144"
       ry="12" />
    <rect
       style="opacity:1;fill:#efefef;fill-opacity:1"
       id="rect1263"
       width="42"
       height="42"
       x="291"
       y="223"
       ry="9" />
    <rect
       style="opacity:1;fill:#efefef;fill-opacity:1"
       id="rect1366"
       width="28"
       height="28"
       x="418"
       y="54"
       ry="6" />
    <rect
       style="opacity:1;fill:#efefef;fill-opacity:1"
       id="rect1400"
       width="16"
       height="16"
       x="416"
       y="140"
       ry="4" />
    <rect
       style="opacity:1;fill:#efefef;fill-opacity:1"
       id="rect1434"
       width="20"
       height="20"
       x="418"
       y="102"
       ry="4" />
  </g>
  <g
     id="Symbols"
     transform="translate(-105.00745,23.866005)">
    <g
       id="googlechrome-256"
       transform="matrix(17.786011,0,0,17.786011,136.06628,19.192885)">
      <ellipse
         style="opacity:0.2;fill:#000000;fill-opacity:1;stroke-width:0.28112;stroke-linecap:round;stroke-linejoin:round"
         id="path3939"
         cx="6.3499999"
         cy="6.4624424"
         rx="4.4979167"
         ry="4.4979153" />
      <path
         d="m 6.3499908,1.8520833 c -1.6648002,0 -3.1172325,0.9051142 -3.8949803,2.2495046 L 2.6017322,6.7248018 4.4023011,7.4744838 6.3499908,6.3500302 V 4.1010567 H 10.244704 C 9.4668234,2.7569983 8.014591,1.8520833 6.3499908,1.8520833 Z"
         style="fill:#dd4d3e;fill-opacity:1;stroke-width:0.0175699"
         id="path1309" />
      <path
         d="m 1.8521097,6.3500302 c 0,2.4841174 2.013697,4.4978798 4.4978805,4.4978798 L 8.322717,9.7933342 8.2976798,7.4744838 6.3499902,6.3500302 4.4023011,7.4744838 2.4550101,4.1015879 C 2.0722656,4.7632044 1.8520833,5.5305796 1.8520833,6.3499639"
         style="fill:#109f5b;fill-opacity:1;stroke-width:0.0175699"
         id="path1449"
         sodipodi:nodetypes="cccccccc" />
      <path
         d="m 6.3500375,6.3500302 1.947689,1.1244536 -1.947689,3.3734262 c 2.4841163,0 4.4978795,-2.0137624 4.4978795,-4.4978798 0,-0.819517 -0.220254,-1.5871712 -0.603213,-2.2489735 H 6.3499908 Z"
         style="fill:#ffce41;stroke-width:0.0175699;fill-opacity:1"
         id="path1829" />
      <circle
         style="opacity:0.2;fill:#000000;fill-opacity:1;stroke-width:0.28112;stroke-linecap:round;stroke-linejoin:round"
         id="path3993"
         cx="6.3499999"
         cy="6.4624624"
         r="2.2489583" />
      <path
         d="m 8.5989805,6.3500149 c 0,1.24205 -1.0069082,2.248958 -2.2489583,2.248958 -1.2420506,0 -2.2489586,-1.006908 -2.2489586,-2.248958 0,-1.2420504 1.006908,-2.2489582 2.2489586,-2.2489582 1.2420501,0 2.2489583,1.0069078 2.2489583,2.2489582"
         style="fill:#ffffff;stroke-width:0.0175698"
         id="path2229" />
      <path
         d="m 8.1491667,6.3500006 c 0,0.9936381 -0.8055294,1.7991654 -1.7991667,1.7991654 -0.9936381,0 -1.7991668,-0.8055273 -1.7991668,-1.7991654 0,-0.9936377 0.8055287,-1.7991663 1.7991668,-1.7991663 0.9936373,0 1.7991667,0.8055286 1.7991667,1.7991663"
         style="fill:#4688f4;fill-opacity:1;stroke-width:0.0172995"
         id="path2029" />
      <path
         id="path3857"
         style="fill:#ffffff;fill-opacity:1;stroke-width:0.28112;stroke-linecap:round;stroke-linejoin:round;opacity:0.2"
         d="M 6.35 1.8520797 A 4.4979167 4.4979134 0 0 0 1.8520831 6.3499966 A 4.4979167 4.4979134 0 0 0 1.8530714 6.4062206 A 4.4979167 4.4979134 0 0 1 6.35 1.9645276 A 4.4979167 4.4979134 0 0 1 10.847258 6.3897487 A 4.4979167 4.4979134 0 0 0 10.847917 6.3499966 A 4.4979167 4.4979134 0 0 0 6.35 1.8520797 z " />
    </g>
    <g
       id="googlechrome-96"
       transform="matrix(7.1144045,0,0,7.1144045,395.83098,6.95755)">
      <ellipse
         style="opacity:0.2;fill:#000000;fill-opacity:1;stroke-width:0.702799;stroke-linecap:round;stroke-linejoin:round"
         id="path4136"
         cx="6.3499994"
         cy="6.4905529"
         rx="4.4979167"
         ry="4.4979134" />
      <path
         d="m 6.3499908,1.8520833 c -1.6648002,0 -3.1172325,0.9051142 -3.8949803,2.2495046 L 2.6017322,6.7248018 4.4023011,7.4744838 6.3499908,6.3500302 V 4.1010567 H 10.244704 C 9.4668234,2.7569983 8.014591,1.8520833 6.3499908,1.8520833 Z"
         style="fill:#dd4d3e;fill-opacity:1;stroke-width:0.0175699"
         id="path1309-7" />
      <path
         d="m 1.8521097,6.3500302 c 0,2.4841174 2.013697,4.4978798 4.4978805,4.4978798 L 8.322717,9.7933342 8.2976798,7.4744838 6.3499902,6.3500302 4.4023011,7.4744838 2.4550101,4.1015879 C 2.0722656,4.7632044 1.8520833,5.5305796 1.8520833,6.3499639"
         style="fill:#109f5b;fill-opacity:1;stroke-width:0.0175699"
         id="path1449-3"
         sodipodi:nodetypes="cccccccc" />
      <path
         d="m 6.3500375,6.3500302 1.947689,1.1244536 -1.947689,3.3734262 c 2.4841163,0 4.4978795,-2.0137624 4.4978795,-4.4978798 0,-0.819517 -0.220254,-1.5871712 -0.603213,-2.2489735 H 6.3499908 Z"
         style="fill:#ffce41;stroke-width:0.0175699;fill-opacity:1"
         id="path1829-6" />
      <ellipse
         style="opacity:0.2;fill:#000000;fill-opacity:1;stroke-width:0.702799;stroke-linecap:round;stroke-linejoin:round"
         id="path4195"
         cx="6.3500381"
         cy="6.4905715"
         rx="2.2489736"
         ry="2.2489734" />
      <path
         d="m 8.5990112,6.3500302 c 0,1.2420585 -1.0069151,2.2489734 -2.2489737,2.2489734 -1.242059,0 -2.2489739,-1.0069149 -2.2489739,-2.2489734 0,-1.2420588 1.0069149,-2.2489735 2.2489739,-2.2489735 1.2420586,0 2.2489737,1.0069147 2.2489737,2.2489735"
         style="fill:#ffffff;stroke-width:0.0175699"
         id="path2229-1" />
      <path
         d="m 8.1773161,6.3500305 c 0,1.0091638 -0.8181159,1.8272774 -1.8272787,1.8272774 -1.0091638,0 -1.8272788,-0.8181136 -1.8272788,-1.8272774 0,-1.0091633 0.818115,-1.8272782 1.8272788,-1.8272782 1.0091628,0 1.8272787,0.8181149 1.8272787,1.8272782"
         style="fill:#4688f4;fill-opacity:1;stroke-width:0.0175697"
         id="path2029-2" />
      <path
         id="path4165"
         style="opacity:0.2;fill:#ffffff;fill-opacity:1;stroke-width:0.702799;stroke-linecap:round;stroke-linejoin:round"
         d="M 6.3500002 1.8520798 A 4.4979167 4.4979134 0 0 0 1.8520833 6.3499967 A 4.4979167 4.4979134 0 0 0 1.8540051 6.4202766 A 4.4979167 4.4979134 0 0 1 6.3500002 1.9926397 A 4.4979167 4.4979134 0 0 1 10.846819 6.3922745 A 4.4979167 4.4979134 0 0 0 10.847917 6.3499967 A 4.4979167 4.4979134 0 0 0 6.3500002 1.8520798 z " />
    </g>
    <g
       id="googlechrome-64"
       transform="matrix(4.4465028,0,0,4.4465028,396.77216,119.89872)">
      <ellipse
         style="opacity:0.2;fill:#000000;fill-opacity:1;stroke-width:1.12448;stroke-linecap:round;stroke-linejoin:round"
         id="path4197"
         cx="6.349998"
         cy="6.5748882"
         rx="4.4979167"
         ry="4.4979134" />
      <path
         d="m 6.3499908,1.8520833 c -1.6648002,0 -3.1172325,0.9051142 -3.8949803,2.2495046 L 2.6017322,6.7248018 4.4023011,7.4744838 6.3499908,6.3500302 V 4.1010567 H 10.244704 C 9.4668234,2.7569983 8.014591,1.8520833 6.3499908,1.8520833 Z"
         style="fill:#dd4d3e;fill-opacity:1;stroke-width:0.0175699"
         id="path1309-2" />
      <path
         d="m 1.8521097,6.3500302 c 0,2.4841174 2.013697,4.4978798 4.4978805,4.4978798 L 8.322717,9.7933342 8.2976798,7.4744838 6.3499902,6.3500302 4.4023011,7.4744838 2.4550101,4.1015879 C 2.0722656,4.7632044 1.8520833,5.5305796 1.8520833,6.3499639"
         style="fill:#109f5b;fill-opacity:1;stroke-width:0.0175699"
         id="path1449-0"
         sodipodi:nodetypes="cccccccc" />
      <path
         d="m 6.3500375,6.3500302 1.947689,1.1244536 -1.947689,3.3734262 c 2.4841163,0 4.4978795,-2.0137624 4.4978795,-4.4978798 0,-0.819517 -0.220254,-1.5871712 -0.603213,-2.2489735 H 6.3499908 Z"
         style="fill:#ffce41;stroke-width:0.0175699;fill-opacity:1"
         id="path1829-2" />
      <circle
         style="opacity:0.2;fill:#000000;fill-opacity:1;stroke-width:1.12448;stroke-linecap:round;stroke-linejoin:round"
         id="path4229"
         cx="6.3499994"
         cy="6.5748916"
         r="2.2489583" />
      <path
         d="m 8.5990112,6.3500302 c 0,1.2420585 -1.0069151,2.2489734 -2.2489737,2.2489734 -1.242059,0 -2.2489739,-1.0069149 -2.2489739,-2.2489734 0,-1.2420588 1.0069149,-2.2489735 2.2489739,-2.2489735 1.2420586,0 2.2489737,1.0069147 2.2489737,2.2489735"
         style="fill:#ffffff;stroke-width:0.0175699"
         id="path2229-3" />
      <path
         d="m 8.1492041,6.3500006 c 0,0.9936381 -0.8055294,1.7991654 -1.7991667,1.7991654 -0.9936381,0 -1.7991668,-0.8055273 -1.7991668,-1.7991654 0,-0.9936377 0.8055287,-1.7991663 1.7991668,-1.7991663 0.9936373,0 1.7991667,0.8055286 1.7991667,1.7991663"
         style="fill:#4688f4;fill-opacity:1;stroke-width:0.0172995"
         id="path2029-7" />
      <path
         id="path4199"
         style="opacity:0.2;fill:#ffffff;fill-opacity:1;stroke-width:1.12448;stroke-linecap:round;stroke-linejoin:round"
         d="M 6.3499994 1.8520791 A 4.4979177 4.4979134 0 0 0 1.8520825 6.349996 A 4.4979177 4.4979134 0 0 0 1.8560357 6.4624439 A 4.4979177 4.4979134 0 0 1 6.3499994 2.076975 A 4.4979177 4.4979134 0 0 1 10.845281 6.4281824 A 4.4979177 4.4979134 0 0 0 10.847916 6.349996 A 4.4979177 4.4979134 0 0 0 6.3499994 1.8520791 z " />
    </g>
    <g
       id="googlechrome-48"
       transform="matrix(3.5572023,0,0,3.5572023,394.41921,197.54577)">
      <ellipse
         style="opacity:0.2;fill:#000000;fill-opacity:1;stroke-width:1.4056;stroke-linecap:round;stroke-linejoin:round"
         id="path4231"
         cx="6.3500018"
         cy="6.6311135"
         rx="4.4979167"
         ry="4.4979134" />
      <path
         d="m 6.3499908,1.8520833 c -1.6648002,0 -3.1172325,0.9051142 -3.8949803,2.2495046 L 2.6017322,6.7248018 4.4023011,7.4744838 6.3499908,6.3500302 V 4.1010567 H 10.244704 C 9.4668234,2.7569983 8.014591,1.8520833 6.3499908,1.8520833 Z"
         style="fill:#dd4d3e;fill-opacity:1;stroke-width:0.0175699"
         id="path1309-8" />
      <path
         d="m 1.8521097,6.3500302 c 0,2.4841174 2.013697,4.4978798 4.4978805,4.4978798 L 8.322717,9.7933342 8.2976798,7.4744838 6.3499902,6.3500302 4.4023011,7.4744838 2.4550101,4.1015879 C 2.0722656,4.7632044 1.8520833,5.5305796 1.8520833,6.3499639"
         style="fill:#109f5b;fill-opacity:1;stroke-width:0.0175699"
         id="path1449-4"
         sodipodi:nodetypes="cccccccc" />
      <path
         d="m 6.3500375,6.3500302 1.947689,1.1244536 -1.947689,3.3734262 c 2.4841163,0 4.4978795,-2.0137624 4.4978795,-4.4978798 0,-0.819517 -0.220254,-1.5871712 -0.603213,-2.2489735 H 6.3499908 Z"
         style="fill:#ffce41;stroke-width:0.0175699;fill-opacity:1"
         id="path1829-5" />
      <ellipse
         style="opacity:0.2;fill:#000000;fill-opacity:1;stroke-width:1.4056;stroke-linecap:round;stroke-linejoin:round"
         id="path4233"
         cx="6.3500013"
         cy="6.6311321"
         rx="2.2489583"
         ry="2.2489734" />
      <path
         d="m 8.5990112,6.3500302 c 0,1.2420585 -1.0069151,2.2489734 -2.2489737,2.2489734 -1.242059,0 -2.2489739,-1.0069149 -2.2489739,-2.2489734 0,-1.2420588 1.0069149,-2.2489735 2.2489739,-2.2489735 1.2420586,0 2.2489737,1.0069147 2.2489737,2.2489735"
         style="fill:#ffffff;stroke-width:0.0175699"
         id="path2229-0" />
      <path
         d="m 8.0367562,6.3500305 c 0,0.9315358 -0.7551839,1.6867176 -1.6867188,1.6867176 -0.9315358,0 -1.6867189,-0.7551818 -1.6867189,-1.6867176 0,-0.9315354 0.7551831,-1.6867184 1.6867189,-1.6867184 0.9315349,0 1.6867188,0.755183 1.6867188,1.6867184"
         style="fill:#4688f4;fill-opacity:1;stroke-width:0.0162182"
         id="path2029-3" />
      <path
         id="path4235"
         style="opacity:0.2;fill:#ffffff;fill-opacity:1;stroke-width:1.4056;stroke-linecap:round;stroke-linejoin:round"
         d="M 6.3500015 1.8520805 A 4.4979167 4.4979134 0 0 0 1.8520847 6.3499973 A 4.4979167 4.4979134 0 0 0 1.8575753 6.4905572 A 4.4979167 4.4979134 0 0 1 6.3500015 2.1332003 A 4.4979167 4.4979134 0 0 1 10.844075 6.4515738 A 4.4979167 4.4979134 0 0 0 10.847918 6.3499973 A 4.4979167 4.4979134 0 0 0 6.3500015 1.8520805 z " />
    </g>
    <g
       id="googlechrome-32"
       transform="matrix(2.2232514,0,0,2.2232514,522.8898,30.016356)">
      <ellipse
         style="opacity:0.2;fill:#000000;fill-opacity:1;stroke-width:2.24896;stroke-linecap:round;stroke-linejoin:round"
         id="path4267"
         cx="6.3499999"
         cy="6.7997847"
         rx="4.4979167"
         ry="4.4979134" />
      <path
         d="m 6.3499908,1.8520833 c -1.6648002,0 -3.1172325,0.9051142 -3.8949803,2.2495046 L 2.6017322,6.7248018 4.4023011,7.4744838 6.3499908,6.3500302 V 4.1010567 H 10.244704 C 9.4668234,2.7569983 8.014591,1.8520833 6.3499908,1.8520833 Z"
         style="fill:#dd4d3e;fill-opacity:1;stroke-width:0.0175699"
         id="path1309-74" />
      <path
         d="m 1.8521097,6.3500302 c 0,2.4841174 2.013697,4.4978798 4.4978805,4.4978798 L 8.322717,9.7933342 8.2976798,7.4744838 6.3499902,6.3500302 4.4023011,7.4744838 2.4550101,4.1015879 C 2.0722656,4.7632044 1.8520833,5.5305796 1.8520833,6.3499639"
         style="fill:#109f5b;fill-opacity:1;stroke-width:0.0175699"
         id="path1449-5"
         sodipodi:nodetypes="cccccccc" />
      <path
         d="m 6.3500375,6.3500302 1.947689,1.1244536 -1.947689,3.3734262 c 2.4841163,0 4.4978795,-2.0137624 4.4978795,-4.4978798 0,-0.819517 -0.220254,-1.5871712 -0.603213,-2.2489735 H 6.3499908 Z"
         style="fill:#ffce41;stroke-width:0.0175699;fill-opacity:1"
         id="path1829-25" />
      <ellipse
         style="opacity:0.2;fill:#000000;fill-opacity:1;stroke-width:2.24896;stroke-linecap:round;stroke-linejoin:round"
         id="path4265"
         cx="6.3500013"
         cy="6.7998033"
         rx="2.2489583"
         ry="2.2489734" />
      <path
         d="m 8.5990112,6.3500302 c 0,1.2420585 -1.0069151,2.2489734 -2.2489737,2.2489734 -1.242059,0 -2.2489739,-1.0069149 -2.2489739,-2.2489734 0,-1.2420588 1.0069149,-2.2489735 2.2489739,-2.2489735 1.2420586,0 2.2489737,1.0069147 2.2489737,2.2489735"
         style="fill:#ffffff;stroke-width:0.0175699"
         id="path2229-4" />
      <path
         d="m 8.1492041,6.3500006 c 0,0.9936381 -0.8055294,1.7991654 -1.7991667,1.7991654 -0.9936381,0 -1.7991668,-0.8055273 -1.7991668,-1.7991654 0,-0.9936377 0.8055287,-1.7991663 1.7991668,-1.7991663 0.9936373,0 1.7991667,0.8055286 1.7991667,1.7991663"
         style="fill:#4688f4;fill-opacity:1;stroke-width:0.0172995"
         id="path2029-74" />
      <path
         id="path4269"
         style="opacity:0.2;fill:#ffffff;fill-opacity:1;stroke-width:2.24896;stroke-linecap:round;stroke-linejoin:round"
         d="M 6.3500016 1.8520798 A 4.4979167 4.4979134 0 0 0 1.8520847 6.3499967 A 4.4979167 4.4979134 0 0 0 1.8635052 6.5748925 A 4.4979167 4.4979134 0 0 1 6.3500016 2.3018715 A 4.4979167 4.4979134 0 0 1 10.839134 6.5221826 A 4.4979167 4.4979134 0 0 0 10.847919 6.3499967 A 4.4979167 4.4979134 0 0 0 6.3500016 1.8520798 z " />
    </g>
    <g
       id="googlechrome-24"
       transform="matrix(1.7786011,0,0,1.7786011,521.71333,76.839885)">
      <ellipse
         style="opacity:0.2;fill:#000000;fill-opacity:1;stroke-width:2.8112;stroke-linecap:round;stroke-linejoin:round"
         id="path4349"
         cx="6.3500075"
         cy="6.631114"
         rx="4.4979162"
         ry="4.4979153" />
      <path
         d="m 6.3499908,1.8520833 c -1.6648002,0 -3.1172325,0.9051142 -3.8949803,2.2495046 L 2.6017322,6.7248018 4.4023011,7.4744838 6.3499908,6.3500302 V 4.1010567 H 10.244704 C 9.4668234,2.7569983 8.014591,1.8520833 6.3499908,1.8520833 Z"
         style="fill:#dd4d3e;fill-opacity:1;stroke-width:0.0175699"
         id="path1309-8-6" />
      <path
         d="m 1.8521097,6.3500302 c 0,2.4841174 2.013697,4.4978798 4.4978805,4.4978798 L 8.322717,9.7933342 8.2976798,7.4744838 6.3499902,6.3500302 4.4023011,7.4744838 2.4550101,4.1015879 C 2.0722656,4.7632044 1.8520833,5.5305796 1.8520833,6.3499639"
         style="fill:#109f5b;fill-opacity:1;stroke-width:0.0175699"
         id="path1449-4-1"
         sodipodi:nodetypes="cccccccc" />
      <path
         d="m 6.3500375,6.3500302 1.947689,1.1244536 -1.947689,3.3734262 c 2.4841163,0 4.4978795,-2.0137624 4.4978795,-4.4978798 0,-0.819517 -0.220254,-1.5871712 -0.603213,-2.2489735 H 6.3499908 Z"
         style="fill:#ffce41;stroke-width:0.0175699;fill-opacity:1"
         id="path1829-5-5" />
      <ellipse
         style="opacity:0.2;fill:#000000;fill-opacity:1;stroke-width:2.8112;stroke-linecap:round;stroke-linejoin:round"
         id="path4351"
         cx="6.3500018"
         cy="6.6311312"
         rx="2.2489583"
         ry="2.2489736" />
      <path
         d="m 8.5990112,6.3500302 c 0,1.2420585 -1.0069151,2.2489734 -2.2489737,2.2489734 -1.242059,0 -2.2489739,-1.0069149 -2.2489739,-2.2489734 0,-1.2420588 1.0069149,-2.2489735 2.2489739,-2.2489735 1.2420586,0 2.2489737,1.0069147 2.2489737,2.2489735"
         style="fill:#ffffff;stroke-width:0.0175699"
         id="path2229-0-5" />
      <path
         d="m 8.0367562,6.3500305 c 0,0.9315358 -0.7551839,1.6867176 -1.6867188,1.6867176 -0.9315358,0 -1.6867189,-0.7551818 -1.6867189,-1.6867176 0,-0.9315354 0.7551831,-1.6867184 1.6867189,-1.6867184 0.9315349,0 1.6867188,0.755183 1.6867188,1.6867184"
         style="fill:#4688f4;fill-opacity:1;stroke-width:0.0162182"
         id="path2029-3-4" />
      <path
         id="path4319"
         style="opacity:0.2;fill:#ffffff;fill-opacity:1;stroke-width:2.8112;stroke-linecap:round;stroke-linejoin:round"
         d="M 6.3500017 1.8520791 A 4.4979172 4.4979134 0 0 0 1.8520848 6.3499961 A 4.4979172 4.4979134 0 0 0 1.8597716 6.490556 A 4.4979172 4.4979134 0 0 1 6.3500017 2.133199 A 4.4979172 4.4979134 0 0 1 10.843526 6.4345516 A 4.4979172 4.4979134 0 0 0 10.847919 6.3499961 A 4.4979172 4.4979134 0 0 0 6.3500017 1.8520791 z " />
    </g>
    <g
       id="googlechrome-16"
       transform="translate(521.00749,116.13404)">
      <ellipse
         style="opacity:0.2;fill:#000000;fill-opacity:1;stroke-width:5;stroke-linecap:round;stroke-linejoin:round"
         id="path4407"
         cx="7.9999504"
         cy="8.4999552"
         rx="5.9999995"
         ry="6" />
      <path
         d="m 7.9999504,1.9999601 c -2.2207617,0 -4.1582349,1.2073779 -5.1957123,3.0007286 L 2.9999576,8.4999271 5.4018281,9.4999659 7.9999504,8.0000002 V 4.9999801 h 5.1953556 c -1.037655,-1.7929078 -2.974862,-3.00002 -5.1953556,-3.00002 z"
         style="fill:#dd4d3e;fill-opacity:1;stroke-width:0.0234374"
         id="path1309-88" />
      <path
         d="m 1.9999981,8.0000002 c 0,3.3136918 2.6861727,5.9999518 5.9999515,5.9999518 L 10.63147,12.593199 10.598071,9.4999659 7.9999496,8.0000002 5.4018281,9.4999659 2.8042376,5.0006887 C 2.2936753,5.8832525 1.9999629,6.9068933 1.9999629,7.9999118"
         style="fill:#109f5b;fill-opacity:1;stroke-width:0.0234374"
         id="path1449-43"
         sodipodi:nodetypes="cccccccc" />
      <path
         d="M 8.0000126,8.0000002 10.598134,9.4999659 8.0000126,13.999952 c 3.3136884,0 5.9999494,-2.68626 5.9999494,-5.9999518 0,-1.0931954 -0.293808,-2.1172083 -0.804656,-3.0000201 H 7.9999504 Z"
         style="fill:#ffce41;stroke-width:0.0234374;fill-opacity:1"
         id="path1829-1" />
      <circle
         style="opacity:0.2;fill:#000000;fill-opacity:1;stroke-width:5;stroke-linecap:round;stroke-linejoin:round"
         id="path4405"
         cx="8.000021"
         cy="8.4999752"
         r="3.00002" />
      <path
         d="m 11.000032,8.0000002 c 0,1.6568447 -1.3431743,3.0000198 -3.0000194,3.0000198 -1.6568457,0 -3.0000206,-1.3431751 -3.0000206,-3.0000198 0,-1.6568454 1.343175,-3.0000201 3.0000206,-3.0000201 1.6568451,0 3.0000194,1.3431747 3.0000194,3.0000201"
         style="fill:#ffffff;stroke-width:0.0234374"
         id="path2229-49" />
      <path
         d="m 10.000012,8.0000006 c 0,1.1045537 -0.8954468,1.9999982 -1.9999995,1.9999982 -1.1045537,0 -2.0000001,-0.8954445 -2.0000001,-1.9999982 0,-1.1045531 0.8954464,-1.9999994 2.0000001,-1.9999994 1.1045527,0 1.9999995,0.8954463 1.9999995,1.9999994"
         style="fill:#4688f4;fill-opacity:1;stroke-width:0.0192305"
         id="path2029-20" />
      <path
         id="path4409"
         style="opacity:0.2;fill:#ffffff;fill-opacity:1;stroke-width:5;stroke-linecap:round;stroke-linejoin:round"
         d="M 7.99996 1.999955 A 6.0000057 5.9999962 0 0 0 1.99996 7.999955 A 6.0000057 5.9999962 0 0 0 2.0175381 8.249955 A 6.0000057 5.9999962 0 0 1 7.99996 2.499955 A 6.0000057 5.9999962 0 0 1 13.988241 8.1581581 A 6.0000057 5.9999962 0 0 0 13.99996 7.999955 A 6.0000057 5.9999962 0 0 0 7.99996 1.999955 z " />
    </g>
  </g>
  <g
     id="Highlights">
    <path
       id="rect653"
       style="opacity:0.5;fill:#ffffff"
       d="M 80,44 C 53.408027,44 32,65.408027 32,92 v 2 C 32,67.408027 53.408027,46 80,46 h 128 c 26.59197,0 48,21.408027 48,48 V 92 C 256,65.408027 234.59197,44 208,44 Z"
       sodipodi:nodetypes="sscsscsss" />
    <path
       id="rect773"
       style="opacity:0.5;fill:#ffffff"
       d="m 312,34 c -9.97199,0 -18,8.02801 -18,18 v 1 c 0,-9.97199 8.02801,-18 18,-18 h 48 c 9.97199,0 18,8.02801 18,18 v -1 c 0,-9.97199 -8.02801,-18 -18,-18 z" />
    <path
       id="rect1135"
       style="opacity:0.5;fill:#ffffff;fill-opacity:1"
       d="m 304,144 c -6.64799,0 -12,5.35201 -12,12 v 1 c 0,-6.64799 5.35201,-12 12,-12 h 32 c 6.64799,0 12,5.35201 12,12 v -1 c 0,-6.64799 -5.35201,-12 -12,-12 z" />
    <path
       id="rect1265"
       style="opacity:0.5;fill:#ffffff;fill-opacity:1"
       d="m 300,223 c -4.986,0 -9,4.014 -9,9 v 1 c 0,-4.986 4.014,-9 9,-9 h 24 c 4.986,0 9,4.014 9,9 v -1 c 0,-4.986 -4.014,-9 -9,-9 z" />
    <path
       id="rect1368"
       style="opacity:0.5;fill:#ffffff;fill-opacity:1"
       d="m 424,54 c -3.324,0 -6,2.676003 -6,6 v 1 c 0,-3.323997 2.676,-6 6,-6 h 16 c 3.324,0 6,2.676003 6,6 v -1 c 0,-3.323997 -2.676,-6 -6,-6 z" />
    <path
       id="rect1402"
       style="opacity:0.5;fill:#ffffff;fill-opacity:1"
       d="m 420,140 c -2.216,0 -4,1.784 -4,4 v 1 c 0,-2.216 1.784,-4 4,-4 h 8 c 2.216,0 4,1.784 4,4 v -1 c 0,-2.216 -1.784,-4 -4,-4 z" />
    <path
       id="rect1436"
       style="opacity:0.5;fill:#ffffff;fill-opacity:1"
       d="m 422,102 c -2.216,0 -4,1.784 -4,4 v 1 c 0,-2.216 1.784,-4 4,-4 h 12 c 2.216,0 4,1.784 4,4 v -1 c 0,-2.216 -1.784,-4 -4,-4 z" />
  </g>
</svg>
