<?xml version="1.0" encoding="UTF-8" standalone="no"?>
<!-- Created with Inkscape (http://www.inkscape.org/) -->

<svg
   width="480"
   height="300"
   viewBox="0 0 480 300"
   version="1.1"
   id="svg5"
   inkscape:version="1.2.2 (1:1.2.2+202305151914+b0a8486541)"
   sodipodi:docname="heroic.svg"
   xmlns:inkscape="http://www.inkscape.org/namespaces/inkscape"
   xmlns:sodipodi="http://sodipodi.sourceforge.net/DTD/sodipodi-0.dtd"
   xmlns="http://www.w3.org/2000/svg"
   xmlns:svg="http://www.w3.org/2000/svg">
  <sodipodi:namedview
     id="namedview7"
     pagecolor="#888888"
     bordercolor="#000000"
     borderopacity="0.25"
     inkscape:showpageshadow="true"
     inkscape:pageopacity="0"
     inkscape:pagecheckerboard="0"
     inkscape:deskcolor="#888888"
     inkscape:document-units="px"
     showgrid="false"
     showborder="false"
     inkscape:zoom="2.6791667"
     inkscape:cx="240"
     inkscape:cy="150.04666"
     inkscape:window-width="1920"
     inkscape:window-height="1008"
     inkscape:window-x="0"
     inkscape:window-y="0"
     inkscape:window-maximized="1"
     inkscape:current-layer="svg5" />
  <defs
     id="defs2" />
  <g
     id="Baseplate"
     style="display:none">
    <text
       y="19.774782"
       xml:space="preserve"
       x="15.006946"
       style="font-style:normal;font-variant:normal;font-weight:normal;font-stretch:normal;line-height:0%;font-family:'DejaVu Sans';-inkscape-font-specification:'DejaVu Sans';display:inline;fill:#000000;fill-opacity:1;stroke:none;enable-background:new"
       inkscape:label="context"
       id="context"><tspan
         style="font-style:normal;font-variant:normal;font-weight:normal;font-stretch:normal;font-size:18px;line-height:1.25;font-family:'DejaVu Sans';-inkscape-font-specification:'DejaVu Sans'"
         y="19.774782"
         x="15.006946"
         sodipodi:role="line"
         id="tspan3933">apps</tspan></text>
    <text
       y="19.774782"
       xml:space="preserve"
       x="122.48839"
       style="font-style:normal;font-variant:normal;font-weight:bold;font-stretch:normal;line-height:0%;font-family:'DejaVu Sans';-inkscape-font-specification:'DejaVu Sans Bold';text-align:start;writing-mode:lr-tb;text-anchor:start;display:inline;fill:#000000;fill-opacity:1;stroke:none;enable-background:new"
       inkscape:label="icon-name"
       id="icon-name"><tspan
         style="font-style:normal;font-variant:normal;font-weight:bold;font-stretch:normal;font-size:18px;line-height:1.25;font-family:'DejaVu Sans';-inkscape-font-specification:'DejaVu Sans Bold'"
         y="19.774782"
         x="122.48839"
         sodipodi:role="line"
         id="tspan3937">heroic</tspan></text>
    <rect
       style="fill:#ffffff"
       id="256x256"
       width="256"
       height="256"
       x="16"
       y="28" />
    <rect
       style="fill:#ffffff"
       id="96x96"
       width="96"
       height="96"
       x="288"
       y="28" />
    <rect
       style="fill:#ffffff"
       id="64x64"
       width="64"
       height="64"
       x="288"
       y="140" />
    <rect
       style="fill:#ffffff"
       id="48x48"
       width="48"
       height="48"
       x="288"
       y="220" />
    <rect
       style="fill:#ffffff"
       id="32x32"
       width="32"
       height="32"
       x="416"
       y="52" />
    <rect
       style="fill:#ffffff"
       id="24x24"
       width="24"
       height="24"
       x="416"
       y="100" />
    <rect
       style="fill:#ffffff"
       id="22x22"
       width="22"
       height="22"
       x="417"
       y="101" />
    <rect
       style="fill:#ffffff"
       id="16x16"
       width="16"
       height="16"
       x="416"
       y="140" />
  </g>
  <g
     id="Shadow">
    <rect
       style="opacity:0.2;fill:#000000"
       id="rect651"
       width="224"
       height="224"
       x="32"
       y="46"
       ry="48" />
    <rect
       style="opacity:0.2;fill:#000000"
       id="rect769"
       width="84"
       height="85"
       x="294"
       y="34"
       ry="18" />
    <rect
       style="opacity:0.2;fill:#000000;fill-opacity:1"
       id="rect1131"
       width="56"
       height="56"
       x="292"
       y="145"
       ry="12" />
    <rect
       style="opacity:0.2;fill:#000000;fill-opacity:1"
       id="rect1261"
       width="42"
       height="42"
       x="291"
       y="224"
       ry="9" />
    <rect
       style="opacity:0.2;fill:#000000;fill-opacity:1"
       id="rect1364"
       width="28"
       height="29"
       x="418"
       y="54"
       ry="6" />
    <rect
       style="opacity:0.2;fill:#000000;fill-opacity:1"
       id="rect1398"
       width="16"
       height="16"
       x="416"
       y="141"
       ry="4" />
    <rect
       style="opacity:0.2;fill:#000000;fill-opacity:1"
       id="rect1432"
       width="20"
       height="20"
       x="418"
       y="103"
       ry="4" />
  </g>
  <g
     id="Background">
    <rect
       style="fill:#424242;fill-opacity:1"
       id="rect597"
       width="224"
       height="224"
       x="32"
       y="44"
       ry="48" />
    <rect
       style="opacity:1;fill:#424242;fill-opacity:1"
       id="rect771"
       width="84"
       height="84"
       x="294"
       y="34"
       ry="18" />
    <rect
       style="opacity:1;fill:#424242;fill-opacity:1"
       id="rect1133"
       width="56"
       height="56"
       x="292"
       y="144"
       ry="12" />
    <rect
       style="opacity:1;fill:#424242;fill-opacity:1"
       id="rect1263"
       width="42"
       height="42"
       x="291"
       y="223"
       ry="9" />
    <rect
       style="opacity:1;fill:#424242;fill-opacity:1"
       id="rect1366"
       width="28"
       height="28"
       x="418"
       y="54"
       ry="6" />
    <rect
       style="opacity:1;fill:#424242;fill-opacity:1"
       id="rect1400"
       width="16"
       height="16"
       x="416"
       y="140"
       ry="4" />
    <rect
       style="opacity:1;fill:#424242;fill-opacity:1"
       id="rect1434"
       width="20"
       height="20"
       x="418"
       y="102"
       ry="4" />
  </g>
  <g
     id="g2545">
    <g
       id="g2519"
       transform="translate(-93.03472,19.17534)">
      <path
         d="m 517.03472,123.32466 -5,1.64871 2.5544,8.92716 2.4456,1.92413 2.4456,-1.92413 2.5544,-8.92716 z"
         style="opacity:0.2;fill:#000000"
         id="path2443" />
      <path
         d="m 517.03472,122.82466 -5,1.64871 2.5544,8.92716 2.4456,1.92413 2.4456,-1.92413 2.5544,-8.92716 z"
         style="fill:#14d5ff;fill-opacity:1"
         id="path2303"
         sodipodi:nodetypes="ccccccc" />
      <path
         d="m 517.03046,124.25266 -1.08665,1.35937 0.54688,6.33452 0.54332,0.66974 0.54048,-0.66477 0.55114,-6.33806 z m -1.7706,8 -0.22514,0.54332 0.22869,0.54759 1.16904,-0.20668 0.23863,-0.33949 -0.23863,-0.34091 z m 3.54972,0 -1.17259,0.20383 -0.23863,0.34091 0.23863,0.33949 1.16904,0.20668 0.22869,-0.54759 z m -1.77344,0.90909 -0.3402,0.23864 -0.20667,1.16974 0.54758,0.22798 0.54332,-0.22514 -0.20454,-1.17258 z"
         style="opacity:0.2;fill:#000000"
         id="path2415" />
      <path
         d="m 517.03046,123.75221 -1.08665,1.35937 0.54688,6.33452 0.54332,0.66974 0.54048,-0.66477 0.55114,-6.33807 z m -1.7706,7.99999 -0.22514,0.54333 0.22869,0.54759 1.16904,-0.20668 0.23863,-0.33949 -0.23863,-0.34091 z m 3.54972,0 -1.17259,0.20384 -0.23863,0.34091 0.23863,0.33949 1.16904,0.20668 0.22869,-0.54759 z m -1.77344,0.9091 -0.3402,0.23863 -0.20667,1.16975 0.54758,0.22798 0.54332,-0.22514 -0.20454,-1.17259 z"
         style="fill:#4f4f4f;fill-opacity:1"
         id="path2331"
         sodipodi:nodetypes="cccccccccccccccccccccccccccc" />
      <path
         id="path2359"
         style="opacity:0.1;fill:#ffffff"
         d="m 517.03081,123.75239 -1.08789,1.35938 0.0391,0.45117 1.04882,-1.31055 1.05664,1.3125 0.0391,-0.45117 z m -1.77148,8 -0.22461,0.54297 0.10352,0.24805 0.12109,-0.29102 1.17383,0.20313 0.0644,0.0918 0.17383,-0.25 -0.23828,-0.3418 z m 3.55078,0 -1.17383,0.20313 -0.23828,0.3418 0.17383,0.25 0.0645,-0.0918 1.17383,-0.20313 0.12109,0.29102 0.10352,-0.24805 z m -1.77344,0.90821 -0.33984,0.24023 -0.20703,1.16797 0.082,0.0352 0.125,-0.70312 0.33984,-0.23829 0.33985,0.23829 0.12304,0.70507 0.0801,-0.0332 -0.20312,-1.17187 z" />
    </g>
    <g
       id="g3127">
      <path
         d="m 428,105 -6.5,2.11035 3.32071,11.42676 L 428,121 431.17928,118.53711 434.5,107.11035 Z"
         style="opacity:0.2;fill:#000000;stroke-width:1"
         id="path2722" />
      <path
         d="m 428,104.5 -6.5,2.11035 3.32071,11.42676 L 428,120.5 431.17928,118.03711 434.5,106.61035 Z"
         style="fill:#14d5ff;stroke-width:1;fill-opacity:1"
         id="path2694"
         sodipodi:nodetypes="ccccccc" />
      <path
         d="m 427.99459,105.5 -1.62997,1.86914 0.82031,8.70996 0.81498,0.9209 0.81073,-0.91406 0.8267,-8.71485 z m -2.6559,11 -0.33771,0.74707 0.34304,0.75293 1.75355,-0.28418 0.35796,-0.4668 -0.35796,-0.46875 z m 5.32458,0 -1.75889,0.28027 -0.35795,0.46875 0.35795,0.4668 1.75356,0.28418 0.34304,-0.75293 z m -2.66016,1.25 -0.5103,0.32813 -0.31001,1.60839 0.82138,0.31348 0.81498,-0.30957 -0.30682,-1.6123 z"
         style="opacity:0.2;fill:#000000;stroke-width:1.04447"
         id="path2750" />
      <path
         d="m 427.99459,105 -1.62997,1.86914 0.82031,8.70996 0.81498,0.9209 0.81073,-0.91406 0.8267,-8.71485 z m -2.6559,11 -0.33771,0.74707 0.34304,0.75293 1.75355,-0.28418 0.35796,-0.4668 -0.35796,-0.46875 z m 5.32458,0 -1.75889,0.28027 -0.35795,0.46875 0.35795,0.4668 1.75356,0.28418 0.34304,-0.75293 z m -2.66016,1.25 -0.5103,0.32813 -0.31001,1.60839 0.82138,0.31348 0.81498,-0.30957 -0.30682,-1.6123 z"
         style="fill:#4f4f4f;stroke-width:1.04447;fill-opacity:1"
         id="path2778" />
      <path
         d="m 427.99361,105 -1.62997,1.86914 0.0426,0.45117 1.58736,-1.82031 1.60015,1.82227 0.0426,-0.45118 z m -2.65483,11 -0.33878,0.74609 0.11293,0.25 0.22585,-0.49609 1.75782,0.28125 0.16619,0.2168 0.19176,-0.25 -0.35795,-0.4668 z m 5.32458,0 -1.75995,0.28125 -0.35796,0.4668 0.19176,0.25 0.1662,-0.2168 1.75995,-0.28125 0.22372,0.49414 L 431,116.74609 Z m -2.66122,1.25 -0.50924,0.32813 -0.31108,1.60742 0.0894,0.0352 0.2216,-1.14258 0.50924,-0.32813 0.50922,0.32813 0.21733,1.14453 0.0895,-0.0332 -0.30682,-1.61133 z"
         style="opacity:0.2;fill:#ffffff;stroke-width:1.04447"
         id="path2806" />
    </g>
    <g
       id="g3163">
      <path
         d="m 432,58 -9,2.901734 4.59791,15.711791 L 432,80 436.40209,76.613525 441,60.901734 Z"
         style="opacity:0.2;fill:#000000"
         id="path3052" />
      <path
         d="m 432,57 -9,2.901733 4.59791,15.711792 L 432,79 436.40209,75.613525 441,59.901733 Z"
         style="fill:#14d5ff;fill-opacity:1"
         id="path3024" />
      <path
         d="M 431.99219,59 430,61.599609 431.00195,73.71875 431.99805,75 432.99023,73.728516 434,61.603515 Z M 428.41211,74 428,74.996094 428.41992,76 430.5625,75.621094 431,74.998047 l -0.4375,-0.625 z m 7.07422,0 -2.14844,0.373047 -0.4375,0.625 0.4375,0.623047 2.14258,0.378906 0.41992,-1.003906 z m -3.48438,2 -0.62304,0.4375 L 431,78.582031 432.00391,79 433,78.587891 432.625,76.4375 Z"
         style="opacity:0.2;fill:#000000"
         id="path3080" />
      <path
         style="fill:#4f4f4f;fill-opacity:1"
         d="M 431.99219,58 430,60.599609 431.00195,72.71875 431.99805,74 432.99023,72.728516 434,60.603516 Z M 428.41211,73 428,73.996094 428.41992,75 430.5625,74.621094 431,73.998047 l -0.4375,-0.625 z m 7.07422,0 -2.14844,0.373047 -0.4375,0.625 0.4375,0.623047 2.14258,0.378906 0.41992,-1.003906 z m -3.48438,2 -0.62304,0.4375 L 431,77.582031 432.00391,78 433,77.587891 432.625,75.4375 Z"
         id="path2887" />
      <path
         style="opacity:0.2;fill:#ffffff"
         d="M 431.99219,58 430,60.599609 430.0742,61.501953 431.99217,59 l 1.93359,2.505859 0.0742,-0.902343 z M 428.41211,73 428,73.996094 428.20703,74.494141 428.41211,74 l 2.15039,0.373047 0.0879,0.125 0.34961,-0.5 -0.4375,-0.625 z m 7.07422,0 -2.14844,0.373047 -0.4375,0.625 0.34961,0.5 0.0879,-0.125 L 435.48634,74 l 0.20508,0.494141 0.20898,-0.498047 z m -3.48438,2 -0.62304,0.4375 -0.37891,2.144531 0.16406,0.06836 0.21485,-1.212891 0.62304,-0.4375 0.62305,0.4375 0.21289,1.216797 0.16211,-0.06641 -0.375,-2.150391 z"
         id="path2889" />
    </g>
    <g
       id="g3475">
      <path
         d="m 312,229 -13,4.2207 6.64143,22.85352 L 312,261 318.35857,256.07422 325,233.2207 Z"
         style="fill:#000000;opacity:0.2"
         id="path3383"
         sodipodi:nodetypes="ccccccc" />
      <path
         d="m 312,228 -13,4.2207 6.64143,22.85352 L 312,260 318.35857,255.07422 325,232.2207 Z"
         style="fill:#14d5ff;fill-opacity:1"
         id="path3411"
         sodipodi:nodetypes="ccccccc" />
      <path
         style="opacity:0.2;fill:#000000"
         d="M 311.98828,230 309,233.73828 310.50391,251.1582 311.99805,253 313.48438,251.17187 315,233.74219 Z m -4.86914,22 -0.61914,1.49414 0.62891,1.50586 3.21484,-0.56836 0.65625,-0.93359 -0.65625,-0.9375 z m 9.76172,0 -3.22461,0.56055 -0.65625,0.9375 0.65625,0.93359 L 316.87109,255 317.5,253.49414 Z m -4.87695,2.5 -0.93555,0.65625 -0.56836,3.2168 1.50586,0.62695 1.49414,-0.61914 -0.5625,-3.22461 z"
         id="path3246" />
      <path
         style="fill:#4f4f4f;fill-opacity:1"
         d="M 311.98828,229 309,232.73828 310.50391,250.1582 311.99805,252 313.48438,250.17187 315,232.74219 Z m -4.86914,22 -0.61914,1.49414 0.62891,1.50586 3.21484,-0.56836 0.65625,-0.93359 -0.65625,-0.9375 z m 9.76172,0 -3.22461,0.56055 -0.65625,0.9375 0.65625,0.93359 L 316.87109,254 317.5,252.49414 Z m -4.87695,2.5 -0.93555,0.65625 -0.56836,3.2168 1.50586,0.62695 1.49414,-0.61914 -0.5625,-3.22461 z"
         id="path3248"
         sodipodi:nodetypes="cccccccccccccccccccccccccccc" />
      <path
         style="opacity:0.2;fill:#ffffff"
         d="M 311.98828,229 309,232.73828 l 0.0781,0.90234 2.91015,-3.64062 2.9336,3.64453 0.0781,-0.90234 z m -4.86914,22 -0.61914,1.49414 0.20703,0.49805 0.41211,-0.99219 3.22461,0.56055 0.30469,0.43554 0.35156,-0.49804 -0.65625,-0.9375 z m 9.76172,0 -3.22461,0.56055 -0.65625,0.9375 0.35156,0.49804 0.30469,-0.43554 3.22461,-0.56055 0.41211,0.99219 0.20703,-0.49805 z m -4.87695,2.5 -0.93555,0.65625 -0.56836,3.2168 0.16406,0.0684 0.4043,-2.28516 0.93555,-0.65625 0.93359,0.65625 0.40039,2.29297 0.16211,-0.0684 -0.5625,-3.22461 z"
         id="path3250" />
    </g>
    <g
       id="g1763">
      <path
         d="m 320,151 -18,5.80347 9.19583,31.42359 8.80417,6.77295 8.80417,-6.77295 L 338,156.80347 Z"
         style="opacity:0.2;fill:#000000"
         id="path1710"
         sodipodi:nodetypes="ccccccc" />
      <path
         d="m 320,150 -18,5.80347 9.19583,31.42359 8.80417,6.77295 8.80417,-6.77295 L 338,155.80347 Z"
         style="fill:#14d5ff;fill-opacity:1"
         id="path359"
         sodipodi:nodetypes="ccccccc" />
      <path
         d="M 319.98438,152 316,157.19922 l 2.00391,24.23828 1.99218,2.5625 1.98438,-2.54297 2.01953,-24.25 z M 312.82422,182 312,183.99219 312.83984,186 l 4.28516,-0.75781 0.875,-1.2461 -0.875,-1.25 z m 14.14844,0 -4.29688,0.74609 -0.875,1.25 0.875,1.24611 4.28516,0.75781 0.83984,-2.00781 z m -6.96875,4 -1.2461,0.875 L 318,191.16406 320.00781,192 322,191.17578 321.25,186.875 Z"
         style="opacity:0.2;fill:#000000"
         id="path1738"
         sodipodi:nodetypes="cccccccccccccccccccccccccccc" />
      <path
         d="M 319.98438,151 316,156.19922 l 2.00391,24.23828 1.99218,2.5625 1.98438,-2.54297 2.01953,-24.25 z M 312.82422,181 312,182.99219 312.83984,185 l 4.28516,-0.75781 0.875,-1.2461 -0.875,-1.25 z m 14.14844,0 -4.29688,0.74609 -0.875,1.25 0.875,1.24611 4.28516,0.75781 0.83984,-2.00781 z m -6.96875,4 -1.2461,0.875 L 318,190.16406 320.00781,191 322,190.17578 321.25,185.875 Z"
         style="fill:#4f4f4f;fill-opacity:1"
         id="path493"
         sodipodi:nodetypes="cccccccccccccccccccccccccccc" />
      <path
         d="M 319.98437,151 316,156.19922 l 0.0742,0.90234 3.91015,-5.10156 3.94141,5.11133 0.0742,-0.9043 z m -7.16015,30 -0.82422,1.99219 0.20703,0.49804 0.61719,-1.49023 4.30078,0.74609 0.52539,0.75 0.34961,-0.5 -0.875,-1.25 z m 14.14843,0 -4.29687,0.74609 -0.875,1.25 0.34961,0.5 0.52539,-0.75 4.29687,-0.74609 0.61915,1.49023 0.20898,-0.49804 z m -6.96875,4 -1.24609,0.875 -0.75781,4.28906 0.16406,0.0684 0.59375,-3.35742 1.24609,-0.875 1.2461,0.875 0.58789,3.36719 0.16211,-0.0664 -0.75,-4.30078 z"
         style="opacity:0.2;fill:#ffffff"
         id="path569"
         sodipodi:nodetypes="cccccccccccccccccccccccccccccccccccc" />
    </g>
    <g
       id="g3571">
      <path
         d="M 336,45 310,53.4414 323.28286,99.14844 336,109 348.71714,99.14844 362,53.4414 Z"
         style="opacity:0.2;fill:#000000;stroke-width:1"
         id="path3545" />
      <path
         d="M 336,44 310,52.4414 323.28286,98.14844 336,108 348.71714,98.14844 362,52.4414 Z"
         style="fill:#14d5ff;stroke-width:2;fill-opacity:1"
         id="path3485"
         sodipodi:nodetypes="ccccccc" />
      <path
         d="M 335.97656,47 330,54.47656 333.00782,89.3164 335.9961,93 338.96876,89.34374 342,54.48438 Z M 326.23828,91 325,93.98828 326.25782,97 332.6875,95.86328 334,93.9961 l -1.3125,-1.875 z m 19.52344,0 -6.44922,1.1211 -1.3125,1.875 1.3125,1.86718 L 345.74218,97 347,93.98828 Z m -9.7539,5 -1.8711,1.3125 L 333,103.7461 336.01172,105 339,103.76172 337.875,97.3125 Z"
         style="fill:#000000;stroke-width:2;opacity:0.2"
         id="path3609" />
      <path
         d="M 335.97656,46 330,53.47656 333.00782,88.3164 335.9961,92 338.96876,88.34374 342,53.48438 Z M 326.23828,90 325,92.98828 326.25782,96 332.6875,94.86328 334,92.9961 l -1.3125,-1.875 z m 19.52344,0 -6.44922,1.1211 -1.3125,1.875 1.3125,1.86718 L 345.74218,96 347,92.98828 Z m -9.7539,5 -1.8711,1.3125 L 333,102.7461 336.01172,104 339,102.76172 337.875,96.3125 Z"
         style="fill:#4f4f4f;stroke-width:2;fill-opacity:1"
         id="path3513"
         sodipodi:nodetypes="cccccccccccccccccccccccccccc" />
      <path
         id="path3581"
         style="fill:#ffffff;stroke-width:2;opacity:0.1"
         d="M 335.97656 46 L 330 53.476562 L 330.07812 54.378906 L 335.97656 47 L 341.92188 54.386719 L 342 53.484375 L 335.97656 46 z M 326.23828 90 L 325 92.988281 L 325.20703 93.486328 L 326.23828 91 L 332.6875 92.121094 L 333.64844 93.494141 L 334 92.996094 L 332.6875 91.121094 L 326.23828 90 z M 345.76172 90 L 339.3125 91.121094 L 338 92.996094 L 338.35156 93.494141 L 339.3125 92.121094 L 345.76172 91 L 346.79297 93.486328 L 347 92.988281 L 345.76172 90 z M 336.00781 95 L 334.13672 96.3125 L 333 102.74609 L 333.16406 102.81445 L 334.13672 97.3125 L 336.00781 96 L 337.875 97.3125 L 338.83789 102.83008 L 339 102.76172 L 337.875 96.3125 L 336.00781 95 z " />
    </g>
    <g
       id="g2040"
       transform="matrix(4,0,0,4,-1136,-532)">
      <path
         d="m 320,150.5 -18,5.80347 9.19583,31.42359 8.80417,6.77295 8.80417,-6.77295 L 338,156.30347 Z"
         style="opacity:0.2;fill:#000000"
         id="path1903" />
      <path
         d="m 320,150 -18,5.80347 9.19583,31.42359 8.80417,6.77295 8.80417,-6.77295 L 338,155.80347 Z"
         style="fill:#14d5ff;fill-opacity:1"
         id="path1875" />
      <path
         d="m 320,151.5 -3.98438,5.19922 2.00391,24.23828 1.99218,2.5625 1.98438,-2.54297 2.01953,-24.25 z m -7.16016,30 -0.82422,1.99219 0.83984,2.00781 4.28516,-0.75781 0.875,-1.2461 -0.875,-1.25 z m 14.14844,0 -4.29688,0.74609 -0.875,1.25 0.875,1.24611 4.28516,0.75781 0.83984,-2.00781 z m -6.96875,4 -1.2461,0.875 -0.75781,4.28906 2.00781,0.83594 1.99219,-0.82422 -0.75,-4.30078 z"
         style="opacity:0.2;fill:#000000"
         id="path1931" />
      <path
         d="m 320,151 -3.98438,5.19922 2.00391,24.23828 1.99218,2.5625 1.98438,-2.54297 2.01953,-24.25 z m -7.16016,30 -0.82422,1.99219 0.83984,2.00781 4.28516,-0.75781 0.875,-1.2461 -0.875,-1.25 z m 14.14844,0 -4.29688,0.74609 -0.875,1.25 0.875,1.24611 4.28516,0.75781 0.83984,-2.00781 z m -6.96875,4 -1.2461,0.875 -0.75781,4.28906 2.00781,0.83594 1.99219,-0.82422 -0.75,-4.30078 z"
         style="fill:#4f4f4f;fill-opacity:1"
         id="path1959" />
      <path
         id="path1987"
         style="opacity:0.2;fill:#ffffff"
         d="M 319.98438,151 316,156.19922 l 0.0391,0.4707 L 320,151.5 l 3.96484,5.14062 0.0352,-0.43359 z m -7.16016,30 -0.82422,1.99219 0.11133,0.26758 0.72851,-1.75977 4.30078,0.74609 0.69141,0.98829 0.16797,-0.23829 -0.875,-1.25 z m 14.14844,0 -4.29688,0.74609 -0.875,1.25 0.1836,0.26172 0.70703,-1.01172 4.29687,-0.74609 0.7168,1.72266 0.0957,-0.23047 z m -6.96875,4 -1.2461,0.875 -0.75781,4.28906 0.0977,0.041 0.67578,-3.83008 1.24609,-0.875 1.24609,0.875 0.66797,3.82812 0.0664,-0.0273 -0.75,-4.30078 z" />
    </g>
  </g>
  <g
     id="Highlights">
    <path
       id="rect653"
       style="opacity:0.2;fill:#ffffff"
       d="M 80,44 C 53.408027,44 32,65.408027 32,92 v 2 C 32,67.408027 53.408027,46 80,46 h 128 c 26.59197,0 48,21.408027 48,48 V 92 C 256,65.408027 234.59197,44 208,44 Z"
       sodipodi:nodetypes="sscsscsss" />
    <path
       id="rect773"
       style="opacity:0.2;fill:#ffffff"
       d="m 312,34 c -9.97199,0 -18,8.02801 -18,18 v 1 c 0,-9.97199 8.02801,-18 18,-18 h 48 c 9.97199,0 18,8.02801 18,18 v -1 c 0,-9.97199 -8.02801,-18 -18,-18 z" />
    <path
       id="rect1135"
       style="opacity:0.2;fill:#ffffff;fill-opacity:1"
       d="m 304,144 c -6.64799,0 -12,5.35201 -12,12 v 1 c 0,-6.64799 5.35201,-12 12,-12 h 32 c 6.64799,0 12,5.35201 12,12 v -1 c 0,-6.64799 -5.35201,-12 -12,-12 z" />
    <path
       id="rect1265"
       style="opacity:0.2;fill:#ffffff;fill-opacity:1"
       d="m 300,223 c -4.986,0 -9,4.014 -9,9 v 1 c 0,-4.986 4.014,-9 9,-9 h 24 c 4.986,0 9,4.014 9,9 v -1 c 0,-4.986 -4.014,-9 -9,-9 z" />
    <path
       id="rect1368"
       style="opacity:0.2;fill:#ffffff;fill-opacity:1"
       d="m 424,54 c -3.324,0 -6,2.676003 -6,6 v 1 c 0,-3.323997 2.676,-6 6,-6 h 16 c 3.324,0 6,2.676003 6,6 v -1 c 0,-3.323997 -2.676,-6 -6,-6 z" />
    <path
       id="rect1402"
       style="opacity:0.2;fill:#ffffff;fill-opacity:1"
       d="m 420,140 c -2.216,0 -4,1.784 -4,4 v 1 c 0,-2.216 1.784,-4 4,-4 h 8 c 2.216,0 4,1.784 4,4 v -1 c 0,-2.216 -1.784,-4 -4,-4 z" />
    <path
       id="rect1436"
       style="opacity:0.2;fill:#ffffff;fill-opacity:1"
       d="m 422,102 c -2.216,0 -4,1.784 -4,4 v 1 c 0,-2.216 1.784,-4 4,-4 h 12 c 2.216,0 4,1.784 4,4 v -1 c 0,-2.216 -1.784,-4 -4,-4 z" />
  </g>
</svg>
