<?xml version="1.0" encoding="UTF-8" standalone="no"?>
<!-- Created with Inkscape (http://www.inkscape.org/) -->

<svg
   width="480"
   height="300"
   viewBox="0 0 480 300"
   version="1.1"
   id="svg5"
   inkscape:version="1.2.2 (1:1.2.2+202305151914+b0a8486541)"
   sodipodi:docname="ibus-pinyin.svg"
   xmlns:inkscape="http://www.inkscape.org/namespaces/inkscape"
   xmlns:sodipodi="http://sodipodi.sourceforge.net/DTD/sodipodi-0.dtd"
   xmlns="http://www.w3.org/2000/svg"
   xmlns:svg="http://www.w3.org/2000/svg">
  <sodipodi:namedview
     id="namedview7"
     pagecolor="#888888"
     bordercolor="#000000"
     borderopacity="0.25"
     inkscape:showpageshadow="true"
     inkscape:pageopacity="0"
     inkscape:pagecheckerboard="0"
     inkscape:deskcolor="#888888"
     inkscape:document-units="px"
     showgrid="false"
     showborder="false"
     inkscape:zoom="2.6866667"
     inkscape:cx="240.07444"
     inkscape:cy="150"
     inkscape:window-width="1920"
     inkscape:window-height="1008"
     inkscape:window-x="0"
     inkscape:window-y="0"
     inkscape:window-maximized="1"
     inkscape:current-layer="svg5" />
  <defs
     id="defs2" />
  <g
     id="Baseplate"
     style="display:none">
    <text
       y="19.774782"
       xml:space="preserve"
       x="15.006946"
       style="font-style:normal;font-variant:normal;font-weight:normal;font-stretch:normal;line-height:0%;font-family:'DejaVu Sans';-inkscape-font-specification:'DejaVu Sans';display:inline;fill:#000000;fill-opacity:1;stroke:none;enable-background:new"
       inkscape:label="context"
       id="context"><tspan
         style="font-style:normal;font-variant:normal;font-weight:normal;font-stretch:normal;font-size:18px;line-height:1.25;font-family:'DejaVu Sans';-inkscape-font-specification:'DejaVu Sans'"
         y="19.774782"
         x="15.006946"
         sodipodi:role="line"
         id="tspan3933">apps</tspan></text>
    <text
       y="19.774782"
       xml:space="preserve"
       x="122.48839"
       style="font-style:normal;font-variant:normal;font-weight:bold;font-stretch:normal;line-height:0%;font-family:'DejaVu Sans';-inkscape-font-specification:'DejaVu Sans Bold';text-align:start;writing-mode:lr-tb;text-anchor:start;display:inline;fill:#000000;fill-opacity:1;stroke:none;enable-background:new"
       inkscape:label="icon-name"
       id="icon-name"><tspan
         style="font-style:normal;font-variant:normal;font-weight:bold;font-stretch:normal;font-size:18px;line-height:1.25;font-family:'DejaVu Sans';-inkscape-font-specification:'DejaVu Sans Bold'"
         y="19.774782"
         x="122.48839"
         sodipodi:role="line"
         id="tspan3937">ibus-pinyin</tspan></text>
    <rect
       style="fill:#ffffff"
       id="256x256"
       width="256"
       height="256"
       x="16"
       y="28" />
    <rect
       style="fill:#ffffff"
       id="96x96"
       width="96"
       height="96"
       x="288"
       y="28" />
    <rect
       style="fill:#ffffff"
       id="64x64"
       width="64"
       height="64"
       x="288"
       y="140" />
    <rect
       style="fill:#ffffff"
       id="48x48"
       width="48"
       height="48"
       x="288"
       y="220" />
    <rect
       style="fill:#ffffff"
       id="32x32"
       width="32"
       height="32"
       x="416"
       y="52" />
    <rect
       style="fill:#ffffff"
       id="24x24"
       width="24"
       height="24"
       x="416"
       y="100" />
    <rect
       style="fill:#ffffff"
       id="22x22"
       width="22"
       height="22"
       x="417"
       y="101" />
    <rect
       style="fill:#ffffff"
       id="16x16"
       width="16"
       height="16"
       x="416"
       y="140" />
  </g>
  <g
     id="Shadow">
    <rect
       style="opacity:0.2;fill:#000000"
       id="rect651"
       width="224"
       height="224"
       x="32"
       y="46"
       ry="48" />
    <rect
       style="opacity:0.2;fill:#000000"
       id="rect769"
       width="84"
       height="85"
       x="294"
       y="34"
       ry="18" />
    <rect
       style="opacity:0.2;fill:#000000;fill-opacity:1"
       id="rect1131"
       width="56"
       height="56"
       x="292"
       y="145"
       ry="12" />
    <rect
       style="opacity:0.2;fill:#000000;fill-opacity:1"
       id="rect1261"
       width="42"
       height="42"
       x="291"
       y="224"
       ry="9" />
    <rect
       style="opacity:0.2;fill:#000000;fill-opacity:1"
       id="rect1364"
       width="28"
       height="29"
       x="418"
       y="54"
       ry="6" />
    <rect
       style="opacity:0.2;fill:#000000;fill-opacity:1"
       id="rect1398"
       width="16"
       height="16"
       x="416"
       y="141"
       ry="4" />
    <rect
       style="opacity:0.2;fill:#000000;fill-opacity:1"
       id="rect1432"
       width="20"
       height="20"
       x="418"
       y="103"
       ry="4" />
  </g>
  <g
     id="Background">
    <rect
       style="fill:#2095f2;fill-opacity:1"
       id="rect597"
       width="224"
       height="224"
       x="32"
       y="44"
       ry="48" />
    <rect
       style="opacity:1;fill:#2095f2;fill-opacity:1"
       id="rect771"
       width="84"
       height="84"
       x="294"
       y="34"
       ry="18" />
    <rect
       style="opacity:1;fill:#2095f2;fill-opacity:1"
       id="rect1133"
       width="56"
       height="56"
       x="292"
       y="144"
       ry="12" />
    <rect
       style="opacity:1;fill:#2095f2;fill-opacity:1"
       id="rect1263"
       width="42"
       height="42"
       x="291"
       y="223"
       ry="9" />
    <rect
       style="opacity:1;fill:#2095f2;fill-opacity:1"
       id="rect1366"
       width="28"
       height="28"
       x="418"
       y="54"
       ry="6" />
    <rect
       style="opacity:1;fill:#2095f2;fill-opacity:1"
       id="rect1400"
       width="16"
       height="16"
       x="416"
       y="140"
       ry="4" />
    <rect
       style="opacity:1;fill:#2095f2;fill-opacity:1"
       id="rect1434"
       width="20"
       height="20"
       x="418"
       y="102"
       ry="4" />
  </g>
  <g
     id="g836">
    <g
       id="g685">
      <path
         d="m 421.93689,147.26578 0.12658,0.85997 -1.08982,0.77504 v 3.49107 c 0,0.42194 -0.0703,0.7173 -0.21097,0.88608 -0.14065,0.16877 -0.47981,0.25316 -0.81736,0.25316 -0.39381,0 -1.05904,-0.0422 -1.39654,-0.12658 L 418.38,152.51845 c 0.36568,0.11251 1.04497,0.16877 1.43874,0.16877 0.14064,0 0.21097,-0.16877 0.21097,-0.50633 v -2.85817 l -0.73384,0.49033 -0.2954,-0.8861 1.02924,-0.57474 v -1.85237 h -1.02954 V 145.5 h 1.02954 v -2 h 0.94394 v 2 h 1.04762 v 0.99984 h -1.04762 v 1.41439 l 0.96322,-0.64846 m 2.42228,-3.51319 c 0.33755,0.39382 0.59071,0.82983 0.7595,1.308 l -0.8861,0.2953 c -0.1688,-0.5063 -0.4079,-0.9563 -0.7173,-1.3502 l 0.84388,-0.25317 m 2.5316,-0.12473 c -0.25286,0.67446 -0.549,1.28202 -0.88672,1.87222 h -3.00384 v 1 h 1.02142 v 1.28662 c 0,0.25316 -0.0148,0.49371 -0.043,0.71875 h -1.39258 v 1.00063 h 1.3086 c -0.1688,1.4908 -0.74597,2.50223 -1.73047,3.23423 l 0.78131,0.63282 c 1.15328,-0.8438 1.81579,-2.06675 2.0127,-3.86705 h 2.07911 v 3.994 h 0.96288 v -3.994 h 0.99994 v -1.00063 h -0.99994 V 146.5 h 1 v -1 h -2.10944 c 0.30941,-0.4782 0.61831,-1.00142 0.92774,-1.62027 z M 425.00165,146.5 h 2.03564 v 2.00537 h -2.07861 c 0.0281,-0.19691 0.043,-0.39488 0.043,-0.59179 z"
         style="fill:#000000;opacity:0.2"
         id="path3726" />
      <path
         d="m 421.93689,146.76578 0.12658,0.85997 -1.08982,0.77504 v 3.49107 c 0,0.42194 -0.0703,0.7173 -0.21097,0.88608 -0.14065,0.16877 -0.47981,0.25316 -0.81736,0.25316 -0.39381,0 -1.05904,-0.0422 -1.39654,-0.12658 L 418.38,152.01845 c 0.36568,0.11251 1.04497,0.16877 1.43874,0.16877 0.14064,0 0.21097,-0.16877 0.21097,-0.50633 v -2.85817 l -0.73384,0.49033 -0.2954,-0.8861 1.02924,-0.57474 v -1.85237 h -1.02954 V 145 h 1.02954 v -2 h 0.94394 v 2 h 1.04762 v 0.99984 h -1.04762 v 1.41439 l 0.96322,-0.64846 m 2.42228,-3.51319 c 0.33755,0.39382 0.59071,0.82983 0.7595,1.308 l -0.8861,0.2953 c -0.1688,-0.5063 -0.4079,-0.9563 -0.7173,-1.3502 l 0.84388,-0.25317 m 2.5316,-0.12473 c -0.25286,0.67446 -0.549,1.28202 -0.88672,1.87222 h -3.00384 v 1 h 1.02142 v 1.28662 c 0,0.25316 -0.0148,0.49371 -0.043,0.71875 h -1.39258 v 1.00063 h 1.3086 c -0.1688,1.4908 -0.74597,2.50223 -1.73047,3.23423 l 0.78131,0.63282 c 1.15328,-0.8438 1.81579,-2.06675 2.0127,-3.86705 h 2.07911 V 153 h 0.96288 v -3.994 h 0.99994 v -1.00063 h -0.99994 V 146 h 1 v -1 h -2.10944 c 0.30941,-0.4782 0.61831,-1.00142 0.92774,-1.62027 z M 425.00165,146 h 2.03564 v 2.00537 h -2.07861 c 0.0281,-0.19691 0.043,-0.39488 0.043,-0.59179 z"
         style="fill:#ffffff"
         id="path3698"
         sodipodi:nodetypes="cccsssccssccccccccccccccccccccccccccsccccccccccccccccccccccccsc" />
    </g>
    <g
       id="g2385">
      <path
         d="m 432.04648,105.854 c -0.35444,0.9451 -0.76767,1.81949 -1.24023,2.64648 h -3.80664 v 1 h 1.03125 v 1.91992 c -1e-5,0.35442 -0.0212,0.76504 -0.0605,1.08008 h -1.94922 v 1 h 1.83203 c -0.2363,2.0872 -1.04357,4.08938 -2.42187,5.11328 l 0.625,0.88672 c 1.6146,-1.1814 2.56026,-3.4796 2.83594,-6 h 3.09765 v 5.94141 h 1.00977 v -5.94141 h 2 v -1 h -2 v -3 h 1 v -1 h -1.95313 c 0.4332,-0.6695 0.86563,-1.42462 1.29883,-2.29102 z m -3.54492,0.17773 -1.17968,0.35547 c 0.433,0.5513 0.7679,1.17977 1.0039,1.88867 l 1.24024,-0.41211 c -0.2363,-0.6694 -0.5919,-1.28068 -1.06446,-1.83203 z m -5.48047,0.46875 v 2 h -2.02148 v 1 h 2.02148 v 2.9707 c -0.7482,0.31506 -1.25471,0.63028 -2.12109,0.94532 l 0.41406,1.23828 c 0.7088,-0.27566 1.07693,-0.5505 1.70703,-0.82618 v 3.72071 c 0,0.47257 -0.098,0.70898 -0.29492,0.70898 -0.5513,0 -1.18336,-0.0788 -1.69531,-0.23633 l 0.23633,1.24024 c 0.4726,0.11814 0.98577,0.17773 1.53711,0.17773 0.47255,0 0.70738,-0.11723 0.90429,-0.35351 0.1969,-0.2363 0.29493,-0.64952 0.29493,-1.24024 v -4.60742 l 1.11328,-0.64648 -0.17774,-1.06055 c -0.5119,0.2363 -0.42354,0.1908 -0.93554,0.4668 v -2.49805 h 1.99609 v -1 h -1.99609 v -2 z m 5.98829,3 h 2.98242 v 3 h -3.04102 c 0.0394,-0.27566 0.0586,-0.62666 0.0586,-0.90234 z"
         style="fill:#000000;opacity:0.2"
         id="path3524" />
      <path
         d="m 432.04648,105.354 c -0.35444,0.9451 -0.76767,1.81949 -1.24023,2.64648 h -3.80664 v 1 h 1.03125 v 1.91992 c -1e-5,0.35442 -0.0212,0.76504 -0.0605,1.08008 h -1.94922 v 1 h 1.83203 c -0.2363,2.0872 -1.04357,4.08938 -2.42187,5.11328 l 0.625,0.88672 c 1.6146,-1.1814 2.56026,-3.4796 2.83594,-6 h 3.09765 v 5.94141 h 1.00977 v -5.94141 h 2 v -1 h -2 v -3 h 1 v -1 h -1.95313 c 0.4332,-0.6695 0.86563,-1.42462 1.29883,-2.29102 z m -3.54492,0.17773 -1.17968,0.35547 c 0.433,0.5513 0.7679,1.17977 1.0039,1.88867 l 1.24024,-0.41211 c -0.2363,-0.6694 -0.5919,-1.28068 -1.06446,-1.83203 z m -5.48047,0.46875 v 2 h -2.02148 v 1 h 2.02148 v 2.9707 c -0.7482,0.31506 -1.25471,0.63028 -2.12109,0.94532 l 0.41406,1.23828 c 0.7088,-0.27566 1.07693,-0.5505 1.70703,-0.82618 v 3.72071 c 0,0.47257 -0.098,0.70898 -0.29492,0.70898 -0.5513,0 -1.18336,-0.0788 -1.69531,-0.23633 l 0.23633,1.24024 c 0.4726,0.11814 0.98577,0.17773 1.53711,0.17773 0.47255,0 0.70738,-0.11723 0.90429,-0.35351 0.1969,-0.2363 0.29493,-0.64952 0.29493,-1.24024 v -4.60742 l 1.11328,-0.64648 -0.17774,-1.06055 c -0.5119,0.2363 -0.42354,0.1908 -0.93554,0.4668 v -2.49805 h 1.99609 v -1 h -1.99609 v -2 z m 5.98829,3 h 2.98242 v 3 h -3.04102 c 0.0394,-0.27566 0.0586,-0.62666 0.0586,-0.90234 z"
         style="fill:#ffffff"
         id="path3496"
         sodipodi:nodetypes="cccccsccccccccccccccccccccccccccccccccccssccsssccccccccccccccsc" />
    </g>
    <g
       id="g828"
       transform="translate(1)">
      <path
         d="m 437.20117,59.555 c -0.45569,1.21524 -0.98616,2.382041 -1.59375,3.445312 h -5.54492 v 2.000002 h 1.97461 v 2.826171 c -10e-6,0.455641 -0.0256,0.768769 -0.0762,1.173829 h -1.96094 v 2 h 1.80859 c -0.30372,2.68356 -1.34112,4.542974 -3.11328,5.859375 l 1.56446,1.138671 c 2.076,-1.51908 3.29008,-3.757567 3.64453,-6.998046 h 3.0957 v 6.921875 h 2 v -6.921875 h 2 v -2 h -2 v -4 h 2 v -2.000001 h -3.79883 c 0.55695,-0.860759 1.1149,-1.876297 1.67188,-2.990234 z m -4.55664,0.226562 -1.51953,0.457032 c 0.5569,0.70884 0.98721,1.518312 1.29102,2.429687 l 1.5957,-0.53125 c -0.30376,-0.86076 -0.7596,-1.64464 -1.36719,-2.353516 z M 425,60.000312 v 3 h -3 v 2.000002 h 3 v 3.960938 c -0.96204,0.405118 -1.88608,0.809783 -3,1.214843 l 0.53125,1.595702 c 0.9114,-0.354432 1.65862,-0.708068 2.46875,-1.0625 v 4.785157 c -10e-6,0.607596 -0.11207,0.910156 -0.36523,0.910156 -0.70896,0 -1.29295,-0.100199 -1.95118,-0.302734 l 0.30274,1.59375 c 0.60768,0.151895 1.26574,0.228515 1.97461,0.228515 0.60753,0 1.38549,-0.151286 1.63867,-0.455077 C 426.85277,77.165223 427,76.632853 427,75.873359 v -5.923827 l 2.13477,-1.064454 -0.22852,-1.367188 v -0.002 c -0.65832,0.30385 -1.24803,0.483518 -1.90625,0.837937 v -3.353514 h 2 v -2.000001 h -2 v -3 z m 9.05664,5.000002 H 437 v 4 h -3.01953 c 0.0506,-0.354432 0.0762,-0.592823 0.0762,-0.947267 z"
         style="opacity:0.2;fill:#000000"
         id="path3915" />
      <path
         d="m 437.20117,58.555 c -0.45569,1.21524 -0.98616,2.382041 -1.59375,3.445312 h -5.54492 v 2.000001 h 1.97461 v 2.826171 c -10e-6,0.455641 -0.0256,0.768769 -0.0762,1.173829 h -1.96094 v 2 h 1.80859 c -0.30372,2.68356 -1.34112,4.542974 -3.11328,5.859375 l 1.56446,1.138671 c 2.076,-1.51908 3.29008,-3.757567 3.64453,-6.998046 h 3.0957 v 6.921875 h 2 v -6.921875 h 2 v -2 h -2 v -4 h 2 v -2.000001 h -3.79883 c 0.55695,-0.860759 1.1149,-1.876297 1.67188,-2.990234 z m -4.55664,0.226562 -1.51953,0.457032 c 0.5569,0.70884 0.98721,1.518312 1.29102,2.429687 l 1.5957,-0.53125 c -0.30376,-0.86076 -0.7596,-1.64464 -1.36719,-2.353516 z M 425,59.000312 v 3 h -3 v 2.000001 h 3 v 3.960938 c -0.96204,0.405118 -1.88608,0.809783 -3,1.214843 l 0.53125,1.595702 c 0.9114,-0.354432 1.65862,-0.708068 2.46875,-1.0625 v 4.785157 c -10e-6,0.607596 -0.11207,0.910156 -0.36523,0.910156 -0.70896,0 -1.29295,-0.100199 -1.95118,-0.302734 l 0.30274,1.59375 c 0.60768,0.151895 1.26574,0.228515 1.97461,0.228515 0.60753,0 1.38549,-0.151286 1.63867,-0.455077 C 426.85277,76.165222 427,75.632852 427,74.873359 v -5.923827 l 2.13477,-1.064454 -0.22852,-1.367188 v -0.002 c -0.65832,0.303851 -1.24803,0.483518 -1.90625,0.837938 v -3.353515 h 2 v -2.000001 h -2 v -3 z m 9.05664,5.000001 H 437 v 4 h -3.01953 c 0.0506,-0.354432 0.0762,-0.592823 0.0762,-0.947267 z"
         style="fill:#ffffff"
         id="path3887"
         sodipodi:nodetypes="cccccscccccccccccccccccccccccccccccccccccssccssscccccccccccccccsc" />
    </g>
    <g
       id="g2263">
      <path
         d="m 320.79143,230.709 c -0.70887,1.89041 -1.53533,3.63701 -2.48047,5.29102 h -8.32422 v 2 h 3.07226 v 6.04149 c 0,0.70878 -0.0404,1.32888 -0.11914,1.95898 h -3.89843 v 2 h 3.6621 c -0.47246,4.1745 -2.087,7.18075 -4.84375,9.22852 l 1.25391,1.77148 c 3.22939,-2.36306 5.12051,-5.95916 5.67188,-11 h 5.29687 v 10.88281 h 1.91797 v -10.88281 h 5 v -2 h -5 v -8.00047 h 4 v -2 h -5.20898 c 0.86637,-1.33898 1.73318,-2.84921 2.5996,-4.58203 z M 303,231.00002 v 5 h -4.05469 v 2 H 303 v 6.94151 c -1.49653,0.63019 -3.2672,1.25856 -5,1.88867 l 0.82617,2.48437 c 1.41776,-0.55135 2.9136,-1.10294 4.17383,-1.65429 v 7.44336 c -2e-5,0.94517 -0.15306,1.41797 -0.54688,1.41797 -1.10284,0 -2.16748,-0.1576 -3.1914,-0.47266 l 0.27344,2.48048 c 0.94529,0.23628 1.86996,0.3535 2.97265,0.3535 0.94508,0 1.61398,-0.23641 2.00781,-0.70898 C 304.90944,257.7013 305,256.87493 305,255.69348 v -9.21484 l 3.13281,-1.89063 -0.35547,-2.12695 v -0.002 c -1.02407,0.47264 -1.75342,0.98582 -2.77734,1.53715 v -5.99619 h 3.01367 v -2 H 305 v -5 z m 11.00432,0.0625 -2.36329,0.70898 c 0.8663,1.10266 1.53523,2.36353 2.00782,3.78125 l 2.48047,-0.82617 c -0.47252,-1.33898 -1.17986,-2.56134 -2.125,-3.66406 z m 1.01757,6.9375 h 5.06055 v 8.00047 h -5.17969 c 0.0787,-0.55135 0.11913,-1.05215 0.11914,-1.60352 z"
         style="fill:#000000;opacity:0.2"
         id="path4104" />
      <path
         d="m 320.79143,229.709 c -0.70887,1.89041 -1.53533,3.63701 -2.48047,5.29102 h -8.32422 v 2 h 3.07226 v 6.04149 c 0,0.70878 -0.0404,1.32888 -0.11914,1.95898 h -3.89843 v 2 h 3.6621 c -0.47246,4.1745 -2.087,7.18075 -4.84375,9.22852 l 1.25391,1.77148 c 3.22939,-2.36306 5.12051,-5.95916 5.67188,-11 h 5.29687 v 10.88281 h 1.91797 v -10.88281 h 5 v -2 h -5 v -8.00047 h 4 v -2 h -5.20898 c 0.86637,-1.33898 1.73318,-2.84921 2.5996,-4.58203 z M 303,230.00002 v 5 h -4.05469 v 2 H 303 v 6.94151 c -1.49653,0.63019 -3.2672,1.25856 -5,1.88867 l 0.82617,2.48437 c 1.41776,-0.55135 2.9136,-1.10294 4.17383,-1.65429 v 7.44336 c -2e-5,0.94517 -0.15306,1.41797 -0.54688,1.41797 -1.10284,0 -2.16748,-0.1576 -3.1914,-0.47266 l 0.27344,2.48048 c 0.94529,0.23628 1.86996,0.3535 2.97265,0.3535 0.94508,0 1.61398,-0.23641 2.00781,-0.70898 C 304.90944,256.7013 305,255.87493 305,254.69348 v -9.21484 l 3.13281,-1.89063 -0.35547,-2.12695 v -0.002 c -1.02407,0.47264 -1.75342,0.98582 -2.77734,1.53715 v -5.99619 h 3.01367 v -2 H 305 v -5 z m 11.00432,0.0625 -2.36329,0.70898 c 0.8663,1.10266 1.53523,2.36353 2.00782,3.78125 l 2.48047,-0.82617 c -0.47252,-1.33898 -1.17986,-2.56134 -2.125,-3.66406 z m 1.01757,6.9375 h 5.06055 v 8.00047 h -5.17969 c 0.0787,-0.55135 0.11913,-1.05215 0.11914,-1.60352 z"
         style="fill:#ffffff"
         id="path4076"
         sodipodi:nodetypes="cccccsccccccccccccccccccccccccccccccsccssscccccccccccccccccccccc" />
    </g>
    <g
       id="g2898">
      <path
         d="m 330.4043,155.908 c -0.91138,2.43048 -1.97624,5.01018 -3.1914,7.13672 H 316 v 2.95508 h 4.07422 v 5.25 c -2e-5,0.91128 -0.0512,1.97113 -0.1524,2.78125 h -4.92188 v 2.96875 h 4.61914 c -0.60744,5.36712 -2.6842,9.08595 -6.22852,11.71875 l 2.12698,2.27734 c 4.152,-3.03816 6.58212,-7.51513 7.29102,-13.99609 h 6.18358 v 14 h 3.0371 v -14 h 5.96876 v -2.96875 h -5.96876 v -8.03125 h 4.9707 v -2.95508 h -6.5957 c 1.11388,-1.72152 2.22786,-3.99674 3.34182,-6.22461 z m -23.37696,0.0918 v 6 h -5.02538 v 3 h 5.02538 v 7.92188 c -1.92408,0.81024 -3.7995,1.61956 -6.02734,2.42968 l 1.06446,3.19141 c 1.82282,-0.70886 3.34262,-1.41809 4.9629,-2.12695 v 9.57031 c -2e-5,1.21519 -0.25344,1.82227 -0.75978,1.82227 -1.4179,0 -2.58392,-0.20235 -3.90038,-0.60743 l 0.60742,3.18945 c 1.21536,0.30379 2.33228,0.45704 3.75,0.45704 1.21506,0 2.07568,-0.30453 2.58204,-0.91211 0.50632,-0.60768 0.69532,-1.67047 0.69532,-3.18946 v -11.84765 l 4.66992,-2.43165 -0.45704,-2.73437 v -0.002 c -1.31664,0.60765 -2.8984,1.26582 -4.21484,1.97466 v -6.70508 h 5.00196 v -3 h -5.00196 v -6 z m 14.26172,0.36523 -3.0371,0.91016 c 1.11378,1.41768 1.97442,3.03858 2.58202,4.86133 l 3.18946,-1.0625 c -0.60752,-1.72152 -1.5192,-3.29123 -2.73438,-4.70899 z m 1.82422,9.63477 h 5.8789 v 8.03125 h -6.03124 c 0.1012,-0.70886 0.1524,-1.61533 0.1524,-2.32422 z"
         style="opacity:0.2;fill:#000000;stroke-width:1"
         id="path2908"
         sodipodi:nodetypes="ccccccccccccccccccccccccccccccccccccsccscsccccccccccccccccccccsc" />
      <path
         d="m 330.4043,154.908 c -0.91138,2.43048 -1.97624,5.01018 -3.1914,7.13672 H 316 v 2.95508 h 4.07422 v 5.25 c -2e-5,0.91128 -0.0512,1.97113 -0.1524,2.78125 h -4.92188 v 2.96875 h 4.61914 c -0.60744,5.36712 -2.6842,9.08595 -6.22852,11.71875 l 2.12698,2.27734 c 4.152,-3.03816 6.58212,-7.51513 7.29102,-13.99609 h 6.18358 v 14 h 3.0371 v -14 h 5.96876 v -2.96875 h -5.96876 v -8.03125 h 4.9707 v -2.95508 h -6.5957 c 1.11388,-1.72152 2.22786,-3.99674 3.34182,-6.22461 z m -23.37696,0.0918 v 6 h -5.02538 v 3 h 5.02538 v 7.92188 c -1.92408,0.81024 -3.7995,1.61956 -6.02734,2.42968 l 1.06446,3.19141 c 1.82282,-0.70886 3.34262,-1.41809 4.9629,-2.12695 v 9.57031 c -2e-5,1.21519 -0.25344,1.82227 -0.75978,1.82227 -1.4179,0 -2.58392,-0.20235 -3.90038,-0.60743 l 0.60742,3.18945 c 1.21536,0.30379 2.33228,0.45704 3.75,0.45704 1.21506,0 2.07568,-0.30453 2.58204,-0.91211 0.50632,-0.60768 0.69532,-1.67047 0.69532,-3.18946 v -11.84765 l 4.66992,-2.43165 -0.45704,-2.73437 v -0.002 c -1.31664,0.60765 -2.8984,1.26582 -4.21484,1.97466 v -6.70508 h 5.00196 v -3 h -5.00196 v -6 z m 14.26172,0.36523 -3.0371,0.91016 c 1.11378,1.41768 1.97442,3.03858 2.58202,4.86133 l 3.18946,-1.0625 c -0.60752,-1.72152 -1.5192,-3.29123 -2.73438,-4.70899 z m 1.82422,9.63477 h 5.8789 v 8.03125 h -6.03124 c 0.1012,-0.70886 0.1524,-1.61533 0.1524,-2.32422 z"
         style="fill:#ffffff;stroke-width:1"
         id="path2848"
         sodipodi:nodetypes="ccccccccccccccccccccccccccccccccccccsccscsccccccccccccccccccccsc" />
    </g>
    <g
       id="g4182"
       transform="matrix(2,0,0,2,-288,-413)">
      <path
         d="m 320.29142,230.709 c -0.70886,1.89041 -1.53532,3.63701 -2.48048,5.29102 h -8.32422 v 2 h 3.07226 v 6.04149 c 0,0.70878 -0.0404,1.32888 -0.11914,1.95898 h -3.89843 v 2 h 3.6621 c -0.47246,4.1745 -2.087,7.18075 -4.84375,9.22851 l 1.25391,1.77148 c 3.2294,-2.36306 5.12052,-5.95916 5.67188,-11 h 5.29687 v 10.88282 h 1.91798 v -10.88282 h 5 v -2 h -5 v -8.00046 h 4 v -2 h -5.20898 c 0.86638,-1.33898 1.73318,-2.84921 2.59961,-4.58203 z M 302.5,231.00002 v 5 h -4.05469 v 2 H 302.5 v 6.94151 c -1.49654,0.63018 -3.26721,1.25856 -5,1.88867 l 0.82616,2.48437 c 1.41776,-0.55135 2.91359,-1.10294 4.17384,-1.65429 v 7.44336 c -3e-5,0.94517 -0.15306,1.41797 -0.54688,1.41797 -1.10285,0 -2.16748,-0.1576 -3.1914,-0.47266 l 0.27344,2.48048 c 0.94529,0.23628 1.86996,0.3535 2.97265,0.3535 0.94508,0 1.61398,-0.23641 2.00781,-0.70898 0.39382,-0.47265 0.48438,-1.29902 0.48438,-2.48048 v -9.21483 l 3.13281,-1.89063 -0.35548,-2.12695 v -0.002 c -1.02407,0.47265 -1.75342,0.98582 -2.77733,1.53715 v -5.99618 h 3.01366 v -2 H 304.5 v -5 z m 11.00432,0.0625 -2.36329,0.70898 c 0.8663,1.10266 1.53523,2.36353 2.00781,3.78125 l 2.48048,-0.82617 c -0.47252,-1.33898 -1.17987,-2.56134 -2.125,-3.66406 z m 1.01756,6.9375 h 5.06054 v 8.00047 h -5.17969 c 0.0787,-0.55135 0.11913,-1.05216 0.11915,-1.60352 z"
         style="opacity:0.2;fill:#000000"
         id="path4160" />
      <path
         d="m 320.29143,230.209 c -0.70887,1.89041 -1.53533,3.63701 -2.48048,5.29102 h -8.32422 v 2 h 3.07226 v 6.04149 c 0,0.70878 -0.0404,1.32888 -0.11914,1.95898 h -3.89843 v 2 h 3.6621 c -0.47246,4.1745 -2.087,7.18075 -4.84375,9.22852 l 1.25391,1.77148 c 3.22939,-2.36306 5.12052,-5.95916 5.67188,-11 h 5.29687 v 10.88281 h 1.91798 v -10.88281 h 5 v -2 h -5 v -8.00047 h 4 v -2 h -5.20898 c 0.86637,-1.33898 1.73318,-2.84921 2.5996,-4.58203 z M 302.5,230.50002 v 5 h -4.05469 v 2 H 302.5 v 6.94151 c -1.49653,0.63019 -3.2672,1.25856 -5,1.88867 l 0.82617,2.48437 c 1.41775,-0.55135 2.91359,-1.10294 4.17383,-1.65429 v 7.44336 c -2e-5,0.94517 -0.15306,1.41797 -0.54688,1.41797 -1.10284,0 -2.16748,-0.1576 -3.1914,-0.47266 l 0.27344,2.48048 c 0.94529,0.23628 1.86996,0.3535 2.97265,0.3535 0.94508,0 1.61398,-0.23641 2.00781,-0.70898 0.39382,-0.47265 0.48438,-1.29902 0.48438,-2.48047 v -9.21484 l 3.13281,-1.89063 -0.35548,-2.12695 v -0.002 c -1.02407,0.47264 -1.75342,0.98582 -2.77733,1.53715 v -5.99619 h 3.01367 v -2 H 304.5 v -5 z m 11.00432,0.0625 -2.36329,0.70898 c 0.8663,1.10266 1.53523,2.36353 2.00781,3.78125 l 2.48048,-0.82617 c -0.47252,-1.33898 -1.17986,-2.56134 -2.125,-3.66406 z m 1.01756,6.9375 h 5.06055 v 8.00047 h -5.17969 c 0.0787,-0.55135 0.11913,-1.05215 0.11914,-1.60352 z"
         style="fill:#ffffff"
         id="path4132"
         sodipodi:nodetypes="cccccsccccccccccccccccccccccccccccccsccssscccccccccccccccccccccc" />
    </g>
    <g
       id="g2986"
       transform="matrix(4,0,0,4,-1136,-531.99999)">
      <path
         d="m 330.4043,155.408 c -0.91138,2.43048 -1.97624,5.01018 -3.1914,7.13672 H 316 v 2.95508 h 4.07422 v 5.25 c -2e-5,0.91128 -0.0512,1.97113 -0.1524,2.78125 h -4.92188 v 2.96875 h 4.61914 c -0.60744,5.36712 -2.6842,9.08595 -6.22852,11.71875 l 2.12698,2.27734 c 4.152,-3.03816 6.58212,-7.51513 7.29102,-13.99609 h 6.18358 v 14 h 3.0371 v -14 h 5.96876 v -2.96875 h -5.96876 v -8.03125 h 4.9707 v -2.95508 h -6.5957 c 1.11388,-1.72152 2.22786,-3.99674 3.34182,-6.22461 z m -23.37696,0.0918 v 6 h -5.02538 v 3 h 5.02538 v 7.92188 c -1.92408,0.81024 -3.7995,1.61956 -6.02734,2.42968 l 1.06446,3.19141 c 1.82282,-0.70886 3.34262,-1.41809 4.9629,-2.12695 v 9.57031 c -2e-5,1.21519 -0.25344,1.82227 -0.75978,1.82227 -1.4179,0 -2.58392,-0.20235 -3.90038,-0.60743 l 0.60742,3.18945 c 1.21536,0.30379 2.33228,0.45704 3.75,0.45704 1.21506,0 2.07568,-0.30453 2.58204,-0.91211 0.50632,-0.60768 0.69532,-1.67047 0.69532,-3.18946 v -11.84765 l 4.66992,-2.43165 -0.45704,-2.73437 v -0.002 c -1.31664,0.60765 -2.8984,1.26582 -4.21484,1.97466 v -6.70508 h 5.00196 v -3 h -5.00196 v -6 z m 14.26172,0.36523 -3.0371,0.91016 c 1.11378,1.41768 1.97442,3.03858 2.58202,4.86133 l 3.18946,-1.0625 c -0.60752,-1.72152 -1.5192,-3.29123 -2.73438,-4.70899 z m 1.82422,9.63477 h 5.8789 v 8.03125 h -6.03124 c 0.1012,-0.70886 0.1524,-1.61533 0.1524,-2.32422 z"
         style="opacity:0.2;fill:#000000;stroke-width:1"
         id="path2964" />
      <path
         d="m 330.4043,154.908 c -0.91138,2.43048 -1.97624,5.01018 -3.1914,7.13672 H 316 v 2.95508 h 4.07422 v 5.25 c -2e-5,0.91128 -0.0512,1.97113 -0.1524,2.78125 h -4.92188 v 2.96875 h 4.61914 c -0.60744,5.36712 -2.6842,9.08595 -6.22852,11.71875 l 2.12698,2.27734 c 4.152,-3.03816 6.58212,-7.51513 7.29102,-13.99609 h 6.18358 v 14 h 3.0371 v -14 h 5.96876 v -2.96875 h -5.96876 v -8.03125 h 4.9707 v -2.95508 h -6.5957 c 1.11388,-1.72152 2.22786,-3.99674 3.34182,-6.22461 z m -23.37696,0.0918 v 6 h -5.02538 v 3 h 5.02538 v 7.92188 c -1.92408,0.81024 -3.7995,1.61956 -6.02734,2.42968 l 1.06446,3.19141 c 1.82282,-0.70886 3.34262,-1.41809 4.9629,-2.12695 v 9.57031 c -2e-5,1.21519 -0.25344,1.82227 -0.75978,1.82227 -1.4179,0 -2.58392,-0.20235 -3.90038,-0.60743 l 0.60742,3.18945 c 1.21536,0.30379 2.33228,0.45704 3.75,0.45704 1.21506,0 2.07568,-0.30453 2.58204,-0.91211 0.50632,-0.60768 0.69532,-1.67047 0.69532,-3.18946 v -11.84765 l 4.66992,-2.43165 -0.45704,-2.73437 v -0.002 c -1.31664,0.60765 -2.8984,1.26582 -4.21484,1.97466 v -6.70508 h 5.00196 v -3 h -5.00196 v -6 z m 14.26172,0.36523 -3.0371,0.91016 c 1.11378,1.41768 1.97442,3.03858 2.58202,4.86133 l 3.18946,-1.0625 c -0.60752,-1.72152 -1.5192,-3.29123 -2.73438,-4.70899 z m 1.82422,9.63477 h 5.8789 v 8.03125 h -6.03124 c 0.1012,-0.70886 0.1524,-1.61533 0.1524,-2.32422 z"
         style="fill:#ffffff;stroke-width:1"
         id="path2936" />
    </g>
  </g>
  <g
     id="Highlights">
    <path
       id="rect653"
       style="opacity:0.2;fill:#ffffff"
       d="M 80,44 C 53.408027,44 32,65.408027 32,92 v 2 C 32,67.408027 53.408027,46 80,46 h 128 c 26.59197,0 48,21.408027 48,48 V 92 C 256,65.408027 234.59197,44 208,44 Z"
       sodipodi:nodetypes="sscsscsss" />
    <path
       id="rect773"
       style="opacity:0.2;fill:#ffffff"
       d="m 312,34 c -9.97199,0 -18,8.02801 -18,18 v 1 c 0,-9.97199 8.02801,-18 18,-18 h 48 c 9.97199,0 18,8.02801 18,18 v -1 c 0,-9.97199 -8.02801,-18 -18,-18 z" />
    <path
       id="rect1135"
       style="opacity:0.2;fill:#ffffff;fill-opacity:1"
       d="m 304,144 c -6.64799,0 -12,5.35201 -12,12 v 1 c 0,-6.64799 5.35201,-12 12,-12 h 32 c 6.64799,0 12,5.35201 12,12 v -1 c 0,-6.64799 -5.35201,-12 -12,-12 z" />
    <path
       id="rect1265"
       style="opacity:0.2;fill:#ffffff;fill-opacity:1"
       d="m 300,223 c -4.986,0 -9,4.014 -9,9 v 1 c 0,-4.986 4.014,-9 9,-9 h 24 c 4.986,0 9,4.014 9,9 v -1 c 0,-4.986 -4.014,-9 -9,-9 z" />
    <path
       id="rect1368"
       style="opacity:0.2;fill:#ffffff;fill-opacity:1"
       d="m 424,54 c -3.324,0 -6,2.676003 -6,6 v 1 c 0,-3.323997 2.676,-6 6,-6 h 16 c 3.324,0 6,2.676003 6,6 v -1 c 0,-3.323997 -2.676,-6 -6,-6 z" />
    <path
       id="rect1402"
       style="opacity:0.2;fill:#ffffff;fill-opacity:1"
       d="m 420,140 c -2.216,0 -4,1.784 -4,4 v 1 c 0,-2.216 1.784,-4 4,-4 h 8 c 2.216,0 4,1.784 4,4 v -1 c 0,-2.216 -1.784,-4 -4,-4 z" />
    <path
       id="rect1436"
       style="opacity:0.2;fill:#ffffff;fill-opacity:1"
       d="m 422,102 c -2.216,0 -4,1.784 -4,4 v 1 c 0,-2.216 1.784,-4 4,-4 h 12 c 2.216,0 4,1.784 4,4 v -1 c 0,-2.216 -1.784,-4 -4,-4 z" />
  </g>
</svg>
