<?xml version="1.0" encoding="UTF-8" standalone="no"?>
<!-- Created with Inkscape (http://www.inkscape.org/) -->

<svg
   width="480"
   height="300"
   viewBox="0 0 480 300"
   version="1.1"
   id="svg5"
   inkscape:version="1.2.2 (1:1.2.2+202305151914+b0a8486541)"
   sodipodi:docname="ibus-anthy.svg"
   xmlns:inkscape="http://www.inkscape.org/namespaces/inkscape"
   xmlns:sodipodi="http://sodipodi.sourceforge.net/DTD/sodipodi-0.dtd"
   xmlns="http://www.w3.org/2000/svg"
   xmlns:svg="http://www.w3.org/2000/svg">
  <sodipodi:namedview
     id="namedview7"
     pagecolor="#888888"
     bordercolor="#000000"
     borderopacity="0.25"
     inkscape:showpageshadow="true"
     inkscape:pageopacity="0"
     inkscape:pagecheckerboard="0"
     inkscape:deskcolor="#888888"
     inkscape:document-units="px"
     showgrid="false"
     showborder="false"
     inkscape:zoom="2.6866667"
     inkscape:cx="240.07444"
     inkscape:cy="150"
     inkscape:window-width="1920"
     inkscape:window-height="1008"
     inkscape:window-x="0"
     inkscape:window-y="0"
     inkscape:window-maximized="1"
     inkscape:current-layer="svg5" />
  <defs
     id="defs2" />
  <g
     id="Baseplate"
     style="display:none">
    <text
       y="19.774782"
       xml:space="preserve"
       x="15.006946"
       style="font-style:normal;font-variant:normal;font-weight:normal;font-stretch:normal;line-height:0%;font-family:'DejaVu Sans';-inkscape-font-specification:'DejaVu Sans';display:inline;fill:#000000;fill-opacity:1;stroke:none;enable-background:new"
       inkscape:label="context"
       id="context"><tspan
         style="font-style:normal;font-variant:normal;font-weight:normal;font-stretch:normal;font-size:18px;line-height:1.25;font-family:'DejaVu Sans';-inkscape-font-specification:'DejaVu Sans'"
         y="19.774782"
         x="15.006946"
         sodipodi:role="line"
         id="tspan3933">apps</tspan></text>
    <text
       y="19.774782"
       xml:space="preserve"
       x="122.48839"
       style="font-style:normal;font-variant:normal;font-weight:bold;font-stretch:normal;line-height:0%;font-family:'DejaVu Sans';-inkscape-font-specification:'DejaVu Sans Bold';text-align:start;writing-mode:lr-tb;text-anchor:start;display:inline;fill:#000000;fill-opacity:1;stroke:none;enable-background:new"
       inkscape:label="icon-name"
       id="icon-name"><tspan
         style="font-style:normal;font-variant:normal;font-weight:bold;font-stretch:normal;font-size:18px;line-height:1.25;font-family:'DejaVu Sans';-inkscape-font-specification:'DejaVu Sans Bold'"
         y="19.774782"
         x="122.48839"
         sodipodi:role="line"
         id="tspan3937">ibus-anthy</tspan></text>
    <rect
       style="fill:#ffffff"
       id="256x256"
       width="256"
       height="256"
       x="16"
       y="28" />
    <rect
       style="fill:#ffffff"
       id="96x96"
       width="96"
       height="96"
       x="288"
       y="28" />
    <rect
       style="fill:#ffffff"
       id="64x64"
       width="64"
       height="64"
       x="288"
       y="140" />
    <rect
       style="fill:#ffffff"
       id="48x48"
       width="48"
       height="48"
       x="288"
       y="220" />
    <rect
       style="fill:#ffffff"
       id="32x32"
       width="32"
       height="32"
       x="416"
       y="52" />
    <rect
       style="fill:#ffffff"
       id="24x24"
       width="24"
       height="24"
       x="416"
       y="100" />
    <rect
       style="fill:#ffffff"
       id="22x22"
       width="22"
       height="22"
       x="417"
       y="101" />
    <rect
       style="fill:#ffffff"
       id="16x16"
       width="16"
       height="16"
       x="416"
       y="140" />
  </g>
  <g
     id="Shadow">
    <rect
       style="opacity:0.2;fill:#000000"
       id="rect651"
       width="224"
       height="224"
       x="32"
       y="46"
       ry="48" />
    <rect
       style="opacity:0.2;fill:#000000"
       id="rect769"
       width="84"
       height="85"
       x="294"
       y="34"
       ry="18" />
    <rect
       style="opacity:0.2;fill:#000000;fill-opacity:1"
       id="rect1131"
       width="56"
       height="56"
       x="292"
       y="145"
       ry="12" />
    <rect
       style="opacity:0.2;fill:#000000;fill-opacity:1"
       id="rect1261"
       width="42"
       height="42"
       x="291"
       y="224"
       ry="9" />
    <rect
       style="opacity:0.2;fill:#000000;fill-opacity:1"
       id="rect1364"
       width="28"
       height="29"
       x="418"
       y="54"
       ry="6" />
    <rect
       style="opacity:0.2;fill:#000000;fill-opacity:1"
       id="rect1398"
       width="16"
       height="16"
       x="416"
       y="141"
       ry="4" />
    <rect
       style="opacity:0.2;fill:#000000;fill-opacity:1"
       id="rect1432"
       width="20"
       height="20"
       x="418"
       y="103"
       ry="4" />
  </g>
  <g
     id="Background">
    <rect
       style="fill:#2095f2;fill-opacity:1"
       id="rect597"
       width="224"
       height="224"
       x="32"
       y="44"
       ry="48" />
    <rect
       style="opacity:1;fill:#2095f2;fill-opacity:1"
       id="rect771"
       width="84"
       height="84"
       x="294"
       y="34"
       ry="18" />
    <rect
       style="opacity:1;fill:#2095f2;fill-opacity:1"
       id="rect1133"
       width="56"
       height="56"
       x="292"
       y="144"
       ry="12" />
    <rect
       style="opacity:1;fill:#2095f2;fill-opacity:1"
       id="rect1263"
       width="42"
       height="42"
       x="291"
       y="223"
       ry="9" />
    <rect
       style="opacity:1;fill:#2095f2;fill-opacity:1"
       id="rect1366"
       width="28"
       height="28"
       x="418"
       y="54"
       ry="6" />
    <rect
       style="opacity:1;fill:#2095f2;fill-opacity:1"
       id="rect1400"
       width="16"
       height="16"
       x="416"
       y="140"
       ry="4" />
    <rect
       style="opacity:1;fill:#2095f2;fill-opacity:1"
       id="rect1434"
       width="20"
       height="20"
       x="418"
       y="102"
       ry="4" />
  </g>
  <g
     id="g9364">
    <g
       id="g1213">
      <path
         d="m 427,145.06 c -1.428,0.312 -2.852,0.3399 -4.208,0.4119 0.154,-0.6474 0.1746,-1.3196 0.208,-1.9719 h -1.54 c 0.0285,0.7137 -0.0477,1.3723 -0.132,2.0079 -0.72,-0.012 -1.62,-0.108 -2.328,-0.228 v 1.476 c 0.6,0.06 1.296,0.108 2.052,0.12 -0.052,1.284 -0.488,2.5321 -1.052,3.6241 l 1,0.552 c 0.6644,-1.552 2.4971,-1.6025 3.724,-1.6081 1.152,0 2.276,0.7438 2.276,1.4521 0,1.752 -3.7546,1.944 -6.3586,1.524 l 0.4953,1.368 c 3.84,0.408 7.1993,-0.216 7.1993,-2.892 0,-1.5124 -1.336,-2.396 -3.336,-2.396 -1,0 -2,0 -3.048,0.4039 0.192,-0.576 0.384,-1.332 0.54,-2.052 1.596,-0.084 3.272,-0.1599 4.508,-0.3519 z"
         style="opacity:0.2;fill:#000000"
         id="path1189" />
      <path
         d="m 427,144.56 c -1.428,0.312 -2.852,0.3399 -4.208,0.4119 0.154,-0.6474 0.1746,-1.3196 0.208,-1.9719 h -1.54 c 0.0285,0.7137 -0.0477,1.3723 -0.132,2.0079 -0.72,-0.012 -1.62,-0.108 -2.328,-0.228 v 1.476 c 0.6,0.06 1.296,0.108 2.052,0.12 C 421,147.6599 420.564,148.908 420,150 l 1,0.552 c 0.6644,-1.552 2.4971,-1.6025 3.724,-1.6081 1.152,0 2.276,0.7438 2.276,1.4521 0,1.752 -3.7546,1.944 -6.3586,1.524 l 0.4953,1.368 c 3.84,0.408 7.1993,-0.216 7.1993,-2.892 C 428.336,148.8836 427,148 425,148 c -1,0 -2,0 -3.048,0.4039 0.192,-0.576 0.384,-1.332 0.54,-2.052 1.596,-0.084 3.272,-0.1599 4.508,-0.3519 z"
         style="fill:#ffffff"
         id="path1161" />
    </g>
    <g
       id="g1151">
      <path
         d="m 432.848,106.944 c -1.904,0.416 -4.048,0.656 -5.856,0.752 l 0.096,-0.48 c 0.112,-0.52801 0.192,-1.056 0.368,-1.616 l -2.24,-0.096 c 0.016,0.52801 0,0.91201 -0.08,1.6 -0.016,0.192 -0.064,0.4 -0.096,0.64 -0.96,-0.016 -2.16,-0.144 -3.104,-0.304 v 1.968 c 0.8,0.08 1.728,0.144 2.736,0.16 -0.416,1.744 -1.056,3.856 -1.808,5.312 l 1.872,0.672 c 0.16,-0.272 0.272,-0.48 0.448,-0.688 0.944,-1.216 2.56,-1.872 4.384,-1.872 1.536,0 2.368,0.8 2.368,1.744 0,2.336 -3.504,2.752 -6.976,2.192 l 0.56,2.048 c 5.12,0.544 8.544,-0.736 8.544,-4.304 0,-2.016 -1.696,-3.392 -4.256,-3.392 -1.456,0 -2.656,0.288 -3.936,0.992 0.256,-0.768 0.512,-1.77599 0.72,-2.736 2.128,-0.112 4.64,-0.416 6.288,-0.672 z"
         style="opacity:0.2;fill:#000000"
         id="path1127" />
      <path
         d="m 432.848,106.64391 c -1.904,0.416 -4.048,0.656 -5.856,0.752 l 0.096,-0.48 c 0.112,-0.528 0.192,-1.056 0.368,-1.616 l -2.24,-0.096 c 0.016,0.528 0,0.912 -0.08,1.6 -0.016,0.192 -0.064,0.4 -0.096,0.64 -0.96,-0.016 -2.16,-0.144 -3.104,-0.304 v 1.968 c 0.8,0.08 1.728,0.144 2.736,0.16 -0.416,1.744 -1.056,3.856 -1.808,5.312 l 1.872,0.672 c 0.16,-0.272 0.272,-0.48 0.448,-0.688 0.944,-1.216 2.56,-1.872 4.384,-1.872 1.536,0 2.368,0.8 2.368,1.744 0,2.336 -3.504,2.752 -6.976,2.192 l 0.56,2.048 c 5.12,0.544 8.544,-0.736 8.544,-4.304 0,-2.016 -1.696,-3.392 -4.256,-3.392 -1.456,0 -2.656,0.288 -3.936,0.992 0.256,-0.768 0.512,-1.776 0.72,-2.736 2.128,-0.112 4.64,-0.416 6.288,-0.672 z"
         style="fill:#ffffff"
         id="path1099" />
    </g>
    <g
       id="g623">
      <path
         d="m 438.46415,61.859 c -2.539,0.5547 -5.397,0.8747 -7.808,1.0027 l 0.128,-0.64 c 0.149,-0.704 0.256,-1.408 0.491,-2.1547 l -2.987,-0.128 c 0.021,0.704 0,1.216 -0.107,2.1334 -0.021,0.256 -0.085,0.5333 -0.128,0.8533 -1.28,-0.0213 -2.8797,-0.192 -4.1383,-0.4053 v 2.6246 c 1.0666,0.107 2.3043,0.192 3.6483,0.213 -0.555,2.326 -1.408,5.141 -2.411,7.082 l 2.496,0.896 c 0.213,-0.363 0.363,-0.64 0.597,-0.917 1.259,-1.622 3.414,-2.496 5.846,-2.496 2.048,0 3.157,1.066 3.157,2.325 0,3.115 -4.672,3.669 -9.301,2.923 l 0.746,2.73 c 6.827,0.726 11.392,-0.981 11.392,-5.738 0,-2.688 -2.261,-4.522 -5.674,-4.522 -1.942,0 -3.542,0.384 -5.248,1.323 0.341,-1.024 0.682,-2.368 0.96,-3.648 2.837,-0.15 6.186,-0.555 8.384,-0.897 z"
         style="opacity:0.2;fill:#000000"
         id="path601"
         sodipodi:nodetypes="cccccccccccccssccsscccc" />
      <path
         d="m 438.46415,60.858758 c -2.539,0.5547 -5.397,0.8747 -7.808,1.0027 l 0.128,-0.64 c 0.149,-0.704 0.256,-1.408 0.491,-2.1547 l -2.987,-0.128 c 0.021,0.704 0,1.216 -0.107,2.1334 -0.021,0.256 -0.085,0.5333 -0.128,0.8533 -1.28,-0.0213 -2.8797,-0.192 -4.1383,-0.4053 v 2.6246 c 1.0666,0.107 2.3043,0.192 3.6483,0.213 -0.555,2.326 -1.408,5.141 -2.411,7.082 l 2.496,0.896 c 0.213,-0.363 0.363,-0.64 0.597,-0.917 1.259,-1.622 3.414,-2.496 5.846,-2.496 2.048,0 3.157,1.066 3.157,2.325 0,3.115 -4.672,3.669 -9.301,2.923 l 0.746,2.73 c 6.827,0.726 11.392,-0.981 11.392,-5.738 0,-2.688 -2.261,-4.522 -5.674,-4.522 -1.942,0 -3.542,0.384 -5.248,1.323 0.341,-1.024 0.682,-2.368 0.96,-3.648 2.837,-0.15 6.186,-0.555 8.384,-0.897 z"
         style="fill:#ffffff"
         id="path353"
         sodipodi:nodetypes="cccccccccccccssccsscccc" />
    </g>
    <g
       id="g903"
       transform="translate(0,-0.50014)">
      <path
         d="m 321.69623,234.288 c -3.8085,0.83205 -8.09551,1.31205 -11.712,1.50405 l 0.192,-0.96 c 0.22349,-1.056 0.38399,-2.112 0.7365,-3.23205 l -4.4805,-0.192 c 0.0315,1.056 0,1.824 -0.16051,3.2001 -0.0315,0.384 -0.1275,0.79995 -0.192,1.27995 -1.92,-0.0319 -4.31955,-0.288 -6.20745,-0.60795 v 3.9369 c 1.5999,0.1605 3.45645,0.288 5.47245,0.3195 -0.8325,3.489 -2.112,7.7115 -3.6165,10.623 l 3.744,1.344 c 0.3195,-0.5445 0.5445,-0.96 0.8955,-1.3755 1.8885,-2.433 5.121,-3.744 8.769,-3.744 3.072,0 4.7355,1.599 4.7355,3.4875 0,4.6725 -7.008,5.5035 -13.9515,4.3845 l 1.119,4.095 c 10.2405,1.089 17.088,-1.4715 17.088,-8.607 0,-4.032 -3.3915,-6.783 -8.511,-6.783 -2.913,0 -5.313,0.576 -7.872,1.9845 0.5115,-1.536 1.023,-3.552 1.44,-5.472 4.2555,-0.225 9.279,-0.8325 12.576,-1.3455 z"
         style="opacity:0.2;fill:#000000;stroke-width:1.5"
         id="path827" />
      <path
         d="m 321.69623,233.28814 c -3.8085,0.83205 -8.09551,1.31205 -11.712,1.50405 l 0.192,-0.96 c 0.22349,-1.056 0.38399,-2.112 0.7365,-3.23205 l -4.4805,-0.192 c 0.0315,1.056 0,1.824 -0.16051,3.2001 -0.0315,0.384 -0.1275,0.79995 -0.192,1.27995 -1.92,-0.0319 -4.31955,-0.288 -6.20745,-0.60795 v 3.9369 c 1.5999,0.1605 3.45645,0.288 5.47245,0.3195 -0.8325,3.489 -2.112,7.7115 -3.6165,10.623 l 3.744,1.344 c 0.3195,-0.5445 0.5445,-0.96 0.8955,-1.3755 1.8885,-2.433 5.121,-3.744 8.769,-3.744 3.072,0 4.7355,1.599 4.7355,3.4875 0,4.6725 -7.008,5.5035 -13.9515,4.3845 l 1.119,4.095 c 10.2405,1.089 17.088,-1.4715 17.088,-8.607 0,-4.032 -3.3915,-6.783 -8.511,-6.783 -2.913,0 -5.313,0.576 -7.872,1.9845 0.5115,-1.536 1.023,-3.552 1.44,-5.472 4.2555,-0.225 9.279,-0.8325 12.576,-1.3455 z"
         style="fill:#ffffff;stroke-width:1.5"
         id="path799"
         sodipodi:nodetypes="cccccccccccccssccsscccc" />
    </g>
    <g
       id="g1089">
      <path
         d="m 332.928,159.717 c -5.077,1.109 -10.795,1.749 -15.616,2.005 l 0.256,-1.28 c 0.299,-1.408 0.512,-2.816 0.981,-4.309 l -5.973,-0.256 c 0.043,1.408 0,2.432 -0.213,4.267 -0.043,0.512 -0.171,1.066 -0.256,1.706 -2.56,-0.042 -5.76,-0.384 -8.278,-0.81 v 5.248 c 2.134,0.213 4.608,0.384 7.296,0.426 -1.109,4.651 -2.816,10.283 -4.821,14.166 l 4.992,1.792 c 0.427,-0.726 0.725,-1.28 1.195,-1.835 2.517,-3.243 6.826,-4.992 11.69,-4.992 4.096,0 6.315,2.133 6.315,4.651 0,6.229 -9.344,7.338 -18.603,5.845 l 1.494,5.461 c 13.653,1.451 22.784,-1.962 22.784,-11.477 0,-5.376 -4.523,-9.045 -11.35,-9.045 -3.882,0 -7.082,0.768 -10.496,2.645 0.683,-2.048 1.366,-4.736 1.92,-7.296 5.675,-0.299 12.374,-1.109 16.768,-1.792 z"
         style="opacity:0.2;fill:#000000"
         id="path1065" />
      <path
         d="m 332.928,158.71718 c -5.077,1.109 -10.795,1.749 -15.616,2.005 l 0.256,-1.28 c 0.299,-1.408 0.512,-2.816 0.981,-4.309 l -5.973,-0.256 c 0.043,1.408 0,2.432 -0.213,4.267 -0.043,0.512 -0.171,1.066 -0.256,1.706 -2.56,-0.042 -5.76,-0.384 -8.278,-0.81 v 5.248 c 2.134,0.213 4.608,0.384 7.296,0.426 -1.109,4.651 -2.816,10.283 -4.821,14.166 l 4.992,1.792 c 0.427,-0.726 0.725,-1.28 1.195,-1.835 2.517,-3.243 6.826,-4.992 11.69,-4.992 4.096,0 6.315,2.133 6.315,4.651 0,6.229 -9.344,7.338 -18.603,5.845 l 1.494,5.461 c 13.653,1.451 22.784,-1.962 22.784,-11.477 0,-5.376 -4.523,-9.045 -11.35,-9.045 -3.882,0 -7.082,0.768 -10.496,2.645 0.683,-2.048 1.366,-4.736 1.92,-7.296 5.675,-0.299 12.374,-1.109 16.768,-1.792 z"
         style="fill:#ffffff"
         id="path1037" />
    </g>
    <g
       id="g963"
       transform="matrix(2,0,0,2,-288,-412)">
      <path
         d="m 321.69623,233.288 c -3.8085,0.83205 -8.09551,1.31205 -11.712,1.50405 l 0.192,-0.96 c 0.22349,-1.056 0.38399,-2.112 0.7365,-3.23205 l -4.4805,-0.192 c 0.0315,1.056 0,1.824 -0.16051,3.2001 -0.0315,0.384 -0.1275,0.79995 -0.192,1.27995 -1.92,-0.0319 -4.31955,-0.288 -6.20745,-0.60795 v 3.9369 c 1.5999,0.1605 3.45645,0.288 5.47245,0.3195 -0.8325,3.489 -2.112,7.7115 -3.6165,10.623 l 3.744,1.344 c 0.3195,-0.5445 0.5445,-0.96 0.8955,-1.3755 1.8885,-2.433 5.121,-3.744 8.769,-3.744 3.072,0 4.7355,1.599 4.7355,3.4875 0,4.6725 -7.008,5.5035 -13.9515,4.3845 l 1.119,4.095 c 10.2405,1.089 17.088,-1.4715 17.088,-8.607 0,-4.032 -3.3915,-6.783 -8.511,-6.783 -2.913,0 -5.313,0.576 -7.872,1.9845 0.5115,-1.536 1.023,-3.552 1.44,-5.472 4.2555,-0.225 9.279,-0.8325 12.576,-1.3455 z"
         style="opacity:0.2;fill:#000000;stroke-width:1.5"
         id="path941" />
      <path
         d="m 321.69623,232.788 c -3.8085,0.83205 -8.09551,1.31205 -11.712,1.50405 l 0.192,-0.96 c 0.22349,-1.056 0.38399,-2.112 0.7365,-3.23205 l -4.4805,-0.192 c 0.0315,1.056 0,1.824 -0.16051,3.2001 -0.0315,0.384 -0.1275,0.79995 -0.192,1.27995 -1.92,-0.0319 -4.31955,-0.288 -6.20745,-0.60795 v 3.9369 c 1.5999,0.1605 3.45645,0.288 5.47245,0.3195 -0.8325,3.489 -2.112,7.7115 -3.6165,10.623 l 3.744,1.344 c 0.3195,-0.5445 0.5445,-0.96 0.8955,-1.3755 1.8885,-2.433 5.121,-3.744 8.769,-3.744 3.072,0 4.7355,1.599 4.7355,3.4875 0,4.6725 -7.008,5.5035 -13.9515,4.3845 l 1.119,4.095 c 10.2405,1.089 17.088,-1.4715 17.088,-8.607 0,-4.032 -3.3915,-6.783 -8.511,-6.783 -2.913,0 -5.313,0.576 -7.872,1.9845 0.5115,-1.536 1.023,-3.552 1.44,-5.472 4.2555,-0.225 9.279,-0.8325 12.576,-1.3455 z"
         style="fill:#ffffff;stroke-width:1.5"
         id="path913"
         sodipodi:nodetypes="cccccccccccccssccsscccc" />
    </g>
    <g
       id="g1247">
      <path
         d="m 195.712,104.868 c -20.308,4.436 -43.18,6.996 -62.464,8.02 l 1.024,-5.12 c 1.196,-5.632 2.048,-11.264 3.924,-17.236 l -23.892,-1.024 c 0.172,5.632 0,9.728 -0.852,17.068 -0.172,2.048 -0.684,4.264 -1.024,6.824 -10.24,-0.168 -23.04,-1.536 -33.112,-3.24 v 20.992 c 8.536,0.852 18.432,1.536 29.184,1.704 -4.436,18.604 -11.264,41.132 -19.28399,56.664 l 19.96799,7.168 c 1.708,-2.904 2.90001,-5.12 4.78,-7.34 10.068,-12.972 27.304,-19.968 46.76,-19.968 16.38401,0 25.26,8.532 25.26,18.604 0,24.916 -37.37599,29.352 -74.41199,23.38 l 5.976,21.844 C 172.16,239.012 208.684,225.36 208.684,187.3 c 0,-21.504 -18.092,-36.18 -45.4,-36.18 -15.528,0 -28.328,3.072 -41.984,10.58 2.732,-8.192 5.464,-18.944 7.68,-29.184 22.7,-1.196 49.496,-4.436 67.072,-7.168 z"
         style="opacity:0.2;fill:#000000;stroke-width:4"
         id="path1257" />
      <path
         d="m 195.712,102.86872 c -20.308,4.436 -43.18,6.996 -62.464,8.02 l 1.024,-5.12 c 1.196,-5.632 2.048,-11.264 3.924,-17.236 l -23.892,-1.024 c 0.172,5.632 0,9.728 -0.852,17.068 -0.172,2.048 -0.684,4.264 -1.024,6.824 -10.24,-0.168 -23.04,-1.536 -33.112,-3.24 v 20.992 c 8.536,0.852 18.432,1.536 29.184,1.704 -4.436,18.604 -11.264,41.132 -19.284,56.664 l 19.968,7.168 c 1.708,-2.904 2.9,-5.12 4.78,-7.34 10.068,-12.972 27.304,-19.968 46.76,-19.968 16.384,0 25.26,8.532 25.26,18.604 0,24.916 -37.376,29.352 -74.412,23.38 l 5.976,21.844 c 54.612,5.804 91.136,-7.848 91.136,-45.908 0,-21.504 -18.092,-36.18 -45.4,-36.18 -15.528,0 -28.328,3.072 -41.984,10.58 2.732,-8.192 5.464,-18.944 7.68,-29.184 22.7,-1.196 49.496,-4.436 67.072,-7.168 z"
         style="fill:#ffffff;stroke-width:1"
         id="path1223" />
    </g>
  </g>
  <g
     id="Highlights">
    <path
       id="rect653"
       style="opacity:0.2;fill:#ffffff"
       d="M 80,44 C 53.408027,44 32,65.408027 32,92 v 2 C 32,67.408027 53.408027,46 80,46 h 128 c 26.59197,0 48,21.408027 48,48 V 92 C 256,65.408027 234.59197,44 208,44 Z"
       sodipodi:nodetypes="sscsscsss" />
    <path
       id="rect773"
       style="opacity:0.2;fill:#ffffff"
       d="m 312,34 c -9.97199,0 -18,8.02801 -18,18 v 1 c 0,-9.97199 8.02801,-18 18,-18 h 48 c 9.97199,0 18,8.02801 18,18 v -1 c 0,-9.97199 -8.02801,-18 -18,-18 z" />
    <path
       id="rect1135"
       style="opacity:0.2;fill:#ffffff;fill-opacity:1"
       d="m 304,144 c -6.64799,0 -12,5.35201 -12,12 v 1 c 0,-6.64799 5.35201,-12 12,-12 h 32 c 6.64799,0 12,5.35201 12,12 v -1 c 0,-6.64799 -5.35201,-12 -12,-12 z" />
    <path
       id="rect1265"
       style="opacity:0.2;fill:#ffffff;fill-opacity:1"
       d="m 300,223 c -4.986,0 -9,4.014 -9,9 v 1 c 0,-4.986 4.014,-9 9,-9 h 24 c 4.986,0 9,4.014 9,9 v -1 c 0,-4.986 -4.014,-9 -9,-9 z" />
    <path
       id="rect1368"
       style="opacity:0.2;fill:#ffffff;fill-opacity:1"
       d="m 424,54 c -3.324,0 -6,2.676003 -6,6 v 1 c 0,-3.323997 2.676,-6 6,-6 h 16 c 3.324,0 6,2.676003 6,6 v -1 c 0,-3.323997 -2.676,-6 -6,-6 z" />
    <path
       id="rect1402"
       style="opacity:0.2;fill:#ffffff;fill-opacity:1"
       d="m 420,140 c -2.216,0 -4,1.784 -4,4 v 1 c 0,-2.216 1.784,-4 4,-4 h 8 c 2.216,0 4,1.784 4,4 v -1 c 0,-2.216 -1.784,-4 -4,-4 z" />
    <path
       id="rect1436"
       style="opacity:0.2;fill:#ffffff;fill-opacity:1"
       d="m 422,102 c -2.216,0 -4,1.784 -4,4 v 1 c 0,-2.216 1.784,-4 4,-4 h 12 c 2.216,0 4,1.784 4,4 v -1 c 0,-2.216 -1.784,-4 -4,-4 z" />
  </g>
</svg>
