<?xml version="1.0" encoding="UTF-8" standalone="no"?>
<!-- Created with Inkscape (http://www.inkscape.org/) -->

<svg
   width="480"
   height="300"
   viewBox="0 0 480 300"
   version="1.1"
   id="svg5"
   inkscape:version="1.2.2 (1:1.2.2+202305151914+b0a8486541)"
   sodipodi:docname="internet-web-browser.svg"
   xmlns:inkscape="http://www.inkscape.org/namespaces/inkscape"
   xmlns:sodipodi="http://sodipodi.sourceforge.net/DTD/sodipodi-0.dtd"
   xmlns="http://www.w3.org/2000/svg"
   xmlns:svg="http://www.w3.org/2000/svg">
  <sodipodi:namedview
     id="namedview7"
     pagecolor="#888888"
     bordercolor="#000000"
     borderopacity="0.25"
     inkscape:showpageshadow="true"
     inkscape:pageopacity="0"
     inkscape:pagecheckerboard="0"
     inkscape:deskcolor="#888888"
     inkscape:document-units="px"
     showgrid="false"
     showborder="false"
     inkscape:zoom="2.6866667"
     inkscape:cx="240.07444"
     inkscape:cy="150"
     inkscape:window-width="1920"
     inkscape:window-height="1008"
     inkscape:window-x="0"
     inkscape:window-y="0"
     inkscape:window-maximized="1"
     inkscape:current-layer="svg5" />
  <defs
     id="defs2" />
  <g
     id="Baseplate"
     style="display:none">
    <text
       y="19.774782"
       xml:space="preserve"
       x="15.006946"
       style="font-style:normal;font-variant:normal;font-weight:normal;font-stretch:normal;line-height:0%;font-family:'DejaVu Sans';-inkscape-font-specification:'DejaVu Sans';display:inline;fill:#000000;fill-opacity:1;stroke:none;enable-background:new"
       inkscape:label="context"
       id="context"><tspan
         style="font-style:normal;font-variant:normal;font-weight:normal;font-stretch:normal;font-size:18px;line-height:1.25;font-family:'DejaVu Sans';-inkscape-font-specification:'DejaVu Sans'"
         y="19.774782"
         x="15.006946"
         sodipodi:role="line"
         id="tspan3933">apps</tspan></text>
    <text
       y="19.774782"
       xml:space="preserve"
       x="122.48839"
       style="font-style:normal;font-variant:normal;font-weight:bold;font-stretch:normal;line-height:0%;font-family:'DejaVu Sans';-inkscape-font-specification:'DejaVu Sans Bold';text-align:start;writing-mode:lr-tb;text-anchor:start;display:inline;fill:#000000;fill-opacity:1;stroke:none;enable-background:new"
       inkscape:label="icon-name"
       id="icon-name"><tspan
         style="font-style:normal;font-variant:normal;font-weight:bold;font-stretch:normal;font-size:18px;line-height:1.25;font-family:'DejaVu Sans';-inkscape-font-specification:'DejaVu Sans Bold'"
         y="19.774782"
         x="122.48839"
         sodipodi:role="line"
         id="tspan3937">internet-web-browser</tspan></text>
    <rect
       style="fill:#ffffff"
       id="256x256"
       width="256"
       height="256"
       x="16"
       y="28" />
    <rect
       style="fill:#ffffff"
       id="96x96"
       width="96"
       height="96"
       x="288"
       y="28" />
    <rect
       style="fill:#ffffff"
       id="64x64"
       width="64"
       height="64"
       x="288"
       y="140" />
    <rect
       style="fill:#ffffff"
       id="48x48"
       width="48"
       height="48"
       x="288"
       y="220" />
    <rect
       style="fill:#ffffff"
       id="32x32"
       width="32"
       height="32"
       x="416"
       y="52" />
    <rect
       style="fill:#ffffff"
       id="24x24"
       width="24"
       height="24"
       x="416"
       y="100" />
    <rect
       style="fill:#ffffff"
       id="22x22"
       width="22"
       height="22"
       x="417"
       y="101" />
    <rect
       style="fill:#ffffff"
       id="16x16"
       width="16"
       height="16"
       x="416"
       y="140" />
  </g>
  <g
     id="Shadow">
    <rect
       style="opacity:0.2;fill:#000000"
       id="rect651"
       width="224"
       height="224"
       x="32"
       y="46"
       ry="48" />
    <rect
       style="opacity:0.2;fill:#000000"
       id="rect769"
       width="84"
       height="85"
       x="294"
       y="34"
       ry="18" />
    <rect
       style="opacity:0.2;fill:#000000;fill-opacity:1"
       id="rect1131"
       width="56"
       height="56"
       x="292"
       y="145"
       ry="12" />
    <rect
       style="opacity:0.2;fill:#000000;fill-opacity:1"
       id="rect1261"
       width="42"
       height="42"
       x="291"
       y="224"
       ry="9" />
    <rect
       style="opacity:0.2;fill:#000000;fill-opacity:1"
       id="rect1364"
       width="28"
       height="29"
       x="418"
       y="54"
       ry="6" />
    <rect
       style="opacity:0.2;fill:#000000;fill-opacity:1"
       id="rect1398"
       width="16"
       height="16"
       x="416"
       y="141"
       ry="4" />
    <rect
       style="opacity:0.2;fill:#000000;fill-opacity:1"
       id="rect1432"
       width="20"
       height="20"
       x="418"
       y="103"
       ry="4" />
  </g>
  <g
     id="Background">
    <rect
       style="fill:#4facf6;fill-opacity:1"
       id="rect597"
       width="224"
       height="224"
       x="32"
       y="44"
       ry="48" />
    <rect
       style="opacity:1;fill:#4facf6;fill-opacity:1"
       id="rect771"
       width="84"
       height="84"
       x="294"
       y="34"
       ry="18" />
    <rect
       style="opacity:1;fill:#4facf6;fill-opacity:1"
       id="rect1133"
       width="56"
       height="56"
       x="292"
       y="144"
       ry="12" />
    <rect
       style="opacity:1;fill:#4facf6;fill-opacity:1"
       id="rect1263"
       width="42"
       height="42"
       x="291"
       y="223"
       ry="9" />
    <rect
       style="opacity:1;fill:#4facf6;fill-opacity:1"
       id="rect1366"
       width="28"
       height="28"
       x="418"
       y="54"
       ry="6" />
    <rect
       style="opacity:1;fill:#4facf6;fill-opacity:1"
       id="rect1400"
       width="16"
       height="16"
       x="416"
       y="140"
       ry="4" />
    <rect
       style="opacity:1;fill:#4facf6;fill-opacity:1"
       id="rect1434"
       width="20"
       height="20"
       x="418"
       y="102"
       ry="4" />
  </g>
  <g
     id="g1419">
    <g
       id="g2015">
      <path
         d="m 423,147.5 6,-4 -4,6 -6,4 z"
         style="opacity:0.2;fill:#000000;stroke-width:1;stroke-linecap:square"
         id="path1963"
         sodipodi:nodetypes="ccccc" />
      <path
         d="m 423,147 h 2 v 2 l -6,4 z"
         style="fill:#e4e4e4;fill-opacity:1;stroke-width:1;stroke-linecap:square"
         id="path1935"
         sodipodi:nodetypes="ccccc" />
      <path
         d="m 423,147 6,-4 -4,6 z"
         style="fill:#d14040;fill-opacity:1;stroke-width:4;stroke-linecap:square"
         id="path1905"
         sodipodi:nodetypes="cccc" />
      <path
         d="m 423,147 6,-4 -10,10 z"
         style="opacity:0.2;fill:#ffffff;stroke-width:1;stroke-linecap:square"
         id="path1991"
         sodipodi:nodetypes="cccc" />
    </g>
    <g
       id="g2253"
       transform="matrix(0.5,0,0,0.5,272,-10)">
      <path
         d="m 309,242 17,-11 -11,17 -17,11 z"
         style="opacity:0.2;fill:#000000;stroke-width:2;stroke-linecap:square"
         id="path2173" />
      <path
         d="m 309,241 7,-1 -1,7 -17,11 z"
         style="fill:#e4e4e4;fill-opacity:1;stroke-width:2;stroke-linecap:square"
         id="path2229" />
      <path
         d="m 309,241 17,-11 -11,17 z"
         style="fill:#d14040;fill-opacity:1;stroke-width:4;stroke-linecap:square"
         id="path2145" />
      <path
         d="m 309,241 17,-11 -28,28 z"
         style="opacity:0.2;fill:#ffffff;stroke-width:2;stroke-linecap:square"
         id="path2201" />
    </g>
    <g
       id="g1695"
       transform="matrix(0.5,0,0,0.5,272,-18)">
      <path
         d="m 316,170 22,-14 -14,22 -22,14 z"
         style="opacity:0.2;fill:#000000;stroke-width:2;stroke-linecap:square"
         id="path1672"
         sodipodi:nodetypes="ccccc" />
      <path
         d="m 316,168 h 8 v 8 l -22,14 z"
         style="fill:#e4e4e4;fill-opacity:1;stroke-width:2;stroke-linecap:square"
         id="path1616"
         sodipodi:nodetypes="ccccc" />
      <path
         d="m 316,168 22,-14 -14,22 z"
         style="fill:#d14040;fill-opacity:1;stroke-width:4;stroke-linecap:square"
         id="path1644"
         sodipodi:nodetypes="cccc" />
      <path
         d="m 316,168 22,-14 -36,36 z"
         style="opacity:0.2;fill:#ffffff;stroke-width:2;stroke-linecap:square"
         id="path1705"
         sodipodi:nodetypes="cccc" />
    </g>
    <g
       id="g1895">
      <path
         d="m 309,242 17,-11 -11,17 -17,11 z"
         style="opacity:0.2;fill:#000000;stroke-width:2;stroke-linecap:square"
         id="path1871"
         sodipodi:nodetypes="ccccc" />
      <path
         d="m 309,241 7,-1 -1,7 -17,11 z"
         style="fill:#e4e4e4;fill-opacity:1;stroke-width:2;stroke-linecap:square"
         id="path1737"
         sodipodi:nodetypes="ccccc" />
      <path
         d="m 309,241 17,-11 -11,17 z"
         style="fill:#d14040;fill-opacity:1;stroke-width:4;stroke-linecap:square"
         id="path1815"
         sodipodi:nodetypes="cccc" />
      <path
         d="m 309,241 17,-11 -28,28 z"
         style="opacity:0.2;fill:#ffffff;stroke-width:2;stroke-linecap:square"
         id="path1843"
         sodipodi:nodetypes="cccc" />
    </g>
    <g
       id="g1412">
      <path
         d="m 316,169 22,-14 -14,22 -22,14 z"
         style="opacity:0.2;fill:#000000;stroke-width:2;stroke-linecap:square"
         id="path1332"
         sodipodi:nodetypes="ccccc" />
      <path
         d="m 316,168 h 8 v 8 l -22,14 z"
         style="fill:#e4e4e4;fill-opacity:1;stroke-width:2;stroke-linecap:square"
         id="path1360"
         sodipodi:nodetypes="ccccc" />
      <path
         d="m 316,168 22,-14 -14,22 z"
         style="fill:#d14040;fill-opacity:1;stroke-width:4;stroke-linecap:square"
         id="path1304"
         sodipodi:nodetypes="cccc" />
      <path
         d="m 316,168 22,-14 -36,36 z"
         style="opacity:0.2;fill:#ffffff;stroke-width:2;stroke-linecap:square"
         id="path1388"
         sodipodi:nodetypes="cccc" />
    </g>
    <g
       id="g2133"
       transform="matrix(2,0,0,2,-288,-412)">
      <path
         d="m 309,241.5 17,-11 -11,17 -17,11 z"
         style="opacity:0.2;fill:#000000;stroke-width:2;stroke-linecap:square"
         id="path2025" />
      <path
         d="m 309,241 7,-1 -1,7 -17,11 z"
         style="fill:#e4e4e4;fill-opacity:1;stroke-width:2;stroke-linecap:square"
         id="path2081" />
      <path
         d="m 309,241 17,-11 -11,17 z"
         style="fill:#d14040;fill-opacity:1;stroke-width:4;stroke-linecap:square"
         id="path2109" />
      <path
         d="m 309,241 17,-11 -28,28 z"
         style="opacity:0.2;fill:#ffffff;stroke-width:2;stroke-linecap:square"
         id="path2053" />
    </g>
    <g
       id="g1552"
       transform="matrix(4,0,0,4,-1136,-532)">
      <path
         d="m 316,168.5 22,-14 -14,22 -22,14 z"
         style="opacity:0.2;fill:#000000;stroke-width:2;stroke-linecap:square"
         id="path1528"
         sodipodi:nodetypes="ccccc" />
      <path
         d="m 316,168 h 8 v 8 l -22,14 z"
         style="fill:#e4e4e4;fill-opacity:1;stroke-width:2;stroke-linecap:square"
         id="path1457"
         sodipodi:nodetypes="ccccc" />
      <path
         d="m 316,168 22,-14 -14,22 z"
         style="fill:#d14040;fill-opacity:1;stroke-width:4;stroke-linecap:square"
         id="path1429"
         sodipodi:nodetypes="cccc" />
      <path
         d="m 316,168 22,-14 -36,36 z"
         style="opacity:0.2;fill:#ffffff;stroke-width:2;stroke-linecap:square"
         id="path1500"
         sodipodi:nodetypes="cccc" />
    </g>
  </g>
  <g
     id="Highlights">
    <path
       id="rect653"
       style="opacity:0.2;fill:#ffffff"
       d="M 80,44 C 53.408027,44 32,65.408027 32,92 v 2 C 32,67.408027 53.408027,46 80,46 h 128 c 26.59197,0 48,21.408027 48,48 V 92 C 256,65.408027 234.59197,44 208,44 Z"
       sodipodi:nodetypes="sscsscsss" />
    <path
       id="rect773"
       style="opacity:0.2;fill:#ffffff"
       d="m 312,34 c -9.97199,0 -18,8.02801 -18,18 v 1 c 0,-9.97199 8.02801,-18 18,-18 h 48 c 9.97199,0 18,8.02801 18,18 v -1 c 0,-9.97199 -8.02801,-18 -18,-18 z" />
    <path
       id="rect1135"
       style="opacity:0.2;fill:#ffffff;fill-opacity:1"
       d="m 304,144 c -6.64799,0 -12,5.35201 -12,12 v 1 c 0,-6.64799 5.35201,-12 12,-12 h 32 c 6.64799,0 12,5.35201 12,12 v -1 c 0,-6.64799 -5.35201,-12 -12,-12 z" />
    <path
       id="rect1265"
       style="opacity:0.2;fill:#ffffff;fill-opacity:1"
       d="m 300,223 c -4.986,0 -9,4.014 -9,9 v 1 c 0,-4.986 4.014,-9 9,-9 h 24 c 4.986,0 9,4.014 9,9 v -1 c 0,-4.986 -4.014,-9 -9,-9 z" />
    <path
       id="rect1368"
       style="opacity:0.2;fill:#ffffff;fill-opacity:1"
       d="m 424,54 c -3.324,0 -6,2.676003 -6,6 v 1 c 0,-3.323997 2.676,-6 6,-6 h 16 c 3.324,0 6,2.676003 6,6 v -1 c 0,-3.323997 -2.676,-6 -6,-6 z" />
    <path
       id="rect1402"
       style="opacity:0.2;fill:#ffffff;fill-opacity:1"
       d="m 420,140 c -2.216,0 -4,1.784 -4,4 v 1 c 0,-2.216 1.784,-4 4,-4 h 8 c 2.216,0 4,1.784 4,4 v -1 c 0,-2.216 -1.784,-4 -4,-4 z" />
    <path
       id="rect1436"
       style="opacity:0.2;fill:#ffffff;fill-opacity:1"
       d="m 422,102 c -2.216,0 -4,1.784 -4,4 v 1 c 0,-2.216 1.784,-4 4,-4 h 12 c 2.216,0 4,1.784 4,4 v -1 c 0,-2.216 -1.784,-4 -4,-4 z" />
  </g>
</svg>
