<?xml version="1.0" encoding="UTF-8" standalone="no"?>
<!-- Created with Inkscape (http://www.inkscape.org/) -->

<svg
   width="480"
   height="300"
   viewBox="0 0 480 300"
   version="1.1"
   id="svg5"
   inkscape:version="1.2.2 (1:1.2.2+202305151914+b0a8486541)"
   sodipodi:docname="internet-news-reader.svg"
   xmlns:inkscape="http://www.inkscape.org/namespaces/inkscape"
   xmlns:sodipodi="http://sodipodi.sourceforge.net/DTD/sodipodi-0.dtd"
   xmlns="http://www.w3.org/2000/svg"
   xmlns:svg="http://www.w3.org/2000/svg">
  <sodipodi:namedview
     id="namedview7"
     pagecolor="#888888"
     bordercolor="#000000"
     borderopacity="0.25"
     inkscape:showpageshadow="true"
     inkscape:pageopacity="0"
     inkscape:pagecheckerboard="0"
     inkscape:deskcolor="#888888"
     inkscape:document-units="px"
     showgrid="false"
     showborder="false"
     inkscape:zoom="2.6866667"
     inkscape:cx="240.44665"
     inkscape:cy="150"
     inkscape:window-width="1920"
     inkscape:window-height="1008"
     inkscape:window-x="0"
     inkscape:window-y="0"
     inkscape:window-maximized="1"
     inkscape:current-layer="svg5" />
  <defs
     id="defs2" />
  <g
     id="Baseplate"
     style="display:none">
    <text
       y="19.774782"
       xml:space="preserve"
       x="15.006946"
       style="font-style:normal;font-variant:normal;font-weight:normal;font-stretch:normal;line-height:0%;font-family:'DejaVu Sans';-inkscape-font-specification:'DejaVu Sans';display:inline;fill:#000000;fill-opacity:1;stroke:none;enable-background:new"
       inkscape:label="context"
       id="context"><tspan
         style="font-style:normal;font-variant:normal;font-weight:normal;font-stretch:normal;font-size:18px;line-height:1.25;font-family:'DejaVu Sans';-inkscape-font-specification:'DejaVu Sans'"
         y="19.774782"
         x="15.006946"
         sodipodi:role="line"
         id="tspan3933">apps</tspan></text>
    <text
       y="19.774782"
       xml:space="preserve"
       x="122.48839"
       style="font-style:normal;font-variant:normal;font-weight:bold;font-stretch:normal;line-height:0%;font-family:'DejaVu Sans';-inkscape-font-specification:'DejaVu Sans Bold';text-align:start;writing-mode:lr-tb;text-anchor:start;display:inline;fill:#000000;fill-opacity:1;stroke:none;enable-background:new"
       inkscape:label="icon-name"
       id="icon-name"><tspan
         style="font-style:normal;font-variant:normal;font-weight:bold;font-stretch:normal;font-size:18px;line-height:1.25;font-family:'DejaVu Sans';-inkscape-font-specification:'DejaVu Sans Bold'"
         y="19.774782"
         x="122.48839"
         sodipodi:role="line"
         id="tspan3937">internet-news-reader</tspan></text>
    <rect
       style="fill:#ffffff"
       id="256x256"
       width="256"
       height="256"
       x="16"
       y="28" />
    <rect
       style="fill:#ffffff"
       id="96x96"
       width="96"
       height="96"
       x="288"
       y="28" />
    <rect
       style="fill:#ffffff"
       id="64x64"
       width="64"
       height="64"
       x="288"
       y="140" />
    <rect
       style="fill:#ffffff"
       id="48x48"
       width="48"
       height="48"
       x="288"
       y="220" />
    <rect
       style="fill:#ffffff"
       id="32x32"
       width="32"
       height="32"
       x="416"
       y="52" />
    <rect
       style="fill:#ffffff"
       id="24x24"
       width="24"
       height="24"
       x="416"
       y="100" />
    <rect
       style="fill:#ffffff"
       id="22x22"
       width="22"
       height="22"
       x="417"
       y="101" />
    <rect
       style="fill:#ffffff"
       id="16x16"
       width="16"
       height="16"
       x="416"
       y="140" />
  </g>
  <g
     id="Shadow">
    <rect
       style="opacity:0.2;fill:#000000"
       id="rect651"
       width="224"
       height="224"
       x="32"
       y="46"
       ry="48" />
    <rect
       style="opacity:0.2;fill:#000000"
       id="rect769"
       width="84"
       height="85"
       x="294"
       y="34"
       ry="18" />
    <rect
       style="opacity:0.2;fill:#000000;fill-opacity:1"
       id="rect1131"
       width="56"
       height="56"
       x="292"
       y="145"
       ry="12" />
    <rect
       style="opacity:0.2;fill:#000000;fill-opacity:1"
       id="rect1261"
       width="42"
       height="42"
       x="291"
       y="224"
       ry="9" />
    <rect
       style="opacity:0.2;fill:#000000;fill-opacity:1"
       id="rect1364"
       width="28"
       height="29"
       x="418"
       y="54"
       ry="6" />
    <rect
       style="opacity:0.2;fill:#000000;fill-opacity:1"
       id="rect1398"
       width="16"
       height="16"
       x="416"
       y="141"
       ry="4" />
    <rect
       style="opacity:0.2;fill:#000000;fill-opacity:1"
       id="rect1432"
       width="20"
       height="20"
       x="418"
       y="103"
       ry="4" />
  </g>
  <g
     id="Background">
    <rect
       style="fill:#f59335;fill-opacity:1"
       id="rect597"
       width="224"
       height="224"
       x="32"
       y="44"
       ry="48" />
    <rect
       style="opacity:1;fill:#f59335;fill-opacity:1"
       id="rect771"
       width="84"
       height="84"
       x="294"
       y="34"
       ry="18" />
    <rect
       style="opacity:1;fill:#f59335;fill-opacity:1"
       id="rect1133"
       width="56"
       height="56"
       x="292"
       y="144"
       ry="12" />
    <rect
       style="opacity:1;fill:#f59335;fill-opacity:1"
       id="rect1263"
       width="42"
       height="42"
       x="291"
       y="223"
       ry="9" />
    <rect
       style="opacity:1;fill:#f59335;fill-opacity:1"
       id="rect1366"
       width="28"
       height="28"
       x="418"
       y="54"
       ry="6" />
    <rect
       style="opacity:1;fill:#f59335;fill-opacity:1"
       id="rect1400"
       width="16"
       height="16"
       x="416"
       y="140"
       ry="4" />
    <rect
       style="opacity:1;fill:#f59335;fill-opacity:1"
       id="rect1434"
       width="20"
       height="20"
       x="418"
       y="102"
       ry="4" />
  </g>
  <g
     id="Symbols">
    <path
       d="m 419.75,144 c -0.4987,0 -0.75,0.24275 -0.75,0.75 0,0.528 0.22455,0.75 0.75,0.75 3.728,0 6.75,3.022 6.75,6.75 0,0.4665 0.2545,0.75 0.75,0.75 0.51,0 0.75,-0.298 0.75,-0.75 0,-4.5565 -3.6935,-8.25 -8.25,-8.25 z m 0,3 c -0.4843,0 -0.75,0.214 -0.75,0.75 0,0.5137 0.21012,0.75 0.75,0.75 2.0711,0 3.75,1.679 3.75,3.75 0,0.4415 0.25344,0.75 0.75,0.75 0.4845,0 0.75,-0.269 0.75,-0.75 0,-2.8995 -2.3505,-5.25 -5.25,-5.25 z m 0.75,3 c -0.82845,0 -1.5,0.6715 -1.5,1.5 0,0.8285 0.67155,1.5 1.5,1.5 0.8285,0 1.5,-0.6715 1.5,-1.5 0,-0.8285 -0.6715,-1.5 -1.5,-1.5 z"
       id="path352"
       style="fill:#ffffff" />
    <path
       d="m 422,107.5 c 0,0.5 0.5,1 1,1 4.9706,-1e-5 9,4.0294 9,9 0,0.5 0.45347,1 1,1 0.5,0 1,-0.5 1,-1 0,-6.075 -4.925,-11 -11,-11 -0.5,0 -1,0.5 -1,1 z m 0,4 c 0,0.5 0.5,1 1,1 2.7614,0 5,2.2386 5,5 0,0.5 0.5,1 1,1 0.5,0 1,-0.5 1,-1 0,-3.866 -3.134,-7 -7,-7 -0.5,0 -1,0.5 -1,1 z m 2,3 c -1.1046,0 -2,0.89545 -2,2 0,1.1045 0.8955,2 2,2 1.1046,0 2,-0.89545 2,-2 0,-1.10455 -0.89545,-2 -2,-2 z"
       style="fill:#000000;opacity:0.2"
       id="path1668"
       sodipodi:nodetypes="sssssssssssssssssss" />
    <path
       d="m 422,107 c 0,0.5 0.5,1 1,1 4.9706,-1e-5 9,4.0294 9,9 0,0.5 0.45347,1 1,1 0.5,0 1,-0.5 1,-1 0,-6.075 -4.925,-11 -11,-11 -0.5,0 -1,0.5 -1,1 z m 0,4 c 0,0.5 0.5,1 1,1 2.7614,0 5,2.2386 5,5 0,0.5 0.5,1 1,1 0.5,0 1,-0.5 1,-1 0,-3.866 -3.134,-7 -7,-7 -0.5,0 -1,0.5 -1,1 z m 2,3 c -1.1046,0 -2,0.89545 -2,2 0,1.1045 0.8955,2 2,2 1.1046,0 2,-0.89545 2,-2 0,-1.10455 -0.89545,-2 -2,-2 z"
       style="fill:#ffffff"
       id="path1723" />
    <path
       d="m 423.5,59 c -0.82843,0 -1.5,0.671573 -1.5,1.5 0,0.828427 0.67157,1.5 1.5,1.5 8.57816,0 15.5,6.921837 15.5,15.5 0,0.828427 0.67157,1.5 1.5,1.5 0.82843,0 1.5,-0.671573 1.5,-1.5 C 442,67.300519 433.69948,59 423.5,59 Z m 0,7 c -0.82843,0 -1.5,0.671573 -1.5,1.5 0,0.828427 0.67157,1.5 1.5,1.5 4.71218,0 8.5,3.787822 8.5,8.5 0,0.828427 0.67157,1.5 1.5,1.5 0.82843,0 1.5,-0.671573 1.5,-1.5 C 435,71.166505 429.83349,66 423.5,66 Z m 1.5,7 c -1.65685,0 -3,1.343146 -3,3 0,1.656854 1.34315,3 3,3 1.65685,0 3,-1.343146 3,-3 0,-1.656854 -1.34315,-3 -3,-3 z"
       style="color:#000000;opacity:0.2;fill:#000000;stroke-linecap:round;stroke-linejoin:round;-inkscape-stroke:none"
       id="path1924"
       sodipodi:nodetypes="sssssssssssssssssss" />
    <path
       id="path1795"
       style="color:#000000;fill:#ffffff;stroke-linecap:round;stroke-linejoin:round;-inkscape-stroke:none"
       d="m 423.5,58 c -0.82843,0 -1.5,0.671573 -1.5,1.5 0,0.828427 0.67157,1.5 1.5,1.5 8.57816,0 15.5,6.921837 15.5,15.5 0,0.828427 0.67157,1.5 1.5,1.5 0.82843,0 1.5,-0.671573 1.5,-1.5 C 442,66.300519 433.69948,58 423.5,58 Z m 0,7 c -0.82843,0 -1.5,0.671573 -1.5,1.5 0,0.828427 0.67157,1.5 1.5,1.5 4.71218,0 8.5,3.787822 8.5,8.5 0,0.828427 0.67157,1.5 1.5,1.5 0.82843,0 1.5,-0.671573 1.5,-1.5 C 435,70.166505 429.83349,65 423.5,65 Z m 1.5,7 c -1.65685,0 -3,1.343146 -3,3 0,1.656854 1.34315,3 3,3 1.65685,0 3,-1.343146 3,-3 0,-1.656854 -1.34315,-3 -3,-3 z"
       sodipodi:nodetypes="sssssssssssssssssss" />
    <path
       d="m 299.5,230 c -1.38071,0 -2.5,1.11929 -2.5,2.5 0,1.38071 1.11929,2.5 2.5,2.5 12.456,0 22.5,10.044 22.5,22.5 0,1.38071 1.11929,2.5 2.5,2.5 1.38071,0 2.5,-1.11929 2.5,-2.5 0,-15.15818 -12.34182,-27.5 -27.5,-27.5 z m 0,11 c -1.38071,0 -2.5,1.11929 -2.5,2.5 0,1.38071 1.11929,2.5 2.5,2.5 6.38087,0 11.5,5.11913 11.5,11.5 0,1.38071 1.11929,2.5 2.5,2.5 1.38071,0 2.5,-1.11929 2.5,-2.5 0,-9.08307 -7.41693,-16.5 -16.5,-16.5 z m 1.5,11 c -2.20914,0 -4,1.79086 -4,4 0,2.20914 1.79086,4 4,4 2.20914,0 4,-1.79086 4,-4 0,-2.20914 -1.79086,-4 -4,-4 z"
       style="fill:#000000;fill-opacity:1;stroke:none;stroke-width:2.23028;stroke-linecap:round;stroke-linejoin:round;stroke-dasharray:none;stroke-opacity:1;opacity:0.2"
       id="path2180" />
    <path
       id="path2112"
       style="opacity:1;fill:#ffffff;fill-opacity:1;stroke:none;stroke-width:2.23028;stroke-linecap:round;stroke-linejoin:round;stroke-dasharray:none;stroke-opacity:1"
       d="m 299.5,229 c -1.38071,0 -2.5,1.11929 -2.5,2.5 0,1.38071 1.11929,2.5 2.5,2.5 12.456,0 22.5,10.044 22.5,22.5 0,1.38071 1.11929,2.5 2.5,2.5 1.38071,0 2.5,-1.11929 2.5,-2.5 0,-15.15818 -12.34182,-27.5 -27.5,-27.5 z m 0,11 c -1.38071,0 -2.5,1.11929 -2.5,2.5 0,1.38071 1.11929,2.5 2.5,2.5 6.38087,0 11.5,5.11913 11.5,11.5 0,1.38071 1.11929,2.5 2.5,2.5 1.38071,0 2.5,-1.11929 2.5,-2.5 0,-9.08307 -7.41693,-16.5 -16.5,-16.5 z m 1.5,11 c -2.20914,0 -4,1.79086 -4,4 0,2.20914 1.79086,4 4,4 2.20914,0 4,-1.79086 4,-4 0,-2.20914 -1.79086,-4 -4,-4 z"
       sodipodi:nodetypes="sssssssssssssssssss" />
    <path
       d="m 303,153 c -1.65686,0 -3,1.34314 -3,3 0,1.65685 1.34314,3 3,3 17.15632,0 31,13.84367 31,31 0,1.65686 1.34314,3 3,3 1.65686,0 3,-1.34314 3,-3 0,-20.39896 -16.60104,-37 -37,-37 z m 0,14 c -1.65686,0 -3,1.34314 -3,3 0,1.65685 1.34314,3 3,3 9.42436,0 17,7.57564 17,17 0,1.65686 1.34314,3 3,3 1.65686,0 3,-1.34314 3,-3 0,-12.66699 -10.33302,-23 -23,-23 z m 3,14 c -3.3137,0 -6,2.68629 -6,6 0,3.31371 2.6863,6 6,6 3.3137,0 6,-2.68629 6,-6 0,-3.31371 -2.6863,-6 -6,-6 z"
       style="color:#000000;opacity:0.2;fill:#000000;stroke-width:2;stroke-linecap:round;stroke-linejoin:round;-inkscape-stroke:none"
       id="path1980"
       sodipodi:nodetypes="sssssssssssssssssss" />
    <path
       d="m 303,152 c -1.65686,0 -3,1.34314 -3,3 0,1.65685 1.34314,3 3,3 17.15632,0 31,13.84367 31,31 0,1.65685 1.34314,3 3,3 1.65686,0 3,-1.34315 3,-3 0,-20.39896 -16.60104,-37 -37,-37 z m 0,14 c -1.65686,0 -3,1.34314 -3,3 0,1.65685 1.34314,3 3,3 9.42436,0 17,7.57564 17,17 0,1.65685 1.34314,3 3,3 1.65686,0 3,-1.34315 3,-3 0,-12.66699 -10.33302,-23 -23,-23 z m 3,14 c -3.3137,0 -6,2.68629 -6,6 0,3.31371 2.6863,6 6,6 3.3137,0 6,-2.68629 6,-6 0,-3.31371 -2.6863,-6 -6,-6 z"
       style="color:#000000;fill:#ffffff;stroke-width:2;stroke-linecap:round;stroke-linejoin:round;-inkscape-stroke:none"
       id="path1952"
       sodipodi:nodetypes="sssssssssssssssssss" />
    <path
       d="m 310.5,47 c -2.48529,0 -4.5,2.01471 -4.5,4.5 0,2.48527 2.01471,4.5 4.5,4.5 25.73448,0 46.5,20.76551 46.5,46.5 0,2.48529 2.01471,4.5 4.5,4.5 2.48529,0 4.5,-2.01471 4.5,-4.5 C 366,71.90156 341.09844,47 310.5,47 Z m 0,21 c -2.48529,0 -4.5,2.01471 -4.5,4.5 0,2.48527 2.01471,4.5 4.5,4.5 14.13654,0 25.5,11.36346 25.5,25.5 0,2.48529 2.01471,4.5 4.5,4.5 2.48529,0 4.5,-2.01471 4.5,-4.5 C 345,83.49951 329.50047,68 310.5,68 Z m 4.5,21 c -4.97055,0 -9,4.02944 -9,9 0,4.97056 4.02945,9 9,9 4.97055,0 9,-4.02944 9,-9 0,-4.97056 -4.02945,-9 -9,-9 z"
       style="color:#000000;opacity:0.2;fill:#000000;stroke-width:3;stroke-linecap:round;stroke-linejoin:round;-inkscape-stroke:none"
       id="path2092" />
    <path
       d="m 310.5,46 c -2.48529,0 -4.5,2.01471 -4.5,4.5 0,2.48527 2.01471,4.5 4.5,4.5 25.73448,0 46.5,20.76551 46.5,46.5 0,2.48527 2.01471,4.5 4.5,4.5 2.48529,0 4.5,-2.01473 4.5,-4.5 C 366,70.90156 341.09844,46 310.5,46 Z m 0,21 c -2.48529,0 -4.5,2.01471 -4.5,4.5 0,2.48527 2.01471,4.5 4.5,4.5 14.13654,0 25.5,11.36346 25.5,25.5 0,2.48527 2.01471,4.5 4.5,4.5 2.48529,0 4.5,-2.01473 4.5,-4.5 C 345,82.49951 329.50047,67 310.5,67 Z m 4.5,21 c -4.97055,0 -9,4.02944 -9,9 0,4.97056 4.02945,9 9,9 4.97055,0 9,-4.02944 9,-9 0,-4.97056 -4.02945,-9 -9,-9 z"
       style="color:#000000;fill:#ffffff;stroke-width:3;stroke-linecap:round;stroke-linejoin:round;-inkscape-stroke:none"
       id="path2064" />
    <path
       d="m 76,78 c -6.62744,0 -12,5.37256 -12,12 0,6.6274 5.37256,12 12,12 68.62528,0 124,55.37468 124,124 0,6.6274 5.37256,12 12,12 6.62744,0 12,-5.3726 12,-12 C 224,144.40416 157.59584,78 76,78 Z m 0,56 c -6.62744,0 -12,5.37256 -12,12 0,6.6274 5.37256,12 12,12 37.69744,0 68,30.30256 68,68 0,6.6274 5.37256,12 12,12 6.62744,0 12,-5.3726 12,-12 0,-50.66796 -41.33208,-92 -92,-92 z m 12,56 c -13.2548,0 -24,10.74516 -24,24 0,13.25484 10.7452,24 24,24 13.2548,0 24,-10.74516 24,-24 0,-13.25484 -10.7452,-24 -24,-24 z"
       style="color:#000000;opacity:0.2;fill:#000000;stroke-width:8;stroke-linecap:round;stroke-linejoin:round;-inkscape-stroke:none"
       id="path2036" />
    <path
       d="m 76,76 c -6.62744,0 -12,5.37256 -12,12 0,6.6274 5.37256,12 12,12 68.62528,0 124,55.37468 124,124 0,6.6274 5.37256,12 12,12 6.62744,0 12,-5.3726 12,-12 C 224,142.40416 157.59584,76 76,76 Z m 0,56 c -6.62744,0 -12,5.37256 -12,12 0,6.6274 5.37256,12 12,12 37.69744,0 68,30.30256 68,68 0,6.6274 5.37256,12 12,12 6.62744,0 12,-5.3726 12,-12 0,-50.66796 -41.33208,-92 -92,-92 z m 12,56 c -13.2548,0 -24,10.74516 -24,24 0,13.25484 10.7452,24 24,24 13.2548,0 24,-10.74516 24,-24 0,-13.25484 -10.7452,-24 -24,-24 z"
       style="color:#000000;fill:#ffffff;stroke-width:8;stroke-linecap:round;stroke-linejoin:round;-inkscape-stroke:none"
       id="path2008" />
  </g>
  <g
     id="Highlights">
    <path
       id="rect653"
       style="opacity:0.2;fill:#ffffff"
       d="M 80,44 C 53.408027,44 32,65.408027 32,92 v 2 C 32,67.408027 53.408027,46 80,46 h 128 c 26.59197,0 48,21.408027 48,48 V 92 C 256,65.408027 234.59197,44 208,44 Z"
       sodipodi:nodetypes="sscsscsss" />
    <path
       id="rect773"
       style="opacity:0.2;fill:#ffffff"
       d="m 312,34 c -9.97199,0 -18,8.02801 -18,18 v 1 c 0,-9.97199 8.02801,-18 18,-18 h 48 c 9.97199,0 18,8.02801 18,18 v -1 c 0,-9.97199 -8.02801,-18 -18,-18 z" />
    <path
       id="rect1135"
       style="opacity:0.2;fill:#ffffff;fill-opacity:1"
       d="m 304,144 c -6.64799,0 -12,5.35201 -12,12 v 1 c 0,-6.64799 5.35201,-12 12,-12 h 32 c 6.64799,0 12,5.35201 12,12 v -1 c 0,-6.64799 -5.35201,-12 -12,-12 z" />
    <path
       id="rect1265"
       style="opacity:0.2;fill:#ffffff;fill-opacity:1"
       d="m 300,223 c -4.986,0 -9,4.014 -9,9 v 1 c 0,-4.986 4.014,-9 9,-9 h 24 c 4.986,0 9,4.014 9,9 v -1 c 0,-4.986 -4.014,-9 -9,-9 z" />
    <path
       id="rect1368"
       style="opacity:0.2;fill:#ffffff;fill-opacity:1"
       d="m 424,54 c -3.324,0 -6,2.676003 -6,6 v 1 c 0,-3.323997 2.676,-6 6,-6 h 16 c 3.324,0 6,2.676003 6,6 v -1 c 0,-3.323997 -2.676,-6 -6,-6 z" />
    <path
       id="rect1402"
       style="opacity:0.2;fill:#ffffff;fill-opacity:1"
       d="m 420,140 c -2.216,0 -4,1.784 -4,4 v 1 c 0,-2.216 1.784,-4 4,-4 h 8 c 2.216,0 4,1.784 4,4 v -1 c 0,-2.216 -1.784,-4 -4,-4 z" />
    <path
       id="rect1436"
       style="opacity:0.2;fill:#ffffff;fill-opacity:1"
       d="m 422,102 c -2.216,0 -4,1.784 -4,4 v 1 c 0,-2.216 1.784,-4 4,-4 h 12 c 2.216,0 4,1.784 4,4 v -1 c 0,-2.216 -1.784,-4 -4,-4 z" />
  </g>
</svg>
