<?xml version="1.0" encoding="UTF-8" standalone="no"?>
<!-- Created with Inkscape (http://www.inkscape.org/) -->

<svg
   width="480"
   height="300"
   viewBox="0 0 480 300"
   version="1.1"
   id="svg5"
   inkscape:version="1.2.2 (1:1.2.2+202305151914+b0a8486541)"
   sodipodi:docname="libreoffice-calc.svg"
   xmlns:inkscape="http://www.inkscape.org/namespaces/inkscape"
   xmlns:sodipodi="http://sodipodi.sourceforge.net/DTD/sodipodi-0.dtd"
   xmlns="http://www.w3.org/2000/svg"
   xmlns:svg="http://www.w3.org/2000/svg">
  <sodipodi:namedview
     id="namedview7"
     pagecolor="#888888"
     bordercolor="#000000"
     borderopacity="0.25"
     inkscape:showpageshadow="true"
     inkscape:pageopacity="0"
     inkscape:pagecheckerboard="0"
     inkscape:deskcolor="#888888"
     inkscape:document-units="px"
     showgrid="false"
     showborder="false"
     inkscape:zoom="2.6866667"
     inkscape:cx="240.07444"
     inkscape:cy="150"
     inkscape:window-width="1920"
     inkscape:window-height="1008"
     inkscape:window-x="0"
     inkscape:window-y="0"
     inkscape:window-maximized="1"
     inkscape:current-layer="svg5" />
  <defs
     id="defs2" />
  <g
     id="Baseplate"
     style="display:none">
    <text
       y="19.774782"
       xml:space="preserve"
       x="15.006946"
       style="font-style:normal;font-variant:normal;font-weight:normal;font-stretch:normal;line-height:0%;font-family:'DejaVu Sans';-inkscape-font-specification:'DejaVu Sans';display:inline;fill:#000000;fill-opacity:1;stroke:none;enable-background:new"
       inkscape:label="context"
       id="context"><tspan
         style="font-style:normal;font-variant:normal;font-weight:normal;font-stretch:normal;font-size:18px;line-height:1.25;font-family:'DejaVu Sans';-inkscape-font-specification:'DejaVu Sans'"
         y="19.774782"
         x="15.006946"
         sodipodi:role="line"
         id="tspan3933">apps</tspan></text>
    <text
       y="19.774782"
       xml:space="preserve"
       x="122.48839"
       style="font-style:normal;font-variant:normal;font-weight:bold;font-stretch:normal;line-height:0%;font-family:'DejaVu Sans';-inkscape-font-specification:'DejaVu Sans Bold';text-align:start;writing-mode:lr-tb;text-anchor:start;display:inline;fill:#000000;fill-opacity:1;stroke:none;enable-background:new"
       inkscape:label="icon-name"
       id="icon-name"><tspan
         style="font-style:normal;font-variant:normal;font-weight:bold;font-stretch:normal;font-size:18px;line-height:1.25;font-family:'DejaVu Sans';-inkscape-font-specification:'DejaVu Sans Bold'"
         y="19.774782"
         x="122.48839"
         sodipodi:role="line"
         id="tspan3937">libreoffice-calc</tspan></text>
    <rect
       style="fill:#ffffff"
       id="256x256"
       width="256"
       height="256"
       x="16"
       y="28" />
    <rect
       style="fill:#ffffff"
       id="96x96"
       width="96"
       height="96"
       x="288"
       y="28" />
    <rect
       style="fill:#ffffff"
       id="64x64"
       width="64"
       height="64"
       x="288"
       y="140" />
    <rect
       style="fill:#ffffff"
       id="48x48"
       width="48"
       height="48"
       x="288"
       y="220" />
    <rect
       style="fill:#ffffff"
       id="32x32"
       width="32"
       height="32"
       x="416"
       y="52" />
    <rect
       style="fill:#ffffff"
       id="24x24"
       width="24"
       height="24"
       x="416"
       y="100" />
    <rect
       style="fill:#ffffff"
       id="22x22"
       width="22"
       height="22"
       x="417"
       y="101" />
    <rect
       style="fill:#ffffff"
       id="16x16"
       width="16"
       height="16"
       x="416"
       y="140" />
  </g>
  <g
     id="Shadow">
    <rect
       style="opacity:0.2;fill:#000000"
       id="rect651"
       width="224"
       height="224"
       x="32"
       y="46"
       ry="48" />
    <rect
       style="opacity:0.2;fill:#000000"
       id="rect769"
       width="84"
       height="85"
       x="294"
       y="34"
       ry="18" />
    <rect
       style="opacity:0.2;fill:#000000;fill-opacity:1"
       id="rect1131"
       width="56"
       height="56"
       x="292"
       y="145"
       ry="12" />
    <rect
       style="opacity:0.2;fill:#000000;fill-opacity:1"
       id="rect1261"
       width="42"
       height="42"
       x="291"
       y="224"
       ry="9" />
    <rect
       style="opacity:0.2;fill:#000000;fill-opacity:1"
       id="rect1364"
       width="28"
       height="29"
       x="418"
       y="54"
       ry="6" />
    <rect
       style="opacity:0.2;fill:#000000;fill-opacity:1"
       id="rect1398"
       width="16"
       height="16"
       x="416"
       y="141"
       ry="4" />
    <rect
       style="opacity:0.2;fill:#000000;fill-opacity:1"
       id="rect1432"
       width="20"
       height="20"
       x="418"
       y="103"
       ry="4" />
  </g>
  <g
     id="Background">
    <rect
       style="fill:#4ba425;fill-opacity:1"
       id="rect597"
       width="224"
       height="224"
       x="32"
       y="44"
       ry="48" />
    <rect
       style="opacity:1;fill:#4ba425;fill-opacity:1"
       id="rect771"
       width="84"
       height="84"
       x="294"
       y="34"
       ry="18" />
    <rect
       style="opacity:1;fill:#4ba425;fill-opacity:1"
       id="rect1133"
       width="56"
       height="56"
       x="292"
       y="144"
       ry="12" />
    <rect
       style="opacity:1;fill:#4ba425;fill-opacity:1"
       id="rect1263"
       width="42"
       height="42"
       x="291"
       y="223"
       ry="9" />
    <rect
       style="opacity:1;fill:#4ba425;fill-opacity:1"
       id="rect1366"
       width="28"
       height="28"
       x="418"
       y="54"
       ry="6" />
    <rect
       style="opacity:1;fill:#4ba425;fill-opacity:1"
       id="rect1400"
       width="16"
       height="16"
       x="416"
       y="140"
       ry="4" />
    <rect
       style="opacity:1;fill:#4ba425;fill-opacity:1"
       id="rect1434"
       width="20"
       height="20"
       x="418"
       y="102"
       ry="4" />
  </g>
  <g
     id="g1968">
    <g
       id="g1961">
      <path
         id="rect1900"
         style="opacity:0.2;fill:#000000;fill-opacity:1;stroke-width:5;stroke-linecap:round;stroke-linejoin:round"
         d="M 420 146 L 420 146.5 L 425 146.5 L 425 146 L 420 146 z M 420 148 L 420 148.5 L 422 148.5 L 422 148 L 420 148 z M 419 150 L 419 150.5 L 422 150.5 L 422 150 L 419 150 z M 422 152 L 422 152.5 L 428 152.5 L 428 152 L 422 152 z " />
      <path
         d="m 419,145 v 5 h 7 v -5 z m 1,1 h 2 v 1 h -2 z m 3,0 h 2 v 1 h -2 z m -3,2 h 2 v 1 h -2 z m 3,0 h 2 v 1 h -2 z"
         style="fill:#ffffff;fill-opacity:1;stroke-width:3;stroke-linecap:round;stroke-linejoin:round"
         id="path351"
         sodipodi:nodetypes="ccccccccccccccccccccccccc" />
      <rect
         style="fill:#b1e59b;fill-opacity:1;stroke:none;stroke-width:1"
         id="rect2218"
         width="6"
         height="5"
         x="422"
         y="147" />
      <path
         id="rect3399"
         style="fill:#5aba30;fill-opacity:1;stroke:none;stroke-width:0.999997"
         d="m 426,148 v 3 h 1 v -3 z m -3,2 v 1 h 1 v -1 z"
         sodipodi:nodetypes="cccccccccc" />
    </g>
    <g
       id="g2497">
      <path
         id="rect2481"
         style="opacity:0.2;fill:#000000;fill-opacity:1;stroke-width:5;stroke-linecap:round;stroke-linejoin:round"
         d="M 423 109 L 423 109.5 L 431 109.5 L 431 109 L 423 109 z M 423 111 L 423 111.5 L 431 111.5 L 431 111 L 423 111 z M 423 113 L 423 113.5 L 427 113.5 L 427 113 L 423 113 z M 422 115 L 422 115.5 L 427 115.5 L 427 115 L 422 115 z M 427 117 L 427 117.5 L 434 117.5 L 434 117 L 427 117 z " />
      <path
         id="path351-3"
         style="fill:#ffffff;fill-opacity:1;stroke-width:3;stroke-linecap:round;stroke-linejoin:round"
         d="m 422,108 v 7 h 10 v -7 z m 1,1 h 2 v 1 h -2 z m 3,0 h 2 v 1 h -2 z m 3,0 h 2 v 1 h -2 z m -6,2 h 2 v 1 h -2 z m 3,0 h 2 v 1 h -2 z m 3,0 h 2 v 1 h -2 z m -6,2 h 2 v 1 h -2 z m 3,0 h 2 v 1 h -2 z m 3,0 h 2 v 1 h -2 z" />
      <rect
         style="fill:#b1e59b;fill-opacity:1;stroke:none;stroke-width:1.08012"
         id="rect2218-6"
         width="7"
         height="5"
         x="427"
         y="112" />
      <path
         id="rect3399-7"
         style="fill:#5aba30;fill-opacity:1;stroke:none;stroke-width:0.999997"
         d="m 430,113 v 3 h 1 v -3 z m -2,1 v 2 h 1 v -2 z m 4,1 v 1 h 1 v -1 z" />
    </g>
    <g
       id="g2726"
       transform="translate(14.00993,10.563275)">
      <path
         id="rect523-6"
         style="fill:#000000;stroke-width:0.5;opacity:0.2"
         d="m 410.99007,52.936725 c -0.554,0 -1,0.446003 -1,1 v 7 c 0,0.553999 0.446,1 1,1 h 6 v 2 c 0,0.554 0.446,1 1,1 h 7 c 0.554,0 1,-0.446 1,-1 v -5 c 0,-0.553999 -0.446,-1 -1,-1 h -2 v -4 c 0,-0.553997 -0.446,-1 -1,-1 z m 0,1 h 3 v 1 h -3 z m 4,0 h 3 v 1 h -3 z m 4,0 h 3 v 1 h -3 z m -8,2 h 3 v 1 h -3 z m 4,0 h 3 v 1 h -3 z m 4,0 h 3 v 1 h -3 z m -8,2 h 3 v 1 h -3 z m 4,0 h 3 c -0.554,0 -1,0.446001 -1,1 h -2 z m -4,2 h 3 v 1 h -3 z m 4,0 h 2 v 1 h -2 z" />
      <path
         id="rect523"
         style="fill:#ffffff;stroke-width:0.5"
         d="m 410.99007,52.436725 c -0.554,0 -1,0.446002 -1,1 v 7 c 0,0.553999 0.446,1 1,1 h 11 c 0.554,0 1,-0.446001 1,-1 v -7 c 0,-0.553998 -0.446,-1 -1,-1 z m 0,1 h 3 v 1 h -3 z m 4,0 h 3 v 1 h -3 z m 4,0 h 3 v 1 h -3 z m -8,2 h 3 v 1 h -3 z m 4,0 h 3 v 1 h -3 z m 4,0 h 3 v 1 h -3 z m -8,2 h 3 v 1 h -3 z m 4,0 h 3 v 1 h -3 z m 4,0 h 3 v 1 h -3 z m -8,2 h 3 v 1 h -3 z m 4,0 h 3 v 1 h -3 z m 4,0 h 3 v 1 h -3 z"
         sodipodi:nodetypes="ssssssssscccccccccccccccccccccccccccccccccccccccccccccccccccccccccccc" />
      <rect
         style="fill:#b1e59b;fill-opacity:1;stroke:none;stroke-width:0.583331"
         id="rect2218-3"
         width="9.000001"
         height="7"
         x="416.99008"
         y="57.436726"
         ry="1" />
      <path
         id="rect3399-5"
         style="fill:#5aba30;fill-opacity:1;stroke:none;stroke-width:0.999997"
         d="m 419.99007,58.436725 v 5 h 1 v -5 z m -2,1 v 4 h 1 v -4 z m 4,2 v 2 h 1 v -2 z m 2,-1 v 3 h 1 v -3 z"
         sodipodi:nodetypes="cccccccccccccccccccc" />
    </g>
    <g
       id="g2933"
       transform="translate(-56.858556,34.330019)">
      <path
         id="rect523-9-7"
         style="fill:#000000;stroke-width:0.5;opacity:0.2"
         d="m 357.85855,202.66998 c -0.554,0 -1,0.446 -1,1 v 11 c 0,0.554 0.446,1 1,1 h 10 v 4 c 0,0.554 0.446,1 1,1 h 11 c 0.554,0 1,-0.446 1,-1 v -8 c 0,-0.554 -0.446,-1 -1,-1 h -4 v -7 c 0,-0.554 -0.446,-1 -1,-1 z m 0,1 h 5 v 2 h -5 z m 6,0 h 5 v 2 h -5 z m 6,0 h 5 v 2 h -5 z m -12,3 h 5 v 2 h -5 z m 6,0 h 5 v 2 h -5 z m 6,0 h 5 v 2 h -5 z m -12,3 h 5 v 2 h -5 z m 6,0 h 5 v 1 c -0.554,0 -1,0.446 -1,1 h -4 z m 6,0 h 5 v 1 h -5 z m -12,3 h 5 v 2 h -5 z m 6,0 h 4 v 2 h -4 z" />
      <path
         id="rect523-9"
         style="fill:#ffffff;stroke-width:0.5"
         d="m 357.85856,201.66998 c -0.554,0 -1,0.446 -1,1 v 11 c 0,0.554 0.446,1 1,1 h 17 c 0.554,0 1,-0.446 1,-1 v -11 c 0,-0.554 -0.446,-1 -1,-1 z m 0,1 h 5 v 2 h -5 z m 6,0 h 5 v 2 h -5 z m 6,0 h 5 v 2 h -5 z m -12,3 h 5 v 2 h -5 z m 6,0 h 5 v 2 h -5 z m 6,0 h 5 v 2 h -5 z m -12,3 h 5 v 2 h -5 z m 6,0 h 5 v 2 h -5 z m 6,0 h 5 v 2 h -5 z m -12,3 h 5 v 2 h -5 z m 6,0 h 5 v 2 h -5 z m 6,0 h 5 v 2 h -5 z"
         sodipodi:nodetypes="ssssssssscccccccccccccccccccccccccccccccccccccccccccccccccccccccccccc" />
      <rect
         style="fill:#b1e59b;fill-opacity:1;stroke:none;stroke-width:0.99147"
         id="rect2218-1"
         width="13"
         height="10"
         x="367.85855"
         y="209.66998"
         ry="1" />
      <path
         id="rect3399-2"
         style="fill:#5aba30;fill-opacity:1;stroke:none;stroke-width:1.99999"
         d="m 371.85856,210.66998 v 8 h 2 v -8 z m -3,2 v 6 h 2 v -6 z m 6,4 v 2 h 2 v -2 z m 3,-2 v 4 h 2 v -4 z"
         sodipodi:nodetypes="cccccccccccccccccccc" />
    </g>
    <g
       id="g3140"
       transform="translate(-82.729526,7.48387)">
      <path
         id="rect523-93-2"
         style="fill:#000000;opacity:0.2"
         d="m 388.72953,153.51613 c -1.108,0 -2,0.892 -2,2 v 14 c 0,1.108 0.892,2 2,2 h 12 v 4 c 0,1.108 0.892,2 2,2 h 14 c 1.10799,0 2,-0.892 2,-2 v -10 c 0,-1.108 -0.89201,-2 -2,-2 h -4 v -8 c 0,-1.108 -0.89201,-2 -2,-2 z m 0,2 h 6 v 2 h -6 z m 8,0 h 6 v 2 h -6 z m 8,0 h 6 v 2 h -6 z m -16,4 h 6 v 2 h -6 z m 8,0 h 6 v 2 h -6 z m 8,0 h 6 v 2 h -6 z m -16,4 h 6 v 2 h -6 z m 8,0 h 6 c -1.108,0 -2,0.892 -2,2 h -4 z m -8,4 h 6 v 2 h -6 z m 8,0 h 4 v 2 h -4 z" />
      <path
         id="rect523-93"
         style="fill:#ffffff"
         d="m 388.72953,152.51613 c -1.108,0 -2,0.892 -2,2 v 14 c 0,1.108 0.892,2 2,2 h 22 c 1.108,0 2,-0.892 2,-2 v -14 c 0,-1.108 -0.892,-2 -2,-2 z m 0,2 h 6 v 2 h -6 z m 8,0 h 6 v 2 h -6 z m 8,0 h 6 v 2 h -6 z m -16,4 h 6 v 2 h -6 z m 8,0 h 6 v 2 h -6 z m 8,0 h 6 v 2 h -6 z m -16,4 h 6 v 2 h -6 z m 8,0 h 6 v 2 h -6 z m 8,0 h 6 v 2 h -6 z m -16,4 h 6 v 2 h -6 z m 8,0 h 6 v 2 h -6 z m 8,0 h 6 v 2 h -6 z"
         sodipodi:nodetypes="ssssssssscccccccccccccccccccccccccccccccccccccccccccccccccccccccccccc" />
      <rect
         style="fill:#b1e59b;fill-opacity:1;stroke:none;stroke-width:1.16666"
         id="rect2218-60"
         width="18"
         height="14"
         x="400.72952"
         y="162.51613"
         ry="2" />
      <path
         id="rect3399-6"
         style="fill:#5aba30;fill-opacity:1;stroke:none;stroke-width:1.99999"
         d="m 406.72953,164.51613 v 10 h 2 v -10 z m -4,2 v 8 h 2 v -8 z m 8,4 v 4 h 2 v -4 z m 4,-2 v 6 h 2 v -6 z"
         sodipodi:nodetypes="cccccccccccccccccccc" />
    </g>
    <g
       id="g3408"
       transform="translate(-73.057069,-5.885856)">
      <path
         id="rect523-0-7"
         style="fill:#000000;stroke-width:1.5;opacity:0.2"
         d="m 388.05707,64.885856 c -1.66199,0 -3,1.33801 -3,3 v 21 c 0,1.662 1.33801,3 3,3 h 18 v 6 c 0,1.662 1.33801,3.000004 3,3.000004 h 21 c 1.662,0 3,-1.338004 3,-3.000004 v -15 c 0,-1.662 -1.338,-3 -3,-3 h -6 v -12 c 0,-1.66199 -1.33801,-3 -3,-3 z m 0,3 h 9 v 3 h -9 z m 12,0 h 9 v 3 h -9 z m 12,0 h 9 v 3 h -9 z m -24,6 h 9 v 3 h -9 z m 12,0 h 9 v 3 h -9 z m 12,0 h 9 v 3 h -9 z m -24,6 h 9 v 3 h -9 z m 12,0 h 9 c -1.66199,0 -3,1.338 -3,3 h -6 z m -12,6 h 9 v 3 h -9 z m 12,0 h 6 v 3 h -6 z" />
      <path
         id="rect523-0"
         style="fill:#ffffff;stroke-width:1.5"
         d="m 388.05707,63.885856 c -1.662,0 -3,1.338004 -3,3 v 21 c 0,1.661995 1.338,3 3,3 h 33 c 1.66199,0 3,-1.338005 3,-3 v -21 c 0,-1.661996 -1.33801,-3 -3,-3 z m 0,3 h 9 v 3 h -9 z m 12,0 h 9 v 3 h -9 z m 12,0 h 9 v 3 h -9 z m -24,6 h 9 v 3 h -9 z m 12,0 h 9 v 3 h -9 z m 12,0 h 9 v 3 h -9 z m -24,6 h 9 v 3 h -9 z m 12,0 h 9 v 3 h -9 z m 12,0 h 9 v 3 h -9 z m -24,6 h 9 v 3 h -9 z m 12,0 h 9 v 3 h -9 z m 12,0 h 9 v 3 h -9 z"
         sodipodi:nodetypes="ssssssssscccccccccccccccccccccccccccccccccccccccccccccccccccccccccccc" />
      <rect
         style="fill:#b1e59b;fill-opacity:1;stroke:none;stroke-width:1.74999"
         id="rect2218-2"
         width="27"
         height="21"
         x="406.05707"
         y="78.885857"
         ry="3" />
      <path
         id="rect3399-3"
         style="fill:#5aba30;fill-opacity:1;stroke:none;stroke-width:2.99998"
         d="m 415.05707,81.885856 v 15 h 3 v -15 z m -6,3 v 12 h 3 v -12 z m 12,6 v 6 h 3 v -6 z m 6,-3 v 9 h 3 v -9 z"
         sodipodi:nodetypes="cccccccccccccccccccc" />
    </g>
    <g
       id="g3235"
       transform="matrix(3.9999999,0,0,3.9999999,-1287.7596,-636.41626)">
      <path
         id="rect523-93-2-8"
         style="opacity:0.2;fill:#000000"
         d="m 343.93991,187.10407 c -1.108,0 -2,0.892 -2,2 v 14 c 0,1.108 0.892,2 2,2 h 12 v 4 c 0,1.108 0.892,2 2,2 h 14 c 1.10799,0 2,-0.892 2,-2 v -10 c 0,-1.108 -0.89201,-2 -2,-2 h -4 v -8 c 0,-1.108 -0.89201,-2 -2,-2 z m 0,2 h 6 v 2 h -6 z m 8,0 h 6 v 2 h -6 z m 8,0 h 6 v 2 h -6 z m -16,4 h 6 v 2 h -6 z m 8,0 h 6 v 2 h -6 z m 8,0 h 6 v 2 h -6 z m -16,4 h 6 v 2 h -6 z m 8,0 h 6 c -1.108,0 -2,0.892 -2,2 h -4 z m -8,4 h 6 v 2 h -6 z m 8,0 h 4 v 2 h -4 z" />
      <path
         id="rect523-93-7"
         style="fill:#ffffff"
         d="m 343.93991,186.60407 c -1.108,0 -2,0.892 -2,2 v 14 c 0,1.108 0.892,2 2,2 h 22 c 1.108,0 2,-0.892 2,-2 v -14 c 0,-1.108 -0.892,-2 -2,-2 z m 0,2 h 6 v 2 h -6 z m 8,0 h 6 v 2 h -6 z m 8,0 h 6 v 2 h -6 z m -16,4 h 6 v 2 h -6 z m 8,0 h 6 v 2 h -6 z m 8,0 h 6 v 2 h -6 z m -16,4 h 6 v 2 h -6 z m 8,0 h 6 v 2 h -6 z m 8,0 h 6 v 2 h -6 z m -16,4 h 6 v 2 h -6 z m 8,0 h 6 v 2 h -6 z m 8,0 h 6 v 2 h -6 z"
         sodipodi:nodetypes="ssssssssscccccccccccccccccccccccccccccccccccccccccccccccccccccccccccc" />
      <rect
         style="fill:#b1e59b;fill-opacity:1;stroke:none;stroke-width:1.16666"
         id="rect2218-60-9"
         width="18"
         height="14"
         x="355.93991"
         y="196.60408"
         ry="2" />
      <path
         id="rect3399-6-2"
         style="fill:#5aba30;fill-opacity:1;stroke:none;stroke-width:1.99999"
         d="m 361.93991,198.60407 v 10 h 2 v -10 z m -4,2 v 8 h 2 v -8 z m 8,4 v 4 h 2 v -4 z m 4,-2 v 6 h 2 v -6 z"
         sodipodi:nodetypes="cccccccccccccccccccc" />
    </g>
  </g>
  <g
     id="Highlights">
    <path
       id="rect653"
       style="opacity:0.2;fill:#ffffff"
       d="M 80,44 C 53.408027,44 32,65.408027 32,92 v 2 C 32,67.408027 53.408027,46 80,46 h 128 c 26.59197,0 48,21.408027 48,48 V 92 C 256,65.408027 234.59197,44 208,44 Z"
       sodipodi:nodetypes="sscsscsss" />
    <path
       id="rect773"
       style="opacity:0.2;fill:#ffffff"
       d="m 312,34 c -9.97199,0 -18,8.02801 -18,18 v 1 c 0,-9.97199 8.02801,-18 18,-18 h 48 c 9.97199,0 18,8.02801 18,18 v -1 c 0,-9.97199 -8.02801,-18 -18,-18 z" />
    <path
       id="rect1135"
       style="opacity:0.2;fill:#ffffff;fill-opacity:1"
       d="m 304,144 c -6.64799,0 -12,5.35201 -12,12 v 1 c 0,-6.64799 5.35201,-12 12,-12 h 32 c 6.64799,0 12,5.35201 12,12 v -1 c 0,-6.64799 -5.35201,-12 -12,-12 z" />
    <path
       id="rect1265"
       style="opacity:0.2;fill:#ffffff;fill-opacity:1"
       d="m 300,223 c -4.986,0 -9,4.014 -9,9 v 1 c 0,-4.986 4.014,-9 9,-9 h 24 c 4.986,0 9,4.014 9,9 v -1 c 0,-4.986 -4.014,-9 -9,-9 z" />
    <path
       id="rect1368"
       style="opacity:0.2;fill:#ffffff;fill-opacity:1"
       d="m 424,54 c -3.324,0 -6,2.676003 -6,6 v 1 c 0,-3.323997 2.676,-6 6,-6 h 16 c 3.324,0 6,2.676003 6,6 v -1 c 0,-3.323997 -2.676,-6 -6,-6 z" />
    <path
       id="rect1402"
       style="opacity:0.2;fill:#ffffff;fill-opacity:1"
       d="m 420,140 c -2.216,0 -4,1.784 -4,4 v 1 c 0,-2.216 1.784,-4 4,-4 h 8 c 2.216,0 4,1.784 4,4 v -1 c 0,-2.216 -1.784,-4 -4,-4 z" />
    <path
       id="rect1436"
       style="opacity:0.2;fill:#ffffff;fill-opacity:1"
       d="m 422,102 c -2.216,0 -4,1.784 -4,4 v 1 c 0,-2.216 1.784,-4 4,-4 h 12 c 2.216,0 4,1.784 4,4 v -1 c 0,-2.216 -1.784,-4 -4,-4 z" />
  </g>
</svg>
