<?xml version="1.0" encoding="UTF-8" standalone="no"?>
<!-- Created with Inkscape (http://www.inkscape.org/) -->

<svg
   width="480"
   height="300"
   viewBox="0 0 480 300"
   version="1.1"
   id="svg5"
   inkscape:version="1.2.2 (1:1.2.2+202305151914+b0a8486541)"
   sodipodi:docname="libreoffice-base.svg"
   xmlns:inkscape="http://www.inkscape.org/namespaces/inkscape"
   xmlns:sodipodi="http://sodipodi.sourceforge.net/DTD/sodipodi-0.dtd"
   xmlns="http://www.w3.org/2000/svg"
   xmlns:svg="http://www.w3.org/2000/svg">
  <sodipodi:namedview
     id="namedview7"
     pagecolor="#888888"
     bordercolor="#000000"
     borderopacity="0.25"
     inkscape:showpageshadow="true"
     inkscape:pageopacity="0"
     inkscape:pagecheckerboard="0"
     inkscape:deskcolor="#888888"
     inkscape:document-units="px"
     showgrid="false"
     showborder="false"
     inkscape:zoom="2.6866667"
     inkscape:cx="240.07444"
     inkscape:cy="150"
     inkscape:window-width="1920"
     inkscape:window-height="1008"
     inkscape:window-x="0"
     inkscape:window-y="0"
     inkscape:window-maximized="1"
     inkscape:current-layer="svg5" />
  <defs
     id="defs2" />
  <g
     id="Baseplate"
     style="display:none">
    <text
       y="19.774782"
       xml:space="preserve"
       x="15.006946"
       style="font-style:normal;font-variant:normal;font-weight:normal;font-stretch:normal;line-height:0%;font-family:'DejaVu Sans';-inkscape-font-specification:'DejaVu Sans';display:inline;fill:#000000;fill-opacity:1;stroke:none;enable-background:new"
       inkscape:label="context"
       id="context"><tspan
         style="font-style:normal;font-variant:normal;font-weight:normal;font-stretch:normal;font-size:18px;line-height:1.25;font-family:'DejaVu Sans';-inkscape-font-specification:'DejaVu Sans'"
         y="19.774782"
         x="15.006946"
         sodipodi:role="line"
         id="tspan3933">apps</tspan></text>
    <text
       y="19.774782"
       xml:space="preserve"
       x="122.48839"
       style="font-style:normal;font-variant:normal;font-weight:bold;font-stretch:normal;line-height:0%;font-family:'DejaVu Sans';-inkscape-font-specification:'DejaVu Sans Bold';text-align:start;writing-mode:lr-tb;text-anchor:start;display:inline;fill:#000000;fill-opacity:1;stroke:none;enable-background:new"
       inkscape:label="icon-name"
       id="icon-name"><tspan
         style="font-style:normal;font-variant:normal;font-weight:bold;font-stretch:normal;font-size:18px;line-height:1.25;font-family:'DejaVu Sans';-inkscape-font-specification:'DejaVu Sans Bold'"
         y="19.774782"
         x="122.48839"
         sodipodi:role="line"
         id="tspan3937">libreoffice-base</tspan></text>
    <rect
       style="fill:#ffffff"
       id="256x256"
       width="256"
       height="256"
       x="16"
       y="28" />
    <rect
       style="fill:#ffffff"
       id="96x96"
       width="96"
       height="96"
       x="288"
       y="28" />
    <rect
       style="fill:#ffffff"
       id="64x64"
       width="64"
       height="64"
       x="288"
       y="140" />
    <rect
       style="fill:#ffffff"
       id="48x48"
       width="48"
       height="48"
       x="288"
       y="220" />
    <rect
       style="fill:#ffffff"
       id="32x32"
       width="32"
       height="32"
       x="416"
       y="52" />
    <rect
       style="fill:#ffffff"
       id="24x24"
       width="24"
       height="24"
       x="416"
       y="100" />
    <rect
       style="fill:#ffffff"
       id="22x22"
       width="22"
       height="22"
       x="417"
       y="101" />
    <rect
       style="fill:#ffffff"
       id="16x16"
       width="16"
       height="16"
       x="416"
       y="140" />
  </g>
  <g
     id="Shadow">
    <rect
       style="opacity:0.2;fill:#000000"
       id="rect651"
       width="224"
       height="224"
       x="32"
       y="46"
       ry="48" />
    <rect
       style="opacity:0.2;fill:#000000"
       id="rect769"
       width="84"
       height="85"
       x="294"
       y="34"
       ry="18" />
    <rect
       style="opacity:0.2;fill:#000000;fill-opacity:1"
       id="rect1131"
       width="56"
       height="56"
       x="292"
       y="145"
       ry="12" />
    <rect
       style="opacity:0.2;fill:#000000;fill-opacity:1"
       id="rect1261"
       width="42"
       height="42"
       x="291"
       y="224"
       ry="9" />
    <rect
       style="opacity:0.2;fill:#000000;fill-opacity:1"
       id="rect1364"
       width="28"
       height="29"
       x="418"
       y="54"
       ry="6" />
    <rect
       style="opacity:0.2;fill:#000000;fill-opacity:1"
       id="rect1398"
       width="16"
       height="16"
       x="416"
       y="141"
       ry="4" />
    <rect
       style="opacity:0.2;fill:#000000;fill-opacity:1"
       id="rect1432"
       width="20"
       height="20"
       x="418"
       y="103"
       ry="4" />
  </g>
  <g
     id="Background">
    <rect
       style="fill:#8b3ea7;fill-opacity:1"
       id="rect597"
       width="224"
       height="224"
       x="32"
       y="44"
       ry="48" />
    <rect
       style="opacity:1;fill:#8b3ea7;fill-opacity:1"
       id="rect771"
       width="84"
       height="84"
       x="294"
       y="34"
       ry="18" />
    <rect
       style="opacity:1;fill:#8b3ea7;fill-opacity:1"
       id="rect1133"
       width="56"
       height="56"
       x="292"
       y="144"
       ry="12" />
    <rect
       style="opacity:1;fill:#8b3ea7;fill-opacity:1"
       id="rect1263"
       width="42"
       height="42"
       x="291"
       y="223"
       ry="9" />
    <rect
       style="opacity:1;fill:#8b3ea7;fill-opacity:1"
       id="rect1366"
       width="28"
       height="28"
       x="418"
       y="54"
       ry="6" />
    <rect
       style="opacity:1;fill:#8b3ea7;fill-opacity:1"
       id="rect1400"
       width="16"
       height="16"
       x="416"
       y="140"
       ry="4" />
    <rect
       style="opacity:1;fill:#8b3ea7;fill-opacity:1"
       id="rect1434"
       width="20"
       height="20"
       x="418"
       y="102"
       ry="4" />
  </g>
  <g
     id="g1047">
    <g
       id="g3171"
       transform="translate(5.50993,9.78288)">
      <path
         id="rect368-3-6"
         style="fill:#000000;opacity:0.2"
         d="M 415.49007 134.71712 C 414.3855 134.71712 413.49007 135.16484 413.49007 135.71712 L 413.49007 136.71712 C 413.49007 137.2694 414.3855 137.71712 415.49007 137.71712 C 416.59464 137.71712 417.49007 137.2694 417.49007 136.71712 L 417.49007 135.71712 C 417.49007 135.16484 416.59464 134.71712 415.49007 134.71712 z M 419.49007 136.71712 L 419.49007 141.71712 L 422.49007 141.71712 L 422.49007 136.71712 L 419.49007 136.71712 z M 413.49007 137.71712 L 413.49007 138.71712 C 413.49007 139.2694 414.3855 139.71712 415.49007 139.71712 C 416.59464 139.71712 417.49007 139.2694 417.49007 138.71712 L 417.49007 137.71712 C 417.49007 138.2694 416.59464 138.71712 415.49007 138.71712 C 414.3855 138.71712 413.49007 138.2694 413.49007 137.71712 z M 420.49007 137.71712 L 421.49007 137.71712 L 421.49007 138.71712 L 420.49007 138.71712 L 420.49007 137.71712 z M 413.49007 139.71712 L 413.49007 140.71712 C 413.49007 141.2694 414.3855 141.71712 415.49007 141.71712 C 416.59464 141.71712 417.49007 141.2694 417.49007 140.71712 L 417.49007 139.71712 C 417.49007 140.2694 416.59464 140.71712 415.49007 140.71712 C 414.3855 140.71712 413.49007 140.2694 413.49007 139.71712 z M 420.49007 139.71712 L 421.49007 139.71712 L 421.49007 140.71712 L 420.49007 140.71712 L 420.49007 139.71712 z " />
      <path
         id="rect368-3"
         style="fill:#ffffff"
         d="m 419.49007,136.21712 v 5 h 3 v -5 z m 1,1 h 1 v 1 h -1 z m 0,2 h 1 v 1 h -1 z" />
      <path
         id="path557-5"
         style="fill:#d48ff7;fill-opacity:1;stroke-width:0.999996"
         d="m 415.49007,134.21712 c -1.10457,0 -2,0.44772 -2,1 v 1 c 0,0.55228 0.89543,1 2,1 1.10457,0 2,-0.44772 2,-1 v -1 c 0,-0.55228 -0.89543,-1 -2,-1 z m -2,3 v 1 c 0,0.55228 0.89543,1 2,1 1.10457,0 2,-0.44772 2,-1 v -1 c 0,0.55228 -0.89543,1 -2,1 -1.10457,0 -2,-0.44772 -2,-1 z m 0,2 v 1 c 0,0.55228 0.89543,1 2,1 1.10457,0 2,-0.44772 2,-1 v -1 c 0,0.55228 -0.89543,1 -2,1 -1.10457,0 -2,-0.44772 -2,-1 z" />
    </g>
    <g
       id="g2835"
       transform="translate(61.00248,-49.78288)">
      <path
         id="rect368-7"
         style="fill:#000000;opacity:0.2"
         d="M 363.99752 158.28288 C 362.34067 158.28288 360.99752 158.7306 360.99752 159.28288 L 360.99752 160.28288 C 360.99752 160.83516 362.34067 161.28288 363.99752 161.28288 C 365.65437 161.28288 366.99752 160.83516 366.99752 160.28288 L 366.99752 159.28288 C 366.99752 158.7306 365.65437 158.28288 363.99752 158.28288 z M 367.99752 160.28288 L 367.99752 167.28288 L 372.99752 167.28288 L 372.99752 160.28288 L 367.99752 160.28288 z M 360.99752 161.28288 L 360.99752 162.28288 C 360.99752 162.83516 362.34067 163.28288 363.99752 163.28288 C 365.65437 163.28288 366.99752 162.83516 366.99752 162.28288 L 366.99752 161.28288 C 366.99752 161.83516 365.65437 162.28288 363.99752 162.28288 C 362.34067 162.28288 360.99752 161.83516 360.99752 161.28288 z M 368.99752 161.28288 L 369.99752 161.28288 L 369.99752 162.28288 L 368.99752 162.28288 L 368.99752 161.28288 z M 370.99752 161.28288 L 371.99752 161.28288 L 371.99752 162.28288 L 370.99752 162.28288 L 370.99752 161.28288 z M 360.99752 163.28288 L 360.99752 164.28288 C 360.99752 164.83516 362.34067 165.28288 363.99752 165.28288 C 365.65437 165.28288 366.99752 164.83516 366.99752 164.28288 L 366.99752 163.28288 C 366.99752 163.83516 365.65437 164.28288 363.99752 164.28288 C 362.34067 164.28288 360.99752 163.83516 360.99752 163.28288 z M 368.99752 163.28288 L 369.99752 163.28288 L 369.99752 164.28288 L 368.99752 164.28288 L 368.99752 163.28288 z M 370.99752 163.28288 L 371.99752 163.28288 L 371.99752 164.28288 L 370.99752 164.28288 L 370.99752 163.28288 z M 360.99752 165.28288 L 360.99752 166.28288 C 360.99752 166.83516 362.34067 167.28288 363.99752 167.28288 C 365.65437 167.28288 366.99752 166.83516 366.99752 166.28288 L 366.99752 165.28288 C 366.99752 165.83516 365.65437 166.28288 363.99752 166.28288 C 362.34067 166.28288 360.99752 165.83516 360.99752 165.28288 z M 368.99752 165.28288 L 369.99752 165.28288 L 369.99752 166.28288 L 368.99752 166.28288 L 368.99752 165.28288 z M 370.99752 165.28288 L 371.99752 165.28288 L 371.99752 166.28288 L 370.99752 166.28288 L 370.99752 165.28288 z " />
      <path
         id="rect368"
         style="fill:#ffffff"
         d="m 367.99752,159.78288 v 7 h 5 v -7 z m 1,1 h 1 v 1 h -1 z m 2,0 h 1 v 1 h -1 z m -2,2 h 1 v 1 h -1 z m 2,0 h 1 v 1 h -1 z m -2,2 h 1 v 1 h -1 z m 2,0 h 1 v 1 h -1 z"
         sodipodi:nodetypes="ccccccccccccccccccccccccccccccccccc" />
      <path
         id="path557"
         style="fill:#d48ff7;fill-opacity:1;stroke-width:1.22474"
         d="m 363.99752,157.78288 c -1.65685,0 -3,0.44772 -3,1 v 1 c 0,0.55228 1.34315,1 3,1 1.65685,0 3,-0.44772 3,-1 v -1 c 0,-0.55228 -1.34315,-1 -3,-1 z m -3,3 v 1 c 0,0.55228 1.34315,1 3,1 1.65685,0 3,-0.44772 3,-1 v -1 c 0,0.55228 -1.34315,1 -3,1 -1.65685,0 -3,-0.44772 -3,-1 z m 0,2 v 1 c 0,0.55228 1.34315,1 3,1 1.65685,0 3,-0.44772 3,-1 v -1 c 0,0.55228 -1.34315,1 -3,1 -1.65685,0 -3,-0.44772 -3,-1 z m 0,2 v 1 c 0,0.55228 1.34315,1 3,1 1.65685,0 3,-0.44772 3,-1 v -1 c 0,0.55228 -1.34315,1 -3,1 -1.65685,0 -3,-0.44772 -3,-1 z" />
    </g>
    <g
       id="g3577"
       transform="translate(-12.52978,-7.035848)">
      <path
         id="path525-9-2"
         style="fill:#000000;fill-opacity:1;stroke-width:0.968246;stroke-linecap:round;stroke-linejoin:round;opacity:0.2"
         d="m 440.52978,69.535848 c -2.07106,0 -4,0.403915 -4,1 v 2 c 0,0.596086 1.92894,1 4,1 2.07105,0 4,-0.403914 4,-1 v -2 c 0,-0.596085 -1.92895,-1 -4,-1 z m 6,2 c -0.554,0 -1,0.446 -1,1 v 8 c 0,0.554 0.446,1 1,1 h 5 c 0.554,0 1,-0.446 1,-1 v -8 c 0,-0.554 -0.446,-1 -1,-1 z m 0,1 h 2 v 2 h -2 z m 3,0 h 2 v 2 h -2 z m -13,1 v 2 c 0,0.596085 1.92894,1 4,1 2.07105,0 4,-0.403915 4,-1 v -2 c 0,0.596085 -1.92895,1 -4,1 -2.07106,0 -4,-0.403915 -4,-1 z m 10,2 h 2 v 2 h -2 z m 3,0 h 2 v 2 h -2 z m -13,1 v 2 c 0,0.596085 1.92894,1 4,1 2.07105,0 4,-0.403915 4,-1 v -2 c 0,0.596085 -1.92895,1 -4,1 -2.07106,0 -4,-0.403915 -4,-1 z m 10,2 h 2 v 2 h -2 z m 3,0 h 2 v 2 h -2 z m -13,1 v 2 c 0,0.596085 1.92894,1 4,1 2.07105,0 4,-0.403915 4,-1 v -2 c 0,0.596085 -1.92895,1 -4,1 -2.07106,0 -4,-0.403915 -4,-1 z" />
      <path
         id="path525-9"
         style="fill:#d48ff7;fill-opacity:1;stroke-width:0.968246;stroke-linecap:round;stroke-linejoin:round"
         d="m 440.52978,69.035848 c -2.07106,0 -4,0.403914 -4,1 v 2 c 0,0.596086 1.92894,1 4,1 2.07106,0 4,-0.403914 4,-1 v -2 c 0,-0.596086 -1.92894,-1 -4,-1 z m -4,4 v 2 c 0,0.596085 1.92894,1 4,1 2.07106,0 4,-0.403915 4,-1 v -2 c 0,0.596085 -1.92894,1 -4,1 -2.07106,0 -4,-0.403915 -4,-1 z m 0,3 v 2 c 0,0.596085 1.92894,1 4,1 2.07106,0 4,-0.403915 4,-1 v -2 c 0,0.596085 -1.92894,1 -4,1 -2.07106,0 -4,-0.403915 -4,-1 z m 0,3 v 2 c 0,0.596085 1.92894,1 4,1 2.07106,0 4,-0.403915 4,-1 v -2 c 0,0.596085 -1.92894,1 -4,1 -2.07106,0 -4,-0.403915 -4,-1 z"
         sodipodi:nodetypes="ssssssscssscsccssscsccssscsc" />
      <path
         id="rect523-1"
         style="fill:#ffffff;stroke-width:0.5"
         d="m 446.52978,71.035848 c -0.554,0 -1,0.446 -1,1 v 8 c 0,0.554 0.446,1 1,1 h 5 c 0.554,0 1,-0.446 1,-1 v -8 c 0,-0.554 -0.446,-1 -1,-1 z m 0,1 h 2 v 2 h -2 z m 3,0 h 2 v 2 h -2 z m -3,3 h 2 v 2 h -2 z m 3,0 h 2 v 2 h -2 z m -3,3 h 2 v 2 h -2 z m 3,0 h 2 v 2 h -2 z"
         sodipodi:nodetypes="ssssssssscccccccccccccccccccccccccccccc" />
    </g>
    <g
       id="g3983"
       transform="translate(1,-0.26149)">
      <path
         id="path525-0-3"
         style="fill:#000000;fill-opacity:1;stroke-width:1.67705;stroke-linecap:round;stroke-linejoin:round;opacity:0.2"
         d="m 305,236.26149 c -3.10659,0 -6,0.80784 -6,2 v 2 c 0,1.19218 2.89341,2 6,2 3.10659,0 5.99999,-0.80782 6,-2 v -2 c 0,-1.19216 -2.89341,-2 -6,-2 z m 8,2 c -0.554,0 -1,0.44601 -1,1 v 14 c 0,0.55401 0.446,1 1,1 h 9 c 0.55399,0 1,-0.44599 1,-1 v -14 c 0,-0.55399 -0.44601,-1 -1,-1 z m 0,1 h 4 v 4 h -4 z m 5,0 h 4 v 4 h -4 z m -19,2 v 3 c 0,1.19218 2.89341,2 6,2 3.10658,0 6,-0.80782 6,-2 v -3 c 0,1.19218 -2.89342,2 -6,2 -3.10659,0 -6,-0.80782 -6,-2 z m 14,3 h 4 v 4 h -4 z m 5,0 h 4 v 4 h -4 z m -19,1 v 3 c 0,1.19218 2.89341,2 6,2 3.10658,0 6,-0.80782 6,-2 v -3 c 0,1.19218 -2.89342,2 -6,2 -3.10659,0 -6,-0.80782 -6,-2 z m 0,4 v 3 c 0,1.19218 2.89341,2 6,2 3.10658,0 6,-0.80782 6,-2 v -3 c 0,1.19218 -2.89342,2 -6,2 -3.10659,0 -6,-0.80782 -6,-2 z m 14,0 h 4 v 4 h -4 z m 5,0 h 4 v 4 h -4 z" />
      <path
         id="path525-0"
         style="fill:#d48ff7;fill-opacity:1;stroke-width:1.67705;stroke-linecap:round;stroke-linejoin:round"
         d="m 305,235.26149 c -3.10659,0 -6,0.80783 -6,2 v 2 c 0,1.19217 2.89341,2 6,2 3.1066,0 6,-0.80783 6,-2 v -2 c 0,-1.19217 -2.8934,-2 -6,-2 z m -6,5 v 3 c 0,1.19217 2.89341,2 6,2 3.10659,0 6,-0.80783 6,-2 v -3 c 0,1.19217 -2.89341,2 -6,2 -3.10659,0 -6,-0.80783 -6,-2 z m 0,4 v 3 c 0,1.19217 2.89341,2 6,2 3.10659,0 6,-0.80783 6,-2 v -3 c 0,1.19217 -2.89341,2 -6,2 -3.10659,0 -6,-0.80783 -6,-2 z m 0,4 v 3 c 0,1.19217 2.89341,2 6,2 3.10659,0 6,-0.80783 6,-2 v -3 c 0,1.19217 -2.89341,2 -6,2 -3.10659,0 -6,-0.80783 -6,-2 z"
         sodipodi:nodetypes="ssssssscssscsccssscsccssscsc" />
      <path
         id="rect523-9"
         style="fill:#ffffff;stroke-width:0.5"
         d="m 313,237.26149 c -0.554,0 -1,0.446 -1,1 v 14 c 0,0.554 0.446,1 1,1 h 9 c 0.554,0 1,-0.446 1,-1 v -14 c 0,-0.554 -0.446,-1 -1,-1 z m 0,1 h 4 v 4 h -4 z m 5,0 h 4 v 4 h -4 z m -5,5 h 4 v 4 h -4 z m 5,0 h 4 v 4 h -4 z m -5,5 h 4 v 4 h -4 z m 5,0 h 4 v 4 h -4 z"
         sodipodi:nodetypes="ssssssssscccccccccccccccccccccccccccccc" />
    </g>
    <g
       id="g4182">
      <path
         id="path525-06-6"
         style="fill:#000000;fill-opacity:1;stroke-width:1.93649;stroke-linecap:round;stroke-linejoin:round;opacity:0.2"
         d="M 311.5 161 C 307.35788 161 304 161.80783 304 163 L 304 166 C 304 167.19217 307.35788 168 311.5 168 C 315.64212 168 319 167.19217 319 166 L 319 163 C 319 161.80783 315.64212 161 311.5 161 z M 324 165 C 322.892 165 322 165.892 322 167 L 322 183 C 322 184.108 322.892 185 324 185 L 334 185 C 335.108 185 336 184.108 336 183 L 336 167 C 336 165.892 335.108 165 334 165 L 324 165 z M 324 167 L 328 167 L 328 171 L 324 171 L 324 167 z M 330 167 L 334 167 L 334 171 L 330 171 L 330 167 z M 304 168 L 304 172 C 304 173.19217 307.35788 174 311.5 174 C 315.64212 174 319 173.19217 319 172 L 319 168 C 319 169.19217 315.64212 170 311.5 170 C 307.35788 170 304 169.19217 304 168 z M 324 173 L 328 173 L 328 177 L 324 177 L 324 173 z M 330 173 L 334 173 L 334 177 L 330 177 L 330 173 z M 304 174 L 304 178 C 304 179.19217 307.35788 180 311.5 180 C 315.64212 180 319 179.19217 319 178 L 319 174 C 319 175.19217 315.64212 176 311.5 176 C 307.35788 176 304 175.19217 304 174 z M 324 179 L 328 179 L 328 183 L 324 183 L 324 179 z M 330 179 L 334 179 L 334 183 L 330 183 L 330 179 z M 304 180 L 304 184 C 304 185.19217 307.35788 186 311.5 186 C 315.64212 186 319 185.19217 319 184 L 319 180 C 319 181.19217 315.64212 182 311.5 182 C 307.35788 182 304 181.19217 304 180 z " />
      <path
         id="path525-06"
         style="fill:#d48ff7;fill-opacity:1;stroke-width:1.93649;stroke-linecap:round;stroke-linejoin:round"
         d="m 311.5,160 c -4.14212,0 -7.5,0.80783 -7.5,2 v 3 c 0,1.19217 3.35788,2 7.5,2 4.14212,0 7.5,-0.80783 7.5,-2 v -3 c 0,-1.19217 -3.35788,-2 -7.5,-2 z m -7.5,7 v 4 c 0,1.19217 3.35788,2 7.5,2 4.14212,0 7.5,-0.80783 7.5,-2 v -4 c 0,1.19217 -3.35788,2 -7.5,2 -4.14212,0 -7.5,-0.80783 -7.5,-2 z m 0,6 v 4 c 0,1.19217 3.35788,2 7.5,2 4.14212,0 7.5,-0.80783 7.5,-2 v -4 c 0,1.19217 -3.35788,2 -7.5,2 -4.14212,0 -7.5,-0.80783 -7.5,-2 z m 0,6 v 4 c 0,1.19217 3.35788,2 7.5,2 4.14212,0 7.5,-0.80783 7.5,-2 v -4 c 0,1.19217 -3.35788,2 -7.5,2 -4.14212,0 -7.5,-0.80783 -7.5,-2 z" />
      <path
         id="rect523-2"
         style="fill:#ffffff"
         d="m 324,164 c -1.108,0 -2,0.892 -2,2 v 16 c 0,1.108 0.892,2 2,2 h 10 c 1.108,0 2,-0.892 2,-2 v -16 c 0,-1.108 -0.892,-2 -2,-2 z m 0,2 h 4 v 4 h -4 z m 6,0 h 4 v 4 h -4 z m -6,6 h 4 v 4 h -4 z m 6,0 h 4 v 4 h -4 z m -6,6 h 4 v 4 h -4 z m 6,0 h 4 v 4 h -4 z"
         sodipodi:nodetypes="ssssssssscccccccccccccccccccccccccccccc" />
    </g>
    <g
       id="g4381"
       transform="translate(-38.8139,-2.53598)">
      <path
         id="path525-8-9"
         style="fill:#000000;fill-opacity:1;stroke-width:2.93683;stroke-linecap:round;stroke-linejoin:round;opacity:0.2"
         d="M 362.3139 60.53598 C 355.96265 60.53598 350.8139 61.747724 350.8139 63.53598 L 350.8139 68.53598 C 350.8139 70.324236 355.96265 71.53598 362.3139 71.53598 C 368.66514 71.53598 373.8139 70.324236 373.8139 68.53598 L 373.8139 63.53598 C 373.8139 61.747724 368.66515 60.53598 362.3139 60.53598 z M 380.8139 66.53598 C 379.1519 66.53598 377.8139 67.873984 377.8139 69.53598 L 377.8139 93.53598 C 377.8139 95.197976 379.1519 96.53598 380.8139 96.53598 L 395.8139 96.53598 C 397.4759 96.53598 398.8139 95.197976 398.8139 93.53598 L 398.8139 69.53598 C 398.8139 67.873984 397.4759 66.53598 395.8139 66.53598 L 380.8139 66.53598 z M 380.8139 69.53598 L 386.8139 69.53598 L 386.8139 75.53598 L 380.8139 75.53598 L 380.8139 69.53598 z M 389.8139 69.53598 L 395.8139 69.53598 L 395.8139 75.53598 L 389.8139 75.53598 L 389.8139 69.53598 z M 350.8139 71.53598 L 350.8139 77.53598 C 350.8139 79.324235 355.96266 80.53598 362.3139 80.53598 C 368.66514 80.53598 373.8139 79.324235 373.8139 77.53598 L 373.8139 71.53598 C 373.8139 73.324235 368.66514 74.53598 362.3139 74.53598 C 355.96266 74.53598 350.8139 73.324234 350.8139 71.53598 z M 380.8139 78.53598 L 386.8139 78.53598 L 386.8139 84.53598 L 380.8139 84.53598 L 380.8139 78.53598 z M 389.8139 78.53598 L 395.8139 78.53598 L 395.8139 84.53598 L 389.8139 84.53598 L 389.8139 78.53598 z M 350.8139 80.53598 L 350.8139 86.53598 C 350.8139 88.324235 355.96266 89.53598 362.3139 89.53598 C 368.66514 89.53598 373.8139 88.324235 373.8139 86.53598 L 373.8139 80.53598 C 373.8139 82.324235 368.66514 83.53598 362.3139 83.53598 C 355.96266 83.53598 350.8139 82.324235 350.8139 80.53598 z M 380.8139 87.53598 L 386.8139 87.53598 L 386.8139 93.53598 L 380.8139 93.53598 L 380.8139 87.53598 z M 389.8139 87.53598 L 395.8139 87.53598 L 395.8139 93.53598 L 389.8139 93.53598 L 389.8139 87.53598 z M 350.8139 89.53598 L 350.8139 95.53598 C 350.8139 97.324235 355.96266 98.53598 362.3139 98.53598 C 368.66514 98.53598 373.8139 97.324235 373.8139 95.53598 L 373.8139 89.53598 C 373.8139 91.324235 368.66514 92.53598 362.3139 92.53598 C 355.96266 92.53598 350.8139 91.324235 350.8139 89.53598 z " />
      <path
         id="path525-8"
         style="fill:#d48ff7;fill-opacity:1;stroke-width:2.93683;stroke-linecap:round;stroke-linejoin:round"
         d="m 362.3139,59.53598 c -6.35126,0 -11.5,1.211742 -11.5,3 v 5 c 0,1.788258 5.14874,3 11.5,3 6.35125,0 11.5,-1.211742 11.5,-3 v -5 c 0,-1.788258 -5.14874,-3 -11.5,-3 z m -11.5,11 v 6 c 0,1.788257 5.14875,3 11.5,3 6.35125,0 11.5,-1.211743 11.5,-3 v -6 c 0,1.788257 -5.14875,3 -11.5,3 -6.35125,0 -11.5,-1.211744 -11.5,-3 z m 0,9 v 6 c 0,1.788257 5.14875,3 11.5,3 6.35125,0 11.5,-1.211743 11.5,-3 v -6 c 0,1.788257 -5.14875,3 -11.5,3 -6.35125,0 -11.5,-1.211743 -11.5,-3 z m 0,9 v 6 c 0,1.788257 5.14875,3 11.5,3 6.35125,0 11.5,-1.211743 11.5,-3 v -6 c 0,1.788257 -5.14875,3 -11.5,3 -6.35125,0 -11.5,-1.211743 -11.5,-3 z"
         sodipodi:nodetypes="ssssssscssscsccssscsccssscsc" />
      <path
         id="rect523-7"
         style="fill:#ffffff;stroke-width:1.5"
         d="m 380.8139,65.53598 c -1.662,0 -3,1.338002 -3,3 v 24 c 0,1.661998 1.338,3 3,3 h 15 c 1.662,0 3,-1.338002 3,-3 v -24 c 0,-1.661998 -1.338,-3 -3,-3 z m 0,3 h 6 v 6 h -6 z m 9,0 h 6 v 6 h -6 z m -9,9 h 6 v 6 h -6 z m 9,0 h 6 v 6 h -6 z m -9,9 h 6 v 6 h -6 z m 9,0 h 6 v 6 h -6 z"
         sodipodi:nodetypes="ssssssssscccccccccccccccccccccccccccccc" />
    </g>
    <g
       id="g1040"
       transform="translate(2.1087585,-6)">
      <path
         id="path525-3"
         style="fill:#000000;fill-opacity:1;stroke-width:7.74596;stroke-linecap:round;stroke-linejoin:round;opacity:0.2"
         d="m 107.89124,114 c -16.56848,0 -30,3.23131 -30,8 v 12 c 0,4.76868 13.43152,8 30,8 16.56847,0 30,-3.23132 30,-8 v -12 c 0,-4.76869 -13.43153,-8 -30,-8 z m 50,16 c -4.43199,0 -8,3.568 -8,8 v 64 c 0,4.43199 3.56801,8 8,8 h 40 c 4.43199,0 8,-3.56801 8,-8 v -64 c 0,-4.432 -3.56801,-8 -8,-8 z m 0,8 h 16 v 16 h -16 z m 24,0 h 16 v 16 h -16 z m -104,4 v 16 c 0,4.76867 13.43154,8 30,8 16.56846,0 30,-3.23133 30,-8 v -16 c 0,4.76867 -13.43154,8 -30,8 -16.56846,0 -30,-3.23133 -30,-8 z m 80,20 h 16 v 16 h -16 z m 24,0 h 16 v 16 h -16 z m -104,4 v 16 c 0,4.76867 13.43154,8 30,8 16.56846,0 30,-3.23133 30,-8 v -16 c 0,4.76867 -13.43154,8 -30,8 -16.56846,0 -30,-3.23133 -30,-8 z m 80,20 h 16 v 16 h -16 z m 24,0 h 16 v 16 h -16 z m -104,4 v 16 c 0,4.76867 13.43154,8 30,8 16.56846,0 30,-3.23133 30,-8 v -16 c 0,4.76867 -13.43154,8 -30,8 -16.56846,0 -30,-3.23133 -30,-8 z" />
      <path
         id="path525"
         style="fill:#d48ff7;fill-opacity:1;stroke-width:7.74596;stroke-linecap:round;stroke-linejoin:round"
         d="m 107.89124,112 c -16.568492,0 -29.999997,3.23131 -29.999997,8 v 12 c 0,4.76869 13.431505,8 29.999997,8 16.56849,0 30,-3.23131 30,-8 v -12 c 0,-4.76869 -13.43151,-8 -30,-8 z m -29.999997,28 v 16 c 0,4.76868 13.431525,8 29.999997,8 16.56848,0 30,-3.23132 30,-8 v -16 c 0,4.76868 -13.43152,8 -30,8 -16.568472,0 -29.999997,-3.23132 -29.999997,-8 z m 0,24 v 16 c 0,4.76868 13.431525,8 29.999997,8 16.56848,0 30,-3.23132 30,-8 v -16 c 0,4.76868 -13.43152,8 -30,8 -16.568472,0 -29.999997,-3.23132 -29.999997,-8 z m 0,24 v 16 c 0,4.76868 13.431525,8 29.999997,8 16.56848,0 30,-3.23132 30,-8 v -16 c 0,4.76868 -13.43152,8 -30,8 -16.568472,0 -29.999997,-3.23132 -29.999997,-8 z" />
      <path
         id="rect523"
         style="fill:#ffffff;stroke-width:4"
         d="m 157.89124,128 c -4.43199,0 -8,3.568 -8,8 v 64 c 0,4.432 3.56801,8 8,8 h 40 c 4.432,0 8,-3.568 8,-8 v -64 c 0,-4.432 -3.568,-8 -8,-8 z m 0,8 h 16 v 16 h -16 z m 24,0 h 16 v 16 h -16 z m -24,24 h 16 v 16 h -16 z m 24,0 h 16 v 16 h -16 z m -24,24 h 16 v 16 h -16 z m 24,0 h 16 v 16 h -16 z"
         sodipodi:nodetypes="ssssssssscccccccccccccccccccccccccccccc" />
    </g>
  </g>
  <g
     id="Highlights">
    <path
       id="rect653"
       style="opacity:0.2;fill:#ffffff"
       d="M 80,44 C 53.408027,44 32,65.408027 32,92 v 2 C 32,67.408027 53.408027,46 80,46 h 128 c 26.59197,0 48,21.408027 48,48 V 92 C 256,65.408027 234.59197,44 208,44 Z"
       sodipodi:nodetypes="sscsscsss" />
    <path
       id="rect773"
       style="opacity:0.2;fill:#ffffff"
       d="m 312,34 c -9.97199,0 -18,8.02801 -18,18 v 1 c 0,-9.97199 8.02801,-18 18,-18 h 48 c 9.97199,0 18,8.02801 18,18 v -1 c 0,-9.97199 -8.02801,-18 -18,-18 z" />
    <path
       id="rect1135"
       style="opacity:0.2;fill:#ffffff;fill-opacity:1"
       d="m 304,144 c -6.64799,0 -12,5.35201 -12,12 v 1 c 0,-6.64799 5.35201,-12 12,-12 h 32 c 6.64799,0 12,5.35201 12,12 v -1 c 0,-6.64799 -5.35201,-12 -12,-12 z" />
    <path
       id="rect1265"
       style="opacity:0.2;fill:#ffffff;fill-opacity:1"
       d="m 300,223 c -4.986,0 -9,4.014 -9,9 v 1 c 0,-4.986 4.014,-9 9,-9 h 24 c 4.986,0 9,4.014 9,9 v -1 c 0,-4.986 -4.014,-9 -9,-9 z" />
    <path
       id="rect1368"
       style="opacity:0.2;fill:#ffffff;fill-opacity:1"
       d="m 424,54 c -3.324,0 -6,2.676003 -6,6 v 1 c 0,-3.323997 2.676,-6 6,-6 h 16 c 3.324,0 6,2.676003 6,6 v -1 c 0,-3.323997 -2.676,-6 -6,-6 z" />
    <path
       id="rect1402"
       style="opacity:0.2;fill:#ffffff;fill-opacity:1"
       d="m 420,140 c -2.216,0 -4,1.784 -4,4 v 1 c 0,-2.216 1.784,-4 4,-4 h 8 c 2.216,0 4,1.784 4,4 v -1 c 0,-2.216 -1.784,-4 -4,-4 z" />
    <path
       id="rect1436"
       style="opacity:0.2;fill:#ffffff;fill-opacity:1"
       d="m 422,102 c -2.216,0 -4,1.784 -4,4 v 1 c 0,-2.216 1.784,-4 4,-4 h 12 c 2.216,0 4,1.784 4,4 v -1 c 0,-2.216 -1.784,-4 -4,-4 z" />
  </g>
</svg>
