<?xml version="1.0" encoding="UTF-8" standalone="no"?>
<!-- Created with Inkscape (http://www.inkscape.org/) -->

<svg
   width="480"
   height="300"
   viewBox="0 0 480 300"
   version="1.1"
   id="svg5"
   inkscape:version="1.2.2 (1:1.2.2+202305151914+b0a8486541)"
   sodipodi:docname="libreoffice-impress.svg"
   xmlns:inkscape="http://www.inkscape.org/namespaces/inkscape"
   xmlns:sodipodi="http://sodipodi.sourceforge.net/DTD/sodipodi-0.dtd"
   xmlns="http://www.w3.org/2000/svg"
   xmlns:svg="http://www.w3.org/2000/svg">
  <sodipodi:namedview
     id="namedview7"
     pagecolor="#888888"
     bordercolor="#000000"
     borderopacity="0.25"
     inkscape:showpageshadow="true"
     inkscape:pageopacity="0"
     inkscape:pagecheckerboard="0"
     inkscape:deskcolor="#888888"
     inkscape:document-units="px"
     showgrid="false"
     showborder="false"
     inkscape:zoom="2.6866667"
     inkscape:cx="240.07444"
     inkscape:cy="150"
     inkscape:window-width="1920"
     inkscape:window-height="1008"
     inkscape:window-x="0"
     inkscape:window-y="0"
     inkscape:window-maximized="1"
     inkscape:current-layer="svg5" />
  <defs
     id="defs2" />
  <g
     id="Baseplate"
     style="display:none">
    <text
       y="19.774782"
       xml:space="preserve"
       x="15.006946"
       style="font-style:normal;font-variant:normal;font-weight:normal;font-stretch:normal;line-height:0%;font-family:'DejaVu Sans';-inkscape-font-specification:'DejaVu Sans';display:inline;fill:#000000;fill-opacity:1;stroke:none;enable-background:new"
       inkscape:label="context"
       id="context"><tspan
         style="font-style:normal;font-variant:normal;font-weight:normal;font-stretch:normal;font-size:18px;line-height:1.25;font-family:'DejaVu Sans';-inkscape-font-specification:'DejaVu Sans'"
         y="19.774782"
         x="15.006946"
         sodipodi:role="line"
         id="tspan3933">apps</tspan></text>
    <text
       y="19.774782"
       xml:space="preserve"
       x="122.48839"
       style="font-style:normal;font-variant:normal;font-weight:bold;font-stretch:normal;line-height:0%;font-family:'DejaVu Sans';-inkscape-font-specification:'DejaVu Sans Bold';text-align:start;writing-mode:lr-tb;text-anchor:start;display:inline;fill:#000000;fill-opacity:1;stroke:none;enable-background:new"
       inkscape:label="icon-name"
       id="icon-name"><tspan
         style="font-style:normal;font-variant:normal;font-weight:bold;font-stretch:normal;font-size:18px;line-height:1.25;font-family:'DejaVu Sans';-inkscape-font-specification:'DejaVu Sans Bold'"
         y="19.774782"
         x="122.48839"
         sodipodi:role="line"
         id="tspan3937">libreoffice-impress</tspan></text>
    <rect
       style="fill:#ffffff"
       id="256x256"
       width="256"
       height="256"
       x="16"
       y="28" />
    <rect
       style="fill:#ffffff"
       id="96x96"
       width="96"
       height="96"
       x="288"
       y="28" />
    <rect
       style="fill:#ffffff"
       id="64x64"
       width="64"
       height="64"
       x="288"
       y="140" />
    <rect
       style="fill:#ffffff"
       id="48x48"
       width="48"
       height="48"
       x="288"
       y="220" />
    <rect
       style="fill:#ffffff"
       id="32x32"
       width="32"
       height="32"
       x="416"
       y="52" />
    <rect
       style="fill:#ffffff"
       id="24x24"
       width="24"
       height="24"
       x="416"
       y="100" />
    <rect
       style="fill:#ffffff"
       id="22x22"
       width="22"
       height="22"
       x="417"
       y="101" />
    <rect
       style="fill:#ffffff"
       id="16x16"
       width="16"
       height="16"
       x="416"
       y="140" />
  </g>
  <g
     id="Shadow">
    <rect
       style="opacity:0.2;fill:#000000"
       id="rect651"
       width="224"
       height="224"
       x="32"
       y="46"
       ry="48" />
    <rect
       style="opacity:0.2;fill:#000000"
       id="rect769"
       width="84"
       height="85"
       x="294"
       y="34"
       ry="18" />
    <rect
       style="opacity:0.2;fill:#000000;fill-opacity:1"
       id="rect1131"
       width="56"
       height="56"
       x="292"
       y="145"
       ry="12" />
    <rect
       style="opacity:0.2;fill:#000000;fill-opacity:1"
       id="rect1261"
       width="42"
       height="42"
       x="291"
       y="224"
       ry="9" />
    <rect
       style="opacity:0.2;fill:#000000;fill-opacity:1"
       id="rect1364"
       width="28"
       height="29"
       x="418"
       y="54"
       ry="6" />
    <rect
       style="opacity:0.2;fill:#000000;fill-opacity:1"
       id="rect1398"
       width="16"
       height="16"
       x="416"
       y="141"
       ry="4" />
    <rect
       style="opacity:0.2;fill:#000000;fill-opacity:1"
       id="rect1432"
       width="20"
       height="20"
       x="418"
       y="103"
       ry="4" />
  </g>
  <g
     id="Background">
    <rect
       style="fill:#e96412;fill-opacity:1"
       id="rect597"
       width="224"
       height="224"
       x="32"
       y="44"
       ry="48" />
    <rect
       style="opacity:1;fill:#e96412;fill-opacity:1"
       id="rect771"
       width="84"
       height="84"
       x="294"
       y="34"
       ry="18" />
    <rect
       style="opacity:1;fill:#e96412;fill-opacity:1"
       id="rect1133"
       width="56"
       height="56"
       x="292"
       y="144"
       ry="12" />
    <rect
       style="opacity:1;fill:#e96412;fill-opacity:1"
       id="rect1263"
       width="42"
       height="42"
       x="291"
       y="223"
       ry="9" />
    <rect
       style="opacity:1;fill:#e96412;fill-opacity:1"
       id="rect1366"
       width="28"
       height="28"
       x="418"
       y="54"
       ry="6" />
    <rect
       style="opacity:1;fill:#e96412;fill-opacity:1"
       id="rect1400"
       width="16"
       height="16"
       x="416"
       y="140"
       ry="4" />
    <rect
       style="opacity:1;fill:#e96412;fill-opacity:1"
       id="rect1434"
       width="20"
       height="20"
       x="418"
       y="102"
       ry="4" />
  </g>
  <g
     id="g2875">
    <g
       id="g3639"
       transform="translate(-11.16012,7.16637)">
      <path
         d="m 430.16012,138.83363 v 0.5 h 9 v -0.5 z m 0,2 v 0.5 h 1 v -0.5 z m 0,2 v 0.5 h 1 v -0.5 z m 2,2 v 0.5 h 7 v -0.5 z"
         style="opacity:0.2;fill:#000000"
         id="path3649"
         sodipodi:nodetypes="cccccccccccccccccccc" />
      <path
         id="rect1509"
         style="fill:#ffffff"
         d="m 430.16012,137.83363 v 1 h 9 v -1 z m 0,2 v 1 h 1 v -1 z m 0,2 v 1 h 1 v -1 z"
         sodipodi:nodetypes="ccccccccccccccc" />
      <path
         id="rect1541-0"
         style="opacity:0.8;fill:#ffffff;stroke-width:0.935414"
         d="m 432.16012,139.83363 v 5 h 7 v -5 z m 1,1 h 5 v 3 h -5 z"
         sodipodi:nodetypes="cccccccccc" />
      <rect
         style="opacity:0.6;fill:#ffffff"
         id="rect1566-6"
         width="5"
         height="3"
         x="433.16013"
         y="140.83363" />
      <path
         style="color:#000000;fill:#e35100;fill-opacity:1;-inkscape-stroke:none"
         d="m 437.76949,140.52113 -1.65039,2.06445 -1.51367,-1.51367 -1.8457,2.46094 0.80078,0.60156 1.1543,-1.53906 1.48633,1.48633 2.3496,-2.93555 z"
         id="path1631-2" />
    </g>
    <g
       id="g3322"
       transform="translate(-5.62283,-22.23945)">
      <path
         id="rect7037-9"
         style="opacity:0.2;fill:#000000"
         d="m 427.62283,131.23945 v 0.5 h 12 v -0.5 z m 2,2 v 0.5 h 8 v -0.5 z m -2,2 v 0.5 h 1 v -0.5 z m 2,0 v 0.5 h 2 v -0.5 z m -2,2 v 0.5 h 1 v -0.5 z m 2,0 v 0.5 h 2 v -0.5 z m -2,2 v 0.5 h 1 v -0.5 z m 2,0 v 0.5 h 2 v -0.5 z m 3,0 v 0.5 h 7 v -0.5 z"
         sodipodi:nodetypes="ccccccccccccccccccccccccccccccccccccccccccccc" />
      <path
         id="rect7037"
         style="fill:#ffffff"
         d="m 427.62283,130.23945 v 1 h 12 v -1 z m 2,2 v 1 h 8 v -1 z m -2,2 v 1 h 1 v -1 z m 2,0 v 1 h 2 v -1 z m -2,2 v 1 h 1 v -1 z m 2,0 v 1 h 2 v -1 z m -2,2 v 1 h 1 v -1 z m 2,0 v 1 h 2 v -1 z" />
      <path
         id="rect1541"
         style="opacity:0.8;fill:#ffffff;stroke-width:0.935414"
         d="m 432.62283,134.23945 v 5 h 7 v -5 z m 1,1 h 5 v 3 h -5 z"
         sodipodi:nodetypes="cccccccccc" />
      <rect
         style="opacity:0.6;fill:#ffffff"
         id="rect1566"
         width="5"
         height="3"
         x="433.62283"
         y="135.23946" />
      <path
         style="color:#000000;fill:#e35100;fill-opacity:1;-inkscape-stroke:none"
         d="m 438.23221,134.92695 -1.6504,1.56445 -1.01367,-1.01367 -2.3457,2.26172 0.80078,0.80078 1.6543,-1.53906 0.98633,0.98633 2.34961,-2.24805 z"
         id="path1631"
         sodipodi:nodetypes="ccccccccc" />
    </g>
    <g
       id="g3108"
       transform="translate(21.45409,-37.707196)">
      <path
         id="rect549-9-7"
         style="fill:#000000;fill-opacity:1;stroke-width:2.29129;stroke-linecap:round;stroke-linejoin:round;opacity:0.2"
         d="m 403.04591,100.2072 c -0.277,0 -0.5,0.223 -0.5,0.5 0,0.277 0.223,0.5 0.5,0.5 h 15 c 0.277,0 0.5,-0.223 0.5,-0.5 0,-0.277 -0.223,-0.5 -0.5,-0.5 z m 2,2 c -0.277,0 -0.5,0.223 -0.5,0.5 0,0.277 0.223,0.5 0.5,0.5 h 11 c 0.277,0 0.5,-0.223 0.5,-0.5 0,-0.277 -0.223,-0.5 -0.5,-0.5 z m -2,4 c -0.27614,0 -0.5,0.22385 -0.5,0.5 0,0.27614 0.22386,0.5 0.5,0.5 0.27614,0 0.5,-0.22386 0.5,-0.5 0,-0.27615 -0.22386,-0.5 -0.5,-0.5 z m 2,0 c -0.277,0 -0.5,0.223 -0.5,0.5 0,0.277 0.223,0.5 0.5,0.5 h 4 c 0.277,0 0.5,-0.223 0.5,-0.5 0,-0.277 -0.223,-0.5 -0.5,-0.5 z m 6.5,0 c -0.554,0 -1,0.446 -1,1 v 4 c 0,0.554 0.446,1 1,1 h 6 c 0.554,0 1,-0.446 1,-1 v -4 c 0,-0.554 -0.446,-1 -1,-1 z m -8.5,2 c -0.27614,0 -0.5,0.22385 -0.5,0.5 0,0.27614 0.22386,0.5 0.5,0.5 0.27614,0 0.5,-0.22386 0.5,-0.5 0,-0.27615 -0.22386,-0.5 -0.5,-0.5 z m 2,0 c -0.277,0 -0.5,0.223 -0.5,0.5 0,0.277 0.223,0.5 0.5,0.5 h 4 c 0.277,0 0.5,-0.223 0.5,-0.5 0,-0.277 -0.223,-0.5 -0.5,-0.5 z m -2,2 c -0.27614,0 -0.5,0.22385 -0.5,0.5 0,0.27614 0.22386,0.5 0.5,0.5 0.27614,0 0.5,-0.22386 0.5,-0.5 0,-0.27615 -0.22386,-0.5 -0.5,-0.5 z m 2,0 c -0.277,0 -0.5,0.223 -0.5,0.5 0,0.277 0.223,0.5 0.5,0.5 h 4 c 0.277,0 0.5,-0.223 0.5,-0.5 0,-0.277 -0.223,-0.5 -0.5,-0.5 z" />
      <rect
         style="fill:#f7c195;fill-opacity:1;stroke-width:2.29129;stroke-linecap:round;stroke-linejoin:round"
         id="rect549-9"
         width="8"
         height="6"
         x="410.5459"
         y="105.7072"
         ry="1" />
      <path
         id="rect346-1"
         style="fill:#ffffff;stroke-width:0.999995;stroke-linecap:round;stroke-linejoin:round"
         d="m 403.04591,99.707196 c -0.277,0 -0.5,0.223001 -0.5,0.500004 0,0.277 0.223,0.5 0.5,0.5 h 15 c 0.277,0 0.5,-0.223 0.5,-0.5 0,-0.277003 -0.223,-0.500004 -0.5,-0.500004 z m 2,2.000004 c -0.277,0 -0.5,0.223 -0.5,0.5 0,0.277 0.223,0.5 0.5,0.5 h 11 c 0.277,0 0.5,-0.223 0.5,-0.5 0,-0.277 -0.223,-0.5 -0.5,-0.5 z m -2,4 c -0.27614,0 -0.5,0.22385 -0.5,0.5 0,0.27614 0.22386,0.5 0.5,0.5 0.27614,0 0.5,-0.22386 0.5,-0.5 0,-0.27615 -0.22386,-0.5 -0.5,-0.5 z m 2,0 c -0.277,0 -0.5,0.223 -0.5,0.5 0,0.277 0.223,0.5 0.5,0.5 h 4 c 0.277,0 0.5,-0.223 0.5,-0.5 0,-0.277 -0.223,-0.5 -0.5,-0.5 z m -2,2 c -0.27614,0 -0.5,0.22385 -0.5,0.5 0,0.27614 0.22386,0.5 0.5,0.5 0.27614,0 0.5,-0.22386 0.5,-0.5 0,-0.27615 -0.22386,-0.5 -0.5,-0.5 z m 2,0 c -0.277,0 -0.5,0.223 -0.5,0.5 0,0.277 0.223,0.5 0.5,0.5 h 4 c 0.277,0 0.5,-0.223 0.5,-0.5 0,-0.277 -0.223,-0.5 -0.5,-0.5 z m -2,2 c -0.27614,0 -0.5,0.22385 -0.5,0.5 0,0.27614 0.22386,0.5 0.5,0.5 0.27614,0 0.5,-0.22386 0.5,-0.5 0,-0.27615 -0.22386,-0.5 -0.5,-0.5 z m 2,0 c -0.277,0 -0.5,0.223 -0.5,0.5 0,0.277 0.223,0.5 0.5,0.5 h 4 c 0.277,0 0.5,-0.223 0.5,-0.5 0,-0.277 -0.223,-0.5 -0.5,-0.5 z"
         sodipodi:nodetypes="ssssssssssssssssssssssssssssssssssssssssssssssssss" />
      <path
         style="color:#000000;fill:#e35100;fill-opacity:1;stroke-width:0.5;stroke-linecap:round;stroke-linejoin:round;-inkscape-stroke:none"
         d="m 417.35841,106.81663 c -0.2157,-0.17273 -0.53061,-0.13774 -0.70313,0.0781 l -1.42777,1.81244 -1.10742,-0.92383 c -0.21011,-0.17537 -0.52215,-0.14926 -0.70019,0.0586 l -1.75387,2.04019 c -0.17964,0.20979 -0.15515,0.5255 0.0547,0.70508 0.20979,0.17964 0.52549,0.15515 0.70508,-0.0547 l 1.43258,-1.66519 1.12109,0.93457 c 0.21509,0.17965 0.5358,0.14749 0.71094,-0.0713 l 1.74613,-2.21088 c 0.17273,-0.2157 0.13774,-0.53061 -0.0781,-0.70312 z"
         id="path691-2"
         sodipodi:nodetypes="ccccccccccccc" />
    </g>
    <g
       id="g3889"
       transform="translate(-49.414394,-14.312656)">
      <path
         id="rect549-6-9"
         style="fill:#000000;fill-opacity:1;stroke-width:2.29129;stroke-linecap:round;stroke-linejoin:round;opacity:0.2"
         d="m 349.91439,250.31266 c -0.277,0 -0.5,0.223 -0.5,0.5 0,0.277 0.223,0.5 0.5,0.5 h 23 c 0.277,0 0.5,-0.223 0.5,-0.5 0,-0.277 -0.223,-0.5 -0.5,-0.5 z m 3,3 c -0.277,0 -0.5,0.223 -0.5,0.5 0,0.277 0.223,0.5 0.5,0.5 h 17 c 0.277,0 0.5,-0.223 0.5,-0.5 0,-0.277 -0.223,-0.5 -0.5,-0.5 z m 8.5,6 c -0.554,0 -1,0.446 -1,1 v 7 c 0,0.554 0.446,1 1,1 h 11 c 0.554,0 1,-0.446 1,-1 v -7 c 0,-0.554 -0.446,-1 -1,-1 z m -11.5,1 c -0.27614,0 -0.5,0.22386 -0.5,0.5 0,0.27614 0.22386,0.5 0.5,0.5 0.27614,0 0.5,-0.22386 0.5,-0.5 0,-0.27614 -0.22386,-0.5 -0.5,-0.5 z m 2,0 c -0.277,0 -0.5,0.223 -0.5,0.5 0,0.277 0.223,0.5 0.5,0.5 h 6 c 0.277,0 0.5,-0.223 0.5,-0.5 0,-0.277 -0.223,-0.5 -0.5,-0.5 z m -2,3 c -0.27614,0 -0.5,0.22386 -0.5,0.5 0,0.27614 0.22386,0.5 0.5,0.5 0.27614,0 0.5,-0.22386 0.5,-0.5 0,-0.27614 -0.22386,-0.5 -0.5,-0.5 z m 2,0 c -0.277,0 -0.5,0.223 -0.5,0.5 0,0.277 0.223,0.5 0.5,0.5 h 6 c 0.277,0 0.5,-0.223 0.5,-0.5 0,-0.277 -0.223,-0.5 -0.5,-0.5 z m -2,3 c -0.27614,0 -0.5,0.22386 -0.5,0.5 0,0.27614 0.22386,0.5 0.5,0.5 0.27614,0 0.5,-0.22386 0.5,-0.5 0,-0.27614 -0.22386,-0.5 -0.5,-0.5 z m 2,0 c -0.277,0 -0.5,0.223 -0.5,0.5 0,0.277 0.223,0.5 0.5,0.5 h 6 c 0.277,0 0.5,-0.223 0.5,-0.5 0,-0.277 -0.223,-0.5 -0.5,-0.5 z" />
      <rect
         style="fill:#f7c195;fill-opacity:1;stroke-width:2.29129;stroke-linecap:round;stroke-linejoin:round"
         id="rect549-6"
         width="13"
         height="9"
         x="360.4144"
         y="258.31265"
         ry="0.99999994" />
      <path
         id="rect346-18"
         style="fill:#ffffff;stroke-width:0.999995;stroke-linecap:round;stroke-linejoin:round"
         d="m 349.91439,249.31266 c -0.277,0 -0.5,0.223 -0.5,0.5 0,0.277 0.223,0.5 0.5,0.5 h 23 c 0.277,0 0.5,-0.223 0.5,-0.5 0,-0.277 -0.223,-0.5 -0.5,-0.5 z m 3,3 c -0.277,0 -0.5,0.223 -0.5,0.5 0,0.277 0.223,0.5 0.5,0.5 h 17 c 0.277,0 0.5,-0.223 0.5,-0.5 0,-0.277 -0.223,-0.5 -0.5,-0.5 z m -3,7 c -0.27614,0 -0.5,0.22386 -0.5,0.5 0,0.27614 0.22386,0.5 0.5,0.5 0.27614,0 0.5,-0.22386 0.5,-0.5 0,-0.27614 -0.22386,-0.5 -0.5,-0.5 z m 2,0 c -0.277,0 -0.5,0.223 -0.5,0.5 0,0.277 0.223,0.5 0.5,0.5 h 6 c 0.277,0 0.5,-0.223 0.5,-0.5 0,-0.277 -0.223,-0.5 -0.5,-0.5 z m -2,3 c -0.27614,0 -0.5,0.22386 -0.5,0.5 0,0.27614 0.22386,0.5 0.5,0.5 0.27614,0 0.5,-0.22386 0.5,-0.5 0,-0.27614 -0.22386,-0.5 -0.5,-0.5 z m 2,0 c -0.277,0 -0.5,0.223 -0.5,0.5 0,0.277 0.223,0.5 0.5,0.5 h 6 c 0.277,0 0.5,-0.223 0.5,-0.5 0,-0.277 -0.223,-0.5 -0.5,-0.5 z m -2,3 c -0.27614,0 -0.5,0.22386 -0.5,0.5 0,0.27614 0.22386,0.5 0.5,0.5 0.27614,0 0.5,-0.22386 0.5,-0.5 0,-0.27614 -0.22386,-0.5 -0.5,-0.5 z m 2,0 c -0.277,0 -0.5,0.223 -0.5,0.5 0,0.277 0.223,0.5 0.5,0.5 h 6 c 0.277,0 0.5,-0.223 0.5,-0.5 0,-0.277 -0.223,-0.5 -0.5,-0.5 z"
         sodipodi:nodetypes="ssssssssssssssssssssssssssssssssssssssssssssssssss" />
      <path
         style="color:#000000;fill:#e35100;fill-opacity:1;stroke-linecap:round;stroke-linejoin:round;-inkscape-stroke:none"
         d="m 372.03939,259.53137 c -0.43139,-0.34546 -1.06121,-0.27548 -1.40625,0.15625 l -2.35597,3.12514 -2.21496,-1.84766 c -0.42021,-0.35073 -1.04431,-0.29851 -1.40039,0.11719 l -3.0072,3.58029 c -0.35927,0.41958 -0.3103,1.05099 0.10938,1.41016 0.41958,0.35927 1.05099,0.3103 1.41016,-0.10938 l 2.36462,-2.83029 2.2423,1.86914 c 0.43018,0.35931 1.07161,0.29499 1.42188,-0.14257 l 2.99268,-3.92202 c 0.34546,-0.43139 0.27548,-1.06121 -0.15625,-1.40625 z"
         id="path691-7"
         sodipodi:nodetypes="ccccccccccccc" />
    </g>
    <g
       id="g4096">
      <path
         id="rect549-0-7"
         style="fill:#000000;fill-opacity:1;stroke-width:4.58258;stroke-linecap:round;stroke-linejoin:round;opacity:0.2"
         d="m 305,162 c -0.554,0 -1,0.446 -1,1 0,0.554 0.446,1 1,1 h 30 c 0.554,0 1,-0.446 1,-1 0,-0.554 -0.446,-1 -1,-1 z m 4,4 c -0.554,0 -1,0.446 -1,1 0,0.554 0.446,1 1,1 h 22 c 0.554,0 1,-0.446 1,-1 0,-0.554 -0.446,-1 -1,-1 z m -4,8 c -0.55228,0 -1,0.44772 -1,1 0,0.55228 0.44772,1 1,1 0.55228,0 1,-0.44772 1,-1 0,-0.55228 -0.44772,-1 -1,-1 z m 4,0 c -0.554,0 -1,0.446 -1,1 0,0.554 0.446,1 1,1 h 8 c 0.554,0 1,-0.446 1,-1 0,-0.554 -0.446,-1 -1,-1 z m 13,0 c -1.108,0 -2,0.892 -2,2 v 8 c 0,1.108 0.892,2 2,2 h 12 c 1.108,0 2,-0.892 2,-2 v -8 c 0,-1.108 -0.892,-2 -2,-2 z m -17,4 c -0.55228,0 -1,0.44772 -1,1 0,0.55228 0.44772,1 1,1 0.55228,0 1,-0.44772 1,-1 0,-0.55228 -0.44772,-1 -1,-1 z m 4,0 c -0.554,0 -1,0.446 -1,1 0,0.554 0.446,1 1,1 h 8 c 0.554,0 1,-0.446 1,-1 0,-0.554 -0.446,-1 -1,-1 z m -4,4 c -0.55228,0 -1,0.44772 -1,1 0,0.55228 0.44772,1 1,1 0.55228,0 1,-0.44772 1,-1 0,-0.55228 -0.44772,-1 -1,-1 z m 4,0 c -0.554,0 -1,0.446 -1,1 0,0.554 0.446,1 1,1 h 8 c 0.554,0 1,-0.446 1,-1 0,-0.554 -0.446,-1 -1,-1 z" />
      <rect
         style="fill:#f7c195;fill-opacity:1;stroke-width:4.58258;stroke-linecap:round;stroke-linejoin:round"
         id="rect549-0"
         width="16"
         height="12"
         x="320"
         y="173"
         ry="2" />
      <path
         id="rect346-2"
         style="fill:#ffffff;stroke-width:1.99999;stroke-linecap:round;stroke-linejoin:round"
         d="m 305,161 c -0.554,0 -1,0.446 -1,1 0,0.554 0.446,1 1,1 h 30 c 0.554,0 1,-0.446 1,-1 0,-0.554 -0.446,-1 -1,-1 z m 4,4 c -0.554,0 -1,0.446 -1,1 0,0.554 0.446,1 1,1 h 22 c 0.554,0 1,-0.446 1,-1 0,-0.554 -0.446,-1 -1,-1 z m -4,8 c -0.55228,0 -1,0.44772 -1,1 0,0.55228 0.44772,1 1,1 0.55228,0 1,-0.44772 1,-1 0,-0.55228 -0.44772,-1 -1,-1 z m 4,0 c -0.554,0 -1,0.446 -1,1 0,0.554 0.446,1 1,1 h 8 c 0.554,0 1,-0.446 1,-1 0,-0.554 -0.446,-1 -1,-1 z m -4,4 c -0.55228,0 -1,0.44772 -1,1 0,0.55228 0.44772,1 1,1 0.55228,0 1,-0.44772 1,-1 0,-0.55228 -0.44772,-1 -1,-1 z m 4,0 c -0.554,0 -1,0.446 -1,1 0,0.554 0.446,1 1,1 h 8 c 0.554,0 1,-0.446 1,-1 0,-0.554 -0.446,-1 -1,-1 z m -4,4 c -0.55228,0 -1,0.44772 -1,1 0,0.55228 0.44772,1 1,1 0.55228,0 1,-0.44772 1,-1 0,-0.55228 -0.44772,-1 -1,-1 z m 4,0 c -0.554,0 -1,0.446 -1,1 0,0.554 0.446,1 1,1 h 8 c 0.554,0 1,-0.446 1,-1 0,-0.554 -0.446,-1 -1,-1 z"
         sodipodi:nodetypes="ssssssssssssssssssssssssssssssssssssssssssssssssss" />
      <path
         style="color:#000000;fill:#e35100;fill-opacity:1;stroke-linecap:round;stroke-linejoin:round;-inkscape-stroke:none"
         d="m 333.625,175.21887 c -0.43139,-0.34545 -1.06121,-0.27547 -1.40625,0.15625 L 329.36321,179 l -2.21485,-1.84766 c -0.42021,-0.35073 -1.04431,-0.29851 -1.40039,0.11719 l -3.50774,4.08039 c -0.35927,0.41958 -0.3103,1.05099 0.10938,1.41016 0.41958,0.35927 1.05099,0.3103 1.41016,-0.10938 l 2.86516,-3.33039 2.24218,1.86914 c 0.43018,0.35931 1.07161,0.29499 1.42188,-0.14258 l 3.49226,-4.42175 c 0.34546,-0.43139 0.27548,-1.06121 -0.15625,-1.40625 z"
         id="path691-3"
         sodipodi:nodetypes="ccccccccccccc" />
    </g>
    <g
       id="g1159">
      <path
         id="rect549-3"
         style="fill:#000000;fill-opacity:1;stroke-width:6.87387;stroke-linecap:round;stroke-linejoin:round;opacity:0.2"
         d="m 313.5,59 c -0.831,0 -1.5,0.669004 -1.5,1.5 0,0.830997 0.669,1.5 1.5,1.5 h 45 c 0.831,0 1.5,-0.669003 1.5,-1.5 0,-0.830996 -0.669,-1.5 -1.5,-1.5 z m 6,6 c -0.831,0 -1.5,0.669004 -1.5,1.5 0,0.830997 0.669,1.5 1.5,1.5 h 33 c 0.831,0 1.5,-0.669003 1.5,-1.5 0,-0.830996 -0.669,-1.5 -1.5,-1.5 z m -6,12 c -0.82843,0 -1.5,0.671574 -1.5,1.5 0,0.828427 0.67157,1.5 1.5,1.5 0.82843,0 1.5,-0.671573 1.5,-1.5 0,-0.828426 -0.67157,-1.5 -1.5,-1.5 z m 6,0 c -0.831,0 -1.5,0.669004 -1.5,1.5 0,0.830997 0.669,1.5 1.5,1.5 h 12 c 0.831,0 1.5,-0.669003 1.5,-1.5 0,-0.830996 -0.669,-1.5 -1.5,-1.5 z m 19.5,0 c -1.662,0 -3,1.338002 -3,3 v 12.000001 c 0,1.662 1.338,3 3,3 h 18 c 1.662,0 3,-1.338 3,-3 V 80 c 0,-1.661998 -1.338,-3 -3,-3 z m -25.5,6 c -0.82843,0 -1.5,0.671574 -1.5,1.5 0,0.828427 0.67157,1.5 1.5,1.5 0.82843,0 1.5,-0.671573 1.5,-1.5 0,-0.828426 -0.67157,-1.5 -1.5,-1.5 z m 6,0 c -0.831,0 -1.5,0.669004 -1.5,1.5 0,0.830997 0.669,1.5 1.5,1.5 h 12 c 0.831,0 1.5,-0.669003 1.5,-1.5 0,-0.830996 -0.669,-1.5 -1.5,-1.5 z m -6,6 c -0.82843,0 -1.5,0.671574 -1.5,1.5 0,0.828427 0.67157,1.500001 1.5,1.500001 0.82843,0 1.5,-0.671574 1.5,-1.500001 0,-0.828426 -0.67157,-1.5 -1.5,-1.5 z m 6,0 c -0.831,0 -1.5,0.669004 -1.5,1.5 0,0.830997 0.669,1.500001 1.5,1.500001 h 12 c 0.831,0 1.5,-0.669004 1.5,-1.500001 0,-0.830996 -0.669,-1.5 -1.5,-1.5 z" />
      <rect
         style="fill:#f7c195;fill-opacity:1;stroke-width:6.87387;stroke-linecap:round;stroke-linejoin:round"
         id="rect549"
         width="24"
         height="18"
         x="336"
         y="76"
         ry="3" />
      <path
         id="rect346"
         style="fill:#ffffff;stroke-width:2.99998;stroke-linecap:round;stroke-linejoin:round"
         d="m 313.5,58 c -0.831,0 -1.5,0.669003 -1.5,1.5 0,0.830997 0.669,1.5 1.5,1.5 h 45 c 0.831,0 1.5,-0.669003 1.5,-1.5 0,-0.830997 -0.669,-1.5 -1.5,-1.5 z m 6,6 c -0.831,0 -1.5,0.669003 -1.5,1.5 0,0.830997 0.669,1.5 1.5,1.5 h 33 c 0.831,0 1.5,-0.669003 1.5,-1.5 0,-0.830997 -0.669,-1.5 -1.5,-1.5 z m -6,12 c -0.82843,0 -1.5,0.671573 -1.5,1.5 0,0.828427 0.67157,1.5 1.5,1.5 0.82843,0 1.5,-0.671573 1.5,-1.5 0,-0.828427 -0.67157,-1.5 -1.5,-1.5 z m 6,0 c -0.831,0 -1.5,0.669003 -1.5,1.5 0,0.830997 0.669,1.5 1.5,1.5 h 12 c 0.831,0 1.5,-0.669003 1.5,-1.5 0,-0.830997 -0.669,-1.5 -1.5,-1.5 z m -6,6 c -0.82843,0 -1.5,0.671573 -1.5,1.5 0,0.828427 0.67157,1.5 1.5,1.5 0.82843,0 1.5,-0.671573 1.5,-1.5 0,-0.828427 -0.67157,-1.5 -1.5,-1.5 z m 6,0 c -0.831,0 -1.5,0.669003 -1.5,1.5 0,0.830997 0.669,1.5 1.5,1.5 h 12 c 0.831,0 1.5,-0.669003 1.5,-1.5 0,-0.830997 -0.669,-1.5 -1.5,-1.5 z m -6,6 c -0.82843,0 -1.5,0.671573 -1.5,1.5 0,0.828427 0.67157,1.5 1.5,1.5 0.82843,0 1.5,-0.671573 1.5,-1.5 0,-0.828427 -0.67157,-1.5 -1.5,-1.5 z m 6,0 c -0.831,0 -1.5,0.669003 -1.5,1.5 0,0.830997 0.669,1.5 1.5,1.5 h 12 c 0.831,0 1.5,-0.669003 1.5,-1.5 0,-0.830997 -0.669,-1.5 -1.5,-1.5 z"
         sodipodi:nodetypes="ssssssssssssssssssssssssssssssssssssssssssssssssss" />
      <path
         style="color:#000000;fill:#e35100;fill-opacity:1;stroke-width:1.5;stroke-linecap:round;stroke-linejoin:round;-inkscape-stroke:none"
         d="m 356.4375,79.328312 c -0.64709,-0.518187 -1.59182,-0.413217 -2.10938,0.234375 L 350.04481,85 346.72255,82.228516 c -0.63033,-0.526103 -1.56647,-0.447765 -2.10059,0.17578 l -5.26161,6.120586 c -0.53891,0.629375 -0.46545,1.576484 0.16406,2.115235 0.62938,0.53891 1.57649,0.46545 2.11524,-0.164062 l 4.29774,-4.995587 3.36328,2.803711 c 0.64526,0.538958 1.60741,0.442479 2.13281,-0.213867 l 5.23839,-6.632625 c 0.51819,-0.647086 0.41322,-1.591819 -0.23437,-2.109375 z"
         id="path691"
         sodipodi:nodetypes="ccccccccccccc" />
    </g>
    <g
       id="g2901"
       transform="translate(16.332501,-12.471463)">
      <path
         id="rect549-5-6"
         style="fill:#000000;fill-opacity:1;stroke-width:18.3303;stroke-linecap:round;stroke-linejoin:round;opacity:0.2"
         d="m 67.66749,124.47146 c -2.21599,0 -4,1.78401 -4,4 0,2.216 1.78401,4 4,4 h 120 c 2.216,0 4,-1.784 4,-4 0,-2.21599 -1.784,-4 -4,-4 z m 16,16 c -2.21599,0 -4,1.78401 -4,4 0,2.21599 1.78401,4 4,4 h 88 c 2.21599,0 4,-1.78401 4,-4 0,-2.21599 -1.78401,-4 -4,-4 z m -16,32 c -2.20914,0 -4,1.79086 -4,4 0,2.20914 1.79086,4 4,4 2.20914,0 4,-1.79086 4,-4 0,-2.20914 -1.79086,-4 -4,-4 z m 16,0 c -2.21599,0 -4,1.78401 -4,4 0,2.21599 1.78401,4 4,4 h 32 c 2.21599,0 4,-1.78401 4,-4 0,-2.21599 -1.78401,-4 -4,-4 z m 52,0 c -4.43199,0 -8,3.568 -8,8 v 32 c 0,4.43199 3.56801,8 8,8 h 48 c 4.432,0 8,-3.56801 8,-8 v -32 c 0,-4.432 -3.568,-8 -8,-8 z m -68,16 c -2.20914,0 -4,1.79086 -4,4 0,2.20914 1.79086,4 4,4 2.20914,0 4,-1.79086 4,-4 0,-2.20914 -1.79086,-4 -4,-4 z m 16,0 c -2.21599,0 -4,1.78401 -4,4 0,2.21599 1.78401,4 4,4 h 32 c 2.21599,0 4,-1.78401 4,-4 0,-2.21599 -1.78401,-4 -4,-4 z m -16,16 c -2.20914,0 -4,1.79086 -4,4 0,2.20914 1.79086,4 4,4 2.20914,0 4,-1.79086 4,-4 0,-2.20914 -1.79086,-4 -4,-4 z m 16,0 c -2.21599,0 -4,1.78401 -4,4 0,2.21599 1.78401,4 4,4 h 32 c 2.21599,0 4,-1.78401 4,-4 0,-2.21599 -1.78401,-4 -4,-4 z" />
      <rect
         style="fill:#f7c195;fill-opacity:1;stroke-width:18.3303;stroke-linecap:round;stroke-linejoin:round"
         id="rect549-5"
         width="64"
         height="48"
         x="127.6675"
         y="170.47147"
         ry="8" />
      <path
         id="rect346-3"
         style="fill:#ffffff;stroke-width:7.99996;stroke-linecap:round;stroke-linejoin:round"
         d="m 67.667494,122.47146 c -2.215992,0 -4,1.78401 -4,4 0,2.216 1.784008,4 4,4 H 187.66749 c 2.216,0 4,-1.784 4,-4 0,-2.21599 -1.784,-4 -4,-4 z m 16,16 c -2.215992,0 -4,1.78401 -4,4 0,2.21599 1.784008,4 4,4 h 87.999996 c 2.21599,0 4,-1.78401 4,-4 0,-2.21599 -1.78401,-4 -4,-4 z m -16,32 c -2.20914,0 -4,1.79086 -4,4 0,2.20914 1.79086,4 4,4 2.20914,0 4,-1.79086 4,-4 0,-2.20914 -1.79086,-4 -4,-4 z m 16,0 c -2.215992,0 -4,1.78401 -4,4 0,2.21599 1.784008,4 4,4 h 31.999996 c 2.21599,0 4,-1.78401 4,-4 0,-2.21599 -1.78401,-4 -4,-4 z m -16,16 c -2.20914,0 -4,1.79086 -4,4 0,2.20914 1.79086,4 4,4 2.20914,0 4,-1.79086 4,-4 0,-2.20914 -1.79086,-4 -4,-4 z m 16,0 c -2.215992,0 -4,1.78401 -4,4 0,2.21599 1.784008,4 4,4 h 31.999996 c 2.21599,0 4,-1.78401 4,-4 0,-2.21599 -1.78401,-4 -4,-4 z m -16,16 c -2.20914,0 -4,1.79086 -4,4 0,2.20914 1.79086,4 4,4 2.20914,0 4,-1.79086 4,-4 0,-2.20914 -1.79086,-4 -4,-4 z m 16,0 c -2.215992,0 -4,1.78401 -4,4 0,2.21599 1.784008,4 4,4 h 31.999996 c 2.21599,0 4,-1.78401 4,-4 0,-2.21599 -1.78401,-4 -4,-4 z"
         sodipodi:nodetypes="ssssssssssssssssssssssssssssssssssssssssssssssssss" />
      <path
         style="color:#000000;fill:#e35100;fill-opacity:1;stroke-width:4;stroke-linecap:round;stroke-linejoin:round;-inkscape-stroke:none"
         d="m 182.16749,179.34696 c -1.72556,-1.38183 -4.24485,-1.10191 -5.625,0.625 l -11.42217,14.4995 -8.85937,-7.39062 c -1.68086,-1.40294 -4.17725,-1.19404 -5.60157,0.46874 l -14.03095,16.32156 c -1.4371,1.67834 -1.2412,4.20396 0.4375,5.64063 1.67833,1.43709 4.20396,1.2412 5.64062,-0.4375 l 11.46064,-13.32156 8.96876,7.47656 c 1.7207,1.43722 4.28642,1.17995 5.6875,-0.57031 l 13.96904,-17.687 c 1.38184,-1.72556 1.10192,-4.24485 -0.625,-5.625 z"
         id="path691-5"
         sodipodi:nodetypes="ccccccccccccc" />
    </g>
  </g>
  <g
     id="Highlights">
    <path
       id="rect653"
       style="opacity:0.2;fill:#ffffff"
       d="M 80,44 C 53.408027,44 32,65.408027 32,92 v 2 C 32,67.408027 53.408027,46 80,46 h 128 c 26.59197,0 48,21.408027 48,48 V 92 C 256,65.408027 234.59197,44 208,44 Z"
       sodipodi:nodetypes="sscsscsss" />
    <path
       id="rect773"
       style="opacity:0.2;fill:#ffffff"
       d="m 312,34 c -9.97199,0 -18,8.02801 -18,18 v 1 c 0,-9.97199 8.02801,-18 18,-18 h 48 c 9.97199,0 18,8.02801 18,18 v -1 c 0,-9.97199 -8.02801,-18 -18,-18 z" />
    <path
       id="rect1135"
       style="opacity:0.2;fill:#ffffff;fill-opacity:1"
       d="m 304,144 c -6.64799,0 -12,5.35201 -12,12 v 1 c 0,-6.64799 5.35201,-12 12,-12 h 32 c 6.64799,0 12,5.35201 12,12 v -1 c 0,-6.64799 -5.35201,-12 -12,-12 z" />
    <path
       id="rect1265"
       style="opacity:0.2;fill:#ffffff;fill-opacity:1"
       d="m 300,223 c -4.986,0 -9,4.014 -9,9 v 1 c 0,-4.986 4.014,-9 9,-9 h 24 c 4.986,0 9,4.014 9,9 v -1 c 0,-4.986 -4.014,-9 -9,-9 z" />
    <path
       id="rect1368"
       style="opacity:0.2;fill:#ffffff;fill-opacity:1"
       d="m 424,54 c -3.324,0 -6,2.676003 -6,6 v 1 c 0,-3.323997 2.676,-6 6,-6 h 16 c 3.324,0 6,2.676003 6,6 v -1 c 0,-3.323997 -2.676,-6 -6,-6 z" />
    <path
       id="rect1402"
       style="opacity:0.2;fill:#ffffff;fill-opacity:1"
       d="m 420,140 c -2.216,0 -4,1.784 -4,4 v 1 c 0,-2.216 1.784,-4 4,-4 h 8 c 2.216,0 4,1.784 4,4 v -1 c 0,-2.216 -1.784,-4 -4,-4 z" />
    <path
       id="rect1436"
       style="opacity:0.2;fill:#ffffff;fill-opacity:1"
       d="m 422,102 c -2.216,0 -4,1.784 -4,4 v 1 c 0,-2.216 1.784,-4 4,-4 h 12 c 2.216,0 4,1.784 4,4 v -1 c 0,-2.216 -1.784,-4 -4,-4 z" />
  </g>
</svg>
