<?xml version="1.0" encoding="UTF-8" standalone="no"?>
<!-- Created with Inkscape (http://www.inkscape.org/) -->

<svg
   width="480"
   height="300"
   viewBox="0 0 480 300"
   version="1.1"
   id="svg5"
   inkscape:version="1.2.2 (1:1.2.2+202305151914+b0a8486541)"
   sodipodi:docname="libreoffice-writer.svg"
   xmlns:inkscape="http://www.inkscape.org/namespaces/inkscape"
   xmlns:sodipodi="http://sodipodi.sourceforge.net/DTD/sodipodi-0.dtd"
   xmlns="http://www.w3.org/2000/svg"
   xmlns:svg="http://www.w3.org/2000/svg">
  <sodipodi:namedview
     id="namedview7"
     pagecolor="#888888"
     bordercolor="#000000"
     borderopacity="0.25"
     inkscape:showpageshadow="true"
     inkscape:pageopacity="0"
     inkscape:pagecheckerboard="0"
     inkscape:deskcolor="#888888"
     inkscape:document-units="px"
     showgrid="false"
     showborder="false"
     inkscape:zoom="2.6866667"
     inkscape:cx="240.07444"
     inkscape:cy="150"
     inkscape:window-width="1920"
     inkscape:window-height="1008"
     inkscape:window-x="0"
     inkscape:window-y="0"
     inkscape:window-maximized="1"
     inkscape:current-layer="svg5"
     showguides="false" />
  <defs
     id="defs2" />
  <g
     id="Baseplate"
     style="display:none">
    <text
       y="19.774782"
       xml:space="preserve"
       x="15.006946"
       style="font-style:normal;font-variant:normal;font-weight:normal;font-stretch:normal;line-height:0%;font-family:'DejaVu Sans';-inkscape-font-specification:'DejaVu Sans';display:inline;fill:#000000;fill-opacity:1;stroke:none;enable-background:new"
       inkscape:label="context"
       id="context"><tspan
         style="font-style:normal;font-variant:normal;font-weight:normal;font-stretch:normal;font-size:18px;line-height:1.25;font-family:'DejaVu Sans';-inkscape-font-specification:'DejaVu Sans'"
         y="19.774782"
         x="15.006946"
         sodipodi:role="line"
         id="tspan3933">apps</tspan></text>
    <text
       y="19.774782"
       xml:space="preserve"
       x="122.48839"
       style="font-style:normal;font-variant:normal;font-weight:bold;font-stretch:normal;line-height:0%;font-family:'DejaVu Sans';-inkscape-font-specification:'DejaVu Sans Bold';text-align:start;writing-mode:lr-tb;text-anchor:start;display:inline;fill:#000000;fill-opacity:1;stroke:none;enable-background:new"
       inkscape:label="icon-name"
       id="icon-name"><tspan
         style="font-style:normal;font-variant:normal;font-weight:bold;font-stretch:normal;font-size:18px;line-height:1.25;font-family:'DejaVu Sans';-inkscape-font-specification:'DejaVu Sans Bold'"
         y="19.774782"
         x="122.48839"
         sodipodi:role="line"
         id="tspan3937">libreoffice-writer</tspan></text>
    <rect
       style="fill:#ffffff"
       id="256x256"
       width="256"
       height="256"
       x="16"
       y="28" />
    <rect
       style="fill:#ffffff"
       id="96x96"
       width="96"
       height="96"
       x="288"
       y="28" />
    <rect
       style="fill:#ffffff"
       id="64x64"
       width="64"
       height="64"
       x="288"
       y="140" />
    <rect
       style="fill:#ffffff"
       id="48x48"
       width="48"
       height="48"
       x="288"
       y="220" />
    <rect
       style="fill:#ffffff"
       id="32x32"
       width="32"
       height="32"
       x="416"
       y="52" />
    <rect
       style="fill:#ffffff"
       id="24x24"
       width="24"
       height="24"
       x="416"
       y="100" />
    <rect
       style="fill:#ffffff"
       id="22x22"
       width="22"
       height="22"
       x="417"
       y="101" />
    <rect
       style="fill:#ffffff"
       id="16x16"
       width="16"
       height="16"
       x="416"
       y="140" />
  </g>
  <g
     id="Shadow">
    <rect
       style="opacity:0.2;fill:#000000"
       id="rect651"
       width="224"
       height="224"
       x="32"
       y="46"
       ry="48" />
    <rect
       style="opacity:0.2;fill:#000000"
       id="rect769"
       width="84"
       height="85"
       x="294"
       y="34"
       ry="18" />
    <rect
       style="opacity:0.2;fill:#000000;fill-opacity:1"
       id="rect1131"
       width="56"
       height="56"
       x="292"
       y="145"
       ry="12" />
    <rect
       style="opacity:0.2;fill:#000000;fill-opacity:1"
       id="rect1261"
       width="42"
       height="42"
       x="291"
       y="224"
       ry="9" />
    <rect
       style="opacity:0.2;fill:#000000;fill-opacity:1"
       id="rect1364"
       width="28"
       height="29"
       x="418"
       y="54"
       ry="6" />
    <rect
       style="opacity:0.2;fill:#000000;fill-opacity:1"
       id="rect1398"
       width="16"
       height="16"
       x="416"
       y="141"
       ry="4" />
    <rect
       style="opacity:0.2;fill:#000000;fill-opacity:1"
       id="rect1432"
       width="20"
       height="20"
       x="418"
       y="103"
       ry="4" />
  </g>
  <g
     id="Background">
    <rect
       style="fill:#1b83d4;fill-opacity:1"
       id="rect597"
       width="224"
       height="224"
       x="32"
       y="44"
       ry="48" />
    <rect
       style="opacity:1;fill:#1b83d4;fill-opacity:1"
       id="rect771"
       width="84"
       height="84"
       x="294"
       y="34"
       ry="18" />
    <rect
       style="opacity:1;fill:#1b83d4;fill-opacity:1"
       id="rect1133"
       width="56"
       height="56"
       x="292"
       y="144"
       ry="12" />
    <rect
       style="opacity:1;fill:#1b83d4;fill-opacity:1"
       id="rect1263"
       width="42"
       height="42"
       x="291"
       y="223"
       ry="9" />
    <rect
       style="opacity:1;fill:#1b83d4;fill-opacity:1"
       id="rect1366"
       width="28"
       height="28"
       x="418"
       y="54"
       ry="6" />
    <rect
       style="opacity:1;fill:#1b83d4;fill-opacity:1"
       id="rect1400"
       width="16"
       height="16"
       x="416"
       y="140"
       ry="4" />
    <rect
       style="opacity:1;fill:#1b83d4;fill-opacity:1"
       id="rect1434"
       width="20"
       height="20"
       x="418"
       y="102"
       ry="4" />
  </g>
  <g
     id="g1084">
    <g
       id="g1079">
      <path
         id="path6433-8"
         style="fill:#000000;stroke-width:0.5;opacity:0.2"
         d="M 419 147 L 419 147.5 L 423 147.5 L 423 147 L 419 147 z M 424 147 L 424 147.5 L 428 147.5 L 428 147 L 424 147 z M 419 149 L 419 149.5 L 428 149.5 L 428 149 L 419 149 z M 419 151 L 419 151.5 L 425 151.5 L 425 151 L 419 151 z " />
      <path
         id="path6433"
         style="fill:#ffffff;stroke-width:0.5"
         d="m 419,146 v 1 h 4 v -1 z m 0,2 v 1 h 9 v -1 z m 0,2 v 1 h 6 v -1 z"
         sodipodi:nodetypes="ccccccccccccccc" />
      <rect
         style="fill:#7ad2f9;fill-opacity:1"
         id="rect3649"
         width="4"
         height="2"
         x="424"
         y="145" />
    </g>
    <g
       id="g1384"
       transform="translate(4.33375,-27.82258)">
      <path
         id="path6433-6-6"
         style="fill:#000000;stroke-width:0.5;opacity:0.2"
         d="m 417.66625,136.82258 v 0.5 h 5 v -0.5 z m 0,2 v 0.5 h 5 v -0.5 z m 0,2 v 0.5 h 5 v -0.5 z m 6,0 v 0.5 h 6 v -0.5 z m -6,2 v 0.5 h 12 v -0.5 z m 0,2 v 0.5 h 5 v -0.5 z"
         sodipodi:nodetypes="cccccccccccccccccccccccccccccc" />
      <path
         id="path6433-6"
         style="fill:#ffffff;stroke-width:0.5"
         d="m 417.66625,135.82258 v 1 h 5 v -1 z m 0,2 v 1 h 5 v -1 z m 0,2 v 1 h 5 v -1 z m 0,2 v 1 h 12 v -1 z m 0,2 v 1 h 5 v -1 z" />
      <path
         id="rect458"
         style="fill:#7ad2f9;fill-opacity:1"
         d="m 423.66625,135.82258 v 5 h 6 v -5 z m 4.5,1 a 0.5,0.5 0 0 1 0.5,0.5 0.5,0.5 0 0 1 -0.5,0.5 0.5,0.5 0 0 1 -0.5,-0.5 0.5,0.5 0 0 1 0.5,-0.5 z m -2.5,1 2,2 h -3 z" />
    </g>
    <g
       id="g1549"
       transform="translate(-21.72208,35.990074)">
      <path
         id="path5073"
         style="fill:#000000;opacity:0.2"
         d="m 445.79239,26.759926 c -0.0429,0.07385 -0.0703,0.158076 -0.0703,0.25 0,0.277 0.223,0.5 0.5,0.5 h 6 c 0.277,0 0.5,-0.223 0.5,-0.5 0,-0.09192 -0.0274,-0.176146 -0.0703,-0.25 -0.0865,0.148694 -0.24461,0.25 -0.42969,0.25 h -6 c -0.18508,0 -0.34323,-0.101306 -0.42969,-0.25 z m 0,2 c -0.0429,0.07385 -0.0703,0.158076 -0.0703,0.25 0,0.277 0.223,0.5 0.5,0.5 h 6 c 0.277,0 0.5,-0.223 0.5,-0.5 0,-0.09192 -0.0274,-0.176146 -0.0703,-0.25 -0.0865,0.148694 -0.24461,0.25 -0.42969,0.25 h -6 c -0.18508,0 -0.34323,-0.101306 -0.42969,-0.25 z m 8.92969,1.25 v 0.5 c 0,0.553998 0.446,1 1,1 h 5 c 0.554,0 1,-0.446002 1,-1 v -0.5 c 0,0.553998 -0.446,1 -1,1 h -5 c -0.554,0 -1,-0.446002 -1,-1 z m -8.92969,0.75 c -0.0429,0.07385 -0.0703,0.158076 -0.0703,0.25 0,0.277 0.223,0.5 0.5,0.5 h 6 c 0.277,0 0.5,-0.223 0.5,-0.5 0,-0.09192 -0.0274,-0.176146 -0.0703,-0.25 -0.0865,0.148694 -0.24461,0.25 -0.42969,0.25 h -6 c -0.18508,0 -0.34323,-0.101306 -0.42969,-0.25 z m 0,3 c -0.0429,0.07385 -0.0703,0.158076 -0.0703,0.25 0,0.277 0.223,0.5 0.5,0.5 h 15 c 0.277,0 0.5,-0.223 0.5,-0.5 0,-0.09192 -0.0274,-0.176146 -0.0703,-0.25 -0.0865,0.148694 -0.24461,0.25 -0.42969,0.25 h -15 c -0.18508,0 -0.34323,-0.101306 -0.42969,-0.25 z m 0,2 c -0.0429,0.07385 -0.0703,0.158076 -0.0703,0.25 0,0.277 0.223,0.5 0.5,0.5 h 15 c 0.277,0 0.5,-0.223 0.5,-0.5 0,-0.09192 -0.0274,-0.176146 -0.0703,-0.25 -0.0865,0.148694 -0.24461,0.25 -0.42969,0.25 h -15 c -0.18508,0 -0.34323,-0.101306 -0.42969,-0.25 z m 0,2 c -0.0429,0.07385 -0.0703,0.158076 -0.0703,0.25 0,0.277 0.223,0.5 0.5,0.5 h 6 c 0.277,0 0.5,-0.223 0.5,-0.5 0,-0.09192 -0.0274,-0.176146 -0.0703,-0.25 -0.0865,0.148694 -0.24461,0.25 -0.42969,0.25 h -6 c -0.18508,0 -0.34323,-0.101306 -0.42969,-0.25 z"
         sodipodi:nodetypes="csssscssccsssscssccsssscssccsssscssccsssscssccsssscssccsssscssc" />
      <path
         id="rect4373"
         style="fill:#ffffff"
         d="m 446.22208,26.009926 c -0.277,0 -0.5,0.223 -0.5,0.5 0,0.277 0.223,0.5 0.5,0.5 h 6 c 0.277,0 0.5,-0.223 0.5,-0.5 0,-0.277 -0.223,-0.5 -0.5,-0.5 z m 0,2 c -0.277,0 -0.5,0.223 -0.5,0.5 0,0.277 0.223,0.5 0.5,0.5 h 6 c 0.277,0 0.5,-0.223 0.5,-0.5 0,-0.277 -0.223,-0.5 -0.5,-0.5 z m 0,2 c -0.277,0 -0.5,0.223 -0.5,0.5 0,0.277 0.223,0.5 0.5,0.5 h 6 c 0.277,0 0.5,-0.223 0.5,-0.5 0,-0.277 -0.223,-0.5 -0.5,-0.5 z m 0,3 c -0.277,0 -0.5,0.223 -0.5,0.5 0,0.277 0.223,0.5 0.5,0.5 h 15 c 0.277,0 0.5,-0.223 0.5,-0.5 0,-0.277 -0.223,-0.5 -0.5,-0.5 z m 0,2 c -0.277,0 -0.5,0.223 -0.5,0.5 0,0.277 0.223,0.5 0.5,0.5 h 15 c 0.277,0 0.5,-0.223 0.5,-0.5 0,-0.277 -0.223,-0.5 -0.5,-0.5 z m 0,2 c -0.277,0 -0.5,0.223 -0.5,0.5 0,0.277 0.223,0.5 0.5,0.5 h 6 c 0.277,0 0.5,-0.223 0.5,-0.5 0,-0.277 -0.223,-0.5 -0.5,-0.5 z"
         sodipodi:nodetypes="ssssssssssssssssssssssssssssssssssssssssss" />
      <path
         id="rect4649"
         style="fill:#7ad2f9;fill-opacity:1"
         d="m 455.72208,26.009926 c -0.554,0 -1,0.446001 -1,1 v 3 c 0,0.553999 0.446,1 1,1 h 5 c 0.554,0 1,-0.446001 1,-1 v -3 c 0,-0.553999 -0.446,-1 -1,-1 z m 1,1 3,3 h -4 z m 3.5,0 c 0.27614,0 0.5,0.223858 0.5,0.5 0,0.276142 -0.22386,0.5 -0.5,0.5 -0.27614,0 -0.5,-0.223858 -0.5,-0.5 0,-0.276142 0.22386,-0.5 0.5,-0.5 z"
         sodipodi:nodetypes="sssssssssccccsssss" />
    </g>
    <g
       id="g1714"
       transform="translate(-32.78035,10.28629)">
      <path
         id="rect4373-7"
         style="fill:#ffffff"
         d="m 333.28035,224.71371 c -0.277,0 -0.5,0.223 -0.5,0.5 0,0.277 0.223,0.5 0.5,0.5 h 9 c 0.277,0 0.5,-0.223 0.5,-0.5 0,-0.277 -0.223,-0.5 -0.5,-0.5 z m 0,3 c -0.277,0 -0.5,0.223 -0.5,0.5 0,0.277 0.223,0.5 0.5,0.5 h 9 c 0.277,0 0.5,-0.223 0.5,-0.5 0,-0.277 -0.223,-0.5 -0.5,-0.5 z m 0,3 c -0.277,0 -0.5,0.223 -0.5,0.5 0,0.277 0.223,0.5 0.5,0.5 h 9 c 0.277,0 0.5,-0.223 0.5,-0.5 0,-0.277 -0.223,-0.5 -0.5,-0.5 z m 0,5 c -0.277,0 -0.5,0.223 -0.5,0.5 0,0.277 0.223,0.5 0.5,0.5 h 23 c 0.277,0 0.5,-0.223 0.5,-0.5 0,-0.277 -0.223,-0.5 -0.5,-0.5 z m 0,3 c -0.277,0 -0.5,0.223 -0.5,0.5 0,0.277 0.223,0.5 0.5,0.5 h 23 c 0.277,0 0.5,-0.223 0.5,-0.5 0,-0.277 -0.223,-0.5 -0.5,-0.5 z m 0,3 c -0.277,0 -0.5,0.223 -0.5,0.5 0,0.277 0.223,0.5 0.5,0.5 h 9 c 0.277,0 0.5,-0.223 0.5,-0.5 0,-0.277 -0.223,-0.5 -0.5,-0.5 z"
         sodipodi:nodetypes="ssssssssssssssssssssssssssssssssssssssssss" />
      <path
         id="rect4649-5"
         style="fill:#7ad2f9;fill-opacity:1"
         d="m 347.78035,224.71371 c -0.554,0 -1,0.446 -1,1 v 5 c 0,0.554 0.446,1 1,1 h 8 c 0.554,0 1,-0.446 1,-1 v -5 c 0,-0.554 -0.446,-1 -1,-1 z m 7,1 c 0.55228,0 1,0.44772 1,1 0,0.55228 -0.44772,1 -1,1 -0.55228,0 -1,-0.44772 -1,-1 0,-0.55228 0.44772,-1 1,-1 z m -4,1 3,4 h -6 z" />
      <path
         id="rect4373-7-2"
         style="fill:#000000;opacity:0.2"
         d="m 333.28035,225.71371 c -0.277,0 -0.5,0.223 -0.5,0.5 0,0.277 0.223,0.5 0.5,0.5 h 9 c 0.277,0 0.5,-0.223 0.5,-0.5 0,-0.277 -0.223,-0.5 -0.5,-0.5 z m 0,3 c -0.277,0 -0.5,0.223 -0.5,0.5 0,0.277 0.223,0.5 0.5,0.5 h 9 c 0.277,0 0.5,-0.223 0.5,-0.5 0,-0.277 -0.223,-0.5 -0.5,-0.5 z m 13.5,2 v 1 c 0,0.554 0.446,1 1,1 h 8 c 0.554,0 1,-0.446 1,-1 v -1 c 0,0.554 -0.446,1 -1,1 h -2 -6 c -0.554,0 -1,-0.446 -1,-1 z m -13.5,1 c -0.277,0 -0.5,0.223 -0.5,0.5 0,0.277 0.223,0.5 0.5,0.5 h 9 c 0.277,0 0.5,-0.223 0.5,-0.5 0,-0.277 -0.223,-0.5 -0.5,-0.5 z m 0,5 c -0.277,0 -0.5,0.223 -0.5,0.5 0,0.277 0.223,0.5 0.5,0.5 h 23 c 0.277,0 0.5,-0.223 0.5,-0.5 0,-0.277 -0.223,-0.5 -0.5,-0.5 z m 0,3 c -0.277,0 -0.5,0.223 -0.5,0.5 0,0.277 0.223,0.5 0.5,0.5 h 23 c 0.277,0 0.5,-0.223 0.5,-0.5 0,-0.277 -0.223,-0.5 -0.5,-0.5 z m 0,3 c -0.277,0 -0.5,0.223 -0.5,0.5 0,0.277 0.223,0.5 0.5,0.5 h 9 c 0.277,0 0.5,-0.223 0.5,-0.5 0,-0.277 -0.223,-0.5 -0.5,-0.5 z"
         sodipodi:nodetypes="sssssssssssssscsssscscscssssssssssssssssssssssssssss" />
    </g>
    <g
       id="g1879"
       transform="translate(-12.00993,-0.33251)">
      <path
         id="path5315"
         style="fill:#000000;stroke-width:2;opacity:0.2"
         d="m 316.14665,161.83251 c -0.0851,0.14724 -0.13672,0.31701 -0.13672,0.5 0,0.554 0.446,1 1,1 h 12 c 0.554,0 1,-0.446 1,-1 0,-0.18299 -0.0516,-0.35276 -0.13672,-0.5 -0.17262,0.29853 -0.49227,0.5 -0.86328,0.5 h -12 c -0.37101,0 -0.69066,-0.20147 -0.86328,-0.5 z m 0,4 c -0.0851,0.14724 -0.13672,0.31701 -0.13672,0.5 0,0.554 0.446,1 1,1 h 12 c 0.554,0 1,-0.446 1,-1 0,-0.18299 -0.0516,-0.35276 -0.13672,-0.5 -0.17262,0.29853 -0.49227,0.5 -0.86328,0.5 h -12 c -0.37101,0 -0.69066,-0.20147 -0.86328,-0.5 z m 17.86328,2.5 v 1 c 0,1.108 0.892,2 2,2 h 10 c 1.108,0 2,-0.892 2,-2 v -1 c 0,1.108 -0.892,2 -2,2 h -10 c -1.108,0 -2,-0.892 -2,-2 z m -17.86328,1.5 c -0.0851,0.14724 -0.13672,0.31701 -0.13672,0.5 0,0.554 0.446,1 1,1 h 12 c 0.554,0 1,-0.446 1,-1 0,-0.18299 -0.0516,-0.35276 -0.13672,-0.5 -0.17262,0.29853 -0.49227,0.5 -0.86328,0.5 h -12 c -0.37101,0 -0.69066,-0.20147 -0.86328,-0.5 z m 0,6 c -0.0851,0.14724 -0.13672,0.31701 -0.13672,0.5 0,0.554 0.446,1 1,1 h 30 c 0.554,0 1,-0.446 1,-1 0,-0.18299 -0.0516,-0.35276 -0.13672,-0.5 -0.17262,0.29853 -0.49227,0.5 -0.86328,0.5 h -30 c -0.37101,0 -0.69066,-0.20147 -0.86328,-0.5 z m 0,4 c -0.0851,0.14724 -0.13672,0.31701 -0.13672,0.5 0,0.554 0.446,1 1,1 h 30 c 0.554,0 1,-0.446 1,-1 0,-0.18299 -0.0516,-0.35276 -0.13672,-0.5 -0.17262,0.29853 -0.49227,0.5 -0.86328,0.5 h -30 c -0.37101,0 -0.69066,-0.20147 -0.86328,-0.5 z m 0,4 c -0.0851,0.14724 -0.13672,0.31701 -0.13672,0.5 0,0.554 0.446,1 1,1 h 12 c 0.554,0 1,-0.446 1,-1 0,-0.18299 -0.0516,-0.35276 -0.13672,-0.5 -0.17262,0.29853 -0.49227,0.5 -0.86328,0.5 h -12 c -0.37101,0 -0.69066,-0.20147 -0.86328,-0.5 z"
         sodipodi:nodetypes="csssscssccsssscssccsssscssccsssscssccsssscssccsssscssccsssscssc" />
      <path
         id="rect4373-3"
         style="fill:#ffffff;stroke-width:2"
         d="m 317.00993,160.33251 c -0.554,0 -1,0.446 -1,1 0,0.554 0.446,1 1,1 h 12 c 0.554,0 1,-0.446 1,-1 0,-0.554 -0.446,-1 -1,-1 z m 0,4 c -0.554,0 -1,0.446 -1,1 0,0.554 0.446,1 1,1 h 12 c 0.554,0 1,-0.446 1,-1 0,-0.554 -0.446,-1 -1,-1 z m 0,4 c -0.554,0 -1,0.446 -1,1 0,0.554 0.446,1 1,1 h 12 c 0.554,0 1,-0.446 1,-1 0,-0.554 -0.446,-1 -1,-1 z m 0,6 c -0.554,0 -1,0.446 -1,1 0,0.554 0.446,1 1,1 h 30 c 0.554,0 1,-0.446 1,-1 0,-0.554 -0.446,-1 -1,-1 z m 0,4 c -0.554,0 -1,0.446 -1,1 0,0.554 0.446,1 1,1 h 30 c 0.554,0 1,-0.446 1,-1 0,-0.554 -0.446,-1 -1,-1 z m 0,4 c -0.554,0 -1,0.446 -1,1 0,0.554 0.446,1 1,1 h 12 c 0.554,0 1,-0.446 1,-1 0,-0.554 -0.446,-1 -1,-1 z"
         sodipodi:nodetypes="ssssssssssssssssssssssssssssssssssssssssss" />
      <path
         id="rect4649-56"
         style="fill:#7ad2f9;fill-opacity:1;stroke-width:2"
         d="m 336.00993,160.33251 c -1.108,0 -2,0.892 -2,2 v 6 c 0,1.108 0.892,2 2,2 h 10 c 1.108,0 2,-0.892 2,-2 v -6 c 0,-1.108 -0.892,-2 -2,-2 z m 2,3 6,5 h -8 z m 7,-1 c 0.55228,0 1,0.44772 1,1 0,0.55228 -0.44772,1 -1,1 -0.55228,0 -1,-0.44772 -1,-1 0,-0.55228 0.44772,-1 1,-1 z"
         sodipodi:nodetypes="sssssssssccccsssss" />
    </g>
    <g
       id="g2044"
       transform="translate(-13.50372,-61.83375)">
      <path
         id="path5017"
         style="opacity:0.2;fill:#000000;stroke-width:3"
         d="m 325.59552,122.83375 c -0.0557,0.15722 -0.0918,0.32324 -0.0918,0.5 0,0.83099 0.669,1.5 1.5,1.5 h 18 c 0.831,0 1.5,-0.66901 1.5,-1.5 0,-0.17676 -0.0361,-0.34278 -0.0918,-0.5 -0.206,0.58192 -0.75396,1 -1.4082,1 h -18 c -0.65424,0 -1.2022,-0.41808 -1.4082,-1 z m 0,6 c -0.0557,0.15722 -0.0918,0.32324 -0.0918,0.5 0,0.83099 0.669,1.5 1.5,1.5 h 18 c 0.831,0 1.5,-0.66901 1.5,-1.5 0,-0.17676 -0.0361,-0.34278 -0.0918,-0.5 -0.206,0.58192 -0.75396,1 -1.4082,1 h -18 c -0.65424,0 -1.2022,-0.41808 -1.4082,-1 z m 26.9082,4 v 1 c 0,1.66199 1.338,3 3,3 h 15 c 1.662,0 3,-1.33801 3,-3 v -1 c 0,1.66199 -1.338,3 -3,3 h -15 c -1.662,0 -3,-1.33801 -3,-3 z m -26.9082,2 c -0.0557,0.15722 -0.0918,0.32324 -0.0918,0.5 0,0.83099 0.669,1.5 1.5,1.5 h 18 c 0.831,0 1.5,-0.66901 1.5,-1.5 0,-0.17676 -0.0361,-0.34278 -0.0918,-0.5 -0.206,0.58192 -0.75396,1 -1.4082,1 h -18 c -0.65424,0 -1.2022,-0.41808 -1.4082,-1 z m 0,9 c -0.0557,0.15722 -0.0918,0.32324 -0.0918,0.5 0,0.83099 0.669,1.5 1.5,1.5 h 45 c 0.831,0 1.5,-0.66901 1.5,-1.5 0,-0.17676 -0.0361,-0.34278 -0.0918,-0.5 -0.206,0.58192 -0.75396,1 -1.4082,1 h -45 c -0.65424,0 -1.2022,-0.41808 -1.4082,-1 z m 0,6 c -0.0557,0.15722 -0.0918,0.32324 -0.0918,0.5 0,0.83099 0.669,1.5 1.5,1.5 h 45 c 0.831,0 1.5,-0.66901 1.5,-1.5 0,-0.17676 -0.0361,-0.34278 -0.0918,-0.5 -0.206,0.58192 -0.75396,1 -1.4082,1 h -45 c -0.65424,0 -1.2022,-0.41808 -1.4082,-1 z m 0,6 c -0.0557,0.15722 -0.0918,0.32324 -0.0918,0.5 0,0.83099 0.669,1.5 1.5,1.5 h 18 c 0.831,0 1.5,-0.66901 1.5,-1.5 0,-0.17676 -0.0361,-0.34278 -0.0918,-0.5 -0.206,0.58192 -0.75396,1 -1.4082,1 h -18 c -0.65424,0 -1.2022,-0.41808 -1.4082,-1 z"
         sodipodi:nodetypes="csssscssccsssscssccsssscssccsssscssccsssscssccsssscssccsssscssc" />
      <path
         id="rect4373-2"
         style="fill:#ffffff;stroke-width:3"
         d="m 327.00372,120.83375 c -0.831,0 -1.5,0.669 -1.5,1.5 0,0.831 0.669,1.5 1.5,1.5 h 18 c 0.831,0 1.5,-0.669 1.5,-1.5 0,-0.831 -0.669,-1.5 -1.5,-1.5 z m 0,6 c -0.831,0 -1.5,0.669 -1.5,1.5 0,0.831 0.669,1.5 1.5,1.5 h 18 c 0.831,0 1.5,-0.669 1.5,-1.5 0,-0.831 -0.669,-1.5 -1.5,-1.5 z m 0,6 c -0.831,0 -1.5,0.669 -1.5,1.5 0,0.831 0.669,1.5 1.5,1.5 h 18 c 0.831,0 1.5,-0.669 1.5,-1.5 0,-0.831 -0.669,-1.5 -1.5,-1.5 z m 0,9 c -0.831,0 -1.5,0.669 -1.5,1.5 0,0.831 0.669,1.5 1.5,1.5 h 45 c 0.831,0 1.5,-0.669 1.5,-1.5 0,-0.831 -0.669,-1.5 -1.5,-1.5 z m 0,6 c -0.831,0 -1.5,0.669 -1.5,1.5 0,0.831 0.669,1.5 1.5,1.5 h 45 c 0.831,0 1.5,-0.669 1.5,-1.5 0,-0.831 -0.669,-1.5 -1.5,-1.5 z m 0,6 c -0.831,0 -1.5,0.669 -1.5,1.5 0,0.831 0.669,1.5 1.5,1.5 h 18 c 0.831,0 1.5,-0.669 1.5,-1.5 0,-0.831 -0.669,-1.5 -1.5,-1.5 z"
         sodipodi:nodetypes="ssssssssssssssssssssssssssssssssssssssssss" />
      <path
         id="rect4649-9"
         style="fill:#7ad2f9;fill-opacity:1;stroke-width:3"
         d="m 355.50372,120.83375 c -1.662,0 -3,1.338 -3,3 v 9 c 0,1.66199 1.338,3 3,3 h 15 c 1.662,0 3,-1.33801 3,-3 v -9 c 0,-1.662 -1.338,-3 -3,-3 z m 3,4 9,8 h -12 z m 10.5,-1 c 0.82843,0 1.5,0.67157 1.5,1.5 0,0.82842 -0.67157,1.5 -1.5,1.5 -0.82843,0 -1.5,-0.67158 -1.5,-1.5 0,-0.82843 0.67157,-1.5 1.5,-1.5 z"
         sodipodi:nodetypes="sssssssssccccsssss" />
    </g>
    <g
       id="g2089"
       transform="matrix(4,0,0,4,-922.00496,-419.66748)">
      <path
         id="path4961"
         style="fill:#000000;fill-opacity:1;stroke-width:0.5;opacity:0.2"
         d="m 250.53347,133.66687 c -0.0205,0.08 -0.0322,0.16346 -0.0322,0.25 0,0.554 0.446,1 1,1 h 12 c 0.554,0 1,-0.446 1,-1 0,-0.0865 -0.0118,-0.17002 -0.0322,-0.25 -0.11061,0.43203 -0.50031,0.75 -0.96777,0.75 h -12 c -0.46746,0 -0.85716,-0.31797 -0.96777,-0.75 z m 0,4 c -0.0205,0.08 -0.0322,0.16346 -0.0322,0.25 0,0.554 0.446,1 1,1 h 12 c 0.554,0 1,-0.446 1,-1 0,-0.0865 -0.0118,-0.17002 -0.0322,-0.25 -0.11061,0.43203 -0.50031,0.75 -0.96777,0.75 h -12 c -0.46746,0 -0.85716,-0.31797 -0.96777,-0.75 z m 17.96777,2.75 v 0.5 c 0,1.108 0.892,2 2,2 h 10 c 1.108,0 2,-0.892 2,-2 v -0.5 c 0,1.108 -0.892,2 -2,2 h -10 c -1.108,0 -2,-0.892 -2,-2 z m -17.96777,1.25 c -0.0205,0.08 -0.0322,0.16346 -0.0322,0.25 0,0.554 0.446,1 1,1 h 12 c 0.554,0 1,-0.446 1,-1 0,-0.0865 -0.0118,-0.17002 -0.0322,-0.25 -0.11061,0.43203 -0.50031,0.75 -0.96777,0.75 h -12 c -0.46746,0 -0.85716,-0.31797 -0.96777,-0.75 z m 0,6 c -0.0205,0.08 -0.0322,0.16346 -0.0322,0.25 0,0.554 0.446,1 1,1 h 30 c 0.554,0 1,-0.446 1,-1 0,-0.0865 -0.0118,-0.17002 -0.0322,-0.25 -0.11061,0.43203 -0.50031,0.75 -0.96777,0.75 h -30 c -0.46746,0 -0.85716,-0.31797 -0.96777,-0.75 z m 0,4 c -0.0205,0.08 -0.0322,0.16346 -0.0322,0.25 0,0.554 0.446,1 1,1 h 30 c 0.554,0 1,-0.446 1,-1 0,-0.0865 -0.0118,-0.17002 -0.0322,-0.25 -0.11061,0.43203 -0.50031,0.75 -0.96777,0.75 h -30 c -0.46746,0 -0.85716,-0.31797 -0.96777,-0.75 z m 0,4 c -0.0205,0.08 -0.0322,0.16346 -0.0322,0.25 0,0.554 0.446,1 1,1 h 12 c 0.554,0 1,-0.446 1,-1 0,-0.0865 -0.0118,-0.17002 -0.0322,-0.25 -0.11061,0.43203 -0.50031,0.75 -0.96777,0.75 h -12 c -0.46746,0 -0.85716,-0.31797 -0.96777,-0.75 z"
         sodipodi:nodetypes="csssscssccsssscssccsssscssccsssscssccsssscssccsssscssccsssscssc" />
      <path
         id="rect4373-3-2"
         style="fill:#ffffff;stroke-width:2"
         d="m 251.50124,132.41687 c -0.554,0 -1,0.446 -1,1 0,0.554 0.446,1 1,1 h 12 c 0.554,0 1,-0.446 1,-1 0,-0.554 -0.446,-1 -1,-1 z m 0,4 c -0.554,0 -1,0.446 -1,1 0,0.554 0.446,1 1,1 h 12 c 0.554,0 1,-0.446 1,-1 0,-0.554 -0.446,-1 -1,-1 z m 0,4 c -0.554,0 -1,0.446 -1,1 0,0.554 0.446,1 1,1 h 12 c 0.554,0 1,-0.446 1,-1 0,-0.554 -0.446,-1 -1,-1 z m 0,6 c -0.554,0 -1,0.446 -1,1 0,0.554 0.446,1 1,1 h 30 c 0.554,0 1,-0.446 1,-1 0,-0.554 -0.446,-1 -1,-1 z m 0,4 c -0.554,0 -1,0.446 -1,1 0,0.554 0.446,1 1,1 h 30 c 0.554,0 1,-0.446 1,-1 0,-0.554 -0.446,-1 -1,-1 z m 0,4 c -0.554,0 -1,0.446 -1,1 0,0.554 0.446,1 1,1 h 12 c 0.554,0 1,-0.446 1,-1 0,-0.554 -0.446,-1 -1,-1 z"
         sodipodi:nodetypes="ssssssssssssssssssssssssssssssssssssssssss" />
      <path
         id="rect4649-56-7"
         style="fill:#7ad2f9;fill-opacity:1;stroke-width:2"
         d="m 270.50124,132.41687 c -1.108,0 -2,0.892 -2,2 v 6 c 0,1.108 0.892,2 2,2 h 10 c 1.108,0 2,-0.892 2,-2 v -6 c 0,-1.108 -0.892,-2 -2,-2 z m 2,3 6,5 h -8 z m 7,-1 c 0.55228,0 1,0.44772 1,1 0,0.55228 -0.44772,1 -1,1 -0.55228,0 -1,-0.44772 -1,-1 0,-0.55228 0.44772,-1 1,-1 z"
         sodipodi:nodetypes="sssssssssccccsssss" />
    </g>
  </g>
  <g
     id="Highlights">
    <path
       id="rect653"
       style="opacity:0.2;fill:#ffffff"
       d="M 80,44 C 53.408027,44 32,65.408027 32,92 v 2 C 32,67.408027 53.408027,46 80,46 h 128 c 26.59197,0 48,21.408027 48,48 V 92 C 256,65.408027 234.59197,44 208,44 Z"
       sodipodi:nodetypes="sscsscsss" />
    <path
       id="rect773"
       style="opacity:0.2;fill:#ffffff"
       d="m 312,34 c -9.97199,0 -18,8.02801 -18,18 v 1 c 0,-9.97199 8.02801,-18 18,-18 h 48 c 9.97199,0 18,8.02801 18,18 v -1 c 0,-9.97199 -8.02801,-18 -18,-18 z" />
    <path
       id="rect1135"
       style="opacity:0.2;fill:#ffffff;fill-opacity:1"
       d="m 304,144 c -6.64799,0 -12,5.35201 -12,12 v 1 c 0,-6.64799 5.35201,-12 12,-12 h 32 c 6.64799,0 12,5.35201 12,12 v -1 c 0,-6.64799 -5.35201,-12 -12,-12 z" />
    <path
       id="rect1265"
       style="opacity:0.2;fill:#ffffff;fill-opacity:1"
       d="m 300,223 c -4.986,0 -9,4.014 -9,9 v 1 c 0,-4.986 4.014,-9 9,-9 h 24 c 4.986,0 9,4.014 9,9 v -1 c 0,-4.986 -4.014,-9 -9,-9 z" />
    <path
       id="rect1368"
       style="opacity:0.2;fill:#ffffff;fill-opacity:1"
       d="m 424,54 c -3.324,0 -6,2.676003 -6,6 v 1 c 0,-3.323997 2.676,-6 6,-6 h 16 c 3.324,0 6,2.676003 6,6 v -1 c 0,-3.323997 -2.676,-6 -6,-6 z" />
    <path
       id="rect1402"
       style="opacity:0.2;fill:#ffffff;fill-opacity:1"
       d="m 420,140 c -2.216,0 -4,1.784 -4,4 v 1 c 0,-2.216 1.784,-4 4,-4 h 8 c 2.216,0 4,1.784 4,4 v -1 c 0,-2.216 -1.784,-4 -4,-4 z" />
    <path
       id="rect1436"
       style="opacity:0.2;fill:#ffffff;fill-opacity:1"
       d="m 422,102 c -2.216,0 -4,1.784 -4,4 v 1 c 0,-2.216 1.784,-4 4,-4 h 12 c 2.216,0 4,1.784 4,4 v -1 c 0,-2.216 -1.784,-4 -4,-4 z" />
  </g>
</svg>
