<?xml version="1.0" encoding="UTF-8" standalone="no"?>
<!-- Created with Inkscape (http://www.inkscape.org/) -->

<svg
   width="480"
   height="300"
   viewBox="0 0 480 300"
   version="1.1"
   id="svg5"
   inkscape:version="1.2.2 (1:1.2.2+202305151914+b0a8486541)"
   sodipodi:docname="libreoffice-main.svg"
   xmlns:inkscape="http://www.inkscape.org/namespaces/inkscape"
   xmlns:sodipodi="http://sodipodi.sourceforge.net/DTD/sodipodi-0.dtd"
   xmlns="http://www.w3.org/2000/svg"
   xmlns:svg="http://www.w3.org/2000/svg">
  <sodipodi:namedview
     id="namedview7"
     pagecolor="#888888"
     bordercolor="#000000"
     borderopacity="0.25"
     inkscape:showpageshadow="true"
     inkscape:pageopacity="0"
     inkscape:pagecheckerboard="0"
     inkscape:deskcolor="#888888"
     inkscape:document-units="px"
     showgrid="false"
     showborder="false"
     inkscape:zoom="2.68125"
     inkscape:cx="240.18648"
     inkscape:cy="149.93007"
     inkscape:window-width="1920"
     inkscape:window-height="1008"
     inkscape:window-x="0"
     inkscape:window-y="0"
     inkscape:window-maximized="1"
     inkscape:current-layer="svg5" />
  <defs
     id="defs2" />
  <g
     id="Baseplate"
     style="display:none">
    <text
       y="19.774782"
       xml:space="preserve"
       x="15.006946"
       style="font-style:normal;font-variant:normal;font-weight:normal;font-stretch:normal;line-height:0%;font-family:'DejaVu Sans';-inkscape-font-specification:'DejaVu Sans';display:inline;fill:#000000;fill-opacity:1;stroke:none;enable-background:new"
       inkscape:label="context"
       id="context"><tspan
         style="font-style:normal;font-variant:normal;font-weight:normal;font-stretch:normal;font-size:18px;line-height:1.25;font-family:'DejaVu Sans';-inkscape-font-specification:'DejaVu Sans'"
         y="19.774782"
         x="15.006946"
         sodipodi:role="line"
         id="tspan3933">apps</tspan></text>
    <text
       y="19.774782"
       xml:space="preserve"
       x="122.48839"
       style="font-style:normal;font-variant:normal;font-weight:bold;font-stretch:normal;line-height:0%;font-family:'DejaVu Sans';-inkscape-font-specification:'DejaVu Sans Bold';text-align:start;writing-mode:lr-tb;text-anchor:start;display:inline;fill:#000000;fill-opacity:1;stroke:none;enable-background:new"
       inkscape:label="icon-name"
       id="icon-name"><tspan
         style="font-style:normal;font-variant:normal;font-weight:bold;font-stretch:normal;font-size:18px;line-height:1.25;font-family:'DejaVu Sans';-inkscape-font-specification:'DejaVu Sans Bold'"
         y="19.774782"
         x="122.48839"
         sodipodi:role="line"
         id="tspan3937">libreoffice-main</tspan></text>
    <rect
       style="fill:#ffffff"
       id="256x256"
       width="256"
       height="256"
       x="16"
       y="28" />
    <rect
       style="fill:#ffffff"
       id="96x96"
       width="96"
       height="96"
       x="288"
       y="28" />
    <rect
       style="fill:#ffffff"
       id="64x64"
       width="64"
       height="64"
       x="288"
       y="140" />
    <rect
       style="fill:#ffffff"
       id="48x48"
       width="48"
       height="48"
       x="288"
       y="220" />
    <rect
       style="fill:#ffffff"
       id="32x32"
       width="32"
       height="32"
       x="416"
       y="52" />
    <rect
       style="fill:#ffffff"
       id="24x24"
       width="24"
       height="24"
       x="416"
       y="100" />
    <rect
       style="fill:#ffffff"
       id="22x22"
       width="22"
       height="22"
       x="417"
       y="101" />
    <rect
       style="fill:#ffffff"
       id="16x16"
       width="16"
       height="16"
       x="416"
       y="140" />
  </g>
  <g
     id="Shadow">
    <rect
       style="opacity:0.2;fill:#000000"
       id="rect651"
       width="224"
       height="224"
       x="32"
       y="46"
       ry="48" />
    <rect
       style="opacity:0.2;fill:#000000"
       id="rect769"
       width="84"
       height="85"
       x="294"
       y="34"
       ry="18" />
    <rect
       style="opacity:0.2;fill:#000000;fill-opacity:1"
       id="rect1131"
       width="56"
       height="56"
       x="292"
       y="145"
       ry="12" />
    <rect
       style="opacity:0.2;fill:#000000;fill-opacity:1"
       id="rect1261"
       width="42"
       height="42"
       x="291"
       y="224"
       ry="9" />
    <rect
       style="opacity:0.2;fill:#000000;fill-opacity:1"
       id="rect1364"
       width="28"
       height="29"
       x="418"
       y="54"
       ry="6" />
    <rect
       style="opacity:0.2;fill:#000000;fill-opacity:1"
       id="rect1398"
       width="16"
       height="16"
       x="416"
       y="141"
       ry="4" />
    <rect
       style="opacity:0.2;fill:#000000;fill-opacity:1"
       id="rect1432"
       width="20"
       height="20"
       x="418"
       y="103"
       ry="4" />
  </g>
  <g
     id="Background">
    <rect
       style="fill:#4f4f4f;fill-opacity:1"
       id="rect597"
       width="224"
       height="224"
       x="32"
       y="44"
       ry="48" />
    <rect
       style="opacity:1;fill:#4f4f4f;fill-opacity:1"
       id="rect771"
       width="84"
       height="84"
       x="294"
       y="34"
       ry="18" />
    <rect
       style="opacity:1;fill:#4f4f4f;fill-opacity:1"
       id="rect1133"
       width="56"
       height="56"
       x="292"
       y="144"
       ry="12" />
    <rect
       style="opacity:1;fill:#4f4f4f;fill-opacity:1"
       id="rect1263"
       width="42"
       height="42"
       x="291"
       y="223"
       ry="9" />
    <rect
       style="opacity:1;fill:#4f4f4f;fill-opacity:1"
       id="rect1366"
       width="28"
       height="28"
       x="418"
       y="54"
       ry="6" />
    <rect
       style="opacity:1;fill:#4f4f4f;fill-opacity:1"
       id="rect1400"
       width="16"
       height="16"
       x="416"
       y="140"
       ry="4" />
    <rect
       style="opacity:1;fill:#4f4f4f;fill-opacity:1"
       id="rect1434"
       width="20"
       height="20"
       x="418"
       y="102"
       ry="4" />
  </g>
  <g
     id="g497">
    <g
       id="g1343">
      <path
         id="rect613"
         style="stroke-width:4;stroke-linecap:round;stroke-linejoin:round;opacity:0.2"
         d="m 420,143.5 h 4 l 5,5 v 4 c 0,0.554 -0.446,1 -1,1 h -8 c -0.554,0 -1,-0.446 -1,-1 v -8 c 0,-0.554 0.446,-1 1,-1 z"
         sodipodi:nodetypes="sccssssss" />
      <path
         id="rect487"
         style="fill:#ededed;stroke-width:4;stroke-linecap:round;stroke-linejoin:round;fill-opacity:1"
         d="m 420,143 h 4 l 5,5 v 4 c 0,0.554 -0.446,1 -1,1 h -8 c -0.554,0 -1,-0.446 -1,-1 v -8 c 0,-0.554 0.446,-1 1,-1 z"
         sodipodi:nodetypes="sccssssss" />
      <path
         d="m 424,143.5 5,4.5 v 0.5 h -5 z"
         style="fill:#000000;stroke-width:4;stroke-linecap:round;stroke-linejoin:round;opacity:0.1"
         id="path693"
         sodipodi:nodetypes="ccccc" />
      <path
         id="rect615"
         style="fill:#ababab;stroke-width:4;stroke-linecap:round;stroke-linejoin:round;fill-opacity:1"
         d="m 424,143 5,5 h -5 z"
         sodipodi:nodetypes="cccc" />
    </g>
    <g
       id="g1348">
      <path
         id="rect564"
         style="opacity:0.2;stroke-width:4;stroke-linecap:round;stroke-linejoin:round"
         d="m 422,105.5 h 6 l 7,7 v 6 c 0,0.554 -0.446,1 -1,1 h -12 c -0.554,0 -1,-0.446 -1,-1 v -12 c 0,-0.554 0.446,-1 1,-1 z"
         sodipodi:nodetypes="sccssssss" />
      <path
         id="rect484"
         style="fill:#ededed;stroke-width:4;stroke-linecap:round;stroke-linejoin:round"
         d="m 422,105 h 6 l 7,7 v 6 c 0,0.554 -0.446,1 -1,1 h -12 c -0.554,0 -1,-0.446 -1,-1 v -12 c 0,-0.554 0.446,-1 1,-1 z"
         sodipodi:nodetypes="sccssssss" />
      <path
         d="m 428,105.5 7,6.5 v 0.5 h -7 z"
         style="fill:#000000;stroke-width:4;stroke-linecap:round;stroke-linejoin:round;opacity:0.1"
         id="path1358"
         sodipodi:nodetypes="ccccc" />
      <path
         id="rect1321"
         style="opacity:1;fill:#ababab;stroke-width:4;stroke-linecap:round;stroke-linejoin:round"
         d="m 428,105 7,7 h -7 z"
         sodipodi:nodetypes="cccc" />
    </g>
    <g
       id="g1382">
      <path
         id="rect562"
         style="opacity:0.2;stroke-width:4;stroke-linecap:round;stroke-linejoin:round"
         d="m 424,59 h 8 l 10,10 v 8 c 0,1.108 -0.892,2 -2,2 h -16 c -1.108,0 -2,-0.892 -2,-2 V 61 c 0,-1.108 0.892,-2 2,-2 z"
         sodipodi:nodetypes="sccssssss" />
      <path
         id="rect475"
         style="fill:#ededed;stroke-width:2;stroke-linecap:round;stroke-linejoin:round"
         d="m 424,58 h 8 c 0,0 10,10.5 10,10 v 8 c 0,1.108 -0.892,2 -2,2 h -16 c -1.108,0 -2,-0.892 -2,-2 V 60 c 0,-1.108 0.892,-2 2,-2 z"
         sodipodi:nodetypes="sccssssss" />
      <path
         id="rect1384"
         style="opacity:0.1;stroke-width:4;stroke-linecap:round;stroke-linejoin:round;fill:#000000"
         d="m 432,59 10,9 v 1 h -10 z"
         sodipodi:nodetypes="ccccc" />
      <path
         id="rect1387"
         style="opacity:1;fill:#ababab;fill-opacity:1;stroke-width:4;stroke-linecap:round;stroke-linejoin:round"
         d="m 432,58 10,10 h -10 z"
         sodipodi:nodetypes="cccc" />
    </g>
    <g
       id="g2434">
      <path
         id="rect560"
         style="opacity:0.2;stroke-width:4;stroke-linecap:round;stroke-linejoin:round"
         d="m 300,230 h 12 l 15,15 v 12 c 0,1.662 -1.338,3 -3,3 h -24 c -1.662,0 -3,-1.338 -3,-3 v -24 c 0,-1.662 1.338,-3 3,-3 z"
         sodipodi:nodetypes="sccssssss" />
      <path
         id="rect477"
         style="fill:#ededed;stroke-width:4;stroke-linecap:round;stroke-linejoin:round"
         d="m 300,229 h 12 l 15,15 v 12 c 0,1.662 -1.338,3 -3,3 h -24 c -1.662,0 -3,-1.338 -3,-3 v -24 c 0,-1.662 1.338,-3 3,-3 z"
         sodipodi:nodetypes="sccssssss" />
      <path
         id="rect2193-7"
         style="opacity:0.1;fill:#000000;stroke-width:2;stroke-linecap:round;stroke-linejoin:round"
         d="m 312,229.5 15,14.5 v 1 h -15 z"
         sodipodi:nodetypes="ccccc" />
      <path
         d="m 312,229 15,15 h -15 z"
         style="fill:#ababab;fill-opacity:1;stroke-width:2;stroke-linecap:round;stroke-linejoin:round"
         id="path2231-5"
         sodipodi:nodetypes="cccc" />
    </g>
    <g
       id="g2189">
      <path
         id="rect558"
         style="opacity:0.2;stroke-width:4;stroke-linecap:round;stroke-linejoin:round"
         d="m 304,153 h 16 l 20,20 v 16 c 0,2.216 -1.784,4 -4,4 h -32 c -2.216,0 -4,-1.784 -4,-4 v -32 c 0,-2.216 1.784,-4 4,-4 z"
         sodipodi:nodetypes="sccssssss" />
      <path
         id="rect367"
         style="fill:#ededed;stroke-width:4;stroke-linecap:round;stroke-linejoin:round"
         d="m 304,152 h 16 l 20,20 v 16 c 0,2.216 -1.784,4 -4,4 h -32 c -2.216,0 -4,-1.784 -4,-4 v -32 c 0,-2.216 1.784,-4 4,-4 z"
         sodipodi:nodetypes="sccssssss" />
      <path
         d="m 320,153 20,19 v 1 h -20 z"
         style="fill:#000000;fill-opacity:1;stroke-width:8;stroke-linecap:round;stroke-linejoin:round;opacity:0.1"
         id="path2118"
         sodipodi:nodetypes="ccccc" />
      <path
         d="m 320,152 20,20 h -20 z"
         style="fill:#ababab;fill-opacity:1;stroke-width:8;stroke-linecap:round;stroke-linejoin:round"
         id="path2090"
         sodipodi:nodetypes="cccc" />
    </g>
    <g
       id="g2183">
      <path
         id="rect554"
         style="opacity:0.2;stroke-width:4;stroke-linecap:round;stroke-linejoin:round"
         d="m 312,47 h 24 l 30,30 v 24 c 0,3.324 -2.676,6 -6,6 h -48 c -3.324,0 -6,-2.676 -6,-6 V 53 c 0,-3.324 2.676,-6 6,-6 z"
         sodipodi:nodetypes="sccssssss" />
      <path
         id="rect479"
         style="fill:#ededed;stroke-width:4;stroke-linecap:round;stroke-linejoin:round"
         d="m 312,46 h 24 l 30,30 v 24 c 0,3.324 -2.676,6 -6,6 h -48 c -3.324,0 -6,-2.676 -6,-6 V 52 c 0,-3.324 2.676,-6 6,-6 z"
         sodipodi:nodetypes="sccssssss" />
      <path
         id="rect2193"
         style="opacity:0.1;stroke-width:4;stroke-linecap:round;stroke-linejoin:round;fill:#000000"
         d="m 336,47 30,29 v 1 h -30 z"
         sodipodi:nodetypes="ccccc" />
      <path
         d="m 336,46 30,30 h -30 z"
         style="opacity:1;stroke-width:4;stroke-linecap:round;stroke-linejoin:round;fill:#ababab;fill-opacity:1"
         id="path2231"
         sodipodi:nodetypes="cccc" />
    </g>
    <g
       id="g2177">
      <path
         id="rect482"
         style="opacity:0.2;stroke-width:4;stroke-linecap:round;stroke-linejoin:round"
         d="m 80,78 h 64 l 80,80 v 64 c 0,8.864 -7.136,16 -16,16 H 80 c -8.864,0 -16,-7.136 -16,-16 V 94 c 0,-8.864 7.136,-16 16,-16 z"
         sodipodi:nodetypes="sccssssss" />
      <path
         id="rect499"
         style="fill:#ededed;stroke-width:4;stroke-linecap:round;stroke-linejoin:round"
         d="m 80,76 h 64 l 80,80 v 64 c 0,8.864 -7.136,16 -16,16 H 80 c -8.864,0 -16,-7.136 -16,-16 V 92 c 0,-8.864 7.136,-16 16,-16 z"
         sodipodi:nodetypes="sccssssss" />
      <path
         d="m 144,80 80,76 v 2 h -80 z"
         style="opacity:0.1;fill:#000000;fill-opacity:1;stroke-width:32;stroke-linecap:round;stroke-linejoin:round"
         id="path2118-3"
         sodipodi:nodetypes="ccccc" />
      <path
         d="m 144,76 80,80 h -80 z"
         style="fill:#ababab;fill-opacity:1;stroke-width:32;stroke-linecap:round;stroke-linejoin:round"
         id="path2090-6"
         sodipodi:nodetypes="cccc" />
    </g>
  </g>
  <g
     id="Highlights">
    <path
       id="rect653"
       style="opacity:0.2;fill:#ffffff"
       d="M 80,44 C 53.408027,44 32,65.408027 32,92 v 2 C 32,67.408027 53.408027,46 80,46 h 128 c 26.59197,0 48,21.408027 48,48 V 92 C 256,65.408027 234.59197,44 208,44 Z"
       sodipodi:nodetypes="sscsscsss" />
    <path
       id="rect773"
       style="opacity:0.2;fill:#ffffff"
       d="m 312,34 c -9.97199,0 -18,8.02801 -18,18 v 1 c 0,-9.97199 8.02801,-18 18,-18 h 48 c 9.97199,0 18,8.02801 18,18 v -1 c 0,-9.97199 -8.02801,-18 -18,-18 z" />
    <path
       id="rect1135"
       style="opacity:0.2;fill:#ffffff;fill-opacity:1"
       d="m 304,144 c -6.64799,0 -12,5.35201 -12,12 v 1 c 0,-6.64799 5.35201,-12 12,-12 h 32 c 6.64799,0 12,5.35201 12,12 v -1 c 0,-6.64799 -5.35201,-12 -12,-12 z" />
    <path
       id="rect1265"
       style="opacity:0.2;fill:#ffffff;fill-opacity:1"
       d="m 300,223 c -4.986,0 -9,4.014 -9,9 v 1 c 0,-4.986 4.014,-9 9,-9 h 24 c 4.986,0 9,4.014 9,9 v -1 c 0,-4.986 -4.014,-9 -9,-9 z" />
    <path
       id="rect1368"
       style="opacity:0.2;fill:#ffffff;fill-opacity:1"
       d="m 424,54 c -3.324,0 -6,2.676003 -6,6 v 1 c 0,-3.323997 2.676,-6 6,-6 h 16 c 3.324,0 6,2.676003 6,6 v -1 c 0,-3.323997 -2.676,-6 -6,-6 z" />
    <path
       id="rect1402"
       style="opacity:0.2;fill:#ffffff;fill-opacity:1"
       d="m 420,140 c -2.216,0 -4,1.784 -4,4 v 1 c 0,-2.216 1.784,-4 4,-4 h 8 c 2.216,0 4,1.784 4,4 v -1 c 0,-2.216 -1.784,-4 -4,-4 z" />
    <path
       id="rect1436"
       style="opacity:0.2;fill:#ffffff;fill-opacity:1"
       d="m 422,102 c -2.216,0 -4,1.784 -4,4 v 1 c 0,-2.216 1.784,-4 4,-4 h 12 c 2.216,0 4,1.784 4,4 v -1 c 0,-2.216 -1.784,-4 -4,-4 z" />
  </g>
</svg>
