<?xml version="1.0" encoding="UTF-8" standalone="no"?>
<!-- Created with Inkscape (http://www.inkscape.org/) -->

<svg
   width="480"
   height="300"
   viewBox="0 0 480 300"
   version="1.1"
   id="svg5"
   inkscape:version="1.2.2 (1:1.2.2+202305151914+b0a8486541)"
   sodipodi:docname="locale.svg"
   xmlns:inkscape="http://www.inkscape.org/namespaces/inkscape"
   xmlns:sodipodi="http://sodipodi.sourceforge.net/DTD/sodipodi-0.dtd"
   xmlns="http://www.w3.org/2000/svg"
   xmlns:svg="http://www.w3.org/2000/svg">
  <sodipodi:namedview
     id="namedview7"
     pagecolor="#888888"
     bordercolor="#000000"
     borderopacity="0.25"
     inkscape:showpageshadow="true"
     inkscape:pageopacity="0"
     inkscape:pagecheckerboard="0"
     inkscape:deskcolor="#888888"
     inkscape:document-units="px"
     showgrid="false"
     showborder="false"
     inkscape:zoom="2.6866667"
     inkscape:cx="240.07444"
     inkscape:cy="150"
     inkscape:window-width="1920"
     inkscape:window-height="1008"
     inkscape:window-x="0"
     inkscape:window-y="0"
     inkscape:window-maximized="1"
     inkscape:current-layer="svg5" />
  <defs
     id="defs2">
    <mask
       maskUnits="userSpaceOnUse"
       id="mask1749">
      <rect
         style="opacity:1;fill:#ffffff;fill-opacity:1;stroke-width:5;stroke-linecap:round;stroke-linejoin:round"
         id="rect1751"
         width="16"
         height="16"
         x="416"
         y="140"
         ry="4" />
    </mask>
    <mask
       maskUnits="userSpaceOnUse"
       id="mask1140">
      <path
         id="path1142"
         style="opacity:1;fill:#ffffff;stroke-width:5;stroke-linecap:round;stroke-linejoin:round"
         d="m 418,102 h 8 l 6,20 h -14 z"
         sodipodi:nodetypes="ccccc" />
    </mask>
    <mask
       maskUnits="userSpaceOnUse"
       id="mask1553">
      <path
         id="path1555"
         style="opacity:1;fill:#ffffff;stroke-width:5;stroke-linecap:round;stroke-linejoin:round"
         d="m 418,54 h 10 l 9,28 h -19 z"
         sodipodi:nodetypes="ccccc" />
    </mask>
    <mask
       maskUnits="userSpaceOnUse"
       id="mask1615">
      <path
         id="path1617"
         style="opacity:1;fill:#ffffff;stroke-width:5;stroke-linecap:round;stroke-linejoin:round"
         d="m 418,54 h 10 l 9,28 h -19 z"
         sodipodi:nodetypes="ccccc" />
    </mask>
    <mask
       maskUnits="userSpaceOnUse"
       id="mask1553-9">
      <path
         id="path1555-1"
         style="opacity:1;fill:#ffffff;stroke-width:5;stroke-linecap:round;stroke-linejoin:round"
         d="m 418,54 h 10 l 9,28 h -19 z"
         sodipodi:nodetypes="ccccc" />
    </mask>
    <mask
       maskUnits="userSpaceOnUse"
       id="mask1553-0">
      <path
         id="path1555-6"
         style="opacity:1;fill:#ffffff;stroke-width:5;stroke-linecap:round;stroke-linejoin:round"
         d="m 418,54 h 10 l 9,28 h -19 z"
         sodipodi:nodetypes="ccccc" />
    </mask>
    <mask
       maskUnits="userSpaceOnUse"
       id="mask1553-0-2">
      <path
         id="path1555-6-0"
         style="opacity:1;fill:#ffffff;stroke-width:5;stroke-linecap:round;stroke-linejoin:round"
         d="m 418,54 h 10 l 9,28 h -19 z"
         sodipodi:nodetypes="ccccc" />
    </mask>
  </defs>
  <g
     id="Baseplate"
     style="display:none">
    <text
       y="19.774782"
       xml:space="preserve"
       x="15.006946"
       style="font-style:normal;font-variant:normal;font-weight:normal;font-stretch:normal;line-height:0%;font-family:'DejaVu Sans';-inkscape-font-specification:'DejaVu Sans';display:inline;fill:#000000;fill-opacity:1;stroke:none;enable-background:new"
       inkscape:label="context"
       id="context"><tspan
         style="font-style:normal;font-variant:normal;font-weight:normal;font-stretch:normal;font-size:18px;line-height:1.25;font-family:'DejaVu Sans';-inkscape-font-specification:'DejaVu Sans'"
         y="19.774782"
         x="15.006946"
         sodipodi:role="line"
         id="tspan3933">apps</tspan></text>
    <text
       y="19.774782"
       xml:space="preserve"
       x="122.48839"
       style="font-style:normal;font-variant:normal;font-weight:bold;font-stretch:normal;line-height:0%;font-family:'DejaVu Sans';-inkscape-font-specification:'DejaVu Sans Bold';text-align:start;writing-mode:lr-tb;text-anchor:start;display:inline;fill:#000000;fill-opacity:1;stroke:none;enable-background:new"
       inkscape:label="icon-name"
       id="icon-name"><tspan
         style="font-style:normal;font-variant:normal;font-weight:bold;font-stretch:normal;font-size:18px;line-height:1.25;font-family:'DejaVu Sans';-inkscape-font-specification:'DejaVu Sans Bold'"
         y="19.774782"
         x="122.48839"
         sodipodi:role="line"
         id="tspan3937">locale</tspan></text>
    <rect
       style="fill:#ffffff"
       id="256x256"
       width="256"
       height="256"
       x="16"
       y="28" />
    <rect
       style="fill:#ffffff"
       id="96x96"
       width="96"
       height="96"
       x="288"
       y="28" />
    <rect
       style="fill:#ffffff"
       id="64x64"
       width="64"
       height="64"
       x="288"
       y="140" />
    <rect
       style="fill:#ffffff"
       id="48x48"
       width="48"
       height="48"
       x="288"
       y="220" />
    <rect
       style="fill:#ffffff"
       id="32x32"
       width="32"
       height="32"
       x="416"
       y="52" />
    <rect
       style="fill:#ffffff"
       id="24x24"
       width="24"
       height="24"
       x="416"
       y="100" />
    <rect
       style="fill:#ffffff"
       id="22x22"
       width="22"
       height="22"
       x="417"
       y="101" />
    <rect
       style="fill:#ffffff"
       id="16x16"
       width="16"
       height="16"
       x="416"
       y="140" />
  </g>
  <g
     id="Shadow">
    <rect
       style="opacity:0.2;fill:#000000"
       id="rect651"
       width="224"
       height="224"
       x="32"
       y="46"
       ry="48" />
    <rect
       style="opacity:0.2;fill:#000000"
       id="rect769"
       width="84"
       height="85"
       x="294"
       y="34"
       ry="18" />
    <rect
       style="opacity:0.2;fill:#000000;fill-opacity:1"
       id="rect1131"
       width="56"
       height="56"
       x="292"
       y="145"
       ry="12" />
    <rect
       style="opacity:0.2;fill:#000000;fill-opacity:1"
       id="rect1261"
       width="42"
       height="42"
       x="291"
       y="224"
       ry="9" />
    <rect
       style="opacity:0.2;fill:#000000;fill-opacity:1"
       id="rect1364"
       width="28"
       height="29"
       x="418"
       y="54"
       ry="6" />
    <rect
       style="opacity:0.2;fill:#000000;fill-opacity:1"
       id="rect1398"
       width="16"
       height="16"
       x="416"
       y="141"
       ry="4" />
    <rect
       style="opacity:0.2;fill:#000000;fill-opacity:1"
       id="rect1432"
       width="20"
       height="20"
       x="418"
       y="103"
       ry="4" />
  </g>
  <g
     id="Background">
    <path
       id="rect597"
       style="fill:#e4e4e4;fill-opacity:1"
       d="m 112,44 4,124 68,100 h 24 c 26.59197,0 48,-21.40803 48,-48 V 92 C 256,65.408027 234.59197,44 208,44 Z"
       sodipodi:nodetypes="cccssssc" />
    <path
       id="rect771"
       style="opacity:1;fill:#e4e4e4;fill-opacity:1"
       d="M 324,34 328,81.000015 351,118 h 9 c 9.97199,0 18,-8.02801 18,-18 V 52 c 0,-9.97199 -8.02801,-18 -18,-18 z"
       sodipodi:nodetypes="cccssssc" />
    <path
       id="rect1133"
       style="opacity:1;fill:#e4e4e4;fill-opacity:1"
       d="m 312,144 -1,30 19,26 h 6 c 6.64799,0 12,-5.35201 12,-12 v -32 c 0,-6.64799 -5.35201,-12 -12,-12 z"
       sodipodi:nodetypes="cccssssc" />
    <path
       id="rect1263"
       style="opacity:1;fill:#e4e4e4;fill-opacity:1"
       d="m 306,223 2.75,25 10.75,17 h 4.5 c 4.986,0 9,-4.014 9,-9 v -24 c 0,-4.986 -4.014,-9 -9,-9 z"
       sodipodi:nodetypes="cccssssc" />
    <path
       id="rect1366"
       style="opacity:1;fill:#e4e4e4;fill-opacity:1"
       d="M 428,54 430,69.386546 437,82 h 3 c 3.324,0 6,-2.676003 6,-6 V 60 c 0,-3.323997 -2.676,-6 -6,-6 z"
       sodipodi:nodetypes="cccssssc" />
    <path
       id="rect1400"
       style="opacity:1;fill:#e4e4e4;fill-opacity:1"
       d="m 422,140 -0.69375,9 5.69375,7 h 1 c 2.216,0 4,-1.784 4,-4 v -8 c 0,-2.216 -1.784,-4 -4,-4 z"
       sodipodi:nodetypes="cccssssc" />
    <path
       id="rect1434"
       style="opacity:1;fill:#e4e4e4;fill-opacity:1"
       d="m 426,102 1.5,10 4.5,10 h 2 c 2.216,0 4,-1.784 4,-4 v -12 c 0,-2.216 -1.784,-4 -4,-4 z"
       sodipodi:nodetypes="cccssssc" />
  </g>
  <g
     id="g1137">
    <g
       id="g1483">
      <path
         d="m 427,145 v 1 h -2.52539 v 1 h 0.35547 0.16992 2 0.45508 1.2168 c -0.22443,0.77912 -0.72116,1.2817 -1.20508,1.85352 -0.32114,-0.37467 -0.51913,-0.65118 -0.64453,-0.85352 h -0.90821 c 0.16729,0.29718 0.47493,0.75059 1.04102,1.4043 -0.391,0.39388 -1.62717,1.41073 -1.62717,1.41073 l 0.31071,0.82856 c 0,0 1.3168,-1.1185 1.83404,-1.65922 0.51898,0.55454 1.18854,1.22096 2.05468,2.01563 l 0.5625,-0.55469 c -0.92751,-0.82922 -1.60577,-1.487 -2.10546,-2.01562 0.66977,-0.78085 1.34841,-1.52964 1.49218,-2.42969 H 431 v -1 h -3 v -1 z"
         style="fill:#5a717f"
         id="path1485"
         sodipodi:nodetypes="ccccccccccccccccccccccccc" />
      <path
         id="rect1475"
         style="opacity:1;fill:#4285f4;fill-opacity:1;stroke-width:5;stroke-linecap:round;stroke-linejoin:round"
         d="m 416,140 h 6 l 5,16 h -11 z"
         sodipodi:nodetypes="ccccc"
         mask="url(#mask1749)" />
      <path
         d="m 421.90216,151 -0.37682,-1 h -2.05068 l -0.37682,1 H 418 l 1.82609,-5 h 1.34058 L 423,151 Z M 421.30625,149 420.5,146.77406 419.70833,149 Z"
         style="font-size:40px;line-height:1.25;fill:#ffffff;stroke-width:1"
         id="path1513" />
    </g>
    <g
       id="g1478">
      <path
         d="m 431.00025,109.5 v 1 H 428.594 v 1.00098 h 0.40625 V 111.5 h 3 v 0.001 h 1.39062 c -0.25648,0.89043 -0.8239,1.74982 -1.37695,2.40332 -0.69394,-0.8096 -0.89482,-1.22674 -0.95508,-1.40432 h -1.01953 c 0.0749,0.22885 0.35452,0.83884 1.38965,2.03418 -0.44685,0.45015 -1.4856,1.2687 -1.4856,1.2687 l 0.3325,0.94999 c 0,0 1.1528,-0.93861 1.74392,-1.55658 0.59313,0.63376 1.35875,1.39552 2.34863,2.30371 l 0.64356,-0.63378 c -1.06002,-0.94768 -1.83712,-1.69957 -2.40821,-2.30372 0.76546,-0.89239 1.54272,-2.03484 1.70704,-3.06347 h 1.6882 v 0.002 h 0.002 v -1.00093 h -4.00075 v -1 z"
         style="opacity:0.2;fill:#000000"
         id="path704"
         sodipodi:nodetypes="ccccccccccccccccccccccccccc" />
      <path
         d="m 431.00025,109 v 1 H 428.594 v 1.00098 h 0.40625 V 111 h 3 v 0.001 h 1.39062 c -0.25648,0.89043 -0.8239,1.74982 -1.37695,2.40332 -0.69394,-0.8096 -0.89482,-1.22674 -0.95508,-1.40432 h -1.01953 c 0.0749,0.22885 0.35452,0.83884 1.38965,2.03418 -0.44685,0.45015 -1.4856,1.2687 -1.4856,1.2687 l 0.3325,0.94999 c 0,0 1.1528,-0.93861 1.74392,-1.55658 0.59313,0.63376 1.35875,1.39552 2.34863,2.30371 l 0.64356,-0.63378 c -1.06002,-0.94768 -1.83712,-1.69957 -2.40821,-2.30372 0.76546,-0.89239 1.54272,-2.03484 1.70704,-3.06347 h 1.6882 v 0.002 h 0.002 v -1.00093 h -4.00075 v -1 z"
         style="fill:#5a717f"
         id="path369"
         sodipodi:nodetypes="ccccccccccccccccccccccccccc" />
      <rect
         style="opacity:1;fill:#4285f4;fill-opacity:1;stroke-width:5;stroke-linecap:round;stroke-linejoin:round"
         id="rect2019"
         width="20"
         height="20"
         x="418"
         y="102"
         ry="4"
         mask="url(#mask1140)" />
      <path
         d="m 425.68259,115.5 -0.65213,-2 h -2.06067 l -0.65238,2 H 421 l 2.1913,-6 H 424.8 l 2.2,6 z m -0.91505,-3 L 424,110.42887 423.25021,112.5 Z"
         style="fill:#000000;stroke-width:1;opacity:0.2"
         id="path676" />
      <path
         d="m 425.68259,115 -0.65213,-2 h -2.06067 l -0.65238,2 H 421 l 2.1913,-6 H 424.8 l 2.2,6 z M 424.76754,112 424,109.92887 423.25021,112 Z"
         style="fill:#ffffff;stroke-width:1"
         id="path397"
         sodipodi:nodetypes="ccccccccccccc" />
    </g>
    <g
       id="g1455">
      <path
         d="m 436.5,63.000067 v 1.499996 h -3.569 v 1.501461 h 0.60937 v -0.0015 h 4.49999 v 0.0015 h 2.08593 c -0.38473,1.335634 -1.23585,2.624717 -2.06542,3.604971 -1.04092,-1.2144 -1.34223,-1.840115 -1.43261,-2.106475 h -1.5293 c 0.11238,0.343268 0.53177,1.258247 2.08447,3.051261 -0.67027,0.67522 -3.26705,2.867768 -3.26705,2.867768 l 0.46875,1.445798 c 0,0 2.79784,-2.393458 3.68453,-3.320405 0.88968,0.950639 2.03812,2.093272 3.52294,3.455558 l 0.96533,-0.950681 c -1.59002,-1.421516 -2.75567,-2.54934 -3.6123,-3.455557 1.14818,-1.338594 2.31407,-3.052265 2.56054,-4.595203 h 2.49238 v 0.0029 h 0.003 V 64.499996 H 438.0001 V 63 Z"
         style="opacity:0.2;fill:#000000"
         id="path1402"
         sodipodi:nodetypes="ccccccccccccccccccccccccccc" />
      <path
         d="m 436.5,62.000066 v 1.499996 h -3.569 v 1.501461 h 0.60937 v -0.0015 h 4.49999 v 0.0015 h 2.08593 c -0.38473,1.335634 -1.23585,2.624717 -2.06542,3.604971 -1.04092,-1.2144 -1.34223,-1.840115 -1.43261,-2.106475 h -1.5293 c 0.11238,0.343268 0.53177,1.258247 2.08447,3.051261 -0.67027,0.67522 -3.26705,2.867768 -3.26705,2.867768 l 0.46875,1.445798 c 0,0 2.79784,-2.393458 3.68453,-3.320405 0.88968,0.950639 2.03812,2.093272 3.52294,3.455558 l 0.96533,-0.950681 c -1.59002,-1.421516 -2.75567,-2.54934 -3.6123,-3.455557 1.14818,-1.338594 2.31407,-3.052265 2.56054,-4.595203 h 2.49238 v 0.0029 h 0.003 v -1.501463 h -6.00145 v -1.499996 z"
         style="fill:#5a717f"
         id="path1328"
         sodipodi:nodetypes="ccccccccccccccccccccccccccc" />
      <rect
         style="opacity:1;fill:#4285f4;fill-opacity:1;stroke-width:5;stroke-linecap:round;stroke-linejoin:round"
         id="rect1381"
         width="28"
         height="28"
         x="418"
         y="54"
         ry="6"
         mask="url(#mask1615)" />
      <path
         d="m 428.02388,73 -0.67826,-2.000003 h -3.69124 L 422.97612,73 H 421 l 3.28696,-9 H 426.7 l 3.3,9 z m -1.07263,-3.500003 -1.45125,-4.106693 -1.425,4.106693 z"
         style="fill:#000000;stroke-width:0.999998;opacity:0.2"
         id="path1430" />
      <path
         d="m 428.02388,72 -0.67826,-2.000003 h -3.69124 L 422.97612,72 H 421 l 3.28696,-9 H 426.7 l 3.3,9 z m -1.07263,-3.500003 -1.45125,-4.106693 -1.425,4.106693 z"
         style="fill:#ffffff;stroke-width:0.999998"
         id="path1300"
         sodipodi:nodetypes="ccccccccccccc" />
    </g>
    <g
       id="g1855">
      <path
         d="m 318.75,236.00009 v 2.49988 h -6 v 2.00231 h 1.56056 v -0.002 h 6.74998 v 0.002 h 3.12889 c -0.57709,2.00346 -1.85377,3.93708 -3.09813,5.40746 -1.56138,-1.8216 -2.01334,-2.76017 -2.14891,-3.15971 h -2.29395 c 0.16857,0.5149 0.79765,1.88736 3.1267,4.57689 -1.0054,1.01283 -4.97593,4.0672 -4.97593,4.0672 l 0.70312,2.1687 c 0,0 4.27212,-3.35574 5.60216,-4.74616 1.33452,1.42596 3.05718,3.13991 5.28441,5.18334 l 1.44799,-1.42602 c -2.38503,-2.13227 -4.1335,-3.82401 -5.41845,-5.18334 1.72227,-2.00789 3.47111,-4.5784 3.84081,-6.8928 h 3.73857 v 0.005 h 0.005 v -2.00232 h -9.00217 V 236 Z"
         style="opacity:0.2;fill:#000000;stroke-width:1.5"
         id="path1402-5-6-3"
         sodipodi:nodetypes="ccccccccccccccccccccccccccc" />
      <path
         d="m 318.75,235.0001 v 2.49987 h -6 v 2.00232 h 1.56056 v -0.002 h 6.74998 v 0.002 h 3.12889 c -0.57709,2.00344 -1.85377,3.93707 -3.09813,5.40745 -1.56138,-1.8216 -2.01334,-2.76017 -2.14891,-3.15971 h -2.29395 c 0.16857,0.5149 0.79765,1.88737 3.1267,4.57689 -1.0054,1.01283 -4.97593,4.0672 -4.97593,4.0672 l 0.70312,2.1687 c 0,0 4.27212,-3.35574 5.60216,-4.74616 1.33452,1.42596 3.05718,3.13991 5.28441,5.18334 l 1.44799,-1.42602 c -2.38503,-2.13228 -4.1335,-3.82401 -5.41845,-5.18334 1.72227,-2.00789 3.47111,-4.5784 3.84081,-6.8928 h 3.73857 v 0.005 h 0.005 v -2.00231 h -9.00217 V 235 Z"
         style="fill:#5a717f;stroke-width:1.5"
         id="path1328-3-1-7"
         sodipodi:nodetypes="ccccccccccccccccccccccccccc" />
      <rect
         style="fill:#4285f4;fill-opacity:1;stroke-width:5;stroke-linecap:round;stroke-linejoin:round"
         id="rect1381-5-8-5"
         width="28"
         height="28"
         x="418"
         y="54"
         ry="6"
         mask="url(#mask1553-0-2)"
         transform="matrix(1.5,0,0,1.5,-336,142)" />
      <path
         d="m 305.92604,252 -1.05508,-3.11112 h -5.74193 L 298.07396,252 H 295 l 5.11305,-14 h 3.75361 L 309,252 Z m -1.66855,-5.44445 -2.25749,-6.38818 -2.21667,6.38818 z"
         style="opacity:0.2;fill:#000000;stroke-width:1.55555"
         id="path1430-6-7-9" />
      <path
         d="m 305.92604,251 -1.05508,-3.11111 h -5.74193 L 298.07396,251 H 295 l 5.11305,-14 h 3.75361 L 309,251 Z m -1.66855,-5.44445 -2.25749,-6.38818 -2.21667,6.38818 z"
         style="fill:#ffffff;stroke-width:1.55555"
         id="path1300-2-9-2"
         sodipodi:nodetypes="ccccccccccccc" />
    </g>
    <g
       id="g1642">
      <path
         d="m 329,161.08013 v 3 h -8 v 3.00292 h 2.08074 v -0.003 h 8.99998 v 0.003 h 4.17186 c -0.76946,2.67127 -2.4717,5.24943 -4.13084,7.20994 -2.08184,-2.4288 -2.68446,-3.68023 -2.86522,-4.21295 h -3.0586 c 0.22476,0.68654 1.06354,2.51649 4.16894,6.10252 -1.34054,1.35044 -6.63458,5.42294 -6.63458,5.42294 l 0.9375,2.8916 c 0,0 5.69616,-4.47432 7.46954,-6.32822 1.77936,1.90128 4.07624,4.18655 7.04588,6.91112 l 1.93066,-1.90136 c -3.18004,-2.84303 -5.51134,-5.09868 -7.2246,-6.91112 2.29636,-2.67718 4.62814,-6.10453 5.12108,-9.1904 h 4.98476 v 0.006 h 0.006 v -3.00293 H 332.0002 V 161.08 Z"
         style="opacity:0.2;fill:#000000;stroke-width:2"
         id="path1402-5"
         sodipodi:nodetypes="ccccccccccccccccccccccccccc" />
      <path
         d="m 329,160.00013 v 2.99999 h -8 v 3.00293 h 2.08074 v -0.003 h 8.99998 v 0.003 h 4.17186 c -0.76946,2.67126 -2.4717,5.24943 -4.13084,7.20994 -2.08184,-2.4288 -2.68446,-3.68023 -2.86522,-4.21295 h -3.0586 c 0.22476,0.68653 1.06354,2.51649 4.16894,6.10252 -1.34054,1.35044 -6.63458,5.42294 -6.63458,5.42294 l 0.9375,2.8916 c 0,0 5.69616,-4.47432 7.46954,-6.32822 1.77936,1.90128 4.07624,4.18655 7.04588,6.91112 l 1.93066,-1.90136 c -3.18004,-2.84304 -5.51134,-5.09868 -7.2246,-6.91112 2.29636,-2.67719 4.62814,-6.10453 5.12108,-9.1904 h 4.98476 v 0.006 h 0.006 v -3.00293 H 332.0002 V 160 Z"
         style="fill:#5a717f;stroke-width:2"
         id="path1328-3"
         sodipodi:nodetypes="ccccccccccccccccccccccccccc" />
      <rect
         style="fill:#4285f4;fill-opacity:1;stroke-width:5;stroke-linecap:round;stroke-linejoin:round"
         id="rect1381-5"
         width="28"
         height="28"
         x="418"
         y="54"
         ry="6"
         mask="url(#mask1553)"
         transform="matrix(2,0,0,2,-544,36)" />
      <path
         d="m 312.04776,182 -1.35652,-4.00001 h -7.38248 L 301.95224,182 H 298 l 6.57392,-18 H 309.4 l 6.6,18 z m -2.14526,-7.00001 -2.9025,-8.21338 -2.85,8.21338 z"
         style="opacity:0.2;fill:#000000;stroke-width:2"
         id="path1430-6" />
      <path
         d="m 312.04776,181 -1.35652,-4.00001 h -7.38248 L 301.95224,181 H 298 l 6.57392,-18 H 309.4 l 6.6,18 z m -2.14526,-7.00001 -2.9025,-8.21338 -2.85,8.21338 z"
         style="fill:#ffffff;stroke-width:2"
         id="path1300-2"
         sodipodi:nodetypes="ccccccccccccc" />
    </g>
    <g
       id="g1843">
      <path
         d="m 349.5,59.0002 v 4.999755 h -12 v 4.004625 h 3.12111 v -0.0045 h 13.49997 v 0.0045 h 6.25779 c -1.15419,4.006905 -3.70755,7.874145 -6.19626,10.81491 -3.12276,-3.6432 -4.02669,-5.520345 -4.29783,-6.319425 h -4.5879 c 0.33714,1.02981 1.59531,3.774735 6.25341,9.15378 -2.01081,2.02566 -9.95187,8.13441 -9.95187,8.13441 l 1.40625,4.3374 c 0,0 8.54424,-6.71148 11.20431,-9.49233 2.66904,2.85192 6.11436,6.279825 10.56882,10.36668 l 2.89599,-2.85204 c -4.77006,-4.264545 -8.26701,-7.64802 -10.8369,-10.36668 3.44454,-4.01577 6.94221,-9.156795 7.68162,-13.7856 h 7.47714 v 0.009 h 0.009 v -4.00464 H 354.0003 v -5.00004 z"
         style="opacity:0.2;fill:#000000;stroke-width:3"
         id="path1402-5-6"
         sodipodi:nodetypes="ccccccccccccccccccccccccccc" />
      <path
         d="m 349.5,58.000195 v 4.999755 h -12 v 4.004625 h 3.12111 v -0.0045 h 13.49997 v 0.0045 h 6.25779 c -1.15419,4.00689 -3.70755,7.874145 -6.19626,10.81491 -3.12276,-3.6432 -4.02669,-5.520345 -4.29783,-6.319425 h -4.5879 c 0.33714,1.029795 1.59531,3.774735 6.25341,9.15378 -2.01081,2.02566 -9.95187,8.13441 -9.95187,8.13441 l 1.40625,4.3374 c 0,0 8.54424,-6.71148 11.20431,-9.49233 2.66904,2.85192 6.11436,6.279825 10.56882,10.36668 l 2.89599,-2.85204 c -4.77006,-4.26456 -8.26701,-7.64802 -10.8369,-10.36668 3.44454,-4.015785 6.94221,-9.156795 7.68162,-13.7856 h 7.47714 v 0.009 h 0.009 V 63.000055 H 354.0003 V 58 Z"
         style="fill:#5a717f;stroke-width:3"
         id="path1328-3-1"
         sodipodi:nodetypes="ccccccccccccccccccccccccccc" />
      <rect
         style="fill:#4285f4;fill-opacity:1;stroke-width:5;stroke-linecap:round;stroke-linejoin:round"
         id="rect1381-5-8"
         width="28"
         height="28"
         x="418"
         y="54"
         ry="6"
         mask="url(#mask1553-0)"
         transform="matrix(3,0,0,3,-960,-128)" />
      <path
         d="m 323.85207,91.000015 -2.11014,-6.22224 h -11.48387 l -2.11014,6.22224 H 302 L 312.22609,63.00001 h 7.50724 L 330,91.000015 Z m -3.33708,-10.888905 -4.515,-12.77637 -4.43332,12.77637 z"
         style="opacity:0.2;fill:#000000;stroke-width:3.1111"
         id="path1430-6-7" />
      <path
         d="m 323.85207,90.00001 -2.11014,-6.22224 h -11.48387 l -2.11014,6.22224 H 302 l 10.22609,-28.000005 h 7.50724 L 330,90.00001 Z m -3.33708,-10.888905 -4.515,-12.77637 -4.43332,12.77637 z"
         style="fill:#ffffff;stroke-width:3.1111"
         id="path1300-2-9"
         sodipodi:nodetypes="ccccccccccccc" />
    </g>
    <g
       id="g1725">
      <path
         d="m 180,110.32052 v 12 h -32 v 12.01168 h 8.32296 v -0.012 h 35.99992 v 0.012 h 16.68744 c -3.07784,10.68508 -9.8868,20.99772 -16.52336,28.83976 -8.32736,-9.7152 -10.73784,-14.72092 -11.46088,-16.8518 h -12.2344 c 0.89904,2.74616 4.25416,10.06596 16.67576,24.41008 -5.36216,5.40176 -26.53832,21.69176 -26.53832,21.69176 l 3.75,11.5664 c 0,0 22.78464,-17.89728 29.87816,-25.31288 7.11744,7.60512 16.30496,16.7462 28.18352,27.64448 l 7.72264,-7.60544 c -12.72016,-11.37212 -22.04536,-20.39472 -28.8984,-27.64448 9.18544,-10.70872 18.51256,-24.41812 20.48432,-36.7616 h 19.93904 v 0.024 h 0.024 V 122.32076 H 192.0008 V 110.32 Z"
         style="opacity:0.2;fill:#000000;stroke-width:8"
         id="path1402-5-7"
         sodipodi:nodetypes="ccccccccccccccccccccccccccc" />
      <path
         d="m 180,108.00052 v 11.99996 h -32 v 12.01172 h 8.32296 v -0.012 h 35.99992 v 0.012 h 16.68744 c -3.07784,10.68504 -9.8868,20.99772 -16.52336,28.83976 -8.32736,-9.7152 -10.73784,-14.72092 -11.46088,-16.8518 h -12.2344 c 0.89904,2.74612 4.25416,10.06596 16.67576,24.41008 -5.36216,5.40176 -26.53832,21.69176 -26.53832,21.69176 l 3.75,11.5664 c 0,0 22.78464,-17.89728 29.87816,-25.31288 7.11744,7.60512 16.30496,16.7462 28.18352,27.64448 l 7.72264,-7.60544 c -12.72016,-11.37216 -22.04536,-20.39472 -28.8984,-27.64448 9.18544,-10.70876 18.51256,-24.41812 20.48432,-36.7616 h 19.93904 v 0.024 h 0.024 V 120.00076 H 192.0008 V 108 Z"
         style="fill:#5a717f;stroke-width:8"
         id="path1328-3-0"
         sodipodi:nodetypes="ccccccccccccccccccccccccccc" />
      <rect
         style="fill:#4285f4;fill-opacity:1;stroke-width:5;stroke-linecap:round;stroke-linejoin:round"
         id="rect1381-5-9"
         width="28"
         height="28"
         x="418"
         y="54"
         ry="6"
         mask="url(#mask1553-9)"
         transform="matrix(8,0,0,8,-3312,-388)" />
      <path
         d="m 112.19104,194 -5.42608,-16.00004 H 77.23504 L 71.80896,194 H 56 L 82.29568,122 H 101.6 L 128,194 Z M 103.61,165.99996 92,133.14644 80.6,165.99996 Z"
         style="opacity:0.2;fill:#000000;stroke-width:8"
         id="path1430-6-3" />
      <path
         d="m 112.19104,192 -5.42608,-16.00004 H 77.23504 L 71.80896,192 H 56 L 82.29568,120 H 101.6 L 128,192 Z M 103.61,163.99996 92,131.14644 80.6,163.99996 Z"
         style="fill:#ffffff;stroke-width:8"
         id="path1300-2-6"
         sodipodi:nodetypes="ccccccccccccc" />
    </g>
  </g>
  <g
     id="Highlights">
    <path
       id="rect653"
       style="opacity:0.2;fill:#ffffff"
       d="M 80,44 C 53.408027,44 32,65.408027 32,92 v 2 C 32,67.408027 53.408027,46 80,46 h 128 c 26.59197,0 48,21.408027 48,48 V 92 C 256,65.408027 234.59197,44 208,44 Z"
       sodipodi:nodetypes="sscsscsss" />
    <path
       id="rect773"
       style="opacity:0.2;fill:#ffffff"
       d="m 312,34 c -9.97199,0 -18,8.02801 -18,18 v 1 c 0,-9.97199 8.02801,-18 18,-18 h 48 c 9.97199,0 18,8.02801 18,18 v -1 c 0,-9.97199 -8.02801,-18 -18,-18 z" />
    <path
       id="rect1135"
       style="opacity:0.2;fill:#ffffff;fill-opacity:1"
       d="m 304,144 c -6.64799,0 -12,5.35201 -12,12 v 1 c 0,-6.64799 5.35201,-12 12,-12 h 32 c 6.64799,0 12,5.35201 12,12 v -1 c 0,-6.64799 -5.35201,-12 -12,-12 z" />
    <path
       id="rect1265"
       style="opacity:0.2;fill:#ffffff;fill-opacity:1"
       d="m 300,223 c -4.986,0 -9,4.014 -9,9 v 1 c 0,-4.986 4.014,-9 9,-9 h 24 c 4.986,0 9,4.014 9,9 v -1 c 0,-4.986 -4.014,-9 -9,-9 z" />
    <path
       id="rect1368"
       style="opacity:0.2;fill:#ffffff;fill-opacity:1"
       d="m 424,54 c -3.324,0 -6,2.676003 -6,6 v 1 c 0,-3.323997 2.676,-6 6,-6 h 16 c 3.324,0 6,2.676003 6,6 v -1 c 0,-3.323997 -2.676,-6 -6,-6 z" />
    <path
       id="rect1402"
       style="opacity:0.2;fill:#ffffff;fill-opacity:1"
       d="m 420,140 c -2.216,0 -4,1.784 -4,4 v 1 c 0,-2.216 1.784,-4 4,-4 h 8 c 2.216,0 4,1.784 4,4 v -1 c 0,-2.216 -1.784,-4 -4,-4 z" />
    <path
       id="rect1436"
       style="opacity:0.2;fill:#ffffff;fill-opacity:1"
       d="m 422,102 c -2.216,0 -4,1.784 -4,4 v 1 c 0,-2.216 1.784,-4 4,-4 h 12 c 2.216,0 4,1.784 4,4 v -1 c 0,-2.216 -1.784,-4 -4,-4 z" />
  </g>
</svg>
