<?xml version="1.0" encoding="UTF-8" standalone="no"?>
<!-- Created with Inkscape (http://www.inkscape.org/) -->

<svg
   width="480"
   height="300"
   viewBox="0 0 480 300"
   version="1.1"
   id="svg5"
   inkscape:version="1.2.2 (1:1.2.2+202305151914+b0a8486541)"
   sodipodi:docname="meld.svg"
   xmlns:inkscape="http://www.inkscape.org/namespaces/inkscape"
   xmlns:sodipodi="http://sodipodi.sourceforge.net/DTD/sodipodi-0.dtd"
   xmlns="http://www.w3.org/2000/svg"
   xmlns:svg="http://www.w3.org/2000/svg">
  <sodipodi:namedview
     id="namedview7"
     pagecolor="#888888"
     bordercolor="#000000"
     borderopacity="0.25"
     inkscape:showpageshadow="true"
     inkscape:pageopacity="0"
     inkscape:pagecheckerboard="0"
     inkscape:deskcolor="#888888"
     inkscape:document-units="px"
     showgrid="false"
     showborder="false"
     inkscape:zoom="2.6866667"
     inkscape:cx="240.07444"
     inkscape:cy="150"
     inkscape:window-width="1920"
     inkscape:window-height="1008"
     inkscape:window-x="0"
     inkscape:window-y="0"
     inkscape:window-maximized="1"
     inkscape:current-layer="svg5" />
  <defs
     id="defs2">
    <mask
       maskUnits="userSpaceOnUse"
       id="mask1778">
      <rect
         style="opacity:1;fill:#f9f9f9;fill-opacity:1;stroke-width:2;stroke-linecap:square"
         id="rect1780"
         width="56"
         height="56"
         x="292"
         y="144"
         ry="12" />
    </mask>
    <mask
       maskUnits="userSpaceOnUse"
       id="mask1991">
      <rect
         style="opacity:1;fill:#ffffff;fill-opacity:1;stroke-width:2;stroke-linecap:square"
         id="rect1993"
         width="56"
         height="56"
         x="292"
         y="144"
         ry="12" />
    </mask>
    <mask
       maskUnits="userSpaceOnUse"
       id="mask1997">
      <rect
         style="opacity:1;fill:#ffffff;fill-opacity:1;stroke-width:2;stroke-linecap:square"
         id="rect1999"
         width="56"
         height="56"
         x="292"
         y="144"
         ry="12" />
    </mask>
    <mask
       maskUnits="userSpaceOnUse"
       id="mask2331">
      <rect
         style="opacity:1;fill:#ffffff;fill-opacity:1;stroke-width:2;stroke-linecap:square"
         id="rect2333"
         width="56"
         height="56"
         x="292"
         y="144"
         ry="12" />
    </mask>
    <mask
       maskUnits="userSpaceOnUse"
       id="mask597">
      <rect
         style="opacity:1;fill:#ffffff;stroke-width:2;stroke-linecap:square"
         id="rect599"
         width="16"
         height="16"
         x="416"
         y="140"
         ry="4" />
    </mask>
    <mask
       maskUnits="userSpaceOnUse"
       id="mask656">
      <rect
         style="opacity:1;fill:#ffffff;stroke-width:2;stroke-linecap:square"
         id="rect658"
         width="16"
         height="16"
         x="416"
         y="140"
         ry="4" />
    </mask>
    <mask
       maskUnits="userSpaceOnUse"
       id="mask1393">
      <rect
         style="opacity:1;fill:#ffffff;fill-opacity:1;stroke-width:2;stroke-linecap:square"
         id="rect1395"
         width="20"
         height="20"
         x="418"
         y="102"
         ry="4" />
    </mask>
    <mask
       maskUnits="userSpaceOnUse"
       id="mask1399">
      <rect
         style="opacity:1;fill:#ffffff;fill-opacity:1;stroke-width:2;stroke-linecap:square"
         id="rect1401"
         width="20"
         height="20"
         x="418"
         y="102"
         ry="4" />
    </mask>
    <mask
       maskUnits="userSpaceOnUse"
       id="mask2150">
      <rect
         style="opacity:1;fill:#ffffff;fill-opacity:1;stroke-width:2;stroke-linecap:square"
         id="rect2152"
         width="28"
         height="28"
         x="418"
         y="54"
         ry="6" />
    </mask>
    <mask
       maskUnits="userSpaceOnUse"
       id="mask2154">
      <rect
         style="opacity:1;fill:#ffffff;fill-opacity:1;stroke-width:2;stroke-linecap:square"
         id="rect2156"
         width="28"
         height="28"
         x="418"
         y="54"
         ry="6" />
    </mask>
    <mask
       maskUnits="userSpaceOnUse"
       id="mask2192">
      <rect
         style="opacity:1;fill:#ffffff;fill-opacity:1;stroke-width:2;stroke-linecap:square"
         id="rect2194"
         width="42"
         height="42"
         x="291"
         y="223"
         ry="9" />
    </mask>
    <mask
       maskUnits="userSpaceOnUse"
       id="mask2227">
      <rect
         style="opacity:1;fill:#ffffff;fill-opacity:1;stroke-width:2;stroke-linecap:square"
         id="rect2229"
         width="42"
         height="42"
         x="291"
         y="223"
         ry="9" />
    </mask>
    <mask
       maskUnits="userSpaceOnUse"
       id="mask2293">
      <rect
         style="opacity:1;fill:#ffffff;fill-opacity:1;stroke-width:2;stroke-linecap:square"
         id="rect2295"
         width="42"
         height="42"
         x="291"
         y="223"
         ry="9" />
    </mask>
    <mask
       maskUnits="userSpaceOnUse"
       id="mask2299">
      <rect
         style="opacity:1;fill:#ffffff;fill-opacity:1;stroke-width:2;stroke-linecap:square"
         id="rect2301"
         width="42"
         height="42"
         x="291"
         y="223"
         ry="9" />
    </mask>
  </defs>
  <g
     id="Baseplate"
     style="display:none">
    <text
       y="19.774782"
       xml:space="preserve"
       x="15.006946"
       style="font-style:normal;font-variant:normal;font-weight:normal;font-stretch:normal;line-height:0%;font-family:'DejaVu Sans';-inkscape-font-specification:'DejaVu Sans';display:inline;fill:#000000;fill-opacity:1;stroke:none;enable-background:new"
       inkscape:label="context"
       id="context"><tspan
         style="font-style:normal;font-variant:normal;font-weight:normal;font-stretch:normal;font-size:18px;line-height:1.25;font-family:'DejaVu Sans';-inkscape-font-specification:'DejaVu Sans'"
         y="19.774782"
         x="15.006946"
         sodipodi:role="line"
         id="tspan3933">apps</tspan></text>
    <text
       y="19.774782"
       xml:space="preserve"
       x="122.48839"
       style="font-style:normal;font-variant:normal;font-weight:bold;font-stretch:normal;line-height:0%;font-family:'DejaVu Sans';-inkscape-font-specification:'DejaVu Sans Bold';text-align:start;writing-mode:lr-tb;text-anchor:start;display:inline;fill:#000000;fill-opacity:1;stroke:none;enable-background:new"
       inkscape:label="icon-name"
       id="icon-name"><tspan
         style="font-style:normal;font-variant:normal;font-weight:bold;font-stretch:normal;font-size:18px;line-height:1.25;font-family:'DejaVu Sans';-inkscape-font-specification:'DejaVu Sans Bold'"
         y="19.774782"
         x="122.48839"
         sodipodi:role="line"
         id="tspan3937">meld</tspan></text>
    <rect
       style="fill:#ffffff"
       id="256x256"
       width="256"
       height="256"
       x="16"
       y="28" />
    <rect
       style="fill:#ffffff"
       id="96x96"
       width="96"
       height="96"
       x="288"
       y="28" />
    <rect
       style="fill:#ffffff"
       id="64x64"
       width="64"
       height="64"
       x="288"
       y="140" />
    <rect
       style="fill:#ffffff"
       id="48x48"
       width="48"
       height="48"
       x="288"
       y="220" />
    <rect
       style="fill:#ffffff"
       id="32x32"
       width="32"
       height="32"
       x="416"
       y="52" />
    <rect
       style="fill:#ffffff"
       id="24x24"
       width="24"
       height="24"
       x="416"
       y="100" />
    <rect
       style="fill:#ffffff"
       id="22x22"
       width="22"
       height="22"
       x="417"
       y="101" />
    <rect
       style="fill:#ffffff"
       id="16x16"
       width="16"
       height="16"
       x="416"
       y="140" />
  </g>
  <g
     id="Shadow">
    <rect
       style="opacity:0.2;fill:#000000"
       id="rect651"
       width="224"
       height="224"
       x="32"
       y="46"
       ry="48" />
    <rect
       style="opacity:0.2;fill:#000000"
       id="rect769"
       width="84"
       height="85"
       x="294"
       y="34"
       ry="18" />
    <rect
       style="opacity:0.2;fill:#000000;fill-opacity:1"
       id="rect1131"
       width="56"
       height="56"
       x="292"
       y="145"
       ry="12" />
    <rect
       style="opacity:0.2;fill:#000000;fill-opacity:1"
       id="rect1261"
       width="42"
       height="42"
       x="291"
       y="224"
       ry="9" />
    <rect
       style="opacity:0.2;fill:#000000;fill-opacity:1"
       id="rect1364"
       width="28"
       height="29"
       x="418"
       y="54"
       ry="6" />
    <rect
       style="opacity:0.2;fill:#000000;fill-opacity:1"
       id="rect1398"
       width="16"
       height="16"
       x="416"
       y="141"
       ry="4" />
    <rect
       style="opacity:0.2;fill:#000000;fill-opacity:1"
       id="rect1432"
       width="20"
       height="20"
       x="418"
       y="103"
       ry="4" />
  </g>
  <g
     id="Background">
    <rect
       style="fill:#3584e4;fill-opacity:1"
       id="rect597"
       width="224"
       height="224"
       x="32"
       y="44"
       ry="48" />
    <rect
       style="opacity:1;fill:#3584e4;fill-opacity:1"
       id="rect771"
       width="84"
       height="84"
       x="294"
       y="34"
       ry="18" />
    <rect
       style="opacity:1;fill:#3584e4;fill-opacity:1"
       id="rect1133"
       width="56"
       height="56"
       x="292"
       y="144"
       ry="12" />
    <rect
       style="opacity:1;fill:#3584e4;fill-opacity:1"
       id="rect1263"
       width="42"
       height="42"
       x="291"
       y="223"
       ry="9" />
    <rect
       style="opacity:1;fill:#3584e4;fill-opacity:1"
       id="rect1366"
       width="28"
       height="28"
       x="418"
       y="54"
       ry="6" />
    <rect
       style="opacity:1;fill:#3584e4;fill-opacity:1"
       id="rect1400"
       width="16"
       height="16"
       x="416"
       y="140"
       ry="4" />
    <rect
       style="opacity:1;fill:#3584e4;fill-opacity:1"
       id="rect1434"
       width="20"
       height="20"
       x="418"
       y="102"
       ry="4" />
  </g>
  <g
     id="g1552">
    <g
       id="g938">
      <path
         d="M 417.24375,141 C 416.5547,141 416,141.54722 416,142.22734 v 6.0875 c 0.37581,0.95064 0.91737,1.83877 1.64922,2.61641 0.8556,0.90914 2.12654,1.66955 3.44219,1.95156 1.31564,0.28202 2.67517,0.0855 3.70937,-0.91719 0.35423,-0.34341 0.65327,-0.85214 0.7586,-1.37343 0.10532,-0.52129 0.0177,-1.05446 -0.4,-1.44922 -0.13257,-0.12529 -0.32846,-0.23179 -0.52735,-0.26719 -0.19766,-0.0352 -0.48819,-0.0322 -0.63203,0.12422 0.16049,0.14394 0.28673,0.3759 0.25078,0.57266 -0.0362,0.19809 -0.1446,0.39378 -0.27266,0.52578 -0.40198,0.41439 -0.94584,0.58087 -1.47578,0.47656 -0.52994,-0.10431 -1.04701,-0.39998 -1.39609,-0.75078 -0.76338,-0.76714 -1.10533,-1.7954 -1.08828,-2.77031 0.006,-0.32498 0.0464,-0.65303 0.11797,-0.97813 0.28611,-1.3004 1.09723,-2.91528 2.01953,-3.76094 0.58889,-0.53995 1.24025,-0.97403 1.93359,-1.31484 z M 424,149 c -0.16049,-0.14394 -0.28673,-0.3759 -0.25078,-0.57266 0.0362,-0.19809 0.1446,-0.39378 0.27266,-0.52578 0.40198,-0.41439 0.94584,-0.58087 1.47578,-0.47656 0.52994,0.10431 1.04701,0.39998 1.39609,0.75078 0.76338,0.76714 1.10533,1.7954 1.08828,2.77031 -0.006,0.32498 -0.0464,0.65303 -0.11797,0.97813 -0.28611,1.3004 -1.09723,2.91528 -2.01953,3.76094 -0.58889,0.53995 -1.24025,0.97403 -1.93359,1.31484 h 6.84531 C 431.4453,157 432,156.45278 432,155.77266 v -6.0875 c -0.37581,-0.95064 -0.91737,-1.83877 -1.64922,-2.61641 -0.8556,-0.90914 -2.12654,-1.66955 -3.44219,-1.95156 -1.31564,-0.28202 -2.67517,-0.0855 -3.70937,0.91719 -0.35423,0.34341 -0.65327,0.85214 -0.7586,1.37343 -0.10532,0.52129 -0.0177,1.05446 0.4,1.44922 0.13257,0.12529 0.32846,0.23179 0.52735,0.26719 0.19766,0.0352 0.48819,0.0322 0.63203,-0.12422 z"
         style="fill:#000000;opacity:0.2"
         id="path471"
         mask="url(#mask597)" />
      <path
         d="M 417.24375,140 C 416.5547,140 416,140.54722 416,141.22734 v 6.0875 c 0.37581,0.95064 0.91737,1.83877 1.64922,2.61641 0.8556,0.90914 2.12654,1.66955 3.44219,1.95156 1.31564,0.28202 2.67517,0.0855 3.70937,-0.91719 0.35423,-0.34341 0.65327,-0.85214 0.7586,-1.37343 0.10532,-0.52129 0.0177,-1.05446 -0.4,-1.44922 -0.13257,-0.12529 -0.32846,-0.23179 -0.52735,-0.26719 -0.19766,-0.0352 -0.48819,-0.0322 -0.63203,0.12422 0.16049,0.14394 0.28673,0.3759 0.25078,0.57266 -0.0362,0.19809 -0.1446,0.39378 -0.27266,0.52578 -0.40198,0.41439 -0.94584,0.58087 -1.47578,0.47656 -0.52994,-0.10431 -1.04701,-0.39998 -1.39609,-0.75078 -0.76338,-0.76714 -1.10533,-1.7954 -1.08828,-2.77031 0.006,-0.32498 0.0464,-0.65303 0.11797,-0.97813 0.28611,-1.3004 1.09723,-2.91528 2.01953,-3.76094 0.58889,-0.53995 1.24025,-0.97403 1.93359,-1.31484 z M 424,148 c -0.16049,-0.14394 -0.28673,-0.3759 -0.25078,-0.57266 0.0362,-0.19809 0.1446,-0.39378 0.27266,-0.52578 0.40198,-0.41439 0.94584,-0.58087 1.47578,-0.47656 0.52994,0.10431 1.04701,0.39998 1.39609,0.75078 0.76338,0.76714 1.10533,1.7954 1.08828,2.77031 -0.006,0.32498 -0.0464,0.65303 -0.11797,0.97813 -0.28611,1.3004 -1.09723,2.91528 -2.01953,3.76094 -0.58889,0.53995 -1.24025,0.97403 -1.93359,1.31484 h 6.84531 C 431.4453,156 432,155.45278 432,154.77266 v -6.0875 c -0.37581,-0.95064 -0.91737,-1.83877 -1.64922,-2.61641 -0.8556,-0.90914 -2.12654,-1.66955 -3.44219,-1.95156 -1.31564,-0.28202 -2.67517,-0.0855 -3.70937,0.91719 -0.35423,0.34341 -0.65327,0.85214 -0.7586,1.37343 -0.10532,0.52129 -0.0177,1.05446 0.4,1.44922 0.13257,0.12529 0.32846,0.23179 0.52735,0.26719 0.19766,0.0352 0.48819,0.0322 0.63203,-0.12422 z"
         style="fill:#fa9535;fill-opacity:1"
         id="path2470"
         sodipodi:nodetypes="sscsssssscssssccscscssssccscsscssssssc"
         mask="url(#mask656)" />
    </g>
    <g
       id="g2048">
      <path
         d="M 419.55469,103 C 418.69338,103 418,103.68402 418,104.53418 v 7.60938 c 0.46976,1.18828 1.14671,2.29845 2.06152,3.2705 1.06951,1.13643 2.65818,2.08694 4.30274,2.43945 1.64455,0.35252 3.34396,0.10684 4.63672,-1.14648 0.44278,-0.42927 0.81659,-1.06518 0.94824,-1.7168 0.13165,-0.65161 0.0221,-1.31807 -0.5,-1.81152 -0.1657,-0.15661 -0.41057,-0.28973 -0.65918,-0.33398 -0.24708,-0.044 -0.61025,-0.0403 -0.79004,0.15527 0.20061,0.17993 0.35841,0.46987 0.31348,0.71582 -0.0452,0.24762 -0.18076,0.49222 -0.34082,0.65723 -0.50249,0.51798 -1.1823,0.72609 -1.84473,0.5957 -0.66243,-0.13039 -1.30877,-0.49997 -1.74512,-0.93848 -0.95422,-0.95892 -1.38165,-2.24425 -1.36035,-3.46289 0.007,-0.40621 0.058,-0.81628 0.14746,-1.22265 0.35764,-1.62551 1.37154,-3.64411 2.52442,-4.70118 0.73611,-0.67494 1.55032,-1.21753 2.41699,-1.64355 z M 428,113 c -0.20061,-0.17993 -0.35841,-0.46987 -0.31348,-0.71582 0.0452,-0.24762 0.18076,-0.49223 0.34082,-0.65723 0.50249,-0.51798 1.1823,-0.72609 1.84473,-0.5957 0.66243,0.13039 1.30877,0.49997 1.74512,0.93848 0.95422,0.95892 1.38165,2.24425 1.36035,3.46289 -0.007,0.40621 -0.0581,0.81628 -0.14746,1.22265 -0.35764,1.6255 -1.37154,3.64411 -2.52442,4.70117 -0.73611,0.67495 -1.55032,1.21754 -2.41699,1.64356 h 8.55664 C 437.30662,123 438,122.31598 438,121.46582 v -7.60937 c -0.46976,-1.18829 -1.14672,-2.29846 -2.06152,-3.27051 -1.06951,-1.13643 -2.65818,-2.08694 -4.30274,-2.43946 -1.64455,-0.35251 -3.34397,-0.10683 -4.63672,1.14649 -0.44278,0.42927 -0.81659,1.06518 -0.94824,1.7168 -0.13165,0.65161 -0.0221,1.31807 0.5,1.81152 0.1657,0.15661 0.41057,0.28973 0.65918,0.33398 0.24708,0.044 0.61024,0.0403 0.79004,-0.15527 z"
         style="fill:#000000;opacity:0.2"
         id="path1371"
         mask="url(#mask1393)" />
      <path
         d="M 419.55469,102 C 418.69338,102 418,102.68402 418,103.53418 v 7.60938 c 0.46976,1.18828 1.14671,2.29845 2.06152,3.2705 1.06951,1.13643 2.65818,2.08694 4.30274,2.43945 1.64455,0.35252 3.34396,0.10684 4.63672,-1.14648 0.44278,-0.42927 0.81659,-1.06518 0.94824,-1.7168 0.13165,-0.65161 0.0221,-1.31807 -0.5,-1.81152 -0.1657,-0.15661 -0.41057,-0.28973 -0.65918,-0.33398 -0.24708,-0.044 -0.61025,-0.0403 -0.79004,0.15527 0.20061,0.17993 0.35841,0.46987 0.31348,0.71582 -0.0452,0.24762 -0.18076,0.49222 -0.34082,0.65723 -0.50249,0.51798 -1.1823,0.72609 -1.84473,0.5957 -0.66243,-0.13039 -1.30877,-0.49997 -1.74512,-0.93848 -0.95422,-0.95892 -1.38165,-2.24425 -1.36035,-3.46289 0.007,-0.40621 0.058,-0.81628 0.14746,-1.22265 0.35764,-1.62551 1.37154,-3.64411 2.52442,-4.70118 0.73611,-0.67494 1.55032,-1.21753 2.41699,-1.64355 z M 428,112 c -0.20061,-0.17993 -0.35841,-0.46987 -0.31348,-0.71582 0.0452,-0.24762 0.18076,-0.49223 0.34082,-0.65723 0.50249,-0.51798 1.1823,-0.72609 1.84473,-0.5957 0.66243,0.13039 1.30877,0.49997 1.74512,0.93848 0.95422,0.95892 1.38165,2.24425 1.36035,3.46289 -0.007,0.40621 -0.0581,0.81628 -0.14746,1.22265 -0.35764,1.6255 -1.37154,3.64411 -2.52442,4.70117 -0.73611,0.67495 -1.55032,1.21754 -2.41699,1.64356 h 8.55664 C 437.30662,122 438,121.31598 438,120.46582 v -7.60937 c -0.46976,-1.18829 -1.14672,-2.29846 -2.06152,-3.27051 -1.06951,-1.13643 -2.65818,-2.08694 -4.30274,-2.43946 -1.64455,-0.35251 -3.34397,-0.10683 -4.63672,1.14649 -0.44278,0.42927 -0.81659,1.06518 -0.94824,1.7168 -0.13165,0.65161 -0.0221,1.31807 0.5,1.81152 0.1657,0.15661 0.41057,0.28973 0.65918,0.33398 0.24708,0.044 0.61024,0.0403 0.79004,-0.15527 z"
         style="fill:#fa9535;fill-opacity:1"
         id="path1343"
         sodipodi:nodetypes="sscsssssscssssccscscssssccscsscssssssc"
         mask="url(#mask1399)" />
    </g>
    <g
       id="g2160">
      <path
         d="M 420.17578,55 C 418.96994,55 418,55.958215 418,57.148435 V 67.80078 c 0.65767,1.663605 1.60599,3.217255 2.88672,4.578125 1.49731,1.591 3.72106,2.92249 6.02344,3.416015 2.30237,0.493525 4.88155,0.149175 6.6914,-1.605465 0.6199,-0.60098 1.14382,-1.490085 1.32813,-2.402345 0.18431,-0.91226 0.0298,-1.846275 -0.70117,-2.53711 -0.23199,-0.21925 -0.775,-0.404845 -1.12305,-0.466795 C 432.75956,68.721635 432.25171,68.726205 432,69 c 0.28086,0.2519 0.50236,0.657625 0.43946,1.001955 -0.0633,0.34666 -0.25443,0.688915 -0.47852,0.91992 -0.70348,0.72518 -1.65463,1.21575 -2.58203,1.033205 -0.9274,-0.182555 -1.83247,-0.6986 -2.44336,-1.3125 -1.33591,-1.34249 -1.93413,-3.342735 -1.9043,-5.04883 0.01,-0.5687 0.0819,-1.142015 0.20703,-1.71094 0.50069,-2.2757 1.91919,-5.102135 3.53321,-6.58203 1.03056,-0.944915 2.17142,-1.704355 3.38476,-2.30078 z M 432,69 c -0.28085,-0.2519 -0.50235,-0.657625 -0.43945,-1.001955 0.0633,-0.34666 0.25442,-0.688915 0.47851,-0.91992 0.70348,-0.72518 1.65464,-1.21575 2.58203,-1.033205 0.9274,0.182555 1.83248,0.6986 2.44336,1.3125 1.33591,1.34249 1.93413,3.342735 1.9043,5.04883 -0.01,0.5687 -0.0819,1.142015 -0.20703,1.71094 -0.50069,2.2757 -1.91919,5.102135 -3.5332,6.58203 -1.03057,0.944915 -2.17143,1.704355 -3.38477,2.30078 h 11.98047 C 445.03005,83 446,82.041785 446,80.85156 V 70.19922 c -0.65767,-1.663605 -1.60599,-3.217255 -2.88672,-4.578125 -1.49731,-1.591 -3.72106,-2.92249 -6.02344,-3.416015 -2.30237,-0.493525 -4.88155,-0.149175 -6.6914,1.605465 -0.6199,0.60098 -1.14381,1.490085 -1.32813,2.402345 -0.18431,0.91226 -0.0298,1.846275 0.70117,2.53711 0.23198,0.21925 0.775,0.404845 1.12305,0.466795 0.34591,0.06157 0.85375,0.057 1.10547,-0.216795 z"
         style="fill:#000000;fill-opacity:1;stroke-width:0.5;opacity:0.2"
         id="path2074"
         mask="url(#mask2150)" />
      <path
         d="M 420.17578,54 C 418.96994,54 418,54.958215 418,56.148435 V 66.80078 c 0.65767,1.663605 1.60599,3.217255 2.88672,4.578125 1.49731,1.591 3.72106,2.92249 6.02344,3.416015 2.30237,0.493525 4.88155,0.149175 6.6914,-1.605465 0.6199,-0.60098 1.14382,-1.490085 1.32813,-2.402345 0.18431,-0.91226 0.0298,-1.846275 -0.70117,-2.53711 -0.23199,-0.21925 -0.775,-0.404845 -1.12305,-0.466795 C 432.75956,67.721635 432.25171,67.726205 432,68 c 0.28086,0.2519 0.50236,0.657625 0.43946,1.001955 -0.0633,0.34666 -0.25443,0.688915 -0.47852,0.91992 -0.70348,0.72518 -1.65463,1.21575 -2.58203,1.033205 -0.9274,-0.182555 -1.83247,-0.6986 -2.44336,-1.3125 -1.33591,-1.34249 -1.93413,-3.342735 -1.9043,-5.04883 0.01,-0.5687 0.0819,-1.142015 0.20703,-1.71094 0.50069,-2.2757 1.91919,-5.102135 3.53321,-6.58203 1.03056,-0.944915 2.17142,-1.704355 3.38476,-2.30078 z M 432,68 c -0.28085,-0.2519 -0.50235,-0.657625 -0.43945,-1.001955 0.0633,-0.34666 0.25442,-0.688915 0.47851,-0.91992 0.70348,-0.72518 1.65464,-1.21575 2.58203,-1.033205 0.9274,0.182555 1.83248,0.6986 2.44336,1.3125 1.33591,1.34249 1.93413,3.342735 1.9043,5.04883 -0.01,0.5687 -0.0819,1.142015 -0.20703,1.71094 -0.50069,2.2757 -1.91919,5.102135 -3.5332,6.58203 -1.03057,0.944915 -2.17143,1.704355 -3.38477,2.30078 h 11.98047 C 445.03005,82 446,81.041785 446,79.85156 V 69.19922 c -0.65767,-1.663605 -1.60599,-3.217255 -2.88672,-4.578125 -1.49731,-1.591 -3.72106,-2.92249 -6.02344,-3.416015 -2.30237,-0.493525 -4.88155,-0.149175 -6.6914,1.605465 -0.6199,0.60098 -1.14381,1.490085 -1.32813,2.402345 -0.18431,0.91226 -0.0298,1.846275 0.70117,2.53711 0.23198,0.21925 0.775,0.404845 1.12305,0.466795 0.34591,0.06157 0.85375,0.057 1.10547,-0.216795 z"
         style="fill:#fa9535;fill-opacity:1;stroke-width:0.5"
         id="path2039"
         sodipodi:nodetypes="sscsssssscssssscscscssssscscsscssssssc"
         mask="url(#mask2154)" />
    </g>
    <g
       id="g2233">
      <path
         d="M 294.26367,224 C 292.45492,224 291,225.43732 291,227.22265 v 15.97852 c 0.9865,2.49541 2.40898,4.82588 4.33008,6.86719 2.24597,2.3865 5.58159,4.38373 9.03515,5.12402 3.45356,0.74029 7.32233,0.22376 10.03711,-2.4082 0.92984,-0.90147 1.71572,-2.23512 1.99219,-3.60351 0.27646,-1.36839 0.0447,-2.76942 -1.05176,-3.80567 -0.34797,-0.32887 -1.16249,-0.60727 -1.68457,-0.70019 -0.51886,-0.0924 -1.28063,-0.0855 -1.6582,0.32519 0.42128,0.37785 0.75353,0.98644 0.65918,1.50293 -0.095,0.51999 -0.38164,1.03338 -0.71777,1.37988 -1.05522,1.08777 -2.48195,1.82363 -3.87305,1.54981 -1.39109,-0.27383 -2.74871,-1.0479 -3.66504,-1.96875 -2.00385,-2.01373 -2.90119,-5.0141 -2.85644,-7.57324 0.0149,-0.85305 0.12279,-1.71303 0.31054,-2.56641 0.75104,-3.41355 2.87878,-7.65321 5.29981,-9.87305 1.54584,-1.41737 3.25714,-2.55653 5.07715,-3.45117 z M 312,245 c -0.42128,-0.37785 -0.75353,-0.98644 -0.65918,-1.50293 0.095,-0.51999 0.38163,-1.03337 0.71777,-1.37988 1.05522,-1.08777 2.48195,-1.82363 3.87305,-1.54981 1.39109,0.27383 2.74871,1.0479 3.66504,1.96875 2.00386,2.01374 2.90118,5.0141 2.85644,7.57325 -0.0148,0.85305 -0.12279,1.71302 -0.31054,2.56641 -0.75104,3.41355 -2.87878,7.6532 -5.29981,9.87304 -1.54584,1.41737 -3.25714,2.55653 -5.07715,3.45117 h 17.97071 C 331.54508,266 333,264.56268 333,262.77734 v -15.97851 c -0.98651,-2.49541 -2.40898,-4.82588 -4.33008,-6.86719 -2.24597,-2.3865 -5.58159,-4.38373 -9.03515,-5.12402 -3.45357,-0.74029 -7.32234,-0.22376 -10.03711,2.4082 -0.92984,0.90147 -1.71572,2.23513 -1.9922,3.60352 -0.27645,1.36839 -0.0447,2.76941 1.05177,3.80566 0.34797,0.32888 1.16249,0.60727 1.68456,0.70019 0.51887,0.0924 1.28064,0.0855 1.65821,-0.32519 z"
         style="fill:#000000;fill-opacity:1;stroke-width:0.75;opacity:0.2"
         id="path2206"
         mask="url(#mask2227)" />
      <path
         d="M 294.26367,223 C 292.45492,223 291,224.43732 291,226.22265 v 15.97852 c 0.9865,2.49541 2.40898,4.82588 4.33008,6.86719 2.24597,2.3865 5.58159,4.38373 9.03515,5.12402 3.45356,0.74029 7.32233,0.22376 10.03711,-2.4082 0.92984,-0.90147 1.71572,-2.23512 1.99219,-3.60351 0.27646,-1.36839 0.0447,-2.76942 -1.05176,-3.80567 -0.34797,-0.32887 -1.16249,-0.60727 -1.68457,-0.70019 -0.51886,-0.0924 -1.28063,-0.0855 -1.6582,0.32519 0.42128,0.37785 0.75353,0.98644 0.65918,1.50293 -0.095,0.51999 -0.38164,1.03338 -0.71777,1.37988 -1.05522,1.08777 -2.48195,1.82363 -3.87305,1.54981 -1.39109,-0.27383 -2.74871,-1.0479 -3.66504,-1.96875 -2.00385,-2.01373 -2.90119,-5.0141 -2.85644,-7.57324 0.0149,-0.85305 0.12279,-1.71303 0.31054,-2.56641 0.75104,-3.41355 2.87878,-7.65321 5.29981,-9.87305 1.54584,-1.41737 3.25714,-2.55653 5.07715,-3.45117 z M 312,244 c -0.42128,-0.37785 -0.75353,-0.98644 -0.65918,-1.50293 0.095,-0.51999 0.38163,-1.03337 0.71777,-1.37988 1.05522,-1.08777 2.48195,-1.82363 3.87305,-1.54981 1.39109,0.27383 2.74871,1.0479 3.66504,1.96875 2.00386,2.01374 2.90118,5.0141 2.85644,7.57325 -0.0148,0.85305 -0.12279,1.71302 -0.31054,2.56641 -0.75104,3.41355 -2.87878,7.6532 -5.29981,9.87304 -1.54584,1.41737 -3.25714,2.55653 -5.07715,3.45117 h 17.97071 C 331.54508,265 333,263.56268 333,261.77734 v -15.97851 c -0.98651,-2.49541 -2.40898,-4.82588 -4.33008,-6.86719 -2.24597,-2.3865 -5.58159,-4.38373 -9.03515,-5.12402 -3.45357,-0.74029 -7.32234,-0.22376 -10.03711,2.4082 -0.92984,0.90147 -1.71572,2.23513 -1.9922,3.60352 -0.27645,1.36839 -0.0447,2.76941 1.05177,3.80566 0.34797,0.32888 1.16249,0.60727 1.68456,0.70019 0.51887,0.0924 1.28064,0.0855 1.65821,-0.32519 z"
         style="opacity:1;fill:#fa9535;fill-opacity:1;stroke-width:0.75"
         id="path2170"
         mask="url(#mask2192)"
         sodipodi:nodetypes="sscsssssscssssssscscsssscsscsscssssssc" />
    </g>
    <g
       id="g1547">
      <path
         d="M 296.35156,145 C 293.93989,145 292,146.91643 292,149.29687 v 21.30469 c 1.31534,3.32721 3.21197,6.43451 5.77344,9.15625 2.99462,3.182 7.44212,5.84498 12.04687,6.83203 4.60475,0.98705 9.76311,0.29835 13.38281,-3.21093 1.23979,-1.20196 2.28763,-2.98017 2.65626,-4.80469 0.36861,-1.82452 0.0596,-3.69255 -1.40235,-5.07422 -0.46396,-0.4385 -1.54999,-0.80969 -2.24609,-0.93359 -0.69182,-0.12315 -1.70751,-0.114 -2.21094,0.43359 0.56171,0.5038 1.00471,1.31525 0.87891,2.00391 -0.12668,0.69332 -0.50885,1.37783 -0.95703,1.83984 -1.40696,1.45036 -3.30927,2.4315 -5.16407,2.06641 -1.85479,-0.36511 -3.66494,-1.3972 -4.88672,-2.625 -2.67181,-2.68498 -3.86825,-6.68547 -3.80859,-10.09766 0.0199,-1.1374 0.16372,-2.28403 0.41406,-3.42188 1.00138,-4.5514 3.83837,-10.20427 7.06641,-13.16406 2.06112,-1.88983 4.34285,-3.40871 6.76953,-4.60156 z M 320,173 c -0.56171,-0.5038 -1.00471,-1.31525 -0.87891,-2.00391 0.12668,-0.69332 0.50885,-1.37783 0.95703,-1.83984 1.40696,-1.45036 3.30927,-2.4315 5.16407,-2.06641 1.85479,0.36511 3.66494,1.3972 4.88672,2.625 2.67181,2.68498 3.86824,6.68547 3.80859,10.09766 -0.0198,1.1374 -0.16372,2.28403 -0.41406,3.42188 -1.00138,4.5514 -3.83837,10.20427 -7.06641,13.16406 -2.06112,1.88983 -4.34285,3.40871 -6.76953,4.60156 h 23.96094 C 346.06011,201 348,199.08357 348,196.70312 v -21.30468 c -1.31534,-3.32721 -3.21197,-6.43451 -5.77344,-9.15625 -2.99462,-3.182 -7.44212,-5.84498 -12.04687,-6.83203 -4.60475,-0.98705 -9.76311,-0.29835 -13.38281,3.21093 -1.23979,1.20196 -2.28763,2.98017 -2.65626,4.80469 -0.36861,1.82452 -0.0596,3.69255 1.40235,5.07422 0.46396,0.4385 1.54999,0.80969 2.24609,0.93359 0.69182,0.12314 1.70751,0.114 2.21094,-0.43359 z"
         style="opacity:0.2;fill:#000000"
         id="path1517"
         sodipodi:nodetypes="sscsssssscssssssscscsssscsscsscssssssc"
         mask="url(#mask2331)" />
      <path
         d="M 296.35156,144 C 293.93989,144 292,145.91643 292,148.29687 v 21.30469 c 1.31534,3.32721 3.21197,6.43451 5.77344,9.15625 2.99462,3.182 7.44212,5.84498 12.04687,6.83203 4.60475,0.98705 9.76311,0.29835 13.38281,-3.21093 1.23979,-1.20196 2.28763,-2.98017 2.65626,-4.80469 0.36861,-1.82452 0.0596,-3.69255 -1.40235,-5.07422 -0.46396,-0.4385 -1.54999,-0.80969 -2.24609,-0.93359 -0.69182,-0.12315 -1.70751,-0.114 -2.21094,0.43359 0.56171,0.5038 1.00471,1.31525 0.87891,2.00391 -0.12668,0.69332 -0.50885,1.37783 -0.95703,1.83984 -1.40696,1.45036 -3.30927,2.4315 -5.16407,2.06641 -1.85479,-0.36511 -3.66494,-1.3972 -4.88672,-2.625 -2.67181,-2.68498 -3.86825,-6.68547 -3.80859,-10.09766 0.0199,-1.1374 0.16372,-2.28403 0.41406,-3.42188 1.00138,-4.5514 3.83837,-10.20427 7.06641,-13.16406 2.06112,-1.88983 4.34285,-3.40871 6.76953,-4.60156 z M 320,172 c -0.56171,-0.5038 -1.00471,-1.31525 -0.87891,-2.00391 0.12668,-0.69332 0.50885,-1.37783 0.95703,-1.83984 1.40696,-1.45036 3.30927,-2.4315 5.16407,-2.06641 1.85479,0.36511 3.66494,1.3972 4.88672,2.625 2.67181,2.68498 3.86824,6.68547 3.80859,10.09766 -0.0198,1.1374 -0.16372,2.28403 -0.41406,3.42188 -1.00138,4.5514 -3.83837,10.20427 -7.06641,13.16406 -2.06112,1.88983 -4.34285,3.40871 -6.76953,4.60156 h 23.96094 C 346.06011,200 348,198.08357 348,195.70312 v -21.30468 c -1.31534,-3.32721 -3.21197,-6.43451 -5.77344,-9.15625 -2.99462,-3.182 -7.44212,-5.84498 -12.04687,-6.83203 -4.60475,-0.98705 -9.76311,-0.29835 -13.38281,3.21093 -1.23979,1.20196 -2.28763,2.98017 -2.65626,4.80469 -0.36861,1.82452 -0.0596,3.69255 1.40235,5.07422 0.46396,0.4385 1.54999,0.80969 2.24609,0.93359 0.69182,0.12314 1.70751,0.114 2.21094,-0.43359 z"
         style="opacity:1;fill:#fa9535;fill-opacity:1"
         id="path405"
         sodipodi:nodetypes="sscsssssscssssssscscsssscsscsscssssssc"
         mask="url(#mask1997)" />
    </g>
    <g
       id="g2374"
       transform="matrix(2,0,0,2,-288,-412)">
      <path
         d="M 294.26367,223.5 C 292.45492,223.5 291,224.93732 291,226.72265 v 15.97852 c 0.9865,2.49541 2.40898,4.82588 4.33008,6.86719 2.24597,2.3865 5.58159,4.38373 9.03515,5.12402 3.45356,0.74029 7.32233,0.22376 10.03711,-2.4082 0.92984,-0.90147 1.71572,-2.23512 1.99219,-3.60351 0.27646,-1.36839 0.0447,-2.76942 -1.05176,-3.80567 -0.34797,-0.32887 -1.16249,-0.60727 -1.68457,-0.70019 -0.51886,-0.0924 -1.28063,-0.0855 -1.6582,0.32519 0.42128,0.37785 0.75353,0.98644 0.65918,1.50293 -0.095,0.51999 -0.38164,1.03338 -0.71777,1.37989 -1.05522,1.08776 -2.48195,1.82362 -3.87305,1.5498 -1.39109,-0.27382 -2.74871,-1.04789 -3.66504,-1.96875 -2.00385,-2.01373 -2.90119,-5.0141 -2.85644,-7.57323 0.0149,-0.85305 0.12279,-1.71303 0.31054,-2.56641 0.75104,-3.41355 2.87878,-7.65321 5.29981,-9.87305 1.54584,-1.41737 3.25714,-2.55653 5.07715,-3.45117 z M 312,244.5 c -0.42128,-0.37785 -0.75353,-0.98644 -0.65918,-1.50292 0.095,-0.52 0.38163,-1.03337 0.71777,-1.37989 1.05522,-1.08777 2.48195,-1.82363 3.87305,-1.54981 1.39109,0.27383 2.74871,1.0479 3.66504,1.96875 2.00386,2.01374 2.90118,5.0141 2.85644,7.57325 -0.0148,0.85305 -0.12279,1.71302 -0.31054,2.56641 -0.75104,3.41355 -2.87878,7.6532 -5.29981,9.87304 -1.54584,1.41737 -3.25714,2.55653 -5.07715,3.45117 h 17.97071 c 1.80875,0 3.26367,-1.43732 3.26367,-3.22266 v -15.97851 c -0.98651,-2.49541 -2.40898,-4.82588 -4.33008,-6.86719 -2.24597,-2.3865 -5.58159,-4.38373 -9.03515,-5.12402 -3.45357,-0.74029 -7.32234,-0.22376 -10.03711,2.4082 -0.92984,0.90147 -1.71572,2.23513 -1.9922,3.60352 -0.27645,1.36839 -0.0447,2.76941 1.05177,3.80566 0.34797,0.32888 1.16249,0.60727 1.68456,0.70019 0.51887,0.0924 1.28064,0.0855 1.65821,-0.32519 z"
         style="opacity:0.2;fill:#000000;fill-opacity:1;stroke-width:0.75"
         id="path2271"
         mask="url(#mask2299)" />
      <path
         d="m 294.26367,222.99999 c -1.80875,0 -3.26367,1.43732 -3.26367,3.22265 v 15.97852 c 0.9865,2.49541 2.40898,4.82588 4.33008,6.86719 2.24597,2.3865 5.58159,4.38373 9.03515,5.12402 3.45356,0.74029 7.32233,0.22376 10.03711,-2.4082 0.92984,-0.90147 1.71572,-2.23512 1.99219,-3.60351 0.27646,-1.36839 0.0447,-2.76942 -1.05176,-3.80567 -0.34797,-0.32887 -1.16249,-0.60727 -1.68457,-0.70019 -0.51886,-0.0924 -1.28063,-0.0855 -1.6582,0.32519 0.42128,0.37785 0.75353,0.98644 0.65918,1.50293 -0.095,0.51999 -0.38164,1.03338 -0.71777,1.37989 -1.05522,1.08776 -2.48195,1.82362 -3.87305,1.5498 -1.39109,-0.27382 -2.74871,-1.04789 -3.66504,-1.96875 -2.00385,-2.01373 -2.90119,-5.0141 -2.85644,-7.57323 0.0149,-0.85305 0.12279,-1.71303 0.31054,-2.56641 0.75104,-3.41355 2.87878,-7.65321 5.29981,-9.87305 1.54584,-1.41737 3.25714,-2.55653 5.07715,-3.45117 z m 17.73633,21 c -0.42128,-0.37785 -0.75353,-0.98644 -0.65918,-1.50292 0.095,-0.52 0.38163,-1.03337 0.71777,-1.37989 1.05522,-1.08777 2.48195,-1.82363 3.87305,-1.54981 1.39109,0.27383 2.74871,1.0479 3.66504,1.96875 2.00386,2.01374 2.90118,5.0141 2.85644,7.57325 -0.0148,0.85305 -0.12279,1.71302 -0.31054,2.56641 -0.75104,3.41355 -2.87878,7.6532 -5.29981,9.87304 -1.54584,1.41737 -3.25714,2.55653 -5.07715,3.45117 h 17.97071 c 1.80875,0 3.26367,-1.43732 3.26367,-3.22266 v -15.97851 c -0.98651,-2.49541 -2.40898,-4.82588 -4.33008,-6.86719 -2.24597,-2.3865 -5.58159,-4.38373 -9.03515,-5.12402 -3.45357,-0.74029 -7.32234,-0.22376 -10.03711,2.4082 -0.92984,0.90147 -1.71572,2.23513 -1.9922,3.60352 -0.27645,1.36839 -0.0447,2.76941 1.05177,3.80566 0.34797,0.32888 1.16249,0.60727 1.68456,0.70019 0.51887,0.0924 1.28064,0.0855 1.65821,-0.32519 z"
         style="fill:#fa9535;fill-opacity:1;stroke-width:0.75"
         id="path2243"
         sodipodi:nodetypes="sscsssssscssssssscscsssscsscsscssssssc"
         mask="url(#mask2293)" />
    </g>
    <g
       id="g1612"
       transform="matrix(4,0,0,4,-1136,-532)">
      <path
         d="M 296.35156,144.5 C 293.93989,144.5 292,146.41643 292,148.79687 v 21.30469 c 1.31534,3.32721 3.21197,6.43451 5.77344,9.15625 2.99462,3.182 7.44212,5.84498 12.04687,6.83203 4.60475,0.98705 9.76311,0.29835 13.38281,-3.21093 1.23979,-1.20196 2.28763,-2.98017 2.65626,-4.80469 0.36861,-1.82452 0.0596,-3.69255 -1.40235,-5.07422 -0.46396,-0.4385 -1.54999,-0.80969 -2.24609,-0.93359 -0.69182,-0.12315 -1.70751,-0.114 -2.21094,0.43359 0.56171,0.5038 1.00471,1.31525 0.87891,2.00391 -0.12668,0.69332 -0.50885,1.37783 -0.95703,1.83984 -1.40696,1.45036 -3.30927,2.4315 -5.16407,2.06641 -1.85479,-0.36511 -3.66494,-1.3972 -4.88672,-2.625 -2.67181,-2.68498 -3.86825,-6.68547 -3.80859,-10.09766 0.0199,-1.1374 0.16372,-2.28403 0.41406,-3.42188 1.00138,-4.5514 3.83837,-10.20427 7.06641,-13.16406 2.06112,-1.88983 4.34285,-3.40871 6.76953,-4.60156 z M 320,172.5 c -0.56171,-0.5038 -1.00471,-1.31525 -0.87891,-2.00391 0.12668,-0.69332 0.50885,-1.37783 0.95703,-1.83984 1.40696,-1.45036 3.30927,-2.4315 5.16407,-2.06641 1.85479,0.36511 3.66494,1.3972 4.88672,2.625 2.67181,2.68498 3.86824,6.68547 3.80859,10.09766 -0.0198,1.1374 -0.16372,2.28403 -0.41406,3.42188 -1.00138,4.5514 -3.83837,10.20427 -7.06641,13.16406 -2.06112,1.88983 -4.34285,3.40871 -6.76953,4.60156 h 23.96094 c 2.41167,0 4.35156,-1.91643 4.35156,-4.29688 v -21.30468 c -1.31534,-3.32721 -3.21197,-6.43451 -5.77344,-9.15625 -2.99462,-3.182 -7.44212,-5.84498 -12.04687,-6.83203 -4.60475,-0.98705 -9.76311,-0.29835 -13.38281,3.21093 -1.23979,1.20196 -2.28763,2.98017 -2.65626,4.80469 -0.36861,1.82452 -0.0596,3.69255 1.40235,5.07422 0.46396,0.4385 1.54999,0.80969 2.24609,0.93359 0.69182,0.12314 1.70751,0.114 2.21094,-0.43359 z"
         style="opacity:0.2;fill:#000000"
         id="path1590"
         mask="url(#mask1991)" />
      <path
         d="M 296.35156,144 C 293.93989,144 292,145.91643 292,148.29687 v 21.30469 c 1.31534,3.32721 3.21197,6.43451 5.77344,9.15625 2.99462,3.182 7.44212,5.84498 12.04687,6.83203 4.60475,0.98705 9.76311,0.29835 13.38281,-3.21093 1.23979,-1.20196 2.28763,-2.98017 2.65626,-4.80469 0.36861,-1.82452 0.0596,-3.69255 -1.40235,-5.07422 -0.46396,-0.4385 -1.54999,-0.80969 -2.24609,-0.93359 -0.69182,-0.12315 -1.70751,-0.114 -2.21094,0.43359 0.56171,0.5038 1.00471,1.31525 0.87891,2.00391 -0.12668,0.69332 -0.50885,1.37783 -0.95703,1.83984 -1.40696,1.45036 -3.30927,2.4315 -5.16407,2.06641 -1.85479,-0.36511 -3.66494,-1.3972 -4.88672,-2.625 -2.67181,-2.68498 -3.86825,-6.68547 -3.80859,-10.09766 0.0199,-1.1374 0.16372,-2.28403 0.41406,-3.42188 1.00138,-4.5514 3.83837,-10.20427 7.06641,-13.16406 2.06112,-1.88983 4.34285,-3.40871 6.76953,-4.60156 z M 320,172 c -0.56171,-0.5038 -1.00471,-1.31525 -0.87891,-2.00391 0.12668,-0.69332 0.50885,-1.37783 0.95703,-1.83984 1.40696,-1.45036 3.30927,-2.4315 5.16407,-2.06641 1.85479,0.36511 3.66494,1.3972 4.88672,2.625 2.67181,2.68498 3.86824,6.68547 3.80859,10.09766 -0.0198,1.1374 -0.16372,2.28403 -0.41406,3.42188 -1.00138,4.5514 -3.83837,10.20427 -7.06641,13.16406 -2.06112,1.88983 -4.34285,3.40871 -6.76953,4.60156 h 23.96094 C 346.06011,200 348,198.08357 348,195.70312 v -21.30468 c -1.31534,-3.32721 -3.21197,-6.43451 -5.77344,-9.15625 -2.99462,-3.182 -7.44212,-5.84498 -12.04687,-6.83203 -4.60475,-0.98705 -9.76311,-0.29835 -13.38281,3.21093 -1.23979,1.20196 -2.28763,2.98017 -2.65626,4.80469 -0.36861,1.82452 -0.0596,3.69255 1.40235,5.07422 0.46396,0.4385 1.54999,0.80969 2.24609,0.93359 0.69182,0.12314 1.70751,0.114 2.21094,-0.43359 z"
         style="fill:#ff9632;fill-opacity:1"
         id="path1562"
         mask="url(#mask1778)" />
    </g>
  </g>
  <g
     id="Highlights">
    <path
       id="rect653"
       style="opacity:0.2;fill:#ffffff"
       d="M 80,44 C 53.408027,44 32,65.408027 32,92 v 2 C 32,67.408027 53.408027,46 80,46 h 128 c 26.59197,0 48,21.408027 48,48 V 92 C 256,65.408027 234.59197,44 208,44 Z"
       sodipodi:nodetypes="sscsscsss" />
    <path
       id="rect773"
       style="opacity:0.2;fill:#ffffff"
       d="m 312,34 c -9.97199,0 -18,8.02801 -18,18 v 1 c 0,-9.97199 8.02801,-18 18,-18 h 48 c 9.97199,0 18,8.02801 18,18 v -1 c 0,-9.97199 -8.02801,-18 -18,-18 z" />
    <path
       id="rect1135"
       style="opacity:0.2;fill:#ffffff;fill-opacity:1"
       d="m 304,144 c -6.64799,0 -12,5.35201 -12,12 v 1 c 0,-6.64799 5.35201,-12 12,-12 h 32 c 6.64799,0 12,5.35201 12,12 v -1 c 0,-6.64799 -5.35201,-12 -12,-12 z" />
    <path
       id="rect1265"
       style="opacity:0.2;fill:#ffffff;fill-opacity:1"
       d="m 300,223 c -4.986,0 -9,4.014 -9,9 v 1 c 0,-4.986 4.014,-9 9,-9 h 24 c 4.986,0 9,4.014 9,9 v -1 c 0,-4.986 -4.014,-9 -9,-9 z" />
    <path
       id="rect1368"
       style="opacity:0.2;fill:#ffffff;fill-opacity:1"
       d="m 424,54 c -3.324,0 -6,2.676003 -6,6 v 1 c 0,-3.323997 2.676,-6 6,-6 h 16 c 3.324,0 6,2.676003 6,6 v -1 c 0,-3.323997 -2.676,-6 -6,-6 z" />
    <path
       id="rect1402"
       style="opacity:0.2;fill:#ffffff;fill-opacity:1"
       d="m 420,140 c -2.216,0 -4,1.784 -4,4 v 1 c 0,-2.216 1.784,-4 4,-4 h 8 c 2.216,0 4,1.784 4,4 v -1 c 0,-2.216 -1.784,-4 -4,-4 z" />
    <path
       id="rect1436"
       style="opacity:0.2;fill:#ffffff;fill-opacity:1"
       d="m 422,102 c -2.216,0 -4,1.784 -4,4 v 1 c 0,-2.216 1.784,-4 4,-4 h 12 c 2.216,0 4,1.784 4,4 v -1 c 0,-2.216 -1.784,-4 -4,-4 z" />
  </g>
</svg>
