<?xml version="1.0" encoding="UTF-8" standalone="no"?>
<!-- Created with Inkscape (http://www.inkscape.org/) -->

<svg
   width="480"
   height="300"
   viewBox="0 0 480 300"
   version="1.1"
   id="svg5"
   inkscape:version="1.2.2 (1:1.2.2+202305151914+b0a8486541)"
   sodipodi:docname="mintinstall.svg"
   xmlns:inkscape="http://www.inkscape.org/namespaces/inkscape"
   xmlns:sodipodi="http://sodipodi.sourceforge.net/DTD/sodipodi-0.dtd"
   xmlns="http://www.w3.org/2000/svg"
   xmlns:svg="http://www.w3.org/2000/svg">
  <sodipodi:namedview
     id="namedview7"
     pagecolor="#888888"
     bordercolor="#000000"
     borderopacity="0.25"
     inkscape:showpageshadow="true"
     inkscape:pageopacity="0"
     inkscape:pagecheckerboard="0"
     inkscape:deskcolor="#888888"
     inkscape:document-units="px"
     showgrid="false"
     showborder="false"
     inkscape:zoom="2.6866667"
     inkscape:cx="240.07444"
     inkscape:cy="150"
     inkscape:window-width="1920"
     inkscape:window-height="1008"
     inkscape:window-x="0"
     inkscape:window-y="0"
     inkscape:window-maximized="1"
     inkscape:current-layer="svg5" />
  <defs
     id="defs2" />
  <g
     id="Baseplate"
     style="display:none">
    <text
       y="19.774782"
       xml:space="preserve"
       x="15.006946"
       style="font-style:normal;font-variant:normal;font-weight:normal;font-stretch:normal;line-height:0%;font-family:'DejaVu Sans';-inkscape-font-specification:'DejaVu Sans';display:inline;fill:#000000;fill-opacity:1;stroke:none;enable-background:new"
       inkscape:label="context"
       id="context"><tspan
         style="font-style:normal;font-variant:normal;font-weight:normal;font-stretch:normal;font-size:18px;line-height:1.25;font-family:'DejaVu Sans';-inkscape-font-specification:'DejaVu Sans'"
         y="19.774782"
         x="15.006946"
         sodipodi:role="line"
         id="tspan3933">apps</tspan></text>
    <text
       y="19.774782"
       xml:space="preserve"
       x="122.48839"
       style="font-style:normal;font-variant:normal;font-weight:bold;font-stretch:normal;line-height:0%;font-family:'DejaVu Sans';-inkscape-font-specification:'DejaVu Sans Bold';text-align:start;writing-mode:lr-tb;text-anchor:start;display:inline;fill:#000000;fill-opacity:1;stroke:none;enable-background:new"
       inkscape:label="icon-name"
       id="icon-name"><tspan
         style="font-style:normal;font-variant:normal;font-weight:bold;font-stretch:normal;font-size:18px;line-height:1.25;font-family:'DejaVu Sans';-inkscape-font-specification:'DejaVu Sans Bold'"
         y="19.774782"
         x="122.48839"
         sodipodi:role="line"
         id="tspan3937">mintinstall</tspan></text>
    <rect
       style="fill:#ffffff"
       id="256x256"
       width="256"
       height="256"
       x="16"
       y="28" />
    <rect
       style="fill:#ffffff"
       id="96x96"
       width="96"
       height="96"
       x="288"
       y="28" />
    <rect
       style="fill:#ffffff"
       id="64x64"
       width="64"
       height="64"
       x="288"
       y="140" />
    <rect
       style="fill:#ffffff"
       id="48x48"
       width="48"
       height="48"
       x="288"
       y="220" />
    <rect
       style="fill:#ffffff"
       id="32x32"
       width="32"
       height="32"
       x="416"
       y="52" />
    <rect
       style="fill:#ffffff"
       id="24x24"
       width="24"
       height="24"
       x="416"
       y="100" />
    <rect
       style="fill:#ffffff"
       id="22x22"
       width="22"
       height="22"
       x="417"
       y="101" />
    <rect
       style="fill:#ffffff"
       id="16x16"
       width="16"
       height="16"
       x="416"
       y="140" />
  </g>
  <g
     id="Shadow">
    <rect
       style="opacity:0.2;fill:#000000"
       id="rect651"
       width="224"
       height="224"
       x="32"
       y="46"
       ry="48" />
    <rect
       style="opacity:0.2;fill:#000000"
       id="rect769"
       width="84"
       height="85"
       x="294"
       y="34"
       ry="18" />
    <rect
       style="opacity:0.2;fill:#000000;fill-opacity:1"
       id="rect1131"
       width="56"
       height="56"
       x="292"
       y="145"
       ry="12" />
    <rect
       style="opacity:0.2;fill:#000000;fill-opacity:1"
       id="rect1261"
       width="42"
       height="42"
       x="291"
       y="224"
       ry="9" />
    <rect
       style="opacity:0.2;fill:#000000;fill-opacity:1"
       id="rect1364"
       width="28"
       height="29"
       x="418"
       y="54"
       ry="6" />
    <rect
       style="opacity:0.2;fill:#000000;fill-opacity:1"
       id="rect1398"
       width="16"
       height="16"
       x="416"
       y="141"
       ry="4" />
    <rect
       style="opacity:0.2;fill:#000000;fill-opacity:1"
       id="rect1432"
       width="20"
       height="20"
       x="418"
       y="103"
       ry="4" />
  </g>
  <g
     id="Background">
    <rect
       style="fill:#e0e0e0;fill-opacity:1"
       id="rect597"
       width="224"
       height="224"
       x="32"
       y="44"
       ry="48" />
    <rect
       style="opacity:1;fill:#e0e0e0;fill-opacity:1"
       id="rect771"
       width="84"
       height="84"
       x="294"
       y="34"
       ry="18" />
    <rect
       style="opacity:1;fill:#e0e0e0;fill-opacity:1"
       id="rect1133"
       width="56"
       height="56"
       x="292"
       y="144"
       ry="12" />
    <rect
       style="opacity:1;fill:#e0e0e0;fill-opacity:1"
       id="rect1263"
       width="42"
       height="42"
       x="291"
       y="223"
       ry="9" />
    <rect
       style="opacity:1;fill:#e0e0e0;fill-opacity:1"
       id="rect1366"
       width="28"
       height="28"
       x="418"
       y="54"
       ry="6" />
    <rect
       style="opacity:1;fill:#e0e0e0;fill-opacity:1"
       id="rect1400"
       width="16"
       height="16"
       x="416"
       y="140"
       ry="4" />
    <rect
       style="opacity:1;fill:#e0e0e0;fill-opacity:1"
       id="rect1434"
       width="20"
       height="20"
       x="418"
       y="102"
       ry="4" />
  </g>
  <g
     id="Symbols">
    <g
       id="g1190">
      <circle
         style="opacity:0.2;fill:#000000;fill-opacity:1;stroke-width:5;stroke-linecap:round;stroke-linejoin:round"
         id="path1226"
         cx="144"
         cy="158"
         r="80" />
      <circle
         style="opacity:1;fill:#8bc34a;fill-opacity:1"
         id="path3415"
         cx="144"
         cy="156"
         r="80" />
      <path
         d="m 108,118 c -2.216,0 -4,1.784 -4,4 v 8 c 0,2.216 1.784,4 4,4 h 8 c 2.216,0 4,-1.784 4,-4 v -8 c 0,-2.216 -1.784,-4 -4,-4 z m 32,0 c -2.216,0 -4,1.784 -4,4 v 8 c 0,2.216 1.784,4 4,4 h 8 c 2.216,0 4,-1.784 4,-4 v -8 c 0,-2.216 -1.784,-4 -4,-4 z m 32,0 c -2.216,0 -4,1.784 -4,4 v 8 c 0,2.216 1.784,4 4,4 h 8 c 2.216,0 4,-1.784 4,-4 v -8 c 0,-2.216 -1.784,-4 -4,-4 z m -64,32 c -2.216,0 -4,1.784 -4,4 v 8 c 0,2.216 1.784,4 4,4 h 8 c 2.216,0 4,-1.784 4,-4 v -8 c 0,-2.216 -1.784,-4 -4,-4 z m 32,0 c -2.216,0 -4,1.784 -4,4 v 8 c 0,2.216 1.784,4 4,4 h 8 c 2.216,0 4,-1.784 4,-4 v -8 c 0,-2.216 -1.784,-4 -4,-4 z m 32,0 c -2.216,0 -4,1.784 -4,4 v 8 c 0,2.216 1.784,4 4,4 h 8 c 2.216,0 4,-1.784 4,-4 v -8 c 0,-2.216 -1.784,-4 -4,-4 z m -64,32 c -2.216,0 -4,1.784 -4,4 v 8 c 0,2.216 1.784,4 4,4 h 8 c 2.216,0 4,-1.784 4,-4 v -8 c 0,-2.216 -1.784,-4 -4,-4 z m 32,0 c -2.216,0 -4,1.784 -4,4 v 8 c 0,2.216 1.784,4 4,4 h 8 c 2.216,0 4,-1.784 4,-4 v -8 c 0,-2.216 -1.784,-4 -4,-4 z m 32,0 c -2.216,0 -4,1.784 -4,4 v 8 c 0,2.216 1.784,4 4,4 h 8 c 2.216,0 4,-1.784 4,-4 v -8 c 0,-2.216 -1.784,-4 -4,-4 z"
         style="fill:#000000;fill-opacity:1;stroke-width:4;opacity:0.2"
         id="path947" />
      <path
         id="rect3558-9-3"
         style="fill:#ffffff;fill-opacity:1;stroke-width:4"
         d="m 108,116 c -2.216,0 -4,1.784 -4,4 v 8 c 0,2.216 1.784,4 4,4 h 8 c 2.216,0 4,-1.784 4,-4 v -8 c 0,-2.216 -1.784,-4 -4,-4 z m 32,0 c -2.216,0 -4,1.784 -4,4 v 8 c 0,2.216 1.784,4 4,4 h 8 c 2.216,0 4,-1.784 4,-4 v -8 c 0,-2.216 -1.784,-4 -4,-4 z m 32,0 c -2.216,0 -4,1.784 -4,4 v 8 c 0,2.216 1.784,4 4,4 h 8 c 2.216,0 4,-1.784 4,-4 v -8 c 0,-2.216 -1.784,-4 -4,-4 z m -64,32 c -2.216,0 -4,1.784 -4,4 v 8 c 0,2.216 1.784,4 4,4 h 8 c 2.216,0 4,-1.784 4,-4 v -8 c 0,-2.216 -1.784,-4 -4,-4 z m 32,0 c -2.216,0 -4,1.784 -4,4 v 8 c 0,2.216 1.784,4 4,4 h 8 c 2.216,0 4,-1.784 4,-4 v -8 c 0,-2.216 -1.784,-4 -4,-4 z m 32,0 c -2.216,0 -4,1.784 -4,4 v 8 c 0,2.216 1.784,4 4,4 h 8 c 2.216,0 4,-1.784 4,-4 v -8 c 0,-2.216 -1.784,-4 -4,-4 z m -64,32 c -2.216,0 -4,1.784 -4,4 v 8 c 0,2.216 1.784,4 4,4 h 8 c 2.216,0 4,-1.784 4,-4 v -8 c 0,-2.216 -1.784,-4 -4,-4 z m 32,0 c -2.216,0 -4,1.784 -4,4 v 8 c 0,2.216 1.784,4 4,4 h 8 c 2.216,0 4,-1.784 4,-4 v -8 c 0,-2.216 -1.784,-4 -4,-4 z m 32,0 c -2.216,0 -4,1.784 -4,4 v 8 c 0,2.216 1.784,4 4,4 h 8 c 2.216,0 4,-1.784 4,-4 v -8 c 0,-2.216 -1.784,-4 -4,-4 z"
         sodipodi:nodetypes="sssssssssssssssssssssssssssssssssssssssssssssssssssssssssssssssssssssssssssssssss" />
      <path
         id="path1280"
         style="opacity:0.2;fill:#ffffff;fill-opacity:1;stroke-width:5;stroke-linecap:round;stroke-linejoin:round"
         d="M 144 76 A 80 80 0 0 0 64 156 A 80 80 0 0 0 64.072266 157 A 80 80 0 0 1 144 78 A 80 80 0 0 1 223.96289 156.50781 A 80 80 0 0 0 224 156 A 80 80 0 0 0 144 76 z " />
    </g>
    <g
       id="g1195">
      <circle
         style="opacity:0.2;fill:#000000;fill-opacity:1;stroke-width:5;stroke-linecap:round;stroke-linejoin:round"
         id="path1392"
         cx="336"
         cy="77"
         r="30" />
      <circle
         style="opacity:1;fill:#8bc34a;fill-opacity:1;stroke-width:0.333333"
         id="path3361"
         cx="336"
         cy="76"
         r="30" />
      <path
         d="m 322,62 c -0.554,0 -1,0.446 -1,1 v 4 c 0,0.554 0.446,1 1,1 h 4 c 0.554,0 1,-0.446 1,-1 v -4 c 0,-0.554 -0.446,-1 -1,-1 z m 12,0 c -0.554,0 -1,0.446 -1,1 v 4 c 0,0.554 0.446,1 1,1 h 4 c 0.554,0 1,-0.446 1,-1 v -4 c 0,-0.554 -0.446,-1 -1,-1 z m 12,0 c -0.554,0 -1,0.446 -1,1 v 4 c 0,0.554 0.446,1 1,1 h 4 c 0.554,0 1,-0.446 1,-1 v -4 c 0,-0.554 -0.446,-1 -1,-1 z m -24,12 c -0.554,0 -1,0.446 -1,1 v 4 c 0,0.554 0.446,1 1,1 h 4 c 0.554,0 1,-0.446 1,-1 v -4 c 0,-0.554 -0.446,-1 -1,-1 z m 12,0 c -0.554,0 -1,0.446 -1,1 v 4 c 0,0.554 0.446,1 1,1 h 4 c 0.554,0 1,-0.446 1,-1 v -4 c 0,-0.554 -0.446,-1 -1,-1 z m 12,0 c -0.554,0 -1,0.446 -1,1 v 4 c 0,0.554 0.446,1 1,1 h 4 c 0.554,0 1,-0.446 1,-1 v -4 c 0,-0.554 -0.446,-1 -1,-1 z m -24,12 c -0.554,0 -1,0.446 -1,1 v 4 c 0,0.554 0.446,1 1,1 h 4 c 0.554,0 1,-0.446 1,-1 v -4 c 0,-0.554 -0.446,-1 -1,-1 z m 12,0 c -0.554,0 -1,0.446 -1,1 v 4 c 0,0.554 0.446,1 1,1 h 4 c 0.554,0 1,-0.446 1,-1 v -4 c 0,-0.554 -0.446,-1 -1,-1 z m 12,0 c -0.554,0 -1,0.446 -1,1 v 4 c 0,0.554 0.446,1 1,1 h 4 c 0.554,0 1,-0.446 1,-1 v -4 c 0,-0.554 -0.446,-1 -1,-1 z"
         style="fill:#000000;fill-opacity:1;opacity:0.2"
         id="path975" />
      <path
         id="rect3558-9-0"
         style="fill:#ffffff;fill-opacity:1"
         d="m 322,61 c -0.554,0 -1,0.446 -1,1 v 4 c 0,0.554 0.446,1 1,1 h 4 c 0.554,0 1,-0.446 1,-1 v -4 c 0,-0.554 -0.446,-1 -1,-1 z m 12,0 c -0.554,0 -1,0.446 -1,1 v 4 c 0,0.554 0.446,1 1,1 h 4 c 0.554,0 1,-0.446 1,-1 v -4 c 0,-0.554 -0.446,-1 -1,-1 z m 12,0 c -0.554,0 -1,0.446 -1,1 v 4 c 0,0.554 0.446,1 1,1 h 4 c 0.554,0 1,-0.446 1,-1 v -4 c 0,-0.554 -0.446,-1 -1,-1 z m -24,12 c -0.554,0 -1,0.446 -1,1 v 4 c 0,0.554 0.446,1 1,1 h 4 c 0.554,0 1,-0.446 1,-1 v -4 c 0,-0.554 -0.446,-1 -1,-1 z m 12,0 c -0.554,0 -1,0.446 -1,1 v 4 c 0,0.554 0.446,1 1,1 h 4 c 0.554,0 1,-0.446 1,-1 v -4 c 0,-0.554 -0.446,-1 -1,-1 z m 12,0 c -0.554,0 -1,0.446 -1,1 v 4 c 0,0.554 0.446,1 1,1 h 4 c 0.554,0 1,-0.446 1,-1 v -4 c 0,-0.554 -0.446,-1 -1,-1 z m -24,12 c -0.554,0 -1,0.446 -1,1 v 4 c 0,0.554 0.446,1 1,1 h 4 c 0.554,0 1,-0.446 1,-1 v -4 c 0,-0.554 -0.446,-1 -1,-1 z m 12,0 c -0.554,0 -1,0.446 -1,1 v 4 c 0,0.554 0.446,1 1,1 h 4 c 0.554,0 1,-0.446 1,-1 v -4 c 0,-0.554 -0.446,-1 -1,-1 z m 12,0 c -0.554,0 -1,0.446 -1,1 v 4 c 0,0.554 0.446,1 1,1 h 4 c 0.554,0 1,-0.446 1,-1 v -4 c 0,-0.554 -0.446,-1 -1,-1 z"
         sodipodi:nodetypes="sssssssssssssssssssssssssssssssssssssssssssssssssssssssssssssssssssssssssssssssss" />
      <path
         id="path1362"
         style="opacity:0.2;fill:#ffffff;fill-opacity:1;stroke-width:5;stroke-linecap:round;stroke-linejoin:round"
         d="M 336 46 A 30 30 0 0 0 306 76 A 30 30 0 0 0 306.03516 76.5 A 30 30 0 0 1 336 47 A 30 30 0 0 1 365.98047 76.261719 A 30 30 0 0 0 366 76 A 30 30 0 0 0 336 46 z " />
    </g>
    <g
       id="g1204">
      <circle
         style="opacity:0.2;fill:#000000;fill-opacity:1;stroke-width:5;stroke-linecap:round;stroke-linejoin:round"
         id="path1394"
         cx="320"
         cy="173"
         r="20" />
      <circle
         style="opacity:1;fill:#8bc34a;fill-opacity:1"
         id="path3417"
         cx="320"
         cy="172"
         r="20" />
      <path
         d="m 311,163 c -0.554,0 -1,0.446 -1,1 v 2 c 0,0.554 0.446,1 1,1 h 2 c 0.554,0 1,-0.446 1,-1 v -2 c 0,-0.554 -0.446,-1 -1,-1 z m 8,0 c -0.554,0 -1,0.446 -1,1 v 2 c 0,0.554 0.446,1 1,1 h 2 c 0.554,0 1,-0.446 1,-1 v -2 c 0,-0.554 -0.446,-1 -1,-1 z m 8,0 c -0.554,0 -1,0.446 -1,1 v 2 c 0,0.554 0.446,1 1,1 h 2 c 0.554,0 1,-0.446 1,-1 v -2 c 0,-0.554 -0.446,-1 -1,-1 z m -16,8 c -0.554,0 -1,0.446 -1,1 v 2 c 0,0.554 0.446,1 1,1 h 2 c 0.554,0 1,-0.446 1,-1 v -2 c 0,-0.554 -0.446,-1 -1,-1 z m 8,0 c -0.554,0 -1,0.446 -1,1 v 2 c 0,0.554 0.446,1 1,1 h 2 c 0.554,0 1,-0.446 1,-1 v -2 c 0,-0.554 -0.446,-1 -1,-1 z m 8,0 c -0.554,0 -1,0.446 -1,1 v 2 c 0,0.554 0.446,1 1,1 h 2 c 0.554,0 1,-0.446 1,-1 v -2 c 0,-0.554 -0.446,-1 -1,-1 z m -16,8 c -0.554,0 -1,0.446 -1,1 v 2 c 0,0.554 0.446,1 1,1 h 2 c 0.554,0 1,-0.446 1,-1 v -2 c 0,-0.554 -0.446,-1 -1,-1 z m 8,0 c -0.554,0 -1,0.446 -1,1 v 2 c 0,0.554 0.446,1 1,1 h 2 c 0.554,0 1,-0.446 1,-1 v -2 c 0,-0.554 -0.446,-1 -1,-1 z m 8,0 c -0.554,0 -1,0.446 -1,1 v 2 c 0,0.554 0.446,1 1,1 h 2 c 0.554,0 1,-0.446 1,-1 v -2 c 0,-0.554 -0.446,-1 -1,-1 z"
         style="fill:#000000;fill-opacity:1;opacity:0.2"
         id="path1003" />
      <path
         id="rect3558-9"
         style="fill:#ffffff;fill-opacity:1"
         d="m 311,162 c -0.554,0 -1,0.446 -1,1 v 2 c 0,0.554 0.446,1 1,1 h 2 c 0.554,0 1,-0.446 1,-1 v -2 c 0,-0.554 -0.446,-1 -1,-1 z m 8,0 c -0.554,0 -1,0.446 -1,1 v 2 c 0,0.554 0.446,1 1,1 h 2 c 0.554,0 1,-0.446 1,-1 v -2 c 0,-0.554 -0.446,-1 -1,-1 z m 8,0 c -0.554,0 -1,0.446 -1,1 v 2 c 0,0.554 0.446,1 1,1 h 2 c 0.554,0 1,-0.446 1,-1 v -2 c 0,-0.554 -0.446,-1 -1,-1 z m -16,8 c -0.554,0 -1,0.446 -1,1 v 2 c 0,0.554 0.446,1 1,1 h 2 c 0.554,0 1,-0.446 1,-1 v -2 c 0,-0.554 -0.446,-1 -1,-1 z m 8,0 c -0.554,0 -1,0.446 -1,1 v 2 c 0,0.554 0.446,1 1,1 h 2 c 0.554,0 1,-0.446 1,-1 v -2 c 0,-0.554 -0.446,-1 -1,-1 z m 8,0 c -0.554,0 -1,0.446 -1,1 v 2 c 0,0.554 0.446,1 1,1 h 2 c 0.554,0 1,-0.446 1,-1 v -2 c 0,-0.554 -0.446,-1 -1,-1 z m -16,8 c -0.554,0 -1,0.446 -1,1 v 2 c 0,0.554 0.446,1 1,1 h 2 c 0.554,0 1,-0.446 1,-1 v -2 c 0,-0.554 -0.446,-1 -1,-1 z m 8,0 c -0.554,0 -1,0.446 -1,1 v 2 c 0,0.554 0.446,1 1,1 h 2 c 0.554,0 1,-0.446 1,-1 v -2 c 0,-0.554 -0.446,-1 -1,-1 z m 8,0 c -0.554,0 -1,0.446 -1,1 v 2 c 0,0.554 0.446,1 1,1 h 2 c 0.554,0 1,-0.446 1,-1 v -2 c 0,-0.554 -0.446,-1 -1,-1 z"
         sodipodi:nodetypes="sssssssssssssssssssssssssssssssssssssssssssssssssssssssssssssssssssssssssssssssss" />
      <path
         id="path1396"
         style="opacity:0.2;fill:#ffffff;fill-opacity:1;stroke-width:5;stroke-linecap:round;stroke-linejoin:round"
         d="M 320 152 A 20 20 0 0 0 300 172 A 20 20 0 0 0 300.03516 172.5 A 20 20 0 0 1 320 153 A 20 20 0 0 1 339.98242 172.25 A 20 20 0 0 0 340 172 A 20 20 0 0 0 320 152 z " />
    </g>
    <g
       id="g1209">
      <circle
         style="opacity:0.2;fill:#000000;fill-opacity:1;stroke-width:5;stroke-linecap:round;stroke-linejoin:round"
         id="path1508"
         cx="312"
         cy="245"
         r="15" />
      <circle
         style="opacity:1;fill:#8bc34a;fill-opacity:1"
         id="path3419"
         cx="312"
         cy="244"
         r="15" />
      <path
         d="m 304,236 c -0.554,0 -1,0.446 -1,1 v 2 c 0,0.554 0.446,1 1,1 h 2 c 0.554,0 1,-0.446 1,-1 v -2 c 0,-0.554 -0.446,-1 -1,-1 z m 7,0 c -0.554,0 -1,0.446 -1,1 v 2 c 0,0.554 0.446,1 1,1 h 2 c 0.554,0 1,-0.446 1,-1 v -2 c 0,-0.554 -0.446,-1 -1,-1 z m 7,0 c -0.554,0 -1,0.446 -1,1 v 2 c 0,0.554 0.446,1 1,1 h 2 c 0.554,0 1,-0.446 1,-1 v -2 c 0,-0.554 -0.446,-1 -1,-1 z m -14,7 c -0.554,0 -1,0.446 -1,1 v 2 c 0,0.554 0.446,1 1,1 h 2 c 0.554,0 1,-0.446 1,-1 v -2 c 0,-0.554 -0.446,-1 -1,-1 z m 7,0 c -0.554,0 -1,0.446 -1,1 v 2 c 0,0.554 0.446,1 1,1 h 2 c 0.554,0 1,-0.446 1,-1 v -2 c 0,-0.554 -0.446,-1 -1,-1 z m 7,0 c -0.554,0 -1,0.446 -1,1 v 2 c 0,0.554 0.446,1 1,1 h 2 c 0.554,0 1,-0.446 1,-1 v -2 c 0,-0.554 -0.446,-1 -1,-1 z m -14,7 c -0.554,0 -1,0.446 -1,1 v 2 c 0,0.554 0.446,1 1,1 h 2 c 0.554,0 1,-0.446 1,-1 v -2 c 0,-0.554 -0.446,-1 -1,-1 z m 7,0 c -0.554,0 -1,0.446 -1,1 v 2 c 0,0.554 0.446,1 1,1 h 2 c 0.554,0 1,-0.446 1,-1 v -2 c 0,-0.554 -0.446,-1 -1,-1 z m 7,0 c -0.554,0 -1,0.446 -1,1 v 2 c 0,0.554 0.446,1 1,1 h 2 c 0.554,0 1,-0.446 1,-1 v -2 c 0,-0.554 -0.446,-1 -1,-1 z"
         style="fill:#000000;fill-opacity:1;opacity:0.2"
         id="path1031" />
      <path
         id="rect3558"
         style="opacity:1;fill:#ffffff;fill-opacity:1"
         d="m 304,235 c -0.554,0 -1,0.446 -1,1 v 2 c 0,0.554 0.446,1 1,1 h 2 c 0.554,0 1,-0.446 1,-1 v -2 c 0,-0.554 -0.446,-1 -1,-1 z m 7,0 c -0.554,0 -1,0.446 -1,1 v 2 c 0,0.554 0.446,1 1,1 h 2 c 0.554,0 1,-0.446 1,-1 v -2 c 0,-0.554 -0.446,-1 -1,-1 z m 7,0 c -0.554,0 -1,0.446 -1,1 v 2 c 0,0.554 0.446,1 1,1 h 2 c 0.554,0 1,-0.446 1,-1 v -2 c 0,-0.554 -0.446,-1 -1,-1 z m -14,7 c -0.554,0 -1,0.446 -1,1 v 2 c 0,0.554 0.446,1 1,1 h 2 c 0.554,0 1,-0.446 1,-1 v -2 c 0,-0.554 -0.446,-1 -1,-1 z m 7,0 c -0.554,0 -1,0.446 -1,1 v 2 c 0,0.554 0.446,1 1,1 h 2 c 0.554,0 1,-0.446 1,-1 v -2 c 0,-0.554 -0.446,-1 -1,-1 z m 7,0 c -0.554,0 -1,0.446 -1,1 v 2 c 0,0.554 0.446,1 1,1 h 2 c 0.554,0 1,-0.446 1,-1 v -2 c 0,-0.554 -0.446,-1 -1,-1 z m -14,7 c -0.554,0 -1,0.446 -1,1 v 2 c 0,0.554 0.446,1 1,1 h 2 c 0.554,0 1,-0.446 1,-1 v -2 c 0,-0.554 -0.446,-1 -1,-1 z m 7,0 c -0.554,0 -1,0.446 -1,1 v 2 c 0,0.554 0.446,1 1,1 h 2 c 0.554,0 1,-0.446 1,-1 v -2 c 0,-0.554 -0.446,-1 -1,-1 z m 7,0 c -0.554,0 -1,0.446 -1,1 v 2 c 0,0.554 0.446,1 1,1 h 2 c 0.554,0 1,-0.446 1,-1 v -2 c 0,-0.554 -0.446,-1 -1,-1 z"
         sodipodi:nodetypes="sssssssssssssssssssssssssssssssssssssssssssssssssssssssssssssssssssssssssssssssss" />
      <path
         id="path1478"
         style="opacity:0.2;fill:#ffffff;fill-opacity:1;stroke-width:5;stroke-linecap:round;stroke-linejoin:round"
         d="M 312 229 A 15 15 0 0 0 297 244 A 15 15 0 0 0 297.03516 244.5 A 15 15 0 0 1 312 230 A 15 15 0 0 1 326.98242 244.25586 A 15 15 0 0 0 327 244 A 15 15 0 0 0 312 229 z " />
    </g>
    <g
       id="g1224">
      <circle
         style="opacity:0.2;fill:#000000;fill-opacity:1;stroke-width:5;stroke-linecap:round;stroke-linejoin:round"
         id="path1510"
         cx="432"
         cy="69"
         r="10" />
      <circle
         style="opacity:1;fill:#8bc34a;fill-opacity:1;stroke-width:1"
         id="path3421"
         cx="432"
         cy="68"
         r="10" />
      <path
         d="m 427.375,64 h 1.25 c 0.21308,0 0.375,0.165152 0.375,0.375 v 1.25 C 429,65.834848 428.83808,66 428.625,66 h -1.25 C 427.16193,66 427,65.834848 427,65.625 v -1.25 C 427,64.165152 427.16193,64 427.375,64 Z m 4,0 h 1.25 c 0.21308,0 0.375,0.165152 0.375,0.375 v 1.25 C 433,65.834848 432.83808,66 432.625,66 h -1.25 C 431.16193,66 431,65.834848 431,65.625 v -1.25 C 431,64.165152 431.16193,64 431.375,64 Z m 4,0 h 1.25 c 0.21308,0 0.375,0.165152 0.375,0.375 v 1.25 C 437,65.834848 436.83808,66 436.625,66 h -1.25 C 435.16193,66 435,65.834848 435,65.625 v -1.25 C 435,64.165152 435.16193,64 435.375,64 Z m -8,4 h 1.25 c 0.21308,0 0.375,0.165152 0.375,0.375 v 1.25 C 429,69.834848 428.83808,70 428.625,70 h -1.25 C 427.16193,70 427,69.834848 427,69.625 v -1.25 C 427,68.165152 427.16193,68 427.375,68 Z m 4,0 h 1.25 c 0.21308,0 0.375,0.165152 0.375,0.375 v 1.25 C 433,69.834848 432.83808,70 432.625,70 h -1.25 C 431.16193,70 431,69.834848 431,69.625 v -1.25 C 431,68.165152 431.16193,68 431.375,68 Z m 4,0 h 1.25 c 0.21308,0 0.375,0.165152 0.375,0.375 v 1.25 C 437,69.834848 436.83808,70 436.625,70 h -1.25 C 435.16193,70 435,69.834848 435,69.625 v -1.25 C 435,68.165152 435.16193,68 435.375,68 Z m -8,4 h 1.25 c 0.21308,0 0.375,0.165152 0.375,0.375 v 1.25 C 429,73.834848 428.83808,74 428.625,74 h -1.25 C 427.16193,74 427,73.834848 427,73.625 v -1.25 C 427,72.165152 427.16193,72 427.375,72 Z m 4,0 h 1.25 c 0.21308,0 0.375,0.165152 0.375,0.375 v 1.25 C 433,73.834848 432.83808,74 432.625,74 h -1.25 C 431.16193,74 431,73.834848 431,73.625 v -1.25 C 431,72.165152 431.16193,72 431.375,72 Z m 4,0 h 1.25 c 0.21308,0 0.375,0.165152 0.375,0.375 v 1.25 C 437,73.834848 436.83808,74 436.625,74 h -1.25 C 435.16193,74 435,73.834848 435,73.625 v -1.25 C 435,72.165152 435.16193,72 435.375,72 Z"
         style="color:#000000;display:inline;overflow:visible;visibility:visible;fill:#000000;fill-opacity:1;fill-rule:nonzero;stroke:none;stroke-width:4;marker:none;enable-background:accumulate;opacity:0.2"
         id="path1059" />
      <path
         d="m 427.375,63 h 1.25 c 0.21308,0 0.375,0.165152 0.375,0.375 v 1.25 C 429,64.834848 428.83808,65 428.625,65 h -1.25 C 427.16192,65 427,64.834848 427,64.625 v -1.25 C 427,63.165152 427.16192,63 427.375,63 Z m 4,0 h 1.25 c 0.21308,0 0.375,0.165152 0.375,0.375 v 1.25 C 433,64.834848 432.83808,65 432.625,65 h -1.25 C 431.16192,65 431,64.834848 431,64.625 v -1.25 C 431,63.165152 431.16192,63 431.375,63 Z m 4,0 h 1.25 c 0.21308,0 0.375,0.165152 0.375,0.375 v 1.25 C 437,64.834848 436.83808,65 436.625,65 h -1.25 C 435.16192,65 435,64.834848 435,64.625 v -1.25 C 435,63.165152 435.16192,63 435.375,63 Z m -8,4 h 1.25 c 0.21308,0 0.375,0.165152 0.375,0.375 v 1.25 C 429,68.834848 428.83808,69 428.625,69 h -1.25 C 427.16192,69 427,68.834848 427,68.625 v -1.25 C 427,67.165152 427.16192,67 427.375,67 Z m 4,0 h 1.25 c 0.21308,0 0.375,0.165152 0.375,0.375 v 1.25 C 433,68.834848 432.83808,69 432.625,69 h -1.25 C 431.16192,69 431,68.834848 431,68.625 v -1.25 C 431,67.165152 431.16192,67 431.375,67 Z m 4,0 h 1.25 c 0.21308,0 0.375,0.165152 0.375,0.375 v 1.25 C 437,68.834848 436.83808,69 436.625,69 h -1.25 C 435.16192,69 435,68.834848 435,68.625 v -1.25 C 435,67.165152 435.16192,67 435.375,67 Z m -8,4 h 1.25 c 0.21308,0 0.375,0.165152 0.375,0.375 v 1.25 C 429,72.834848 428.83808,73 428.625,73 h -1.25 C 427.16192,73 427,72.834848 427,72.625 v -1.25 C 427,71.165152 427.16192,71 427.375,71 Z m 4,0 h 1.25 c 0.21308,0 0.375,0.165152 0.375,0.375 v 1.25 C 433,72.834848 432.83808,73 432.625,73 h -1.25 C 431.16192,73 431,72.834848 431,72.625 v -1.25 C 431,71.165152 431.16192,71 431.375,71 Z m 4,0 h 1.25 c 0.21308,0 0.375,0.165152 0.375,0.375 v 1.25 C 437,72.834848 436.83808,73 436.625,73 h -1.25 C 435.16192,73 435,72.834848 435,72.625 v -1.25 C 435,71.165152 435.16192,71 435.375,71 Z"
         style="color:#000000;display:inline;overflow:visible;visibility:visible;fill:#ffffff;fill-opacity:1;fill-rule:nonzero;stroke:none;stroke-width:4;marker:none;enable-background:accumulate"
         id="path4047"
         sodipodi:nodetypes="sssssssssssssssssssssssssssssssssssssssssssssssssssssssssssssssssssssssssssssssss" />
      <path
         id="path1512"
         style="opacity:0.2;fill:#ffffff;fill-opacity:1;stroke-width:5;stroke-linecap:round;stroke-linejoin:round"
         d="M 432 58 A 10 10 0 0 0 422 68 A 10 10 0 0 0 422.03516 68.5 A 10 10 0 0 1 432 59 A 10 10 0 0 1 441.97656 68.341797 A 10 10 0 0 0 442 68 A 10 10 0 0 0 432 58 z " />
    </g>
    <g
       id="g1219">
      <circle
         style="opacity:0.2;fill:#000000;fill-opacity:1;stroke-width:5;stroke-linecap:round;stroke-linejoin:round"
         id="path1572"
         cx="428"
         cy="112.5"
         r="7" />
      <circle
         style="opacity:1;fill:#8bc34a;fill-opacity:1"
         id="path3423"
         cx="428"
         cy="112"
         r="7" />
      <path
         d="m 424.375,108.5 h 1.25 c 0.21308,0 0.375,0.16515 0.375,0.375 v 1.25 c 0,0.20984 -0.16192,0.375 -0.375,0.375 h -1.25 c -0.21308,0 -0.375,-0.16516 -0.375,-0.375 v -1.25 c 0,-0.20985 0.16192,-0.375 0.375,-0.375 z m 3,0 h 1.25 c 0.21308,0 0.375,0.16515 0.375,0.375 v 1.25 c 0,0.20984 -0.16192,0.375 -0.375,0.375 h -1.25 c -0.21308,0 -0.375,-0.16516 -0.375,-0.375 v -1.25 c 0,-0.20985 0.16192,-0.375 0.375,-0.375 z m 3,0 h 1.25 c 0.21308,0 0.375,0.16515 0.375,0.375 v 1.25 c 0,0.20984 -0.16192,0.375 -0.375,0.375 h -1.25 c -0.21308,0 -0.375,-0.16516 -0.375,-0.375 v -1.25 c 0,-0.20985 0.16192,-0.375 0.375,-0.375 z m -6,3 h 1.25 c 0.21308,0 0.375,0.16515 0.375,0.375 v 1.25 c 0,0.20984 -0.16192,0.375 -0.375,0.375 h -1.25 c -0.21308,0 -0.375,-0.16516 -0.375,-0.375 v -1.25 c 0,-0.20985 0.16192,-0.375 0.375,-0.375 z m 3,0 h 1.25 c 0.21308,0 0.375,0.16515 0.375,0.375 v 1.25 c 0,0.20984 -0.16192,0.375 -0.375,0.375 h -1.25 c -0.21308,0 -0.375,-0.16516 -0.375,-0.375 v -1.25 c 0,-0.20985 0.16192,-0.375 0.375,-0.375 z m 3,0 h 1.25 c 0.21308,0 0.375,0.16515 0.375,0.375 v 1.25 c 0,0.20984 -0.16192,0.375 -0.375,0.375 h -1.25 c -0.21308,0 -0.375,-0.16516 -0.375,-0.375 v -1.25 c 0,-0.20985 0.16192,-0.375 0.375,-0.375 z m -6,3 h 1.25 c 0.21308,0 0.375,0.16515 0.375,0.375 v 1.25 c 0,0.20984 -0.16192,0.375 -0.375,0.375 h -1.25 c -0.21308,0 -0.375,-0.16516 -0.375,-0.375 v -1.25 c 0,-0.20985 0.16192,-0.375 0.375,-0.375 z m 3,0 h 1.25 c 0.21308,0 0.375,0.16515 0.375,0.375 v 1.25 c 0,0.20984 -0.16192,0.375 -0.375,0.375 h -1.25 c -0.21308,0 -0.375,-0.16516 -0.375,-0.375 v -1.25 c 0,-0.20985 0.16192,-0.375 0.375,-0.375 z m 3,0 h 1.25 c 0.21308,0 0.375,0.16515 0.375,0.375 v 1.25 c 0,0.20984 -0.16192,0.375 -0.375,0.375 h -1.25 c -0.21308,0 -0.375,-0.16516 -0.375,-0.375 v -1.25 c 0,-0.20985 0.16192,-0.375 0.375,-0.375 z"
         style="color:#000000;display:inline;overflow:visible;visibility:visible;fill:#000000;fill-opacity:1;fill-rule:nonzero;stroke:none;stroke-width:4;marker:none;enable-background:accumulate;opacity:0.2"
         id="path1087" />
      <path
         d="m 424.375,108 h 1.25 c 0.21308,0 0.375,0.16515 0.375,0.375 v 1.25 c 0,0.20984 -0.16192,0.375 -0.375,0.375 h -1.25 C 424.16192,110 424,109.83484 424,109.625 v -1.25 c 0,-0.20985 0.16192,-0.375 0.375,-0.375 z m 3,0 h 1.25 c 0.21308,0 0.375,0.16515 0.375,0.375 v 1.25 c 0,0.20984 -0.16192,0.375 -0.375,0.375 h -1.25 C 427.16192,110 427,109.83484 427,109.625 v -1.25 c 0,-0.20985 0.16192,-0.375 0.375,-0.375 z m 3,0 h 1.25 c 0.21308,0 0.375,0.16515 0.375,0.375 v 1.25 c 0,0.20984 -0.16192,0.375 -0.375,0.375 h -1.25 C 430.16192,110 430,109.83484 430,109.625 v -1.25 c 0,-0.20985 0.16192,-0.375 0.375,-0.375 z m -6,3 h 1.25 c 0.21308,0 0.375,0.16515 0.375,0.375 v 1.25 c 0,0.20984 -0.16192,0.375 -0.375,0.375 h -1.25 C 424.16192,113 424,112.83484 424,112.625 v -1.25 c 0,-0.20985 0.16192,-0.375 0.375,-0.375 z m 3,0 h 1.25 c 0.21308,0 0.375,0.16515 0.375,0.375 v 1.25 c 0,0.20984 -0.16192,0.375 -0.375,0.375 h -1.25 C 427.16192,113 427,112.83484 427,112.625 v -1.25 c 0,-0.20985 0.16192,-0.375 0.375,-0.375 z m 3,0 h 1.25 c 0.21308,0 0.375,0.16515 0.375,0.375 v 1.25 c 0,0.20984 -0.16192,0.375 -0.375,0.375 h -1.25 C 430.16192,113 430,112.83484 430,112.625 v -1.25 c 0,-0.20985 0.16192,-0.375 0.375,-0.375 z m -6,3 h 1.25 c 0.21308,0 0.375,0.16515 0.375,0.375 v 1.25 c 0,0.20984 -0.16192,0.375 -0.375,0.375 h -1.25 C 424.16192,116 424,115.83484 424,115.625 v -1.25 c 0,-0.20985 0.16192,-0.375 0.375,-0.375 z m 3,0 h 1.25 c 0.21308,0 0.375,0.16515 0.375,0.375 v 1.25 c 0,0.20984 -0.16192,0.375 -0.375,0.375 h -1.25 C 427.16192,116 427,115.83484 427,115.625 v -1.25 c 0,-0.20985 0.16192,-0.375 0.375,-0.375 z m 3,0 h 1.25 c 0.21308,0 0.375,0.16515 0.375,0.375 v 1.25 c 0,0.20984 -0.16192,0.375 -0.375,0.375 h -1.25 C 430.16192,116 430,115.83484 430,115.625 v -1.25 c 0,-0.20985 0.16192,-0.375 0.375,-0.375 z"
         style="color:#000000;display:inline;overflow:visible;visibility:visible;fill:#ffffff;fill-opacity:1;fill-rule:nonzero;stroke:none;stroke-width:4;marker:none;enable-background:accumulate"
         id="path4047-0"
         sodipodi:nodetypes="sssssssssssssssssssssssssssssssssssssssssssssssssssssssssssssssssssssssssssssssss" />
      <path
         id="path1542"
         style="opacity:0.2;fill:#ffffff;fill-opacity:1;stroke-width:5;stroke-linecap:round;stroke-linejoin:round"
         d="M 428 105 A 7 7 0 0 0 421 112 A 7 7 0 0 0 421.01758 112.25 A 7 7 0 0 1 428 105.5 A 7 7 0 0 1 434.99023 112.13477 A 7 7 0 0 0 435 112 A 7 7 0 0 0 428 105 z " />
    </g>
    <g
       id="g1214">
      <circle
         style="opacity:0.2;fill:#000000;fill-opacity:1;stroke-width:5;stroke-linecap:round;stroke-linejoin:round"
         id="path1574"
         cx="424"
         cy="148.5"
         r="6" />
      <circle
         style="opacity:1;fill:#8bc34a;fill-opacity:1;stroke-width:1.2"
         id="path3425"
         cx="424"
         cy="148"
         r="6" />
      <path
         d="m 421.375,145.5 h 1.25 c 0.21308,0 0.375,0.16515 0.375,0.375 v 1.25 c 0,0.20985 -0.16192,0.375 -0.375,0.375 h -1.25 c -0.21308,0 -0.375,-0.16515 -0.375,-0.375 v -1.25 c 0,-0.20985 0.16192,-0.375 0.375,-0.375 z m 4,0 h 1.25 c 0.21308,0 0.375,0.16515 0.375,0.375 v 1.25 c 0,0.20985 -0.16192,0.375 -0.375,0.375 h -1.25 c -0.21308,0 -0.375,-0.16515 -0.375,-0.375 v -1.25 c 0,-0.20985 0.16192,-0.375 0.375,-0.375 z m -4,4 h 1.25 c 0.21308,0 0.375,0.16515 0.375,0.375 v 1.25 c 0,0.20985 -0.16192,0.375 -0.375,0.375 h -1.25 c -0.21308,0 -0.375,-0.16515 -0.375,-0.375 v -1.25 c 0,-0.20985 0.16192,-0.375 0.375,-0.375 z m 4,0 h 1.25 c 0.21308,0 0.375,0.16515 0.375,0.375 v 1.25 c 0,0.20985 -0.16192,0.375 -0.375,0.375 h -1.25 c -0.21308,0 -0.375,-0.16515 -0.375,-0.375 v -1.25 c 0,-0.20985 0.16192,-0.375 0.375,-0.375 z"
         style="color:#000000;display:inline;overflow:visible;visibility:visible;fill:#000000;fill-opacity:1;fill-rule:nonzero;stroke:none;stroke-width:4;marker:none;enable-background:accumulate;opacity:0.2"
         id="path1115" />
      <path
         d="m 421.375,145 h 1.25 c 0.21308,0 0.375,0.16515 0.375,0.375 v 1.25 c 0,0.20985 -0.16192,0.375 -0.375,0.375 h -1.25 C 421.16192,147 421,146.83485 421,146.625 v -1.25 c 0,-0.20985 0.16192,-0.375 0.375,-0.375 z m 4,0 h 1.25 c 0.21308,0 0.375,0.16515 0.375,0.375 v 1.25 c 0,0.20985 -0.16192,0.375 -0.375,0.375 h -1.25 C 425.16192,147 425,146.83485 425,146.625 v -1.25 c 0,-0.20985 0.16192,-0.375 0.375,-0.375 z m -4,4 h 1.25 c 0.21308,0 0.375,0.16515 0.375,0.375 v 1.25 c 0,0.20985 -0.16192,0.375 -0.375,0.375 h -1.25 C 421.16192,151 421,150.83485 421,150.625 v -1.25 c 0,-0.20985 0.16192,-0.375 0.375,-0.375 z m 4,0 h 1.25 c 0.21308,0 0.375,0.16515 0.375,0.375 v 1.25 c 0,0.20985 -0.16192,0.375 -0.375,0.375 h -1.25 C 425.16192,151 425,150.83485 425,150.625 v -1.25 c 0,-0.20985 0.16192,-0.375 0.375,-0.375 z"
         style="color:#000000;display:inline;overflow:visible;visibility:visible;fill:#ffffff;fill-opacity:1;fill-rule:nonzero;stroke:none;stroke-width:4;marker:none;enable-background:accumulate"
         id="path4047-7"
         sodipodi:nodetypes="ssssssssssssssssssssssssssssssssssss" />
      <path
         id="path1576"
         style="opacity:0.2;fill:#ffffff;fill-opacity:1;stroke-width:5;stroke-linecap:round;stroke-linejoin:round"
         d="M 424 142 A 6 6 0 0 0 418 148 A 6 6 0 0 0 418.01758 148.25 A 6 6 0 0 1 424 142.5 A 6 6 0 0 1 429.98828 148.1582 A 6 6 0 0 0 430 148 A 6 6 0 0 0 424 142 z " />
    </g>
  </g>
  <g
     id="Highlights">
    <path
       id="rect653"
       style="opacity:0.2;fill:#ffffff"
       d="M 80,44 C 53.408027,44 32,65.408027 32,92 v 2 C 32,67.408027 53.408027,46 80,46 h 128 c 26.59197,0 48,21.408027 48,48 V 92 C 256,65.408027 234.59197,44 208,44 Z"
       sodipodi:nodetypes="sscsscsss" />
    <path
       id="rect773"
       style="opacity:0.2;fill:#ffffff"
       d="m 312,34 c -9.97199,0 -18,8.02801 -18,18 v 1 c 0,-9.97199 8.02801,-18 18,-18 h 48 c 9.97199,0 18,8.02801 18,18 v -1 c 0,-9.97199 -8.02801,-18 -18,-18 z" />
    <path
       id="rect1135"
       style="opacity:0.2;fill:#ffffff;fill-opacity:1"
       d="m 304,144 c -6.64799,0 -12,5.35201 -12,12 v 1 c 0,-6.64799 5.35201,-12 12,-12 h 32 c 6.64799,0 12,5.35201 12,12 v -1 c 0,-6.64799 -5.35201,-12 -12,-12 z" />
    <path
       id="rect1265"
       style="opacity:0.2;fill:#ffffff;fill-opacity:1"
       d="m 300,223 c -4.986,0 -9,4.014 -9,9 v 1 c 0,-4.986 4.014,-9 9,-9 h 24 c 4.986,0 9,4.014 9,9 v -1 c 0,-4.986 -4.014,-9 -9,-9 z" />
    <path
       id="rect1368"
       style="opacity:0.2;fill:#ffffff;fill-opacity:1"
       d="m 424,54 c -3.324,0 -6,2.676003 -6,6 v 1 c 0,-3.323997 2.676,-6 6,-6 h 16 c 3.324,0 6,2.676003 6,6 v -1 c 0,-3.323997 -2.676,-6 -6,-6 z" />
    <path
       id="rect1402"
       style="opacity:0.2;fill:#ffffff;fill-opacity:1"
       d="m 420,140 c -2.216,0 -4,1.784 -4,4 v 1 c 0,-2.216 1.784,-4 4,-4 h 8 c 2.216,0 4,1.784 4,4 v -1 c 0,-2.216 -1.784,-4 -4,-4 z" />
    <path
       id="rect1436"
       style="opacity:0.2;fill:#ffffff;fill-opacity:1"
       d="m 422,102 c -2.216,0 -4,1.784 -4,4 v 1 c 0,-2.216 1.784,-4 4,-4 h 12 c 2.216,0 4,1.784 4,4 v -1 c 0,-2.216 -1.784,-4 -4,-4 z" />
  </g>
</svg>
