<?xml version="1.0" encoding="UTF-8" standalone="no"?>
<!-- Created with Inkscape (http://www.inkscape.org/) -->

<svg
   width="480"
   height="300"
   viewBox="0 0 480 300"
   version="1.1"
   id="svg5"
   inkscape:version="1.2.2 (1:1.2.2+202305151914+b0a8486541)"
   sodipodi:docname="mintreport.svg"
   xmlns:inkscape="http://www.inkscape.org/namespaces/inkscape"
   xmlns:sodipodi="http://sodipodi.sourceforge.net/DTD/sodipodi-0.dtd"
   xmlns="http://www.w3.org/2000/svg"
   xmlns:svg="http://www.w3.org/2000/svg">
  <sodipodi:namedview
     id="namedview7"
     pagecolor="#888888"
     bordercolor="#000000"
     borderopacity="0.25"
     inkscape:showpageshadow="true"
     inkscape:pageopacity="0"
     inkscape:pagecheckerboard="0"
     inkscape:deskcolor="#888888"
     inkscape:document-units="px"
     showgrid="false"
     showborder="false"
     inkscape:zoom="2.6866667"
     inkscape:cx="240.44665"
     inkscape:cy="150"
     inkscape:window-width="1920"
     inkscape:window-height="1008"
     inkscape:window-x="0"
     inkscape:window-y="0"
     inkscape:window-maximized="1"
     inkscape:current-layer="svg5" />
  <defs
     id="defs2" />
  <g
     id="Baseplate"
     style="display:none">
    <text
       y="19.774782"
       xml:space="preserve"
       x="15.006946"
       style="font-style:normal;font-variant:normal;font-weight:normal;font-stretch:normal;line-height:0%;font-family:'DejaVu Sans';-inkscape-font-specification:'DejaVu Sans';display:inline;fill:#000000;fill-opacity:1;stroke:none;enable-background:new"
       inkscape:label="context"
       id="context"><tspan
         style="font-style:normal;font-variant:normal;font-weight:normal;font-stretch:normal;font-size:18px;line-height:1.25;font-family:'DejaVu Sans';-inkscape-font-specification:'DejaVu Sans'"
         y="19.774782"
         x="15.006946"
         sodipodi:role="line"
         id="tspan3933">apps</tspan></text>
    <text
       y="19.774782"
       xml:space="preserve"
       x="122.48839"
       style="font-style:normal;font-variant:normal;font-weight:bold;font-stretch:normal;line-height:0%;font-family:'DejaVu Sans';-inkscape-font-specification:'DejaVu Sans Bold';text-align:start;writing-mode:lr-tb;text-anchor:start;display:inline;fill:#000000;fill-opacity:1;stroke:none;enable-background:new"
       inkscape:label="icon-name"
       id="icon-name"><tspan
         style="font-style:normal;font-variant:normal;font-weight:bold;font-stretch:normal;font-size:18px;line-height:1.25;font-family:'DejaVu Sans';-inkscape-font-specification:'DejaVu Sans Bold'"
         y="19.774782"
         x="122.48839"
         sodipodi:role="line"
         id="tspan3937">mintreport</tspan></text>
    <rect
       style="fill:#ffffff"
       id="256x256"
       width="256"
       height="256"
       x="16"
       y="28" />
    <rect
       style="fill:#ffffff"
       id="96x96"
       width="96"
       height="96"
       x="288"
       y="28" />
    <rect
       style="fill:#ffffff"
       id="64x64"
       width="64"
       height="64"
       x="288"
       y="140" />
    <rect
       style="fill:#ffffff"
       id="48x48"
       width="48"
       height="48"
       x="288"
       y="220" />
    <rect
       style="fill:#ffffff"
       id="32x32"
       width="32"
       height="32"
       x="416"
       y="52" />
    <rect
       style="fill:#ffffff"
       id="24x24"
       width="24"
       height="24"
       x="416"
       y="100" />
    <rect
       style="fill:#ffffff"
       id="22x22"
       width="22"
       height="22"
       x="417"
       y="101" />
    <rect
       style="fill:#ffffff"
       id="16x16"
       width="16"
       height="16"
       x="416"
       y="140" />
  </g>
  <g
     id="Shadow">
    <rect
       style="opacity:0.2;fill:#000000"
       id="rect651"
       width="224"
       height="224"
       x="32"
       y="46"
       ry="48" />
    <rect
       style="opacity:0.2;fill:#000000"
       id="rect769"
       width="84"
       height="85"
       x="294"
       y="34"
       ry="18" />
    <rect
       style="opacity:0.2;fill:#000000;fill-opacity:1"
       id="rect1131"
       width="56"
       height="56"
       x="292"
       y="145"
       ry="12" />
    <rect
       style="opacity:0.2;fill:#000000;fill-opacity:1"
       id="rect1261"
       width="42"
       height="42"
       x="291"
       y="224"
       ry="9" />
    <rect
       style="opacity:0.2;fill:#000000;fill-opacity:1"
       id="rect1364"
       width="28"
       height="29"
       x="418"
       y="54"
       ry="6" />
    <rect
       style="opacity:0.2;fill:#000000;fill-opacity:1"
       id="rect1398"
       width="16"
       height="16"
       x="416"
       y="141"
       ry="4" />
    <rect
       style="opacity:0.2;fill:#000000;fill-opacity:1"
       id="rect1432"
       width="20"
       height="20"
       x="418"
       y="103"
       ry="4" />
  </g>
  <g
     id="Background">
    <rect
       style="fill:#9e744f;fill-opacity:1"
       id="rect597"
       width="224"
       height="224"
       x="32"
       y="44"
       ry="48" />
    <rect
       style="opacity:1;fill:#9e744f;fill-opacity:1"
       id="rect771"
       width="84"
       height="84"
       x="294"
       y="34"
       ry="18" />
    <rect
       style="opacity:1;fill:#9e744f;fill-opacity:1"
       id="rect1133"
       width="56"
       height="56"
       x="292"
       y="144"
       ry="12" />
    <rect
       style="opacity:1;fill:#9e744f;fill-opacity:1"
       id="rect1263"
       width="42"
       height="42"
       x="291"
       y="223"
       ry="9" />
    <rect
       style="opacity:1;fill:#9e744f;fill-opacity:1"
       id="rect1366"
       width="28"
       height="28"
       x="418"
       y="54"
       ry="6" />
    <rect
       style="opacity:1;fill:#9e744f;fill-opacity:1"
       id="rect1400"
       width="16"
       height="16"
       x="416"
       y="140"
       ry="4" />
    <rect
       style="opacity:1;fill:#9e744f;fill-opacity:1"
       id="rect1434"
       width="20"
       height="20"
       x="418"
       y="102"
       ry="4" />
  </g>
  <g
     id="Symbols">
    <g
       id="g2810">
      <rect
         style="opacity:0.2;fill:#000000;fill-opacity:1"
         id="rect1746"
         width="10"
         height="10"
         x="419"
         y="144"
         ry="1" />
      <rect
         style="opacity:1;fill:#efefef;fill-opacity:1"
         id="rect1748"
         width="10"
         height="10"
         x="419"
         y="143"
         ry="1" />
      <path
         d="m 423,145 v 4 h 1 v -4 z m 0,5 v 1 h 1 v -1 z"
         style="fill:#f44336;fill-opacity:1;stroke-width:0.25"
         id="path3446-5" />
    </g>
    <g
       id="g2817">
      <rect
         style="opacity:0.2;fill:#000000;fill-opacity:1"
         id="rect2272"
         width="14"
         height="14"
         x="421"
         y="106"
         ry="2" />
      <rect
         style="opacity:1;fill:#efefef;fill-opacity:1"
         id="rect2481"
         width="14"
         height="14"
         x="421"
         y="105"
         ry="2" />
      <path
         d="m 427,107 v 6 h 2 v -6 z m 0,8 v 2 h 2 v -2 z"
         style="fill:#f44336;fill-opacity:1;stroke-width:0.5"
         id="path3390"
         sodipodi:nodetypes="cccccccccc" />
    </g>
    <g
       id="g2824">
      <rect
         style="opacity:0.2;fill:#000000;fill-opacity:1"
         id="rect2658"
         width="20"
         height="20"
         x="422"
         y="59"
         ry="3" />
      <rect
         style="opacity:1;fill:#efefef;fill-opacity:1"
         id="rect2660"
         width="20"
         height="20"
         x="422"
         y="58"
         ry="3" />
      <path
         d="m 431,62 v 8 h 2 v -8 z m 0,10 v 2 h 2 v -2 z"
         style="fill:#f44336;fill-opacity:1;stroke-width:0.5"
         id="path3336" />
      <path
         id="rect5134"
         style="opacity:0.2;fill:#000000;fill-opacity:1"
         d="M 432 57 A 2 2 0 0 0 430 59 L 426.5 59 C 426.223 59 426 59.223 426 59.5 L 426 60.5 C 426 60.777 426.223 61 426.5 61 L 432 61 L 437.5 61 C 437.777 61 438 60.777 438 60.5 L 438 59.5 C 438 59.223 437.777 59 437.5 59 L 434 59 A 2 2 0 0 0 432 57 z M 432 58 A 1 1 0 0 1 433 59 A 1 1 0 0 1 432 60 A 1 1 0 0 1 431 59 A 1 1 0 0 1 432 58 z " />
      <path
         id="rect5136"
         style="opacity:1;fill:#989fa5;fill-opacity:1"
         d="M 432 56 A 2 2 0 0 0 430 58 L 426.5 58 C 426.223 58 426 58.223 426 58.5 L 426 59.5 C 426 59.777 426.223 60 426.5 60 L 432 60 L 437.5 60 C 437.777 60 438 59.777 438 59.5 L 438 58.5 C 438 58.223 437.777 58 437.5 58 L 434 58 A 2 2 0 0 0 432 56 z M 432 57 A 1 1 0 0 1 433 58 A 1 1 0 0 1 432 59 A 1 1 0 0 1 431 58 A 1 1 0 0 1 432 57 z " />
    </g>
    <g
       id="g2806">
      <rect
         style="opacity:0.2;fill:#000000;fill-opacity:1"
         id="rect2800"
         width="30"
         height="30"
         x="297"
         y="230"
         ry="5" />
      <rect
         style="opacity:1;fill:#efefef;fill-opacity:1"
         id="rect2802"
         width="30"
         height="30"
         x="297"
         y="229"
         ry="5" />
      <path
         d="m 310,235 v 12 h 3 v -12 z m 0,15 v 3 h 3 v -3 z"
         style="fill:#f44336;fill-opacity:1;stroke-width:0.75"
         id="path3418"
         sodipodi:nodetypes="cccccccccc" />
      <path
         d="m 312,227 c -1.18568,0.003 -2.20623,0.83827 -2.44336,2 H 304 c -0.554,0 -1,0.446 -1,1 v 2 c 0,0.554 0.446,1 1,1 h 16 c 0.554,0 1,-0.446 1,-1 v -2 c 0,-0.554 -0.446,-1 -1,-1 h -5.55078 c -0.23758,-1.16388 -1.26134,-1.99987 -2.44922,-2 z m 0,1.5 c 0.55228,0 1,0.44772 1,1 0,0.55228 -0.44772,1 -1,1 -0.55228,0 -1,-0.44772 -1,-1 0,-0.55228 0.44772,-1 1,-1 z"
         style="opacity:0.2;fill:#000000;fill-opacity:1"
         id="path4841" />
      <path
         id="path4746"
         style="fill:#989fa5;fill-opacity:1"
         d="m 312,226 c -1.18568,0.003 -2.20623,0.83827 -2.44336,2 H 304 c -0.554,0 -1,0.446 -1,1 v 2 c 0,0.554 0.446,1 1,1 h 16 c 0.554,0 1,-0.446 1,-1 v -2 c 0,-0.554 -0.446,-1 -1,-1 h -5.55078 c -0.23758,-1.16388 -1.26134,-1.99987 -2.44922,-2 z m 0,1.5 c 0.55228,0 1,0.44772 1,1 0,0.55228 -0.44772,1 -1,1 -0.55228,0 -1,-0.44772 -1,-1 0,-0.55228 0.44772,-1 1,-1 z"
         sodipodi:nodetypes="ccssssssssccsssss" />
    </g>
    <g
       id="g2203">
      <rect
         style="opacity:0.2;fill:#000000;fill-opacity:1"
         id="rect1430"
         width="40"
         height="40"
         x="300"
         y="153"
         ry="6" />
      <rect
         style="opacity:1;fill:#efefef;fill-opacity:1"
         id="rect1692"
         width="40"
         height="40"
         x="300"
         y="152"
         ry="6" />
      <path
         d="m 318,160 v 16 h 4 v -16 z m 0,20 v 4 h 4 v -4 z"
         style="fill:#f44336;fill-opacity:1"
         id="path2180"
         sodipodi:nodetypes="cccccccccc" />
      <path
         d="m 320,149 c -1.65685,0 -3,1.34315 -3,3 h -7 c -1.108,0 -2,0.892 -2,2 v 2 c 0,1.108 0.892,2 2,2 h 20 c 1.108,0 2,-0.892 2,-2 v -2 c 0,-1.108 -0.892,-2 -2,-2 h -7 c 0,-1.65685 -1.34315,-3 -3,-3 z m 0,2 c 0.55228,0 1,0.44772 1,1 0,0.55228 -0.44772,1 -1,1 -0.55228,0 -1,-0.44772 -1,-1 0,-0.55228 0.44772,-1 1,-1 z"
         style="opacity:0.2;fill:#000000;fill-opacity:1"
         id="path4326"
         sodipodi:nodetypes="scsssssssscssssss" />
      <path
         id="rect3861"
         style="fill:#989fa5;fill-opacity:1"
         d="m 320,148 c -1.65685,0 -3,1.34315 -3,3 h -7 c -1.108,0 -2,0.892 -2,2 v 2 c 0,1.108 0.892,2 2,2 h 20 c 1.108,0 2,-0.892 2,-2 v -2 c 0,-1.108 -0.892,-2 -2,-2 h -7 c 0,-1.65685 -1.34315,-3 -3,-3 z m 0,2 c 0.55228,0 1,0.44772 1,1 0,0.55228 -0.44772,1 -1,1 -0.55228,0 -1,-0.44772 -1,-1 0,-0.55228 0.44772,-1 1,-1 z"
         sodipodi:nodetypes="scsssssssscssssss" />
    </g>
    <g
       id="g2831">
      <rect
         style="opacity:0.2;fill:#000000;fill-opacity:1"
         id="rect2581"
         width="60"
         height="60"
         x="306"
         y="47"
         ry="9" />
      <rect
         style="opacity:1;fill:#efefef;fill-opacity:1"
         id="rect2583"
         width="60"
         height="60"
         x="306"
         y="46"
         ry="9" />
      <path
         d="m 333,58.5 v 24 h 6 v -24 z m 0,30 v 6 h 6 v -6 z"
         style="fill:#f44336;fill-opacity:1;stroke-width:1.5"
         id="path3446" />
      <path
         d="m 336,41 c -2.76142,0 -5,2.238576 -5,5 h -10 c -1.662,0 -3,1.338004 -3,3 v 3 c 0,1.661996 1.338,3 3,3 h 30 c 1.662,0 3,-1.338004 3,-3 v -3 c 0,-1.661996 -1.338,-3 -3,-3 h -10 c 0,-2.761424 -2.23858,-5 -5,-5 z m 0,3 c 1.10457,0 2,0.895431 2,2 0,1.104569 -0.89543,2 -2,2 -1.10457,0 -2,-0.895431 -2,-2 0,-1.104569 0.89543,-2 2,-2 z"
         style="opacity:0.2;fill:#000000;fill-opacity:1"
         id="path4718"
         sodipodi:nodetypes="scsssssssscssssss" />
      <path
         id="path4650"
         style="opacity:1;fill:#989fa5;fill-opacity:1"
         d="m 336,40 c -2.76142,0 -5,2.238576 -5,5 h -10 c -1.662,0 -3,1.338004 -3,3 v 3 c 0,1.661996 1.338,3 3,3 h 30 c 1.662,0 3,-1.338004 3,-3 v -3 c 0,-1.661996 -1.338,-3 -3,-3 h -10 c 0,-2.761424 -2.23858,-5 -5,-5 z m 0,3 c 1.10457,0 2,0.895431 2,2 0,1.104569 -0.89543,2 -2,2 -1.10457,0 -2,-0.895431 -2,-2 0,-1.104569 0.89543,-2 2,-2 z"
         sodipodi:nodetypes="scsssssssscssssss" />
    </g>
    <g
       id="g2835">
      <rect
         style="opacity:0.2;fill:#000000;fill-opacity:1"
         id="rect2654"
         width="160"
         height="160"
         x="64"
         y="78"
         ry="24" />
      <rect
         style="opacity:1;fill:#efefef;fill-opacity:1"
         id="rect2656"
         width="160"
         height="160"
         x="64"
         y="76"
         ry="24" />
      <path
         d="m 136,110 v 64 h 16 v -64 z m 0,80 v 16 h 16 v -16 z"
         style="fill:#f44336;fill-opacity:1;stroke-width:4"
         id="path3446-3" />
      <path
         id="path4382"
         style="opacity:0.2;fill:#000000;fill-opacity:1;stroke-width:4"
         d="M 144 62 C 137.37261 62 132 67.372603 132 74 L 104 74 C 99.568004 74 96 77.56799 96 82 L 96 90 C 96 94.431996 99.568004 98 104 98 L 184 98 C 188.432 98 192 94.431996 192 90 L 192 82 C 192 77.56799 188.432 74 184 74 L 156 74 C 156 67.372603 150.62743 62 144 62 z M 144 67 A 7 7 0 0 1 151 74 A 7 7 0 0 1 144 81 A 7 7 0 0 1 137 74 A 7 7 0 0 1 144 67 z " />
      <path
         id="path4354"
         style="fill:#989fa5;fill-opacity:1;stroke-width:4"
         d="M 144 60 C 137.37261 60 132 65.372605 132 72 L 104 72 C 99.568004 72 96 75.568004 96 80 L 96 88 C 96 92.431996 99.568004 96 104 96 L 184 96 C 188.432 96 192 92.431996 192 88 L 192 80 C 192 75.568004 188.432 72 184 72 L 156 72 C 156 65.372605 150.62739 60 144 60 z M 144 65 A 7 7 0 0 1 151 72 A 7 7 0 0 1 144 79 A 7 7 0 0 1 137 72 A 7 7 0 0 1 144 65 z " />
    </g>
  </g>
  <g
     id="Highlights">
    <path
       id="rect653"
       style="opacity:0.2;fill:#ffffff"
       d="M 80,44 C 53.408027,44 32,65.408027 32,92 v 2 C 32,67.408027 53.408027,46 80,46 h 128 c 26.59197,0 48,21.408027 48,48 V 92 C 256,65.408027 234.59197,44 208,44 Z"
       sodipodi:nodetypes="sscsscsss" />
    <path
       id="rect773"
       style="opacity:0.2;fill:#ffffff"
       d="m 312,34 c -9.97199,0 -18,8.02801 -18,18 v 1 c 0,-9.97199 8.02801,-18 18,-18 h 48 c 9.97199,0 18,8.02801 18,18 v -1 c 0,-9.97199 -8.02801,-18 -18,-18 z" />
    <path
       id="rect1135"
       style="opacity:0.2;fill:#ffffff;fill-opacity:1"
       d="m 304,144 c -6.64799,0 -12,5.35201 -12,12 v 1 c 0,-6.64799 5.35201,-12 12,-12 h 32 c 6.64799,0 12,5.35201 12,12 v -1 c 0,-6.64799 -5.35201,-12 -12,-12 z" />
    <path
       id="rect1265"
       style="opacity:0.2;fill:#ffffff;fill-opacity:1"
       d="m 300,223 c -4.986,0 -9,4.014 -9,9 v 1 c 0,-4.986 4.014,-9 9,-9 h 24 c 4.986,0 9,4.014 9,9 v -1 c 0,-4.986 -4.014,-9 -9,-9 z" />
    <path
       id="rect1368"
       style="opacity:0.2;fill:#ffffff;fill-opacity:1"
       d="m 424,54 c -3.324,0 -6,2.676003 -6,6 v 1 c 0,-3.323997 2.676,-6 6,-6 h 16 c 3.324,0 6,2.676003 6,6 v -1 c 0,-3.323997 -2.676,-6 -6,-6 z" />
    <path
       id="rect1402"
       style="opacity:0.2;fill:#ffffff;fill-opacity:1"
       d="m 420,140 c -2.216,0 -4,1.784 -4,4 v 1 c 0,-2.216 1.784,-4 4,-4 h 8 c 2.216,0 4,1.784 4,4 v -1 c 0,-2.216 -1.784,-4 -4,-4 z" />
    <path
       id="rect1436"
       style="opacity:0.2;fill:#ffffff;fill-opacity:1"
       d="m 422,102 c -2.216,0 -4,1.784 -4,4 v 1 c 0,-2.216 1.784,-4 4,-4 h 12 c 2.216,0 4,1.784 4,4 v -1 c 0,-2.216 -1.784,-4 -4,-4 z" />
  </g>
</svg>
