<?xml version="1.0" encoding="UTF-8" standalone="no"?>
<!-- Created with Inkscape (http://www.inkscape.org/) -->

<svg
   width="480"
   height="300"
   viewBox="0 0 480 300"
   version="1.1"
   id="svg5"
   inkscape:version="1.2.2 (1:1.2.2+202305151914+b0a8486541)"
   sodipodi:docname="mintinstall.svg"
   xmlns:inkscape="http://www.inkscape.org/namespaces/inkscape"
   xmlns:sodipodi="http://sodipodi.sourceforge.net/DTD/sodipodi-0.dtd"
   xmlns="http://www.w3.org/2000/svg"
   xmlns:svg="http://www.w3.org/2000/svg">
  <sodipodi:namedview
     id="namedview7"
     pagecolor="#888888"
     bordercolor="#000000"
     borderopacity="0.25"
     inkscape:showpageshadow="true"
     inkscape:pageopacity="0"
     inkscape:pagecheckerboard="0"
     inkscape:deskcolor="#888888"
     inkscape:document-units="px"
     showgrid="false"
     showborder="false"
     inkscape:zoom="2.6866667"
     inkscape:cx="240.07444"
     inkscape:cy="150"
     inkscape:window-width="1920"
     inkscape:window-height="1008"
     inkscape:window-x="0"
     inkscape:window-y="0"
     inkscape:window-maximized="1"
     inkscape:current-layer="svg5" />
  <defs
     id="defs2" />
  <g
     id="Baseplate"
     style="display:none">
    <text
       y="19.774782"
       xml:space="preserve"
       x="15.006946"
       style="font-style:normal;font-variant:normal;font-weight:normal;font-stretch:normal;line-height:0%;font-family:'DejaVu Sans';-inkscape-font-specification:'DejaVu Sans';display:inline;fill:#000000;fill-opacity:1;stroke:none;enable-background:new"
       inkscape:label="context"
       id="context"><tspan
         style="font-style:normal;font-variant:normal;font-weight:normal;font-stretch:normal;font-size:18px;line-height:1.25;font-family:'DejaVu Sans';-inkscape-font-specification:'DejaVu Sans'"
         y="19.774782"
         x="15.006946"
         sodipodi:role="line"
         id="tspan3933">apps</tspan></text>
    <text
       y="19.774782"
       xml:space="preserve"
       x="122.48839"
       style="font-style:normal;font-variant:normal;font-weight:bold;font-stretch:normal;line-height:0%;font-family:'DejaVu Sans';-inkscape-font-specification:'DejaVu Sans Bold';text-align:start;writing-mode:lr-tb;text-anchor:start;display:inline;fill:#000000;fill-opacity:1;stroke:none;enable-background:new"
       inkscape:label="icon-name"
       id="icon-name"><tspan
         style="font-style:normal;font-variant:normal;font-weight:bold;font-stretch:normal;font-size:18px;line-height:1.25;font-family:'DejaVu Sans';-inkscape-font-specification:'DejaVu Sans Bold'"
         y="19.774782"
         x="122.48839"
         sodipodi:role="line"
         id="tspan3937">mintinstall</tspan></text>
    <rect
       style="fill:#ffffff"
       id="256x256"
       width="256"
       height="256"
       x="16"
       y="28" />
    <rect
       style="fill:#ffffff"
       id="96x96"
       width="96"
       height="96"
       x="288"
       y="28" />
    <rect
       style="fill:#ffffff"
       id="64x64"
       width="64"
       height="64"
       x="288"
       y="140" />
    <rect
       style="fill:#ffffff"
       id="48x48"
       width="48"
       height="48"
       x="288"
       y="220" />
    <rect
       style="fill:#ffffff"
       id="32x32"
       width="32"
       height="32"
       x="416"
       y="52" />
    <rect
       style="fill:#ffffff"
       id="24x24"
       width="24"
       height="24"
       x="416"
       y="100" />
    <rect
       style="fill:#ffffff"
       id="22x22"
       width="22"
       height="22"
       x="417"
       y="101" />
    <rect
       style="fill:#ffffff"
       id="16x16"
       width="16"
       height="16"
       x="416"
       y="140" />
  </g>
  <g
     id="Shadow">
    <rect
       style="opacity:0.2;fill:#000000"
       id="rect651"
       width="224"
       height="224"
       x="32"
       y="46"
       ry="48" />
    <rect
       style="opacity:0.2;fill:#000000"
       id="rect769"
       width="84"
       height="85"
       x="294"
       y="34"
       ry="18" />
    <rect
       style="opacity:0.2;fill:#000000;fill-opacity:1"
       id="rect1131"
       width="56"
       height="56"
       x="292"
       y="145"
       ry="12" />
    <rect
       style="opacity:0.2;fill:#000000;fill-opacity:1"
       id="rect1261"
       width="42"
       height="42"
       x="291"
       y="224"
       ry="9" />
    <rect
       style="opacity:0.2;fill:#000000;fill-opacity:1"
       id="rect1364"
       width="28"
       height="29"
       x="418"
       y="54"
       ry="6" />
    <rect
       style="opacity:0.2;fill:#000000;fill-opacity:1"
       id="rect1398"
       width="16"
       height="16"
       x="416"
       y="141"
       ry="4" />
    <rect
       style="opacity:0.2;fill:#000000;fill-opacity:1"
       id="rect1432"
       width="20"
       height="20"
       x="418"
       y="103"
       ry="4" />
  </g>
  <g
     id="Background">
    <rect
       style="fill:#dfdfdf;fill-opacity:1"
       id="rect597"
       width="224"
       height="224"
       x="32"
       y="44"
       ry="48" />
    <rect
       style="opacity:1;fill:#dfdfdf;fill-opacity:1"
       id="rect771"
       width="84"
       height="84"
       x="294"
       y="34"
       ry="18" />
    <rect
       style="opacity:1;fill:#dfdfdf;fill-opacity:1"
       id="rect1133"
       width="56"
       height="56"
       x="292"
       y="144"
       ry="12" />
    <rect
       style="opacity:1;fill:#dfdfdf;fill-opacity:1"
       id="rect1263"
       width="42"
       height="42"
       x="291"
       y="223"
       ry="9" />
    <rect
       style="opacity:1;fill:#dfdfdf;fill-opacity:1"
       id="rect1366"
       width="28"
       height="28"
       x="418"
       y="54"
       ry="6" />
    <rect
       style="opacity:1;fill:#dfdfdf;fill-opacity:1"
       id="rect1400"
       width="16"
       height="16"
       x="416"
       y="140"
       ry="4" />
    <rect
       style="opacity:1;fill:#dfdfdf;fill-opacity:1"
       id="rect1434"
       width="20"
       height="20"
       x="418"
       y="102"
       ry="4" />
  </g>
  <g
     id="Symbols">
    <circle
       style="opacity:1;fill:#86be43;fill-opacity:1;stroke-width:0.333333"
       id="path3361"
       cx="336"
       cy="76"
       r="30" />
    <path
       id="rect3558-9-0"
       style="fill:#ffffff;fill-opacity:1"
       d="m 322,61 c -0.554,0 -1,0.446 -1,1 v 4 c 0,0.554 0.446,1 1,1 h 4 c 0.554,0 1,-0.446 1,-1 v -4 c 0,-0.554 -0.446,-1 -1,-1 z m 12,0 c -0.554,0 -1,0.446 -1,1 v 4 c 0,0.554 0.446,1 1,1 h 4 c 0.554,0 1,-0.446 1,-1 v -4 c 0,-0.554 -0.446,-1 -1,-1 z m 12,0 c -0.554,0 -1,0.446 -1,1 v 4 c 0,0.554 0.446,1 1,1 h 4 c 0.554,0 1,-0.446 1,-1 v -4 c 0,-0.554 -0.446,-1 -1,-1 z m -24,12 c -0.554,0 -1,0.446 -1,1 v 4 c 0,0.554 0.446,1 1,1 h 4 c 0.554,0 1,-0.446 1,-1 v -4 c 0,-0.554 -0.446,-1 -1,-1 z m 12,0 c -0.554,0 -1,0.446 -1,1 v 4 c 0,0.554 0.446,1 1,1 h 4 c 0.554,0 1,-0.446 1,-1 v -4 c 0,-0.554 -0.446,-1 -1,-1 z m 12,0 c -0.554,0 -1,0.446 -1,1 v 4 c 0,0.554 0.446,1 1,1 h 4 c 0.554,0 1,-0.446 1,-1 v -4 c 0,-0.554 -0.446,-1 -1,-1 z m -24,12 c -0.554,0 -1,0.446 -1,1 v 4 c 0,0.554 0.446,1 1,1 h 4 c 0.554,0 1,-0.446 1,-1 v -4 c 0,-0.554 -0.446,-1 -1,-1 z m 12,0 c -0.554,0 -1,0.446 -1,1 v 4 c 0,0.554 0.446,1 1,1 h 4 c 0.554,0 1,-0.446 1,-1 v -4 c 0,-0.554 -0.446,-1 -1,-1 z m 12,0 c -0.554,0 -1,0.446 -1,1 v 4 c 0,0.554 0.446,1 1,1 h 4 c 0.554,0 1,-0.446 1,-1 v -4 c 0,-0.554 -0.446,-1 -1,-1 z"
       sodipodi:nodetypes="sssssssssssssssssssssssssssssssssssssssssssssssssssssssssssssssssssssssssssssssss" />
    <circle
       style="opacity:1;fill:#86be43;fill-opacity:1"
       id="path3415"
       cx="144"
       cy="156"
       r="80" />
    <path
       id="rect3558-9-3"
       style="fill:#ffffff;fill-opacity:1;stroke-width:4"
       d="m 108,116 c -2.216,0 -4,1.784 -4,4 v 8 c 0,2.216 1.784,4 4,4 h 8 c 2.216,0 4,-1.784 4,-4 v -8 c 0,-2.216 -1.784,-4 -4,-4 z m 32,0 c -2.216,0 -4,1.784 -4,4 v 8 c 0,2.216 1.784,4 4,4 h 8 c 2.216,0 4,-1.784 4,-4 v -8 c 0,-2.216 -1.784,-4 -4,-4 z m 32,0 c -2.216,0 -4,1.784 -4,4 v 8 c 0,2.216 1.784,4 4,4 h 8 c 2.216,0 4,-1.784 4,-4 v -8 c 0,-2.216 -1.784,-4 -4,-4 z m -64,32 c -2.216,0 -4,1.784 -4,4 v 8 c 0,2.216 1.784,4 4,4 h 8 c 2.216,0 4,-1.784 4,-4 v -8 c 0,-2.216 -1.784,-4 -4,-4 z m 32,0 c -2.216,0 -4,1.784 -4,4 v 8 c 0,2.216 1.784,4 4,4 h 8 c 2.216,0 4,-1.784 4,-4 v -8 c 0,-2.216 -1.784,-4 -4,-4 z m 32,0 c -2.216,0 -4,1.784 -4,4 v 8 c 0,2.216 1.784,4 4,4 h 8 c 2.216,0 4,-1.784 4,-4 v -8 c 0,-2.216 -1.784,-4 -4,-4 z m -64,32 c -2.216,0 -4,1.784 -4,4 v 8 c 0,2.216 1.784,4 4,4 h 8 c 2.216,0 4,-1.784 4,-4 v -8 c 0,-2.216 -1.784,-4 -4,-4 z m 32,0 c -2.216,0 -4,1.784 -4,4 v 8 c 0,2.216 1.784,4 4,4 h 8 c 2.216,0 4,-1.784 4,-4 v -8 c 0,-2.216 -1.784,-4 -4,-4 z m 32,0 c -2.216,0 -4,1.784 -4,4 v 8 c 0,2.216 1.784,4 4,4 h 8 c 2.216,0 4,-1.784 4,-4 v -8 c 0,-2.216 -1.784,-4 -4,-4 z"
       sodipodi:nodetypes="sssssssssssssssssssssssssssssssssssssssssssssssssssssssssssssssssssssssssssssssss" />
    <circle
       style="opacity:1;fill:#86be43;fill-opacity:1"
       id="path3417"
       cx="320"
       cy="172"
       r="20" />
    <path
       id="rect3558-9"
       style="fill:#ffffff;fill-opacity:1"
       d="m 311,162 c -0.554,0 -1,0.446 -1,1 v 2 c 0,0.554 0.446,1 1,1 h 2 c 0.554,0 1,-0.446 1,-1 v -2 c 0,-0.554 -0.446,-1 -1,-1 z m 8,0 c -0.554,0 -1,0.446 -1,1 v 2 c 0,0.554 0.446,1 1,1 h 2 c 0.554,0 1,-0.446 1,-1 v -2 c 0,-0.554 -0.446,-1 -1,-1 z m 8,0 c -0.554,0 -1,0.446 -1,1 v 2 c 0,0.554 0.446,1 1,1 h 2 c 0.554,0 1,-0.446 1,-1 v -2 c 0,-0.554 -0.446,-1 -1,-1 z m -16,8 c -0.554,0 -1,0.446 -1,1 v 2 c 0,0.554 0.446,1 1,1 h 2 c 0.554,0 1,-0.446 1,-1 v -2 c 0,-0.554 -0.446,-1 -1,-1 z m 8,0 c -0.554,0 -1,0.446 -1,1 v 2 c 0,0.554 0.446,1 1,1 h 2 c 0.554,0 1,-0.446 1,-1 v -2 c 0,-0.554 -0.446,-1 -1,-1 z m 8,0 c -0.554,0 -1,0.446 -1,1 v 2 c 0,0.554 0.446,1 1,1 h 2 c 0.554,0 1,-0.446 1,-1 v -2 c 0,-0.554 -0.446,-1 -1,-1 z m -16,8 c -0.554,0 -1,0.446 -1,1 v 2 c 0,0.554 0.446,1 1,1 h 2 c 0.554,0 1,-0.446 1,-1 v -2 c 0,-0.554 -0.446,-1 -1,-1 z m 8,0 c -0.554,0 -1,0.446 -1,1 v 2 c 0,0.554 0.446,1 1,1 h 2 c 0.554,0 1,-0.446 1,-1 v -2 c 0,-0.554 -0.446,-1 -1,-1 z m 8,0 c -0.554,0 -1,0.446 -1,1 v 2 c 0,0.554 0.446,1 1,1 h 2 c 0.554,0 1,-0.446 1,-1 v -2 c 0,-0.554 -0.446,-1 -1,-1 z"
       sodipodi:nodetypes="sssssssssssssssssssssssssssssssssssssssssssssssssssssssssssssssssssssssssssssssss" />
    <circle
       style="opacity:1;fill:#86be43;fill-opacity:1"
       id="path3419"
       cx="312"
       cy="244"
       r="15" />
    <path
       id="rect3558"
       style="opacity:1;fill:#ffffff;fill-opacity:1"
       d="M 304 235 C 303.446 235 303 235.446 303 236 L 303 238 C 303 238.554 303.446 239 304 239 L 306 239 C 306.554 239 307 238.554 307 238 L 307 236 C 307 235.446 306.554 235 306 235 L 304 235 z M 311 235 C 310.446 235 310 235.446 310 236 L 310 238 C 310 238.554 310.446 239 311 239 L 313 239 C 313.554 239 314 238.554 314 238 L 314 236 C 314 235.446 313.554 235 313 235 L 311 235 z M 318 235 C 317.446 235 317 235.446 317 236 L 317 238 C 317 238.554 317.446 239 318 239 L 320 239 C 320.554 239 321 238.554 321 238 L 321 236 C 321 235.446 320.554 235 320 235 L 318 235 z M 304 242 C 303.446 242 303 242.446 303 243 L 303 245 C 303 245.554 303.446 246 304 246 L 306 246 C 306.554 246 307 245.554 307 245 L 307 243 C 307 242.446 306.554 242 306 242 L 304 242 z M 311 242 C 310.446 242 310 242.446 310 243 L 310 245 C 310 245.554 310.446 246 311 246 L 313 246 C 313.554 246 314 245.554 314 245 L 314 243 C 314 242.446 313.554 242 313 242 L 311 242 z M 318 242 C 317.446 242 317 242.446 317 243 L 317 245 C 317 245.554 317.446 246 318 246 L 320 246 C 320.554 246 321 245.554 321 245 L 321 243 C 321 242.446 320.554 242 320 242 L 318 242 z M 304 249 C 303.446 249 303 249.446 303 250 L 303 252 C 303 252.554 303.446 253 304 253 L 306 253 C 306.554 253 307 252.554 307 252 L 307 250 C 307 249.446 306.554 249 306 249 L 304 249 z M 311 249 C 310.446 249 310 249.446 310 250 L 310 252 C 310 252.554 310.446 253 311 253 L 313 253 C 313.554 253 314 252.554 314 252 L 314 250 C 314 249.446 313.554 249 313 249 L 311 249 z M 318 249 C 317.446 249 317 249.446 317 250 L 317 252 C 317 252.554 317.446 253 318 253 L 320 253 C 320.554 253 321 252.554 321 252 L 321 250 C 321 249.446 320.554 249 320 249 L 318 249 z " />
    <circle
       style="opacity:1;fill:#86be43;fill-opacity:1;stroke-width:1"
       id="path3421"
       cx="432"
       cy="68"
       r="10" />
    <path
       d="m 427.375,63 h 1.25 c 0.21308,0 0.375,0.165152 0.375,0.375 v 1.25 C 429,64.834848 428.83808,65 428.625,65 h -1.25 C 427.16192,65 427,64.834848 427,64.625 v -1.25 C 427,63.165152 427.16192,63 427.375,63 Z m 4,0 h 1.25 c 0.21308,0 0.375,0.165152 0.375,0.375 v 1.25 C 433,64.834848 432.83808,65 432.625,65 h -1.25 C 431.16192,65 431,64.834848 431,64.625 v -1.25 C 431,63.165152 431.16192,63 431.375,63 Z m 4,0 h 1.25 c 0.21308,0 0.375,0.165152 0.375,0.375 v 1.25 C 437,64.834848 436.83808,65 436.625,65 h -1.25 C 435.16192,65 435,64.834848 435,64.625 v -1.25 C 435,63.165152 435.16192,63 435.375,63 Z m -8,4 h 1.25 c 0.21308,0 0.375,0.165152 0.375,0.375 v 1.25 C 429,68.834848 428.83808,69 428.625,69 h -1.25 C 427.16192,69 427,68.834848 427,68.625 v -1.25 C 427,67.165152 427.16192,67 427.375,67 Z m 4,0 h 1.25 c 0.21308,0 0.375,0.165152 0.375,0.375 v 1.25 C 433,68.834848 432.83808,69 432.625,69 h -1.25 C 431.16192,69 431,68.834848 431,68.625 v -1.25 C 431,67.165152 431.16192,67 431.375,67 Z m 4,0 h 1.25 c 0.21308,0 0.375,0.165152 0.375,0.375 v 1.25 C 437,68.834848 436.83808,69 436.625,69 h -1.25 C 435.16192,69 435,68.834848 435,68.625 v -1.25 C 435,67.165152 435.16192,67 435.375,67 Z m -8,4 h 1.25 c 0.21308,0 0.375,0.165152 0.375,0.375 v 1.25 C 429,72.834848 428.83808,73 428.625,73 h -1.25 C 427.16192,73 427,72.834848 427,72.625 v -1.25 C 427,71.165152 427.16192,71 427.375,71 Z m 4,0 h 1.25 c 0.21308,0 0.375,0.165152 0.375,0.375 v 1.25 C 433,72.834848 432.83808,73 432.625,73 h -1.25 C 431.16192,73 431,72.834848 431,72.625 v -1.25 C 431,71.165152 431.16192,71 431.375,71 Z m 4,0 h 1.25 c 0.21308,0 0.375,0.165152 0.375,0.375 v 1.25 C 437,72.834848 436.83808,73 436.625,73 h -1.25 C 435.16192,73 435,72.834848 435,72.625 v -1.25 C 435,71.165152 435.16192,71 435.375,71 Z"
       style="color:#000000;display:inline;overflow:visible;visibility:visible;fill:#ffffff;fill-opacity:1;fill-rule:nonzero;stroke:none;stroke-width:4;marker:none;enable-background:accumulate"
       id="path4047" />
    <circle
       style="opacity:1;fill:#86be43;fill-opacity:1"
       id="path3423"
       cx="428"
       cy="112"
       r="7" />
    <path
       d="m 424.375,108 h 1.25 c 0.21308,0 0.375,0.16515 0.375,0.375 v 1.25 c 0,0.20984 -0.16192,0.375 -0.375,0.375 h -1.25 C 424.16192,110 424,109.83484 424,109.625 v -1.25 c 0,-0.20985 0.16192,-0.375 0.375,-0.375 z m 3,0 h 1.25 c 0.21308,0 0.375,0.16515 0.375,0.375 v 1.25 c 0,0.20984 -0.16192,0.375 -0.375,0.375 h -1.25 C 427.16192,110 427,109.83484 427,109.625 v -1.25 c 0,-0.20985 0.16192,-0.375 0.375,-0.375 z m 3,0 h 1.25 c 0.21308,0 0.375,0.16515 0.375,0.375 v 1.25 c 0,0.20984 -0.16192,0.375 -0.375,0.375 h -1.25 C 430.16192,110 430,109.83484 430,109.625 v -1.25 c 0,-0.20985 0.16192,-0.375 0.375,-0.375 z m -6,3 h 1.25 c 0.21308,0 0.375,0.16515 0.375,0.375 v 1.25 c 0,0.20984 -0.16192,0.375 -0.375,0.375 h -1.25 C 424.16192,113 424,112.83484 424,112.625 v -1.25 c 0,-0.20985 0.16192,-0.375 0.375,-0.375 z m 3,0 h 1.25 c 0.21308,0 0.375,0.16515 0.375,0.375 v 1.25 c 0,0.20984 -0.16192,0.375 -0.375,0.375 h -1.25 C 427.16192,113 427,112.83484 427,112.625 v -1.25 c 0,-0.20985 0.16192,-0.375 0.375,-0.375 z m 3,0 h 1.25 c 0.21308,0 0.375,0.16515 0.375,0.375 v 1.25 c 0,0.20984 -0.16192,0.375 -0.375,0.375 h -1.25 C 430.16192,113 430,112.83484 430,112.625 v -1.25 c 0,-0.20985 0.16192,-0.375 0.375,-0.375 z m -6,3 h 1.25 c 0.21308,0 0.375,0.16515 0.375,0.375 v 1.25 c 0,0.20984 -0.16192,0.375 -0.375,0.375 h -1.25 C 424.16192,116 424,115.83484 424,115.625 v -1.25 c 0,-0.20985 0.16192,-0.375 0.375,-0.375 z m 3,0 h 1.25 c 0.21308,0 0.375,0.16515 0.375,0.375 v 1.25 c 0,0.20984 -0.16192,0.375 -0.375,0.375 h -1.25 C 427.16192,116 427,115.83484 427,115.625 v -1.25 c 0,-0.20985 0.16192,-0.375 0.375,-0.375 z m 3,0 h 1.25 c 0.21308,0 0.375,0.16515 0.375,0.375 v 1.25 c 0,0.20984 -0.16192,0.375 -0.375,0.375 h -1.25 C 430.16192,116 430,115.83484 430,115.625 v -1.25 c 0,-0.20985 0.16192,-0.375 0.375,-0.375 z"
       style="color:#000000;display:inline;overflow:visible;visibility:visible;fill:#ffffff;fill-opacity:1;fill-rule:nonzero;stroke:none;stroke-width:4;marker:none;enable-background:accumulate"
       id="path4047-0"
       sodipodi:nodetypes="sssssssssssssssssssssssssssssssssssssssssssssssssssssssssssssssssssssssssssssssss" />
    <circle
       style="opacity:1;fill:#86be43;fill-opacity:1;stroke-width:1.2"
       id="path3425"
       cx="424"
       cy="148"
       r="6" />
    <path
       d="m 421.375,145 h 1.25 c 0.21308,0 0.375,0.16515 0.375,0.375 v 1.25 c 0,0.20985 -0.16192,0.375 -0.375,0.375 h -1.25 C 421.16192,147 421,146.83485 421,146.625 v -1.25 c 0,-0.20985 0.16192,-0.375 0.375,-0.375 z m 4,0 h 1.25 c 0.21308,0 0.375,0.16515 0.375,0.375 v 1.25 c 0,0.20985 -0.16192,0.375 -0.375,0.375 h -1.25 C 425.16192,147 425,146.83485 425,146.625 v -1.25 c 0,-0.20985 0.16192,-0.375 0.375,-0.375 z m -4,4 h 1.25 c 0.21308,0 0.375,0.16515 0.375,0.375 v 1.25 c 0,0.20985 -0.16192,0.375 -0.375,0.375 h -1.25 C 421.16192,151 421,150.83485 421,150.625 v -1.25 c 0,-0.20985 0.16192,-0.375 0.375,-0.375 z m 4,0 h 1.25 c 0.21308,0 0.375,0.16515 0.375,0.375 v 1.25 c 0,0.20985 -0.16192,0.375 -0.375,0.375 h -1.25 C 425.16192,151 425,150.83485 425,150.625 v -1.25 c 0,-0.20985 0.16192,-0.375 0.375,-0.375 z"
       style="color:#000000;display:inline;overflow:visible;visibility:visible;fill:#ffffff;fill-opacity:1;fill-rule:nonzero;stroke:none;stroke-width:4;marker:none;enable-background:accumulate"
       id="path4047-7"
       sodipodi:nodetypes="ssssssssssssssssssssssssssssssssssss" />
  </g>
  <g
     id="Highlights">
    <path
       id="rect653"
       style="opacity:0.5;fill:#ffffff"
       d="M 80,44 C 53.408027,44 32,65.408027 32,92 v 2 C 32,67.408027 53.408027,46 80,46 h 128 c 26.59197,0 48,21.408027 48,48 V 92 C 256,65.408027 234.59197,44 208,44 Z"
       sodipodi:nodetypes="sscsscsss" />
    <path
       id="rect773"
       style="opacity:0.5;fill:#ffffff"
       d="m 312,34 c -9.97199,0 -18,8.02801 -18,18 v 1 c 0,-9.97199 8.02801,-18 18,-18 h 48 c 9.97199,0 18,8.02801 18,18 v -1 c 0,-9.97199 -8.02801,-18 -18,-18 z" />
    <path
       id="rect1135"
       style="opacity:0.5;fill:#ffffff;fill-opacity:1"
       d="m 304,144 c -6.64799,0 -12,5.35201 -12,12 v 1 c 0,-6.64799 5.35201,-12 12,-12 h 32 c 6.64799,0 12,5.35201 12,12 v -1 c 0,-6.64799 -5.35201,-12 -12,-12 z" />
    <path
       id="rect1265"
       style="opacity:0.5;fill:#ffffff;fill-opacity:1"
       d="m 300,223 c -4.986,0 -9,4.014 -9,9 v 1 c 0,-4.986 4.014,-9 9,-9 h 24 c 4.986,0 9,4.014 9,9 v -1 c 0,-4.986 -4.014,-9 -9,-9 z" />
    <path
       id="rect1368"
       style="opacity:0.5;fill:#ffffff;fill-opacity:1"
       d="m 424,54 c -3.324,0 -6,2.676003 -6,6 v 1 c 0,-3.323997 2.676,-6 6,-6 h 16 c 3.324,0 6,2.676003 6,6 v -1 c 0,-3.323997 -2.676,-6 -6,-6 z" />
    <path
       id="rect1402"
       style="opacity:0.5;fill:#ffffff;fill-opacity:1"
       d="m 420,140 c -2.216,0 -4,1.784 -4,4 v 1 c 0,-2.216 1.784,-4 4,-4 h 8 c 2.216,0 4,1.784 4,4 v -1 c 0,-2.216 -1.784,-4 -4,-4 z" />
    <path
       id="rect1436"
       style="opacity:0.5;fill:#ffffff;fill-opacity:1"
       d="m 422,102 c -2.216,0 -4,1.784 -4,4 v 1 c 0,-2.216 1.784,-4 4,-4 h 12 c 2.216,0 4,1.784 4,4 v -1 c 0,-2.216 -1.784,-4 -4,-4 z" />
  </g>
</svg>
