<?xml version="1.0" encoding="UTF-8" standalone="no"?>
<!-- Created with Inkscape (http://www.inkscape.org/) -->

<svg
   width="480"
   height="300"
   viewBox="0 0 480 300"
   version="1.1"
   id="svg5"
   inkscape:version="1.2.2 (1:1.2.2+202305151914+b0a8486541)"
   sodipodi:docname="mintwelcome.svg"
   xmlns:inkscape="http://www.inkscape.org/namespaces/inkscape"
   xmlns:sodipodi="http://sodipodi.sourceforge.net/DTD/sodipodi-0.dtd"
   xmlns="http://www.w3.org/2000/svg"
   xmlns:svg="http://www.w3.org/2000/svg">
  <sodipodi:namedview
     id="namedview7"
     pagecolor="#888888"
     bordercolor="#000000"
     borderopacity="0.25"
     inkscape:showpageshadow="true"
     inkscape:pageopacity="0"
     inkscape:pagecheckerboard="0"
     inkscape:deskcolor="#888888"
     inkscape:document-units="px"
     showgrid="false"
     showborder="false"
     inkscape:zoom="2.6866667"
     inkscape:cx="240.44665"
     inkscape:cy="150"
     inkscape:window-width="1920"
     inkscape:window-height="1008"
     inkscape:window-x="0"
     inkscape:window-y="0"
     inkscape:window-maximized="1"
     inkscape:current-layer="svg5" />
  <defs
     id="defs2" />
  <g
     id="Baseplate"
     style="display:none">
    <text
       y="19.774782"
       xml:space="preserve"
       x="15.006946"
       style="font-style:normal;font-variant:normal;font-weight:normal;font-stretch:normal;line-height:0%;font-family:'DejaVu Sans';-inkscape-font-specification:'DejaVu Sans';display:inline;fill:#000000;fill-opacity:1;stroke:none;enable-background:new"
       inkscape:label="context"
       id="context"><tspan
         style="font-style:normal;font-variant:normal;font-weight:normal;font-stretch:normal;font-size:18px;line-height:1.25;font-family:'DejaVu Sans';-inkscape-font-specification:'DejaVu Sans'"
         y="19.774782"
         x="15.006946"
         sodipodi:role="line"
         id="tspan3933">apps</tspan></text>
    <text
       y="19.774782"
       xml:space="preserve"
       x="122.48839"
       style="font-style:normal;font-variant:normal;font-weight:bold;font-stretch:normal;line-height:0%;font-family:'DejaVu Sans';-inkscape-font-specification:'DejaVu Sans Bold';text-align:start;writing-mode:lr-tb;text-anchor:start;display:inline;fill:#000000;fill-opacity:1;stroke:none;enable-background:new"
       inkscape:label="icon-name"
       id="icon-name"><tspan
         style="font-style:normal;font-variant:normal;font-weight:bold;font-stretch:normal;font-size:18px;line-height:1.25;font-family:'DejaVu Sans';-inkscape-font-specification:'DejaVu Sans Bold'"
         y="19.774782"
         x="122.48839"
         sodipodi:role="line"
         id="tspan3937">mintwelcome</tspan></text>
    <rect
       style="fill:#ffffff"
       id="256x256"
       width="256"
       height="256"
       x="16"
       y="28" />
    <rect
       style="fill:#ffffff"
       id="96x96"
       width="96"
       height="96"
       x="288"
       y="28" />
    <rect
       style="fill:#ffffff"
       id="64x64"
       width="64"
       height="64"
       x="288"
       y="140" />
    <rect
       style="fill:#ffffff"
       id="48x48"
       width="48"
       height="48"
       x="288"
       y="220" />
    <rect
       style="fill:#ffffff"
       id="32x32"
       width="32"
       height="32"
       x="416"
       y="52" />
    <rect
       style="fill:#ffffff"
       id="24x24"
       width="24"
       height="24"
       x="416"
       y="100" />
    <rect
       style="fill:#ffffff"
       id="22x22"
       width="22"
       height="22"
       x="417"
       y="101" />
    <rect
       style="fill:#ffffff"
       id="16x16"
       width="16"
       height="16"
       x="416"
       y="140" />
  </g>
  <g
     id="Shadow">
    <rect
       style="opacity:0.2;fill:#000000"
       id="rect651"
       width="224"
       height="224"
       x="32"
       y="46"
       ry="48" />
    <rect
       style="opacity:0.2;fill:#000000"
       id="rect769"
       width="84"
       height="85"
       x="294"
       y="34"
       ry="18" />
    <rect
       style="opacity:0.2;fill:#000000;fill-opacity:1"
       id="rect1131"
       width="56"
       height="56"
       x="292"
       y="145"
       ry="12" />
    <rect
       style="opacity:0.2;fill:#000000;fill-opacity:1"
       id="rect1261"
       width="42"
       height="42"
       x="291"
       y="224"
       ry="9" />
    <rect
       style="opacity:0.2;fill:#000000;fill-opacity:1"
       id="rect1364"
       width="28"
       height="29"
       x="418"
       y="54"
       ry="6" />
    <rect
       style="opacity:0.2;fill:#000000;fill-opacity:1"
       id="rect1398"
       width="16"
       height="16"
       x="416"
       y="141"
       ry="4" />
    <rect
       style="opacity:0.2;fill:#000000;fill-opacity:1"
       id="rect1432"
       width="20"
       height="20"
       x="418"
       y="103"
       ry="4" />
  </g>
  <g
     id="Background">
    <rect
       style="fill:#86be43;fill-opacity:1"
       id="rect597"
       width="224"
       height="224"
       x="32"
       y="44"
       ry="48" />
    <rect
       style="opacity:1;fill:#86be43;fill-opacity:1"
       id="rect771"
       width="84"
       height="84"
       x="294"
       y="34"
       ry="18" />
    <rect
       style="opacity:1;fill:#86be43;fill-opacity:1"
       id="rect1133"
       width="56"
       height="56"
       x="292"
       y="144"
       ry="12" />
    <rect
       style="opacity:1;fill:#86be43;fill-opacity:1"
       id="rect1263"
       width="42"
       height="42"
       x="291"
       y="223"
       ry="9" />
    <rect
       style="opacity:1;fill:#86be43;fill-opacity:1"
       id="rect1366"
       width="28"
       height="28"
       x="418"
       y="54"
       ry="6" />
    <rect
       style="opacity:1;fill:#86be43;fill-opacity:1"
       id="rect1400"
       width="16"
       height="16"
       x="416"
       y="140"
       ry="4" />
    <rect
       style="opacity:1;fill:#86be43;fill-opacity:1"
       id="rect1434"
       width="20"
       height="20"
       x="418"
       y="102"
       ry="4" />
  </g>
  <g
     id="Symbols">
    <path
       d="m 420,144.00002 v 6 c 0,1.149 0.8563,2 2,2 h 1 2 c 1.144,0 2,-0.851 2,-2 v -3 -0.5 c 0,-0.82843 -0.67157,-1.5 -1.5,-1.5 -0.3684,7.1e-4 -0.72366,0.13698 -0.99805,0.38281 -0.27538,-0.24673 -0.6322,-0.38306 -1.00195,-0.38281 -0.82843,0 -1.5,0.67157 -1.5,1.5 v 3.5 h 1 v -3.5 c -7e-5,-0.27163 0.21673,-0.49363 0.48828,-0.5 0.004,-5e-5 0.008,-5e-5 0.0117,0 0.27163,-7e-5 0.49363,0.21673 0.5,0.48828 5e-5,0.004 5e-5,0.008 0,0.0117 v 3.5 h 1 v -3.5 c -7e-5,-0.27163 0.21673,-0.49363 0.48828,-0.5 0.004,-5e-5 0.008,-5e-5 0.0117,0 0.27614,0 0.5,0.22386 0.5,0.5 v 0.5 3 c 0,0.569 -0.428,1 -1,1 h -2 -1 c -0.5719,0 -1,-0.43 -1,-1 v -6 z"
       style="fill:#ffffff"
       id="path1762" />
    <path
       d="m 422,106.5 v 7.30845 c 0,2.02827 1.67255,3.69141 3.71289,3.69141 h 3.57422 c 2.04034,0 3.71289,-1.66314 3.71289,-3.69141 V 113.49986 110 c 0,-1.38071 -1.11929,-2.5 -2.5,-2.5 -0.54093,0 -1.06726,0.17545 -1.5,0.5 -0.43274,-0.32455 -0.95907,-0.5 -1.5,-0.5 -1.38071,0 -2.5,1.11929 -2.5,2.5 v 4.49986 h 2 v -3.05273 -1.43541 c -5e-5,-0.004 -5e-5,-0.008 0,-0.0117 -8e-5,-0.27163 0.21673,-0.49363 0.48828,-0.5 0.004,-5e-5 0.008,-5e-5 0.0117,0 0.27163,-7e-5 0.49363,0.21673 0.5,0.48828 5e-5,0.004 5e-5,0.008 0,0.0117 v 1.44908 3.05078 h 2 v -3.05273 -1.43541 c -5e-5,-0.004 -5e-5,-0.008 0,-0.0117 -7e-5,-0.27163 0.21673,-0.49363 0.48828,-0.5 0.004,-5e-5 0.008,-5e-5 0.0117,0 0.27614,0 0.5,0.22386 0.5,0.5 v 1.44908 2.05078 0.1582 c 0,1.03054 -0.82856,1.8418 -1.86523,1.8418 h -3.27149 c -1.03667,0 -1.86414,-0.81126 -1.86328,-1.8418 v -7.15806 z"
       style="fill:#000000;opacity:0.2"
       id="path1142" />
    <path
       d="m 422,106 v 7.30845 c 0,2.02827 1.67255,3.69141 3.71289,3.69141 h 3.57422 c 2.04034,0 3.71289,-1.66314 3.71289,-3.69141 V 112.99986 109.5 c 0,-1.38071 -1.11929,-2.5 -2.5,-2.5 -0.54093,0 -1.06726,0.17545 -1.5,0.5 -0.43274,-0.32455 -0.95907,-0.5 -1.5,-0.5 -1.38071,0 -2.5,1.11929 -2.5,2.5 v 4.49986 h 2 v -3.05273 -1.43541 c -5e-5,-0.004 -5e-5,-0.008 0,-0.0117 -8e-5,-0.27163 0.21673,-0.49363 0.48828,-0.5 0.004,-5e-5 0.008,-5e-5 0.0117,0 0.27163,-7e-5 0.49363,0.21673 0.5,0.48828 5e-5,0.004 5e-5,0.008 0,0.0117 v 1.44908 3.05078 h 2 v -3.05273 -1.43541 c -5e-5,-0.004 -5e-5,-0.008 0,-0.0117 -7e-5,-0.27163 0.21673,-0.49363 0.48828,-0.5 0.004,-5e-5 0.008,-5e-5 0.0117,0 0.27614,0 0.5,0.22386 0.5,0.5 v 1.44908 2.05078 0.1582 c 0,1.03054 -0.82856,1.8418 -1.86523,1.8418 h -3.27149 c -1.03667,0 -1.86414,-0.81126 -1.86328,-1.8418 v -7.15806 z"
       style="fill:#ffffff"
       id="path354"
       sodipodi:nodetypes="csssscsscsscccccscscccccccscsccsssccc" />
    <path
       d="m 422.99995,61 v 11.857422 c 0,2.825092 2.31749,5.142578 5.14258,5.142578 h 7.71484 c 2.77699,0 5.06551,-2.240507 5.14258,-5 v -5.941406 c 1.4e-4,-0.01953 1.4e-4,-0.03906 0,-0.05859 0,-2.209139 -1.79086,-4 -4,-4 -0.0202,-1.53e-4 -0.0404,-1.53e-4 -0.0605,0 -0.88818,0.01397 -1.74645,0.323191 -2.43945,0.878902 C 433.79074,63.310388 432.90899,63.000399 432,63 c -0.0202,-1.53e-4 -0.0404,-1.53e-4 -0.0605,0 -2.18546,0.03308 -3.9397,1.814292 -3.93945,4 v 6 h 3 V 70.871094 67 c 0,-0.552285 0.44772,-1 1,-1 0.55228,0 1,0.447715 1,1 V 70.873047 73 h 3 v -2.128906 -3.8125 c 1.4e-4,-0.01953 1.4e-4,-0.03906 0,-0.05859 0,-0.552285 0.44772,-1 1,-1 0.55228,0 1,0.447715 1,1 V 70.873047 72.5 c 0,1.5 -1,2.5 -2.64258,2.5 h -6.81445 c -1.54297,0 -2.54297,-1 -2.54297,-2.5 V 61 Z"
       style="fill:#000000;opacity:0.2"
       id="path1923"
       sodipodi:nodetypes="csssccccccccccccsssccccccsscsssscc" />
    <path
       d="m 422.99995,60 v 11.857422 c 0,2.825092 2.31749,5.142578 5.14258,5.142578 h 7.71484 c 2.77699,0 5.06551,-2.240507 5.14258,-5 v -5.941406 c 1.4e-4,-0.01953 1.4e-4,-0.03906 0,-0.05859 0,-2.209139 -1.79086,-4 -4,-4 -0.0202,-1.53e-4 -0.0404,-1.53e-4 -0.0605,0 -0.88818,0.01397 -1.74645,0.323191 -2.43945,0.878902 C 433.79074,62.310388 432.90899,62.000399 432,62 c -0.0202,-1.53e-4 -0.0404,-1.53e-4 -0.0605,0 -2.18546,0.03308 -3.9397,1.814292 -3.93945,4 v 6 h 3 V 69.871094 66 c 0,-0.552285 0.44772,-1 1,-1 0.55228,0 1,0.447715 1,1 V 69.873047 72 h 3 v -2.128906 -3.8125 c 1.4e-4,-0.01953 1.4e-4,-0.03906 0,-0.05859 0,-0.552285 0.44772,-1 1,-1 0.55228,0 1,0.447715 1,1 V 69.873047 71.5 c 0,1.5 -1,2.5 -2.64258,2.5 h -6.81445 c -1.54297,0 -2.54297,-1 -2.54297,-2.5 V 60 Z"
       style="fill:#ffffff"
       id="path1951" />
    <path
       d="m 299,233 v 16.61573 c 0,4.05654 3.34705,7.38476 7.42774,7.38476 h 10.14479 c 4.08069,0 7.42773,-3.32822 7.42773,-7.38476 v -0.61524 -1 -7.48096 c 10e-6,-0.007 10e-6,-0.013 0,-0.0195 0,-3.03757 -2.46243,-5.5 -5.5,-5.5 -1.27757,6.8e-4 -2.51506,0.44609 -3.5,1.25977 -0.98495,-0.81368 -2.22243,-1.25909 -3.5,-1.25977 -3.03757,0 -5.5,2.46243 -5.5,5.5 v 9.5 h 4 v -4.20898 -5.29102 c 0,-0.82843 0.67157,-1.5 1.5,-1.5 0.82843,0 1.5,0.67157 1.5,1.5 v 5.29102 4.20898 h 4 v -4.20898 -5.27149 c 10e-6,-0.007 10e-6,-0.013 0,-0.0195 0,-0.82843 0.67157,-1.5 1.5,-1.5 0.82843,0 1.5,0.67157 1.5,1.5 v 5.29151 2.20898 1 0.31641 c 0,2.06107 -1.65518,3.68359 -3.72852,3.68359 h -9.54322 c -2.07334,0 -3.73025,-1.62252 -3.72852,-3.68359 v -16.3169 z"
       style="opacity:0.2;fill:#000000"
       id="path2112"
       sodipodi:nodetypes="csssscccccccscccsssccccccsscccsssccc" />
    <path
       d="m 299,231.99975 v 16.61573 c 0,4.05654 3.34705,7.38476 7.42774,7.38476 h 10.14479 c 4.08069,0 7.42773,-3.32822 7.42773,-7.38476 v -0.61524 -1 -7.48096 c 10e-6,-0.007 10e-6,-0.013 0,-0.0195 0,-3.03757 -2.46243,-5.5 -5.5,-5.5 -1.27757,6.8e-4 -2.51506,0.44609 -3.5,1.25977 -0.98495,-0.81368 -2.22243,-1.25909 -3.5,-1.25977 -3.03757,0 -5.5,2.46243 -5.5,5.5 v 9.5 h 4 v -4.20898 -5.29102 c 0,-0.82843 0.67157,-1.5 1.5,-1.5 0.82843,0 1.5,0.67157 1.5,1.5 v 5.29102 4.20898 h 4 v -4.20898 -5.27149 c 10e-6,-0.007 10e-6,-0.013 0,-0.0195 0,-0.82843 0.67157,-1.5 1.5,-1.5 0.82843,0 1.5,0.67157 1.5,1.5 v 5.29151 2.20898 1 0.31641 c 0,2.06107 -1.65518,3.68359 -3.72852,3.68359 h -9.54322 c -2.07334,0 -3.73025,-1.62252 -3.72852,-3.68359 v -16.3169 z"
       style="fill:#ffffff"
       id="path2140"
       sodipodi:nodetypes="csssscccccccscccsssccccccsscccsssccc" />
    <path
       d="m 301.99989,156 v 23.71484 c 0,5.65019 4.63497,10.28516 10.28516,10.28516 h 15.42969 c 5.55398,0 10.13102,-4.48101 10.28515,-10 v -12.88241 c 2.9e-4,-0.0391 2.9e-4,-0.0781 0,-0.11718 0,-4.41827 -3.58172,-8 -8,-8 -0.0404,-3e-4 -0.0807,-3e-4 -0.1211,0 -1.77636,0.0279 -3.49289,0.64639 -4.8789,1.75781 -1.41852,-1.13704 -3.18201,-1.75702 -5,-1.75781 -0.0404,-3.1e-4 -0.0807,-3.1e-4 -0.12109,0 -4.37092,0.0662 -7.87941,3.62858 -7.87891,8 V 180 h 6 v -4.25781 -8.74178 c 0,-1.10457 0.89543,-2 2,-2 1.10457,0 2,0.89543 2,2 V 175.74609 180 h 6 v -4.25781 -8.6246 c 2.9e-4,-0.0391 2.9e-4,-0.0781 0,-0.11718 0,-1.10457 0.89543,-2 2,-2 1.10457,0 2,0.89543 2,2 V 175.74609 179 c 0,3 -2,5 -5.28515,5 h -13.62891 c -3.08594,0 -5.08594,-2 -5.08594,-5 v -23 z"
       style="opacity:0.2;fill:#000000"
       id="path2357"
       sodipodi:nodetypes="csssccccccccccccsssccccccsscsssscc" />
    <path
       d="m 301.99989,154.88282 v 23.71484 c 0,5.65019 4.63497,10.28516 10.28516,10.28516 h 15.42969 c 5.55398,0 10.13102,-4.48101 10.28515,-10 v -12.88241 c 2.9e-4,-0.0391 2.9e-4,-0.0781 0,-0.11718 0,-4.41827 -3.58172,-8 -8,-8 -0.0404,-3e-4 -0.0807,-3e-4 -0.1211,0 -1.77636,0.0279 -3.49289,0.64639 -4.8789,1.75781 -1.41852,-1.13704 -3.18201,-1.75702 -5,-1.75781 -0.0404,-3.1e-4 -0.0807,-3.1e-4 -0.12109,0 -4.37092,0.0662 -7.87941,3.62858 -7.87891,8 v 12.99959 h 6 v -4.25781 -8.74178 c 0,-1.10457 0.89543,-2 2,-2 1.10457,0 2,0.89543 2,2 v 8.74568 4.25391 h 6 v -4.25781 -8.6246 c 2.9e-4,-0.0391 2.9e-4,-0.0781 0,-0.11718 0,-1.10457 0.89543,-2 2,-2 1.10457,0 2,0.89543 2,2 v 8.74568 3.25391 c 0,3 -2,5 -5.28515,5 h -13.62891 c -3.08594,0 -5.08594,-2 -5.08594,-5 v -23 z"
       style="fill:#ffffff"
       id="path2385" />
    <path
       d="m 311,53.00049 v 33.2311 c 0,8.113 6.69403,14.76937 14.85532,14.76937 h 20.28936 c 8.1613,0 14.85531,-6.65637 14.85531,-14.76937 V 85.00113 83.00115 68.03939 c 10e-6,-0.014 10e-6,-0.026 0,-0.039 0,-6.07508 -4.92481,-10.99988 -10.99989,-10.99988 -2.55511,0.001 -5.03006,0.89217 -6.99992,2.51951 -1.96988,-1.62734 -4.44481,-2.51815 -6.99993,-2.51951 -6.07507,0 -10.99988,4.9248 -10.99988,10.99988 v 18.9998 h 7.99991 V 78.58232 68.00039 c 0,-1.65684 1.34313,-2.99997 2.99997,-2.99997 1.65684,0 2.99997,1.34313 2.99997,2.99997 v 10.58193 8.41787 h 7.99991 V 78.58232 68.03945 c 2e-5,-0.014 2e-5,-0.026 0,-0.039 0,-1.65684 1.34313,-2.99997 2.99997,-2.99997 1.65684,0 2.99997,1.34313 2.99997,2.99997 v 10.58291 4.41791 1.99998 0.63281 c 0,4.1221 -3.31032,7.3671 -7.45696,7.3671 h -19.08624 c -4.14663,0 -7.46042,-3.245 -7.45696,-7.3671 V 53.00061 Z"
       style="opacity:0.2;fill:#000000;stroke-width:1.99998"
       id="path2168" />
    <path
       d="m 311,52 v 33.231099 c 0,8.113 6.69403,14.769381 14.85532,14.769381 h 20.28936 c 8.1613,0 14.85531,-6.656381 14.85531,-14.769381 V 84.00064 82.00066 67.0389 c 10e-6,-0.014 10e-6,-0.026 0,-0.039 0,-6.07508 -4.92481,-10.99988 -10.99989,-10.99988 -2.55511,10e-4 -5.03006,0.89217 -6.99992,2.51951 -1.96988,-1.62734 -4.44481,-2.51815 -6.99993,-2.51951 -6.07507,0 -10.99988,4.9248 -10.99988,10.99988 v 18.9998 h 7.99991 V 77.58183 66.9999 c 0,-1.65684 1.34313,-2.99997 2.99997,-2.99997 1.65684,0 2.99997,1.34313 2.99997,2.99997 v 10.58193 8.41787 h 7.99991 V 77.58183 67.03896 c 2e-5,-0.014 2e-5,-0.026 0,-0.039 0,-1.65684 1.34313,-2.99997 2.99997,-2.99997 1.65684,0 2.99997,1.34313 2.99997,2.99997 v 10.58291 4.41791 1.99998 0.63281 c 0,4.1221 -3.31032,7.3671 -7.45696,7.3671 h -19.08624 c -4.14663,0 -7.46042,-3.245 -7.45696,-7.3671 V 52.00012 Z"
       style="fill:#ffffff;stroke-width:1.99998"
       id="path2196" />
    <path
       d="m 71.999625,90.000005 v 94.859355 c 0,22.60076 18.53988,41.14064 41.140645,41.14064 h 61.71875 c 22.21591,0 40.52407,-17.92404 41.1406,-40 v -51.52964 c 0.001,-0.1564 0.001,-0.3124 0,-0.46872 0,-17.67308 -14.32688,-32 -32,-32 -0.16161,-10e-4 -0.3228,-10e-4 -0.4844,0 -7.10544,0.1116 -13.97156,2.58556 -19.51561,7.03124 -5.67406,-4.54816 -12.72802,-7.02808 -19.99999,-7.03124 -0.1616,-10e-4 -0.3228,-10e-4 -0.48436,0 -17.48367,0.2648 -31.51764,14.51432 -31.51564,32 V 186 h 24 v -17.03123 -34.96713 c 0,-4.41827 3.58172,-7.99999 8,-7.99999 4.41828,0 8,3.58172 8,7.99999 V 168.98437 186 h 24 v -17.03123 -34.4984 c 0.001,-0.15641 0.001,-0.31241 0,-0.46873 0,-4.41827 3.58172,-7.99999 8,-7.99999 4.41828,0 8,3.58172 8,7.99999 V 168.98437 182 c 0,12 -8,20 -21.1406,20 h -54.51564 c -12.34376,0 -20.343755,-8 -20.343755,-20 V 90.000005 Z"
       style="opacity:0.2;fill:#000000;stroke-width:4"
       id="path2413"
       sodipodi:nodetypes="csssccccccccccccsssccccccsscsssscc" />
    <path
       d="m 71.99962,88 v 94.85935 C 71.99962,205.46012 90.5395,224 113.14027,224 h 61.71875 c 22.21591,0 40.52407,-17.92404 41.1406,-40 v -51.52965 c 0.001,-0.15639 0.001,-0.31239 0,-0.46871 0,-17.67308 -14.32688,-32 -32,-32 -0.16161,-10e-4 -0.3228,-10e-4 -0.4844,0 -7.10544,0.1116 -13.97156,2.58556 -19.51561,7.03124 -5.67406,-4.54816 -12.72802,-7.02808 -19.99999,-7.03124 -0.1616,-10e-4 -0.3228,-10e-4 -0.48436,0 -17.48367,0.2648 -31.51764,14.51432 -31.51564,32 V 184 h 24 v -17.03123 -34.96713 c 0,-4.41827 3.58172,-7.99999 8,-7.99999 4.41828,0 8,3.58172 8,7.99999 V 166.98437 184 h 24 v -17.03123 -34.4984 c 0.001,-0.1564 0.001,-0.3124 0,-0.46872 0,-4.41828 3.58172,-8 8,-8 4.41828,0 8,3.58172 8,8 v 34.98272 13.01562 c 0,12.00001 -8,20.00001 -21.1406,20.00001 h -54.51564 c -12.34376,0 -20.34376,-8 -20.34376,-20.00001 V 88 Z"
       style="opacity:1;fill:#ffffff;stroke-width:4"
       id="path2441" />
  </g>
  <g
     id="Highlights">
    <path
       id="rect653"
       style="opacity:0.2;fill:#ffffff"
       d="M 80,44 C 53.408027,44 32,65.408027 32,92 v 2 C 32,67.408027 53.408027,46 80,46 h 128 c 26.59197,0 48,21.408027 48,48 V 92 C 256,65.408027 234.59197,44 208,44 Z"
       sodipodi:nodetypes="sscsscsss" />
    <path
       id="rect773"
       style="opacity:0.2;fill:#ffffff"
       d="m 312,34 c -9.97199,0 -18,8.02801 -18,18 v 1 c 0,-9.97199 8.02801,-18 18,-18 h 48 c 9.97199,0 18,8.02801 18,18 v -1 c 0,-9.97199 -8.02801,-18 -18,-18 z" />
    <path
       id="rect1135"
       style="opacity:0.2;fill:#ffffff;fill-opacity:1"
       d="m 304,144 c -6.64799,0 -12,5.35201 -12,12 v 1 c 0,-6.64799 5.35201,-12 12,-12 h 32 c 6.64799,0 12,5.35201 12,12 v -1 c 0,-6.64799 -5.35201,-12 -12,-12 z" />
    <path
       id="rect1265"
       style="opacity:0.2;fill:#ffffff;fill-opacity:1"
       d="m 300,223 c -4.986,0 -9,4.014 -9,9 v 1 c 0,-4.986 4.014,-9 9,-9 h 24 c 4.986,0 9,4.014 9,9 v -1 c 0,-4.986 -4.014,-9 -9,-9 z" />
    <path
       id="rect1368"
       style="opacity:0.2;fill:#ffffff;fill-opacity:1"
       d="m 424,54 c -3.324,0 -6,2.676003 -6,6 v 1 c 0,-3.323997 2.676,-6 6,-6 h 16 c 3.324,0 6,2.676003 6,6 v -1 c 0,-3.323997 -2.676,-6 -6,-6 z" />
    <path
       id="rect1402"
       style="opacity:0.2;fill:#ffffff;fill-opacity:1"
       d="m 420,140 c -2.216,0 -4,1.784 -4,4 v 1 c 0,-2.216 1.784,-4 4,-4 h 8 c 2.216,0 4,1.784 4,4 v -1 c 0,-2.216 -1.784,-4 -4,-4 z" />
    <path
       id="rect1436"
       style="opacity:0.2;fill:#ffffff;fill-opacity:1"
       d="m 422,102 c -2.216,0 -4,1.784 -4,4 v 1 c 0,-2.216 1.784,-4 4,-4 h 12 c 2.216,0 4,1.784 4,4 v -1 c 0,-2.216 -1.784,-4 -4,-4 z" />
  </g>
</svg>
