<?xml version="1.0" encoding="UTF-8" standalone="no"?>
<!-- Created with Inkscape (http://www.inkscape.org/) -->

<svg
   width="480"
   height="300"
   viewBox="0 0 480 300"
   version="1.1"
   id="svg5"
   inkscape:version="1.2.2 (1:1.2.2+202305151914+b0a8486541)"
   sodipodi:docname="nvidia-settings.svg"
   xmlns:inkscape="http://www.inkscape.org/namespaces/inkscape"
   xmlns:sodipodi="http://sodipodi.sourceforge.net/DTD/sodipodi-0.dtd"
   xmlns="http://www.w3.org/2000/svg"
   xmlns:svg="http://www.w3.org/2000/svg">
  <sodipodi:namedview
     id="namedview7"
     pagecolor="#888888"
     bordercolor="#000000"
     borderopacity="0.25"
     inkscape:showpageshadow="true"
     inkscape:pageopacity="0"
     inkscape:pagecheckerboard="0"
     inkscape:deskcolor="#888888"
     inkscape:document-units="px"
     showgrid="false"
     showborder="false"
     inkscape:zoom="2.6866667"
     inkscape:cx="240.44665"
     inkscape:cy="150"
     inkscape:window-width="1920"
     inkscape:window-height="1008"
     inkscape:window-x="0"
     inkscape:window-y="0"
     inkscape:window-maximized="1"
     inkscape:current-layer="svg5" />
  <defs
     id="defs2">
    <mask
       maskUnits="userSpaceOnUse"
       id="mask1873">
      <rect
         style="opacity:1;fill:#ffffff;fill-opacity:1"
         id="rect1875"
         width="28"
         height="28"
         x="418"
         y="54"
         ry="6" />
    </mask>
    <mask
       maskUnits="userSpaceOnUse"
       id="mask1931">
      <rect
         style="opacity:1;fill:#ffffff;fill-opacity:1"
         id="rect1933"
         width="224"
         height="224"
         x="32"
         y="44"
         ry="48" />
    </mask>
    <mask
       maskUnits="userSpaceOnUse"
       id="mask1937">
      <rect
         style="opacity:1;fill:#ffffff;fill-opacity:1"
         id="rect1939"
         width="56"
         height="56"
         x="292"
         y="144"
         ry="12" />
    </mask>
    <mask
       maskUnits="userSpaceOnUse"
       id="mask2078">
      <rect
         style="opacity:1;fill:#ffffff;fill-opacity:1"
         id="rect2080"
         width="20"
         height="20"
         x="418"
         y="102"
         ry="4" />
    </mask>
    <mask
       maskUnits="userSpaceOnUse"
       id="mask2310">
      <rect
         style="opacity:1;fill:#ffffff;fill-opacity:1"
         id="rect2312"
         width="16"
         height="16"
         x="416"
         y="140"
         ry="4" />
    </mask>
    <mask
       maskUnits="userSpaceOnUse"
       id="mask2490">
      <rect
         style="opacity:1;fill:#ffffff;fill-opacity:1"
         id="rect2492"
         width="84"
         height="84"
         x="294"
         y="34"
         ry="18" />
    </mask>
    <mask
       maskUnits="userSpaceOnUse"
       id="mask2496">
      <rect
         style="opacity:1;fill:#ffffff;fill-opacity:1"
         id="rect2498"
         width="42"
         height="42"
         x="291"
         y="223"
         ry="9" />
    </mask>
  </defs>
  <g
     id="Baseplate"
     style="display:none">
    <text
       y="19.774782"
       xml:space="preserve"
       x="15.006946"
       style="font-style:normal;font-variant:normal;font-weight:normal;font-stretch:normal;line-height:0%;font-family:'DejaVu Sans';-inkscape-font-specification:'DejaVu Sans';display:inline;fill:#000000;fill-opacity:1;stroke:none;enable-background:new"
       inkscape:label="context"
       id="context"><tspan
         style="font-style:normal;font-variant:normal;font-weight:normal;font-stretch:normal;font-size:18px;line-height:1.25;font-family:'DejaVu Sans';-inkscape-font-specification:'DejaVu Sans'"
         y="19.774782"
         x="15.006946"
         sodipodi:role="line"
         id="tspan3933">apps</tspan></text>
    <text
       y="19.774782"
       xml:space="preserve"
       x="122.48839"
       style="font-style:normal;font-variant:normal;font-weight:bold;font-stretch:normal;line-height:0%;font-family:'DejaVu Sans';-inkscape-font-specification:'DejaVu Sans Bold';text-align:start;writing-mode:lr-tb;text-anchor:start;display:inline;fill:#000000;fill-opacity:1;stroke:none;enable-background:new"
       inkscape:label="icon-name"
       id="icon-name"><tspan
         style="font-style:normal;font-variant:normal;font-weight:bold;font-stretch:normal;font-size:18px;line-height:1.25;font-family:'DejaVu Sans';-inkscape-font-specification:'DejaVu Sans Bold'"
         y="19.774782"
         x="122.48839"
         sodipodi:role="line"
         id="tspan3937">nvidia-settings</tspan></text>
    <rect
       style="fill:#ffffff"
       id="256x256"
       width="256"
       height="256"
       x="16"
       y="28" />
    <rect
       style="fill:#ffffff"
       id="96x96"
       width="96"
       height="96"
       x="288"
       y="28" />
    <rect
       style="fill:#ffffff"
       id="64x64"
       width="64"
       height="64"
       x="288"
       y="140" />
    <rect
       style="fill:#ffffff"
       id="48x48"
       width="48"
       height="48"
       x="288"
       y="220" />
    <rect
       style="fill:#ffffff"
       id="32x32"
       width="32"
       height="32"
       x="416"
       y="52" />
    <rect
       style="fill:#ffffff"
       id="24x24"
       width="24"
       height="24"
       x="416"
       y="100" />
    <rect
       style="fill:#ffffff"
       id="22x22"
       width="22"
       height="22"
       x="417"
       y="101" />
    <rect
       style="fill:#ffffff"
       id="16x16"
       width="16"
       height="16"
       x="416"
       y="140" />
  </g>
  <g
     id="Shadow">
    <rect
       style="opacity:0.2;fill:#000000"
       id="rect651"
       width="224"
       height="224"
       x="32"
       y="46"
       ry="48" />
    <rect
       style="opacity:0.2;fill:#000000"
       id="rect769"
       width="84"
       height="85"
       x="294"
       y="34"
       ry="18" />
    <rect
       style="opacity:0.2;fill:#000000;fill-opacity:1"
       id="rect1131"
       width="56"
       height="56"
       x="292"
       y="145"
       ry="12" />
    <rect
       style="opacity:0.2;fill:#000000;fill-opacity:1"
       id="rect1261"
       width="42"
       height="42"
       x="291"
       y="224"
       ry="9" />
    <rect
       style="opacity:0.2;fill:#000000;fill-opacity:1"
       id="rect1364"
       width="28"
       height="29"
       x="418"
       y="54"
       ry="6" />
    <rect
       style="opacity:0.2;fill:#000000;fill-opacity:1"
       id="rect1398"
       width="16"
       height="16"
       x="416"
       y="141"
       ry="4" />
    <rect
       style="opacity:0.2;fill:#000000;fill-opacity:1"
       id="rect1432"
       width="20"
       height="20"
       x="418"
       y="103"
       ry="4" />
  </g>
  <g
     id="Background">
    <path
       id="rect597"
       style="fill:#363636;fill-opacity:1"
       d="M 80,44 C 53.408027,44 32,65.408027 32,92 v 128 c 0,26.59197 21.408027,48 48,48 h 55.99805 v -60.76758 c -1.25123,-0.0696 -2.14618,-0.13146 -3.375,-0.25 -56.718983,-5.35316 -76.968753,-63.84375 -76.968753,-63.84375 0,0 35.733416,-34.9071 76.968753,-38.21875 1.21049,-0.0928 2.15789,-0.17735 3.375,-0.21875 V 44 Z m 55.99805,60.70117 v 9.96875 c 33.66246,-1.00456 56.09375,29 56.09375,29 0,0 -23.8867,33.1875 -49.5,33.1875 -2.21907,0 -4.63914,-0.23223 -6.59375,-0.625 v 9.25 c 1.83195,0.19506 3.70935,0.28125 5.6875,0.28125 36.54996,0 71.65625,-42.625 71.65625,-42.625 0,0 -29.60778,-38.79497 -75.25,-38.5 -0.69589,0.004 -1.39122,0.039 -2.09375,0.0625 z m 0,80.78125 c -1.27025,-0.13523 -2.16894,-0.28627 -3.375,-0.5 -31.4578,-5.60834 -40.218753,-38.3125 -40.218753,-38.3125 0,0 15.133213,-16.72405 40.218753,-19.4375 1.22444,-0.1311 2.11939,-0.2376 3.375,-0.3125 v -12.25 c -1.23285,0.0389 -2.17694,0.13505 -3.375,0.21875 -37.228545,2.84602 -55.875003,30.34375 -55.875003,30.34375 0,0 14.251916,45.88867 55.875003,51.125 1.22199,0.15517 2.10942,0.2922 3.375,0.375 z m 0,11.25 v 10.5 c 1.52098,0.0845 3.04262,0.15625 4.625,0.15625 29.92087,0 82.72948,-15.29065 105.375,-34.25 -3.32327,-3.36798 -19.48871,-11.05622 -23.4375,-14.21875 -23.81706,20.55843 -48.42534,37.90625 -82.4375,37.90625 -1.40297,0 -2.78199,-0.006 -4.125,-0.0937 z m 0,-69.8125 v 11.59375 c 9.97989,2.23472 13.17321,8.10913 20.25,19.90625 l 17.5625,-14.8125 c 0,0 -12.81216,-16.8125 -34.40625,-16.8125 -1.04416,-3.7e-4 -2.40015,0.0651 -3.40625,0.125 z m 0,11.59375 c -1.14702,-0.25685 -2.02211,-0.49278 -3.375,-0.65625 h -0.0625 c -13.16624,-1.58001 -23.4375,10.75 -23.4375,10.75 0,0 5.76521,20.69743 23.5,26.65625 1.18383,0.39802 2.08274,0.70907 3.375,0.96875 z" />
    <path
       id="rect771"
       style="opacity:1;fill:#363636;fill-opacity:1"
       d="m 312,34 c -9.97199,0 -18,8.02801 -18,18 v 48 c 0,9.97199 8.02801,18 18,18 h 21 V 95.207031 c -0.46921,-0.0261 -0.81067,-0.05326 -1.27148,-0.09766 C 310.4589,93.101937 302.875,71.177734 302.875,71.177734 c 0,0 13.39027,-13.099938 28.85352,-14.341796 0.45394,-0.0348 0.81507,-0.06067 1.27148,-0.07617 V 34 Z m 21,22.759766 v 3.738281 c 12.62343,-0.37671 21.0293,10.871094 21.0293,10.871094 0,0 -8.95752,12.451171 -18.5625,12.451171 -0.83216,0 -1.73381,-0.08904 -2.4668,-0.236328 v 3.46875 c 0.68698,0.07312 1.39491,0.107422 2.13672,0.107422 13.70624,0 26.86719,-15.984375 26.86719,-15.984375 0,0 -11.10487,-14.54811 -28.22071,-14.4375 -0.26096,0.0017 -0.51975,0.01248 -0.7832,0.02148 z m 0,26.824218 V 69.435547 c -0.43013,-0.09631 -0.76415,-0.184794 -1.27148,-0.246094 h -0.0215 c -4.93733,-0.592499 -8.78711,4.027344 -8.78711,4.027344 0,0 2.15805,7.767395 8.8086,10.001953 0.44394,0.14926 0.78689,0.267834 1.27148,0.365234 z m 0,-14.148437 c 3.74247,0.838009 4.93605,3.042881 7.58984,7.466797 l 6.58594,-5.554688 c 0,0 -4.80456,-6.304687 -12.90234,-6.304687 -0.39156,-1e-4 -0.89615,0.02047 -1.27344,0.04297 z m 0,-4.349609 v -4.587891 c -0.46232,0.0146 -0.8222,0.04477 -1.27148,0.07617 -13.9607,1.067249 -20.94727,11.386719 -20.94727,11.386719 0,0 5.33861,17.200434 20.94727,19.164062 0.45825,0.05814 0.79689,0.107572 1.27148,0.138672 v -4.208984 c -0.47635,-0.05072 -0.81921,-0.115213 -1.27148,-0.195313 -11.79668,-2.103129 -15.07032,-14.361328 -15.07032,-14.361328 0,0 5.66325,-6.277373 15.07032,-7.294922 0.45917,-0.04916 0.80063,-0.08909 1.27148,-0.117187 z m 0,26.177734 v 3.943359 c 0.57037,0.0317 1.14683,0.05469 1.74023,0.05469 11.22032,0 31.01771,-5.728127 39.50977,-12.837891 -1.24622,-1.262989 -7.30631,-4.142176 -8.78711,-5.328125 -8.93139,7.709412 -18.16146,14.212891 -30.91601,14.212891 -0.52612,0 -1.04325,-0.01192 -1.54688,-0.04492 z" />
    <path
       id="rect1133"
       style="opacity:1;fill:#363636;fill-opacity:1"
       d="m 304,144 c -6.64799,0 -12,5.35201 -12,12 v 32 c 0,6.64799 5.35201,12 12,12 h 14 v -15.19531 c -0.31281,-0.0174 -0.54046,-0.0349 -0.84766,-0.0645 -14.17974,-1.33829 -19.23437,-15.95507 -19.23437,-15.95507 0,0 8.92554,-8.73265 19.23437,-9.56055 0.30262,-0.0232 0.54339,-0.0405 0.84766,-0.0508 V 144 Z m 14,15.17383 v 2.49219 c 8.41561,-0.25114 14.01953,7.24804 14.01953,7.24804 0,0 -5.97169,8.29883 -12.375,8.29883 -0.55477,0 -1.15587,-0.058 -1.64453,-0.15625 v 2.3125 c 0.45799,0.0487 0.93124,0.0723 1.42578,0.0723 9.13749,0 17.91016,-10.65625 17.91016,-10.65625 0,0 -7.40195,-9.6987 -18.8125,-9.625 -0.17398,0.001 -0.34781,0.008 -0.52344,0.0137 z m 0,20.19531 c -0.31756,-0.0338 -0.54615,-0.0755 -0.84766,-0.12891 -7.86445,-1.40208 -10.04687,-9.57421 -10.04687,-9.57421 0,0 3.7755,-4.18492 10.04687,-4.86329 0.30611,-0.0328 0.53376,-0.0594 0.84766,-0.0781 v -3.05859 c -0.30821,0.01 -0.54814,0.0299 -0.84766,0.0508 -9.30713,0.7115 -13.96484,7.58984 -13.96484,7.58984 0,0 3.55907,11.46826 13.96484,12.77734 0.3055,0.0388 0.53127,0.0711 0.84766,0.0918 z m 0,2.80664 v 2.62891 c 0.38025,0.0211 0.76456,0.0352 1.16016,0.0352 7.48021,0 20.67847,-3.8168 26.33984,-8.55664 -0.83081,-0.842 -4.87022,-2.7621 -5.85742,-3.55273 -5.95427,5.1396 -12.10829,9.47461 -20.61133,9.47461 -0.35074,0 -0.6955,-0.007 -1.03125,-0.0293 z m 0,-17.45117 v 2.90039 c 2.49498,0.55867 3.29135,2.02729 5.06055,4.97656 l 4.39062,-3.70312 c 0,0 -3.20304,-4.20313 -8.60156,-4.20313 -0.26104,0 -0.59808,0.0143 -0.84961,0.0293 z m 0,2.90039 c -0.28675,-0.0642 -0.50944,-0.12512 -0.84766,-0.16602 h -0.0137 c -3.29155,-0.395 -5.85742,2.68555 -5.85742,2.68555 0,0 1.4374,5.17826 5.87109,6.66797 0.29596,0.0995 0.5246,0.17924 0.84766,0.24414 z" />
    <path
       id="rect1263"
       style="opacity:1;fill:#363636;fill-opacity:1"
       d="m 300,223 c -4.986,0 -9,4.014 -9,9 v 24 c 0,4.986 4.014,9 9,9 h 10 v -11.39648 c -0.23461,-0.0131 -0.40437,-0.0266 -0.63477,-0.0488 -10.63478,-1.00373 -14.42773,-11.9668 -14.42773,-11.9668 0,0 6.69612,-6.54899 14.42773,-7.16992 0.22697,-0.0174 0.40657,-0.0291 0.63477,-0.0371 V 223 Z m 10,11.38086 V 236.25 c 6.3117,-0.18836 11.01562,5.43555 11.01562,5.43555 0,0 -4.97876,6.22461 -9.78124,6.22461 -0.41607,0 -1.23438,0.2547 -1.23438,-0.11914 v 1.73632 c 0.34349,0.0365 0.69745,0.0527 1.06836,0.0527 6.8531,0 13.93359,-7.99219 13.93359,-7.99219 0,0 -6.05147,-7.27405 -14.60937,-7.21875 -0.13048,7e-4 -0.26086,0.008 -0.39258,0.0117 z m 0,15.14648 c -0.23817,-0.0254 -0.40864,-0.0576 -0.63477,-0.0977 -5.89833,-1.05157 -7.53711,-7.18164 -7.53711,-7.18164 10e-6,0 2.83359,-3.13771 7.53711,-3.64649 0.22958,-0.0246 0.39934,-0.0446 0.63477,-0.0586 V 236.25 c -0.23116,0.007 -0.41013,0.0214 -0.63477,0.0371 -6.98033,0.53362 -10.47461,5.69336 -10.47461,5.69336 0,0 2.6703,8.60022 10.47461,9.58203 0.22913,0.0291 0.39748,0.0548 0.63477,0.0703 z m 0,2.10547 v 1.97071 c 0.28519,0.0158 0.57439,0.0273 0.87109,0.0273 5.61016,0 16.00788,-2.86506 20.25391,-6.41992 -0.62311,-0.6315 -3.65218,-2.0711 -4.39258,-2.66406 -4.46569,3.85469 -9.58171,7.10742 -15.95898,7.10742 -0.26306,0 -0.52163,-0.005 -0.77344,-0.0215 z m 0,-13.08984 v 2.17578 c 1.87123,0.419 2.46802,1.52047 3.79492,3.73242 l 3.79297,-2.77734 c 0,0 -2.90229,-3.15235 -6.95117,-3.15235 -0.19578,0 -0.44807,0.0102 -0.63672,0.0215 z m 0,2.17578 c -0.21507,-0.0481 -0.38111,-0.0943 -0.63477,-0.125 h -0.0117 c -2.46866,-0.29625 -4.39258,2.01563 -4.39258,2.01563 0,-10e-6 1.07903,3.88272 4.40429,5 0.22197,0.0746 0.39248,0.13294 0.63477,0.18164 z" />
    <path
       id="rect1366"
       style="opacity:1;fill:#363636;fill-opacity:1"
       d="m 424,54 c -3.324,0 -6,2.676003 -6,6 v 16 c 0,3.323997 2.676,6 6,6 h 7 v -7.597656 c -0.15641,-0.0086 -0.27023,-0.01645 -0.42383,-0.03125 -7.08986,-0.66915 -9.61914,-7.978516 -9.61914,-7.978516 0,0 4.46474,-4.3673 9.61914,-4.78125 0.15131,-0.0116 0.27169,-0.01844 0.42383,-0.02344 v 1.24414 c 4.20781,-0.12557 7.00977,3.625 7.00977,3.625 0,0 -2.98586,4.150391 -6.1875,4.150391 -0.27739,0 -0.57794,-0.03098 -0.82227,-0.08008 v 1.158203 c 0.22899,0.0243 0.46562,0.03516 0.71289,0.03516 4.56875,0 8.95508,-5.328125 8.95508,-5.328125 0,0 -3.70099,-4.8494 -9.40625,-4.8125 -0.087,0 -0.17392,0.0029 -0.26172,0.0059 V 54 Z m 7,17.685547 c -0.15878,-0.0169 -0.27307,-0.03775 -0.42383,-0.06445 -3.93221,-0.70104 -5.02344,-4.789063 -5.02344,-4.789063 0,0 1.88777,-2.090508 5.02344,-2.429687 0.15306,-0.0164 0.26688,-0.03202 0.42383,-0.04102 v -1.527344 c -0.15411,0.0048 -0.27407,0.01304 -0.42383,0.02344 -4.65355,0.35575 -6.98242,3.796875 -6.98242,3.796875 0,0 1.77955,5.732169 6.98242,6.386719 0.15275,0.0193 0.26563,0.03647 0.42383,0.04687 z m 0,1.402344 v 1.314453 c 0.19012,0.0109 0.38228,0.01758 0.58008,0.01758 3.74009,0 10.33924,-1.909379 13.16992,-4.279297 -0.4154,-0.421 -2.43609,-1.380071 -2.92969,-1.775391 -2.97712,2.569808 -6.05317,4.738282 -10.30469,4.738282 -0.17536,0 -0.34775,-0.0046 -0.51562,-0.01563 z m 0,-8.726563 V 65.8125 c 1.24749,0.27933 1.6447,1.013643 2.5293,2.488281 l 2.19531,-1.851562 c 0,0 -1.60152,-2.101563 -4.30078,-2.101563 -0.13052,0 -0.29807,0.0057 -0.42383,0.01367 z m 0,1.451172 c -0.14338,-0.0321 -0.25472,-0.06163 -0.42383,-0.08203 h -0.008 c -1.64578,-0.1975 -2.92969,1.341797 -2.92969,1.341797 0,0 0.72066,2.589135 2.9375,3.333984 0.14798,0.04974 0.2623,0.08869 0.42383,0.121094 z" />
    <path
       id="rect1400"
       style="opacity:1;fill:#363636;fill-opacity:1"
       d="m 420,140 c -2.216,0 -4,1.784 -4,4 v 8 c 0,2.216 1.784,4 4,4 h 3 v -4.79883 c -0.0782,-0.004 -0.13414,-0.009 -0.21094,-0.0156 -3.54488,-0.33457 -4.81054,-3.99024 -4.81054,-3.99024 0,0 2.23338,-2.18169 4.81054,-2.38867 0.0757,-0.005 0.13484,-0.0107 0.21094,-0.0137 V 140 Z m 3,4.79297 v 0.62305 c 2.10388,-0.0628 3.50586,1.8125 3.50586,1.8125 0,0 -1.49293,2.07421 -3.09375,2.07421 -0.13869,0 -0.41211,0.0855 -0.41211,-0.0391 v 0.57813 c 0.1145,0.0129 0.23184,0.0195 0.35547,0.0195 2.28434,0 4.47851,-2.66406 4.47851,-2.66406 0,0 -1.85052,-2.42475 -4.70312,-2.40625 -0.0435,0 -0.087,9.5e-4 -0.13086,0.002 z m 0,5.04883 c -0.0794,-0.008 -0.13749,-0.018 -0.21289,-0.0312 -1.96609,-0.35052 -2.51172,-2.39453 -2.51172,-2.39453 0,0 0.94389,-1.04525 2.51172,-1.21485 0.0765,-0.008 0.13439,-0.0145 0.21289,-0.0195 v -0.76562 c -0.077,0.002 -0.13604,0.009 -0.21094,0.0137 -2.32675,0.17787 -3.49218,1.89648 -3.49218,1.89648 0,0 0.89079,2.86609 3.49218,3.19336 0.0764,0.01 0.13184,0.0184 0.21094,0.0234 z m 0,-3.66016 v 0.72461 c 0.62375,0.13967 0.82334,0.50683 1.26562,1.24414 l 1.09766,-0.92578 c 0,0 -0.80078,-1.05078 -2.15039,-1.05078 -0.0653,0 -0.14999,0.005 -0.21289,0.008 z m 0,0.72461 c -0.0717,-0.0161 -0.12839,-0.0308 -0.21289,-0.041 h -0.002 c -0.82288,-0.0987 -1.46485,0.66993 -1.46485,0.66993 0,0 0.36034,1.29555 1.46875,1.66796 0.074,0.0249 0.13014,0.0442 0.21094,0.0605 z m 0,4.29492 c 0.0951,0.006 0.19212,0.01 0.29102,0.01 1.87002,0 5.16866,-0.95567 6.58398,-2.14063 -0.2077,-0.21049 -1.21805,-0.68906 -1.46484,-0.88672 -1.48855,1.28489 -3.02662,2.36719 -5.15235,2.36719 -0.0877,0 -0.17391,-8.6e-4 -0.25781,-0.006 z" />
    <path
       id="rect1434"
       style="opacity:1;fill:#363636;fill-opacity:1"
       d="m 422,102 c -2.216,0 -4,1.784 -4,4 v 12 c 0,2.216 1.784,4 4,4 h 5.0293 v -5.19727 c 0.14259,0.008 0.28719,0.0117 0.43554,0.0117 2.80507,0 7.97466,-1.43154 10.09766,-3.20898 -0.31155,-0.31574 -1.82708,-1.03554 -2.19727,-1.33203 -2.23283,1.92735 -4.76059,3.55273 -7.94921,3.55273 -0.13153,0 -0.26081,-0.002 -0.38672,-0.01 v 0.98437 c -0.1173,-0.007 -0.20315,-0.0123 -0.31836,-0.0234 -5.31738,-0.50186 -7.21289,-5.98242 -7.21289,-5.98242 0,0 3.3471,-3.27547 7.21289,-3.58594 0.11349,-0.009 0.20426,-0.0155 0.31836,-0.0195 V 102 Z m 5.0293,5.18945 v 0.93555 c 3.15584,-0.0942 5.47851,2.7168 5.47851,2.7168 0,0 -2.46009,3.11328 -4.86133,3.11328 -0.20804,0 -0.61718,0.12831 -0.61718,-0.0586 v 0.86719 c 0.17174,0.0189 0.3497,0.0273 0.53515,0.0273 3.42654,0 6.9375,-3.9961 6.9375,-3.9961 0,0 -2.9984,-3.63707 -7.27734,-3.60937 -0.0652,0 -0.12941,0.002 -0.19531,0.004 z m 0,7.57422 c -0.11909,-0.0126 -0.20529,-0.0288 -0.31836,-0.0488 -2.94916,-0.52578 -3.76758,-3.58984 -3.76758,-3.58984 0,0 1.41582,-1.56982 3.76758,-1.82422 0.1148,-0.0123 0.20065,-0.0223 0.31836,-0.0293 V 108.125 c -0.11558,0.004 -0.20604,0.01 -0.31836,0.0176 -3.49016,0.26681 -5.23633,2.84765 -5.23633,2.84765 0,0 1.33419,4.30011 5.23633,4.79102 0.11456,0.0145 0.19971,0.0272 0.31836,0.0352 z m 0,-5.49219 v 1.0879 c 0.93562,0.20949 1.4557,0.75925 2.11914,1.86523 l 1.64648,-1.38672 c 0,0 -1.42284,-1.57812 -3.44726,-1.57812 -0.0979,-1e-4 -0.22406,0.007 -0.31836,0.0117 z m 0,1.0879 c -0.10753,-0.0242 -0.19153,-0.0472 -0.31836,-0.0625 h -0.006 c -1.23433,-0.14812 -2.19531,1.00781 -2.19531,1.00781 0,0 0.53854,1.94136 2.20117,2.5 0.11099,0.0373 0.19722,0.0674 0.31836,0.0918 z" />
  </g>
  <g
     id="Symbols">
    <path
       d="m 423.00011,139.99982 v 4.79339 c 0.0439,-10e-4 0.0872,-0.003 0.1307,-0.003 2.8526,-0.0185 4.70323,2.40622 4.70323,2.40622 0,0 -2.1933,2.66403 -4.47764,2.66403 -0.12363,0 -0.24179,-0.005 -0.35629,-0.0179 v 0.70181 c 0.0839,0.005 0.17013,0.007 0.25782,0.007 2.12573,0 3.66405,-1.08373 5.1526,-2.36862 0.24679,0.19766 1.25679,0.67751 1.46449,0.888 -1.41532,1.18496 -4.71484,2.13947 -6.58487,2.13947 -0.0989,0 -0.19498,-0.003 -0.29004,-0.009 V 156 H 432 v -3.99996 -7.9999 -4.0001 z m 0,11.20103 v -0.65706 c -0.0791,-0.005 -0.13553,-0.0136 -0.21191,-0.0233 -2.6014,-0.32727 -3.49115,-3.19398 -3.49115,-3.19398 0,0 1.1644,-1.71988 3.49115,-1.89775 0.0749,-0.005 0.13486,-0.0101 0.21191,-0.0125 0.002,-6e-5 -0.002,6e-5 0,0 v -0.62304 0 c -0.0761,0.003 -0.13625,0.007 -0.21191,0.0125 -2.57717,0.20698 -4.80885,2.39011 -4.80885,2.39011 0,0 1.26396,3.65431 4.80885,3.98888 0.0768,0.007 0.13372,0.0117 0.21191,0.0161 z m 0,-5.7846 v 0.76448 c 0.0629,-0.003 0.14715,-0.007 0.21241,-0.007 1.34961,0 2.15019,1.05093 2.15019,1.05093 l -1.09747,0.9256 c -0.44229,-0.73731 -0.64138,-1.10461 -1.26513,-1.24428 v 2.35788 c 0,0.1246 0.27244,0.0394 0.41113,0.0394 1.60082,0 3.09372,-2.075 3.09372,-2.075 0,0 -1.40096,-1.87461 -3.50484,-1.81183 z m 0,3.84745 c -0.0808,-0.0163 -0.13791,-0.036 -0.21191,-0.0609 -1.10841,-0.37242 -1.46807,-1.66681 -1.46807,-1.66681 0,0 0.64161,-0.77012 1.46449,-0.67138 h 0.003 c 0.0845,0.0102 0.14022,0.0251 0.21191,0.0412 v -0.72508 c -0.0785,0.005 -0.13538,0.0115 -0.21191,0.0197 -1.56783,0.1696 -2.51185,1.21565 -2.51185,1.21565 0,0 0.54576,2.04316 2.51185,2.39368 0.0754,0.0133 0.13252,0.0238 0.21191,0.0322 z"
       style="color:#bebebe;display:inline;overflow:visible;visibility:visible;fill:#55a626;fill-opacity:1;fill-rule:nonzero;stroke:none;stroke-width:0;marker:none;enable-background:accumulate"
       id="path2090"
       sodipodi:nodetypes="ccccsccsccsccccccccccccsccscccscccscccssccccccccccccccc"
       mask="url(#mask2310)" />
    <path
       d="m 427.02921,100 v 7.19015 c 0.0659,-0.002 0.13081,-0.005 0.19604,-0.005 4.27894,-0.0277 7.27588,3.60936 7.27588,3.60936 0,0 -3.51095,3.99608 -6.93749,3.99608 -0.18545,0 -0.36269,-0.008 -0.53443,-0.0269 v 1.05272 c 0.12591,0.008 0.25519,0.0107 0.38672,0.0107 3.18863,0 5.7171,-1.62561 7.94994,-3.55296 0.37019,0.29649 1.88521,1.01628 2.19676,1.33202 -2.123,1.77744 -7.29329,3.20922 -10.09836,3.20922 -0.14835,0 -0.29247,-0.005 -0.43506,-0.0134 v 7.19821 h 12.97091 v -5.99998 -11.99994 -6.00021 z m 0,16.80168 v -0.98559 c -0.11865,-0.008 -0.20331,-0.0204 -0.31787,-0.0349 -3.90214,-0.49091 -5.23678,-4.791 -5.23678,-4.791 0,0 1.74662,-2.57985 5.23678,-2.84666 0.11232,-0.008 0.20229,-0.0152 0.31787,-0.0188 0.003,-9e-5 -0.003,8e-5 0,0 v -0.93457 0 c -0.1141,0.004 -0.20438,0.0101 -0.31787,0.0188 -3.86579,0.31047 -7.21334,3.58519 -7.21334,3.58519 0,0 1.89596,5.48151 7.21334,5.98337 0.11521,0.0111 0.20057,0.0176 0.31787,0.0242 z m 0,-8.67697 v 1.14673 c 0.0943,-0.005 0.22072,-0.0108 0.31861,-0.0107 2.02443,0 3.44629,1.57641 3.44629,1.57641 l -1.64623,1.38842 c -0.66344,-1.10598 -1.18305,-1.65694 -2.11867,-1.86644 v 3.53685 c 0,0.18691 0.40866,0.0591 0.6167,0.0591 2.40124,0 4.86158,-3.11253 4.86158,-3.11253 0,0 -2.32243,-2.81194 -5.47828,-2.71776 z m 0,5.77122 c -0.12114,-0.0244 -0.20688,-0.054 -0.31787,-0.0913 -1.66263,-0.55864 -2.20213,-2.50023 -2.20213,-2.50023 0,0 0.96243,-1.1552 2.19676,-1.00708 h 0.005 c 0.12683,0.0153 0.21034,0.0376 0.31787,0.0618 v -1.08764 c -0.11771,0.007 -0.20307,0.0173 -0.31787,0.0296 -2.35176,0.2544 -3.7678,1.82349 -3.7678,1.82349 0,0 0.81864,3.06477 3.7678,3.59055 0.11307,0.02 0.19878,0.0357 0.31787,0.0483 z"
       style="color:#bebebe;display:inline;overflow:visible;visibility:visible;fill:#55a626;fill-opacity:1;fill-rule:nonzero;stroke:none;stroke-width:0;marker:none;enable-background:accumulate"
       id="path1983"
       mask="url(#mask2078)"
       sodipodi:nodetypes="ccccsccsccsccccccccccccsccscccscccccccssccccccccccccccc" />
    <path
       d="m 430.99965,52 v 9.586901 c 0.0878,-0.003 0.1744,-0.007 0.26139,-0.007 5.70527,-0.0369 9.40656,4.81249 9.40656,4.81249 0,0 -4.38664,5.32812 -8.95539,5.32812 -0.24727,0 -0.48357,-0.0115 -0.71256,-0.0358 v 1.40364 c 0.16787,0.011 0.34025,0.0143 0.51562,0.0143 4.25152,0 7.32819,-2.16749 10.30532,-4.7373 0.4936,0.39532 2.51363,1.35504 2.92903,1.77604 -2.83068,2.36992 -9.42979,4.27897 -13.16989,4.27897 -0.1978,0 -0.38996,-0.007 -0.58008,-0.0179 v 9.59764 h 16.99997 v -7.99999 -15.99998 -7.999981 z m 0,22.402311 v -1.31413 c -0.1582,-0.0104 -0.27108,-0.0272 -0.42383,-0.0465 -5.20288,-0.65455 -6.98241,-6.38801 -6.98241,-6.38801 0,0 2.32885,-3.43982 6.98241,-3.79557 0.14976,-0.0104 0.26972,-0.0202 0.42383,-0.025 0.004,-1.1e-4 -0.004,1.1e-4 0,0 v -1.24609 0 c -0.15214,0.005 -0.27252,0.0135 -0.42383,0.0251 -5.15441,0.41395 -9.61782,4.78027 -9.61782,4.78027 0,0 2.52795,7.3087 9.61782,7.97785 0.1536,0.0148 0.26742,0.0236 0.42383,0.0322 z m 0,-11.56932 v 1.52897 c 0.12576,-0.008 0.29428,-0.0144 0.4248,-0.0144 2.69926,0 4.30045,2.10188 4.30045,2.10188 l -2.19498,1.85124 c -0.8846,-1.47464 -1.28278,-2.20927 -2.53027,-2.4886 v 4.71581 c 0.24433,0.0491 0.54488,0.0788 0.82227,0.0788 3.20165,0 6.18748,-4.15005 6.18748,-4.15005 0,0 -2.80194,-3.74926 -7.00975,-3.62369 z m 0,7.69497 c -0.16153,-0.0324 -0.27585,-0.072 -0.42383,-0.12174 -2.21684,-0.74485 -2.93619,-3.33365 -2.93619,-3.33365 0,0 1.28325,-1.54028 2.92903,-1.34278 h 0.007 c 0.16911,0.0204 0.28045,0.0503 0.42383,0.0824 v -1.45019 c -0.15695,0.009 -0.27077,0.023 -0.42383,0.0394 -3.13568,0.33918 -5.02375,2.43131 -5.02375,2.43131 0,0 1.09153,4.08639 5.02375,4.78743 0.15076,0.0267 0.26505,0.0476 0.42383,0.0645 z"
       style="color:#bebebe;display:inline;overflow:visible;visibility:visible;fill:#55a626;fill-opacity:1;fill-rule:nonzero;stroke:none;stroke-width:0;marker:none;enable-background:accumulate"
       id="path1738"
       mask="url(#mask1873)"
       sodipodi:nodetypes="ccccsccsccsccccccccccccsccscccccccsccccscsccccccccccccc" />
    <path
       d="m 310.00047,220 v 14.38035 c 0.13172,-0.004 0.26161,-0.01 0.39209,-0.0107 8.55791,-0.0553 14.60988,7.21868 14.60988,7.21868 0,0 -7.08001,7.99224 -13.93312,7.99224 -0.37091,0 -0.72536,-0.0172 -1.06885,-0.0537 v 2.10546 c 0.25181,0.0165 0.51038,0.0215 0.77344,0.0215 6.37728,0 11.49232,-3.2513 15.95802,-7.106 0.7404,0.59297 3.77044,2.03256 4.39355,2.66406 -4.24603,3.55487 -14.64473,6.41851 -20.25489,6.41851 -0.2967,0 -0.58493,-0.011 -0.87012,-0.0268 v 14.39646 l 26,-6e-5 v -11.99998 -23.99997 -11.99998 z m 0,33.60346 v -1.97119 c -0.23729,-0.0155 -0.40661,-0.0407 -0.63574,-0.0698 -7.80432,-0.98181 -10.47361,-9.58201 -10.47361,-9.58201 0,0 3.49327,-5.15973 10.47361,-5.69335 0.22464,-0.0157 0.40458,-0.0303 0.63574,-0.0376 0.005,-1.7e-4 -0.005,1.6e-4 0,0 v -1.86913 0 c -0.2282,0.008 -0.40877,0.0202 -0.63574,0.0376 -7.73162,0.62093 -14.42673,7.1704 -14.42673,7.1704 0,0 3.79193,10.96305 14.42673,11.96678 0.2304,0.0222 0.40113,0.0353 0.63574,0.0484 z m 10e-6,-17.35397 -10e-6,2.29345 c 0.18865,-0.0113 0.44143,-0.0215 0.63721,-0.0215 4.04889,0 6.95071,3.15277 6.95071,3.15277 l -3.79251,2.77691 c -1.3269,-2.21195 -1.92418,-3.3139 -3.79541,-3.7329 v 7.07372 c 0,0.37384 0.81733,0.11816 1.2334,0.11816 4.80249,0 9.78128,-6.22514 9.78128,-6.22514 0,0 -4.70296,-5.62384 -11.01467,-5.43548 z m -10e-6,11.54245 c -0.24229,-0.0487 -0.41377,-0.10798 -0.63574,-0.18261 -3.32527,-1.11728 -4.40428,-5.00048 -4.40428,-5.00048 0,0 1.92488,-2.31041 4.39354,-2.01416 h 0.0107 c 0.25366,0.0307 0.42067,0.0754 0.63574,0.12354 v -2.17529 c -0.23543,0.014 -0.40616,0.0345 -0.63574,0.0591 -4.70353,0.50878 -7.53563,3.64697 -7.53563,3.64697 0,0 1.63729,6.12957 7.53563,7.18114 0.22613,0.0401 0.39757,0.0713 0.63574,0.0967 z"
       style="color:#bebebe;display:inline;overflow:visible;visibility:visible;fill:#55a626;fill-opacity:1;fill-rule:nonzero;stroke:none;stroke-width:0;marker:none;enable-background:accumulate"
       id="path2424"
       sodipodi:nodetypes="ccccsccsccsccccccccccccsccscccccccscccsscsccccccccccccc"
       mask="url(#mask2496)" />
    <path
       d="m 318.00032,140 v 19.17382 c 0.17563,-0.006 0.34881,-0.0132 0.52279,-0.0143 11.41056,-0.0737 18.81314,9.625 18.81314,9.625 0,0 -8.7733,10.65625 -17.9108,10.65625 -0.49454,0 -0.96714,-0.0229 -1.42513,-0.0716 v 2.80728 c 0.33575,0.022 0.68051,0.0287 1.03125,0.0287 8.50305,0 14.6564,-4.33499 20.61067,-9.4746 0.9872,0.79063 5.02726,2.71008 5.85807,3.55208 -5.66138,4.73984 -18.85961,8.55794 -26.33983,8.55794 -0.3956,0 -0.77991,-0.0147 -1.16016,-0.0358 v 19.19531 h 33.99999 v -15.99999 -32 -15.99999 z m 0,44.80467 v -2.62826 c -0.31639,-0.0207 -0.54215,-0.0543 -0.84765,-0.0931 -10.40578,-1.30909 -13.96484,-12.77604 -13.96484,-12.77604 0,0 4.6577,-6.87964 13.96484,-7.59114 0.29952,-0.0209 0.53944,-0.0404 0.84765,-0.0501 0.007,-2.3e-4 -0.007,2.1e-4 0,0 v -2.49218 0 c -0.30427,0.0103 -0.54503,0.0269 -0.84765,0.0501 -10.30884,0.8279 -19.23567,9.56054 -19.23567,9.56054 0,0 5.05591,14.61742 19.23567,15.95572 0.3072,0.0296 0.53484,0.0471 0.84765,0.0645 z m 1e-5,-23.13866 -1e-5,3.05794 c 0.25153,-0.015 0.58857,-0.0287 0.84961,-0.0287 5.39853,0 8.60091,4.20377 8.60091,4.20377 l -4.38997,3.70248 c -1.7692,-2.94928 -2.56557,-4.41854 -5.06055,-4.97721 v 9.43163 c 0.48866,0.0982 1.08977,0.15755 1.64454,0.15755 6.40332,0 12.37499,-8.30012 12.37499,-8.30012 0,0 -5.6039,-7.49853 -14.01952,-7.24739 z m -1e-5,15.38996 c -0.32306,-0.0649 -0.55169,-0.14398 -0.84765,-0.24348 -4.4337,-1.48971 -5.87239,-6.66732 -5.87239,-6.66732 0,0 2.56651,-3.08055 5.85807,-2.68555 h 0.0143 c 0.33822,0.0409 0.5609,0.10051 0.84765,0.16472 v -2.90039 c -0.3139,0.0187 -0.54154,0.046 -0.84765,0.0788 -6.27138,0.67837 -10.04752,4.86263 -10.04752,4.86263 0,0 2.18306,8.17278 10.04752,9.57487 0.30151,0.0534 0.53009,0.0951 0.84765,0.1289 z"
       style="color:#bebebe;display:inline;overflow:visible;visibility:visible;fill:#55a626;fill-opacity:1;fill-rule:nonzero;stroke:none;stroke-width:0;marker:none;enable-background:accumulate"
       id="path1503"
       sodipodi:nodetypes="ccccsccsccsccccccccccccsccscccscccsccccscsccccccccccccc"
       mask="url(#mask1937)" />
    <path
       d="m 332.99999,28 v 28.76074 c 0.26345,-0.009 0.52322,-0.0198 0.78418,-0.0215 17.11585,-0.11061 28.21973,14.4375 28.21973,14.4375 0,0 -13.15996,15.984381 -26.86621,15.984381 -0.74181,0 -1.45072,-0.0343 -2.1377,-0.10742 v 4.21093 c 0.50363,0.033 1.02076,0.043 1.54688,0.043 12.75457,0 21.98461,-6.502491 30.91601,-14.211911 1.4808,1.18595 7.54089,4.06513 8.78711,5.32812 -8.49207,7.109771 -28.28943,12.836921 -39.50976,12.836921 -0.5934,0 -1.16987,-0.022 -1.74024,-0.0537 v 28.792969 h 51 v -24 -48 -24 z m 0,67.207031 v -3.94239 c -0.47459,-0.0311 -0.81323,-0.0815 -1.27148,-0.13964 -15.60867,-1.96363 -20.94726,-19.164061 -20.94726,-19.164061 0,0 6.98655,-10.31947 20.94726,-11.38672 0.44928,-0.0314 0.80916,-0.0606 1.27148,-0.0752 0.0109,-3.4e-4 -0.0109,3.2e-4 0,0 v -3.73828 0 c -0.45641,0.0155 -0.81754,0.0404 -1.27148,0.0752 -15.46326,1.24186 -28.85351,14.34082 -28.85351,14.34082 0,0 7.58387,21.926151 28.85351,23.933591 0.46081,0.0444 0.80227,0.0706 1.27148,0.0967 z M 333,60.49902 l -10e-6,4.58692 c 0.37729,-0.0225 0.88286,-0.0431 1.27442,-0.043 8.09779,0 12.90137,6.30566 12.90137,6.30566 l -6.58496,5.55371 c -2.6538,-4.42392 -3.84836,-6.6278 -7.59083,-7.46581 v 14.14745 c 0.73299,0.14729 1.63465,0.23633 2.46681,0.23633 9.60499,0 18.5625,-12.45019 18.5625,-12.45019 0,0 -8.40586,-11.2478 -21.0293,-10.87109 z m -10e-6,23.08496 c -0.48459,-0.0974 -0.82754,-0.21597 -1.27148,-0.36523 -6.65055,-2.23456 -8.80859,-10.00098 -8.80859,-10.00098 0,0 3.84977,-4.62082 8.78711,-4.02832 h 0.0215 c 0.50733,0.0613 0.84135,0.15076 1.27148,0.24707 v -4.35058 c -0.47085,0.0281 -0.81231,0.069 -1.27148,0.11816 -9.40708,1.01755 -15.07129,7.29395 -15.07129,7.29395 0,0 3.2746,12.25917 15.07129,14.362301 0.45227,0.0801 0.79513,0.14264 1.27148,0.19336 z"
       style="color:#bebebe;display:inline;overflow:visible;visibility:visible;fill:#55a626;fill-opacity:1;fill-rule:nonzero;stroke:none;stroke-width:0;marker:none;enable-background:accumulate"
       id="path2468"
       mask="url(#mask2490)"
       sodipodi:nodetypes="ccccsccsccsccccccccccccsccscccsccccccccscsccccccccccccc" />
    <path
       d="m 136.00033,28 v 76.69531 c 0.70253,-0.0235 1.39525,-0.0529 2.09114,-0.0573 45.64227,-0.29497 75.25261,38.5 75.25261,38.5 0,0 -35.09323,42.625 -71.64323,42.625 -1.97815,0 -3.86857,-0.0914 -5.70052,-0.28646 v 11.22917 c 1.34301,0.0879 2.72203,0.11458 4.125,0.11458 34.0122,0 58.62562,-17.33999 82.4427,-37.89844 3.9488,3.16253 20.10903,10.84035 23.4323,14.20834 -22.64554,18.95937 -75.43848,34.23177 -105.35938,34.23177 -1.58238,0 -3.11965,-0.0587 -4.64063,-0.14323 l 1e-5,76.78126 h 136 V 220 92 28 Z m -1e-5,179.21874 1e-5,-10.51302 c -1.26558,-0.0828 -2.16862,-0.21722 -3.39061,-0.37239 -41.623132,-5.23634 -55.859387,-51.10416 -55.859387,-51.10416 0,0 18.630801,-27.51857 55.859387,-30.36459 1.19806,-0.0837 2.15774,-0.16158 3.39059,-0.20052 0.029,-9.1e-4 -0.029,8.6e-4 0,0 l 2e-5,-9.96875 v 0 c -1.21711,0.0414 -2.18012,0.10772 -3.39061,0.20052 -41.235382,3.31165 -76.94272,38.24219 -76.94272,38.24219 0,0 20.223676,58.46975 76.94272,63.82292 1.22882,0.11854 2.13937,0.18822 3.3906,0.2578 z m 3e-5,-92.55468 -2e-5,12.23177 c 1.0061,-0.0599 2.35429,-0.11495 3.39845,-0.11458 21.59411,0 34.40365,16.8151 34.40365,16.8151 l -17.5599,14.8099 c -7.07679,-11.79712 -10.2623,-17.67413 -20.2422,-19.90885 v 37.72656 c 1.95462,0.39277 4.35907,0.63021 6.57814,0.63021 25.61333,0 49.5,-33.20051 49.5,-33.20051 0,0 -22.41562,-29.99415 -56.07812,-28.98959 z m -2e-5,61.5599 c -1.29226,-0.25968 -2.20678,-0.57594 -3.39061,-0.97396 -17.7348,-5.95883 -23.48958,-26.66927 -23.48958,-26.66927 0,0 10.26604,-12.3222 23.43229,-10.74219 h 0.0573 c 1.35289,0.16347 2.24359,0.40201 3.39061,0.65886 v -11.60157 c -1.25561,0.0749 -2.16617,0.18401 -3.39061,0.31511 -25.08556,2.71345 -40.190116,19.45052 -40.190116,19.45052 0,0 8.732286,32.69113 40.190116,38.29948 1.20606,0.21373 2.12035,0.38038 3.3906,0.51561 z"
       style="color:#bebebe;display:inline;overflow:visible;visibility:visible;fill:#55a626;fill-opacity:1;fill-rule:nonzero;stroke:none;stroke-width:0;marker:none;enable-background:accumulate"
       id="path535"
       sodipodi:nodetypes="ccccsccsccsccccccccccccsccscccccccccccscsccccccccccccc"
       mask="url(#mask1931)" />
  </g>
  <g
     id="Highlights">
    <path
       id="rect653"
       style="opacity:0.2;fill:#ffffff"
       d="M 80,44 C 53.408027,44 32,65.408027 32,92 v 2 C 32,67.408027 53.408027,46 80,46 h 128 c 26.59197,0 48,21.408027 48,48 V 92 C 256,65.408027 234.59197,44 208,44 Z"
       sodipodi:nodetypes="sscsscsss" />
    <path
       id="rect773"
       style="opacity:0.2;fill:#ffffff"
       d="m 312,34 c -9.97199,0 -18,8.02801 -18,18 v 1 c 0,-9.97199 8.02801,-18 18,-18 h 48 c 9.97199,0 18,8.02801 18,18 v -1 c 0,-9.97199 -8.02801,-18 -18,-18 z" />
    <path
       id="rect1135"
       style="opacity:0.2;fill:#ffffff;fill-opacity:1"
       d="m 304,144 c -6.64799,0 -12,5.35201 -12,12 v 1 c 0,-6.64799 5.35201,-12 12,-12 h 32 c 6.64799,0 12,5.35201 12,12 v -1 c 0,-6.64799 -5.35201,-12 -12,-12 z" />
    <path
       id="rect1265"
       style="opacity:0.2;fill:#ffffff;fill-opacity:1"
       d="m 300,223 c -4.986,0 -9,4.014 -9,9 v 1 c 0,-4.986 4.014,-9 9,-9 h 24 c 4.986,0 9,4.014 9,9 v -1 c 0,-4.986 -4.014,-9 -9,-9 z" />
    <path
       id="rect1368"
       style="opacity:0.2;fill:#ffffff;fill-opacity:1"
       d="m 424,54 c -3.324,0 -6,2.676003 -6,6 v 1 c 0,-3.323997 2.676,-6 6,-6 h 16 c 3.324,0 6,2.676003 6,6 v -1 c 0,-3.323997 -2.676,-6 -6,-6 z" />
    <path
       id="rect1402"
       style="opacity:0.2;fill:#ffffff;fill-opacity:1"
       d="m 420,140 c -2.216,0 -4,1.784 -4,4 v 1 c 0,-2.216 1.784,-4 4,-4 h 8 c 2.216,0 4,1.784 4,4 v -1 c 0,-2.216 -1.784,-4 -4,-4 z" />
    <path
       id="rect1436"
       style="opacity:0.2;fill:#ffffff;fill-opacity:1"
       d="m 422,102 c -2.216,0 -4,1.784 -4,4 v 1 c 0,-2.216 1.784,-4 4,-4 h 12 c 2.216,0 4,1.784 4,4 v -1 c 0,-2.216 -1.784,-4 -4,-4 z" />
  </g>
</svg>
