<?xml version="1.0" encoding="UTF-8" standalone="no"?>
<!-- Created with Inkscape (http://www.inkscape.org/) -->

<svg
   width="480"
   height="300"
   viewBox="0 0 480 300"
   version="1.1"
   id="svg5"
   inkscape:version="1.2.2 (1:1.2.2+202305151914+b0a8486541)"
   sodipodi:docname="obs-studio.svg"
   xmlns:inkscape="http://www.inkscape.org/namespaces/inkscape"
   xmlns:sodipodi="http://sodipodi.sourceforge.net/DTD/sodipodi-0.dtd"
   xmlns="http://www.w3.org/2000/svg"
   xmlns:svg="http://www.w3.org/2000/svg">
  <sodipodi:namedview
     id="namedview7"
     pagecolor="#888888"
     bordercolor="#000000"
     borderopacity="0.25"
     inkscape:showpageshadow="true"
     inkscape:pageopacity="0"
     inkscape:pagecheckerboard="0"
     inkscape:deskcolor="#888888"
     inkscape:document-units="px"
     showgrid="false"
     showborder="false"
     inkscape:zoom="2.6866667"
     inkscape:cx="240.07444"
     inkscape:cy="150"
     inkscape:window-width="1920"
     inkscape:window-height="1008"
     inkscape:window-x="0"
     inkscape:window-y="0"
     inkscape:window-maximized="1"
     inkscape:current-layer="svg5" />
  <defs
     id="defs2" />
  <g
     id="Baseplate"
     style="display:none">
    <text
       y="19.774782"
       xml:space="preserve"
       x="15.006946"
       style="font-style:normal;font-variant:normal;font-weight:normal;font-stretch:normal;line-height:0%;font-family:'DejaVu Sans';-inkscape-font-specification:'DejaVu Sans';display:inline;fill:#000000;fill-opacity:1;stroke:none;enable-background:new"
       inkscape:label="context"
       id="context"><tspan
         style="font-style:normal;font-variant:normal;font-weight:normal;font-stretch:normal;font-size:18px;line-height:1.25;font-family:'DejaVu Sans';-inkscape-font-specification:'DejaVu Sans'"
         y="19.774782"
         x="15.006946"
         sodipodi:role="line"
         id="tspan3933">apps</tspan></text>
    <text
       y="19.774782"
       xml:space="preserve"
       x="122.48839"
       style="font-style:normal;font-variant:normal;font-weight:bold;font-stretch:normal;line-height:0%;font-family:'DejaVu Sans';-inkscape-font-specification:'DejaVu Sans Bold';text-align:start;writing-mode:lr-tb;text-anchor:start;display:inline;fill:#000000;fill-opacity:1;stroke:none;enable-background:new"
       inkscape:label="icon-name"
       id="icon-name"><tspan
         style="font-style:normal;font-variant:normal;font-weight:bold;font-stretch:normal;font-size:18px;line-height:1.25;font-family:'DejaVu Sans';-inkscape-font-specification:'DejaVu Sans Bold'"
         y="19.774782"
         x="122.48839"
         sodipodi:role="line"
         id="tspan3937">obs-studio</tspan></text>
    <rect
       style="fill:#ffffff"
       id="256x256"
       width="256"
       height="256"
       x="16"
       y="28" />
    <rect
       style="fill:#ffffff"
       id="96x96"
       width="96"
       height="96"
       x="288"
       y="28" />
    <rect
       style="fill:#ffffff"
       id="64x64"
       width="64"
       height="64"
       x="288"
       y="140" />
    <rect
       style="fill:#ffffff"
       id="48x48"
       width="48"
       height="48"
       x="288"
       y="220" />
    <rect
       style="fill:#ffffff"
       id="32x32"
       width="32"
       height="32"
       x="416"
       y="52" />
    <rect
       style="fill:#ffffff"
       id="24x24"
       width="24"
       height="24"
       x="416"
       y="100" />
    <rect
       style="fill:#ffffff"
       id="22x22"
       width="22"
       height="22"
       x="417"
       y="101" />
    <rect
       style="fill:#ffffff"
       id="16x16"
       width="16"
       height="16"
       x="416"
       y="140" />
  </g>
  <g
     id="Shadow">
    <rect
       style="opacity:0.2;fill:#000000"
       id="rect651"
       width="224"
       height="224"
       x="32"
       y="46"
       ry="48" />
    <rect
       style="opacity:0.2;fill:#000000"
       id="rect769"
       width="84"
       height="85"
       x="294"
       y="34"
       ry="18" />
    <rect
       style="opacity:0.2;fill:#000000;fill-opacity:1"
       id="rect1131"
       width="56"
       height="56"
       x="292"
       y="145"
       ry="12" />
    <rect
       style="opacity:0.2;fill:#000000;fill-opacity:1"
       id="rect1261"
       width="42"
       height="42"
       x="291"
       y="224"
       ry="9" />
    <rect
       style="opacity:0.2;fill:#000000;fill-opacity:1"
       id="rect1364"
       width="28"
       height="29"
       x="418"
       y="54"
       ry="6" />
    <rect
       style="opacity:0.2;fill:#000000;fill-opacity:1"
       id="rect1398"
       width="16"
       height="16"
       x="416"
       y="141"
       ry="4" />
    <rect
       style="opacity:0.2;fill:#000000;fill-opacity:1"
       id="rect1432"
       width="20"
       height="20"
       x="418"
       y="103"
       ry="4" />
  </g>
  <g
     id="Background">
    <rect
       style="fill:#4f4f4f;fill-opacity:1"
       id="rect597"
       width="224"
       height="224"
       x="32"
       y="44"
       ry="48" />
    <rect
       style="opacity:1;fill:#4f4f4f;fill-opacity:1"
       id="rect771"
       width="84"
       height="84"
       x="294"
       y="34"
       ry="18" />
    <rect
       style="opacity:1;fill:#4f4f4f;fill-opacity:1"
       id="rect1133"
       width="56"
       height="56"
       x="292"
       y="144"
       ry="12" />
    <rect
       style="opacity:1;fill:#4f4f4f;fill-opacity:1"
       id="rect1263"
       width="42"
       height="42"
       x="291"
       y="223"
       ry="9" />
    <rect
       style="opacity:1;fill:#4f4f4f;fill-opacity:1"
       id="rect1366"
       width="28"
       height="28"
       x="418"
       y="54"
       ry="6" />
    <rect
       style="opacity:1;fill:#4f4f4f;fill-opacity:1"
       id="rect1400"
       width="16"
       height="16"
       x="416"
       y="140"
       ry="4" />
    <rect
       style="opacity:1;fill:#4f4f4f;fill-opacity:1"
       id="rect1434"
       width="20"
       height="20"
       x="418"
       y="102"
       ry="4" />
  </g>
  <g
     id="g1965">
    <path
       d="m 420.73808,143.02197 c -0.1234,0.1089 -0.2499,0.2342 -0.3809,0.3765 -0.2307,0.2507 -0.4452,0.5125 -0.5625,0.7305 -0.2462,0.4579 -0.4191,1.1619 -0.4179,1.6914 10e-4,0.44459 0.10999,0.98898 0.2793,1.4121 0.046,0.11497 0.0913,0.24351 0.22461,0.32617 0.13327,0.0827 0.24604,0.0806 0.41406,0.0996 0.15941,0.018 0.46061,0.0862 0.60742,0.13672 1.4107,0.48534 2.0738,2.106 1.4121,3.457 -0.44631,0.91136 -1.5057,1.50819 -2.457,1.4004 -0.11401,-0.0129 -0.19766,-0.02 -0.26758,-0.0195 -0.0349,2.3e-4 -0.0598,-0.003 -0.12109,0.0156 -0.0153,0.005 -0.0339,0.0113 -0.0586,0.0254 -0.0124,0.007 -0.0424,0.0288 -0.043,0.0293 -5.8e-4,5.1e-4 -0.0465,0.0522 -0.0469,0.0527 -3.5e-4,5.4e-4 -0.0351,0.0854 -0.0351,0.0859 -1.3e-4,5.7e-4 -0.004,0.0931 -0.004,0.0937 10e-5,6.2e-4 0.0231,0.0716 0.0234,0.0723 3.2e-4,6.5e-4 0.0199,0.0349 0.0293,0.0469 0.0751,0.0961 0.10096,0.0821 0.13282,0.0957 0.0319,0.0136 0.0637,0.0254 0.10156,0.0371 0.0757,0.0233 0.17414,0.0479 0.29883,0.0762 0.50152,0.1141 1.2605,0.0917 1.7441,-0.0566 l 0.39648,-0.12305 -0.0918,-0.0918 c 0.615,-0.26736 1.2705,-0.64912 1.6191,-1.1387 l 0.19531,-0.27345 -0.19141,-0.57616 c -0.50731,-1.535 0.39525,-3.0487 1.9707,-3.3145 1.1214,-0.18915 2.3249,0.50933 2.7324,1.5938 0.0269,0.0717 0.0458,0.12647 0.0625,0.16797 0.008,0.0207 0.0168,0.0383 0.0254,0.0566 0.004,0.009 0.008,0.0182 0.0156,0.0312 0.004,0.007 0.008,0.0134 0.0156,0.0234 0.007,0.01 0.0365,0.0405 0.0371,0.041 3.1e-4,2.8e-4 0.0427,0.033 0.043,0.0332 2.7e-4,1.6e-4 0.0896,0.0312 0.0898,0.0312 2.4e-4,4e-5 0.13261,-0.0155 0.13281,-0.0156 2.1e-4,-8e-5 0.0975,-0.072 0.0977,-0.0723 1.7e-4,-2.1e-4 0.037,-0.0622 0.0371,-0.0625 1.4e-4,-3.3e-4 0.011,-0.0302 0.0137,-0.041 0.005,-0.0217 0.007,-0.0342 0.008,-0.0449 0.003,-0.0429 1.8e-4,-0.0537 -0.002,-0.0723 -0.004,-0.0371 -0.0107,-0.0794 -0.0195,-0.13477 -0.112,-0.705 -0.465,-1.354 -1.02,-1.902 -0.58,-0.5737 -1.275,-0.9075 -2.111,-1.0195 -0.1256,-0.0168 -0.22033,-0.0418 -0.35547,0.008 -0.13514,0.0494 -0.20228,0.16004 -0.25195,0.24414 -0.0949,0.16068 -0.51594,0.58157 -0.77344,0.74609 -0.717,0.45811 -1.8999,0.46 -2.6191,0.002 -0.8372,-0.5333 -1.3157,-1.5734 -1.1641,-2.5019 0.0848,-0.519 0.3087,-0.9707 0.6739,-1.3574 0.0726,-0.0769 0.1288,-0.1374 0.1718,-0.1856 0.043,-0.0482 0.0684,-0.0722 0.10351,-0.13281 0.009,-0.0152 0.0208,-0.0337 0.0313,-0.0723 0.003,-0.01 0.004,-0.0198 0.006,-0.0332 0.002,-0.0134 0.002,-0.0483 0.002,-0.0488 -3e-5,-5.1e-4 -0.0116,-0.0621 -0.0117,-0.0625 -1.4e-4,-4.2e-4 -0.0349,-0.0719 -0.0352,-0.0723 -1.6e-4,-2.3e-4 -0.0217,-0.0218 -0.0391,-0.0391 -0.33721,-0.2255 -0.66797,0.22475 -0.66797,0.22475 z"
       style="fill:#000000;opacity:0.2"
       id="path3081" />
    <path
       d="m 420.73808,142.52197 c -0.1234,0.1089 -0.2499,0.2342 -0.3809,0.3765 -0.2307,0.2507 -0.4452,0.5125 -0.5625,0.7305 -0.2462,0.4579 -0.4191,1.1619 -0.4179,1.6914 10e-4,0.44459 0.10999,0.98898 0.2793,1.4121 0.046,0.11497 0.0913,0.24351 0.22461,0.32617 0.13327,0.0827 0.24604,0.0806 0.41406,0.0996 0.15941,0.018 0.46061,0.0862 0.60742,0.13672 1.4107,0.48534 2.0738,2.106 1.4121,3.457 -0.44631,0.91136 -1.5057,1.50819 -2.457,1.4004 -0.11401,-0.0129 -0.19766,-0.02 -0.26758,-0.0195 -0.0349,2.3e-4 -0.0598,-0.003 -0.12109,0.0156 -0.0153,0.005 -0.0339,0.0113 -0.0586,0.0254 -0.0124,0.007 -0.0424,0.0288 -0.043,0.0293 -5.8e-4,5.1e-4 -0.0465,0.0522 -0.0469,0.0527 -3.5e-4,5.4e-4 -0.0351,0.0854 -0.0351,0.0859 -1.3e-4,5.7e-4 -0.004,0.0931 -0.004,0.0937 10e-5,6.2e-4 0.0231,0.0716 0.0234,0.0723 3.2e-4,6.5e-4 0.0199,0.0349 0.0293,0.0469 0.0751,0.0961 0.10096,0.0821 0.13282,0.0957 0.0319,0.0136 0.0637,0.0254 0.10156,0.0371 0.0757,0.0233 0.17414,0.0479 0.29883,0.0762 0.50152,0.1141 1.2605,0.0917 1.7441,-0.0566 l 0.39648,-0.12305 -0.0918,-0.0918 c 0.615,-0.26736 1.2705,-0.64912 1.6191,-1.1387 l 0.19531,-0.27345 -0.19141,-0.57616 c -0.50731,-1.535 0.39525,-3.0487 1.9707,-3.3145 1.1214,-0.18915 2.3249,0.50933 2.7324,1.5938 0.0269,0.0717 0.0458,0.12647 0.0625,0.16797 0.008,0.0207 0.0168,0.0383 0.0254,0.0566 0.004,0.009 0.008,0.0182 0.0156,0.0312 0.004,0.007 0.008,0.0134 0.0156,0.0234 0.007,0.01 0.0365,0.0405 0.0371,0.041 3.1e-4,2.8e-4 0.0427,0.033 0.043,0.0332 2.7e-4,1.6e-4 0.0896,0.0312 0.0898,0.0312 2.4e-4,4e-5 0.13261,-0.0155 0.13281,-0.0156 2.1e-4,-8e-5 0.0975,-0.072 0.0977,-0.0723 1.7e-4,-2.1e-4 0.037,-0.0622 0.0371,-0.0625 1.4e-4,-3.3e-4 0.011,-0.0302 0.0137,-0.041 0.005,-0.0217 0.007,-0.0342 0.008,-0.0449 0.003,-0.0429 1.8e-4,-0.0537 -0.002,-0.0723 -0.004,-0.0371 -0.0107,-0.0794 -0.0195,-0.13477 -0.112,-0.705 -0.465,-1.354 -1.02,-1.902 -0.58,-0.5737 -1.275,-0.9075 -2.111,-1.0195 -0.1256,-0.0168 -0.22033,-0.0418 -0.35547,0.008 -0.13514,0.0494 -0.20228,0.16004 -0.25195,0.24414 -0.0949,0.16068 -0.51594,0.58157 -0.77344,0.74609 -0.717,0.45811 -1.8999,0.46 -2.6191,0.002 -0.8372,-0.5333 -1.3157,-1.5734 -1.1641,-2.5019 0.0848,-0.519 0.3087,-0.9707 0.6739,-1.3574 0.0726,-0.0769 0.1288,-0.1374 0.1718,-0.1856 0.043,-0.0482 0.0684,-0.0722 0.10351,-0.13281 0.009,-0.0152 0.0208,-0.0337 0.0313,-0.0723 0.003,-0.01 0.004,-0.0198 0.006,-0.0332 0.002,-0.0134 0.002,-0.0483 0.002,-0.0488 -3e-5,-5.1e-4 -0.0116,-0.0621 -0.0117,-0.0625 -1.4e-4,-4.2e-4 -0.0349,-0.0719 -0.0352,-0.0723 -1.6e-4,-2.3e-4 -0.0217,-0.0218 -0.0391,-0.0391 -0.33721,-0.2255 -0.66797,0.22475 -0.66797,0.22475 z"
       style="fill:#ffffff"
       id="path1082"
       sodipodi:nodetypes="cccccccccccccccccccccccccccccccccccccccccccccccsccccsccsccccc" />
    <path
       d="m 424.85991,119.12206 c 0.95103,-0.29175 2.0921,-1.0927 2.627,-1.8438 l 0.17655,-0.24794 -0.22099,-0.66864 c -0.80723,-2.4424 0.65844,-4.9052 3.1714,-5.3291 1.8265,-0.30808 3.7428,0.80916 4.4035,2.5673 0.15729,0.41853 0.16209,0.42293 0.11092,0.1016 -0.15135,-0.95045 -0.62189,-1.8267 -1.3869,-2.5829 -0.79829,-0.78902 -1.7254,-1.2364 -2.8836,-1.3915 -0.35549,-0.0476 -0.39237,-0.0341 -0.52608,0.19223 -0.20615,0.34898 -0.80584,0.93281 -1.249,1.2159 -1.1936,0.76262 -3.0336,0.76294 -4.2301,8.4e-4 -1.3517,-0.86102 -2.1162,-2.51 -1.8681,-4.0291 0.13545,-0.82926 0.50057,-1.565 1.0826,-2.1814 0.42178,-0.44671 0.45033,-0.49596 0.20658,-0.35638 -0.41039,0.235 -1.371,1.2788 -1.6437,1.786 -0.31429,0.58457 -0.5695,1.6191 -0.56796,2.3024 0.001,0.58786 0.15523,1.3684 0.38118,1.9331 0.13171,0.32916 0.14843,0.33954 0.6363,0.39473 0.27556,0.0312 0.71106,0.12895 0.96777,0.21727 2.2699,0.78096 3.3409,3.3988 2.2782,5.5687 -0.72433,1.479 -2.4012,2.4314 -3.9686,2.2538 -0.63795,-0.0723 -0.5703,0.0141 0.13702,0.17502 0.62683,0.14258 1.7698,0.10488 2.366,-0.078 z"
       style="fill:#000000;enable-background:new;opacity:0.2"
       id="path2877" />
    <path
       d="m 424.85991,118.62206 c 0.95103,-0.29175 2.0921,-1.0927 2.627,-1.8438 l 0.17655,-0.24794 -0.22099,-0.66864 c -0.80723,-2.4424 0.65844,-4.9052 3.1714,-5.3291 1.8265,-0.30808 3.7428,0.80916 4.4035,2.5673 0.15729,0.41853 0.16209,0.42293 0.11092,0.1016 -0.15135,-0.95045 -0.62189,-1.8267 -1.3869,-2.5829 -0.79829,-0.78902 -1.7254,-1.2364 -2.8836,-1.3915 -0.35549,-0.0476 -0.39237,-0.0341 -0.52608,0.19223 -0.20615,0.34898 -0.80584,0.93281 -1.249,1.2159 -1.1936,0.76262 -3.0336,0.76294 -4.2301,8.4e-4 -1.3517,-0.86102 -2.1162,-2.51 -1.8681,-4.0291 0.13545,-0.82926 0.50057,-1.565 1.0826,-2.1814 0.42178,-0.44671 0.45033,-0.49596 0.20658,-0.35638 -0.41039,0.235 -1.371,1.2788 -1.6437,1.786 -0.31429,0.58457 -0.5695,1.6191 -0.56796,2.3024 0.001,0.58786 0.15523,1.3684 0.38118,1.9331 0.13171,0.32916 0.14843,0.33954 0.6363,0.39473 0.27556,0.0312 0.71106,0.12895 0.96777,0.21727 2.2699,0.78096 3.3409,3.3988 2.2782,5.5687 -0.72433,1.479 -2.4012,2.4314 -3.9686,2.2538 -0.63795,-0.0723 -0.5703,0.0141 0.13702,0.17502 0.62683,0.14258 1.7698,0.10488 2.366,-0.078 z"
       style="fill:#ffffff;enable-background:new"
       id="path2849"
       sodipodi:nodetypes="cscssssssscssssscsssssscc" />
    <path
       d="m 428.6045,58.388 c -2.07097,1.092854 -3.80407,3.135918 -3.85386,5.568525 -0.0397,1.262488 0.22369,2.594342 0.84088,3.682196 2.1655,0.03682 4.3959,1.272605 5.15528,3.378944 1.11238,2.784136 -0.19796,6.480453 -3.12504,7.506253 -1.50143,0.54064 -3.17085,0.29983 -4.62176,-0.28269 1.9836,1.2488 4.62531,1.72597 6.75686,0.54791 1.11596,-0.59117 2.09814,-1.48562 2.7673,-2.545263 -1.05317,-1.898441 -1.09445,-4.445168 0.34848,-6.159609 1.84934,-2.357553 5.70198,-3.083367 8.05622,-1.062922 1.21917,1.028643 1.8443,2.594787 2.0652,4.1417 0.0888,-2.340186 -0.81443,-4.863192 -2.89477,-6.121574 -1.06975,-0.682166 -2.33274,-1.056473 -3.5866,-1.143106 -1.11812,1.861653 -3.3023,3.172223 -5.5089,2.781692 -2.96461,-0.418667 -5.52335,-3.38686 -4.95071,-6.435105 0.27994,-1.569955 1.32432,-2.894108 2.55142,-3.856951 z"
       style="fill:#000000;stroke-width:0.526321;opacity:0.2"
       id="path2695" />
    <path
       d="m 428.6045,57.388 c -2.07097,1.092854 -3.80407,3.135918 -3.85386,5.568525 -0.0397,1.262488 0.22369,2.594342 0.84088,3.682196 2.1655,0.03682 4.3959,1.272605 5.15528,3.378944 1.11238,2.784136 -0.19796,6.480453 -3.12504,7.506253 -1.50143,0.54064 -3.17085,0.29983 -4.62176,-0.28269 1.9836,1.2488 4.62531,1.72597 6.75686,0.54791 1.11596,-0.59117 2.09814,-1.48562 2.7673,-2.545263 -1.05317,-1.898441 -1.09445,-4.445168 0.34848,-6.159609 1.84934,-2.357553 5.70198,-3.083367 8.05622,-1.062922 1.21917,1.028643 1.8443,2.594787 2.0652,4.1417 0.0888,-2.340186 -0.81443,-4.863192 -2.89477,-6.121574 -1.06975,-0.682166 -2.33274,-1.056473 -3.5866,-1.143106 -1.11812,1.861653 -3.3023,3.172223 -5.5089,2.781692 -2.96461,-0.418667 -5.52335,-3.38686 -4.95071,-6.435105 0.27994,-1.569955 1.32432,-2.894108 2.55142,-3.856951 z"
       style="fill:#ffffff;stroke-width:0.526321"
       id="path2667"
       sodipodi:nodetypes="cccccccccccccccc" />
    <path
       d="m 306.42182,259.5548 c 1.90206,-0.5835 4.1842,-2.1854 5.254,-3.6876 l 0.3531,-0.49588 -0.44198,-1.33728 c -1.61446,-4.8848 1.31688,-9.8104 6.3428,-10.6582 3.653,-0.61616 7.4856,1.61832 8.807,5.1346 0.31458,0.83706 0.32418,0.84586 0.22184,0.2032 -0.3027,-1.9009 -1.24378,-3.6534 -2.7738,-5.16579 -1.59658,-1.57805 -3.4508,-2.47281 -5.7672,-2.78301 -0.71098,-0.0952 -0.78474,-0.0683 -1.05216,0.38446 -0.4123,0.69797 -1.61168,1.86562 -2.498,2.4318 -2.3872,1.52524 -6.0672,1.52588 -8.4602,0.002 -2.7034,-1.72204 -4.2324,-5.02 -3.7362,-8.0582 0.2709,-1.65852 1.00114,-3.13 2.1652,-4.3628 0.84356,-0.89342 0.90066,-0.99192 0.41316,-0.71276 -0.82078,0.47 -2.742,2.5576 -3.2874,3.572 -0.62858,1.16914 -1.139,3.2382 -1.13592,4.6048 0.002,1.17572 0.31046,2.7368 0.76236,3.8662 0.26342,0.65832 0.29686,0.67908 1.2726,0.78946 0.55112,0.0623 1.42212,0.2579 1.93554,0.43454 4.5398,1.56193 6.6818,6.7976 4.5564,11.1374 -1.44866,2.958 -4.8024,4.8628 -7.9372,4.5076 -1.2759,-0.14456 -1.1406,0.0283 0.27404,0.35004 1.25366,0.28516 3.5396,0.20976 4.732,-0.15608 z"
       style="fill:#000000;stroke-width:2;enable-background:new;opacity:0.2"
       id="path1772" />
    <path
       d="m 306.42182,258.5548 c 1.90206,-0.5835 4.1842,-2.1854 5.254,-3.6876 l 0.3531,-0.49588 -0.44198,-1.33728 c -1.61446,-4.8848 1.31688,-9.8104 6.3428,-10.6582 3.653,-0.61616 7.4856,1.61832 8.807,5.1346 0.31458,0.83706 0.32418,0.84586 0.22184,0.2032 -0.3027,-1.9009 -1.24378,-3.6534 -2.7738,-5.16579 -1.59658,-1.57805 -3.4508,-2.47281 -5.7672,-2.78301 -0.71098,-0.0952 -0.78474,-0.0683 -1.05216,0.38446 -0.4123,0.69797 -1.61168,1.86562 -2.498,2.4318 -2.3872,1.52524 -6.0672,1.52588 -8.4602,0.002 -2.7034,-1.72204 -4.2324,-5.02 -3.7362,-8.0582 0.2709,-1.65852 1.00114,-3.13 2.1652,-4.3628 0.84356,-0.89342 0.90066,-0.99192 0.41316,-0.71276 -0.82078,0.47 -2.742,2.5576 -3.2874,3.572 -0.62858,1.16914 -1.139,3.2382 -1.13592,4.6048 0.002,1.17572 0.31046,2.7368 0.76236,3.8662 0.26342,0.65832 0.29686,0.67908 1.2726,0.78946 0.55112,0.0623 1.42212,0.2579 1.93554,0.43454 4.5398,1.56193 6.6818,6.7976 4.5564,11.1374 -1.44866,2.958 -4.8024,4.8628 -7.9372,4.5076 -1.2759,-0.14456 -1.1406,0.0283 0.27404,0.35004 1.25366,0.28516 3.5396,0.20976 4.732,-0.15608 z"
       id="path362"
       style="fill:#ffffff;stroke-width:2;enable-background:new"
       sodipodi:nodetypes="cscsssscssccsssscsssssscc" />
    <path
       d="m 313.20901,150.976 c -4.14194,2.18571 -7.60816,6.27184 -7.70774,11.13705 -0.0794,2.52498 0.44739,5.18868 1.68176,7.36439 4.331,0.0736 8.79181,2.54521 10.31056,6.75789 2.22477,5.56827 -0.39591,12.9609 -6.25007,15.01251 -3.00287,1.08127 -6.3417,0.59966 -9.24352,-0.56539 3.9672,2.49761 9.25062,3.45195 13.51372,1.09582 2.23192,-1.18233 4.19627,-2.97123 5.5346,-5.09052 -2.10634,-3.79688 -2.18891,-8.89034 0.69697,-12.31922 3.69867,-4.7151 11.40396,-6.16673 16.11243,-2.12584 2.43834,2.05728 3.6886,5.18957 4.13039,8.2834 0.17758,-4.68037 -1.62886,-9.72639 -5.78953,-12.24315 -2.1395,-1.36433 -4.66548,-2.11295 -7.1732,-2.28621 -2.23623,3.7233 -6.60459,6.34444 -11.0178,5.56338 -5.92922,-0.83733 -11.0467,-6.77372 -9.90143,-12.87021 0.55989,-3.13991 2.64866,-5.78821 5.10286,-7.7139 z"
       style="fill:#000000;stroke-width:1.05264;opacity:0.2"
       id="path1955" />
    <path
       d="m 313.20901,149.976 c -4.14194,2.18571 -7.60816,6.27184 -7.70774,11.13705 -0.0794,2.52498 0.44739,5.18868 1.68176,7.36439 4.331,0.0736 8.79181,2.54521 10.31056,6.75789 2.22477,5.56827 -0.39591,12.9609 -6.25007,15.01251 -3.00287,1.08127 -6.3417,0.59966 -9.24352,-0.56539 3.9672,2.49761 9.25062,3.45195 13.51372,1.09582 2.23192,-1.18233 4.19627,-2.97123 5.5346,-5.09052 -2.10634,-3.79688 -2.18891,-8.89034 0.69697,-12.31922 3.69867,-4.7151 11.40396,-6.16673 16.11243,-2.12584 2.43834,2.05728 3.6886,5.18957 4.13039,8.2834 0.17758,-4.68037 -1.62886,-9.72639 -5.78953,-12.24315 -2.1395,-1.36433 -4.66548,-2.11295 -7.1732,-2.28621 -2.23623,3.7233 -6.60459,6.34444 -11.0178,5.56338 -5.92922,-0.83733 -11.0467,-6.77372 -9.90143,-12.87021 0.55989,-3.13991 2.64866,-5.78821 5.10286,-7.7139 z"
       style="fill:#ffffff;stroke-width:1.05264"
       id="path1927"
       sodipodi:nodetypes="cccccccccccccccc" />
    <path
       d="m 323.84365,105.11061 c 3.80412,-1.167 8.3684,-4.3708 10.508,-7.375196 l 0.7062,-0.99176 -0.88396,-2.67456 c -3.22892,-9.7696 2.63376,-19.6208 12.6856,-21.3164 7.306,-1.232323 14.9712,3.23664 17.614,10.2692 0.62916,1.67412 0.64836,1.69172 0.44368,0.4064 -0.6054,-3.8018 -2.48756,-7.3068 -5.5476,-10.3316 -3.19316,-3.156083 -6.9016,-4.945603 -11.5344,-5.566003 -1.42196,-0.19044 -1.56948,-0.13652 -2.10432,0.76892 -0.8246,1.39592 -3.22336,3.73124 -4.996,4.863603 -4.7744,3.05048 -12.1344,3.05176 -16.9204,0.003 -5.4068,-3.444083 -8.4648,-10.040003 -7.4724,-16.116403 0.5418,-3.31704 2.00228,-6.26 4.3304,-8.7256 1.68712,-1.786842 1.80132,-1.983842 0.82632,-1.425522 -1.64156,0.94 -5.484,5.115202 -6.5748,7.144002 -1.25716,2.33828 -2.278,6.4764 -2.27184,9.2096 0.004,2.35144 0.62092,5.4736 1.52472,7.7324 0.52684,1.316643 0.59372,1.358163 2.5452,1.578923 1.10224,0.12468 2.84424,0.5158 3.87108,0.86908 9.0796,3.12384 13.3636,13.5952 9.1128,22.2748 -2.89732,5.915996 -9.6048,9.725596 -15.8744,9.015196 -2.5518,-0.28912 -2.2812,0.0566 0.54808,0.70008 2.50732,0.57032 7.0792,0.41952 9.464,-0.31216 z"
       style="fill:#000000;stroke-width:4;enable-background:new;opacity:0.2"
       id="path2512" />
    <path
       d="m 323.84365,104.11021 c 3.80412,-1.167 8.3684,-4.3708 10.508,-7.375199 l 0.7062,-0.99176 -0.88396,-2.67456 c -3.22892,-9.7696 2.63376,-19.6208 12.6856,-21.3164 7.306,-1.23232 14.9712,3.23664 17.614,10.2692 0.62916,1.67412 0.64836,1.69172 0.44368,0.4064 -0.6054,-3.8018 -2.48756,-7.3068 -5.5476,-10.3316 -3.19316,-3.15608 -6.9016,-4.9456 -11.5344,-5.566 -1.42196,-0.19044 -1.56948,-0.13652 -2.10432,0.76892 -0.8246,1.39592 -3.22336,3.73124 -4.996,4.8636 -4.7744,3.05048 -12.1344,3.05176 -16.9204,0.0034 -5.4068,-3.44408 -8.4648,-10.04 -7.4724,-16.1164 0.5418,-3.31704 2.00228,-6.26 4.3304,-8.7256 1.68712,-1.786842 1.80132,-1.983842 0.82632,-1.425522 -1.64156,0.94 -5.484,5.115202 -6.5748,7.144002 -1.25716,2.33828 -2.278,6.4764 -2.27184,9.2096 0.004,2.35144 0.62092,5.4736 1.52472,7.7324 0.52684,1.31664 0.59372,1.35816 2.5452,1.57892 1.10224,0.12468 2.84424,0.5158 3.87108,0.86908 9.0796,3.12384 13.3636,13.5952 9.1128,22.2748 -2.89732,5.915999 -9.6048,9.725599 -15.8744,9.015199 -2.5518,-0.28912 -2.2812,0.0566 0.54808,0.70008 2.50732,0.57032 7.0792,0.41952 9.464,-0.31216 z"
       style="fill:#ffffff;stroke-width:4;enable-background:new"
       id="path2484"
       sodipodi:nodetypes="cccscsscssccscsscsssssscc" />
    <path
       d="m 116.83603,73.104 c -16.56775,8.74283 -30.43261,25.08735 -30.83093,44.54819 -0.3176,10.09991 1.78956,20.75474 6.72705,29.45757 17.32398,0.29456 35.16723,10.18084 41.24224,27.03155 8.89905,22.27309 -1.58367,51.8436 -25.00029,60.05002 -12.01148,4.3251 -25.3668,2.39866 -36.97409,-2.26154 15.86881,9.99044 37.00247,13.8078 54.05489,4.38328 8.92768,-4.72932 16.78507,-11.88492 22.13839,-20.36208 -8.42536,-15.18753 -8.75563,-35.56134 2.78786,-49.27687 14.7947,-18.86043 45.61583,-24.66694 64.44975,-8.50338 9.75336,8.22915 14.75438,20.7583 16.52154,33.1336 0.71032,-18.72149 -6.51544,-38.90553 -23.15814,-48.97259 -8.558,-5.45733 -18.66191,-8.45178 -28.69276,-9.14485 -8.94494,14.89323 -26.41838,25.37779 -44.0712,22.25354 C 112.31343,152.0911 91.84352,128.34556 96.42463,103.9596 98.66418,91.39997 107.01924,80.80675 116.83603,73.104 Z"
       style="fill:#000000;stroke-width:4.21056;opacity:0.2"
       id="path2329" />
    <path
       d="m 116.83603,71.104 c -16.56775,8.742832 -30.432615,25.087348 -30.830935,44.54819 -0.3176,10.09991 1.78956,20.75474 6.727048,29.45757 17.323987,0.29456 35.167237,10.18084 41.242247,27.03155 8.89905,22.27309 -1.58367,51.8436 -25.00029,60.05002 -12.011485,4.3251 -25.366805,2.39866 -36.974093,-2.26154 15.868808,9.99044 37.002473,13.8078 54.054893,4.38328 8.92768,-4.72932 16.78507,-11.88492 22.13839,-20.36208 -8.42536,-15.18753 -8.75563,-35.56134 2.78786,-49.27687 14.7947,-18.86043 45.61583,-24.66694 64.44975,-8.50338 9.75336,8.22915 14.75438,20.7583 16.52154,33.1336 0.71032,-18.72149 -6.51544,-38.90553 -23.15814,-48.97259 -8.558,-5.45733 -18.66191,-8.45178 -28.69276,-9.14485 -8.94494,14.89323 -26.41838,25.37779 -44.0712,22.25354 C 112.31343,150.0911 91.843519,126.34556 96.424623,101.9596 98.66418,89.399968 107.01924,78.806744 116.83603,71.104 Z"
       style="fill:#ffffff;stroke-width:4.21056"
       id="path2278"
       sodipodi:nodetypes="cccccccccccccccc" />
  </g>
  <g
     id="Highlights">
    <path
       id="rect653"
       style="opacity:0.2;fill:#ffffff"
       d="M 80,44 C 53.408027,44 32,65.408027 32,92 v 2 C 32,67.408027 53.408027,46 80,46 h 128 c 26.59197,0 48,21.408027 48,48 V 92 C 256,65.408027 234.59197,44 208,44 Z"
       sodipodi:nodetypes="sscsscsss" />
    <path
       id="rect773"
       style="opacity:0.2;fill:#ffffff"
       d="m 312,34 c -9.97199,0 -18,8.02801 -18,18 v 1 c 0,-9.97199 8.02801,-18 18,-18 h 48 c 9.97199,0 18,8.02801 18,18 v -1 c 0,-9.97199 -8.02801,-18 -18,-18 z" />
    <path
       id="rect1135"
       style="opacity:0.2;fill:#ffffff;fill-opacity:1"
       d="m 304,144 c -6.64799,0 -12,5.35201 -12,12 v 1 c 0,-6.64799 5.35201,-12 12,-12 h 32 c 6.64799,0 12,5.35201 12,12 v -1 c 0,-6.64799 -5.35201,-12 -12,-12 z" />
    <path
       id="rect1265"
       style="opacity:0.2;fill:#ffffff;fill-opacity:1"
       d="m 300,223 c -4.986,0 -9,4.014 -9,9 v 1 c 0,-4.986 4.014,-9 9,-9 h 24 c 4.986,0 9,4.014 9,9 v -1 c 0,-4.986 -4.014,-9 -9,-9 z" />
    <path
       id="rect1368"
       style="opacity:0.2;fill:#ffffff;fill-opacity:1"
       d="m 424,54 c -3.324,0 -6,2.676003 -6,6 v 1 c 0,-3.323997 2.676,-6 6,-6 h 16 c 3.324,0 6,2.676003 6,6 v -1 c 0,-3.323997 -2.676,-6 -6,-6 z" />
    <path
       id="rect1402"
       style="opacity:0.2;fill:#ffffff;fill-opacity:1"
       d="m 420,140 c -2.216,0 -4,1.784 -4,4 v 1 c 0,-2.216 1.784,-4 4,-4 h 8 c 2.216,0 4,1.784 4,4 v -1 c 0,-2.216 -1.784,-4 -4,-4 z" />
    <path
       id="rect1436"
       style="opacity:0.2;fill:#ffffff;fill-opacity:1"
       d="m 422,102 c -2.216,0 -4,1.784 -4,4 v 1 c 0,-2.216 1.784,-4 4,-4 h 12 c 2.216,0 4,1.784 4,4 v -1 c 0,-2.216 -1.784,-4 -4,-4 z" />
  </g>
</svg>
