<?xml version="1.0" encoding="UTF-8" standalone="no"?>
<!-- Created with Inkscape (http://www.inkscape.org/) -->

<svg
   width="480"
   height="300"
   viewBox="0 0 480 300"
   version="1.1"
   id="svg5"
   inkscape:version="1.2.2 (1:1.2.2+202305151914+b0a8486541)"
   sodipodi:docname="onboard.svg"
   xmlns:inkscape="http://www.inkscape.org/namespaces/inkscape"
   xmlns:sodipodi="http://sodipodi.sourceforge.net/DTD/sodipodi-0.dtd"
   xmlns="http://www.w3.org/2000/svg"
   xmlns:svg="http://www.w3.org/2000/svg">
  <sodipodi:namedview
     id="namedview7"
     pagecolor="#888888"
     bordercolor="#000000"
     borderopacity="0.25"
     inkscape:showpageshadow="true"
     inkscape:pageopacity="0"
     inkscape:pagecheckerboard="0"
     inkscape:deskcolor="#888888"
     inkscape:document-units="px"
     showgrid="false"
     showborder="false"
     inkscape:zoom="2.6866667"
     inkscape:cx="240.07444"
     inkscape:cy="150"
     inkscape:window-width="1920"
     inkscape:window-height="1008"
     inkscape:window-x="0"
     inkscape:window-y="0"
     inkscape:window-maximized="1"
     inkscape:current-layer="svg5" />
  <defs
     id="defs2">
    <mask
       maskUnits="userSpaceOnUse"
       id="mask1781">
      <rect
         style="opacity:1;fill:#ffffff;fill-opacity:1;stroke-width:2;stroke-linecap:square"
         id="rect1783"
         width="224"
         height="224"
         x="32"
         y="44"
         ry="48" />
    </mask>
    <mask
       maskUnits="userSpaceOnUse"
       id="mask1785">
      <rect
         style="opacity:1;fill:#ffffff;fill-opacity:1;stroke-width:2;stroke-linecap:square"
         id="rect1787"
         width="224"
         height="224"
         x="32"
         y="44"
         ry="48" />
    </mask>
    <mask
       maskUnits="userSpaceOnUse"
       id="mask1791">
      <rect
         style="opacity:1;fill:#ffffff;fill-opacity:1;stroke-width:2;stroke-linecap:square"
         id="rect1793"
         width="84"
         height="84"
         x="294"
         y="34"
         ry="18" />
    </mask>
    <mask
       maskUnits="userSpaceOnUse"
       id="mask1795">
      <rect
         style="opacity:1;fill:#ffffff;fill-opacity:1;stroke-width:2;stroke-linecap:square"
         id="rect1797"
         width="84"
         height="84"
         x="294"
         y="34"
         ry="18" />
    </mask>
    <mask
       maskUnits="userSpaceOnUse"
       id="mask1801">
      <rect
         style="opacity:1;fill:#ffffff;fill-opacity:1;stroke-width:2;stroke-linecap:square"
         id="rect1803"
         width="56"
         height="56"
         x="292"
         y="144"
         ry="12" />
    </mask>
    <mask
       maskUnits="userSpaceOnUse"
       id="mask1805">
      <rect
         style="opacity:1;fill:#ffffff;fill-opacity:1;stroke-width:2;stroke-linecap:square"
         id="rect1807"
         width="56"
         height="56"
         x="292"
         y="144"
         ry="12" />
    </mask>
    <mask
       maskUnits="userSpaceOnUse"
       id="mask1811">
      <rect
         style="opacity:1;fill:#ffffff;fill-opacity:1;stroke-width:2;stroke-linecap:square"
         id="rect1813"
         width="42"
         height="42"
         x="291"
         y="223"
         ry="9" />
    </mask>
    <mask
       maskUnits="userSpaceOnUse"
       id="mask1815">
      <rect
         style="opacity:1;fill:#ffffff;fill-opacity:1;stroke-width:2;stroke-linecap:square"
         id="rect1817"
         width="42"
         height="42"
         x="291"
         y="223"
         ry="9" />
    </mask>
    <mask
       maskUnits="userSpaceOnUse"
       id="mask1890">
      <rect
         style="opacity:1;fill:#ffffff;fill-opacity:1;stroke-width:2;stroke-linecap:square"
         id="rect1892"
         width="28"
         height="28"
         x="418"
         y="54"
         ry="6" />
    </mask>
    <mask
       maskUnits="userSpaceOnUse"
       id="mask1894">
      <rect
         style="opacity:1;fill:#ffffff;fill-opacity:1;stroke-width:2;stroke-linecap:square"
         id="rect1896"
         width="28"
         height="28"
         x="418"
         y="54"
         ry="6" />
    </mask>
    <mask
       maskUnits="userSpaceOnUse"
       id="mask2115">
      <rect
         style="opacity:1;fill:#ffffff;fill-opacity:1;stroke-width:2;stroke-linecap:square"
         id="rect2117"
         width="20"
         height="20"
         x="418"
         y="102"
         ry="4" />
    </mask>
    <mask
       maskUnits="userSpaceOnUse"
       id="mask2119">
      <rect
         style="opacity:1;fill:#ffffff;fill-opacity:1;stroke-width:2;stroke-linecap:square"
         id="rect2121"
         width="20"
         height="20"
         x="418"
         y="102"
         ry="4" />
    </mask>
    <mask
       maskUnits="userSpaceOnUse"
       id="mask2125">
      <rect
         style="opacity:1;fill:#ffffff;fill-opacity:1;stroke-width:2;stroke-linecap:square"
         id="rect2127"
         width="16"
         height="16"
         x="416"
         y="140"
         ry="4" />
    </mask>
    <mask
       maskUnits="userSpaceOnUse"
       id="mask2129">
      <rect
         style="opacity:1;fill:#ffffff;fill-opacity:1;stroke-width:2;stroke-linecap:square"
         id="rect2131"
         width="16"
         height="16"
         x="416"
         y="140"
         ry="4" />
    </mask>
  </defs>
  <g
     id="Baseplate"
     style="display:none">
    <text
       y="19.774782"
       xml:space="preserve"
       x="15.006946"
       style="font-style:normal;font-variant:normal;font-weight:normal;font-stretch:normal;line-height:0%;font-family:'DejaVu Sans';-inkscape-font-specification:'DejaVu Sans';display:inline;fill:#000000;fill-opacity:1;stroke:none;enable-background:new"
       inkscape:label="context"
       id="context"><tspan
         style="font-style:normal;font-variant:normal;font-weight:normal;font-stretch:normal;font-size:18px;line-height:1.25;font-family:'DejaVu Sans';-inkscape-font-specification:'DejaVu Sans'"
         y="19.774782"
         x="15.006946"
         sodipodi:role="line"
         id="tspan3933">apps</tspan></text>
    <text
       y="19.774782"
       xml:space="preserve"
       x="122.48839"
       style="font-style:normal;font-variant:normal;font-weight:bold;font-stretch:normal;line-height:0%;font-family:'DejaVu Sans';-inkscape-font-specification:'DejaVu Sans Bold';text-align:start;writing-mode:lr-tb;text-anchor:start;display:inline;fill:#000000;fill-opacity:1;stroke:none;enable-background:new"
       inkscape:label="icon-name"
       id="icon-name"><tspan
         style="font-style:normal;font-variant:normal;font-weight:bold;font-stretch:normal;font-size:18px;line-height:1.25;font-family:'DejaVu Sans';-inkscape-font-specification:'DejaVu Sans Bold'"
         y="19.774782"
         x="122.48839"
         sodipodi:role="line"
         id="tspan3937">onboard</tspan></text>
    <rect
       style="fill:#ffffff"
       id="256x256"
       width="256"
       height="256"
       x="16"
       y="28" />
    <rect
       style="fill:#ffffff"
       id="96x96"
       width="96"
       height="96"
       x="288"
       y="28" />
    <rect
       style="fill:#ffffff"
       id="64x64"
       width="64"
       height="64"
       x="288"
       y="140" />
    <rect
       style="fill:#ffffff"
       id="48x48"
       width="48"
       height="48"
       x="288"
       y="220" />
    <rect
       style="fill:#ffffff"
       id="32x32"
       width="32"
       height="32"
       x="416"
       y="52" />
    <rect
       style="fill:#ffffff"
       id="24x24"
       width="24"
       height="24"
       x="416"
       y="100" />
    <rect
       style="fill:#ffffff"
       id="22x22"
       width="22"
       height="22"
       x="417"
       y="101" />
    <rect
       style="fill:#ffffff"
       id="16x16"
       width="16"
       height="16"
       x="416"
       y="140" />
  </g>
  <g
     id="Shadow">
    <rect
       style="opacity:0.2;fill:#000000"
       id="rect651"
       width="224"
       height="224"
       x="32"
       y="46"
       ry="48" />
    <rect
       style="opacity:0.2;fill:#000000"
       id="rect769"
       width="84"
       height="85"
       x="294"
       y="34"
       ry="18" />
    <rect
       style="opacity:0.2;fill:#000000;fill-opacity:1"
       id="rect1131"
       width="56"
       height="56"
       x="292"
       y="145"
       ry="12" />
    <rect
       style="opacity:0.2;fill:#000000;fill-opacity:1"
       id="rect1261"
       width="42"
       height="42"
       x="291"
       y="224"
       ry="9" />
    <rect
       style="opacity:0.2;fill:#000000;fill-opacity:1"
       id="rect1364"
       width="28"
       height="29"
       x="418"
       y="54"
       ry="6" />
    <rect
       style="opacity:0.2;fill:#000000;fill-opacity:1"
       id="rect1398"
       width="16"
       height="16"
       x="416"
       y="141"
       ry="4" />
    <rect
       style="opacity:0.2;fill:#000000;fill-opacity:1"
       id="rect1432"
       width="20"
       height="20"
       x="418"
       y="103"
       ry="4" />
  </g>
  <g
     id="Background">
    <path
       id="rect597"
       style="fill:#e4e4e4;fill-opacity:1"
       d="M 144 44 L 32 156 L 32 220 C 32 246.59197 53.408027 268 80 268 L 144 268 L 256 156 L 256 92 C 256 65.408027 234.59197 44 208 44 L 144 44 z " />
    <path
       id="rect771"
       style="opacity:1;fill:#e4e4e4;fill-opacity:1"
       d="M 336 34 L 294 76 L 294 100 C 294 109.97199 302.02801 118 312 118 L 336 118 L 378 76 L 378 52 C 378 42.02801 369.97199 34 360 34 L 336 34 z " />
    <path
       id="rect1133"
       style="opacity:1;fill:#e4e4e4;fill-opacity:1"
       d="M 320 144 L 292 172 L 292 188 C 292 194.64799 297.35201 200 304 200 L 320 200 L 348 172 L 348 156 C 348 149.35201 342.64799 144 336 144 L 320 144 z " />
    <path
       id="rect1263"
       style="opacity:1;fill:#e4e4e4;fill-opacity:1"
       d="M 312 223 L 291 244 L 291 256 C 291 260.986 295.014 265 300 265 L 312 265 L 333 244 L 333 232 C 333 227.014 328.986 223 324 223 L 312 223 z " />
    <path
       id="rect1366"
       style="opacity:1;fill:#e4e4e4;fill-opacity:1"
       d="M 432 54 L 418 68 L 418 76 C 418 79.323997 420.676 82 424 82 L 432 82 L 446 68 L 446 60 C 446 56.676003 443.324 54 440 54 L 432 54 z " />
    <path
       id="rect1400"
       style="opacity:1;fill:#e4e4e4;fill-opacity:1"
       d="M 424 140 L 416 148 L 416 152 C 416 154.216 417.784 156 420 156 L 424 156 L 432 148 L 432 144 C 432 141.784 430.216 140 428 140 L 424 140 z " />
    <path
       id="rect1434"
       style="opacity:1;fill:#e4e4e4;fill-opacity:1"
       d="M 428 102 L 418 112 L 418 118 C 418 120.216 419.784 122 422 122 L 428 122 L 438 112 L 438 106 C 438 103.784 436.216 102 434 102 L 428 102 z " />
  </g>
  <g
     id="g1192">
    <g
       id="g1389">
      <g
         id="g1397"
         transform="matrix(-1,0,0,1,848,0)">
        <rect
           style="opacity:1;fill:#008aff;fill-opacity:1;stroke-width:0.571429;stroke-linecap:square"
           id="rect876"
           width="8"
           height="8"
           x="424"
           y="140"
           mask="url(#mask2129)" />
        <rect
           style="opacity:1;fill:#ebc53d;fill-opacity:1;stroke-width:0.571429;stroke-linecap:square"
           id="rect1294"
           width="8"
           height="8"
           x="416"
           y="148"
           mask="url(#mask2125)" />
        <rect
           style="opacity:0.2;fill:#ffffff;stroke-width:2;stroke-linecap:square"
           id="rect654"
           width="8"
           height="1"
           x="-432"
           y="148"
           transform="scale(-1,1)" />
        <rect
           style="opacity:0.2;fill:#000000;stroke-width:2;stroke-linecap:square"
           id="rect708"
           width="8"
           height="1"
           x="-424"
           y="148"
           transform="scale(-1,1)" />
      </g>
      <g
         id="g1401"
         transform="matrix(-1,0,0,1,856,0)">
        <rect
           style="opacity:1;fill:#008aff;fill-opacity:1;stroke-width:2;stroke-linecap:square"
           id="rect1350"
           width="10"
           height="10"
           x="418"
           y="112"
           mask="url(#mask2119)" />
        <rect
           style="opacity:1;fill:#ebc53d;fill-opacity:1;stroke-width:2;stroke-linecap:square"
           id="rect1352"
           width="10"
           height="10"
           x="428"
           y="102"
           mask="url(#mask2115)" />
        <rect
           style="opacity:0.2;fill:#ffffff;stroke-width:2;stroke-linecap:square"
           id="rect762"
           width="10"
           height="1"
           x="-438"
           y="112"
           transform="scale(-1,1)" />
        <rect
           style="opacity:0.2;fill:#000000;stroke-width:2;stroke-linecap:square"
           id="rect764"
           width="10"
           height="1"
           x="-428"
           y="112"
           transform="scale(-1,1)" />
      </g>
      <g
         id="g1405"
         transform="matrix(-1,0,0,1,864,0)">
        <rect
           style="opacity:1;fill:#008aff;fill-opacity:1;stroke-width:2;stroke-linecap:square"
           id="rect1354"
           width="14"
           height="14"
           x="418"
           y="68"
           mask="url(#mask1894)" />
        <rect
           style="opacity:1;fill:#ebc53d;fill-opacity:1;stroke-width:2;stroke-linecap:square"
           id="rect1356"
           width="14"
           height="14"
           x="432"
           y="54"
           mask="url(#mask1890)" />
        <rect
           style="opacity:0.2;fill:#ffffff;stroke-width:2;stroke-linecap:square"
           id="rect768"
           width="14"
           height="1"
           x="-446"
           y="68"
           transform="scale(-1,1)" />
        <rect
           style="opacity:0.2;fill:#000000;stroke-width:2;stroke-linecap:square"
           id="rect770"
           width="14"
           height="1"
           x="-432"
           y="68"
           transform="scale(-1,1)" />
      </g>
      <g
         id="g1409"
         transform="matrix(-1,0,0,1,624,0)">
        <rect
           style="opacity:1;fill:#008aff;fill-opacity:1;stroke-width:2;stroke-linecap:square"
           id="rect1358"
           width="21"
           height="21"
           x="291"
           y="244"
           mask="url(#mask1815)" />
        <rect
           style="opacity:1;fill:#ebc53d;fill-opacity:1;stroke-width:2;stroke-linecap:square"
           id="rect1360"
           width="21"
           height="21"
           x="312"
           y="223"
           mask="url(#mask1811)" />
        <rect
           style="opacity:0.2;fill:#ffffff;stroke-width:2;stroke-linecap:square"
           id="rect772"
           width="21"
           height="1"
           x="-333"
           y="244"
           transform="scale(-1,1)" />
        <rect
           style="opacity:0.2;fill:#000000;stroke-width:2;stroke-linecap:square"
           id="rect774"
           width="21"
           height="1"
           x="-312"
           y="244"
           transform="scale(-1,1)" />
      </g>
      <g
         id="g1420"
         transform="matrix(-1,0,0,1,640,0)">
        <rect
           style="opacity:1;fill:#008aff;fill-opacity:1;stroke-width:2;stroke-linecap:square"
           id="rect1362"
           width="28"
           height="28"
           x="292"
           y="172"
           mask="url(#mask1805)" />
        <rect
           style="opacity:1;fill:#ebc53d;fill-opacity:1;stroke-width:2;stroke-linecap:square"
           id="rect1365"
           width="28"
           height="28"
           x="320"
           y="144"
           mask="url(#mask1801)" />
        <rect
           style="opacity:0.2;fill:#ffffff;stroke-width:2;stroke-linecap:square"
           id="rect776"
           width="28"
           height="1"
           x="-348"
           y="172"
           transform="scale(-1,1)" />
        <rect
           style="opacity:0.2;fill:#000000;stroke-width:2;stroke-linecap:square"
           id="rect778"
           width="28"
           height="1"
           x="-320"
           y="172"
           transform="scale(-1,1)" />
      </g>
      <g
         id="g1424"
         transform="matrix(-1,0,0,1,672,0)">
        <rect
           style="opacity:1;fill:#008aff;fill-opacity:1;stroke-width:2;stroke-linecap:square"
           id="rect1367"
           width="42"
           height="42"
           x="294"
           y="76"
           mask="url(#mask1795)" />
        <rect
           style="opacity:1;fill:#ebc53d;fill-opacity:1;stroke-width:2;stroke-linecap:square"
           id="rect1369"
           width="42"
           height="42"
           x="336"
           y="34"
           mask="url(#mask1791)" />
        <rect
           style="opacity:0.2;fill:#ffffff;stroke-width:2;stroke-linecap:square"
           id="rect780"
           width="42"
           height="1"
           x="-378"
           y="76"
           transform="scale(-1,1)" />
        <rect
           style="opacity:0.2;fill:#000000;stroke-width:2;stroke-linecap:square"
           id="rect782"
           width="42"
           height="1"
           x="-336"
           y="76"
           transform="scale(-1,1)" />
      </g>
      <g
         id="g1393"
         transform="matrix(-1,0,0,1,288,0)">
        <rect
           style="opacity:1;fill:#008aff;fill-opacity:1;stroke-width:2;stroke-linecap:square"
           id="rect1371"
           width="112"
           height="112"
           x="32"
           y="156"
           mask="url(#mask1785)" />
        <rect
           style="opacity:1;fill:#ebc53d;fill-opacity:1;stroke-width:2;stroke-linecap:square"
           id="rect1373"
           width="112"
           height="112"
           x="144"
           y="44"
           mask="url(#mask1781)" />
        <rect
           style="opacity:0.2;fill:#ffffff;fill-opacity:1;stroke-width:2;stroke-linecap:square"
           id="rect2927"
           width="112"
           height="2"
           x="-256"
           y="156"
           transform="scale(-1,1)" />
        <rect
           style="opacity:0.2;fill:#000000;fill-opacity:1;stroke-width:2;stroke-linecap:square"
           id="rect2981"
           width="112"
           height="2"
           x="-144"
           y="156"
           transform="scale(-1,1)" />
      </g>
    </g>
    <g
       id="g2106">
      <path
         d="m 425.9997,150.5 v 4 h 1.66437 c 0.51676,0 0.90308,-0.0935 1.15625,-0.28313 0.25317,-0.1888 0.37938,-0.4779 0.37938,-0.86375 0,-0.25147 -0.0585,-0.46435 -0.17625,-0.6375 -0.11777,-0.17313 -0.28636,-0.29193 -0.50188,-0.35625 0.16825,-0.066 0.29813,-0.16584 0.38625,-0.30187 0.0889,-0.13769 0.1325,-0.30542 0.1325,-0.5 0,-0.37019 -0.12019,-0.63806 -0.36375,-0.80625 C 428.43542,150.58306 428.04469,150.5 427.5047,150.5 Z m 1.00312,0.70125 h 0.55313 c 0.15783,0 0.27765,0.036 0.35937,0.10937 0.0817,0.0709 0.12375,0.17669 0.12375,0.31438 0,0.13934 -0.042,0.24474 -0.12375,0.31562 -0.0817,0.0717 -0.20154,0.1075 -0.35937,0.1075 h -0.55313 z m -10e-4,1.55 h 0.5875 c 0.2027,0 0.35656,0.0426 0.4575,0.13 0.10096,0.0857 0.15,0.21561 0.15,0.38875 0,0.17644 -0.0506,0.30948 -0.15312,0.39687 -0.10015,0.0874 -0.25328,0.13125 -0.45438,0.13125 h -0.5875 z M 420.00187,142.5 c -0.62337,0 -1.11465,0.17781 -1.47062,0.5325 C 418.17704,143.3871 418,143.87511 418,144.5 c 0,0.62322 0.17704,1.11227 0.53125,1.46687 0.35598,0.35445 0.84725,0.53313 1.47062,0.53313 0.62507,0 1.11275,-0.17868 1.46688,-0.53313 C 421.82304,145.61227 422,145.12322 422,144.5 c 0,-0.62489 -0.17696,-1.1129 -0.53125,-1.4675 -0.35413,-0.35469 -0.84181,-0.5325 -1.46688,-0.5325 z m 0,0.72 c 0.30732,0 0.5441,0.11246 0.7125,0.33625 0.16841,0.22379 0.25313,0.53749 0.25313,0.94375 0,0.40459 -0.0847,0.71996 -0.25313,0.94375 -0.1684,0.22379 -0.40518,0.33562 -0.7125,0.33562 -0.30563,0 -0.54284,-0.11183 -0.71125,-0.33562 -0.16848,-0.22379 -0.25437,-0.53916 -0.25437,-0.94375 0,-0.40626 0.0859,-0.71996 0.25437,-0.94375 0.16841,-0.22379 0.40562,-0.33625 0.71125,-0.33625 z"
         style="fill:#000000;opacity:0.2"
         id="path2084" />
      <path
         d="m 425.9997,150 v 4 h 1.66437 c 0.51676,0 0.90308,-0.0935 1.15625,-0.28313 0.25317,-0.1888 0.37938,-0.4779 0.37938,-0.86375 0,-0.25147 -0.0585,-0.46435 -0.17625,-0.6375 -0.11777,-0.17313 -0.28636,-0.29193 -0.50188,-0.35625 0.16825,-0.066 0.29813,-0.16584 0.38625,-0.30187 0.0889,-0.13769 0.1325,-0.30542 0.1325,-0.5 0,-0.37019 -0.12019,-0.63806 -0.36375,-0.80625 C 428.43542,150.08306 428.04469,150 427.5047,150 Z m 1.00312,0.70125 h 0.55313 c 0.15783,0 0.27765,0.036 0.35937,0.10937 0.0817,0.0709 0.12375,0.17669 0.12375,0.31438 0,0.13934 -0.042,0.24474 -0.12375,0.31562 -0.0817,0.0717 -0.20154,0.1075 -0.35937,0.1075 h -0.55313 z m -10e-4,1.55 h 0.5875 c 0.2027,0 0.35656,0.0426 0.4575,0.13 0.10096,0.0857 0.15,0.21561 0.15,0.38875 0,0.17644 -0.0506,0.30948 -0.15312,0.39687 -0.10015,0.0874 -0.25328,0.13125 -0.45438,0.13125 h -0.5875 z M 420.00187,142 c -0.62337,0 -1.11465,0.17781 -1.47062,0.5325 C 418.17704,142.8871 418,143.37511 418,144 c 0,0.62322 0.17704,1.11227 0.53125,1.46687 0.35598,0.35445 0.84725,0.53313 1.47062,0.53313 0.62507,0 1.11275,-0.17868 1.46688,-0.53313 C 421.82304,145.11227 422,144.62322 422,144 c 0,-0.62489 -0.17696,-1.1129 -0.53125,-1.4675 C 421.11462,142.17781 420.62694,142 420.00187,142 Z m 0,0.72 c 0.30732,0 0.5441,0.11246 0.7125,0.33625 0.16841,0.22379 0.25313,0.53749 0.25313,0.94375 0,0.40459 -0.0847,0.71996 -0.25313,0.94375 -0.1684,0.22379 -0.40518,0.33562 -0.7125,0.33562 -0.30563,0 -0.54284,-0.11183 -0.71125,-0.33562 -0.16848,-0.22379 -0.25437,-0.53916 -0.25437,-0.94375 0,-0.40626 0.0859,-0.71996 0.25437,-0.94375 0.16841,-0.22379 0.40562,-0.33625 0.71125,-0.33625 z"
         style="fill:#3f3f3f"
         id="path1149"
         sodipodi:nodetypes="ccscssccscsccscscscccscscsccscscssscssssssssss" />
    </g>
    <g
       id="g2110">
      <path
         d="m 431.0001,114.5 v 6 h 2.49656 c 0.77514,0 1.35462,-0.14024 1.73438,-0.42469 0.37975,-0.2832 0.56906,-0.71685 0.56906,-1.29562 0,-0.37721 -0.0877,-0.69654 -0.26438,-0.95625 -0.17665,-0.25971 -0.42953,-0.4379 -0.75281,-0.53438 0.25237,-0.0989 0.44718,-0.24876 0.57938,-0.45281 0.1334,-0.20653 0.19875,-0.45814 0.19875,-0.75 0,-0.55529 -0.18029,-0.95709 -0.54563,-1.20937 C 434.65368,114.62459 434.06759,114.5 433.2576,114.5 Z m 1.50469,1.05188 h 0.82969 c 0.23674,0 0.41648,0.054 0.53906,0.16406 0.12257,0.10635 0.18562,0.26503 0.18562,0.47156 0,0.209 -0.063,0.36712 -0.18562,0.47344 -0.12258,0.1076 -0.30232,0.16125 -0.53906,0.16125 h -0.82969 z m -0.002,2.325 h 0.88125 c 0.30404,0 0.53483,0.0639 0.68625,0.19499 0.15143,0.12863 0.225,0.32343 0.225,0.58313 0,0.26466 -0.0759,0.46422 -0.22969,0.59531 -0.15022,0.13113 -0.37992,0.19688 -0.68156,0.19688 h -0.88125 z M 423.00281,104.5 c -0.93506,0 -1.67197,0.26672 -2.20594,0.79875 C 420.26556,105.83065 420,106.56267 420,107.5 c 0,0.93484 0.26556,1.66841 0.79687,2.20031 0.53397,0.53167 1.27088,0.79969 2.20594,0.79969 0.93759,0 1.66912,-0.26802 2.20031,-0.79969 C 425.73456,109.16841 426,108.43484 426,107.5 c 0,-0.93733 -0.26544,-1.66935 -0.79688,-2.20125 C 424.67193,104.76672 423.9404,104.5 423.00281,104.5 Z m 0,1.08 c 0.46098,0 0.81614,0.16869 1.06875,0.50437 0.25262,0.33569 0.37969,0.80623 0.37969,1.41563 0,0.60689 -0.12707,1.07994 -0.37969,1.41562 -0.25261,0.33569 -0.60777,0.50344 -1.06875,0.50344 -0.45845,0 -0.81426,-0.16775 -1.06687,-0.50344 -0.25274,-0.33568 -0.38157,-0.80873 -0.38157,-1.41562 0,-0.6094 0.12883,-1.07994 0.38157,-1.41563 0.25261,-0.33568 0.60842,-0.50437 1.06687,-0.50437 z"
         style="fill:#000000;opacity:0.2"
         id="path2056" />
      <path
         d="m 431.0001,114 v 6 h 2.49656 c 0.77514,0 1.35462,-0.14024 1.73438,-0.42469 0.37975,-0.2832 0.56906,-0.71685 0.56906,-1.29562 0,-0.37721 -0.0877,-0.69654 -0.26438,-0.95625 -0.17665,-0.25971 -0.42953,-0.4379 -0.75281,-0.53438 0.25237,-0.0989 0.44718,-0.24876 0.57938,-0.45281 0.1334,-0.20653 0.19875,-0.45814 0.19875,-0.75 0,-0.55529 -0.18029,-0.95709 -0.54563,-1.20937 C 434.65368,114.12459 434.06759,114 433.2576,114 Z m 1.50469,1.05188 h 0.82969 c 0.23674,0 0.41648,0.054 0.53906,0.16406 0.12257,0.10635 0.18562,0.26503 0.18562,0.47156 0,0.209 -0.063,0.36712 -0.18562,0.47344 -0.12258,0.1076 -0.30232,0.16125 -0.53906,0.16125 h -0.82969 z m -0.002,2.325 h 0.88125 c 0.30404,0 0.53483,0.0639 0.68625,0.19499 0.15143,0.12863 0.225,0.32343 0.225,0.58313 0,0.26466 -0.0759,0.46422 -0.22969,0.59531 -0.15022,0.13113 -0.37992,0.19688 -0.68156,0.19688 h -0.88125 z M 423.00281,104 c -0.93506,0 -1.67197,0.26672 -2.20594,0.79875 C 420.26556,105.33065 420,106.06267 420,107 c 0,0.93484 0.26556,1.66841 0.79687,2.20031 0.53397,0.53167 1.27088,0.79969 2.20594,0.79969 0.93759,0 1.66912,-0.26802 2.20031,-0.79969 C 425.73456,108.66841 426,107.93484 426,107 c 0,-0.93733 -0.26544,-1.66935 -0.79688,-2.20125 C 424.67193,104.26672 423.9404,104 423.00281,104 Z m 0,1.08 c 0.46098,0 0.81614,0.16869 1.06875,0.50437 0.25262,0.33569 0.37969,0.80623 0.37969,1.41563 0,0.60689 -0.12707,1.07994 -0.37969,1.41562 -0.25261,0.33569 -0.60777,0.50344 -1.06875,0.50344 -0.45845,0 -0.81426,-0.16775 -1.06687,-0.50344 -0.25274,-0.33568 -0.38157,-0.80873 -0.38157,-1.41562 0,-0.6094 0.12883,-1.07994 0.38157,-1.41563 0.25261,-0.33568 0.60842,-0.50437 1.06687,-0.50437 z"
         style="fill:#3f3f3f"
         id="path1358"
         sodipodi:nodetypes="ccscssccscsccscscscccscscsccscscssscsssssscscs" />
    </g>
    <g
       id="g1815">
      <path
         d="m 435.9995,72 v 8 h 3.32875 c 1.03351,0 1.80616,-0.186986 2.3125,-0.56625 0.50634,-0.3776 0.75875,-0.955804 0.75875,-1.7275 0,-0.502944 -0.11695,-0.928712 -0.3525,-1.275 -0.23554,-0.346272 -0.57272,-0.58386 -1.00375,-0.7125 0.33649,-0.13192 0.59624,-0.331686 0.7725,-0.60375 0.17786,-0.275376 0.265,-0.610848 0.265,-1 0,-0.740384 -0.24039,-1.276116 -0.7275,-1.6125 C 440.87094,72.166116 440.08948,72 439.0095,72 Z m 2.00625,1.4025 h 1.10625 c 0.31567,0 0.55531,0.07203 0.71875,0.21875 0.16344,0.141808 0.2475,0.353374 0.2475,0.62875 0,0.278672 -0.0841,0.48949 -0.2475,0.63125 -0.16344,0.143472 -0.40308,0.215 -0.71875,0.215 h -1.10625 z m -0.002,3.1 h 1.175 c 0.40539,0 0.71311,0.08522 0.915,0.26 0.2019,0.171504 0.3,0.431228 0.3,0.7775 0,0.35288 -0.10115,0.618966 -0.30625,0.79375 -0.2003,0.174832 -0.50656,0.2625 -0.90875,0.2625 h -1.175 z m -13,-18.5025 c -1.24676,0 -2.2293,0.355624 -2.94125,1.065 C 421.35408,59.7742 421,60.750224 421,62 c 0,1.246448 0.35408,2.22455 1.0625,2.93375 0.71195,0.708896 1.69449,1.06625 2.94125,1.06625 1.25012,0 2.22549,-0.357354 2.93375,-1.06625 C 428.64608,64.22455 429,63.246448 429,62 429,60.750224 428.64608,59.7742 427.9375,59.065 427.22924,58.355624 426.25387,58 425.00375,58 Z m 0,1.44 c 0.61464,0 1.08818,0.224916 1.425,0.6725 0.33682,0.447584 0.50625,1.074972 0.50625,1.8875 0,0.809184 -0.16943,1.439915 -0.50625,1.887499 -0.33682,0.447584 -0.81036,0.67125 -1.425,0.67125 -0.61127,0 -1.08568,-0.223666 -1.4225,-0.67125 C 423.24427,63.439915 423.0725,62.809184 423.0725,62 c 0,-0.812528 0.17177,-1.439916 0.50875,-1.8875 0.33682,-0.447584 0.81123,-0.6725 1.4225,-0.6725 z"
         style="fill:#000000;opacity:0.2"
         id="path1825" />
      <path
         d="m 435.9995,71 v 8 h 3.32875 c 1.03351,0 1.80616,-0.186986 2.3125,-0.56625 0.50634,-0.3776 0.75875,-0.955804 0.75875,-1.7275 0,-0.502944 -0.11695,-0.928712 -0.3525,-1.275 -0.23554,-0.346272 -0.57272,-0.58386 -1.00375,-0.7125 0.33649,-0.13192 0.59624,-0.331686 0.7725,-0.60375 0.17786,-0.275376 0.265,-0.610848 0.265,-1 0,-0.740384 -0.24039,-1.276116 -0.7275,-1.6125 C 440.87094,71.166116 440.08948,71 439.0095,71 Z m 2.00625,1.4025 h 1.10625 c 0.31567,0 0.55531,0.07203 0.71875,0.21875 0.16344,0.141808 0.2475,0.353374 0.2475,0.62875 0,0.278672 -0.0841,0.48949 -0.2475,0.63125 -0.16344,0.143472 -0.40308,0.215 -0.71875,0.215 h -1.10625 z m -0.002,3.1 h 1.175 c 0.40539,0 0.71311,0.08522 0.915,0.26 0.2019,0.171504 0.3,0.431228 0.3,0.7775 0,0.35288 -0.10115,0.618966 -0.30625,0.79375 -0.2003,0.174832 -0.50656,0.2625 -0.90875,0.2625 h -1.175 z m -13,-18.5025 c -1.24676,0 -2.2293,0.355624 -2.94125,1.065 C 421.35408,58.7742 421,59.750224 421,61 c 0,1.246448 0.35408,2.22455 1.0625,2.93375 0.71195,0.708896 1.69449,1.06625 2.94125,1.06625 1.25012,0 2.22549,-0.357354 2.93375,-1.06625 C 428.64608,63.22455 429,62.246448 429,61 429,59.750224 428.64608,58.7742 427.9375,58.065 427.22924,57.355624 426.25387,57 425.00375,57 Z m 0,1.44 c 0.61464,0 1.08818,0.224916 1.425,0.6725 0.33682,0.447584 0.50625,1.074972 0.50625,1.8875 0,0.809184 -0.16943,1.439915 -0.50625,1.887499 -0.33682,0.447584 -0.81036,0.67125 -1.425,0.67125 -0.61127,0 -1.08568,-0.223666 -1.4225,-0.67125 C 423.24427,62.439915 423.0725,61.809184 423.0725,61 c 0,-0.812528 0.17177,-1.439916 0.50875,-1.8875 0.33682,-0.447584 0.81123,-0.6725 1.4225,-0.6725 z"
         style="fill:#3f3f3f"
         id="path1529"
         sodipodi:nodetypes="ccscssccscsccscscscccscscsccscscssscsssssscscs" />
    </g>
    <g
       id="g1810">
      <path
         d="m 302.00563,229 c -1.87014,0 -3.34395,0.53344 -4.41188,1.5975 C 296.53111,231.6613 296,233.12534 296,235 c 0,1.86967 0.53111,3.33682 1.59375,4.40062 1.06793,1.06335 2.54174,1.59938 4.41188,1.59938 1.87518,0 3.33822,-0.53603 4.40062,-1.59938 C 307.46913,238.33682 308,236.86967 308,235 c 0,-1.87466 -0.53087,-3.3387 -1.59375,-4.4025 C 305.34385,229.53344 303.88081,229 302.00563,229 Z m 0,2.16 c 0.92196,0 1.63227,0.33737 2.13749,1.00875 0.50523,0.67138 0.75938,1.61246 0.75938,2.83125 0,1.21378 -0.25415,2.15987 -0.75938,2.83125 -0.50522,0.67137 -1.21553,1.00687 -2.13749,1.00687 -0.91692,0 -1.62853,-0.3355 -2.13376,-1.00687 -0.50546,-0.67138 -0.76312,-1.61747 -0.76312,-2.83125 0,-1.21879 0.25766,-2.15987 0.76312,-2.83125 0.50523,-0.67138 1.21684,-1.00875 2.13376,-1.00875 z M 318,249 v 12 h 4.99313 c 1.55027,0 2.70923,-0.28048 3.46875,-0.84937 0.75951,-0.5664 1.13812,-1.43371 1.13812,-2.59126 0,-0.75441 -0.17543,-1.39306 -0.52875,-1.9125 -0.35332,-0.5194 -0.85908,-0.87579 -1.50562,-1.06875 0.50473,-0.19788 0.89436,-0.49752 1.15874,-0.90562 0.2668,-0.41306 0.3975,-0.91627 0.3975,-1.5 0,-1.11058 -0.36057,-1.91417 -1.09125,-2.41875 C 325.30717,249.24917 324.13497,249 322.515,249 Z m 3.00937,2.10375 h 1.65938 c 0.4735,0 0.83296,0.10804 1.07812,0.32812 0.24516,0.21272 0.37126,0.53007 0.37126,0.94313 0,0.41801 -0.12611,0.73423 -0.37126,0.94687 -0.24516,0.21521 -0.60462,0.3225 -1.07812,0.3225 h -1.65938 z m -0.004,4.65 h 1.7625 c 0.60809,0 1.06966,0.12782 1.3725,0.39 0.30286,0.25726 0.45,0.64684 0.45,1.16625 0,0.52932 -0.15173,0.92845 -0.45937,1.19062 -0.30045,0.26225 -0.75984,0.39375 -1.36313,0.39375 h -1.7625 z"
         style="opacity:0.2;fill:#000000"
         id="path1728"
         sodipodi:nodetypes="scscssscsssssscscsccscssccscsccscscscccscscscc" />
      <path
         d="m 302.00563,228 c -1.87014,0 -3.34395,0.53344 -4.41188,1.5975 C 296.53111,230.6613 296,232.12534 296,234 c 0,1.86967 0.53111,3.33682 1.59375,4.40062 1.06793,1.06335 2.54174,1.59938 4.41188,1.59938 1.87518,0 3.33822,-0.53603 4.40062,-1.59938 C 307.46913,237.33682 308,235.86967 308,234 c 0,-1.87466 -0.53087,-3.3387 -1.59375,-4.4025 C 305.34385,228.53344 303.88081,228 302.00563,228 Z m 0,2.16 c 0.92196,0 1.63227,0.33737 2.13749,1.00875 0.50523,0.67138 0.75938,1.61246 0.75938,2.83125 0,1.21378 -0.25415,2.15987 -0.75938,2.83125 -0.50522,0.67137 -1.21553,1.00687 -2.13749,1.00687 -0.91692,0 -1.62853,-0.3355 -2.13376,-1.00687 -0.50546,-0.67138 -0.76312,-1.61747 -0.76312,-2.83125 0,-1.21879 0.25766,-2.15987 0.76312,-2.83125 0.50523,-0.67138 1.21684,-1.00875 2.13376,-1.00875 z M 318,248 v 12 h 4.99313 c 1.55027,0 2.70923,-0.28048 3.46875,-0.84937 0.75951,-0.5664 1.13812,-1.43371 1.13812,-2.59126 0,-0.75441 -0.17543,-1.39306 -0.52875,-1.9125 -0.35332,-0.5194 -0.85908,-0.87579 -1.50562,-1.06875 0.50473,-0.19788 0.89436,-0.49752 1.15874,-0.90562 0.2668,-0.41306 0.3975,-0.91627 0.3975,-1.5 0,-1.11058 -0.36057,-1.91417 -1.09125,-2.41875 C 325.30717,248.24917 324.13497,248 322.515,248 Z m 3.00937,2.10375 h 1.65938 c 0.4735,0 0.83296,0.10804 1.07812,0.32812 0.24516,0.21272 0.37126,0.53007 0.37126,0.94313 0,0.41801 -0.12611,0.73423 -0.37126,0.94687 -0.24516,0.21521 -0.60462,0.3225 -1.07812,0.3225 h -1.65938 z m -0.004,4.65 h 1.7625 c 0.60809,0 1.06966,0.12782 1.3725,0.39 0.30286,0.25726 0.45,0.64684 0.45,1.16625 0,0.52932 -0.15173,0.92845 -0.45937,1.19062 -0.30045,0.26225 -0.75984,0.39375 -1.36313,0.39375 h -1.7625 z"
         style="fill:#3f3f3f"
         id="path1700"
         sodipodi:nodetypes="scscssscsssssscscsccscssccscsccscscscccscscscc" />
    </g>
    <g
       id="g2046">
      <path
         d="m 306.0075,151 c -2.49351,0 -4.4586,0.71125 -5.8825,2.13 -1.41685,1.4184 -2.125,3.37045 -2.125,5.87 0,2.4929 0.70815,4.4491 2.125,5.8675 1.4239,1.41779 3.38899,2.1325 5.8825,2.1325 2.50024,0 4.45097,-0.71471 5.8675,-2.1325 1.41717,-1.4184 2.125,-3.3746 2.125,-5.8675 0,-2.49955 -0.70783,-4.4516 -2.125,-5.87 -1.41653,-1.41875 -3.36726,-2.13 -5.8675,-2.13 z m 0,2.88 c 1.22928,0 2.17636,0.44983 2.85,1.345 0.67363,0.89517 1.0125,2.14994 1.0125,3.775 0,1.61837 -0.33887,2.87983 -1.0125,3.775 -0.67364,0.89517 -1.62072,1.3425 -2.85,1.3425 -1.22255,0 -2.17136,-0.44733 -2.845,-1.3425 -0.67396,-0.89517 -1.0175,-2.15663 -1.0175,-3.775 0,-1.62506 0.34354,-2.87983 1.0175,-3.775 0.67364,-0.89517 1.62245,-1.345 2.845,-1.345 z M 328,179 v 16 h 6.76152 c 2.09933,0 3.66876,-0.37397 4.69727,-1.1325 1.0285,-0.7552 1.54121,-1.91161 1.54121,-3.455 0,-1.00589 -0.23756,-1.85742 -0.71602,-2.55 -0.47845,-0.69254 -1.16333,-1.16772 -2.03886,-1.425 0.6835,-0.26384 1.21111,-0.66337 1.56914,-1.2075 0.36128,-0.55075 0.53828,-1.2217 0.53828,-2 0,-1.48077 -0.48829,-2.55223 -1.47774,-3.225 -0.97968,-0.67277 -2.56702,-1.005 -4.76074,-1.005 z m 4.07519,2.805 h 2.24708 c 0.64119,0 1.12797,0.14406 1.45996,0.4375 0.33197,0.28362 0.50273,0.70675 0.50273,1.2575 0,0.55734 -0.17077,0.97898 -0.50273,1.2625 -0.33199,0.28694 -0.81876,0.43 -1.45996,0.43 h -2.24708 z m -0.005,6.2 h 2.38672 c 0.82346,0 1.4485,0.17044 1.8586,0.52 0.41011,0.34301 0.60937,0.86246 0.60937,1.555 0,0.70576 -0.20546,1.23793 -0.62207,1.5875 -0.40685,0.34966 -1.02895,0.525 -1.8459,0.525 h -2.38671 z"
         style="fill:#000000;opacity:0.2"
         id="path2024" />
      <path
         d="m 306.0075,150 c -2.49351,0 -4.4586,0.71125 -5.8825,2.13 -1.41685,1.4184 -2.125,3.37045 -2.125,5.87 0,2.4929 0.70815,4.4491 2.125,5.8675 1.4239,1.41779 3.38899,2.1325 5.8825,2.1325 2.50024,0 4.45097,-0.71471 5.8675,-2.1325 1.41717,-1.4184 2.125,-3.3746 2.125,-5.8675 0,-2.49955 -0.70783,-4.4516 -2.125,-5.87 -1.41653,-1.41875 -3.36726,-2.13 -5.8675,-2.13 z m 0,2.88 c 1.22928,0 2.17636,0.44983 2.85,1.345 0.67363,0.89517 1.0125,2.14994 1.0125,3.775 0,1.61837 -0.33887,2.87983 -1.0125,3.775 -0.67364,0.89517 -1.62072,1.3425 -2.85,1.3425 -1.22255,0 -2.17136,-0.44733 -2.845,-1.3425 -0.67396,-0.89517 -1.0175,-2.15663 -1.0175,-3.775 0,-1.62506 0.34354,-2.87983 1.0175,-3.775 0.67364,-0.89517 1.62245,-1.345 2.845,-1.345 z M 328,178 v 16 h 6.76152 c 2.09933,0 3.66876,-0.37397 4.69727,-1.1325 1.0285,-0.7552 1.54121,-1.91161 1.54121,-3.455 0,-1.00589 -0.23756,-1.85742 -0.71602,-2.55 -0.47845,-0.69254 -1.16333,-1.16772 -2.03886,-1.425 0.6835,-0.26384 1.21111,-0.66337 1.56914,-1.2075 0.36128,-0.55075 0.53828,-1.2217 0.53828,-2 0,-1.48077 -0.48829,-2.55223 -1.47774,-3.225 -0.97968,-0.67277 -2.56702,-1.005 -4.76074,-1.005 z m 4.07519,2.805 h 2.24708 c 0.64119,0 1.12797,0.14406 1.45996,0.4375 0.33197,0.28362 0.50273,0.70675 0.50273,1.2575 0,0.55734 -0.17077,0.97898 -0.50273,1.2625 -0.33199,0.28694 -0.81876,0.43 -1.45996,0.43 h -2.24708 z m -0.005,6.2 h 2.38672 c 0.82346,0 1.4485,0.17044 1.8586,0.52 0.41011,0.34301 0.60937,0.86246 0.60937,1.555 0,0.70576 -0.20546,1.23793 -0.62207,1.5875 -0.40685,0.34966 -1.02895,0.525 -1.8459,0.525 h -2.38671 z"
         style="fill:#3f3f3f"
         id="path1996"
         sodipodi:nodetypes="scscssscsssssscscsccscssccscsccscscscccscscscc" />
    </g>
    <g
       id="g1806"
       transform="matrix(2,0,0,2,-288,-412)">
      <path
         d="m 302.00563,228.5 c -1.87014,0 -3.34395,0.53344 -4.41188,1.5975 C 296.53111,231.1613 296,232.62534 296,234.5 c 0,1.86967 0.53111,3.33682 1.59375,4.40062 1.06793,1.06335 2.54174,1.59938 4.41188,1.59938 1.87518,0 3.33822,-0.53603 4.40062,-1.59938 C 307.46913,237.83682 308,236.36967 308,234.5 c 0,-1.87466 -0.53087,-3.3387 -1.59375,-4.4025 -1.0624,-1.06406 -2.52544,-1.5975 -4.40062,-1.5975 z m 0,2.16 c 0.92196,0 1.63227,0.33737 2.13749,1.00875 0.50523,0.67138 0.75938,1.61246 0.75938,2.83125 0,1.21378 -0.25415,2.15987 -0.75938,2.83125 -0.50522,0.67137 -1.21553,1.00687 -2.13749,1.00687 -0.91692,0 -1.62853,-0.3355 -2.13376,-1.00687 -0.50546,-0.67138 -0.76312,-1.61747 -0.76312,-2.83125 0,-1.21879 0.25766,-2.15987 0.76312,-2.83125 0.50523,-0.67138 1.21684,-1.00875 2.13376,-1.00875 z M 318,248.5 v 12 h 4.99313 c 1.55027,0 2.70923,-0.28048 3.46875,-0.84937 0.75951,-0.5664 1.13812,-1.43371 1.13812,-2.59126 0,-0.75441 -0.17543,-1.39306 -0.52875,-1.9125 -0.35332,-0.5194 -0.85908,-0.87579 -1.50562,-1.06875 0.50473,-0.19788 0.89436,-0.49752 1.15874,-0.90562 0.2668,-0.41306 0.3975,-0.91627 0.3975,-1.5 0,-1.11058 -0.36057,-1.91417 -1.09125,-2.41875 C 325.30717,248.74917 324.13497,248.5 322.515,248.5 Z m 3.00937,2.10375 h 1.65938 c 0.4735,0 0.83296,0.10804 1.07812,0.32812 0.24516,0.21272 0.37126,0.53007 0.37126,0.94313 0,0.41801 -0.12611,0.73423 -0.37126,0.94687 -0.24516,0.21521 -0.60462,0.3225 -1.07812,0.3225 h -1.65938 z m -0.004,4.65 h 1.7625 c 0.60809,0 1.06966,0.12782 1.3725,0.39 0.30286,0.25726 0.45,0.64684 0.45,1.16625 0,0.52932 -0.15173,0.92845 -0.45937,1.19062 -0.30045,0.26225 -0.75984,0.39375 -1.36313,0.39375 h -1.7625 z"
         style="opacity:0.2;fill:#000000"
         id="path1784" />
      <path
         d="m 302.00563,228 c -1.87014,0 -3.34395,0.53344 -4.41188,1.5975 C 296.53111,230.6613 296,232.12534 296,234 c 0,1.86967 0.53111,3.33682 1.59375,4.40062 1.06793,1.06335 2.54174,1.59938 4.41188,1.59938 1.87518,0 3.33822,-0.53603 4.40062,-1.59938 C 307.46913,237.33682 308,235.86967 308,234 c 0,-1.87466 -0.53087,-3.3387 -1.59375,-4.4025 C 305.34385,228.53344 303.88081,228 302.00563,228 Z m 0,2.16 c 0.92196,0 1.63227,0.33737 2.13749,1.00875 0.50523,0.67138 0.75938,1.61246 0.75938,2.83125 0,1.21378 -0.25415,2.15987 -0.75938,2.83125 -0.50522,0.67137 -1.21553,1.00687 -2.13749,1.00687 -0.91692,0 -1.62853,-0.3355 -2.13376,-1.00687 -0.50546,-0.67138 -0.76312,-1.61747 -0.76312,-2.83125 0,-1.21879 0.25766,-2.15987 0.76312,-2.83125 0.50523,-0.67138 1.21684,-1.00875 2.13376,-1.00875 z M 318,248 v 12 h 4.99313 c 1.55027,0 2.70923,-0.28048 3.46875,-0.84937 0.75951,-0.5664 1.13812,-1.43371 1.13812,-2.59126 0,-0.75441 -0.17543,-1.39306 -0.52875,-1.9125 -0.35332,-0.5194 -0.85908,-0.87579 -1.50562,-1.06875 0.50473,-0.19788 0.89436,-0.49752 1.15874,-0.90562 0.2668,-0.41306 0.3975,-0.91627 0.3975,-1.5 0,-1.11058 -0.36057,-1.91417 -1.09125,-2.41875 C 325.30717,248.24917 324.13497,248 322.515,248 Z m 3.00937,2.10375 h 1.65938 c 0.4735,0 0.83296,0.10804 1.07812,0.32812 0.24516,0.21272 0.37126,0.53007 0.37126,0.94313 0,0.41801 -0.12611,0.73423 -0.37126,0.94687 -0.24516,0.21521 -0.60462,0.3225 -1.07812,0.3225 h -1.65938 z m -0.004,4.65 h 1.7625 c 0.60809,0 1.06966,0.12782 1.3725,0.39 0.30286,0.25726 0.45,0.64684 0.45,1.16625 0,0.52932 -0.15173,0.92845 -0.45937,1.19062 -0.30045,0.26225 -0.75984,0.39375 -1.36313,0.39375 h -1.7625 z"
         style="fill:#3f3f3f"
         id="path1756" />
    </g>
    <g
       id="g2170"
       transform="matrix(4,0,0,4,-1136,-532.00001)">
      <path
         d="m 306.0075,150.5 c -2.49351,0 -4.4586,0.71125 -5.8825,2.13 -1.41685,1.4184 -2.125,3.37045 -2.125,5.87 0,2.4929 0.70815,4.4491 2.125,5.8675 1.4239,1.41779 3.38899,2.1325 5.8825,2.1325 2.50024,0 4.45097,-0.71471 5.8675,-2.1325 1.41717,-1.41839 2.125,-3.37459 2.125,-5.8675 0,-2.49955 -0.70783,-4.4516 -2.125,-5.87 -1.41653,-1.41875 -3.36726,-2.13 -5.8675,-2.13 z m 0,2.88 c 1.22928,0 2.17636,0.44983 2.85,1.345 0.67363,0.89517 1.0125,2.14994 1.0125,3.775 0,1.61837 -0.33887,2.87983 -1.0125,3.775 -0.67364,0.89518 -1.62072,1.3425 -2.85,1.3425 -1.22255,0 -2.17136,-0.44732 -2.845,-1.3425 -0.67396,-0.89517 -1.0175,-2.15663 -1.0175,-3.775 0,-1.62506 0.34354,-2.87983 1.0175,-3.775 0.67364,-0.89517 1.62245,-1.345 2.845,-1.345 z M 328,178.5 v 16 h 6.76152 c 2.09933,0 3.66876,-0.37397 4.69727,-1.1325 1.0285,-0.7552 1.54121,-1.91161 1.54121,-3.455 0,-1.00589 -0.23756,-1.85742 -0.71602,-2.55 -0.47845,-0.69254 -1.16333,-1.16772 -2.03886,-1.425 0.6835,-0.26384 1.21111,-0.66337 1.56914,-1.2075 0.36128,-0.55075 0.53828,-1.2217 0.53828,-2 0,-1.48077 -0.48829,-2.55223 -1.47774,-3.225 -0.97968,-0.67277 -2.56702,-1.005 -4.76074,-1.005 z m 4.07519,2.805 h 2.24708 c 0.64119,0 1.12797,0.14406 1.45996,0.4375 0.33197,0.28363 0.50273,0.70675 0.50273,1.2575 0,0.55734 -0.17077,0.97898 -0.50273,1.2625 -0.33199,0.28694 -0.81876,0.43 -1.45996,0.43 h -2.24708 z m -0.005,6.2 h 2.38672 c 0.82346,0 1.4485,0.17044 1.8586,0.52 0.41011,0.34301 0.60937,0.86246 0.60937,1.55501 0,0.70575 -0.20546,1.23793 -0.62207,1.5875 -0.40685,0.34966 -1.02895,0.525 -1.8459,0.525 h -2.38671 z"
         style="opacity:0.2;fill:#000000"
         id="path2148" />
      <path
         d="m 306.0075,150 c -2.49351,0 -4.4586,0.71125 -5.8825,2.13 -1.41685,1.4184 -2.125,3.37045 -2.125,5.87 0,2.4929 0.70815,4.4491 2.125,5.8675 1.4239,1.41779 3.38899,2.1325 5.8825,2.1325 2.50024,0 4.45097,-0.71471 5.8675,-2.1325 1.41717,-1.41839 2.125,-3.37459 2.125,-5.8675 0,-2.49955 -0.70783,-4.4516 -2.125,-5.87 -1.41653,-1.41875 -3.36726,-2.13 -5.8675,-2.13 z m 0,2.88 c 1.22928,0 2.17636,0.44983 2.85,1.345 0.67363,0.89517 1.0125,2.14994 1.0125,3.775 0,1.61837 -0.33887,2.87983 -1.0125,3.775 -0.67364,0.89518 -1.62072,1.3425 -2.85,1.3425 -1.22255,0 -2.17136,-0.44732 -2.845,-1.3425 -0.67396,-0.89517 -1.0175,-2.15663 -1.0175,-3.775 0,-1.62506 0.34354,-2.87983 1.0175,-3.775 0.67364,-0.89517 1.62245,-1.345 2.845,-1.345 z M 328,178 v 16 h 6.76152 c 2.09933,0 3.66876,-0.37397 4.69727,-1.1325 1.0285,-0.7552 1.54121,-1.91161 1.54121,-3.455 0,-1.00589 -0.23756,-1.85742 -0.71602,-2.55 -0.47845,-0.69254 -1.16333,-1.16772 -2.03886,-1.425 0.6835,-0.26384 1.21111,-0.66337 1.56914,-1.2075 0.36128,-0.55075 0.53828,-1.2217 0.53828,-2 0,-1.48077 -0.48829,-2.55223 -1.47774,-3.225 -0.97968,-0.67277 -2.56702,-1.005 -4.76074,-1.005 z m 4.07519,2.805 h 2.24708 c 0.64119,0 1.12797,0.14406 1.45996,0.4375 0.33197,0.28363 0.50273,0.70675 0.50273,1.2575 0,0.55734 -0.17077,0.97898 -0.50273,1.2625 -0.33199,0.28694 -0.81876,0.43 -1.45996,0.43 h -2.24708 z m -0.005,6.2 h 2.38672 c 0.82346,0 1.4485,0.17044 1.8586,0.52 0.41011,0.34301 0.60937,0.86246 0.60937,1.55501 0,0.70575 -0.20546,1.23793 -0.62207,1.5875 -0.40685,0.34966 -1.02895,0.525 -1.8459,0.525 h -2.38671 z"
         style="fill:#3f3f3f"
         id="path2120"
         sodipodi:nodetypes="scscssscsssssscscsccscssccscsccscscscccscscscc" />
    </g>
  </g>
  <g
     id="Highlights">
    <path
       id="rect653"
       style="opacity:0.2;fill:#ffffff"
       d="M 80,44 C 53.408027,44 32,65.408027 32,92 v 2 C 32,67.408027 53.408027,46 80,46 h 128 c 26.59197,0 48,21.408027 48,48 V 92 C 256,65.408027 234.59197,44 208,44 Z"
       sodipodi:nodetypes="sscsscsss" />
    <path
       id="rect773"
       style="opacity:0.2;fill:#ffffff"
       d="m 312,34 c -9.97199,0 -18,8.02801 -18,18 v 1 c 0,-9.97199 8.02801,-18 18,-18 h 48 c 9.97199,0 18,8.02801 18,18 v -1 c 0,-9.97199 -8.02801,-18 -18,-18 z" />
    <path
       id="rect1135"
       style="opacity:0.2;fill:#ffffff;fill-opacity:1"
       d="m 304,144 c -6.64799,0 -12,5.35201 -12,12 v 1 c 0,-6.64799 5.35201,-12 12,-12 h 32 c 6.64799,0 12,5.35201 12,12 v -1 c 0,-6.64799 -5.35201,-12 -12,-12 z" />
    <path
       id="rect1265"
       style="opacity:0.2;fill:#ffffff;fill-opacity:1"
       d="m 300,223 c -4.986,0 -9,4.014 -9,9 v 1 c 0,-4.986 4.014,-9 9,-9 h 24 c 4.986,0 9,4.014 9,9 v -1 c 0,-4.986 -4.014,-9 -9,-9 z" />
    <path
       id="rect1368"
       style="opacity:0.2;fill:#ffffff;fill-opacity:1"
       d="m 424,54 c -3.324,0 -6,2.676003 -6,6 v 1 c 0,-3.323997 2.676,-6 6,-6 h 16 c 3.324,0 6,2.676003 6,6 v -1 c 0,-3.323997 -2.676,-6 -6,-6 z" />
    <path
       id="rect1402"
       style="opacity:0.2;fill:#ffffff;fill-opacity:1"
       d="m 420,140 c -2.216,0 -4,1.784 -4,4 v 1 c 0,-2.216 1.784,-4 4,-4 h 8 c 2.216,0 4,1.784 4,4 v -1 c 0,-2.216 -1.784,-4 -4,-4 z" />
    <path
       id="rect1436"
       style="opacity:0.2;fill:#ffffff;fill-opacity:1"
       d="m 422,102 c -2.216,0 -4,1.784 -4,4 v 1 c 0,-2.216 1.784,-4 4,-4 h 12 c 2.216,0 4,1.784 4,4 v -1 c 0,-2.216 -1.784,-4 -4,-4 z" />
  </g>
</svg>
