<?xml version="1.0" encoding="UTF-8" standalone="no"?>
<!-- Created with Inkscape (http://www.inkscape.org/) -->

<svg
   width="480"
   height="300"
   viewBox="0 0 480 300"
   version="1.1"
   id="svg5"
   inkscape:version="1.2.2 (1:1.2.2+202305151914+b0a8486541)"
   sodipodi:docname="owncloud.svg"
   xmlns:inkscape="http://www.inkscape.org/namespaces/inkscape"
   xmlns:sodipodi="http://sodipodi.sourceforge.net/DTD/sodipodi-0.dtd"
   xmlns="http://www.w3.org/2000/svg"
   xmlns:svg="http://www.w3.org/2000/svg">
  <sodipodi:namedview
     id="namedview7"
     pagecolor="#888888"
     bordercolor="#000000"
     borderopacity="0.25"
     inkscape:showpageshadow="true"
     inkscape:pageopacity="0"
     inkscape:pagecheckerboard="0"
     inkscape:deskcolor="#888888"
     inkscape:document-units="px"
     showgrid="false"
     showborder="false"
     inkscape:zoom="2.6866667"
     inkscape:cx="240.07444"
     inkscape:cy="150"
     inkscape:window-width="1920"
     inkscape:window-height="1008"
     inkscape:window-x="0"
     inkscape:window-y="0"
     inkscape:window-maximized="1"
     inkscape:current-layer="svg5" />
  <defs
     id="defs2" />
  <g
     id="Baseplate"
     style="display:none">
    <text
       y="19.774782"
       xml:space="preserve"
       x="15.006946"
       style="font-style:normal;font-variant:normal;font-weight:normal;font-stretch:normal;line-height:0%;font-family:'DejaVu Sans';-inkscape-font-specification:'DejaVu Sans';display:inline;fill:#000000;fill-opacity:1;stroke:none;enable-background:new"
       inkscape:label="context"
       id="context"><tspan
         style="font-style:normal;font-variant:normal;font-weight:normal;font-stretch:normal;font-size:18px;line-height:1.25;font-family:'DejaVu Sans';-inkscape-font-specification:'DejaVu Sans'"
         y="19.774782"
         x="15.006946"
         sodipodi:role="line"
         id="tspan3933">apps</tspan></text>
    <text
       y="19.774782"
       xml:space="preserve"
       x="122.48839"
       style="font-style:normal;font-variant:normal;font-weight:bold;font-stretch:normal;line-height:0%;font-family:'DejaVu Sans';-inkscape-font-specification:'DejaVu Sans Bold';text-align:start;writing-mode:lr-tb;text-anchor:start;display:inline;fill:#000000;fill-opacity:1;stroke:none;enable-background:new"
       inkscape:label="icon-name"
       id="icon-name"><tspan
         style="font-style:normal;font-variant:normal;font-weight:bold;font-stretch:normal;font-size:18px;line-height:1.25;font-family:'DejaVu Sans';-inkscape-font-specification:'DejaVu Sans Bold'"
         y="19.774782"
         x="122.48839"
         sodipodi:role="line"
         id="tspan3937">owncloud</tspan></text>
    <rect
       style="fill:#ffffff"
       id="256x256"
       width="256"
       height="256"
       x="16"
       y="28" />
    <rect
       style="fill:#ffffff"
       id="96x96"
       width="96"
       height="96"
       x="288"
       y="28" />
    <rect
       style="fill:#ffffff"
       id="64x64"
       width="64"
       height="64"
       x="288"
       y="140" />
    <rect
       style="fill:#ffffff"
       id="48x48"
       width="48"
       height="48"
       x="288"
       y="220" />
    <rect
       style="fill:#ffffff"
       id="32x32"
       width="32"
       height="32"
       x="416"
       y="52" />
    <rect
       style="fill:#ffffff"
       id="24x24"
       width="24"
       height="24"
       x="416"
       y="100" />
    <rect
       style="fill:#ffffff"
       id="22x22"
       width="22"
       height="22"
       x="417"
       y="101" />
    <rect
       style="fill:#ffffff"
       id="16x16"
       width="16"
       height="16"
       x="416"
       y="140" />
  </g>
  <g
     id="Shadow">
    <rect
       style="opacity:0.2;fill:#000000"
       id="rect651"
       width="224"
       height="224"
       x="32"
       y="46"
       ry="48" />
    <rect
       style="opacity:0.2;fill:#000000"
       id="rect769"
       width="84"
       height="85"
       x="294"
       y="34"
       ry="18" />
    <rect
       style="opacity:0.2;fill:#000000;fill-opacity:1"
       id="rect1131"
       width="56"
       height="56"
       x="292"
       y="145"
       ry="12" />
    <rect
       style="opacity:0.2;fill:#000000;fill-opacity:1"
       id="rect1261"
       width="42"
       height="42"
       x="291"
       y="224"
       ry="9" />
    <rect
       style="opacity:0.2;fill:#000000;fill-opacity:1"
       id="rect1364"
       width="28"
       height="29"
       x="418"
       y="54"
       ry="6" />
    <rect
       style="opacity:0.2;fill:#000000;fill-opacity:1"
       id="rect1398"
       width="16"
       height="16"
       x="416"
       y="141"
       ry="4" />
    <rect
       style="opacity:0.2;fill:#000000;fill-opacity:1"
       id="rect1432"
       width="20"
       height="20"
       x="418"
       y="103"
       ry="4" />
  </g>
  <g
     id="Background">
    <rect
       style="fill:#394e6f;fill-opacity:1"
       id="rect597"
       width="224"
       height="224"
       x="32"
       y="44"
       ry="48" />
    <rect
       style="opacity:1;fill:#394e6f;fill-opacity:1"
       id="rect771"
       width="84"
       height="84"
       x="294"
       y="34"
       ry="18" />
    <rect
       style="opacity:1;fill:#394e6f;fill-opacity:1"
       id="rect1133"
       width="56"
       height="56"
       x="292"
       y="144"
       ry="12" />
    <rect
       style="opacity:1;fill:#394e6f;fill-opacity:1"
       id="rect1263"
       width="42"
       height="42"
       x="291"
       y="223"
       ry="9" />
    <rect
       style="opacity:1;fill:#394e6f;fill-opacity:1"
       id="rect1366"
       width="28"
       height="28"
       x="418"
       y="54"
       ry="6" />
    <rect
       style="opacity:1;fill:#394e6f;fill-opacity:1"
       id="rect1400"
       width="16"
       height="16"
       x="416"
       y="140"
       ry="4" />
    <rect
       style="opacity:1;fill:#394e6f;fill-opacity:1"
       id="rect1434"
       width="20"
       height="20"
       x="418"
       y="102"
       ry="4" />
  </g>
  <g
     id="g21998">
    <g
       id="g21977">
      <path
         style="color:#000000;fill:#ffffff;stroke:none;stroke-width:0.25;stroke-linecap:round;stroke-linejoin:round;-inkscape-stroke:none"
         d="m 426.875,147.25 a 1.625,1.625 0 0 1 -1.625,1.625 1.625,1.625 0 0 1 -1.625,-1.625 1.625,1.625 0 0 1 1.625,-1.625 1.625,1.625 0 0 1 1.625,1.625 z"
         id="path3809" />
      <path
         style="color:#000000;fill:#394e6f;stroke:none;stroke-linecap:round;stroke-linejoin:round;-inkscape-stroke:none"
         d="m 425.25,145.5 c -0.96502,0 -1.75,0.78498 -1.75,1.75 0,0.96502 0.78498,1.75 1.75,1.75 0.96502,0 1.75,-0.78498 1.75,-1.75 0,-0.96502 -0.78498,-1.75 -1.75,-1.75 z m 0,0.25 c 0.82991,0 1.5,0.67009 1.5,1.5 0,0.82991 -0.67009,1.5 -1.5,1.5 -0.82991,0 -1.5,-0.67009 -1.5,-1.5 0,-0.82991 0.67009,-1.5 1.5,-1.5 z"
         id="path3811" />
      <path
         style="color:#000000;fill:#ffffff;stroke:none;stroke-width:0.25;stroke-linecap:round;stroke-linejoin:round;-inkscape-stroke:none"
         d="M 429.875,150.5 A 0.875,0.875 0 0 1 429,151.375 0.875,0.875 0 0 1 428.125,150.5 0.875,0.875 0 0 1 429,149.625 0.875,0.875 0 0 1 429.875,150.5 Z"
         id="path3815" />
      <path
         style="color:#000000;fill:#394e6f;stroke:none;stroke-linecap:round;stroke-linejoin:round;-inkscape-stroke:none"
         d="m 429,149.5 c -0.5508,0 -1,0.4492 -1,1 0,0.5508 0.4492,1 1,1 0.5508,0 1,-0.4492 1,-1 0,-0.5508 -0.4492,-1 -1,-1 z m 0,0.25 c 0.41569,0 0.75,0.33431 0.75,0.75 0,0.41569 -0.33431,0.75 -0.75,0.75 -0.41569,0 -0.75,-0.33431 -0.75,-0.75 0,-0.41569 0.33431,-0.75 0.75,-0.75 z"
         id="path3817" />
      <path
         style="color:#000000;fill:#ffffff;stroke:none;stroke-width:0.25;stroke-linecap:round;stroke-linejoin:round;-inkscape-stroke:none"
         d="M 428.875,149.5 A 1.875,1.875 0 0 1 427,151.375 1.875,1.875 0 0 1 425.125,149.5 1.875,1.875 0 0 1 427,147.625 1.875,1.875 0 0 1 428.875,149.5 Z"
         id="path3821" />
      <path
         style="color:#000000;fill:#394e6f;stroke:none;stroke-linecap:round;stroke-linejoin:round;-inkscape-stroke:none"
         d="m 427,147.5 c -1.10309,0 -2,0.89691 -2,2 0,1.10309 0.89691,2 2,2 1.10309,0 2,-0.89691 2,-2 0,-1.10309 -0.89691,-2 -2,-2 z m 0,0.25 c 0.96798,0 1.75,0.78202 1.75,1.75 0,0.96798 -0.78202,1.75 -1.75,1.75 -0.96798,0 -1.75,-0.78202 -1.75,-1.75 0,-0.96798 0.78202,-1.75 1.75,-1.75 z"
         id="path3823" />
      <path
         style="color:#000000;fill:#ffffff;stroke:none;stroke-width:0.25;stroke-linecap:round;stroke-linejoin:round;-inkscape-stroke:none"
         d="m 421.375,149.75 a 1.625,1.625 0 0 1 -1.625,1.625 1.625,1.625 0 0 1 -1.625,-1.625 1.625,1.625 0 0 1 1.625,-1.625 1.625,1.625 0 0 1 1.625,1.625 z"
         id="path3827" />
      <path
         style="color:#000000;fill:#394e6f;stroke:none;stroke-linecap:round;stroke-linejoin:round;-inkscape-stroke:none"
         d="m 419.75,148 c -0.96502,0 -1.75,0.78498 -1.75,1.75 0,0.96502 0.78498,1.75 1.75,1.75 0.96502,0 1.75,-0.78498 1.75,-1.75 0,-0.96502 -0.78498,-1.75 -1.75,-1.75 z m 0,0.25 c 0.82991,0 1.5,0.67009 1.5,1.5 0,0.82991 -0.67009,1.5 -1.5,1.5 -0.82991,0 -1.5,-0.67009 -1.5,-1.5 0,-0.82991 0.67009,-1.5 1.5,-1.5 z"
         id="path3829" />
      <path
         style="color:#000000;fill:#ffffff;stroke:none;stroke-width:0.25;stroke-linecap:round;stroke-linejoin:round;-inkscape-stroke:none"
         d="m 422.125,146.5 a 0.875,0.875 0 0 1 -0.875,0.875 0.875,0.875 0 0 1 -0.875,-0.875 0.875,0.875 0 0 1 0.875,-0.875 0.875,0.875 0 0 1 0.875,0.875 z"
         id="path3833" />
      <path
         style="color:#000000;fill:#394e6f;stroke:none;stroke-linecap:round;stroke-linejoin:round;-inkscape-stroke:none"
         d="m 421.25,145.5 c -0.5508,0 -1,0.4492 -1,1 0,0.5508 0.4492,1 1,1 0.5508,0 1,-0.4492 1,-1 0,-0.5508 -0.4492,-1 -1,-1 z m 0,0.25 c 0.41569,0 0.75,0.33431 0.75,0.75 0,0.41569 -0.33431,0.75 -0.75,0.75 -0.41569,0 -0.75,-0.33431 -0.75,-0.75 0,-0.41569 0.33431,-0.75 0.75,-0.75 z"
         id="path3835" />
      <path
         style="color:#000000;fill:#ffffff;stroke:none;stroke-width:0.25;stroke-linecap:round;stroke-linejoin:round;-inkscape-stroke:none"
         d="m 423.375,148.5 a 1.875,1.875 0 0 1 -1.875,1.875 1.875,1.875 0 0 1 -1.875,-1.875 1.875,1.875 0 0 1 1.875,-1.875 1.875,1.875 0 0 1 1.875,1.875 z"
         id="path3839" />
      <path
         style="color:#000000;fill:#394e6f;stroke:none;stroke-linecap:round;stroke-linejoin:round;-inkscape-stroke:none"
         d="m 421.5,146.5 c -1.10309,0 -2,0.89691 -2,2 0,1.10309 0.89691,2 2,2 1.10309,0 2,-0.89691 2,-2 0,-1.10309 -0.89691,-2 -2,-2 z m 0,0.25 c 0.96798,0 1.75,0.78202 1.75,1.75 0,0.96798 -0.78202,1.75 -1.75,1.75 -0.96798,0 -1.75,-0.78202 -1.75,-1.75 0,-0.96798 0.78202,-1.75 1.75,-1.75 z"
         id="path3841" />
      <path
         style="color:#000000;fill:#ffffff;stroke:none;stroke-width:0.25;stroke-linecap:round;stroke-linejoin:round;-inkscape-stroke:none"
         d="m 422.375,150.5 a 0.875,0.875 0 0 1 -0.875,0.875 0.875,0.875 0 0 1 -0.875,-0.875 0.875,0.875 0 0 1 0.875,-0.875 0.875,0.875 0 0 1 0.875,0.875 z"
         id="path3845" />
      <path
         style="color:#000000;fill:#394e6f;stroke:none;stroke-linecap:round;stroke-linejoin:round;-inkscape-stroke:none"
         d="m 421.5,149.5 c -0.5508,0 -1,0.4492 -1,1 0,0.5508 0.4492,1 1,1 0.5508,0 1,-0.4492 1,-1 0,-0.5508 -0.4492,-1 -1,-1 z m 0,0.25 c 0.41569,0 0.75,0.33431 0.75,0.75 0,0.41569 -0.33431,0.75 -0.75,0.75 -0.41569,0 -0.75,-0.33431 -0.75,-0.75 0,-0.41569 0.33431,-0.75 0.75,-0.75 z"
         id="path3847" />
      <path
         style="color:#000000;fill:#ffffff;stroke:none;stroke-width:0.25;stroke-linecap:round;stroke-linejoin:round;-inkscape-stroke:none"
         d="m 424.875,146.25 a 1.625,1.625 0 0 1 -1.625,1.625 1.625,1.625 0 0 1 -1.625,-1.625 1.625,1.625 0 0 1 1.625,-1.625 1.625,1.625 0 0 1 1.625,1.625 z"
         id="path3851" />
      <path
         style="color:#000000;fill:#394e6f;stroke:none;stroke-linecap:round;stroke-linejoin:round;-inkscape-stroke:none"
         d="m 423.25,144.5 c -0.96502,0 -1.75,0.78498 -1.75,1.75 0,0.96502 0.78498,1.75 1.75,1.75 0.96502,0 1.75,-0.78498 1.75,-1.75 0,-0.96502 -0.78498,-1.75 -1.75,-1.75 z m 0,0.25 c 0.82991,0 1.5,0.67009 1.5,1.5 0,0.82991 -0.67009,1.5 -1.5,1.5 -0.82991,0 -1.5,-0.67009 -1.5,-1.5 0,-0.82991 0.67009,-1.5 1.5,-1.5 z"
         id="path3853" />
      <path
         style="color:#000000;fill:#ffffff;stroke:none;stroke-width:0.25;stroke-linecap:round;stroke-linejoin:round;-inkscape-stroke:none"
         d="M 426.375,149 A 2.375,2.375 0 0 1 424,151.375 2.375,2.375 0 0 1 421.625,149 2.375,2.375 0 0 1 424,146.625 2.375,2.375 0 0 1 426.375,149 Z"
         id="path3857" />
      <path
         style="color:#000000;fill:#394e6f;stroke:none;stroke-linecap:round;stroke-linejoin:round;-inkscape-stroke:none"
         d="m 424,146.5 c -1.37923,0 -2.5,1.12077 -2.5,2.5 0,1.37923 1.12077,2.5 2.5,2.5 1.37923,0 2.5,-1.12077 2.5,-2.5 0,-1.37923 -1.12077,-2.5 -2.5,-2.5 z m 0,0.25 c 1.24412,0 2.25,1.00588 2.25,2.25 0,1.24412 -1.00588,2.25 -2.25,2.25 -1.24412,0 -2.25,-1.00588 -2.25,-2.25 0,-1.24412 1.00588,-2.25 2.25,-2.25 z"
         id="path3859" />
    </g>
    <g
       id="g22099"
       transform="translate(2.00744,-27.64206)">
      <path
         style="color:#000000;fill:#ffffff;stroke-width:0.5;stroke-linecap:round;stroke-linejoin:round;-inkscape-stroke:none"
         d="m 430.24256,138.64206 a 2.25,2.25 0 0 1 -2.25,2.25 2.25,2.25 0 0 1 -2.25,-2.25 2.25,2.25 0 0 1 2.25,-2.25 2.25,2.25 0 0 1 2.25,2.25 z"
         id="path5392" />
      <path
         style="color:#000000;fill:#394e6f;stroke-linecap:round;stroke-linejoin:round;-inkscape-stroke:none"
         d="m 427.99256,136.14206 c -1.37775,0 -2.5,1.12225 -2.5,2.5 0,1.37775 1.12225,2.5 2.5,2.5 1.37775,0 2.5,-1.12225 2.5,-2.5 0,-1.37775 -1.12225,-2.5 -2.5,-2.5 z m 0,0.5 c 1.10753,0 2,0.89247 2,2 0,1.10753 -0.89247,2 -2,2 -1.10753,0 -2,-0.89247 -2,-2 0,-1.10753 0.89247,-2 2,-2 z"
         id="path5394" />
      <path
         style="color:#000000;fill:#ffffff;stroke-width:0.5;stroke-linecap:round;stroke-linejoin:round;-inkscape-stroke:none"
         d="m 433.74256,142.64206 a 1.25,1.25 0 0 1 -1.25,1.25 1.25,1.25 0 0 1 -1.25,-1.25 1.25,1.25 0 0 1 1.25,-1.25 1.25,1.25 0 0 1 1.25,1.25 z"
         id="path5398" />
      <path
         style="color:#000000;fill:#394e6f;stroke-linecap:round;stroke-linejoin:round;-inkscape-stroke:none"
         d="m 432.49256,141.14206 c -0.82546,0 -1.5,0.67454 -1.5,1.5 0,0.82547 0.67454,1.5 1.5,1.5 0.82547,0 1.5,-0.67453 1.5,-1.5 0,-0.82546 -0.67453,-1.5 -1.5,-1.5 z m 0,0.5 c 0.55525,0 1,0.44476 1,1 0,0.55525 -0.44475,1 -1,1 -0.55525,0 -1,-0.44475 -1,-1 0,-0.55524 0.44475,-1 1,-1 z"
         id="path5400" />
      <path
         style="color:#000000;fill:#ffffff;stroke-width:0.5;stroke-linecap:round;stroke-linejoin:round;-inkscape-stroke:none"
         d="m 432.24256,141.39206 a 2.5,2.5 0 0 1 -2.5,2.5 2.5,2.5 0 0 1 -2.5,-2.5 2.5,2.5 0 0 1 2.5,-2.5 2.5,2.5 0 0 1 2.5,2.5 z"
         id="path5404" />
      <path
         style="color:#000000;fill:#394e6f;stroke-linecap:round;stroke-linejoin:round;-inkscape-stroke:none"
         d="m 429.74256,138.64206 c -1.51582,0 -2.75,1.23418 -2.75,2.75 0,1.51582 1.23418,2.75 2.75,2.75 1.51582,0 2.75,-1.23418 2.75,-2.75 0,-1.51582 -1.23418,-2.75 -2.75,-2.75 z m 0,0.5 c 1.2456,0 2.25,1.0044 2.25,2.25 0,1.2456 -1.0044,2.25 -2.25,2.25 -1.2456,0 -2.25,-1.0044 -2.25,-2.25 0,-1.2456 1.0044,-2.25 2.25,-2.25 z"
         id="path5406" />
      <path
         style="color:#000000;fill:#ffffff;stroke-width:0.5;stroke-linecap:round;stroke-linejoin:round;-inkscape-stroke:none"
         d="m 422.74256,141.64206 a 2.25,2.25 0 0 1 -2.25,2.25 2.25,2.25 0 0 1 -2.25,-2.25 2.25,2.25 0 0 1 2.25,-2.25 2.25,2.25 0 0 1 2.25,2.25 z"
         id="path5410" />
      <path
         style="color:#000000;fill:#394e6f;stroke-linecap:round;stroke-linejoin:round;-inkscape-stroke:none"
         d="m 420.49256,139.14206 c -1.37775,0 -2.5,1.12225 -2.5,2.5 0,1.37775 1.12225,2.5 2.5,2.5 1.37775,0 2.5,-1.12225 2.5,-2.5 0,-1.37775 -1.12225,-2.5 -2.5,-2.5 z m 0,0.5 c 1.10753,0 2,0.89247 2,2 0,1.10753 -0.89247,2 -2,2 -1.10753,0 -2,-0.89247 -2,-2 0,-1.10753 0.89247,-2 2,-2 z"
         id="path5412" />
      <path
         style="color:#000000;fill:#ffffff;stroke-width:0.5;stroke-linecap:round;stroke-linejoin:round;-inkscape-stroke:none"
         d="m 424.24256,136.89206 a 1.5,1.5 0 0 1 -1.5,1.5 1.5,1.5 0 0 1 -1.5,-1.5 1.5,1.5 0 0 1 1.5,-1.5 1.5,1.5 0 0 1 1.5,1.5 z"
         id="path5416" />
      <path
         style="color:#000000;fill:#394e6f;stroke-linecap:round;stroke-linejoin:round;-inkscape-stroke:none"
         d="m 422.74256,135.14206 c -0.96354,0 -1.75,0.78646 -1.75,1.75 0,0.96354 0.78646,1.75 1.75,1.75 0.96354,0 1.75,-0.78646 1.75,-1.75 0,-0.96354 -0.78646,-1.75 -1.75,-1.75 z m 0,0.5 c 0.69332,0 1.25,0.55668 1.25,1.25 0,0.69332 -0.55668,1.25 -1.25,1.25 -0.69332,0 -1.25,-0.55668 -1.25,-1.25 0,-0.69332 0.55668,-1.25 1.25,-1.25 z"
         id="path5418" />
      <path
         style="color:#000000;fill:#ffffff;stroke-width:0.5;stroke-linecap:round;stroke-linejoin:round;-inkscape-stroke:none"
         d="m 425.74256,139.64206 a 2.75,2.75 0 0 1 -2.75,2.75 2.75,2.75 0 0 1 -2.75,-2.75 2.75,2.75 0 0 1 2.75,-2.75 2.75,2.75 0 0 1 2.75,2.75 z"
         id="path5422" />
      <path
         style="color:#000000;fill:#394e6f;stroke-linecap:round;stroke-linejoin:round;-inkscape-stroke:none"
         d="m 422.99256,136.64206 c -1.65389,0 -3,1.34611 -3,3 0,1.65389 1.34611,3 3,3 1.65389,0 3,-1.34611 3,-3 0,-1.65389 -1.34611,-3 -3,-3 z m 0,0.5 c 1.38367,0 2.5,1.11633 2.5,2.5 0,1.38367 -1.11633,2.5 -2.5,2.5 -1.38367,0 -2.5,-1.11633 -2.5,-2.5 0,-1.38367 1.11633,-2.5 2.5,-2.5 z"
         id="path5424" />
      <path
         style="color:#000000;fill:#ffffff;stroke-width:0.5;stroke-linecap:round;stroke-linejoin:round;-inkscape-stroke:none"
         d="m 423.99256,142.64206 a 1.25,1.25 0 0 1 -1.25,1.25 1.25,1.25 0 0 1 -1.25,-1.25 1.25,1.25 0 0 1 1.25,-1.25 1.25,1.25 0 0 1 1.25,1.25 z"
         id="path5428" />
      <path
         style="color:#000000;fill:#394e6f;stroke-linecap:round;stroke-linejoin:round;-inkscape-stroke:none"
         d="m 422.74256,141.14206 c -0.82547,0 -1.5,0.67454 -1.5,1.5 0,0.82547 0.67453,1.5 1.5,1.5 0.82547,0 1.5,-0.67453 1.5,-1.5 0,-0.82546 -0.67453,-1.5 -1.5,-1.5 z m 0,0.5 c 0.55525,0 1,0.44476 1,1 0,0.55525 -0.44475,1 -1,1 -0.55525,0 -1,-0.44475 -1,-1 0,-0.55524 0.44475,-1 1,-1 z"
         id="path5430" />
      <path
         style="color:#000000;fill:#ffffff;stroke-width:0.5;stroke-linecap:round;stroke-linejoin:round;-inkscape-stroke:none"
         d="m 427.74256,137.39206 a 2.5,2.5 0 0 1 -2.5,2.5 2.5,2.5 0 0 1 -2.5,-2.5 2.5,2.5 0 0 1 2.5,-2.5 2.5,2.5 0 0 1 2.5,2.5 z"
         id="path5434" />
      <path
         style="color:#000000;fill:#394e6f;stroke-linecap:round;stroke-linejoin:round;-inkscape-stroke:none"
         d="m 425.24256,134.64206 c -1.51582,0 -2.75,1.23418 -2.75,2.75 0,1.51582 1.23418,2.75 2.75,2.75 1.51582,0 2.75,-1.23418 2.75,-2.75 0,-1.51582 -1.23418,-2.75 -2.75,-2.75 z m 0,0.5 c 1.2456,0 2.25,1.0044 2.25,2.25 0,1.2456 -1.0044,2.25 -2.25,2.25 -1.2456,0 -2.25,-1.0044 -2.25,-2.25 0,-1.2456 1.0044,-2.25 2.25,-2.25 z"
         id="path5436" />
      <path
         style="color:#000000;fill:#ffffff;stroke-width:0.5;stroke-linecap:round;stroke-linejoin:round;-inkscape-stroke:none"
         d="m 429.24056,140.64306 a 3.2490001,3.2490001 0 0 1 -3.249,3.249 3.2490001,3.2490001 0 0 1 -3.249,-3.249 3.2490001,3.2490001 0 0 1 3.249,-3.249 3.2490001,3.2490001 0 0 1 3.249,3.249 z"
         id="path5440" />
      <path
         style="color:#000000;fill:#394e6f;stroke-linecap:round;stroke-linejoin:round;-inkscape-stroke:none"
         d="m 425.99061,137.14401 c -1.92948,0 -3.49805,1.57052 -3.49805,3.5 0,1.92948 1.56857,3.49805 3.49805,3.49805 1.92948,0 3.5,-1.56857 3.5,-3.49805 0,-1.92948 -1.57052,-3.5 -3.5,-3.5 z m 0,0.5 c 1.65926,0 3,1.34074 3,3 0,1.65926 -1.34074,2.99805 -3,2.99805 -1.65926,0 -2.99805,-1.33878 -2.99805,-2.99805 0,-1.65926 1.33879,-3 2.99805,-3 z"
         id="path5442" />
    </g>
    <g
       id="g22535"
       transform="translate(-13.5335,-17.980149)">
      <path
         style="color:#000000;fill:#ffffff;stroke-width:0.5;stroke-linecap:round;stroke-linejoin:round;-inkscape-stroke:none"
         d="m 451.2835,84.480149 a 3.25,3.25 0 0 1 -3.25,3.25 3.25,3.25 0 0 1 -3.25,-3.25 3.25,3.25 0 0 1 3.25,-3.25 3.25,3.25 0 0 1 3.25,3.25 z"
         id="path6161" />
      <path
         style="color:#000000;fill:#394e6f;stroke-linecap:round;stroke-linejoin:round;-inkscape-stroke:none"
         d="m 448.0335,80.980149 c -1.93003,0 -3.5,1.569966 -3.5,3.5 0,1.930034 1.56997,3.5 3.5,3.5 1.93003,0 3.5,-1.569966 3.5,-3.5 0,-1.930034 -1.56997,-3.5 -3.5,-3.5 z m 0,0.5 c 1.65981,0 3,1.340186 3,3 0,1.659814 -1.34019,3 -3,3 -1.65981,0 -3,-1.340186 -3,-3 0,-1.659814 1.34019,-3 3,-3 z"
         id="path6163" />
      <path
         style="color:#000000;fill:#ffffff;stroke-width:0.5;stroke-linecap:round;stroke-linejoin:round;-inkscape-stroke:none"
         d="m 457.2835,90.980149 a 1.75,1.75 0 0 1 -1.75,1.75 1.75,1.75 0 0 1 -1.75,-1.75 1.75,1.75 0 0 1 1.75,-1.75 1.75,1.75 0 0 1 1.75,1.75 z"
         id="path6167" />
      <path
         style="color:#000000;fill:#394e6f;stroke-linecap:round;stroke-linejoin:round;-inkscape-stroke:none"
         d="m 455.5335,88.980149 c -1.10161,0 -2,0.898393 -2,2 0,1.101607 0.89839,2 2,2 1.10161,0 2,-0.898393 2,-2 0,-1.101607 -0.89839,-2 -2,-2 z m 0,0.5 c 0.83139,0 1.5,0.668613 1.5,1.5 0,0.831387 -0.66861,1.5 -1.5,1.5 -0.83139,0 -1.5,-0.668613 -1.5,-1.5 0,-0.831387 0.66861,-1.5 1.5,-1.5 z"
         id="path6169" />
      <path
         style="color:#000000;fill:#ffffff;stroke-width:0.5;stroke-linecap:round;stroke-linejoin:round;-inkscape-stroke:none"
         d="m 455.2835,88.980149 a 3.75,3.75 0 0 1 -3.75,3.75 3.75,3.75 0 0 1 -3.75,-3.75 3.75,3.75 0 0 1 3.75,-3.75 3.75,3.75 0 0 1 3.75,3.75 z"
         id="path6173" />
      <path
         style="color:#000000;fill:#394e6f;stroke-linecap:round;stroke-linejoin:round;-inkscape-stroke:none"
         d="m 451.5335,84.980149 c -2.20618,0 -4,1.793824 -4,4 0,2.206176 1.79382,4 4,4 2.20618,0 4,-1.793824 4,-4 0,-2.206176 -1.79382,-4 -4,-4 z m 0,0.5 c 1.93596,0 3.5,1.564044 3.5,3.5 0,1.935956 -1.56404,3.5 -3.5,3.5 -1.93596,0 -3.5,-1.564044 -3.5,-3.5 0,-1.935956 1.56404,-3.5 3.5,-3.5 z"
         id="path6175" />
      <path
         style="color:#000000;fill:#ffffff;stroke-width:0.5;stroke-linecap:round;stroke-linejoin:round;-inkscape-stroke:none"
         d="m 440.2835,89.480149 a 3.25,3.25 0 0 1 -3.25,3.25 3.25,3.25 0 0 1 -3.25,-3.25 3.25,3.25 0 0 1 3.25,-3.25 3.25,3.25 0 0 1 3.25,3.25 z"
         id="path6179" />
      <path
         style="color:#000000;fill:#394e6f;stroke-linecap:round;stroke-linejoin:round;-inkscape-stroke:none"
         d="m 437.0335,85.980149 c -1.93003,0 -3.5,1.569966 -3.5,3.5 0,1.930034 1.56997,3.5 3.5,3.5 1.93003,0 3.5,-1.569966 3.5,-3.5 0,-1.930034 -1.56997,-3.5 -3.5,-3.5 z m 0,0.5 c 1.65981,0 3,1.340186 3,3 0,1.659814 -1.34019,3 -3,3 -1.65981,0 -3,-1.340186 -3,-3 0,-1.659814 1.34019,-3 3,-3 z"
         id="path6181" />
      <path
         style="color:#000000;fill:#ffffff;stroke-width:0.5;stroke-linecap:round;stroke-linejoin:round;-inkscape-stroke:none"
         d="m 441.7835,82.980149 a 1.75,1.75 0 0 1 -1.75,1.75 1.75,1.75 0 0 1 -1.75,-1.75 1.75,1.75 0 0 1 1.75,-1.75 1.75,1.75 0 0 1 1.75,1.75 z"
         id="path6185" />
      <path
         style="color:#000000;fill:#394e6f;stroke-linecap:round;stroke-linejoin:round;-inkscape-stroke:none"
         d="m 440.0335,80.980149 c -1.10161,0 -2,0.898393 -2,2 0,1.101607 0.89839,2 2,2 1.10161,0 2,-0.898393 2,-2 0,-1.101607 -0.89839,-2 -2,-2 z m 0,0.5 c 0.83139,0 1.5,0.668613 1.5,1.5 0,0.831387 -0.66861,1.5 -1.5,1.5 -0.83139,0 -1.5,-0.668613 -1.5,-1.5 0,-0.831387 0.66861,-1.5 1.5,-1.5 z"
         id="path6187" />
      <path
         style="color:#000000;fill:#ffffff;stroke-width:0.5;stroke-linecap:round;stroke-linejoin:round;-inkscape-stroke:none"
         d="m 444.2835,86.980149 a 3.75,3.75 0 0 1 -3.75,3.75 3.75,3.75 0 0 1 -3.75,-3.75 3.75,3.75 0 0 1 3.75,-3.75 3.75,3.75 0 0 1 3.75,3.75 z"
         id="path6191" />
      <path
         style="color:#000000;fill:#394e6f;stroke-linecap:round;stroke-linejoin:round;-inkscape-stroke:none"
         d="m 440.5335,82.980149 c -2.20618,0 -4,1.793824 -4,4 0,2.206176 1.79382,4 4,4 2.20618,0 4,-1.793824 4,-4 0,-2.206176 -1.79382,-4 -4,-4 z m 0,0.5 c 1.93596,0 3.5,1.564044 3.5,3.5 0,1.935956 -1.56404,3.5 -3.5,3.5 -1.93596,0 -3.5,-1.564044 -3.5,-3.5 0,-1.935956 1.56404,-3.5 3.5,-3.5 z"
         id="path6193" />
      <path
         style="color:#000000;fill:#ffffff;stroke-width:0.5;stroke-linecap:round;stroke-linejoin:round;-inkscape-stroke:none"
         d="m 442.2835,90.980149 a 1.75,1.75 0 0 1 -1.75,1.75 1.75,1.75 0 0 1 -1.75,-1.75 1.75,1.75 0 0 1 1.75,-1.75 1.75,1.75 0 0 1 1.75,1.75 z"
         id="path6197" />
      <path
         style="color:#000000;fill:#394e6f;stroke-linecap:round;stroke-linejoin:round;-inkscape-stroke:none"
         d="m 440.5335,88.980149 c -1.10161,0 -2,0.898393 -2,2 0,1.101607 0.89839,2 2,2 1.10161,0 2,-0.898393 2,-2 0,-1.101607 -0.89839,-2 -2,-2 z m 0,0.5 c 0.83139,0 1.5,0.668613 1.5,1.5 0,0.831387 -0.66861,1.5 -1.5,1.5 -0.83139,0 -1.5,-0.668613 -1.5,-1.5 0,-0.831387 0.66861,-1.5 1.5,-1.5 z"
         id="path6199" />
      <path
         style="color:#000000;fill:#ffffff;stroke-width:0.5;stroke-linecap:round;stroke-linejoin:round;-inkscape-stroke:none"
         d="m 447.2835,82.480149 a 3.25,3.25 0 0 1 -3.25,3.25 3.25,3.25 0 0 1 -3.25,-3.25 3.25,3.25 0 0 1 3.25,-3.25 3.25,3.25 0 0 1 3.25,3.25 z"
         id="path6203" />
      <path
         style="color:#000000;fill:#394e6f;stroke-linecap:round;stroke-linejoin:round;-inkscape-stroke:none"
         d="m 444.0335,78.980149 c -1.93003,0 -3.5,1.569966 -3.5,3.5 0,1.930034 1.56997,3.5 3.5,3.5 1.93003,0 3.5,-1.569966 3.5,-3.5 0,-1.930034 -1.56997,-3.5 -3.5,-3.5 z m 0,0.5 c 1.65981,0 3,1.340186 3,3 0,1.659814 -1.34019,3 -3,3 -1.65981,0 -3,-1.340186 -3,-3 0,-1.659814 1.34019,-3 3,-3 z"
         id="path6205" />
      <path
         style="color:#000000;fill:#ffffff;stroke-width:0.5;stroke-linecap:round;stroke-linejoin:round;-inkscape-stroke:none"
         d="m 450.2835,87.980149 a 4.75,4.75 0 0 1 -4.75,4.75 4.75,4.75 0 0 1 -4.75,-4.75 4.75,4.75 0 0 1 4.75,-4.75 4.75,4.75 0 0 1 4.75,4.75 z"
         id="path6209" />
      <path
         style="color:#000000;fill:#394e6f;stroke-linecap:round;stroke-linejoin:round;-inkscape-stroke:none"
         d="m 445.5335,82.980149 c -2.75846,0 -5,2.24154 -5,5 0,2.75846 2.24154,5 5,5 2.75846,0 5,-2.24154 5,-5 0,-2.75846 -2.24154,-5 -5,-5 z m 0,0.5 c 2.48824,0 4.5,2.01176 4.5,4.5 0,2.48824 -2.01176,4.5 -4.5,4.5 -2.48824,0 -4.5,-2.01176 -4.5,-4.5 0,-2.48824 2.01176,-4.5 4.5,-4.5 z"
         id="path6211" />
    </g>
    <g
       id="g22824"
       transform="translate(-39.73697,-19.65136)">
      <path
         style="color:#000000;fill:#ffffff;stroke-linecap:round;stroke-linejoin:round;-inkscape-stroke:none"
         d="m 360.23697,261.65136 a 4.5,4.5 0 0 1 -4.5,4.5 4.5,4.5 0 0 1 -4.5,-4.5 4.5,4.5 0 0 1 4.5,-4.5 4.5,4.5 0 0 1 4.5,4.5 z"
         id="path308" />
      <path
         style="color:#000000;fill:#394e6f;stroke-linecap:round;stroke-linejoin:round;-inkscape-stroke:none"
         d="m 355.73697,256.65136 c -2.7555,0 -5,2.2445 -5,5 0,2.7555 2.2445,5 5,5 2.7555,0 5,-2.2445 5,-5 0,-2.7555 -2.2445,-5 -5,-5 z m 0,1 c 2.21506,0 4,1.78494 4,4 0,2.21506 -1.78494,4 -4,4 -2.21506,0 -4,-1.78494 -4,-4 0,-2.21506 1.78494,-4 4,-4 z"
         id="path310" />
      <path
         style="color:#000000;fill:#ffffff;stroke-linecap:round;stroke-linejoin:round;-inkscape-stroke:none"
         d="m 367.23697,269.65136 a 2.5,2.5 0 0 1 -2.5,2.5 2.5,2.5 0 0 1 -2.5,-2.5 2.5,2.5 0 0 1 2.5,-2.5 2.5,2.5 0 0 1 2.5,2.5 z"
         id="path314" />
      <path
         style="color:#000000;fill:#394e6f;stroke-linecap:round;stroke-linejoin:round;-inkscape-stroke:none"
         d="m 364.73697,266.65136 c -1.65093,0 -3,1.34907 -3,3 0,1.65093 1.34907,3 3,3 1.65093,0 3,-1.34907 3,-3 0,-1.65093 -1.34907,-3 -3,-3 z m 0,1 c 1.11049,0 2,0.88951 2,2 0,1.11049 -0.88951,2 -2,2 -1.11049,0 -2,-0.88951 -2,-2 0,-1.11049 0.88951,-2 2,-2 z"
         id="path316" />
      <path
         style="color:#000000;fill:#ffffff;stroke-linecap:round;stroke-linejoin:round;-inkscape-stroke:none"
         d="m 364.23697,267.15136 a 5,5 0 0 1 -5,5 5,5 0 0 1 -5,-5 5,5 0 0 1 5,-5 5,5 0 0 1 5,5 z"
         id="path320" />
      <path
         style="color:#000000;fill:#394e6f;stroke-linecap:round;stroke-linejoin:round;-inkscape-stroke:none"
         d="m 359.23697,261.65136 c -3.03164,0 -5.5,2.46836 -5.5,5.5 0,3.03164 2.46836,5.5 5.5,5.5 3.03164,0 5.5,-2.46836 5.5,-5.5 0,-3.03164 -2.46836,-5.5 -5.5,-5.5 z m 0,1 c 2.4912,0 4.5,2.0088 4.5,4.5 0,2.4912 -2.0088,4.5 -4.5,4.5 -2.4912,0 -4.5,-2.0088 -4.5,-4.5 0,-2.4912 2.0088,-4.5 4.5,-4.5 z"
         id="path322" />
      <path
         style="color:#000000;fill:#ffffff;stroke-linecap:round;stroke-linejoin:round;-inkscape-stroke:none"
         d="m 345.23697,267.65136 a 4.5,4.5 0 0 1 -4.5,4.5 4.5,4.5 0 0 1 -4.5,-4.5 4.5,4.5 0 0 1 4.5,-4.5 4.5,4.5 0 0 1 4.5,4.5 z"
         id="path326" />
      <path
         style="color:#000000;fill:#394e6f;stroke-linecap:round;stroke-linejoin:round;-inkscape-stroke:none"
         d="m 340.73697,262.65136 c -2.7555,0 -5,2.2445 -5,5 0,2.7555 2.2445,5 5,5 2.7555,0 5,-2.2445 5,-5 0,-2.7555 -2.2445,-5 -5,-5 z m 0,1 c 2.21506,0 4,1.78494 4,4 0,2.21506 -1.78494,4 -4,4 -2.21506,0 -4,-1.78494 -4,-4 0,-2.21506 1.78494,-4 4,-4 z"
         id="path328" />
      <path
         style="color:#000000;fill:#ffffff;stroke-linecap:round;stroke-linejoin:round;-inkscape-stroke:none"
         d="m 348.23697,258.15136 a 3,3 0 0 1 -3,3 3,3 0 0 1 -3,-3 3,3 0 0 1 3,-3 3,3 0 0 1 3,3 z"
         id="path332" />
      <path
         style="color:#000000;fill:#394e6f;stroke-linecap:round;stroke-linejoin:round;-inkscape-stroke:none"
         d="m 345.23697,254.65136 c -1.92707,0 -3.5,1.57293 -3.5,3.5 0,1.92707 1.57293,3.5 3.5,3.5 1.92707,0 3.5,-1.57293 3.5,-3.5 0,-1.92707 -1.57293,-3.5 -3.5,-3.5 z m 0,1 c 1.38663,0 2.5,1.11337 2.5,2.5 0,1.38663 -1.11337,2.5 -2.5,2.5 -1.38663,0 -2.5,-1.11337 -2.5,-2.5 0,-1.38663 1.11337,-2.5 2.5,-2.5 z"
         id="path334" />
      <path
         style="color:#000000;fill:#ffffff;stroke-linecap:round;stroke-linejoin:round;-inkscape-stroke:none"
         d="m 351.23697,263.65136 a 5.5,5.5 0 0 1 -5.5,5.5 5.5,5.5 0 0 1 -5.5,-5.5 5.5,5.5 0 0 1 5.5,-5.5 5.5,5.5 0 0 1 5.5,5.5 z"
         id="path338" />
      <path
         style="color:#000000;fill:#394e6f;stroke-linecap:round;stroke-linejoin:round;-inkscape-stroke:none"
         d="m 345.73697,257.65136 c -3.30778,0 -6,2.69222 -6,6 0,3.30778 2.69222,6 6,6 3.30778,0 6,-2.69222 6,-6 0,-3.30778 -2.69222,-6 -6,-6 z m 0,1 c 2.76734,0 5,2.23266 5,5 0,2.76734 -2.23266,5 -5,5 -2.76734,0 -5,-2.23266 -5,-5 0,-2.76734 2.23266,-5 5,-5 z"
         id="path340" />
      <path
         style="color:#000000;fill:#ffffff;stroke-linecap:round;stroke-linejoin:round;-inkscape-stroke:none"
         d="m 347.73697,269.65136 a 2.5,2.5 0 0 1 -2.5,2.5 2.5,2.5 0 0 1 -2.5,-2.5 2.5,2.5 0 0 1 2.5,-2.5 2.5,2.5 0 0 1 2.5,2.5 z"
         id="path344" />
      <path
         style="color:#000000;fill:#394e6f;stroke-linecap:round;stroke-linejoin:round;-inkscape-stroke:none"
         d="m 345.23697,266.65136 c -1.65093,0 -3,1.34907 -3,3 0,1.65093 1.34907,3 3,3 1.65093,0 3,-1.34907 3,-3 0,-1.65093 -1.34907,-3 -3,-3 z m 0,1 c 1.11049,0 2,0.88951 2,2 0,1.11049 -0.88951,2 -2,2 -1.11049,0 -2,-0.88951 -2,-2 0,-1.11049 0.88951,-2 2,-2 z"
         id="path346" />
      <path
         style="color:#000000;fill:#ffffff;stroke-linecap:round;stroke-linejoin:round;-inkscape-stroke:none"
         d="m 355.23697,259.15136 a 5,5 0 0 1 -5,5 5,5 0 0 1 -5,-5 5,5 0 0 1 5,-5 5,5 0 0 1 5,5 z"
         id="path350" />
      <path
         style="color:#000000;fill:#394e6f;stroke-linecap:round;stroke-linejoin:round;-inkscape-stroke:none"
         d="m 350.23697,253.65136 c -3.03164,0 -5.5,2.46836 -5.5,5.5 0,3.03164 2.46836,5.5 5.5,5.5 3.03164,0 5.5,-2.46836 5.5,-5.5 0,-3.03164 -2.46836,-5.5 -5.5,-5.5 z m 0,1 c 2.4912,0 4.5,2.0088 4.5,4.5 0,2.4912 -2.0088,4.5 -4.5,4.5 -2.4912,0 -4.5,-2.0088 -4.5,-4.5 0,-2.4912 2.0088,-4.5 4.5,-4.5 z"
         id="path352" />
      <path
         style="color:#000000;fill:#ffffff;stroke-linecap:round;stroke-linejoin:round;-inkscape-stroke:none"
         d="m 358.23297,265.65336 a 6.4980001,6.4980001 0 0 1 -6.498,6.498 6.4980001,6.4980001 0 0 1 -6.498,-6.498 6.4980001,6.4980001 0 0 1 6.498,-6.498 6.4980001,6.4980001 0 0 1 6.498,6.498 z"
         id="path356" />
      <path
         style="color:#000000;fill:#394e6f;stroke-linecap:round;stroke-linejoin:round;-inkscape-stroke:none"
         d="m 351.73502,258.65527 c -3.85897,0 -6.99805,3.13908 -6.99805,6.99804 0,3.85897 3.13908,6.99805 6.99805,6.99805 3.85896,0 6.99804,-3.13908 6.99804,-6.99805 0,-3.85896 -3.13908,-6.99804 -6.99804,-6.99804 z m 0,1 c 3.31852,0 5.99804,2.67952 5.99804,5.99804 0,3.31853 -2.67952,5.99805 -5.99804,5.99805 -3.31853,0 -5.99805,-2.67952 -5.99805,-5.99805 0,-3.31852 2.67952,-5.99804 5.99805,-5.99804 z"
         id="path358" />
    </g>
    <g
       id="g23260"
       transform="translate(-2.14592,5.66322)">
      <path
         style="color:#000000;fill:#ffffff;stroke-width:1;stroke-linecap:round;stroke-linejoin:round;-inkscape-stroke:none"
         d="m 333.64592,163.33678 a 6.5,6.5 0 0 1 -6.5,6.5 6.5,6.5 0 0 1 -6.5,-6.5 6.5,6.5 0 0 1 6.5,-6.5 6.5,6.5 0 0 1 6.5,6.5 z"
         id="path6161-8" />
      <path
         style="color:#000000;fill:#394e6f;stroke-width:2;stroke-linecap:round;stroke-linejoin:round;-inkscape-stroke:none"
         d="m 327.14592,156.33678 c -3.86007,0 -7,3.13993 -7,7 0,3.86007 3.13993,7 7,7 3.86007,0 7,-3.13993 7,-7 0,-3.86007 -3.13993,-7 -7,-7 z m 0,1 c 3.31963,0 6,2.68037 6,6 0,3.31963 -2.68037,6 -6,6 -3.31963,0 -6,-2.68037 -6,-6 0,-3.31963 2.68037,-6 6,-6 z"
         id="path6163-6" />
      <path
         style="color:#000000;fill:#ffffff;stroke-width:1;stroke-linecap:round;stroke-linejoin:round;-inkscape-stroke:none"
         d="m 345.64592,176.33678 a 3.5,3.5 0 0 1 -3.5,3.5 3.5,3.5 0 0 1 -3.5,-3.5 3.5,3.5 0 0 1 3.5,-3.5 3.5,3.5 0 0 1 3.5,3.5 z"
         id="path6167-8" />
      <path
         style="color:#000000;fill:#394e6f;stroke-width:2;stroke-linecap:round;stroke-linejoin:round;-inkscape-stroke:none"
         d="m 342.14592,172.33678 c -2.20321,0 -4,1.79679 -4,4 0,2.20321 1.79679,4 4,4 2.20321,0 4,-1.79679 4,-4 0,-2.20321 -1.79679,-4 -4,-4 z m 0,1 c 1.66277,0 3,1.33723 3,3 0,1.66277 -1.33723,3 -3,3 -1.66277,0 -3,-1.33723 -3,-3 0,-1.66277 1.33723,-3 3,-3 z"
         id="path6169-8" />
      <path
         style="color:#000000;fill:#ffffff;stroke-width:1;stroke-linecap:round;stroke-linejoin:round;-inkscape-stroke:none"
         d="m 341.64592,172.33678 a 7.5,7.5 0 0 1 -7.5,7.5 7.5,7.5 0 0 1 -7.5,-7.5 7.5,7.5 0 0 1 7.5,-7.5 7.5,7.5 0 0 1 7.5,7.5 z"
         id="path6173-4" />
      <path
         style="color:#000000;fill:#394e6f;stroke-width:2;stroke-linecap:round;stroke-linejoin:round;-inkscape-stroke:none"
         d="m 334.14592,164.33678 c -4.41235,0 -8,3.58765 -8,8 0,4.41235 3.58765,8 8,8 4.41235,0 8,-3.58765 8,-8 0,-4.41235 -3.58765,-8 -8,-8 z m 0,1 c 3.87191,0 7,3.12809 7,7 0,3.87191 -3.12809,7 -7,7 -3.87191,0 -7,-3.12809 -7,-7 0,-3.87191 3.12809,-7 7,-7 z"
         id="path6175-3" />
      <path
         style="color:#000000;fill:#ffffff;stroke-width:1;stroke-linecap:round;stroke-linejoin:round;-inkscape-stroke:none"
         d="m 311.64592,173.33678 a 6.5,6.5 0 0 1 -6.5,6.5 6.5,6.5 0 0 1 -6.5,-6.5 6.5,6.5 0 0 1 6.5,-6.5 6.5,6.5 0 0 1 6.5,6.5 z"
         id="path6179-1" />
      <path
         style="color:#000000;fill:#394e6f;stroke-width:2;stroke-linecap:round;stroke-linejoin:round;-inkscape-stroke:none"
         d="m 305.14592,166.33678 c -3.86007,0 -7,3.13993 -7,7 0,3.86007 3.13993,7 7,7 3.86007,0 7,-3.13993 7,-7 0,-3.86007 -3.13993,-7 -7,-7 z m 0,1 c 3.31963,0 6,2.68037 6,6 0,3.31963 -2.68037,6 -6,6 -3.31963,0 -6,-2.68037 -6,-6 0,-3.31963 2.68037,-6 6,-6 z"
         id="path6181-4" />
      <path
         style="color:#000000;fill:#ffffff;stroke-width:1;stroke-linecap:round;stroke-linejoin:round;-inkscape-stroke:none"
         d="m 314.64592,160.33678 a 3.5,3.5 0 0 1 -3.5,3.5 3.5,3.5 0 0 1 -3.5,-3.5 3.5,3.5 0 0 1 3.5,-3.5 3.5,3.5 0 0 1 3.5,3.5 z"
         id="path6185-9" />
      <path
         style="color:#000000;fill:#394e6f;stroke-width:2;stroke-linecap:round;stroke-linejoin:round;-inkscape-stroke:none"
         d="m 311.14592,156.33678 c -2.20321,0 -4,1.79679 -4,4 0,2.20321 1.79679,4 4,4 2.20322,0 4,-1.79679 4,-4 0,-2.20321 -1.79678,-4 -4,-4 z m 0,1 c 1.66278,0 3,1.33723 3,3 0,1.66277 -1.33722,3 -3,3 -1.66277,0 -3,-1.33723 -3,-3 0,-1.66277 1.33723,-3 3,-3 z"
         id="path6187-2" />
      <path
         style="color:#000000;fill:#ffffff;stroke-width:1;stroke-linecap:round;stroke-linejoin:round;-inkscape-stroke:none"
         d="m 319.64592,168.33678 a 7.5,7.5 0 0 1 -7.5,7.5 7.5,7.5 0 0 1 -7.5,-7.5 7.5,7.5 0 0 1 7.5,-7.5 7.5,7.5 0 0 1 7.5,7.5 z"
         id="path6191-0" />
      <path
         style="color:#000000;fill:#394e6f;stroke-width:2;stroke-linecap:round;stroke-linejoin:round;-inkscape-stroke:none"
         d="m 312.14592,160.33678 c -4.41235,0 -8,3.58765 -8,8 0,4.41235 3.58765,8 8,8 4.41235,0 8,-3.58765 8,-8 0,-4.41235 -3.58765,-8 -8,-8 z m 0,1 c 3.87191,0 7,3.12809 7,7 0,3.87191 -3.12809,7 -7,7 -3.87191,0 -7,-3.12809 -7,-7 0,-3.87191 3.12809,-7 7,-7 z"
         id="path6193-6" />
      <path
         style="color:#000000;fill:#ffffff;stroke-width:1;stroke-linecap:round;stroke-linejoin:round;-inkscape-stroke:none"
         d="m 315.64592,176.33678 a 3.5,3.5 0 0 1 -3.5,3.5 3.5,3.5 0 0 1 -3.5,-3.5 3.5,3.5 0 0 1 3.5,-3.5 3.5,3.5 0 0 1 3.5,3.5 z"
         id="path6197-8" />
      <path
         style="color:#000000;fill:#394e6f;stroke-width:2;stroke-linecap:round;stroke-linejoin:round;-inkscape-stroke:none"
         d="m 312.14592,172.33678 c -2.20321,0 -4,1.79679 -4,4 0,2.20321 1.79679,4 4,4 2.20322,0 4,-1.79679 4,-4 0,-2.20321 -1.79678,-4 -4,-4 z m 0,1 c 1.66278,0 3,1.33723 3,3 0,1.66277 -1.33722,3 -3,3 -1.66277,0 -3,-1.33723 -3,-3 0,-1.66277 1.33723,-3 3,-3 z"
         id="path6199-9" />
      <path
         style="color:#000000;fill:#ffffff;stroke-width:1;stroke-linecap:round;stroke-linejoin:round;-inkscape-stroke:none"
         d="m 325.64592,159.33678 a 6.5,6.5 0 0 1 -6.5,6.5 6.5,6.5 0 0 1 -6.5,-6.5 6.5,6.5 0 0 1 6.5,-6.5 6.5,6.5 0 0 1 6.5,6.5 z"
         id="path6203-2" />
      <path
         style="color:#000000;fill:#394e6f;stroke-width:2;stroke-linecap:round;stroke-linejoin:round;-inkscape-stroke:none"
         d="m 319.14592,152.33678 c -3.86007,0 -7,3.13993 -7,7 0,3.86007 3.13993,7 7,7 3.86007,0 7,-3.13993 7,-7 0,-3.86007 -3.13993,-7 -7,-7 z m 0,1 c 3.31963,0 6,2.68037 6,6 0,3.31963 -2.68037,6 -6,6 -3.31963,0 -6,-2.68037 -6,-6 0,-3.31963 2.68037,-6 6,-6 z"
         id="path6205-6" />
      <path
         style="color:#000000;fill:#ffffff;stroke-width:1;stroke-linecap:round;stroke-linejoin:round;-inkscape-stroke:none"
         d="m 331.64592,170.33678 a 9.5,9.5 0 0 1 -9.5,9.5 9.5,9.5 0 0 1 -9.5,-9.5 9.5,9.5 0 0 1 9.5,-9.5 9.5,9.5 0 0 1 9.5,9.5 z"
         id="path6209-6" />
      <path
         style="color:#000000;fill:#394e6f;stroke-width:2;stroke-linecap:round;stroke-linejoin:round;-inkscape-stroke:none"
         d="m 322.14592,160.33678 c -5.51692,0 -10,4.48308 -10,10 0,5.51692 4.48308,10 10,10 5.51692,0 10,-4.48308 10,-10 0,-5.51692 -4.48308,-10 -10,-10 z m 0,1 c 4.97648,0 9,4.02352 9,9 0,4.97648 -4.02352,9 -9,9 -4.97648,0 -9,-4.02352 -9,-9 0,-4.97648 4.02352,-9 9,-9 z"
         id="path6211-4" />
    </g>
    <g
       id="g23433"
       transform="matrix(2,0,0,2,-340.67494,-66.92804)">
      <path
         style="color:#000000;fill:#ffffff;stroke-linecap:round;stroke-linejoin:round;-inkscape-stroke:none"
         d="m 346.83747,69.96402 a 4.5,4.5 0 0 1 -4.5,4.5 4.5,4.5 0 0 1 -4.5,-4.5 4.5,4.5 0 0 1 4.5,-4.5 4.5,4.5 0 0 1 4.5,4.5 z"
         id="path308-5" />
      <path
         style="color:#000000;fill:#394e6f;stroke-linecap:round;stroke-linejoin:round;-inkscape-stroke:none"
         d="m 342.33747,64.96402 c -2.7555,0 -5,2.2445 -5,5 0,2.7555 2.2445,5 5,5 2.7555,0 5,-2.2445 5,-5 0,-2.7555 -2.2445,-5 -5,-5 z m 0,1 c 2.21506,0 4,1.78494 4,4 0,2.21506 -1.78494,4 -4,4 -2.21506,0 -4,-1.78494 -4,-4 0,-2.21506 1.78494,-4 4,-4 z"
         id="path310-0" />
      <path
         style="color:#000000;fill:#ffffff;stroke-linecap:round;stroke-linejoin:round;-inkscape-stroke:none"
         d="m 353.83747,77.96402 a 2.5,2.5 0 0 1 -2.5,2.5 2.5,2.5 0 0 1 -2.5,-2.5 2.5,2.5 0 0 1 2.5,-2.5 2.5,2.5 0 0 1 2.5,2.5 z"
         id="path314-4" />
      <path
         style="color:#000000;fill:#394e6f;stroke-linecap:round;stroke-linejoin:round;-inkscape-stroke:none"
         d="m 351.33747,74.96402 c -1.65093,0 -3,1.34907 -3,3 0,1.65093 1.34907,3 3,3 1.65093,0 3,-1.34907 3,-3 0,-1.65093 -1.34907,-3 -3,-3 z m 0,1 c 1.11049,0 2,0.88951 2,2 0,1.11049 -0.88951,2 -2,2 -1.11049,0 -2,-0.88951 -2,-2 0,-1.11049 0.88951,-2 2,-2 z"
         id="path316-8" />
      <path
         style="color:#000000;fill:#ffffff;stroke-linecap:round;stroke-linejoin:round;-inkscape-stroke:none"
         d="m 350.83747,75.46402 a 5,5 0 0 1 -5,5 5,5 0 0 1 -5,-5 5,5 0 0 1 5,-5 5,5 0 0 1 5,5 z"
         id="path320-7" />
      <path
         style="color:#000000;fill:#394e6f;stroke-linecap:round;stroke-linejoin:round;-inkscape-stroke:none"
         d="m 345.83747,69.96402 c -3.03164,0 -5.5,2.46836 -5.5,5.5 0,3.03164 2.46836,5.5 5.5,5.5 3.03164,0 5.5,-2.46836 5.5,-5.5 0,-3.03164 -2.46836,-5.5 -5.5,-5.5 z m 0,1 c 2.4912,0 4.5,2.0088 4.5,4.5 0,2.4912 -2.0088,4.5 -4.5,4.5 -2.4912,0 -4.5,-2.0088 -4.5,-4.5 0,-2.4912 2.0088,-4.5 4.5,-4.5 z"
         id="path322-1" />
      <path
         style="color:#000000;fill:#ffffff;stroke-linecap:round;stroke-linejoin:round;-inkscape-stroke:none"
         d="m 331.83747,75.96402 a 4.5,4.5 0 0 1 -4.5,4.5 4.5,4.5 0 0 1 -4.5,-4.5 4.5,4.5 0 0 1 4.5,-4.5 4.5,4.5 0 0 1 4.5,4.5 z"
         id="path326-7" />
      <path
         style="color:#000000;fill:#394e6f;stroke-linecap:round;stroke-linejoin:round;-inkscape-stroke:none"
         d="m 327.33747,70.96402 c -2.7555,0 -5,2.2445 -5,5 0,2.7555 2.2445,5 5,5 2.7555,0 5,-2.2445 5,-5 0,-2.7555 -2.2445,-5 -5,-5 z m 0,1 c 2.21506,0 4,1.78494 4,4 0,2.21506 -1.78494,4 -4,4 -2.21506,0 -4,-1.78494 -4,-4 0,-2.21506 1.78494,-4 4,-4 z"
         id="path328-2" />
      <path
         style="color:#000000;fill:#ffffff;stroke-linecap:round;stroke-linejoin:round;-inkscape-stroke:none"
         d="m 334.83747,66.46402 a 3,3 0 0 1 -3,3 3,3 0 0 1 -3,-3 3,3 0 0 1 3,-3 3,3 0 0 1 3,3 z"
         id="path332-7" />
      <path
         style="color:#000000;fill:#394e6f;stroke-linecap:round;stroke-linejoin:round;-inkscape-stroke:none"
         d="m 331.83747,62.96402 c -1.92707,0 -3.5,1.57293 -3.5,3.5 0,1.92707 1.57293,3.5 3.5,3.5 1.92707,0 3.5,-1.57293 3.5,-3.5 0,-1.92707 -1.57293,-3.5 -3.5,-3.5 z m 0,1 c 1.38663,0 2.5,1.11337 2.5,2.5 0,1.38663 -1.11337,2.5 -2.5,2.5 -1.38663,0 -2.5,-1.11337 -2.5,-2.5 0,-1.38663 1.11337,-2.5 2.5,-2.5 z"
         id="path334-2" />
      <path
         style="color:#000000;fill:#ffffff;stroke-linecap:round;stroke-linejoin:round;-inkscape-stroke:none"
         d="m 337.83747,71.96402 a 5.5,5.5 0 0 1 -5.5,5.5 5.5,5.5 0 0 1 -5.5,-5.5 5.5,5.5 0 0 1 5.5,-5.5 5.5,5.5 0 0 1 5.5,5.5 z"
         id="path338-2" />
      <path
         style="color:#000000;fill:#394e6f;stroke-linecap:round;stroke-linejoin:round;-inkscape-stroke:none"
         d="m 332.33747,65.96402 c -3.30778,0 -6,2.69222 -6,6 0,3.30778 2.69222,6 6,6 3.30778,0 6,-2.69222 6,-6 0,-3.30778 -2.69222,-6 -6,-6 z m 0,1 c 2.76734,0 5,2.23266 5,5 0,2.76734 -2.23266,5 -5,5 -2.76734,0 -5,-2.23266 -5,-5 0,-2.76734 2.23266,-5 5,-5 z"
         id="path340-6" />
      <path
         style="color:#000000;fill:#ffffff;stroke-linecap:round;stroke-linejoin:round;-inkscape-stroke:none"
         d="m 334.33747,77.96402 a 2.5,2.5 0 0 1 -2.5,2.5 2.5,2.5 0 0 1 -2.5,-2.5 2.5,2.5 0 0 1 2.5,-2.5 2.5,2.5 0 0 1 2.5,2.5 z"
         id="path344-1" />
      <path
         style="color:#000000;fill:#394e6f;stroke-linecap:round;stroke-linejoin:round;-inkscape-stroke:none"
         d="m 331.83747,74.96402 c -1.65093,0 -3,1.34907 -3,3 0,1.65093 1.34907,3 3,3 1.65093,0 3,-1.34907 3,-3 0,-1.65093 -1.34907,-3 -3,-3 z m 0,1 c 1.11049,0 2,0.88951 2,2 0,1.11049 -0.88951,2 -2,2 -1.11049,0 -2,-0.88951 -2,-2 0,-1.11049 0.88951,-2 2,-2 z"
         id="path346-0" />
      <path
         style="color:#000000;fill:#ffffff;stroke-linecap:round;stroke-linejoin:round;-inkscape-stroke:none"
         d="m 341.83747,67.46402 a 5,5 0 0 1 -5,5 5,5 0 0 1 -5,-5 5,5 0 0 1 5,-5 5,5 0 0 1 5,5 z"
         id="path350-6" />
      <path
         style="color:#000000;fill:#394e6f;stroke-linecap:round;stroke-linejoin:round;-inkscape-stroke:none"
         d="m 336.83747,61.96402 c -3.03164,0 -5.5,2.46836 -5.5,5.5 0,3.03164 2.46836,5.5 5.5,5.5 3.03164,0 5.5,-2.46836 5.5,-5.5 0,-3.03164 -2.46836,-5.5 -5.5,-5.5 z m 0,1 c 2.4912,0 4.5,2.0088 4.5,4.5 0,2.4912 -2.0088,4.5 -4.5,4.5 -2.4912,0 -4.5,-2.0088 -4.5,-4.5 0,-2.4912 2.0088,-4.5 4.5,-4.5 z"
         id="path352-1" />
      <path
         style="color:#000000;fill:#ffffff;stroke-linecap:round;stroke-linejoin:round;-inkscape-stroke:none"
         d="m 344.83347,73.96602 a 6.4980001,6.4980001 0 0 1 -6.498,6.498 6.4980001,6.4980001 0 0 1 -6.498,-6.498 6.4980001,6.4980001 0 0 1 6.498,-6.498 6.4980001,6.4980001 0 0 1 6.498,6.498 z"
         id="path356-5" />
      <path
         style="color:#000000;fill:#394e6f;stroke-linecap:round;stroke-linejoin:round;-inkscape-stroke:none"
         d="m 338.33552,66.96793 c -3.85897,0 -6.99805,3.13908 -6.99805,6.99804 0,3.85897 3.13908,6.99805 6.99805,6.99805 3.85896,0 6.99804,-3.13908 6.99804,-6.99805 0,-3.85896 -3.13908,-6.99804 -6.99804,-6.99804 z m 0,1 c 3.31852,0 5.99804,2.67952 5.99804,5.99804 0,3.31853 -2.67952,5.99805 -5.99804,5.99805 -3.31853,0 -5.99805,-2.67952 -5.99805,-5.99805 0,-3.31852 2.67952,-5.99804 5.99805,-5.99804 z"
         id="path358-9" />
    </g>
    <g
       id="g23606"
       transform="matrix(4,0,0,4,-1136,-532)">
      <path
         style="color:#000000;fill:#ffffff;stroke-width:1;stroke-linecap:round;stroke-linejoin:round;-inkscape-stroke:none"
         d="m 331.5,169 a 6.5,6.5 0 0 1 -6.5,6.5 6.5,6.5 0 0 1 -6.5,-6.5 6.5,6.5 0 0 1 6.5,-6.5 6.5,6.5 0 0 1 6.5,6.5 z"
         id="path6161-8-9" />
      <path
         style="color:#000000;fill:#394e6f;stroke-width:2;stroke-linecap:round;stroke-linejoin:round;-inkscape-stroke:none"
         d="m 325,162 c -3.86007,0 -7,3.13993 -7,7 0,3.86007 3.13993,7 7,7 3.86007,0 7,-3.13993 7,-7 0,-3.86007 -3.13993,-7 -7,-7 z m 0,1 c 3.31963,0 6,2.68037 6,6 0,3.31963 -2.68037,6 -6,6 -3.31963,0 -6,-2.68037 -6,-6 0,-3.31963 2.68037,-6 6,-6 z"
         id="path6163-6-0" />
      <path
         style="color:#000000;fill:#ffffff;stroke-width:1;stroke-linecap:round;stroke-linejoin:round;-inkscape-stroke:none"
         d="m 343.5,182 a 3.5,3.5 0 0 1 -3.5,3.5 3.5,3.5 0 0 1 -3.5,-3.5 3.5,3.5 0 0 1 3.5,-3.5 3.5,3.5 0 0 1 3.5,3.5 z"
         id="path6167-8-9" />
      <path
         style="color:#000000;fill:#394e6f;stroke-width:2;stroke-linecap:round;stroke-linejoin:round;-inkscape-stroke:none"
         d="m 340,178 c -2.20321,0 -4,1.79679 -4,4 0,2.20321 1.79679,4 4,4 2.20321,0 4,-1.79679 4,-4 0,-2.20321 -1.79679,-4 -4,-4 z m 0,1 c 1.66277,0 3,1.33723 3,3 0,1.66277 -1.33723,3 -3,3 -1.66277,0 -3,-1.33723 -3,-3 0,-1.66277 1.33723,-3 3,-3 z"
         id="path6169-8-1" />
      <path
         style="color:#000000;fill:#ffffff;stroke-width:1;stroke-linecap:round;stroke-linejoin:round;-inkscape-stroke:none"
         d="m 339.5,178 a 7.5,7.5 0 0 1 -7.5,7.5 7.5,7.5 0 0 1 -7.5,-7.5 7.5,7.5 0 0 1 7.5,-7.5 7.5,7.5 0 0 1 7.5,7.5 z"
         id="path6173-4-7" />
      <path
         style="color:#000000;fill:#394e6f;stroke-width:2;stroke-linecap:round;stroke-linejoin:round;-inkscape-stroke:none"
         d="m 332,170 c -4.41235,0 -8,3.58765 -8,8 0,4.41235 3.58765,8 8,8 4.41235,0 8,-3.58765 8,-8 0,-4.41235 -3.58765,-8 -8,-8 z m 0,1 c 3.87191,0 7,3.12809 7,7 0,3.87191 -3.12809,7 -7,7 -3.87191,0 -7,-3.12809 -7,-7 0,-3.87191 3.12809,-7 7,-7 z"
         id="path6175-3-7" />
      <path
         style="color:#000000;fill:#ffffff;stroke-width:1;stroke-linecap:round;stroke-linejoin:round;-inkscape-stroke:none"
         d="m 309.5,179 a 6.5,6.5 0 0 1 -6.5,6.5 6.5,6.5 0 0 1 -6.5,-6.5 6.5,6.5 0 0 1 6.5,-6.5 6.5,6.5 0 0 1 6.5,6.5 z"
         id="path6179-1-1" />
      <path
         style="color:#000000;fill:#394e6f;stroke-width:2;stroke-linecap:round;stroke-linejoin:round;-inkscape-stroke:none"
         d="m 303,172 c -3.86007,0 -7,3.13993 -7,7 0,3.86007 3.13993,7 7,7 3.86007,0 7,-3.13993 7,-7 0,-3.86007 -3.13993,-7 -7,-7 z m 0,1 c 3.31963,0 6,2.68037 6,6 0,3.31963 -2.68037,6 -6,6 -3.31963,0 -6,-2.68037 -6,-6 0,-3.31963 2.68037,-6 6,-6 z"
         id="path6181-4-1" />
      <path
         style="color:#000000;fill:#ffffff;stroke-width:1;stroke-linecap:round;stroke-linejoin:round;-inkscape-stroke:none"
         d="m 312.5,166 a 3.5,3.5 0 0 1 -3.5,3.5 3.5,3.5 0 0 1 -3.5,-3.5 3.5,3.5 0 0 1 3.5,-3.5 3.5,3.5 0 0 1 3.5,3.5 z"
         id="path6185-9-5" />
      <path
         style="color:#000000;fill:#394e6f;stroke-width:2;stroke-linecap:round;stroke-linejoin:round;-inkscape-stroke:none"
         d="m 309,162 c -2.20321,0 -4,1.79679 -4,4 0,2.20321 1.79679,4 4,4 2.20322,0 4,-1.79679 4,-4 0,-2.20321 -1.79678,-4 -4,-4 z m 0,1 c 1.66278,0 3,1.33723 3,3 0,1.66277 -1.33722,3 -3,3 -1.66277,0 -3,-1.33723 -3,-3 0,-1.66277 1.33723,-3 3,-3 z"
         id="path6187-2-9" />
      <path
         style="color:#000000;fill:#ffffff;stroke-width:1;stroke-linecap:round;stroke-linejoin:round;-inkscape-stroke:none"
         d="m 317.5,174 a 7.5,7.5 0 0 1 -7.5,7.5 7.5,7.5 0 0 1 -7.5,-7.5 7.5,7.5 0 0 1 7.5,-7.5 7.5,7.5 0 0 1 7.5,7.5 z"
         id="path6191-0-7" />
      <path
         style="color:#000000;fill:#394e6f;stroke-width:2;stroke-linecap:round;stroke-linejoin:round;-inkscape-stroke:none"
         d="m 310,166 c -4.41235,0 -8,3.58765 -8,8 0,4.41235 3.58765,8 8,8 4.41235,0 8,-3.58765 8,-8 0,-4.41235 -3.58765,-8 -8,-8 z m 0,1 c 3.87191,0 7,3.12809 7,7 0,3.87191 -3.12809,7 -7,7 -3.87191,0 -7,-3.12809 -7,-7 0,-3.87191 3.12809,-7 7,-7 z"
         id="path6193-6-7" />
      <path
         style="color:#000000;fill:#ffffff;stroke-width:1;stroke-linecap:round;stroke-linejoin:round;-inkscape-stroke:none"
         d="m 313.5,182 a 3.5,3.5 0 0 1 -3.5,3.5 3.5,3.5 0 0 1 -3.5,-3.5 3.5,3.5 0 0 1 3.5,-3.5 3.5,3.5 0 0 1 3.5,3.5 z"
         id="path6197-8-6" />
      <path
         style="color:#000000;fill:#394e6f;stroke-width:2;stroke-linecap:round;stroke-linejoin:round;-inkscape-stroke:none"
         d="m 310,178 c -2.20321,0 -4,1.79679 -4,4 0,2.20321 1.79679,4 4,4 2.20322,0 4,-1.79679 4,-4 0,-2.20321 -1.79678,-4 -4,-4 z m 0,1 c 1.66278,0 3,1.33723 3,3 0,1.66277 -1.33722,3 -3,3 -1.66277,0 -3,-1.33723 -3,-3 0,-1.66277 1.33723,-3 3,-3 z"
         id="path6199-9-7" />
      <path
         style="color:#000000;fill:#ffffff;stroke-width:1;stroke-linecap:round;stroke-linejoin:round;-inkscape-stroke:none"
         d="m 323.5,165 a 6.5,6.5 0 0 1 -6.5,6.5 6.5,6.5 0 0 1 -6.5,-6.5 6.5,6.5 0 0 1 6.5,-6.5 6.5,6.5 0 0 1 6.5,6.5 z"
         id="path6203-2-3" />
      <path
         style="color:#000000;fill:#394e6f;stroke-width:2;stroke-linecap:round;stroke-linejoin:round;-inkscape-stroke:none"
         d="m 317,158 c -3.86007,0 -7,3.13993 -7,7 0,3.86007 3.13993,7 7,7 3.86007,0 7,-3.13993 7,-7 0,-3.86007 -3.13993,-7 -7,-7 z m 0,1 c 3.31963,0 6,2.68037 6,6 0,3.31963 -2.68037,6 -6,6 -3.31963,0 -6,-2.68037 -6,-6 0,-3.31963 2.68037,-6 6,-6 z"
         id="path6205-6-6" />
      <path
         style="color:#000000;fill:#ffffff;stroke-width:1;stroke-linecap:round;stroke-linejoin:round;-inkscape-stroke:none"
         d="m 329.5,176 a 9.5,9.5 0 0 1 -9.5,9.5 9.5,9.5 0 0 1 -9.5,-9.5 9.5,9.5 0 0 1 9.5,-9.5 9.5,9.5 0 0 1 9.5,9.5 z"
         id="path6209-6-5" />
      <path
         style="color:#000000;fill:#394e6f;stroke-width:2;stroke-linecap:round;stroke-linejoin:round;-inkscape-stroke:none"
         d="m 320,166 c -5.51692,0 -10,4.48308 -10,10 0,5.51692 4.48308,10 10,10 5.51692,0 10,-4.48308 10,-10 0,-5.51692 -4.48308,-10 -10,-10 z m 0,1 c 4.97648,0 9,4.02352 9,9 0,4.97648 -4.02352,9 -9,9 -4.97648,0 -9,-4.02352 -9,-9 0,-4.97648 4.02352,-9 9,-9 z"
         id="path6211-4-6" />
    </g>
  </g>
  <g
     id="Highlights">
    <path
       id="rect653"
       style="opacity:0.2;fill:#ffffff"
       d="M 80,44 C 53.408027,44 32,65.408027 32,92 v 2 C 32,67.408027 53.408027,46 80,46 h 128 c 26.59197,0 48,21.408027 48,48 V 92 C 256,65.408027 234.59197,44 208,44 Z"
       sodipodi:nodetypes="sscsscsss" />
    <path
       id="rect773"
       style="opacity:0.2;fill:#ffffff"
       d="m 312,34 c -9.97199,0 -18,8.02801 -18,18 v 1 c 0,-9.97199 8.02801,-18 18,-18 h 48 c 9.97199,0 18,8.02801 18,18 v -1 c 0,-9.97199 -8.02801,-18 -18,-18 z" />
    <path
       id="rect1135"
       style="opacity:0.2;fill:#ffffff;fill-opacity:1"
       d="m 304,144 c -6.64799,0 -12,5.35201 -12,12 v 1 c 0,-6.64799 5.35201,-12 12,-12 h 32 c 6.64799,0 12,5.35201 12,12 v -1 c 0,-6.64799 -5.35201,-12 -12,-12 z" />
    <path
       id="rect1265"
       style="opacity:0.2;fill:#ffffff;fill-opacity:1"
       d="m 300,223 c -4.986,0 -9,4.014 -9,9 v 1 c 0,-4.986 4.014,-9 9,-9 h 24 c 4.986,0 9,4.014 9,9 v -1 c 0,-4.986 -4.014,-9 -9,-9 z" />
    <path
       id="rect1368"
       style="opacity:0.2;fill:#ffffff;fill-opacity:1"
       d="m 424,54 c -3.324,0 -6,2.676003 -6,6 v 1 c 0,-3.323997 2.676,-6 6,-6 h 16 c 3.324,0 6,2.676003 6,6 v -1 c 0,-3.323997 -2.676,-6 -6,-6 z" />
    <path
       id="rect1402"
       style="opacity:0.2;fill:#ffffff;fill-opacity:1"
       d="m 420,140 c -2.216,0 -4,1.784 -4,4 v 1 c 0,-2.216 1.784,-4 4,-4 h 8 c 2.216,0 4,1.784 4,4 v -1 c 0,-2.216 -1.784,-4 -4,-4 z" />
    <path
       id="rect1436"
       style="opacity:0.2;fill:#ffffff;fill-opacity:1"
       d="m 422,102 c -2.216,0 -4,1.784 -4,4 v 1 c 0,-2.216 1.784,-4 4,-4 h 12 c 2.216,0 4,1.784 4,4 v -1 c 0,-2.216 -1.784,-4 -4,-4 z" />
  </g>
</svg>
