<?xml version="1.0" encoding="UTF-8" standalone="no"?>
<!-- Created with Inkscape (http://www.inkscape.org/) -->

<svg
   width="480"
   height="300"
   viewBox="0 0 480 300"
   version="1.1"
   id="svg5"
   inkscape:version="1.2.2 (1:1.2.2+202305151914+b0a8486541)"
   sodipodi:docname="plank.svg"
   xmlns:inkscape="http://www.inkscape.org/namespaces/inkscape"
   xmlns:sodipodi="http://sodipodi.sourceforge.net/DTD/sodipodi-0.dtd"
   xmlns="http://www.w3.org/2000/svg"
   xmlns:svg="http://www.w3.org/2000/svg">
  <sodipodi:namedview
     id="namedview7"
     pagecolor="#888888"
     bordercolor="#000000"
     borderopacity="0.25"
     inkscape:showpageshadow="true"
     inkscape:pageopacity="0"
     inkscape:pagecheckerboard="0"
     inkscape:deskcolor="#888888"
     inkscape:document-units="px"
     showgrid="false"
     showborder="false"
     inkscape:zoom="2.6866667"
     inkscape:cx="240.07444"
     inkscape:cy="150"
     inkscape:window-width="1920"
     inkscape:window-height="1008"
     inkscape:window-x="0"
     inkscape:window-y="0"
     inkscape:window-maximized="1"
     inkscape:current-layer="svg5" />
  <defs
     id="defs2" />
  <g
     id="Baseplate"
     style="display:none">
    <text
       y="19.774782"
       xml:space="preserve"
       x="15.006946"
       style="font-style:normal;font-variant:normal;font-weight:normal;font-stretch:normal;line-height:0%;font-family:'DejaVu Sans';-inkscape-font-specification:'DejaVu Sans';display:inline;fill:#000000;fill-opacity:1;stroke:none;enable-background:new"
       inkscape:label="context"
       id="context"><tspan
         style="font-style:normal;font-variant:normal;font-weight:normal;font-stretch:normal;font-size:18px;line-height:1.25;font-family:'DejaVu Sans';-inkscape-font-specification:'DejaVu Sans'"
         y="19.774782"
         x="15.006946"
         sodipodi:role="line"
         id="tspan3933">apps</tspan></text>
    <text
       y="19.774782"
       xml:space="preserve"
       x="122.48839"
       style="font-style:normal;font-variant:normal;font-weight:bold;font-stretch:normal;line-height:0%;font-family:'DejaVu Sans';-inkscape-font-specification:'DejaVu Sans Bold';text-align:start;writing-mode:lr-tb;text-anchor:start;display:inline;fill:#000000;fill-opacity:1;stroke:none;enable-background:new"
       inkscape:label="icon-name"
       id="icon-name"><tspan
         style="font-style:normal;font-variant:normal;font-weight:bold;font-stretch:normal;font-size:18px;line-height:1.25;font-family:'DejaVu Sans';-inkscape-font-specification:'DejaVu Sans Bold'"
         y="19.774782"
         x="122.48839"
         sodipodi:role="line"
         id="tspan3937">plank</tspan></text>
    <rect
       style="fill:#ffffff"
       id="256x256"
       width="256"
       height="256"
       x="16"
       y="28" />
    <rect
       style="fill:#ffffff"
       id="96x96"
       width="96"
       height="96"
       x="288"
       y="28" />
    <rect
       style="fill:#ffffff"
       id="64x64"
       width="64"
       height="64"
       x="288"
       y="140" />
    <rect
       style="fill:#ffffff"
       id="48x48"
       width="48"
       height="48"
       x="288"
       y="220" />
    <rect
       style="fill:#ffffff"
       id="32x32"
       width="32"
       height="32"
       x="416"
       y="52" />
    <rect
       style="fill:#ffffff"
       id="24x24"
       width="24"
       height="24"
       x="416"
       y="100" />
    <rect
       style="fill:#ffffff"
       id="22x22"
       width="22"
       height="22"
       x="417"
       y="101" />
    <rect
       style="fill:#ffffff"
       id="16x16"
       width="16"
       height="16"
       x="416"
       y="140" />
  </g>
  <g
     id="Shadow">
    <rect
       style="opacity:0.2;fill:#000000"
       id="rect651"
       width="224"
       height="224"
       x="32"
       y="46"
       ry="48" />
    <rect
       style="opacity:0.2;fill:#000000"
       id="rect769"
       width="84"
       height="85"
       x="294"
       y="34"
       ry="18" />
    <rect
       style="opacity:0.2;fill:#000000;fill-opacity:1"
       id="rect1131"
       width="56"
       height="56"
       x="292"
       y="145"
       ry="12" />
    <rect
       style="opacity:0.2;fill:#000000;fill-opacity:1"
       id="rect1261"
       width="42"
       height="42"
       x="291"
       y="224"
       ry="9" />
    <rect
       style="opacity:0.2;fill:#000000;fill-opacity:1"
       id="rect1364"
       width="28"
       height="29"
       x="418"
       y="54"
       ry="6" />
    <rect
       style="opacity:0.2;fill:#000000;fill-opacity:1"
       id="rect1398"
       width="16"
       height="16"
       x="416"
       y="141"
       ry="4" />
    <rect
       style="opacity:0.2;fill:#000000;fill-opacity:1"
       id="rect1432"
       width="20"
       height="20"
       x="418"
       y="103"
       ry="4" />
  </g>
  <g
     id="Background">
    <rect
       style="fill:#3c94e7;fill-opacity:1"
       id="rect597"
       width="224"
       height="224"
       x="32"
       y="44"
       ry="48" />
    <rect
       style="opacity:1;fill:#3c94e7;fill-opacity:1"
       id="rect771"
       width="84"
       height="84"
       x="294"
       y="34"
       ry="18" />
    <rect
       style="opacity:1;fill:#3c94e7;fill-opacity:1"
       id="rect1133"
       width="56"
       height="56"
       x="292"
       y="144"
       ry="12" />
    <rect
       style="opacity:1;fill:#3c94e7;fill-opacity:1"
       id="rect1263"
       width="42"
       height="42"
       x="291"
       y="223"
       ry="9" />
    <rect
       style="opacity:1;fill:#3c94e7;fill-opacity:1"
       id="rect1366"
       width="28"
       height="28"
       x="418"
       y="54"
       ry="6" />
    <rect
       style="opacity:1;fill:#3c94e7;fill-opacity:1"
       id="rect1400"
       width="16"
       height="16"
       x="416"
       y="140"
       ry="4" />
    <rect
       style="opacity:1;fill:#3c94e7;fill-opacity:1"
       id="rect1434"
       width="20"
       height="20"
       x="418"
       y="102"
       ry="4" />
  </g>
  <g
     id="g4329">
    <g
       id="g4159">
      <path
         d="m 423.49936,144.518 c -0.60247,0 -1.09091,0.48844 -1.09091,1.09091 3.5e-4,0.462 0.29169,0.87371 0.72728,1.02771 v 0.89009 h -1.13615 v 0.72728 h 1.13615 v 2.80954 c 0,0.36364 -0.50088,0.57902 -0.74037,0.54764 -1.07349,-0.14069 -2.04453,-0.37204 -2.54576,-0.83669 l 0.73556,0.0369 -0.62713,-0.58451 -0.62712,-0.58451 c -0.23673,0.53563 -0.26473,1.06763 -0.29491,1.64 l 0.38851,-0.38284 c 0.18691,0.76982 2.83485,1.25491 3.19485,1.57164 l 0.88,0.77418 0.87927,-0.77346 c 0.36073,-0.31745 3.00895,-0.804 3.19295,-1.57454 l 0.39127,0.38509 c 0,-0.58255 -0.12691,-1.09273 -0.29491,-1.64 l -0.62691,0.58436 -0.53272,0.58473 0.64254,-0.0371 c -0.5,0.46291 -1.46749,0.69564 -2.53694,0.83673 -0.24255,0.032 -0.75091,-0.184 -0.75091,-0.54764 v -2.80954 h 1.13658 v -0.72728 H 423.863 v -0.89074 c 0.43527,-0.15382 0.72654,-0.56509 0.72727,-1.02691 0,-0.60255 -0.48836,-1.09091 -1.09091,-1.09091 z m 0,0.72728 c 0.20083,0 0.36364,0.1628 0.36364,0.36363 0,0.20084 -0.16281,0.36364 -0.36364,0.36364 -0.20083,0 -0.36363,-0.1628 -0.36363,-0.36364 0,-0.20083 0.1628,-0.36363 0.36363,-0.36363 z"
         style="opacity:0.2;fill:#000000"
         id="path2299" />
      <path
         d="m 423.49936,144.018 c -0.60247,0 -1.09091,0.48844 -1.09091,1.09091 3.5e-4,0.462 0.29169,0.87371 0.72728,1.02771 v 0.89009 h -1.13615 v 0.72728 h 1.13615 v 2.80954 c 0,0.36364 -0.50088,0.57902 -0.74037,0.54764 -1.07349,-0.14069 -2.04453,-0.37204 -2.54576,-0.83669 l 0.73556,0.0369 -0.62713,-0.58451 -0.62712,-0.58451 c -0.23673,0.53563 -0.26473,1.06763 -0.29491,1.64 l 0.38851,-0.38284 c 0.18691,0.76982 2.83485,1.25491 3.19485,1.57164 l 0.88,0.77418 0.87927,-0.77346 c 0.36073,-0.31745 3.00895,-0.804 3.19295,-1.57454 l 0.39127,0.38509 c 0,-0.58255 -0.12691,-1.09273 -0.29491,-1.64 l -0.62691,0.58436 -0.53272,0.58473 0.64254,-0.0371 c -0.5,0.46291 -1.46749,0.69564 -2.53694,0.83673 -0.24255,0.032 -0.75091,-0.184 -0.75091,-0.54764 v -2.80954 h 1.13658 v -0.72728 H 423.863 v -0.89074 c 0.43527,-0.15382 0.72654,-0.56509 0.72727,-1.02691 0,-0.60255 -0.48836,-1.09091 -1.09091,-1.09091 z m 0,0.72728 c 0.20083,0 0.36364,0.1628 0.36364,0.36363 0,0.20084 -0.16281,0.36364 -0.36364,0.36364 -0.20083,0 -0.36363,-0.1628 -0.36363,-0.36364 0,-0.20083 0.1628,-0.36363 0.36363,-0.36363 z"
         style="opacity:1;fill:#235583;fill-opacity:1"
         id="path1545"
         sodipodi:nodetypes="cccccccssccccccsccccccccssccccccccsssss" />
    </g>
    <g
       id="g4155">
      <path
         d="m 427.5,105.5 c -1.10457,0 -2,0.89543 -2,2 10e-4,0.91092 0.61801,1.70586 1.5,1.93359 V 111.5 h -3 v 1 h 3 v 4 c 0,0.5 -0.68828,0.79706 -1.01758,0.75391 -1.47605,-0.19345 -3.67408,-0.51151 -4.36328,-1.15039 l 1.01172,0.0508 -0.86328,-0.80469 -0.86133,-0.80273 c -0.3255,0.73649 -0.36475,1.46691 -0.40625,2.2539 l 0.53516,-0.52539 c 0.257,1.0585 4.76085,1.72467 5.25586,2.16016 L 427.5,119.5 l 1.20898,-1.0625 c 0.496,-0.4365 5.00091,-1.10652 5.25391,-2.16602 l 0.53711,0.5293 c 0,-0.801 -0.17525,-1.50142 -0.40625,-2.2539 l -0.86133,0.80273 -0.73242,0.80469 0.88281,-0.0508 c -0.6875,0.63648 -2.87911,0.95639 -4.34961,1.15039 C 428.6997,117.29789 428,117 428,116.5 v -4 h 3 v -1 h -3 v -2.06641 c 0.88199,-0.22773 1.49868,-1.02267 1.5,-1.93359 0,-1.10457 -0.89543,-2 -2,-2 z m 0,1 c 0.55228,0 1,0.44772 1,1 0,0.55228 -0.44772,1 -1,1 -0.55228,0 -1,-0.44772 -1,-1 0,-0.55228 0.44772,-1 1,-1 z"
         style="fill:#000000;fill-opacity:1;opacity:0.2"
         id="path3279" />
      <path
         id="path2890"
         style="opacity:1;fill:#235583;fill-opacity:1"
         d="m 427.5,105 c -1.10457,0 -2,0.89543 -2,2 0.001,0.91092 0.61801,1.70586 1.5,1.93359 V 111 h -3 v 1 h 3 v 4 c 0,0.5 -0.68828,0.79706 -1.01758,0.75391 -1.47605,-0.19345 -3.67408,-0.51151 -4.36328,-1.15039 l 1.01172,0.0508 -0.86328,-0.80469 -0.86133,-0.80273 c -0.3255,0.73649 -0.36475,1.46691 -0.40625,2.2539 l 0.53516,-0.52539 c 0.257,1.0585 4.76085,1.72467 5.25586,2.16016 L 427.5,119 l 1.20898,-1.0625 c 0.496,-0.4365 5.00091,-1.10652 5.25391,-2.16602 l 0.53711,0.5293 c 0,-0.801 -0.17525,-1.50142 -0.40625,-2.2539 l -0.86133,0.80273 -0.73242,0.80469 0.88281,-0.0508 c -0.6875,0.63648 -2.87911,0.95639 -4.34961,1.15039 C 428.6997,116.79791 428,116.5 428,116 v -4 h 3 v -1 h -3 v -2.06641 c 0.88199,-0.22773 1.49868,-1.02267 1.5,-1.93359 0,-1.10457 -0.89543,-2 -2,-2 z m 0,1 c 0.55228,0 1,0.44772 1,1 0,0.55228 -0.44772,1 -1,1 -0.55228,0 -1,-0.44772 -1,-1 0,-0.55228 0.44772,-1 1,-1 z"
         sodipodi:nodetypes="sccccccsscccccccccccccccssccccccssssss" />
    </g>
    <g
       id="g4151">
      <path
         d="m 432,59 c -1.6569,0 -3,1.3431 -3,3 0.002,1.2698 0.80282,2.401 2,2.8242 v 2.175695 h -3.9995 v 2 H 431 v 5.5001 c 0,0.75 -0.78343,0.56472 -1.2773,0.5 -2.2141,-0.29018 -4.665,-0.493115 -5.6988,-1.451495 l 1.1706,-0.069 -1.2927,-1.207 -1.2949,-1.27255 c -0.488,1.105 -0.5451,2.27055 -0.6074,3.45055 l 0.80078,-0.78906 c 0.38491,1.5879 6.6426,3.089115 7.3853,3.742415 l 1.814,1.596001 1.814,-1.596001 c 0.74438,-0.65482 6.99953,-2.156855 7.37863,-3.746455 l 0.807,0.793 c 0,-1.2012 -0.26103,-2.32115 -0.60742,-3.45035 l -1.295,1.27255 -1.098,1.207 0.97955,0.06825 c -1.032,0.956 -3.47573,1.161355 -5.68073,1.452355 -0.501,0.066 -1.299,0.25 -1.299,-0.5 v -5.5001 h 4.00089 v -2 h -4.00089 V 64.82661 C 434.19661,64.40361 434.999,63.271 435,62 c 0,-1.6569 -1.343,-3 -3,-3 z m 0,2 c 0.55228,0 1,0.4477 1,1 0,0.5523 -0.44772,1 -1,1 -0.55228,0 -1,-0.4477 -1,-1 0,-0.5523 0.44772,-1 1,-1 z"
         style="opacity:0.2;fill:#000000;fill-opacity:1"
         id="path4069"
         sodipodi:nodetypes="sccccccssccccccccccccccccsccccccssssss" />
      <path
         d="m 432,58 c -1.6569,0 -3,1.3431 -3,3 0.002,1.2698 0.80282,2.401 2,2.8242 v 2.175695 h -3.9995 v 2 H 431 v 5.5001 c 0,0.75 -0.78343,0.56472 -1.2773,0.5 -2.2141,-0.29018 -4.665,-0.493115 -5.6988,-1.451495 l 1.1706,-0.069 -1.2927,-1.207 -1.2949,-1.27255 c -0.488,1.105 -0.5451,2.27055 -0.6074,3.45055 l 0.80078,-0.78906 c 0.38491,1.5879 6.6426,3.089115 7.3853,3.742415 l 1.814,1.596 1.814,-1.596 c 0.74438,-0.65482 6.99953,-2.156855 7.37863,-3.746455 l 0.807,0.793 c 0,-1.2012 -0.26103,-2.32115 -0.60742,-3.45035 l -1.295,1.27255 -1.098,1.207 0.97955,0.06825 c -1.032,0.956 -3.47573,1.161355 -5.68073,1.452355 -0.501,0.066 -1.299,0.25 -1.299,-0.5 v -5.5001 h 4.00089 v -2 h -4.00089 V 63.82661 C 434.19661,63.40361 434.999,62.271 435,61 c 0,-1.6569 -1.343,-3 -3,-3 z m 0,2 c 0.55228,0 1,0.4477 1,1 0,0.5523 -0.44772,1 -1,1 -0.55228,0 -1,-0.4477 -1,-1 0,-0.5523 0.44772,-1 1,-1 z"
         style="opacity:1;fill:#235583;fill-opacity:1"
         id="path3610"
         sodipodi:nodetypes="cccccccssccccccccccccccccscccccccsssss" />
    </g>
    <g
       id="g4543">
      <path
         d="m 312,230 c -2.20914,0 -4,1.79086 -4,4 0,1.86396 1.2746,3.43108 3,3.875 V 240 h -5 v 2 h 5 v 11.00007 c 0,1 -1.37656,1.59216 -2.03516,1.50586 -2.95209,-0.3869 -8.35011,-1.52305 -9.72851,-2.80085 l 2.02344,0.10156 -1.73633,-2.06641 L 297.81055,248 c -0.651,1.473 -0.72755,3.52756 -0.81055,5.10156 l 1.06836,-1.05273 c 0.514,2.117 10.52172,4.95126 11.51172,5.82226 L 312,260 l 2.41797,-2.12695 c 0.992,-0.873 10.99986,-3.71108 11.50586,-5.83008 L 327,253.10156 c 0,-1.602 -0.34855,-3.59656 -0.81055,-5.10156 l -1.84375,1.89062 -1.3457,1.91602 1.76758,-0.10156 c -1.375,1.273 -6.76213,2.41285 -9.70313,2.80085 -0.667,0.088 -2.06445,-0.50586 -2.06445,-1.50586 V 242 h 5 v -2 h -5 v -2.125 c 1.7254,-0.44392 3,-2.01104 3,-3.875 0,-2.20914 -1.79086,-4 -4,-4 z m 0,2 c 1.10457,0 2,0.89543 2,2 0,1.10457 -0.89543,2 -2,2 -1.10457,0 -2,-0.89543 -2,-2 0,-1.10457 0.89543,-2 2,-2 z"
         style="opacity:0.2;fill:#1a1a1a;fill-opacity:1"
         id="path4521"
         sodipodi:nodetypes="sscccccsscccccccccccccccsscccccsssssss" />
      <path
         id="path4310"
         style="opacity:1;fill:#235583;fill-opacity:1"
         d="m 312,229 c -2.20914,0 -4,1.79086 -4,4 0,1.86396 1.2746,3.43108 3,3.875 V 239 h -5 v 2 h 5 v 11.00007 c 0,1 -1.37656,1.59216 -2.03516,1.50586 -2.95209,-0.3869 -8.35011,-1.52305 -9.72851,-2.80085 l 2.02344,0.10156 -1.73633,-2.06641 L 297.81055,247 c -0.651,1.473 -0.72755,3.52756 -0.81055,5.10156 l 1.06836,-1.05273 c 0.514,2.117 10.52172,4.95126 11.51172,5.82226 L 312,259 l 2.41797,-2.12695 c 0.992,-0.873 10.99986,-3.71108 11.50586,-5.83008 L 327,252.10156 c 0,-1.602 -0.34855,-3.59656 -0.81055,-5.10156 l -1.84375,1.89062 -1.3457,1.91602 1.76758,-0.10156 c -1.375,1.273 -6.76213,2.41285 -9.70313,2.80085 -0.667,0.088 -2.06445,-0.50586 -2.06445,-1.50586 V 241 h 5 v -2 h -5 v -2.125 c 1.7254,-0.44392 3,-2.01104 3,-3.875 0,-2.20914 -1.79086,-4 -4,-4 z m 0,2 c 1.10457,0 2,0.89543 2,2 0,1.10457 -0.89543,2 -2,2 -1.10457,0 -2,-0.89543 -2,-2 0,-1.10457 0.89543,-2 2,-2 z"
         sodipodi:nodetypes="sscccccsscccccccccccccccsscccccsssssss" />
    </g>
    <g
       id="g4147">
      <path
         d="m 320,153 c -3.31385,0 -6.00009,2.68624 -6.00009,6.00009 0.004,2.53963 1.60567,4.80207 4.00006,5.64848 v 3.35114 h -7.00009 v 4.00006 h 7.00009 v 12.00066 c 0,1.50002 -1.56688,1.12946 -2.55464,1.00001 -4.42826,-0.58036 -9.33013,-0.98623 -11.39776,-2.90302 l 2.34123,-0.138 -2.58543,-2.41404 -2.58984,-2.54513 c -0.97602,2.21003 -1.09022,4.54116 -1.21482,6.9012 l 1.60158,-1.57814 c 0.76983,3.17584 13.2854,6.1783 14.77082,7.48492 l 3.62805,3.19205 3.62805,-3.19205 c 1.48878,-1.30966 13.99927,-4.31376 14.75748,-7.493 l 1.61402,1.58602 c 0,-2.40244 -0.52207,-4.64237 -1.21486,-6.9008 l -2.59004,2.54513 -2.19603,2.41404 1.95913,0.1366 c -2.06403,1.91203 -6.95156,2.32274 -11.36162,2.90474 C 323.59327,185.13297 322,185.50097 322,184.00095 v -12.00066 h 6.99812 v -4.00006 H 322 v -3.34674 c 2.39603,-0.84601 3.99809,-3.11127 4.00009,-5.6533 0,-3.31385 -2.68604,-6.00009 -6.00009,-6.00009 z m 0,4.00006 c 1.10458,0 2.00003,0.89541 2.00003,2.00003 0,1.10461 -0.89545,2.00003 -2.00003,2.00003 -1.10458,0 -2.00003,-0.89542 -2.00003,-2.00003 0,-1.10462 0.89545,-2.00003 2.00003,-2.00003 z"
         style="opacity:0.2;fill:#000000;fill-opacity:1;stroke-width:2.00003"
         id="path4125"
         sodipodi:nodetypes="cccccccssccccccccccccccccsccccccccsssss" />
      <path
         d="m 320,152 c -3.31385,0 -6.00009,2.68624 -6.00009,6.00009 0.004,2.53963 1.60567,4.80207 4.00006,5.64848 v 3.35114 h -7.00009 v 4.00006 h 7.00009 v 12.00066 c 0,1.50002 -1.56688,1.12946 -2.55464,1.00001 -4.42826,-0.58036 -9.33013,-0.98623 -11.39776,-2.90302 l 2.34123,-0.138 -2.58543,-2.41404 -2.58984,-2.54513 c -0.97602,2.21003 -1.09022,4.54116 -1.21482,6.9012 l 1.60158,-1.57814 c 0.76983,3.17584 13.2854,6.1783 14.77082,7.48492 l 3.62805,3.19205 3.62805,-3.19205 c 1.48878,-1.30966 13.99927,-4.31376 14.75748,-7.493 l 1.61402,1.58602 c 0,-2.40244 -0.52207,-4.64237 -1.21486,-6.9008 l -2.59004,2.54513 -2.19603,2.41404 1.95913,0.1366 c -2.06403,1.91203 -6.95156,2.32274 -11.36162,2.90474 C 323.59327,184.13297 322,184.50097 322,183.00095 v -12.00066 h 6.99812 v -4.00006 H 322 v -3.34674 c 2.39603,-0.84601 3.99809,-3.11127 4.00009,-5.6533 0,-3.31385 -2.68604,-6.00009 -6.00009,-6.00009 z m 0,4.00006 c 1.10458,0 2.00003,0.89541 2.00003,2.00003 0,1.10461 -0.89545,2.00003 -2.00003,2.00003 -1.10458,0 -2.00003,-0.89542 -2.00003,-2.00003 0,-1.10462 0.89545,-2.00003 2.00003,-2.00003 z"
         style="fill:#235583;fill-opacity:1;stroke-width:2.00003"
         id="path4097"
         sodipodi:nodetypes="cccccccssccccccccccccccccsccccccccsssss" />
    </g>
    <g
       id="g4603"
       transform="matrix(2,0,0,2,-288,-412)">
      <path
         d="m 312,229.5 c -2.20914,0 -4,1.79086 -4,4 0,1.86396 1.2746,3.43108 3,3.875 v 2.125 h -5 v 2 h 5 v 11 c 0,1 -1.37656,1.59216 -2.03516,1.50586 -2.95209,-0.3869 -8.35011,-1.52298 -9.72851,-2.80078 l 2.02344,0.10156 -1.73633,-2.06641 -1.71289,-1.74023 c -0.651,1.473 -0.72755,3.52756 -0.81055,5.10156 l 1.06836,-1.05273 c 0.514,2.117 10.52172,4.95126 11.51172,5.82226 L 312,259.5 l 2.41797,-2.12695 c 0.992,-0.873 10.99986,-3.71108 11.50586,-5.83008 L 327,252.60156 c 0,-1.602 -0.34855,-3.59656 -0.81055,-5.10156 l -1.84375,1.89062 -1.3457,1.91602 1.76758,-0.10156 c -1.375,1.273 -6.76213,2.41278 -9.70313,2.80078 C 314.39745,254.09386 313,253.5 313,252.5 v -11 h 5 v -2 h -5 v -2.125 c 1.7254,-0.44392 3,-2.01104 3,-3.875 0,-2.20914 -1.79086,-4 -4,-4 z m 0,2 c 1.10457,0 2,0.89543 2,2 0,1.10457 -0.89543,2 -2,2 -1.10457,0 -2,-0.89543 -2,-2 0,-1.10457 0.89543,-2 2,-2 z"
         style="opacity:0.2;fill:#1a1a1a;fill-opacity:1"
         id="path4553"
         sodipodi:nodetypes="sscccccsccccccccccccccccsscccccsssssss" />
      <path
         d="m 312,229 c -2.20914,0 -4,1.79086 -4,4 0,1.86396 1.2746,3.43108 3,3.875 V 239 h -5 v 2 h 5 v 11 c 0,1 -1.37656,1.59216 -2.03516,1.50586 -2.95209,-0.3869 -8.35011,-1.52298 -9.72851,-2.80078 l 2.02344,0.10156 -1.73633,-2.06641 L 297.81055,247 c -0.651,1.473 -0.72755,3.52756 -0.81055,5.10156 l 1.06836,-1.05273 c 0.514,2.117 10.52172,4.95126 11.51172,5.82226 L 312,259 l 2.41797,-2.12695 c 0.992,-0.873 10.99986,-3.71108 11.50586,-5.83008 L 327,252.10156 c 0,-1.602 -0.34855,-3.59656 -0.81055,-5.10156 l -1.84375,1.89062 -1.3457,1.91602 1.76758,-0.10156 c -1.375,1.273 -6.76213,2.41278 -9.70313,2.80078 C 314.39745,253.59386 313,253 313,252 v -11 h 5 v -2 h -5 v -2.125 c 1.7254,-0.44392 3,-2.01104 3,-3.875 0,-2.20914 -1.79086,-4 -4,-4 z m 0,2 c 1.10457,0 2,0.89543 2,2 0,1.10457 -0.89543,2 -2,2 -1.10457,0 -2,-0.89543 -2,-2 0,-1.10457 0.89543,-2 2,-2 z"
         style="fill:#235583;fill-opacity:1"
         id="path4581"
         sodipodi:nodetypes="sscccccsccccccccccccccccsscccccsssssss" />
    </g>
    <g
       id="g4776"
       transform="matrix(4,0,0,4,-1136,-532)">
      <path
         d="m 320,152.49997 c -3.31372,0 -6,2.68628 -6,6 0,2.79594 1.9119,5.14662 4.5,5.8125 v 2.6875 h -7 v 3 h 7 v 13.5 c 0,1.5 -2.06484,2.38824 -3.05274,2.25878 -4.42816,-0.58034 -10.02518,-2.28446 -12.09278,-4.20116 l 3.03516,0.1524 -2.60448,-3.0996 -2.56934,-2.61036 c -0.9765,2.2095 -1.09132,5.29134 -1.21582,7.65234 l 1.60254,-1.57912 c 0.771,3.1755 13.28258,5.92692 14.76758,7.2334 l 3.62988,3.19338 3.62694,-3.19044 c 1.488,-1.3095 13.9998,-4.06658 14.7588,-7.24512 L 340,183.65237 c 0,-2.403 -0.52284,-5.39484 -1.21584,-7.65234 l -2.7656,2.83594 -2.01856,2.87402 2.65138,-0.1524 c -2.0625,1.9095 -7.64322,3.61916 -12.05472,4.20116 -1.0005,0.13202 -3.09666,-0.75878 -3.09666,-2.25878 v -13.5 h 7 v -3 h -7 v -2.6875 c 2.5881,-0.66588 4.5,-3.01656 4.5,-5.8125 0,-3.31372 -2.68628,-6 -6,-6 z m 0,3 c 1.65684,0 3,1.34312 3,3 0,1.65684 -1.34316,3 -3,3 -1.65688,0 -3,-1.34316 -3,-3 0,-1.65688 1.34312,-3 3,-3 z"
         style="opacity:0.2;fill:#000000;fill-opacity:1;stroke-width:0.1875"
         id="path4924"
         sodipodi:nodetypes="sscccccscccccccccccccccccscccccsssssss" />
      <path
         d="m 320,151.99997 c -3.31372,0 -6,2.68628 -6,6 0,2.79594 1.9119,5.14662 4.5,5.8125 v 2.6875 h -7 v 3 h 7 v 13.5 c 0,1.5 -2.06484,2.38824 -3.05274,2.25878 -4.42816,-0.58034 -10.02518,-2.28446 -12.09278,-4.20116 l 3.03516,0.1524 -2.60448,-3.0996 -2.56934,-2.61036 c -0.9765,2.2095 -1.09132,5.29134 -1.21582,7.65234 l 1.60254,-1.57912 c 0.771,3.1755 13.28258,5.92692 14.76758,7.2334 l 3.62988,3.19338 3.62694,-3.19044 c 1.488,-1.3095 13.9998,-4.06658 14.7588,-7.24512 L 340,183.15237 c 0,-2.403 -0.52284,-5.39484 -1.21584,-7.65234 l -2.7656,2.83594 -2.01856,2.87402 2.65138,-0.1524 c -2.0625,1.9095 -7.64322,3.61916 -12.05472,4.20116 -1.0005,0.13202 -3.09666,-0.75878 -3.09666,-2.25878 v -13.5 h 7 v -3 h -7 v -2.6875 c 2.5881,-0.66588 4.5,-3.01656 4.5,-5.8125 0,-3.31372 -2.68628,-6 -6,-6 z m 0,3 c 1.65684,0 3,1.34312 3,3 0,1.65684 -1.34316,3 -3,3 -1.65688,0 -3,-1.34316 -3,-3 0,-1.65688 1.34312,-3 3,-3 z"
         style="fill:#235583;fill-opacity:1;stroke-width:0.75"
         id="path4892"
         sodipodi:nodetypes="sscccccscccccccccccccccccscccccsssssss" />
    </g>
  </g>
  <g
     id="Highlights">
    <path
       id="rect653"
       style="opacity:0.2;fill:#ffffff"
       d="M 80,44 C 53.408027,44 32,65.408027 32,92 v 2 C 32,67.408027 53.408027,46 80,46 h 128 c 26.59197,0 48,21.408027 48,48 V 92 C 256,65.408027 234.59197,44 208,44 Z"
       sodipodi:nodetypes="sscsscsss" />
    <path
       id="rect773"
       style="opacity:0.2;fill:#ffffff"
       d="m 312,34 c -9.97199,0 -18,8.02801 -18,18 v 1 c 0,-9.97199 8.02801,-18 18,-18 h 48 c 9.97199,0 18,8.02801 18,18 v -1 c 0,-9.97199 -8.02801,-18 -18,-18 z" />
    <path
       id="rect1135"
       style="opacity:0.2;fill:#ffffff;fill-opacity:1"
       d="m 304,144 c -6.64799,0 -12,5.35201 -12,12 v 1 c 0,-6.64799 5.35201,-12 12,-12 h 32 c 6.64799,0 12,5.35201 12,12 v -1 c 0,-6.64799 -5.35201,-12 -12,-12 z" />
    <path
       id="rect1265"
       style="opacity:0.2;fill:#ffffff;fill-opacity:1"
       d="m 300,223 c -4.986,0 -9,4.014 -9,9 v 1 c 0,-4.986 4.014,-9 9,-9 h 24 c 4.986,0 9,4.014 9,9 v -1 c 0,-4.986 -4.014,-9 -9,-9 z" />
    <path
       id="rect1368"
       style="opacity:0.2;fill:#ffffff;fill-opacity:1"
       d="m 424,54 c -3.324,0 -6,2.676003 -6,6 v 1 c 0,-3.323997 2.676,-6 6,-6 h 16 c 3.324,0 6,2.676003 6,6 v -1 c 0,-3.323997 -2.676,-6 -6,-6 z" />
    <path
       id="rect1402"
       style="opacity:0.2;fill:#ffffff;fill-opacity:1"
       d="m 420,140 c -2.216,0 -4,1.784 -4,4 v 1 c 0,-2.216 1.784,-4 4,-4 h 8 c 2.216,0 4,1.784 4,4 v -1 c 0,-2.216 -1.784,-4 -4,-4 z" />
    <path
       id="rect1436"
       style="opacity:0.2;fill:#ffffff;fill-opacity:1"
       d="m 422,102 c -2.216,0 -4,1.784 -4,4 v 1 c 0,-2.216 1.784,-4 4,-4 h 12 c 2.216,0 4,1.784 4,4 v -1 c 0,-2.216 -1.784,-4 -4,-4 z" />
  </g>
</svg>
