<?xml version="1.0" encoding="UTF-8" standalone="no"?>
<!-- Created with Inkscape (http://www.inkscape.org/) -->

<svg
   width="480"
   height="300"
   viewBox="0 0 480 300"
   version="1.1"
   id="svg5"
   inkscape:version="1.2.2 (1:1.2.2+202305151914+b0a8486541)"
   sodipodi:docname="preferences-desktop-user.svg"
   xmlns:inkscape="http://www.inkscape.org/namespaces/inkscape"
   xmlns:sodipodi="http://sodipodi.sourceforge.net/DTD/sodipodi-0.dtd"
   xmlns="http://www.w3.org/2000/svg"
   xmlns:svg="http://www.w3.org/2000/svg">
  <sodipodi:namedview
     id="namedview7"
     pagecolor="#888888"
     bordercolor="#000000"
     borderopacity="0.25"
     inkscape:showpageshadow="true"
     inkscape:pageopacity="0"
     inkscape:pagecheckerboard="0"
     inkscape:deskcolor="#888888"
     inkscape:document-units="px"
     showgrid="false"
     showborder="false"
     inkscape:zoom="2.6866667"
     inkscape:cx="240.44665"
     inkscape:cy="150"
     inkscape:window-width="1920"
     inkscape:window-height="1008"
     inkscape:window-x="0"
     inkscape:window-y="0"
     inkscape:window-maximized="1"
     inkscape:current-layer="svg5" />
  <defs
     id="defs2" />
  <g
     id="Baseplate"
     style="display:none">
    <text
       y="19.774782"
       xml:space="preserve"
       x="15.006946"
       style="font-style:normal;font-variant:normal;font-weight:normal;font-stretch:normal;line-height:0%;font-family:'DejaVu Sans';-inkscape-font-specification:'DejaVu Sans';display:inline;fill:#000000;fill-opacity:1;stroke:none;enable-background:new"
       inkscape:label="context"
       id="context"><tspan
         style="font-style:normal;font-variant:normal;font-weight:normal;font-stretch:normal;font-size:18px;line-height:1.25;font-family:'DejaVu Sans';-inkscape-font-specification:'DejaVu Sans'"
         y="19.774782"
         x="15.006946"
         sodipodi:role="line"
         id="tspan3933">apps</tspan></text>
    <text
       y="19.774782"
       xml:space="preserve"
       x="122.48839"
       style="font-style:normal;font-variant:normal;font-weight:bold;font-stretch:normal;line-height:0%;font-family:'DejaVu Sans';-inkscape-font-specification:'DejaVu Sans Bold';text-align:start;writing-mode:lr-tb;text-anchor:start;display:inline;fill:#000000;fill-opacity:1;stroke:none;enable-background:new"
       inkscape:label="icon-name"
       id="icon-name"><tspan
         style="font-style:normal;font-variant:normal;font-weight:bold;font-stretch:normal;font-size:18px;line-height:1.25;font-family:'DejaVu Sans';-inkscape-font-specification:'DejaVu Sans Bold'"
         y="19.774782"
         x="122.48839"
         sodipodi:role="line"
         id="tspan3937">preferences-desktop-user</tspan></text>
    <rect
       style="fill:#ffffff"
       id="256x256"
       width="256"
       height="256"
       x="16"
       y="28" />
    <rect
       style="fill:#ffffff"
       id="96x96"
       width="96"
       height="96"
       x="288"
       y="28" />
    <rect
       style="fill:#ffffff"
       id="64x64"
       width="64"
       height="64"
       x="288"
       y="140" />
    <rect
       style="fill:#ffffff"
       id="48x48"
       width="48"
       height="48"
       x="288"
       y="220" />
    <rect
       style="fill:#ffffff"
       id="32x32"
       width="32"
       height="32"
       x="416"
       y="52" />
    <rect
       style="fill:#ffffff"
       id="24x24"
       width="24"
       height="24"
       x="416"
       y="100" />
    <rect
       style="fill:#ffffff"
       id="22x22"
       width="22"
       height="22"
       x="417"
       y="101" />
    <rect
       style="fill:#ffffff"
       id="16x16"
       width="16"
       height="16"
       x="416"
       y="140" />
  </g>
  <g
     id="Shadow">
    <rect
       style="opacity:0.2;fill:#000000"
       id="rect651"
       width="224"
       height="224"
       x="32"
       y="46"
       ry="48" />
    <rect
       style="opacity:0.2;fill:#000000"
       id="rect769"
       width="84"
       height="85"
       x="294"
       y="34"
       ry="18" />
    <rect
       style="opacity:0.2;fill:#000000;fill-opacity:1"
       id="rect1131"
       width="56"
       height="56"
       x="292"
       y="145"
       ry="12" />
    <rect
       style="opacity:0.2;fill:#000000;fill-opacity:1"
       id="rect1261"
       width="42"
       height="42"
       x="291"
       y="224"
       ry="9" />
    <rect
       style="opacity:0.2;fill:#000000;fill-opacity:1"
       id="rect1364"
       width="28"
       height="29"
       x="418"
       y="54"
       ry="6" />
    <rect
       style="opacity:0.2;fill:#000000;fill-opacity:1"
       id="rect1398"
       width="16"
       height="16"
       x="416"
       y="141"
       ry="4" />
    <rect
       style="opacity:0.2;fill:#000000;fill-opacity:1"
       id="rect1432"
       width="20"
       height="20"
       x="418"
       y="103"
       ry="4" />
  </g>
  <g
     id="Background">
    <rect
       style="fill:#009587;fill-opacity:1"
       id="rect597"
       width="224"
       height="224"
       x="32"
       y="44"
       ry="48" />
    <rect
       style="opacity:1;fill:#009587;fill-opacity:1"
       id="rect771"
       width="84"
       height="84"
       x="294"
       y="34"
       ry="18" />
    <rect
       style="opacity:1;fill:#009587;fill-opacity:1"
       id="rect1133"
       width="56"
       height="56"
       x="292"
       y="144"
       ry="12" />
    <rect
       style="opacity:1;fill:#009587;fill-opacity:1"
       id="rect1263"
       width="42"
       height="42"
       x="291"
       y="223"
       ry="9" />
    <rect
       style="opacity:1;fill:#009587;fill-opacity:1"
       id="rect1366"
       width="28"
       height="28"
       x="418"
       y="54"
       ry="6" />
    <rect
       style="opacity:1;fill:#009587;fill-opacity:1"
       id="rect1400"
       width="16"
       height="16"
       x="416"
       y="140"
       ry="4" />
    <rect
       style="opacity:1;fill:#009587;fill-opacity:1"
       id="rect1434"
       width="20"
       height="20"
       x="418"
       y="102"
       ry="4" />
  </g>
  <g
     id="Symbols">
    <path
       d="m 424,143 c -1.1044,0 -2,0.8956 -2,2 0,1.1044 0.8956,2 2,2 1.1044,0 2,-0.8956 2,-2 0,-1.10453 -0.89547,-2 -2,-2 z m 0,5 c -3.9996,0.002 -4,2.46094 -4,2.46094 v 1 c 0,0 0.73846,1.53906 4,1.53906 3.26154,0 4,-1.53906 4,-1.53906 v -1 c 0,0 -8e-4,-2.46248 -4,-2.46094 z"
       style="fill:#ffffff"
       id="path6015" />
    <path
       d="m 428,105.5 c -1.6572,0 -3,1.3434 -3,3 0,1.6566 1.3428,3 3,3 1.6572,0 3,-1.3434 3,-3 0,-1.6566 -1.3428,-3 -3,-3 z m 0,7 c -4.9995,0.003 -5,3.44531 -5,3.44531 v 1.40039 c 0,0 0.92308,2.1543 5,2.1543 4.07692,0 5,-2.1543 5,-2.1543 v -1.40039 c 0,0 9.5e-4,-3.44746 -4.99805,-3.44531 z"
       style="opacity:0.2;fill:#000000"
       id="path5309"
       sodipodi:nodetypes="ssssssccsccss" />
    <path
       d="m 428,105 c -1.6572,0 -3,1.3434 -3,3 0,1.6566 1.3428,3 3,3 1.6572,0 3,-1.3434 3,-3 0,-1.6566 -1.3428,-3 -3,-3 z m 0,7 c -4.9995,0.003 -5,3.44531 -5,3.44531 v 1.40039 c 0,0 0.92308,2.1543 5,2.1543 4.07692,0 5,-2.1543 5,-2.1543 v -1.40039 c 0,0 9.5e-4,-3.44746 -4.99805,-3.44531 z"
       style="fill:#ffffff"
       id="path5857" />
    <path
       d="m 432,59 c -2.2096,0 -4,1.791202 -4,4 0,2.208798 1.7904,4 4,4 2.2096,0 4,-1.791202 4,-4 0,-2.208798 -1.7904,-4 -4,-4 z m 0,10 c -6.99929,0.0042 -7,4.431641 -7,4.431641 v 1.798828 c 0,0 1.2923,2.769531 7,2.769531 5.70769,0 7,-2.769531 7,-2.769531 v -1.798828 c 0,0 5.5e-4,-4.43441 -6.99805,-4.431641 z"
       style="fill:#000000;opacity:0.2"
       id="path6185"
       sodipodi:nodetypes="ssssssccsccss" />
    <path
       d="m 432,58 c -2.2096,0 -4,1.791202 -4,4 0,2.208798 1.7904,4 4,4 2.2096,0 4,-1.791202 4,-4 0,-2.208798 -1.7904,-4 -4,-4 z m 0,10 c -6.99929,0.0042 -7,4.431641 -7,4.431641 v 1.798828 c 0,0 1.2923,2.769531 7,2.769531 5.70769,0 7,-2.769531 7,-2.769531 v -1.798828 c 0,0 5.5e-4,-4.43441 -6.99805,-4.431641 z"
       style="fill:#ffffff"
       id="path6213" />
    <path
       d="m 312,233 c -2.762,0 -5,2.239 -5,5 0,2.761 2.238,5 5,5 2.762,0 5,-2.239 5,-5 0,-2.761 -2.238,-5 -5,-5 z m 0,13 c -9.999,0.006 -10,6.4 -10,6.4 v 2.6 c 0,0 1.84614,4 10,4 8.15386,0 10,-4 10,-4 v -2.6 c 0,0 0,-6.404 -9.998,-6.4 z"
       style="opacity:0.2;fill:#000000"
       id="path6374"
       sodipodi:nodetypes="ssssssccsccss" />
    <path
       d="m 312,232 c -2.762,0 -5,2.239 -5,5 0,2.761 2.238,5 5,5 2.762,0 5,-2.239 5,-5 0,-2.761 -2.238,-5 -5,-5 z m 0,13 c -9.999,0.006 -10,6.4 -10,6.4 v 2.6 c 0,0 1.84614,4 10,4 8.15386,0 10,-4 10,-4 v -2.6 c 0,0 0,-6.404 -9.998,-6.4 z"
       style="fill:#ffffff"
       id="path6402"
       sodipodi:nodetypes="ssssssccsccss" />
    <path
       d="m 320,154 c -3.8668,0 -7,3.1346 -7,7 0,3.8654 3.1332,7 7,7 3.8668,0 7,-3.1346 7,-7 0,-3.8654 -3.1332,-7 -7,-7 z m 0,19 c -13.99859,0.008 -14,8.86133 -14,8.86133 v 3.59961 c 0,0 2.58461,5.53906 14,5.53906 11.41539,0 14,-5.53906 14,-5.53906 v -3.59961 c 0,0 -8.6e-4,-8.86687 -13.99805,-8.86133 z"
       style="opacity:0.2;fill:#000000"
       id="path6628"
       sodipodi:nodetypes="ssssssccsccss" />
    <path
       d="m 320,153 c -3.8668,0 -7,3.1346 -7,7 0,3.8654 3.1332,7 7,7 3.8668,0 7,-3.1346 7,-7 0,-3.8654 -3.1332,-7 -7,-7 z m 0,19 c -13.99859,0.008 -14,8.86133 -14,8.86133 v 3.59961 c 0,0 2.58461,5.53906 14,5.53906 11.41539,0 14,-5.53906 14,-5.53906 v -3.59961 c 0,0 -8.6e-4,-8.86687 -13.99805,-8.86133 z"
       style="fill:#ffffff"
       id="path6656"
       sodipodi:nodetypes="ssssssccsccss" />
    <path
       d="m 336,51 c -5.524,0 -10,4.478 -10,10 0,5.522 4.476,10 10,10 5.524,0 10,-4.478 10,-10 0,-5.522 -4.476,-10 -10,-10 z m 0,26 c -19.998,0.012 -20,12.8 -20,12.8 V 95 c 0,0 3.69228,8 20,8 16.30772,0 20,-8 20,-8 v -5.2 c 0,0 0,-12.808 -19.996,-12.8 z"
       style="opacity:0.2;fill:#000000;stroke-width:2"
       id="path6430" />
    <path
       d="m 336,50 c -5.524,0 -10,4.478 -10,10 0,5.522 4.476,10 10,10 5.524,0 10,-4.478 10,-10 0,-5.522 -4.476,-10 -10,-10 z m 0,26 c -19.998,0.012 -20,12.8 -20,12.8 V 94 c 0,0 3.69228,8 20,8 16.30772,0 20,-8 20,-8 v -5.2 c 0,0 0,-12.808 -19.996,-12.8 z"
       style="fill:#ffffff;stroke-width:2"
       id="path6458" />
    <path
       d="m 144,84 c -15.4672,0 -28,12.5384 -28,28 0,15.4616 12.5328,28 28,28 15.4672,0 28,-12.5384 28,-28 0,-15.4616 -12.5328,-28 -28,-28 z m 0,76 c -55.99436,0.032 -56,35.44532 -56,35.44532 v 14.39844 c 0,0 10.33844,22.15624 56,22.15624 45.66156,0 56,-22.15624 56,-22.15624 v -14.39844 c 0,0 -0.003,-35.46748 -55.9922,-35.44532 z"
       style="opacity:0.2;fill:#000000;stroke-width:4"
       id="path6684" />
    <path
       d="m 144,82 c -15.4672,0 -28,12.5384 -28,28 0,15.4616 12.5328,28 28,28 15.4672,0 28,-12.5384 28,-28 0,-15.4616 -12.5328,-28 -28,-28 z m 0,76 c -55.99436,0.032 -56,35.44532 -56,35.44532 v 14.39844 c 0,0 10.33844,22.15624 56,22.15624 45.66156,0 56,-22.15624 56,-22.15624 v -14.39844 c 0,0 -0.003,-35.46748 -55.9922,-35.44532 z"
       style="fill:#ffffff;stroke-width:4"
       id="path6712" />
  </g>
  <g
     id="Highlights">
    <path
       id="rect653"
       style="opacity:0.2;fill:#ffffff"
       d="M 80,44 C 53.408027,44 32,65.408027 32,92 v 2 C 32,67.408027 53.408027,46 80,46 h 128 c 26.59197,0 48,21.408027 48,48 V 92 C 256,65.408027 234.59197,44 208,44 Z"
       sodipodi:nodetypes="sscsscsss" />
    <path
       id="rect773"
       style="opacity:0.2;fill:#ffffff"
       d="m 312,34 c -9.97199,0 -18,8.02801 -18,18 v 1 c 0,-9.97199 8.02801,-18 18,-18 h 48 c 9.97199,0 18,8.02801 18,18 v -1 c 0,-9.97199 -8.02801,-18 -18,-18 z" />
    <path
       id="rect1135"
       style="opacity:0.2;fill:#ffffff;fill-opacity:1"
       d="m 304,144 c -6.64799,0 -12,5.35201 -12,12 v 1 c 0,-6.64799 5.35201,-12 12,-12 h 32 c 6.64799,0 12,5.35201 12,12 v -1 c 0,-6.64799 -5.35201,-12 -12,-12 z" />
    <path
       id="rect1265"
       style="opacity:0.2;fill:#ffffff;fill-opacity:1"
       d="m 300,223 c -4.986,0 -9,4.014 -9,9 v 1 c 0,-4.986 4.014,-9 9,-9 h 24 c 4.986,0 9,4.014 9,9 v -1 c 0,-4.986 -4.014,-9 -9,-9 z" />
    <path
       id="rect1368"
       style="opacity:0.2;fill:#ffffff;fill-opacity:1"
       d="m 424,54 c -3.324,0 -6,2.676003 -6,6 v 1 c 0,-3.323997 2.676,-6 6,-6 h 16 c 3.324,0 6,2.676003 6,6 v -1 c 0,-3.323997 -2.676,-6 -6,-6 z" />
    <path
       id="rect1402"
       style="opacity:0.2;fill:#ffffff;fill-opacity:1"
       d="m 420,140 c -2.216,0 -4,1.784 -4,4 v 1 c 0,-2.216 1.784,-4 4,-4 h 8 c 2.216,0 4,1.784 4,4 v -1 c 0,-2.216 -1.784,-4 -4,-4 z" />
    <path
       id="rect1436"
       style="opacity:0.2;fill:#ffffff;fill-opacity:1"
       d="m 422,102 c -2.216,0 -4,1.784 -4,4 v 1 c 0,-2.216 1.784,-4 4,-4 h 12 c 2.216,0 4,1.784 4,4 v -1 c 0,-2.216 -1.784,-4 -4,-4 z" />
  </g>
</svg>
