<?xml version="1.0" encoding="UTF-8" standalone="no"?>
<!-- Created with Inkscape (http://www.inkscape.org/) -->

<svg
   width="480"
   height="300"
   viewBox="0 0 480 300"
   version="1.1"
   id="svg5"
   inkscape:version="1.2.2 (1:1.2.2+202305151914+b0a8486541)"
   sodipodi:docname="preferences-system-bluetooth-inactive.svg"
   xmlns:inkscape="http://www.inkscape.org/namespaces/inkscape"
   xmlns:sodipodi="http://sodipodi.sourceforge.net/DTD/sodipodi-0.dtd"
   xmlns="http://www.w3.org/2000/svg"
   xmlns:svg="http://www.w3.org/2000/svg">
  <sodipodi:namedview
     id="namedview7"
     pagecolor="#888888"
     bordercolor="#000000"
     borderopacity="0.25"
     inkscape:showpageshadow="true"
     inkscape:pageopacity="0"
     inkscape:pagecheckerboard="0"
     inkscape:deskcolor="#888888"
     inkscape:document-units="px"
     showgrid="false"
     showborder="false"
     inkscape:zoom="2.6866667"
     inkscape:cx="235.98015"
     inkscape:cy="150"
     inkscape:window-width="1920"
     inkscape:window-height="1008"
     inkscape:window-x="0"
     inkscape:window-y="0"
     inkscape:window-maximized="1"
     inkscape:current-layer="svg5" />
  <defs
     id="defs2" />
  <g
     id="Baseplate"
     style="display:none">
    <text
       y="19.774782"
       xml:space="preserve"
       x="15.006946"
       style="font-style:normal;font-variant:normal;font-weight:normal;font-stretch:normal;line-height:0%;font-family:'DejaVu Sans';-inkscape-font-specification:'DejaVu Sans';display:inline;fill:#000000;fill-opacity:1;stroke:none;enable-background:new"
       inkscape:label="context"
       id="context"><tspan
         style="font-style:normal;font-variant:normal;font-weight:normal;font-stretch:normal;font-size:18px;line-height:1.25;font-family:'DejaVu Sans';-inkscape-font-specification:'DejaVu Sans'"
         y="19.774782"
         x="15.006946"
         sodipodi:role="line"
         id="tspan3933">apps</tspan></text>
    <text
       y="19.774782"
       xml:space="preserve"
       x="122.48839"
       style="font-style:normal;font-variant:normal;font-weight:bold;font-stretch:normal;line-height:0%;font-family:'DejaVu Sans';-inkscape-font-specification:'DejaVu Sans Bold';text-align:start;writing-mode:lr-tb;text-anchor:start;display:inline;fill:#000000;fill-opacity:1;stroke:none;enable-background:new"
       inkscape:label="icon-name"
       id="icon-name"><tspan
         style="font-style:normal;font-variant:normal;font-weight:bold;font-stretch:normal;font-size:18px;line-height:1.25;font-family:'DejaVu Sans';-inkscape-font-specification:'DejaVu Sans Bold'"
         y="19.774782"
         x="122.48839"
         sodipodi:role="line"
         id="tspan3937">preferences-system-bluetooth-inactive</tspan></text>
    <rect
       style="fill:#ffffff"
       id="256x256"
       width="256"
       height="256"
       x="16"
       y="28" />
    <rect
       style="fill:#ffffff"
       id="96x96"
       width="96"
       height="96"
       x="288"
       y="28" />
    <rect
       style="fill:#ffffff"
       id="64x64"
       width="64"
       height="64"
       x="288"
       y="140" />
    <rect
       style="fill:#ffffff"
       id="48x48"
       width="48"
       height="48"
       x="288"
       y="220" />
    <rect
       style="fill:#ffffff"
       id="32x32"
       width="32"
       height="32"
       x="416"
       y="52" />
    <rect
       style="fill:#ffffff"
       id="24x24"
       width="24"
       height="24"
       x="416"
       y="100" />
    <rect
       style="fill:#ffffff"
       id="22x22"
       width="22"
       height="22"
       x="417"
       y="101" />
    <rect
       style="fill:#ffffff"
       id="16x16"
       width="16"
       height="16"
       x="416"
       y="140" />
  </g>
  <g
     id="Shadow">
    <rect
       style="opacity:0.2;fill:#000000"
       id="rect651"
       width="224"
       height="224"
       x="32"
       y="46"
       ry="48" />
    <rect
       style="opacity:0.2;fill:#000000"
       id="rect769"
       width="84"
       height="85"
       x="294"
       y="34"
       ry="18" />
    <rect
       style="opacity:0.2;fill:#000000;fill-opacity:1"
       id="rect1131"
       width="56"
       height="56"
       x="292"
       y="145"
       ry="12" />
    <rect
       style="opacity:0.2;fill:#000000;fill-opacity:1"
       id="rect1261"
       width="42"
       height="42"
       x="291"
       y="224"
       ry="9" />
    <rect
       style="opacity:0.2;fill:#000000;fill-opacity:1"
       id="rect1364"
       width="28"
       height="29"
       x="418"
       y="54"
       ry="6" />
    <rect
       style="opacity:0.2;fill:#000000;fill-opacity:1"
       id="rect1398"
       width="16"
       height="16"
       x="416"
       y="141"
       ry="4" />
    <rect
       style="opacity:0.2;fill:#000000;fill-opacity:1"
       id="rect1432"
       width="20"
       height="20"
       x="418"
       y="103"
       ry="4" />
  </g>
  <g
     id="Background">
    <rect
       style="fill:#7c7c7c;fill-opacity:1"
       id="rect597"
       width="224"
       height="224"
       x="32"
       y="44"
       ry="48" />
    <rect
       style="opacity:1;fill:#7c7c7c;fill-opacity:1"
       id="rect771"
       width="84"
       height="84"
       x="294"
       y="34"
       ry="18" />
    <rect
       style="opacity:1;fill:#7c7c7c;fill-opacity:1"
       id="rect1133"
       width="56"
       height="56"
       x="292"
       y="144"
       ry="12" />
    <rect
       style="opacity:1;fill:#7c7c7c;fill-opacity:1"
       id="rect1263"
       width="42"
       height="42"
       x="291"
       y="223"
       ry="9" />
    <rect
       style="opacity:1;fill:#7c7c7c;fill-opacity:1"
       id="rect1366"
       width="28"
       height="28"
       x="418"
       y="54"
       ry="6" />
    <rect
       style="opacity:1;fill:#7c7c7c;fill-opacity:1"
       id="rect1400"
       width="16"
       height="16"
       x="416"
       y="140"
       ry="4" />
    <rect
       style="opacity:1;fill:#7c7c7c;fill-opacity:1"
       id="rect1434"
       width="20"
       height="20"
       x="418"
       y="102"
       ry="4" />
  </g>
  <g
     id="Symbols">
    <path
       d="m 423.30852,142.03936 c -0.18646,0.0773 -0.30818,0.25909 -0.30859,0.46094 v 4.43164 l -2.17969,-1.81641 c -0.21238,-0.17727 -0.52835,-0.14838 -0.70508,0.0645 -0.17727,0.21238 -0.14838,0.52835 0.0645,0.70508 l 2.53902,2.11519 -2.53906,2.11523 c -0.21284,0.17673 -0.24173,0.4927 -0.0645,0.70508 0.17673,0.21284 0.4927,0.24173 0.70508,0.0644 l 2.17969,-1.8164 v 4.43169 c 1.7e-4,0.44532 0.53852,0.66829 0.85352,0.35352 l 3,-3 c 0.20839,-0.2079 0.193,-0.54993 -0.0332,-0.73829 l -2.53903,-2.11523 2.53906,-2.11523 c 0.22621,-0.18836 0.24159,-0.53039 0.0332,-0.73829 l -3,-3 c -0.14322,-0.14266 -0.35826,-0.18505 -0.54492,-0.10742 z m 0.69141,1.66797 1.75977,1.75977 -1.75977,1.46484 z m 0,5.36133 1.75977,1.46484 -1.75977,1.75977 z"
       style="color:#000000;fill:#ffffff;stroke-linecap:round;stroke-linejoin:round;-inkscape-stroke:none"
       id="path3578" />
    <path
       d="m 427.31878,105.82618 c -0.19228,0.075 -0.31874,0.26041 -0.31836,0.4668 v 5.875 l -2.95313,-2.74219 c -0.20272,-0.18787 -0.51942,-0.17562 -0.70703,0.0273 -0.18787,0.20272 -0.17562,0.51942 0.0274,0.70703 l 3.10351,2.88281 -3.10351,2.88281 c -0.20297,0.18761 -0.21522,0.50431 -0.0274,0.70703 0.18762,0.20297 0.50431,0.21521 0.70703,0.0273 l 2.95313,-2.74218 v 5.875 c -4.7e-4,0.45665 0.56105,0.67494 0.86914,0.33789 l 3.20703,-3.5 c 0.18602,-0.20301 0.17292,-0.5182 -0.0293,-0.70508 l -3.04687,-2.83008 v -0.10547 l 3.04687,-2.83007 c 0.20223,-0.18688 0.21533,-0.50207 0.0293,-0.70508 l -3.20703,-3.5 c -0.13931,-0.15266 -0.35819,-0.20389 -0.55078,-0.12891 z m 0.68164,1.75391 2.00195,2.18359 -2.00195,1.85938 z m 0,6.88281 2.00195,1.85938 -2.00195,2.18359 z"
       style="color:#000000;fill:#000000;stroke-linecap:round;stroke-linejoin:round;-inkscape-stroke:none;opacity:0.2"
       id="path3389"
       sodipodi:nodetypes="sccccccccccccsccccccsscccccccc" />
    <path
       d="m 427.31878,104.82618 c -0.19228,0.075 -0.31874,0.26041 -0.31836,0.4668 v 5.875 l -2.95313,-2.74219 c -0.20272,-0.18787 -0.51942,-0.17562 -0.70703,0.0273 -0.18787,0.20272 -0.17562,0.51942 0.0274,0.70703 l 3.10351,2.88281 -3.10351,2.88281 c -0.20297,0.18761 -0.21522,0.50431 -0.0274,0.70703 0.18762,0.20297 0.50431,0.21521 0.70703,0.0273 l 2.95313,-2.74218 v 5.875 c -4.7e-4,0.45665 0.56105,0.67494 0.86914,0.33789 l 3.20703,-3.5 c 0.18602,-0.20301 0.17292,-0.5182 -0.0293,-0.70508 l -3.04687,-2.83008 v -0.10547 l 3.04687,-2.83007 c 0.20223,-0.18688 0.21533,-0.50207 0.0293,-0.70508 l -3.20703,-3.5 c -0.13931,-0.15266 -0.35819,-0.20389 -0.55078,-0.12891 z m 0.68164,1.75391 2.00195,2.18359 -2.00195,1.85938 z m 0,6.88281 2.00195,1.85938 -2.00195,2.18359 z"
       style="color:#000000;fill:#ffffff;stroke-linecap:round;stroke-linejoin:round;-inkscape-stroke:none"
       id="path3417" />
    <path
       d="m 431.29651,59.04268 c -0.18058,0.0803 -0.29693,0.259408 -0.29688,0.457031 v 8.199219 l -4.17383,-3.578125 c -0.20927,-0.180117 -0.52492,-0.15651 -0.70508,0.05273 -0.18011,0.209272 -0.1565,0.524927 0.0527,0.705078 l 4.47265,3.833985 -4.44921,3.388671 c -0.22026,0.167075 -0.26314,0.481182 -0.0957,0.701172 0.16708,0.220257 0.48118,0.263128 0.70117,0.0957 l 4.19727,-3.197258 v 8.798828 c 0.001,0.433188 0.51503,0.660119 0.83594,0.369141 l 5.5,-5 c 0.22162,-0.201876 0.21704,-0.552047 -0.01,-0.748047 l -5.08985,-4.363281 5.06641,-3.859375 c 0.24831,-0.189364 0.26424,-0.557482 0.0332,-0.767579 l -5.49996,-5 c -0.14641,-0.133508 -0.35783,-0.167979 -0.53906,-0.08789 z m 0.70312,1.585937 4.2207,3.835938 -4.2207,3.214844 z m 0,9.244141 4.24609,3.638672 -4.24609,3.859375 z"
       style="color:#000000;fill:#000000;stroke-linecap:round;stroke-linejoin:round;-inkscape-stroke:none;opacity:0.2"
       id="path2835"
       sodipodi:nodetypes="ccccscccccccccccccccccccccccc" />
    <path
       d="m 431.29651,58.042964 c -0.18058,0.0803 -0.29693,0.259408 -0.29688,0.457031 v 8.199219 l -4.17383,-3.578125 c -0.20927,-0.180117 -0.52492,-0.15651 -0.70508,0.05273 -0.18011,0.209272 -0.1565,0.524927 0.0527,0.705078 l 4.47265,3.833985 -4.44921,3.388671 c -0.22026,0.167075 -0.26314,0.481182 -0.0957,0.701172 0.16708,0.220257 0.48118,0.263128 0.70117,0.0957 l 4.19727,-3.197258 v 8.798828 c 0.001,0.433188 0.51503,0.660119 0.83594,0.369141 l 5.5,-5 c 0.22162,-0.201876 0.21704,-0.552047 -0.01,-0.748047 l -5.08985,-4.363281 5.06641,-3.859375 c 0.24831,-0.189364 0.26424,-0.557482 0.0332,-0.767579 l -5.49996,-5 c -0.14641,-0.133508 -0.35783,-0.167979 -0.53906,-0.08789 z m 0.70312,1.585937 4.2207,3.835938 -4.2207,3.214844 z m 0,9.244141 4.24609,3.638672 -4.24609,3.859375 z"
       style="color:#000000;fill:#ffffff;stroke-linecap:round;stroke-linejoin:round;-inkscape-stroke:none"
       id="path2863" />
    <path
       d="m 310.6171,231.0762 c -0.37359,0.15484 -0.61716,0.51943 -0.61719,0.92383 v 11.20703 l -5.32031,-4.93945 c -0.40467,-0.37494 -1.03653,-0.35135 -1.41211,0.0527 -0.37494,0.40467 -0.35135,1.03653 0.0527,1.41211 l 6.21094,5.76758 -6.21094,5.76758 c -0.40407,0.37558 -0.42767,1.00744 -0.0527,1.41211 0.37558,0.40407 1.00744,0.42767 1.41211,0.0527 l 5.32031,-4.93945 v 11.20703 c 3.5e-4,0.89064 1.07704,1.33659 1.70703,0.70703 l 7,-7 c 0.40024,-0.40095 0.38783,-1.05399 -0.0273,-1.43945 l -6.21094,-5.76758 6.21094,-5.76758 c 0.41517,-0.38547 0.42757,-1.0385 0.0273,-1.43945 l -7,-7 c -0.28602,-0.286 -0.71615,-0.37157 -1.08984,-0.2168 z m 1.38281,3.33789 4.56055,4.56055 -4.56055,4.23242 z m 0,13.37891 4.56055,4.23242 -4.56055,4.56055 z"
       style="color:#000000;opacity:0.2;fill:#000000;stroke-linecap:round;stroke-linejoin:round;-inkscape-stroke:none"
       id="path2059"
       sodipodi:nodetypes="sccccccccccccccccccsscccccccc" />
    <path
       d="m 310.6171,230.0762 c -0.37359,0.15484 -0.61716,0.51943 -0.61719,0.92383 v 11.20703 l -5.32031,-4.93945 c -0.40467,-0.37494 -1.03653,-0.35135 -1.41211,0.0527 -0.37494,0.40467 -0.35135,1.03653 0.0527,1.41211 l 6.21094,5.76758 -6.21094,5.76758 c -0.40407,0.37558 -0.42767,1.00744 -0.0527,1.41211 0.37558,0.40407 1.00744,0.42767 1.41211,0.0527 l 5.32031,-4.93945 v 11.20703 c 3.5e-4,0.89064 1.07704,1.33659 1.70703,0.70703 l 7,-7 c 0.40024,-0.40095 0.38783,-1.05399 -0.0273,-1.43945 l -6.21094,-5.76758 6.21094,-5.76758 c 0.41517,-0.38547 0.42757,-1.0385 0.0273,-1.43945 l -7,-7 c -0.28602,-0.286 -0.71615,-0.37157 -1.08984,-0.2168 z m 1.38281,3.33789 4.56055,4.56055 -4.56055,4.23242 z m 0,13.37891 4.56055,4.23242 -4.56055,4.56055 z"
       style="color:#000000;fill:#ffffff;stroke-linecap:round;stroke-linejoin:round;-inkscape-stroke:none"
       id="path2087"
       sodipodi:nodetypes="sccccccccccccccccccsscccccccc" />
    <path
       d="m 318.60392,154.58209 c -0.36626,0.15821 -0.60347,0.51899 -0.60352,0.91797 V 170.586 l -7.29297,-7.29297 c -0.39051,-0.39042 -1.02355,-0.39042 -1.41406,0 -0.39042,0.39051 -0.39042,1.02355 0,1.41406 l 7.7207,7.7207 -7.67773,6.82422 c -0.41328,0.36668 -0.45089,0.99903 -0.084,1.41211 0.36668,0.41328 0.99903,0.45089 1.41211,0.084 l 7.33593,-6.52148 v 16.27344 c -1.3e-4,0.87782 1.0499,1.32991 1.6875,0.72656 l 9,-8.5 c 0.40897,-0.38714 0.4178,-1.03546 0.0195,-1.43359 l -8.70703,-8.70703 v -0.13672 l 8.66407,-7.70117 c 0.43891,-0.38948 0.44974,-1.07138 0.0234,-1.47461 l -9,-8.5 c -0.29056,-0.2748 -0.71688,-0.35008 -1.08398,-0.19141 z m 1.39648,3.23828 6.51953,6.15821 -6.51953,5.79492 z m 0,17.59375 6.56446,6.56446 -6.56446,6.20117 z"
       style="color:#000000;opacity:0.2;fill:#000000;stroke-linecap:round;stroke-linejoin:round;-inkscape-stroke:none"
       id="path2115"
       sodipodi:nodetypes="cccccccccccccccccccccccccccccc" />
    <path
       d="m 318.60392,153.58209 c -0.36627,0.15821 -0.60347,0.51899 -0.60352,0.91797 V 169.586 l -7.29297,-7.29297 c -0.39051,-0.39042 -1.02355,-0.39042 -1.41406,0 -0.39042,0.39051 -0.39042,1.02355 0,1.41406 l 7.7207,7.7207 -7.67773,6.82422 c -0.41328,0.36668 -0.45089,0.99903 -0.084,1.41211 0.36668,0.41328 0.99903,0.45089 1.41211,0.084 l 7.33593,-6.52148 v 16.27344 c -1.3e-4,0.87782 1.0499,1.32991 1.6875,0.72656 l 9,-8.5 c 0.40897,-0.38714 0.4178,-1.03546 0.0195,-1.43359 l -8.70703,-8.70703 v -0.13672 l 8.66406,-7.70117 c 0.43891,-0.38948 0.44974,-1.07138 0.0234,-1.47461 l -9,-8.5 c -0.29056,-0.2748 -0.71689,-0.35008 -1.08398,-0.19141 z m 1.39648,3.23828 6.51953,6.15821 -6.51953,5.79492 z m 0,17.59375 6.56445,6.56446 -6.56445,6.20117 z"
       style="color:#000000;fill:#ffffff;stroke-linecap:round;stroke-linejoin:round;-inkscape-stroke:none"
       id="path914"
       sodipodi:nodetypes="cccccccccccccccccccccccccccccc" />
    <path
       d="m 334.97421,49.132879 c -0.73453,0.30443 -1.21342,1.02126 -1.21348,1.81637 v 22.03442 l -10.46039,-9.71158 c -0.79563,-0.73718 -2.03795,-0.69079 -2.77639,0.10362 -0.73718,0.79563 -0.6908,2.03795 0.10362,2.77638 l 12.21148,11.33979 -12.21148,11.33978 c -0.79445,0.73844 -0.84085,1.98076 -0.10362,2.77639 0.73844,0.79445 1.98076,0.84085 2.77639,0.10361 l 10.46039,-9.71157 v 22.034421 c 6.9e-4,1.75111 2.1176,2.62791 3.35624,1.39011 l 13.76288,-13.762881 c 0.78692,-0.78831 0.76252,-2.07227 -0.0537,-2.83013 l -12.21148,-11.33979 12.21148,-11.33979 c 0.81628,-0.75788 0.84066,-2.04182 0.0537,-2.83013 l -13.76288,-13.76288 c -0.56235,-0.56231 -1.40804,-0.73056 -2.14276,-0.42626 z m 2.71878,6.56271 8.96661,8.96661 -8.96661,8.32147 z m 0,26.30461 8.96661,8.32147 -8.96661,8.96662 z"
       style="color:#000000;opacity:0.2;fill:#000000;stroke-width:1.96613;stroke-linecap:round;stroke-linejoin:round;-inkscape-stroke:none"
       id="path2199" />
    <path
       d="m 334.97421,48.149819 c -0.73453,0.30443 -1.21342,1.02126 -1.21348,1.81636 v 22.03443 l -10.46039,-9.71158 c -0.79563,-0.73718 -2.03795,-0.6908 -2.77639,0.10362 -0.73718,0.79563 -0.6908,2.03794 0.10362,2.77638 l 12.21148,11.33979 -12.21148,11.33978 c -0.79445,0.73844 -0.84085,1.98076 -0.10362,2.77639 0.73844,0.79445 1.98076,0.84085 2.77639,0.10361 l 10.46039,-9.71158 v 22.034431 c 6.9e-4,1.75111 2.1176,2.6279 3.35624,1.39011 l 13.76288,-13.762881 c 0.78692,-0.78832 0.76252,-2.07227 -0.0537,-2.83014 l -12.21148,-11.33978 12.21148,-11.33979 c 0.81628,-0.75788 0.84066,-2.04182 0.0537,-2.83014 l -13.76288,-13.76287 c -0.56235,-0.56232 -1.40804,-0.73056 -2.14276,-0.42626 z m 2.71878,6.56271 8.96661,8.96661 -8.96661,8.32147 z m 0,26.30461 8.96661,8.32147 -8.96661,8.96661 z"
       style="color:#000000;fill:#ffffff;stroke-width:1.96613;stroke-linecap:round;stroke-linejoin:round;-inkscape-stroke:none"
       id="path2171" />
    <path
       d="m 140.41705,84.3293 c -1.46502,0.63284 -2.41385,2.07594 -2.41405,3.67184 v 60.34312 l -29.17157,-29.17157 c -1.56202,-1.56166 -4.09415,-1.56166 -5.65618,0 -1.56166,1.56202 -1.56166,4.09416 0,5.65618 l 30.88247,30.88247 -30.71059,27.29658 c -1.6531,1.46671 -1.80354,3.99608 -0.33599,5.64838 1.4667,1.6531 3.99607,1.80354 5.64838,0.336 l 29.3434,-26.08564 v 65.09306 c -5.2e-4,3.51124 4.19956,5.31958 6.74993,2.90621 l 35.99961,-33.99964 c 1.63586,-1.54854 1.67118,-4.14179 0.078,-5.73429 l -34.82775,-34.82775 v -0.54687 l 34.65591,-30.80435 c 1.75562,-1.55791 1.79894,-4.28548 0.0936,-5.89838 L 144.75261,85.09502 c -1.16223,-1.09919 -2.86749,-1.40031 -4.33588,-0.76564 z m 5.58586,12.95298 26.07784,24.63258 -26.07784,23.17943 z m 0,70.37425 26.25756,26.25756 -26.25756,24.80441 z"
       style="color:#000000;opacity:0.2;fill:#000000;stroke-width:3.99996;stroke-linecap:round;stroke-linejoin:round;-inkscape-stroke:none"
       id="path2143" />
    <path
       d="m 140.41624,82.328348 c -1.4651,0.632849 -2.41391,2.07599 -2.41411,3.671934 v 60.344648 l -29.17231,-29.17231 c -1.56206,-1.5617 -4.09426,-1.5617 -5.65633,0 -1.5617,1.56207 -1.5617,4.09426 0,5.65633 l 30.88326,30.88325 -30.71137,27.2973 c -1.65315,1.46674 -1.80359,3.99618 -0.33601,5.64852 1.46674,1.65314 3.99618,1.80359 5.64853,0.33601 l 29.34415,-26.08632 v 65.09473 c -5.2e-4,3.51133 4.19966,5.31972 6.7501,2.90628 l 36.00053,-34.0005 c 1.6359,-1.54858 1.67122,-4.1419 0.078,-5.73444 l -34.82863,-34.82865 v -0.54689 l 34.65675,-30.80513 c 1.75566,-1.55794 1.79898,-4.28558 0.0936,-5.89853 L 144.75187,83.094079 c -1.16226,-1.099216 -2.8676,-1.400341 -4.33599,-0.765651 z m 5.58601,12.953311 26.0785,24.633201 -26.0785,23.18003 z m 0,70.376041 26.25818,26.25824 -26.25818,24.80504 z"
       style="color:#000000;fill:#ffffff;stroke-width:4.00006;stroke-linecap:round;stroke-linejoin:round;-inkscape-stroke:none"
       id="path1163" />
  </g>
  <g
     id="Highlights">
    <path
       id="rect653"
       style="opacity:0.2;fill:#ffffff"
       d="M 80,44 C 53.408027,44 32,65.408027 32,92 v 2 C 32,67.408027 53.408027,46 80,46 h 128 c 26.59197,0 48,21.408027 48,48 V 92 C 256,65.408027 234.59197,44 208,44 Z"
       sodipodi:nodetypes="sscsscsss" />
    <path
       id="rect773"
       style="opacity:0.2;fill:#ffffff"
       d="m 312,34 c -9.97199,0 -18,8.02801 -18,18 v 1 c 0,-9.97199 8.02801,-18 18,-18 h 48 c 9.97199,0 18,8.02801 18,18 v -1 c 0,-9.97199 -8.02801,-18 -18,-18 z" />
    <path
       id="rect1135"
       style="opacity:0.2;fill:#ffffff;fill-opacity:1"
       d="m 304,144 c -6.64799,0 -12,5.35201 -12,12 v 1 c 0,-6.64799 5.35201,-12 12,-12 h 32 c 6.64799,0 12,5.35201 12,12 v -1 c 0,-6.64799 -5.35201,-12 -12,-12 z" />
    <path
       id="rect1265"
       style="opacity:0.2;fill:#ffffff;fill-opacity:1"
       d="m 300,223 c -4.986,0 -9,4.014 -9,9 v 1 c 0,-4.986 4.014,-9 9,-9 h 24 c 4.986,0 9,4.014 9,9 v -1 c 0,-4.986 -4.014,-9 -9,-9 z" />
    <path
       id="rect1368"
       style="opacity:0.2;fill:#ffffff;fill-opacity:1"
       d="m 424,54 c -3.324,0 -6,2.676003 -6,6 v 1 c 0,-3.323997 2.676,-6 6,-6 h 16 c 3.324,0 6,2.676003 6,6 v -1 c 0,-3.323997 -2.676,-6 -6,-6 z" />
    <path
       id="rect1402"
       style="opacity:0.2;fill:#ffffff;fill-opacity:1"
       d="m 420,140 c -2.216,0 -4,1.784 -4,4 v 1 c 0,-2.216 1.784,-4 4,-4 h 8 c 2.216,0 4,1.784 4,4 v -1 c 0,-2.216 -1.784,-4 -4,-4 z" />
    <path
       id="rect1436"
       style="opacity:0.2;fill:#ffffff;fill-opacity:1"
       d="m 422,102 c -2.216,0 -4,1.784 -4,4 v 1 c 0,-2.216 1.784,-4 4,-4 h 12 c 2.216,0 4,1.784 4,4 v -1 c 0,-2.216 -1.784,-4 -4,-4 z" />
  </g>
</svg>
