<?xml version="1.0" encoding="UTF-8" standalone="no"?>
<!-- Created with Inkscape (http://www.inkscape.org/) -->

<svg
   width="480"
   height="300"
   viewBox="0 0 480 300"
   version="1.1"
   id="svg5"
   inkscape:version="1.2.2 (1:1.2.2+202305151914+b0a8486541)"
   sodipodi:docname="preferences-desktop-online-accounts.svg"
   xmlns:inkscape="http://www.inkscape.org/namespaces/inkscape"
   xmlns:sodipodi="http://sodipodi.sourceforge.net/DTD/sodipodi-0.dtd"
   xmlns="http://www.w3.org/2000/svg"
   xmlns:svg="http://www.w3.org/2000/svg">
  <sodipodi:namedview
     id="namedview7"
     pagecolor="#888888"
     bordercolor="#000000"
     borderopacity="0.25"
     inkscape:showpageshadow="true"
     inkscape:pageopacity="0"
     inkscape:pagecheckerboard="0"
     inkscape:deskcolor="#888888"
     inkscape:document-units="px"
     showgrid="false"
     showborder="false"
     inkscape:zoom="2.6866667"
     inkscape:cx="240.07444"
     inkscape:cy="150"
     inkscape:window-width="1920"
     inkscape:window-height="1008"
     inkscape:window-x="0"
     inkscape:window-y="0"
     inkscape:window-maximized="1"
     inkscape:current-layer="svg5" />
  <defs
     id="defs2" />
  <g
     id="Baseplate"
     style="display:none">
    <text
       y="19.774782"
       xml:space="preserve"
       x="15.006946"
       style="font-style:normal;font-variant:normal;font-weight:normal;font-stretch:normal;line-height:0%;font-family:'DejaVu Sans';-inkscape-font-specification:'DejaVu Sans';display:inline;fill:#000000;fill-opacity:1;stroke:none;enable-background:new"
       inkscape:label="context"
       id="context"><tspan
         style="font-style:normal;font-variant:normal;font-weight:normal;font-stretch:normal;font-size:18px;line-height:1.25;font-family:'DejaVu Sans';-inkscape-font-specification:'DejaVu Sans'"
         y="19.774782"
         x="15.006946"
         sodipodi:role="line"
         id="tspan3933">apps</tspan></text>
    <text
       y="19.774782"
       xml:space="preserve"
       x="122.48839"
       style="font-style:normal;font-variant:normal;font-weight:bold;font-stretch:normal;line-height:0%;font-family:'DejaVu Sans';-inkscape-font-specification:'DejaVu Sans Bold';text-align:start;writing-mode:lr-tb;text-anchor:start;display:inline;fill:#000000;fill-opacity:1;stroke:none;enable-background:new"
       inkscape:label="icon-name"
       id="icon-name"><tspan
         style="font-style:normal;font-variant:normal;font-weight:bold;font-stretch:normal;font-size:18px;line-height:1.25;font-family:'DejaVu Sans';-inkscape-font-specification:'DejaVu Sans Bold'"
         y="19.774782"
         x="122.48839"
         sodipodi:role="line"
         id="tspan3937">preferences-desktop-online-accounts</tspan></text>
    <rect
       style="fill:#ffffff"
       id="256x256"
       width="256"
       height="256"
       x="16"
       y="28" />
    <rect
       style="fill:#ffffff"
       id="96x96"
       width="96"
       height="96"
       x="288"
       y="28" />
    <rect
       style="fill:#ffffff"
       id="64x64"
       width="64"
       height="64"
       x="288"
       y="140" />
    <rect
       style="fill:#ffffff"
       id="48x48"
       width="48"
       height="48"
       x="288"
       y="220" />
    <rect
       style="fill:#ffffff"
       id="32x32"
       width="32"
       height="32"
       x="416"
       y="52" />
    <rect
       style="fill:#ffffff"
       id="24x24"
       width="24"
       height="24"
       x="416"
       y="100" />
    <rect
       style="fill:#ffffff"
       id="22x22"
       width="22"
       height="22"
       x="417"
       y="101" />
    <rect
       style="fill:#ffffff"
       id="16x16"
       width="16"
       height="16"
       x="416"
       y="140" />
  </g>
  <g
     id="Shadow">
    <rect
       style="opacity:0.2;fill:#000000"
       id="rect651"
       width="224"
       height="224"
       x="32"
       y="46"
       ry="48" />
    <rect
       style="opacity:0.2;fill:#000000"
       id="rect769"
       width="84"
       height="85"
       x="294"
       y="34"
       ry="18" />
    <rect
       style="opacity:0.2;fill:#000000;fill-opacity:1"
       id="rect1131"
       width="56"
       height="56"
       x="292"
       y="145"
       ry="12" />
    <rect
       style="opacity:0.2;fill:#000000;fill-opacity:1"
       id="rect1261"
       width="42"
       height="42"
       x="291"
       y="224"
       ry="9" />
    <rect
       style="opacity:0.2;fill:#000000;fill-opacity:1"
       id="rect1364"
       width="28"
       height="29"
       x="418"
       y="54"
       ry="6" />
    <rect
       style="opacity:0.2;fill:#000000;fill-opacity:1"
       id="rect1398"
       width="16"
       height="16"
       x="416"
       y="141"
       ry="4" />
    <rect
       style="opacity:0.2;fill:#000000;fill-opacity:1"
       id="rect1432"
       width="20"
       height="20"
       x="418"
       y="103"
       ry="4" />
  </g>
  <g
     id="Background">
    <rect
       style="fill:#39b5fc;fill-opacity:1"
       id="rect597"
       width="224"
       height="224"
       x="32"
       y="44"
       ry="48" />
    <rect
       style="opacity:1;fill:#39b5fc;fill-opacity:1"
       id="rect771"
       width="84"
       height="84"
       x="294"
       y="34"
       ry="18" />
    <rect
       style="opacity:1;fill:#39b5fc;fill-opacity:1"
       id="rect1133"
       width="56"
       height="56"
       x="292"
       y="144"
       ry="12" />
    <rect
       style="opacity:1;fill:#39b5fc;fill-opacity:1"
       id="rect1263"
       width="42"
       height="42"
       x="291"
       y="223"
       ry="9" />
    <rect
       style="opacity:1;fill:#39b5fc;fill-opacity:1"
       id="rect1366"
       width="28"
       height="28"
       x="418"
       y="54"
       ry="6" />
    <rect
       style="opacity:1;fill:#39b5fc;fill-opacity:1"
       id="rect1400"
       width="16"
       height="16"
       x="416"
       y="140"
       ry="4" />
    <rect
       style="opacity:1;fill:#39b5fc;fill-opacity:1"
       id="rect1434"
       width="20"
       height="20"
       x="418"
       y="102"
       ry="4" />
  </g>
  <g
     id="Symbols">
    <g
       id="g1504"
       transform="translate(-17.067,5.4441681)">
      <path
         id="path586"
         style="opacity:0.2;fill:#000000;stroke-width:0.875;stroke-linecap:square"
         d="m 441.067,139.05583 c -1.39106,0.001 -2.64928,0.82636 -3.20508,2.10156 -1.0641,0.31281 -1.79489,1.28932 -1.79492,2.39844 0,1.38071 1.11929,2.5 2.5,2.5 h 5.5 c 1.10457,0 2,-0.89543 2,-2 -2.1e-4,-0.92308 -0.63214,-1.72611 -1.5293,-1.94336 -0.22309,-1.74697 -1.70954,-3.05608 -3.4707,-3.05664 z"
         sodipodi:nodetypes="ccsccccc" />
      <path
         d="m 441.067,138.55583 c -1.39106,0.001 -2.64928,0.82636 -3.20508,2.10156 -1.0641,0.31281 -1.79489,1.28931 -1.79492,2.39844 0,1.38071 1.11929,2.5 2.5,2.5 h 5.5 c 1.10457,0 2,-0.89543 2,-2 -2.1e-4,-0.92309 -0.63214,-1.72611 -1.5293,-1.94336 -0.22309,-1.74698 -1.70954,-3.05609 -3.4707,-3.05664 z"
         style="fill:#ffffff;stroke-width:0.875;stroke-linecap:square"
         id="path799" />
    </g>
    <g
       id="g1321"
       transform="translate(6.6311378,-1.9749374)">
      <path
         id="path840"
         style="opacity:0.2;fill:#000000;stroke-linecap:square"
         d="m 421.36886,109.47494 c -1.63783,0.004 -3.17005,0.80912 -4.10156,2.15625 -1.71531,0.49138 -2.89774,2.05945 -2.89844,3.84375 0,2.20914 1.79086,4 4,4 h 7 c 1.65685,0 3,-1.34315 3,-3 -3e-5,-1.30015 -0.83753,-2.4523 -2.07422,-2.85352 -0.41512,-2.3961 -2.49398,-4.14608 -4.92578,-4.14648 z"
         sodipodi:nodetypes="cccccscc" />
      <path
         d="m 421.36886,108.97494 c -1.63783,0.004 -3.17005,0.80912 -4.10156,2.15625 -1.71531,0.49138 -2.89774,2.05945 -2.89844,3.84375 0,2.20914 1.79086,4 4,4 h 7 c 1.65685,0 3,-1.34314 3,-3 -3e-5,-1.30015 -0.83753,-2.4523 -2.07422,-2.85352 -0.41512,-2.3961 -2.49399,-4.14607 -4.92578,-4.14648 z"
         style="opacity:1;fill:#ffffff;stroke-linecap:square"
         id="path906" />
    </g>
    <g
       id="g1006"
       transform="translate(17.732023,-84.477673)">
      <path
         d="m 414.26798,146.47767 c -2.78118,0.004 -5.29659,1.65278 -6.40821,4.20215 -2.12932,0.625 -3.5919,2.5787 -3.59179,4.79785 0,2.76142 2.23857,5 5,5 h 11 c 2.216,0 4,-1.784 4,-4 0,-1.89148 -1.29986,-3.46743 -3.0586,-3.88867 -0.44708,-3.49318 -3.41973,-6.11035 -6.9414,-6.11133 z"
         style="fill:#000000;stroke-width:0.583335;stroke-linecap:square;opacity:0.2"
         id="path649"
         sodipodi:nodetypes="cccssscc" />
      <path
         d="m 414.26798,145.47767 c -2.78118,0.004 -5.29659,1.65278 -6.40821,4.20215 -2.12932,0.625 -3.5919,2.5787 -3.59179,4.79785 0,2.76142 2.23857,5 5,5 h 11 c 2.216,0 4,-1.784 4,-4 0,-1.89148 -1.29986,-3.46743 -3.0586,-3.88867 -0.44708,-3.49318 -3.41973,-6.11035 -6.9414,-6.11133 z"
         style="fill:#ffffff;stroke-width:0.583335;stroke-linecap:square"
         id="path677" />
    </g>
    <g
       id="g650"
       transform="translate(288,220)">
      <path
         id="path926"
         style="opacity:0.2;fill:#000000;stroke-width:0.945735;stroke-linecap:square"
         d="m 24,14 c -3.756337,0.01026 -7.221052,2.026377 -9.085938,5.287109 C 11.427904,20.228664 9.0046847,23.388933 9,27 c 0,4.418278 3.581722,8 8,8 H 32.5 C 36.089851,35 39,32.089851 39,28.5 38.999267,25.585482 37.05861,23.027742 34.251953,22.242188 33.192269,17.429384 28.928084,14.001139 24,14 Z"
         sodipodi:nodetypes="cccccccc" />
      <path
         d="m 24,13 c -3.75634,0.0103 -7.22105,2.02638 -9.08594,5.28711 C 11.4279,19.22866 9.00468,22.38893 9,26 c 0,4.41828 3.58172,8 8,8 H 32.5 C 36.08985,34 39,31.08985 39,27.5 38.99927,24.58548 37.05861,22.02774 34.25195,21.24219 33.19227,16.42938 28.92808,13.00114 24,13 Z"
         style="fill:#ffffff;stroke-width:0.945735;stroke-linecap:square"
         id="path991"
         sodipodi:nodetypes="cccssccc" />
    </g>
    <g
       id="g1427">
      <path
         id="path355"
         style="opacity:0.2;fill:#000000;stroke-width:1.16667;stroke-linecap:square"
         d="m 320,159 c -5.56236,0.007 -10.59318,3.30556 -12.81641,8.4043 -4.25864,1.25001 -7.18381,5.1574 -7.18359,9.5957 0,5.52285 4.47715,10 10,10 h 22 c 4.432,0 8,-3.568 8,-8 0,-3.78296 -2.59972,-6.93486 -6.11719,-7.77734 C 332.98864,164.2363 327.04335,159.00197 320,159 Z"
         sodipodi:nodetypes="cccccscc" />
      <path
         d="m 320,158 c -5.56236,0.007 -10.59318,3.30556 -12.81641,8.4043 -4.25864,1.25001 -7.18381,5.1574 -7.18359,9.5957 0,5.52285 4.47715,10 10,10 h 22 c 4.432,0 8,-3.568 8,-8 0,-3.78296 -2.59972,-6.93486 -6.11719,-7.77734 C 332.98864,163.2363 327.04335,158.00197 320,158 Z"
         style="fill:#ffffff;stroke-width:1.16667;stroke-linecap:square"
         id="path706"
         sodipodi:nodetypes="cccssscc" />
    </g>
    <g
       id="g1071">
      <path
         d="m 336,56 c -7.51268,0.0208 -14.4421,4.05276 -18.17188,10.57422 C 310.8558,68.45732 306.00936,74.77786 306,82 c 0,8.83656 7.16344,16 16,16 h 31 c 7.1797,0 13,-5.8203 13,-13 -10e-4,-5.82904 -3.88278,-10.94452 -9.4961,-12.51562 C 354.38454,62.85876 345.85616,56.00228 336,56 Z"
         style="opacity:0.2;fill:#000000;stroke-width:1.89147;stroke-linecap:square"
         id="path1019"
         sodipodi:nodetypes="cccssccc" />
      <path
         d="m 336,55 c -7.51268,0.0208 -14.4421,4.05276 -18.17188,10.57422 C 310.8558,67.45732 306.00936,73.77786 306,81 c 0,8.83656 7.16344,16 16,16 h 31 c 7.1797,0 13,-5.8203 13,-13 -10e-4,-5.82904 -3.88278,-10.94452 -9.4961,-12.51562 C 354.38454,61.85876 345.85616,55.00228 336,55 Z"
         style="fill:#ffffff;stroke-width:0.945734;stroke-linecap:square"
         id="path1047" />
    </g>
    <g
       id="g786">
      <path
         d="m 144,102 c -22.24944,0.032 -42.3728,13.22224 -51.2656,33.61712 C 75.69984,140.61728 63.99904,156.24672 64,174 c 0,22.09136 17.90864,40 40,40 h 88 c 17.728,0 32,-14.272 32,-32 0,-15.13184 -10.39888,-27.73936 -24.4688,-31.10944 C 195.95456,122.94512 172.17344,102.00784 144,102 Z"
         style="opacity:0.2;fill:#000000;stroke-width:1.16667;stroke-linecap:square"
         id="path762" />
      <path
         d="m 144,100 c -22.24944,0.032 -42.3728,13.22224 -51.2656,33.61712 C 75.69984,138.61728 63.99904,154.24672 64,172 c 0,22.09136 17.90864,40 40,40 h 88 c 17.728,0 32,-14.272 32,-32 0,-15.13184 -10.39888,-27.73936 -24.4688,-31.10944 C 195.95456,120.94512 172.17344,100.00784 144,100 Z"
         style="fill:#ffffff;stroke-width:4.66668;stroke-linecap:square"
         id="path734"
         sodipodi:nodetypes="cccssscc" />
    </g>
  </g>
  <g
     id="Highlights">
    <path
       id="rect653"
       style="opacity:0.2;fill:#ffffff"
       d="M 80,44 C 53.408027,44 32,65.408027 32,92 v 2 C 32,67.408027 53.408027,46 80,46 h 128 c 26.59197,0 48,21.408027 48,48 V 92 C 256,65.408027 234.59197,44 208,44 Z"
       sodipodi:nodetypes="sscsscsss" />
    <path
       id="rect773"
       style="opacity:0.2;fill:#ffffff"
       d="m 312,34 c -9.97199,0 -18,8.02801 -18,18 v 1 c 0,-9.97199 8.02801,-18 18,-18 h 48 c 9.97199,0 18,8.02801 18,18 v -1 c 0,-9.97199 -8.02801,-18 -18,-18 z" />
    <path
       id="rect1135"
       style="opacity:0.2;fill:#ffffff;fill-opacity:1"
       d="m 304,144 c -6.64799,0 -12,5.35201 -12,12 v 1 c 0,-6.64799 5.35201,-12 12,-12 h 32 c 6.64799,0 12,5.35201 12,12 v -1 c 0,-6.64799 -5.35201,-12 -12,-12 z" />
    <path
       id="rect1265"
       style="opacity:0.2;fill:#ffffff;fill-opacity:1"
       d="m 300,223 c -4.986,0 -9,4.014 -9,9 v 1 c 0,-4.986 4.014,-9 9,-9 h 24 c 4.986,0 9,4.014 9,9 v -1 c 0,-4.986 -4.014,-9 -9,-9 z" />
    <path
       id="rect1368"
       style="opacity:0.2;fill:#ffffff;fill-opacity:1"
       d="m 424,54 c -3.324,0 -6,2.676003 -6,6 v 1 c 0,-3.323997 2.676,-6 6,-6 h 16 c 3.324,0 6,2.676003 6,6 v -1 c 0,-3.323997 -2.676,-6 -6,-6 z" />
    <path
       id="rect1402"
       style="opacity:0.2;fill:#ffffff;fill-opacity:1"
       d="m 420,140 c -2.216,0 -4,1.784 -4,4 v 1 c 0,-2.216 1.784,-4 4,-4 h 8 c 2.216,0 4,1.784 4,4 v -1 c 0,-2.216 -1.784,-4 -4,-4 z" />
    <path
       id="rect1436"
       style="opacity:0.2;fill:#ffffff;fill-opacity:1"
       d="m 422,102 c -2.216,0 -4,1.784 -4,4 v 1 c 0,-2.216 1.784,-4 4,-4 h 12 c 2.216,0 4,1.784 4,4 v -1 c 0,-2.216 -1.784,-4 -4,-4 z" />
  </g>
</svg>
