<?xml version="1.0" encoding="UTF-8" standalone="no"?>
<!-- Created with Inkscape (http://www.inkscape.org/) -->

<svg
   width="480"
   height="300"
   viewBox="0 0 480 300"
   version="1.1"
   id="svg5"
   inkscape:version="1.2.2 (1:1.2.2+202305151914+b0a8486541)"
   sodipodi:docname="preferences-system-sound.svg"
   xmlns:inkscape="http://www.inkscape.org/namespaces/inkscape"
   xmlns:sodipodi="http://sodipodi.sourceforge.net/DTD/sodipodi-0.dtd"
   xmlns="http://www.w3.org/2000/svg"
   xmlns:svg="http://www.w3.org/2000/svg">
  <sodipodi:namedview
     id="namedview7"
     pagecolor="#888888"
     bordercolor="#000000"
     borderopacity="0.25"
     inkscape:showpageshadow="true"
     inkscape:pageopacity="0"
     inkscape:pagecheckerboard="0"
     inkscape:deskcolor="#888888"
     inkscape:document-units="px"
     showgrid="false"
     showborder="false"
     inkscape:zoom="2.6866667"
     inkscape:cx="240.07444"
     inkscape:cy="150"
     inkscape:window-width="1920"
     inkscape:window-height="1008"
     inkscape:window-x="0"
     inkscape:window-y="0"
     inkscape:window-maximized="1"
     inkscape:current-layer="svg5" />
  <defs
     id="defs2" />
  <g
     id="Baseplate"
     style="display:none">
    <text
       y="19.774782"
       xml:space="preserve"
       x="15.006946"
       style="font-style:normal;font-variant:normal;font-weight:normal;font-stretch:normal;line-height:0%;font-family:'DejaVu Sans';-inkscape-font-specification:'DejaVu Sans';display:inline;fill:#000000;fill-opacity:1;stroke:none;enable-background:new"
       inkscape:label="context"
       id="context"><tspan
         style="font-style:normal;font-variant:normal;font-weight:normal;font-stretch:normal;font-size:18px;line-height:1.25;font-family:'DejaVu Sans';-inkscape-font-specification:'DejaVu Sans'"
         y="19.774782"
         x="15.006946"
         sodipodi:role="line"
         id="tspan3933">apps</tspan></text>
    <text
       y="19.774782"
       xml:space="preserve"
       x="122.48839"
       style="font-style:normal;font-variant:normal;font-weight:bold;font-stretch:normal;line-height:0%;font-family:'DejaVu Sans';-inkscape-font-specification:'DejaVu Sans Bold';text-align:start;writing-mode:lr-tb;text-anchor:start;display:inline;fill:#000000;fill-opacity:1;stroke:none;enable-background:new"
       inkscape:label="icon-name"
       id="icon-name"><tspan
         style="font-style:normal;font-variant:normal;font-weight:bold;font-stretch:normal;font-size:18px;line-height:1.25;font-family:'DejaVu Sans';-inkscape-font-specification:'DejaVu Sans Bold'"
         y="19.774782"
         x="122.48839"
         sodipodi:role="line"
         id="tspan3937">preferences-system-sound</tspan></text>
    <rect
       style="fill:#ffffff"
       id="256x256"
       width="256"
       height="256"
       x="16"
       y="28" />
    <rect
       style="fill:#ffffff"
       id="96x96"
       width="96"
       height="96"
       x="288"
       y="28" />
    <rect
       style="fill:#ffffff"
       id="64x64"
       width="64"
       height="64"
       x="288"
       y="140" />
    <rect
       style="fill:#ffffff"
       id="48x48"
       width="48"
       height="48"
       x="288"
       y="220" />
    <rect
       style="fill:#ffffff"
       id="32x32"
       width="32"
       height="32"
       x="416"
       y="52" />
    <rect
       style="fill:#ffffff"
       id="24x24"
       width="24"
       height="24"
       x="416"
       y="100" />
    <rect
       style="fill:#ffffff"
       id="22x22"
       width="22"
       height="22"
       x="417"
       y="101" />
    <rect
       style="fill:#ffffff"
       id="16x16"
       width="16"
       height="16"
       x="416"
       y="140" />
  </g>
  <g
     id="Shadow">
    <rect
       style="opacity:0.2;fill:#000000"
       id="rect651"
       width="224"
       height="224"
       x="32"
       y="46"
       ry="48" />
    <rect
       style="opacity:0.2;fill:#000000"
       id="rect769"
       width="84"
       height="85"
       x="294"
       y="34"
       ry="18" />
    <rect
       style="opacity:0.2;fill:#000000;fill-opacity:1"
       id="rect1131"
       width="56"
       height="56"
       x="292"
       y="145"
       ry="12" />
    <rect
       style="opacity:0.2;fill:#000000;fill-opacity:1"
       id="rect1261"
       width="42"
       height="42"
       x="291"
       y="224"
       ry="9" />
    <rect
       style="opacity:0.2;fill:#000000;fill-opacity:1"
       id="rect1364"
       width="28"
       height="29"
       x="418"
       y="54"
       ry="6" />
    <rect
       style="opacity:0.2;fill:#000000;fill-opacity:1"
       id="rect1398"
       width="16"
       height="16"
       x="416"
       y="141"
       ry="4" />
    <rect
       style="opacity:0.2;fill:#000000;fill-opacity:1"
       id="rect1432"
       width="20"
       height="20"
       x="418"
       y="103"
       ry="4" />
  </g>
  <g
     id="Background">
    <rect
       style="fill:#bdbdbd;fill-opacity:1"
       id="rect597"
       width="224"
       height="224"
       x="32"
       y="44"
       ry="48" />
    <rect
       style="opacity:1;fill:#bdbdbd;fill-opacity:1"
       id="rect771"
       width="84"
       height="84"
       x="294"
       y="34"
       ry="18" />
    <rect
       style="opacity:1;fill:#bdbdbd;fill-opacity:1"
       id="rect1133"
       width="56"
       height="56"
       x="292"
       y="144"
       ry="12" />
    <rect
       style="opacity:1;fill:#bdbdbd;fill-opacity:1"
       id="rect1263"
       width="42"
       height="42"
       x="291"
       y="223"
       ry="9" />
    <rect
       style="opacity:1;fill:#bdbdbd;fill-opacity:1"
       id="rect1366"
       width="28"
       height="28"
       x="418"
       y="54"
       ry="6" />
    <rect
       style="opacity:1;fill:#bdbdbd;fill-opacity:1"
       id="rect1400"
       width="16"
       height="16"
       x="416"
       y="140"
       ry="4" />
    <rect
       style="opacity:1;fill:#bdbdbd;fill-opacity:1"
       id="rect1434"
       width="20"
       height="20"
       x="418"
       y="102"
       ry="4" />
  </g>
  <g
     id="g1980">
    <g
       id="g3106">
      <path
         id="path2657"
         style="color:#444444;fill:#000000;fill-opacity:1;opacity:0.2"
         d="m 423,144.5 -2,2 h -2 v 4 h 2 l 2,2 z m 1,0 v 1 c 1.65685,0 3,1.34315 3,3 0,1.65685 -1.34315,3 -3,3 v 1 c 2.20914,0 4,-1.79086 4,-4 0,-2.20914 -1.79086,-4 -4,-4 z m 0,2 v 4 c 1.10457,0 2,-0.89543 2,-2 0,-1.10457 -0.89543,-2 -2,-2 z"
         sodipodi:nodetypes="cccccccccsccscccsc" />
      <path
         d="m 423,144 -2,2 h -2 v 4 h 2 l 2,2 z m 1,0 v 1 c 1.65685,0 3,1.34315 3,3 0,1.65685 -1.34315,3 -3,3 v 1 c 2.20914,0 4,-1.79086 4,-4 0,-2.20914 -1.79086,-4 -4,-4 z m 0,2 v 4 c 1.10457,0 2,-0.89543 2,-2 0,-1.10457 -0.89543,-2 -2,-2 z"
         style="color:#444444;fill:#5f5f5f;fill-opacity:1"
         id="path3084" />
    </g>
    <g
       id="g2666">
      <path
         d="m 428,105.5 -4,4 h -3 v 6 h 3 l 4,4 z m 2,0 v 1.5 c 2.32,0.74 4,2.93 4,5.5 0,2.57 -1.68,4.76 -4,5.5 v 1.5 c 3.15,-0.78 5.5,-3.6 5.5,-7 0,-3.4 -2.35,-6.22 -5.5,-7 z m 0,4 v 6 c 1.06,-0.58 1.789,-1.7 1.789,-3 0,-1.3 -0.719,-2.42 -1.789,-3 z"
         style="color:#444444;fill:#000000;opacity:0.2"
         id="path2118"
         sodipodi:nodetypes="cccccccccsccscccsc" />
      <path
         d="m 428,105 -4,4 h -3 v 6 h 3 l 4,4 z m 2,0 v 1.5 c 2.32,0.74 4,2.93 4,5.5 0,2.57 -1.68,4.76 -4,5.5 v 1.5 c 3.15,-0.78 5.5,-3.6 5.5,-7 0,-3.4 -2.35,-6.22 -5.5,-7 z m 0,4 v 6 c 1.06,-0.58 1.789,-1.7 1.789,-3 0,-1.3 -0.719,-2.42 -1.789,-3 z"
         style="color:#444444;fill:#5f5f5f;fill-opacity:1"
         id="path2146"
         sodipodi:nodetypes="cccccccccsccscccsc" />
    </g>
    <g
       id="g1963">
      <path
         d="m 431,61 -5,5 h -4 v 6 h 4 l 5,5 z m 3,0 v 2 c 2.85668,0.380972 4.99939,2.95222 5,6 -6.1e-4,3.04778 -2.14332,5.619028 -5,6 v 2 c 3.99935,-0.507962 6.99914,-3.936297 7,-8 -8.6e-4,-4.063703 -3.00065,-7.492038 -7,-8 z m 0,4 v 8 c 1.71401,-0.253982 2.99963,-1.968149 3,-4 -3.7e-4,-2.031851 -1.28599,-3.746018 -3,-4 z"
         style="opacity:0.2;fill:#000000;stroke-width:2.00811;stroke-linecap:round;stroke-linejoin:round"
         id="path1058"
         sodipodi:nodetypes="cccccccccccccccccc" />
      <path
         d="m 431,60 -5,5 h -4 v 6 h 4 l 5,5 z m 3,0 v 2 c 2.85668,0.380972 4.99939,2.95222 5,6 -6.1e-4,3.04778 -2.14332,5.619028 -5,6 v 2 c 3.99935,-0.507962 6.99914,-3.936297 7,-8 -8.6e-4,-4.063703 -3.00065,-7.492038 -7,-8 z m 0,4 v 8 c 1.71401,-0.253982 2.99963,-1.968149 3,-4 -3.7e-4,-2.031851 -1.28599,-3.746018 -3,-4 z"
         style="opacity:1;fill:#5f5f5f;stroke-width:2.00811;stroke-linecap:round;stroke-linejoin:round;fill-opacity:1"
         id="path1086"
         sodipodi:nodetypes="cccccccccccccccccc" />
    </g>
    <g
       id="g1959">
      <path
         d="m 311,233 -7,7 h -6 v 10 h 6 l 7,7 z m 4,0 v 3 c 4.50646,0.33849 7.99814,4.2709 8,9.00977 -0.0116,4.73134 -3.50068,8.65229 -8,8.99023 v 3 c 6.18632,-0.45057 10.98371,-5.67812 11,-11.98633 C 325.998,238.69493 321.19662,233.45134 315,233 Z m 0,6 v 12 c 2.8123,-0.22531 4.99305,-2.83966 5,-5.99414 -10e-4,-3.15899 -2.18369,-5.78022 -5,-6.00586 z"
         style="opacity:0.2;fill:#000000;fill-opacity:1;stroke-width:4.01622;stroke-linecap:round;stroke-linejoin:round"
         id="path1869"
         sodipodi:nodetypes="cccccccccccccccccc" />
      <path
         id="path1780"
         style="fill:#5f5f5f;fill-opacity:1;stroke-width:4.01622;stroke-linecap:round;stroke-linejoin:round"
         d="m 311,232 -7,7 h -6 v 10 h 6 l 7,7 z m 4,0 v 3 c 4.50646,0.33849 7.99814,4.2709 8,9.00977 -0.0116,4.73134 -3.50068,8.65229 -8,8.99023 v 3 c 6.18632,-0.45057 10.98371,-5.67812 11,-11.98633 C 325.998,237.69493 321.19662,232.45134 315,232 Z m 0,6 v 12 c 2.8123,-0.22531 4.99305,-2.83966 5,-5.99414 -10e-4,-3.15899 -2.18369,-5.78022 -5,-6.00586 z"
         sodipodi:nodetypes="cccccccccccccccccc" />
    </g>
    <g
       id="g1955">
      <path
         d="m 319,157 -10,10 h -8 v 12 h 8 l 10,10 z m 6,0 v 4 c 5.71336,0.76194 9.99878,5.90444 10,12 -10e-4,6.09556 -4.28664,11.23806 -10,12 v 4 c 7.9987,-1.01592 13.99828,-7.87259 14,-16 -0.002,-8.12741 -6.0013,-14.98408 -14,-16 z m 0,8 v 16 c 3.42802,-0.50796 5.99926,-3.9363 6,-8 -7.4e-4,-4.0637 -2.57198,-7.49204 -6,-8 z"
         style="opacity:0.2;fill:#000000;stroke-width:4.01622;stroke-linecap:round;stroke-linejoin:round"
         id="path1142" />
      <path
         d="m 319,156 -10,10 h -8 v 12 h 8 l 10,10 z m 6,0 v 4 c 5.71336,0.76194 9.99878,5.90444 10,12 -10e-4,6.09556 -4.28664,11.23806 -10,12 v 4 c 7.9987,-1.01593 13.99828,-7.87259 14,-16 -0.002,-8.12741 -6.0013,-14.98408 -14,-16 z m 0,8 v 16 c 3.42802,-0.50796 5.99926,-3.9363 6,-8 -7.4e-4,-4.0637 -2.57198,-7.49204 -6,-8 z"
         style="fill:#5f5f5f;fill-opacity:1;stroke-width:4.01622;stroke-linecap:round;stroke-linejoin:round"
         id="path1114"
         sodipodi:nodetypes="cccccccccccccccccc" />
    </g>
    <g
       id="g1947">
      <path
         d="m 334,54 -14,14 h -12 v 20 h 12 l 14,14 z m 8,0 v 6 c 9.01292,0.67698 15.99628,8.5418 16,18.01954 C 357.9768,87.48222 350.99864,95.32412 342,96 v 6 C 354.37264,101.09886 363.96742,90.64376 364,78.02734 363.996,65.38986 354.39324,54.90268 342,54 Z m 0,12 v 24 c 5.6246,-0.45062 9.9861,-5.67932 10,-11.98828 C 351.998,71.69374 347.63262,66.45128 342,66 Z"
         style="fill:#000000;fill-opacity:1;stroke-width:8.03244;stroke-linecap:round;stroke-linejoin:round;opacity:0.2"
         id="path1925" />
      <path
         d="m 334,53 -14,14 h -12 v 20 h 12 l 14,14 z m 8,0 v 6 c 9.01292,0.67698 15.99628,8.5418 16,18.01954 C 357.9768,86.48222 350.99864,94.32412 342,95 v 6 C 354.37264,100.09886 363.96742,89.64376 364,77.02734 363.996,64.38986 354.39324,53.90268 342,53 Z m 0,12 v 24 c 5.6246,-0.45062 9.9861,-5.67932 10,-11.98828 C 351.998,70.69374 347.63262,65.45128 342,65 Z"
         style="fill:#5f5f5f;fill-opacity:1;stroke-width:8.03244;stroke-linecap:round;stroke-linejoin:round"
         id="path1897"
         sodipodi:nodetypes="cccccccccccccccccc" />
    </g>
    <g
       id="g1951">
      <path
         d="m 140,94 -40,40 H 68 v 48 h 32 l 40,40 z m 24,0 v 16 c 22.85344,3.04776 39.99512,23.61776 40,48 -0.004,24.38224 -17.14656,44.95224 -40,48 v 16 c 31.9948,-4.06372 55.99312,-31.49036 56,-64 -0.008,-32.50964 -24.0052,-59.93632 -56,-64 z m 0,32 v 64 c 13.71208,-2.03184 23.99704,-15.7452 24,-32 -0.002,-16.2548 -10.28792,-29.96816 -24,-32 z"
         style="opacity:0.2;fill:#000000;fill-opacity:1;stroke-width:16.0649;stroke-linecap:round;stroke-linejoin:round"
         id="path1752" />
      <path
         d="m 140,92 -40,40 H 68 v 48 h 32 l 40,40 z m 24,0 v 16 c 22.85344,3.04776 39.99512,23.61776 40,48 -0.004,24.38224 -17.14656,44.95224 -40,48 v 16 c 31.9948,-4.06372 55.99312,-31.49036 56,-64 -0.008,-32.50964 -24.0052,-59.93632 -56,-64 z m 0,32 v 64 c 13.71208,-2.03184 23.99704,-15.7452 24,-32 -0.002,-16.2548 -10.28792,-29.96816 -24,-32 z"
         style="fill:#5f5f5f;fill-opacity:1;stroke-width:16.0649;stroke-linecap:round;stroke-linejoin:round"
         id="path1724"
         sodipodi:nodetypes="cccccccccccccccccc" />
    </g>
  </g>
  <g
     id="Highlights">
    <path
       id="rect653"
       style="opacity:0.2;fill:#ffffff"
       d="M 80,44 C 53.408027,44 32,65.408027 32,92 v 2 C 32,67.408027 53.408027,46 80,46 h 128 c 26.59197,0 48,21.408027 48,48 V 92 C 256,65.408027 234.59197,44 208,44 Z"
       sodipodi:nodetypes="sscsscsss" />
    <path
       id="rect773"
       style="opacity:0.2;fill:#ffffff"
       d="m 312,34 c -9.97199,0 -18,8.02801 -18,18 v 1 c 0,-9.97199 8.02801,-18 18,-18 h 48 c 9.97199,0 18,8.02801 18,18 v -1 c 0,-9.97199 -8.02801,-18 -18,-18 z" />
    <path
       id="rect1135"
       style="opacity:0.2;fill:#ffffff;fill-opacity:1"
       d="m 304,144 c -6.64799,0 -12,5.35201 -12,12 v 1 c 0,-6.64799 5.35201,-12 12,-12 h 32 c 6.64799,0 12,5.35201 12,12 v -1 c 0,-6.64799 -5.35201,-12 -12,-12 z" />
    <path
       id="rect1265"
       style="opacity:0.2;fill:#ffffff;fill-opacity:1"
       d="m 300,223 c -4.986,0 -9,4.014 -9,9 v 1 c 0,-4.986 4.014,-9 9,-9 h 24 c 4.986,0 9,4.014 9,9 v -1 c 0,-4.986 -4.014,-9 -9,-9 z" />
    <path
       id="rect1368"
       style="opacity:0.2;fill:#ffffff;fill-opacity:1"
       d="m 424,54 c -3.324,0 -6,2.676003 -6,6 v 1 c 0,-3.323997 2.676,-6 6,-6 h 16 c 3.324,0 6,2.676003 6,6 v -1 c 0,-3.323997 -2.676,-6 -6,-6 z" />
    <path
       id="rect1402"
       style="opacity:0.2;fill:#ffffff;fill-opacity:1"
       d="m 420,140 c -2.216,0 -4,1.784 -4,4 v 1 c 0,-2.216 1.784,-4 4,-4 h 8 c 2.216,0 4,1.784 4,4 v -1 c 0,-2.216 -1.784,-4 -4,-4 z" />
    <path
       id="rect1436"
       style="opacity:0.2;fill:#ffffff;fill-opacity:1"
       d="m 422,102 c -2.216,0 -4,1.784 -4,4 v 1 c 0,-2.216 1.784,-4 4,-4 h 12 c 2.216,0 4,1.784 4,4 v -1 c 0,-2.216 -1.784,-4 -4,-4 z" />
  </g>
</svg>
