<?xml version="1.0" encoding="UTF-8" standalone="no"?>
<!-- Created with Inkscape (http://www.inkscape.org/) -->

<svg
   width="480"
   height="300"
   viewBox="0 0 480 300"
   version="1.1"
   id="svg5"
   inkscape:version="1.2.2 (1:1.2.2+202305151914+b0a8486541)"
   sodipodi:docname="pyrenamer.svg"
   xmlns:inkscape="http://www.inkscape.org/namespaces/inkscape"
   xmlns:sodipodi="http://sodipodi.sourceforge.net/DTD/sodipodi-0.dtd"
   xmlns="http://www.w3.org/2000/svg"
   xmlns:svg="http://www.w3.org/2000/svg">
  <sodipodi:namedview
     id="namedview7"
     pagecolor="#888888"
     bordercolor="#000000"
     borderopacity="0.25"
     inkscape:showpageshadow="true"
     inkscape:pageopacity="0"
     inkscape:pagecheckerboard="0"
     inkscape:deskcolor="#888888"
     inkscape:document-units="px"
     showgrid="false"
     showborder="false"
     inkscape:zoom="2.6866667"
     inkscape:cx="240.07444"
     inkscape:cy="150"
     inkscape:window-width="1920"
     inkscape:window-height="1008"
     inkscape:window-x="0"
     inkscape:window-y="0"
     inkscape:window-maximized="1"
     inkscape:current-layer="svg5" />
  <defs
     id="defs2" />
  <g
     id="Baseplate"
     style="display:none">
    <text
       y="19.774782"
       xml:space="preserve"
       x="15.006946"
       style="font-style:normal;font-variant:normal;font-weight:normal;font-stretch:normal;line-height:0%;font-family:'DejaVu Sans';-inkscape-font-specification:'DejaVu Sans';display:inline;fill:#000000;fill-opacity:1;stroke:none;enable-background:new"
       inkscape:label="context"
       id="context"><tspan
         style="font-style:normal;font-variant:normal;font-weight:normal;font-stretch:normal;font-size:18px;line-height:1.25;font-family:'DejaVu Sans';-inkscape-font-specification:'DejaVu Sans'"
         y="19.774782"
         x="15.006946"
         sodipodi:role="line"
         id="tspan3933">apps</tspan></text>
    <text
       y="19.774782"
       xml:space="preserve"
       x="122.48839"
       style="font-style:normal;font-variant:normal;font-weight:bold;font-stretch:normal;line-height:0%;font-family:'DejaVu Sans';-inkscape-font-specification:'DejaVu Sans Bold';text-align:start;writing-mode:lr-tb;text-anchor:start;display:inline;fill:#000000;fill-opacity:1;stroke:none;enable-background:new"
       inkscape:label="icon-name"
       id="icon-name"><tspan
         style="font-style:normal;font-variant:normal;font-weight:bold;font-stretch:normal;font-size:18px;line-height:1.25;font-family:'DejaVu Sans';-inkscape-font-specification:'DejaVu Sans Bold'"
         y="19.774782"
         x="122.48839"
         sodipodi:role="line"
         id="tspan3937">pyrenamer</tspan></text>
    <rect
       style="fill:#ffffff"
       id="256x256"
       width="256"
       height="256"
       x="16"
       y="28" />
    <rect
       style="fill:#ffffff"
       id="96x96"
       width="96"
       height="96"
       x="288"
       y="28" />
    <rect
       style="fill:#ffffff"
       id="64x64"
       width="64"
       height="64"
       x="288"
       y="140" />
    <rect
       style="fill:#ffffff"
       id="48x48"
       width="48"
       height="48"
       x="288"
       y="220" />
    <rect
       style="fill:#ffffff"
       id="32x32"
       width="32"
       height="32"
       x="416"
       y="52" />
    <rect
       style="fill:#ffffff"
       id="24x24"
       width="24"
       height="24"
       x="416"
       y="100" />
    <rect
       style="fill:#ffffff"
       id="22x22"
       width="22"
       height="22"
       x="417"
       y="101" />
    <rect
       style="fill:#ffffff"
       id="16x16"
       width="16"
       height="16"
       x="416"
       y="140" />
  </g>
  <g
     id="Shadow">
    <rect
       style="opacity:0.2;fill:#000000"
       id="rect651"
       width="224"
       height="224"
       x="32"
       y="46"
       ry="48" />
    <rect
       style="opacity:0.2;fill:#000000"
       id="rect769"
       width="84"
       height="85"
       x="294"
       y="34"
       ry="18" />
    <rect
       style="opacity:0.2;fill:#000000;fill-opacity:1"
       id="rect1131"
       width="56"
       height="56"
       x="292"
       y="145"
       ry="12" />
    <rect
       style="opacity:0.2;fill:#000000;fill-opacity:1"
       id="rect1261"
       width="42"
       height="42"
       x="291"
       y="224"
       ry="9" />
    <rect
       style="opacity:0.2;fill:#000000;fill-opacity:1"
       id="rect1364"
       width="28"
       height="29"
       x="418"
       y="54"
       ry="6" />
    <rect
       style="opacity:0.2;fill:#000000;fill-opacity:1"
       id="rect1398"
       width="16"
       height="16"
       x="416"
       y="141"
       ry="4" />
    <rect
       style="opacity:0.2;fill:#000000;fill-opacity:1"
       id="rect1432"
       width="20"
       height="20"
       x="418"
       y="103"
       ry="4" />
  </g>
  <g
     id="Background">
    <rect
       style="fill:#9e9e9e;fill-opacity:1"
       id="rect597"
       width="224"
       height="224"
       x="32"
       y="44"
       ry="48" />
    <rect
       style="opacity:1;fill:#9e9e9e;fill-opacity:1"
       id="rect771"
       width="84"
       height="84"
       x="294"
       y="34"
       ry="18" />
    <rect
       style="opacity:1;fill:#9e9e9e;fill-opacity:1"
       id="rect1133"
       width="56"
       height="56"
       x="292"
       y="144"
       ry="12" />
    <rect
       style="opacity:1;fill:#9e9e9e;fill-opacity:1"
       id="rect1263"
       width="42"
       height="42"
       x="291"
       y="223"
       ry="9" />
    <rect
       style="opacity:1;fill:#9e9e9e;fill-opacity:1"
       id="rect1366"
       width="28"
       height="28"
       x="418"
       y="54"
       ry="6" />
    <rect
       style="opacity:1;fill:#9e9e9e;fill-opacity:1"
       id="rect1400"
       width="16"
       height="16"
       x="416"
       y="140"
       ry="4" />
    <rect
       style="opacity:1;fill:#9e9e9e;fill-opacity:1"
       id="rect1434"
       width="20"
       height="20"
       x="418"
       y="102"
       ry="4" />
  </g>
  <g
     id="g1526">
    <g
       id="g1521">
      <path
         d="m 424,144.5 v 1 h 1 v 7 h -1 v 1 h 3 v -1 h -1 v -7 h 1 v -1 z m -4.21484,2 C 419.34987,146.5 419,146.87232 419,147.33398 v 3.33204 c 0,0.46166 0.34987,0.83398 0.78516,0.83398 H 424.5 v -1 H 420 v -3 h 4.5 v -1 z m 6.71484,0 v 1 h 1.5 v 3 h -1.5 v 1 h 1.71484 c 0.43529,0 0.78516,-0.37232 0.78516,-0.83398 v -3.33204 C 429,146.87232 428.65013,146.5 428.21484,146.5 Z m -5.5,2 v 1 h 3 v -1 z"
         style="fill:#000000;opacity:0.2"
         id="path1499" />
      <path
         d="m 424,144 v 1 h 1 v 7 h -1 v 1 h 3 v -1 h -1 v -7 h 1 v -1 z m -4.21484,2 C 419.34987,146 419,146.37232 419,146.83398 v 3.33204 C 419,150.62768 419.34987,151 419.78516,151 H 424.5 v -1 H 420 v -3 h 4.5 v -1 z m 6.71484,0 v 1 h 1.5 v 3 h -1.5 v 1 h 1.71484 C 428.65013,151 429,150.62768 429,150.16602 v -3.33204 C 429,146.37232 428.65013,146 428.21484,146 Z m -5.5,2 v 1 h 3 v -1 z"
         style="fill:#ffffff"
         id="path347"
         sodipodi:nodetypes="cccccccccccccssssccccccsccccccsssscccccc" />
    </g>
    <g
       id="g1867">
      <path
         d="m 428,106.5 v 1 h 2 v 10 h -2 v 1 h 5 v -1 h -2 v -10 h 2 v -1 z m -6,3 c -0.554,0 -1,0.446 -1,1 v 4 c 0,0.554 0.446,1 1,1 h 7 v -1 h -7 v -4 h 7 v -1 z m 10,0 v 1 h 2 v 4 h -2 v 1 h 2 c 0.554,0 1,-0.446 1,-1 v -4 c 0,-0.554 -0.446,-1 -1,-1 z m -9,2 v 2 h 5 v -2 z"
         style="fill:#000000;opacity:0.2"
         id="path1697" />
      <path
         d="m 428,106 v 1 h 2 v 10 h -2 v 1 h 5 v -1 h -2 v -10 h 2 v -1 z m -6,3 c -0.554,0 -1,0.446 -1,1 v 4 c 0,0.554 0.446,1 1,1 h 7 v -1 h -7 v -4 h 7 v -1 z m 10,0 v 1 h 2 v 4 h -2 v 1 h 2 c 0.554,0 1,-0.446 1,-1 v -4 c 0,-0.554 -0.446,-1 -1,-1 z m -9,2 v 2 h 5 v -2 z"
         style="fill:#ffffff"
         id="path1669"
         sodipodi:nodetypes="cccccccccccccssssccccccsccccccsssscccccc" />
    </g>
    <g
       id="g1973">
      <path
         d="m 432,62 v 1 h 3 v 12 h -3 v 1 h 7 v -1 h -3 V 63 h 3 v -1 z m -9,3 c -0.554,0 -1,0.446003 -1,1 v 6 c 0,0.553997 0.446,1 1,1 h 11 v -1 h -11 v -6 h 11 v -1 z m 14,0 v 1 h 4 v 6 h -4 v 1 h 4 c 0.554,0 1,-0.446003 1,-1 v -6 c 0,-0.553997 -0.446,-1 -1,-1 z m -12,3 v 2 h 8 v -2 z"
         style="opacity:0.2;fill:#000000"
         id="path1951"
         sodipodi:nodetypes="cccccccccccccssssccccccsccccccsssscccccc" />
      <path
         id="path1858"
         style="fill:#ffffff"
         d="m 432,61 v 1 h 3 v 12 h -3 v 1 h 7 v -1 h -3 V 62 h 3 v -1 z m -9,3 c -0.554,0 -1,0.446003 -1,1 v 6 c 0,0.553997 0.446,1 1,1 h 11 v -1 h -11 v -6 h 11 v -1 z m 14,0 v 1 h 4 v 6 h -4 v 1 h 4 c 0.554,0 1,-0.446003 1,-1 v -6 c 0,-0.553997 -0.446,-1 -1,-1 z m -12,3 v 2 h 8 v -2 z"
         sodipodi:nodetypes="cccccccccccccssssccccccsccccccsssscccccc" />
    </g>
    <g
       id="g1305"
       transform="matrix(2,0,0,2,-544,20)">
      <path
         d="m 428,106.5 v 1 h 2 v 10 h -2 v 1 h 5 v -1 h -2 v -10 h 2 v -1 z m -6.5,3 c -0.554,0 -1,0.446 -1,1 v 4 c 0,0.554 0.446,1 1,1 h 7.5 v -1 h -7.5 v -4 h 7.5 v -1 z m 10.5,0 v 1 h 2.5 v 4 H 432 v 1 h 2.5 c 0.554,0 1,-0.446 1,-1 v -4 c 0,-0.554 -0.446,-1 -1,-1 z m -9.5,2 v 2 h 5.5 v -2 z"
         style="opacity:0.2;fill:#000000"
         id="path1283"
         sodipodi:nodetypes="cccccccccccccssssccccccsccccccsssscccccc" />
      <path
         d="m 428,106 v 1 h 2 v 10 h -2 v 1 h 5 v -1 h -2 v -10 h 2 v -1 z m -6.5,3 c -0.554,0 -1,0.446 -1,1 v 4 c 0,0.554 0.446,1 1,1 h 7.5 v -1 h -7.5 v -4 h 7.5 v -1 z m 10.5,0 v 1 h 2.5 v 4 H 432 v 1 h 2.5 c 0.554,0 1,-0.446 1,-1 v -4 c 0,-0.554 -0.446,-1 -1,-1 z m -9.5,2 v 2 h 5.5 v -2 z"
         style="fill:#ffffff"
         id="path1255"
         sodipodi:nodetypes="cccccccccccccssssccccccsccccccsssscccccc" />
    </g>
    <g
       id="g2033">
      <path
         d="m 320,159 v 2 h 6 v 24 h -6 v 2 h 14 v -2 h -6 v -24 h 6 v -2 z m -18,6 c -1.108,0 -2,0.892 -2,2 v 12 c 0,1.10799 0.892,2 2,2 h 22 v -2 h -22 v -12 h 22 v -2 z m 28,0 v 2 h 8 v 12 h -8 v 2 h 8 c 1.108,0 2,-0.89201 2,-2 v -12 c 0,-1.108 -0.892,-2 -2,-2 z m -24,6 v 4 h 16 v -4 z"
         style="opacity:0.2;fill:#000000;stroke-width:2"
         id="path2011" />
      <path
         d="m 320,158 v 2 h 6 v 24 h -6 v 2 h 14 v -2 h -6 v -24 h 6 v -2 z m -18,6 c -1.108,0 -2,0.892 -2,2 v 12 c 0,1.10799 0.892,2 2,2 h 22 v -2 h -22 v -12 h 22 v -2 z m 28,0 v 2 h 8 v 12 h -8 v 2 h 8 c 1.108,0 2,-0.89201 2,-2 v -12 c 0,-1.108 -0.892,-2 -2,-2 z m -24,6 v 4 h 16 v -4 z"
         style="fill:#ffffff;stroke-width:2"
         id="path1983"
         sodipodi:nodetypes="cccccccccccccssssccccccsccccccsssscccccc" />
    </g>
    <g
       id="g1365">
      <path
         d="m 336,53 v 4 h 8 v 39.999997 h -8 V 101 h 20 v -4.000003 h -8 V 57 h 8 v -4 z m -26,11.999997 c -2.216,0 -4,1.784 -4,4 v 16 c 0,2.216 1.784,4 4,4 h 30 v -4 h -30 v -16 h 30 v -4 z m 42,0 v 4 h 10 v 16 h -10 v 4 h 10 c 2.216,0 4,-1.784 4,-4 v -16 c 0,-2.216 -1.784,-4 -4,-4 z m -37,9 v 6 h 21 v -6 z"
         style="fill:#000000;stroke-width:2;opacity:0.2"
         id="path1343" />
      <path
         d="m 336,52 v 4 h 8 v 40 h -8 v 4 h 20 v -4 h -8 V 56 h 8 v -4 z m -26,12 c -2.216,0 -4,1.784 -4,4 v 16 c 0,2.216 1.784,4 4,4 h 30 V 84 H 310 V 68 h 30 v -4 z m 42,0 v 4 h 10 v 16 h -10 v 4 h 10 c 2.216,0 4,-1.784 4,-4 V 68 c 0,-2.216 -1.784,-4 -4,-4 z m -37,9 v 6 h 21 v -6 z"
         style="fill:#ffffff;stroke-width:2"
         id="path1315"
         sodipodi:nodetypes="cccccccccccccssssccccccsccccccsssscccccc" />
    </g>
    <g
       id="g463"
       transform="matrix(4,0,0,4,-1136,-532)">
      <path
         d="m 320,158.5 v 2 h 6 v 24 h -6 v 2 h 14 v -2 h -6 v -24 h 6 v -2 z m -18,6 c -1.108,0 -2,0.892 -2,2 v 12 c 0,1.10799 0.892,2 2,2 h 22 v -2 h -22 v -12 h 22 v -2 z m 28,0 v 2 h 8 v 12 h -8 v 2 h 8 c 1.108,0 2,-0.89201 2,-2 v -12 c 0,-1.108 -0.892,-2 -2,-2 z m -24,6 v 4 h 16 v -4 z"
         style="opacity:0.2;fill:#000000;stroke-width:2"
         id="path441" />
      <path
         d="m 320,158 v 2 h 6 v 24 h -6 v 2 h 14 v -2 h -6 v -24 h 6 v -2 z m -18,6 c -1.108,0 -2,0.892 -2,2 v 12 c 0,1.10799 0.892,2 2,2 h 22 v -2 h -22 v -12 h 22 v -2 z m 28,0 v 2 h 8 v 12 h -8 v 2 h 8 c 1.108,0 2,-0.89201 2,-2 v -12 c 0,-1.108 -0.892,-2 -2,-2 z m -24,6 v 4 h 16 v -4 z"
         style="fill:#ffffff;stroke-width:2"
         id="path2043"
         sodipodi:nodetypes="cccccccccccccssssccccccsccccccsssscccccc" />
    </g>
  </g>
  <g
     id="Highlights">
    <path
       id="rect653"
       style="opacity:0.2;fill:#ffffff"
       d="M 80,44 C 53.408027,44 32,65.408027 32,92 v 2 C 32,67.408027 53.408027,46 80,46 h 128 c 26.59197,0 48,21.408027 48,48 V 92 C 256,65.408027 234.59197,44 208,44 Z"
       sodipodi:nodetypes="sscsscsss" />
    <path
       id="rect773"
       style="opacity:0.2;fill:#ffffff"
       d="m 312,34 c -9.97199,0 -18,8.02801 -18,18 v 1 c 0,-9.97199 8.02801,-18 18,-18 h 48 c 9.97199,0 18,8.02801 18,18 v -1 c 0,-9.97199 -8.02801,-18 -18,-18 z" />
    <path
       id="rect1135"
       style="opacity:0.2;fill:#ffffff;fill-opacity:1"
       d="m 304,144 c -6.64799,0 -12,5.35201 -12,12 v 1 c 0,-6.64799 5.35201,-12 12,-12 h 32 c 6.64799,0 12,5.35201 12,12 v -1 c 0,-6.64799 -5.35201,-12 -12,-12 z" />
    <path
       id="rect1265"
       style="opacity:0.2;fill:#ffffff;fill-opacity:1"
       d="m 300,223 c -4.986,0 -9,4.014 -9,9 v 1 c 0,-4.986 4.014,-9 9,-9 h 24 c 4.986,0 9,4.014 9,9 v -1 c 0,-4.986 -4.014,-9 -9,-9 z" />
    <path
       id="rect1368"
       style="opacity:0.2;fill:#ffffff;fill-opacity:1"
       d="m 424,54 c -3.324,0 -6,2.676003 -6,6 v 1 c 0,-3.323997 2.676,-6 6,-6 h 16 c 3.324,0 6,2.676003 6,6 v -1 c 0,-3.323997 -2.676,-6 -6,-6 z" />
    <path
       id="rect1402"
       style="opacity:0.2;fill:#ffffff;fill-opacity:1"
       d="m 420,140 c -2.216,0 -4,1.784 -4,4 v 1 c 0,-2.216 1.784,-4 4,-4 h 8 c 2.216,0 4,1.784 4,4 v -1 c 0,-2.216 -1.784,-4 -4,-4 z" />
    <path
       id="rect1436"
       style="opacity:0.2;fill:#ffffff;fill-opacity:1"
       d="m 422,102 c -2.216,0 -4,1.784 -4,4 v 1 c 0,-2.216 1.784,-4 4,-4 h 12 c 2.216,0 4,1.784 4,4 v -1 c 0,-2.216 -1.784,-4 -4,-4 z" />
  </g>
</svg>
