<?xml version="1.0" encoding="UTF-8" standalone="no"?>
<!-- Created with Inkscape (http://www.inkscape.org/) -->

<svg
   width="480"
   height="300"
   viewBox="0 0 480 300"
   version="1.1"
   id="svg5"
   inkscape:version="1.2.2 (1:1.2.2+202305151914+b0a8486541)"
   sodipodi:docname="scrcpy.svg"
   xmlns:inkscape="http://www.inkscape.org/namespaces/inkscape"
   xmlns:sodipodi="http://sodipodi.sourceforge.net/DTD/sodipodi-0.dtd"
   xmlns="http://www.w3.org/2000/svg"
   xmlns:svg="http://www.w3.org/2000/svg">
  <sodipodi:namedview
     id="namedview7"
     pagecolor="#888888"
     bordercolor="#000000"
     borderopacity="0.25"
     inkscape:showpageshadow="true"
     inkscape:pageopacity="0"
     inkscape:pagecheckerboard="0"
     inkscape:deskcolor="#888888"
     inkscape:document-units="px"
     showgrid="false"
     showborder="false"
     inkscape:zoom="2.6866667"
     inkscape:cx="240.07444"
     inkscape:cy="150"
     inkscape:window-width="1920"
     inkscape:window-height="1008"
     inkscape:window-x="0"
     inkscape:window-y="0"
     inkscape:window-maximized="1"
     inkscape:current-layer="svg5" />
  <defs
     id="defs2">
    <mask
       maskUnits="userSpaceOnUse"
       id="mask3221">
      <rect
         style="opacity:1;fill:#ffffff;fill-opacity:1;stroke-width:2;stroke-linecap:square"
         id="rect3223"
         width="16"
         height="16"
         x="416"
         y="140"
         ry="4" />
    </mask>
    <mask
       maskUnits="userSpaceOnUse"
       id="mask3915">
      <rect
         style="opacity:1;fill:#ffffff;fill-opacity:1;stroke-width:2;stroke-linecap:square"
         id="rect3917"
         width="20"
         height="20"
         x="418"
         y="102"
         ry="4" />
    </mask>
    <mask
       maskUnits="userSpaceOnUse"
       id="mask4820">
      <rect
         style="opacity:1;fill:#ffffff;fill-opacity:1;stroke-width:2;stroke-linecap:square"
         id="rect4822"
         width="28"
         height="28"
         x="418"
         y="54"
         ry="6" />
    </mask>
    <mask
       maskUnits="userSpaceOnUse"
       id="mask5167">
      <rect
         style="fill:#ffffff;fill-opacity:1;stroke-width:3.99999;stroke-linecap:square"
         id="rect5169"
         width="28"
         height="28"
         x="418"
         y="54"
         ry="6" />
    </mask>
    <mask
       maskUnits="userSpaceOnUse"
       id="mask5752">
      <rect
         style="fill:#ffffff;fill-opacity:1;stroke-width:4;stroke-linecap:square"
         id="rect5754"
         width="55.999992"
         height="56"
         x="292"
         y="144"
         ry="12" />
    </mask>
    <mask
       maskUnits="userSpaceOnUse"
       id="mask6274">
      <rect
         style="opacity:1;fill:#ffffff;fill-opacity:1;stroke-width:1;stroke-linecap:square"
         id="rect6276"
         width="21"
         height="21"
         x="417.5"
         y="101.5"
         ry="4.5" />
    </mask>
    <mask
       maskUnits="userSpaceOnUse"
       id="mask6528">
      <rect
         style="opacity:1;fill:#ffffff;fill-opacity:1;stroke-width:2;stroke-linecap:square"
         id="rect6530"
         width="42"
         height="42"
         x="291"
         y="223"
         ry="9" />
    </mask>
  </defs>
  <g
     id="Baseplate"
     style="display:none">
    <text
       y="19.774782"
       xml:space="preserve"
       x="15.006946"
       style="font-style:normal;font-variant:normal;font-weight:normal;font-stretch:normal;line-height:0%;font-family:'DejaVu Sans';-inkscape-font-specification:'DejaVu Sans';display:inline;fill:#000000;fill-opacity:1;stroke:none;enable-background:new"
       inkscape:label="context"
       id="context"><tspan
         style="font-style:normal;font-variant:normal;font-weight:normal;font-stretch:normal;font-size:18px;line-height:1.25;font-family:'DejaVu Sans';-inkscape-font-specification:'DejaVu Sans'"
         y="19.774782"
         x="15.006946"
         sodipodi:role="line"
         id="tspan3933">apps</tspan></text>
    <text
       y="19.774782"
       xml:space="preserve"
       x="122.48839"
       style="font-style:normal;font-variant:normal;font-weight:bold;font-stretch:normal;line-height:0%;font-family:'DejaVu Sans';-inkscape-font-specification:'DejaVu Sans Bold';text-align:start;writing-mode:lr-tb;text-anchor:start;display:inline;fill:#000000;fill-opacity:1;stroke:none;enable-background:new"
       inkscape:label="icon-name"
       id="icon-name"><tspan
         style="font-style:normal;font-variant:normal;font-weight:bold;font-stretch:normal;font-size:18px;line-height:1.25;font-family:'DejaVu Sans';-inkscape-font-specification:'DejaVu Sans Bold'"
         y="19.774782"
         x="122.48839"
         sodipodi:role="line"
         id="tspan3937">scrcpy</tspan></text>
    <rect
       style="fill:#ffffff"
       id="256x256"
       width="256"
       height="256"
       x="16"
       y="28" />
    <rect
       style="fill:#ffffff"
       id="96x96"
       width="96"
       height="96"
       x="288"
       y="28" />
    <rect
       style="fill:#ffffff"
       id="64x64"
       width="64"
       height="64"
       x="288"
       y="140" />
    <rect
       style="fill:#ffffff"
       id="48x48"
       width="48"
       height="48"
       x="288"
       y="220" />
    <rect
       style="fill:#ffffff"
       id="32x32"
       width="32"
       height="32"
       x="416"
       y="52" />
    <rect
       style="fill:#ffffff"
       id="24x24"
       width="24"
       height="24"
       x="416"
       y="100" />
    <rect
       style="fill:#ffffff"
       id="22x22"
       width="22"
       height="22"
       x="417"
       y="101" />
    <rect
       style="fill:#ffffff"
       id="16x16"
       width="16"
       height="16"
       x="416"
       y="140" />
  </g>
  <g
     id="Shadow">
    <rect
       style="opacity:0.2;fill:#000000"
       id="rect651"
       width="224"
       height="224"
       x="32"
       y="46"
       ry="48" />
    <rect
       style="opacity:0.2;fill:#000000"
       id="rect769"
       width="84"
       height="85"
       x="294"
       y="34"
       ry="18" />
    <rect
       style="opacity:0.2;fill:#000000;fill-opacity:1"
       id="rect1131"
       width="56"
       height="56"
       x="292"
       y="145"
       ry="12" />
    <rect
       style="opacity:0.2;fill:#000000;fill-opacity:1"
       id="rect1261"
       width="42"
       height="42"
       x="291"
       y="224"
       ry="9" />
    <rect
       style="opacity:0.2;fill:#000000;fill-opacity:1"
       id="rect1364"
       width="28"
       height="29"
       x="418"
       y="54"
       ry="6" />
    <rect
       style="opacity:0.2;fill:#000000;fill-opacity:1"
       id="rect1398"
       width="16"
       height="16"
       x="416"
       y="141"
       ry="4" />
    <rect
       style="opacity:0.2;fill:#000000;fill-opacity:1"
       id="rect1432"
       width="20"
       height="20"
       x="418"
       y="103"
       ry="4" />
  </g>
  <g
     id="Background">
    <rect
       style="fill:#077063;fill-opacity:1"
       id="rect597"
       width="224"
       height="224"
       x="32"
       y="44"
       ry="48" />
    <rect
       style="opacity:1;fill:#077063;fill-opacity:1"
       id="rect771"
       width="84"
       height="84"
       x="294"
       y="34"
       ry="18" />
    <rect
       style="opacity:1;fill:#077063;fill-opacity:1"
       id="rect1133"
       width="56"
       height="56"
       x="292"
       y="144"
       ry="12" />
    <rect
       style="opacity:1;fill:#077063;fill-opacity:1"
       id="rect1263"
       width="42"
       height="42"
       x="291"
       y="223"
       ry="9" />
    <rect
       style="opacity:1;fill:#077063;fill-opacity:1"
       id="rect1366"
       width="28"
       height="28"
       x="418"
       y="54"
       ry="6" />
    <rect
       style="opacity:1;fill:#077063;fill-opacity:1"
       id="rect1400"
       width="16"
       height="16"
       x="416"
       y="140"
       ry="4" />
    <rect
       style="opacity:1;fill:#077063;fill-opacity:1"
       id="rect1434"
       width="20"
       height="20"
       x="418"
       y="102"
       ry="4" />
  </g>
  <g
     id="g3462">
    <g
       id="g3451">
      <rect
         style="opacity:1;fill:#e4e4e4;fill-opacity:1;stroke-width:2;stroke-linecap:square"
         id="rect2452"
         width="16"
         height="4"
         x="416"
         y="152"
         mask="url(#mask3221)" />
      <path
         id="path834"
         style="fill:#30dd81"
         d="m 419.5918,144.98438 c -0.1679,0.001 -0.33732,0.0589 -0.47657,0.17578 -0.31831,0.26708 -0.35887,0.73835 -0.0918,1.05664 l 1.04101,1.24023 c -1.14301,0.98231 -1.91272,2.38333 -2.06445,3.96485 -0.0276,0.57747 0.58203,0.57812 0.58203,0.57812 h 10.82031 c 0,0 0.62611,-0.001 0.59571,-0.60742 -0.15829,-1.57004 -0.92582,-2.9593 -2.0625,-3.93555 l 1.04101,-1.24023 c 0.26708,-0.31829 0.2265,-0.78957 -0.0918,-1.05664 -0.3183,-0.26708 -0.78957,-0.2265 -1.05665,0.0918 l -1.15039,1.3711 C 425.87116,146.22453 424.9615,146 424,146 c -0.96206,0 -1.87093,0.22403 -2.67773,0.62305 l -1.15039,-1.36914 c -0.15023,-0.17903 -0.3642,-0.27153 -0.58008,-0.26953 z"
         sodipodi:nodetypes="csccccccccsscsccc" />
      <path
         d="m 421,149.5 c -0.55228,0 -1,0.44772 -1,1 0,0.55228 0.44772,1 1,1 0.55228,0 1,-0.44772 1,-1 0,-0.55228 -0.44772,-1 -1,-1 z m 6,0 c -0.55228,0 -1,0.44772 -1,1 0,0.55228 0.44772,1 1,1 0.55228,0 1,-0.44772 1,-1 0,-0.55228 -0.44772,-1 -1,-1 z"
         style="fill:#000000;fill-opacity:1;stroke-width:2;stroke-linecap:square;opacity:0.2"
         id="path2856" />
      <path
         d="m 419.5918,145.48464 c -0.1679,10e-4 -0.33732,0.0589 -0.47657,0.17578 -0.31831,0.26708 -0.35887,0.73835 -0.0918,1.05664 l 1.04101,1.24023 c -1.14301,0.98231 -1.91272,2.38333 -2.06445,3.96485 -9.1e-4,0.57812 0.58203,0.57812 0.58203,0.57812 h 10.82031 c 0,0 0.59678,0.002 0.59767,-0.60742 -0.15829,-1.57004 -0.92778,-2.9593 -2.06446,-3.93555 l 1.04101,-1.24023 c 0.26708,-0.31829 0.2265,-0.78957 -0.0918,-1.05664 -0.3183,-0.26708 -0.78957,-0.2265 -1.05665,0.0918 l -1.15039,1.3711 c -0.80655,-0.39853 -1.71621,-0.62306 -2.67771,-0.62306 -0.96206,0 -1.87093,0.22403 -2.67773,0.62305 l -1.15039,-1.36914 c -0.15023,-0.17903 -0.3642,-0.27153 -0.58008,-0.26953 z"
         style="opacity:0.2;fill:#000000"
         id="path2912"
         sodipodi:nodetypes="csccccccccsscsccc" />
      <path
         d="m 419.5918,144.98438 c -0.1679,0.001 -0.33732,0.0589 -0.47657,0.17578 -0.31831,0.26708 -0.35887,0.73835 -0.0918,1.05664 l 1.04101,1.24023 c -1.14301,0.98231 -1.91272,2.38333 -2.06445,3.96485 C 417.99908,152 418.58202,152 418.58202,152 h 10.82031 c 0,0 0.59874,0 0.59767,-0.60742 -0.15829,-1.57004 -0.92778,-2.9593 -2.06446,-3.93555 l 1.04101,-1.24023 c 0.26708,-0.31829 0.2265,-0.78957 -0.0918,-1.05664 -0.3183,-0.26708 -0.78957,-0.2265 -1.05665,0.0918 l -1.15039,1.3711 C 425.87116,146.22453 424.9615,146 424,146 c -0.96206,0 -1.87093,0.22403 -2.67773,0.62305 l -1.15039,-1.36914 c -0.15023,-0.17903 -0.3642,-0.27153 -0.58008,-0.26953 z"
         style="fill:#30dd81"
         id="path2884"
         sodipodi:nodetypes="csccccccccsscsccc" />
      <path
         id="path3119"
         style="fill:#ffffff;opacity:0.2"
         d="M 419.5918 144.98438 C 419.4239 144.98537 419.25448 145.04328 419.11523 145.16016 C 418.86858 145.36711 418.78983 145.69644 418.89062 145.98242 C 418.93387 145.86102 419.00896 145.74933 419.11523 145.66016 C 419.25448 145.54328 419.4239 145.48537 419.5918 145.48438 C 419.80768 145.48238 420.02165 145.57488 420.17188 145.75391 L 421.32227 147.12305 C 422.12906 146.72403 423.03794 146.5 424 146.5 C 424.9615 146.5 425.87119 146.72452 426.67773 147.12305 L 427.82812 145.75195 C 428.0952 145.43365 428.56647 145.39308 428.88477 145.66016 C 428.99104 145.74932 429.06613 145.86102 429.10938 145.98242 C 429.21017 145.69644 429.13141 145.3671 428.88477 145.16016 C 428.56647 144.89308 428.0952 144.93365 427.82812 145.25195 L 426.67773 146.62305 C 425.87119 146.22452 424.9615 146 424 146 C 423.03794 146 422.12906 146.22403 421.32227 146.62305 L 420.17188 145.25391 C 420.02165 145.07488 419.80768 144.98238 419.5918 144.98438 z M 419.82617 147.67383 C 418.81541 148.6404 418.1409 149.95326 418 151.42188 C 417.99987 151.50517 418.01259 151.5757 418.0332 151.63672 C 418.24508 150.17205 418.99049 148.88 420.06445 147.95703 L 419.82617 147.67383 z M 428.17383 147.67383 L 427.93555 147.95703 C 429.00547 148.87594 429.74906 150.16206 429.96484 151.61914 C 429.98624 151.55477 430.00016 151.48062 430 151.39258 C 429.85307 149.93517 429.1789 148.63394 428.17383 147.67383 z " />
      <path
         d="m 421,149.5 c -0.55228,0 -1,0.44772 -1,1 0,0.55228 0.44772,1 1,1 0.55228,0 1,-0.44772 1,-1 0,-0.55228 -0.44772,-1 -1,-1 z m 6,0 c -0.55228,0 -1,0.44772 -1,1 0,0.55228 0.44772,1 1,1 0.55228,0 1,-0.44772 1,-1 0,-0.55228 -0.44772,-1 -1,-1 z"
         style="fill:#000000;fill-opacity:1;stroke-width:2;stroke-linecap:square;opacity:0.2"
         id="path3091" />
      <path
         id="path2766"
         style="opacity:1;fill:#ffffff;fill-opacity:1;stroke-width:2;stroke-linecap:square"
         d="m 421,149 c -0.55228,0 -1,0.44772 -1,1 0,0.55228 0.44772,1 1,1 0.55228,0 1,-0.44772 1,-1 0,-0.55228 -0.44772,-1 -1,-1 z m 6,0 c -0.55228,0 -1,0.44772 -1,1 0,0.55228 0.44772,1 1,1 0.55228,0 1,-0.44772 1,-1 0,-0.55228 -0.44772,-1 -1,-1 z"
         sodipodi:nodetypes="ssssssssss" />
    </g>
    <g
       id="g4271">
      <rect
         style="opacity:1;fill:#e4e4e4;fill-opacity:1;stroke-width:2;stroke-linecap:square"
         id="rect3911"
         width="20"
         height="5"
         x="418"
         y="117"
         mask="url(#mask3915)" />
      <path
         d="m 421.74805,108.50009 c -0.17225,8e-5 -0.34017,0.0598 -0.47461,0.16992 -0.3206,0.26299 -0.367,0.7364 -0.10352,1.05664 l 1.48438,1.80274 c -1.46954,1.30495 -2.45444,3.13829 -2.65235,5.20117 -0.0367,0.76997 0.77539,0.76953 0.77539,0.76953 h 14.42578 c 0,0 0.83546,-1.7e-4 0.79493,-0.80859 -0.20643,-2.04746 -1.18941,-3.86539 -2.65039,-5.16211 l 1.48242,-1.80274 c 0.26349,-0.32024 0.21707,-0.79365 -0.10352,-1.05664 -0.15366,-0.12584 -0.35122,-0.18555 -0.54883,-0.16601 -0.19825,0.0188 -0.38113,0.1158 -0.50781,0.26953 l -1.53515,1.86718 c -1.2082,-0.72282 -2.62059,-1.14062 -4.13282,-1.14062 -1.51297,0 -2.92833,0.41704 -4.13672,1.14062 l -1.53515,-1.86718 c -0.12668,-0.15373 -0.30957,-0.25071 -0.50781,-0.26953 -0.0247,-0.002 -0.0496,-0.004 -0.0742,-0.004 z"
         style="fill:#000000;opacity:0.2"
         id="path3551" />
      <path
         id="path3436"
         style="fill:#30dd81"
         d="m 421.74805,108 c -0.17225,8e-5 -0.34017,0.0598 -0.47461,0.16992 -0.3206,0.26299 -0.367,0.7364 -0.10352,1.05664 l 1.48438,1.80274 c -1.46954,1.30495 -2.45444,3.13829 -2.65235,5.20117 -0.0367,0.76997 0.77539,0.76953 0.77539,0.76953 h 14.42578 c 0,0 0.83546,-1.7e-4 0.79493,-0.80859 -0.20643,-2.04746 -1.18941,-3.86539 -2.65039,-5.16211 l 1.48242,-1.80274 c 0.26349,-0.32024 0.21707,-0.79365 -0.10352,-1.05664 -0.15366,-0.12584 -0.35122,-0.18555 -0.54883,-0.16601 -0.19825,0.0188 -0.38113,0.1158 -0.50781,0.26953 l -1.53515,1.86718 C 430.92657,109.4178 429.51418,109 428.00195,109 c -1.51297,0 -2.92833,0.41704 -4.13672,1.14062 l -1.53515,-1.86718 c -0.12668,-0.15373 -0.30957,-0.25071 -0.50781,-0.26953 -0.0247,-0.002 -0.0496,-0.004 -0.0742,-0.004 z"
         sodipodi:nodetypes="scccccccccccccscccss" />
      <path
         d="m 424,113.5 c -0.55228,0 -1,0.44772 -1,1 0,0.55228 0.44772,1 1,1 0.55228,0 1,-0.44772 1,-1 0,-0.55228 -0.44772,-1 -1,-1 z m 8,0 c -0.55228,0 -1,0.44772 -1,1 0,0.55228 0.44772,1 1,1 0.55228,0 1,-0.44772 1,-1 0,-0.55228 -0.44772,-1 -1,-1 z"
         style="opacity:0.2;fill:#000000;fill-opacity:1;stroke-width:2;stroke-linecap:square"
         id="path3839"
         sodipodi:nodetypes="ssssssssss" />
      <path
         id="path3801"
         style="opacity:1;fill:#ffffff;fill-opacity:1;stroke-width:2;stroke-linecap:square"
         d="m 424,113 c -0.55228,0 -1,0.44772 -1,1 0,0.55228 0.44772,1 1,1 0.55228,0 1,-0.44772 1,-1 0,-0.55228 -0.44772,-1 -1,-1 z m 8,0 c -0.55228,0 -1,0.44772 -1,1 0,0.55228 0.44772,1 1,1 0.55228,0 1,-0.44772 1,-1 0,-0.55228 -0.44772,-1 -1,-1 z"
         sodipodi:nodetypes="ssssssssss" />
      <path
         id="path3579"
         style="fill:#ffffff;opacity:0.2"
         d="M 421.74805 108 C 421.5758 108.00008 421.40788 108.0598 421.27344 108.16992 C 421.02208 108.37611 420.942 108.71035 421.04492 109 C 421.08897 108.8752 421.16366 108.75997 421.27344 108.66992 C 421.40787 108.5598 421.57579 108.50008 421.74805 108.5 C 421.77265 108.5 421.79757 108.50191 421.82227 108.50391 C 422.02051 108.52273 422.2034 108.61971 422.33008 108.77344 L 423.86523 110.64062 C 425.07362 109.91705 426.48898 109.5 428.00195 109.5 C 429.51418 109.5 430.92657 109.91781 432.13477 110.64062 L 433.66992 108.77344 C 433.7966 108.61971 433.97948 108.52271 434.17773 108.50391 C 434.37534 108.48437 434.5729 108.54408 434.72656 108.66992 C 434.83689 108.76043 434.91115 108.87643 434.95508 109.00195 C 435.05893 108.71192 434.9784 108.37651 434.72656 108.16992 C 434.5729 108.04408 434.37534 107.98437 434.17773 108.00391 C 433.97948 108.02271 433.7966 108.11971 433.66992 108.27344 L 432.13477 110.14062 C 430.92657 109.41781 429.51418 109 428.00195 109 C 426.48898 109 425.07362 109.41705 423.86523 110.14062 L 422.33008 108.27344 C 422.2034 108.11971 422.02051 108.02273 421.82227 108.00391 C 421.79757 108.00191 421.77265 108 421.74805 108 z M 422.41992 111.24609 C 421.08075 112.53363 420.18912 114.27956 420.00195 116.23047 C 419.99707 116.33297 420.00802 116.42104 420.0293 116.49805 C 420.27649 114.53009 421.24021 112.785 422.6543 111.5293 L 422.41992 111.24609 z M 433.58008 111.24609 L 433.34766 111.5293 C 434.75572 112.77905 435.7179 114.5138 435.9707 116.4707 C 435.99189 116.39037 436.00339 116.29798 435.99805 116.19141 C 435.80282 114.25502 434.91193 112.52514 433.58008 111.24609 z " />
    </g>
    <g
       id="g4691">
      <rect
         style="opacity:1;fill:#e4e4e4;fill-opacity:1;stroke-width:1.87083;stroke-linecap:square"
         id="rect4672"
         width="28"
         height="7"
         x="418"
         y="75"
         mask="url(#mask4820)" />
      <path
         d="m 423.08578,63.001957 c -0.23755,-0.0086 -0.47098,0.06374 -0.66211,0.205078 -0.46535,0.345774 -0.56241,1.003272 -0.21679,1.46875 l 2.36719,3.181641 c -1.97869,1.789783 -3.30355,4.283107 -3.57227,7.083984 -0.0505,1.058711 1.06641,1.058594 1.06641,1.058594 h 19.83594 c 0,0 1.14947,2.58e-4 1.09375,-1.111328 -0.28032,-2.780404 -1.60055,-5.256712 -3.56836,-7.035156 l 2.36328,-3.175782 c 0.34694,-0.465817 0.2498,-1.12481 -0.2168,-1.470703 -0.46548,-0.345611 -1.12297,-0.24856 -1.46875,0.216797 l -2.36328,3.177734 c -1.67387,-1.015349 -3.63871,-1.601562 -5.74219,-1.601562 -2.10458,0 -4.06997,0.587035 -5.74414,1.603516 l -2.36523,-3.179688 c -0.19078,-0.255927 -0.48761,-0.411173 -0.80665,-0.421875 z"
         style="color:#000000;fill:#000000;stroke-linecap:round;-inkscape-stroke:none;opacity:0.2"
         id="path4682" />
      <path
         d="m 423.08579,62.001957 c -0.23756,-0.0086 -0.47099,0.06374 -0.66211,0.205078 -0.46536,0.345774 -0.56241,1.003272 -0.2168,1.46875 l 2.36719,3.181641 c -1.97869,1.789783 -3.30355,4.283107 -3.57227,7.083984 -0.0505,1.058711 1.06641,1.058594 1.06641,1.058594 h 19.83594 c 0,0 1.14947,2.58e-4 1.09375,-1.111328 -0.28032,-2.780404 -1.60054,-5.256712 -3.56836,-7.035156 l 2.36328,-3.175782 c 0.34694,-0.465817 0.2498,-1.12481 -0.2168,-1.470703 -0.46548,-0.345611 -1.12297,-0.24856 -1.46875,0.216797 l -2.36328,3.177734 c -1.67387,-1.015349 -3.63871,-1.601562 -5.74219,-1.601562 -2.10458,0 -4.06997,0.587035 -5.74414,1.603516 l -2.36523,-3.179688 c -0.19078,-0.255927 -0.48761,-0.411173 -0.80664,-0.421875 z"
         style="color:#000000;fill:#30dd81;stroke-linecap:round;-inkscape-stroke:none"
         id="path4652"
         sodipodi:nodetypes="cccccccccccccsccc" />
      <path
         d="m 426.5,71 c -0.82842,0 -1.5,0.67158 -1.5,1.5 0,0.82842 0.67158,1.5 1.5,1.5 0.82842,0 1.5,-0.67158 1.5,-1.5 0,-0.82842 -0.67158,-1.5 -1.5,-1.5 z m 11,0 c -0.82842,0 -1.5,0.67158 -1.5,1.5 0,0.82842 0.67158,1.5 1.5,1.5 0.82842,0 1.5,-0.67158 1.5,-1.5 0,-0.82842 -0.67158,-1.5 -1.5,-1.5 z"
         style="opacity:0.2;fill:#000000;fill-opacity:1;stroke-width:3;stroke-linecap:square"
         id="path4798"
         sodipodi:nodetypes="ssssssssss" />
      <path
         d="m 426.5,70 c -0.82842,0 -1.5,0.67158 -1.5,1.5 0,0.82842 0.67158,1.5 1.5,1.5 0.82842,0 1.5,-0.67158 1.5,-1.5 0,-0.82842 -0.67158,-1.5 -1.5,-1.5 z m 11,0 c -0.82842,0 -1.5,0.67158 -1.5,1.5 0,0.82842 0.67158,1.5 1.5,1.5 0.82842,0 1.5,-0.67158 1.5,-1.5 0,-0.82842 -0.67158,-1.5 -1.5,-1.5 z"
         style="fill:#ffffff;fill-opacity:1;stroke-width:3;stroke-linecap:square"
         id="path4770"
         sodipodi:nodetypes="ssssssssss" />
      <path
         id="path4714"
         style="color:#000000;fill:#ffffff;stroke-linecap:round;-inkscape-stroke:none;opacity:0.2"
         d="M 423.08594 62.001953 C 422.84838 61.993353 422.61495 62.065693 422.42383 62.207031 C 421.99909 62.522625 421.88543 63.096887 422.13086 63.548828 C 422.2014 63.419347 422.2977 63.300745 422.42383 63.207031 C 422.61495 63.065693 422.84838 62.993353 423.08594 63.001953 C 423.40497 63.012655 423.7018 63.167901 423.89258 63.423828 L 426.25781 66.603516 C 427.93198 65.587036 429.89738 65 432.00195 65 C 434.10543 65 436.07027 65.586215 437.74414 66.601562 L 440.10742 63.423828 C 440.4532 62.958472 441.11069 62.861421 441.57617 63.207031 C 441.70263 63.300777 441.79844 63.419163 441.86914 63.548828 C 442.11525 63.096478 442.00191 62.522631 441.57617 62.207031 C 441.11069 61.861421 440.4532 61.958472 440.10742 62.423828 L 437.74414 65.601562 C 436.07027 64.586215 434.10543 64 432.00195 64 C 429.89738 64 427.93198 64.587036 426.25781 65.603516 L 423.89258 62.423828 C 423.7018 62.167901 423.40497 62.012655 423.08594 62.001953 z M 439.86328 67.269531 L 439.42969 67.853516 C 441.27215 69.518666 442.54662 71.795818 442.93164 74.361328 C 442.97996 74.231401 443.00749 74.077047 442.99805 73.888672 C 442.7389 71.318247 441.58999 69.009034 439.86328 67.269531 z M 424.14062 67.273438 C 422.40347 69.024474 421.25049 71.350886 421.00195 73.941406 C 420.99332 74.122338 421.0202 74.270163 421.06836 74.394531 C 421.44728 71.816632 422.7253 69.529825 424.57422 67.857422 L 424.14062 67.273438 z " />
    </g>
    <g
       id="g6266"
       transform="matrix(2,0,0,2,-544,19.999999)">
      <rect
         style="opacity:1;fill:#e4e4e4;fill-opacity:1;stroke-width:1.04447;stroke-linecap:square"
         id="rect6270"
         width="21"
         height="6"
         x="417.5"
         y="116.5"
         mask="url(#mask6274)" />
      <path
         d="m 421.74805,108.00018 c -0.17225,8e-5 -0.34017,0.0598 -0.47461,0.16992 -0.3206,0.26299 -0.367,0.7364 -0.10352,1.05664 l 1.48438,1.80274 c -1.46954,1.30495 -2.45444,3.13829 -2.65235,5.20117 -0.0367,0.76997 0.77539,0.76953 0.77539,0.76953 h 14.42578 c 0,0 0.83546,-1.7e-4 0.79493,-0.80859 -0.20643,-2.04746 -1.18941,-3.86539 -2.65039,-5.16211 l 1.48242,-1.80274 c 0.26349,-0.32024 0.21707,-0.79365 -0.10352,-1.05664 -0.15366,-0.12584 -0.35122,-0.18555 -0.54883,-0.16601 -0.19825,0.0188 -0.38113,0.1158 -0.50781,0.26953 l -1.53515,1.86718 c -1.2082,-0.72282 -2.62059,-1.14062 -4.13282,-1.14062 -1.51297,0 -2.92833,0.41704 -4.13672,1.14062 l -1.53515,-1.86718 c -0.12668,-0.15373 -0.30957,-0.25071 -0.50781,-0.26953 -0.0247,-0.002 -0.0496,-0.004 -0.0742,-0.004 z"
         style="opacity:0.2;fill:#000000"
         id="path6129"
         sodipodi:nodetypes="ccccccccccccccsccccc" />
      <path
         d="m 421.74805,107.50009 c -0.17225,8e-5 -0.34017,0.0598 -0.47461,0.16992 -0.3206,0.26299 -0.367,0.7364 -0.10352,1.05664 l 1.48438,1.80274 c -1.46954,1.30495 -2.45444,3.13829 -2.65235,5.20117 -0.0367,0.76997 0.77539,0.76953 0.77539,0.76953 h 14.42578 c 0,0 0.83546,-1.7e-4 0.79493,-0.80859 -0.20643,-2.04746 -1.18941,-3.86539 -2.65039,-5.16211 l 1.48242,-1.80274 c 0.26349,-0.32024 0.21707,-0.79365 -0.10352,-1.05664 -0.15366,-0.12584 -0.35122,-0.18555 -0.54883,-0.16601 -0.19825,0.0188 -0.38113,0.1158 -0.50781,0.26953 l -1.53515,1.86718 c -1.2082,-0.72282 -2.62059,-1.14062 -4.13282,-1.14062 -1.51297,0 -2.92833,0.41704 -4.13672,1.14062 l -1.53515,-1.86718 c -0.12668,-0.15373 -0.30957,-0.25071 -0.50781,-0.26953 -0.0247,-0.002 -0.0496,-0.004 -0.0742,-0.004 z"
         style="fill:#30dd81"
         id="path6101"
         sodipodi:nodetypes="ccccccccccccccsccccc" />
      <path
         d="m 424,113.00009 c -0.55228,0 -1,0.44772 -1,1 0,0.55228 0.44772,1 1,1 0.55228,0 1,-0.44772 1,-1 0,-0.55228 -0.44772,-1 -1,-1 z m 8,0 c -0.55228,0 -1,0.44772 -1,1 0,0.55228 0.44772,1 1,1 0.55228,0 1,-0.44772 1,-1 0,-0.55228 -0.44772,-1 -1,-1 z"
         style="opacity:0.2;fill:#000000;fill-opacity:1;stroke-width:2;stroke-linecap:square"
         id="path6241"
         sodipodi:nodetypes="ssssssssss" />
      <path
         d="m 424,112.50009 c -0.55228,0 -1,0.44772 -1,1 0,0.55228 0.44772,1 1,1 0.55228,0 1,-0.44772 1,-1 0,-0.55228 -0.44772,-1 -1,-1 z m 8,0 c -0.55228,0 -1,0.44772 -1,1 0,0.55228 0.44772,1 1,1 0.55228,0 1,-0.44772 1,-1 0,-0.55228 -0.44772,-1 -1,-1 z"
         style="fill:#ffffff;fill-opacity:1;stroke-width:2;stroke-linecap:square"
         id="path6213"
         sodipodi:nodetypes="ssssssssss" />
      <path
         id="path6157"
         style="opacity:0.2;fill:#ffffff"
         d="m 421.74805,107.50009 c -0.17225,8e-5 -0.34017,0.0598 -0.47461,0.16992 -0.25136,0.20619 -0.33144,0.54043 -0.22852,0.83008 0.0441,-0.1248 0.11874,-0.24003 0.22852,-0.33008 0.13444,-0.11012 0.30236,-0.16984 0.47461,-0.16992 0.0246,0 0.0495,0.002 0.0742,0.004 0.19824,0.0188 0.38113,0.1158 0.50781,0.26953 l 1.53515,1.86718 c 1.20839,-0.72357 2.62375,-1.14062 4.13672,-1.14062 1.51223,0 2.92462,0.41781 4.13282,1.14062 l 1.53515,-1.86718 c 0.12668,-0.15373 0.30956,-0.25073 0.50781,-0.26953 0.19761,-0.0195 0.39517,0.0402 0.54883,0.16601 0.11033,0.0905 0.18459,0.20651 0.22852,0.33203 0.10385,-0.29003 0.0233,-0.62544 -0.22852,-0.83203 -0.15366,-0.12584 -0.35122,-0.18555 -0.54883,-0.16601 -0.19825,0.0188 -0.38113,0.1158 -0.50781,0.26953 l -1.53515,1.86718 c -1.20818,-0.7229 -2.62057,-1.14071 -4.1328,-1.14071 -1.51297,0 -2.92833,0.41705 -4.13672,1.14062 l -1.53515,-1.86718 c -0.12668,-0.15373 -0.30957,-0.25071 -0.50781,-0.26953 -0.0247,-0.002 -0.0496,-0.004 -0.0742,-0.004 z m 0.67187,3.24609 c -1.33917,1.28754 -2.2308,3.03347 -2.41797,4.98438 -0.005,0.1025 0.006,0.19057 0.0273,0.26758 0.24718,-1.96796 1.21091,-3.71305 2.625,-4.96875 z m 11.16016,0 -0.23242,0.28321 c 1.40806,1.24975 2.37025,2.9845 2.62304,4.9414 0.0212,-0.0803 0.0327,-0.17272 0.0273,-0.27929 -0.19523,-1.93639 -1.08612,-3.66627 -2.41797,-4.94532 z" />
    </g>
    <g
       id="g5136"
       transform="matrix(1.9999997,0,0,1.9999997,-543.99987,36.000025)">
      <rect
         style="opacity:1;fill:#e4e4e4;fill-opacity:1;stroke-width:2;stroke-linecap:square"
         id="rect5138"
         width="28"
         height="7"
         x="418"
         y="75"
         mask="url(#mask5167)" />
      <path
         d="m 423.08594,62.501957 c -0.23756,-0.0086 -0.47099,0.06374 -0.66211,0.205078 -0.46536,0.345774 -0.56241,1.003272 -0.2168,1.46875 l 2.36719,3.181641 c -1.97869,1.789783 -3.30355,4.283107 -3.57227,7.083984 -0.0505,1.058711 1.06641,1.058594 1.06641,1.058594 h 19.83594 c 0,0 1.14947,2.58e-4 1.09375,-1.111328 -0.28032,-2.780404 -1.60054,-5.256712 -3.56836,-7.035156 l 2.36328,-3.175782 c 0.34694,-0.465817 0.2498,-1.12481 -0.2168,-1.470703 -0.46548,-0.345611 -1.12297,-0.24856 -1.46875,0.216797 l -2.36328,3.177734 c -1.67387,-1.015349 -3.63871,-1.601562 -5.74219,-1.601562 -2.10458,0 -4.06997,0.587035 -5.74414,1.603516 l -2.36523,-3.179688 c -0.19078,-0.255927 -0.48761,-0.411173 -0.80664,-0.421875 z"
         style="color:#000000;opacity:0.2;fill:#000000;stroke-linecap:round;-inkscape-stroke:none"
         id="path4999"
         sodipodi:nodetypes="cccccccccccccsccc" />
      <path
         d="m 423.08579,62.001957 c -0.23756,-0.0086 -0.47099,0.06374 -0.66211,0.205078 -0.46536,0.345774 -0.56241,1.003272 -0.2168,1.46875 l 2.36719,3.181641 c -1.97869,1.789783 -3.30355,4.283107 -3.57227,7.083984 -0.0505,1.058711 1.06641,1.058594 1.06641,1.058594 h 19.83594 c 0,0 1.14947,2.58e-4 1.09375,-1.111328 -0.28032,-2.780404 -1.60054,-5.256712 -3.56836,-7.035156 l 2.36328,-3.175782 c 0.34694,-0.465817 0.2498,-1.12481 -0.2168,-1.470703 -0.46548,-0.345611 -1.12297,-0.24856 -1.46875,0.216797 l -2.36328,3.177734 c -1.67387,-1.015349 -3.63871,-1.601562 -5.74219,-1.601562 -2.10458,0 -4.06997,0.587035 -5.74414,1.603516 l -2.36523,-3.179688 c -0.19078,-0.255927 -0.48761,-0.411173 -0.80664,-0.421875 z"
         style="color:#000000;fill:#30dd81;stroke-linecap:round;-inkscape-stroke:none"
         id="path4971"
         sodipodi:nodetypes="cccccccccccccsccc" />
      <path
         d="m 426.5,70.5 c -0.82842,0 -1.5,0.67158 -1.5,1.5 0,0.82842 0.67158,1.5 1.5,1.5 0.82842,0 1.5,-0.67158 1.5,-1.5 0,-0.82842 -0.67158,-1.5 -1.5,-1.5 z m 11,0 c -0.82842,0 -1.5,0.67158 -1.5,1.5 0,0.82842 0.67158,1.5 1.5,1.5 0.82842,0 1.5,-0.67158 1.5,-1.5 0,-0.82842 -0.67158,-1.5 -1.5,-1.5 z"
         style="opacity:0.2;fill:#000000;fill-opacity:1;stroke-width:3;stroke-linecap:square"
         id="path5111"
         sodipodi:nodetypes="ssssssssss" />
      <path
         d="m 426.5,70 c -0.82842,0 -1.5,0.67158 -1.5,1.5 0,0.82842 0.67158,1.5 1.5,1.5 0.82842,0 1.5,-0.67158 1.5,-1.5 0,-0.82842 -0.67158,-1.5 -1.5,-1.5 z m 11,0 c -0.82842,0 -1.5,0.67158 -1.5,1.5 0,0.82842 0.67158,1.5 1.5,1.5 0.82842,0 1.5,-0.67158 1.5,-1.5 0,-0.82842 -0.67158,-1.5 -1.5,-1.5 z"
         style="fill:#ffffff;fill-opacity:1;stroke-width:3;stroke-linecap:square"
         id="path5083"
         sodipodi:nodetypes="ssssssssss" />
      <path
         id="path5027"
         style="color:#000000;opacity:0.2;fill:#ffffff;stroke-linecap:round;-inkscape-stroke:none"
         d="m 423.08594,62.001953 c -0.23756,-0.0086 -0.47099,0.06374 -0.66211,0.205078 -0.35249,0.26191 -0.49308,0.702827 -0.39063,1.103516 0.0547,-0.232937 0.18354,-0.449646 0.39063,-0.603516 0.19112,-0.141338 0.42455,-0.213678 0.66211,-0.205078 0.31903,0.0107 0.61586,0.165948 0.80664,0.421875 l 2.36523,3.179688 C 427.93198,65.087036 429.89738,64.5 432.00195,64.5 c 2.10348,0 4.06832,0.586215 5.74219,1.601562 l 2.36328,-3.177734 c 0.34578,-0.465356 1.00327,-0.562407 1.46875,-0.216797 0.20709,0.153516 0.33757,0.36896 0.39258,0.601563 0.10095,-0.400165 -0.0403,-0.840453 -0.39258,-1.101563 -0.46548,-0.34561 -1.12297,-0.248559 -1.46875,0.216797 l -2.36328,3.177734 C 436.07027,64.586215 434.10543,64 432.00195,64 c -2.10457,0 -4.06997,0.587036 -5.74414,1.603516 l -2.36523,-3.179688 c -0.19078,-0.255927 -0.48761,-0.411173 -0.80664,-0.421875 z m 16.5625,5.058594 -0.21875,0.292969 c 1.92372,1.738586 3.22551,4.145036 3.54492,6.849609 0.0183,-0.09407 0.0293,-0.196785 0.0234,-0.314453 -0.26971,-2.675172 -1.50398,-5.066709 -3.34961,-6.828125 z m -15.29297,0.0039 c -1.8563,1.772844 -3.09491,4.181498 -3.35352,6.876953 -0.005,0.113433 0.005,0.212309 0.0234,0.302735 0.3109,-2.72025 1.61692,-5.139247 3.54883,-6.886719 z" />
    </g>
    <g
       id="g6522"
       transform="matrix(2,0,0,2,-288,-412)">
      <rect
         style="opacity:1;fill:#e4e4e4;fill-opacity:1;stroke-width:2;stroke-linecap:square"
         id="rect6524"
         width="42"
         height="12"
         x="291"
         y="253"
         mask="url(#mask6528)" />
      <path
         d="m 299.49622,235.50018 c -0.3445,1.6e-4 -0.68033,0.1196 -0.94921,0.33984 -0.64119,0.52597 -0.73399,1.47278 -0.20704,2.11326 l 2.96873,3.60544 c -2.93905,2.60987 -4.90883,6.27652 -5.30464,10.40224 -0.0734,1.53992 1.55076,1.53904 1.55076,1.53904 h 28.85127 c 0,0 1.6709,-3.4e-4 1.58985,-1.61716 -0.41286,-4.09488 -2.3788,-7.73071 -5.30073,-10.32412 l 2.96481,-3.60544 c 0.52697,-0.64048 0.43413,-1.58729 -0.20704,-2.11326 -0.30732,-0.25168 -0.70243,-0.3711 -1.09765,-0.33202 -0.39649,0.0376 -0.76225,0.2316 -1.01561,0.53905 l -3.07027,3.73433 c -2.41637,-1.44563 -5.24113,-2.28122 -8.26555,-2.28122 -3.02591,0 -5.85661,0.83407 -8.27336,2.28122 l -3.07027,-3.73433 c -0.25336,-0.30745 -0.61914,-0.50141 -1.01561,-0.53905 -0.0494,-0.004 -0.0992,-0.008 -0.1484,-0.008 z"
         style="opacity:0.2;fill:#000000;stroke-width:0.99999"
         id="path6383"
         sodipodi:nodetypes="ccccccccccccccsccccc" />
      <path
         d="m 299.49622,235.0002 c -0.3445,1.6e-4 -0.68033,0.1196 -0.94921,0.33984 -0.64119,0.52597 -0.73399,1.47278 -0.20704,2.11326 l 2.96873,3.60544 c -2.93905,2.60987 -4.90883,6.27652 -5.30464,10.40224 -0.0734,1.53992 1.55076,1.53904 1.55076,1.53904 h 28.85127 c 0,0 1.6709,-3.4e-4 1.58985,-1.61716 -0.41286,-4.09488 -2.3788,-7.73071 -5.30073,-10.32412 l 2.96481,-3.60544 c 0.52697,-0.64048 0.43413,-1.58729 -0.20704,-2.11326 -0.30732,-0.25168 -0.70243,-0.3711 -1.09765,-0.33202 -0.39649,0.0376 -0.76225,0.2316 -1.01561,0.53905 l -3.07027,3.73433 c -2.41637,-1.44563 -5.24113,-2.28122 -8.26555,-2.28122 -3.02591,0 -5.85661,0.83407 -8.27336,2.28122 l -3.07027,-3.73433 c -0.25336,-0.30745 -0.61914,-0.50141 -1.01561,-0.53905 -0.0494,-0.004 -0.0992,-0.008 -0.1484,-0.008 z"
         style="fill:#30dd81;stroke-width:0.99999"
         id="path6355"
         sodipodi:nodetypes="ccccccccccccccsccccc" />
      <path
         d="m 304,245.5 c -1.10456,0 -2,0.89544 -2,2 0,1.10456 0.89544,2 2,2 1.10456,0 2,-0.89544 2,-2 0,-1.10456 -0.89544,-2 -2,-2 z m 16,0 c -1.10456,0 -2,0.89544 -2,2 0,1.10456 0.89544,2 2,2 1.10456,0 2,-0.89544 2,-2 0,-1.10456 -0.89544,-2 -2,-2 z"
         style="opacity:0.2;fill:#000000;fill-opacity:1;stroke-width:2;stroke-linecap:square"
         id="path6495" />
      <path
         d="m 304,245.00018 c -1.10456,0 -2,0.89544 -2,2 0,1.10456 0.89544,2 2,2 1.10456,0 2,-0.89544 2,-2 0,-1.10456 -0.89544,-2 -2,-2 z m 16,0 c -1.10456,0 -2,0.89544 -2,2 0,1.10456 0.89544,2 2,2 1.10456,0 2,-0.89544 2,-2 0,-1.10456 -0.89544,-2 -2,-2 z"
         style="fill:#ffffff;fill-opacity:1;stroke-width:2;stroke-linecap:square"
         id="path6467" />
      <path
         id="path6411"
         style="opacity:0.2;fill:#ffffff;stroke-width:0.99999"
         d="m 299.49609,235 c -0.3445,1.6e-4 -0.68034,0.1196 -0.94921,0.33984 -0.43148,0.35394 -0.60841,0.89862 -0.52149,1.41211 0.0579,-0.34522 0.22963,-0.6727 0.52149,-0.91211 0.26887,-0.22024 0.60471,-0.33968 0.94921,-0.33984 0.0492,0 0.099,0.004 0.14844,0.008 0.39647,0.0376 0.76227,0.23162 1.01563,0.53907 l 3.07031,3.73437 c 2.41675,-1.44715 5.24753,-2.28125 8.27344,-2.28125 3.02441,0 5.84925,0.83562 8.26562,2.28125 l 3.07031,-3.73437 c 0.25336,-0.30745 0.61914,-0.50147 1.01563,-0.53907 0.39522,-0.0391 0.79034,0.0803 1.09765,0.33203 0.29185,0.23941 0.4636,0.56689 0.52149,0.91211 0.0869,-0.51349 -0.09,-1.05817 -0.52149,-1.41211 -0.30731,-0.25168 -0.70243,-0.37111 -1.09765,-0.33203 -0.39649,0.0376 -0.76227,0.23162 -1.01563,0.53907 l -3.07031,3.73437 C 317.85316,237.83562 315.02832,237 312.00391,237 c -3.02591,0 -5.85669,0.8341 -8.27344,2.28125 l -3.07031,-3.73437 c -0.25336,-0.30745 -0.61916,-0.50143 -1.01563,-0.53907 -0.0494,-0.004 -0.0992,-0.008 -0.14844,-0.008 z m 1.58008,6.27539 c -2.80848,2.59452 -4.68713,6.1711 -5.07226,10.18555 -0.006,0.12721 0.002,0.2406 0.0176,0.34765 0.42936,-4.06323 2.38451,-7.67249 5.28711,-10.25 z m 21.85156,0 -0.23242,0.2832 c 2.8896,2.56472 4.841,6.15 5.28321,10.18946 0.0153,-0.11251 0.0243,-0.23154 0.0176,-0.36524 -0.40166,-3.98382 -2.27654,-7.52975 -5.06836,-10.10742 z" />
    </g>
    <g
       id="g6091"
       transform="matrix(4.0000005,0,0,4.0000005,-1136.0002,-532.0001)">
      <rect
         style="opacity:1;fill:#e4e4e4;fill-opacity:1;stroke-width:2;stroke-linecap:square"
         id="rect5723"
         width="55.999992"
         height="13.999998"
         x="292"
         y="186"
         mask="url(#mask5752)" />
      <path
         d="m 302.1713,160.50391 c -0.47512,-0.0172 -0.94198,0.12748 -1.32422,0.41016 -0.93072,0.69154 -1.12482,2.00654 -0.4336,2.9375 l 4.73438,6.36328 c -3.95738,3.57956 -6.6071,8.56621 -7.14454,14.16795 -0.101,2.11742 2.13282,2.11719 2.13282,2.11719 h 39.67187 c 0,0 2.29894,5e-4 2.1875,-2.22266 -0.56064,-5.56079 -3.20108,-10.51341 -7.13672,-14.0703 l 4.72656,-6.35156 c 0.69388,-0.93163 0.4996,-2.24962 -0.4336,-2.9414 -0.93096,-0.69123 -2.24594,-0.49712 -2.9375,0.43359 l -4.72656,6.35547 c -3.34774,-2.0307 -7.27742,-3.20313 -11.48438,-3.20313 -4.20915,0 -8.13993,1.17407 -11.48827,3.20704 l -4.73046,-6.35938 c -0.38156,-0.51185 -0.97522,-0.82235 -1.61328,-0.84375 z"
         style="color:#000000;opacity:0.2;fill:#000000;stroke-width:1;stroke-linecap:round;-inkscape-stroke:none"
         id="path5807" />
      <path
         d="m 302.1713,160.00391 c -0.47512,-0.0172 -0.94198,0.12748 -1.32422,0.41016 -0.93072,0.69154 -1.12482,2.00654 -0.4336,2.9375 l 4.73438,6.36328 c -3.95738,3.57956 -6.6071,8.56621 -7.14454,14.16795 -0.101,2.11742 2.13282,2.11719 2.13282,2.11719 h 39.67187 c 0,0 2.29894,5e-4 2.1875,-2.22266 -0.56064,-5.56079 -3.20108,-10.51341 -7.13672,-14.0703 l 4.72656,-6.35156 c 0.69388,-0.93163 0.4996,-2.24962 -0.4336,-2.9414 -0.93096,-0.69123 -2.24594,-0.49712 -2.9375,0.43359 l -4.72656,6.35547 C 328.13995,165.17243 324.21027,164 320.00331,164 c -4.20915,0 -8.13993,1.17407 -11.48827,3.20704 l -4.73046,-6.35938 c -0.38156,-0.51185 -0.97522,-0.82235 -1.61328,-0.84375 z"
         style="color:#000000;fill:#30dd81;stroke-width:1;stroke-linecap:round;-inkscape-stroke:none"
         id="path5779"
         sodipodi:nodetypes="cccccccccccccsccc" />
      <path
         d="m 309,176.5 c -1.65684,0 -3,1.34316 -3,3 0,1.65684 1.34316,3 3,3 1.65684,0 3,-1.34316 3,-3 0,-1.65684 -1.34316,-3 -3,-3 z m 21.99999,0 c -1.65683,0 -3,1.34316 -3,3 0,1.65684 1.34317,3 3,3 1.65684,0 3,-1.34316 3,-3 0,-1.65684 -1.34316,-3 -3,-3 z"
         style="opacity:0.2;fill:#000000;fill-opacity:1;stroke-width:3;stroke-linecap:square"
         id="path5891" />
      <path
         d="m 309.00001,176 c -1.65684,0 -3,1.34316 -3,3 0,1.65684 1.34316,3 3,3 1.65684,0 3,-1.34316 3,-3 0,-1.65684 -1.34316,-3 -3,-3 z M 331,176 c -1.65684,0 -3,1.34316 -3,3 0,1.65684 1.34316,3 3,3 1.65684,0 3,-1.34316 3,-3 0,-1.65684 -1.34316,-3 -3,-3 z"
         style="fill:#ffffff;fill-opacity:1;stroke-width:3;stroke-linecap:square"
         id="path5919" />
      <path
         id="path5835"
         style="color:#000000;opacity:0.2;fill:#ffffff;stroke-width:1;stroke-linecap:round;-inkscape-stroke:none"
         d="m 337.99609,160.0021 c -0.67331,-0.0301 -1.34902,0.26401 -1.78125,0.84571 l -4.72656,6.35546 c -3.34774,-2.03069 -7.27742,-3.20312 -11.48437,-3.20312 -4.20915,0 -8.13995,1.17406 -11.48829,3.20703 l -4.73046,-6.35937 c -0.38156,-0.51185 -0.97523,-0.82235 -1.61328,-0.84375 -0.47512,-0.0172 -0.94198,0.12747 -1.32422,0.41015 -0.70398,0.52307 -0.98447,1.40267 -0.78125,2.20313 0.10994,-0.46428 0.36831,-0.89631 0.78125,-1.20313 0.38224,-0.28268 0.8491,-0.42735 1.32422,-0.41015 0.63805,0.0214 1.23172,0.3319 1.61328,0.84375 l 4.73046,6.35937 c 3.34834,-2.03297 7.27914,-3.20703 11.48829,-3.20703 4.20695,0 8.13663,1.17243 11.48437,3.20312 l 4.72656,-6.35546 c 0.69156,-0.93071 2.00654,-1.12483 2.9375,-0.4336 0.41382,0.30676 0.673,0.73839 0.78321,1.20313 0.20299,-0.80093 -0.0781,-1.68042 -0.78321,-2.20313 -0.34911,-0.25921 -0.75226,-0.39405 -1.15625,-0.41211 z m -2.69921,10.11914 -0.4375,0.58594 c 3.84882,3.47843 6.45221,8.29356 7.08984,13.70508 0.0374,-0.18957 0.0588,-0.39708 0.0469,-0.63477 -0.53942,-5.35032 -3.00794,-10.13341 -6.69921,-13.65625 z m -30.58594,0.008 c -3.7126,3.54568 -6.18982,8.36301 -6.70703,13.7539 -0.0109,0.22823 0.009,0.42771 0.0469,0.60938 0.62101,-5.44206 3.23292,-10.28158 7.09766,-13.77735 z" />
    </g>
  </g>
  <g
     id="Highlights">
    <path
       id="rect653"
       style="opacity:0.2;fill:#ffffff"
       d="M 80,44 C 53.408027,44 32,65.408027 32,92 v 2 C 32,67.408027 53.408027,46 80,46 h 128 c 26.59197,0 48,21.408027 48,48 V 92 C 256,65.408027 234.59197,44 208,44 Z"
       sodipodi:nodetypes="sscsscsss" />
    <path
       id="rect773"
       style="opacity:0.2;fill:#ffffff"
       d="m 312,34 c -9.97199,0 -18,8.02801 -18,18 v 1 c 0,-9.97199 8.02801,-18 18,-18 h 48 c 9.97199,0 18,8.02801 18,18 v -1 c 0,-9.97199 -8.02801,-18 -18,-18 z" />
    <path
       id="rect1135"
       style="opacity:0.2;fill:#ffffff;fill-opacity:1"
       d="m 304,144 c -6.64799,0 -12,5.35201 -12,12 v 1 c 0,-6.64799 5.35201,-12 12,-12 h 32 c 6.64799,0 12,5.35201 12,12 v -1 c 0,-6.64799 -5.35201,-12 -12,-12 z" />
    <path
       id="rect1265"
       style="opacity:0.2;fill:#ffffff;fill-opacity:1"
       d="m 300,223 c -4.986,0 -9,4.014 -9,9 v 1 c 0,-4.986 4.014,-9 9,-9 h 24 c 4.986,0 9,4.014 9,9 v -1 c 0,-4.986 -4.014,-9 -9,-9 z" />
    <path
       id="rect1368"
       style="opacity:0.2;fill:#ffffff;fill-opacity:1"
       d="m 424,54 c -3.324,0 -6,2.676003 -6,6 v 1 c 0,-3.323997 2.676,-6 6,-6 h 16 c 3.324,0 6,2.676003 6,6 v -1 c 0,-3.323997 -2.676,-6 -6,-6 z" />
    <path
       id="rect1402"
       style="opacity:0.2;fill:#ffffff;fill-opacity:1"
       d="m 420,140 c -2.216,0 -4,1.784 -4,4 v 1 c 0,-2.216 1.784,-4 4,-4 h 8 c 2.216,0 4,1.784 4,4 v -1 c 0,-2.216 -1.784,-4 -4,-4 z" />
    <path
       id="rect1436"
       style="opacity:0.2;fill:#ffffff;fill-opacity:1"
       d="m 422,102 c -2.216,0 -4,1.784 -4,4 v 1 c 0,-2.216 1.784,-4 4,-4 h 12 c 2.216,0 4,1.784 4,4 v -1 c 0,-2.216 -1.784,-4 -4,-4 z" />
  </g>
</svg>
