<?xml version="1.0" encoding="UTF-8" standalone="no"?>
<!-- Created with Inkscape (http://www.inkscape.org/) -->

<svg
   width="480"
   height="300"
   viewBox="0 0 480 300"
   version="1.1"
   id="svg5"
   inkscape:version="1.2.2 (1:1.2.2+202305151914+b0a8486541)"
   sodipodi:docname="scribus.svg"
   xmlns:inkscape="http://www.inkscape.org/namespaces/inkscape"
   xmlns:sodipodi="http://sodipodi.sourceforge.net/DTD/sodipodi-0.dtd"
   xmlns="http://www.w3.org/2000/svg"
   xmlns:svg="http://www.w3.org/2000/svg">
  <sodipodi:namedview
     id="namedview7"
     pagecolor="#888888"
     bordercolor="#000000"
     borderopacity="0.25"
     inkscape:showpageshadow="true"
     inkscape:pageopacity="0"
     inkscape:pagecheckerboard="0"
     inkscape:deskcolor="#888888"
     inkscape:document-units="px"
     showgrid="false"
     showborder="false"
     inkscape:zoom="2.6866667"
     inkscape:cx="240.07444"
     inkscape:cy="150"
     inkscape:window-width="1920"
     inkscape:window-height="1008"
     inkscape:window-x="0"
     inkscape:window-y="0"
     inkscape:window-maximized="1"
     inkscape:current-layer="svg5" />
  <defs
     id="defs2" />
  <g
     id="Baseplate"
     style="display:none">
    <text
       y="19.774782"
       xml:space="preserve"
       x="15.006946"
       style="font-style:normal;font-variant:normal;font-weight:normal;font-stretch:normal;line-height:0%;font-family:'DejaVu Sans';-inkscape-font-specification:'DejaVu Sans';display:inline;fill:#000000;fill-opacity:1;stroke:none;enable-background:new"
       inkscape:label="context"
       id="context"><tspan
         style="font-style:normal;font-variant:normal;font-weight:normal;font-stretch:normal;font-size:18px;line-height:1.25;font-family:'DejaVu Sans';-inkscape-font-specification:'DejaVu Sans'"
         y="19.774782"
         x="15.006946"
         sodipodi:role="line"
         id="tspan3933">apps</tspan></text>
    <text
       y="19.774782"
       xml:space="preserve"
       x="122.48839"
       style="font-style:normal;font-variant:normal;font-weight:bold;font-stretch:normal;line-height:0%;font-family:'DejaVu Sans';-inkscape-font-specification:'DejaVu Sans Bold';text-align:start;writing-mode:lr-tb;text-anchor:start;display:inline;fill:#000000;fill-opacity:1;stroke:none;enable-background:new"
       inkscape:label="icon-name"
       id="icon-name"><tspan
         style="font-style:normal;font-variant:normal;font-weight:bold;font-stretch:normal;font-size:18px;line-height:1.25;font-family:'DejaVu Sans';-inkscape-font-specification:'DejaVu Sans Bold'"
         y="19.774782"
         x="122.48839"
         sodipodi:role="line"
         id="tspan3937">scribus</tspan></text>
    <rect
       style="fill:#ffffff"
       id="256x256"
       width="256"
       height="256"
       x="16"
       y="28" />
    <rect
       style="fill:#ffffff"
       id="96x96"
       width="96"
       height="96"
       x="288"
       y="28" />
    <rect
       style="fill:#ffffff"
       id="64x64"
       width="64"
       height="64"
       x="288"
       y="140" />
    <rect
       style="fill:#ffffff"
       id="48x48"
       width="48"
       height="48"
       x="288"
       y="220" />
    <rect
       style="fill:#ffffff"
       id="32x32"
       width="32"
       height="32"
       x="416"
       y="52" />
    <rect
       style="fill:#ffffff"
       id="24x24"
       width="24"
       height="24"
       x="416"
       y="100" />
    <rect
       style="fill:#ffffff"
       id="22x22"
       width="22"
       height="22"
       x="417"
       y="101" />
    <rect
       style="fill:#ffffff"
       id="16x16"
       width="16"
       height="16"
       x="416"
       y="140" />
  </g>
  <g
     id="Shadow">
    <rect
       style="opacity:0.2;fill:#000000"
       id="rect651"
       width="224"
       height="224"
       x="32"
       y="46"
       ry="48" />
    <rect
       style="opacity:0.2;fill:#000000"
       id="rect769"
       width="84"
       height="85"
       x="294"
       y="34"
       ry="18" />
    <rect
       style="opacity:0.2;fill:#000000;fill-opacity:1"
       id="rect1131"
       width="56"
       height="56"
       x="292"
       y="145"
       ry="12" />
    <rect
       style="opacity:0.2;fill:#000000;fill-opacity:1"
       id="rect1261"
       width="42"
       height="42"
       x="291"
       y="224"
       ry="9" />
    <rect
       style="opacity:0.2;fill:#000000;fill-opacity:1"
       id="rect1364"
       width="28"
       height="29"
       x="418"
       y="54"
       ry="6" />
    <rect
       style="opacity:0.2;fill:#000000;fill-opacity:1"
       id="rect1398"
       width="16"
       height="16"
       x="416"
       y="141"
       ry="4" />
    <rect
       style="opacity:0.2;fill:#000000;fill-opacity:1"
       id="rect1432"
       width="20"
       height="20"
       x="418"
       y="103"
       ry="4" />
  </g>
  <g
     id="Background">
    <rect
       style="fill:#37a0f2;fill-opacity:1"
       id="rect597"
       width="224"
       height="224"
       x="32"
       y="44"
       ry="48" />
    <rect
       style="opacity:1;fill:#37a0f2;fill-opacity:1"
       id="rect771"
       width="84"
       height="84"
       x="294"
       y="34"
       ry="18" />
    <rect
       style="opacity:1;fill:#37a0f2;fill-opacity:1"
       id="rect1133"
       width="56"
       height="56"
       x="292"
       y="144"
       ry="12" />
    <rect
       style="opacity:1;fill:#37a0f2;fill-opacity:1"
       id="rect1263"
       width="42"
       height="42"
       x="291"
       y="223"
       ry="9" />
    <rect
       style="opacity:1;fill:#37a0f2;fill-opacity:1"
       id="rect1366"
       width="28"
       height="28"
       x="418"
       y="54"
       ry="6" />
    <rect
       style="opacity:1;fill:#37a0f2;fill-opacity:1"
       id="rect1400"
       width="16"
       height="16"
       x="416"
       y="140"
       ry="4" />
    <rect
       style="opacity:1;fill:#37a0f2;fill-opacity:1"
       id="rect1434"
       width="20"
       height="20"
       x="418"
       y="102"
       ry="4" />
  </g>
  <g
     id="g648"
     transform="translate(1)">
    <path
       d="m 423.1818,143.64534 c -1.02159,2.12091 -1.8885,4.26226 -2.4118,6.38417 -0.2772,1.13601 -0.5272,2.32936 -0.77,3.47048 h 0.45455 c 0.8368,-1.61001 2.3581,-2.74883 3.6363,-3.28439 0.0136,-1.16423 -0.0836,-2.5028 0.3009,-3.52326 0.15731,-0.42433 0.4046,-1.01945 0.6082,-1.40434 0,-1.0949 -1.3636,-2.18991 -1.81819,-1.64235 z"
       style="fill:#000000;fill-rule:evenodd;stroke-width:1.0541;opacity:0.2"
       id="path1336"
       sodipodi:nodetypes="ccccccccc" />
    <path
       d="m 423.1818,143.14534 c -1.02159,2.12091 -1.8885,4.26226 -2.4118,6.38417 -0.2772,1.13601 -0.5272,2.32936 -0.77,3.47048 h 0.45455 c 0.8368,-1.61001 2.3581,-2.74883 3.6363,-3.28439 0.0136,-1.16423 -0.0836,-2.5028 0.3009,-3.52326 0.15731,-0.42433 0.4046,-1.01945 0.6082,-1.40434 0,-1.0949 -1.3636,-2.18991 -1.81819,-1.64235 z"
       style="fill:#ffffff;fill-rule:evenodd;stroke-width:1.0541"
       id="path1364" />
    <g
       id="g1184">
      <path
         d="m 427.99985,105.99977 c -1.63455,2.76485 -2.9307,5.23251 -3.76785,7.9985 -0.4435,1.48051 -0.92009,3.94595 -1.232,5.5014 l 0.99985,1.2e-4 c 0.3595,-0.8045 1.07765,-2.57 1.57665,-3.1285 1.2385,-1.2885 2.4185,-1.8655 3.9235,-2.3715 0.022,-1.51699 -0.0885,-3.0215 0.5265,-4.352 0.252,-0.553 0.6475,-1.146 0.9735,-1.648 0,-1.5 -1.5,-3 -3,-2 z"
         style="fill:#000000;fill-rule:evenodd;stroke-width:0.5;opacity:0.2"
         id="path1162" />
      <path
         d="m 427.99985,105.49977 c -1.63455,2.76485 -2.9307,5.2325 -3.76785,7.9985 -0.4435,1.4805 -0.92009,3.94595 -1.232,5.5014 l 0.99985,1.2e-4 c 0.3595,-0.8045 1.07765,-2.57 1.57665,-3.1285 1.2385,-1.2885 2.4185,-1.8655 3.9235,-2.3715 0.022,-1.517 -0.0885,-3.0215 0.5265,-4.352 0.252,-0.553 0.6475,-1.146 0.9735,-1.648 0,-1.5 -1.5,-3 -3,-2 z"
         style="fill:#ffffff;fill-rule:evenodd;stroke-width:0.5"
         id="path1130"
         sodipodi:nodetypes="cccccccccc" />
    </g>
    <g
       id="g1139">
      <path
         d="m 432,59.639724 c -2.2475,3.874 -4.1548,7.7852 -5.306,11.661 -0.60982,2.0744 -1.1598,4.2229 -1.694,6.3071 0.87039,0.07496 0.3283,-0.0062 1,1.62e-4 1.841,-2.941 5.188,-4.99 8,-5.968 0.03,-2.126 -0.184,-4.571 0.662,-6.435 0.346,-0.775 0.89,-1.862 1.338,-2.565 0,-2 -3,-4 -4,-3 z"
         style="opacity:0.2;fill:#000000;fill-rule:evenodd"
         id="path791"
         sodipodi:nodetypes="ccccccccc" />
      <path
         d="m 432,58.639462 c -2.2475,3.874 -4.1548,7.7852 -5.306,11.661 -0.60982,2.0744 -1.1598,4.2229 -1.694,6.3071 0.87039,0.07496 0.3283,-0.0062 1,1.62e-4 1.841,-2.941 5.188,-4.99 8,-5.968 0.03,-2.126 -0.184,-4.571 0.662,-6.435 0.346,-0.775 0.89,-1.862 1.338,-2.565 0,-2 -3,-4 -4,-3 z"
         style="fill:#ffffff;fill-rule:evenodd"
         id="path846"
         sodipodi:nodetypes="ccccccccc" />
    </g>
    <g
       id="g594"
       transform="translate(-5.6189,-6.91241)">
      <path
         d="m 318.6186,238.91151 c -3.2691,5.5297 -5.8614,10.465 -7.5357,15.997 -0.887,2.961 -1.76271,8.03596 -2.464,11.0028 l 1.9997,2.3e-4 c 0.719,-1.609 2.1553,-5.14 3.1533,-6.257 2.477,-2.577 4.837,-3.731 7.847,-4.743 0.044,-3.034 -0.177,-6.043 1.053,-8.704 0.504,-1.106 1.295,-2.292 1.947,-3.296 0,-3 -3,-6 -6,-4 z"
         style="opacity:0.2;fill:#000000;fill-rule:evenodd"
         id="path382"
         sodipodi:nodetypes="cccccccccc" />
      <path
         d="m 318.6186,237.91196 c -3.2691,5.5297 -5.8614,10.465 -7.5357,15.997 -0.887,2.961 -1.84017,7.8919 -2.464,11.0028 l 1.9997,2.3e-4 c 0.719,-1.609 2.1553,-5.14 3.1533,-6.257 2.477,-2.577 4.837,-3.731 7.847,-4.743 0.044,-3.034 -0.177,-6.043 1.053,-8.704 0.504,-1.106 1.295,-2.292 1.947,-3.296 0,-3 -3,-6 -6,-4 z"
         style="fill:#ffffff;fill-rule:evenodd"
         id="path354"
         sodipodi:nodetypes="cccccccccc" />
    </g>
    <g
       id="g979"
       transform="matrix(2,0,0,2,-543,36)">
      <path
         d="m 432,59.639748 c -2.2475,3.874 -4.1548,7.7852 -5.306,11.661 -0.60982,2.0744 -1.1598,4.2229 -1.694,6.3071 0.87039,0.07496 0.3283,-0.0062 1,1.62e-4 1.841,-2.941 5.188,-4.99 8,-5.968 0.03,-2.126 -0.184,-4.571 0.662,-6.435 0.346,-0.775 0.89,-1.862 1.338,-2.565 0,-2 -3,-4 -4,-3 z"
         style="opacity:0.2;fill:#000000;fill-rule:evenodd"
         id="path902" />
      <path
         d="m 432,59.139224 c -2.2475,3.874 -4.1548,7.7852 -5.306,11.661 -0.60982,2.0744 -1.1598,4.2229 -1.694,6.3071 0.87039,0.07496 0.3283,-0.0062 1,1.62e-4 1.841,-2.941 5.188,-4.99 8,-5.968 0.03,-2.126 -0.184,-4.571 0.662,-6.435 0.346,-0.775 0.89,-1.862 1.338,-2.565 0,-2 -3,-4 -4,-3 z"
         style="fill:#ffffff;fill-rule:evenodd"
         id="path874"
         sodipodi:nodetypes="ccccccccc" />
    </g>
    <g
       id="g1105"
       transform="matrix(2,0,0,2,-287,-412)">
      <path
         d="m 312.9994,231.49955 c -3.2691,5.5297 -5.8614,10.465 -7.5357,15.997 -0.887,2.961 -1.687,8.0278 -2.464,11.0028 l 1.9997,2.3e-4 c 0.719,-1.609 2.1553,-5.14 3.1533,-6.257 2.477,-2.577 4.837,-3.731 7.847,-4.743 0.044,-3.034 -0.177,-6.043 1.053,-8.704 0.504,-1.106 1.295,-2.292 1.947,-3.296 0,-3 -3,-6 -6,-4 z"
         style="opacity:0.2;fill:#000000;fill-rule:evenodd"
         id="path1079" />
      <path
         d="m 312.9997,230.99955 c -3.2691,5.5297 -5.8614,10.465 -7.5357,15.997 -0.887,2.961 -1.687,8.0278 -2.464,11.0028 l 1.9997,2.3e-4 c 0.719,-1.609 2.1553,-5.14 3.1533,-6.257 2.477,-2.577 4.837,-3.731 7.847,-4.743 0.044,-3.034 -0.177,-6.043 1.053,-8.704 0.504,-1.106 1.295,-2.292 1.947,-3.296 0,-3 -3,-6 -6,-4 z"
         style="fill:#ffffff;fill-rule:evenodd"
         id="path1051"
         sodipodi:nodetypes="cccccccccc" />
    </g>
    <g
       id="g1039"
       transform="matrix(4,0,0,4,-1133,-532)">
      <path
         d="m 321,154.77745 c -4.495,7.748 -8.3096,15.5704 -10.612,23.322 -1.21964,4.1488 -2.3196,8.4458 -3.388,12.6142 1.74078,0.14992 0.6566,-0.0124 2,3.2e-4 3.682,-5.882 10.376,-9.98 16,-11.936 0.06,-4.252 -0.368,-9.142 1.324,-12.87 0.692,-1.55 1.78,-3.724 2.676,-5.13 0,-4 -6,-8 -8,-6 z"
         style="opacity:0.2;fill:#000000;fill-rule:evenodd;stroke-width:1"
         id="path1017" />
      <path
         d="m 321,154.27793 c -4.495,7.748 -8.3096,15.5704 -10.612,23.322 -1.21964,4.1488 -2.3196,8.4458 -3.388,12.6142 1.74078,0.14992 0.6566,-0.0124 2,3.2e-4 3.682,-5.882 10.376,-9.98 16,-11.936 0.06,-4.252 -0.368,-9.142 1.324,-12.87 0.692,-1.55 1.78,-3.724 2.676,-5.13 0,-4 -6,-8 -8,-6 z"
         style="fill:#ffffff;fill-rule:evenodd;stroke-width:1"
         id="path989"
         sodipodi:nodetypes="ccccccccc" />
    </g>
  </g>
  <g
     id="Highlights">
    <path
       id="rect653"
       style="opacity:0.2;fill:#ffffff"
       d="M 80,44 C 53.408027,44 32,65.408027 32,92 v 2 C 32,67.408027 53.408027,46 80,46 h 128 c 26.59197,0 48,21.408027 48,48 V 92 C 256,65.408027 234.59197,44 208,44 Z"
       sodipodi:nodetypes="sscsscsss" />
    <path
       id="rect773"
       style="opacity:0.2;fill:#ffffff"
       d="m 312,34 c -9.97199,0 -18,8.02801 -18,18 v 1 c 0,-9.97199 8.02801,-18 18,-18 h 48 c 9.97199,0 18,8.02801 18,18 v -1 c 0,-9.97199 -8.02801,-18 -18,-18 z" />
    <path
       id="rect1135"
       style="opacity:0.2;fill:#ffffff;fill-opacity:1"
       d="m 304,144 c -6.64799,0 -12,5.35201 -12,12 v 1 c 0,-6.64799 5.35201,-12 12,-12 h 32 c 6.64799,0 12,5.35201 12,12 v -1 c 0,-6.64799 -5.35201,-12 -12,-12 z" />
    <path
       id="rect1265"
       style="opacity:0.2;fill:#ffffff;fill-opacity:1"
       d="m 300,223 c -4.986,0 -9,4.014 -9,9 v 1 c 0,-4.986 4.014,-9 9,-9 h 24 c 4.986,0 9,4.014 9,9 v -1 c 0,-4.986 -4.014,-9 -9,-9 z" />
    <path
       id="rect1368"
       style="opacity:0.2;fill:#ffffff;fill-opacity:1"
       d="m 424,54 c -3.324,0 -6,2.676003 -6,6 v 1 c 0,-3.323997 2.676,-6 6,-6 h 16 c 3.324,0 6,2.676003 6,6 v -1 c 0,-3.323997 -2.676,-6 -6,-6 z" />
    <path
       id="rect1402"
       style="opacity:0.2;fill:#ffffff;fill-opacity:1"
       d="m 420,140 c -2.216,0 -4,1.784 -4,4 v 1 c 0,-2.216 1.784,-4 4,-4 h 8 c 2.216,0 4,1.784 4,4 v -1 c 0,-2.216 -1.784,-4 -4,-4 z" />
    <path
       id="rect1436"
       style="opacity:0.2;fill:#ffffff;fill-opacity:1"
       d="m 422,102 c -2.216,0 -4,1.784 -4,4 v 1 c 0,-2.216 1.784,-4 4,-4 h 12 c 2.216,0 4,1.784 4,4 v -1 c 0,-2.216 -1.784,-4 -4,-4 z" />
  </g>
</svg>
