<?xml version="1.0" encoding="UTF-8" standalone="no"?>
<!-- Created with Inkscape (http://www.inkscape.org/) -->

<svg
   width="480"
   height="300"
   viewBox="0 0 480 300"
   version="1.1"
   id="svg5"
   inkscape:version="1.3 (1:1.3+202307231459+0e150ed6c4)"
   sodipodi:docname="session-properties.svg"
   xmlns:inkscape="http://www.inkscape.org/namespaces/inkscape"
   xmlns:sodipodi="http://sodipodi.sourceforge.net/DTD/sodipodi-0.dtd"
   xmlns="http://www.w3.org/2000/svg"
   xmlns:svg="http://www.w3.org/2000/svg">
  <sodipodi:namedview
     id="namedview7"
     pagecolor="#888888"
     bordercolor="#000000"
     borderopacity="0.25"
     inkscape:showpageshadow="true"
     inkscape:pageopacity="0"
     inkscape:pagecheckerboard="0"
     inkscape:deskcolor="#888888"
     inkscape:document-units="px"
     showgrid="false"
     showborder="false"
     inkscape:zoom="1.4958333"
     inkscape:cx="240"
     inkscape:cy="150.08357"
     inkscape:window-width="1920"
     inkscape:window-height="1008"
     inkscape:window-x="0"
     inkscape:window-y="0"
     inkscape:window-maximized="1"
     inkscape:current-layer="svg5" />
  <defs
     id="defs2" />
  <g
     id="Baseplate"
     style="display:none">
    <text
       y="19.774782"
       xml:space="preserve"
       x="15.006946"
       style="font-style:normal;font-variant:normal;font-weight:normal;font-stretch:normal;line-height:0%;font-family:'DejaVu Sans';-inkscape-font-specification:'DejaVu Sans';display:inline;fill:#000000;fill-opacity:1;stroke:none;enable-background:new"
       inkscape:label="context"
       id="context"><tspan
         style="font-style:normal;font-variant:normal;font-weight:normal;font-stretch:normal;font-size:18px;line-height:1.25;font-family:'DejaVu Sans';-inkscape-font-specification:'DejaVu Sans'"
         y="19.774782"
         x="15.006946"
         sodipodi:role="line"
         id="tspan3933">apps</tspan></text>
    <text
       y="19.774782"
       xml:space="preserve"
       x="122.48839"
       style="font-style:normal;font-variant:normal;font-weight:bold;font-stretch:normal;line-height:0%;font-family:'DejaVu Sans';-inkscape-font-specification:'DejaVu Sans Bold';text-align:start;writing-mode:lr-tb;text-anchor:start;display:inline;fill:#000000;fill-opacity:1;stroke:none;enable-background:new"
       inkscape:label="icon-name"
       id="icon-name"><tspan
         style="font-style:normal;font-variant:normal;font-weight:bold;font-stretch:normal;font-size:18px;line-height:1.25;font-family:'DejaVu Sans';-inkscape-font-specification:'DejaVu Sans Bold'"
         y="19.774782"
         x="122.48839"
         sodipodi:role="line"
         id="tspan3937">session-properties</tspan></text>
    <rect
       style="fill:#ffffff"
       id="256x256"
       width="256"
       height="256"
       x="16"
       y="28" />
    <rect
       style="fill:#ffffff"
       id="96x96"
       width="96"
       height="96"
       x="288"
       y="28" />
    <rect
       style="fill:#ffffff"
       id="64x64"
       width="64"
       height="64"
       x="288"
       y="140" />
    <rect
       style="fill:#ffffff"
       id="48x48"
       width="48"
       height="48"
       x="288"
       y="220" />
    <rect
       style="fill:#ffffff"
       id="32x32"
       width="32"
       height="32"
       x="416"
       y="52" />
    <rect
       style="fill:#ffffff"
       id="24x24"
       width="24"
       height="24"
       x="416"
       y="100" />
    <rect
       style="fill:#ffffff"
       id="22x22"
       width="22"
       height="22"
       x="417"
       y="101" />
    <rect
       style="fill:#ffffff"
       id="16x16"
       width="16"
       height="16"
       x="416"
       y="140" />
  </g>
  <g
     id="Shadow">
    <rect
       style="opacity:0.2;fill:#000000"
       id="rect651"
       width="224"
       height="224"
       x="32"
       y="46"
       ry="48" />
    <rect
       style="opacity:0.2;fill:#000000"
       id="rect769"
       width="84"
       height="85"
       x="294"
       y="34"
       ry="18" />
    <rect
       style="opacity:0.2;fill:#000000;fill-opacity:1"
       id="rect1131"
       width="56"
       height="56"
       x="292"
       y="145"
       ry="12" />
    <rect
       style="opacity:0.2;fill:#000000;fill-opacity:1"
       id="rect1261"
       width="42"
       height="42"
       x="291"
       y="224"
       ry="9" />
    <rect
       style="opacity:0.2;fill:#000000;fill-opacity:1"
       id="rect1364"
       width="28"
       height="29"
       x="418"
       y="54"
       ry="6" />
    <rect
       style="opacity:0.2;fill:#000000;fill-opacity:1"
       id="rect1398"
       width="16"
       height="16"
       x="416"
       y="141"
       ry="4" />
    <rect
       style="opacity:0.2;fill:#000000;fill-opacity:1"
       id="rect1432"
       width="20"
       height="20"
       x="418"
       y="103"
       ry="4" />
  </g>
  <g
     id="Background">
    <rect
       style="fill:#42a5f5;fill-opacity:1"
       id="rect597"
       width="224"
       height="224"
       x="32"
       y="44"
       ry="48" />
    <rect
       style="opacity:1;fill:#42a5f5;fill-opacity:1"
       id="rect771"
       width="84"
       height="84"
       x="294"
       y="34"
       ry="18" />
    <rect
       style="opacity:1;fill:#42a5f5;fill-opacity:1"
       id="rect1133"
       width="56"
       height="56"
       x="292"
       y="144"
       ry="12" />
    <rect
       style="opacity:1;fill:#42a5f5;fill-opacity:1"
       id="rect1263"
       width="42"
       height="42"
       x="291"
       y="223"
       ry="9" />
    <rect
       style="opacity:1;fill:#42a5f5;fill-opacity:1"
       id="rect1366"
       width="28"
       height="28"
       x="418"
       y="54"
       ry="6" />
    <rect
       style="opacity:1;fill:#42a5f5;fill-opacity:1"
       id="rect1400"
       width="16"
       height="16"
       x="416"
       y="140"
       ry="4" />
    <rect
       style="opacity:1;fill:#42a5f5;fill-opacity:1"
       id="rect1434"
       width="20"
       height="20"
       x="418"
       y="102"
       ry="4" />
  </g>
  <g
     id="g712">
    <g
       id="g7"
       transform="translate(3,-2)">
      <rect
         style="opacity:0.2;fill:#000000;fill-opacity:1;stroke-width:5;stroke-linecap:round;stroke-linejoin:round"
         id="rect6904"
         width="7"
         height="6"
         x="419"
         y="148.5"
         ry="0.5" />
      <rect
         style="fill:#bbdefb;fill-opacity:1;stroke-width:5;stroke-linecap:round;stroke-linejoin:round"
         id="rect6958"
         width="7"
         height="6"
         x="419"
         y="148"
         ry="0.5" />
      <rect
         style="opacity:0.2;fill:#000000;fill-opacity:1;stroke-width:5;stroke-linecap:round;stroke-linejoin:round"
         id="rect6902"
         width="7"
         height="6"
         x="416"
         y="145.5"
         ry="0.5" />
      <rect
         style="fill:#ffffff;fill-opacity:1;stroke-width:5;stroke-linecap:round;stroke-linejoin:round"
         id="rect6960"
         width="7"
         height="6"
         x="416"
         y="145"
         ry="0.5" />
    </g>
    <g
       id="g1">
      <rect
         style="opacity:0.2;fill:#000000;fill-opacity:1;stroke-width:5;stroke-linecap:round;stroke-linejoin:round"
         id="rect5968"
         width="10"
         height="8"
         x="425"
         y="110.5"
         ry="1" />
      <rect
         style="fill:#bbdefb;fill-opacity:1;stroke-width:5;stroke-linecap:round;stroke-linejoin:round"
         id="rect5972"
         width="10"
         height="8"
         x="425"
         y="110"
         ry="1" />
      <rect
         style="opacity:0.2;fill:#000000;fill-opacity:1;stroke-width:5;stroke-linecap:round;stroke-linejoin:round"
         id="rect5966"
         width="10"
         height="8"
         x="421"
         y="106.5"
         ry="1" />
      <rect
         style="fill:#ffffff;fill-opacity:1;stroke-width:5;stroke-linecap:round;stroke-linejoin:round"
         id="rect5970"
         width="10"
         height="8"
         x="421"
         y="106"
         ry="1" />
    </g>
    <g
       id="g6"
       transform="translate(5,-6)">
      <rect
         style="opacity:0.2;fill:#000000;fill-opacity:1;stroke-width:2.5;stroke-linecap:round;stroke-linejoin:round"
         id="rect3220-26"
         width="15"
         height="12"
         x="422"
         y="72"
         ry="1.5" />
      <rect
         style="fill:#bbdefb;fill-opacity:1;stroke-width:2.5;stroke-linecap:round;stroke-linejoin:round"
         id="rect3224-1"
         width="15"
         height="12"
         x="422"
         y="71"
         ry="1.5" />
      <rect
         style="opacity:0.2;fill:#000000;fill-opacity:1;stroke-width:2.5;stroke-linecap:round;stroke-linejoin:round"
         id="rect2033-8"
         width="15"
         height="12"
         x="417"
         y="66"
         ry="1.5" />
      <rect
         style="fill:#ffffff;fill-opacity:1;stroke-width:2.5;stroke-linecap:round;stroke-linejoin:round"
         id="rect3222-7"
         width="15"
         height="12"
         x="417"
         y="65"
         ry="1.5" />
    </g>
    <g
       id="g2">
      <rect
         style="opacity:0.2;fill:#000000;fill-opacity:1;stroke-width:10;stroke-linecap:round;stroke-linejoin:round"
         id="rect5968-6"
         width="21"
         height="17"
         x="306"
         y="241"
         ry="2" />
      <rect
         style="fill:#bbdefb;fill-opacity:1;stroke-width:10;stroke-linecap:round;stroke-linejoin:round"
         id="rect5972-7"
         width="21"
         height="17"
         x="306"
         y="240"
         ry="2" />
      <rect
         style="opacity:0.2;fill:#000000;fill-opacity:1;stroke-width:10;stroke-linecap:round;stroke-linejoin:round"
         id="rect5966-5"
         width="21"
         height="17"
         x="297"
         y="232"
         ry="2" />
      <rect
         style="fill:#ffffff;fill-opacity:1;stroke-width:10;stroke-linecap:round;stroke-linejoin:round"
         id="rect5970-3"
         width="21"
         height="17"
         x="297"
         y="231"
         ry="2" />
    </g>
    <g
       id="g4"
       transform="translate(3,-5)">
      <rect
         style="opacity:0.2;fill:#000000;fill-opacity:1;stroke-width:5;stroke-linecap:round;stroke-linejoin:round"
         id="rect3220-2"
         width="30"
         height="24"
         x="307"
         y="172"
         ry="3" />
      <rect
         style="fill:#bbdefb;fill-opacity:1;stroke-width:5;stroke-linecap:round;stroke-linejoin:round"
         id="rect3224-9"
         width="30"
         height="24"
         x="307"
         y="171"
         ry="3" />
      <rect
         style="opacity:0.2;fill:#000000;fill-opacity:1;stroke-width:5;stroke-linecap:round;stroke-linejoin:round"
         id="rect2033-1"
         width="30"
         height="24"
         x="297"
         y="160"
         ry="3" />
      <rect
         style="fill:#ffffff;fill-opacity:1;stroke-width:5;stroke-linecap:round;stroke-linejoin:round"
         id="rect3222-2"
         width="30"
         height="24"
         x="297"
         y="159"
         ry="3" />
    </g>
    <g
       id="g3"
       transform="translate(19,1)">
      <rect
         style="opacity:0.2;fill:#000000;fill-opacity:1;stroke-width:7.5;stroke-linecap:round;stroke-linejoin:round"
         id="rect3220"
         width="45"
         height="36"
         x="302"
         y="67"
         ry="4" />
      <rect
         style="fill:#bbdefb;fill-opacity:1;stroke-width:7.5;stroke-linecap:round;stroke-linejoin:round"
         id="rect3224"
         width="45"
         height="36"
         x="302"
         y="66"
         ry="4" />
      <rect
         style="opacity:0.2;fill:#000000;fill-opacity:1;stroke-width:7.5;stroke-linecap:round;stroke-linejoin:round"
         id="rect2033"
         width="45"
         height="36"
         x="287"
         y="49"
         ry="4" />
      <rect
         style="fill:#ffffff;fill-opacity:1;stroke-width:7.5;stroke-linecap:round;stroke-linejoin:round"
         id="rect3222"
         width="45"
         height="36"
         x="287"
         y="48"
         ry="4" />
    </g>
    <g
       id="g5"
       transform="translate(30,4)">
      <rect
         style="opacity:0.2;fill:#000000;fill-opacity:1;stroke-width:20;stroke-linecap:round;stroke-linejoin:round"
         id="rect3220-0"
         width="120"
         height="96"
         x="74"
         y="130"
         ry="12" />
      <rect
         style="fill:#bbdefb;fill-opacity:1;stroke-width:20;stroke-linecap:round;stroke-linejoin:round"
         id="rect3224-93"
         width="120"
         height="96"
         x="74"
         y="128"
         ry="12" />
      <rect
         style="opacity:0.2;fill:#000000;fill-opacity:1;stroke-width:20;stroke-linecap:round;stroke-linejoin:round"
         id="rect2033-6"
         width="120"
         height="96"
         x="34"
         y="82"
         ry="12" />
      <rect
         style="fill:#ffffff;fill-opacity:1;stroke-width:20;stroke-linecap:round;stroke-linejoin:round"
         id="rect3222-0"
         width="120"
         height="96"
         x="34"
         y="80"
         ry="12" />
    </g>
  </g>
  <g
     id="Highlights">
    <path
       id="rect653"
       style="opacity:0.2;fill:#ffffff"
       d="M 80,44 C 53.408027,44 32,65.408027 32,92 v 2 C 32,67.408027 53.408027,46 80,46 h 128 c 26.59197,0 48,21.408027 48,48 V 92 C 256,65.408027 234.59197,44 208,44 Z"
       sodipodi:nodetypes="sscsscsss" />
    <path
       id="rect773"
       style="opacity:0.2;fill:#ffffff"
       d="m 312,34 c -9.97199,0 -18,8.02801 -18,18 v 1 c 0,-9.97199 8.02801,-18 18,-18 h 48 c 9.97199,0 18,8.02801 18,18 v -1 c 0,-9.97199 -8.02801,-18 -18,-18 z" />
    <path
       id="rect1135"
       style="opacity:0.2;fill:#ffffff;fill-opacity:1"
       d="m 304,144 c -6.64799,0 -12,5.35201 -12,12 v 1 c 0,-6.64799 5.35201,-12 12,-12 h 32 c 6.64799,0 12,5.35201 12,12 v -1 c 0,-6.64799 -5.35201,-12 -12,-12 z" />
    <path
       id="rect1265"
       style="opacity:0.2;fill:#ffffff;fill-opacity:1"
       d="m 300,223 c -4.986,0 -9,4.014 -9,9 v 1 c 0,-4.986 4.014,-9 9,-9 h 24 c 4.986,0 9,4.014 9,9 v -1 c 0,-4.986 -4.014,-9 -9,-9 z" />
    <path
       id="rect1368"
       style="opacity:0.2;fill:#ffffff;fill-opacity:1"
       d="m 424,54 c -3.324,0 -6,2.676003 -6,6 v 1 c 0,-3.323997 2.676,-6 6,-6 h 16 c 3.324,0 6,2.676003 6,6 v -1 c 0,-3.323997 -2.676,-6 -6,-6 z" />
    <path
       id="rect1402"
       style="opacity:0.2;fill:#ffffff;fill-opacity:1"
       d="m 420,140 c -2.216,0 -4,1.784 -4,4 v 1 c 0,-2.216 1.784,-4 4,-4 h 8 c 2.216,0 4,1.784 4,4 v -1 c 0,-2.216 -1.784,-4 -4,-4 z" />
    <path
       id="rect1436"
       style="opacity:0.2;fill:#ffffff;fill-opacity:1"
       d="m 422,102 c -2.216,0 -4,1.784 -4,4 v 1 c 0,-2.216 1.784,-4 4,-4 h 12 c 2.216,0 4,1.784 4,4 v -1 c 0,-2.216 -1.784,-4 -4,-4 z" />
  </g>
</svg>
