<?xml version="1.0" encoding="UTF-8" standalone="no"?>
<!-- Created with Inkscape (http://www.inkscape.org/) -->

<svg
   width="480"
   height="300"
   viewBox="0 0 480 300"
   version="1.1"
   id="svg5"
   inkscape:version="1.2.2 (1:1.2.2+202305151914+b0a8486541)"
   sodipodi:docname="skype.svg"
   xmlns:inkscape="http://www.inkscape.org/namespaces/inkscape"
   xmlns:sodipodi="http://sodipodi.sourceforge.net/DTD/sodipodi-0.dtd"
   xmlns="http://www.w3.org/2000/svg"
   xmlns:svg="http://www.w3.org/2000/svg">
  <sodipodi:namedview
     id="namedview7"
     pagecolor="#888888"
     bordercolor="#000000"
     borderopacity="0.25"
     inkscape:showpageshadow="true"
     inkscape:pageopacity="0"
     inkscape:pagecheckerboard="0"
     inkscape:deskcolor="#888888"
     inkscape:document-units="px"
     showgrid="false"
     showborder="false"
     inkscape:zoom="2.6866667"
     inkscape:cx="240.07444"
     inkscape:cy="150"
     inkscape:window-width="1920"
     inkscape:window-height="1008"
     inkscape:window-x="0"
     inkscape:window-y="0"
     inkscape:window-maximized="1"
     inkscape:current-layer="svg5" />
  <defs
     id="defs2" />
  <g
     id="Baseplate"
     style="display:none">
    <text
       y="19.774782"
       xml:space="preserve"
       x="15.006946"
       style="font-style:normal;font-variant:normal;font-weight:normal;font-stretch:normal;line-height:0%;font-family:'DejaVu Sans';-inkscape-font-specification:'DejaVu Sans';display:inline;fill:#000000;fill-opacity:1;stroke:none;enable-background:new"
       inkscape:label="context"
       id="context"><tspan
         style="font-style:normal;font-variant:normal;font-weight:normal;font-stretch:normal;font-size:18px;line-height:1.25;font-family:'DejaVu Sans';-inkscape-font-specification:'DejaVu Sans'"
         y="19.774782"
         x="15.006946"
         sodipodi:role="line"
         id="tspan3933">apps</tspan></text>
    <text
       y="19.774782"
       xml:space="preserve"
       x="122.48839"
       style="font-style:normal;font-variant:normal;font-weight:bold;font-stretch:normal;line-height:0%;font-family:'DejaVu Sans';-inkscape-font-specification:'DejaVu Sans Bold';text-align:start;writing-mode:lr-tb;text-anchor:start;display:inline;fill:#000000;fill-opacity:1;stroke:none;enable-background:new"
       inkscape:label="icon-name"
       id="icon-name"><tspan
         style="font-style:normal;font-variant:normal;font-weight:bold;font-stretch:normal;font-size:18px;line-height:1.25;font-family:'DejaVu Sans';-inkscape-font-specification:'DejaVu Sans Bold'"
         y="19.774782"
         x="122.48839"
         sodipodi:role="line"
         id="tspan3937">skype</tspan></text>
    <rect
       style="fill:#ffffff"
       id="256x256"
       width="256"
       height="256"
       x="16"
       y="28" />
    <rect
       style="fill:#ffffff"
       id="96x96"
       width="96"
       height="96"
       x="288"
       y="28" />
    <rect
       style="fill:#ffffff"
       id="64x64"
       width="64"
       height="64"
       x="288"
       y="140" />
    <rect
       style="fill:#ffffff"
       id="48x48"
       width="48"
       height="48"
       x="288"
       y="220" />
    <rect
       style="fill:#ffffff"
       id="32x32"
       width="32"
       height="32"
       x="416"
       y="52" />
    <rect
       style="fill:#ffffff"
       id="24x24"
       width="24"
       height="24"
       x="416"
       y="100" />
    <rect
       style="fill:#ffffff"
       id="22x22"
       width="22"
       height="22"
       x="417"
       y="101" />
    <rect
       style="fill:#ffffff"
       id="16x16"
       width="16"
       height="16"
       x="416"
       y="140" />
  </g>
  <g
     id="Shadow">
    <rect
       style="opacity:0.2;fill:#000000"
       id="rect651"
       width="224"
       height="224"
       x="32"
       y="46"
       ry="48" />
    <rect
       style="opacity:0.2;fill:#000000"
       id="rect769"
       width="84"
       height="85"
       x="294"
       y="34"
       ry="18" />
    <rect
       style="opacity:0.2;fill:#000000;fill-opacity:1"
       id="rect1131"
       width="56"
       height="56"
       x="292"
       y="145"
       ry="12" />
    <rect
       style="opacity:0.2;fill:#000000;fill-opacity:1"
       id="rect1261"
       width="42"
       height="42"
       x="291"
       y="224"
       ry="9" />
    <rect
       style="opacity:0.2;fill:#000000;fill-opacity:1"
       id="rect1364"
       width="28"
       height="29"
       x="418"
       y="54"
       ry="6" />
    <rect
       style="opacity:0.2;fill:#000000;fill-opacity:1"
       id="rect1398"
       width="16"
       height="16"
       x="416"
       y="141"
       ry="4" />
    <rect
       style="opacity:0.2;fill:#000000;fill-opacity:1"
       id="rect1432"
       width="20"
       height="20"
       x="418"
       y="103"
       ry="4" />
  </g>
  <g
     id="Background">
    <rect
       style="fill:#efefef;fill-opacity:1"
       id="rect597"
       width="224"
       height="224"
       x="32"
       y="44"
       ry="48" />
    <rect
       style="opacity:1;fill:#efefef;fill-opacity:1"
       id="rect771"
       width="84"
       height="84"
       x="294"
       y="34"
       ry="18" />
    <rect
       style="opacity:1;fill:#efefef;fill-opacity:1"
       id="rect1133"
       width="56"
       height="56"
       x="292"
       y="144"
       ry="12" />
    <rect
       style="opacity:1;fill:#efefef;fill-opacity:1"
       id="rect1263"
       width="42"
       height="42"
       x="291"
       y="223"
       ry="9" />
    <rect
       style="opacity:1;fill:#efefef;fill-opacity:1"
       id="rect1366"
       width="28"
       height="28"
       x="418"
       y="54"
       ry="6" />
    <rect
       style="opacity:1;fill:#efefef;fill-opacity:1"
       id="rect1400"
       width="16"
       height="16"
       x="416"
       y="140"
       ry="4" />
    <rect
       style="opacity:1;fill:#efefef;fill-opacity:1"
       id="rect1434"
       width="20"
       height="20"
       x="418"
       y="102"
       ry="4" />
  </g>
  <g
     id="Symbols">
    <g
       id="g5104">
      <circle
         style="opacity:1;fill:#1587d7;fill-opacity:1;stroke-width:3.6;stroke-linecap:round;stroke-linejoin:round"
         id="path4363"
         cx="421.60001"
         cy="145.60001"
         r="3.5999999" />
      <circle
         style="opacity:1;fill:#1587d7;fill-opacity:1;stroke-width:5;stroke-linecap:round;stroke-linejoin:round"
         id="path4365"
         cx="426.39999"
         cy="150.39999"
         r="3.5999999" />
      <circle
         style="opacity:1;fill:#28a8ea;fill-opacity:1;stroke-width:5;stroke-linecap:round;stroke-linejoin:round"
         id="path4361"
         cx="424"
         cy="148"
         r="5" />
      <path
         d="m 422.66112,147.89783 c -0.20181,-0.13714 -0.37018,-0.32053 -0.49197,-0.53585 -0.11767,-0.22736 -0.17576,-0.48247 -0.16853,-0.7401 -0.009,-0.32697 0.0992,-0.64588 0.30377,-0.89579 0.21256,-0.25096 0.48579,-0.43935 0.79186,-0.54599 0.33297,-0.12129 0.68378,-0.18218 1.03689,-0.17997 0.23107,-0.002 0.46191,0.016 0.68995,0.0546 0.16312,0.026 0.32332,0.0687 0.47826,0.1274 0.14233,0.0497 0.27081,0.13439 0.37439,0.24669 0.0763,0.0924 0.11746,0.21027 0.11564,0.33164 0.006,0.12733 -0.0382,0.25172 -0.12153,0.34579 -0.0791,0.0868 -0.19033,0.13465 -0.30577,0.13145 -0.0785,-6e-4 -0.15608,-0.0185 -0.22736,-0.0526 -0.17549,-0.081 -0.35627,-0.14926 -0.54101,-0.20421 -0.17011,-0.0462 -0.34546,-0.0687 -0.52136,-0.0667 -0.22908,-0.009 -0.45574,0.0509 -0.65272,0.17186 -0.16947,0.10618 -0.26939,0.29917 -0.26068,0.50351 -0.001,0.1316 0.0473,0.25852 0.13523,0.35386 0.10459,0.11187 0.22816,0.20302 0.3646,0.26894 0.15289,0.0782 0.38091,0.18204 0.68404,0.31141 0.0336,0.011 0.0664,0.0245 0.098,0.0405 0.29581,0.12068 0.57941,0.27104 0.84674,0.4489 0.21117,0.14205 0.38923,0.33057 0.52138,0.55203 0.13006,0.23266 0.19519,0.4979 0.18817,0.76637 0.0109,0.32885 -0.0804,0.65268 -0.26071,0.92412 -0.18357,0.25696 -0.43751,0.45135 -0.72911,0.55811 -0.35138,0.12944 -0.72267,0.1918 -1.09571,0.18402 -0.51263,0.0186 -1.02285,-0.0809 -1.49354,-0.29119 -0.12045,-0.0553 -0.22607,-0.13993 -0.30773,-0.24669 -0.0677,-0.0978 -0.10278,-0.21557 -0.1,-0.33569 -0.007,-0.12825 0.0412,-0.25314 0.1313,-0.34174 0.0935,-0.0845 0.21491,-0.12863 0.33909,-0.12334 0.13821,0.002 0.27397,0.038 0.39592,0.10514 0.15154,0.0782 0.27111,0.13689 0.35872,0.17596 0.10007,0.0432 0.20373,0.0771 0.3097,0.10109 0.13064,0.0296 0.26411,0.0438 0.39785,0.0425 0.23647,0.0174 0.47177,-0.0474 0.66842,-0.18399 0.14938,-0.12058 0.23329,-0.30802 0.22539,-0.50352 2.9e-4,-0.13677 -0.0502,-0.26847 -0.1411,-0.36804 -0.12013,-0.12765 -0.26069,-0.23299 -0.41552,-0.31137 -0.18297,-0.0997 -0.44041,-0.22107 -0.77231,-0.36399 -0.29692,-0.12204 -0.58125,-0.27446 -0.84871,-0.45498"
         style="fill:#ffffff;fill-rule:evenodd;stroke-width:0.414039"
         id="path5080" />
    </g>
    <g
       id="g4183"
       transform="translate(-36.143906,23.664392)">
      <circle
         style="opacity:0.2;fill:#000000;fill-opacity:1;stroke-width:5;stroke-linecap:round;stroke-linejoin:round"
         id="path4026"
         cx="464.14392"
         cy="88.835609"
         r="7" />
      <ellipse
         style="opacity:0.2;fill:#000000;fill-opacity:1;stroke-width:4.90445;stroke-linecap:round;stroke-linejoin:round"
         id="path4028"
         cx="460.78391"
         cy="85.475609"
         rx="4.6399999"
         ry="4.6400003" />
      <ellipse
         style="opacity:0.2;fill:#000000;fill-opacity:1;stroke-width:4.9347;stroke-linecap:round;stroke-linejoin:round"
         id="path4030"
         cx="467.50391"
         cy="92.19561"
         rx="4.6399999"
         ry="4.6400003" />
      <circle
         style="fill:#1587d7;fill-opacity:1;stroke-width:5.08878;stroke-linecap:round;stroke-linejoin:round"
         id="path3654"
         cx="460.78391"
         cy="84.975609"
         r="4.6399999" />
      <ellipse
         style="fill:#1587d7;fill-opacity:1;stroke-width:4.87117;stroke-linecap:round;stroke-linejoin:round"
         id="path3968"
         cx="467.50391"
         cy="91.69561"
         rx="4.6399999"
         ry="4.6400003" />
      <path
         id="path4032"
         style="opacity:0.21;fill:#ffffff;fill-opacity:1;stroke-width:4.76114;stroke-linecap:round;stroke-linejoin:round"
         d="m 460.78454,80.335608 a 4.6399999,4.6399999 0 0 0 -4.64062,4.640625 4.6399999,4.6399999 0 0 0 0.0176,0.25 4.6399999,4.6399999 0 0 1 4.62304,-4.390625 4.6399999,4.6399999 0 0 1 4.62696,4.316406 4.6399999,4.6399999 0 0 0 0.0117,-0.175781 4.6399999,4.6399999 0 0 0 -4.63868,-4.640625 z" />
      <circle
         style="fill:#28a8ea;fill-opacity:1;stroke-width:5;stroke-linecap:round;stroke-linejoin:round"
         id="path2977"
         cx="464.14392"
         cy="88.335609"
         r="7" />
      <path
         d="m 462.30291,88.69945 c -0.27749,-0.182861 -0.509,-0.427375 -0.67646,-0.714472 -0.1618,-0.303148 -0.24167,-0.643297 -0.23172,-0.9868 -0.0123,-0.435957 0.13637,-0.861171 0.41768,-1.194383 0.29228,-0.334616 0.66796,-0.585798 1.08881,-0.727983 0.45783,-0.16172 0.94019,-0.242905 1.42571,-0.239957 0.31773,-0.003 0.63512,0.02134 0.94868,0.0728 0.22429,0.03469 0.44458,0.09159 0.65761,0.169864 0.1957,0.0663 0.37237,0.179177 0.5148,0.328915 0.10494,0.12316 0.1615,0.280359 0.159,0.442189 0.008,0.169771 -0.0525,0.335623 -0.16711,0.461052 -0.10868,0.115758 -0.26171,0.179531 -0.42044,0.17526 -0.10802,-8e-4 -0.2146,-0.02471 -0.31261,-0.07014 -0.2413,-0.108034 -0.48987,-0.199016 -0.74389,-0.272283 -0.23389,-0.06163 -0.475,-0.09155 -0.71686,-0.08896 -0.31499,-0.01169 -0.62665,0.06789 -0.8975,0.229153 -0.23302,0.141562 -0.37041,0.39889 -0.35844,0.671339 -10e-4,0.175469 0.065,0.344699 0.18594,0.471813 0.14381,0.149157 0.31373,0.270694 0.50133,0.358588 0.21023,0.104309 0.52376,0.242716 0.94057,0.415219 0.0462,0.01461 0.0913,0.03264 0.13477,0.05395 0.40675,0.160908 0.79671,0.361382 1.16427,0.598538 0.29037,0.189391 0.5352,0.440754 0.7169,0.736038 0.17884,0.310207 0.26839,0.663861 0.25873,1.021825 0.0151,0.438461 -0.11059,0.870231 -0.35847,1.232152 -0.2524,0.34262 -0.60157,0.601798 -1.00253,0.74415 -0.48314,0.17259 -0.99366,0.255731 -1.50659,0.245356 -0.70487,0.02481 -1.40642,-0.107827 -2.05362,-0.388252 -0.16562,-0.07369 -0.31084,-0.186577 -0.42313,-0.328916 -0.0931,-0.130361 -0.14133,-0.287434 -0.13748,-0.447587 -0.009,-0.170994 0.0565,-0.337521 0.18055,-0.45565 0.12856,-0.112639 0.29549,-0.171515 0.46624,-0.164458 0.19005,0.0027 0.37671,0.0507 0.5444,0.140191 0.20836,0.104309 0.37277,0.182516 0.49323,0.234606 0.13761,0.05766 0.28014,0.102767 0.42584,0.134789 0.17963,0.03947 0.36314,0.05846 0.54704,0.05659 0.32514,0.02314 0.64868,-0.06321 0.91907,-0.245314 0.20541,-0.160766 0.32077,-0.410688 0.30992,-0.671347 3.9e-4,-0.182366 -0.0691,-0.35796 -0.19402,-0.490719 -0.16517,-0.170208 -0.35845,-0.310657 -0.57133,-0.415169 -0.25159,-0.132995 -0.60556,-0.294768 -1.06192,-0.48532 -0.40827,-0.162714 -0.79922,-0.365945 -1.16698,-0.606644"
         style="opacity:0.2;fill:#000000;fill-rule:evenodd;stroke-width:0.560611"
         id="path3978"
         sodipodi:nodetypes="cccccccccccccccccccccccccccccccccccccccccc" />
      <path
         d="m 462.30291,88.19945 c -0.27749,-0.182861 -0.509,-0.427375 -0.67646,-0.714472 -0.1618,-0.303148 -0.24167,-0.643298 -0.23172,-0.9868 -0.0123,-0.435957 0.13637,-0.861171 0.41768,-1.194383 0.29228,-0.334616 0.66796,-0.585798 1.08881,-0.727983 0.45783,-0.16172 0.94019,-0.242905 1.42571,-0.239957 0.31773,-0.003 0.63512,0.02134 0.94868,0.0728 0.22429,0.03469 0.44458,0.09159 0.65761,0.169864 0.1957,0.0663 0.37237,0.179177 0.5148,0.328915 0.10494,0.12316 0.1615,0.280359 0.159,0.442189 0.008,0.169771 -0.0525,0.335623 -0.16711,0.461052 -0.10868,0.115758 -0.26171,0.179531 -0.42044,0.17526 -0.10802,-8e-4 -0.2146,-0.02471 -0.31261,-0.07014 -0.2413,-0.108034 -0.48987,-0.199016 -0.74389,-0.272283 -0.23389,-0.06163 -0.475,-0.09155 -0.71686,-0.08896 -0.31499,-0.01169 -0.62665,0.06789 -0.8975,0.229153 -0.23302,0.141562 -0.37041,0.39889 -0.35844,0.671339 -0.002,0.175469 0.065,0.344699 0.18594,0.471813 0.14381,0.149157 0.31373,0.270694 0.50133,0.358588 0.21023,0.104309 0.52376,0.242716 0.94057,0.415219 0.0462,0.01461 0.0913,0.03264 0.13477,0.05395 0.40675,0.160908 0.79671,0.361382 1.16427,0.598538 0.29037,0.189391 0.5352,0.440754 0.7169,0.736038 0.17884,0.310207 0.26839,0.663861 0.25873,1.021825 0.0151,0.438461 -0.11059,0.870231 -0.35847,1.232152 -0.2524,0.34262 -0.60157,0.601798 -1.00253,0.74415 -0.48314,0.17259 -0.99366,0.255731 -1.50659,0.245356 -0.70487,0.02481 -1.40642,-0.107827 -2.05362,-0.388252 -0.16562,-0.07369 -0.31084,-0.186577 -0.42314,-0.328916 -0.0931,-0.130361 -0.14132,-0.287434 -0.13747,-0.447587 -0.009,-0.170994 0.0565,-0.337521 0.18055,-0.45565 0.12855,-0.112639 0.29549,-0.171515 0.46624,-0.164458 0.19005,0.0027 0.37671,0.0507 0.5444,0.140191 0.20835,0.104309 0.37277,0.182516 0.49323,0.234606 0.13761,0.05766 0.28014,0.102767 0.42584,0.134789 0.17963,0.03947 0.36314,0.05846 0.54704,0.05659 0.32514,0.02314 0.64868,-0.06321 0.91907,-0.245314 0.20541,-0.160766 0.32077,-0.410688 0.30992,-0.671347 3.9e-4,-0.182366 -0.0691,-0.35796 -0.19402,-0.490719 -0.16517,-0.170208 -0.35845,-0.310657 -0.57133,-0.415169 -0.25159,-0.132995 -0.60556,-0.294768 -1.06192,-0.48532 -0.40827,-0.162714 -0.79922,-0.365945 -1.16698,-0.606644"
         style="fill:#ffffff;fill-rule:evenodd;stroke-width:0.560611"
         id="path4006" />
      <path
         id="path4062"
         style="opacity:0.21;fill:#ffffff;fill-opacity:1;stroke-width:5;stroke-linecap:round;stroke-linejoin:round"
         d="m 464.14392,81.335608 a 7,7 0 0 0 -7,7 7,7 0 0 0 0.0176,0.25 7,7 0 0 1 6.98242,-6.75 7,7 0 0 1 6.99023,6.634766 7,7 0 0 0 0.01,-0.134766 7,7 0 0 0 -7,-7 z" />
    </g>
    <g
       id="g1986">
      <circle
         style="opacity:0.2;fill:#000000"
         cx="427.80002"
         cy="64.799995"
         r="5.8000002"
         id="circle2" />
      <circle
         style="opacity:0.2;fill:#000000"
         cx="436.20001"
         cy="73.199997"
         r="5.8000002"
         id="circle4" />
      <circle
         style="fill:#1587d7"
         cx="427.80002"
         cy="63.799995"
         r="5.8000002"
         id="circle6" />
      <circle
         style="fill:#1587d7"
         cx="436.20001"
         cy="72.199997"
         r="5.8000002"
         id="circle10" />
      <circle
         style="opacity:0.2;fill:#000000"
         cx="432"
         cy="69"
         r="9"
         id="circle12" />
      <path
         id="path591"
         style="opacity:0.2;fill:#ffffff;stroke-width:5.05903;stroke-linecap:round;stroke-linejoin:round"
         d="M 427.80078,57.999996 A 5.8000002,5.8000002 0 0 0 422,63.800777 a 5.8000002,5.8000002 0 0 0 0.0352,0.5 5.8000002,5.8000002 0 0 1 5.76562,-5.300781 5.8000002,5.8000002 0 0 1 5.76953,5.214844 5.8000002,5.8000002 0 0 0 0.0293,-0.414063 5.8000002,5.8000002 0 0 0 -5.79883,-5.800781 z" />
      <circle
         style="fill:#28a8ea"
         cx="432"
         cy="68"
         r="9"
         id="circle14" />
      <path
         style="opacity:0.2;fill:#000000;fill-rule:evenodd"
         d="m 429.65692,68.829811 a 2.7454742,2.6973005 0 0 1 -0.86095,-0.893092 2.5114005,2.467334 0 0 1 -0.29492,-1.233503 2.2564997,2.2169058 0 0 1 0.5316,-1.49298 3.1999052,3.1437578 0 0 1 1.38576,-0.909982 5.3519271,5.2580191 0 0 1 1.81454,-0.299946 7.0466194,6.9229754 0 0 1 1.20741,0.09099 4.3586089,4.2821302 0 0 1 0.83697,0.212331 1.623008,1.5945298 0 0 1 0.65519,0.411144 0.84696798,0.83210658 0 0 1 0.20236,0.552737 0.81505168,0.80075034 0 0 1 -0.21267,0.576316 0.70810464,0.69567984 0 0 1 -0.53511,0.219075 0.96324637,0.94634467 0 0 1 -0.39787,-0.08767 7.2023954,7.0760179 0 0 0 -0.94678,-0.340355 3.4366703,3.3763685 0 0 0 -0.91237,-0.111202 2.0823926,2.0458537 0 0 0 -1.14227,0.28644 0.95050097,0.93382293 0 0 0 -0.45619,0.839177 0.85877988,0.84371123 0 0 0 0.23665,0.589768 2.1582929,2.1204223 0 0 0 0.63805,0.448235 q 0.40136,0.195578 1.19709,0.519025 a 1.2405213,1.2187544 0 0 1 0.17153,0.06742 8.5027778,8.3535833 0 0 1 1.4818,0.748174 2.9877312,2.9353068 0 0 1 0.91243,0.920052 2.4692081,2.425882 0 0 1 0.32929,1.277279 2.6151593,2.5692722 0 0 1 -0.45625,1.540194 2.7115517,2.6639732 0 0 1 -1.27594,0.930189 5.3782686,5.2838986 0 0 1 -1.91748,0.306698 6.0413955,5.9353895 0 0 1 -2.61371,-0.485317 1.4224954,1.3975355 0 0 1 -0.53853,-0.411147 0.94083837,0.92432988 0 0 1 -0.17496,-0.559483 0.74430449,0.73124449 0 0 1 0.22978,-0.569563 0.84756648,0.83269458 0 0 1 0.59341,-0.205574 1.516411,1.4898032 0 0 1 0.69286,0.175238 q 0.39778,0.195589 0.62775,0.29326 a 3.1550816,3.0997208 0 0 0 0.54199,0.168485 3.0988942,3.0445192 0 0 0 0.69623,0.07074 1.8583917,1.8257833 0 0 0 1.16973,-0.306643 1.0301015,1.0120267 0 0 0 0.39443,-0.839184 0.90778538,0.89185683 0 0 0 -0.24692,-0.613401 2.6253187,2.5792534 0 0 0 -0.72715,-0.51897 q -0.48031,-0.249358 -1.35154,-0.606647 a 8.3730838,8.2261648 0 0 1 -1.48525,-0.75831"
         id="path16" />
      <path
         style="fill:#ffffff;fill-rule:evenodd"
         d="m 429.65692,67.829808 a 2.7454742,2.6973005 0 0 1 -0.86095,-0.893092 2.5114005,2.467334 0 0 1 -0.29492,-1.233503 2.2564997,2.2169058 0 0 1 0.5316,-1.49298 3.1999052,3.1437578 0 0 1 1.38576,-0.909981 5.3519271,5.2580191 0 0 1 1.81454,-0.299946 7.0466194,6.9229754 0 0 1 1.20741,0.09099 4.3586089,4.2821302 0 0 1 0.83697,0.21233 1.623008,1.5945298 0 0 1 0.65519,0.411144 0.84696798,0.83210658 0 0 1 0.20236,0.552737 0.81505168,0.80075034 0 0 1 -0.21267,0.576316 0.70810464,0.69567984 0 0 1 -0.53511,0.219076 0.96324637,0.94634467 0 0 1 -0.39787,-0.08767 7.2023954,7.0760179 0 0 0 -0.94678,-0.340355 3.4366703,3.3763685 0 0 0 -0.91237,-0.111202 2.0823926,2.0458537 0 0 0 -1.14227,0.286441 0.95050097,0.93382293 0 0 0 -0.45619,0.839177 0.85877988,0.84371123 0 0 0 0.23665,0.589766 2.1582929,2.1204223 0 0 0 0.63805,0.448236 q 0.40136,0.195578 1.19709,0.519025 a 1.2405213,1.2187544 0 0 1 0.17153,0.06742 8.5027778,8.3535833 0 0 1 1.4818,0.748174 2.9877312,2.9353068 0 0 1 0.91243,0.920051 2.4692081,2.425882 0 0 1 0.32929,1.27728 2.6151593,2.5692722 0 0 1 -0.45625,1.540194 2.7115517,2.6639732 0 0 1 -1.27594,0.930188 5.3782686,5.2838986 0 0 1 -1.91748,0.306698 6.0413955,5.9353895 0 0 1 -2.61371,-0.485317 1.4224954,1.3975355 0 0 1 -0.53853,-0.411147 0.94083837,0.92432988 0 0 1 -0.17496,-0.559483 0.74430449,0.73124449 0 0 1 0.22978,-0.569563 0.84756648,0.83269458 0 0 1 0.59341,-0.205574 1.516411,1.4898032 0 0 1 0.69286,0.175238 q 0.39778,0.195589 0.62775,0.29326 a 3.1550816,3.0997208 0 0 0 0.54199,0.168485 3.0988942,3.0445192 0 0 0 0.69623,0.07074 1.8583917,1.8257833 0 0 0 1.16973,-0.306643 1.0301015,1.0120267 0 0 0 0.39443,-0.839184 0.90778538,0.89185683 0 0 0 -0.24692,-0.613401 2.6253187,2.5792534 0 0 0 -0.72715,-0.51897 q -0.48031,-0.249357 -1.35154,-0.606646 a 8.3730838,8.2261648 0 0 1 -1.48525,-0.75831"
         id="path18" />
      <path
         id="path509"
         style="opacity:0.2;fill:#ffffff;stroke-width:5;stroke-linecap:round;stroke-linejoin:round"
         d="m 432,58.999996 a 9,9 0 0 0 -9,9 9,9 0 0 0 0.0352,0.5 9,9 0 0 1 8.96484,-8.5 9,9 0 0 1 8.97461,8.359375 9,9 0 0 0 0.0254,-0.359375 9,9 0 0 0 -9,-9 z" />
    </g>
    <g
       id="g2549"
       transform="translate(-105.99006,14.84739)">
      <circle
         style="opacity:0.2;fill:#000000"
         cx="412.11008"
         cy="224.27261"
         r="8.1199999"
         id="circle2315" />
      <circle
         style="opacity:0.2;fill:#000000"
         cx="423.87006"
         cy="236.03261"
         r="8.1199999"
         id="circle2317" />
      <circle
         style="fill:#1587d7"
         cx="412.11008"
         cy="223.27261"
         r="8.1199999"
         id="circle2319" />
      <circle
         style="fill:#1587d7"
         cx="423.87006"
         cy="235.03261"
         r="8.1199999"
         id="circle2321" />
      <circle
         style="opacity:0.2;fill:#000000"
         cx="417.99008"
         cy="230.1526"
         r="13"
         id="circle2323" />
      <path
         style="opacity:0.1;fill:#ffffff"
         d="m 412.10921,215.15261 a 8.1199999,8.1199999 0 0 0 -8.11914,8.11914 8.1199999,8.1199999 0 0 0 0.0215,0.58789 8.1199999,8.1199999 0 0 1 8.09766,-7.70703 8.1199999,8.1199999 0 0 1 8.09961,7.54492 8.1199999,8.1199999 0 0 0 0.0215,-0.42578 8.1199999,8.1199999 0 0 0 -8.12109,-8.11914 z"
         id="path2325" />
      <circle
         style="fill:#28a8ea"
         cx="417.99008"
         cy="229.1526"
         r="13"
         id="circle2327" />
      <path
         style="opacity:0.2;fill-rule:evenodd;fill:#000000"
         d="m 414.64281,229.91435 a 3.9221063,3.7762199 0 0 1 -1.22992,-1.25033 3.5877152,3.4542668 0 0 1 -0.42132,-1.7269 3.2235712,3.1036674 0 0 1 0.75943,-2.09018 4.5712934,4.4012599 0 0 1 1.97966,-1.27397 7.6456106,7.3612251 0 0 1 2.5922,-0.41992 10.0666,9.6921634 0 0 1 1.72488,0.12739 6.2265844,5.9949808 0 0 1 1.19566,0.29726 2.318583,2.2323411 0 0 1 0.93599,0.5756 1.2099544,1.1649489 0 0 1 0.28909,0.77383 1.1643597,1.1210502 0 0 1 -0.30382,0.80684 1.0115781,0.97395155 0 0 1 -0.76444,0.30671 1.3760663,1.3248823 0 0 1 -0.56839,-0.12274 10.289137,9.9064231 0 0 0 -1.35254,-0.4765 4.9095293,4.7269147 0 0 0 -1.30339,-0.15568 2.9748467,2.8641946 0 0 0 -1.63181,0.40102 1.3578586,1.3073518 0 0 0 -0.6517,1.17484 1.2268284,1.1811954 0 0 0 0.33807,0.82568 3.0832758,2.9685905 0 0 0 0.9115,0.62753 q 0.57337,0.27381 1.71012,0.72663 a 1.7721734,1.7062558 0 0 1 0.24506,0.0944 12.146826,11.695015 0 0 1 2.11685,1.04745 4.2681877,4.1094285 0 0 1 1.30347,1.28807 3.5274404,3.396234 0 0 1 0.47042,1.78819 3.7359421,3.5969802 0 0 1 -0.65179,2.15627 3.8736455,3.7295617 0 0 1 -1.82277,1.30226 7.6832414,7.3974563 0 0 1 -2.73926,0.42938 8.6305656,8.3095433 0 0 1 -3.73387,-0.67944 2.0321364,1.9565492 0 0 1 -0.76933,-0.57561 1.3440549,1.2940615 0 0 1 -0.24994,-0.78327 1.0632922,1.0237421 0 0 1 0.32825,-0.79739 1.2108094,1.1657721 0 0 1 0.84772,-0.28781 2.1663016,2.085724 0 0 1 0.98982,0.24534 q 0.56825,0.27382 0.89678,0.41056 a 4.5072597,4.339608 0 0 0 0.77427,0.23588 4.426992,4.2623259 0 0 0 0.99461,0.099 2.6548455,2.556096 0 0 0 1.67105,-0.4293 1.4715737,1.416837 0 0 0 0.56347,-1.17486 1.2968363,1.2485993 0 0 0 -0.35275,-0.85876 3.7504556,3.610954 0 0 0 -1.03879,-0.72656 q -0.68615,-0.3491 -1.93077,-0.8493 a 11.961549,11.516628 0 0 1 -2.12178,-1.06164"
         id="path2329" />
      <path
         style="fill:#ffffff;fill-rule:evenodd"
         d="m 414.64281,228.91435 a 3.9221063,3.7762199 0 0 1 -1.22992,-1.25033 3.5877152,3.4542668 0 0 1 -0.42132,-1.7269 3.2235712,3.1036674 0 0 1 0.75943,-2.09017 4.5712934,4.4012599 0 0 1 1.97966,-1.27398 7.6456106,7.3612251 0 0 1 2.5922,-0.41992 10.0666,9.6921634 0 0 1 1.72488,0.12739 6.2265844,5.9949808 0 0 1 1.19566,0.29726 2.318583,2.2323411 0 0 1 0.93599,0.5756 1.2099544,1.1649489 0 0 1 0.28909,0.77383 1.1643597,1.1210502 0 0 1 -0.30382,0.80685 1.0115781,0.97395155 0 0 1 -0.76444,0.3067 1.3760663,1.3248823 0 0 1 -0.56839,-0.12274 10.289137,9.9064231 0 0 0 -1.35254,-0.47649 4.9095293,4.7269147 0 0 0 -1.30339,-0.15569 2.9748467,2.8641946 0 0 0 -1.63181,0.40102 1.3578586,1.3073518 0 0 0 -0.6517,1.17485 1.2268284,1.1811954 0 0 0 0.33807,0.82567 3.0832758,2.9685905 0 0 0 0.9115,0.62753 q 0.57337,0.27381 1.71012,0.72663 a 1.7721734,1.7062558 0 0 1 0.24506,0.0944 12.146826,11.695015 0 0 1 2.11685,1.04745 4.2681877,4.1094285 0 0 1 1.30347,1.28807 3.5274404,3.396234 0 0 1 0.47042,1.78819 3.7359421,3.5969802 0 0 1 -0.65179,2.15627 3.8736455,3.7295617 0 0 1 -1.82277,1.30226 7.6832414,7.3974563 0 0 1 -2.73926,0.42938 8.6305656,8.3095433 0 0 1 -3.73387,-0.67944 2.0321364,1.9565492 0 0 1 -0.76933,-0.57561 1.3440549,1.2940615 0 0 1 -0.24994,-0.78327 1.0632922,1.0237421 0 0 1 0.32825,-0.79739 1.2108094,1.1657721 0 0 1 0.84772,-0.28781 2.1663016,2.085724 0 0 1 0.98982,0.24534 q 0.56825,0.27382 0.89678,0.41056 a 4.5072597,4.339608 0 0 0 0.77427,0.23588 4.426992,4.2623259 0 0 0 0.99461,0.099 2.6548455,2.556096 0 0 0 1.67105,-0.4293 1.4715737,1.416837 0 0 0 0.56347,-1.17486 1.2968363,1.2485993 0 0 0 -0.35275,-0.85876 3.7504556,3.610954 0 0 0 -1.03879,-0.72656 q -0.68615,-0.3491 -1.93077,-0.8493 a 11.961549,11.516628 0 0 1 -2.12178,-1.06164"
         id="path2331" />
      <path
         style="opacity:0.2;fill:#ffffff"
         d="m 417.99007,216.15261 a 13,13 0 0 0 -13,13 13,13 0 0 0 0.0215,0.58008 13,13 0 0 1 12.97852,-12.58008 13,13 0 0 1 12.97852,12.41992 13,13 0 0 0 0.0215,-0.41992 13,13 0 0 0 -13,-13 z"
         id="path2333" />
    </g>
    <g
       id="g2164">
      <circle
         style="opacity:0.2;fill:#000000;stroke-width:2"
         cx="311.59995"
         cy="164.59999"
         r="11.599994"
         id="circle2-5" />
      <circle
         style="opacity:0.2;fill:#000000;stroke-width:2"
         cx="328.39993"
         cy="181.39998"
         r="11.599994"
         id="circle4-3" />
      <circle
         style="fill:#1587d7;stroke-width:2"
         cx="311.59995"
         cy="163.59999"
         r="11.599994"
         id="circle6-5" />
      <circle
         style="fill:#1587d7;stroke-width:2"
         cx="328.39993"
         cy="180.39998"
         r="11.599994"
         id="circle10-6" />
      <circle
         style="opacity:0.2;fill:#000000;stroke-width:2"
         cx="319.99991"
         cy="173"
         r="17.999989"
         id="circle12-2" />
      <path
         id="path591-9"
         style="opacity:0.2;fill:#ffffff;stroke-width:10.1181;stroke-linecap:round;stroke-linejoin:round"
         d="m 311.60157,152 a 11.599993,11.599993 0 0 0 -11.60158,11.60156 11.599993,11.599993 0 0 0 0.0292,0.42969 A 11.599993,11.599993 0 0 1 311.59951,153 a 11.599993,11.599993 0 0 1 11.57813,10.9043 11.599993,11.599993 0 0 0 0.0214,-0.30274 A 11.599993,11.599993 0 0 0 311.60139,152 Z" />
      <circle
         style="fill:#28a8ea;stroke-width:2"
         cx="319.99991"
         cy="172"
         r="17.999989"
         id="circle14-1" />
      <path
         style="opacity:0.2;fill:#000000;fill-rule:evenodd;stroke-width:2"
         d="m 315.31374,172.65962 a 5.4909451,5.3945978 0 0 1 -1.72189,-1.78618 5.022798,4.934665 0 0 1 -0.58984,-2.46701 4.5129967,4.4338089 0 0 1 1.0632,-2.98596 6.3998066,6.2875118 0 0 1 2.77151,-1.81996 10.703848,10.516032 0 0 1 3.62908,-0.59989 14.09323,13.845942 0 0 1 2.41482,0.18198 8.7172126,8.5642553 0 0 1 1.67394,0.42466 3.2460141,3.1890577 0 0 1 1.31038,0.82229 1.6939349,1.6642122 0 0 1 0.40472,1.10547 1.6301024,1.6014997 0 0 1 -0.42534,1.15263 1.4162084,1.3913588 0 0 1 -1.07022,0.43815 1.9264916,1.8926882 0 0 1 -0.79574,-0.17534 14.404782,14.152027 0 0 0 -1.89356,-0.68071 6.8733365,6.7527329 0 0 0 -1.82474,-0.2224 4.1647827,4.0917049 0 0 0 -2.28454,0.57288 1.9010008,1.8676447 0 0 0 -0.91238,1.67835 1.7175587,1.6874214 0 0 0 0.4733,1.17954 4.3165832,4.2408421 0 0 0 1.2761,0.89647 q 0.80272,0.39115 2.39418,1.03805 a 2.4810411,2.4375073 0 0 1 0.34306,0.13484 17.005545,16.707157 0 0 1 2.9636,1.49634 5.9754588,5.8706101 0 0 1 1.82486,1.84011 4.9384132,4.8517611 0 0 1 0.65858,2.55455 5.2303155,5.1385413 0 0 1 -0.9125,3.08039 5.4231001,5.3279432 0 0 1 -2.55188,1.86038 10.756531,10.567791 0 0 1 -3.83496,0.61339 12.082784,11.870772 0 0 1 -5.22742,-0.97063 2.8449891,2.7950693 0 0 1 -1.07705,-0.8223 1.8816756,1.8486587 0 0 1 -0.34992,-1.11896 1.4886081,1.4624881 0 0 1 0.45956,-1.13913 1.6951319,1.6653882 0 0 1 1.18681,-0.41114 3.0328202,2.9796046 0 0 1 1.38572,0.35047 q 0.79556,0.39118 1.2555,0.58652 a 6.3101594,6.1994379 0 0 0 1.08398,0.33697 6.1977847,6.0890347 0 0 0 1.39246,0.14148 3.7167812,3.6515644 0 0 0 2.33946,-0.61328 2.0602018,2.0240522 0 0 0 0.78886,-1.67837 1.8155697,1.7837126 0 0 0 -0.49384,-1.2268 5.2506342,5.1585037 0 0 0 -1.4543,-1.03794 q -0.96062,-0.49872 -2.70308,-1.2133 a 16.746158,16.45232 0 0 1 -2.9705,-1.51661"
         id="path16-2" />
      <path
         style="fill:#ffffff;fill-rule:evenodd;stroke-width:2"
         d="m 315.31374,171.65961 a 5.4909451,5.3945978 0 0 1 -1.72189,-1.78618 5.022798,4.934665 0 0 1 -0.58984,-2.467 4.5129967,4.4338089 0 0 1 1.0632,-2.98596 6.3998066,6.2875118 0 0 1 2.77151,-1.81996 10.703848,10.516032 0 0 1 3.62908,-0.59989 14.09323,13.845942 0 0 1 2.41482,0.18198 8.7172126,8.5642553 0 0 1 1.67394,0.42466 3.2460141,3.1890577 0 0 1 1.31038,0.82228 1.6939349,1.6642122 0 0 1 0.40472,1.10548 1.6301024,1.6014997 0 0 1 -0.42534,1.15263 1.4162084,1.3913588 0 0 1 -1.07022,0.43815 1.9264916,1.8926882 0 0 1 -0.79574,-0.17534 14.404782,14.152027 0 0 0 -1.89356,-0.68071 6.8733365,6.7527329 0 0 0 -1.82474,-0.2224 4.1647827,4.0917049 0 0 0 -2.28454,0.57288 1.9010008,1.8676447 0 0 0 -0.91238,1.67835 1.7175587,1.6874214 0 0 0 0.4733,1.17953 4.3165832,4.2408421 0 0 0 1.2761,0.89647 q 0.80272,0.39116 2.39418,1.03805 a 2.4810411,2.4375073 0 0 1 0.34306,0.13484 17.005545,16.707157 0 0 1 2.9636,1.49635 5.9754588,5.8706101 0 0 1 1.82486,1.8401 4.9384132,4.8517611 0 0 1 0.65858,2.55456 5.2303155,5.1385413 0 0 1 -0.9125,3.08038 5.4231001,5.3279432 0 0 1 -2.55188,1.86038 10.756531,10.567791 0 0 1 -3.83496,0.6134 12.082784,11.870772 0 0 1 -5.22742,-0.97064 2.8449891,2.7950693 0 0 1 -1.07705,-0.82229 1.8816756,1.8486587 0 0 1 -0.34992,-1.11897 1.4886081,1.4624881 0 0 1 0.45956,-1.13912 1.6951319,1.6653882 0 0 1 1.18681,-0.41115 3.0328202,2.9796046 0 0 1 1.38572,0.35048 q 0.79556,0.39117 1.2555,0.58652 a 6.3101594,6.1994379 0 0 0 1.08398,0.33697 6.1977847,6.0890347 0 0 0 1.39246,0.14148 3.7167812,3.6515644 0 0 0 2.33946,-0.61329 2.0602018,2.0240522 0 0 0 0.78886,-1.67837 1.8155697,1.7837126 0 0 0 -0.49384,-1.2268 5.2506342,5.1585037 0 0 0 -1.4543,-1.03794 q -0.96062,-0.49871 -2.70308,-1.21329 a 16.746158,16.45232 0 0 1 -2.9705,-1.51662"
         id="path18-7" />
      <path
         id="path509-0"
         style="opacity:0.2;fill:#ffffff;stroke-width:9.99999;stroke-linecap:round;stroke-linejoin:round"
         d="m 320,154 a 17.999989,17.999989 0 0 0 -18.00001,18 17.999989,17.999989 0 0 0 0.0292,0.42383 A 17.999989,17.999989 0 0 1 319.9999,155 17.999989,17.999989 0 0 1 337.98233,172.25391 17.999989,17.999989 0 0 0 338.00033,172 17.999989,17.999989 0 0 0 320.00034,154 Z" />
    </g>
    <g
       id="g2691"
       transform="translate(-2.37966,-76.33375)">
      <circle
         style="opacity:0.2;fill:#000000;stroke-width:2"
         cx="326.61969"
         cy="141.57376"
         r="16.240009"
         id="circle2315-6" />
      <circle
         style="opacity:0.2;fill:#000000;stroke-width:2"
         cx="350.13965"
         cy="165.09377"
         r="16.240009"
         id="circle2317-1" />
      <circle
         style="fill:#1587d7;stroke-width:2"
         cx="326.61969"
         cy="140.57376"
         r="16.240009"
         id="circle2319-2" />
      <circle
         style="fill:#1587d7;stroke-width:2"
         cx="350.13965"
         cy="164.09377"
         r="16.240009"
         id="circle2321-9" />
      <circle
         style="opacity:0.2;fill:#000000;stroke-width:2"
         cx="338.3797"
         cy="153.33376"
         r="26.000015"
         id="circle2323-3" />
      <path
         id="path2325-1"
         style="opacity:0.1;fill:#ffffff;stroke-width:2"
         d="M 326.61794 124.33375 A 16.240009 16.240009 0 0 0 310.37966 140.57203 A 16.240009 16.240009 0 0 0 310.4031 141.21461 A 16.240009 16.240009 0 0 1 326.61989 125.33375 A 16.240009 16.240009 0 0 1 342.8445 140.89625 A 16.240009 16.240009 0 0 0 342.86013 140.57203 A 16.240009 16.240009 0 0 0 326.61794 124.33375 z " />
      <circle
         style="fill:#28a8ea;stroke-width:2"
         cx="338.3797"
         cy="152.33374"
         r="26.000015"
         id="circle2327-9" />
      <path
         style="opacity:0.2;fill:#000000;fill-rule:evenodd;stroke-width:2"
         d="m 331.68515,152.85723 a 7.8442172,7.5524443 0 0 1 -2.45984,-2.50066 7.1754346,6.9085377 0 0 1 -0.84264,-3.45381 6.4471462,6.2073385 0 0 1 1.51886,-4.18036 9.1425922,8.802525 0 0 1 3.95932,-2.54794 15.29123,14.722459 0 0 1 5.18441,-0.83984 20.133212,19.384338 0 0 1 3.44976,0.25478 12.453176,11.989969 0 0 1 2.39132,0.59452 4.6371687,4.4646848 0 0 1 1.87198,1.1512 2.4199102,2.3298992 0 0 1 0.57818,1.54766 2.3287208,2.2421017 0 0 1 -0.60764,1.61368 2.0231574,1.9479043 0 0 1 -1.52888,0.61342 2.7521342,2.6497662 0 0 1 -1.13678,-0.24548 20.578286,19.812858 0 0 0 -2.70508,-0.953 9.8190644,9.453835 0 0 0 -2.60678,-0.31136 5.9496969,5.7283926 0 0 0 -3.26363,0.80204 2.7157188,2.6147051 0 0 0 -1.3034,2.34968 2.4536583,2.3623922 0 0 0 0.67614,1.65136 6.1665552,5.9371845 0 0 0 1.82301,1.25507 q 1.14674,0.54762 3.42024,1.45326 a 3.5443489,3.4125136 0 0 1 0.49012,0.1888 24.293666,23.390044 0 0 1 4.2337,2.0949 8.5363804,8.2188619 0 0 1 2.60694,2.57614 7.054885,6.792472 0 0 1 0.94084,3.57638 7.4718886,7.1939647 0 0 1 -1.30358,4.31254 7.7472956,7.4591278 0 0 1 -3.64554,2.60453 15.366492,14.794921 0 0 1 -5.47852,0.85876 17.261141,16.619096 0 0 1 -7.46775,-1.35888 4.0642752,3.9131007 0 0 1 -1.53866,-1.15123 2.6881114,2.5881245 0 0 1 -0.49988,-1.56654 2.1265857,2.0474854 0 0 1 0.6565,-1.59478 2.4216202,2.3315456 0 0 1 1.69544,-0.57562 4.3326058,4.1714505 0 0 1 1.97964,0.49068 q 1.1365,0.54764 1.79356,0.82112 a 9.0145247,8.6792211 0 0 0 1.54855,0.47176 8.8539892,8.5246568 0 0 0 1.98922,0.198 5.3096941,5.112195 0 0 0 3.3421,-0.8586 2.9431491,2.8336757 0 0 0 1.12694,-2.34972 2.5936741,2.4972001 0 0 0 -0.7055,-1.71752 7.5009156,7.2219123 0 0 0 -2.07758,-1.45312 q -1.3723,-0.6982 -3.86154,-1.6986 a 23.923112,23.03327 0 0 1 -4.24357,-2.12328"
         id="path2329-4" />
      <path
         style="fill:#ffffff;fill-rule:evenodd;stroke-width:2"
         d="m 331.68515,151.85725 a 7.8442172,7.5524443 0 0 1 -2.45984,-2.50067 7.1754346,6.9085377 0 0 1 -0.84264,-3.4538 6.4471462,6.2073385 0 0 1 1.51886,-4.18034 9.1425922,8.802525 0 0 1 3.95932,-2.54796 15.29123,14.722459 0 0 1 5.18441,-0.83984 20.133212,19.384338 0 0 1 3.44976,0.25478 12.453176,11.989969 0 0 1 2.39132,0.59452 4.6371687,4.4646848 0 0 1 1.87198,1.1512 2.4199102,2.3298992 0 0 1 0.57818,1.54766 2.3287208,2.2421017 0 0 1 -0.60764,1.6137 2.0231574,1.9479043 0 0 1 -1.52888,0.6134 2.7521342,2.6497662 0 0 1 -1.13678,-0.24548 20.578286,19.812858 0 0 0 -2.70508,-0.95298 9.8190644,9.453835 0 0 0 -2.60678,-0.31138 5.9496969,5.7283926 0 0 0 -3.26363,0.80204 2.7157188,2.6147051 0 0 0 -1.3034,2.3497 2.4536583,2.3623922 0 0 0 0.67614,1.65134 6.1665552,5.9371845 0 0 0 1.82301,1.25506 q 1.14674,0.54762 3.42024,1.45327 a 3.5443489,3.4125136 0 0 1 0.49012,0.1888 24.293666,23.390044 0 0 1 4.2337,2.0949 8.5363804,8.2188619 0 0 1 2.60694,2.57614 7.054885,6.792472 0 0 1 0.94084,3.57638 7.4718886,7.1939647 0 0 1 -1.30358,4.31254 7.7472956,7.4591278 0 0 1 -3.64554,2.60452 15.366492,14.794921 0 0 1 -5.47852,0.85876 17.261141,16.619096 0 0 1 -7.46775,-1.35888 4.0642752,3.9131007 0 0 1 -1.53866,-1.15122 2.6881114,2.5881245 0 0 1 -0.49988,-1.56654 2.1265857,2.0474854 0 0 1 0.6565,-1.59478 2.4216202,2.3315456 0 0 1 1.69544,-0.57562 4.3326058,4.1714505 0 0 1 1.97964,0.49068 q 1.1365,0.54764 1.79356,0.82112 a 9.0145247,8.6792211 0 0 0 1.54855,0.47176 8.8539892,8.5246568 0 0 0 1.98922,0.198 5.3096941,5.112195 0 0 0 3.3421,-0.8586 2.9431491,2.8336757 0 0 0 1.12694,-2.34972 2.5936741,2.4972001 0 0 0 -0.7055,-1.71752 7.5009156,7.2219123 0 0 0 -2.07758,-1.45312 q -1.3723,-0.6982 -3.86154,-1.6986 a 23.923112,23.03327 0 0 1 -4.24357,-2.12328"
         id="path2331-7" />
      <path
         id="path2333-8"
         style="opacity:0.2;fill:#ffffff;stroke-width:2"
         d="M 338.37966 126.33375 A 26.000015 26.000015 0 0 0 312.37966 152.33375 A 26.000015 26.000015 0 0 0 312.40505 152.99391 A 26.000015 26.000015 0 0 1 338.37966 127.33375 A 26.000015 26.000015 0 0 1 364.36404 152.65797 A 26.000015 26.000015 0 0 0 364.37966 152.33375 A 26.000015 26.000015 0 0 0 338.37966 126.33375 z " />
    </g>
    <g
       id="g2313"
       transform="matrix(4.0000025,0,0,4.0000025,-1136.0004,-532.00037)">
      <circle
         style="opacity:0.2;fill:#000000;stroke-width:2"
         cx="311.59991"
         cy="164.09999"
         r="11.599994"
         id="circle2-5-6" />
      <circle
         style="opacity:0.2;fill:#000000;stroke-width:2"
         cx="328.3999"
         cy="180.89998"
         r="11.599994"
         id="circle4-3-0" />
      <circle
         style="fill:#1587d7;stroke-width:2"
         cx="311.59991"
         cy="163.59999"
         r="11.599994"
         id="circle6-5-6" />
      <circle
         style="fill:#1587d7;stroke-width:2"
         cx="328.3999"
         cy="180.39998"
         r="11.599994"
         id="circle10-6-2" />
      <circle
         style="opacity:0.2;fill:#000000;stroke-width:2"
         cx="319.99988"
         cy="172.5"
         r="17.999989"
         id="circle12-2-6" />
      <path
         id="path591-9-1"
         style="opacity:0.2;fill:#ffffff;stroke-width:10.1181;stroke-linecap:round;stroke-linejoin:round"
         d="M 311.60156,152 A 11.599993,11.599993 0 0 0 300,163.60156 a 11.599993,11.599993 0 0 0 0.0176,0.25391 11.599994,11.599994 0 0 1 11.58203,-11.35547 11.599994,11.599994 0 0 1 11.58984,11.22852 11.599993,11.599993 0 0 0 0.01,-0.12696 A 11.599993,11.599993 0 0 0 311.60156,152 Z" />
      <circle
         style="fill:#28a8ea;stroke-width:2"
         cx="319.99988"
         cy="172"
         r="17.999989"
         id="circle14-1-8" />
      <path
         style="opacity:0.2;fill:#000000;fill-rule:evenodd;stroke-width:2"
         d="m 315.31374,172.15962 a 5.4909451,5.3945978 0 0 1 -1.72189,-1.78618 5.022798,4.934665 0 0 1 -0.58984,-2.46701 4.5129967,4.4338089 0 0 1 1.0632,-2.98596 6.3998066,6.2875118 0 0 1 2.77151,-1.81996 10.703848,10.516032 0 0 1 3.62908,-0.59989 14.09323,13.845942 0 0 1 2.41482,0.18198 8.7172126,8.5642553 0 0 1 1.67394,0.42466 3.2460141,3.1890577 0 0 1 1.31038,0.82229 1.6939349,1.6642122 0 0 1 0.40472,1.10547 1.6301024,1.6014997 0 0 1 -0.42534,1.15263 1.4162084,1.3913588 0 0 1 -1.07022,0.43815 1.9264916,1.8926882 0 0 1 -0.79574,-0.17534 14.404782,14.152027 0 0 0 -1.89356,-0.68071 6.8733365,6.7527329 0 0 0 -1.82474,-0.2224 4.1647827,4.0917049 0 0 0 -2.28454,0.57288 1.9010008,1.8676447 0 0 0 -0.91238,1.67835 1.7175587,1.6874214 0 0 0 0.4733,1.17954 4.3165832,4.2408421 0 0 0 1.2761,0.89647 q 0.80272,0.39115 2.39418,1.03805 a 2.4810411,2.4375073 0 0 1 0.34306,0.13484 17.005545,16.707157 0 0 1 2.9636,1.49634 5.9754588,5.8706101 0 0 1 1.82486,1.84011 4.9384132,4.8517611 0 0 1 0.65858,2.55455 5.2303155,5.1385413 0 0 1 -0.9125,3.08039 5.4231001,5.3279432 0 0 1 -2.55188,1.86038 10.756531,10.567791 0 0 1 -3.83496,0.61339 12.082784,11.870772 0 0 1 -5.22742,-0.97063 2.8449891,2.7950693 0 0 1 -1.07705,-0.8223 1.8816756,1.8486587 0 0 1 -0.34992,-1.11896 1.4886081,1.4624881 0 0 1 0.45956,-1.13913 1.6951319,1.6653882 0 0 1 1.18681,-0.41114 3.0328202,2.9796046 0 0 1 1.38572,0.35047 q 0.79556,0.39118 1.2555,0.58652 a 6.3101594,6.1994379 0 0 0 1.08398,0.33697 6.1977847,6.0890347 0 0 0 1.39246,0.14148 3.7167812,3.6515644 0 0 0 2.33946,-0.61328 2.0602018,2.0240522 0 0 0 0.78886,-1.67837 1.8155697,1.7837126 0 0 0 -0.49384,-1.2268 5.2506342,5.1585037 0 0 0 -1.4543,-1.03794 q -0.96062,-0.49872 -2.70308,-1.2133 a 16.746158,16.45232 0 0 1 -2.9705,-1.51661"
         id="path16-2-7" />
      <path
         style="fill:#ffffff;fill-rule:evenodd;stroke-width:2"
         d="m 315.31374,171.65961 a 5.4909451,5.3945978 0 0 1 -1.72189,-1.78618 5.022798,4.934665 0 0 1 -0.58984,-2.467 4.5129967,4.4338089 0 0 1 1.0632,-2.98596 6.3998066,6.2875118 0 0 1 2.77151,-1.81996 10.703848,10.516032 0 0 1 3.62908,-0.59989 14.09323,13.845942 0 0 1 2.41482,0.18198 8.7172126,8.5642553 0 0 1 1.67394,0.42466 3.2460141,3.1890577 0 0 1 1.31038,0.82228 1.6939349,1.6642122 0 0 1 0.40472,1.10548 1.6301024,1.6014997 0 0 1 -0.42534,1.15263 1.4162084,1.3913588 0 0 1 -1.07022,0.43815 1.9264916,1.8926882 0 0 1 -0.79574,-0.17534 14.404782,14.152027 0 0 0 -1.89356,-0.68071 6.8733365,6.7527329 0 0 0 -1.82474,-0.2224 4.1647827,4.0917049 0 0 0 -2.28454,0.57288 1.9010008,1.8676447 0 0 0 -0.91238,1.67835 1.7175587,1.6874214 0 0 0 0.4733,1.17953 4.3165832,4.2408421 0 0 0 1.2761,0.89647 q 0.80272,0.39116 2.39418,1.03805 a 2.4810411,2.4375073 0 0 1 0.34306,0.13484 17.005545,16.707157 0 0 1 2.9636,1.49635 5.9754588,5.8706101 0 0 1 1.82486,1.8401 4.9384132,4.8517611 0 0 1 0.65858,2.55456 5.2303155,5.1385413 0 0 1 -0.9125,3.08038 5.4231001,5.3279432 0 0 1 -2.55188,1.86038 10.756531,10.567791 0 0 1 -3.83496,0.6134 12.082784,11.870772 0 0 1 -5.22742,-0.97064 2.8449891,2.7950693 0 0 1 -1.07705,-0.82229 1.8816756,1.8486587 0 0 1 -0.34992,-1.11897 1.4886081,1.4624881 0 0 1 0.45956,-1.13912 1.6951319,1.6653882 0 0 1 1.18681,-0.41115 3.0328202,2.9796046 0 0 1 1.38572,0.35048 q 0.79556,0.39117 1.2555,0.58652 a 6.3101594,6.1994379 0 0 0 1.08398,0.33697 6.1977847,6.0890347 0 0 0 1.39246,0.14148 3.7167812,3.6515644 0 0 0 2.33946,-0.61329 2.0602018,2.0240522 0 0 0 0.78886,-1.67837 1.8155697,1.7837126 0 0 0 -0.49384,-1.2268 5.2506342,5.1585037 0 0 0 -1.4543,-1.03794 q -0.96062,-0.49871 -2.70308,-1.21329 a 16.746158,16.45232 0 0 1 -2.9705,-1.51662"
         id="path18-7-9" />
      <path
         id="path509-0-2"
         style="opacity:0.2;fill:#ffffff;stroke-width:9.99999;stroke-linecap:round;stroke-linejoin:round"
         d="m 320,154 a 17.999989,17.999989 0 0 0 -18,18 17.999989,17.999989 0 0 0 0.0176,0.24414 A 17.999989,17.999989 0 0 1 320,154.5 17.999989,17.999989 0 0 1 337.99219,172.12305 17.999989,17.999989 0 0 0 338,172 17.999989,17.999989 0 0 0 320,154 Z" />
    </g>
  </g>
  <g
     id="Highlights">
    <path
       id="rect653"
       style="opacity:0.5;fill:#ffffff"
       d="M 80,44 C 53.408027,44 32,65.408027 32,92 v 2 C 32,67.408027 53.408027,46 80,46 h 128 c 26.59197,0 48,21.408027 48,48 V 92 C 256,65.408027 234.59197,44 208,44 Z"
       sodipodi:nodetypes="sscsscsss" />
    <path
       id="rect773"
       style="opacity:0.5;fill:#ffffff"
       d="m 312,34 c -9.97199,0 -18,8.02801 -18,18 v 1 c 0,-9.97199 8.02801,-18 18,-18 h 48 c 9.97199,0 18,8.02801 18,18 v -1 c 0,-9.97199 -8.02801,-18 -18,-18 z" />
    <path
       id="rect1135"
       style="opacity:0.5;fill:#ffffff;fill-opacity:1"
       d="m 304,144 c -6.64799,0 -12,5.35201 -12,12 v 1 c 0,-6.64799 5.35201,-12 12,-12 h 32 c 6.64799,0 12,5.35201 12,12 v -1 c 0,-6.64799 -5.35201,-12 -12,-12 z" />
    <path
       id="rect1265"
       style="opacity:0.5;fill:#ffffff;fill-opacity:1"
       d="m 300,223 c -4.986,0 -9,4.014 -9,9 v 1 c 0,-4.986 4.014,-9 9,-9 h 24 c 4.986,0 9,4.014 9,9 v -1 c 0,-4.986 -4.014,-9 -9,-9 z" />
    <path
       id="rect1368"
       style="opacity:0.5;fill:#ffffff;fill-opacity:1"
       d="m 424,54 c -3.324,0 -6,2.676003 -6,6 v 1 c 0,-3.323997 2.676,-6 6,-6 h 16 c 3.324,0 6,2.676003 6,6 v -1 c 0,-3.323997 -2.676,-6 -6,-6 z" />
    <path
       id="rect1402"
       style="opacity:0.5;fill:#ffffff;fill-opacity:1"
       d="m 420,140 c -2.216,0 -4,1.784 -4,4 v 1 c 0,-2.216 1.784,-4 4,-4 h 8 c 2.216,0 4,1.784 4,4 v -1 c 0,-2.216 -1.784,-4 -4,-4 z" />
    <path
       id="rect1436"
       style="opacity:0.5;fill:#ffffff;fill-opacity:1"
       d="m 422,102 c -2.216,0 -4,1.784 -4,4 v 1 c 0,-2.216 1.784,-4 4,-4 h 12 c 2.216,0 4,1.784 4,4 v -1 c 0,-2.216 -1.784,-4 -4,-4 z" />
  </g>
</svg>
