<?xml version="1.0" encoding="UTF-8" standalone="no"?>
<!-- Created with Inkscape (http://www.inkscape.org/) -->

<svg
   width="480"
   height="300"
   viewBox="0 0 480 300"
   version="1.1"
   id="svg5"
   inkscape:version="1.2.2 (1:1.2.2+202305151914+b0a8486541)"
   sodipodi:docname="steam.svg"
   xmlns:inkscape="http://www.inkscape.org/namespaces/inkscape"
   xmlns:sodipodi="http://sodipodi.sourceforge.net/DTD/sodipodi-0.dtd"
   xmlns="http://www.w3.org/2000/svg"
   xmlns:svg="http://www.w3.org/2000/svg">
  <sodipodi:namedview
     id="namedview7"
     pagecolor="#888888"
     bordercolor="#000000"
     borderopacity="0.25"
     inkscape:showpageshadow="true"
     inkscape:pageopacity="0"
     inkscape:pagecheckerboard="0"
     inkscape:deskcolor="#888888"
     inkscape:document-units="px"
     showgrid="false"
     showborder="false"
     inkscape:zoom="2.6866667"
     inkscape:cx="227.23325"
     inkscape:cy="150"
     inkscape:window-width="1920"
     inkscape:window-height="1008"
     inkscape:window-x="0"
     inkscape:window-y="0"
     inkscape:window-maximized="1"
     inkscape:current-layer="svg5" />
  <defs
     id="defs2" />
  <g
     id="Baseplate"
     style="display:none">
    <text
       y="19.774782"
       xml:space="preserve"
       x="15.006946"
       style="font-style:normal;font-variant:normal;font-weight:normal;font-stretch:normal;line-height:0%;font-family:'DejaVu Sans';-inkscape-font-specification:'DejaVu Sans';display:inline;fill:#000000;fill-opacity:1;stroke:none;enable-background:new"
       inkscape:label="context"
       id="context"><tspan
         style="font-style:normal;font-variant:normal;font-weight:normal;font-stretch:normal;font-size:18px;line-height:1.25;font-family:'DejaVu Sans';-inkscape-font-specification:'DejaVu Sans'"
         y="19.774782"
         x="15.006946"
         sodipodi:role="line"
         id="tspan3933">apps</tspan></text>
    <text
       y="19.774782"
       xml:space="preserve"
       x="122.48839"
       style="font-style:normal;font-variant:normal;font-weight:bold;font-stretch:normal;line-height:0%;font-family:'DejaVu Sans';-inkscape-font-specification:'DejaVu Sans Bold';text-align:start;writing-mode:lr-tb;text-anchor:start;display:inline;fill:#000000;fill-opacity:1;stroke:none;enable-background:new"
       inkscape:label="icon-name"
       id="icon-name"><tspan
         style="font-style:normal;font-variant:normal;font-weight:bold;font-stretch:normal;font-size:18px;line-height:1.25;font-family:'DejaVu Sans';-inkscape-font-specification:'DejaVu Sans Bold'"
         y="19.774782"
         x="122.48839"
         sodipodi:role="line"
         id="tspan3937">steam</tspan></text>
    <rect
       style="fill:#ffffff"
       id="256x256"
       width="256"
       height="256"
       x="16"
       y="28" />
    <rect
       style="fill:#ffffff"
       id="96x96"
       width="96"
       height="96"
       x="288"
       y="28" />
    <rect
       style="fill:#ffffff"
       id="64x64"
       width="64"
       height="64"
       x="288"
       y="140" />
    <rect
       style="fill:#ffffff"
       id="48x48"
       width="48"
       height="48"
       x="288"
       y="220" />
    <rect
       style="fill:#ffffff"
       id="32x32"
       width="32"
       height="32"
       x="416"
       y="52" />
    <rect
       style="fill:#ffffff"
       id="24x24"
       width="24"
       height="24"
       x="416"
       y="100" />
    <rect
       style="fill:#ffffff"
       id="22x22"
       width="22"
       height="22"
       x="417"
       y="101" />
    <rect
       style="fill:#ffffff"
       id="16x16"
       width="16"
       height="16"
       x="416"
       y="140" />
  </g>
  <g
     id="Shadow">
    <rect
       style="opacity:0.2;fill:#000000"
       id="rect651"
       width="224"
       height="224"
       x="32"
       y="46"
       ry="48" />
    <rect
       style="opacity:0.2;fill:#000000"
       id="rect769"
       width="84"
       height="85"
       x="294"
       y="34"
       ry="18" />
    <rect
       style="opacity:0.2;fill:#000000;fill-opacity:1"
       id="rect1131"
       width="56"
       height="56"
       x="292"
       y="145"
       ry="12" />
    <rect
       style="opacity:0.2;fill:#000000;fill-opacity:1"
       id="rect1261"
       width="42"
       height="42"
       x="291"
       y="224"
       ry="9" />
    <rect
       style="opacity:0.2;fill:#000000;fill-opacity:1"
       id="rect1364"
       width="28"
       height="29"
       x="418"
       y="54"
       ry="6" />
    <rect
       style="opacity:0.2;fill:#000000;fill-opacity:1"
       id="rect1398"
       width="16"
       height="16"
       x="416"
       y="141"
       ry="4" />
    <rect
       style="opacity:0.2;fill:#000000;fill-opacity:1"
       id="rect1432"
       width="20"
       height="20"
       x="418"
       y="103"
       ry="4" />
  </g>
  <g
     id="Background">
    <rect
       style="fill:#1955aa;fill-opacity:1"
       id="rect597"
       width="224"
       height="224"
       x="32"
       y="44"
       ry="48" />
    <rect
       style="opacity:1;fill:#1955aa;fill-opacity:1"
       id="rect771"
       width="84"
       height="84"
       x="294"
       y="34"
       ry="18" />
    <rect
       style="opacity:1;fill:#1955aa;fill-opacity:1"
       id="rect1133"
       width="56"
       height="56"
       x="292"
       y="144"
       ry="12" />
    <rect
       style="opacity:1;fill:#1955aa;fill-opacity:1"
       id="rect1263"
       width="42"
       height="42"
       x="291"
       y="223"
       ry="9" />
    <rect
       style="opacity:1;fill:#1955aa;fill-opacity:1"
       id="rect1366"
       width="28"
       height="28"
       x="418"
       y="54"
       ry="6" />
    <rect
       style="opacity:1;fill:#1955aa;fill-opacity:1"
       id="rect1400"
       width="16"
       height="16"
       x="416"
       y="140"
       ry="4" />
    <rect
       style="opacity:1;fill:#1955aa;fill-opacity:1"
       id="rect1434"
       width="20"
       height="20"
       x="418"
       y="102"
       ry="4" />
  </g>
  <g
     id="Symbols">
    <path
       d="m 426.49989,144 c -1.933,0 -3.5,1.567 -3.5,3.5 l 0.006,0.0879 -1.44727,2.41406 c -0.0195,-8.8e-4 -0.0391,-0.002 -0.0586,-0.002 -0.57647,0.002 -1.13468,0.2024 -1.58009,0.56836 L 416,148.57418 v 2.30082 l 3.01172,1.47457 c -0.005,0.05 -0.009,0.10015 -0.0117,0.15039 0,1.38071 1.11928,2.5 2.5,2.5 1.38071,0 2.5,-1.11929 2.5,-2.5 -9e-5,-0.11829 -0.009,-0.23643 -0.0254,-0.35352 l 2.02929,-1.18164 c 0.16432,0.0235 0.33011,0.0352 0.49609,0.0352 1.933,0 3.5,-1.567 3.5,-3.5 0,-1.933 -1.567,-3.5 -3.5,-3.5 z m 0,1.5 c 1.10457,0 2,0.89543 2,2 0,1.10457 -0.89543,2 -2,2 -1.10457,0 -2,-0.89543 -2,-2 0,-1.10457 0.89543,-2 2,-2 z m 0,0.5 c -0.82843,0 -1.5,0.67157 -1.5,1.5 0,0.82843 0.67157,1.5 1.5,1.5 0.82843,0 1.5,-0.67157 1.5,-1.5 0,-0.82843 -0.67157,-1.5 -1.5,-1.5 z m -5,5 c 0.82843,0 1.5,0.67157 1.5,1.5 0,0.82843 -0.67157,1.5 -1.5,1.5 -0.67784,-0.003 -1.26949,-0.46007 -1.44336,-1.11523 l 0.98828,0.50585 c 1.18764,0.6072 2.0978,-1.17405 0.91016,-1.78125 l -0.99414,-0.50781 c 0.17191,-0.0667 0.35466,-0.10113 0.53906,-0.10156 z"
       style="fill:#000000;opacity:0.2"
       id="path1972" />
    <path
       d="m 426.49989,143 c -1.933,0 -3.5,1.567 -3.5,3.5 l 0.006,0.0879 -1.44727,2.41406 c -0.0195,-8.8e-4 -0.0391,-0.002 -0.0586,-0.002 -0.57647,0.002 -1.13468,0.2024 -1.58009,0.56836 L 416,147.57418 v 2.30082 l 3.01172,1.47457 c -0.005,0.05 -0.009,0.10015 -0.0117,0.15039 0,1.38071 1.11928,2.5 2.5,2.5 1.38071,0 2.5,-1.11929 2.5,-2.5 -9e-5,-0.11829 -0.009,-0.23643 -0.0254,-0.35352 l 2.02929,-1.18164 c 0.16432,0.0235 0.33011,0.0352 0.49609,0.0352 1.933,0 3.5,-1.567 3.5,-3.5 0,-1.933 -1.567,-3.5 -3.5,-3.5 z m 0,1.5 c 1.10457,0 2,0.89543 2,2 0,1.10457 -0.89543,2 -2,2 -1.10457,0 -2,-0.89543 -2,-2 0,-1.10457 0.89543,-2 2,-2 z m 0,0.5 c -0.82843,0 -1.5,0.67157 -1.5,1.5 0,0.82843 0.67157,1.5 1.5,1.5 0.82843,0 1.5,-0.67157 1.5,-1.5 0,-0.82843 -0.67157,-1.5 -1.5,-1.5 z m -5,5 c 0.82843,0 1.5,0.67157 1.5,1.5 0,0.82843 -0.67157,1.5 -1.5,1.5 -0.67784,-0.003 -1.26949,-0.46007 -1.44336,-1.11523 l 0.98828,0.50585 c 1.18764,0.6072 2.0978,-1.17405 0.91016,-1.78125 l -0.99414,-0.50781 c 0.17191,-0.0667 0.35466,-0.10113 0.53906,-0.10156 z"
       style="fill:#ffffff"
       id="path973"
       sodipodi:nodetypes="scccccccccssccsssssssssssssscscccccc" />
    <path
       d="m 430.99999,107.00002 c -2.13193,0.005 -3.88536,1.681 -3.98633,3.81055 l -1.91601,3.1914 c -0.0325,-0.001 -0.0651,-0.002 -0.0977,-0.002 -0.6431,0.003 -1.26823,0.21245 -1.7832,0.59765 L 418,112.36 v 3.265 l 4.02539,1.72458 c 0.1771,1.50936 1.45489,2.64788 2.97461,2.65039 1.65685,0 3,-1.34315 3,-3 -2.8e-4,-0.0273 -9.3e-4,-0.0547 -0.002,-0.082 l 3.32812,-1.94141 C 433.39804,114.80705 434.99474,113.07878 435,111 c 0,-2.20914 -1.79086,-4 -4,-4 z m 0,1.5 c 1.38071,0 2.5,1.11929 2.5,2.5 0,1.38071 -1.11929,2.5 -2.5,2.5 -1.38071,0 -2.5,-1.11929 -2.5,-2.5 0,-1.38071 1.11929,-2.5 2.5,-2.5 z m 0,0.5 c -1.10457,0 -2,0.89543 -2,2 0,1.10457 0.89543,2 2,2 1.10457,0 2,-0.89543 2,-2 0,-1.10457 -0.89543,-2 -2,-2 z m -6,6 c 1.10457,0 2,0.89543 2,2 0,1.10457 -0.89543,2 -2,2 -0.76948,-0.003 -1.46895,-0.44739 -1.79883,-1.14258 l 1.20508,0.51953 c 1.86648,0.87019 3.10151,-1.99393 1.1875,-2.75391 l -1.20703,-0.52148 c 0.19788,-0.0656 0.40481,-0.0999 0.61328,-0.10156 z"
       style="opacity:0.2;fill:#000000"
       id="path1944" />
    <path
       d="m 430.99999,106.00002 c -2.13193,0.005 -3.88536,1.681 -3.98633,3.81055 l -1.91601,3.1914 c -0.0325,-0.001 -0.0651,-0.002 -0.0977,-0.002 -0.6431,0.003 -1.26823,0.21245 -1.7832,0.59765 L 418,111.36 v 3.265 l 4.02539,1.72458 c 0.1771,1.50936 1.45489,2.64788 2.97461,2.65039 1.65685,0 3,-1.34315 3,-3 -2.8e-4,-0.0273 -9.3e-4,-0.0547 -0.002,-0.082 l 3.32812,-1.94141 C 433.39804,113.80705 434.99474,112.07878 435,110 c 0,-2.20914 -1.79086,-4 -4,-4 z m 0,1.5 c 1.38071,0 2.5,1.11929 2.5,2.5 0,1.38071 -1.11929,2.5 -2.5,2.5 -1.38071,0 -2.5,-1.11929 -2.5,-2.5 0,-1.38071 1.11929,-2.5 2.5,-2.5 z m 0,0.5 c -1.10457,0 -2,0.89543 -2,2 0,1.10457 0.89543,2 2,2 1.10457,0 2,-0.89543 2,-2 0,-1.10457 -0.89543,-2 -2,-2 z m -6,6 c 1.10457,0 2,0.89543 2,2 0,1.10457 -0.89543,2 -2,2 -0.76948,-0.003 -1.46895,-0.44739 -1.79883,-1.14258 l 1.20508,0.51953 c 1.86648,0.87019 3.10151,-1.99393 1.1875,-2.75391 l -1.20703,-0.52148 c 0.19788,-0.0656 0.40481,-0.0999 0.61328,-0.10156 z"
       style="fill:#ffffff"
       id="path1676"
       sodipodi:nodetypes="sccccccccccccsssssssssssscscccccc" />
    <path
       d="m 436.50004,61 c -2.97082,0.005 -5.40072,2.368358 -5.48828,5.337891 l -3.35742,4.6875 c -0.70404,0.06122 -1.37929,0.307868 -1.95703,0.714843 L 418,68 v 4.625 l 6.02734,2.748047 C 424.21953,77.424887 425.93918,78.994894 428,79 c 2.17745,-0.0028 3.95268,-1.74677 3.99414,-3.923828 l 5.22656,-3.128906 C 439.95391,71.586002 441.99734,69.256972 442,66.5 442,63.462434 439.53757,61 436.5,61 Z m 0,2 c 1.933,0 3.5,1.567003 3.5,3.5 0,1.932997 -1.567,3.5 -3.5,3.5 -1.933,0 -3.5,-1.567003 -3.5,-3.5 0,-1.932997 1.567,-3.5 3.5,-3.5 z m 0,1 c -1.38071,0 -2.5,1.119288 -2.5,2.5 0,1.380712 1.11929,2.5 2.5,2.5 1.38071,0 2.5,-1.119288 2.5,-2.5 0,-1.380712 -1.11929,-2.5 -2.5,-2.5 z m -8.5,8 c 1.30526,2.43e-4 2.46058,0.844421 2.85742,2.087891 l 0.10352,0.443359 c 0.0253,0.154987 0.0383,0.311718 0.0391,0.46875 0,1.656854 -1.34315,3 -3,3 -1.31536,-0.0017 -2.47621,-0.860064 -2.86328,-2.117188 l 2.02734,0.933594 c 2.45576,1.208107 4.18683,-2.553325 1.67188,-3.632812 l -2.02149,-0.929688 c 0.37379,-0.164441 0.77721,-0.25084 1.18555,-0.253906 z"
       style="opacity:0.2;fill:#000000"
       id="path1916"
       sodipodi:nodetypes="sccccccccccsssssssssssssccccccccss" />
    <path
       d="m 436.50004,60 c -2.97082,0.005 -5.40072,2.368358 -5.48828,5.337891 l -3.35742,4.6875 c -0.70404,0.06122 -1.37929,0.307868 -1.95703,0.714843 L 418,67 v 4.625 l 6.02734,2.748047 C 424.21953,76.424887 425.93918,77.994894 428,78 c 2.17745,-0.0028 3.95268,-1.74677 3.99414,-3.923828 l 5.22656,-3.128906 C 439.95391,70.586002 441.99734,68.256972 442,65.5 442,62.462434 439.53757,60 436.5,60 Z m 0,2 c 1.933,0 3.5,1.567003 3.5,3.5 0,1.932997 -1.567,3.5 -3.5,3.5 -1.933,0 -3.5,-1.567003 -3.5,-3.5 0,-1.932997 1.567,-3.5 3.5,-3.5 z m 0,1 c -1.38071,0 -2.5,1.119288 -2.5,2.5 0,1.380712 1.11929,2.5 2.5,2.5 1.38071,0 2.5,-1.119288 2.5,-2.5 0,-1.380712 -1.11929,-2.5 -2.5,-2.5 z m -8.5,8 c 1.30526,2.43e-4 2.46058,0.844421 2.85742,2.087891 l 0.10352,0.443359 c 0.0253,0.154987 0.0383,0.311718 0.0391,0.46875 0,1.656854 -1.34315,3 -3,3 -1.31536,-0.0017 -2.47621,-0.860064 -2.86328,-2.117188 l 2.02734,0.933594 c 2.45576,1.208107 4.18683,-2.553325 1.67188,-3.632812 l -2.02149,-0.929688 c 0.37379,-0.164441 0.77721,-0.25084 1.18555,-0.253906 z"
       style="fill:#ffffff"
       id="path1873"
       sodipodi:nodetypes="sccccccccccsssssssssssssccccccccss" />
    <path
       d="m 318.75006,233 c -4.45623,0.007 -8.10108,3.55254 -8.23242,8.00683 l -5.03613,7.03125 c -1.05606,0.0918 -2.06894,0.46181 -2.93554,1.07226 L 291,243.5 v 6.9375 l 9.04101,4.12207 c 0.28828,3.07776 2.86776,5.43276 5.95899,5.44043 3.26618,-0.004 5.92902,-2.62015 5.99121,-5.88575 l 7.83984,-4.69335 c 4.09982,-0.5419 7.16496,-4.03545 7.16895,-8.1709 0,-4.55635 -3.69364,-8.25 -8.25,-8.25 z m 0,3 c 2.8995,0 5.25,2.3505 5.25,5.25 0,2.8995 -2.3505,5.25 -5.25,5.25 -2.8995,0 -5.25,-2.3505 -5.25,-5.25 0,-2.8995 2.3505,-5.25 5.25,-5.25 z m 0,1.5 c -2.07107,0 -3.75,1.67894 -3.75,3.75 0,2.07106 1.67893,3.75 3.75,3.75 2.07106,0 3.75,-1.67894 3.75,-3.75 0,-2.07106 -1.67894,-3.75 -3.75,-3.75 z m -12.75,12 c 1.95789,3.6e-4 3.69087,1.26663 4.28613,3.13183 l 0.15528,0.66504 c 0.0379,0.23249 0.0574,0.46758 0.0587,0.70313 0,2.48527 -2.01473,4.5 -4.5,4.5 -1.97304,-0.003 -3.71431,-1.29009 -4.29492,-3.17579 l 3.04101,1.40041 c 3.68364,1.81215 6.28024,-3.83 2.50782,-5.44923 l -3.03223,-1.39452 c 0.56068,-0.24668 1.16581,-0.37626 1.77832,-0.38087 z"
       style="opacity:0.2;fill:#000000;stroke-width:1.5"
       id="path2351" />
    <path
       d="m 318.75006,232 c -4.45623,0.008 -8.10108,3.55254 -8.23242,8.00684 l -5.03612,7.03125 c -1.05606,0.0918 -2.06894,0.4618 -2.93556,1.07226 L 291,242.5 v 6.9375 l 9.04101,4.12208 c 0.28829,3.07775 2.86776,5.43277 5.95898,5.44042 3.26618,-0.005 5.92902,-2.62015 5.99121,-5.88574 l 7.83984,-4.69336 c 4.09982,-0.54189 7.16497,-4.03544 7.16896,-8.1709 0,-4.55635 -3.69365,-8.25 -8.25,-8.25 z m 0,3 c 2.8995,0 5.25,2.35051 5.25,5.25 0,2.8995 -2.3505,5.25001 -5.25,5.25001 -2.8995,0 -5.25,-2.35051 -5.25,-5.25001 0,-2.89949 2.3505,-5.25 5.25,-5.25 z m 0,1.5 c -2.07106,0 -3.75,1.67894 -3.75,3.75 0,2.07107 1.67894,3.75001 3.75,3.75001 2.07106,0 3.75,-1.67894 3.75,-3.75001 0,-2.07106 -1.67894,-3.75 -3.75,-3.75 z m -12.75,12 c 1.95789,3.7e-4 3.69086,1.26664 4.28612,3.13184 l 0.15528,0.66504 c 0.0379,0.23248 0.0574,0.46758 0.0587,0.70312 0,2.48528 -2.01472,4.5 -4.5,4.5 -1.97304,-0.002 -3.71432,-1.29009 -4.29492,-3.17578 l 3.04101,1.40039 c 3.68364,1.81217 6.28025,-3.82998 2.50782,-5.44922 l -3.03223,-1.39453 c 0.56068,-0.24666 1.16581,-0.37626 1.77832,-0.38086 z"
       style="fill:#ffffff;stroke-width:1.5"
       id="path2269" />
    <path
       d="m 329.00008,157 c -5.94163,0.01 -10.80143,4.73672 -10.97655,10.67578 l -6.71483,9.375 c -1.40808,0.12244 -2.75858,0.61573 -3.91407,1.42968 L 292,171 v 9.24999 l 12.05467,5.4961 c 0.38441,4.10367 3.8237,7.24369 7.94532,7.2539 4.35492,-0.006 7.90536,-3.49354 7.9883,-7.84765 l 10.45311,-6.25781 c 5.46642,-0.72253 9.55328,-5.38059 9.55858,-10.89453 0,-6.07513 -4.92484,-11 -11,-11 z m 0,4 c 3.86598,0 7,3.13401 7,7 0,3.86599 -3.13402,7 -7,7 -3.86599,0 -6.99999,-3.13401 -6.99999,-7 0,-3.86599 3.134,-7 6.99999,-7 z m 0,2 c -2.76143,0 -4.99999,2.23858 -4.99999,5 0,2.76142 2.23856,5 4.99999,5 2.76142,0 5,-2.23858 5,-5 0,-2.76142 -2.23858,-5 -5,-5 z m -16.99999,15.99999 c 2.6105,4.9e-4 4.92114,1.68885 5.71482,4.17578 l 0.20704,0.88672 c 0.0506,0.30998 0.0766,0.62344 0.0782,0.9375 0,3.31371 -2.6863,6 -6,6 -2.63072,-0.003 -4.95242,-1.72013 -5.72656,-4.23438 l 4.05468,1.86719 c 4.91152,2.41621 8.37366,-5.10664 3.34376,-7.26562 l -4.043,-1.85937 c 0.74758,-0.32889 1.55444,-0.50168 2.3711,-0.50782 z"
       style="opacity:0.2;fill:#000000;stroke-width:2"
       id="path2028"
       sodipodi:nodetypes="cccccccccccccsssssssssssccccccccss" />
    <path
       d="m 329.00008,156 c -5.94163,0.01 -10.80143,4.73672 -10.97655,10.67578 l -6.71483,9.375 c -1.40808,0.12244 -2.75858,0.61573 -3.91407,1.42968 L 292.00002,170 v 9.24999 l 12.05467,5.4961 c 0.38439,4.10367 3.82369,7.24369 7.94532,7.2539 4.3549,-0.006 7.90536,-3.49354 7.98828,-7.84765 l 10.45311,-6.25781 C 335.90782,177.172 339.99468,172.51394 340,167 c 0,-6.07513 -4.92486,-11 -11,-11 z m 0,4 c 3.866,0 7,3.13401 7,7 0,3.86599 -3.134,7 -7,7 -3.86599,0 -6.99999,-3.13401 -6.99999,-7 0,-3.86599 3.134,-7 6.99999,-7 z m 0,2 c -2.76141,0 -4.99999,2.23858 -4.99999,5 0,2.76142 2.23858,5 4.99999,5 2.76142,0 5,-2.23858 5,-5 0,-2.76142 -2.23858,-5 -5,-5 z m -16.99999,15.99999 c 2.61052,4.9e-4 4.92116,1.68885 5.71484,4.17579 l 0.20704,0.88671 c 0.0506,0.30998 0.0766,0.62344 0.0782,0.9375 0,3.31371 -2.6863,6 -6,6 -2.63072,-0.003 -4.95242,-1.72013 -5.72656,-4.23437 l 4.05468,1.86718 c 4.91152,2.41622 8.37366,-5.10664 3.34376,-7.26562 l -4.04298,-1.85937 c 0.74758,-0.32888 1.55442,-0.50168 2.3711,-0.50782 z"
       style="fill:#ffffff;stroke-width:2"
       id="path2000"
       sodipodi:nodetypes="cccccccccccccssssssssssccccccccccc" />
    <path
       d="m 349.49999,53 c -8.91245,0.015 -16.20215,7.10508 -16.46483,16.01367 l -10.07225,14.06251 c -2.11212,0.18366 -4.13787,0.92359 -5.87111,2.14452 L 293.99985,74.00001 v 13.87498 l 18.08201,8.24416 c 0.57662,6.1555 5.73555,10.86553 11.91798,10.88085 6.53239,-0.009 11.85805,-5.24031 11.98246,-11.77148 l 15.67967,-9.38672 c 8.19963,-1.08379 14.32992,-8.07088 14.33787,-16.3418 0,-9.11269 -7.38726,-16.5 -16.5,-16.5 z m 0,6 c 5.79897,0 10.5,4.70102 10.5,10.5 0,5.79899 -4.70103,10.50001 -10.5,10.50001 C 343.701,80.00001 339,75.29899 339,69.5 339,63.70102 343.701,59 349.49999,59 Z m 0,3 C 345.35784,62 342,65.35787 342,69.5 c 0,4.14214 3.35784,7.50001 7.49999,7.50001 4.14213,0 7.5,-3.35787 7.5,-7.50001 0,-4.14213 -3.35787,-7.5 -7.5,-7.5 z m -25.5,23.99999 c 3.91575,7.4e-4 7.38172,2.53328 8.57224,6.26368 l 0.31056,1.33008 c 0.0759,0.46497 0.1149,0.93516 0.1173,1.40625 0,4.97056 -4.02946,9 -9.00001,9 -3.94608,-0.005 -7.42863,-2.5802 -8.58984,-6.35157 l 6.08202,2.80078 c 7.36728,3.62432 12.5605,-7.65996 5.01564,-10.89843 l -6.0645,-2.78906 c 1.12137,-0.49333 2.33166,-0.75252 3.55665,-0.76173 z"
       style="opacity:0.2;fill:#000000;stroke-width:3"
       id="path2433" />
    <path
       d="m 349.50011,52 c -8.91245,0.015 -16.20215,7.10508 -16.46483,16.01368 l -10.07225,14.0625 c -2.11212,0.18366 -4.13787,0.9236 -5.87111,2.14452 L 294,73.00001 V 86.875 l 18.08201,8.24415 c 0.57659,6.15551 5.73554,10.86554 11.91799,10.88086 6.53235,-0.009 11.85804,-5.24031 11.98242,-11.77148 l 15.67967,-9.38672 C 359.86173,83.75801 365.99202,76.77092 366,68.50001 366,59.38731 358.61271,52 349.49999,52 Z m 0,6 c 5.79901,0 10.50001,4.70102 10.50001,10.50001 0,5.79898 -4.701,10.5 -10.50001,10.5 -5.79898,0 -10.49999,-4.70102 -10.49999,-10.5 C 339.00012,62.70102 343.70113,58 349.50011,58 Z m 0,3 c -4.14211,0 -7.49998,3.35788 -7.49998,7.50001 0,4.14213 3.35787,7.5 7.49998,7.5 4.14213,0 7.50001,-3.35787 7.50001,-7.5 0,-4.14213 -3.35788,-7.50001 -7.50001,-7.50001 z m -25.49999,24 c 3.91578,7.3e-4 7.38174,2.53327 8.57226,6.26369 l 0.31056,1.33006 c 0.0759,0.46497 0.1149,0.93516 0.1173,1.40625 0,4.97057 -4.02945,9.00001 -9,9.00001 -3.94608,-0.005 -7.42864,-2.5802 -8.58985,-6.35156 l 6.08203,2.80077 c 7.36728,3.62433 12.56049,-7.65996 5.01564,-10.89843 l -6.06447,-2.78906 c 1.12137,-0.49332 2.33163,-0.75252 3.55665,-0.76173 z"
       style="fill:#ffffff;stroke-width:3"
       id="path2379" />
    <path
       d="m 180.00032,94 c -23.76652,0.04 -43.20572,18.94688 -43.9062,42.70312 l -26.85932,37.5 c -5.63232,0.48976 -11.03432,2.46292 -15.656284,5.71872 L 32,150 v 36.99995 l 48.218676,21.9844 c 1.53764,16.41468 15.2948,28.97476 31.781284,29.0156 17.41968,-0.024 31.62144,-13.97415 31.9532,-31.3906 l 41.81244,-25.03123 c 21.86568,-2.89013 38.21312,-21.52237 38.23432,-43.57812 0,-24.30052 -19.69936,-44 -44,-44 z m 0,16 c 15.46392,0 28,12.53604 28,28 0,15.46395 -12.53608,28 -28,28 -15.46396,0 -27.99996,-12.53605 -27.99996,-28 0,-15.46396 12.536,-28 27.99996,-28 z m 0,8 c -11.04572,0 -19.99996,8.95432 -19.99996,20 0,11.04568 8.95424,20 19.99996,20 11.04568,0 20,-8.95432 20,-20 0,-11.04568 -8.95432,-20 -20,-20 z m -67.99996,63.99995 c 10.442,0.002 19.68456,6.75541 22.85928,16.70313 l 0.82816,3.54687 c 0.2024,1.23992 0.3064,2.49377 0.3128,3.75 0,13.25484 -10.7452,24 -24,24 -10.52288,-0.012 -19.809684,-6.88051 -22.906244,-16.93752 l 16.218724,7.46876 c 19.64608,9.66484 33.49464,-20.42656 13.37504,-29.06248 l -16.172,-7.43748 c 2.99032,-1.31556 6.21776,-2.00672 9.4844,-2.03128 z"
       style="opacity:0.2;fill:#000000;stroke-width:8"
       id="path2084" />
    <path
       d="m 180.00032,92 c -23.76652,0.04 -43.20572,18.94688 -43.9062,42.70312 l -26.85932,37.5 c -5.63232,0.48976 -11.03432,2.46292 -15.656284,5.71872 L 32.00008,148 v 36.99995 l 48.218676,21.9844 c 1.53756,16.41468 15.29476,28.97476 31.781284,29.0156 17.4196,-0.024 31.62144,-13.97415 31.95312,-31.3906 L 185.7656,179.57812 C 207.63128,176.68799 223.97872,158.05575 224,136 224,111.69948 204.30056,92 180,92 Z m 0,16 c 15.464,0 28,12.53604 28,28 0,15.46395 -12.536,28 -28,28 -15.46396,0 -27.99996,-12.53605 -27.99996,-28 0,-15.46396 12.536,-28 27.99996,-28 z m 0,8 c -11.04564,0 -19.99996,8.95432 -19.99996,20 0,11.04568 8.95432,20 19.99996,20 11.04568,0 20,-8.95432 20,-20 0,-11.04568 -8.95432,-20 -20,-20 z m -67.99996,63.99995 c 10.44208,0.002 19.68464,6.75541 22.85936,16.70317 l 0.82816,3.54683 c 0.2024,1.23992 0.3064,2.49377 0.3128,3.75 0,13.25484 -10.7452,24 -24,24 -10.52288,-0.012 -19.809684,-6.88051 -22.906244,-16.93747 l 16.218724,7.46872 c 19.64608,9.66488 33.49464,-20.42656 13.37504,-29.06248 l -16.17192,-7.43748 c 2.99032,-1.31552 6.21768,-2.00672 9.4844,-2.03128 z"
       style="fill:#ffffff;stroke-width:8"
       id="path2056" />
  </g>
  <g
     id="Highlights">
    <path
       id="rect653"
       style="opacity:0.2;fill:#ffffff"
       d="M 80,44 C 53.408027,44 32,65.408027 32,92 v 2 C 32,67.408027 53.408027,46 80,46 h 128 c 26.59197,0 48,21.408027 48,48 V 92 C 256,65.408027 234.59197,44 208,44 Z"
       sodipodi:nodetypes="sscsscsss" />
    <path
       id="rect773"
       style="opacity:0.2;fill:#ffffff"
       d="m 312,34 c -9.97199,0 -18,8.02801 -18,18 v 1 c 0,-9.97199 8.02801,-18 18,-18 h 48 c 9.97199,0 18,8.02801 18,18 v -1 c 0,-9.97199 -8.02801,-18 -18,-18 z" />
    <path
       id="rect1135"
       style="opacity:0.2;fill:#ffffff;fill-opacity:1"
       d="m 304,144 c -6.64799,0 -12,5.35201 -12,12 v 1 c 0,-6.64799 5.35201,-12 12,-12 h 32 c 6.64799,0 12,5.35201 12,12 v -1 c 0,-6.64799 -5.35201,-12 -12,-12 z" />
    <path
       id="rect1265"
       style="opacity:0.2;fill:#ffffff;fill-opacity:1"
       d="m 300,223 c -4.986,0 -9,4.014 -9,9 v 1 c 0,-4.986 4.014,-9 9,-9 h 24 c 4.986,0 9,4.014 9,9 v -1 c 0,-4.986 -4.014,-9 -9,-9 z" />
    <path
       id="rect1368"
       style="opacity:0.2;fill:#ffffff;fill-opacity:1"
       d="m 424,54 c -3.324,0 -6,2.676003 -6,6 v 1 c 0,-3.323997 2.676,-6 6,-6 h 16 c 3.324,0 6,2.676003 6,6 v -1 c 0,-3.323997 -2.676,-6 -6,-6 z" />
    <path
       id="rect1402"
       style="opacity:0.2;fill:#ffffff;fill-opacity:1"
       d="m 420,140 c -2.216,0 -4,1.784 -4,4 v 1 c 0,-2.216 1.784,-4 4,-4 h 8 c 2.216,0 4,1.784 4,4 v -1 c 0,-2.216 -1.784,-4 -4,-4 z" />
    <path
       id="rect1436"
       style="opacity:0.2;fill:#ffffff;fill-opacity:1"
       d="m 422,102 c -2.216,0 -4,1.784 -4,4 v 1 c 0,-2.216 1.784,-4 4,-4 h 12 c 2.216,0 4,1.784 4,4 v -1 c 0,-2.216 -1.784,-4 -4,-4 z" />
  </g>
</svg>
