<?xml version="1.0" encoding="UTF-8" standalone="no"?>
<!-- Created with Inkscape (http://www.inkscape.org/) -->

<svg
   width="480"
   height="300"
   viewBox="0 0 480 300"
   version="1.1"
   id="svg5"
   inkscape:version="1.2.2 (1:1.2.2+202305151914+b0a8486541)"
   sodipodi:docname="syncthing.svg"
   xmlns:inkscape="http://www.inkscape.org/namespaces/inkscape"
   xmlns:sodipodi="http://sodipodi.sourceforge.net/DTD/sodipodi-0.dtd"
   xmlns="http://www.w3.org/2000/svg"
   xmlns:svg="http://www.w3.org/2000/svg">
  <sodipodi:namedview
     id="namedview7"
     pagecolor="#888888"
     bordercolor="#000000"
     borderopacity="0.25"
     inkscape:showpageshadow="true"
     inkscape:pageopacity="0"
     inkscape:pagecheckerboard="0"
     inkscape:deskcolor="#888888"
     inkscape:document-units="px"
     showgrid="false"
     showborder="false"
     inkscape:zoom="2.6866667"
     inkscape:cx="240.07444"
     inkscape:cy="150"
     inkscape:window-width="1920"
     inkscape:window-height="1008"
     inkscape:window-x="0"
     inkscape:window-y="0"
     inkscape:window-maximized="1"
     inkscape:current-layer="svg5" />
  <defs
     id="defs2" />
  <g
     id="Baseplate"
     style="display:none">
    <text
       y="19.774782"
       xml:space="preserve"
       x="15.006946"
       style="font-style:normal;font-variant:normal;font-weight:normal;font-stretch:normal;line-height:0%;font-family:'DejaVu Sans';-inkscape-font-specification:'DejaVu Sans';display:inline;fill:#000000;fill-opacity:1;stroke:none;enable-background:new"
       inkscape:label="context"
       id="context"><tspan
         style="font-style:normal;font-variant:normal;font-weight:normal;font-stretch:normal;font-size:18px;line-height:1.25;font-family:'DejaVu Sans';-inkscape-font-specification:'DejaVu Sans'"
         y="19.774782"
         x="15.006946"
         sodipodi:role="line"
         id="tspan3933">apps</tspan></text>
    <text
       y="19.774782"
       xml:space="preserve"
       x="122.48839"
       style="font-style:normal;font-variant:normal;font-weight:bold;font-stretch:normal;line-height:0%;font-family:'DejaVu Sans';-inkscape-font-specification:'DejaVu Sans Bold';text-align:start;writing-mode:lr-tb;text-anchor:start;display:inline;fill:#000000;fill-opacity:1;stroke:none;enable-background:new"
       inkscape:label="icon-name"
       id="icon-name"><tspan
         style="font-style:normal;font-variant:normal;font-weight:bold;font-stretch:normal;font-size:18px;line-height:1.25;font-family:'DejaVu Sans';-inkscape-font-specification:'DejaVu Sans Bold'"
         y="19.774782"
         x="122.48839"
         sodipodi:role="line"
         id="tspan3937">syncthing</tspan></text>
    <rect
       style="fill:#ffffff"
       id="256x256"
       width="256"
       height="256"
       x="16"
       y="28" />
    <rect
       style="fill:#ffffff"
       id="96x96"
       width="96"
       height="96"
       x="288"
       y="28" />
    <rect
       style="fill:#ffffff"
       id="64x64"
       width="64"
       height="64"
       x="288"
       y="140" />
    <rect
       style="fill:#ffffff"
       id="48x48"
       width="48"
       height="48"
       x="288"
       y="220" />
    <rect
       style="fill:#ffffff"
       id="32x32"
       width="32"
       height="32"
       x="416"
       y="52" />
    <rect
       style="fill:#ffffff"
       id="24x24"
       width="24"
       height="24"
       x="416"
       y="100" />
    <rect
       style="fill:#ffffff"
       id="22x22"
       width="22"
       height="22"
       x="417"
       y="101" />
    <rect
       style="fill:#ffffff"
       id="16x16"
       width="16"
       height="16"
       x="416"
       y="140" />
  </g>
  <g
     id="Shadow">
    <rect
       style="opacity:0.2;fill:#000000"
       id="rect651"
       width="224"
       height="224"
       x="32"
       y="46"
       ry="48" />
    <rect
       style="opacity:0.2;fill:#000000"
       id="rect769"
       width="84"
       height="85"
       x="294"
       y="34"
       ry="18" />
    <rect
       style="opacity:0.2;fill:#000000;fill-opacity:1"
       id="rect1131"
       width="56"
       height="56"
       x="292"
       y="145"
       ry="12" />
    <rect
       style="opacity:0.2;fill:#000000;fill-opacity:1"
       id="rect1261"
       width="42"
       height="42"
       x="291"
       y="224"
       ry="9" />
    <rect
       style="opacity:0.2;fill:#000000;fill-opacity:1"
       id="rect1364"
       width="28"
       height="29"
       x="418"
       y="54"
       ry="6" />
    <rect
       style="opacity:0.2;fill:#000000;fill-opacity:1"
       id="rect1398"
       width="16"
       height="16"
       x="416"
       y="141"
       ry="4" />
    <rect
       style="opacity:0.2;fill:#000000;fill-opacity:1"
       id="rect1432"
       width="20"
       height="20"
       x="418"
       y="103"
       ry="4" />
  </g>
  <g
     id="Background">
    <rect
       style="fill:#1ca4d4;fill-opacity:1"
       id="rect597"
       width="224"
       height="224"
       x="32"
       y="44"
       ry="48" />
    <rect
       style="opacity:1;fill:#1ca4d4;fill-opacity:1"
       id="rect771"
       width="84"
       height="84"
       x="294"
       y="34"
       ry="18" />
    <rect
       style="opacity:1;fill:#1ca4d4;fill-opacity:1"
       id="rect1133"
       width="56"
       height="56"
       x="292"
       y="144"
       ry="12" />
    <rect
       style="opacity:1;fill:#1ca4d4;fill-opacity:1"
       id="rect1263"
       width="42"
       height="42"
       x="291"
       y="223"
       ry="9" />
    <rect
       style="opacity:1;fill:#1ca4d4;fill-opacity:1"
       id="rect1366"
       width="28"
       height="28"
       x="418"
       y="54"
       ry="6" />
    <rect
       style="opacity:1;fill:#1ca4d4;fill-opacity:1"
       id="rect1400"
       width="16"
       height="16"
       x="416"
       y="140"
       ry="4" />
    <rect
       style="opacity:1;fill:#1ca4d4;fill-opacity:1"
       id="rect1434"
       width="20"
       height="20"
       x="418"
       y="102"
       ry="4" />
  </g>
  <g
     id="g1946">
    <g
       id="g2520"
       transform="translate(-4.59765,0.9485)">
      <path
         d="m 428.59755,142.55149 c -2.76142,0 -5,2.23858 -5,5 0,2.76142 2.23858,5 5,5 2.76142,0 5,-2.23858 5,-5 -0.002,-0.5826 -0.10667,-1.16029 -0.308,-1.707 l 0.0107,-0.008 -0.0264,-0.0371 c -0.72987,-1.95105 -2.5929,-3.24517 -4.676,-3.2481 z m 0,0.5 c 1.68084,7.1e-4 3.22118,0.93811 3.9941,2.4307 l -3.12,2.2295 -5.3232,0.4834 c -0.0323,-0.21304 -0.0493,-0.42813 -0.0508,-0.6436 0,-2.48528 2.01472,-4.5 4.5,-4.5 z m 4.2695,3.0947 c 0.15077,0.45326 0.22841,0.92763 0.23,1.4053 -0.001,1.18489 -0.46986,2.32146 -1.304,3.163 l -1.7165,-2.5751 z m -3.4453,2.2725 1.8369,2.7549 c -0.77123,0.56861 -1.70382,0.87621 -2.662,0.878 -1.96994,-0.002 -3.70946,-1.28547 -4.293,-3.167 l 5.1172,-0.4658 z"
         style="opacity:0.2;fill:#000000"
         id="path2451" />
      <path
         d="m 428.59765,142.0515 c -2.76142,0 -5,2.23858 -5,5 0,2.76142 2.23858,5 5,5 2.76142,0 5,-2.23858 5,-5 -0.002,-0.5826 -0.10667,-1.16029 -0.308,-1.707 l 0.0107,-0.008 -0.0264,-0.0371 c -0.72987,-1.95105 -2.5929,-3.24517 -4.676,-3.2481 z m 0,0.5 c 1.68084,7.1e-4 3.22117,0.93811 3.9941,2.4307 l -3.12,2.2295 -5.3232,0.4834 c -0.0323,-0.21304 -0.0493,-0.42813 -0.0508,-0.6436 0,-2.48528 2.01472,-4.5 4.5,-4.5 z m 4.2695,3.0947 c 0.15077,0.45326 0.22841,0.92763 0.23,1.4053 -10e-4,1.18489 -0.46986,2.32146 -1.304,3.163 l -1.7165,-2.5751 z m -3.4453,2.2725 1.8369,2.7549 c -0.77123,0.56861 -1.70382,0.87621 -2.662,0.878 -1.96994,-0.002 -3.70946,-1.28547 -4.293,-3.167 l 5.1172,-0.4658 z"
         style="fill:#ffffff"
         id="path2314"
         sodipodi:nodetypes="csscccccccccccccccccccccccc" />
      <path
         d="m 433.09802,144.55148 c -0.55228,0 -1,0.44772 -1,1 0,0.55228 0.44772,1 1,1 0.55228,0 1,-0.44772 1,-1 0,-0.55228 -0.44772,-1 -1,-1 z m -3.5,2.5 c -0.55228,0 -1,0.44772 -1,1 0,0.55228 0.44772,1 1,1 0.55228,0 1,-0.44772 1,-1 0,-0.55228 -0.44772,-1 -1,-1 z m -5.5,0.5 c -0.55228,0 -1,0.44772 -1,1 0,0.55228 0.44772,1 1,1 0.55228,0 1,-0.44772 1,-1 0,-0.55228 -0.44772,-1 -1,-1 z m 7.5,2.5 c -0.55228,0 -1,0.44771 -1,1 0,0.55228 0.44772,1 1,1 0.55228,0 1,-0.44772 1,-1 0,-0.55229 -0.44772,-1 -1,-1 z"
         id="path2395"
         sodipodi:nodetypes="ssssssssssssssssssss"
         style="opacity:0.2;fill:#000000" />
      <path
         d="m 433.09802,144.05148 c -0.55228,0 -1,0.44772 -1,1 0,0.55228 0.44772,1 1,1 0.55228,0 1,-0.44772 1,-1 0,-0.55228 -0.44772,-1 -1,-1 z m -3.5,2.5 c -0.55229,0 -1,0.44772 -1,1 0,0.55228 0.44771,1 1,1 0.55228,0 1,-0.44772 1,-1 0,-0.55228 -0.44772,-1 -1,-1 z m -5.5,0.5 c -0.55229,0 -1,0.44772 -1,1 0,0.55228 0.44771,1 1,1 0.55228,0 1,-0.44772 1,-1 0,-0.55228 -0.44772,-1 -1,-1 z m 7.5,2.5 c -0.55228,0 -1,0.44771 -1,1 0,0.55228 0.44772,1 1,1 0.55228,0 1,-0.44772 1,-1 0,-0.55229 -0.44772,-1 -1,-1 z"
         id="path2423"
         style="fill:#ffffff" />
    </g>
    <g
       id="g2894">
      <path
         d="m 428.00003,105.5 c -3.86599,0 -7,3.134 -7,7 0,3.86599 3.13401,7 7,7 3.866,0 7,-3.13401 7,-7 0,-3.866 -3.134,-7 -7,-7 z m 0,1 c 2.27409,8.1e-4 4.35228,1.2872 5.36719,3.32226 l -4.04688,2.69531 -7.24804,0.90625 C 422.0244,113.1182 422.0003,112.80934 422,112.5 c 0,-3.31371 2.68628,-6 6,-6 z m 5.74415,4.27148 c 0.16917,0.5606 0.25538,1.14295 0.25585,1.72852 -0.007,1.39377 -0.49833,2.74176 -1.39062,3.8125 l -2.39063,-3.18946 z m -4.47071,2.76172 2.62696,3.50195 c -1.08342,0.9385 -2.46702,1.45814 -3.9004,1.46485 -2.57956,-0.001 -4.86962,-1.65118 -5.6875,-4.09766 z"
         style="fill:#000000;opacity:0.2"
         id="path2870" />
      <path
         d="m 428,105 c -3.86599,0 -7,3.134 -7,7 0,3.86599 3.13401,7 7,7 3.86599,0 7,-3.13401 7,-7 0,-3.866 -3.13401,-7 -7,-7 z m 0,1 c 2.27409,8.1e-4 4.35228,1.2872 5.36719,3.32226 l -4.04688,2.69531 -7.24804,0.90625 c -0.0479,-0.30562 -0.072,-0.61448 -0.0723,-0.92382 0,-3.31371 2.68629,-6 6,-6 z m 5.74414,4.27148 c 0.16918,0.5606 0.25538,1.14295 0.25586,1.72852 -0.007,1.39377 -0.49833,2.74176 -1.39063,3.8125 l -2.39062,-3.18946 z m -4.4707,2.76172 2.62695,3.50195 c -1.08342,0.9385 -2.46702,1.45814 -3.90039,1.46485 -2.57957,-0.001 -4.86963,-1.65118 -5.6875,-4.09766 z"
         style="fill:#ffffff"
         id="path2752"
         sodipodi:nodetypes="ssssssccccsscccccccccc" />
      <path
         d="m 434,108.5 c -0.82843,0 -1.5,0.67157 -1.5,1.5 0,0.82842 0.67157,1.5 1.5,1.5 0.82843,0 1.5,-0.67158 1.5,-1.5 0,-0.82843 -0.67157,-1.5 -1.5,-1.5 z m -4.5,3 c -0.82843,0 -1.5,0.67157 -1.5,1.5 0,0.82842 0.67157,1.5 1.5,1.5 0.82843,0 1.5,-0.67158 1.5,-1.5 0,-0.82843 -0.67157,-1.5 -1.5,-1.5 z m -8,1 c -0.82843,0 -1.5,0.67157 -1.5,1.5 0,0.82842 0.67157,1.5 1.5,1.5 0.82843,0 1.5,-0.67158 1.5,-1.5 0,-0.82843 -0.67157,-1.5 -1.5,-1.5 z m 11,3 c -0.82843,0 -1.5,0.67157 -1.5,1.5 0,0.82842 0.67157,1.5 1.5,1.5 0.82843,0 1.5,-0.67158 1.5,-1.5 0,-0.82843 -0.67157,-1.5 -1.5,-1.5 z"
         style="fill:#000000;opacity:0.2"
         id="path2842" />
      <path
         d="m 434,108 c -0.82843,0 -1.5,0.67157 -1.5,1.5 0,0.82842 0.67157,1.5 1.5,1.5 0.82843,0 1.5,-0.67158 1.5,-1.5 0,-0.82843 -0.67157,-1.5 -1.5,-1.5 z m -4.5,3 c -0.82843,0 -1.5,0.67157 -1.5,1.5 0,0.82842 0.67157,1.5 1.5,1.5 0.82843,0 1.5,-0.67158 1.5,-1.5 0,-0.82843 -0.67157,-1.5 -1.5,-1.5 z m -8,1 c -0.82843,0 -1.5,0.67157 -1.5,1.5 0,0.82842 0.67157,1.5 1.5,1.5 0.82843,0 1.5,-0.67158 1.5,-1.5 0,-0.82843 -0.67157,-1.5 -1.5,-1.5 z m 11,3 c -0.82843,0 -1.5,0.67157 -1.5,1.5 0,0.82842 0.67157,1.5 1.5,1.5 0.82843,0 1.5,-0.67158 1.5,-1.5 0,-0.82843 -0.67157,-1.5 -1.5,-1.5 z"
         style="fill:#ffffff"
         id="path2781"
         sodipodi:nodetypes="ssssssssssssssssssss" />
    </g>
    <g
       id="g3202">
      <path
         d="m 432,59 c -5.52285,0 -10,4.477153 -10,10 0,5.522847 4.47715,10 10,10 5.52285,0 10,-4.477153 10,-10 0,-5.522847 -4.47715,-10 -10,-10 z m 0,1 c 3.3624,6.46e-4 6.44402,1.875536 7.99023,4.861328 -5.4e-4,2.95e-4 -10e-4,-2.99e-4 -0.002,0 l -6.24023,4.458984 -10.64649,0.966797 C 423.03691,69.861057 423.00301,69.430914 423,69 c 0,-4.970563 4.02944,-9 9,-9 z m 8.54492,6.181641 C 440.8456,67.090898 440.99922,68.042318 441,69 c -0.003,2.352877 -0.9268,4.61112 -2.57422,6.291016 l -3.4668,-5.115235 5.58008,-3.986328 c 0.002,-0.0027 0.004,-0.0052 0.006,-0.0078 z m -6.89648,4.552734 3.71289,5.486328 C 435.81149,77.373808 433.93175,77.997647 432,78 c -3.93986,-0.0044 -7.41886,-2.570945 -8.58594,-6.333984 z"
         style="opacity:0.2;fill:#000000;fill-opacity:1;stroke-width:2;stroke-linecap:square"
         id="path3121" />
      <path
         id="path3104"
         style="opacity:1;fill:#ffffff;fill-opacity:1;stroke-width:2;stroke-linecap:square"
         d="m 432,58 c -5.52285,0 -10,4.477153 -10,10 0,5.522847 4.47715,10 10,10 5.52285,0 10,-4.477153 10,-10 0,-5.522847 -4.47715,-10 -10,-10 z m 0,1 c 3.3624,6.46e-4 6.44402,1.875536 7.99023,4.861328 -5.4e-4,2.95e-4 -0.001,-2.99e-4 -0.002,0 l -6.24023,4.458984 -10.64649,0.966797 C 423.03694,68.861057 423.003,68.430914 423,68 c 0,-4.970563 4.02944,-9 9,-9 z m 8.54492,6.181641 C 440.8456,66.090898 440.99922,67.042318 441,68 c -0.003,2.352877 -0.9268,4.61112 -2.57422,6.291016 l -3.4668,-5.115235 5.58008,-3.986328 c 0.002,-0.0027 0.004,-0.0052 0.006,-0.0078 z m -6.89648,4.552734 3.71289,5.486328 C 435.81149,76.373808 433.93175,76.997647 432,77 c -3.93986,-0.0044 -7.41886,-2.570945 -8.58594,-6.333984 z"
         sodipodi:nodetypes="ssssscccccccccccccccccc" />
      <path
         d="m 441,63 c -1.10457,0 -2,0.895431 -2,2 0,1.104569 0.89543,2 2,2 1.10457,0 2,-0.895431 2,-2 0,-1.104569 -0.89543,-2 -2,-2 z m -7,5 c -1.10457,0 -2,0.895431 -2,2 0,1.104569 0.89543,2 2,2 1.10457,0 2,-0.895431 2,-2 0,-1.104569 -0.89543,-2 -2,-2 z m -11,1 c -1.10457,0 -2,0.895431 -2,2 0,1.104569 0.89543,2 2,2 1.10457,0 2,-0.895431 2,-2 0,-1.104569 -0.89543,-2 -2,-2 z m 15,5 c -1.10457,0 -2,0.895431 -2,2 0,1.104569 0.89543,2 2,2 1.10457,0 2,-0.895431 2,-2 0,-1.104569 -0.89543,-2 -2,-2 z"
         id="path3178"
         style="fill:#000000;opacity:0.2" />
      <path
         d="m 441,62 c -1.10457,0 -2,0.895431 -2,2 0,1.104569 0.89543,2 2,2 1.10457,0 2,-0.895431 2,-2 0,-1.104569 -0.89543,-2 -2,-2 z m -7,5 c -1.10457,0 -2,0.895431 -2,2 0,1.104569 0.89543,2 2,2 1.10457,0 2,-0.895431 2,-2 0,-1.104569 -0.89543,-2 -2,-2 z m -11,1 c -1.10457,0 -2,0.895431 -2,2 0,1.104569 0.89543,2 2,2 1.10457,0 2,-0.895431 2,-2 0,-1.104569 -0.89543,-2 -2,-2 z m 15,5 c -1.10457,0 -2,0.895431 -2,2 0,1.104569 0.89543,2 2,2 1.10457,0 2,-0.895431 2,-2 0,-1.104569 -0.89543,-2 -2,-2 z"
         id="path3150"
         sodipodi:nodetypes="ssssssssssssssssssss"
         style="fill:#ffffff" />
    </g>
    <g
       id="g4212">
      <path
         id="path3270"
         style="opacity:0.2;fill:#000000;fill-opacity:1;stroke-width:2;stroke-linecap:square"
         d="m 312,230 c -8.28426,0 -15,6.71574 -15,15 0,8.28426 6.71574,15 15,15 8.28426,0 15,-6.71574 15,-15 0,-8.28426 -6.71574,-15 -15,-15 z m 0,2 c 5.04869,0 9.42297,2.87909 11.57617,7.08398 l -8.95508,6.39649 -15.48242,1.40625 C 299.04912,246.27077 299,245.64077 299,245 c 0,-7.17969 5.82031,-13 13,-13 z m 12.39648,9.07812 C 324.7878,242.31595 325,243.63278 325,245 c 0,3.50496 -1.38937,6.68344 -3.64453,9.02148 l -4.91797,-7.25781 z m -9.92382,6.52344 5.29492,7.82422 C 317.60035,257.04332 314.91227,258 312,258 c -5.80012,0 -10.71087,-3.7999 -12.38477,-9.04492 z"
         sodipodi:nodetypes="sssssscccsscscccccscc" />
      <path
         d="m 312,229 c -8.28426,0 -15,6.71574 -15,15 0,8.28426 6.71574,15 15,15 8.28426,0 15,-6.71574 15,-15 0,-8.28426 -6.71574,-15 -15,-15 z m 0,2 c 5.04869,0 9.42297,2.87909 11.57617,7.08398 l -8.95508,6.39649 -15.48242,1.40625 C 299.04907,245.27077 299,244.64077 299,244 c 0,-7.17969 5.82031,-13 13,-13 z m 12.39648,9.07812 C 324.7878,241.31595 325,242.63278 325,244 c 0,3.50496 -1.38937,6.68344 -3.64453,9.02148 l -4.91797,-7.25781 z m -9.92382,6.52344 5.29492,7.82422 C 317.60035,256.04332 314.91227,257 312,257 c -5.80012,0 -10.71087,-3.7999 -12.38477,-9.04492 z"
         style="fill:#ffffff;fill-opacity:1;stroke-width:2;stroke-linecap:square"
         id="path4188"
         sodipodi:nodetypes="sssssscccsscscccccscc" />
      <path
         d="m 325,237 c -1.65685,0 -3,1.34315 -3,3 0,1.65685 1.34315,3 3,3 1.65685,0 3,-1.34315 3,-3 0,-1.65685 -1.34315,-3 -3,-3 z m -9,7 c -1.65685,0 -3,1.34315 -3,3 0,1.65685 1.34315,3 3,3 1.65685,0 3,-1.34315 3,-3 0,-1.65685 -1.34315,-3 -3,-3 z m -18,1 c -1.65685,0 -3,1.34315 -3,3 0,1.65685 1.34315,3 3,3 1.65685,0 3,-1.34315 3,-3 0,-1.65685 -1.34315,-3 -3,-3 z m 23,8 c -1.65685,0 -3,1.34315 -3,3 0,1.65685 1.34315,3 3,3 1.65685,0 3,-1.34315 3,-3 0,-1.65685 -1.34315,-3 -3,-3 z"
         style="fill:#000000;fill-opacity:1;stroke-width:2;stroke-linecap:square;opacity:0.2"
         id="path4160" />
      <path
         id="path3623"
         style="opacity:1;fill:#ffffff;fill-opacity:1;stroke-width:2;stroke-linecap:square"
         d="m 325,236 c -1.65685,0 -3,1.34315 -3,3 0,1.65685 1.34315,3 3,3 1.65685,0 3,-1.34315 3,-3 0,-1.65685 -1.34315,-3 -3,-3 z m -9,7 c -1.65685,0 -3,1.34315 -3,3 0,1.65685 1.34315,3 3,3 1.65685,0 3,-1.34315 3,-3 0,-1.65685 -1.34315,-3 -3,-3 z m -18,1 c -1.65685,0 -3,1.34315 -3,3 0,1.65685 1.34315,3 3,3 1.65685,0 3,-1.34315 3,-3 0,-1.65685 -1.34315,-3 -3,-3 z m 23,8 c -1.65685,0 -3,1.34315 -3,3 0,1.65685 1.34315,3 3,3 1.65685,0 3,-1.34315 3,-3 0,-1.65685 -1.34315,-3 -3,-3 z"
         sodipodi:nodetypes="ssssssssssssssssssss" />
    </g>
    <g
       id="g1878"
       transform="translate(0,-0.81672)">
      <path
         id="path921"
         style="opacity:0.2;fill:#000000;stroke-width:2;stroke-linecap:square"
         d="m 320,153.81672 c -11.04569,0 -20,8.95431 -20,20 0,11.04569 8.95431,20 20,20 11.04569,0 20,-8.95431 20,-20 0,-11.04569 -8.95431,-20 -20,-20 z m 0,2 c 6.72861,6.1e-4 12.89508,3.75398 15.98633,9.73047 l -0.0117,-0.008 -12.47852,8.91797 -21.29297,1.93359 0.625,2.75781 20.46875,-1.86328 7.34571,11.01953 h 0.0234 c -3.08991,2.27799 -6.82717,3.50846 -10.66602,3.51171 -9.94113,0 -18,-8.05887 -18,-18 0,-9.94113 8.05887,-18 18,-18 z m 17.08594,12.3418 c 0.60494,1.82514 0.91354,3.73542 0.91406,5.6582 -0.002,4.74291 -1.87625,9.29328 -5.21484,12.66211 v -0.01 l -6.86719,-10.30075 11.1582,-7.97265 z"
         sodipodi:nodetypes="sssssccccccccccsccccccccc" />
      <path
         id="path923"
         style="fill:#ffffff;stroke-width:2;stroke-linecap:square"
         d="m 320,152.81672 c -11.04569,0 -20,8.95431 -20,20 0,11.04569 8.95431,20 20,20 11.04569,0 20,-8.95431 20,-20 0,-11.04569 -8.95431,-20 -20,-20 z m 0,2 c 6.72861,6.1e-4 12.89508,3.75398 15.98633,9.73047 l -0.0117,-0.008 -12.47852,8.91797 -21.29297,1.93359 0.625,2.75781 20.46875,-1.86328 7.34571,11.01953 h 0.0234 c -3.08991,2.27799 -6.82717,3.50846 -10.66602,3.51171 -9.94113,0 -18,-8.05887 -18,-18 0,-9.94113 8.05887,-18 18,-18 z m 17.08594,12.3418 c 0.60494,1.82514 0.91354,3.73542 0.91406,5.6582 -0.002,4.74291 -1.87625,9.29328 -5.21484,12.66211 v -0.01 l -6.86719,-10.30075 11.1582,-7.97265 z"
         sodipodi:nodetypes="sssssccccccccccsccccccccc" />
      <path
         d="m 338,161.81672 c -2.20914,0 -4,1.79086 -4,4 0,2.20914 1.79086,4 4,4 2.20914,0 4,-1.79086 4,-4 0,-2.20914 -1.79086,-4 -4,-4 z m -14,10 c -2.20914,0 -4,1.79086 -4,4 0,2.20914 1.79086,4 4,4 2.20914,0 4,-1.79086 4,-4 0,-2.20914 -1.79086,-4 -4,-4 z m -22,2 c -2.20914,0 -4,1.79086 -4,4 0,2.20914 1.79086,4 4,4 2.20914,0 4,-1.79086 4,-4 0,-2.20914 -1.79086,-4 -4,-4 z m 30,10 c -2.20914,0 -4,1.79086 -4,4 0,2.20914 1.79086,4 4,4 2.20914,0 4,-1.79086 4,-4 0,-2.20914 -1.79086,-4 -4,-4 z"
         style="opacity:0.2;fill:#000000;stroke-width:2;stroke-linecap:square"
         id="path1289"
         sodipodi:nodetypes="ssssssssssssssssssss" />
      <path
         id="path1005"
         style="fill:#ffffff;stroke-width:2;stroke-linecap:square"
         d="m 338,160.81672 c -2.20914,0 -4,1.79086 -4,4 0,2.20914 1.79086,4 4,4 2.20914,0 4,-1.79086 4,-4 0,-2.20914 -1.79086,-4 -4,-4 z m -14,10 c -2.20914,0 -4,1.79086 -4,4 0,2.20914 1.79086,4 4,4 2.20914,0 4,-1.79086 4,-4 0,-2.20914 -1.79086,-4 -4,-4 z m -22,2 c -2.20914,0 -4,1.79086 -4,4 0,2.20914 1.79086,4 4,4 2.20914,0 4,-1.79086 4,-4 0,-2.20914 -1.79086,-4 -4,-4 z m 30,10 c -2.20914,0 -4,1.79086 -4,4 0,2.20914 1.79086,4 4,4 2.20914,0 4,-1.79086 4,-4 0,-2.20914 -1.79086,-4 -4,-4 z"
         sodipodi:nodetypes="ssssssssssssssssssss" />
    </g>
    <g
       id="g4385"
       transform="matrix(2,0,0,2,-288,-412)">
      <path
         d="m 312,229.5 c -8.28426,0 -15,6.71574 -15,15 0,8.28426 6.71574,15 15,15 8.28426,0 15,-6.71574 15,-15 0,-8.28426 -6.71574,-15 -15,-15 z m 0,2 c 5.04869,0 9.42297,2.87909 11.57617,7.08398 l -8.95508,6.39649 -15.48242,1.40625 C 299.04907,245.77077 299,245.14077 299,244.5 c 0,-7.17969 5.82031,-13 13,-13 z m 12.39648,9.07812 C 324.7878,241.81595 325,243.13278 325,244.5 c 0,3.50496 -1.38937,6.68344 -3.64453,9.02148 l -4.91797,-7.25781 z m -9.92382,6.52344 5.29492,7.82422 C 317.60035,256.54332 314.91227,257.5 312,257.5 c -5.80012,0 -10.71087,-3.7999 -12.38477,-9.04492 z"
         style="opacity:0.2;fill:#000000;fill-opacity:1;stroke-width:2;stroke-linecap:square"
         id="path4278"
         sodipodi:nodetypes="sssssscccsscscccccscc" />
      <path
         d="m 312,229 c -8.28426,0 -15,6.71574 -15,15 0,8.28426 6.71574,15 15,15 8.28426,0 15,-6.71574 15,-15 0,-8.28426 -6.71574,-15 -15,-15 z m 0,2 c 5.04869,0 9.42297,2.87909 11.57617,7.08398 l -8.95508,6.39649 -15.48242,1.40625 C 299.04907,245.27077 299,244.64077 299,244 c 0,-7.17969 5.82031,-13 13,-13 z m 12.39648,9.07812 C 324.7878,241.31595 325,242.63278 325,244 c 0,3.50496 -1.38937,6.68344 -3.64453,9.02148 l -4.91797,-7.25781 z m -9.92382,6.52344 5.29492,7.82422 C 317.60035,256.04332 314.91227,257 312,257 c -5.80012,0 -10.71087,-3.7999 -12.38477,-9.04492 z"
         style="fill:#ffffff;fill-opacity:1;stroke-width:2;stroke-linecap:square"
         id="path4306" />
      <path
         d="m 325.5,236 c -1.65685,0 -3,1.34315 -3,3 0,1.65685 1.34315,3 3,3 1.65685,0 3,-1.34315 3,-3 0,-1.65685 -1.34315,-3 -3,-3 z m -10,7 c -1.65685,0 -3,1.34315 -3,3 0,1.65685 1.34315,3 3,3 1.65685,0 3,-1.34315 3,-3 0,-1.65685 -1.34315,-3 -3,-3 z m -17,2 c -1.65685,0 -3,1.34315 -3,3 0,1.65685 1.34315,3 3,3 1.65685,0 3,-1.34315 3,-3 0,-1.65685 -1.34315,-3 -3,-3 z m 23,8 c -1.65685,0 -3,1.34315 -3,3 0,1.65685 1.34315,3 3,3 1.65685,0 3,-1.34315 3,-3 0,-1.65685 -1.34315,-3 -3,-3 z"
         style="opacity:0.2;fill:#000000;fill-opacity:1;stroke-width:2;stroke-linecap:square"
         id="path4250"
         sodipodi:nodetypes="ssssssssssssssssssss" />
      <path
         d="m 325.5,235.5 c -1.65685,0 -3,1.34315 -3,3 0,1.65685 1.34315,3 3,3 1.65685,0 3,-1.34315 3,-3 0,-1.65685 -1.34315,-3 -3,-3 z m -10,7 c -1.65685,0 -3,1.34315 -3,3 0,1.65685 1.34315,3 3,3 1.65685,0 3,-1.34315 3,-3 0,-1.65685 -1.34315,-3 -3,-3 z m -17,2 c -1.65685,0 -3,1.34315 -3,3 0,1.65685 1.34315,3 3,3 1.65685,0 3,-1.34315 3,-3 0,-1.65685 -1.34315,-3 -3,-3 z m 23,8 c -1.65685,0 -3,1.34315 -3,3 0,1.65685 1.34315,3 3,3 1.65685,0 3,-1.34315 3,-3 0,-1.65685 -1.34315,-3 -3,-3 z"
         style="fill:#ffffff;fill-opacity:1;stroke-width:2;stroke-linecap:square"
         id="path4222"
         sodipodi:nodetypes="ssssssssssssssssssss" />
    </g>
    <g
       id="g2064"
       transform="matrix(4,0,0,4,-1136.0001,-532)">
      <path
         d="m 320,152.5 c -11.04569,0 -20,8.95431 -20,20 0,11.04569 8.95431,20 20,20 11.04569,0 20,-8.95431 20,-20 0,-11.04569 -8.95431,-20 -20,-20 z m 0,2 c 6.72861,6.1e-4 12.89508,3.75398 15.98633,9.73047 l -0.0117,-0.008 -12.47852,8.91797 -21.29297,1.93359 0.625,2.75781 20.46875,-1.86328 7.34571,11.01953 h 0.0234 c -3.08991,2.27799 -6.82717,3.50846 -10.66602,3.51171 -9.94113,0 -18,-8.05887 -18,-18 0,-9.94113 8.05887,-18 18,-18 z m 17.08594,12.3418 c 0.60494,1.82514 0.91354,3.73542 0.91406,5.6582 -0.002,4.74291 -1.87625,9.29328 -5.21484,12.66211 v -0.01 l -6.86719,-10.30075 11.1582,-7.97265 z"
         style="opacity:0.2;fill:#000000;stroke-width:2;stroke-linecap:square"
         id="path2040" />
      <path
         d="m 320,152 c -11.04569,0 -20,8.95431 -20,20 0,11.04569 8.95431,20 20,20 11.04569,0 20,-8.95431 20,-20 0,-11.04569 -8.95431,-20 -20,-20 z m 0,2 c 6.72861,6.1e-4 12.89508,3.75398 15.98633,9.73047 l -0.0117,-0.008 -12.47852,8.91797 -21.29297,1.93359 0.625,2.75781 20.46875,-1.86328 7.34571,11.01953 h 0.0234 c -3.08991,2.27799 -6.82717,3.50846 -10.66602,3.51171 -9.94113,0 -18,-8.05887 -18,-18 0,-9.94113 8.05887,-18 18,-18 z m 17.08594,12.3418 c 0.60494,1.82514 0.91354,3.73542 0.91406,5.6582 -0.002,4.74291 -1.87625,9.29328 -5.21484,12.66211 v -0.01 l -6.86719,-10.30075 11.1582,-7.97265 z"
         style="fill:#ffffff;stroke-width:2;stroke-linecap:square"
         id="path2012" />
      <path
         d="m 338,160.5 c -2.20914,0 -4,1.79086 -4,4 0,2.20914 1.79086,4 4,4 2.20914,0 4,-1.79086 4,-4 0,-2.20914 -1.79086,-4 -4,-4 z m -14,10 c -2.20914,0 -4,1.79086 -4,4 0,2.20914 1.79086,4 4,4 2.20914,0 4,-1.79086 4,-4 0,-2.20914 -1.79086,-4 -4,-4 z m -22,2 c -2.20914,0 -4,1.79086 -4,4 0,2.20914 1.79086,4 4,4 2.20914,0 4,-1.79086 4,-4 0,-2.20914 -1.79086,-4 -4,-4 z m 30,10 c -2.20914,0 -4,1.79086 -4,4 0,2.20914 1.79086,4 4,4 2.20914,0 4,-1.79086 4,-4 0,-2.20914 -1.79086,-4 -4,-4 z"
         style="opacity:0.2;fill:#000000;stroke-width:2;stroke-linecap:square"
         id="path1984" />
      <path
         d="m 338,160 c -2.20914,0 -4,1.79086 -4,4 0,2.20914 1.79086,4 4,4 2.20914,0 4,-1.79086 4,-4 0,-2.20914 -1.79086,-4 -4,-4 z m -14,10 c -2.20914,0 -4,1.79086 -4,4 0,2.20914 1.79086,4 4,4 2.20914,0 4,-1.79086 4,-4 0,-2.20914 -1.79086,-4 -4,-4 z m -22,2 c -2.20914,0 -4,1.79086 -4,4 0,2.20914 1.79086,4 4,4 2.20914,0 4,-1.79086 4,-4 0,-2.20914 -1.79086,-4 -4,-4 z m 30,10 c -2.20914,0 -4,1.79086 -4,4 0,2.20914 1.79086,4 4,4 2.20914,0 4,-1.79086 4,-4 0,-2.20914 -1.79086,-4 -4,-4 z"
         style="fill:#ffffff;stroke-width:2;stroke-linecap:square"
         id="path1956" />
    </g>
  </g>
  <g
     id="Highlights">
    <path
       id="rect653"
       style="opacity:0.2;fill:#ffffff"
       d="M 80,44 C 53.408027,44 32,65.408027 32,92 v 2 C 32,67.408027 53.408027,46 80,46 h 128 c 26.59197,0 48,21.408027 48,48 V 92 C 256,65.408027 234.59197,44 208,44 Z"
       sodipodi:nodetypes="sscsscsss" />
    <path
       id="rect773"
       style="opacity:0.2;fill:#ffffff"
       d="m 312,34 c -9.97199,0 -18,8.02801 -18,18 v 1 c 0,-9.97199 8.02801,-18 18,-18 h 48 c 9.97199,0 18,8.02801 18,18 v -1 c 0,-9.97199 -8.02801,-18 -18,-18 z" />
    <path
       id="rect1135"
       style="opacity:0.2;fill:#ffffff;fill-opacity:1"
       d="m 304,144 c -6.64799,0 -12,5.35201 -12,12 v 1 c 0,-6.64799 5.35201,-12 12,-12 h 32 c 6.64799,0 12,5.35201 12,12 v -1 c 0,-6.64799 -5.35201,-12 -12,-12 z" />
    <path
       id="rect1265"
       style="opacity:0.2;fill:#ffffff;fill-opacity:1"
       d="m 300,223 c -4.986,0 -9,4.014 -9,9 v 1 c 0,-4.986 4.014,-9 9,-9 h 24 c 4.986,0 9,4.014 9,9 v -1 c 0,-4.986 -4.014,-9 -9,-9 z" />
    <path
       id="rect1368"
       style="opacity:0.2;fill:#ffffff;fill-opacity:1"
       d="m 424,54 c -3.324,0 -6,2.676003 -6,6 v 1 c 0,-3.323997 2.676,-6 6,-6 h 16 c 3.324,0 6,2.676003 6,6 v -1 c 0,-3.323997 -2.676,-6 -6,-6 z" />
    <path
       id="rect1402"
       style="opacity:0.2;fill:#ffffff;fill-opacity:1"
       d="m 420,140 c -2.216,0 -4,1.784 -4,4 v 1 c 0,-2.216 1.784,-4 4,-4 h 8 c 2.216,0 4,1.784 4,4 v -1 c 0,-2.216 -1.784,-4 -4,-4 z" />
    <path
       id="rect1436"
       style="opacity:0.2;fill:#ffffff;fill-opacity:1"
       d="m 422,102 c -2.216,0 -4,1.784 -4,4 v 1 c 0,-2.216 1.784,-4 4,-4 h 12 c 2.216,0 4,1.784 4,4 v -1 c 0,-2.216 -1.784,-4 -4,-4 z" />
  </g>
</svg>
