<?xml version="1.0" encoding="UTF-8" standalone="no"?>
<!-- Created with Inkscape (http://www.inkscape.org/) -->

<svg
   width="480"
   height="300"
   viewBox="0 0 480 300"
   version="1.1"
   id="svg5"
   inkscape:version="1.2.2 (1:1.2.2+202305151914+b0a8486541)"
   sodipodi:docname="terminator.svg"
   xmlns:inkscape="http://www.inkscape.org/namespaces/inkscape"
   xmlns:sodipodi="http://sodipodi.sourceforge.net/DTD/sodipodi-0.dtd"
   xmlns="http://www.w3.org/2000/svg"
   xmlns:svg="http://www.w3.org/2000/svg">
  <sodipodi:namedview
     id="namedview7"
     pagecolor="#888888"
     bordercolor="#000000"
     borderopacity="0.25"
     inkscape:showpageshadow="true"
     inkscape:pageopacity="0"
     inkscape:pagecheckerboard="0"
     inkscape:deskcolor="#888888"
     inkscape:document-units="px"
     showgrid="false"
     showborder="false"
     inkscape:zoom="2.6866667"
     inkscape:cx="240.44665"
     inkscape:cy="150"
     inkscape:window-width="1920"
     inkscape:window-height="1008"
     inkscape:window-x="0"
     inkscape:window-y="0"
     inkscape:window-maximized="1"
     inkscape:current-layer="svg5" />
  <defs
     id="defs2">
    <mask
       maskUnits="userSpaceOnUse"
       id="mask2029">
      <rect
         style="opacity:1;fill:#ffffff;fill-opacity:1;stroke-width:0.75;stroke-linecap:round;stroke-linejoin:round"
         id="rect2031"
         width="224"
         height="224"
         x="32"
         y="44"
         ry="48" />
    </mask>
    <mask
       maskUnits="userSpaceOnUse"
       id="mask2023">
      <rect
         style="opacity:1;fill:#ffffff;fill-opacity:1;stroke-width:0.75;stroke-linecap:round;stroke-linejoin:round"
         id="rect2025"
         width="84"
         height="84"
         x="294"
         y="34"
         ry="18" />
    </mask>
    <mask
       maskUnits="userSpaceOnUse"
       id="mask2017">
      <rect
         style="opacity:1;fill:#ffffff;fill-opacity:1;stroke-width:0.75;stroke-linecap:round;stroke-linejoin:round"
         id="rect2019"
         width="56"
         height="56"
         x="292"
         y="144"
         ry="12" />
    </mask>
    <mask
       maskUnits="userSpaceOnUse"
       id="mask2011">
      <rect
         style="opacity:1;fill:#ffffff;fill-opacity:1;stroke-width:0.75;stroke-linecap:round;stroke-linejoin:round"
         id="rect2013"
         width="42"
         height="42"
         x="291"
         y="223"
         ry="9" />
    </mask>
    <mask
       maskUnits="userSpaceOnUse"
       id="mask2005">
      <rect
         style="opacity:1;fill:#ffffff;fill-opacity:1;stroke-width:0.75;stroke-linecap:round;stroke-linejoin:round"
         id="rect2007"
         width="28"
         height="28"
         x="418"
         y="54"
         ry="6" />
    </mask>
    <mask
       maskUnits="userSpaceOnUse"
       id="mask1995">
      <rect
         style="opacity:1;fill:#ffffff;fill-opacity:1;stroke-width:0.75;stroke-linecap:round;stroke-linejoin:round"
         id="rect1997"
         width="20"
         height="20"
         x="418"
         y="102"
         ry="4" />
    </mask>
    <mask
       maskUnits="userSpaceOnUse"
       id="mask1989">
      <rect
         style="opacity:1;fill:#ffffff;fill-opacity:1;stroke-width:0.75;stroke-linecap:round;stroke-linejoin:round"
         id="rect1991"
         width="16"
         height="16"
         x="416"
         y="140"
         ry="4" />
    </mask>
    <mask
       maskUnits="userSpaceOnUse"
       id="mask2925">
      <rect
         style="opacity:1;fill:#ffffff;stroke-width:2;stroke-linecap:square"
         id="rect2927"
         width="224"
         height="224"
         x="32"
         y="44"
         ry="48" />
    </mask>
    <mask
       maskUnits="userSpaceOnUse"
       id="mask2931">
      <rect
         style="opacity:1;fill:#ffffff;stroke-width:2;stroke-linecap:square"
         id="rect2933"
         width="84"
         height="84"
         x="294"
         y="34"
         ry="18" />
    </mask>
    <mask
       maskUnits="userSpaceOnUse"
       id="mask2937">
      <rect
         style="opacity:1;fill:#ffffff;stroke-width:2;stroke-linecap:square"
         id="rect2939"
         width="56"
         height="56"
         x="292"
         y="144"
         ry="12" />
    </mask>
    <mask
       maskUnits="userSpaceOnUse"
       id="mask2943">
      <rect
         style="opacity:1;fill:#ffffff;stroke-width:2;stroke-linecap:square"
         id="rect2945"
         width="42"
         height="42"
         x="291"
         y="223"
         ry="9" />
    </mask>
    <mask
       maskUnits="userSpaceOnUse"
       id="mask2949">
      <rect
         style="opacity:1;fill:#ffffff;stroke-width:2;stroke-linecap:square"
         id="rect2951"
         width="28"
         height="28"
         x="418"
         y="54"
         ry="6" />
    </mask>
    <mask
       maskUnits="userSpaceOnUse"
       id="mask2955">
      <rect
         style="opacity:1;fill:#ffffff;stroke-width:2;stroke-linecap:square"
         id="rect2957"
         width="20"
         height="20"
         x="418"
         y="102"
         ry="4" />
    </mask>
    <mask
       maskUnits="userSpaceOnUse"
       id="mask2961">
      <rect
         style="opacity:1;fill:#ffffff;stroke-width:2;stroke-linecap:square"
         id="rect2963"
         width="16"
         height="16"
         x="416"
         y="140"
         ry="4" />
    </mask>
  </defs>
  <g
     id="Baseplate"
     style="display:none">
    <text
       y="19.774782"
       xml:space="preserve"
       x="15.006946"
       style="font-style:normal;font-variant:normal;font-weight:normal;font-stretch:normal;line-height:0%;font-family:'DejaVu Sans';-inkscape-font-specification:'DejaVu Sans';display:inline;fill:#000000;fill-opacity:1;stroke:none;enable-background:new"
       inkscape:label="context"
       id="context"><tspan
         style="font-style:normal;font-variant:normal;font-weight:normal;font-stretch:normal;font-size:18px;line-height:1.25;font-family:'DejaVu Sans';-inkscape-font-specification:'DejaVu Sans'"
         y="19.774782"
         x="15.006946"
         sodipodi:role="line"
         id="tspan3933">apps</tspan></text>
    <text
       y="19.774782"
       xml:space="preserve"
       x="122.48839"
       style="font-style:normal;font-variant:normal;font-weight:bold;font-stretch:normal;line-height:0%;font-family:'DejaVu Sans';-inkscape-font-specification:'DejaVu Sans Bold';text-align:start;writing-mode:lr-tb;text-anchor:start;display:inline;fill:#000000;fill-opacity:1;stroke:none;enable-background:new"
       inkscape:label="icon-name"
       id="icon-name"><tspan
         style="font-style:normal;font-variant:normal;font-weight:bold;font-stretch:normal;font-size:18px;line-height:1.25;font-family:'DejaVu Sans';-inkscape-font-specification:'DejaVu Sans Bold'"
         y="19.774782"
         x="122.48839"
         sodipodi:role="line"
         id="tspan3937">terminator</tspan></text>
    <rect
       style="fill:#ffffff"
       id="256x256"
       width="256"
       height="256"
       x="16"
       y="28" />
    <rect
       style="fill:#ffffff"
       id="96x96"
       width="96"
       height="96"
       x="288"
       y="28" />
    <rect
       style="fill:#ffffff"
       id="64x64"
       width="64"
       height="64"
       x="288"
       y="140" />
    <rect
       style="fill:#ffffff"
       id="48x48"
       width="48"
       height="48"
       x="288"
       y="220" />
    <rect
       style="fill:#ffffff"
       id="32x32"
       width="32"
       height="32"
       x="416"
       y="52" />
    <rect
       style="fill:#ffffff"
       id="24x24"
       width="24"
       height="24"
       x="416"
       y="100" />
    <rect
       style="fill:#ffffff"
       id="22x22"
       width="22"
       height="22"
       x="417"
       y="101" />
    <rect
       style="fill:#ffffff"
       id="16x16"
       width="16"
       height="16"
       x="416"
       y="140" />
  </g>
  <g
     id="Shadow">
    <rect
       style="opacity:0.2;fill:#000000"
       id="rect651"
       width="224"
       height="224"
       x="32"
       y="46"
       ry="48" />
    <rect
       style="opacity:0.2;fill:#000000"
       id="rect769"
       width="84"
       height="85"
       x="294"
       y="34"
       ry="18" />
    <rect
       style="opacity:0.2;fill:#000000;fill-opacity:1"
       id="rect1131"
       width="56"
       height="56"
       x="292"
       y="145"
       ry="12" />
    <rect
       style="opacity:0.2;fill:#000000;fill-opacity:1"
       id="rect1261"
       width="42"
       height="42"
       x="291"
       y="224"
       ry="9" />
    <rect
       style="opacity:0.2;fill:#000000;fill-opacity:1"
       id="rect1364"
       width="28"
       height="29"
       x="418"
       y="54"
       ry="6" />
    <rect
       style="opacity:0.2;fill:#000000;fill-opacity:1"
       id="rect1398"
       width="16"
       height="16"
       x="416"
       y="141"
       ry="4" />
    <rect
       style="opacity:0.2;fill:#000000;fill-opacity:1"
       id="rect1432"
       width="20"
       height="20"
       x="418"
       y="103"
       ry="4" />
  </g>
  <g
     id="Background">
    <rect
       style="fill:#d42c2c;fill-opacity:1"
       id="rect597"
       width="224"
       height="224"
       x="32"
       y="44"
       ry="48" />
    <rect
       style="opacity:1;fill:#d42c2c;fill-opacity:1"
       id="rect771"
       width="84"
       height="84"
       x="294"
       y="34"
       ry="18" />
    <rect
       style="opacity:1;fill:#d42c2c;fill-opacity:1"
       id="rect1133"
       width="56"
       height="56"
       x="292"
       y="144"
       ry="12" />
    <rect
       style="opacity:1;fill:#d42c2c;fill-opacity:1"
       id="rect1263"
       width="42"
       height="42"
       x="291"
       y="223"
       ry="9" />
    <rect
       style="opacity:1;fill:#d42c2c;fill-opacity:1"
       id="rect1366"
       width="28"
       height="28"
       x="418"
       y="54"
       ry="6" />
    <rect
       style="opacity:1;fill:#d42c2c;fill-opacity:1"
       id="rect1400"
       width="16"
       height="16"
       x="416"
       y="140"
       ry="4" />
    <rect
       style="opacity:1;fill:#d42c2c;fill-opacity:1"
       id="rect1434"
       width="20"
       height="20"
       x="418"
       y="102"
       ry="4" />
  </g>
  <g
     id="g2921">
    <rect
       style="fill:#ffffff;stroke-width:1.14286;stroke-linecap:square;opacity:0.1"
       id="rect2871"
       width="8"
       height="16"
       x="424"
       y="140"
       mask="url(#mask2961)" />
    <rect
       style="opacity:0.1;fill:#ffffff;stroke-width:2;stroke-linecap:square"
       id="rect2900"
       width="10"
       height="20"
       x="428"
       y="102"
       mask="url(#mask2955)" />
    <rect
       style="opacity:0.1;fill:#ffffff;stroke-width:2;stroke-linecap:square"
       id="rect2904"
       width="14"
       height="28"
       x="432"
       y="54"
       mask="url(#mask2949)" />
    <rect
       style="opacity:0.1;fill:#ffffff;stroke-width:2;stroke-linecap:square"
       id="rect2906"
       width="21"
       height="42"
       x="312"
       y="223"
       mask="url(#mask2943)" />
    <rect
       style="opacity:0.1;fill:#ffffff;stroke-width:2;stroke-linecap:square"
       id="rect2908"
       width="28"
       height="56"
       x="320"
       y="144"
       mask="url(#mask2937)" />
    <rect
       style="opacity:0.1;fill:#ffffff;stroke-width:2;stroke-linecap:square"
       id="rect2910"
       width="42"
       height="84"
       x="336"
       y="34"
       mask="url(#mask2931)" />
    <rect
       style="opacity:0.1;fill:#ffffff;stroke-width:2;stroke-linecap:square"
       id="rect2912"
       width="112"
       height="224"
       x="144"
       y="44"
       mask="url(#mask2925)" />
  </g>
  <g
     id="g978">
    <g
       id="g922">
      <rect
         style="opacity:0.1;fill:#ffffff;fill-opacity:1;stroke-width:0.75;stroke-linecap:round;stroke-linejoin:round"
         id="rect1858"
         width="8"
         height="16"
         x="424"
         y="140"
         mask="url(#mask1989)"
         transform="rotate(90,424,148)" />
      <rect
         style="opacity:0.1;fill:#ffffff;fill-opacity:1;stroke-width:0.75;stroke-linecap:round;stroke-linejoin:round"
         id="rect1912"
         width="10"
         height="20"
         x="428"
         y="102"
         mask="url(#mask1995)"
         transform="rotate(90,428,112)" />
      <rect
         style="opacity:0.1;fill:#ffffff;fill-opacity:1;stroke-width:0.75;stroke-linecap:round;stroke-linejoin:round"
         id="rect1914"
         width="14"
         height="28"
         x="432"
         y="54"
         mask="url(#mask2005)"
         transform="rotate(90,432,68)" />
      <rect
         style="opacity:0.1;fill:#ffffff;fill-opacity:1;stroke-width:0.75;stroke-linecap:round;stroke-linejoin:round"
         id="rect1918"
         width="21"
         height="42"
         x="312"
         y="223"
         mask="url(#mask2011)"
         transform="rotate(90,312,244)" />
      <rect
         style="opacity:0.1;fill:#ffffff;fill-opacity:1;stroke-width:0.75;stroke-linecap:round;stroke-linejoin:round"
         id="rect1920"
         width="28"
         height="56"
         x="320"
         y="144"
         mask="url(#mask2017)"
         transform="rotate(90,320,172)" />
      <rect
         style="opacity:0.1;fill:#ffffff;fill-opacity:1;stroke-width:0.75;stroke-linecap:round;stroke-linejoin:round"
         id="rect1922"
         width="42"
         height="84"
         x="336"
         y="34"
         mask="url(#mask2023)"
         transform="rotate(90,336,76)" />
      <rect
         style="opacity:0.1;fill:#ffffff;fill-opacity:1;stroke-width:0.75;stroke-linecap:round;stroke-linejoin:round"
         id="rect1924"
         width="112"
         height="224"
         x="144"
         y="44"
         mask="url(#mask2029)"
         transform="rotate(90,144,156)" />
    </g>
    <g
       id="g1966">
      <path
         id="path2685"
         style="color:#000000;opacity:0.2;fill:#000000;stroke:none;stroke-linecap:round;stroke-linejoin:round;-inkscape-stroke:none"
         d="m 417.49414,142.5 c -0.1543,0.002 -0.30074,0.0736 -0.39453,0.19922 -0.16657,0.22101 -0.12192,0.53529 0.0996,0.70117 l 1.4668,1.09961 -1.4668,1.09961 c -0.22153,0.16588 -0.26618,0.48016 -0.0996,0.70117 0.16588,0.22153 0.48016,0.26618 0.70117,0.0996 l 2,-1.5 c 0.26732,-0.2 0.26732,-0.60078 0,-0.80078 l -2,-1.5 c -0.0701,-0.0531 -0.15295,-0.0868 -0.24023,-0.0977 -0.0222,-0.003 -0.0444,-0.002 -0.0664,-0.002 z m 3.00586,3 c -0.27614,0 -0.5,0.22386 -0.5,0.5 0,0.27614 0.22386,0.5 0.5,0.5 h 2 c 0.27614,0 0.5,-0.22386 0.5,-0.5 0,-0.27614 -0.22386,-0.5 -0.5,-0.5 z m 4.99414,4 c -0.1543,0.002 -0.30074,0.0736 -0.39453,0.19922 -0.16657,0.22101 -0.12192,0.53529 0.0996,0.70117 l 1.4668,1.09961 -1.4668,1.09961 c -0.22153,0.16588 -0.26618,0.48016 -0.0996,0.70117 0.16588,0.22153 0.48016,0.26618 0.70117,0.0996 l 2,-1.5 c 0.26732,-0.2 0.26732,-0.60078 0,-0.80078 l -2,-1.5 c -0.0701,-0.0531 -0.15295,-0.0868 -0.24023,-0.0977 -0.0222,-0.003 -0.0444,-0.002 -0.0664,-0.002 z m 3.00586,3 c -0.27614,0 -0.5,0.22386 -0.5,0.5 0,0.27614 0.22386,0.5 0.5,0.5 h 2 c 0.27614,0 0.5,-0.22386 0.5,-0.5 0,-0.27614 -0.22386,-0.5 -0.5,-0.5 z" />
      <path
         id="path2629"
         style="color:#000000;fill:#ffffff;stroke:none;stroke-linecap:round;stroke-linejoin:round;-inkscape-stroke:none"
         d="m 417.49414,142 c -0.1543,0.002 -0.30074,0.0736 -0.39453,0.19922 -0.16657,0.22101 -0.12192,0.53529 0.0996,0.70117 l 1.4668,1.09961 -1.4668,1.09961 c -0.22153,0.16588 -0.26618,0.48016 -0.0996,0.70117 0.16588,0.22153 0.48016,0.26618 0.70117,0.0996 l 2,-1.5 c 0.26732,-0.2 0.26732,-0.60078 0,-0.80078 l -2,-1.5 c -0.0701,-0.0531 -0.15295,-0.0868 -0.24023,-0.0977 -0.0222,-0.003 -0.0444,-0.002 -0.0664,-0.002 z m 3.00586,3 c -0.27614,0 -0.5,0.22386 -0.5,0.5 0,0.27614 0.22386,0.5 0.5,0.5 h 2 c 0.27614,0 0.5,-0.22386 0.5,-0.5 0,-0.27614 -0.22386,-0.5 -0.5,-0.5 z m 4.99414,4 c -0.1543,0.002 -0.30074,0.0736 -0.39453,0.19922 -0.16657,0.22101 -0.12192,0.53529 0.0996,0.70117 l 1.4668,1.09961 -1.4668,1.09961 c -0.22153,0.16588 -0.26618,0.48016 -0.0996,0.70117 0.16588,0.22153 0.48016,0.26618 0.70117,0.0996 l 2,-1.5 c 0.26732,-0.2 0.26732,-0.60078 0,-0.80078 l -2,-1.5 c -0.0701,-0.0531 -0.15295,-0.0868 -0.24023,-0.0977 -0.0222,-0.003 -0.0444,-0.002 -0.0664,-0.002 z m 3.00586,3 c -0.27614,0 -0.5,0.22386 -0.5,0.5 0,0.27614 0.22386,0.5 0.5,0.5 h 2 c 0.27614,0 0.5,-0.22386 0.5,-0.5 0,-0.27614 -0.22386,-0.5 -0.5,-0.5 z" />
    </g>
    <g
       id="g1961">
      <path
         id="path2012"
         style="color:#000000;opacity:0.2;fill:#000000;stroke:none;stroke-linecap:round;stroke-linejoin:round;-inkscape-stroke:none"
         d="m 420.56055,104.50195 a 0.5,0.5 0 0 0 -0.46094,0.19727 0.5,0.5 0 0 0 0.0996,0.70117 l 1.4668,1.09961 -1.4668,1.09961 a 0.5,0.5 0 0 0 -0.0996,0.69922 0.5,0.5 0 0 0 0.70117,0.10156 l 2,-1.5 a 0.50005,0.50005 0 0 0 0,-0.80078 l -2,-1.5 a 0.5,0.5 0 0 0 -0.24023,-0.0977 z M 423.5,107.5 a 0.5,0.5 0 0 0 -0.5,0.5 0.5,0.5 0 0 0 0.5,0.5 h 2 a 0.5,0.5 0 0 0 0.5,-0.5 0.5,0.5 0 0 0 -0.5,-0.5 z m 6.92969,7.00391 a 0.5,0.5 0 0 0 -0.33008,0.19531 0.5,0.5 0 0 0 0.0996,0.70117 l 1.4668,1.09961 -1.4668,1.09961 a 0.5,0.5 0 0 0 -0.0996,0.69922 0.5,0.5 0 0 0 0.69922,0.10156 l 2,-1.5 a 0.50005,0.50005 0 0 0 0,-0.80078 l -2,-1.5 a 0.5,0.5 0 0 0 -0.36914,-0.0957 z M 433.5,117.5 a 0.5,0.5 0 0 0 -0.5,0.5 0.5,0.5 0 0 0 0.5,0.5 h 2 a 0.5,0.5 0 0 0 0.5,-0.5 0.5,0.5 0 0 0 -0.5,-0.5 z" />
      <path
         id="path2014"
         style="color:#000000;fill:#ffffff;stroke:none;stroke-linecap:round;stroke-linejoin:round;-inkscape-stroke:none"
         d="m 420.49414,103.99805 c -0.1543,0.002 -0.30074,0.0755 -0.39453,0.20117 -0.16657,0.22101 -0.12192,0.53529 0.0996,0.70117 l 1.4668,1.09961 -1.4668,1.09961 c -0.22153,0.16588 -0.26618,0.48016 -0.0996,0.70117 0.16588,0.22153 0.48016,0.26618 0.70117,0.0996 l 2,-1.5 c 0.26732,-0.2 0.26732,-0.60078 0,-0.80078 l -2,-1.5 c -0.0701,-0.0531 -0.15295,-0.0868 -0.24023,-0.0977 -0.0222,-0.003 -0.0444,-0.004 -0.0664,-0.004 z M 423.5,107 c -0.27614,0 -0.5,0.22386 -0.5,0.5 0,0.27614 0.22386,0.5 0.5,0.5 h 2 c 0.27614,0 0.5,-0.22386 0.5,-0.5 0,-0.27614 -0.22386,-0.5 -0.5,-0.5 z m 7.06055,7.00391 a 0.5,0.5 0 0 0 -0.13086,0.002 0.5,0.5 0 0 0 -0.33008,0.19336 0.5,0.5 0 0 0 0.0996,0.70117 l 1.4668,1.09961 -1.4668,1.09961 a 0.5,0.5 0 0 0 -0.0996,0.70117 0.5,0.5 0 0 0 0.69922,0.0996 l 2,-1.5 a 0.50005,0.50005 0 0 0 0,-0.80078 l -2,-1.5 a 0.5,0.5 0 0 0 -0.23828,-0.0957 z M 433.5,117 a 0.5,0.5 0 0 0 -0.5,0.5 0.5,0.5 0 0 0 0.5,0.5 h 2 a 0.5,0.5 0 0 0 0.5,-0.5 0.5,0.5 0 0 0 -0.5,-0.5 z" />
    </g>
    <g
       id="g1953">
      <path
         id="path1184"
         style="color:#000000;opacity:0.2;fill:#000000;stroke:none;stroke-linecap:round;stroke-linejoin:round;-inkscape-stroke:none"
         d="m 420.91016,58.003906 a 1,1 0 0 0 -0.67774,0.355469 1,1 0 0 0 0.12696,1.408203 L 422.4375,61.5 l -2.07812,1.732422 a 1,1 0 0 0 -0.12696,1.408203 1,1 0 0 0 1.4082,0.126953 l 3,-2.5 a 1.0001,1.0001 0 0 0 0,-1.535156 l -3,-2.5 a 1,1 0 0 0 -0.73046,-0.228516 z M 426,63 a 1,1 0 0 0 -1,1 1,1 0 0 0 1,1 h 3 a 1,1 0 0 0 1,-1 1,1 0 0 0 -1,-1 z m 8.91016,8.003906 a 1,1 0 0 0 -0.67774,0.355469 1,1 0 0 0 0.12696,1.408203 L 436.4375,74.5 l -2.07812,1.732422 a 1,1 0 0 0 -0.12696,1.408203 1,1 0 0 0 1.4082,0.126953 l 3,-2.5 a 1.0001,1.0001 0 0 0 0,-1.535156 l -3,-2.5 a 1,1 0 0 0 -0.73046,-0.228516 z M 440,76 a 1,1 0 0 0 -1,1 1,1 0 0 0 1,1 h 3 a 1,1 0 0 0 1,-1 1,1 0 0 0 -1,-1 z" />
      <path
         id="path1186"
         style="color:#000000;fill:#ffffff;stroke-linecap:round;stroke-linejoin:round;-inkscape-stroke:none"
         d="m 421.00781,57 c -0.0329,-3.11e-4 -0.0646,9.43e-4 -0.0976,0.0039 -0.26411,0.02394 -0.5079,0.151801 -0.67774,0.355469 -0.35368,0.423961 -0.29685,1.054339 0.12696,1.408203 L 422.4375,60.5 l -2.07812,1.732422 c -0.42381,0.353864 -0.48064,0.984242 -0.12696,1.408203 0.35387,0.423808 0.98425,0.480638 1.4082,0.126953 l 3,-2.5 c 0.47865,-0.399787 0.47865,-1.135369 0,-1.535156 l -3,-2.5 C 421.46252,57.083651 421.23785,57.002176 421.00781,57 Z M 426,62 c -0.55228,0 -1,0.447716 -1,1 0,0.552284 0.44772,1 1,1 h 3 c 0.55228,0 1,-0.447716 1,-1 0,-0.552284 -0.44772,-1 -1,-1 z m 8.91016,8.003906 a 1,1 0 0 0 -0.67774,0.355469 1,1 0 0 0 0.12696,1.408203 L 436.4375,73.5 l -2.07812,1.732422 a 1,1 0 0 0 -0.12696,1.408203 1,1 0 0 0 1.4082,0.126953 l 3,-2.5 a 1.0001,1.0001 0 0 0 0,-1.535156 l -3,-2.5 a 1,1 0 0 0 -0.73046,-0.228516 z M 440,75 a 1,1 0 0 0 -1,1 1,1 0 0 0 1,1 h 3 a 1,1 0 0 0 1,-1 1,1 0 0 0 -1,-1 z" />
    </g>
    <g
       id="g4331">
      <path
         id="path4089"
         style="color:#000000;opacity:0.2;fill:#000000;stroke-linecap:round;stroke-linejoin:round;-inkscape-stroke:none"
         d="m 296.40039,229.00391 a 1.5,1.5 0 0 0 -1.0293,0.50781 1.5,1.5 0 0 0 0.14063,2.11719 L 298.2207,234 l -2.70898,2.37109 a 1.5,1.5 0 0 0 -0.14063,2.11719 1.5,1.5 0 0 0 2.11719,0.14063 l 4,-3.5 a 1.50015,1.50015 0 0 0 0,-2.25782 l -4,-3.5 a 1.5,1.5 0 0 0 -1.08789,-0.36718 z M 303.5,236 a 1.5,1.5 0 0 0 -1.5,1.5 1.5,1.5 0 0 0 1.5,1.5 h 4 a 1.5,1.5 0 0 0 1.5,-1.5 1.5,1.5 0 0 0 -1.5,-1.5 z m 13.06836,13 a 1.5,1.5 0 0 0 -1.19727,0.50977 1.5,1.5 0 0 0 0.14063,2.11914 L 318.2207,254 l -2.70898,2.36914 a 1.5,1.5 0 0 0 -0.14063,2.12109 1.5,1.5 0 0 0 2.11719,0.13868 l 4,-3.5 a 1.50015,1.50015 0 0 0 0,-2.25977 l -4,-3.5 A 1.5,1.5 0 0 0 316.56836,249 Z m 6.93164,7 a 1.5,1.5 0 0 0 -1.5,1.5 1.5,1.5 0 0 0 1.5,1.5 h 4 a 1.5,1.5 0 0 0 1.5,-1.5 1.5,1.5 0 0 0 -1.5,-1.5 z" />
      <path
         id="path4083"
         style="color:#000000;fill:#ffffff;stroke-linecap:round;stroke-linejoin:round;-inkscape-stroke:none"
         d="m 296.54883,228.00195 c -0.0493,-0.002 -0.0988,-0.001 -0.14844,0.002 -0.39685,0.0261 -0.76709,0.20878 -1.0293,0.50781 -0.54603,0.62341 -0.48305,1.57148 0.14063,2.11719 L 298.2207,233 l -2.70898,2.37109 c -0.62368,0.54571 -0.68666,1.49378 -0.14063,2.11719 0.54571,0.62368 1.49378,0.68666 2.11719,0.14063 l 4,-3.5 c 0.68296,-0.59767 0.68296,-1.66015 0,-2.25782 l -4,-3.5 c -0.26213,-0.2291 -0.59451,-0.35818 -0.93945,-0.36914 z M 303.5,235 c -0.82843,0 -1.5,0.67157 -1.5,1.5 0,0.82843 0.67157,1.5 1.5,1.5 h 4 c 0.82843,0 1.5,-0.67157 1.5,-1.5 0,-0.82843 -0.67157,-1.5 -1.5,-1.5 z m 13.06836,13 c -0.45589,-0.021 -0.89654,0.16649 -1.19727,0.50977 -0.54793,0.6238 -0.48489,1.57318 0.14063,2.11914 L 318.2207,253 l -2.70898,2.36914 c -0.62552,0.54596 -0.68856,1.49729 -0.14063,2.12109 0.54589,0.62349 1.49395,0.68486 2.11719,0.13868 l 4,-3.5 c 0.68462,-0.59779 0.68462,-1.66198 0,-2.25977 l -4,-3.5 c -0.25583,-0.22405 -0.5802,-0.35365 -0.91992,-0.36914 z m 6.93164,7 c -0.82843,0 -1.5,0.67157 -1.5,1.5 0,0.82843 0.67157,1.5 1.5,1.5 h 4 c 0.82843,0 1.5,-0.67157 1.5,-1.5 0,-0.82843 -0.67157,-1.5 -1.5,-1.5 z" />
    </g>
    <g
       id="g2867"
       transform="matrix(2,0,0,2,-544,36)">
      <path
         id="path2801"
         style="color:#000000;opacity:0.2;fill:#000000;stroke-linecap:round;stroke-linejoin:round;-inkscape-stroke:none"
         d="m 421.00879,58 c -0.0329,-3.11e-4 -0.0656,9.43e-4 -0.0986,0.0039 -0.26411,0.02394 -0.5079,0.151801 -0.67774,0.355469 -0.35368,0.423961 -0.29685,1.054339 0.12696,1.408203 L 422.4375,61.5 l -2.07812,1.732422 c -0.42381,0.353864 -0.48064,0.984242 -0.12696,1.408203 0.35387,0.423808 0.98425,0.480638 1.4082,0.126953 l 3,-2.5 c 0.47865,-0.399787 0.47865,-1.135369 0,-1.535156 l -3,-2.5 C 421.46252,58.083651 421.23883,58.002176 421.00879,58 Z M 426,63 c -0.55228,0 -1,0.447716 -1,1 0,0.552284 0.44772,1 1,1 h 3 c 0.55228,0 1,-0.447716 1,-1 0,-0.552284 -0.44772,-1 -1,-1 z m 9.00879,8.5 c -0.0329,-3.11e-4 -0.0656,9.43e-4 -0.0986,0.0039 -0.26411,0.02394 -0.5079,0.151801 -0.67774,0.355469 -0.35368,0.423961 -0.29685,1.054339 0.12696,1.408203 L 436.4375,75 l -2.07812,1.732422 c -0.42381,0.353864 -0.48064,0.984242 -0.12696,1.408203 0.35387,0.423808 0.98425,0.480638 1.4082,0.126953 l 3,-2.5 c 0.47865,-0.399787 0.47865,-1.135369 0,-1.535156 l -3,-2.5 C 435.46252,71.583651 435.23883,71.502176 435.00879,71.5 Z M 440,76.5 c -0.55228,0 -1,0.447716 -1,1 0,0.552284 0.44772,1 1,1 h 3 c 0.55228,0 1,-0.447716 1,-1 0,-0.552284 -0.44772,-1 -1,-1 z" />
      <path
         id="path2773"
         style="color:#000000;fill:#ffffff;stroke-linecap:round;stroke-linejoin:round;-inkscape-stroke:none"
         d="m 421.00879,57.5 c -0.0329,-3.11e-4 -0.0656,9.43e-4 -0.0986,0.0039 -0.26411,0.02394 -0.5079,0.151801 -0.67774,0.355469 -0.35368,0.423961 -0.29685,1.054339 0.12696,1.408203 L 422.4375,61 l -2.07812,1.732422 c -0.42381,0.353864 -0.48064,0.984242 -0.12696,1.408203 0.35387,0.423808 0.98425,0.480638 1.4082,0.126953 l 3,-2.5 c 0.47865,-0.399787 0.47865,-1.135369 0,-1.535156 l -3,-2.5 C 421.46252,57.583651 421.23883,57.502176 421.00879,57.5 Z M 426,62.5 c -0.55228,0 -1,0.447716 -1,1 0,0.552284 0.44772,1 1,1 h 3 c 0.55228,0 1,-0.447716 1,-1 0,-0.552284 -0.44772,-1 -1,-1 z m 9.00879,8.5 c -0.0329,-3.11e-4 -0.0656,9.43e-4 -0.0986,0.0039 -0.26411,0.02394 -0.5079,0.151801 -0.67774,0.355469 -0.35368,0.423961 -0.29685,1.054339 0.12696,1.408203 L 436.4375,74.5 l -2.07812,1.732422 c -0.42381,0.353864 -0.48064,0.984242 -0.12696,1.408203 0.35387,0.423808 0.98425,0.480638 1.4082,0.126953 l 3,-2.5 c 0.47865,-0.399787 0.47865,-1.135369 0,-1.535156 l -3,-2.5 C 435.46252,71.083651 435.23883,71.002176 435.00879,71 Z M 440,76 c -0.55228,0 -1,0.447716 -1,1 0,0.552284 0.44772,1 1,1 h 3 c 0.55228,0 1,-0.447716 1,-1 0,-0.552284 -0.44772,-1 -1,-1 z"
         sodipodi:nodetypes="sccccccccccsssssssssccccccccccssssssss" />
    </g>
    <g
       id="g4395"
       transform="matrix(2,0,0,2,-288,-412)">
      <path
         d="m 316.56836,248.49959 c -0.45589,-0.021 -0.89654,0.16672 -1.19727,0.51 -0.54793,0.6238 -0.48489,1.57404 0.14063,2.12 l 2.70898,2.37 -2.70898,2.37 c -0.62552,0.54596 -0.68856,1.4962 -0.14063,2.12 0.54589,0.62349 1.49395,0.68618 2.11719,0.14 l 4,-3.5 c 0.68462,-0.59779 0.68462,-1.66221 0,-2.26 l -4,-3.5 c -0.25583,-0.22405 -0.5802,-0.35451 -0.91992,-0.37 z m 6.93164,7 c -0.82843,0 -1.5,0.67157 -1.5,1.5 0,0.82843 0.67157,1.5 1.5,1.5 h 4 c 0.82843,0 1.5,-0.67157 1.5,-1.5 0,-0.82843 -0.67157,-1.5 -1.5,-1.5 z m -27.09961,-26.9952 c -0.39685,0.0261 -0.76709,0.20878 -1.0293,0.50781 -0.54603,0.62341 -0.48305,1.57148 0.14063,2.11719 l 2.70898,2.37109 -2.70898,2.37109 c -0.62368,0.54571 -0.68666,1.49378 -0.14063,2.11719 0.54571,0.62368 1.49378,0.68666 2.11719,0.14063 l 4,-3.5 c 0.68296,-0.59767 0.68296,-1.66015 0,-2.25782 l -4,-3.5 c -0.29958,-0.26183 -0.69091,-0.39391 -1.08789,-0.36718 z m 7.09961,6.99609 c -0.82843,0 -1.5,0.67157 -1.5,1.5 0,0.82843 0.67157,1.5 1.5,1.5 h 4 c 0.82843,0 1.5,-0.67157 1.5,-1.5 0,-0.82843 -0.67157,-1.5 -1.5,-1.5 z"
         style="color:#000000;opacity:0.2;fill:#000000;stroke-linecap:round;stroke-linejoin:round;-inkscape-stroke:none"
         id="path4373" />
      <path
         d="m 316.56836,247.99959 c -0.45589,-0.021 -0.89654,0.16672 -1.19727,0.51 -0.54793,0.6238 -0.48489,1.57404 0.14063,2.12 l 2.70898,2.37 -2.70898,2.37 c -0.62552,0.54596 -0.68856,1.4962 -0.14063,2.12 0.54589,0.62349 1.49395,0.68618 2.11719,0.14 l 4,-3.5 c 0.68462,-0.59779 0.68462,-1.66221 0,-2.26 l -4,-3.5 c -0.25583,-0.22405 -0.5802,-0.35451 -0.91992,-0.37 z m 6.93164,7 c -0.82843,0 -1.5,0.67157 -1.5,1.5 0,0.82843 0.67157,1.5 1.5,1.5 h 4 c 0.82843,0 1.5,-0.67157 1.5,-1.5 0,-0.82843 -0.67157,-1.5 -1.5,-1.5 z m -27.09961,-26.9952 c -0.39685,0.0261 -0.76709,0.20878 -1.0293,0.50781 -0.54603,0.62341 -0.48305,1.57148 0.14063,2.11719 l 2.70898,2.37109 -2.70898,2.37109 c -0.62368,0.54571 -0.68666,1.49378 -0.14063,2.11719 0.54571,0.62368 1.49378,0.68666 2.11719,0.14063 l 4,-3.5 c 0.68296,-0.59767 0.68296,-1.66015 0,-2.25782 l -4,-3.5 c -0.29958,-0.26183 -0.69091,-0.39391 -1.08789,-0.36718 z m 7.09961,6.99609 c -0.82843,0 -1.5,0.67157 -1.5,1.5 0,0.82843 0.67157,1.5 1.5,1.5 h 4 c 0.82843,0 1.5,-0.67157 1.5,-1.5 0,-0.82843 -0.67157,-1.5 -1.5,-1.5 z"
         style="color:#000000;fill:#ffffff;stroke-linecap:round;stroke-linejoin:round;-inkscape-stroke:none"
         id="path4345"
         sodipodi:nodetypes="cccccccccccssssssscccccccccccsssssss" />
    </g>
    <g
       id="g4467"
       transform="matrix(4,0,0,4,-1136,-532.00001)">
      <path
         d="m 298.01761,151.50006 c -0.0657,-5e-4 -0.13122,0.002 -0.19727,0.008 -0.52822,0.0479 -1.0158,0.3036 -1.35548,0.71094 -0.70736,0.84792 -0.5937,2.10867 0.25392,2.8164 l 4.15624,3.46465 -4.15624,3.46483 c -0.84762,0.70773 -0.96128,1.96849 -0.25392,2.81641 0.70774,0.84762 1.9685,0.96128 2.8164,0.25391 l 5.99999,-5 c 0.9573,-0.79957 0.9573,-2.27073 0,-3.07031 l -5.99999,-4.99999 c -0.3562,-0.29754 -0.80358,-0.46049 -1.26365,-0.46484 z m 9.9824,9.99998 c -1.10456,0 -2,0.89543 -2,2 0,1.10457 0.89544,2 2,2 H 314 c 1.10456,0 2,-0.89543 2,-2 0,-1.10457 -0.89543,-2 -2,-2 z m 18.01755,16.99998 c -0.0657,-5e-4 -0.13121,0.002 -0.19726,0.008 -0.52822,0.0479 -1.0158,0.3036 -1.35548,0.71094 -0.70736,0.84791 -0.5937,2.10867 0.25392,2.8164 l 4.15623,3.46465 -4.15623,3.46483 c -0.84762,0.70773 -0.96128,1.96849 -0.25392,2.81641 0.70774,0.84762 1.9685,0.96128 2.8164,0.25391 l 5.99999,-5 c 0.9573,-0.79957 0.9573,-2.27073 0,-3.07031 l -5.99999,-4.99999 c -0.3562,-0.29754 -0.80358,-0.46049 -1.26366,-0.46484 z m 9.9824,9.99998 c -1.10455,0 -1.99999,0.89543 -1.99999,2 0,1.10457 0.89544,2 1.99999,2 h 5.99999 c 1.10456,0 2,-0.89543 2,-2 0,-1.10457 -0.89544,-2 -2,-2 z"
         style="color:#000000;opacity:0.2;fill:#000000;stroke-width:0.999999;stroke-linecap:round;stroke-linejoin:round;-inkscape-stroke:none"
         id="path4445" />
      <path
         d="m 298.0176,151.00002 c -0.0657,-5e-4 -0.13122,0.002 -0.19726,0.008 -0.52822,0.0479 -1.0158,0.3036 -1.35548,0.71094 -0.70736,0.84792 -0.5937,2.10867 0.25392,2.8164 l 4.15624,3.46465 -4.15624,3.46483 c -0.84762,0.70773 -0.96128,1.96849 -0.25392,2.81641 0.70774,0.84762 1.9685,0.96128 2.8164,0.25391 l 5.99999,-5 c 0.9573,-0.79957 0.9573,-2.27073 0,-3.07031 l -5.99999,-4.99999 c -0.3562,-0.29754 -0.80358,-0.46049 -1.26366,-0.46484 z M 308.00001,161 c -1.10456,0 -2,0.89543 -2,2 0,1.10457 0.89544,2 2,2 H 314 c 1.10456,0 1.99999,-0.89543 1.99999,-2 0,-1.10457 -0.89543,-2 -1.99999,-2 z m 18.01755,16.99998 c -0.0657,-5e-4 -0.13122,0.002 -0.19726,0.008 -0.52822,0.0479 -1.0158,0.3036 -1.35548,0.71094 -0.70736,0.84791 -0.5937,2.10867 0.25392,2.8164 l 4.15623,3.46465 -4.15623,3.46483 c -0.84762,0.70773 -0.96128,1.96849 -0.25392,2.81641 0.70774,0.84762 1.9685,0.96128 2.8164,0.25391 l 5.99999,-5 c 0.9573,-0.79957 0.9573,-2.27073 0,-3.07031 l -5.99999,-4.99999 c -0.3562,-0.29754 -0.80358,-0.46049 -1.26366,-0.46484 z m 9.9824,9.99998 c -1.10455,0 -1.99999,0.89543 -1.99999,2 0,1.10457 0.89544,2 1.99999,2 h 5.99999 c 1.10456,0 2,-0.89543 2,-2 0,-1.10457 -0.89544,-2 -2,-2 z"
         style="color:#000000;fill:#ffffff;stroke-width:0.999999;stroke-linecap:round;stroke-linejoin:round;-inkscape-stroke:none"
         id="path4417"
         sodipodi:nodetypes="ccccccccccccsssssssccccccccccccsssssss" />
    </g>
  </g>
  <g
     id="Highlights">
    <path
       id="rect653"
       style="opacity:0.2;fill:#ffffff"
       d="M 80,44 C 53.408027,44 32,65.408027 32,92 v 2 C 32,67.408027 53.408027,46 80,46 h 128 c 26.59197,0 48,21.408027 48,48 V 92 C 256,65.408027 234.59197,44 208,44 Z"
       sodipodi:nodetypes="sscsscsss" />
    <path
       id="rect773"
       style="opacity:0.2;fill:#ffffff"
       d="m 312,34 c -9.97199,0 -18,8.02801 -18,18 v 1 c 0,-9.97199 8.02801,-18 18,-18 h 48 c 9.97199,0 18,8.02801 18,18 v -1 c 0,-9.97199 -8.02801,-18 -18,-18 z" />
    <path
       id="rect1135"
       style="opacity:0.2;fill:#ffffff;fill-opacity:1"
       d="m 304,144 c -6.64799,0 -12,5.35201 -12,12 v 1 c 0,-6.64799 5.35201,-12 12,-12 h 32 c 6.64799,0 12,5.35201 12,12 v -1 c 0,-6.64799 -5.35201,-12 -12,-12 z" />
    <path
       id="rect1265"
       style="opacity:0.2;fill:#ffffff;fill-opacity:1"
       d="m 300,223 c -4.986,0 -9,4.014 -9,9 v 1 c 0,-4.986 4.014,-9 9,-9 h 24 c 4.986,0 9,4.014 9,9 v -1 c 0,-4.986 -4.014,-9 -9,-9 z" />
    <path
       id="rect1368"
       style="opacity:0.2;fill:#ffffff;fill-opacity:1"
       d="m 424,54 c -3.324,0 -6,2.676003 -6,6 v 1 c 0,-3.323997 2.676,-6 6,-6 h 16 c 3.324,0 6,2.676003 6,6 v -1 c 0,-3.323997 -2.676,-6 -6,-6 z" />
    <path
       id="rect1402"
       style="opacity:0.2;fill:#ffffff;fill-opacity:1"
       d="m 420,140 c -2.216,0 -4,1.784 -4,4 v 1 c 0,-2.216 1.784,-4 4,-4 h 8 c 2.216,0 4,1.784 4,4 v -1 c 0,-2.216 -1.784,-4 -4,-4 z" />
    <path
       id="rect1436"
       style="opacity:0.2;fill:#ffffff;fill-opacity:1"
       d="m 422,102 c -2.216,0 -4,1.784 -4,4 v 1 c 0,-2.216 1.784,-4 4,-4 h 12 c 2.216,0 4,1.784 4,4 v -1 c 0,-2.216 -1.784,-4 -4,-4 z" />
  </g>
</svg>
