<?xml version="1.0" encoding="UTF-8" standalone="no"?>
<!-- Created with Inkscape (http://www.inkscape.org/) -->

<svg
   width="480"
   height="300"
   viewBox="0 0 480 300"
   version="1.1"
   id="svg5"
   inkscape:version="1.2.2 (1:1.2.2+202305151914+b0a8486541)"
   sodipodi:docname="thingy.svg"
   xmlns:inkscape="http://www.inkscape.org/namespaces/inkscape"
   xmlns:sodipodi="http://sodipodi.sourceforge.net/DTD/sodipodi-0.dtd"
   xmlns="http://www.w3.org/2000/svg"
   xmlns:svg="http://www.w3.org/2000/svg">
  <sodipodi:namedview
     id="namedview7"
     pagecolor="#888888"
     bordercolor="#000000"
     borderopacity="0.25"
     inkscape:showpageshadow="true"
     inkscape:pageopacity="0"
     inkscape:pagecheckerboard="0"
     inkscape:deskcolor="#888888"
     inkscape:document-units="px"
     showgrid="false"
     showborder="false"
     inkscape:zoom="2.6866667"
     inkscape:cx="240.44665"
     inkscape:cy="150"
     inkscape:window-width="1920"
     inkscape:window-height="1008"
     inkscape:window-x="0"
     inkscape:window-y="0"
     inkscape:window-maximized="1"
     inkscape:current-layer="svg5" />
  <defs
     id="defs2" />
  <g
     id="Baseplate"
     style="display:none">
    <text
       y="19.774782"
       xml:space="preserve"
       x="15.006946"
       style="font-style:normal;font-variant:normal;font-weight:normal;font-stretch:normal;line-height:0%;font-family:'DejaVu Sans';-inkscape-font-specification:'DejaVu Sans';display:inline;fill:#000000;fill-opacity:1;stroke:none;enable-background:new"
       inkscape:label="context"
       id="context"><tspan
         style="font-style:normal;font-variant:normal;font-weight:normal;font-stretch:normal;font-size:18px;line-height:1.25;font-family:'DejaVu Sans';-inkscape-font-specification:'DejaVu Sans'"
         y="19.774782"
         x="15.006946"
         sodipodi:role="line"
         id="tspan3933">apps</tspan></text>
    <text
       y="19.774782"
       xml:space="preserve"
       x="122.48839"
       style="font-style:normal;font-variant:normal;font-weight:bold;font-stretch:normal;line-height:0%;font-family:'DejaVu Sans';-inkscape-font-specification:'DejaVu Sans Bold';text-align:start;writing-mode:lr-tb;text-anchor:start;display:inline;fill:#000000;fill-opacity:1;stroke:none;enable-background:new"
       inkscape:label="icon-name"
       id="icon-name"><tspan
         style="font-style:normal;font-variant:normal;font-weight:bold;font-stretch:normal;font-size:18px;line-height:1.25;font-family:'DejaVu Sans';-inkscape-font-specification:'DejaVu Sans Bold'"
         y="19.774782"
         x="122.48839"
         sodipodi:role="line"
         id="tspan3937">thingy</tspan></text>
    <rect
       style="fill:#ffffff"
       id="256x256"
       width="256"
       height="256"
       x="16"
       y="28" />
    <rect
       style="fill:#ffffff"
       id="96x96"
       width="96"
       height="96"
       x="288"
       y="28" />
    <rect
       style="fill:#ffffff"
       id="64x64"
       width="64"
       height="64"
       x="288"
       y="140" />
    <rect
       style="fill:#ffffff"
       id="48x48"
       width="48"
       height="48"
       x="288"
       y="220" />
    <rect
       style="fill:#ffffff"
       id="32x32"
       width="32"
       height="32"
       x="416"
       y="52" />
    <rect
       style="fill:#ffffff"
       id="24x24"
       width="24"
       height="24"
       x="416"
       y="100" />
    <rect
       style="fill:#ffffff"
       id="22x22"
       width="22"
       height="22"
       x="417"
       y="101" />
    <rect
       style="fill:#ffffff"
       id="16x16"
       width="16"
       height="16"
       x="416"
       y="140" />
  </g>
  <g
     id="Shadow">
    <rect
       style="opacity:0.2;fill:#000000"
       id="rect651"
       width="224"
       height="224"
       x="32"
       y="46"
       ry="48" />
    <rect
       style="opacity:0.2;fill:#000000"
       id="rect769"
       width="84"
       height="85"
       x="294"
       y="34"
       ry="18" />
    <rect
       style="opacity:0.2;fill:#000000;fill-opacity:1"
       id="rect1131"
       width="56"
       height="56"
       x="292"
       y="145"
       ry="12" />
    <rect
       style="opacity:0.2;fill:#000000;fill-opacity:1"
       id="rect1261"
       width="42"
       height="42"
       x="291"
       y="224"
       ry="9" />
    <rect
       style="opacity:0.2;fill:#000000;fill-opacity:1"
       id="rect1364"
       width="28"
       height="29"
       x="418"
       y="54"
       ry="6" />
    <rect
       style="opacity:0.2;fill:#000000;fill-opacity:1"
       id="rect1398"
       width="16"
       height="16"
       x="416"
       y="141"
       ry="4" />
    <rect
       style="opacity:0.2;fill:#000000;fill-opacity:1"
       id="rect1432"
       width="20"
       height="20"
       x="418"
       y="103"
       ry="4" />
  </g>
  <g
     id="Background">
    <rect
       style="fill:#dc3636;fill-opacity:1"
       id="rect597"
       width="224"
       height="224"
       x="32"
       y="44"
       ry="48" />
    <rect
       style="opacity:1;fill:#dc3636;fill-opacity:1"
       id="rect771"
       width="84"
       height="84"
       x="294"
       y="34"
       ry="18" />
    <rect
       style="opacity:1;fill:#dc3636;fill-opacity:1"
       id="rect1133"
       width="56"
       height="56"
       x="292"
       y="144"
       ry="12" />
    <rect
       style="opacity:1;fill:#dc3636;fill-opacity:1"
       id="rect1263"
       width="42"
       height="42"
       x="291"
       y="223"
       ry="9" />
    <rect
       style="opacity:1;fill:#dc3636;fill-opacity:1"
       id="rect1366"
       width="28"
       height="28"
       x="418"
       y="54"
       ry="6" />
    <rect
       style="opacity:1;fill:#dc3636;fill-opacity:1"
       id="rect1400"
       width="16"
       height="16"
       x="416"
       y="140"
       ry="4" />
    <rect
       style="opacity:1;fill:#dc3636;fill-opacity:1"
       id="rect1434"
       width="20"
       height="20"
       x="418"
       y="102"
       ry="4" />
  </g>
  <g
     id="g2427">
    <g
       id="g2463">
      <path
         d="m 419.75078,144.49999 c -0.41555,0 -0.75078,0.33589 -0.75078,0.74922 v 3.18828 c 0,0.2 0.0803,0.38903 0.22031,0.53125 l 3.31094,3.31094 c 0.29333,0.29333 0.76682,0.29333 1.06016,0 l 3.18828,-3.18828 c 0.29333,-0.29334 0.29333,-0.76905 0,-1.06016 l -3.31094,-3.31094 c -0.14,-0.14 -0.33125,-0.22031 -0.53125,-0.22031 z m 4.42734,0 3.06641,3.06875 c 0.26445,0.26444 0.41094,0.61819 0.41094,0.99375 0,0.37556 -0.14427,0.7263 -0.41094,0.99297 l -2.72031,2.71797 0.007,0.006 c 0.29333,0.29333 0.76682,0.29333 1.06016,0 l 3.18828,-3.18833 c 0.29335,-0.29334 0.29345,-0.76905 0.002,-1.06016 L 425.4707,144.72 c -0.14222,-0.14 -0.33125,-0.22031 -0.53125,-0.22031 z m -3.57812,0.8 c 0.4426,0 0.8,0.3583 0.8,0.80156 0,0.44326 -0.35976,0.79844 -0.8,0.79844 -0.44024,0 -0.8,-0.3583 -0.8,-0.80156 0,-0.44326 0.3574,-0.79844 0.8,-0.79844 z"
         style="opacity:0.2;fill:#000000"
         id="path1450" />
      <path
         d="M 419.75078,144 C 419.33523,144 419,144.33589 419,144.74922 v 3.18828 c 0,0.2 0.0803,0.38903 0.22031,0.53125 l 3.31094,3.31094 c 0.29333,0.29333 0.76682,0.29333 1.06016,0 l 3.18828,-3.18828 c 0.29333,-0.29334 0.29333,-0.76905 0,-1.06016 l -3.31094,-3.31094 C 423.32875,144.08031 423.1375,144 422.9375,144 Z m 4.42734,0 3.06641,3.06875 c 0.26445,0.26444 0.41094,0.61819 0.41094,0.99375 0,0.37556 -0.14427,0.7263 -0.41094,0.99297 l -2.72031,2.71797 0.007,0.006 c 0.29333,0.29333 0.76682,0.29333 1.06016,0 l 3.18828,-3.18833 c 0.29335,-0.29334 0.29345,-0.76905 0.002,-1.06016 l -3.31096,-3.31094 c -0.14222,-0.14 -0.33125,-0.22031 -0.53125,-0.22031 z M 420.6,144.8 c 0.4426,0 0.8,0.3583 0.8,0.80156 0,0.44326 -0.35976,0.79844 -0.8,0.79844 -0.44024,0 -0.8,-0.3583 -0.8,-0.80156 0,-0.44326 0.3574,-0.79844 0.8,-0.79844 z"
         style="fill:#ffffff"
         id="path852"
         sodipodi:nodetypes="ssscssscsssccscccccccccsssss" />
    </g>
    <g
       id="g2459">
      <path
         d="m 422.93849,107.5 c -0.51945,0 -0.93848,0.41986 -0.93848,0.93652 v 3.98536 c 0,0.25 0.10039,0.48628 0.27539,0.66406 l 4.13867,4.13867 c 0.36667,0.36667 0.95853,0.36667 1.3252,0 l 3.98534,-3.98535 c 0.36667,-0.36667 0.36667,-0.96131 0,-1.3252 l -4.13867,-4.13867 c -0.175,-0.175 -0.41406,-0.27539 -0.66406,-0.27539 z m 5.53418,0 3.833,3.83594 c 0.33056,0.33055 0.51368,0.77274 0.51368,1.24219 0,0.46944 -0.18034,0.90787 -0.51368,1.24121 l -3.40039,3.39746 0.009,0.008 c 0.36667,0.36666 0.95853,0.36666 1.3252,0 l 3.98535,-3.98535 c 0.36669,-0.36667 0.36682,-0.96131 0.003,-1.3252 l -4.13876,-4.13866 c -0.17777,-0.175 -0.41406,-0.27539 -0.66406,-0.27539 z m -4.47266,1 c 0.55324,0 1,0.44788 1,1.00195 0,0.55408 -0.44971,0.99805 -1,0.99805 -0.5503,0 -1,-0.44788 -1,-1.00195 0,-0.55408 0.44675,-0.99805 1,-0.99805 z"
         style="fill:#000000;opacity:0.2"
         id="path1639" />
      <path
         d="m 422.93848,107.0001 c -0.51945,0 -0.93848,0.41986 -0.93848,0.93652 v 3.98536 c 0,0.25 0.10039,0.48628 0.27539,0.66406 l 4.13867,4.13867 c 0.36667,0.36667 0.95853,0.36667 1.3252,0 l 3.98535,-3.98535 c 0.36667,-0.36667 0.36667,-0.96131 0,-1.3252 l -4.13867,-4.13867 c -0.175,-0.175 -0.41407,-0.27539 -0.66407,-0.27539 z m 5.53418,0 3.833,3.83594 c 0.33056,0.33055 0.51368,0.77274 0.51368,1.24219 0,0.46944 -0.18034,0.90787 -0.51368,1.24121 l -3.40039,3.39746 0.009,0.008 c 0.36667,0.36666 0.95853,0.36666 1.3252,0 l 3.98535,-3.98535 c 0.36669,-0.36667 0.36682,-0.96131 0.003,-1.3252 l -4.13875,-4.13866 c -0.17778,-0.175 -0.41407,-0.27539 -0.66407,-0.27539 z m -4.47266,1 c 0.55325,0 1,0.44788 1,1.00195 0,0.55408 -0.4497,0.99805 -1,0.99805 -0.5503,0 -1,-0.44788 -1,-1.00195 0,-0.55408 0.44675,-0.99805 1,-0.99805 z"
         style="fill:#ffffff"
         id="path1611"
         sodipodi:nodetypes="ssscssscsssccscccscccccsssss" />
    </g>
    <g
       id="g2439">
      <path
         style="opacity:0.2;fill:#000000"
         d="M 425.31445,62 C 424.58725,62 424,62.58919 424,63.3125 v 5.578125 c 0,0.349989 0.13977,0.680808 0.38477,0.929687 l 5.79492,5.794922 c 0.51331,0.513316 1.34215,0.513316 1.85547,0 l 5.57812,-5.580078 c 0.51332,-0.513317 0.51332,-1.346043 0,-1.855468 l -5.79297,-5.792969 C 431.57532,62.141727 431.24061,62 430.89062,62 Z m 7.7461,0 5.36718,5.371094 c 0.46277,0.462763 0.71875,1.081081 0.71875,1.738281 0,0.657201 -0.2521,1.271629 -0.71875,1.738281 l -4.75976,4.75586 0.0117,0.01172 c 0.51332,0.513316 1.34215,0.513316 1.85547,0 l 5.57812,-5.580078 c 0.51335,-0.513317 0.51334,-1.346041 0.004,-1.855468 L 435.3243,62.386719 C 435.07534,62.141727 434.74452,62 434.39453,62 Z M 426.5,63 c 0.82988,0 1.5,0.670843 1.5,1.501953 C 428,65.333064 427.32544,66 426.5,66 425.67456,66 425,65.329157 425,64.498047 425,63.666935 425.67012,63 426.5,63 Z"
         id="path1923" />
      <path
         style="fill:#ffffff"
         d="M 425.31445,61 C 424.58725,61 424,61.58919 424,62.3125 v 5.578125 c 0,0.349989 0.13977,0.680808 0.38477,0.929687 l 5.79492,5.794922 c 0.51331,0.513316 1.34215,0.513316 1.85547,0 l 5.57812,-5.580078 c 0.51332,-0.513317 0.51332,-1.346043 0,-1.855468 l -5.79297,-5.792969 C 431.57532,61.141727 431.24061,61 430.89062,61 Z m 7.7461,0 5.36718,5.371094 c 0.46277,0.462763 0.71875,1.081081 0.71875,1.738281 0,0.657201 -0.2521,1.271629 -0.71875,1.738281 l -4.75976,4.75586 0.0117,0.01172 c 0.51332,0.513316 1.34215,0.513316 1.85547,0 l 5.57812,-5.580078 c 0.51335,-0.513317 0.51334,-1.346041 0.004,-1.855468 L 435.3243,61.386719 C 435.07534,61.141727 434.74452,61 434.39453,61 Z M 426.5,62 c 0.82988,0 1.5,0.670843 1.5,1.501953 C 428,64.333064 427.32544,65 426.5,65 425.67456,65 425,64.329157 425,63.498047 425,62.666935 425.67012,62 426.5,62 Z"
         id="path1925" />
    </g>
    <g
       id="g2435">
      <path
         style="opacity:0.2;fill:#000000"
         d="m 301.87695,235.00081 c -1.03889,0 -1.87695,0.83971 -1.87695,1.87305 v 7.9707 c 0,0.5 0.20078,0.97257 0.55078,1.32813 l 8.27735,8.27734 c 0.73333,0.73333 1.91705,0.73333 2.65039,0 l 7.9707,-7.9707 c 0.73333,-0.73334 0.73333,-1.92262 0,-2.65039 l -8.27734,-8.27735 c -0.35001,-0.35 -0.82813,-0.55078 -1.32813,-0.55078 z m 11.06836,0 7.66602,7.67188 c 0.66111,0.66111 1.02734,1.54548 1.02734,2.48437 0,0.93889 -0.36068,1.81576 -1.02734,2.48242 l -6.80078,6.79492 0.0176,0.0156 c 0.73333,0.73334 1.91705,0.73334 2.65039,0 l 7.9707,-7.9707 c 0.73338,-0.73333 0.73364,-1.92261 0.006,-2.65039 l -8.27734,-8.27734 c -0.35556,-0.35 -0.82813,-0.55078 -1.32813,-0.55078 z m -8.94531,2 c 1.10651,0 2,0.89576 2,2.00391 0,1.10814 -0.89941,1.99609 -2,1.99609 -1.10059,0 -2,-0.89576 -2,-2.00391 0,-1.10814 0.89349,-1.99609 2,-1.99609 z"
         id="path2089" />
      <path
         style="fill:#ffffff"
         d="m 301.87695,234.00003 c -1.03889,0 -1.87695,0.83971 -1.87695,1.87305 v 7.9707 c 0,0.5 0.20078,0.97257 0.55078,1.32812 l 8.27735,8.27735 c 0.73333,0.73333 1.91705,0.73333 2.65039,0 l 7.9707,-7.9707 c 0.73333,-0.73334 0.73333,-1.92262 0,-2.6504 l -8.27734,-8.27734 c -0.35001,-0.35 -0.82813,-0.55078 -1.32813,-0.55078 z m 11.06836,0 7.66602,7.67187 c 0.66111,0.66112 1.02734,1.54549 1.02734,2.48438 0,0.93889 -0.36068,1.81575 -1.02734,2.48242 l -6.80078,6.79492 0.0176,0.0156 c 0.73333,0.73334 1.91705,0.73334 2.65039,0 l 7.9707,-7.9707 c 0.73338,-0.73333 0.73364,-1.92261 0.006,-2.65039 l -8.27739,-8.27735 C 315.8223,234.20078 315.34973,234 314.84973,234 Z m -8.94531,2 c 1.10651,0 2,0.89576 2,2.00391 0,1.10814 -0.89941,1.99609 -2,1.99609 -1.10059,0 -2,-0.89576 -2,-2.00391 0,-1.10814 0.89349,-1.99609 2,-1.99609 z"
         id="path2091"
         sodipodi:nodetypes="ssscsssccssccscccscccscsssss" />
    </g>
    <g
       id="g2431">
      <path
         style="opacity:0.2;fill:#000000"
         d="M 305.62695,159 C 304.17251,159 303,160.17638 303,161.62305 v 11.1582 c 0,0.7 0.28148,1.3616 0.77148,1.85937 l 11.58789,11.5879 c 1.02667,1.02666 2.68428,1.02666 3.71094,0 l 11.15821,-11.15821 c 1.02666,-1.02667 1.02666,-2.69205 0,-3.71094 l -11.5879,-11.58789 c -0.49,-0.49 -1.15937,-0.77148 -1.85937,-0.77148 z m 15.4961,0 10.73242,10.74023 c 0.92555,0.92556 1.43945,2.16407 1.43945,3.47852 0,1.31444 -0.50612,2.54128 -1.43945,3.47461 l -9.52149,9.51367 0.0254,0.0215 c 1.02667,1.02667 2.68428,1.02667 3.71094,0 l 11.15821,-11.1582 c 1.02673,-1.02667 1.0266,-2.69205 0.008,-3.71094 L 325.64865,159.7715 c -0.49778,-0.49 -1.15938,-0.77148 -1.85938,-0.77148 z M 309,162 c 1.65977,0 3,1.34364 3,3.00586 0,1.66222 -1.34911,2.99414 -3,2.99414 -1.65089,0 -3,-1.34364 -3,-3.00586 C 306,163.33192 307.34024,162 309,162 Z"
         id="path2255" />
      <path
         style="fill:#ffffff"
         d="M 305.62695,158 C 304.17251,158 303,159.17638 303,160.62305 v 11.1582 c 0,0.7 0.28148,1.3616 0.77148,1.85937 l 11.58789,11.5879 c 1.02667,1.02666 2.68428,1.02666 3.71094,0 l 11.15821,-11.15821 c 1.02666,-1.02667 1.02666,-2.69205 0,-3.71094 l -11.5879,-11.58789 c -0.49,-0.49 -1.15937,-0.77148 -1.85937,-0.77148 z m 15.4961,0 10.73242,10.74023 c 0.92555,0.92556 1.43945,2.16407 1.43945,3.47852 0,1.31444 -0.50612,2.54128 -1.43945,3.47461 l -9.52149,9.51367 0.0254,0.0215 c 1.02667,1.02667 2.68428,1.02667 3.71094,0 l 11.15821,-11.1582 c 1.02673,-1.02667 1.0266,-2.69205 0.008,-3.71094 L 325.64865,158.7715 c -0.49778,-0.49 -1.15938,-0.77148 -1.85938,-0.77148 z M 309,161 c 1.65977,0 3,1.34364 3,3.00586 0,1.66222 -1.34911,2.99414 -3,2.99414 -1.65089,0 -3,-1.34364 -3,-3.00586 C 306,162.33192 307.34024,161 309,161 Z"
         id="path2257"
         sodipodi:nodetypes="sssccsccsssccscccccccscsssss" />
    </g>
    <g
       id="g2523">
      <path
         d="m 314.75388,57.00006 c -2.07777,0 -3.75388,1.679412 -3.75388,3.746081 v 15.941321 c 0,0.999995 0.40156,1.94513 1.10155,2.656226 l 16.55462,16.554621 c 1.46665,1.46665 3.83408,1.46665 5.30076,0 l 15.94132,-15.94132 c 1.46665,-1.466676 1.46665,-3.845225 0,-5.300777 L 333.34365,58.101614 C 332.64363,57.401618 331.6874,57.00006 330.6874,57.00006 Z m 22.13661,0 15.33196,15.343663 c 1.32222,1.322234 2.05467,3.090965 2.05467,4.968735 0,1.877771 -0.72135,3.631481 -2.05467,4.964811 l -13.60149,13.58978 0.0352,0.0312 c 1.46665,1.46667 3.83408,1.46667 5.30076,0 l 15.94132,-15.94132 c 1.46675,-1.466656 1.46727,-3.845205 0.012,-5.300757 L 343.35554,58.101554 C 342.64444,57.401558 341.69931,57 340.69931,57 Z m -17.89053,3.99998 c 2.21301,0 3.99998,1.791511 3.99998,4.0078 0,2.216269 -1.79881,3.99216 -3.99998,3.99216 -2.20117,0 -3.99998,-1.791511 -3.99998,-4.0078 0,-2.216269 1.78697,-3.99216 3.99998,-3.99216 z"
         style="fill:#000000;stroke-width:1.99999;opacity:0.2"
         id="path2501" />
      <path
         d="m 314.75388,56.00006 c -2.07777,0 -3.75388,1.679412 -3.75388,3.746081 v 15.941321 c 0,0.999995 0.40156,1.94513 1.10155,2.656226 l 16.55462,16.554622 c 1.46665,1.46665 3.83408,1.46665 5.30076,0 l 15.94132,-15.941325 c 1.46665,-1.466672 1.46665,-3.845221 0,-5.300773 L 333.34365,57.101614 C 332.64363,56.401618 331.6874,56.00006 330.6874,56.00006 Z m 22.13661,0 15.33196,15.343663 c 1.32222,1.322234 2.05467,3.090965 2.05467,4.968735 0,1.877771 -0.72135,3.631482 -2.05467,4.964816 l -13.60149,13.589776 0.0352,0.0312 c 1.46665,1.46667 3.83408,1.46667 5.30076,0 l 15.94132,-15.941325 c 1.46675,-1.466652 1.46727,-3.845201 0.012,-5.300753 L 343.35554,57.101554 C 342.64444,56.401558 341.69931,56 340.69931,56 Z m -17.89053,3.99998 c 2.21301,0 3.99998,1.791511 3.99998,4.0078 0,2.216269 -1.79881,3.99216 -3.99998,3.99216 -2.20117,0 -3.99998,-1.791511 -3.99998,-4.0078 0,-2.216269 1.78697,-3.99216 3.99998,-3.99216 z"
         style="fill:#ffffff;stroke-width:1.99999"
         id="path2473"
         sodipodi:nodetypes="ssscsccccssccscccccccscsssss" />
    </g>
    <g
       id="g2583"
       transform="matrix(4.0000535,0,0,4.0000535,-1138.0162,-532.00845)">
      <path
         d="M 305.62695,158.5 C 304.17251,158.5 303,159.67638 303,161.12305 v 11.1582 c 0,0.7 0.28148,1.3616 0.77148,1.85937 l 11.58789,11.5879 c 1.02667,1.02666 2.68428,1.02666 3.71094,0 l 11.15821,-11.15821 c 1.02666,-1.02667 1.02666,-2.69205 0,-3.71094 l -11.5879,-11.58789 c -0.49,-0.49 -1.15937,-0.77148 -1.85937,-0.77148 z m 15.4961,0 10.73242,10.74023 c 0.92555,0.92556 1.43945,2.16407 1.43945,3.47852 0,1.31444 -0.50612,2.54128 -1.43945,3.47461 l -9.52149,9.51367 0.0254,0.0215 c 1.02667,1.02667 2.68428,1.02667 3.71094,0 l 11.15821,-11.1582 c 1.02673,-1.02667 1.0266,-2.69205 0.008,-3.71094 L 325.64865,159.2715 c -0.49778,-0.49 -1.15938,-0.77148 -1.85938,-0.77148 z M 309,161.5 c 1.65977,0 3,1.34364 3,3.00586 0,1.66222 -1.34911,2.99414 -3,2.99414 -1.65089,0 -3,-1.34364 -3,-3.00586 0,-1.66222 1.34024,-2.99414 3,-2.99414 z"
         style="opacity:0.2;fill:#000000"
         id="path2561" />
      <path
         d="M 305.62695,158 C 304.17251,158 303,159.17638 303,160.62305 v 11.1582 c 0,0.7 0.28148,1.3616 0.77148,1.85937 l 11.58789,11.5879 c 1.02667,1.02666 2.68428,1.02666 3.71094,0 l 11.15821,-11.15821 c 1.02666,-1.02667 1.02666,-2.69205 0,-3.71094 l -11.5879,-11.58789 c -0.49,-0.49 -1.15937,-0.77148 -1.85937,-0.77148 z m 15.4961,0 10.73242,10.74023 c 0.92555,0.92556 1.43945,2.16407 1.43945,3.47852 0,1.31444 -0.50612,2.54128 -1.43945,3.47461 l -9.52149,9.51367 0.0254,0.0215 c 1.02667,1.02667 2.68428,1.02667 3.71094,0 l 11.15821,-11.1582 c 1.02673,-1.02667 1.0266,-2.69205 0.008,-3.71094 L 325.64865,158.7715 c -0.49778,-0.49 -1.15938,-0.77148 -1.85938,-0.77148 z M 309,161 c 1.65977,0 3,1.34364 3,3.00586 0,1.66222 -1.34911,2.99414 -3,2.99414 -1.65089,0 -3,-1.34364 -3,-3.00586 C 306,162.33192 307.34024,161 309,161 Z"
         style="fill:#ffffff"
         id="path2533"
         sodipodi:nodetypes="sssccsccsssccscccccccscsssss" />
    </g>
  </g>
  <g
     id="Highlights">
    <path
       id="rect653"
       style="opacity:0.2;fill:#ffffff"
       d="M 80,44 C 53.408027,44 32,65.408027 32,92 v 2 C 32,67.408027 53.408027,46 80,46 h 128 c 26.59197,0 48,21.408027 48,48 V 92 C 256,65.408027 234.59197,44 208,44 Z"
       sodipodi:nodetypes="sscsscsss" />
    <path
       id="rect773"
       style="opacity:0.2;fill:#ffffff"
       d="m 312,34 c -9.97199,0 -18,8.02801 -18,18 v 1 c 0,-9.97199 8.02801,-18 18,-18 h 48 c 9.97199,0 18,8.02801 18,18 v -1 c 0,-9.97199 -8.02801,-18 -18,-18 z" />
    <path
       id="rect1135"
       style="opacity:0.2;fill:#ffffff;fill-opacity:1"
       d="m 304,144 c -6.64799,0 -12,5.35201 -12,12 v 1 c 0,-6.64799 5.35201,-12 12,-12 h 32 c 6.64799,0 12,5.35201 12,12 v -1 c 0,-6.64799 -5.35201,-12 -12,-12 z" />
    <path
       id="rect1265"
       style="opacity:0.2;fill:#ffffff;fill-opacity:1"
       d="m 300,223 c -4.986,0 -9,4.014 -9,9 v 1 c 0,-4.986 4.014,-9 9,-9 h 24 c 4.986,0 9,4.014 9,9 v -1 c 0,-4.986 -4.014,-9 -9,-9 z" />
    <path
       id="rect1368"
       style="opacity:0.2;fill:#ffffff;fill-opacity:1"
       d="m 424,54 c -3.324,0 -6,2.676003 -6,6 v 1 c 0,-3.323997 2.676,-6 6,-6 h 16 c 3.324,0 6,2.676003 6,6 v -1 c 0,-3.323997 -2.676,-6 -6,-6 z" />
    <path
       id="rect1402"
       style="opacity:0.2;fill:#ffffff;fill-opacity:1"
       d="m 420,140 c -2.216,0 -4,1.784 -4,4 v 1 c 0,-2.216 1.784,-4 4,-4 h 8 c 2.216,0 4,1.784 4,4 v -1 c 0,-2.216 -1.784,-4 -4,-4 z" />
    <path
       id="rect1436"
       style="opacity:0.2;fill:#ffffff;fill-opacity:1"
       d="m 422,102 c -2.216,0 -4,1.784 -4,4 v 1 c 0,-2.216 1.784,-4 4,-4 h 12 c 2.216,0 4,1.784 4,4 v -1 c 0,-2.216 -1.784,-4 -4,-4 z" />
  </g>
</svg>
