<?xml version="1.0" encoding="UTF-8" standalone="no"?>
<!-- Created with Inkscape (http://www.inkscape.org/) -->

<svg
   width="480"
   height="300"
   viewBox="0 0 480 300"
   version="1.1"
   id="svg5"
   inkscape:version="1.3 (1:1.3+202307231459+0e150ed6c4)"
   sodipodi:docname="thunderbird.svg"
   xmlns:inkscape="http://www.inkscape.org/namespaces/inkscape"
   xmlns:sodipodi="http://sodipodi.sourceforge.net/DTD/sodipodi-0.dtd"
   xmlns="http://www.w3.org/2000/svg"
   xmlns:svg="http://www.w3.org/2000/svg">
  <sodipodi:namedview
     id="namedview7"
     pagecolor="#888888"
     bordercolor="#000000"
     borderopacity="0.25"
     inkscape:showpageshadow="true"
     inkscape:pageopacity="0"
     inkscape:pagecheckerboard="0"
     inkscape:deskcolor="#888888"
     inkscape:document-units="px"
     showgrid="false"
     showborder="false"
     inkscape:zoom="1.4958333"
     inkscape:cx="240"
     inkscape:cy="150.08357"
     inkscape:window-width="1920"
     inkscape:window-height="1008"
     inkscape:window-x="0"
     inkscape:window-y="0"
     inkscape:window-maximized="1"
     inkscape:current-layer="svg5" />
  <defs
     id="defs2" />
  <g
     id="Baseplate"
     style="display:none">
    <text
       y="19.774782"
       xml:space="preserve"
       x="15.006946"
       style="font-style:normal;font-variant:normal;font-weight:normal;font-stretch:normal;line-height:0%;font-family:'DejaVu Sans';-inkscape-font-specification:'DejaVu Sans';display:inline;fill:#000000;fill-opacity:1;stroke:none;enable-background:new"
       inkscape:label="context"
       id="context"><tspan
         style="font-style:normal;font-variant:normal;font-weight:normal;font-stretch:normal;font-size:18px;line-height:1.25;font-family:'DejaVu Sans';-inkscape-font-specification:'DejaVu Sans'"
         y="19.774782"
         x="15.006946"
         sodipodi:role="line"
         id="tspan3933">apps</tspan></text>
    <text
       y="19.774782"
       xml:space="preserve"
       x="122.48839"
       style="font-style:normal;font-variant:normal;font-weight:bold;font-stretch:normal;line-height:0%;font-family:'DejaVu Sans';-inkscape-font-specification:'DejaVu Sans Bold';text-align:start;writing-mode:lr-tb;text-anchor:start;display:inline;fill:#000000;fill-opacity:1;stroke:none;enable-background:new"
       inkscape:label="icon-name"
       id="icon-name"><tspan
         style="font-style:normal;font-variant:normal;font-weight:bold;font-stretch:normal;font-size:18px;line-height:1.25;font-family:'DejaVu Sans';-inkscape-font-specification:'DejaVu Sans Bold'"
         y="19.774782"
         x="122.48839"
         sodipodi:role="line"
         id="tspan3937">thunderbird</tspan></text>
    <rect
       style="fill:#ffffff"
       id="256x256"
       width="256"
       height="256"
       x="16"
       y="28" />
    <rect
       style="fill:#ffffff"
       id="96x96"
       width="96"
       height="96"
       x="288"
       y="28" />
    <rect
       style="fill:#ffffff"
       id="64x64"
       width="64"
       height="64"
       x="288"
       y="140" />
    <rect
       style="fill:#ffffff"
       id="48x48"
       width="48"
       height="48"
       x="288"
       y="220" />
    <rect
       style="fill:#ffffff"
       id="32x32"
       width="32"
       height="32"
       x="416"
       y="52" />
    <rect
       style="fill:#ffffff"
       id="24x24"
       width="24"
       height="24"
       x="416"
       y="100" />
    <rect
       style="fill:#ffffff"
       id="22x22"
       width="22"
       height="22"
       x="417"
       y="101" />
    <rect
       style="fill:#ffffff"
       id="16x16"
       width="16"
       height="16"
       x="416"
       y="140" />
  </g>
  <g
     id="Shadow">
    <rect
       style="opacity:0.2;fill:#000000"
       id="rect651"
       width="224"
       height="224"
       x="32"
       y="46"
       ry="48" />
    <rect
       style="opacity:0.2;fill:#000000"
       id="rect769"
       width="84"
       height="85"
       x="294"
       y="34"
       ry="18" />
    <rect
       style="opacity:0.2;fill:#000000;fill-opacity:1"
       id="rect1131"
       width="56"
       height="56"
       x="292"
       y="145"
       ry="12" />
    <rect
       style="opacity:0.2;fill:#000000;fill-opacity:1"
       id="rect1261"
       width="42"
       height="42"
       x="291"
       y="224"
       ry="9" />
    <rect
       style="opacity:0.2;fill:#000000;fill-opacity:1"
       id="rect1364"
       width="28"
       height="29"
       x="418"
       y="54"
       ry="6" />
    <rect
       style="opacity:0.2;fill:#000000;fill-opacity:1"
       id="rect1398"
       width="16"
       height="16"
       x="416"
       y="141"
       ry="4" />
    <rect
       style="opacity:0.2;fill:#000000;fill-opacity:1"
       id="rect1432"
       width="20"
       height="20"
       x="418"
       y="103"
       ry="4" />
  </g>
  <g
     id="Background">
    <rect
       style="fill:#20548f;fill-opacity:1"
       id="rect597"
       width="224"
       height="224"
       x="32"
       y="44"
       ry="48" />
    <rect
       style="opacity:1;fill:#20548f;fill-opacity:1"
       id="rect771"
       width="84"
       height="84"
       x="294"
       y="34"
       ry="18" />
    <rect
       style="opacity:1;fill:#20548f;fill-opacity:1"
       id="rect1133"
       width="56"
       height="56"
       x="292"
       y="144"
       ry="12" />
    <rect
       style="opacity:1;fill:#20548f;fill-opacity:1"
       id="rect1263"
       width="42"
       height="42"
       x="291"
       y="223"
       ry="9" />
    <rect
       style="opacity:1;fill:#20548f;fill-opacity:1"
       id="rect1366"
       width="28"
       height="28"
       x="418"
       y="54"
       ry="6" />
    <rect
       style="opacity:1;fill:#20548f;fill-opacity:1"
       id="rect1400"
       width="16"
       height="16"
       x="416"
       y="140"
       ry="4" />
    <rect
       style="opacity:1;fill:#20548f;fill-opacity:1"
       id="rect1434"
       width="20"
       height="20"
       x="418"
       y="102"
       ry="4" />
  </g>
  <g
     id="Symbols">
    <g
       id="g4634"
       transform="matrix(1.1999436,0,0,1.1999436,-84.775876,-29.592019)">
      <path
         d="m 423.5,144.91674 c 0.275,-1.01998 1.16499,-1.49998 2.49996,-1.49998 0.96499,0 1.90498,0.245 2.49997,0.74999 -0.355,0.015 -0.80999,0.23501 -0.99999,0.49999 0.53499,0.06 0.94499,0.145 1.24998,0.5 -0.23,-0.04 -0.53499,-0.055 -0.74999,0 0.145,0.21999 0.38999,0.48999 0.5,0.74999 0.32999,0.77998 0.49999,1.70997 0.49999,2.49996 0,2.88495 -2.14497,4.99992 -4.99993,4.99992 -2.85496,0 -4.99992,-2.14497 -4.99992,-4.99992 0,-0.45 0.075,-1.08999 0.205,-1.53498 0.03,-0.09 0.07,-0.175 0.125,-0.205 0.01,-0.01 0.02,-0.01 0.025,-0.01 0.06,0 0.1,0.095 0.11,0.125 0.07,0.285 0.165,0.60999 0.285,0.87499 0,-0.58999 0.205,-1.21998 0.54499,-1.68998 0.22,-0.31499 0.64499,-0.56999 0.73999,-1.40997 0,0 0.005,-0.08 0.11,-0.08 0.60499,0.17999 0.85498,1.35998 0.85498,2.42996 0.4,0.06 0.63,-0.67499 0.63,-0.67499 -0.065,-0.08 -0.13,-0.245 -0.13,-0.32499 0,-0.355 0.37999,-0.72999 0.99998,-0.99999 z"
         style="opacity:0.2;fill:#000000;stroke-width:0.499992"
         id="path1242-2" />
      <path
         d="m 423.5,144.50005 c 0.275,-1.01999 1.16499,-1.49998 2.49996,-1.49998 0.96499,0 1.90498,0.24501 2.49997,0.74999 -0.355,0.015 -0.80999,0.23501 -0.99999,0.49999 0.53499,0.06 0.94499,0.14501 1.24998,0.49999 -0.23,-0.04 -0.53499,-0.055 -0.74999,0 0.145,0.22 0.38999,0.49 0.5,0.74999 0.32999,0.77999 0.49999,1.70998 0.49999,2.49997 0,2.88495 -2.14497,4.99992 -4.99993,4.99992 -2.85496,0 -4.99992,-2.14497 -4.99992,-4.99992 0,-0.45 0.075,-1.08999 0.205,-1.53498 0.03,-0.09 0.07,-0.175 0.125,-0.205 0.01,-0.01 0.02,-0.01 0.025,-0.01 0.06,0 0.1,0.095 0.11,0.125 0.07,0.285 0.165,0.60999 0.285,0.87499 0,-0.58999 0.205,-1.21999 0.54499,-1.68998 0.22,-0.31499 0.64499,-0.56999 0.73999,-1.40998 0,0 0.005,-0.08 0.11,-0.08 0.60499,0.18 0.85498,1.35998 0.85498,2.42997 0.4,0.06 0.63,-0.67499 0.63,-0.67499 -0.065,-0.08 -0.13,-0.245 -0.13,-0.325 0,-0.35499 0.37999,-0.72999 0.99998,-0.99998 z"
         style="fill:#248afd;stroke-width:0.499992"
         id="path1270-2" />
      <path
         d="m 428.73492,146.21502 c 0.02,0.06 0.085,0.33 0.085,0.53499 0,2.74996 -2.15996,5.24993 -4.81993,5.24993 -1.03998,0 -1.84497,-0.32 -2.67995,-0.96499 -1.27999,-0.99499 -2.13997,-2.17997 -2.13997,-3.74994 0,-0.355 0.08,-0.79499 0.125,-0.97499 0.01,-0.05 0.03,-0.06 0.05,-0.06 -0.005,0 -0.02,0.005 -0.025,0.01 -0.055,0.035 -0.09,0.11 -0.125,0.205 -0.055,0.145 -0.135,0.58499 -0.145,0.63999 -0.025,0.185 -0.06,0.58999 -0.06,0.895 0,2.85495 2.14497,4.99992 4.99992,4.99992 2.85496,0 4.99993,-2.11497 4.99993,-4.99992 0,-0.71499 -0.12,-1.33498 -0.265,-1.78499 z"
         style="fill:#0271ef;stroke-width:0.499992"
         id="path1214-8" />
      <path
         d="m 419.30507,146.31003 c -0.075,0.315 -0.125,0.61999 -0.125,0.97499 0,1.11498 0.42999,2.19996 1.51497,3.21494 -0.28999,-0.35499 -0.69499,-0.97998 -0.69499,-1.74998 0,-0.99997 0.25,-1.42497 0.53,-1.70997 0.03,-0.03 0.055,-0.04 0.1,-0.04 0.06,0 0.11499,0.055 0.11999,0.13 0.09,2.59996 2.24997,3.86994 4.74993,3.86994 -1.71997,0 -3.17495,-0.98499 -1.40998,-1.32498 0.92498,-0.18001 2.40997,-0.60499 2.40997,-1.67497 0,-2.67996 -1.49998,-2.99996 -2.49997,-2.99996 -0.49999,0 -1.36997,0.325 -1.36997,0.82499 0.07,0.23999 -0.44,0.70499 -0.63,0.67499 0,-1.06999 -0.24999,-2.24997 -0.85499,-2.49996 -0.1,0 -0.10999,0.08 -0.10999,0.08 -0.095,0.83499 -0.51999,1.16499 -0.73999,1.47998 -0.33999,0.46999 -0.54499,1.03499 -0.54499,1.68998 -0.12,-0.265 -0.215,-0.58999 -0.285,-0.87499 -0.01,-0.03 -0.055,-0.125 -0.11,-0.125 -0.03,0 -0.045,0.03 -0.05,0.06 z"
         style="fill:#0259bb;stroke-width:0.499992"
         id="path1298-9" />
      <path
         d="m 423.99999,149.99997 c 1.24999,0 2.49997,-0.92999 2.49997,-1.99996 0,-0.5 -0.055,-0.86 -0.25,-1.24999 -0.49999,-0.99998 -1.49998,-1.24998 -2.24997,-1.24998 -0.74998,0 -1.74997,0.25 -2.24996,1.24998 -0.19,0.375 -0.25,0.74999 -0.25,1.24999 0,2.06996 1.85497,2.99995 3.99994,2.99995 -0.24999,0 -1.24998,0 -1.65997,-0.56999 -0.05,-0.06 -0.09,-0.115 -0.09,-0.18 0,-0.125 0.12,-0.24999 0.24999,-0.25 z"
         style="fill:#d6d6d6;stroke-width:0.499992"
         id="path1326-7" />
      <path
         id="path1354-3"
         style="opacity:0.2;fill:#000000;stroke-width:0.499992"
         d="m 422.36623,146.00003 c -0.24042,0.18332 -0.45478,0.42714 -0.6162,0.74998 -0.0631,0.12462 -0.11144,0.2497 -0.14844,0.3789 l 2.04294,1.69138 c 0.11,0.11 0.22047,0.17469 0.35546,0.17969 0.135,0.005 0.24047,-0.0647 0.35546,-0.17969 l 2.04294,-1.69138 c -0.0368,-0.12696 -0.0847,-0.25146 -0.14843,-0.3789 -0.1614,-0.32279 -0.37583,-0.56667 -0.6162,-0.74998 z" />
      <path
         d="M 424.35498,148.31999 C 424.24,148.435 424.13499,148.50499 424,148.5 c -0.135,-0.005 -0.24499,-0.07 -0.35499,-0.18001 l -1.89497,-1.56997 c 0.49999,-0.99998 1.49998,-1.24998 2.24996,-1.24998 0.74999,0 1.74997,0.25 2.24997,1.24998 z"
         style="fill:#e4e4e4;stroke-width:0.499992"
         id="path1382-6" />
      <path
         d="m 424.97998,144.4739 c 0.29501,-0.09 0.27,-0.36999 0.27,-0.36999 0,0 -0.14501,-0.16999 -0.435,-0.075 -0.27499,0.085 -0.31499,0.27501 -0.31499,0.27501 0,0 0.15,0.27499 0.47999,0.16998 z"
         style="fill:#e4e4e4;stroke-width:0.499992"
         id="path1438-1" />
      <path
         id="path415-2"
         style="opacity:0.2;fill:#ffffff;stroke-width:0.499992"
         d="m 425.99996,143.00007 c -1.33497,0 -2.22497,0.48 -2.49996,1.49998 -0.61998,0.26999 -0.99998,0.64499 -0.99998,0.99998 0,0.0548 0.0312,0.14861 0.0713,0.22851 0.13709,-0.2666 0.46585,-0.52693 0.9287,-0.7285 0.27499,-1.01998 1.16499,-1.49998 2.49996,-1.49998 0.70612,0 1.39815,0.13214 1.95212,0.40039 0.1784,-0.0863 0.37468,-0.14308 0.54785,-0.15039 -0.59499,-0.50498 -1.53498,-0.74999 -2.49997,-0.74999 z m -4.85539,0.99999 c -0.1,0 -0.10938,0.0801 -0.10938,0.0801 -0.095,0.83498 -0.52022,1.16545 -0.74022,1.48045 -0.33999,0.46999 -0.54491,1.03444 -0.54491,1.68943 -0.12,-0.265 -0.21516,-0.59 -0.28516,-0.87499 -0.01,-0.03 -0.0554,-0.125 -0.11035,-0.125 -0.007,0 -0.0124,0.002 -0.0186,0.006 h -0.001 l -10e-4,0.001 c -0.004,0.002 -0.006,0.006 -0.01,0.01 l -9.9e-4,10e-4 c -0.001,0.001 -0.003,0.001 -0.004,0.003 -0.0485,0.0377 -0.0818,0.10714 -0.11427,0.19531 -0.055,0.145 -0.1355,0.58464 -0.1455,0.63964 -0.025,0.185 -0.0596,0.58952 -0.0596,0.89452 0,0.0866 0.002,0.17256 0.006,0.25781 0.0109,-0.25112 0.035,-0.51359 0.0537,-0.65233 0.01,-0.055 0.0905,-0.49465 0.14551,-0.63964 0.0325,-0.0882 0.0658,-0.15759 0.11426,-0.19532 0.001,-0.002 0.003,-0.002 0.004,-0.003 l 10e-4,-0.001 c 0.003,-0.004 0.006,-0.008 0.01,-0.01 l 10e-4,-10e-4 h 10e-4 c 0.006,-0.003 0.012,-0.006 0.0186,-0.006 0.055,0 0.10035,0.095 0.11035,0.125 0.07,0.285 0.16516,0.61 0.28516,0.87499 0,-0.65499 0.20492,-1.21944 0.54491,-1.68943 0.22,-0.31499 0.64523,-0.64546 0.74022,-1.48044 0,0 0.009,-0.0801 0.10938,-0.0801 0.49205,0.20332 0.74575,1.02242 0.82421,1.89645 0.009,-0.0116 0.0184,-0.0229 0.0274,-0.0342 -0.0206,-1.03158 -0.27233,-2.12291 -0.85156,-2.36226 z m 6.92763,0.34765 c -0.23439,0.0916 -0.45452,0.23813 -0.57225,0.40234 0.20872,0.0234 0.39747,0.0511 0.56932,0.0967 -0.0235,-0.0325 -0.0491,-0.066 -0.0693,-0.0967 0.215,-0.055 0.52,-0.04 0.75,0 -0.1853,-0.21568 -0.41042,-0.33104 -0.67773,-0.40234 z m 0.2627,0.86815 c -0.11978,2.4e-4 -0.23697,0.009 -0.33497,0.0342 0.145,0.21999 0.38999,0.48999 0.5,0.74999 0.29836,0.7052 0.46474,1.53241 0.49413,2.26852 0.004,-0.0886 0.006,-0.1784 0.006,-0.26855 0,-0.78999 -0.17,-1.71998 -0.49999,-2.49997 -0.04,-0.0946 -0.10062,-0.18984 -0.16504,-0.28416 z m -7.70496,1.78416 c -0.045,0 -0.0696,0.01 -0.0996,0.04 -0.28,0.285 -0.53027,0.70995 -0.53027,1.70993 0,0.0656 0.004,0.12991 0.01,0.19336 0.0464,-0.78321 0.27114,-1.14948 0.5205,-1.4033 0.03,-0.03 0.0546,-0.0401 0.0996,-0.0401 0.06,0 0.11511,0.0549 0.12011,0.12988 0.0734,2.12121 1.36029,3.23698 3.24995,3.62007 0.30865,0.0713 1.12411,0.11028 1.49998,-0.25 0,0 -0.29298,-0.008 -0.16015,-0.003 -0.123,-0.002 -0.24527,-0.008 -0.3662,-0.0166 -0.0137,-10e-4 -0.0273,-0.003 -0.041,-0.004 -2.25104,-0.17997 -4.09945,-1.44578 -4.18256,-3.84661 -0.005,-0.075 -0.0601,-0.12988 -0.12011,-0.12988 z m 5.85928,1.166 c -0.12019,0.99841 -1.30433,1.83395 -2.48922,1.83395 -0.12999,0 -0.24999,0.12499 -0.24999,0.24999 0,0.065 0.0408,0.11968 0.0908,0.17968 0.0225,0.0314 0.0473,0.0608 0.0732,0.0889 0.0274,-0.0115 0.0562,-0.0186 0.0859,-0.0186 1.24998,0 2.49998,-0.92999 2.49998,-1.99997 0,-0.11874 -0.003,-0.22874 -0.0107,-0.33398 z"
         sodipodi:nodetypes="scsccsccscccccsccccccccscccccccccsccccccccccccccccscsscscsccscccccccscssccssc" />
    </g>
    <g
       id="g1812"
       transform="translate(416.64514,101.2773)">
      <path
         d="m 9.9248387,5.7927046 c 0.4400003,-1.63 2.7200003,-2.57 4.8600003,-2.57 1.54,0 2.62,0.19 3.57,1 -0.57,0.03 -1,0.59 -1.29,1 0.86,0.1 1.51,0.29 2,0.86 -0.36,-0.07 -0.76,-0.07 -1.14,0 0.92,1.3899996 1.43,3.4499996 1.43,5.1399994 0,4.620001 -3.43,8.000001 -8,8.000001 -4.5700003,0 -8.0000003,-3.43 -8.0000003,-8.000001 0,-0.72 0.12,-1.7999998 0.33,-2.5099998 0.05,-0.15 0.11,-0.28 0.2,-0.33 0.01,-0.01 0.03,-0.02 0.04,-0.02 0.09,0 0.16,0.15 0.17,0.2 0.12,0.46 0.06,1.23 0.26,1.6599998 0,-0.9499998 0.53,-2.1499998 1.07,-2.9099998 0.25,-0.35 0.65,-0.56 0.93,-1.0899996 0.12,-0.23 0.22,-0.47 0.27,-0.87 0,0 0.01,-0.13 0.17,-0.13 0.56,0 0.56,4.2899996 0.56,5.9999994 0.64,0.1 1.24,-3.0599998 1.24,-3.0599998 -0.08,-0.23 -0.1,-0.37 -0.1,-0.65 0,-0.58 0.44,-1.2899996 1.43,-1.7199996 z"
         style="opacity:0.2;fill:#000000"
         id="path1187" />
      <path
         d="m 9.9248387,5.2927046 c 0.4400003,-1.63 2.7200003,-2.57 4.8600003,-2.57 1.54,0 2.62,0.19 3.57,1 -0.57,0.03 -1,0.59 -1.29,1 0.86,0.1 1.51,0.29 2,0.86 -0.36,-0.07 -0.76,-0.07 -1.14,0 0.92,1.39 1.43,3.45 1.43,5.1399994 0,4.620001 -3.43,8.000001 -8,8.000001 -4.5700003,0 -8.0000005,-3.43 -8.0000005,-8.000001 0,-0.72 0.12,-1.7999994 0.33,-2.5099994 0.05,-0.15 0.1100002,-0.28 0.2000002,-0.33 0.01,-0.01 0.03,-0.02 0.04,-0.02 0.09,0 0.16,0.15 0.17,0.2 0.12,0.46 0.06,1.23 0.26,1.6599996 0,-0.9499996 0.53,-2.1499996 1.07,-2.9099996 0.25,-0.35 0.65,-0.56 0.93,-1.09 0.12,-0.23 0.22,-0.47 0.27,-0.87 0,0 0.01,-0.13 0.17,-0.13 0.56,0 0.56,4.29 0.56,5.9999994 0.64,0.1 1.24,-3.0599994 1.24,-3.0599994 -0.08,-0.23 -0.1,-0.37 -0.1,-0.65 0,-0.58 0.44,-1.29 1.43,-1.72 z"
         style="fill:#248afd"
         id="path1159" />
      <path
         d="m 18.934839,7.8627046 c 0.03,0.1 0.13,0.53 0.13,0.86 0,4.4000004 -3.45,8.2900004 -7.71,8.2900004 -1.6600003,0 -2.6800003,-0.39 -4.0000003,-1.44 -1.9,-1.53 -3.7099998,-3.51 -3.7099998,-5.9900004 0,-0.57 0.12,-1.34 0.2,-1.62 0.02,-0.08 0.04,-0.1 0.08,-0.1 -0.01,0 -0.03,0.01 -0.04,0.02 -0.09,0.05 -0.15,0.17 -0.2,0.33 -0.09,0.23 -0.22,0.99 -0.23,1.08 -0.04,0.29 -0.1,0.9500004 -0.1,1.4300004 0,4.57 3.4299998,8 8.0000001,8 4.57,0 8,-3.38 8,-8 0,-1.1400004 -0.19,-2.1400004 -0.42,-2.8600004 z"
         style="fill:#0271ef"
         id="path1264"
         sodipodi:nodetypes="csscscccccsssc" />
      <path
         d="m 3.8448387,7.9627046 c -0.12,0.5 -0.2,1.05 -0.2,1.62 0,1.7800004 0.97,3.5200004 2.71,5.1400004 -0.15,-0.18 -0.27,-0.43 -0.38,-0.72 -0.22,-0.62 -0.62,-1.44 -0.62,-2.28 0,-0.93 0,-1.7900004 0.62,-2.6500004 0.04,-0.05 0.09,-0.06 0.16,-0.06 0.09,0 0.18,0.09 0.19,0.21 0,0.17 0.01,0.33 0.03,0.5 0.36,3.8400004 3.16,6.0000004 7.0000003,6.0000004 -1.28,0 -4.6800003,-1.78 -1.86,-2.32 1.48,-0.29 3.86,-0.97 3.86,-2.68 0,-3.5100004 -2,-4.5700004 -4,-4.5700004 -1.22,0 -2.5100003,0.62 -2.7600003,1.51 0.12,0.38 -0.94,3.1000004 -1.24,3.0600004 0,-1.7100004 0,-6.0000004 -0.56,-6.0000004 -0.15,0 -0.17,0.13 -0.17,0.13 -0.04,0.37 -0.16,0.65 -0.27,0.87 -0.28,0.56 -0.67,0.73 -0.93,1.09 -0.54,0.76 -1.07,1.86 -1.07,2.91 -0.2,-0.43 -0.14,-1.2 -0.26,-1.66 -0.01,-0.05 -0.08,-0.2 -0.17,-0.2 -0.05,0 -0.07,0.05 -0.08,0.1 z"
         style="fill:#0259bb"
         id="path1131" />
      <path
         d="m 11.644839,13.792705 c 0.25,0 0.47,-0.03 0.71,-0.07 1.66,-0.29 3,-1.5 3,-3 0,-0.72 -0.18,-1.7100005 -0.57,-2.2900005 -0.7,-1.03 -1.97,-1.7099999 -3.43,-1.7099999 -1.4900003,0 -2.7400003,0.6499999 -3.4300003,1.7099999 -0.36,0.57 -0.57,1.5999995 -0.57,2.2899995 0,3.310001 2.57,5.000001 6.0000003,5.000001 -0.21,-0.03 -0.95,-0.29 -1.86,-1.36 -0.08,-0.1 -0.14,-0.18 -0.14,-0.29 0,-0.17 0.16,-0.28 0.29,-0.28 z"
         style="fill:#d6d6d6"
         id="path1075"
         sodipodi:nodetypes="scscscsccss" />
      <path
         d="m 11.924839,11.932704 c -0.18,0.19 -0.35,0.29 -0.57,0.29 -0.21,0 -0.4,-0.11 -0.570001,-0.29 L 7.6248385,9.1127046 c 0.02,-0.09 0.08,-0.27 0.15,-0.39 h 7.1700005 c 0.05,0.1 0.09,0.21 0.13,0.31 z"
         style="opacity:0.2;fill:#000000"
         id="path1047" />
      <path
         d="m 11.924839,11.432705 c -0.17,0.18 -0.35,0.29 -0.57,0.29 -0.21,0 -0.41,-0.13 -0.57,-0.29 L 7.7648387,8.7227046 c 0.48,-1 1.73,-2 3.5900003,-2 1.779999,0 3.11,1.01 3.59,2 z"
         style="fill:#e4e4e4"
         id="path1103" />
      <path
         id="path1589"
         style="opacity:0.2;fill:#000000"
         d="m 11.354839,6.7227046 c -1.092003,0 -2.0549291,0.3496355 -2.7630542,0.9536904 L 8.8154242,8.0002257 C 9.4969468,7.5048911 10.373805,7.2227046 11.354839,7.2227046 c 1.459998,0 2.729688,0.6809385 3.429688,1.7109375 0.338692,0.5036971 0.518966,1.3154349 0.560546,1.9921879 0.0055,-0.06706 0.0098,-0.134807 0.0098,-0.203125 0,-0.72 -0.180313,-1.7090635 -0.570312,-2.2890629 -0.7,-1.029999 -1.96969,-1.7109375 -3.429688,-1.7109375 z m 0.126953,7.6230474 c -0.07191,0.04832 -0.126953,0.126703 -0.126953,0.226562 0,0.11 0.06062,0.191016 0.140625,0.291016 0.294601,0.346399 0.569654,0.606442 0.816406,0.802734 0.337121,0.0367 0.685194,0.05664 1.042969,0.05664 -0.21,-0.03 -0.949376,-0.289376 -1.859375,-1.359375 -0.0048,-0.0061 -0.009,-0.01165 -0.01367,-0.01758 z"
         sodipodi:nodetypes="sccsccscscsccccc" />
      <path
         d="m 12.324839,5.6727046 c 0.58,-0.18 0.53,-0.74 0.53,-0.74 0,0 -0.29,-0.34 -0.87,-0.15 -0.55,0.17 -0.63,0.55 -0.63,0.55 0,0 0.3,0.55 0.97,0.34 z"
         style="fill:#e4e4e4"
         id="path1292" />
      <path
         id="path1384"
         style="opacity:0.2;fill:#ffffff"
         d="m 14.784527,2.7227046 c -2.139996,0 -4.419377,0.9403174 -4.8593758,2.5703125 -0.989997,0.4299988 -1.4296875,1.1387518 -1.4296875,1.71875 0,0.125965 0.00389,0.2222623 0.015625,0.3125 C 8.5950311,6.7848806 9.0393246,6.17777 9.9251512,5.7930171 10.36515,4.1630219 12.644531,3.2227046 14.784527,3.2227046 c 1.290627,0 2.256998,0.1362388 3.095703,0.65625 0.146258,-0.086593 0.302956,-0.1472156 0.474609,-0.15625 -0.949997,-0.8099976 -2.030318,-1 -3.570312,-1 z m -7.9902352,2 c -0.1599994,0 -0.1699218,0.1308594 -0.1699219,0.1308594 -0.05,0.3999988 -0.1495315,0.6391412 -0.2695312,0.8691406 C 6.0748396,6.2527027 5.6751505,6.4625493 5.4251512,6.8125484 4.8851527,7.572546 4.3548387,8.7727073 4.3548387,9.7227046 4.1548393,9.2927058 4.2150727,8.5225469 4.0950731,8.0625484 c -0.01,-0.05 -0.079922,-0.1992188 -0.1699219,-0.1992188 -0.01,0 -0.031016,0.00953 -0.041016,0.019531 -0.09,0.05 -0.1492189,0.1800785 -0.1992188,0.3300782 -0.2099994,0.7099983 -0.3300781,1.7897682 -0.3300781,2.5097662 0,0.102202 0.00441,0.203651 0.00781,0.304687 0.017877,-0.710655 0.1294818,-1.66266 0.3222656,-2.314453 0.05,-0.1499997 0.109219,-0.2800782 0.1992188,-0.3300782 0.01,-0.01 0.031016,-0.019531 0.041016,-0.019531 0.09,0 0.1599219,0.1492188 0.1699219,0.1992188 0.1199996,0.4599981 0.059766,1.2301572 0.2597656,1.6601564 0,-0.9499977 0.530314,-2.150159 1.0703125,-2.9101566 C 5.6751505,6.9625493 6.0748396,6.7527027 6.3548387,6.2227046 6.4748384,5.9927052 6.5743702,5.7535628 6.6243699,5.353564 c 0,0 0.00992,-0.1308594 0.1699219,-0.1308594 0.5599985,0 0.5605469,4.2900051 0.5605469,6.0000004 v -0.5 c 0,-1.7099948 -5.484e-4,-6.0000004 -0.5605469,-6.0000004 z m 0.5605469,6.0000004 c 0,0.0988 0.00328,0.195105 0.00781,0.291015 0.035798,-0.67623 0.2368957,-1.564538 0.5625,-2.0800779 C 8.1608696,8.5715239 8.462081,8.2571056 8.8157762,8.0000484 L 8.5931199,7.6777827 C 8.335049,7.8979319 8.1094493,8.1505175 7.9251512,8.4336421 7.5651523,9.0036403 7.3548387,10.032707 7.3548387,10.722705 Z M 17.417339,4.7734858 c -0.133628,0.1494279 -0.251364,0.3075564 -0.351562,0.4492188 0.489844,0.056959 0.908659,0.145507 1.271484,0.3144531 0.248456,-0.012831 0.497173,-6.14e-5 0.728516,0.044922 -0.420555,-0.4892156 -0.96055,-0.6958723 -1.648438,-0.8085939 z m 0.785156,1.2714844 c -0.09323,0.00874 -0.185602,0.02021 -0.277344,0.037109 0.87021,1.3147708 1.371892,3.2297475 1.423829,4.8632808 0.0018,-0.07416 0.0059,-0.147837 0.0059,-0.222655 0,-1.5116553 -0.407826,-3.3182966 -1.152344,-4.6777348 z M 6.1360887,9.0117671 c -0.07,0 -0.1201566,0.010547 -0.1601562,0.060547 -0.619997,0.8599952 -0.6210938,1.7203949 -0.6210938,2.6503909 0,0.03392 0.00459,0.06773 0.00586,0.101562 0.01142,-0.778828 0.085323,-1.516915 0.6152344,-2.251953 0.04,-0.05 0.090156,-0.060547 0.1601562,-0.060547 0.09,0 0.1794531,0.090939 0.1894531,0.2109375 0,0.1699994 0.0093,0.3300005 0.029297,0.5000005 0.2566082,2.737155 1.7551737,4.618663 3.9843746,5.474609 0.315226,0.140174 0.675326,0.248007 1.085938,0.324219 0.16442,0.03052 0.358526,0.06148 0.564453,0.08984 0.910309,0.05312 1.314914,-0.346904 1.365234,-0.388668 -0.317725,-0.03692 -1.685905,-0.155924 -1.929688,-0.201172 -0.410613,-0.07621 -0.770713,-0.184045 -1.085937,-0.324219 C 8.1100122,14.341368 6.6114469,12.45986 6.3548387,9.7227046 c -0.02,-0.169999 -0.029297,-0.3300009 -0.029297,-0.5 -0.01,-0.1199991 -0.099454,-0.2109375 -0.189453,-0.2109375 z m 9.2089843,1.9003909 c -0.107727,1.411172 -1.401096,2.532925 -2.990234,2.810547 -0.239999,0.04 -0.460939,0.07031 -0.710938,0.07031 -0.129999,0 -0.289062,0.109302 -0.289062,0.279297 0,0.104181 0.05714,0.182456 0.130859,0.275391 0.04977,-0.03277 0.105428,-0.05469 0.158203,-0.05469 0.249999,0 0.470939,-0.03031 0.710938,-0.07031 1.65999,-0.29 3,-1.500008 3,-3 0,-0.09 -0.0021,-0.184171 -0.0078,-0.28125 -5.24e-4,-0.0095 -8.57e-4,-0.01952 -0.002,-0.0293 z" />
    </g>
    <g
       id="g1679"
       transform="translate(415.82452,52.000503)">
      <path
         d="m 15.175475,9.9994975 c 0.55,-2.04 2.33,-3 5,-3 1.93,0 3.81,0.49 5,1.5 -0.71,0.03 -1.62,0.47 -2,1 1.07,0.12 1.89,0.29 2.5,0.9999995 -0.46,-0.08 -1.07,-0.11 -1.5,0 0.29,0.44 0.78,0.98 1,1.500001 0.66,1.56 1,3.42 1,5 0,5.770001 -4.29,10 -10,10 -5.71,0 -9.9999991,-4.29 -9.9999991,-10 0,-0.899999 0.15,-2.18 0.41,-3.07 0.06,-0.18 0.14,-0.35 0.25,-0.41 0.02,-0.02 0.04,-0.02 0.05,-0.02 0.12,0 0.1999996,0.19 0.2199996,0.25 0.14,0.57 0.33,1.22 0.57,1.75 0,-1.18 0.41,-2.44 1.09,-3.38 0.44,-0.630001 1.2899995,-1.140001 1.4799995,-2.8200005 0,0 0.01,-0.16 0.22,-0.16 1.21,0.36 1.71,2.7200005 1.71,4.8600005 0.8,0.12 1.26,-1.35 1.26,-1.35 -0.13,-0.16 -0.26,-0.49 -0.26,-0.65 0,-0.710001 0.76,-1.460001 2,-2.0000005 z"
         style="opacity:0.2;fill:#000000"
         id="path1242" />
      <path
         d="m 15.175475,8.9994975 c 0.55,-2.04 2.33,-3 5,-3 1.93,0 3.81,0.49 5,1.5 -0.71,0.03 -1.62,0.47 -2,1 1.07,0.12 1.89,0.29 2.5,1 -0.46,-0.08 -1.07,-0.11 -1.5,0 0.29,0.44 0.78,0.9799995 1,1.4999995 0.66,1.560001 1,3.420001 1,5.000001 0,5.77 -4.29,10 -10,10 -5.71,0 -9.9999991,-4.29 -9.9999991,-10 0,-0.9 0.15,-2.18 0.41,-3.07 0.06,-0.18 0.14,-0.35 0.25,-0.41 0.02,-0.02 0.04,-0.02 0.05,-0.02 0.12,0 0.1999996,0.19 0.2199996,0.25 0.14,0.57 0.33,1.22 0.57,1.75 0,-1.18 0.41,-2.44 1.09,-3.380001 0.44,-0.63 1.2899995,-1.1399995 1.4799995,-2.8199995 0,0 0.01,-0.16 0.22,-0.16 1.21,0.36 1.71,2.7199995 1.71,4.8600005 0.8,0.12 1.26,-1.35 1.26,-1.35 -0.13,-0.160001 -0.26,-0.490001 -0.26,-0.650001 0,-0.71 0.76,-1.4599995 2,-1.9999995 z"
         style="fill:#248afd"
         id="path1270" />
      <path
         d="m 25.645475,12.429498 c 0.04,0.12 0.17,0.66 0.17,1.07 0,5.5 -4.32,10.5 -9.64,10.5 -2.08,0 -3.69,-0.64 -5.36,-1.93 -2.5599995,-1.99 -4.2799991,-4.36 -4.2799991,-7.5 0,-0.71 0.16,-1.59 0.25,-1.95 0.02,-0.1 0.06,-0.12 0.1,-0.12 -0.01,0 -0.04,0.01 -0.05,0.02 -0.11,0.07 -0.18,0.22 -0.25,0.41 -0.11,0.29 -0.27,1.17 -0.29,1.28 -0.05,0.37 -0.12,1.18 -0.12,1.79 0,5.71 4.2899991,10 9.9999991,10 5.71,0 10,-4.23 10,-10 0,-1.43 -0.24,-2.67 -0.53,-3.57 z"
         style="fill:#0271ef"
         id="path1214" />
      <path
         d="m 6.785476,12.619498 c -0.1500001,0.63 -0.25,1.24 -0.25,1.95 0,2.23 0.8599995,4.4 3.0299995,6.43 -0.58,-0.71 -1.39,-1.96 -1.39,-3.5 0,-2 0.5,-2.85 1.06,-3.42 0.06,-0.06 0.11,-0.08 0.2,-0.08 0.12,0 0.23,0.11 0.24,0.26 0.18,5.2 4.4999995,7.74 9.4999995,7.74 -3.44,0 -6.35,-1.97 -2.82,-2.65 1.85,-0.36 4.82,-1.21 4.82,-3.35 0,-5.360001 -3,-6.0000005 -5,-6.0000005 -1,0 -2.74,0.6499995 -2.74,1.6500005 0.14,0.48 -0.879999,1.41 -1.26,1.35 0,-2.140001 -0.5,-4.5000005 -1.71,-5.0000005 -0.2,0 -0.22,0.16 -0.22,0.16 -0.19,1.67 -1.0399995,2.3299995 -1.4799995,2.9599995 -0.68,0.940001 -1.09,2.070001 -1.09,3.380001 -0.24,-0.53 -0.43,-1.18 -0.569999,-1.75 -0.02,-0.06 -0.1100005,-0.25 -0.2200006,-0.25 -0.06,0 -0.09,0.06 -0.1,0.12 z"
         style="fill:#0259bb"
         id="path1298" />
      <path
         d="m 16.175475,19.999498 c 2.5,0 5,-1.86 5,-4 0,-1 -0.11,-1.72 -0.5,-2.5 -1,-2.000001 -3,-2.500001 -4.5,-2.500001 -1.5,0 -3.5,0.5 -4.5,2.500001 -0.38,0.75 -0.5,1.5 -0.5,2.5 0,4.14 3.71,6 8,6 -0.5,0 -2.5,0 -3.32,-1.14 -0.1,-0.12 -0.18,-0.23 -0.18,-0.36 0,-0.25 0.24,-0.5 0.5,-0.5 z"
         style="fill:#d6d6d6"
         id="path1326" />
      <path
         id="path1354"
         style="opacity:0.2;fill:#000000"
         d="m 12.907897,11.999498 c -0.480833,0.366654 -0.909574,0.854304 -1.232422,1.5 -0.126277,0.249231 -0.222883,0.499407 -0.296875,0.757812 l 4.085937,3.382813 c 0.22,0.22 0.440938,0.349375 0.710938,0.359375 0.27,0.01 0.480938,-0.129375 0.710938,-0.359375 L 20.97235,14.25731 c -0.07357,-0.253921 -0.169439,-0.502941 -0.296875,-0.757812 -0.322801,-0.645602 -0.751674,-1.133364 -1.232422,-1.5 z" />
      <path
         d="m 16.885475,16.639498 c -0.23,0.23 -0.44,0.37 -0.71,0.36 -0.27,-0.01 -0.49,-0.14 -0.71,-0.36 l -3.789999,-3.14 c 1,-2.000001 2.999999,-2.500001 4.499999,-2.500001 1.5,0 3.5,0.5 4.5,2.500001 z"
         style="fill:#e4e4e4"
         id="path1382" />
      <path
         d="m 18.135475,8.9472079 c 0.59,-0.18 0.54,-0.74 0.54,-0.74 0,0 -0.29,-0.34 -0.87,-0.15 -0.55,0.17 -0.63,0.55 -0.63,0.55 0,0 0.3,0.55 0.96,0.34 z"
         style="fill:#e4e4e4"
         id="path1438" />
      <path
         id="path415"
         style="opacity:0.2;fill:#ffffff"
         d="m 20.175475,5.9994975 c -2.669988,0 -4.450004,0.960008 -5,3 -1.239995,0.539998 -2,1.2900025 -2,1.9999995 0,0.109558 0.06241,0.297217 0.142578,0.457032 0.274169,-0.533204 0.931691,-1.053891 1.857422,-1.4570315 0.549996,-2.039992 2.330012,-3 5,-3 1.412269,0 2.796337,0.2642834 3.904297,0.8007812 0.356794,-0.1726182 0.749354,-0.2861467 1.095703,-0.3007812 -1.189996,-1.009996 -3.070008,-1.5 -5,-1.5 z m -9.710937,2 c -0.199999,0 -0.21875,0.1601563 -0.21875,0.1601562 -0.189999,1.6699903 -1.0404705,2.3309413 -1.4804685,2.9609373 -0.679996,0.939995 -1.089844,2.068914 -1.089844,3.378907 -0.239999,-0.529997 -0.430313,-1.180004 -0.570312,-1.75 -0.02,-0.06 -0.1107037,-0.25 -0.2207032,-0.25 -0.012997,0 -0.024798,0.0054 -0.037109,0.01172 h -0.00195 l -0.00195,0.0019 c -0.00753,0.0044 -0.012746,0.01126 -0.019531,0.01953 l -0.00195,0.002 c -0.00205,0.0025 -0.00594,0.0031 -0.00781,0.0059 -0.096991,0.07546 -0.1635562,0.214281 -0.2285282,0.39063 -0.109998,0.289999 -0.2710156,1.169298 -0.2910156,1.279297 -0.05,0.369998 -0.1191406,1.179069 -0.1191406,1.789063 0,0.173191 0.00391,0.345126 0.011719,0.515625 0.021789,-0.502233 0.069922,-1.027192 0.1074218,-1.304687 0.02,-0.11 0.1810176,-0.989299 0.2910156,-1.279298 0.064972,-0.176349 0.1315371,-0.315166 0.2285157,-0.390625 0.00187,-0.0027 0.00576,-0.0034 0.00781,-0.0059 l 0.00195,-0.002 c 0.00679,-0.0083 0.012001,-0.0151 0.019531,-0.01953 l 0.00195,-0.0019 h 0.00195 c 0.012335,-0.0063 0.024124,-0.01172 0.037121,-0.01172 0.1099995,0 0.2007032,0.19 0.2207032,0.25 0.139999,0.569996 0.330313,1.220003 0.570312,1.75 0,-1.309993 0.409848,-2.438913 1.089844,-3.378906 0.439998,-0.629997 1.2904698,-1.290948 1.4804688,-2.9609383 0,1e-7 0.01875,-0.1601562 0.21875,-0.1601562 0.984109,0.4066566 1.491524,2.0448515 1.648437,3.7929695 0.01761,-0.02319 0.03676,-0.04573 0.05469,-0.06836 -0.0412,-2.06321 -0.544644,-4.2458983 -1.703125,-4.7246095 z M 24.320006,8.69481 c -0.468774,0.1831645 -0.909068,0.4762794 -1.144531,0.8046875 0.417448,0.046817 0.794953,0.1022249 1.138672,0.1933594 -0.04688,-0.064842 -0.09828,-0.1320733 -0.138672,-0.1933594 0.43,-0.1099996 1.04,-0.08 1.5,0 C 25.304858,9.0681249 24.854633,8.8374085 24.320006,8.69481 Z m 0.525391,1.736328 c -0.239542,4.89e-4 -0.473924,0.01822 -0.669922,0.06836 0.29,0.439998 0.78,0.980002 1,1.5 0.596721,1.410433 0.929505,3.064874 0.988281,4.537109 0.0083,-0.177219 0.01172,-0.356797 0.01172,-0.537109 0,-1.579994 -0.340004,-3.440007 -1,-5 -0.08002,-0.189145 -0.201228,-0.379696 -0.330079,-0.568359 z m -15.4101555,3.56836 c -0.09,0 -0.139219,0.02008 -0.199219,0.08008 -0.559998,0.569999 -1.060547,1.419928 -1.060547,3.419922 0,0.131266 0.0084,0.259821 0.01953,0.386719 0.09282,-1.566437 0.54227,-2.298988 1.041016,-2.806641 0.06,-0.06 0.109219,-0.08008 0.199219,-0.08008 0.12,0 0.230234,0.109766 0.240234,0.259766 0.146856,4.242487 2.7206005,6.474057 6.4999995,7.240234 0.617299,0.14267 2.248234,0.220572 3,-0.5 0,0 -0.585983,-0.0152 -0.320312,-0.0059 -0.245998,-0.0054 -0.490543,-0.01533 -0.732422,-0.0332 -0.02748,-0.002 -0.05463,-0.0056 -0.08203,-0.0078 -4.502144,-0.359941 -8.1990215,-2.891604 -8.3652355,-7.693335 -0.01,-0.149999 -0.120234,-0.259765 -0.240234,-0.259765 z m 11.7187495,2.332031 c -0.240379,1.996852 -2.608707,3.667969 -4.978516,3.667969 -0.259999,0 -0.5,0.25 -0.5,0.5 0,0.13 0.08164,0.239375 0.181641,0.359375 0.04514,0.06276 0.0947,0.121694 0.146484,0.177734 0.0547,-0.02312 0.112466,-0.03711 0.171875,-0.03711 2.49999,0 5,-1.86001 5,-4 0,-0.23749 -0.0068,-0.457509 -0.02148,-0.667969 z"
         sodipodi:nodetypes="scsccsccscccccsccccccccscccccccccsccccccccccccccccscsscscsccscccccccscssccssc" />
    </g>
    <g
       id="g7558">
      <path
         style="opacity:0.2;fill:#000000;stroke-width:0.749998"
         d="M 309.32243,234.82248 C 310.14743,231.7625 313.9874,230 317.99988,230 c 2.90249,0 5.71497,0.7275 7.49996,2.24999 -1.06499,0.0525 -2.43748,0.705 -2.99998,1.49999 1.60499,0.18 2.83498,0.435 3.74998,1.5 -0.69,-0.1275 -1.61249,-0.165 -2.24999,0 0.45,0.67499 1.16249,1.43999 1.49999,2.24998 0.975,2.31749 1.50749,5.15248 1.49999,7.49996 0,8.65496 -6.42746,14.99992 -14.99991,14.99992 -8.57246,0 -14.99992,-6.42746 -14.99992,-14.99992 0,-1.34999 0.21749,-3.26998 0.61499,-4.60497 0.09,-0.2775 0.21,-0.525 0.3675,-0.6225 0.03,-0.015 0.06,-0.0225 0.09,-0.0225 0.165,0 0.2925,0.2775 0.3225,0.3825 0.2175,0.855 0.4875,1.81499 0.85499,2.61749 0,-1.77749 0.6225,-3.66748 1.62749,-5.07748 0.675,-0.93749 1.93499,-1.70999 2.22749,-4.22247 0,0 0.0225,-0.2325 0.3225,-0.2325 1.82249,0.53249 1.82249,4.81497 1.82249,8.03245 1.20749,0.18 1.67249,-2.11498 1.67249,-2.11498 -0.1575,-0.4425 -0.1725,-0.645 -0.1725,-0.885 0,-1.07249 0.7125,-2.61749 2.57249,-3.42748 z"
         id="path4690-4-8" />
      <path
         style="fill:#248afd;stroke-width:0.749998"
         d="m 309.32243,233.82247 c 0.825,-3.05998 4.66497,-4.82247 8.67745,-4.82247 2.90249,0 5.71497,0.72749 7.49996,2.24999 -1.06499,0.0525 -2.43748,0.70499 -2.99998,1.49999 1.60499,0.18 2.83498,0.43499 3.74998,1.49999 -0.69,-0.1275 -1.61249,-0.165 -2.24999,0 0.45,0.675 1.16249,1.43999 1.49999,2.24999 0.975,2.31748 1.50749,5.15247 1.49999,7.49996 0,8.65495 -6.42746,14.99992 -14.99991,14.99992 -8.57246,0 -14.99992,-6.42747 -14.99992,-14.99992 0,-1.35 0.21749,-3.26999 0.61499,-4.60498 0.09,-0.2775 0.21,-0.525 0.3675,-0.6225 0.03,-0.015 0.06,-0.0225 0.09,-0.0225 0.165,0 0.2925,0.27749 0.3225,0.38249 0.2175,0.855 0.4875,1.81499 0.85499,2.61749 0,-1.77749 0.6225,-3.66748 1.62749,-5.07747 0.675,-0.9375 1.93499,-1.71 2.22749,-4.22248 0,0 0.0225,-0.2325 0.3225,-0.2325 1.82249,0.5325 1.82249,4.81497 1.82249,8.03246 1.20749,0.18 1.67249,-2.11499 1.67249,-2.11499 -0.1575,-0.4425 -0.1725,-0.645 -0.1725,-0.885 0,-1.07249 0.7125,-2.61748 2.57249,-3.42748 z"
         id="path4692-7-4" />
      <path
         style="fill:#0271ef;stroke-width:0.749998"
         d="m 326.24984,238.74995 c 0.06,0.17999 0.2175,0.88499 0.2175,1.49999 0,8.24995 -6.48747,15.74991 -14.46742,15.74991 -3.11999,0 -5.54248,-0.95249 -8.03246,-2.89498 -3.85498,-2.99249 -6.43497,-6.53247 -6.43497,-11.24994 0,-1.0725 0.2475,-2.39249 0.3825,-2.92499 0.0375,-0.15 0.09,-0.17999 0.1575,-0.17999 -0.0225,0 -0.0675,0.007 -0.09,0.0225 -0.165,0.1125 -0.2625,0.3375 -0.3675,0.6225 -0.1725,0.435 -0.405,1.76249 -0.4275,1.92749 -0.075,0.5475 -0.18749,1.76999 -0.18749,2.67749 0,8.57245 6.42746,14.99992 14.99992,14.99992 8.57245,0 14.99991,-6.34497 14.99991,-14.99992 0,-2.14499 -0.32249,-3.89998 -0.74999,-5.24997 z"
         id="path4694-44-3" />
      <path
         style="fill:#0259bb;stroke-width:0.749998"
         d="m 297.91499,238.92994 c -0.225,0.945 -0.3825,1.86749 -0.3825,2.92499 0,3.35248 1.29,6.60746 4.55998,9.64495 -0.87,-1.0725 -2.09249,-2.93999 -2.09249,-5.24998 0,-2.99998 0.75,-4.26747 1.59749,-5.13747 0.075,-0.0825 0.165,-0.1125 0.3,-0.1125 0.165,0 0.345,0.1725 0.3525,0.3975 0.2775,7.79246 6.74996,11.60244 14.24992,11.60244 -5.15997,0 -9.51745,-2.95499 -4.22998,-3.98248 2.76749,-0.54 7.22996,-1.79999 7.22996,-5.01747 0,-8.03996 -4.49997,-8.99996 -7.49995,-8.99996 -2.24999,0 -4.62748,1.47 -5.07748,3.13499 0.2175,0.71999 -1.10249,2.19749 -1.67249,2.11499 0,-3.21749 0,-7.49996 -1.82249,-8.24996 -0.2925,0 -0.3225,0.24 -0.3225,0.24 -0.2925,2.51249 -1.55249,3.49498 -2.22749,4.43248 -1.00499,1.40999 -1.62749,3.11248 -1.62749,5.07747 -0.36749,-0.8025 -0.63749,-1.76249 -0.85499,-2.61749 -0.03,-0.0975 -0.1575,-0.38249 -0.3225,-0.38249 -0.09,0 -0.135,0.0825 -0.1575,0.17999 z"
         id="path4696-3-1" />
      <path
         style="fill:#d6d6d6;stroke-width:0.749998"
         d="m 311.99992,249.99988 c 3.74997,0 7.49995,-2.78548 7.49995,-5.99996 0,-1.5 -0.16499,-2.58074 -0.74999,-3.74998 -1.49999,-2.99999 -4.49998,-3.74998 -6.74996,-3.74998 -2.24999,0 -5.24998,0.74999 -6.74997,3.74998 -0.56475,1.12949 -0.74999,2.24998 -0.74999,3.74998 0.002,6.20771 5.57172,8.99995 11.99993,8.99995 -0.75,0 -3.74998,0 -4.97922,-1.71374 -0.153,-0.18075 -0.27075,-0.33975 -0.27075,-0.53625 0,-0.37275 0.35775,-0.75 0.75,-0.75 z"
         id="path4698-0-4" />
      <path
         id="path4700-7-9"
         style="opacity:0.2;stroke-width:0.749998"
         d="M 306.51562 238.5 C 306.03126 238.97388 305.59977 239.55045 305.25 240.25 C 305.14078 240.46845 305.05099 240.68762 304.96875 240.9082 L 310.92773 245.9668 C 311.25773 246.28929 311.6025 246.5 312 246.5 C 312.41249 246.5 312.72727 246.30429 313.07227 245.9668 L 319.0332 240.9043 C 318.95119 240.68726 318.86003 240.46992 318.75 240.25 C 318.40023 239.55045 317.96874 238.97388 317.48438 238.5 L 306.51562 238.5 z " />
      <path
         style="fill:#e4e4e4;stroke-width:0.749998"
         d="m 313.07241,244.96741 c -0.345,0.3375 -0.66,0.5325 -1.07249,0.5325 -0.3975,0 -0.75,-0.21 -1.0725,-0.5325 l -5.67747,-4.71747 c 1.49999,-2.99999 4.49998,-3.74998 6.74997,-3.74998 2.24998,0 5.24997,0.74999 6.74996,3.74998 z"
         id="path4702-8-2" />
      <path
         id="path4698-0-4-1"
         style="fill:#000000;stroke-width:0.749998;opacity:0.2"
         d="m 312,236.5 c -2.09827,0 -4.84782,0.65275 -6.42578,3.17383 0.34409,-0.54502 0.74502,-0.99929 1.17969,-1.38281 0.002,0.22341 0.0193,0.426 0.16797,0.84375 v 0.002 C 308.46377,237.87193 310.41705,237.5 312,237.5 c 2.24998,0 5.25001,0.75001 6.75,3.75 0.49345,0.98625 0.68555,1.91309 0.73438,3.07812 0.009,-0.10863 0.0156,-0.21838 0.0156,-0.32812 0,-1.5 -0.165,-2.58076 -0.75,-3.75 -1.49999,-2.99999 -4.50002,-3.75 -6.75,-3.75 z m -0.52148,14.73438 c -0.13847,0.14089 -0.22852,0.32925 -0.22852,0.51562 0,0.1965 0.11848,0.35636 0.27148,0.53711 0.0228,0.0318 0.0463,0.0613 0.0703,0.0918 0.003,7.1e-4 0.005,0.001 0.008,0.002 0.24875,0.066 0.47171,0.12043 0.6875,0.17187 1.01573,0.22944 2.08979,0.36973 3.19922,0.42188 0.003,10e-5 0.007,-1e-4 0.01,0 0.0363,0.002 0.0731,0.002 0.10938,0.004 0.15958,0.007 0.31958,0.0126 0.48047,0.0156 -1.10765,-0.0263 -3.49883,-0.22335 -4.56446,-1.70898 -0.015,-0.0178 -0.0287,-0.0334 -0.043,-0.0508 z"
         sodipodi:nodetypes="sccccsccscscsccccscsccc" />
      <path
         style="fill:#e4e4e4;stroke-width:0.749998"
         d="m 313.44741,234.18247 c 0.87749,-0.27 0.80249,-1.12499 0.80249,-1.12499 0,0 -0.44249,-0.5025 -1.31249,-0.225 -0.81,0.2625 -0.93749,0.83249 -0.93749,0.83249 0,0 0.44249,0.825 1.44749,0.5175 z"
         id="path4706-6-6" />
      <path
         id="path4690-4-8-2"
         style="opacity:0.2;fill:#ffffff;stroke-width:0.749998"
         d="M 318 229 C 313.98752 229 310.14724 230.76229 309.32227 233.82227 C 307.46228 234.63223 306.75 236.17751 306.75 237.25 C 306.75 237.40307 306.75899 237.54764 306.80469 237.74219 C 306.99324 236.73226 307.73882 235.51181 309.32227 234.82227 C 310.14723 231.76229 313.98752 230 318 230 C 320.36106 230 322.66308 230.48134 324.40039 231.48047 C 324.77372 231.35199 325.1533 231.26709 325.5 231.25 C 323.71501 229.72751 320.90249 229 318 229 z M 303.42773 232 C 303.13523 232 303.10547 232.24023 303.10547 232.24023 C 302.81297 234.75272 301.55195 235.73438 300.87695 236.67188 C 299.87196 238.08183 299.25 239.78501 299.25 241.75 C 298.88251 240.9475 298.61203 239.9878 298.39453 239.13281 C 298.38653 239.10811 298.37457 239.07031 298.35547 239.0293 C 298.33697 238.989 298.31286 238.9451 298.28516 238.9043 L 298.28516 238.90234 C 298.25726 238.86154 298.2227 238.82442 298.1875 238.79688 C 298.1694 238.78268 298.15251 238.76972 298.13281 238.76172 C 298.11351 238.75372 298.09287 238.75 298.07227 238.75 C 298.04977 238.75 298.03087 238.75397 298.01367 238.76367 C 298.00317 238.76667 297.99282 238.76648 297.98242 238.77148 C 297.82492 238.86898 297.70523 239.11703 297.61523 239.39453 C 297.21772 240.72936 297 242.65 297 244 C 297 244.20289 297.00804 244.40308 297.01562 244.60352 C 297.05102 243.29009 297.25351 241.60938 297.61523 240.39453 C 297.70523 240.11703 297.82492 239.86898 297.98242 239.77148 C 297.99282 239.76648 298.00327 239.76667 298.01367 239.76367 C 298.03087 239.75367 298.04977 239.75 298.07227 239.75 C 298.09287 239.75 298.11351 239.75402 298.13281 239.76172 C 298.15251 239.76972 298.1694 239.78268 298.1875 239.79688 C 298.2227 239.82446 298.25726 239.86158 298.28516 239.90234 L 298.28516 239.9043 C 298.31286 239.9451 298.33697 239.989 298.35547 240.0293 C 298.37457 240.0703 298.38653 240.1081 298.39453 240.13281 C 298.61203 240.9878 298.88251 241.9475 299.25 242.75 C 299.25 240.78501 299.87196 239.08183 300.87695 237.67188 C 301.55195 236.73438 302.81297 235.75272 303.10547 233.24023 C 303.10547 233.24023 303.13527 233 303.42773 233 C 304.56886 233.4696 304.9948 235.32472 305.1543 237.43555 C 305.1858 237.85311 305.2066 238.28009 305.2207 238.70898 C 305.22075 238.70998 305.22066 238.71189 305.2207 238.71289 C 305.249 239.57726 305.25 240.44684 305.25 241.25 C 305.69469 240.36062 306.27214 239.66968 306.92188 239.13672 L 306.92188 239.13477 C 306.7732 238.71702 306.75581 238.51443 306.75391 238.29102 C 306.17436 238.80238 305.65499 239.44001 305.25 240.25 C 305.25 239.44684 305.24905 238.57726 305.2207 237.71289 C 305.22066 237.71189 305.22075 237.70998 305.2207 237.70898 C 305.2066 237.28009 305.1858 236.85311 305.1543 236.43555 C 304.9948 234.32472 304.56886 232.4696 303.42773 232 z M 323.50586 232.88867 C 323.08843 233.13303 322.72702 233.42915 322.5 233.75 C 323.2902 233.8386 323.98795 233.94551 324.60352 234.1582 C 325.14575 234.1161 325.75624 234.15876 326.25 234.25 C 325.53695 233.42006 324.62989 233.08265 323.50586 232.88867 z M 324.66602 235.15625 C 324.42798 235.17175 324.19842 235.1987 324 235.25 C 324.45 235.92499 325.1625 236.69001 325.5 237.5 C 326.4097 239.66228 326.9282 242.27059 326.98828 244.51758 C 326.99344 244.34557 327 244.17396 327 244 C 327.007 241.65252 326.475 238.81749 325.5 236.5 C 325.30557 236.03338 324.98747 235.5844 324.66602 235.15625 z M 319.47852 244.38477 C 319.19561 247.43367 315.59959 250 312 250 C 311.60775 250 311.25 250.37725 311.25 250.75 C 311.25 250.92668 311.35188 251.07348 311.48242 251.23242 C 311.62059 251.0932 311.80529 251 312 251 C 315.74997 251 319.5 248.21448 319.5 245 C 319.5 244.78124 319.48632 244.58727 319.47852 244.38477 z M 304.51172 244.41992 C 304.50472 244.6076 304.5 244.79971 304.5 245 C 304.502 250.40307 308.72557 253.21186 314.05859 253.84961 C 315.36772 253.93711 315.97873 253.08264 316.05469 252.99414 C 314.70253 252.93614 313.93417 253.00012 311.59961 252.38086 C 307.61197 251.28694 304.69214 248.7077 304.51172 244.41992 z " />
    </g>
    <g
       id="g4924"
       transform="translate(6.9727049,-7.27667)">
      <path
         style="opacity:0.2;fill:#000000"
         d="m 309.45724,166.70667 c 1.1,-4.08 6.22,-6.43 11.57,-6.43 3.87,0 7.62,0.97 10,3 -1.42,0.07 -3.25,0.94 -4,2 2.14,0.24 3.78,0.58 5,2 -0.92,-0.17 -2.15,-0.22 -3,0 0.6,0.9 1.55,1.92 2,3 1.3,3.09 2.01,6.87 2,10 0,11.54 -8.57,20 -20,20 -11.43,0 -20,-8.57 -20,-20 0,-1.8 0.29,-4.36 0.82,-6.14 0.12,-0.37 0.28,-0.7 0.49,-0.83 0.04,-0.02 0.08,-0.03 0.12,-0.03 0.22,0 0.39,0.37 0.43,0.51 0.29,1.14 0.65,2.42 1.14,3.49 0,-2.37 0.83,-4.89 2.17,-6.77 0.9,-1.25 2.58,-2.28 2.97,-5.63 0,0 0.03,-0.31 0.43,-0.31 2.43,0.71 2.43,6.42 2.43,10.71 1.61,0.24 2.23,-2.82 2.23,-2.82 -0.21,-0.59 -0.23,-0.86 -0.23,-1.18 0,-1.43 0.95,-3.49 3.43,-4.57 z"
         id="path4690" />
      <path
         style="fill:#248afd"
         d="m 309.45724,165.70667 c 1.1,-4.08 6.22,-6.43 11.57,-6.43 3.87,0 7.62,0.97 10,3 -1.42,0.07 -3.25,0.94 -4,2 2.14,0.24 3.78,0.58 5,2 -0.92,-0.17 -2.15,-0.22 -3,0 0.6,0.9 1.55,1.92 2,3 1.3,3.09 2.01,6.87 2,10 0,11.54 -8.57,20 -20,20 -11.43,0 -20,-8.57 -20,-20 0,-1.8 0.29,-4.36 0.82,-6.14 0.12,-0.37 0.28,-0.7 0.49,-0.83 0.04,-0.02 0.08,-0.03 0.12,-0.03 0.22,0 0.39,0.37 0.43,0.51 0.29,1.14 0.65,2.42 1.14,3.49 0,-2.37 0.83,-4.89 2.17,-6.77 0.9,-1.25 2.58,-2.28 2.97,-5.63 0,0 0.03,-0.31 0.43,-0.31 2.43,0.71 2.43,6.42 2.43,10.71 1.61,0.24 2.23,-2.82 2.23,-2.82 -0.21,-0.59 -0.23,-0.86 -0.23,-1.18 0,-1.43 0.95,-3.49 3.43,-4.57 z"
         id="path4692" />
      <path
         style="fill:#0271ef"
         d="m 332.02724,172.27667 c 0.08,0.24 0.29,1.18 0.29,2 0,11 -8.65,21 -19.29,21 -4.16,0 -7.39,-1.27 -10.71,-3.86 -5.14,-3.99 -8.58,-8.71 -8.58,-15 0,-1.43 0.33,-3.19 0.51,-3.9 0.05,-0.2 0.12,-0.24 0.21,-0.24 -0.03,0 -0.09,0.01 -0.12,0.03 -0.22,0.15 -0.35,0.45 -0.49,0.83 -0.23,0.58 -0.54,2.35 -0.57,2.57 -0.1,0.73 -0.25,2.36 -0.25,3.57 0,11.43 8.57,20 20,20 11.43,0 20,-8.46 20,-20 0,-2.86 -0.43,-5.2 -1,-7 z"
         id="path4694" />
      <path
         style="fill:#0259bb"
         d="m 294.24724,172.51667 c -0.3,1.26 -0.51,2.49 -0.51,3.9 0,4.47 1.72,8.81 6.08,12.86 -1.16,-1.43 -2.79,-3.92 -2.79,-7 0,-4 1,-5.69 2.13,-6.85 0.1,-0.11 0.22,-0.15 0.4,-0.15 0.22,0 0.46,0.23 0.47,0.53 0.37,10.39 9,15.47 19,15.47 -6.88,0 -12.69,-3.94 -5.64,-5.31 3.69,-0.72 9.64,-2.4 9.64,-6.69 0,-10.72 -6,-12 -10,-12 -3,0 -6.17,1.96 -6.77,4.18 0.29,0.96 -1.47,2.93 -2.23,2.82 0,-4.29 0,-10 -2.43,-11 -0.39,0 -0.43,0.32 -0.43,0.32 -0.39,3.35 -2.07,4.66 -2.97,5.91 -1.34,1.88 -2.17,4.15 -2.17,6.77 -0.49,-1.07 -0.85,-2.35 -1.14,-3.49 -0.04,-0.13 -0.21,-0.51 -0.43,-0.51 -0.12,0 -0.18,0.11 -0.21,0.24 z"
         id="path4696" />
      <path
         style="fill:#d6d6d6"
         d="m 313.02724,187.27667 c 5,0 10,-3.714 10,-8 0,-2 -0.22,-3.441 -1,-5 -2,-4 -6,-5 -9,-5 -3,0 -7,1 -9,5 -0.753,1.506 -1,3 -1,5 0.002,8.277 7.429,12 16,12 -1,0 -5,0 -6.639,-2.285 -0.204,-0.241 -0.361,-0.453 -0.361,-0.715 0,-0.497 0.477,-1 1,-1 z"
         id="path4698" />
      <path
         style="opacity:0.2"
         d="m 314.45724,181.56667 c -0.46,0.45 -0.88,0.71 -1.43,0.71 -0.53,0 -0.99,-0.28 -1.43,-0.71 l -7.57,-6.29 -0.32,-0.28 c 0.03,-0.12 0.23,-0.56 0.32,-0.72 h 18 c 0.07,0.11 0.27,0.57 0.33,0.73 l -0.33,0.27 z"
         id="path4700" />
      <path
         style="fill:#e4e4e4"
         d="m 314.45724,180.56667 c -0.46,0.45 -0.88,0.71 -1.43,0.71 -0.53,0 -1,-0.28 -1.43,-0.71 l -7.57,-6.29 c 2,-4 6,-5 9,-5 3,0 7,1 9,5 z"
         id="path4702" />
      <path
         style="opacity:0.2;fill:#000000"
         d="m 313.02724,169.27667 c -3,0 -5.49,1 -7,2.38 0.04,0.14 0.18,0.67 0.23,0.8 1.55,-1.43 3.91,-2.18 6.77,-2.18 2.86,0 7,1 9,5 0.69,1.38 0.94,2.24 0.99,3.45 -0.04,-1.72 -0.29,-3.06 -0.99,-4.45 -2,-4 -6,-5 -9,-5 z m -16,13 c 0,0.31 0.02,0.61 0.05,0.91 z m 0.05,0.91 0.01,0.09 c 0.09,1.43 0.16,2.6 0.8,4 0.38,0.45 1.17,1.3 1.93,2 -1.24,-1.56 -2.47,-3.51 -2.74,-6.09 z m 15.14,5.59 c -0.1,0.08 -0.19,0.29 -0.19,0.5 0,0.3 0.19,0.52 0.36,0.72 l 0.64,0.6 c 1,0.24 2.79,0.63 5.5,0.68 -1.38,-0.03 -4.34,-0.25 -5.9,-2 -0.11,-0.11 -0.26,-0.3 -0.41,-0.5 z"
         id="path4704" />
      <path
         style="fill:#e4e4e4"
         d="m 314.95724,166.18667 c 1.17,-0.36 1.07,-1.5 1.07,-1.5 0,0 -0.59,-0.67 -1.75,-0.3 -1.08,0.35 -1.25,1.11 -1.25,1.11 0,0 0.59,1.1 1.93,0.69 z"
         id="path4706" />
      <path
         style="opacity:0.2;fill:#ffffff"
         d="m 321.02724,159.27667 c -5.35,0 -10.47,2.35 -11.57,6.43 -2.04,0.88 -3.43,2.72 -3.43,4.57 0,-1.03 0.95,-2.52 3.43,-3.57 1.1,-4.07 6.21,-6.43 11.57,-6.43 2.95,0 6.39,0.12 8.89,2.19 0.25,-0.09 0.75,-0.18 1.11,-0.19 -2.38,-2.03 -6.13,-3 -10,-3 z m -19.43,4 c -0.4,0 -0.43,0.32 -0.43,0.32 -0.39,3.35 -2.07,4.66 -2.97,5.91 -1.34,1.88 -2.17,4.18 -2.17,6.77 -0.49,-1.14 -0.85,-2.35 -1.14,-3.49 -0.04,-0.14 -0.21,-0.51 -0.43,-0.51 -0.3,0 -0.53,0.61 -0.61,0.86 -0.55,1.78 -0.82,4.14 -0.82,6.14 0,-1 0.28,-3.37 0.82,-5.14 0.08,-0.25 0.3,-0.86 0.61,-0.86 0.2,0 0.4,0.38 0.43,0.51 0.3,1.26 0.64,2.35 1.14,3.49 0,-2.55 0.83,-4.86 2.17,-6.77 0.88,-1.2 2.59,-2.57 2.97,-5.91 0,0 0.01,-0.32 0.43,-0.32 2.43,1 2.43,7.43 2.43,11 0.65,-0.98 1.55,-2.17 2,-2.62 v -1 c -0.73,0.62 -1.52,1.62 -2,2.62 0,-4 0,-10 -2.43,-11 z m 25.43,1 v 1 c 2.16,0.28 3.09,0.53 3.55,0.86 0.43,-0.07 0.85,0.02 1.45,0.14 -1.23,-1.43 -2.86,-1.76 -5,-2 z m 2,2 v 1 c 2.31,3.49 4,8.43 4,12 0.01,-3.17 -0.66,-6.88 -2,-10 -0.45,-1.04 -1.41,-2.11 -2,-3 z m -29.47,9 c -0.18,0 -0.3,0.04 -0.4,0.15 -1.13,1.17 -2.13,2.85 -2.13,6.85 0,-2 0.6,-4.08 2.13,-5.85 0.1,-0.12 0.23,-0.15 0.4,-0.15 0.22,0 0.46,0.22 0.47,0.53 0.33,9.11 8.57,15.2 15,15.2 3.57,0 4,-0.73 4,-0.73 -10,0 -18.63,-5.08 -19,-15.47 -0.01,-0.3 -0.25,-0.53 -0.47,-0.53 z m 23.47,4 v 0.29 z m 0,0.29 c -0.22,4.16 -5.11,7.71 -10,7.71 -0.53,0 -1,0.5 -1,1 h 0.71 c 5.61,0 10.12,-3.64 10.29,-8.71 z"
         id="path4708" />
    </g>
    <g
       id="g6517"
       transform="translate(288,28)">
      <path
         style="opacity:0.2;fill:#000000;stroke-width:1.5"
         d="M 42.644931,28.644974 C 44.294927,22.52499 51.974906,19 59.999884,19 c 5.804984,0 11.429969,1.454996 14.999959,4.499988 -2.129994,0.104999 -4.874987,1.409996 -5.999984,2.999991 3.209991,0.359999 5.669985,0.869998 7.49998,2.999992 -1.379997,-0.254999 -3.224991,-0.329999 -4.499988,0 0.899998,1.349996 2.324994,2.879992 2.999992,4.499988 1.949994,4.634987 3.014992,10.304972 2.999992,14.999959 0,17.309953 -12.854965,29.999918 -29.999918,29.999918 -17.144954,0 -29.999918,-12.854965 -29.999918,-29.999918 0,-2.699993 0.434998,-6.539982 1.229996,-9.209975 0.18,-0.554998 0.419999,-1.049997 0.734998,-1.244997 0.06,-0.03 0.12,-0.045 0.18,-0.045 0.329999,0 0.584998,0.554998 0.644998,0.764997 0.434999,1.709996 0.974997,3.629991 1.709995,5.234986 0,-3.55499 1.244997,-7.33498 3.254991,-10.154972 1.349997,-1.874995 3.86999,-3.419991 4.454988,-8.444977 0,0 0.045,-0.464999 0.644998,-0.464999 3.64499,1.064997 3.64499,9.629974 3.64499,16.064956 2.414994,0.359999 3.344991,-4.229988 3.344991,-4.229988 -0.314999,-0.884998 -0.344999,-1.289997 -0.344999,-1.769995 0,-2.144994 1.424996,-5.234986 5.144986,-6.85498 z"
         id="path4690-4" />
      <path
         style="fill:#248afd;stroke-width:1.5"
         d="m 42.644931,27.644976 c 1.649996,-6.119984 9.329975,-9.644974 17.354953,-9.644974 5.804984,0 11.429969,1.454996 14.999959,4.499988 -2.129994,0.104999 -4.874987,1.409996 -5.999984,2.999991 3.209991,0.359999 5.669985,0.869998 7.49998,2.999992 -1.379997,-0.254999 -3.224991,-0.329999 -4.499988,0 0.899998,1.349997 2.324994,2.879992 2.999992,4.499988 1.949994,4.634987 3.014992,10.304972 2.999992,14.999959 0,17.309953 -12.854965,29.999918 -29.999918,29.999918 -17.144954,0 -29.999918,-12.854965 -29.999918,-29.999918 0,-2.699993 0.434998,-6.539982 1.229996,-9.209975 0.18,-0.554998 0.419999,-1.049997 0.734998,-1.244996 0.06,-0.03 0.12,-0.045 0.18,-0.045 0.329999,0 0.584998,0.554998 0.644998,0.764998 0.434999,1.709995 0.974997,3.62999 1.709995,5.234985 0,-3.55499 1.244997,-7.33498 3.254991,-10.154972 1.349997,-1.874995 3.86999,-3.419991 4.454988,-8.444977 0,0 0.045,-0.464999 0.644998,-0.464999 3.64499,1.064997 3.64499,9.629974 3.64499,16.064956 2.414994,0.359999 3.344991,-4.229988 3.344991,-4.229988 -0.314999,-0.884998 -0.344999,-1.289996 -0.344999,-1.769995 0,-2.144994 1.424996,-5.234986 5.144986,-6.854981 z"
         id="path4692-7" />
      <path
         style="fill:#0271ef;stroke-width:1.5"
         d="m 76.499839,37.499949 c 0.119999,0.359999 0.434998,1.769995 0.434998,2.999991 0,16.499955 -12.974964,31.499914 -28.93492,31.499914 -6.239983,0 -11.08497,-1.904994 -16.064957,-5.789984 -7.709978,-5.984983 -12.869964,-13.064964 -12.869964,-22.499938 0,-2.144994 0.494998,-4.784987 0.764998,-5.849984 0.075,-0.299999 0.179999,-0.359999 0.314999,-0.359999 -0.045,0 -0.135,0.015 -0.18,0.045 -0.329999,0.224999 -0.524998,0.674998 -0.734998,1.244996 -0.344999,0.869998 -0.809998,3.524991 -0.854997,3.85499 -0.15,1.094997 -0.374999,3.53999 -0.374999,5.354985 0,17.144953 12.854964,29.999918 29.999918,29.999918 17.144953,0 29.999918,-12.689965 29.999918,-29.999918 0,-4.289988 -0.644999,-7.799979 -1.499996,-10.499971 z"
         id="path4694-44" />
      <path
         style="fill:#0259bb;stroke-width:1.5"
         d="m 19.829994,37.859948 c -0.449999,1.889995 -0.764998,3.734989 -0.764998,5.849984 0,6.704981 2.579993,13.214964 9.119975,19.289947 -1.739995,-2.144994 -4.184989,-5.879984 -4.184989,-10.499971 0,-5.999984 1.499996,-8.534977 3.194991,-10.274972 0.15,-0.165 0.33,-0.225 0.599999,-0.225 0.329999,0 0.689998,0.344999 0.704998,0.794998 0.554998,15.584958 13.499963,23.204937 28.499922,23.204937 -10.319972,0 -19.034948,-5.909984 -8.459977,-7.964978 5.534985,-1.079998 14.459961,-3.599991 14.459961,-10.034973 0,-16.079956 -8.999976,-17.999951 -14.999959,-17.999951 -4.499988,0 -9.254975,2.939992 -10.154973,6.269983 0.434999,1.439996 -2.204994,4.394988 -3.344991,4.229988 0,-6.434982 0,-14.999959 -3.64499,-16.499954 -0.584998,0 -0.644998,0.479998 -0.644998,0.479998 -0.584998,5.024987 -3.104991,6.989981 -4.454988,8.864976 -2.009994,2.819992 -3.254991,6.224983 -3.254991,10.154972 -0.734998,-1.604995 -1.274996,-3.52499 -1.709995,-5.234985 -0.06,-0.195 -0.314999,-0.764998 -0.644998,-0.764998 -0.18,0 -0.27,0.164999 -0.314999,0.359999 z"
         id="path4696-3" />
      <path
         style="fill:#d6d6d6;stroke-width:1.5"
         d="m 47.999917,59.999887 c 7.499979,0 14.999959,-5.570985 14.999959,-11.999967 0,-2.999992 -0.33,-5.161486 -1.499996,-7.49998 -2.999992,-5.999983 -8.999976,-7.499979 -13.499963,-7.499979 -4.499988,0 -10.499972,1.499996 -13.499964,7.499979 -1.129496,2.258994 -1.499995,4.499988 -1.499995,7.49998 0.003,12.415466 11.143469,17.999951 23.999934,17.999951 -1.499996,0 -7.49998,0 -9.958473,-3.427491 -0.305999,-0.361499 -0.541498,-0.679498 -0.541498,-1.072497 0,-0.745498 0.715498,-1.499996 1.499996,-1.499996 z"
         id="path4698-0" />
      <path
         id="path4700-7"
         style="opacity:0.2;stroke-width:1.5"
         d="m 34.763672,40 c -0.09019,0.163635 -0.17824,0.329136 -0.263672,0.5 -0.119088,0.238175 -0.225457,0.476158 -0.328125,0.714844 L 34.5,41.5 45.855469,50.935547 C 46.515467,51.580544 47.205003,52 48,52 c 0.824996,0 1.454534,-0.389456 2.144531,-1.064453 L 61.5,41.5 61.833984,41.226562 C 61.729683,40.985445 61.621985,40.743815 61.5,40.5 61.414568,40.329136 61.326522,40.163635 61.236328,40 Z" />
      <path
         style="fill:#e4e4e4;stroke-width:1.5"
         d="m 50.144911,49.934915 c -0.689998,0.674998 -1.319997,1.064997 -2.144994,1.064997 -0.794998,0 -1.499996,-0.419999 -2.144995,-1.064997 L 34.499953,40.49994 c 2.999992,-5.999983 8.999976,-7.499979 13.499964,-7.499979 4.499987,0 10.499971,1.499996 13.499963,7.499979 z"
         id="path4702-8" />
      <path
         id="path6893"
         style="opacity:0.2;fill:#000000;stroke-width:1.5"
         d="m 47.322266,32.990234 c -6.909507,0.03719 -10.673015,4.402569 -9.712891,3.496094 0,0 0.12045,0.465177 0.234375,0.785156 C 40.927356,34.742708 44.834509,34 48,34 c 4.499975,0 10.500017,1.500035 13.5,7.5 1.074157,2.146939 1.43746,4.152717 1.490234,6.787109 C 62.993534,48.191319 63,48.096193 63,48 63,45.000017 62.669993,42.838488 61.5,40.5 58.500017,34.500035 52.499975,33 48,33 47.770617,32.9919 47.545153,32.98904 47.322266,32.9902 Z M 24.011719,52.835938 C 24.007409,53.055283 24,53.270679 24,53.5 c 0,2.826285 0.916525,5.315883 2.025391,7.318359 C 26.692326,61.551214 27.409359,62.279 28.185547,63 26.488265,60.90766 24.126949,57.299721 24.011719,52.835938 Z m 22.607422,9.126953 C 46.543001,62.135127 46.5,62.317668 46.5,62.5 c 0,0.392999 0.235017,0.710767 0.541016,1.072266 0.453809,0.632676 1.029253,1.147695 1.673828,1.568359 2.33554,0.516549 4.825821,0.795387 7.394531,0.847656 -2.238962,-0.05799 -6.954771,-0.469371 -9.068359,-3.416015 -0.177731,-0.209967 -0.324042,-0.405541 -0.421875,-0.609375 z m 9.935547,4.033203 C 56.727822,65.998357 56.882546,66 57,66 56.850811,66 56.702994,65.9983 56.554688,65.9961 Z" />
      <path
         style="fill:#e4e4e4;stroke-width:1.5"
         d="m 50.894909,28.364974 c 1.754995,-0.539999 1.604995,-2.249994 1.604995,-2.249994 0,0 -0.884997,-1.004997 -2.624993,-0.449999 -1.619995,0.524999 -1.874994,1.664995 -1.874994,1.664995 0,0 0.884997,1.649996 2.894992,1.034998 z"
         id="path4706-6" />
      <path
         id="path6719"
         style="opacity:0.2;fill:#ffffff;stroke-width:1.5"
         d="M 60,18 C 51.975046,18 44.294523,21.526518 42.644531,27.646484 38.924553,29.266476 37.5,32.355012 37.5,34.5 c 0,0.172957 0.0176,0.349603 0.03711,0.529297 0.188732,-2.106925 1.646807,-4.87577 5.107422,-6.382813 C 44.294522,22.526518 51.975046,19 60,19 65.238704,19 70.325127,20.189032 73.892578,22.658203 74.270921,22.578443 74.645432,22.517479 75,22.5 71.430025,19.455017 65.804966,18 60,18 Z m -29.146484,6 c -0.584997,0 -0.644532,0.480469 -0.644532,0.480469 -0.584995,5.024972 -3.105084,6.990245 -4.455078,8.865234 C 23.743918,36.165686 22.5,39.570023 22.5,43.5 21.765004,41.895011 21.224061,39.975614 20.789062,38.265625 20.744142,38.108389 20.588193,37.758075 20.375,37.591797 c -0.03595,-0.02804 -0.07227,-0.05066 -0.111328,-0.06641 -0.03867,-0.01597 -0.07789,-0.02539 -0.119141,-0.02539 -0.045,0 -0.08469,0.01078 -0.11914,0.0293 -0.02025,0.0067 -0.04029,0.0055 -0.06055,0.01563 -0.314998,0.194999 -0.55633,0.691096 -0.736328,1.246094 C 18.433525,41.460984 18,45.300013 18,47.999997 c 0,0.204853 0.01002,0.405762 0.01367,0.609375 0.03659,-2.672472 0.455088,-6.266725 1.214844,-8.818359 0.179998,-0.554998 0.42133,-1.051095 0.736328,-1.246094 0.02026,-0.01013 0.0403,-0.0089 0.06055,-0.01563 0.03445,-0.01852 0.07414,-0.0293 0.11914,-0.0293 0.04125,0 0.08047,0.0094 0.119141,0.02539 0.03906,0.01575 0.07538,0.03837 0.111328,0.06641 0.213193,0.166278 0.369144,0.516592 0.414062,0.673828 0.434999,1.709989 0.975942,3.629386 1.710938,5.234375 0,-3.929977 1.243918,-7.334314 3.253906,-10.154297 1.349994,-1.874989 3.870083,-3.840262 4.455078,-8.865234 0,0 0.05954,-0.480469 0.644532,-0.480469 2.733734,1.124993 3.417027,6.223956 3.58789,11.417969 8.7e-5,0.0026 -8.7e-5,0.0052 0,0.0078 0.05669,1.728773 0.05859,3.467923 0.05859,5.074236 0.889759,-1.779518 2.043606,-3.160455 3.34375,-4.226562 v -0.002 c -0.113925,-0.319981 -0.183153,-0.564102 -0.234375,-0.78511 -1.202156,1.03695 -2.274746,2.344413 -3.109375,4.013672 0,-1.606313 -0.0019,-3.34548 -0.05859,-5.074219 -8.7e-5,-0.0026 8.7e-5,-0.0052 0,-0.0078 -0.170871,-5.194037 -0.85416,-10.292988 -3.587894,-11.417981 z m 38.998046,1.605469 C 69.521144,25.889663 69.221698,26.186667 69,26.5 c 2.510775,0.281583 4.55652,0.667366 6.207031,1.835938 0.452505,0.03819 0.893323,0.09022 1.292969,0.164062 -1.663213,-1.935864 -3.854347,-2.531395 -6.648438,-2.894531 z m 2.78125,3.771484 C 72.411595,29.409483 72.197673,29.448843 72,29.5 c 0.899997,1.349994 2.325002,2.88001 3,4.5 1.885032,4.48056 2.933428,9.920325 2.988281,14.519531 0.0026,-0.173671 0.01172,-0.344911 0.01172,-0.519531 0.015,-4.694972 -1.050004,-10.365028 -3,-15 -0.533367,-1.280078 -1.526297,-2.499755 -2.367189,-3.623047 z M 27.794922,42 c -0.269999,0 -0.451563,0.05961 -0.601563,0.224609 C 25.498372,43.964599 24,46.50004 24,52.5 c 0,0.170738 0.0091,0.337575 0.01563,0.505859 0.0847,-5.626838 1.532749,-8.09259 3.177734,-9.78125 C 27.343354,43.059612 27.524923,43 27.794922,43 28.12492,43 28.485,43.344924 28.5,43.794922 c 0.493315,13.85281 10.778431,21.406694 23.591797,22.916016 0.122773,0.01477 0.245786,0.02935 0.369141,0.04297 0.241444,0.02616 0.483429,0.05038 0.726562,0.07227 C 53.771959,66.836898 55.027379,66.883388 56.25,66 54.770705,65.90917 52.43144,65.95429 48.751953,65.148438 37.538049,62.792993 28.9495,55.417376 28.5,42.794922 28.485,42.344924 28.12492,42 27.794922,42 Z m 35.193359,6.316406 C 62.747002,54.610259 55.376276,60 48,60 c -0.784495,0 -1.5,0.754505 -1.5,1.5 0,0.165344 0.04816,0.317274 0.119141,0.464844 C 46.853737,61.431794 47.406521,61 48,61 c 7.499958,0 15,-5.571036 15,-12 0,-0.236775 -0.0074,-0.457375 -0.01172,-0.683594 z"
         sodipodi:nodetypes="scsccsccscccccscscccsccccscccccccsccccccsccccccccccccccscsccscccccccscsscssc" />
    </g>
    <g
       id="g4985"
       transform="translate(-61.533441,-24.09553)">
      <path
         style="opacity:0.2;fill:#000000;stroke-width:3.99999"
         d="m 191.25326,127.81545 c 4.39999,-16.31996 24.87993,-25.71993 46.27987,-25.71993 15.47996,0 30.47992,3.87999 39.99989,11.99997 -5.67998,0.28 -12.99996,3.75999 -15.99996,7.99997 8.55998,0.96 15.11996,2.32 19.99995,7.99998 -3.67999,-0.68 -8.59998,-0.88 -11.99997,0 2.4,3.59999 6.19999,7.67998 7.99998,11.99997 5.19999,12.35996 8.03998,27.47992 7.99998,39.99989 0,46.15987 -34.27991,79.99978 -79.99978,79.99978 -45.71987,0 -79.99978,-34.27991 -79.99978,-79.99978 0,-7.19998 1.16,-17.43995 3.27999,-24.55993 0.48,-1.48 1.12,-2.8 1.96,-3.31999 0.16,-0.08 0.31999,-0.12 0.47999,-0.12 0.88,0 1.56,1.47999 1.72,2.03999 1.16,4.55999 2.59999,9.67997 4.55999,13.95996 0,-9.47997 3.31999,-19.55994 8.67997,-27.07992 3.59999,-4.99999 10.31997,-9.11998 11.87997,-22.51994 0,0 0.12,-1.24 1.72,-1.24 9.71997,2.83999 9.71997,25.67993 9.71997,42.83988 6.43998,0.96 8.91997,-11.27997 8.91997,-11.27997 -0.83999,-2.35999 -0.91999,-3.43999 -0.91999,-4.71998 0,-5.71999 3.79999,-13.95996 13.71996,-18.27995 z"
         id="path4690-1" />
      <path
         style="fill:#248afd;stroke-width:3.99999"
         d="m 191.25326,125.81546 c 4.39999,-16.31996 24.87993,-25.71993 46.27987,-25.71993 15.47996,0 30.47992,3.87999 39.99989,11.99997 -5.67998,0.28 -12.99996,3.75999 -15.99996,7.99997 8.55998,0.96 15.11996,2.32 19.99995,7.99998 -3.67999,-0.68 -8.59998,-0.87999 -11.99997,0 2.4,3.59999 6.19999,7.67998 7.99998,11.99997 5.19999,12.35997 8.03998,27.47992 7.99998,39.99989 0,46.15987 -34.27991,79.99978 -79.99978,79.99978 -45.71987,0 -79.99978,-34.27991 -79.99978,-79.99978 0,-7.19998 1.16,-17.43995 3.27999,-24.55993 0.48,-1.48 1.12,-2.8 1.96,-3.31999 0.16,-0.08 0.31999,-0.12 0.47999,-0.12 0.88,0 1.56,1.47999 1.72,2.03999 1.16,4.55999 2.59999,9.67997 4.55999,13.95996 0,-9.47997 3.31999,-19.55994 8.67997,-27.07992 3.59999,-4.99999 10.31997,-9.11998 11.87997,-22.51994 0,0 0.12,-1.24 1.72,-1.24 9.71997,2.83999 9.71997,25.67993 9.71997,42.83988 6.43998,0.96 8.91997,-11.27996 8.91997,-11.27996 -0.83999,-2.36 -0.91999,-3.43999 -0.91999,-4.71999 0,-5.71999 3.79999,-13.95996 13.71996,-18.27995 z"
         id="path4692-9" />
      <path
         style="fill:#0271ef;stroke-width:3.99999"
         d="m 281.53301,152.09539 c 0.32,0.95999 1.16,4.71998 1.16,7.99997 0,43.99988 -34.59991,83.99977 -77.15979,83.99977 -16.63995,0 -29.55992,-5.07998 -42.83988,-15.43995 -20.55995,-15.95996 -34.31991,-34.83991 -34.31991,-59.99984 0,-5.71998 1.32,-12.75996 2.04,-15.59996 0.2,-0.79999 0.48,-0.95999 0.83999,-0.95999 -0.12,0 -0.35999,0.04 -0.47999,0.12 -0.88,0.59999 -1.4,1.79999 -1.96,3.31999 -0.92,2.31999 -2.15999,9.39997 -2.27999,10.27997 -0.4,2.91999 -1,9.43997 -1,14.27996 0,45.71987 34.27991,79.99978 79.99978,79.99978 45.71987,0 79.99978,-33.83991 79.99978,-79.99978 0,-11.43997 -1.72,-20.79994 -3.99999,-27.99992 z"
         id="path4694-4" />
      <path
         style="fill:#0259bb;stroke-width:3.99999"
         d="m 130.41343,153.05538 c -1.2,5.03999 -2.04,9.95998 -2.04,15.59996 0,17.87995 6.87998,35.2399 24.31994,51.43986 -4.63999,-5.71999 -11.15997,-15.67996 -11.15997,-27.99992 0,-15.99996 3.99998,-22.75994 8.51997,-27.39993 0.4,-0.44 0.88,-0.6 1.6,-0.6 0.88,0 1.83999,0.92 1.87999,2.12 1.48,41.55988 35.9999,61.87983 75.99979,61.87983 -27.51992,0 -50.75986,-15.75996 -22.55993,-21.23994 14.75995,-2.88 38.55989,-9.59998 38.55989,-26.75993 0,-42.87988 -23.99993,-47.99987 -39.99989,-47.99987 -11.99997,0 -24.67993,7.83998 -27.07993,16.71996 1.16,3.83999 -5.87998,11.71996 -8.91997,11.27996 0,-17.15995 0,-39.99989 -9.71997,-43.99987 -1.56,0 -1.72,1.27999 -1.72,1.27999 -1.56,13.39997 -8.27998,18.63995 -11.87997,23.63994 -5.35998,7.51998 -8.67997,16.59995 -8.67997,27.07992 -1.96,-4.27999 -3.39999,-9.39997 -4.55999,-13.95996 -0.16,-0.52 -0.84,-2.03999 -1.72,-2.03999 -0.47999,0 -0.71999,0.44 -0.83999,0.95999 z"
         id="path4696-7" />
      <path
         style="fill:#d6d6d6;stroke-width:3.99999"
         d="m 205.53322,212.09522 c 19.99994,0 39.99989,-14.85596 39.99989,-31.99991 0,-7.99998 -0.88,-13.76396 -3.99999,-19.99995 -7.99998,-15.99995 -23.99993,-19.99994 -35.9999,-19.99994 -11.99997,0 -27.99992,3.99999 -35.9999,19.99994 -3.01199,6.02399 -3.99999,11.99997 -3.99999,19.99995 0.008,33.10791 29.71592,47.99987 63.99982,47.99987 -3.99999,0 -19.99994,0 -26.55592,-9.13998 -0.816,-0.964 -1.444,-1.81199 -1.444,-2.85999 0,-1.98799 1.908,-3.99999 3.99999,-3.99999 z"
         id="path4698-8" />
      <path
         id="path4700-4"
         style="opacity:0.2;stroke-width:3.99999;fill:#000000"
         d="M 170.61938 158.09553 C 170.24468 158.74289 169.87922 159.40398 169.53344 160.09553 C 169.2959 160.57062 169.09202 161.0458 168.87914 161.52131 L 169.53344 162.09553 L 199.81274 187.25569 C 201.57273 188.97568 203.41345 190.09553 205.53344 190.09553 C 207.73343 190.09553 209.41416 189.05568 211.25414 187.25569 L 241.53344 162.09553 L 242.20141 161.54865 C 241.9841 161.06529 241.77752 160.58338 241.53344 160.09553 C 241.18757 159.40379 240.82036 158.74305 240.44555 158.09553 L 170.61938 158.09553 z " />
      <path
         style="fill:#e4e4e4;stroke-width:3.99999"
         d="m 211.2532,185.2553 c -1.83999,1.79999 -3.51999,2.83999 -5.71998,2.83999 -2.11999,0 -3.99999,-1.12 -5.71998,-2.83999 l -30.27992,-25.15994 c 7.99998,-15.99995 23.99993,-19.99994 35.9999,-19.99994 11.99997,0 27.99992,3.99999 35.9999,19.99994 z"
         id="path4702-5" />
      <path
         id="path4704-0"
         style="opacity:0.2;fill:#000000;stroke-width:3.99999"
         d="m 205.53344,140.09553 c -11.99996,0 -21.96003,3.99956 -28,9.51953 0.08,0.28 0.26032,0.95024 0.44531,1.61524 6.07714,-5.31787 15.83855,-9.13477 27.55469,-9.13477 11.99996,0 28.00003,4.00007 36,20 1.90409,3.78098 2.96272,7.48029 3.50391,11.61719 0.24259,1.33005 0.39332,2.68706 0.45508,4.18164 -0.16,-6.87998 -1.159,-12.23885 -3.95899,-17.79883 -7.99997,-15.99993 -24.00004,-20 -36,-20 z m -64,52 c 0,1.23999 0.0792,2.44063 0.19922,3.64062 z m 0.19922,3.64062 0.041,0.35938 c 0.086,1.367 0.16823,2.6684 0.27734,3.94336 0.98078,5.94054 3.2356,10.99245 5.94141,15.39062 1.42777,1.50729 3.07102,3.16457 4.70117,4.66602 -4.95999,-6.23997 -9.88095,-14.03942 -10.96094,-24.35938 z m 60.56055,22.35938 c -0.4,0.32 -0.44619,0.52242 -0.44619,1.36242 0.19597,0.28004 0.44619,0.63758 0.44619,0.63758 0.6,0.8 1.20063,1.56 1.64062,2 1.53383,1.72064 3.4079,3.06626 5.44141,4.12695 4.19918,0.83981 10.17335,1.72573 18.1582,1.87305 -5.51998,-0.12 -17.35962,-1.00003 -23.59961,-8 -0.43999,-0.44 -1.04062,-1.2 -1.64062,-2 z"
         sodipodi:nodetypes="sccsccccsccccccccccccccccc" />
      <path
         style="fill:#e4e4e4;stroke-width:3.99999"
         d="m 213.2532,127.73545 c 4.67999,-1.43999 4.27999,-5.99998 4.27999,-5.99998 0,0 -2.36,-2.67999 -6.99998,-1.2 -4.31999,1.4 -4.99999,4.43999 -4.99999,4.43999 0,0 2.35999,4.39999 7.71998,2.75999 z"
         id="path4706-3" />
      <path
         id="path4708-6"
         style="opacity:0.2;fill:#ffffff;stroke-width:3.99999"
         d="m 237.53344,100.09553 c -21.3999,0 -41.87931,9.40078 -46.2793,25.7207 -8.15996,3.51999 -13.7207,10.87934 -13.7207,18.2793 0,-1.56724 0.55771,-3.40116 1.78516,-5.30273 2.25955,-4.60909 6.51901,-8.64002 11.93554,-10.97657 4.39999,-16.31992 24.8794,-25.7207 46.2793,-25.7207 14.31415,0 28.20803,3.32629 37.74805,10.24609 0.7654,-0.12788 1.57202,-0.2272 2.25195,-0.24609 -9.51995,-8.11996 -24.52006,-12 -40,-12 z m -77.7207,16 c -1.6,0 -1.71875,1.2793 -1.71875,1.2793 -1.56,13.39993 -8.28089,18.64065 -11.88086,23.64062 -5.35998,7.51996 -8.67969,16.72013 -8.67969,27.08008 -1.96,-4.55998 -3.40055,-9.40095 -4.56055,-13.96094 -0.16,-0.56 -0.83875,-2.03906 -1.71875,-2.03906 -1.19997,0 -2.1214,2.43945 -2.4414,3.43945 -2.19999,7.11998 -3.2793,16.56059 -3.2793,24.56055 0,-0.23012 0.0414,-0.63354 0.0488,-0.89844 0.22592,-7.30704 1.29091,-15.38499 3.23047,-21.66211 0.32,-1 1.24143,-3.43945 2.4414,-3.43945 0.88,0 1.55875,1.47906 1.71875,2.03906 1.16,4.55999 2.60055,9.40096 4.56055,13.96094 0,-10.35995 3.31971,-19.56012 8.67969,-27.08008 3.59997,-4.99997 10.32086,-10.24069 11.88086,-23.64062 0,0 0.11875,-1.2793 1.71875,-1.2793 9.71995,3.99998 9.7207,28.00009 9.7207,44 1.91999,-3.99998 5.08,-8.00047 8,-10.48047 v -2 c -2.92,2.48 -6.08001,6.48049 -8,10.48047 0,-15.99991 -7.5e-4,-40.00002 -9.7207,-44 z m 101.7207,4 v 2 c 7.16343,0.80338 12.89304,1.86962 17.45703,5.54492 0.78284,0.12042 1.57612,0.26171 2.54297,0.45508 -4.91997,-5.71996 -11.44004,-7.04 -20,-8 z m 8,8 v 2 c 2.36,3.55999 6.20001,7.84001 8,12 4.3068,10.02777 6.85225,21.56463 7.67774,32.29492 0.21072,1.97451 0.32226,3.88523 0.32226,5.70508 0.04,-12.67995 -2.64001,-27.52005 -8,-40 -1.79999,-4.15999 -5.64,-8.44001 -8,-12 z m -117.87891,36 c -0.71997,0 -1.20156,0.15961 -1.60156,0.59961 -4.51995,4.63996 -8.51953,11.40051 -8.51953,27.40039 0,0.33754 0.0236,0.66604 0.0332,1 0.17348,-15.24027 4.06763,-21.86437 8.48633,-26.40039 0.4,-0.44 0.88159,-0.59961 1.60156,-0.59961 0.88,0 1.83891,0.92109 1.87891,2.12109 1.31579,36.94869 28.75254,57.09273 62.93164,61.11133 1.39828,0.0284 6.23127,0.26492 11.06836,-1.23242 -7.75997,0 -17.25071,-1.40025 -18.18164,-1.88086 -30.79464,-5.85262 -54.59538,-25.65551 -55.81836,-59.99805 -0.04,-1.2 -0.99891,-2.12109 -1.87891,-2.12109 z M 245.51,180.75959 c -0.50884,16.86083 -20.23613,31.33594 -39.97656,31.33594 -2.09199,0 -4,2.01201 -4,4 0,0.33226 0.0812,0.64132 0.19336,0.94336 0.51662,-1.58418 2.09035,-2.94336 3.80664,-2.94336 19.99988,0 40,-14.85611 40,-32 0,-0.46264 -0.0162,-0.889 -0.0234,-1.33594 z"
         sodipodi:nodetypes="sccccsccscccccsccccsccccccccccccccccscccccscsccscccccscsscsscss" />
    </g>
  </g>
  <g
     id="Highlights">
    <path
       id="rect653"
       style="opacity:0.1;fill:#ffffff"
       d="M 80,44 C 53.408027,44 32,65.408027 32,92 v 2 C 32,67.408027 53.408027,46 80,46 h 128 c 26.59197,0 48,21.408027 48,48 V 92 C 256,65.408027 234.59197,44 208,44 Z"
       sodipodi:nodetypes="sscsscsss" />
    <path
       id="rect773"
       style="opacity:0.1;fill:#ffffff"
       d="m 312,34 c -9.97199,0 -18,8.02801 -18,18 v 1 c 0,-9.97199 8.02801,-18 18,-18 h 48 c 9.97199,0 18,8.02801 18,18 v -1 c 0,-9.97199 -8.02801,-18 -18,-18 z" />
    <path
       id="rect1135"
       style="opacity:0.1;fill:#ffffff;fill-opacity:1"
       d="m 304,144 c -6.64799,0 -12,5.35201 -12,12 v 1 c 0,-6.64799 5.35201,-12 12,-12 h 32 c 6.64799,0 12,5.35201 12,12 v -1 c 0,-6.64799 -5.35201,-12 -12,-12 z" />
    <path
       id="rect1265"
       style="opacity:0.1;fill:#ffffff;fill-opacity:1"
       d="m 300,223 c -4.986,0 -9,4.014 -9,9 v 1 c 0,-4.986 4.014,-9 9,-9 h 24 c 4.986,0 9,4.014 9,9 v -1 c 0,-4.986 -4.014,-9 -9,-9 z" />
    <path
       id="rect1368"
       style="opacity:0.1;fill:#ffffff;fill-opacity:1"
       d="m 424,54 c -3.324,0 -6,2.676003 -6,6 v 1 c 0,-3.323997 2.676,-6 6,-6 h 16 c 3.324,0 6,2.676003 6,6 v -1 c 0,-3.323997 -2.676,-6 -6,-6 z" />
    <path
       id="rect1402"
       style="opacity:0.1;fill:#ffffff;fill-opacity:1"
       d="m 420,140 c -2.216,0 -4,1.784 -4,4 v 1 c 0,-2.216 1.784,-4 4,-4 h 8 c 2.216,0 4,1.784 4,4 v -1 c 0,-2.216 -1.784,-4 -4,-4 z" />
    <path
       id="rect1436"
       style="opacity:0.1;fill:#ffffff;fill-opacity:1"
       d="m 422,102 c -2.216,0 -4,1.784 -4,4 v 1 c 0,-2.216 1.784,-4 4,-4 h 12 c 2.216,0 4,1.784 4,4 v -1 c 0,-2.216 -1.784,-4 -4,-4 z" />
  </g>
</svg>
