<?xml version="1.0" encoding="UTF-8" standalone="no"?>
<!-- Created with Inkscape (http://www.inkscape.org/) -->

<svg
   width="480"
   height="300"
   viewBox="0 0 480 300"
   version="1.1"
   id="svg5"
   inkscape:version="1.2.2 (1:1.2.2+202305151914+b0a8486541)"
   sodipodi:docname="transmission.svg"
   xmlns:inkscape="http://www.inkscape.org/namespaces/inkscape"
   xmlns:sodipodi="http://sodipodi.sourceforge.net/DTD/sodipodi-0.dtd"
   xmlns="http://www.w3.org/2000/svg"
   xmlns:svg="http://www.w3.org/2000/svg">
  <sodipodi:namedview
     id="namedview7"
     pagecolor="#888888"
     bordercolor="#000000"
     borderopacity="0.25"
     inkscape:showpageshadow="true"
     inkscape:pageopacity="0"
     inkscape:pagecheckerboard="0"
     inkscape:deskcolor="#888888"
     inkscape:document-units="px"
     showgrid="false"
     showborder="false"
     inkscape:zoom="1"
     inkscape:cx="240"
     inkscape:cy="150"
     inkscape:window-width="1920"
     inkscape:window-height="1008"
     inkscape:window-x="0"
     inkscape:window-y="0"
     inkscape:window-maximized="1"
     inkscape:current-layer="g2764" />
  <defs
     id="defs2" />
  <g
     id="Baseplate"
     style="display:none">
    <text
       y="19.774782"
       xml:space="preserve"
       x="15.006946"
       style="font-style:normal;font-variant:normal;font-weight:normal;font-stretch:normal;line-height:0%;font-family:'DejaVu Sans';-inkscape-font-specification:'DejaVu Sans';display:inline;fill:#000000;fill-opacity:1;stroke:none;enable-background:new"
       inkscape:label="context"
       id="context"><tspan
         style="font-style:normal;font-variant:normal;font-weight:normal;font-stretch:normal;font-size:18px;line-height:1.25;font-family:'DejaVu Sans';-inkscape-font-specification:'DejaVu Sans'"
         y="19.774782"
         x="15.006946"
         sodipodi:role="line"
         id="tspan3933">apps</tspan></text>
    <text
       y="19.774782"
       xml:space="preserve"
       x="122.48839"
       style="font-style:normal;font-variant:normal;font-weight:bold;font-stretch:normal;line-height:0%;font-family:'DejaVu Sans';-inkscape-font-specification:'DejaVu Sans Bold';text-align:start;writing-mode:lr-tb;text-anchor:start;display:inline;fill:#000000;fill-opacity:1;stroke:none;enable-background:new"
       inkscape:label="icon-name"
       id="icon-name"><tspan
         style="font-style:normal;font-variant:normal;font-weight:bold;font-stretch:normal;font-size:18px;line-height:1.25;font-family:'DejaVu Sans';-inkscape-font-specification:'DejaVu Sans Bold'"
         y="19.774782"
         x="122.48839"
         sodipodi:role="line"
         id="tspan3937">transmission</tspan></text>
    <rect
       style="fill:#ffffff"
       id="256x256"
       width="256"
       height="256"
       x="16"
       y="28" />
    <rect
       style="fill:#ffffff"
       id="96x96"
       width="96"
       height="96"
       x="288"
       y="28" />
    <rect
       style="fill:#ffffff"
       id="64x64"
       width="64"
       height="64"
       x="288"
       y="140" />
    <rect
       style="fill:#ffffff"
       id="48x48"
       width="48"
       height="48"
       x="288"
       y="220" />
    <rect
       style="fill:#ffffff"
       id="32x32"
       width="32"
       height="32"
       x="416"
       y="52" />
    <rect
       style="fill:#ffffff"
       id="24x24"
       width="24"
       height="24"
       x="416"
       y="100" />
    <rect
       style="fill:#ffffff"
       id="22x22"
       width="22"
       height="22"
       x="417"
       y="101" />
    <rect
       style="fill:#ffffff"
       id="16x16"
       width="16"
       height="16"
       x="416"
       y="140" />
  </g>
  <g
     id="Shadow">
    <rect
       style="opacity:0.2;fill:#000000"
       id="rect651"
       width="224"
       height="224"
       x="32"
       y="46"
       ry="48" />
    <rect
       style="opacity:0.2;fill:#000000"
       id="rect769"
       width="84"
       height="85"
       x="294"
       y="34"
       ry="18" />
    <rect
       style="opacity:0.2;fill:#000000;fill-opacity:1"
       id="rect1131"
       width="56"
       height="56"
       x="292"
       y="145"
       ry="12" />
    <rect
       style="opacity:0.2;fill:#000000;fill-opacity:1"
       id="rect1261"
       width="42"
       height="42"
       x="291"
       y="224"
       ry="9" />
    <rect
       style="opacity:0.2;fill:#000000;fill-opacity:1"
       id="rect1364"
       width="28"
       height="29"
       x="418"
       y="54"
       ry="6" />
    <rect
       style="opacity:0.2;fill:#000000;fill-opacity:1"
       id="rect1398"
       width="16"
       height="16"
       x="416"
       y="141"
       ry="4" />
    <rect
       style="opacity:0.2;fill:#000000;fill-opacity:1"
       id="rect1432"
       width="20"
       height="20"
       x="418"
       y="103"
       ry="4" />
  </g>
  <g
     id="Background">
    <rect
       style="fill:#9f9f9f;fill-opacity:1"
       id="rect597"
       width="224"
       height="224"
       x="32"
       y="44"
       ry="48" />
    <rect
       style="opacity:1;fill:#9f9f9f;fill-opacity:1"
       id="rect771"
       width="84"
       height="84"
       x="294"
       y="34"
       ry="18" />
    <rect
       style="opacity:1;fill:#9f9f9f;fill-opacity:1"
       id="rect1133"
       width="56"
       height="56"
       x="292"
       y="144"
       ry="12" />
    <rect
       style="opacity:1;fill:#9f9f9f;fill-opacity:1"
       id="rect1263"
       width="42"
       height="42"
       x="291"
       y="223"
       ry="9" />
    <rect
       style="opacity:1;fill:#9f9f9f;fill-opacity:1"
       id="rect1366"
       width="28"
       height="28"
       x="418"
       y="54"
       ry="6" />
    <rect
       style="opacity:1;fill:#9f9f9f;fill-opacity:1"
       id="rect1400"
       width="16"
       height="16"
       x="416"
       y="140"
       ry="4" />
    <rect
       style="opacity:1;fill:#9f9f9f;fill-opacity:1"
       id="rect1434"
       width="20"
       height="20"
       x="418"
       y="102"
       ry="4" />
  </g>
  <g
     id="g2764">
    <g
       id="g2751">
      <g
         id="g2739">
        <rect
           style="fill:#000000;fill-opacity:1;stroke-width:2;stroke-linecap:square;opacity:0.2"
           id="rect2735"
           width="12"
           height="12"
           x="418"
           y="142.5"
           ry="2" />
        <rect
           style="fill:#ffffff;fill-opacity:1;stroke-width:2;stroke-linecap:square"
           id="rect2680"
           width="12"
           height="12"
           x="418"
           y="142"
           ry="2" />
      </g>
      <g
         id="g2263">
        <path
           d="m 418.07139,142.05023 c 4.06808,-0.66394 7.30881,-0.80018 11.85692,0 0.58359,0.10268 1.07139,0.49067 1.07139,1.09982 v 1.80004 c 0,0.60915 -0.48521,1.00948 -1.07139,1.09982 -4.56313,0.70491 -7.87066,0.76119 -11.85692,0 C 417.48935,145.93884 417,145.55924 417,144.95009 v -1.80004 c 0,-0.60915 0.48624,-1.00455 1.07139,-1.09982 z"
           style="fill:#000000;opacity:0.2"
           id="path3234" />
        <path
           d="m 420,149.5 4,4 4,-4 z"
           style="opacity:0.2;fill:#000000;fill-opacity:1;stroke-width:2;stroke-linecap:square"
           id="path3206"
           sodipodi:nodetypes="cccc" />
        <path
           d="m 418.07139,141.55023 c 4.06808,-0.66394 7.30881,-0.80018 11.85692,0 0.58359,0.10268 1.07139,0.49067 1.07139,1.09982 v 1.80004 c 0,0.60915 -0.48521,1.00948 -1.07139,1.09982 -4.56313,0.70491 -7.87066,0.76119 -11.85692,0 C 417.48935,145.43884 417,145.05924 417,144.45009 v -1.80004 c 0,-0.60915 0.48624,-1.00455 1.07139,-1.09982 z"
           style="fill:#f64747"
           id="path899"
           sodipodi:nodetypes="cssscsssc" />
        <path
           d="M 421.81818,149 H 420 l 4,4 4,-4 h -1.81818 z"
           style="fill:#4a4a4a"
           id="path1462"
           sodipodi:nodetypes="cccccc" />
        <rect
           style="fill:#636363;fill-opacity:1;stroke-width:1.78885;stroke-linecap:square"
           id="rect359"
           width="4"
           height="2"
           x="422"
           y="147" />
        <rect
           style="fill:#868686;fill-opacity:1;stroke-width:1.78885;stroke-linecap:square"
           id="rect999"
           width="4"
           height="2"
           x="422"
           y="145" />
        <rect
           style="fill:#bfbfbf;fill-opacity:1;stroke-width:1.78885;stroke-linecap:square"
           id="rect1260"
           width="4"
           height="2"
           x="422"
           y="143" />
        <rect
           style="fill:#ffffff;fill-opacity:1;stroke-width:1.78885;stroke-linecap:square"
           id="rect1452"
           width="4"
           height="2"
           x="422"
           y="141" />
        <path
           id="path2986"
           style="fill:#ffffff;opacity:0.2"
           d="M 423.82031 141.00195 C 421.93311 141.01898 420.1063 141.21881 418.07227 141.55078 C 417.48712 141.64605 417 142.04124 417 142.65039 L 417 143.15039 C 417 142.54124 417.48712 142.14605 418.07227 142.05078 C 422.14034 141.38684 425.37963 141.2506 429.92773 142.05078 C 430.51132 142.15346 431 142.54124 431 143.15039 L 431 142.65039 C 431 142.04124 430.51132 141.65346 429.92773 141.55078 C 427.65368 141.15069 425.70752 140.98492 423.82031 141.00195 z " />
        <path
           d="m 422,143 v 0.5 h 4 V 143 Z m 0,2 v 0.5 h 4 V 145 Z m 0,2 v 0.5 h 4 V 147 Z m 0,2 v 0.5 h 4 V 149 Z"
           style="opacity:0.2;fill:#000000;fill-opacity:1;stroke-width:2;stroke-linecap:square"
           id="path3178"
           sodipodi:nodetypes="cccccccccccccccccccc" />
      </g>
    </g>
    <g
       id="g9328">
      <g
         id="g9323">
        <rect
           style="opacity:0.2;fill:#000000;fill-opacity:1;stroke-width:2;stroke-linecap:square"
           id="rect9317"
           width="14"
           height="14"
           x="421"
           y="105.5"
           ry="2" />
        <rect
           style="opacity:1;fill:#ffffff;fill-opacity:1;stroke-width:2;stroke-linecap:square"
           id="rect9319"
           width="14"
           height="14"
           x="421"
           y="105"
           ry="2" />
      </g>
      <g
         id="g10454">
        <path
           d="m 423,112.5 5,5 5,-5"
           style="fill:#000000;stroke-width:1.25;opacity:0.2"
           id="path9338"
           sodipodi:nodetypes="ccc" />
        <path
           d="m 423,112 5,5 5,-5"
           style="fill:#4a4a4a;stroke-width:1.25"
           id="path10396" />
        <path
           d="m 421.22447,105.03945 c 4.64934,-0.65093 8.35311,-0.7845 13.55106,0 0.66697,0.10067 1.22447,0.48106 1.22447,1.07828 v 1.76478 c 0,0.59722 -0.55454,0.9897 -1.22447,1.07828 -5.21512,0.6911 -8.99523,0.74627 -13.55106,0 C 420.55927,108.85189 420,108.47973 420,107.88251 v -1.76478 c 0,-0.59722 0.55571,-0.98487 1.22447,-1.07828 z"
           style="fill:#000000;stroke-width:1.05854;opacity:0.2"
           id="path9515"
           sodipodi:nodetypes="cssscsssc" />
        <path
           d="m 421.22447,104.53945 c 4.64934,-0.65093 8.35311,-0.7845 13.55106,0 0.66697,0.10067 1.22447,0.48106 1.22447,1.07828 v 1.76478 c 0,0.59722 -0.55454,0.9897 -1.22447,1.07828 -5.21512,0.6911 -8.99523,0.74627 -13.55106,0 C 420.55927,108.35189 420,107.97973 420,107.38251 v -1.76478 c 0,-0.59722 0.55571,-0.98487 1.22447,-1.07828 z"
           style="fill:#f64747;stroke-width:1.05854"
           id="path9599" />
        <rect
           style="opacity:1;fill:#ffffff;fill-opacity:1;stroke-width:2;stroke-linecap:square"
           id="rect9966"
           width="6"
           height="2"
           x="425"
           y="104" />
        <rect
           style="opacity:1;fill:#bfbfbf;fill-opacity:1;stroke-width:2;stroke-linecap:square"
           id="rect9968"
           width="6"
           height="2"
           x="425"
           y="106" />
        <rect
           style="opacity:1;fill:#868686;fill-opacity:1;stroke-width:2;stroke-linecap:square"
           id="rect9970"
           width="6"
           height="2"
           x="425"
           y="108" />
        <rect
           style="opacity:1;fill:#636363;fill-opacity:1;stroke-width:2;stroke-linecap:square"
           id="rect9972"
           width="6"
           height="2"
           x="425"
           y="110" />
        <path
           d="m 425,106 v 0.5 h 6 V 106 Z m 0,2 v 0.5 h 6 V 108 Z m 0,2 v 0.5 h 6 V 110 Z m 0,2 v 0.5 h 6 V 112 Z"
           style="opacity:0.2;fill:#000000;fill-opacity:1;stroke-width:2;stroke-linecap:square"
           id="path10424"
           sodipodi:nodetypes="cccccccccccccccccccc" />
        <path
           id="path9543"
           style="fill:#ffffff;stroke-width:1.05854;opacity:0.2"
           d="M 427.79492 104.00195 C 425.63807 104.01865 423.54928 104.2136 421.22461 104.53906 C 420.55585 104.63247 420 105.01997 420 105.61719 L 420 106.11719 C 420 105.51997 420.55585 105.13247 421.22461 105.03906 C 425.87394 104.38813 429.57745 104.25456 434.77539 105.03906 C 435.44236 105.13973 436 105.51997 436 106.11719 L 436 105.61719 C 436 105.01997 435.44236 104.63973 434.77539 104.53906 C 432.17642 104.14681 429.95177 103.98526 427.79492 104.00195 z " />
      </g>
    </g>
    <g
       id="g3292">
      <g
         id="g3287">
        <rect
           style="opacity:0.2;fill:#000000;fill-opacity:1;stroke-width:2;stroke-linecap:square"
           id="rect3254"
           height="20"
           x="422"
           y="59"
           ry="3"
           width="20" />
        <rect
           style="opacity:1;fill:#ffffff;fill-opacity:1;stroke-width:2;stroke-linecap:square"
           id="rect3256"
           width="20"
           height="20"
           x="422"
           y="58"
           ry="3" />
      </g>
      <g
         id="g4224">
        <path
           d="m 426,70 6,6 6,-6 z"
           style="fill:#000000;opacity:0.2"
           id="path4182"
           sodipodi:nodetypes="cccc" />
        <path
           d="m 426,69 6,6 6,-6 z"
           style="fill:#4a4a4a"
           id="path4210" />
        <path
           d="m 422,58.892194 c -0.73665,0.131871 -1,0.474338 -1,1.453125 v 2 c 0,1.059223 0.2828,1.322623 1,1.445312 6.75376,1.382983 12.97067,1.424483 20,0 0.7172,-0.122689 1,-0.386089 1,-1.445312 v -2 c 0,-0.978787 -0.26335,-1.321254 -1,-1.453125 -7.15367,-1.223905 -13.44242,-1.154776 -20,0 z"
           style="fill:#000000;stroke-width:0.5;opacity:0.2"
           id="path4402" />
        <path
           d="m 420.99982,60 h 2.99946 C 424.55214,60 425,60.373068 425,60.833333 v 1.333333 C 425,62.626932 424.55214,63 423.99928,63 h -2.99946 C 420.44785,63 420,62.626932 420,62.166666 V 60.833333 C 420,60.373068 420.44785,60 420.99982,60 Z"
           style="fill:#000000;stroke-width:0.5;opacity:0.2"
           id="path4359" />
        <path
           d="m 420.99982,59 h 2.99946 C 424.55214,59 425,59.373068 425,59.833333 v 1.333333 C 425,61.626932 424.55214,62 423.99928,62 h -2.99946 C 420.44785,62 420,61.626932 420,61.166666 V 59.833333 C 420,59.373068 420.44785,59 420.99982,59 Z"
           style="fill:#e4e4e4;stroke-width:0.5"
           id="path4331"
           sodipodi:nodetypes="sssssssss" />
        <path
           id="path3302"
           style="fill:#f64747;stroke-width:0.5"
           d="m 422,57.892194 c -0.73665,0.131871 -1,0.474338 -1,1.453125 v 2 c 0,1.059223 0.2828,1.322623 1,1.445312 6.75376,1.382983 12.97067,1.424483 20,0 0.7172,-0.122689 1,-0.386089 1,-1.445312 v -2 c 0,-0.978787 -0.26335,-1.321254 -1,-1.453125 -7.15367,-1.223905 -13.44242,-1.154776 -20,0 z"
           sodipodi:nodetypes="cssccsscc" />
        <rect
           style="fill:#ffffff;fill-opacity:1;stroke-width:1.30927;stroke-linecap:square"
           id="rect3380"
           width="6"
           height="2.8989999"
           x="429"
           y="57.101002" />
        <rect
           style="opacity:1;fill:#bfbfbf;fill-opacity:1;stroke-width:1.73205;stroke-linecap:square"
           id="rect3409"
           width="6"
           height="3"
           x="429"
           y="60" />
        <rect
           style="opacity:1;fill:#868686;fill-opacity:1;stroke-width:1.73205;stroke-linecap:square"
           id="rect3411"
           width="6"
           height="3"
           x="429"
           y="63" />
        <rect
           style="opacity:1;fill:#636363;fill-opacity:1;stroke-width:1.73205;stroke-linecap:square"
           id="rect3413"
           width="6"
           height="3"
           x="429"
           y="66" />
        <path
           id="rect4239"
           style="opacity:0.2;fill:#000000;fill-opacity:1;stroke-width:2;stroke-linecap:square"
           d="M 429 60 L 429 61 L 435 61 L 435 60 L 429 60 z M 429 63 L 429 64 L 435 64 L 435 63 L 429 63 z M 429 66 L 429 67 L 435 67 L 435 66 L 429 66 z M 429 69 L 429 70 L 435 70 L 435 69 L 429 69 z " />
        <path
           id="path4431"
           style="fill:#ffffff;stroke-width:0.5;opacity:0.2"
           d="M 431.77734 57 C 428.49125 57.008641 425.27879 57.315191 422 57.892578 C 421.26335 58.024449 421 58.366917 421 59.345703 L 421 60.345703 C 421 59.366917 421.26335 59.024449 422 58.892578 C 428.55757 57.737803 434.84634 57.668674 442 58.892578 C 442.73665 59.024449 443 59.366917 443 60.345703 L 443 59.345703 C 443 58.366917 442.73665 58.024449 442 57.892578 C 438.42317 57.280626 435.06343 56.991359 431.77734 57 z " />
      </g>
    </g>
    <g
       id="g6231">
      <g
         id="g6226">
        <rect
           style="opacity:0.2;fill:#000000;fill-opacity:1;stroke-width:2;stroke-linecap:square"
           id="rect6220"
           width="30"
           height="30"
           x="297"
           y="230"
           ry="4" />
        <rect
           style="opacity:1;fill:#ffffff;fill-opacity:1;stroke-width:2;stroke-linecap:square"
           id="rect6222"
           width="30"
           height="30"
           x="297"
           y="229"
           ry="4" />
      </g>
      <g
         id="g7675">
        <path
           d="M 297.45455,229.30399 C 296.38306,229.49667 296,229.9971 296,231.42736 v 2.92248 c 0,1.54779 0.41136,1.93266 1.45455,2.11195 9.82365,2.02087 18.86642,2.08152 29.0909,0 C 327.58868,236.2825 328,235.89763 328,234.34984 v -2.92248 c 0,-1.43026 -0.38303,-1.93069 -1.45455,-2.12337 -10.40532,-1.78844 -19.55259,-1.68741 -29.0909,0 z"
           style="opacity:0.2;fill:#000000;stroke-width:0.18224"
           id="path6718" />
        <path
           d="m 304,248 8,8 8,-8 z"
           style="opacity:0.2;fill:#000000;stroke-width:0.750009"
           id="path7642"
           sodipodi:nodetypes="cccc" />
        <path
           d="m 295.5,231.00027 h 4 c 0.831,0 1.5,0.669 1.5,1.5 v 1 c 0,0.831 -0.669,1.5 -1.5,1.5 h -4 c -0.831,0 -1.5,-0.669 -1.5,-1.5 v -1 c 0,-0.831 0.669,-1.5 1.5,-1.5 z"
           style="opacity:0.2;fill:#000000;stroke-width:2;stroke-linecap:square"
           id="path6690"
           sodipodi:nodetypes="sssssssss" />
        <path
           d="m 295.5,230.00027 h 4 c 0.831,0 1.5,0.669 1.5,1.5 v 1 c 0,0.831 -0.669,1.5 -1.5,1.5 h -4 c -0.831,0 -1.5,-0.669 -1.5,-1.5 v -1 c 0,-0.831 0.669,-1.5 1.5,-1.5 z"
           style="fill:#e4e4e4;stroke-width:2;stroke-linecap:square"
           id="path6606"
           sodipodi:nodetypes="sssssssss" />
        <path
           id="path6634"
           style="opacity:0.2;fill:#ffffff;stroke-width:2;stroke-linecap:square"
           d="m 295.5,230.00027 c -0.831,0 -1.5,0.669 -1.5,1.5 v 1 c 0,-0.831 0.669,-1.5 1.5,-1.5 h 4 c 0.831,0 1.5,0.669 1.5,1.5 v -1 c 0,-0.831 -0.669,-1.5 -1.5,-1.5 z" />
        <path
           d="M 297.45455,228.30399 C 296.38305,228.49667 296,228.9971 296,230.42736 v 2.92248 c 0,1.54779 0.41135,1.93267 1.45455,2.11195 9.82365,2.02087 18.86642,2.08152 29.0909,0 C 327.58868,235.28251 328,234.89763 328,233.34984 v -2.92248 c 0,-1.43026 -0.38303,-1.93069 -1.45455,-2.12337 -10.40533,-1.78844 -19.5526,-1.68741 -29.0909,0 z"
           style="fill:#f64747;stroke-width:0.18224"
           id="path6256"
           sodipodi:nodetypes="cssccsscc" />
        <path
           d="m 304,247.00027 8,7.99973 8,-7.99973 z"
           style="fill:#4a4a4a;stroke-width:0.750009"
           id="path6746"
           sodipodi:nodetypes="cccc" />
        <rect
           style="opacity:1;fill:#636363;fill-opacity:1;stroke-width:2.5;stroke-linecap:square"
           id="rect6826"
           width="10"
           height="5"
           x="307"
           y="242.00027" />
        <rect
           style="fill:#868686;fill-opacity:1;stroke-width:2.5;stroke-linecap:square"
           id="rect7104"
           width="10"
           height="5"
           x="307"
           y="237.00027" />
        <rect
           style="fill:#bfbfbf;fill-opacity:1;stroke-width:2.5;stroke-linecap:square"
           id="rect7382"
           width="10"
           height="5"
           x="307"
           y="232.00027" />
        <rect
           style="fill:#ffffff;fill-opacity:1;stroke-width:2.5;stroke-linecap:square"
           id="rect7384"
           width="10"
           height="5"
           x="307"
           y="227.00027" />
        <path
           id="path7586"
           style="opacity:0.2;fill:#ffffff;stroke-width:0.18224"
           d="m 311.67578,227.00027 c -4.77977,0.0126 -9.45156,0.46098 -14.2207,1.30469 C 296.38358,228.49764 296,228.99775 296,230.428 v 1 c 0,-1.43025 0.38358,-1.93036 1.45508,-2.12304 9.53829,-1.68741 18.68452,-1.78844 29.08984,0 1.07152,0.19268 1.45508,0.69279 1.45508,2.12304 v -1 c 0,-1.43025 -0.38356,-1.93036 -1.45508,-2.12304 -5.20266,-0.89422 -10.08937,-1.31732 -14.86914,-1.30469 z" />
        <path
           id="rect7677"
           style="opacity:0.2;fill:#000000;fill-opacity:1;stroke-width:2;stroke-linecap:square"
           d="M 307 232 L 307 233 L 317 233 L 317 232 L 307 232 z M 307 237 L 307 238 L 317 238 L 317 237 L 307 237 z M 307 242 L 307 243 L 317 243 L 317 242 L 307 242 z M 307 247 L 307 248 L 317 248 L 317 247 L 307 247 z " />
      </g>
    </g>
    <g
       id="g4943">
      <g
         id="g4634"
         transform="matrix(1.9999826,0,0,1.9999826,-543.99248,36.001907)">
        <rect
           style="opacity:0.2;fill:#000000;fill-opacity:1;stroke-width:2;stroke-linecap:square"
           id="rect3254-0"
           height="20"
           x="422"
           y="58.499729"
           ry="3"
           width="20" />
        <rect
           style="fill:#ffffff;fill-opacity:1;stroke-width:2;stroke-linecap:square"
           id="rect3256-9"
           width="20"
           height="20"
           x="422"
           y="57.999725"
           ry="3" />
      </g>
      <g
         id="g5107">
        <path
           d="m 307.99989,175.00032 11.99999,12 12.00002,-12 z"
           style="opacity:0.2;fill:#000000;stroke-width:1.00001"
           id="path4857" />
        <path
           d="m 307.99991,174 11.99999,12 12,-12 z"
           style="fill:#4a4a4a;stroke-width:1.00001"
           id="path4885"
           sodipodi:nodetypes="cccc" />
        <path
           d="m 297.99981,155.00043 h 5.99891 c 1.10573,0 2.00144,0.74615 2.00144,1.66668 v 2.66667 c 0,0.92053 -0.89571,1.66666 -2.00144,1.66666 h -5.99891 c -1.10395,0 -1.99964,-0.74613 -1.99964,-1.66666 v -2.66667 c 0,-0.92053 0.89569,-1.66668 1.99964,-1.66668 z"
           style="opacity:0.2;fill:#000000;stroke-width:0.125003"
           id="path4726" />
        <path
           d="m 297.99979,154 h 5.99891 c 1.10573,0 2.00146,0.74614 2.00146,1.66666 v 2.66668 c 0,0.92052 -0.89573,1.66666 -2.00146,1.66666 h -5.99891 c -1.10395,0 -1.99964,-0.74614 -1.99964,-1.66666 v -2.66668 c 0,-0.92052 0.89569,-1.66666 1.99964,-1.66666 z"
           style="fill:#e4e4e4;stroke-width:0.500004"
           id="path4670"
           sodipodi:nodetypes="sssssssss" />
        <path
           id="path4698"
           style="opacity:0.2;fill:#ffffff;stroke-width:0.250004"
           d="m 298.00021,154.00035 c -1.10395,0 -2,0.74744 -2,1.66797 v 0.99804 c 0,-0.92052 0.89607,-1.66601 2,-1.66601 h 5.99805 c 1.10571,0 2.00194,0.74549 2.00194,1.66601 v -0.99804 c 0,-0.92053 -0.89621,-1.66797 -2.00194,-1.66797 z" />
        <path
           d="m 299.99982,152.8252 c -1.47331,0.26977 -2.00001,0.97037 -2.00001,2.97272 v 4.09147 c 0,2.1669 0.5656,2.70574 2.00001,2.95674 13.50752,2.82922 25.94133,2.91412 39.99999,0 1.43441,-0.251 2,-0.78984 2,-2.95674 v -4.09147 c 0,-2.00235 -0.52669,-2.70295 -2,-2.97272 -14.30734,-2.5038 -26.88483,-2.36237 -39.99999,0 z"
           style="fill:#000000;stroke-width:0.50569;opacity:0.2"
           id="path5035"
           sodipodi:nodetypes="cssccsscc" />
        <path
           d="m 299.99982,151.82514 c -1.47331,0.26977 -2.00001,0.97037 -2.00001,2.97272 v 4.09147 c 0,2.1669 0.5656,2.70574 2.00001,2.95674 13.50752,2.82922 25.94133,2.91412 39.99999,0 1.43443,-0.251 2,-0.78984 2,-2.95674 v -4.09147 c 0,-2.00235 -0.52667,-2.70295 -2,-2.97272 -14.30734,-2.5038 -26.88483,-2.36237 -39.99999,0 z"
           style="fill:#f64747;stroke-width:0.252848"
           id="path5063"
           sodipodi:nodetypes="cssccsscc" />
        <rect
           style="opacity:1;fill:#636363;fill-opacity:1;stroke-width:2;stroke-linecap:square"
           id="rect5165"
           width="11.999908"
           height="6"
           x="314.00006"
           y="167.99995" />
        <rect
           style="opacity:1;fill:#868686;fill-opacity:1;stroke-width:2;stroke-linecap:square"
           id="rect5167"
           width="11.999969"
           height="5.9999542"
           x="314"
           y="162" />
        <rect
           style="opacity:1;fill:#bfbfbf;fill-opacity:1;stroke-width:2;stroke-linecap:square"
           id="rect5238"
           width="11.999969"
           height="5.9999542"
           x="314"
           y="156" />
        <rect
           style="opacity:1;fill:#ffffff;fill-opacity:1;stroke-width:2;stroke-linecap:square"
           id="rect5309"
           width="11.999929"
           height="5.7970886"
           x="314.00006"
           y="150.20291" />
        <path
           id="rect4905"
           style="opacity:0.2;fill:#000000;fill-opacity:1;stroke-width:2;stroke-linecap:square"
           d="m 314,156 v 1 h 11.99999 v -1 z m 0,6 v 1 h 11.99999 v -1 z m 0,6 v 1 h 11.99999 v -1 z m 0,6 v 1 h 11.99999 v -1 z" />
        <path
           id="path5117"
           style="fill:#ffffff;stroke-width:0.252848;opacity:0.2"
           d="M 319.55273 150 C 312.98056 150.01768 306.55757 150.64303 300 151.82422 C 298.52669 152.09399 298 152.79648 298 154.79883 L 298 155.79883 C 298 153.79648 298.52669 153.09594 300 152.82617 C 313.11515 150.4638 325.69267 150.32237 340 152.82617 C 341.47333 153.09594 342 153.79648 342 155.79883 L 342 154.79883 C 342 152.79648 341.47333 152.09399 340 151.82422 C 332.84634 150.57232 326.12491 149.98232 319.55273 150 z " />
      </g>
    </g>
    <g
       id="g8049">
      <g
         id="g8066">
        <rect
           style="opacity:0.2;fill:#000000;fill-opacity:1;stroke-width:2;stroke-linecap:square"
           id="rect7875"
           width="60"
           height="60"
           x="306"
           y="47"
           ry="6" />
        <rect
           style="fill:#ffffff;fill-opacity:1;stroke-width:2;stroke-linecap:square"
           id="rect7877"
           width="60"
           height="60"
           x="306"
           y="46"
           ry="6" />
      </g>
      <g
         id="g9315">
        <path
           d="M 306.00001,47.607428 C 303.79005,47.992814 303,48.993671 303,51.854171 v 5.844957 c 0,3.095572 0.8484,3.865344 3.00001,4.223915 20.26128,4.041743 38.912,4.163029 59.99999,0 2.15165,-0.358571 3,-1.128343 3,-4.223915 v -5.844957 c 0,-2.8605 -0.79001,-3.861357 -3,-4.246743 -21.46101,-3.576858 -40.32725,-3.374815 -59.99999,0 z"
           style="fill:#000000;stroke-width:0.370132;opacity:0.2"
           id="path9142" />
        <path
           d="m 302.99946,50 h 8.99835 C 313.65641,50 315,51.119209 315,52.499988 v 5.000018 c 0,1.380779 -1.34359,2.499988 -3.00219,2.499988 h -8.99835 C 301.34353,59.999994 300,58.880785 300,57.500006 V 52.499988 C 300,51.119209 301.34353,50 302.99946,50 Z"
           style="fill:#000000;stroke-width:0.750005;opacity:0.2"
           id="path9170" />
        <path
           d="m 302.99946,49 h 8.99835 C 313.65641,49 315,50.119209 315,51.499988 v 5.000018 c 0,1.380779 -1.34359,2.499988 -3.00219,2.499988 h -8.99835 C 301.34353,58.999994 300,57.880785 300,56.500006 V 51.499988 C 300,50.119209 301.34353,49 302.99946,49 Z"
           style="fill:#e4e4e4;stroke-width:0.750005"
           id="path8218"
           sodipodi:nodetypes="sssssssss" />
        <path
           id="path9198"
           style="fill:#ffffff;stroke-width:0.750005;opacity:0.2"
           d="M 303 49 C 301.34407 49 300 50.119222 300 51.5 L 300 52.5 C 300 51.119222 301.34407 50 303 50 L 311.99805 50 C 313.65665 50 315 51.119222 315 52.5 L 315 51.5 C 315 50.119222 313.65665 49 311.99805 49 L 303 49 z " />
        <path
           d="M 317.9998,81.00047 335.99978,99.00046 353.9998,81.00047 Z"
           style="opacity:0.2;fill:#000000;stroke-width:1.50001"
           id="path8104" />
        <path
           d="M 317.99983,80 335.99981,97.99999 353.9998,80 Z"
           style="fill:#4a4a4a;stroke-width:1.50001"
           id="path8076" />
        <path
           d="M 306.00001,46.607427 C 303.79005,46.992813 303,47.99367 303,50.85417 v 5.844957 c 0,3.095572 0.8484,3.865344 3.00001,4.223915 20.26128,4.041743 38.912,4.163029 59.99999,0 2.15165,-0.358571 3,-1.128343 3,-4.223915 V 50.85417 c 0,-2.8605 -0.79001,-3.861357 -3,-4.246743 -21.46101,-3.576858 -40.32725,-3.374815 -59.99999,0 z"
           style="fill:#f64747;stroke-width:0.370132"
           id="path8190"
           sodipodi:nodetypes="cssccsscc" />
        <rect
           style="opacity:1;fill:#636363;fill-opacity:1;stroke-width:2;stroke-linecap:square"
           id="rect8290"
           width="17.999847"
           height="9"
           x="327.00009"
           y="70.999847" />
        <rect
           style="opacity:1;fill:#868686;fill-opacity:1;stroke-width:2;stroke-linecap:square"
           id="rect8369"
           width="18.000029"
           height="8.9998474"
           x="326.99991"
           y="62" />
        <rect
           style="opacity:1;fill:#bfbfbf;fill-opacity:1;stroke-width:2;stroke-linecap:square"
           id="rect8440"
           width="17.999878"
           height="8.9999237"
           x="327.00006"
           y="53" />
        <rect
           style="opacity:1;fill:#ffffff;fill-opacity:1;stroke-width:1.9754;stroke-linecap:square"
           id="rect8649"
           width="17.999878"
           height="8.7799997"
           x="327.00003"
           y="44.220001" />
        <path
           id="rect8124"
           style="opacity:0.2;fill:#000000;fill-opacity:1;stroke-width:2;stroke-linecap:square"
           d="m 326.99991,53 v 1 h 18 v -1 z m 0,9 v 1 h 18 v -1 z m 0,9 v 1 h 18 v -1 z m 0,9 v 1 h 18 v -1 z" />
        <path
           id="path9254"
           style="fill:#ffffff;stroke-width:0.370132;opacity:0.2"
           d="M 335.33008 44 C 325.47181 44.025255 315.83636 44.920016 306 46.607422 C 303.79004 46.992807 303 47.993018 303 50.853516 L 303 51.853516 C 303 48.993018 303.79004 47.992806 306 47.607422 C 325.67272 44.23261 344.53901 44.030567 366 47.607422 C 368.20999 47.992807 369 48.993018 369 51.853516 L 369 50.853516 C 369 47.993018 368.20999 46.992807 366 46.607422 C 355.26951 44.818995 345.18835 43.974745 335.33008 44 z " />
      </g>
    </g>
    <g
       id="g5567"
       transform="matrix(4,0,0,4,-1336,-532)">
      <g
         id="g5562"
         transform="translate(50)">
        <rect
           style="opacity:0.2;fill:#000000;fill-opacity:1;stroke-width:2;stroke-linecap:square"
           id="rect5558"
           width="39.999653"
           height="39.999645"
           x="300.00018"
           y="152.5"
           ry="6" />
        <rect
           style="opacity:1;fill:#ffffff;fill-opacity:1;stroke-width:2;stroke-linecap:square"
           id="rect5556"
           width="39.999653"
           height="40"
           x="300.00018"
           y="152"
           ry="6" />
      </g>
      <g
         id="g6216">
        <path
           d="m 349.99981,152.3252 c -1.47331,0.26977 -2.00001,0.97037 -2.00001,2.97272 v 4.09147 c 0,2.1669 0.5656,2.70574 2.00001,2.95674 13.50752,2.82922 25.94133,2.91412 39.99999,0 1.43443,-0.251 2,-0.78984 2,-2.95674 v -4.09147 c 0,-2.00235 -0.52667,-2.70295 -2,-2.97272 -14.30734,-2.5038 -26.88483,-2.36237 -39.99999,0 z"
           style="opacity:0.2;fill:#000000;stroke-width:0.252848"
           id="path5577"
           sodipodi:nodetypes="cssccsscc" />
        <path
           d="m 358.00002,174.5 11.99999,12 12,-12 z"
           style="opacity:0.2;fill:#000000;stroke-width:1.00001"
           id="path6096" />
        <path
           d="m 347.99978,154.5 h 5.99891 c 1.10573,0 2.00146,0.74614 2.00146,1.66666 v 2.66668 c 0,0.92052 -0.89573,1.66666 -2.00146,1.66666 h -5.99891 c -1.10395,0 -1.99964,-0.74614 -1.99964,-1.66666 v -2.66668 c 0,-0.92052 0.89569,-1.66666 1.99964,-1.66666 z"
           style="opacity:0.2;fill:#000000;stroke-width:0.500004"
           id="path5633"
           sodipodi:nodetypes="sssssssss" />
        <path
           d="m 347.99978,154 h 5.99891 c 1.10573,0 2.00146,0.74614 2.00146,1.66666 v 2.66668 c 0,0.92052 -0.89573,1.66666 -2.00146,1.66666 h -5.99891 c -1.10395,0 -1.99964,-0.74614 -1.99964,-1.66666 v -2.66668 c 0,-0.92052 0.89569,-1.66666 1.99964,-1.66666 z"
           style="fill:#e4e4e4;stroke-width:0.500004"
           id="path5661"
           sodipodi:nodetypes="sssssssss" />
        <path
           id="path5689"
           style="opacity:0.2;fill:#ffffff;stroke-width:0.500004"
           d="m 347.99999,154 c -1.10395,0 -2,0.7455 -2,1.66602 v 0.5 c 0,-0.92052 0.89605,-1.66602 2,-1.66602 h 5.99805 c 1.10573,0 2.00195,0.7455 2.00195,1.66602 v -0.5 c 0,-0.92052 -0.89622,-1.66602 -2.00195,-1.66602 z" />
        <path
           d="m 349.99981,151.82514 c -1.47331,0.26977 -2.00001,0.97037 -2.00001,2.97272 v 4.09147 c 0,2.1669 0.5656,2.70574 2.00001,2.95674 13.50752,2.82922 25.94133,2.91412 39.99999,0 1.43443,-0.251 2,-0.78984 2,-2.95674 v -4.09147 c 0,-2.00235 -0.52667,-2.70295 -2,-2.97272 -14.30734,-2.5038 -26.88483,-2.36237 -39.99999,0 z"
           style="fill:#f64747;stroke-width:0.252848"
           id="path5605"
           sodipodi:nodetypes="cssccsscc" />
        <rect
           style="opacity:1;fill:#ffffff;fill-opacity:1;stroke-width:2;stroke-linecap:square"
           id="rect5793"
           width="11.999939"
           height="5.7970886"
           x="364.00006"
           y="150.20291" />
        <rect
           style="opacity:1;fill:#bfbfbf;fill-opacity:1;stroke-width:2;stroke-linecap:square"
           id="rect5916"
           width="11.999908"
           height="5.9999542"
           x="364.00006"
           y="156" />
        <rect
           style="opacity:1;fill:#868686;fill-opacity:1;stroke-width:2;stroke-linecap:square"
           id="rect5918"
           width="11.999969"
           height="5.9999542"
           x="364"
           y="162" />
        <rect
           style="opacity:1;fill:#636363;fill-opacity:1;stroke-width:2;stroke-linecap:square"
           id="rect6058"
           width="11.999929"
           height="6.0000458"
           x="364.00006"
           y="167.99995" />
        <path
           d="m 357.99991,174 11.99999,12 12,-12 z"
           style="fill:#4a4a4a;stroke-width:1.00001"
           id="path6068"
           sodipodi:nodetypes="cccc" />
        <path
           id="rect6116"
           style="opacity:0.2;fill:#000000;fill-opacity:1;stroke-width:2;stroke-linecap:square"
           d="m 364,156 v 0.5 h 12 V 156 Z m 0,6 v 0.5 h 12 V 162 Z m 0,6 v 0.5 h 12 V 168 Z m 0,6 v 0.5 h 12 V 174 Z" />
        <path
           id="path5745"
           style="opacity:0.2;fill:#ffffff;stroke-width:0.252848"
           d="m 369.55272,150 c -6.57217,0.0177 -12.99516,0.64303 -19.55273,1.82422 -1.47331,0.26977 -2,0.97226 -2,2.97461 v 0.5 c 0,-2.00235 0.52669,-2.70289 2,-2.97266 13.11515,-2.36237 25.69267,-2.5038 40,0 1.47333,0.26977 2,0.97031 2,2.97266 v -0.5 c 0,-2.00235 -0.52667,-2.70484 -2,-2.97461 -7.15366,-1.2519 -13.87509,-1.8419 -20.44727,-1.82422 z" />
      </g>
    </g>
  </g>
  <g
     id="Highlights">
    <path
       id="rect653"
       style="opacity:0.2;fill:#ffffff"
       d="M 80,44 C 53.408027,44 32,65.408027 32,92 v 2 C 32,67.408027 53.408027,46 80,46 h 128 c 26.59197,0 48,21.408027 48,48 V 92 C 256,65.408027 234.59197,44 208,44 Z"
       sodipodi:nodetypes="sscsscsss" />
    <path
       id="rect773"
       style="opacity:0.2;fill:#ffffff"
       d="m 312,34 c -9.97199,0 -18,8.02801 -18,18 v 1 c 0,-9.97199 8.02801,-18 18,-18 h 48 c 9.97199,0 18,8.02801 18,18 v -1 c 0,-9.97199 -8.02801,-18 -18,-18 z" />
    <path
       id="rect1135"
       style="opacity:0.2;fill:#ffffff;fill-opacity:1"
       d="m 304,144 c -6.64799,0 -12,5.35201 -12,12 v 1 c 0,-6.64799 5.35201,-12 12,-12 h 32 c 6.64799,0 12,5.35201 12,12 v -1 c 0,-6.64799 -5.35201,-12 -12,-12 z" />
    <path
       id="rect1265"
       style="opacity:0.2;fill:#ffffff;fill-opacity:1"
       d="m 300,223 c -4.986,0 -9,4.014 -9,9 v 1 c 0,-4.986 4.014,-9 9,-9 h 24 c 4.986,0 9,4.014 9,9 v -1 c 0,-4.986 -4.014,-9 -9,-9 z" />
    <path
       id="rect1368"
       style="opacity:0.2;fill:#ffffff;fill-opacity:1"
       d="m 424,54 c -3.324,0 -6,2.676003 -6,6 v 1 c 0,-3.323997 2.676,-6 6,-6 h 16 c 3.324,0 6,2.676003 6,6 v -1 c 0,-3.323997 -2.676,-6 -6,-6 z" />
    <path
       id="rect1402"
       style="opacity:0.2;fill:#ffffff;fill-opacity:1"
       d="m 420,140 c -2.216,0 -4,1.784 -4,4 v 1 c 0,-2.216 1.784,-4 4,-4 h 8 c 2.216,0 4,1.784 4,4 v -1 c 0,-2.216 -1.784,-4 -4,-4 z" />
    <path
       id="rect1436"
       style="opacity:0.2;fill:#ffffff;fill-opacity:1"
       d="m 422,102 c -2.216,0 -4,1.784 -4,4 v 1 c 0,-2.216 1.784,-4 4,-4 h 12 c 2.216,0 4,1.784 4,4 v -1 c 0,-2.216 -1.784,-4 -4,-4 z" />
  </g>
</svg>
