<?xml version="1.0" encoding="UTF-8" standalone="no"?>
<!-- Created with Inkscape (http://www.inkscape.org/) -->

<svg
   width="480"
   height="300"
   viewBox="0 0 480 300"
   version="1.1"
   id="svg5"
   inkscape:version="1.2.2 (1:1.2.2+202305151914+b0a8486541)"
   sodipodi:docname="ubuntuone.svg"
   xmlns:inkscape="http://www.inkscape.org/namespaces/inkscape"
   xmlns:sodipodi="http://sodipodi.sourceforge.net/DTD/sodipodi-0.dtd"
   xmlns="http://www.w3.org/2000/svg"
   xmlns:svg="http://www.w3.org/2000/svg">
  <sodipodi:namedview
     id="namedview7"
     pagecolor="#888888"
     bordercolor="#000000"
     borderopacity="0.25"
     inkscape:showpageshadow="true"
     inkscape:pageopacity="0"
     inkscape:pagecheckerboard="0"
     inkscape:deskcolor="#888888"
     inkscape:document-units="px"
     showgrid="false"
     showborder="false"
     inkscape:zoom="2.6866667"
     inkscape:cx="240.07444"
     inkscape:cy="150"
     inkscape:window-width="1920"
     inkscape:window-height="1008"
     inkscape:window-x="0"
     inkscape:window-y="0"
     inkscape:window-maximized="1"
     inkscape:current-layer="svg5" />
  <defs
     id="defs2" />
  <g
     id="Baseplate"
     style="display:none">
    <text
       y="19.774782"
       xml:space="preserve"
       x="15.006946"
       style="font-style:normal;font-variant:normal;font-weight:normal;font-stretch:normal;line-height:0%;font-family:'DejaVu Sans';-inkscape-font-specification:'DejaVu Sans';display:inline;fill:#000000;fill-opacity:1;stroke:none;enable-background:new"
       inkscape:label="context"
       id="context"><tspan
         style="font-style:normal;font-variant:normal;font-weight:normal;font-stretch:normal;font-size:18px;line-height:1.25;font-family:'DejaVu Sans';-inkscape-font-specification:'DejaVu Sans'"
         y="19.774782"
         x="15.006946"
         sodipodi:role="line"
         id="tspan3933">apps</tspan></text>
    <text
       y="19.774782"
       xml:space="preserve"
       x="122.48839"
       style="font-style:normal;font-variant:normal;font-weight:bold;font-stretch:normal;line-height:0%;font-family:'DejaVu Sans';-inkscape-font-specification:'DejaVu Sans Bold';text-align:start;writing-mode:lr-tb;text-anchor:start;display:inline;fill:#000000;fill-opacity:1;stroke:none;enable-background:new"
       inkscape:label="icon-name"
       id="icon-name"><tspan
         style="font-style:normal;font-variant:normal;font-weight:bold;font-stretch:normal;font-size:18px;line-height:1.25;font-family:'DejaVu Sans';-inkscape-font-specification:'DejaVu Sans Bold'"
         y="19.774782"
         x="122.48839"
         sodipodi:role="line"
         id="tspan3937">ubuntuone</tspan></text>
    <rect
       style="fill:#ffffff"
       id="256x256"
       width="256"
       height="256"
       x="16"
       y="28" />
    <rect
       style="fill:#ffffff"
       id="96x96"
       width="96"
       height="96"
       x="288"
       y="28" />
    <rect
       style="fill:#ffffff"
       id="64x64"
       width="64"
       height="64"
       x="288"
       y="140" />
    <rect
       style="fill:#ffffff"
       id="48x48"
       width="48"
       height="48"
       x="288"
       y="220" />
    <rect
       style="fill:#ffffff"
       id="32x32"
       width="32"
       height="32"
       x="416"
       y="52" />
    <rect
       style="fill:#ffffff"
       id="24x24"
       width="24"
       height="24"
       x="416"
       y="100" />
    <rect
       style="fill:#ffffff"
       id="22x22"
       width="22"
       height="22"
       x="417"
       y="101" />
    <rect
       style="fill:#ffffff"
       id="16x16"
       width="16"
       height="16"
       x="416"
       y="140" />
  </g>
  <g
     id="Shadow">
    <rect
       style="opacity:0.2;fill:#000000"
       id="rect651"
       width="224"
       height="224"
       x="32"
       y="46"
       ry="48" />
    <rect
       style="opacity:0.2;fill:#000000"
       id="rect769"
       width="84"
       height="85"
       x="294"
       y="34"
       ry="18" />
    <rect
       style="opacity:0.2;fill:#000000;fill-opacity:1"
       id="rect1131"
       width="56"
       height="56"
       x="292"
       y="145"
       ry="12" />
    <rect
       style="opacity:0.2;fill:#000000;fill-opacity:1"
       id="rect1261"
       width="42"
       height="42"
       x="291"
       y="224"
       ry="9" />
    <rect
       style="opacity:0.2;fill:#000000;fill-opacity:1"
       id="rect1364"
       width="28"
       height="29"
       x="418"
       y="54"
       ry="6" />
    <rect
       style="opacity:0.2;fill:#000000;fill-opacity:1"
       id="rect1398"
       width="16"
       height="16"
       x="416"
       y="141"
       ry="4" />
    <rect
       style="opacity:0.2;fill:#000000;fill-opacity:1"
       id="rect1432"
       width="20"
       height="20"
       x="418"
       y="103"
       ry="4" />
  </g>
  <g
     id="Background">
    <rect
       style="fill:#e95420;fill-opacity:1"
       id="rect597"
       width="224"
       height="224"
       x="32"
       y="44"
       ry="48" />
    <rect
       style="opacity:1;fill:#e95420;fill-opacity:1"
       id="rect771"
       width="84"
       height="84"
       x="294"
       y="34"
       ry="18" />
    <rect
       style="opacity:1;fill:#e95420;fill-opacity:1"
       id="rect1133"
       width="56"
       height="56"
       x="292"
       y="144"
       ry="12" />
    <rect
       style="opacity:1;fill:#e95420;fill-opacity:1"
       id="rect1263"
       width="42"
       height="42"
       x="291"
       y="223"
       ry="9" />
    <rect
       style="opacity:1;fill:#e95420;fill-opacity:1"
       id="rect1366"
       width="28"
       height="28"
       x="418"
       y="54"
       ry="6" />
    <rect
       style="opacity:1;fill:#e95420;fill-opacity:1"
       id="rect1400"
       width="16"
       height="16"
       x="416"
       y="140"
       ry="4" />
    <rect
       style="opacity:1;fill:#e95420;fill-opacity:1"
       id="rect1434"
       width="20"
       height="20"
       x="418"
       y="102"
       ry="4" />
  </g>
  <g
     id="g1536">
    <path
       d="m 423.28573,153.48014 c -0.27183,-0.0342 -0.79027,-0.16232 -1.03318,-0.25532 -1.00003,-0.38285 -1.72824,-1.1451 -2.04291,-2.13842 -0.17616,-0.55608 -0.17521,-0.53629 -0.19982,-4.15515 -0.0137,-2.00846 -0.009,-3.43125 -0.009,-3.43125 h 3.05349 l -1.23551,3 h 1.18115 v 4 h 2 v -7 h 3 c 0,0 -2.8e-4,2.21437 -3e-5,4.78778 3.6e-4,4.42392 -0.002,4.68052 -0.0557,4.7082 -0.14183,0.0738 -1.62858,0.33234 -2.51516,0.43734 -0.5085,0.0602 -1.81099,0.0887 -2.14357,0.0468 z"
       style="opacity:0.2;fill:#000000"
       id="path1514"
       sodipodi:nodetypes="csssccccccccscscc" />
    <path
       d="m 423.28573,152.98014 c -0.27183,-0.0342 -0.79027,-0.16232 -1.03318,-0.25532 -1.00003,-0.38285 -1.72824,-1.1451 -2.04291,-2.13842 -0.17616,-0.55608 -0.17521,-0.53629 -0.19982,-4.15515 -0.0137,-2.00846 -0.009,-3.43125 -0.009,-3.43125 h 3.05349 l -1.23551,3 h 1.18115 v 4 h 2 v -7 h 3 c 0,0 -2.8e-4,2.21437 -3e-5,4.78778 3.6e-4,4.42392 -0.002,4.68052 -0.0557,4.7082 -0.14183,0.0738 -1.62858,0.33234 -2.51516,0.43734 -0.5085,0.0602 -1.81099,0.0887 -2.14357,0.0468 z"
       style="fill:#ffffff"
       id="path966"
       sodipodi:nodetypes="csssccccccccscscc" />
  </g>
  <g
     id="g1970">
    <path
       d="m 426.51758,120.4722 c -0.37378,-0.0479 -1.08663,-0.22725 -1.42062,-0.35744 -1.37505,-0.53599 -2.37634,-1.60314 -2.80901,-2.9938 -0.24222,-0.77851 -0.24091,-1.7508 -0.27475,-6.81721 -0.0188,-2.81185 -0.012,-4.80375 -0.012,-4.80375 h 4.14906 l -1.64933,4 h 1.49984 v 7 h 2.99924 v -11 h 4 c 0,0 -3.8e-4,3.10012 -4e-5,6.7029 5e-4,6.19349 -0.003,7.55274 -0.0767,7.59149 -0.19502,0.10334 -2.2393,0.46527 -3.45835,0.61227 -0.69919,0.0843 -2.49011,0.12415 -2.94741,0.0656 z"
       style="fill:#000000;opacity:0.2"
       id="path1767" />
    <path
       d="m 426.51758,119.9722 c -0.37378,-0.0479 -1.08663,-0.22725 -1.42062,-0.35744 -1.37505,-0.53599 -2.37634,-1.60314 -2.80901,-2.9938 -0.24222,-0.77851 -0.24091,-1.7508 -0.27475,-6.81721 C 421.9944,106.9919 422.0012,105 422.0012,105 h 4.14906 l -1.64933,4 h 1.49984 v 7 h 2.99924 v -11 h 4 c 0,0 -3.8e-4,3.10012 -4e-5,6.7029 5e-4,6.19349 -0.003,7.55274 -0.0767,7.59149 -0.19502,0.10334 -2.2393,0.46527 -3.45835,0.61227 -0.69919,0.0843 -2.49011,0.12415 -2.94741,0.0656 z"
       style="fill:#ffffff"
       id="path1739"
       sodipodi:nodetypes="csssccccccccscscc" />
  </g>
  <g
     id="g1596"
     transform="matrix(2.0000229,0,0,2.0000229,-416.0097,-228.00339)">
    <path
       d="m 423.28573,153.48014 c -0.27183,-0.0342 -0.79027,-0.16232 -1.03318,-0.25532 -1.00003,-0.38285 -1.72824,-1.1451 -2.04291,-2.13842 -0.17616,-0.55608 -0.17521,-0.53629 -0.19982,-4.15515 -0.0137,-2.00846 -0.009,-3.43125 -0.009,-3.43125 h 3.05349 l -1.23551,3 h 1.18115 v 4 h 2 v -7 h 3 c 0,0 -2.8e-4,2.21437 -3e-5,4.78778 3.6e-4,4.42392 -0.002,4.68052 -0.0557,4.7082 -0.14183,0.0738 -1.62858,0.33234 -2.51516,0.43734 -0.5085,0.0602 -1.81099,0.0887 -2.14357,0.0468 z"
       style="opacity:0.2;fill:#000000"
       id="path1546"
       sodipodi:nodetypes="csssccccccccscscc" />
    <path
       d="m 423.28573,152.98014 c -0.27183,-0.0342 -0.79027,-0.16232 -1.03318,-0.25532 -1.00003,-0.38285 -1.72824,-1.1451 -2.04291,-2.13842 -0.17616,-0.55608 -0.17521,-0.53629 -0.19982,-4.15515 -0.0137,-2.00846 -0.009,-3.43125 -0.009,-3.43125 h 3.05349 l -1.23551,3 h 1.18115 v 4 h 2 v -7 h 3 c 0,0 -2.8e-4,2.21437 -3e-5,4.78778 3.6e-4,4.42392 -0.002,4.68052 -0.0557,4.7082 -0.14183,0.0738 -1.62858,0.33234 -2.51516,0.43734 -0.5085,0.0602 -1.81099,0.0887 -2.14357,0.0468 z"
       style="opacity:1;fill:#ffffff"
       id="path1574"
       sodipodi:nodetypes="csssccccccccccscc" />
  </g>
  <g
     id="g2371">
    <path
       d="m 309.85717,259.94076 c -0.81549,-0.1026 -2.37083,-0.48696 -3.09957,-0.76597 -3.00012,-1.14856 -5.18479,-3.43534 -6.12881,-6.41533 -0.52848,-1.66826 -0.52563,-1.60889 -0.59946,-12.4656 C 299.98823,234.26841 300.00233,230 300.00233,230 h 9.16058 l -3.70658,9.0001 h 3.5435 v 12.00014 h 6.00006 V 230 H 324 c 0,0 -7.5e-4,6.64318 -9e-5,14.3635 7.5e-4,13.27191 -0.006,14.04173 -0.16711,14.12477 -0.42548,0.22139 -4.8858,0.99703 -7.54557,1.31203 -1.52552,0.1806 -5.43302,0.26611 -6.43078,0.1404 z"
       style="fill:#000000;stroke-width:1.5;opacity:0.2"
       id="path2349" />
    <path
       d="m 309.85717,258.9406 c -0.81549,-0.1026 -2.37083,-0.48696 -3.09957,-0.76597 -3.00012,-1.14856 -5.18479,-3.43534 -6.12881,-6.41533 -0.52848,-1.66826 -0.52563,-1.60889 -0.59946,-12.4656 -0.0411,-6.02545 -0.027,-10.29386 -0.027,-10.29386 h 9.16058 l -3.70658,9.0001 h 3.5435 v 12.00014 h 6.00006 V 228.99984 H 324 c 0,0 -7.5e-4,6.64318 -9e-5,14.3635 7.5e-4,13.27191 -0.006,14.04173 -0.16711,14.12477 -0.42548,0.22139 -4.8858,0.99703 -7.54557,1.31203 -1.52552,0.1806 -5.43302,0.26611 -6.43078,0.1404 z"
       style="fill:#ffffff;stroke-width:1.5"
       id="path2321"
       sodipodi:nodetypes="csscccccccccccscc" />
  </g>
  <g
     id="g2270">
    <path
       d="m 304.00391,153 c 0,0 -0.0197,5.69077 0.0351,13.72461 0.0984,14.47543 0.0942,14.39678 0.79883,16.62109 1.25871,3.97328 4.17168,7.02133 8.17188,8.55274 0.97166,0.372 3.04548,0.88468 4.13281,1.02148 1.33036,0.16759 6.54017,0.0533 8.57422,-0.1875 3.54639,-0.42 9.49322,-1.45286 10.06054,-1.74804 C 335.99215,190.87365 336.001,189.84607 336,172.15039 335.99912,161.85675 336,153 336,153 h -12 v 28 h -8 v -16 h -4.72461 l 4.94141,-12 z"
       style="fill:#000000;stroke-width:2;opacity:0.2"
       id="path2022" />
    <path
       id="path1961"
       style="fill:#ffffff;stroke-width:2"
       d="m 304.00391,152 c 0,0 -0.0197,5.69077 0.0351,13.72461 0.0984,14.47543 0.0942,14.39678 0.79883,16.62109 1.25871,3.97328 4.17168,7.02133 8.17188,8.55274 0.97166,0.372 3.04548,0.88468 4.13281,1.02148 1.33036,0.16759 6.54017,0.0533 8.57422,-0.1875 3.54639,-0.42 9.49322,-1.45286 10.06054,-1.74804 C 335.99215,189.87365 336.001,188.84607 336,171.15039 335.99912,160.85675 336,152 336,152 h -12 v 28 h -8 v -16 h -4.72461 l 4.94141,-12 z"
       sodipodi:nodetypes="ccsscccccccccccc" />
  </g>
  <g
     id="g2435"
     transform="matrix(1.9999996,0,0,1.9999996,-287.99987,-412.00007)">
    <path
       d="m 309.85717,259.44076 c -0.81549,-0.1026 -2.37083,-0.48696 -3.09957,-0.76597 -3.00012,-1.14856 -5.18479,-3.43534 -6.12881,-6.41533 -0.52848,-1.66826 -0.52563,-1.60889 -0.59946,-12.4656 -0.0411,-6.02545 -0.027,-10.29386 -0.027,-10.29386 h 9.16058 l -3.70658,9.0001 h 3.5435 v 12.00014 h 6.00006 V 229.5 H 324 c 0,0 -7.5e-4,6.64318 -9e-5,14.3635 7.5e-4,13.27191 -0.006,14.04173 -0.16711,14.12477 -0.42548,0.22139 -4.8858,0.99703 -7.54557,1.31203 -1.52552,0.1806 -5.43302,0.26611 -6.43078,0.1404 z"
       style="opacity:0.2;fill:#000000;stroke-width:1.5"
       id="path2413" />
    <path
       d="m 309.85717,258.9406 c -0.81549,-0.1026 -2.37083,-0.48696 -3.09957,-0.76597 -3.00012,-1.14856 -5.18479,-3.43534 -6.12881,-6.41533 -0.52848,-1.66826 -0.52563,-1.60889 -0.59946,-12.4656 -0.0411,-6.02545 -0.027,-10.29386 -0.027,-10.29386 h 9.16058 l -3.70658,9.0001 h 3.5435 v 12.00014 h 6.00006 V 228.99984 H 324 c 0,0 -7.5e-4,6.64318 -9e-5,14.3635 7.5e-4,13.27191 -0.006,14.04173 -0.16711,14.12477 -0.42548,0.22139 -4.8858,0.99703 -7.54557,1.31203 -1.52552,0.1806 -5.43302,0.26611 -6.43078,0.1404 z"
       style="fill:#ffffff;stroke-width:1.5"
       id="path2385"
       sodipodi:nodetypes="csscccccccccccscc" />
  </g>
  <g
     id="g2375">
    <path
       d="m 132.56812,237.68215 c -4.34936,-0.54736 -12.64436,-2.59716 -16.53084,-4.08504 -16.00052,-6.12556 -27.65187,-18.3216 -32.68667,-34.2148 -2.81852,-8.89732 -2.80332,-8.58056 -3.19708,-66.48231 -0.2188,-32.13544 -0.1396,-54.900001 -0.1396,-54.900001 h 48.27991 l -19.19216,39.999961 h 18.89836 v 79.99991 h 36 V 77.999999 h 44 c 0,0 -0.004,35.429921 -4e-4,76.604471 0.004,70.78272 -0.04,74.88836 -0.89216,75.33124 -2.2694,1.18112 -26.0574,5.3174 -40.24264,6.99744 -8.136,0.9636 -28.97588,1.41884 -34.29712,0.74928 z"
       style="fill:#000000;stroke-width:4;opacity:0.2"
       id="path2293" />
    <path
       d="m 132.56812,235.68215 c -4.34936,-0.54736 -12.64436,-2.59716 -16.53084,-4.08504 -16.00052,-6.12556 -27.651877,-18.3216 -32.686677,-34.2148 -2.81852,-8.89732 -2.80332,-8.58056 -3.19708,-66.48231 -0.2188,-32.135441 -0.1396,-54.900001 -0.1396,-54.900001 h 48.279917 l -19.19216,39.999961 h 18.89836 v 79.99991 h 36 V 75.999999 h 44 c 0,0 -0.004,35.429921 -4e-4,76.604471 0.004,70.78272 -0.04,74.88836 -0.89216,75.33124 -2.2694,1.18112 -26.0574,5.3174 -40.24264,6.99744 -8.136,0.9636 -28.97588,1.41884 -34.29712,0.74928 z"
       style="fill:#ffffff;stroke-width:4"
       id="path2234"
       sodipodi:nodetypes="csccccccccccccscc" />
  </g>
  <g
     id="Highlights">
    <path
       id="rect653"
       style="opacity:0.2;fill:#ffffff"
       d="M 80,44 C 53.408027,44 32,65.408027 32,92 v 2 C 32,67.408027 53.408027,46 80,46 h 128 c 26.59197,0 48,21.408027 48,48 V 92 C 256,65.408027 234.59197,44 208,44 Z"
       sodipodi:nodetypes="sscsscsss" />
    <path
       id="rect773"
       style="opacity:0.2;fill:#ffffff"
       d="m 312,34 c -9.97199,0 -18,8.02801 -18,18 v 1 c 0,-9.97199 8.02801,-18 18,-18 h 48 c 9.97199,0 18,8.02801 18,18 v -1 c 0,-9.97199 -8.02801,-18 -18,-18 z" />
    <path
       id="rect1135"
       style="opacity:0.2;fill:#ffffff;fill-opacity:1"
       d="m 304,144 c -6.64799,0 -12,5.35201 -12,12 v 1 c 0,-6.64799 5.35201,-12 12,-12 h 32 c 6.64799,0 12,5.35201 12,12 v -1 c 0,-6.64799 -5.35201,-12 -12,-12 z" />
    <path
       id="rect1265"
       style="opacity:0.2;fill:#ffffff;fill-opacity:1"
       d="m 300,223 c -4.986,0 -9,4.014 -9,9 v 1 c 0,-4.986 4.014,-9 9,-9 h 24 c 4.986,0 9,4.014 9,9 v -1 c 0,-4.986 -4.014,-9 -9,-9 z" />
    <path
       id="rect1368"
       style="opacity:0.2;fill:#ffffff;fill-opacity:1"
       d="m 424,54 c -3.324,0 -6,2.676003 -6,6 v 1 c 0,-3.323997 2.676,-6 6,-6 h 16 c 3.324,0 6,2.676003 6,6 v -1 c 0,-3.323997 -2.676,-6 -6,-6 z" />
    <path
       id="rect1402"
       style="opacity:0.2;fill:#ffffff;fill-opacity:1"
       d="m 420,140 c -2.216,0 -4,1.784 -4,4 v 1 c 0,-2.216 1.784,-4 4,-4 h 8 c 2.216,0 4,1.784 4,4 v -1 c 0,-2.216 -1.784,-4 -4,-4 z" />
    <path
       id="rect1436"
       style="opacity:0.2;fill:#ffffff;fill-opacity:1"
       d="m 422,102 c -2.216,0 -4,1.784 -4,4 v 1 c 0,-2.216 1.784,-4 4,-4 h 12 c 2.216,0 4,1.784 4,4 v -1 c 0,-2.216 -1.784,-4 -4,-4 z" />
  </g>
</svg>
