<?xml version="1.0" encoding="UTF-8" standalone="no"?>
<!-- Created with Inkscape (http://www.inkscape.org/) -->

<svg
   width="480"
   height="300"
   viewBox="0 0 480 300"
   version="1.1"
   id="svg5"
   inkscape:version="1.2.2 (1:1.2.2+202305151914+b0a8486541)"
   sodipodi:docname="visual-studio-code-exploration.svg"
   xmlns:inkscape="http://www.inkscape.org/namespaces/inkscape"
   xmlns:sodipodi="http://sodipodi.sourceforge.net/DTD/sodipodi-0.dtd"
   xmlns="http://www.w3.org/2000/svg"
   xmlns:svg="http://www.w3.org/2000/svg">
  <sodipodi:namedview
     id="namedview7"
     pagecolor="#888888"
     bordercolor="#000000"
     borderopacity="0.25"
     inkscape:showpageshadow="true"
     inkscape:pageopacity="0"
     inkscape:pagecheckerboard="0"
     inkscape:deskcolor="#888888"
     inkscape:document-units="px"
     showgrid="false"
     showborder="false"
     inkscape:zoom="2.6866667"
     inkscape:cx="240.07444"
     inkscape:cy="150"
     inkscape:window-width="1920"
     inkscape:window-height="1008"
     inkscape:window-x="0"
     inkscape:window-y="0"
     inkscape:window-maximized="1"
     inkscape:current-layer="svg5" />
  <defs
     id="defs2" />
  <g
     id="Baseplate"
     style="display:none">
    <text
       y="19.774782"
       xml:space="preserve"
       x="15.006946"
       style="font-style:normal;font-variant:normal;font-weight:normal;font-stretch:normal;line-height:0%;font-family:'DejaVu Sans';-inkscape-font-specification:'DejaVu Sans';display:inline;fill:#000000;fill-opacity:1;stroke:none;enable-background:new"
       inkscape:label="context"
       id="context"><tspan
         style="font-style:normal;font-variant:normal;font-weight:normal;font-stretch:normal;font-size:18px;line-height:1.25;font-family:'DejaVu Sans';-inkscape-font-specification:'DejaVu Sans'"
         y="19.774782"
         x="15.006946"
         sodipodi:role="line"
         id="tspan3933">apps</tspan></text>
    <text
       y="19.774782"
       xml:space="preserve"
       x="122.48839"
       style="font-style:normal;font-variant:normal;font-weight:bold;font-stretch:normal;line-height:0%;font-family:'DejaVu Sans';-inkscape-font-specification:'DejaVu Sans Bold';text-align:start;writing-mode:lr-tb;text-anchor:start;display:inline;fill:#000000;fill-opacity:1;stroke:none;enable-background:new"
       inkscape:label="icon-name"
       id="icon-name"><tspan
         style="font-style:normal;font-variant:normal;font-weight:bold;font-stretch:normal;font-size:18px;line-height:1.25;font-family:'DejaVu Sans';-inkscape-font-specification:'DejaVu Sans Bold'"
         y="19.774782"
         x="122.48839"
         sodipodi:role="line"
         id="tspan3937">visual-studio-code-exploration</tspan></text>
    <rect
       style="fill:#ffffff"
       id="256x256"
       width="256"
       height="256"
       x="16"
       y="28" />
    <rect
       style="fill:#ffffff"
       id="96x96"
       width="96"
       height="96"
       x="288"
       y="28" />
    <rect
       style="fill:#ffffff"
       id="64x64"
       width="64"
       height="64"
       x="288"
       y="140" />
    <rect
       style="fill:#ffffff"
       id="48x48"
       width="48"
       height="48"
       x="288"
       y="220" />
    <rect
       style="fill:#ffffff"
       id="32x32"
       width="32"
       height="32"
       x="416"
       y="52" />
    <rect
       style="fill:#ffffff"
       id="24x24"
       width="24"
       height="24"
       x="416"
       y="100" />
    <rect
       style="fill:#ffffff"
       id="22x22"
       width="22"
       height="22"
       x="417"
       y="101" />
    <rect
       style="fill:#ffffff"
       id="16x16"
       width="16"
       height="16"
       x="416"
       y="140" />
  </g>
  <g
     id="Shadow">
    <rect
       style="opacity:0.2;fill:#000000"
       id="rect651"
       width="224"
       height="224"
       x="32"
       y="46"
       ry="48" />
    <rect
       style="opacity:0.2;fill:#000000"
       id="rect769"
       width="84"
       height="85"
       x="294"
       y="34"
       ry="18" />
    <rect
       style="opacity:0.2;fill:#000000;fill-opacity:1"
       id="rect1131"
       width="56"
       height="56"
       x="292"
       y="145"
       ry="12" />
    <rect
       style="opacity:0.2;fill:#000000;fill-opacity:1"
       id="rect1261"
       width="42"
       height="42"
       x="291"
       y="224"
       ry="9" />
    <rect
       style="opacity:0.2;fill:#000000;fill-opacity:1"
       id="rect1364"
       width="28"
       height="29"
       x="418"
       y="54"
       ry="6" />
    <rect
       style="opacity:0.2;fill:#000000;fill-opacity:1"
       id="rect1398"
       width="16"
       height="16"
       x="416"
       y="141"
       ry="4" />
    <rect
       style="opacity:0.2;fill:#000000;fill-opacity:1"
       id="rect1432"
       width="20"
       height="20"
       x="418"
       y="103"
       ry="4" />
  </g>
  <g
     id="Background">
    <rect
       style="fill:#4f4f4f;fill-opacity:1"
       id="rect597"
       width="224"
       height="224"
       x="32"
       y="44"
       ry="48" />
    <rect
       style="opacity:1;fill:#4f4f4f;fill-opacity:1"
       id="rect771"
       width="84"
       height="84"
       x="294"
       y="34"
       ry="18" />
    <rect
       style="opacity:1;fill:#4f4f4f;fill-opacity:1"
       id="rect1133"
       width="56"
       height="56"
       x="292"
       y="144"
       ry="12" />
    <rect
       style="opacity:1;fill:#4f4f4f;fill-opacity:1"
       id="rect1263"
       width="42"
       height="42"
       x="291"
       y="223"
       ry="9" />
    <rect
       style="opacity:1;fill:#4f4f4f;fill-opacity:1"
       id="rect1366"
       width="28"
       height="28"
       x="418"
       y="54"
       ry="6" />
    <rect
       style="opacity:1;fill:#4f4f4f;fill-opacity:1"
       id="rect1400"
       width="16"
       height="16"
       x="416"
       y="140"
       ry="4" />
    <rect
       style="opacity:1;fill:#4f4f4f;fill-opacity:1"
       id="rect1434"
       width="20"
       height="20"
       x="418"
       y="102"
       ry="4" />
  </g>
  <g
     id="Symbols">
    <g
       id="g5360">
      <path
         d="m 428.64633,144.55921 -2.05917,-0.99721 c -0.23833,-0.11543 -0.5232,-0.0667 -0.71027,0.1214 l -6.74102,6.10692 c -0.18131,0.16628 -0.18111,0.45339 4.5e-4,0.6194 l 0.55063,0.50346 c 0.14842,0.13574 0.37197,0.14571 0.53178,0.0238 l 8.11775,-6.11907 c 0.27233,-0.2078 0.6635,-0.0124 0.6635,0.33139 v -0.0241 c 0,-0.24135 -0.13745,-0.46135 -0.35365,-0.56605 z"
         style="fill:#000000;stroke-width:0.625;opacity:0.2"
         id="path5247" />
      <path
         d="m 426.58728,153.4381 c -0.23842,0.11531 -0.52328,0.0666 -0.71035,-0.12157 0.23048,0.23182 0.12507,-0.48868 0.12507,-0.81653 v -8 c 0,-0.32786 0.10541,-1.04834 -0.12507,-0.8165 0.18707,-0.18816 0.47193,-0.23692 0.71035,-0.12159 l 2.05881,0.99584 c 0.21636,0.10464 0.35392,0.32473 0.35392,0.56617 v 6.75221 c 0,0.24144 -0.13756,0.46152 -0.35392,0.56616 z"
         style="fill:#000000;stroke-width:0.625;opacity:0.2"
         id="path5275" />
      <path
         style="fill:#e87d1b;stroke-width:0.625;fill-opacity:1"
         d="m 428.64633,144.05932 -2.05917,-0.99721 c -0.23833,-0.11543 -0.5232,-0.0667 -0.71027,0.1214 l -6.74102,6.10692 c -0.18131,0.16628 -0.18111,0.45339 4.5e-4,0.6194 l 0.55063,0.50346 c 0.14842,0.13574 0.37197,0.14571 0.53178,0.0238 l 8.11775,-6.11907 c 0.27233,-0.2078 0.6635,-0.0124 0.6635,0.33139 v -0.0241 c 0,-0.24135 -0.13745,-0.46135 -0.35365,-0.56605 z"
         id="path4238"
         sodipodi:nodetypes="cccccccccscc" />
      <path
         id="path5303"
         style="fill:#000000;stroke-width:0.625;opacity:0.2"
         d="m 419.94922,145.75343 c -0.0944,0.004 -0.18751,0.0396 -0.26172,0.10742 l -0.55078,0.5039 c -0.18156,0.16601 -0.18131,0.45287 0,0.61915 l 6.74023,6.33203 c 0.0122,0.0123 0.0261,0.0221 0.0391,0.0332 0.17832,0.11066 0.0859,-0.54225 0.0859,-0.84961 v -2.14258 l -5.7832,-4.51953 c -0.0799,-0.061 -0.17512,-0.0882 -0.26953,-0.084 z" />
      <path
         id="path5135"
         style="fill:#ffffff;stroke-width:0.625;opacity:0.1"
         d="M 426.30664 143 C 426.14856 143.00263 425.99387 143.06603 425.87695 143.18359 L 419.13672 149.29102 C 418.97534 149.43902 418.95786 149.68075 419.08398 149.84961 C 419.0995 149.82879 419.11684 149.80925 419.13672 149.79102 L 425.87695 143.68359 C 426.06402 143.49549 426.34956 143.44707 426.58789 143.5625 L 428.26367 144.37305 L 428.33594 144.31836 C 428.60827 144.11056 429 144.30465 429 144.64844 L 429 144.625 C 429 144.38365 428.86268 144.16329 428.64648 144.05859 L 426.58789 143.0625 C 426.49852 143.01921 426.40149 142.99842 426.30664 143 z " />
      <path
         style="fill:#ff910c;stroke-width:0.625;fill-opacity:1"
         d="m 428.64633,151.94073 -2.05917,0.99721 c -0.23833,0.1154 -0.5232,0.0667 -0.71027,-0.12141 l -6.74102,-6.33195 c -0.18131,-0.16628 -0.18111,-0.45339 4.5e-4,-0.6194 l 0.55063,-0.50348 c 0.14842,-0.13572 0.37197,-0.14571 0.53178,-0.0238 l 8.11775,6.34408 c 0.27233,0.20778 0.6635,0.0124 0.6635,-0.3314 v 0.0241 c 0,0.24131 -0.13745,0.46132 -0.35365,0.56604 z"
         id="path4240"
         sodipodi:nodetypes="cccccccccscc" />
      <path
         id="path5191"
         style="fill:#ffffff;stroke-width:0.625;opacity:0.1"
         d="M 419.94922 145.25391 C 419.8548 145.25813 419.76171 145.29347 419.6875 145.36133 L 419.13672 145.86523 C 418.97507 146.01304 418.95799 146.25673 419.08398 146.42578 C 419.09956 146.40493 419.11676 146.38348 419.13672 146.36523 L 419.6875 145.86133 C 419.83592 145.72561 420.05894 145.71598 420.21875 145.83789 L 428.26562 152.12695 L 428.64648 151.94141 C 428.86268 151.83669 429 151.61631 429 151.375 L 429 151.34961 C 429 151.69341 428.60827 151.88942 428.33594 151.68164 L 420.21875 145.33789 C 420.13885 145.27694 420.04363 145.24968 419.94922 145.25391 z " />
      <path
         style="fill:#ffab44;stroke-width:0.625;fill-opacity:1"
         d="m 426.58728,152.9381 c -0.23842,0.11531 -0.52328,0.0666 -0.71035,-0.12157 0.23048,0.23182 0.12507,-0.48868 0.12507,-0.81653 v -8 c 0,-0.32786 0.10541,-1.04834 -0.12507,-0.8165 0.18707,-0.18816 0.47193,-0.23692 0.71035,-0.12159 l 2.05881,0.99584 c 0.21636,0.10464 0.35392,0.32473 0.35392,0.56617 v 6.75221 c 0,0.24144 -0.13756,0.46152 -0.35392,0.56616 z"
         id="path4242"
         sodipodi:nodetypes="ccsscccsscc" />
      <path
         id="path5079"
         style="fill:#ffffff;stroke-width:0.625;opacity:0.2"
         d="M 426.30664 143 C 426.16503 143.00239 426.02753 143.05529 425.91602 143.15039 C 426.02867 143.08047 426.03344 143.31637 426.02148 143.57617 C 426.19407 143.48228 426.40473 143.4739 426.58789 143.5625 L 428.64648 144.55859 C 428.86284 144.66323 429 144.88161 429 145.12305 L 429 144.62305 C 429 144.38161 428.86284 144.16323 428.64648 144.05859 L 426.58789 143.0625 C 426.49848 143.01925 426.4015 142.9984 426.30664 143 z M 426.01367 143.73438 C 426.00805 143.83214 426.00195 143.92653 426.00195 144 L 426.00195 144.5 C 426.00195 144.28689 426.04579 143.90989 426.01367 143.73438 z M 426.01367 152.76562 C 425.99952 152.84377 425.97088 152.88365 425.91602 152.84961 C 425.9492 152.87791 425.98406 152.90347 426.02148 152.92383 C 426.01904 152.87069 426.01671 152.81848 426.01367 152.76562 z " />
    </g>
    <g
       id="g4991">
      <path
         d="m 431.37952,119.40731 c -0.35761,0.17296 -0.78491,0.0999 -1.06552,-0.18235 0.34572,0.34772 0.68451,0.10142 0.68451,-0.39035 v -12.66889 c 0,-0.49177 -0.33879,-0.73806 -0.68451,-0.39032 0.28061,-0.28221 0.70791,-0.35536 1.06552,-0.18237 l 3.08823,1.49367 c 0.32452,0.15696 0.53088,0.48707 0.53088,0.84921 v 9.12857 c 0,0.36215 -0.20636,0.69225 -0.53088,0.8492 z"
         style="fill:#000000;stroke-width:0.937477;opacity:0.2"
         id="path4794" />
      <path
         d="m 434.46929,107.08893 -3.08874,-1.49592 c -0.3575,-0.17315 -0.7848,-0.10011 -1.0654,0.18212 l -9.11135,8.66062 c -0.27197,0.24944 -0.27166,0.68014 4.6e-4,0.92918 l 0.82595,0.75523 c 0.22265,0.20363 0.55795,0.21859 0.79767,0.0357 l 11.17643,-8.67885 c 0.40851,-0.31173 0.99526,-0.0186 0.99526,0.49711 v -0.0361 c 0,-0.36204 -0.20618,-0.69207 -0.53048,-0.84912 z"
         style="fill:#000000;stroke-width:0.937535;opacity:0.2"
         id="path4598"
         sodipodi:nodetypes="cscccccccscc" />
      <path
         d="m 434.46929,106.58893 -3.08874,-1.49592 c -0.3575,-0.17315 -0.7848,-0.10011 -1.0654,0.18212 l -9.11135,8.66062 c -0.27197,0.24944 -0.27166,0.68014 4.6e-4,0.92918 l 0.82595,0.75523 c 0.22265,0.20363 0.55795,0.21859 0.79767,0.0357 l 11.17643,-8.67885 c 0.40851,-0.31173 0.99526,-0.0186 0.99526,0.49711 v -0.0361 c 0,-0.36204 -0.20618,-0.69207 -0.53048,-0.84912 z"
         style="fill:#e87d1b;stroke-width:0.937535;fill-opacity:1"
         id="path4850"
         sodipodi:nodetypes="cscccccccscc" />
      <path
         id="path4934"
         style="fill:#ffffff;stroke-width:0.937535;opacity:0.1"
         d="M 430.96094 105 C 430.72381 105.00393 430.48983 105.099 430.31445 105.27539 L 421.20312 113.93555 C 420.99915 114.12263 420.94864 114.4125 421.05078 114.65039 C 421.08475 114.57104 421.13513 114.49791 421.20312 114.43555 L 430.31445 105.77539 C 430.59505 105.49316 431.02336 105.4206 431.38086 105.59375 L 434.10742 106.91406 C 434.50457 106.71649 435 107.00114 435 107.47461 L 435 107.4375 C 435 107.07546 434.79305 106.74689 434.46875 106.58984 L 431.38086 105.09375 C 431.2468 105.02882 431.10321 104.99764 430.96094 105 z " />
      <path
         id="path4710"
         style="fill:#000000;stroke-width:0.937535;opacity:0.2"
         d="M 422.42188 108.37891 C 422.28025 108.38524 422.14062 108.44117 422.0293 108.54297 L 421.20508 109.29688 C 420.93296 109.5459 420.93116 109.97713 421.20312 110.22656 L 430.31445 119.22461 C 430.34092 119.25124 430.36954 119.274 430.39844 119.29688 C 430.40153 119.29916 430.40511 119.30054 430.4082 119.30273 C 430.71902 119.52379 430.99805 119.28125 430.99805 118.83398 L 430.99805 115.09766 L 422.82812 108.50586 C 422.70827 108.41441 422.5635 108.37257 422.42188 108.37891 z M 435 117.02539 C 435 117.03345 434.99833 117.04088 434.99805 117.04883 L 434.99805 117.06445 C 434.99805 117.10972 434.99456 117.15523 434.98828 117.19922 C 434.99495 117.1539 435 117.10918 435 117.0625 L 435 117.02539 z M 434.98828 117.19922 C 434.982 117.24321 434.97315 117.28596 434.96094 117.32812 C 434.97309 117.28654 434.9819 117.2426 434.98828 117.19922 z " />
      <path
         d="m 434.46929,117.41109 -3.08874,1.49593 c -0.3575,0.17311 -0.7848,0.10006 -1.0654,-0.18214 l -9.11135,-8.99821 c -0.27197,-0.24943 -0.27166,-0.68014 4.6e-4,-0.92917 l 0.82595,-0.75526 c 0.22265,-0.2036 0.55795,-0.21859 0.79767,-0.0357 l 11.17643,9.01642 c 0.40851,0.3117 0.99526,0.0187 0.99526,-0.49713 v 0.0361 c 0,0.36201 -0.20618,0.69204 -0.53048,0.84912 z"
         style="fill:#ff910c;stroke-width:0.937535;fill-opacity:1"
         id="path4626"
         sodipodi:nodetypes="cccccscccscc" />
      <path
         id="path4878"
         style="fill:#ffffff;stroke-width:0.937535;opacity:0.1"
         d="M 422.42188 107.87891 C 422.28025 107.88524 422.14062 107.94117 422.0293 108.04297 L 421.20508 108.79688 C 421.00099 108.98365 420.94889 109.27368 421.05078 109.51172 C 421.08483 109.43301 421.13749 109.35873 421.20508 109.29688 L 422.0293 108.54297 C 422.25195 108.33937 422.58841 108.32297 422.82812 108.50586 L 434.00391 117.52344 C 434.0368 117.54854 434.07066 117.56848 434.10547 117.58594 L 434.46875 117.41016 C 434.79305 117.25308 435 116.92451 435 116.5625 L 435 116.52539 C 435 117.04122 434.41242 117.33514 434.00391 117.02344 L 422.82812 108.00586 C 422.70827 107.91441 422.5635 107.87257 422.42188 107.87891 z " />
      <path
         d="m 431.38072,118.90714 c -0.35761,0.17296 -0.78491,0.0999 -1.06552,-0.18235 0.34572,0.34772 0.68451,0.10142 0.68451,-0.39035 v -12.66889 c 0,-0.49177 -0.33879,-0.73806 -0.68451,-0.39032 0.28061,-0.28221 0.70791,-0.35536 1.06552,-0.18237 l 3.08823,1.49367 c 0.32452,0.15696 0.53088,0.48707 0.53088,0.84921 v 9.12857 c 0,0.36215 -0.20636,0.69225 -0.53088,0.8492 z"
         style="fill:#ffab44;stroke-width:0.937477;fill-opacity:1"
         id="path4542"
         sodipodi:nodetypes="scssccsssss" />
      <path
         id="path4738"
         style="fill:#ffffff;stroke-width:0.937477;opacity:0.2"
         d="M 430.96094 105 C 430.76234 105.00335 430.56755 105.07199 430.40625 105.19727 C 430.67692 105.00366 430.92622 105.16271 430.98633 105.50195 C 431.12031 105.50335 431.25473 105.53273 431.38086 105.59375 L 434.46875 107.08594 C 434.79327 107.2429 435 107.57341 435 107.93555 L 435 107.43555 C 435 107.07341 434.79327 106.7429 434.46875 106.58594 L 431.38086 105.09375 C 431.24676 105.02888 431.10323 104.9976 430.96094 105 z M 430.40625 105.19727 C 430.37575 105.21908 430.3453 105.24436 430.31445 105.27539 C 430.34296 105.24672 430.37494 105.22158 430.40625 105.19727 z M 431 118.33398 C 431 118.78187 430.71759 119.0254 430.40625 118.80273 C 430.57442 118.93335 430.77905 119.00023 430.98633 118.99805 C 430.99536 118.94708 431 118.89248 431 118.83398 L 431 118.33398 z M 430.40625 118.80273 C 430.37494 118.77841 430.34296 118.75329 430.31445 118.72461 C 430.3453 118.75564 430.37575 118.78092 430.40625 118.80273 z " />
    </g>
    <g
       id="g2137">
      <path
         d="m 441.29272,61.118585 -4.1183,-1.994402 c -0.47666,-0.230853 -1.04639,-0.133474 -1.42053,0.242808 l -13.4819,12.213718 c -0.36263,0.332572 -0.36222,0.906777 9e-4,1.238799 l 1.10124,1.0069 c 0.29686,0.271478 0.74394,0.291423 1.06356,0.0476 L 440.67303,61.63598 c 0.54466,-0.415591 1.32699,-0.02485 1.32699,0.662774 v -0.0481 c 0,-0.482681 -0.27491,-0.922687 -0.7073,-1.132075 z"
         style="opacity:0.2;fill:#000000"
         id="path692" />
      <path
         d="m 437.17444,78.875965 c -0.47682,0.230638 -1.04654,0.133183 -1.42069,-0.243128 0.46097,0.463636 1.24923,0.135229 1.24923,-0.52049 V 59.887413 c 0,-0.655719 -0.78826,-0.984111 -1.24923,-0.520445 0.37415,-0.376311 0.94387,-0.47383 1.42069,-0.243183 l 4.1176,1.991662 c 0.4327,0.209278 0.70785,0.649444 0.70785,1.132335 v 13.504291 c 0,0.482876 -0.27515,0.923032 -0.70785,1.13231 z"
         style="opacity:0.2;fill:#000000"
         id="path720" />
      <path
         d="m 441.29272,60.118963 -4.1183,-1.994401 c -0.47666,-0.230853 -1.04639,-0.133474 -1.42053,0.242807 l -13.4819,12.213719 c -0.36263,0.332572 -0.36222,0.906776 9e-4,1.238798 l 1.10124,1.006901 c 0.29686,0.271477 0.74394,0.291422 1.06356,0.0476 l 16.23534,-12.238029 c 0.54466,-0.415591 1.32699,-0.02485 1.32699,0.662774 v -0.0481 c 0,-0.48268 -0.27491,-0.922686 -0.7073,-1.132074 z"
         style="fill:#e87d1b;fill-opacity:1"
         id="path418"
         sodipodi:nodetypes="cccccccccscc" />
      <path
         id="path502"
         style="opacity:0.1;fill:#ffffff"
         d="m 436.61338,58.000175 c -0.31616,0.0052 -0.62553,0.132012 -0.85937,0.367188 l -13.48243,12.21289 c -0.32216,0.29546 -0.35419,0.77955 -0.10351,1.117188 0.0308,-0.04122 0.0641,-0.08105 0.10351,-0.117188 l 13.48243,-12.21289 c 0.37414,-0.376282 0.94326,-0.474994 1.41992,-0.244141 l 3.35156,1.625 0.14648,-0.111328 c 0.54467,-0.415591 1.32813,-0.02551 1.32813,0.662109 v -0.04883 c 0,-0.48268 -0.27464,-0.921472 -0.70703,-1.130859 l -4.11914,-1.996094 c -0.17875,-0.08657 -0.37085,-0.126191 -0.56055,-0.123047 z" />
      <path
         d="m 423.89763,63.507011 c -0.18883,0.0084 -0.375,0.08108 -0.52343,0.216795 l -1.10155,1.006827 c -0.36312,0.332012 -0.36361,0.906699 -9.8e-4,1.239246 l 13.4823,12.662971 c 0.46096,0.463636 1.24901,0.135216 1.24901,-0.520503 v -4.616169 l -12.56531,-9.820224 c -0.15981,-0.121936 -0.35121,-0.177385 -0.54004,-0.168943 z"
         style="opacity:0.2;fill:#000000"
         id="path664" />
      <path
         d="m 441.2929,75.881401 -4.11831,1.994407 c -0.47666,0.230798 -1.04638,0.133419 -1.42053,-0.242813 l -13.4819,-12.663779 c -0.36263,-0.332547 -0.36221,-0.906777 9e-4,-1.238789 l 1.10124,-1.00694 c 0.29687,-0.271438 0.74394,-0.291423 1.06356,-0.04755 l 16.23534,12.688034 c 0.54467,0.415577 1.32699,0.0249 1.32699,-0.662783 v 0.04815 c 0,0.482642 -0.2749,0.922642 -0.70729,1.13208 z"
         style="fill:#ff910c;fill-opacity:1"
         id="path312"
         sodipodi:nodetypes="cccccccccscc" />
      <path
         id="path446"
         style="opacity:0.1;fill:#ffffff"
         d="m 423.89658,62.506034 c -0.18883,0.0084 -0.37305,0.08108 -0.52148,0.216797 l -1.10156,1.007813 c -0.32366,0.295936 -0.35838,0.782958 -0.10547,1.121094 0.0315,-0.04241 0.0649,-0.08404 0.10547,-0.121094 l 1.10156,-1.00586 c 0.29686,-0.271437 0.74288,-0.292701 1.0625,-0.04883 l 16.08984,12.576172 0.76563,-0.371094 c 0.43239,-0.209435 0.70703,-0.648215 0.70703,-1.130857 v -0.04883 c 0,0.687683 -0.78151,1.077685 -1.32617,0.662109 L 424.4376,62.675956 c -0.15981,-0.121936 -0.35219,-0.178363 -0.54102,-0.169922 z" />
      <path
         d="m 437.17465,77.876356 c -0.47681,0.230638 -1.04654,0.133184 -1.42068,-0.243128 0.46096,0.463636 1.24922,0.135229 1.24922,-0.52049 V 58.887805 c 0,-0.655719 -0.78826,-0.984111 -1.24922,-0.520446 0.37414,-0.376311 0.94387,-0.47383 1.42068,-0.243182 l 4.11761,1.991661 c 0.4327,0.209279 0.70784,0.649445 0.70784,1.132335 v 13.504291 c 0,0.482876 -0.27514,0.923032 -0.70784,1.13231 z"
         style="fill:#ffab44;fill-opacity:1"
         id="path390"
         sodipodi:nodetypes="ccsscccsscc" />
      <path
         id="path558"
         style="opacity:0.2;fill:#ffffff"
         d="m 436.61338,58.000175 c -0.2779,0.0047 -0.54866,0.105696 -0.76953,0.289063 0.46642,-0.343569 1.16016,-0.01708 1.16016,0.597656 v 0.169922 c 0.0579,0.01809 0.11409,0.0394 0.16992,0.06641 l 4.11914,1.992187 c 0.4327,0.209278 0.70703,0.649923 0.70703,1.132813 v -1 c 0,-0.48289 -0.27433,-0.923535 -0.70703,-1.132813 l -4.11914,-1.992187 c -0.17881,-0.08649 -0.37083,-0.126247 -0.56055,-0.123047 z m 0.39063,19.113281 c 0,0.614736 -0.69374,0.941199 -1.16016,0.597657 0.32458,0.269457 0.76089,0.357125 1.16016,0.232421 z" />
    </g>
    <g
       id="g3148">
      <path
         style="fill:#000000;stroke-width:1.875;opacity:0.2"
         d="m 319.76178,259.81421 c -0.71523,0.34595 -1.56982,0.19978 -2.13104,-0.36471 0.69144,0.69548 1.36901,0.20286 1.36901,-0.78073 v -27.3376 c 0,-0.98358 -0.67757,-1.47618 -1.36901,-0.78067 0.56122,-0.56447 1.41581,-0.71076 2.13104,-0.36478 l 6.17645,2.98752 c 0.64905,0.31392 1.06177,0.97418 1.06177,1.69851 v 20.25658 c 0,0.72433 -0.41272,1.38455 -1.06177,1.69848 z"
         id="path2966"
         sodipodi:nodetypes="scsscccssss" />
      <path
         d="m 325.93892,233.17764 -6.17749,-2.99163 c -0.71499,-0.34627 -1.5696,-0.20021 -2.1308,0.36422 l -20.22302,18.3207 c -0.54394,0.49886 -0.54332,1.36018 9.3e-4,1.85822 l 1.65189,1.51036 c 0.4453,0.40722 1.11591,0.43714 1.59534,0.0714 l 24.35319,-18.35717 c 0.81701,-0.6234 1.99052,-0.0373 1.99052,0.99416 v -0.0722 c 0,-0.72403 -0.41237,-1.38405 -1.06097,-1.69813 z"
         style="fill:#000000;stroke-width:1.875;opacity:0.2"
         id="path3410" />
      <path
         style="fill:#e87d1b;stroke-width:1.875;fill-opacity:1"
         d="m 325.93892,232.17793 -6.17749,-2.99163 c -0.71499,-0.34627 -1.5696,-0.20021 -2.1308,0.36422 l -20.22302,18.3207 c -0.54394,0.49886 -0.54332,1.36018 9.3e-4,1.85822 l 1.65189,1.51036 c 0.4453,0.40722 1.11591,0.43714 1.59534,0.0714 l 24.35319,-18.35717 c 0.81701,-0.6234 1.99052,-0.0373 1.99052,0.99416 v -0.0722 c 0,-0.72403 -0.41237,-1.38405 -1.06097,-1.69813 z"
         id="path2962"
         sodipodi:nodetypes="cccccccccscc" />
      <path
         id="path3326"
         style="fill:#000000;stroke-width:1.875;opacity:0.2"
         d="m 299.8457,236.75977 c -0.28324,0.0127 -0.5625,0.12259 -0.78515,0.32617 l -1.65235,1.50976 c -0.54425,0.49802 -0.54394,1.3586 0,1.85742 l 20.22266,18.9961 c 0.0529,0.0532 0.11017,0.0988 0.16797,0.14453 0.62899,0.46526 1.20117,-0.0223 1.20117,-0.92578 v -7.31836 l -18.34375,-14.33594 c -0.23971,-0.18292 -0.5273,-0.26656 -0.81055,-0.2539 z" />
      <path
         id="path3270"
         style="fill:#ffffff;stroke-width:1.875;opacity:0.1"
         d="M 318.92188 229 C 318.44762 229.00786 317.98161 229.19801 317.63086 229.55078 L 297.4082 247.87109 C 297.00025 248.24524 296.89728 248.82309 297.10156 249.29883 C 297.16949 249.14074 297.27266 248.9954 297.4082 248.87109 L 317.63086 230.55078 C 318.19206 229.98635 319.04673 229.83928 319.76172 230.18555 L 325.2168 232.82812 C 326.01103 232.43326 327 233.0004 327 233.94727 L 327 233.87695 C 327 233.15292 326.58805 232.49181 325.93945 232.17773 L 319.76172 229.18555 C 319.4936 229.0557 319.20643 228.99528 318.92188 229 z " />
      <path
         style="fill:#ff910c;stroke-width:1.875;fill-opacity:1"
         d="m 325.93892,255.82211 -6.17749,2.99163 c -0.71499,0.3462 -1.5696,0.20012 -2.1308,-0.36424 l -20.22302,-18.99579 c -0.54394,-0.49883 -0.54332,-1.36018 9.3e-4,-1.8582 l 1.65189,-1.51042 c 0.4453,-0.40716 1.11591,-0.43714 1.59534,-0.0713 l 24.35319,19.03219 c 0.81701,0.62336 1.99052,0.0373 1.99052,-0.99418 v 0.0722 c 0,0.72395 -0.41237,1.38397 -1.06097,1.69812 z"
         id="path2964"
         sodipodi:nodetypes="cccccccccscc" />
      <path
         id="path3214"
         style="fill:#ffffff;stroke-width:1.875;opacity:0.1"
         d="M 299.8457 235.75977 C 299.56246 235.77243 299.2832 235.88236 299.06055 236.08594 L 297.4082 237.5957 C 297.00002 237.96922 296.89777 238.54739 297.10156 239.02344 C 297.16966 238.86545 297.27258 238.7198 297.4082 238.5957 L 299.06055 237.08398 C 299.50585 236.67682 300.17682 236.64783 300.65625 237.01367 L 325.00977 256.04492 C 325.07677 256.09605 325.14584 256.1366 325.2168 256.17188 L 325.93945 255.82227 C 326.58805 255.50812 327 254.847 327 254.12305 L 327 254.05273 C 327 255.08421 325.82677 255.67023 325.00977 255.04688 L 300.65625 236.01367 C 300.41654 235.83075 300.12895 235.74711 299.8457 235.75977 z " />
      <path
         d="m 319.76178,258.81421 c -0.71523,0.34595 -1.56982,0.19978 -2.13104,-0.36471 0.69144,0.69548 1.36901,0.20286 1.36901,-0.78073 v -27.3376 c 0,-0.98358 -0.67757,-1.47618 -1.36901,-0.78067 0.56122,-0.56447 1.41581,-0.71076 2.13104,-0.36478 l 6.17645,2.98752 c 0.64905,0.31392 1.06177,0.97418 1.06177,1.69851 v 20.25658 c 0,0.72433 -0.41272,1.38455 -1.06177,1.69848 z"
         style="fill:#ffab44;stroke-width:1.875;fill-opacity:1"
         id="path3354" />
      <path
         id="path3158"
         style="fill:#ffffff;stroke-width:1.875;opacity:0.2"
         d="M 318.92188 229 C 318.51916 229.00679 318.12398 229.14893 317.79883 229.40625 C 318.34673 229.00094 318.84976 229.31778 318.9707 230.00391 C 319.23919 230.00648 319.50894 230.06327 319.76172 230.18555 L 325.9375 233.17383 C 326.58655 233.48775 327 234.14676 327 234.87109 L 327 233.87109 C 327 233.14676 326.58655 232.48775 325.9375 232.17383 L 319.76172 229.18555 C 319.49351 229.0558 319.20646 228.9952 318.92188 229 z M 317.79883 229.40625 C 317.74304 229.44752 317.68719 229.49412 317.63086 229.55078 C 317.6838 229.49753 317.74103 229.45199 317.79883 229.40625 z M 319 257.66797 C 319 258.57143 318.42782 259.05901 317.79883 258.59375 C 318.1372 258.86153 318.55118 259.00013 318.9707 258.99609 C 318.9886 258.89455 319 258.78444 319 258.66797 L 319 257.66797 z M 317.79883 258.59375 C 317.74103 258.54801 317.6838 258.50247 317.63086 258.44922 C 317.68719 258.50588 317.74304 258.55249 317.79883 258.59375 z " />
    </g>
    <g
       id="g2475"
       transform="translate(-2.861584,-2.928151)">
      <path
         d="m 341.44679,160.16603 -8.2366,-3.9888 c -0.95332,-0.4617 -2.09277,-0.26695 -2.84105,0.48562 l -26.96378,24.4274 c -0.72525,0.66514 -0.72442,1.81356 0.002,2.47759 l 2.20249,2.0138 c 0.59372,0.54296 1.48787,0.58285 2.12711,0.0952 l 32.47065,-24.47604 c 1.08932,-0.83118 2.65397,-0.0497 2.65397,1.32555 v -0.0962 c 0,-0.96536 -0.54981,-1.84537 -1.41459,-2.26414 z"
         style="opacity:0.2;fill:#000000;stroke-width:1.99999"
         id="path2287"
         sodipodi:nodetypes="cccccccccscc" />
      <path
         d="m 333.21066,195.68043 c -0.95363,0.46127 -2.09308,0.26636 -2.84136,-0.48626 0.92192,0.92727 2.49844,0.27046 2.49844,-1.04097 v -36.44983 c 0,-1.31144 -1.57652,-1.96821 -2.49844,-1.04088 0.74828,-0.75263 1.88773,-0.94766 2.84136,-0.48637 l 8.23519,3.98332 c 0.8654,0.41855 1.41569,1.29888 1.41569,2.26466 v 27.00856 c 0,0.96575 -0.55029,1.84606 -1.41569,2.2646 z"
         style="opacity:0.2;fill:#000000;stroke-width:1.99999"
         id="path2231"
         sodipodi:nodetypes="ccsscccsscc" />
      <path
         d="m 341.44718,159.16576 -8.23669,-3.98883 c -0.95333,-0.46172 -2.09279,-0.26695 -2.84108,0.48561 l -26.96404,24.42766 c -0.72527,0.66515 -0.72444,1.81356 0.002,2.47761 l 2.20251,2.01382 c 0.59372,0.54296 1.48788,0.58285 2.12713,0.0952 l 32.47097,-24.47627 c 1.08933,-0.83119 2.654,-0.0497 2.654,1.32556 v -0.0962 c 0,-0.96537 -0.54982,-1.84538 -1.4146,-2.26417 z"
         style="fill:#e87d1b;stroke-width:2.00001;fill-opacity:1"
         id="path2175"
         sodipodi:nodetypes="cccccccccscc" />
      <path
         d="m 332.09045,154.92849 c -0.63232,0.0105 -1.25298,0.26401 -1.72065,0.73435 l -26.96399,24.42696 c -0.49747,0.45623 -0.64452,1.13757 -0.45897,1.73627 0.0849,-0.27237 0.23258,-0.52868 0.45897,-0.7363 l 26.96399,-24.42696 c 0.74827,-0.75255 1.88646,-0.94801 2.83975,-0.48631 l 7.69312,3.72644 c 0.95849,-0.18201 1.95892,0.52254 1.95892,1.623 v -0.0957 c 0,-0.96534 -0.54926,-1.84679 -1.41402,-2.26556 l -8.23802,-3.98815 c -0.35748,-0.17314 -0.73971,-0.25433 -1.1191,-0.24804 z"
         style="opacity:0.1;fill:#ffffff;stroke-width:1.99995"
         id="path2343" />
      <path
         d="m 306.65684,164.94207 c -0.37766,0.0169 -0.75,0.16216 -1.04686,0.43359 l -2.20311,2.01365 c -0.72622,0.66403 -0.7272,1.8134 -0.002,2.47849 l 26.96456,25.32591 c 0.92193,0.92727 2.49802,0.27043 2.49802,-1.041 v -9.23233 l -25.1306,-19.64042 c -0.31961,-0.24388 -0.7024,-0.35477 -1.08006,-0.33789 z"
         style="opacity:0.2;fill:#000000;stroke-width:1.99999"
         id="path2259"
         sodipodi:nodetypes="cccccscccc" />
      <path
         d="m 341.44718,190.69138 -8.23669,3.98884 c -0.95333,0.46161 -2.09279,0.26685 -2.84108,-0.48562 l -26.96404,-25.32778 c -0.72527,-0.6651 -0.72444,-1.81357 0.002,-2.4776 l 2.20251,-2.0139 c 0.59372,-0.54288 1.48788,-0.58285 2.12713,-0.0951 l 32.47097,25.37629 c 1.08933,0.83116 2.654,0.0498 2.654,-1.32559 v 0.0963 c 0,0.96529 -0.54982,1.84531 -1.4146,2.26418 z"
         style="fill:#ff910c;stroke-width:2.00001;fill-opacity:1"
         id="path2147"
         sodipodi:nodetypes="cccccscccscc" />
      <path
         d="m 306.65676,163.94191 c -0.37765,0.0169 -0.74999,0.16215 -1.04684,0.43358 l -2.20306,2.01361 c -0.50001,0.45718 -0.64889,1.14154 -0.46092,1.74213 0.0849,-0.27447 0.23259,-0.53339 0.46092,-0.74216 l 2.20306,-2.01361 c 0.59371,-0.54286 1.48765,-0.58344 2.12688,-0.0957 l 32.46967,25.37615 c 0.21877,0.16691 0.45861,0.25177 0.6992,0.29686 l 0.541,-0.26171 c 0.86476,-0.41887 1.41402,-1.30029 1.41402,-2.26555 v -0.0957 c 0,1.37534 -1.56492,2.15726 -2.65422,1.32613 L 307.7368,164.27979 c -0.31961,-0.24387 -0.70239,-0.35476 -1.08004,-0.33788 z"
         style="opacity:0.1;fill:#ffffff;stroke-width:1.99995"
         id="path2315" />
      <path
         d="m 333.21096,194.68085 c -0.95364,0.46129 -2.0931,0.26638 -2.84139,-0.48625 0.92193,0.92728 2.49847,0.27046 2.49847,-1.04099 v -36.45018 c 0,-1.31146 -1.57654,-1.96825 -2.49847,-1.04091 0.74829,-0.75262 1.88775,-0.94767 2.84139,-0.48636 l 8.23528,3.98335 c 0.8654,0.41857 1.4157,1.2989 1.4157,2.26469 v 27.00882 c 0,0.96576 -0.5503,1.84608 -1.4157,2.26464 z"
         style="fill:#ffab44;stroke-width:2.00001;fill-opacity:1"
         id="path2203"
         sodipodi:nodetypes="ccsscccsscc" />
      <path
         d="m 332.09045,154.9285 c -0.6324,0.0107 -1.25298,0.26397 -1.72065,0.73435 0.73325,-0.73755 1.86965,-0.46501 2.30852,0.33397 0.1811,0.0411 0.36083,0.0963 0.53319,0.17969 l 8.23411,3.98229 c 0.86538,0.41855 1.41597,1.2998 1.41597,2.26556 v -0.99997 c 0,-0.96576 -0.55059,-1.84701 -1.41597,-2.26556 l -8.23411,-3.98229 c -0.35761,-0.17298 -0.74163,-0.25444 -1.12106,-0.24804 z m 0.77732,38.22339 c 0,1.31141 -1.57606,1.96824 -2.49797,1.04099 0.61303,0.61658 1.48768,0.8522 2.30852,0.66599 0.11292,-0.20557 0.18946,-0.43864 0.18946,-0.70701 z"
         style="opacity:0.2;fill:#ffffff;stroke-width:1.99995"
         id="path2371" />
    </g>
    <g
       id="g3544"
       transform="translate(0,5.2814547e-4)">
      <path
         d="m 363.87779,53.355279 -12.35503,-5.983244 c -1.42999,-0.69258 -3.13919,-0.400425 -4.26162,0.728415 l -40.44606,36.641488 c -1.0879,0.997725 -1.08665,2.72034 0.003,3.716415 l 3.30377,3.02073 c 0.89058,0.81444 2.23182,0.874275 3.19069,0.142799 L 362.019,54.907479 C 363.65299,53.660694 366,54.832929 366,56.89582 v -0.144301 c 0,-1.448055 -0.82473,-2.76807 -2.12191,-3.396255 z"
         style="opacity:0.2;fill:#000000;stroke-width:3.00002"
         id="path3750" />
      <path
         d="m 351.52363,106.62851 c -1.43044,0.69193 -3.13962,0.39957 -4.26204,-0.72937 1.38288,1.39091 3.74767,0.40568 3.74767,-1.56149 V 49.662356 c 0,-1.96719 -2.36479,-2.952376 -3.74767,-1.561365 1.12242,-1.12893 2.8316,-1.421505 4.26204,-0.729539 l 12.3528,5.975027 c 1.29809,0.627855 2.12353,1.94835 2.12353,3.397035 v 40.513245 c 0,1.448644 -0.82544,2.769121 -2.12353,3.396951 z"
         style="opacity:0.2;fill:#000000;stroke-width:3.00001"
         id="path3694" />
      <path
         d="m 363.87779,52.355279 -12.35503,-5.983244 c -1.42999,-0.69258 -3.13919,-0.400425 -4.26162,0.728415 l -40.44606,36.641488 c -1.0879,0.997725 -1.08665,2.72034 0.003,3.716415 l 3.30377,3.02073 c 0.89058,0.81444 2.23182,0.874275 3.19069,0.142799 L 362.019,53.907479 C 363.65299,52.660694 366,53.832928 366,55.89582 v -0.144301 c 0,-1.448055 -0.82473,-2.76807 -2.12191,-3.396255 z"
         style="fill:#e87d1b;stroke-width:3.00002;fill-opacity:1"
         id="path3582"
         sodipodi:nodetypes="cccccccccscc" />
      <path
         id="path3834"
         style="opacity:0.1;fill:#ffffff;stroke-width:3.00002"
         d="m 349.8418,46 c -0.94851,0.01572 -1.87856,0.394085 -2.58008,1.099609 l -40.44727,36.642579 c -0.67837,0.622147 -0.93211,1.525422 -0.76367,2.359374 0.10063,-0.504284 0.35364,-0.983328 0.76367,-1.359374 l 40.44727,-36.642579 c 1.12243,-1.128838 2.83173,-1.421095 4.26172,-0.728515 l 12.35351,5.984375 h 0.002 c 0.0663,0.03213 0.12563,0.0737 0.18945,0.109375 C 365.1225,53.711847 366,54.636281 366,55.896484 v -0.144531 c 0,-1.448053 -0.82392,-2.7683 -2.12109,-3.396484 h -0.002 L 351.52344,46.371094 C 350.98719,46.111377 350.4109,45.990568 349.8418,46 Z" />
      <path
         id="path3666"
         style="opacity:0.2;fill:#000000;stroke-width:3.00002"
         d="m 311.69141,60.519495 c -0.56649,0.02533 -1.12503,0.243231 -1.57032,0.650391 l -3.30273,3.021484 c -1.08965,0.996043 -1.09181,2.719146 -0.004,3.716797 l 40.44727,37.992183 c 0.0622,0.0626 0.1316,0.11253 0.19726,0.16992 -0.0671,-0.0538 -0.13395,-0.10819 -0.19726,-0.17187 0.0876,0.0881 0.18495,0.16238 0.2793,0.24023 1.39914,1.01938 3.46875,0.0393 3.46875,-1.80078 V 90.488245 L 313.3125,61.027308 c -0.47943,-0.365813 -1.0546,-0.533138 -1.62109,-0.507813 z" />
      <path
         d="m 363.87779,99.644721 -12.35503,5.983259 c -1.42999,0.69242 -3.13919,0.40027 -4.26162,-0.72843 L 306.81508,66.907881 c -1.0879,-0.997652 -1.08665,-2.720356 0.003,-3.7164 l 3.30377,-3.02085 c 0.89058,-0.81432 2.23182,-0.874276 3.19069,-0.14265 L 362.019,98.092415 c 1.63399,1.246743 3.981,0.0747 3.981,-1.988389 v 0.144452 c 0,1.447934 -0.82473,2.767966 -2.12191,3.396274 z"
         style="fill:#ff910c;stroke-width:3.00002;fill-opacity:1"
         id="path3610"
         sodipodi:nodetypes="cccccscccscc" />
      <path
         id="path3890"
         style="opacity:0.1;fill:#ffffff;stroke-width:3.00002"
         d="m 311.69141,59.519531 c -0.56649,0.02533 -1.12503,0.243231 -1.57032,0.650391 l -3.30273,3.021484 c -0.67896,0.620631 -0.93394,1.523735 -0.76758,2.357422 0.10143,-0.504139 0.35689,-0.982009 0.76758,-1.357422 l 3.30273,-3.021484 c 0.89058,-0.814319 2.23254,-0.874204 3.19141,-0.142578 l 48.70703,38.064453 c 0.63576,0.485089 1.37743,0.60063 2.04883,0.443359 C 365.25248,98.873246 366,97.621926 366,96.248047 v -0.144531 c 0,2.063087 -2.34648,3.235023 -3.98047,1.988281 L 313.3125,60.027344 c -0.47943,-0.365813 -1.0546,-0.533138 -1.62109,-0.507813 z" />
      <path
         d="m 351.52363,105.62851 c -1.43044,0.69193 -3.13962,0.39957 -4.26204,-0.72937 1.38288,1.39091 3.74767,0.40568 3.74767,-1.56149 V 48.662356 c 0,-1.96719 -2.36479,-2.952376 -3.74767,-1.561365 1.12242,-1.12893 2.8316,-1.421505 4.26204,-0.72954 l 12.3528,5.975027 c 1.29809,0.627855 2.12353,1.94835 2.12353,3.397036 V 96.25676 c 0,1.44864 -0.82544,2.769121 -2.12353,3.396956 z"
         style="fill:#ffab44;stroke-width:3.00001;fill-opacity:1"
         id="path3554"
         sodipodi:nodetypes="ccsscccsscc" />
      <path
         id="path3778"
         style="opacity:0.2;fill:#ffffff;stroke-width:3.00001"
         d="m 349.8418,46 c -0.83015,0.014 -1.63967,0.315765 -2.30078,0.861328 0.87794,-0.639701 2.01532,-0.487581 2.74414,0.166016 0.42188,0.04344 0.84087,0.151505 1.23828,0.34375 l 12.35351,5.974609 C 365.17504,53.973557 366,55.295456 366,56.744141 v -1 c 0,-1.448685 -0.82496,-2.770584 -2.12305,-3.398438 L 351.52344,46.371094 C 350.98702,46.111607 350.41097,45.990399 349.8418,46 Z m -2.30078,0.861328 c -0.0966,0.0704 -0.18998,0.150388 -0.2793,0.240234 0.0876,-0.08812 0.18495,-0.162379 0.2793,-0.240234 z m 3.46875,56.476562 c 0,1.84011 -2.06961,2.82016 -3.46875,1.80078 0.77857,0.64248 1.76603,0.93473 2.74414,0.83399 0.43267,-0.38803 0.72461,-0.9493 0.72461,-1.63477 z m -3.46875,1.80078 c -0.0944,-0.0778 -0.19169,-0.15212 -0.2793,-0.24023 0.0893,0.0898 0.18268,0.16984 0.2793,0.24023 z" />
    </g>
    <g
       id="g2822"
       transform="matrix(4,0,0,4,-1136,-531.9986)">
      <path
         d="m 338.58526,156.73681 -8.2366,-3.9888 c -0.95332,-0.4617 -2.09277,-0.26695 -2.84105,0.48562 l -26.96378,24.4274 c -0.72525,0.66514 -0.72442,1.81356 0.002,2.47759 l 2.20249,2.0138 c 0.59372,0.54296 1.48787,0.58285 2.12711,0.0952 l 32.47065,-24.47604 c 1.08932,-0.83118 2.65397,-0.0497 2.65397,1.32555 v -0.0962 c 0,-0.96536 -0.54981,-1.84537 -1.41459,-2.26414 z"
         style="opacity:0.2;fill:#000000;stroke-width:1.99999"
         id="path2793" />
      <path
         d="m 330.34836,192.25193 c -0.95362,0.46127 -2.09308,0.26636 -2.84136,-0.48626 0.92192,0.92727 2.49844,0.27046 2.49844,-1.04097 v -36.44983 c 0,-1.31144 -1.57652,-1.96821 -2.49844,-1.04088 0.74828,-0.75263 1.88773,-0.94766 2.84136,-0.48637 l 8.23519,3.98332 c 0.8654,0.41855 1.41569,1.29888 1.41569,2.26466 v 27.00856 c 0,0.96575 -0.55029,1.84606 -1.41569,2.2646 z"
         style="opacity:0.2;fill:#000000;stroke-width:1.99999"
         id="path2765" />
      <path
         d="m 338.5856,156.23685 -8.23669,-3.98883 c -0.95333,-0.46172 -2.09279,-0.26695 -2.84108,0.48561 l -26.96404,24.42766 c -0.72527,0.66515 -0.72444,1.81356 0.002,2.47761 l 2.20251,2.01382 c 0.59372,0.54296 1.48788,0.58285 2.12713,0.0952 l 32.47097,-24.47627 c 1.08933,-0.83119 2.654,-0.0497 2.654,1.32556 v -0.0962 c 0,-0.96537 -0.54982,-1.84538 -1.4146,-2.26417 z"
         style="fill:#e87d1b;stroke-width:2.00001;fill-opacity:1"
         id="path2541"
         sodipodi:nodetypes="cccccccccscc" />
      <path
         d="m 303.79524,161.51467 c -0.37766,0.0169 -0.75,0.16216 -1.04686,0.43359 l -2.20311,2.01365 c -0.72622,0.66403 -0.7272,1.8134 -0.002,2.47849 l 26.96456,25.32591 c 0.92193,0.92727 2.49802,0.27043 2.49802,-1.041 v -9.23233 l -25.1306,-19.64042 c -0.31961,-0.24388 -0.7024,-0.35477 -1.08006,-0.33789 z"
         style="opacity:0.2;fill:#000000;stroke-width:1.99999"
         id="path2737" />
      <path
         id="path2681"
         style="opacity:0.1;fill:#ffffff;stroke-width:2.00001"
         d="m 329.22852,152 c -0.63234,0.0105 -1.25303,0.26403 -1.72071,0.73438 l -26.96484,24.42773 c -0.42762,0.39217 -0.59469,0.95063 -0.51758,1.48047 0.0557,-0.36327 0.22412,-0.71134 0.51758,-0.98047 l 26.96484,-24.42773 c 0.74829,-0.75256 1.88652,-0.94805 2.83985,-0.48633 l 8.23828,3.98828 c 0.24407,0.1182 0.45982,0.27576 0.64844,0.45898 0.44835,0.28543 0.76562,0.78299 0.76562,1.40235 v -0.0957 c 0,-0.96537 -0.54928,-1.84683 -1.41406,-2.26562 l -8.23633,-3.98828 c -0.3575,-0.17315 -0.74169,-0.25434 -1.12109,-0.24805 z" />
      <path
         d="m 338.5856,187.76323 -8.23669,3.98884 c -0.95333,0.46161 -2.09279,0.26685 -2.84108,-0.48562 l -26.96404,-25.32778 c -0.72527,-0.6651 -0.72444,-1.81357 0.002,-2.4776 l 2.20251,-2.0139 c 0.59372,-0.54288 1.48788,-0.58285 2.12713,-0.0951 l 32.47097,25.37629 c 1.08933,0.83116 2.654,0.0498 2.654,-1.32559 v 0.0963 c 0,0.96529 -0.54982,1.84531 -1.4146,2.26418 z"
         style="fill:#ff910c;stroke-width:2.00001;fill-opacity:1"
         id="path2513"
         sodipodi:nodetypes="cccccscccscc" />
      <path
         id="path2625"
         style="opacity:0.1;fill:#ffffff;stroke-width:2.00001"
         d="m 303.79492,161.01367 c -0.37766,0.0169 -0.75001,0.16216 -1.04687,0.4336 l -2.20313,2.01367 c -0.4325,0.39535 -0.60155,0.96155 -0.51953,1.49609 0.0537,-0.3688 0.2214,-0.72358 0.51953,-0.99609 l 2.20313,-2.01367 c 0.59372,-0.54288 1.4877,-0.58346 2.12695,-0.0957 l 32.4707,25.37696 c 0.59875,0.45684 1.34147,0.42451 1.88868,0.0762 C 339.7142,186.83867 340,186.19297 340,185.5 v -0.0977 c 0,1.37539 -1.56497,2.15733 -2.6543,1.32618 L 304.875,161.35156 c -0.31962,-0.24387 -0.70242,-0.35477 -1.08008,-0.33789 z" />
      <path
         d="m 330.34839,191.7527 c -0.95364,0.46129 -2.0931,0.26638 -2.84139,-0.48625 0.92193,0.92728 2.49847,0.27046 2.49847,-1.04099 v -36.45018 c 0,-1.31146 -1.57654,-1.96825 -2.49847,-1.04091 0.74829,-0.75262 1.88775,-0.94767 2.84139,-0.48636 l 8.23528,3.98335 c 0.8654,0.41857 1.4157,1.2989 1.4157,2.26469 v 27.00882 c 0,0.96576 -0.5503,1.84608 -1.4157,2.26464 z"
         style="fill:#ffab44;stroke-width:2.00001;fill-opacity:1"
         id="path2485"
         sodipodi:nodetypes="ccsscccsscc" />
      <path
         id="path2569"
         style="opacity:0.2;fill:#ffffff;stroke-width:2.00001"
         d="m 329.22852,152 c -0.55225,0.009 -1.09101,0.21006 -1.53125,0.57227 0.4928,-0.35713 1.10801,-0.34183 1.58007,-0.0684 0.36344,0.001 0.73003,0.0786 1.07227,0.24414 l 8.23437,3.98242 C 339.44938,157.149 340,158.03026 340,158.99605 v -0.5 c 0,-0.96579 -0.55062,-1.84705 -1.41602,-2.26562 l -8.23437,-3.98242 C 329.99199,152.07506 329.60796,151.9936 329.22852,152 Z m -1.53125,0.57227 c -0.0655,0.0475 -0.12895,0.10124 -0.18946,0.16211 0.0593,-0.0596 0.12555,-0.10954 0.18946,-0.16211 z m 2.30859,37.65234 c 0,1.22537 -1.37587,1.87899 -2.30859,1.20312 0.45325,0.3729 1.01104,0.57004 1.58007,0.56836 0.42138,-0.24413 0.72852,-0.69356 0.72852,-1.27148 z m -2.30859,1.20312 c -0.0639,-0.0526 -0.13017,-0.10248 -0.18946,-0.16211 0.0605,0.0609 0.12394,0.11464 0.18946,0.16211 z" />
    </g>
  </g>
  <g
     id="Highlights">
    <path
       id="rect653"
       style="opacity:0.2;fill:#ffffff"
       d="M 80,44 C 53.408027,44 32,65.408027 32,92 v 2 C 32,67.408027 53.408027,46 80,46 h 128 c 26.59197,0 48,21.408027 48,48 V 92 C 256,65.408027 234.59197,44 208,44 Z"
       sodipodi:nodetypes="sscsscsss" />
    <path
       id="rect773"
       style="opacity:0.2;fill:#ffffff"
       d="m 312,34 c -9.97199,0 -18,8.02801 -18,18 v 1 c 0,-9.97199 8.02801,-18 18,-18 h 48 c 9.97199,0 18,8.02801 18,18 v -1 c 0,-9.97199 -8.02801,-18 -18,-18 z" />
    <path
       id="rect1135"
       style="opacity:0.2;fill:#ffffff;fill-opacity:1"
       d="m 304,144 c -6.64799,0 -12,5.35201 -12,12 v 1 c 0,-6.64799 5.35201,-12 12,-12 h 32 c 6.64799,0 12,5.35201 12,12 v -1 c 0,-6.64799 -5.35201,-12 -12,-12 z" />
    <path
       id="rect1265"
       style="opacity:0.2;fill:#ffffff;fill-opacity:1"
       d="m 300,223 c -4.986,0 -9,4.014 -9,9 v 1 c 0,-4.986 4.014,-9 9,-9 h 24 c 4.986,0 9,4.014 9,9 v -1 c 0,-4.986 -4.014,-9 -9,-9 z" />
    <path
       id="rect1368"
       style="opacity:0.2;fill:#ffffff;fill-opacity:1"
       d="m 424,54 c -3.324,0 -6,2.676003 -6,6 v 1 c 0,-3.323997 2.676,-6 6,-6 h 16 c 3.324,0 6,2.676003 6,6 v -1 c 0,-3.323997 -2.676,-6 -6,-6 z" />
    <path
       id="rect1402"
       style="opacity:0.2;fill:#ffffff;fill-opacity:1"
       d="m 420,140 c -2.216,0 -4,1.784 -4,4 v 1 c 0,-2.216 1.784,-4 4,-4 h 8 c 2.216,0 4,1.784 4,4 v -1 c 0,-2.216 -1.784,-4 -4,-4 z" />
    <path
       id="rect1436"
       style="opacity:0.2;fill:#ffffff;fill-opacity:1"
       d="m 422,102 c -2.216,0 -4,1.784 -4,4 v 1 c 0,-2.216 1.784,-4 4,-4 h 12 c 2.216,0 4,1.784 4,4 v -1 c 0,-2.216 -1.784,-4 -4,-4 z" />
  </g>
</svg>
