<?xml version="1.0" encoding="UTF-8" standalone="no"?>
<!-- Created with Inkscape (http://www.inkscape.org/) -->

<svg
   width="480"
   height="300"
   viewBox="0 0 480 300"
   version="1.1"
   id="svg5"
   inkscape:version="1.2.2 (1:1.2.2+202305151914+b0a8486541)"
   sodipodi:docname="vivaldi-snapshot.svg"
   xmlns:inkscape="http://www.inkscape.org/namespaces/inkscape"
   xmlns:sodipodi="http://sodipodi.sourceforge.net/DTD/sodipodi-0.dtd"
   xmlns="http://www.w3.org/2000/svg"
   xmlns:svg="http://www.w3.org/2000/svg">
  <sodipodi:namedview
     id="namedview7"
     pagecolor="#888888"
     bordercolor="#000000"
     borderopacity="0.25"
     inkscape:showpageshadow="true"
     inkscape:pageopacity="0"
     inkscape:pagecheckerboard="0"
     inkscape:deskcolor="#888888"
     inkscape:document-units="px"
     showgrid="false"
     showborder="false"
     inkscape:zoom="2.6866667"
     inkscape:cx="240.07444"
     inkscape:cy="150"
     inkscape:window-width="1920"
     inkscape:window-height="1008"
     inkscape:window-x="0"
     inkscape:window-y="0"
     inkscape:window-maximized="1"
     inkscape:current-layer="svg5" />
  <defs
     id="defs2" />
  <g
     id="Baseplate"
     style="display:none">
    <text
       y="19.774782"
       xml:space="preserve"
       x="15.006946"
       style="font-style:normal;font-variant:normal;font-weight:normal;font-stretch:normal;line-height:0%;font-family:'DejaVu Sans';-inkscape-font-specification:'DejaVu Sans';display:inline;fill:#000000;fill-opacity:1;stroke:none;enable-background:new"
       inkscape:label="context"
       id="context"><tspan
         style="font-style:normal;font-variant:normal;font-weight:normal;font-stretch:normal;font-size:18px;line-height:1.25;font-family:'DejaVu Sans';-inkscape-font-specification:'DejaVu Sans'"
         y="19.774782"
         x="15.006946"
         sodipodi:role="line"
         id="tspan3933">apps</tspan></text>
    <text
       y="19.774782"
       xml:space="preserve"
       x="122.48839"
       style="font-style:normal;font-variant:normal;font-weight:bold;font-stretch:normal;line-height:0%;font-family:'DejaVu Sans';-inkscape-font-specification:'DejaVu Sans Bold';text-align:start;writing-mode:lr-tb;text-anchor:start;display:inline;fill:#000000;fill-opacity:1;stroke:none;enable-background:new"
       inkscape:label="icon-name"
       id="icon-name"><tspan
         style="font-style:normal;font-variant:normal;font-weight:bold;font-stretch:normal;font-size:18px;line-height:1.25;font-family:'DejaVu Sans';-inkscape-font-specification:'DejaVu Sans Bold'"
         y="19.774782"
         x="122.48839"
         sodipodi:role="line"
         id="tspan3937">vivaldi-snapshot</tspan></text>
    <rect
       style="fill:#ffffff"
       id="256x256"
       width="256"
       height="256"
       x="16"
       y="28" />
    <rect
       style="fill:#ffffff"
       id="96x96"
       width="96"
       height="96"
       x="288"
       y="28" />
    <rect
       style="fill:#ffffff"
       id="64x64"
       width="64"
       height="64"
       x="288"
       y="140" />
    <rect
       style="fill:#ffffff"
       id="48x48"
       width="48"
       height="48"
       x="288"
       y="220" />
    <rect
       style="fill:#ffffff"
       id="32x32"
       width="32"
       height="32"
       x="416"
       y="52" />
    <rect
       style="fill:#ffffff"
       id="24x24"
       width="24"
       height="24"
       x="416"
       y="100" />
    <rect
       style="fill:#ffffff"
       id="22x22"
       width="22"
       height="22"
       x="417"
       y="101" />
    <rect
       style="fill:#ffffff"
       id="16x16"
       width="16"
       height="16"
       x="416"
       y="140" />
  </g>
  <g
     id="Shadow">
    <rect
       style="opacity:0.2;fill:#000000"
       id="rect651"
       width="224"
       height="224"
       x="32"
       y="46"
       ry="48" />
    <rect
       style="opacity:0.2;fill:#000000"
       id="rect769"
       width="84"
       height="85"
       x="294"
       y="34"
       ry="18" />
    <rect
       style="opacity:0.2;fill:#000000;fill-opacity:1"
       id="rect1131"
       width="56"
       height="56"
       x="292"
       y="145"
       ry="12" />
    <rect
       style="opacity:0.2;fill:#000000;fill-opacity:1"
       id="rect1261"
       width="42"
       height="42"
       x="291"
       y="224"
       ry="9" />
    <rect
       style="opacity:0.2;fill:#000000;fill-opacity:1"
       id="rect1364"
       width="28"
       height="29"
       x="418"
       y="54"
       ry="6" />
    <rect
       style="opacity:0.2;fill:#000000;fill-opacity:1"
       id="rect1398"
       width="16"
       height="16"
       x="416"
       y="141"
       ry="4" />
    <rect
       style="opacity:0.2;fill:#000000;fill-opacity:1"
       id="rect1432"
       width="20"
       height="20"
       x="418"
       y="103"
       ry="4" />
  </g>
  <g
     id="Background">
    <rect
       style="fill:#3f3f3f;fill-opacity:1"
       id="rect597"
       width="224"
       height="224"
       x="32"
       y="44"
       ry="48" />
    <rect
       style="opacity:1;fill:#3f3f3f;fill-opacity:1"
       id="rect771"
       width="84"
       height="84"
       x="294"
       y="34"
       ry="18" />
    <rect
       style="opacity:1;fill:#3f3f3f;fill-opacity:1"
       id="rect1133"
       width="56"
       height="56"
       x="292"
       y="144"
       ry="12" />
    <rect
       style="opacity:1;fill:#3f3f3f;fill-opacity:1"
       id="rect1263"
       width="42"
       height="42"
       x="291"
       y="223"
       ry="9" />
    <rect
       style="opacity:1;fill:#3f3f3f;fill-opacity:1"
       id="rect1366"
       width="28"
       height="28"
       x="418"
       y="54"
       ry="6" />
    <rect
       style="opacity:1;fill:#3f3f3f;fill-opacity:1"
       id="rect1400"
       width="16"
       height="16"
       x="416"
       y="140"
       ry="4" />
    <rect
       style="opacity:1;fill:#3f3f3f;fill-opacity:1"
       id="rect1434"
       width="20"
       height="20"
       x="418"
       y="102"
       ry="4" />
  </g>
  <g
     id="g1795">
    <g
       id="g2742">
      <circle
         style="opacity:0.2;fill:#000000;fill-opacity:1;stroke-width:2;stroke-linecap:square"
         id="path2722"
         cx="424"
         cy="148.5"
         r="6" />
      <circle
         style="opacity:1;fill:#ffffff;fill-opacity:1;stroke-width:2;stroke-linecap:square"
         id="path2724"
         cx="424"
         cy="148"
         r="6" />
      <path
         d="m 427.01974,144.00013 c -0.16041,1.3e-4 -0.32283,0.0365 -0.45284,0.10744 -0.18999,0.1036 -0.38121,0.32306 -0.46604,0.53486 -0.0901,0.22507 -0.1031,0.62187 -0.0271,0.83278 0.0321,0.0892 0.0876,0.24244 0.12316,0.34055 0.0804,0.22157 0.10937,0.70892 0.0584,0.98266 -0.0574,0.30822 -0.23576,0.66427 -0.44484,0.88808 -0.62743,0.67151 -1.576,0.68328 -2.19915,0.0273 -0.21503,-0.22638 -0.24553,-0.28043 -1.21622,-2.15699 -0.32933,-0.63717 -0.62488,-1.17062 -0.68622,-1.23956 -0.19289,-0.22112 -0.46111,-0.30018 -0.7067,-0.3015 -0.528,-0.009 -0.89396,0.43828 -0.9808,0.91871 -0.0642,0.38448 -0.0937,0.31829 1.61195,3.6108 1.07657,2.07822 1.58826,3.03622 1.67217,3.13039 0.2972,0.3336 0.72062,0.41629 1.11684,0.21811 0.10417,-0.0521 0.22211,-0.14576 0.29744,-0.2362 0.14756,-0.17715 3.199,-6.04553 3.24852,-6.24741 0.0519,-0.21157 0.039,-0.51217 -0.0308,-0.72022 -0.0869,-0.25877 -0.32653,-0.52427 -0.56289,-0.62361 -0.10609,-0.0446 -0.22965,-0.0664 -0.35441,-0.0663 z"
         style="fill:#3f3f3f;fill-opacity:1"
         id="path2715" />
    </g>
    <g
       id="g2362">
      <circle
         style="opacity:0.2;fill:#000000;fill-opacity:1;stroke-width:2;stroke-linecap:square"
         id="path2357"
         cx="428"
         cy="112.5"
         r="7" />
      <circle
         style="opacity:1;fill:#ffffff;fill-opacity:1;stroke-width:2;stroke-linecap:square"
         id="path2355"
         cx="428"
         cy="112"
         r="7" />
      <path
         d="m 431.77466,108.00016 c -0.20052,1.5e-4 -0.40355,0.0411 -0.56606,0.12086 -0.23748,0.11655 -0.47651,0.36345 -0.58255,0.60172 -0.11269,0.25321 -0.12887,0.6996 -0.0339,0.93688 0.0402,0.10034 0.10946,0.27274 0.15396,0.38312 0.10052,0.24927 0.13671,0.79754 0.073,1.10549 -0.0718,0.34675 -0.2947,0.74731 -0.55605,0.99909 -0.78428,0.75545 -1.96999,0.76869 -2.74893,0.0307 -0.26879,-0.25468 -0.30691,-0.31549 -1.52027,-2.42662 -0.41167,-0.71681 -0.78111,-1.31694 -0.85777,-1.3945 -0.24111,-0.24877 -0.57639,-0.3377 -0.88339,-0.33919 -0.66,-0.0105 -1.11744,0.49307 -1.22599,1.03355 -0.0802,0.43253 -0.11707,0.35807 2.01493,4.06215 1.34572,2.33799 1.98533,3.41575 2.09021,3.52168 0.37151,0.3753 0.90078,0.46833 1.39605,0.24538 0.13023,-0.0586 0.27764,-0.16398 0.37181,-0.26573 0.18445,-0.19929 3.99876,-6.80121 4.06065,-7.02833 0.0649,-0.23802 0.0488,-0.5762 -0.0385,-0.81025 -0.10859,-0.29111 -0.40817,-0.5898 -0.70362,-0.70156 -0.13261,-0.0502 -0.28705,-0.0747 -0.44301,-0.0746 z"
         style="fill:#3f3f3f;fill-opacity:1"
         id="path2335" />
    </g>
    <g
       id="g2175">
      <circle
         style="opacity:0.2;fill:#000000;fill-opacity:1;stroke-width:2;stroke-linecap:square"
         id="path2168"
         cx="432"
         cy="69"
         r="10" />
      <circle
         style="opacity:1;fill:#ffffff;fill-opacity:1;stroke-width:2;stroke-linecap:square"
         id="path2170"
         cx="432"
         cy="68"
         r="10" />
      <path
         d="m 436.60672,62.000279 c -0.26067,1.95e-4 -0.5246,0.05481 -0.73587,0.16115 -0.30872,0.155403 -0.61947,0.4846 -0.75732,0.802289 -0.14649,0.337617 -0.16753,0.932805 -0.0441,1.249175 0.0522,0.133783 0.14229,0.363657 0.20015,0.510823 0.13068,0.332357 0.17772,0.763179 0.0949,1.173782 -0.0933,0.46233 -0.38311,0.996404 -0.72287,1.332114 -1.01955,1.007274 -2.76059,1.024921 -3.77321,0.04089 -0.34943,-0.339573 -0.39899,-0.120437 -1.97636,-2.935276 -0.53516,-0.955746 -1.01544,-1.755918 -1.1151,-1.859328 -0.31344,-0.331687 -0.74931,-0.450273 -1.1484,-0.45225 -0.858,-0.01392 -1.45267,0.657418 -1.5938,1.378067 -0.10423,0.576707 -0.15218,0.477427 2.61942,5.416196 1.74943,3.117326 2.58092,4.554332 2.71728,4.695576 0.48295,0.500404 1.37061,0.624439 2.01447,0.32717 0.16929,-0.07817 0.36092,-0.218642 0.48334,-0.354304 0.23979,-0.265724 4.99834,-9.068287 5.07879,-9.371104 0.0843,-0.317366 0.0634,-0.768267 -0.0501,-1.080332 -0.14117,-0.388158 -0.33057,-0.786409 -0.71465,-0.935418 -0.17241,-0.06688 -0.37318,-0.09966 -0.57592,-0.0995 z"
         style="fill:#3f3f3f;fill-opacity:1"
         id="path2148" />
    </g>
    <g
       id="g1509">
      <circle
         style="fill:#000000;stroke-width:2;stroke-linecap:square;opacity:0.2"
         id="path587"
         cx="312"
         cy="245"
         r="14" />
      <circle
         style="fill:#ffffff;stroke-width:2;stroke-linecap:square;fill-opacity:1"
         id="path585"
         cx="312"
         cy="244"
         r="14" />
      <path
         d="m 318.79458,235.50025 c -0.36093,2.7e-4 -0.72638,0.0776 -1.0189,0.2283 -0.42747,0.22016 -0.85773,0.68653 -1.0486,1.1366 -0.20284,0.4783 -0.23197,1.3215 -0.0611,1.7697 0.0723,0.18953 0.19701,0.51519 0.27713,0.72368 0.18094,0.47085 0.24607,1.5065 0.13135,2.0882 -0.12917,0.65498 -0.53047,1.4116 -1.0009,1.8872 -1.4117,1.427 -3.546,1.452 -4.9481,0.0579 -0.48382,-0.48107 -0.55244,-0.59593 -2.7365,-4.5837 -0.741,-1.354 -1.406,-2.4876 -1.544,-2.6341 -0.434,-0.4699 -1.0375,-0.6379 -1.5901,-0.6407 -1.188,-0.0197 -2.0114,0.93136 -2.2068,1.9523 -0.14433,0.81702 -0.21072,0.67637 3.6269,7.6731 2.4223,4.4163 3.5736,6.4521 3.7624,6.6522 0.66871,0.70892 1.6214,0.88464 2.5129,0.4635 0.2344,-0.11074 0.49975,-0.30975 0.66925,-0.50194 0.33201,-0.37645 7.1978,-12.847 7.3092,-13.276 0.11676,-0.44961 0.0878,-1.0884 -0.0694,-1.5305 -0.19545,-0.5499 -0.73469,-1.1141 -1.2665,-1.3252 -0.23871,-0.0947 -0.51671,-0.14119 -0.79743,-0.14096 z"
         style="fill:#3f3f3f;fill-opacity:1"
         id="path408"
         sodipodi:nodetypes="cssssscsccccscssssscc" />
    </g>
    <g
       id="g1785">
      <circle
         style="opacity:0.2;fill:#000000;fill-opacity:1;stroke-width:2;stroke-linecap:square"
         id="path1563"
         cx="320"
         cy="173"
         r="20" />
      <circle
         style="opacity:1;fill:#ffffff;fill-opacity:1;stroke-width:2;stroke-linecap:square"
         id="path1617"
         cx="320"
         cy="172"
         r="20" />
      <path
         d="m 329.05934,161.00047 c -0.48124,3.6e-4 -0.9685,0.10048 -1.35853,0.29544 -0.56995,0.28491 -1.14363,0.88843 -1.39812,1.47087 -0.27045,0.61896 -0.30929,1.71014 -0.0814,2.29015 0.0964,0.24527 0.26268,0.6667 0.3695,0.93651 0.24125,0.60932 0.32809,2.34917 0.17513,3.10194 -0.17222,0.8476 -0.70729,1.82674 -1.33452,2.44221 -1.88226,1.84667 -4.72798,1.87902 -6.59744,0.075 -0.64509,-0.62255 -0.73658,-1.17081 -3.64865,-6.33135 -0.988,-1.7522 -1.87466,-3.21918 -2.05866,-3.40876 -0.57866,-0.6081 -1.38332,-0.8255 -2.12012,-0.82913 -1.58399,-0.0255 -2.68186,1.20527 -2.94239,2.52646 -0.19244,1.0573 -0.28096,0.87528 4.83585,9.92969 3.22972,5.7151 4.76478,8.34961 5.01651,8.60856 0.89161,0.9174 2.16185,1.1448 3.35052,0.59981 0.31253,-0.14331 0.66633,-0.40085 0.89233,-0.64956 0.44267,-0.48716 9.59702,-16.62519 9.74555,-17.18036 0.15568,-0.58183 0.11701,-1.40849 -0.0925,-1.9806 -0.2606,-0.71163 -0.97958,-1.44175 -1.68866,-1.71493 -0.31828,-0.12261 -0.68894,-0.18272 -1.06323,-0.18242 z"
         style="fill:#3f3f3f;fill-opacity:1"
         id="path1762"
         sodipodi:nodetypes="cssssscsccccscssssscc" />
    </g>
    <g
       id="g2457"
       transform="matrix(2,0,0,2,-288,-412)">
      <circle
         style="opacity:0.2;fill:#000000;fill-opacity:1;stroke-width:2;stroke-linecap:square"
         id="path2381"
         cx="312"
         cy="244.5"
         r="14" />
      <circle
         style="opacity:1;fill:#ffffff;fill-opacity:1;stroke-width:2;stroke-linecap:square"
         id="path2435"
         cx="312"
         cy="244"
         r="14" />
      <path
         d="m 318.79463,235.50042 c -0.36093,2.7e-4 -0.72638,0.0776 -1.0189,0.2283 -0.42747,0.22016 -0.85773,0.68653 -1.0486,1.1366 -0.20284,0.4783 -0.23197,1.3215 -0.0611,1.7697 0.0723,0.18953 0.19701,0.51519 0.27713,0.72368 0.18094,0.47085 0.24607,1.5065 0.13135,2.0882 -0.12917,0.65498 -0.53047,1.4116 -1.0009,1.8872 -1.4117,1.427 -3.546,1.452 -4.9481,0.0579 -0.48382,-0.48107 -0.55244,-0.59593 -2.7365,-4.5837 -0.741,-1.354 -1.406,-2.4876 -1.544,-2.6341 -0.434,-0.4699 -1.0375,-0.6379 -1.5901,-0.6407 -1.188,-0.0197 -2.0114,0.93136 -2.2068,1.9523 -0.14433,0.81702 -0.21072,0.67637 3.6269,7.6731 2.4223,4.4163 3.5736,6.4521 3.7624,6.6522 0.66871,0.70892 1.6214,0.88464 2.5129,0.4635 0.2344,-0.11074 0.49975,-0.30975 0.66925,-0.50194 0.33201,-0.37645 7.1978,-12.847 7.3092,-13.276 0.11676,-0.44961 0.0878,-1.0884 -0.0694,-1.5305 -0.19545,-0.5499 -0.73469,-1.1141 -1.2665,-1.3252 -0.23871,-0.0947 -0.51671,-0.14119 -0.79743,-0.14096 z"
         style="fill:#3f3f3f;fill-opacity:1"
         id="path2372" />
    </g>
    <g
       id="g1832"
       transform="matrix(4,0,0,4,-1136,-532)">
      <circle
         style="opacity:0.2;fill:#000000;fill-opacity:1;stroke-width:2;stroke-linecap:square"
         id="path1799"
         cx="320"
         cy="172.5"
         r="20" />
      <circle
         style="opacity:1;fill:#ffffff;fill-opacity:1;stroke-width:2;stroke-linecap:square"
         id="path1797"
         cx="320"
         cy="172"
         r="20" />
      <path
         d="m 329.05934,161.00047 c -0.48124,3.6e-4 -0.9685,0.10048 -1.35853,0.29544 -0.56995,0.28491 -1.14363,0.88843 -1.39812,1.47087 -0.27045,0.61896 -0.30929,1.71014 -0.0814,2.29015 0.0964,0.24527 0.26268,0.6667 0.3695,0.93651 0.24125,0.60932 0.32809,2.34917 0.17513,3.10194 -0.17222,0.8476 -0.70729,1.82674 -1.33452,2.44221 -1.88226,1.84667 -4.72798,1.87902 -6.59744,0.075 -0.64509,-0.62255 -0.73658,-1.17081 -3.64865,-6.33135 -0.988,-1.7522 -1.87466,-3.21918 -2.05866,-3.40876 -0.57866,-0.6081 -1.38332,-0.8255 -2.12012,-0.82913 -1.58399,-0.0255 -2.68186,1.20527 -2.94239,2.52646 -0.19244,1.0573 -0.28096,0.87528 4.83585,9.92969 3.22972,5.7151 4.76478,8.34961 5.01651,8.60856 0.89161,0.9174 2.16185,1.1448 3.35052,0.59981 0.31253,-0.14331 0.66633,-0.40085 0.89233,-0.64956 0.44267,-0.48716 9.59702,-16.62519 9.74555,-17.18036 0.15568,-0.58183 0.11701,-1.40849 -0.0925,-1.9806 -0.2606,-0.71163 -0.97958,-1.44175 -1.68866,-1.71493 -0.31828,-0.12261 -0.68894,-0.18272 -1.06323,-0.18242 z"
         style="fill:#3f3f3f;fill-opacity:1"
         id="path1809" />
    </g>
  </g>
  <g
     id="Highlights">
    <path
       id="rect653"
       style="opacity:0.2;fill:#ffffff"
       d="M 80,44 C 53.408027,44 32,65.408027 32,92 v 2 C 32,67.408027 53.408027,46 80,46 h 128 c 26.59197,0 48,21.408027 48,48 V 92 C 256,65.408027 234.59197,44 208,44 Z"
       sodipodi:nodetypes="sscsscsss" />
    <path
       id="rect773"
       style="opacity:0.2;fill:#ffffff"
       d="m 312,34 c -9.97199,0 -18,8.02801 -18,18 v 1 c 0,-9.97199 8.02801,-18 18,-18 h 48 c 9.97199,0 18,8.02801 18,18 v -1 c 0,-9.97199 -8.02801,-18 -18,-18 z" />
    <path
       id="rect1135"
       style="opacity:0.2;fill:#ffffff;fill-opacity:1"
       d="m 304,144 c -6.64799,0 -12,5.35201 -12,12 v 1 c 0,-6.64799 5.35201,-12 12,-12 h 32 c 6.64799,0 12,5.35201 12,12 v -1 c 0,-6.64799 -5.35201,-12 -12,-12 z" />
    <path
       id="rect1265"
       style="opacity:0.2;fill:#ffffff;fill-opacity:1"
       d="m 300,223 c -4.986,0 -9,4.014 -9,9 v 1 c 0,-4.986 4.014,-9 9,-9 h 24 c 4.986,0 9,4.014 9,9 v -1 c 0,-4.986 -4.014,-9 -9,-9 z" />
    <path
       id="rect1368"
       style="opacity:0.2;fill:#ffffff;fill-opacity:1"
       d="m 424,54 c -3.324,0 -6,2.676003 -6,6 v 1 c 0,-3.323997 2.676,-6 6,-6 h 16 c 3.324,0 6,2.676003 6,6 v -1 c 0,-3.323997 -2.676,-6 -6,-6 z" />
    <path
       id="rect1402"
       style="opacity:0.2;fill:#ffffff;fill-opacity:1"
       d="m 420,140 c -2.216,0 -4,1.784 -4,4 v 1 c 0,-2.216 1.784,-4 4,-4 h 8 c 2.216,0 4,1.784 4,4 v -1 c 0,-2.216 -1.784,-4 -4,-4 z" />
    <path
       id="rect1436"
       style="opacity:0.2;fill:#ffffff;fill-opacity:1"
       d="m 422,102 c -2.216,0 -4,1.784 -4,4 v 1 c 0,-2.216 1.784,-4 4,-4 h 12 c 2.216,0 4,1.784 4,4 v -1 c 0,-2.216 -1.784,-4 -4,-4 z" />
  </g>
</svg>
