<?xml version="1.0" encoding="UTF-8" standalone="no"?>
<!-- Created with Inkscape (http://www.inkscape.org/) -->

<svg
   width="480"
   height="300"
   viewBox="0 0 480 300"
   version="1.1"
   id="svg5"
   inkscape:version="1.2.2 (1:1.2.2+202305151914+b0a8486541)"
   sodipodi:docname="vmplayer.svg"
   xmlns:inkscape="http://www.inkscape.org/namespaces/inkscape"
   xmlns:sodipodi="http://sodipodi.sourceforge.net/DTD/sodipodi-0.dtd"
   xmlns="http://www.w3.org/2000/svg"
   xmlns:svg="http://www.w3.org/2000/svg">
  <sodipodi:namedview
     id="namedview7"
     pagecolor="#888888"
     bordercolor="#000000"
     borderopacity="0.25"
     inkscape:showpageshadow="true"
     inkscape:pageopacity="0"
     inkscape:pagecheckerboard="0"
     inkscape:deskcolor="#888888"
     inkscape:document-units="px"
     showgrid="false"
     showborder="false"
     inkscape:zoom="2.6866667"
     inkscape:cx="240.07444"
     inkscape:cy="150"
     inkscape:window-width="1920"
     inkscape:window-height="1008"
     inkscape:window-x="0"
     inkscape:window-y="0"
     inkscape:window-maximized="1"
     inkscape:current-layer="svg5" />
  <defs
     id="defs2" />
  <g
     id="Baseplate"
     style="display:none">
    <text
       y="19.774782"
       xml:space="preserve"
       x="15.006946"
       style="font-style:normal;font-variant:normal;font-weight:normal;font-stretch:normal;line-height:0%;font-family:'DejaVu Sans';-inkscape-font-specification:'DejaVu Sans';display:inline;fill:#000000;fill-opacity:1;stroke:none;enable-background:new"
       inkscape:label="context"
       id="context"><tspan
         style="font-style:normal;font-variant:normal;font-weight:normal;font-stretch:normal;font-size:18px;line-height:1.25;font-family:'DejaVu Sans';-inkscape-font-specification:'DejaVu Sans'"
         y="19.774782"
         x="15.006946"
         sodipodi:role="line"
         id="tspan3933">apps</tspan></text>
    <text
       y="19.774782"
       xml:space="preserve"
       x="122.48839"
       style="font-style:normal;font-variant:normal;font-weight:bold;font-stretch:normal;line-height:0%;font-family:'DejaVu Sans';-inkscape-font-specification:'DejaVu Sans Bold';text-align:start;writing-mode:lr-tb;text-anchor:start;display:inline;fill:#000000;fill-opacity:1;stroke:none;enable-background:new"
       inkscape:label="icon-name"
       id="icon-name"><tspan
         style="font-style:normal;font-variant:normal;font-weight:bold;font-stretch:normal;font-size:18px;line-height:1.25;font-family:'DejaVu Sans';-inkscape-font-specification:'DejaVu Sans Bold'"
         y="19.774782"
         x="122.48839"
         sodipodi:role="line"
         id="tspan3937">vmplayer</tspan></text>
    <rect
       style="fill:#ffffff"
       id="256x256"
       width="256"
       height="256"
       x="16"
       y="28" />
    <rect
       style="fill:#ffffff"
       id="96x96"
       width="96"
       height="96"
       x="288"
       y="28" />
    <rect
       style="fill:#ffffff"
       id="64x64"
       width="64"
       height="64"
       x="288"
       y="140" />
    <rect
       style="fill:#ffffff"
       id="48x48"
       width="48"
       height="48"
       x="288"
       y="220" />
    <rect
       style="fill:#ffffff"
       id="32x32"
       width="32"
       height="32"
       x="416"
       y="52" />
    <rect
       style="fill:#ffffff"
       id="24x24"
       width="24"
       height="24"
       x="416"
       y="100" />
    <rect
       style="fill:#ffffff"
       id="22x22"
       width="22"
       height="22"
       x="417"
       y="101" />
    <rect
       style="fill:#ffffff"
       id="16x16"
       width="16"
       height="16"
       x="416"
       y="140" />
  </g>
  <g
     id="Shadow">
    <rect
       style="opacity:0.2;fill:#000000"
       id="rect651"
       width="224"
       height="224"
       x="32"
       y="46"
       ry="48" />
    <rect
       style="opacity:0.2;fill:#000000"
       id="rect769"
       width="84"
       height="85"
       x="294"
       y="34"
       ry="18" />
    <rect
       style="opacity:0.2;fill:#000000;fill-opacity:1"
       id="rect1131"
       width="56"
       height="56"
       x="292"
       y="145"
       ry="12" />
    <rect
       style="opacity:0.2;fill:#000000;fill-opacity:1"
       id="rect1261"
       width="42"
       height="42"
       x="291"
       y="224"
       ry="9" />
    <rect
       style="opacity:0.2;fill:#000000;fill-opacity:1"
       id="rect1364"
       width="28"
       height="29"
       x="418"
       y="54"
       ry="6" />
    <rect
       style="opacity:0.2;fill:#000000;fill-opacity:1"
       id="rect1398"
       width="16"
       height="16"
       x="416"
       y="141"
       ry="4" />
    <rect
       style="opacity:0.2;fill:#000000;fill-opacity:1"
       id="rect1432"
       width="20"
       height="20"
       x="418"
       y="103"
       ry="4" />
  </g>
  <g
     id="Background">
    <rect
       style="fill:#1976d2;fill-opacity:1"
       id="rect597"
       width="224"
       height="224"
       x="32"
       y="44"
       ry="48" />
    <rect
       style="opacity:1;fill:#1976d2;fill-opacity:1"
       id="rect771"
       width="84"
       height="84"
       x="294"
       y="34"
       ry="18" />
    <rect
       style="opacity:1;fill:#1976d2;fill-opacity:1"
       id="rect1133"
       width="56"
       height="56"
       x="292"
       y="144"
       ry="12" />
    <rect
       style="opacity:1;fill:#1976d2;fill-opacity:1"
       id="rect1263"
       width="42"
       height="42"
       x="291"
       y="223"
       ry="9" />
    <rect
       style="opacity:1;fill:#1976d2;fill-opacity:1"
       id="rect1366"
       width="28"
       height="28"
       x="418"
       y="54"
       ry="6" />
    <rect
       style="opacity:1;fill:#1976d2;fill-opacity:1"
       id="rect1400"
       width="16"
       height="16"
       x="416"
       y="140"
       ry="4" />
    <rect
       style="opacity:1;fill:#1976d2;fill-opacity:1"
       id="rect1434"
       width="20"
       height="20"
       x="418"
       y="102"
       ry="4" />
  </g>
  <g
     id="g3366">
    <g
       id="g1166">
      <path
         d="m 418.85724,142.5 c -0.47486,0 -0.85716,0.38229 -0.85716,0.85716 v 3.8572 c 0,0.47486 0.38229,0.85716 0.85716,0.85716 0.47486,0 0.85716,-0.38229 0.85716,-0.85716 v -1.7947 l 1.28571,1.2858 v 1.3661 h 1.71429 v -0.42857 c 0,-0.23743 0.19115,-0.42858 0.42858,-0.42858 h 0.42857 v -1.7143 h -1.3661 l -1.2857,-1.2857 h 1.7947 c 0.47486,0 0.85716,-0.38229 0.85716,-0.85716 0,-0.47486 -0.38229,-0.85716 -0.85716,-0.85716 h -3.8572 z m 6.4284,0 c -0.47486,0 -0.85716,0.38229 -0.85716,0.85716 0,0.47486 0.38229,0.85716 0.85716,0.85716 h 1.7947 l -1.2858,1.2857 h -1.3661 v 1.7143 h 0.42857 c 0.23743,0 0.42858,0.19114 0.42858,0.42858 v 0.42857 h 1.7143 v -1.3661 l 1.2857,-1.2857 v 1.7947 c 0,0.47486 0.38229,0.85716 0.85716,0.85716 0.47486,0 0.85716,-0.38229 0.85716,-0.85716 v -3.8572 c 0,-0.47486 -0.38228,-0.85716 -0.85716,-0.85716 h -3.8572 z m -4.2858,6.4284 v 1.7142 c 0,0.4752 0.3822,0.8574 0.8574,0.8574 h 1.7143 v -1.7143 h -0.42857 c -0.23743,0 -0.42858,-0.19114 -0.42858,-0.42858 v -0.42857 h -1.7143 z m 4.2858,0 v 0.42857 c 0,0.23743 -0.19114,0.42858 -0.42858,0.42858 h -0.42857 v 1.7143 h 1.36611 l 1.2857,1.2857 h -1.7947 c -0.47486,0 -0.85716,0.38228 -0.85716,0.85716 0,0.47486 0.38229,0.85716 0.85716,0.85716 h 3.8572 c 0.4746,6e-4 0.8568,-0.3816 0.8568,-0.8568 v -3.8572 c 0,-0.47486 -0.38228,-0.85716 -0.85716,-0.85716 -0.47486,0 -0.85716,0.38229 -0.85716,0.85716 v 1.7947 l -1.2858,-1.2852 v -1.3661 h -1.7143 z"
         style="fill:#000000;fill-opacity:1;opacity:0.2"
         id="path1144" />
      <path
         d="m 418.85724,142 c -0.47486,0 -0.85716,0.38229 -0.85716,0.85716 v 3.8572 c 0,0.47486 0.38229,0.85716 0.85716,0.85716 0.47486,0 0.85716,-0.38229 0.85716,-0.85716 v -1.7947 l 1.28571,1.2858 v 1.3661 h 1.71429 v -0.42857 c 0,-0.23743 0.19115,-0.42858 0.42858,-0.42858 h 0.42857 v -1.7143 h -1.3661 l -1.2857,-1.2857 h 1.7947 c 0.47486,0 0.85716,-0.38229 0.85716,-0.85716 0,-0.47486 -0.38229,-0.85716 -0.85716,-0.85716 h -3.8572 z m 6.4284,0 c -0.47486,0 -0.85716,0.38229 -0.85716,0.85716 0,0.47486 0.38229,0.85716 0.85716,0.85716 h 1.7947 l -1.2858,1.2857 h -1.3661 v 1.7143 h 0.42857 c 0.23743,0 0.42858,0.19114 0.42858,0.42858 v 0.42857 h 1.7143 v -1.3661 l 1.2857,-1.2857 v 1.7947 c 0,0.47486 0.38229,0.85716 0.85716,0.85716 0.47486,0 0.85716,-0.38229 0.85716,-0.85716 v -3.8572 c 0,-0.47486 -0.38228,-0.85716 -0.85716,-0.85716 h -3.8572 z m -4.2858,6.4284 v 1.7142 c 0,0.4752 0.3822,0.8574 0.8574,0.8574 h 1.7143 v -1.7143 h -0.42857 c -0.23743,0 -0.42858,-0.19114 -0.42858,-0.42858 v -0.42857 h -1.7143 z m 4.2858,0 v 0.42857 c 0,0.23743 -0.19114,0.42858 -0.42858,0.42858 h -0.42857 v 1.7143 h 1.36611 l 1.2857,1.2857 h -1.7947 c -0.47486,0 -0.85716,0.38228 -0.85716,0.85716 0,0.47486 0.38229,0.85716 0.85716,0.85716 h 3.8572 c 0.4746,6e-4 0.8568,-0.3816 0.8568,-0.8568 v -3.8572 c 0,-0.47486 -0.38228,-0.85716 -0.85716,-0.85716 -0.47486,0 -0.85716,0.38229 -0.85716,0.85716 v 1.7947 l -1.2858,-1.2852 v -1.3661 h -1.7143 z"
         style="fill:#ffca28;fill-opacity:1"
         id="path998"
         sodipodi:nodetypes="cssssccccssccccssscccssccccssccccssssscccssccssccccssccccssscssssccccc" />
    </g>
    <g
       id="g786">
      <path
         d="m 422,105.5 c -0.554,0 -1,0.446 -1,1 v 4.5 c 0,0.554 0.446,1 1,1 0.554,0 1,-0.446 1,-1 v -2.0938 l 1.5,1.5 V 112 h 2 v -0.5 c 0,-0.277 0.223,-0.5 0.5,-0.5 h 0.5 v -2 h -1.5938 l -1.5,-1.5 h 2.094 c 0.554,0 1,-0.446 1,-1 0,-0.554 -0.446,-1 -1,-1 h -4.5 z m 7.5,0 c -0.554,0 -1,0.446 -1,1 0,0.554 0.446,1 1,1 h 2.0938 l -1.5,1.5 H 428.5 v 2 h 0.5 c 0.277,0 0.5,0.223 0.5,0.5 v 0.5 h 2 v -1.5938 l 1.5,-1.5 v 2.094 c 0,0.554 0.446,1 1,1 0.554,0 1,-0.446 1,-1 v -4.5 c 0,-0.554 -0.446,-1 -1,-1 h -4.5 z m -5,7.5 v 2 c 0,0.554 0.446,1 1,1 h 2 v -2 H 427 c -0.277,0 -0.5,-0.223 -0.5,-0.5 V 113 Z m 5,0 v 0.5 c 0,0.277 -0.223,0.5 -0.5,0.5 h -0.5 v 2 h 1.5938 l 1.5,1.5 h -2.094 c -0.554,0 -1,0.446 -1,1 0,0.554 0.446,1 1,1 h 4.5 c 0.554,0 1,-0.446 1,-1 V 114 c 0,-0.554 -0.446,-1 -1,-1 -0.554,0 -1,0.446 -1,1 v 2.0938 l -1.5,-1.5 v -1.594 h -2 z"
         style="fill:#000000;fill-opacity:1;opacity:0.2"
         id="path764" />
      <path
         d="m 422,105 c -0.554,0 -1,0.446 -1,1 v 4.5 c 0,0.554 0.446,1 1,1 0.554,0 1,-0.446 1,-1 v -2.0938 l 1.5,1.5 V 111.5 h 2 V 111 c 0,-0.277 0.223,-0.5 0.5,-0.5 h 0.5 v -2 h -1.5938 l -1.5,-1.5 h 2.094 c 0.554,0 1,-0.446 1,-1 0,-0.554 -0.446,-1 -1,-1 h -4.5 z m 7.5,0 c -0.554,0 -1,0.446 -1,1 0,0.554 0.446,1 1,1 h 2.0938 l -1.5,1.5 H 428.5 v 2 h 0.5 c 0.277,0 0.5,0.223 0.5,0.5 v 0.5 h 2 v -1.5938 l 1.5,-1.5 v 2.094 c 0,0.554 0.446,1 1,1 0.554,0 1,-0.446 1,-1 v -4.5 c 0,-0.554 -0.446,-1 -1,-1 h -4.5 z m -5,7.5 v 2 c 0,0.554 0.446,1 1,1 h 2 v -2 H 427 c -0.277,0 -0.5,-0.223 -0.5,-0.5 v -0.5 z m 5,0 v 0.5 c 0,0.277 -0.223,0.5 -0.5,0.5 h -0.5 v 2 h 1.5938 l 1.5,1.5 h -2.094 c -0.554,0 -1,0.446 -1,1 0,0.554 0.446,1 1,1 h 4.5 c 0.554,0 1,-0.446 1,-1 v -4.5 c 0,-0.554 -0.446,-1 -1,-1 -0.554,0 -1,0.446 -1,1 v 2.0938 l -1.5,-1.5 v -1.594 h -2 z"
         style="fill:#ffca28;fill-opacity:1"
         id="path306"
         sodipodi:nodetypes="sssssccccssccccssscscssccccssccccssssscccssccsscccssccccssssssssccccc" />
    </g>
    <g
       id="g3815">
      <path
         d="m 423.42876,59.00013 c -0.79143,0 -1.4286,0.63714 -1.4286,1.4286 v 6.4286 c 0,0.79143 0.63714,1.4286 1.4286,1.4286 0.79143,0 1.4286,-0.63714 1.4286,-1.4286 v -2.9911 l 2.1428,2.143 v 2.2768 h 2.8571 v -0.71428 c 0,-0.39572 0.31857,-0.71429 0.71429,-0.71429 h 0.71428 v -2.8571 h -2.2768 l -2.1428,-2.1429 h 2.9911 c 0.79143,0 1.4286,-0.63714 1.4286,-1.4286 0,-0.79143 -0.63714,-1.4286 -1.4286,-1.4286 h -6.4286 z m 10.714,0 c -0.79143,0 -1.4286,0.63714 -1.4286,1.4286 0,0.79143 0.63714,1.4286 1.4286,1.4286 h 2.9911 l -2.143,2.1428 h -2.2768 v 2.8571 h 0.71428 c 0.39572,0 0.71429,0.31857 0.71429,0.71429 v 0.71428 h 2.8571 V 66.009 l 2.1429,-2.1429 v 2.9911 c 0,0.79143 0.63714,1.4286 1.4286,1.4286 0.79143,0 1.42861,-0.63714 1.42861,-1.4286 V 60.4286 C 441.99984,59.63717 441.3627,59 440.57123,59 h -6.4286 z m -7.143,10.714 v 2.857002 c 0,0.792 0.637,1.429 1.429,1.429 h 2.8571 v -2.8571 h -0.71428 c -0.39572,0 -0.71429,-0.318572 -0.71429,-0.714292 v -0.71428 h -2.8571 z m 7.1429,0 v 0.71428 c 0,0.39572 -0.31857,0.714292 -0.71429,0.714292 h -0.71428 v 2.8571 h 2.2768 l 2.1428,2.1429 h -2.9911 c -0.79143,0 -1.4286,0.63714 -1.4286,1.4286 0,0.79143 0.63714,1.4286 1.4286,1.4286 h 6.4286 c 0.791,10e-4 1.428,-0.636 1.428,-1.428 v -6.4286 c 0,-0.791432 -0.63714,-1.428602 -1.4286,-1.428602 -0.79143,0 -1.4286,0.63714 -1.4286,1.428602 v 2.9911 l -2.143,-2.142 V 69.7156 h -2.8571 z"
         style="fill:#000000;fill-opacity:1;opacity:0.2"
         id="path3793" />
      <path
         d="m 423.42876,58.000178 c -0.79143,0 -1.4286,0.63714 -1.4286,1.4286 v 6.4286 c 0,0.79143 0.63714,1.4286 1.4286,1.4286 0.79143,0 1.4286,-0.63714 1.4286,-1.4286 v -2.9911 l 2.1428,2.143 v 2.2768 h 2.8571 v -0.71428 c 0,-0.39572 0.31857,-0.71429 0.71429,-0.71429 h 0.71428 v -2.8571 h -2.2768 l -2.1428,-2.1429 h 2.9911 c 0.79143,0 1.4286,-0.63714 1.4286,-1.4286 0,-0.79143 -0.63714,-1.4286 -1.4286,-1.4286 h -6.4286 z m 10.714,0 c -0.79143,0 -1.4286,0.63714 -1.4286,1.4286 0,0.79143 0.63714,1.4286 1.4286,1.4286 h 2.9911 l -2.143,2.1428 h -2.2768 v 2.8571 h 0.71428 c 0.39572,0 0.71429,0.31857 0.71429,0.71429 v 0.71428 h 2.8571 v -2.2768 l 2.1429,-2.1429 v 2.9911 c 0,0.79143 0.63714,1.4286 1.4286,1.4286 0.79143,0 1.42861,-0.63714 1.42861,-1.4286 v -6.4286 c 0,-0.79143 -0.63714,-1.4286 -1.42861,-1.4286 h -6.4286 z m -7.143,10.714 v 2.857002 c 0,0.792 0.637,1.429 1.429,1.429 h 2.8571 v -2.8571 h -0.71428 c -0.39572,0 -0.71429,-0.318572 -0.71429,-0.714292 v -0.71428 h -2.8571 z m 7.1429,0 v 0.71428 c 0,0.39572 -0.31857,0.714292 -0.71429,0.714292 h -0.71428 v 2.8571 h 2.2768 l 2.1428,2.1429 h -2.9911 c -0.79143,0 -1.4286,0.63714 -1.4286,1.4286 0,0.79143 0.63714,1.4286 1.4286,1.4286 h 6.4286 c 0.791,0.001 1.428,-0.636 1.428,-1.428 v -6.4286 c 0,-0.791432 -0.63714,-1.428602 -1.4286,-1.428602 -0.79143,0 -1.4286,0.63714 -1.4286,1.428602 v 2.9911 l -2.143,-2.142 v -2.276802 h -2.8571 z"
         style="fill:#ffca28;fill-opacity:1"
         id="path3611"
         sodipodi:nodetypes="cssssccccssccccssscccssccccssccccssssscccssccssccccssccccssscssssccccc" />
    </g>
    <g
       id="g3779">
      <path
         d="m 299,230 c -1.108,0 -2,0.892 -2,2 v 9 c 0,1.108 0.892,2 2,2 1.108,0 2,-0.892 2,-2 v -4.1875 l 3,3 V 243 h 4 v -1 c 0,-0.554 0.446,-1 1,-1 h 1 v -4 h -3.1875 l -3,-3 h 4.188 c 1.108,0 2,-0.892 2,-2 0,-1.108 -0.892,-2 -2,-2 h -9 z m 17,0 c -1.108,0 -2,0.892 -2,2 0,1.108 0.892,2 2,2 h 4.1875 l -3,3 H 314 v 4 h 1 c 0.554,0 1,0.446 1,1 v 1 h 4 v -3.1875 l 3,-3 v 4.188 c 0,1.108 0.892,2 2,2 1.108,0 2,-0.892 2,-2 v -9 c 0,-1.108 -0.892,-2 -2,-2 h -9 z m -12,17 v 4 c 0,1.108 0.892,2 2,2 h 4 v -4 h -1 c -0.554,0 -1,-0.446 -1,-1 v -1 z m 12,0 v 1 c 0,0.554 -0.446,1 -1,1 h -1 v 4 h 3.1875 l 3,3 h -4.188 c -1.108,0 -2,0.892 -2,2 0,1.108 0.892,2 2,2 h 9 c 1.108,0 2,-0.892 2,-2 v -9 c 0,-1.108 -0.892,-2 -2,-2 -1.108,0 -2,0.892 -2,2 v 4.1875 l -3,-3 v -3.188 h -4 z"
         style="opacity:0.2;fill:#000000;fill-opacity:1"
         id="path3282"
         sodipodi:nodetypes="sssssccccssccccssscscssccccssccccssssscccssccsscccssccccssssssssccccc" />
      <path
         d="m 299,229 c -1.108,0 -2,0.892 -2,2 v 9 c 0,1.108 0.892,2 2,2 1.108,0 2,-0.892 2,-2 v -4.1875 l 3,3 V 242 h 4 v -1 c 0,-0.554 0.446,-1 1,-1 h 1 v -4 h -3.1875 l -3,-3 h 4.188 c 1.108,0 2,-0.892 2,-2 0,-1.108 -0.892,-2 -2,-2 h -9 z m 17,0 c -1.108,0 -2,0.892 -2,2 0,1.108 0.892,2 2,2 h 4.1875 l -3,3 H 314 v 4 h 1 c 0.554,0 1,0.446 1,1 v 1 h 4 v -3.1875 l 3,-3 v 4.188 c 0,1.108 0.892,2 2,2 1.108,0 2,-0.892 2,-2 v -9 c 0,-1.108 -0.892,-2 -2,-2 h -9 z m -12,17 v 4 c 0,1.108 0.892,2 2,2 h 4 v -4 h -1 c -0.554,0 -1,-0.446 -1,-1 v -1 z m 12,0 v 1 c 0,0.554 -0.446,1 -1,1 h -1 v 4 h 3.1875 l 3,3 h -4.188 c -1.108,0 -2,0.892 -2,2 0,1.108 0.892,2 2,2 h 9 c 1.108,0 2,-0.892 2,-2 v -9 c 0,-1.108 -0.892,-2 -2,-2 -1.108,0 -2,0.892 -2,2 v 4.1875 l -3,-3 v -3.188 h -4 z"
         style="fill:#ffca28;fill-opacity:1"
         id="path2934"
         sodipodi:nodetypes="sssssccccssccccssscscssccccssccccssssscccssccsscccssccccssssssssccccc" />
    </g>
    <g
       id="g3775">
      <path
         d="M 302.85742,153 C 301.27454,153 300,154.27448 300,155.85742 v 12.35742 c 0,1.58289 1.41705,2.78516 3,2.78516 1.58289,0 3,-1.20221 3,-2.78516 v -5.48242 l 4,4.28516 V 171 h 5.71484 v -0.85742 c 0,-0.79146 0.63629,-1.42774 1.42774,-1.42774 H 318 V 163 h -3.98242 l -4.28516,-4 h 5.48242 c 1.58289,0 2.78516,-1.41705 2.78516,-3 0,-1.58289 -1.20221,-3 -2.78516,-3 z m 21.92774,0 C 323.20221,153 322,154.41711 322,156 c 0,1.58295 1.20227,3 2.78516,3 h 5.48242 l -4.28516,4 H 322 v 5.71484 h 0.85742 c 0.79145,0 1.42774,0.63628 1.42774,1.42774 V 171 H 330 v -3.98242 l 4,-4.28516 v 5.48242 c 0,1.58295 1.41711,2.78516 3,2.78516 1.58295,0 3,-1.20227 3,-2.78516 V 155.85742 C 340,154.27448 338.72546,153 337.14258,153 Z M 310,175 v 5.14258 C 310,181.7266 311.2734,183 312.85742,183 H 318 v -5.71484 h -0.85742 c -0.79145,0 -1.42774,-0.63629 -1.42774,-1.42774 V 175 Z m 14.28516,0 v 0.85742 c 0,0.79145 -0.63629,1.42774 -1.42774,1.42774 H 322 V 183 h 3.98242 l 4.28516,4 h -5.48242 C 323.20227,187 322,188.41705 322,190 c 0,1.58289 1.20221,3 2.78516,3 h 12.35742 C 338.72546,193 340,191.72552 340,190.14258 V 177.78516 C 340,176.20227 338.58295,175 337,175 c -1.58289,0 -3,1.20221 -3,2.78516 v 5.48242 l -4,-4.28516 V 175 Z"
         style="fill:#000000;opacity:0.2"
         id="path2661" />
      <path
         d="M 302.85742,152 C 301.27454,152 300,153.27448 300,154.85742 v 12.35742 c 0,1.58289 1.41705,2.78516 3,2.78516 1.58289,0 3,-1.20221 3,-2.78516 v -5.48242 l 4,4.28516 V 170 h 5.71484 v -0.85742 c 0,-0.79146 0.63629,-1.42774 1.42774,-1.42774 H 318 V 162 h -3.98242 l -4.28516,-4 h 5.48242 c 1.58289,0 2.78516,-1.41705 2.78516,-3 0,-1.58289 -1.20221,-3 -2.78516,-3 z m 21.92774,0 C 323.20221,152 322,153.41711 322,155 c 0,1.58295 1.20227,3 2.78516,3 h 5.48242 l -4.28516,4 H 322 v 5.71484 h 0.85742 c 0.79145,0 1.42774,0.63628 1.42774,1.42774 V 170 H 330 v -3.98242 l 4,-4.28516 v 5.48242 c 0,1.58295 1.41711,2.78516 3,2.78516 1.58295,0 3,-1.20227 3,-2.78516 V 154.85742 C 340,153.27448 338.72546,152 337.14258,152 Z M 310,174 v 5.14258 C 310,180.7266 311.2734,182 312.85742,182 H 318 v -5.71484 h -0.85742 c -0.79145,0 -1.42774,-0.63629 -1.42774,-1.42774 V 174 Z m 14.28516,0 v 0.85742 c 0,0.79145 -0.63629,1.42774 -1.42774,1.42774 H 322 V 182 h 3.98242 l 4.28516,4 h -5.48242 C 323.20227,186 322,187.41705 322,189 c 0,1.58289 1.20221,3 2.78516,3 h 12.35742 C 338.72546,192 340,190.72552 340,189.14258 V 176.78516 C 340,175.20227 338.58295,174 337,174 c -1.58289,0 -3,1.20221 -3,2.78516 v 5.48242 l -4,-4.28516 V 174 Z"
         style="fill:#ffca28;fill-opacity:1"
         id="path2633"
         sodipodi:nodetypes="sssssccccssccccsssssssccccssccccsssssscssccsscccssccccsssssssscccc" />
    </g>
    <g
       id="g3771">
      <path
         d="m 310,47 c -2.216,0 -4,1.784 -4,4 v 18 c 0,2.216 1.784,4 4,4 2.216,0 4,-1.784 4,-4 v -8.375 l 6,6 V 73 h 8 v -2 c 0,-1.108 0.892,-2 2,-2 h 2 v -8 h -6.375 l -6,-6 h 8.376 c 2.216,0 4,-1.784 4,-4 0,-2.216 -1.784,-4 -4,-4 h -18 z m 34,0 c -2.216,0 -4,1.784 -4,4 0,2.216 1.784,4 4,4 h 8.375 l -6,6 H 340 v 8 h 2 c 1.108,0 2,0.892 2,2 v 2 h 8 v -6.375 l 6,-6 v 8.376 c 0,2.216 1.784,4 4,4 2.216,0 4,-1.784 4,-4 v -18 c 0,-2.216 -1.784,-4 -4,-4 h -18 z m -24,34 v 8 c 0,2.216 1.784,4 4,4 h 8 v -8 h -2 c -1.108,0 -2,-0.892 -2,-2 v -2 z m 24,0 v 2 c 0,1.108 -0.892,2 -2,2 h -2 v 8 h 6.375 l 6,6 h -8.376 c -2.216,0 -4,1.784 -4,4 0,2.216 1.784,4 4,4 h 18 c 2.216,0 4,-1.784 4,-4 V 85 c 0,-2.216 -1.784,-4 -4,-4 -2.216,0 -4,1.784 -4,4 v 8.375 l -6,-6 v -6.376 h -8 z"
         style="opacity:0.2;fill:#000000;fill-opacity:1;stroke-width:2"
         id="path3310" />
      <path
         d="m 310,46 c -2.216,0 -4,1.784 -4,4 v 18 c 0,2.216 1.784,4 4,4 2.216,0 4,-1.784 4,-4 v -8.375 l 6,6 V 72 h 8 v -2 c 0,-1.108 0.892,-2 2,-2 h 2 v -8 h -6.375 l -6,-6 h 8.376 c 2.216,0 4,-1.784 4,-4 0,-2.216 -1.784,-4 -4,-4 h -18 z m 34,0 c -2.216,0 -4,1.784 -4,4 0,2.216 1.784,4 4,4 h 8.375 l -6,6 H 340 v 8 h 2 c 1.108,0 2,0.892 2,2 v 2 h 8 v -6.375 l 6,-6 v 8.376 c 0,2.216 1.784,4 4,4 2.216,0 4,-1.784 4,-4 v -18 c 0,-2.216 -1.784,-4 -4,-4 h -18 z m -24,34 v 8 c 0,2.216 1.784,4 4,4 h 8 v -8 h -2 c -1.108,0 -2,-0.892 -2,-2 v -2 z m 24,0 v 2 c 0,1.108 -0.892,2 -2,2 h -2 v 8 h 6.375 l 6,6 h -8.376 c -2.216,0 -4,1.784 -4,4 0,2.216 1.784,4 4,4 h 18 c 2.216,0 4,-1.784 4,-4 V 84 c 0,-2.216 -1.784,-4 -4,-4 -2.216,0 -4,1.784 -4,4 v 8.375 l -6,-6 v -6.376 h -8 z"
         style="fill:#ffca28;fill-opacity:1;stroke-width:2"
         id="path3338" />
    </g>
    <g
       id="g3783">
      <path
         d="M 75.42968,80 C 69.09816,80 64,85.09792 64,91.42968 v 49.42968 C 64,147.19092 69.6682,152 76,152 c 6.33156,0 12,-4.80884 12,-11.14064 v -21.92968 l 16,17.14064 V 152 h 22.85936 v -3.42968 c 0,-3.16584 2.54516,-5.71096 5.71096,-5.71096 H 136 V 120 h -15.92968 l -17.14064,-16 h 21.92968 C 131.19092,104 136,98.3318 136,92 136,85.66844 131.19116,80 124.85936,80 Z m 87.71096,0 C 156.80884,80 152,85.66844 152,92 c 0,6.3318 4.80908,12 11.14064,12 h 21.92968 l -17.14064,16 H 152 v 22.85936 h 3.42968 c 3.1658,0 5.71096,2.54512 5.71096,5.71096 V 152 H 184 v -15.92968 l 16,-17.14064 v 21.92968 c 0,6.3318 5.66844,11.14064 12,11.14064 6.3318,0 12,-4.80908 12,-11.14064 V 91.42968 C 224,85.09792 218.90184,80 212.57032,80 Z M 104,168 v 20.57032 C 104,194.9064 109.0936,200 115.42968,200 H 136 v -22.85936 h -3.42968 c -3.1658,0 -5.71096,-2.54516 -5.71096,-5.71096 V 168 Z m 57.14064,0 v 3.42968 c 0,3.1658 -2.54516,5.71096 -5.71096,5.71096 H 152 V 200 h 15.92968 l 17.14064,16 H 163.14064 C 156.80908,216 152,221.6682 152,228 c 0,6.33156 4.80884,12 11.14064,12 h 49.42968 C 218.90184,240 224,234.90208 224,228.57032 V 179.14064 C 224,172.80908 218.3318,168 212,168 c -6.33156,0 -12,4.80884 -12,11.14064 v 21.92968 L 184,183.92968 V 168 Z"
         style="opacity:0.2;fill:#000000;fill-opacity:1;stroke-width:4"
         id="path2773" />
      <path
         d="M 75.42968,78 C 69.09816,78 64,83.09792 64,89.42968 v 49.42968 C 64,145.19092 69.6682,150 76,150 c 6.33156,0 12,-4.80884 12,-11.14064 v -21.92968 l 16,17.14064 V 150 h 22.85936 v -3.42968 c 0,-3.16584 2.54516,-5.71096 5.71096,-5.71096 H 136 V 118 h -15.92968 l -17.14064,-16 h 21.92968 C 131.19092,102 136,96.3318 136,90 136,83.66844 131.19116,78 124.85936,78 Z m 87.71096,0 C 156.80884,78 152,83.66844 152,90 c 0,6.3318 4.80908,12 11.14064,12 h 21.92968 l -17.14064,16 H 152 v 22.85936 h 3.42968 c 3.1658,0 5.71096,2.54512 5.71096,5.71096 V 150 H 184 v -15.92968 l 16,-17.14064 v 21.92968 c 0,6.3318 5.66844,11.14064 12,11.14064 6.3318,0 12,-4.80908 12,-11.14064 V 89.42968 C 224,83.09792 218.90184,78 212.57032,78 Z M 104,166 v 20.57032 C 104,192.9064 109.0936,198 115.42968,198 H 136 v -22.85936 h -3.42968 c -3.1658,0 -5.71096,-2.54516 -5.71096,-5.71096 V 166 Z m 57.14064,0 v 3.42968 c 0,3.1658 -2.54516,5.71096 -5.71096,5.71096 H 152 V 198 h 15.92968 l 17.14064,16 H 163.14064 C 156.80908,214 152,219.6682 152,226 c 0,6.33156 4.80884,12 11.14064,12 h 49.42968 C 218.90184,238 224,232.90208 224,226.57032 V 177.14064 C 224,170.80908 218.3318,166 212,166 c -6.33156,0 -12,4.80884 -12,11.14064 v 21.92968 L 184,181.92968 V 166 Z"
         style="fill:#ffca28;fill-opacity:1;stroke-width:4"
         id="path2745"
         sodipodi:nodetypes="sssssccccssccccsssssssccccssccccsssssscssccsscccssccccsssssssscccc" />
    </g>
  </g>
  <g
     id="Highlights">
    <path
       id="rect653"
       style="opacity:0.2;fill:#ffffff"
       d="M 80,44 C 53.408027,44 32,65.408027 32,92 v 2 C 32,67.408027 53.408027,46 80,46 h 128 c 26.59197,0 48,21.408027 48,48 V 92 C 256,65.408027 234.59197,44 208,44 Z"
       sodipodi:nodetypes="sscsscsss" />
    <path
       id="rect773"
       style="opacity:0.2;fill:#ffffff"
       d="m 312,34 c -9.97199,0 -18,8.02801 -18,18 v 1 c 0,-9.97199 8.02801,-18 18,-18 h 48 c 9.97199,0 18,8.02801 18,18 v -1 c 0,-9.97199 -8.02801,-18 -18,-18 z" />
    <path
       id="rect1135"
       style="opacity:0.2;fill:#ffffff;fill-opacity:1"
       d="m 304,144 c -6.64799,0 -12,5.35201 -12,12 v 1 c 0,-6.64799 5.35201,-12 12,-12 h 32 c 6.64799,0 12,5.35201 12,12 v -1 c 0,-6.64799 -5.35201,-12 -12,-12 z" />
    <path
       id="rect1265"
       style="opacity:0.2;fill:#ffffff;fill-opacity:1"
       d="m 300,223 c -4.986,0 -9,4.014 -9,9 v 1 c 0,-4.986 4.014,-9 9,-9 h 24 c 4.986,0 9,4.014 9,9 v -1 c 0,-4.986 -4.014,-9 -9,-9 z" />
    <path
       id="rect1368"
       style="opacity:0.2;fill:#ffffff;fill-opacity:1"
       d="m 424,54 c -3.324,0 -6,2.676003 -6,6 v 1 c 0,-3.323997 2.676,-6 6,-6 h 16 c 3.324,0 6,2.676003 6,6 v -1 c 0,-3.323997 -2.676,-6 -6,-6 z" />
    <path
       id="rect1402"
       style="opacity:0.2;fill:#ffffff;fill-opacity:1"
       d="m 420,140 c -2.216,0 -4,1.784 -4,4 v 1 c 0,-2.216 1.784,-4 4,-4 h 8 c 2.216,0 4,1.784 4,4 v -1 c 0,-2.216 -1.784,-4 -4,-4 z" />
    <path
       id="rect1436"
       style="opacity:0.2;fill:#ffffff;fill-opacity:1"
       d="m 422,102 c -2.216,0 -4,1.784 -4,4 v 1 c 0,-2.216 1.784,-4 4,-4 h 12 c 2.216,0 4,1.784 4,4 v -1 c 0,-2.216 -1.784,-4 -4,-4 z" />
  </g>
</svg>
