<?xml version="1.0" encoding="UTF-8" standalone="no"?>
<!-- Created with Inkscape (http://www.inkscape.org/) -->

<svg
   width="480"
   height="300"
   viewBox="0 0 480 300"
   version="1.1"
   id="svg5"
   inkscape:version="1.2.2 (1:1.2.2+202305151914+b0a8486541)"
   sodipodi:docname="vmware-workstation.svg"
   xmlns:inkscape="http://www.inkscape.org/namespaces/inkscape"
   xmlns:sodipodi="http://sodipodi.sourceforge.net/DTD/sodipodi-0.dtd"
   xmlns="http://www.w3.org/2000/svg"
   xmlns:svg="http://www.w3.org/2000/svg">
  <sodipodi:namedview
     id="namedview7"
     pagecolor="#888888"
     bordercolor="#000000"
     borderopacity="0.25"
     inkscape:showpageshadow="true"
     inkscape:pageopacity="0"
     inkscape:pagecheckerboard="0"
     inkscape:deskcolor="#888888"
     inkscape:document-units="px"
     showgrid="false"
     showborder="false"
     inkscape:zoom="3.2463768"
     inkscape:cx="239.03571"
     inkscape:cy="151.86161"
     inkscape:window-width="1920"
     inkscape:window-height="1008"
     inkscape:window-x="0"
     inkscape:window-y="0"
     inkscape:window-maximized="1"
     inkscape:current-layer="svg5" />
  <defs
     id="defs2" />
  <g
     id="Baseplate"
     style="display:none">
    <text
       y="19.774782"
       xml:space="preserve"
       x="15.006946"
       style="font-style:normal;font-variant:normal;font-weight:normal;font-stretch:normal;line-height:0%;font-family:'DejaVu Sans';-inkscape-font-specification:'DejaVu Sans';display:inline;fill:#000000;fill-opacity:1;stroke:none;enable-background:new"
       inkscape:label="context"
       id="context"><tspan
         style="font-style:normal;font-variant:normal;font-weight:normal;font-stretch:normal;font-size:18px;line-height:1.25;font-family:'DejaVu Sans';-inkscape-font-specification:'DejaVu Sans'"
         y="19.774782"
         x="15.006946"
         sodipodi:role="line"
         id="tspan3933">apps</tspan></text>
    <text
       y="19.774782"
       xml:space="preserve"
       x="122.48839"
       style="font-style:normal;font-variant:normal;font-weight:bold;font-stretch:normal;line-height:0%;font-family:'DejaVu Sans';-inkscape-font-specification:'DejaVu Sans Bold';text-align:start;writing-mode:lr-tb;text-anchor:start;display:inline;fill:#000000;fill-opacity:1;stroke:none;enable-background:new"
       inkscape:label="icon-name"
       id="icon-name"><tspan
         style="font-style:normal;font-variant:normal;font-weight:bold;font-stretch:normal;font-size:18px;line-height:1.25;font-family:'DejaVu Sans';-inkscape-font-specification:'DejaVu Sans Bold'"
         y="19.774782"
         x="122.48839"
         sodipodi:role="line"
         id="tspan3937">vmware-workstation</tspan></text>
    <rect
       style="fill:#ffffff"
       id="256x256"
       width="256"
       height="256"
       x="16"
       y="28" />
    <rect
       style="fill:#ffffff"
       id="96x96"
       width="96"
       height="96"
       x="288"
       y="28" />
    <rect
       style="fill:#ffffff"
       id="64x64"
       width="64"
       height="64"
       x="288"
       y="140" />
    <rect
       style="fill:#ffffff"
       id="48x48"
       width="48"
       height="48"
       x="288"
       y="220" />
    <rect
       style="fill:#ffffff"
       id="32x32"
       width="32"
       height="32"
       x="416"
       y="52" />
    <rect
       style="fill:#ffffff"
       id="24x24"
       width="24"
       height="24"
       x="416"
       y="100" />
    <rect
       style="fill:#ffffff"
       id="22x22"
       width="22"
       height="22"
       x="417"
       y="101" />
    <rect
       style="fill:#ffffff"
       id="16x16"
       width="16"
       height="16"
       x="416"
       y="140" />
  </g>
  <g
     id="Shadow">
    <rect
       style="opacity:0.2;fill:#000000"
       id="rect651"
       width="224"
       height="224"
       x="32"
       y="46"
       ry="48" />
    <rect
       style="opacity:0.2;fill:#000000"
       id="rect769"
       width="84"
       height="85"
       x="294"
       y="34"
       ry="18" />
    <rect
       style="opacity:0.2;fill:#000000;fill-opacity:1"
       id="rect1131"
       width="56"
       height="56"
       x="292"
       y="145"
       ry="12" />
    <rect
       style="opacity:0.2;fill:#000000;fill-opacity:1"
       id="rect1261"
       width="42"
       height="42"
       x="291"
       y="224"
       ry="9" />
    <rect
       style="opacity:0.2;fill:#000000;fill-opacity:1"
       id="rect1364"
       width="28"
       height="29"
       x="418"
       y="54"
       ry="6" />
    <rect
       style="opacity:0.2;fill:#000000;fill-opacity:1"
       id="rect1398"
       width="16"
       height="16"
       x="416"
       y="141"
       ry="4" />
    <rect
       style="opacity:0.2;fill:#000000;fill-opacity:1"
       id="rect1432"
       width="20"
       height="20"
       x="418"
       y="103"
       ry="4" />
  </g>
  <g
     id="Background">
    <rect
       style="fill:#e4e4e4;fill-opacity:1"
       id="rect597"
       width="224"
       height="224"
       x="32"
       y="44"
       ry="48" />
    <rect
       style="opacity:1;fill:#e4e4e4;fill-opacity:1"
       id="rect771"
       width="84"
       height="84"
       x="294"
       y="34"
       ry="18" />
    <rect
       style="opacity:1;fill:#e4e4e4;fill-opacity:1"
       id="rect1133"
       width="56"
       height="56"
       x="292"
       y="144"
       ry="12" />
    <rect
       style="opacity:1;fill:#e4e4e4;fill-opacity:1"
       id="rect1263"
       width="42"
       height="42"
       x="291"
       y="223"
       ry="9" />
    <rect
       style="opacity:1;fill:#e4e4e4;fill-opacity:1"
       id="rect1366"
       width="28"
       height="28"
       x="418"
       y="54"
       ry="6" />
    <rect
       style="opacity:1;fill:#e4e4e4;fill-opacity:1"
       id="rect1400"
       width="16"
       height="16"
       x="416"
       y="140"
       ry="4" />
    <rect
       style="opacity:1;fill:#e4e4e4;fill-opacity:1"
       id="rect1434"
       width="20"
       height="20"
       x="418"
       y="102"
       ry="4"
       inkscape:label="rect1434" />
  </g>
  <g
     id="g592">
    <g
       id="g3683">
      <path
         d="m 420,146.5 c -0.554,0 -1,0.446 -1,1 v 5 c 0,0.554 0.446,1 1,1 h 5 c 0.554,0 1,-0.446 1,-1 v -5 c 0,-0.554 -0.446,-1 -1,-1 z m 0.5,1 h 4 c 0.277,0 0.5,0.223 0.5,0.5 v 4 c 0,0.277 -0.223,0.5 -0.5,0.5 h -4 c -0.277,0 -0.5,-0.223 -0.5,-0.5 v -4 c 0,-0.277 0.223,-0.5 0.5,-0.5 z"
         style="opacity:0.2;fill:#000000;stroke-width:2;stroke-linecap:square"
         id="path568" />
      <path
         d="m 420,146 c -0.554,0 -1,0.446 -1,1 v 5 c 0,0.554 0.446,1 1,1 h 5 c 0.554,0 1,-0.446 1,-1 v -5 c 0,-0.554 -0.446,-1 -1,-1 z m 0.5,1 h 4 c 0.277,0 0.5,0.223 0.5,0.5 v 4 c 0,0.277 -0.223,0.5 -0.5,0.5 h -4 c -0.277,0 -0.5,-0.223 -0.5,-0.5 v -4 c 0,-0.277 0.223,-0.5 0.5,-0.5 z"
         style="opacity:1;fill:#f38b00;fill-opacity:1;stroke-width:2;stroke-linecap:square"
         id="path484"
         sodipodi:nodetypes="ssssssssssssssssss" />
      <path
         id="path512"
         style="opacity:0.2;fill:#000000;stroke-width:2;stroke-linecap:square"
         d="M 423 143.5 C 422.446 143.5 422 143.946 422 144.5 L 422 146 L 423 146 L 423 145 C 423 144.723 423.223 144.5 423.5 144.5 L 427.5 144.5 C 427.777 144.5 428 144.723 428 145 L 428 149 C 428 149.277 427.777 149.5 427.5 149.5 L 423.5 149.5 C 423.223 149.5 423 149.277 423 149 L 423 147 L 422 147 L 422 149.5 C 422 150.054 422.446 150.5 423 150.5 L 428 150.5 C 428.554 150.5 429 150.054 429 149.5 L 429 144.5 C 429 143.946 428.554 143.5 428 143.5 L 423 143.5 z " />
      <path
         id="path540"
         style="opacity:1;fill:#0097d3;fill-opacity:1;stroke-width:2;stroke-linecap:square"
         d="M 423 143 C 422.446 143 422 143.446 422 144 L 422 146 L 423 146 L 423 144.5 C 423 144.223 423.223 144 423.5 144 L 427.5 144 C 427.777 144 428 144.223 428 144.5 L 428 148.5 C 428 148.777 427.777 149 427.5 149 L 423.5 149 C 423.223 149 423 148.777 423 148.5 L 423 147 L 422 147 L 422 149 C 422 149.554 422.446 150 423 150 L 428 150 C 428.554 150 429 149.554 429 149 L 429 144 C 429 143.446 428.554 143 428 143 L 423 143 z " />
    </g>
    <g
       id="g3574">
      <path
         d="m 422.5,109.5 c -0.82843,0 -1.5,0.67157 -1.5,1.5 v 7 c 0,0.82843 0.67157,1.5 1.5,1.5 h 7 c 0.82843,0 1.5,-0.67157 1.5,-1.5 v -7 c 0,-0.82843 -0.67157,-1.5 -1.5,-1.5 z m 1.5,2 h 4 c 0.554,0 1,0.446 1,1 v 4 c 0,0.554 -0.446,1 -1,1 h -4 c -0.554,0 -1,-0.446 -1,-1 v -4 c 0,-0.554 0.446,-1 1,-1 z"
         style="fill:#000000;fill-opacity:1;stroke-width:2;stroke-linecap:square;opacity:0.2"
         id="path3628" />
      <path
         d="m 422.5,109 c -0.82843,0 -1.5,0.67157 -1.5,1.5 v 7 c 0,0.82843 0.67157,1.5 1.5,1.5 h 7 c 0.82843,0 1.5,-0.67157 1.5,-1.5 v -7 c 0,-0.82843 -0.67157,-1.5 -1.5,-1.5 z m 1.5,2 h 4 c 0.554,0 1,0.446 1,1 v 4 c 0,0.554 -0.446,1 -1,1 h -4 c -0.554,0 -1,-0.446 -1,-1 v -4 c 0,-0.554 0.446,-1 1,-1 z"
         style="fill:#f38b00;fill-opacity:1;stroke-width:2;stroke-linecap:square"
         id="path3129"
         sodipodi:nodetypes="ssssssssssssssssss" />
      <path
         id="path3565"
         style="opacity:0.2;fill:#000000;fill-opacity:1;stroke-width:2;stroke-linecap:square"
         d="m 426.5,105.5 c -0.82843,0 -1.5,0.67157 -1.5,1.5 v 2 h 2 v -0.5 c 0,-0.554 0.446,-1 1,-1 h 4 c 0.554,0 1,0.446 1,1 v 4 c 0,0.554 -0.446,1 -1,1 h -4 c -0.554,0 -1,-0.446 -1,-1 V 111 h -2 v 3 c 0,0.82843 0.67157,1.5 1.5,1.5 h 7 c 0.82843,0 1.5,-0.67157 1.5,-1.5 v -7 c 0,-0.82843 -0.67157,-1.5 -1.5,-1.5 z"
         sodipodi:nodetypes="ssccssssssssccsssssss" />
      <path
         id="path2501"
         style="fill:#0097d3;fill-opacity:1;stroke-width:2;stroke-linecap:square"
         d="m 426.5,105 c -0.82843,0 -1.5,0.67157 -1.5,1.5 v 2.5 h 2 v -1 c 0,-0.554 0.446,-1 1,-1 h 4 c 0.554,0 1,0.446 1,1 v 4 c 0,0.554 -0.446,1 -1,1 h -4 c -0.554,0 -1,-0.446 -1,-1 v -1 h -2 v 2.5 c 0,0.82843 0.67157,1.5 1.5,1.5 h 7 c 0.82843,0 1.5,-0.67157 1.5,-1.5 v -7 c 0,-0.82843 -0.67157,-1.5 -1.5,-1.5 z"
         sodipodi:nodetypes="ssccssssssssccsssssss" />
    </g>
    <g
       id="g1740">
      <path
         d="m 424,64 c -1.108,0 -2,0.892 -2,2 v 11 c 0,1.108 0.892,2 2,2 h 11 c 1.108,0 2,-0.892 2,-2 V 66 c 0,-1.108 -0.892,-2 -2,-2 z m 2,3 h 7 c 0.554,0 1,0.446 1,1 v 7 c 0,0.554 -0.446,1 -1,1 h -7 c -0.554,0 -1,-0.446 -1,-1 v -7 c 0,-0.554 0.446,-1 1,-1 z"
         style="opacity:0.2;fill:#000000;fill-opacity:1;stroke-width:4;stroke-linecap:square"
         id="path2199" />
      <path
         d="m 424,63 c -1.108,0 -2,0.892 -2,2 v 11 c 0,1.108 0.892,2 2,2 h 11 c 1.108,0 2,-0.892 2,-2 V 65 c 0,-1.108 -0.892,-2 -2,-2 z m 2,3 h 7 c 0.554,0 1,0.446 1,1 v 7 c 0,0.554 -0.446,1 -1,1 h -7 c -0.554,0 -1,-0.446 -1,-1 v -7 c 0,-0.554 0.446,-1 1,-1 z"
         style="fill:#f38b00;fill-opacity:1;stroke-width:4;stroke-linecap:square"
         id="path1718"
         sodipodi:nodetypes="ssssssssssssssssss" />
      <path
         id="path2171"
         style="opacity:0.2;fill:#000000;fill-opacity:1;stroke-width:4;stroke-linecap:square"
         d="M 429 59 C 427.892 59 427 59.892001 427 61 L 427 63 L 430 63 C 430 62.446001 430.446 62 431 62 L 438 62 C 438.554 62 439 62.446001 439 63 L 439 70 C 439 70.553999 438.554 71 438 71 L 431 71 C 430.446 71 430 70.553999 430 70 L 430 66 L 427 66 L 427 72 C 427 73.107999 427.892 74 429 74 L 440 74 C 441.108 74 442 73.107999 442 72 L 442 61 C 442 59.892001 441.108 59 440 59 L 429 59 z " />
      <path
         id="path1690"
         style="fill:#0097d3;fill-opacity:1;stroke-width:4;stroke-linecap:square"
         d="m 429,58 c -1.108,0 -2,0.892001 -2,2 v 3 h 3 v -1 c 0,-0.553999 0.446,-1 1,-1 h 7 c 0.554,0 1,0.446001 1,1 v 7 c 0,0.553999 -0.446,1 -1,1 h -7 c -0.554,0 -1,-0.446001 -1,-1 v -3 h -3 v 5 c 0,1.107999 0.892,2 2,2 h 11 c 1.108,0 2,-0.892001 2,-2 V 60 c 0,-1.107999 -0.892,-2 -2,-2 z"
         sodipodi:nodetypes="ssccssssssssccsssssss" />
    </g>
    <g
       id="g3758">
      <path
         d="m 300,238 c -1.65686,0 -3,1.34314 -3,3 v 16 c 0,1.65686 1.34314,3 3,3 h 16 c 1.65686,0 3,-1.34314 3,-3 v -16 c 0,-1.65686 -1.34314,-3 -3,-3 z m 3,4 h 10 c 1.108,0 2,0.892 2,2 v 10 c 0,1.108 -0.892,2 -2,2 h -10 c -1.108,0 -2,-0.892 -2,-2 v -10 c 0,-1.108 0.892,-2 2,-2 z"
         style="fill:#000000;fill-opacity:1;stroke-width:4;stroke-linecap:square;opacity:0.2"
         id="path3749" />
      <path
         d="m 300,237 c -1.65686,0 -3,1.34314 -3,3 v 16 c 0,1.65686 1.34314,3 3,3 h 16 c 1.65686,0 3,-1.34314 3,-3 v -16 c 0,-1.65686 -1.34314,-3 -3,-3 z m 3,4 h 10 c 1.108,0 2,0.892 2,2 v 10 c 0,1.108 -0.892,2 -2,2 h -10 c -1.108,0 -2,-0.892 -2,-2 v -10 c 0,-1.108 0.892,-2 2,-2 z"
         style="fill:#f38b00;fill-opacity:1;stroke-width:4;stroke-linecap:square"
         id="path3721"
         sodipodi:nodetypes="ssssssssssssssssss" />
      <path
         d="m 308,230 c -1.65686,0 -3,1.34314 -3,3 v 4 h 4 v -1 c 0,-1.108 0.892,-2 2,-2 h 10 c 1.108,0 2,0.892 2,2 v 10 c 0,1.108 -0.892,2 -2,2 h -10 c -1.108,0 -2,-0.892 -2,-2 v -5 h -4 v 8 c 0,1.65686 1.34314,3 3,3 h 16 c 1.65686,0 3,-1.34314 3,-3 v -16 c 0,-1.65686 -1.34314,-3 -3,-3 z"
         style="fill:#000000;fill-opacity:1;stroke-width:4;stroke-linecap:square;opacity:0.2"
         id="path3781"
         sodipodi:nodetypes="ssccssssssssccsssssss" />
      <path
         d="m 308,229 c -1.65686,0 -3,1.34314 -3,3 v 5 h 4 v -2 c 0,-1.108 0.892,-2 2,-2 h 10 c 1.108,0 2,0.892 2,2 v 10 c 0,1.108 -0.892,2 -2,2 h -10 c -1.108,0 -2,-0.892 -2,-2 v -4 h -4 v 7 c 0,1.65686 1.34314,3 3,3 h 16 c 1.65686,0 3,-1.34314 3,-3 v -16 c 0,-1.65686 -1.34314,-3 -3,-3 z"
         style="fill:#0097d3;fill-opacity:1;stroke-width:4;stroke-linecap:square"
         id="path3693"
         sodipodi:nodetypes="ssccssssssssccsssssss" />
    </g>
    <g
       id="g2283">
      <path
         d="m 304,163 c -2.216,0 -4,1.784 -4,4 v 22 c 0,2.216 1.784,4 4,4 h 22 c 2.216,0 4,-1.784 4,-4 v -22 c 0,-2.216 -1.784,-4 -4,-4 z m 4,6 h 14 c 1.108,0 2,0.892 2,2 v 14 c 0,1.108 -0.892,2 -2,2 h -14 c -1.108,0 -2,-0.892 -2,-2 v -14 c 0,-1.108 0.892,-2 2,-2 z"
         style="opacity:0.2;fill:#000000;fill-opacity:1;stroke-width:8;stroke-linecap:square"
         id="path2258"
         sodipodi:nodetypes="ssssssssssssssssss" />
      <path
         d="m 304,162 c -2.216,0 -4,1.784 -4,4 v 22 c 0,2.216 1.784,4 4,4 h 22 c 2.216,0 4,-1.784 4,-4 v -22 c 0,-2.216 -1.784,-4 -4,-4 z m 4,6 h 14 c 1.108,0 2,0.892 2,2 v 14 c 0,1.108 -0.892,2 -2,2 h -14 c -1.108,0 -2,-0.892 -2,-2 v -14 c 0,-1.108 0.892,-2 2,-2 z"
         style="fill:#f38b00;fill-opacity:1;stroke-width:8;stroke-linecap:square"
         id="path1919"
         sodipodi:nodetypes="ssssssssssssssssss" />
      <path
         d="m 314,153 c -2.216,0 -4,1.784 -4,4 v 5 h 6 v -1 c 0,-1.108 0.892,-2 2,-2 h 14 c 1.108,0 2,0.892 2,2 v 14 c 0,1.108 -0.892,2 -2,2 h -14 c -1.108,0 -2,-0.892 -2,-2 v -7 h -6 v 11 c 0,2.216 1.784,4 4,4 h 22 c 2.216,0 4,-1.784 4,-4 v -22 c 0,-2.216 -1.784,-4 -4,-4 z"
         style="opacity:0.2;fill:#000000;fill-opacity:1;stroke-width:8;stroke-linecap:square"
         id="path1891"
         sodipodi:nodetypes="ssccssssssssccsssssss" />
      <path
         d="m 314,152 c -2.216,0 -4,1.784 -4,4 v 6 h 6 v -2 c 0,-1.108 0.892,-2 2,-2 h 14 c 1.108,0 2,0.892 2,2 v 14 c 0,1.108 -0.892,2 -2,2 h -14 c -1.108,0 -2,-0.892 -2,-2 v -6 h -6 v 10 c 0,2.216 1.784,4 4,4 h 22 c 2.216,0 4,-1.784 4,-4 v -22 c 0,-2.216 -1.784,-4 -4,-4 z"
         style="fill:#0097d3;fill-opacity:1;stroke-width:8;stroke-linecap:square"
         id="path2230"
         sodipodi:nodetypes="ssccssssssssccsssssss" />
    </g>
    <g
       id="g3917">
      <path
         d="m 312,62 c -3.324,0 -6,2.676 -6,6 v 33 c 0,3.32399 2.676,6 6,6 h 33 c 3.324,0 6,-2.67601 6,-6 V 68 c 0,-3.324 -2.676,-6 -6,-6 z m 6,9 h 21 c 1.662,0 3,1.338 3,3 v 20.999995 c 0,1.66201 -1.338,3 -3,3 h -21 c -1.662,0 -3,-1.33799 -3,-3 V 74 c 0,-1.662 1.338,-3 3,-3 z"
         style="fill:#000000;fill-opacity:1;stroke-width:12;stroke-linecap:square;opacity:0.2"
         id="path3865" />
      <path
         d="m 312,61 c -3.324,0 -6,2.676 -6,6 v 33 c 0,3.324 2.676,6 6,6 h 33 c 3.324,0 6,-2.676 6,-6 V 67 c 0,-3.324 -2.676,-6 -6,-6 z m 6,9 h 21 c 1.662,0 3,1.338 3,3 v 21 c 0,1.662 -1.338,3 -3,3 h -21 c -1.662,0 -3,-1.338 -3,-3 V 73 c 0,-1.662 1.338,-3 3,-3 z"
         style="fill:#f38b00;fill-opacity:1;stroke-width:12;stroke-linecap:square"
         id="path3809"
         sodipodi:nodetypes="ssssssssssssssssss" />
      <path
         d="m 327,47 c -3.324,0 -6,2.676 -6,6 v 8 h 9 v -2 c 0,-1.662 1.338,-3 3,-3 h 21 c 1.662,0 3,1.338 3,3 v 21 c 0,1.662 -1.338,3 -3,3 h -21 c -1.662,0 -3,-1.338 -3,-3 V 70 h -9 v 16 c 0,3.324 2.676,6 6,6 h 33 c 3.324,0 6,-2.676 6,-6 V 53 c 0,-3.324 -2.676,-6 -6,-6 z"
         style="fill:#000000;fill-opacity:1;stroke-width:12;stroke-linecap:square;opacity:0.2"
         id="path3893"
         sodipodi:nodetypes="ssccssssssssccsssssss" />
      <path
         d="m 327,46 c -3.324,0 -6,2.676 -6,6 v 9 h 9 v -3 c 0,-1.662 1.338,-3 3,-3 h 21 c 1.662,0 3,1.338 3,3 v 21 c 0,1.662 -1.338,3 -3,3 h -21 c -1.662,0 -3,-1.338 -3,-3 v -9 h -9 v 15 c 0,3.324 2.676,6 6,6 h 33 c 3.324,0 6,-2.676 6,-6 V 52 c 0,-3.324 -2.676,-6 -6,-6 z"
         style="fill:#0097d3;fill-opacity:1;stroke-width:12;stroke-linecap:square"
         id="path3837"
         sodipodi:nodetypes="ssccssssssssccsssssss" />
    </g>
    <g
       id="g2401"
       transform="matrix(4,0,0,4,-1136,-532)">
      <path
         d="m 304,162.5 c -2.216,0 -4,1.784 -4,4 v 22 c 0,2.216 1.784,4 4,4 h 22 c 2.216,0 4,-1.784 4,-4 v -22 c 0,-2.216 -1.784,-4 -4,-4 z m 4,6 h 14 c 1.108,0 2,0.892 2,2 v 14 c 0,1.108 -0.892,2 -2,2 h -14 c -1.108,0 -2,-0.892 -2,-2 v -14 c 0,-1.108 0.892,-2 2,-2 z"
         style="opacity:0.2;fill:#000000;fill-opacity:1;stroke-width:8;stroke-linecap:square"
         id="path2377" />
      <path
         d="m 304,162 c -2.21601,0 -4,1.784 -4,4 v 22 c 0,2.216 1.78399,4 4,4 h 22 c 2.216,0 4,-1.784 4,-4 v -22 c 0,-2.216 -1.784,-4 -4,-4 z m 4,6 h 14 c 1.108,0 2,0.892 2,2 v 14 c 0,1.108 -0.892,2 -2,2 h -14 c -1.10801,0 -2,-0.892 -2,-2 v -14 c 0,-1.108 0.89199,-2 2,-2 z"
         style="fill:#f38b00;fill-opacity:1;stroke-width:8;stroke-linecap:square"
         id="path2349" />
      <path
         d="m 314,152.5 c -2.216,0 -4,1.784 -4,4 v 5.5 h 6 v -1.5 c 0,-1.108 0.892,-2 2,-2 h 14 c 1.108,0 2,0.892 2,2 v 14 c 0,1.108 -0.892,2 -2,2 h -14 c -1.108,0 -2,-0.892 -2,-2 V 168 h -6 v 10.5 c 0,2.216 1.784,4 4,4 h 22 c 2.216,0 4,-1.784 4,-4 v -22 c 0,-2.216 -1.784,-4 -4,-4 z"
         style="opacity:0.2;fill:#000000;fill-opacity:1;stroke-width:8;stroke-linecap:square"
         id="path2293"
         sodipodi:nodetypes="ssccssssssssccsssssss" />
      <path
         d="m 314,152 c -2.216,0 -4,1.784 -4,4 v 6 h 6 v -2 c 0,-1.108 0.892,-2 2,-2 h 14 c 1.108,0 2,0.892 2,2 v 14 c 0,1.108 -0.892,2 -2,2 h -14 c -1.108,0 -2,-0.892 -2,-2 v -6 h -6 v 10 c 0,2.216 1.784,4 4,4 h 22 c 2.216,0 4,-1.784 4,-4 v -22 c 0,-2.216 -1.784,-4 -4,-4 z"
         style="fill:#0097d3;fill-opacity:1;stroke-width:8;stroke-linecap:square"
         id="path2321" />
    </g>
  </g>
  <g
     id="Highlights">
    <path
       id="rect653"
       style="opacity:0.2;fill:#ffffff"
       d="M 80,44 C 53.408027,44 32,65.408027 32,92 v 2 C 32,67.408027 53.408027,46 80,46 h 128 c 26.59197,0 48,21.408027 48,48 V 92 C 256,65.408027 234.59197,44 208,44 Z"
       sodipodi:nodetypes="sscsscsss" />
    <path
       id="rect773"
       style="opacity:0.2;fill:#ffffff"
       d="m 312,34 c -9.97199,0 -18,8.02801 -18,18 v 1 c 0,-9.97199 8.02801,-18 18,-18 h 48 c 9.97199,0 18,8.02801 18,18 v -1 c 0,-9.97199 -8.02801,-18 -18,-18 z" />
    <path
       id="rect1135"
       style="opacity:0.2;fill:#ffffff;fill-opacity:1"
       d="m 304,144 c -6.64799,0 -12,5.35201 -12,12 v 1 c 0,-6.64799 5.35201,-12 12,-12 h 32 c 6.64799,0 12,5.35201 12,12 v -1 c 0,-6.64799 -5.35201,-12 -12,-12 z" />
    <path
       id="rect1265"
       style="opacity:0.2;fill:#ffffff;fill-opacity:1"
       d="m 300,223 c -4.986,0 -9,4.014 -9,9 v 1 c 0,-4.986 4.014,-9 9,-9 h 24 c 4.986,0 9,4.014 9,9 v -1 c 0,-4.986 -4.014,-9 -9,-9 z" />
    <path
       id="rect1368"
       style="opacity:0.2;fill:#ffffff;fill-opacity:1"
       d="m 424,54 c -3.324,0 -6,2.676003 -6,6 v 1 c 0,-3.323997 2.676,-6 6,-6 h 16 c 3.324,0 6,2.676003 6,6 v -1 c 0,-3.323997 -2.676,-6 -6,-6 z" />
    <path
       id="rect1402"
       style="opacity:0.2;fill:#ffffff;fill-opacity:1"
       d="m 420,140 c -2.216,0 -4,1.784 -4,4 v 1 c 0,-2.216 1.784,-4 4,-4 h 8 c 2.216,0 4,1.784 4,4 v -1 c 0,-2.216 -1.784,-4 -4,-4 z" />
    <path
       id="rect1436"
       style="opacity:0.2;fill:#ffffff;fill-opacity:1"
       d="m 422,102 c -2.216,0 -4,1.784 -4,4 v 1 c 0,-2.216 1.784,-4 4,-4 h 12 c 2.216,0 4,1.784 4,4 v -1 c 0,-2.216 -1.784,-4 -4,-4 z" />
  </g>
</svg>
