<?xml version="1.0" encoding="UTF-8" standalone="no"?>
<!-- Created with Inkscape (http://www.inkscape.org/) -->

<svg
   width="480"
   height="300"
   viewBox="0 0 480 300"
   version="1.1"
   id="svg5"
   inkscape:version="1.2.2 (1:1.2.2+202305151914+b0a8486541)"
   sodipodi:docname="vscodium.svg"
   xmlns:inkscape="http://www.inkscape.org/namespaces/inkscape"
   xmlns:sodipodi="http://sodipodi.sourceforge.net/DTD/sodipodi-0.dtd"
   xmlns="http://www.w3.org/2000/svg"
   xmlns:svg="http://www.w3.org/2000/svg">
  <sodipodi:namedview
     id="namedview7"
     pagecolor="#888888"
     bordercolor="#000000"
     borderopacity="0.25"
     inkscape:showpageshadow="true"
     inkscape:pageopacity="0"
     inkscape:pagecheckerboard="0"
     inkscape:deskcolor="#888888"
     inkscape:document-units="px"
     showgrid="false"
     showborder="false"
     inkscape:zoom="2.6866667"
     inkscape:cx="240.07444"
     inkscape:cy="150"
     inkscape:window-width="1920"
     inkscape:window-height="1008"
     inkscape:window-x="0"
     inkscape:window-y="0"
     inkscape:window-maximized="1"
     inkscape:current-layer="Symbols" />
  <defs
     id="defs2" />
  <g
     id="Baseplate"
     style="display:none">
    <text
       y="19.774782"
       xml:space="preserve"
       x="15.006946"
       style="font-style:normal;font-variant:normal;font-weight:normal;font-stretch:normal;line-height:0%;font-family:'DejaVu Sans';-inkscape-font-specification:'DejaVu Sans';display:inline;fill:#000000;fill-opacity:1;stroke:none;enable-background:new"
       inkscape:label="context"
       id="context"><tspan
         style="font-style:normal;font-variant:normal;font-weight:normal;font-stretch:normal;font-size:18px;line-height:1.25;font-family:'DejaVu Sans';-inkscape-font-specification:'DejaVu Sans'"
         y="19.774782"
         x="15.006946"
         sodipodi:role="line"
         id="tspan3933">apps</tspan></text>
    <text
       y="19.774782"
       xml:space="preserve"
       x="122.48839"
       style="font-style:normal;font-variant:normal;font-weight:bold;font-stretch:normal;line-height:0%;font-family:'DejaVu Sans';-inkscape-font-specification:'DejaVu Sans Bold';text-align:start;writing-mode:lr-tb;text-anchor:start;display:inline;fill:#000000;fill-opacity:1;stroke:none;enable-background:new"
       inkscape:label="icon-name"
       id="icon-name"><tspan
         style="font-style:normal;font-variant:normal;font-weight:bold;font-stretch:normal;font-size:18px;line-height:1.25;font-family:'DejaVu Sans';-inkscape-font-specification:'DejaVu Sans Bold'"
         y="19.774782"
         x="122.48839"
         sodipodi:role="line"
         id="tspan3937">vscodium</tspan></text>
    <rect
       style="fill:#ffffff"
       id="256x256"
       width="256"
       height="256"
       x="16"
       y="28" />
    <rect
       style="fill:#ffffff"
       id="96x96"
       width="96"
       height="96"
       x="288"
       y="28" />
    <rect
       style="fill:#ffffff"
       id="64x64"
       width="64"
       height="64"
       x="288"
       y="140" />
    <rect
       style="fill:#ffffff"
       id="48x48"
       width="48"
       height="48"
       x="288"
       y="220" />
    <rect
       style="fill:#ffffff"
       id="32x32"
       width="32"
       height="32"
       x="416"
       y="52" />
    <rect
       style="fill:#ffffff"
       id="24x24"
       width="24"
       height="24"
       x="416"
       y="100" />
    <rect
       style="fill:#ffffff"
       id="22x22"
       width="22"
       height="22"
       x="417"
       y="101" />
    <rect
       style="fill:#ffffff"
       id="16x16"
       width="16"
       height="16"
       x="416"
       y="140" />
  </g>
  <g
     id="Shadow">
    <rect
       style="opacity:0.2;fill:#000000"
       id="rect651"
       width="224"
       height="224"
       x="32"
       y="46"
       ry="48" />
    <rect
       style="opacity:0.2;fill:#000000"
       id="rect769"
       width="84"
       height="85"
       x="294"
       y="34"
       ry="18" />
    <rect
       style="opacity:0.2;fill:#000000;fill-opacity:1"
       id="rect1131"
       width="56"
       height="56"
       x="292"
       y="145"
       ry="12" />
    <rect
       style="opacity:0.2;fill:#000000;fill-opacity:1"
       id="rect1261"
       width="42"
       height="42"
       x="291"
       y="224"
       ry="9" />
    <rect
       style="opacity:0.2;fill:#000000;fill-opacity:1"
       id="rect1364"
       width="28"
       height="29"
       x="418"
       y="54"
       ry="6" />
    <rect
       style="opacity:0.2;fill:#000000;fill-opacity:1"
       id="rect1398"
       width="16"
       height="16"
       x="416"
       y="141"
       ry="4" />
    <rect
       style="opacity:0.2;fill:#000000;fill-opacity:1"
       id="rect1432"
       width="20"
       height="20"
       x="418"
       y="103"
       ry="4" />
  </g>
  <g
     id="Background">
    <rect
       style="fill:#e4e4e4;fill-opacity:1"
       id="rect597"
       width="224"
       height="224"
       x="32"
       y="44"
       ry="48" />
    <rect
       style="opacity:1;fill:#e4e4e4;fill-opacity:1"
       id="rect771"
       width="84"
       height="84"
       x="294"
       y="34"
       ry="18" />
    <rect
       style="opacity:1;fill:#e4e4e4;fill-opacity:1"
       id="rect1133"
       width="56"
       height="56"
       x="292"
       y="144"
       ry="12" />
    <rect
       style="opacity:1;fill:#e4e4e4;fill-opacity:1"
       id="rect1263"
       width="42"
       height="42"
       x="291"
       y="223"
       ry="9" />
    <rect
       style="opacity:1;fill:#e4e4e4;fill-opacity:1"
       id="rect1366"
       width="28"
       height="28"
       x="418"
       y="54"
       ry="6" />
    <rect
       style="opacity:1;fill:#e4e4e4;fill-opacity:1"
       id="rect1400"
       width="16"
       height="16"
       x="416"
       y="140"
       ry="4" />
    <rect
       style="opacity:1;fill:#e4e4e4;fill-opacity:1"
       id="rect1434"
       width="20"
       height="20"
       x="418"
       y="102"
       ry="4" />
  </g>
  <g
     id="Symbols">
    <g
       id="g2134">
      <path
         d="m 423.82038,143.59957 c -0.29289,0.1879 -0.37737,0.57718 -0.18861,0.86904 1.03746,1.60665 1.28233,2.81848 1.17611,3.88049 -0.42941,2.03368 -1.36281,2.44625 -2.17851,2.44625 -0.79639,0 -0.58312,-1.31067 0.0157,-1.69429 0.35735,-0.22311 0.81509,-0.36813 1.16637,-0.36813 0.34813,0 0.63034,-0.28131 0.63034,-0.6284 0,-0.34719 -0.28221,-0.6285 -0.63034,-0.6285 -0.41031,0 -0.81282,0.0862 -1.18854,0.23297 0.0768,-0.36217 0.10506,-0.7536 0.007,-1.16965 -0.15065,-0.63177 -0.58437,-1.23524 -1.33745,-1.82022 -0.13186,-0.10271 -0.29916,-0.14869 -0.46511,-0.12814 -0.16596,0.0203 -0.31691,0.10588 -0.41965,0.23748 -0.21366,0.27401 -0.1642,0.66894 0.1107,0.88208 0.61352,0.47652 0.81611,0.82925 0.88538,1.11959 0.0692,0.29032 0.0135,0.60181 -0.1256,1.02978 -0.17786,0.57676 -0.38434,1.09165 -0.47487,1.58538 -0.0445,0.24304 -0.0483,0.50751 -0.0599,0.71882 -0.44183,-0.43063 -0.61475,-0.99919 -0.61475,-1.82997 -1.3e-4,-0.34709 -0.28234,-0.6285 -0.63035,-0.6284 -0.3478,2.7e-4 -0.62961,0.28154 -0.62972,0.6284 0,1.13466 0.3318,2.21431 1.22107,2.93456 0.80502,0.76695 2.85216,0.48349 2.85216,1.71473 0,0.34749 0.50862,0.51663 0.85663,0.51663 0.35694,0 0.80615,-0.23862 0.80615,-0.51663 0,-1.39698 1.47221,-2.24603 3.89577,-2.24234 0.34812,3.5e-4 0.63056,-0.28059 0.63106,-0.62767 3.7e-4,-0.34718 -0.28099,-0.6291 -0.62911,-0.62973 -0.16573,-1.7e-4 -0.32728,0.006 -0.48657,0.0148 0.27095,-0.63722 0.39112,-1.33878 0.36629,-2.09659 -0.012,-0.34699 -0.30276,-0.61895 -0.65056,-0.60767 -0.34822,0.0106 -0.621,0.30203 -0.60961,0.64922 0.0329,0.99221 -0.004,1.87821 -0.74355,2.34527 -0.21018,0.13268 -0.45455,0.24784 -0.68628,0.24784 0.17991,-0.48932 0.31579,-1.00586 0.37142,-1.5626 0.0354,-0.35531 0.0393,-0.77742 -10e-4,-1.10532 -0.0629,-0.50801 -0.13886,-1.08417 0.054,-1.51817 0.17323,-0.37378 0.56137,-0.53029 1.13126,-0.53029 0.34782,-2.6e-4 0.62965,-0.28163 0.62974,-0.62841 1.6e-4,-0.34719 -0.28173,-0.62879 -0.62974,-0.6291 -0.84688,0 -1.48883,0.44571 -1.85274,0.9842 -0.19027,-0.4064 -0.422,-0.82523 -0.70197,-1.25873 -0.0904,-0.14008 -0.23287,-0.23851 -0.39616,-0.27392 -0.0809,-0.0174 -0.16441,-0.0191 -0.24588,-0.004 -0.0814,0.0147 -0.1593,0.0452 -0.22898,0.0899 z"
         style="display:inline;opacity:0.2;fill:#000000;fill-opacity:1;stroke-width:0.102629;enable-background:new"
         id="path2906" />
      <path
         d="m 427.75695,105.62961 c -0.4,0.2442 -0.515,0.7502 -0.257,1.1297 1.415,2.0888 1.749,3.6637 1.604,5.0446 -0.586,2.644 -1.859,3.18 -2.972,3.18 -1.0861,0 -0.7953,-1.704 0.022,-2.203 0.487,-0.29 1.112,-0.478 1.591,-0.478 0.474,0 0.86,-0.366 0.86,-0.817 0,-0.451 -0.386,-0.817 -0.86,-0.817 -0.56,0 -1.109,0.112 -1.622,0.303 0.105,-0.471 0.143,-0.9797 0.008,-1.5206 -0.2052,-0.8215 -0.7971,-1.6059 -1.8243,-2.3662 -0.1798,-0.1334 -0.4083,-0.1935 -0.6347,-0.1669 -0.2263,0.0266 -0.4321,0.1378 -0.5723,0.309 -0.2915,0.356 -0.2239,0.8696 0.1509,1.1465 0.8368,0.6194 1.1134,1.0779 1.2077,1.4555 0.0947,0.3773 0.0185,0.7827 -0.1712,1.3387 -0.2428,0.75 -0.5243,1.419 -0.6478,2.061 -0.0609,0.316 -0.0659,0.66 -0.0815,0.934 -0.603,-0.559 -0.8386,-1.299 -0.8386,-2.379 -3e-4,-0.451 -0.3855,-0.816 -0.8599,-0.816 -0.4745,0 -0.8589,0.365 -0.8592,0.816 0,1.476 0.4527,2.879 1.6657,3.815 1.0984,0.997 3.8902,0.629 3.8902,2.229 0,0.452 0.695,0.672 1.169,0.672 0.487,0 1.1,-0.31 1.1,-0.672 0,-1.816 2.008,-2.919 5.314,-2.915 0.475,0.001 0.861,-0.364 0.861,-0.816 10e-4,-0.451 -0.383,-0.818 -0.858,-0.818 -0.226,-10e-4 -0.447,0.007 -0.664,0.019 0.37,-0.828 0.534,-1.74 0.5,-2.725 -0.016,-0.4513 -0.413,-0.8048 -0.888,-0.7904 -0.475,0.0147 -0.847,0.3927 -0.831,0.8444 0.045,1.289 -0.006,2.441 -1.015,3.048 -0.286,0.173 -0.62,0.323 -0.936,0.323 0.246,-0.637 0.431,-1.308 0.507,-2.032 0.048,-0.461 0.054,-1.01 -0.002,-1.436 -0.086,-0.6611 -0.189,-1.4099 0.074,-1.9742 0.236,-0.4859 0.766,-0.6894 1.543,-0.6894 0.475,-4e-4 0.859,-0.3662 0.859,-0.8168 0,-0.4514 -0.384,-0.8175 -0.859,-0.8178 -1.155,0 -2.031,0.5794 -2.527,1.2792 -0.26,-0.5283 -0.576,-1.0724 -0.958,-1.636 -0.123,-0.1824 -0.318,-0.31 -0.541,-0.3561 -0.11,-0.023 -0.224,-0.0248 -0.335,-0.006 -0.111,0.0191 -0.217,0.0586 -0.312,0.1169 z"
         style="fill:#000000;opacity:0.2"
         id="path4035" />
      <path
         d="m 431.65305,59.18955 c -0.571,0.3572 -0.736,1.0965 -0.368,1.651 2.022,3.0526 2.499,5.3546 2.292,7.3726 -0.837,3.864 -2.656,4.648 -4.245,4.648 -1.552,0 -1.137,-2.49 0.03,-3.219 0.696,-0.424 1.588,-0.699 2.273,-0.699 0.678,0 1.228,-0.535 1.228,-1.194 0,-0.66 -0.55,-1.194 -1.228,-1.194 -0.799,0 -1.584,0.163 -2.317,0.442 0.151,-0.688 0.205,-1.432 0.012,-2.222 -0.294,-1.2 -1.139,-2.3472 -2.606,-3.4584 -0.257,-0.1953 -0.583,-0.2828 -0.907,-0.2437 -0.3232,0.0392 -0.6173,0.201 -0.8177,0.4513 -0.4164,0.5205 -0.3197,1.271 0.2156,1.6758 1.1961,0.905 1.5901,1.576 1.7251,2.127 0.135,0.552 0.027,1.144 -0.244,1.957 -0.347,1.096 -0.7495,2.074 -0.9258,3.012 -0.0866,0.462 -0.0941,0.964 -0.1163,1.366 -0.861,-0.818 -1.1983,-1.899 -1.1983,-3.477 0,-0.66 -0.5499,-1.194 -1.2281,-1.194 -0.6782,10e-4 -1.2271,0.535 -1.2276,1.194 0,2.156 0.6465,4.207 2.3796,5.575 1.569,1.458 5.5585,0.919 5.5585,3.259 0,0.66 0.991,0.981 1.669,0.981 0.696,0 1.571,-0.453 1.571,-0.981 0,-2.655 2.869,-4.268 7.592,-4.261 0.679,0.001 1.229,-0.533 1.23,-1.192 0.001,-0.66 -0.547,-1.196 -1.226,-1.197 -0.323,0 -0.638,0.011 -0.948,0.028 0.528,-1.211 0.762,-2.544 0.714,-3.983 -0.022,-0.659 -0.59,-1.176 -1.268,-1.155 -0.679,0.022 -1.21,0.574 -1.188,1.234 0.064,1.885 -0.008,3.569 -1.449,4.456 -0.41,0.252 -0.886,0.47 -1.337,0.47 0.35,-0.929 0.615,-1.91 0.723,-2.968 0.07,-0.675 0.077,-1.477 -0.002,-2.1 -0.123,-0.966 -0.271,-2.061 0.105,-2.885 0.338,-0.71 1.094,-1.0076 2.205,-1.0076 0.677,-6e-4 1.227,-0.5348 1.227,-1.1936 0,-0.6599 -0.549,-1.1952 -1.227,-1.1957 -1.651,0 -2.901,0.8471 -3.611,1.8703 -0.371,-0.7723 -0.822,-1.5681 -1.368,-2.3918 -0.176,-0.2661 -0.454,-0.4533 -0.772,-0.5205 -0.157,-0.033 -0.321,-0.0361 -0.479,-0.0086 -0.159,0.028 -0.311,0.086 -0.446,0.1709 z"
         style="opacity:0.2;fill:#000000"
         id="path3186"
         sodipodi:nodetypes="cccscsssccccccccccscccsssssccsccccccccscccccc" />
      <path
         d="m 311.47958,231.28433 c -0.8565,0.5358 -1.104,1.64475 -0.552,2.4765 3.03298,4.57888 3.74848,8.03186 3.43798,11.05884 -1.25549,5.79597 -3.98398,6.97197 -6.36747,6.97197 -2.32798,0 -1.70549,-3.73498 0.045,-4.82848 1.044,-0.63599 2.38199,-1.04849 3.40949,-1.04849 1.01699,0 1.84199,-0.8025 1.84199,-1.79099 0,-0.99 -0.825,-1.79099 -1.84199,-1.79099 -1.1985,0 -2.37599,0.24449 -3.47549,0.66299 0.2265,-1.03199 0.3075,-2.14799 0.018,-3.33298 -0.44099,-1.79999 -1.70849,-3.52078 -3.90898,-5.18757 -0.38549,-0.29295 -0.87449,-0.4242 -1.36049,-0.36555 -0.4848,0.0588 -0.92594,0.3015 -1.22654,0.67694 -0.6246,0.78075 -0.47955,1.90649 0.3234,2.51369 1.79414,1.35749 2.38513,2.36399 2.58763,3.19048 0.2025,0.828 0.0405,1.716 -0.366,2.93549 -0.52049,1.64399 -1.12424,3.11098 -1.38869,4.51798 -0.1299,0.69299 -0.14115,1.44599 -0.17445,2.04899 -1.29149,-1.227 -1.79744,-2.84849 -1.79744,-5.21548 0,-0.98999 -0.82484,-1.79099 -1.84214,-1.79099 -1.01729,0.002 -1.84064,0.8025 -1.84139,1.79099 0,3.23399 0.96975,6.31047 3.56938,8.36246 2.35349,2.18699 8.33771,1.37849 8.33771,4.88848 0,0.98999 1.48649,1.47149 2.50349,1.47149 1.04399,0 2.35649,-0.6795 2.35649,-1.47149 0,-3.98248 4.30347,-6.40197 11.38794,-6.39147 1.01849,0.001 1.84349,-0.7995 1.84499,-1.78799 0.002,-0.99 -0.8205,-1.79399 -1.83899,-1.79549 -0.4845,0 -0.957,0.0165 -1.422,0.042 0.792,-1.81649 1.143,-3.81598 1.071,-5.97447 -0.033,-0.9885 -0.885,-1.76399 -1.90199,-1.73249 -1.0185,0.033 -1.81499,0.86098 -1.78199,1.85099 0.096,2.82748 -0.012,5.35347 -2.17349,6.68396 -0.615,0.378 -1.32899,0.705 -2.00549,0.705 0.525,-1.39349 0.92249,-2.86499 1.08449,-4.45198 0.105,-1.01249 0.1155,-2.21549 -0.003,-3.14998 -0.1845,-1.449 -0.40649,-3.09149 0.1575,-4.32748 0.507,-1.065 1.64099,-1.51139 3.30749,-1.51139 1.01549,-9e-4 1.84049,-0.8022 1.84049,-1.79039 0,-0.98985 -0.8235,-1.7928 -1.84049,-1.79355 -2.47649,0 -4.35148,1.27065 -5.41648,2.80544 -0.55649,-1.15844 -1.23299,-2.35214 -2.05199,-3.58768 -0.26399,-0.39915 -0.68099,-0.67995 -1.15799,-0.78076 -0.2355,-0.0495 -0.4815,-0.0541 -0.7185,-0.0135 -0.2385,0.042 -0.46649,0.12899 -0.66899,0.25635 z"
         style="opacity:0.2;fill:#000000;stroke-width:1.49999"
         id="path3736"
         sodipodi:nodetypes="cccscsssccccccccccscccsssccccsccccccccsccccccc" />
      <path
         d="m 319.3061,155.37912 c -1.14199,0.7144 -1.47199,2.19299 -0.73599,3.30199 4.04398,6.10517 4.99797,10.70914 4.58397,14.74512 -1.67399,7.72796 -5.31197,9.29596 -8.48995,9.29596 -3.10399,0 -2.27399,-4.97998 0.06,-6.43797 1.39199,-0.848 3.17598,-1.39799 4.54597,-1.39799 1.356,0 2.45599,-1.07 2.45599,-2.38799 0,-1.32 -1.09999,-2.38799 -2.45599,-2.38799 -1.59799,0 -3.16798,0.326 -4.63397,0.88399 0.30199,-1.37599 0.40999,-2.86398 0.024,-4.44397 -0.588,-2.39999 -2.27799,-4.69438 -5.21198,-6.91677 -0.514,-0.3906 -1.16599,-0.56559 -1.81399,-0.4874 -0.6464,0.0784 -1.23459,0.402 -1.63539,0.9026 -0.8328,1.04099 -0.6394,2.54199 0.4312,3.35158 2.39219,1.80999 3.18018,3.15199 3.45018,4.25398 0.27,1.104 0.054,2.28799 -0.488,3.91398 -0.69399,2.19199 -1.49899,4.14798 -1.85159,6.02397 -0.1732,0.924 -0.1882,1.92799 -0.2326,2.73199 -1.72199,-1.63599 -2.39658,-3.79798 -2.39658,-6.95397 0,-1.31999 -1.0998,-2.38799 -2.45619,-2.38799 -1.3564,0.002 -2.45419,1.07 -2.45519,2.38799 0,4.31198 1.29299,8.41396 4.75918,11.14995 3.13798,2.91598 11.11694,1.83799 11.11694,6.51796 0,1.32 1.98199,1.96199 3.33798,1.96199 1.392,0 3.14199,-0.90599 3.14199,-1.96199 0,-5.30997 5.73797,-8.53595 15.18392,-8.52195 1.35799,0.002 2.45799,-1.066 2.45999,-2.38399 0.002,-1.31999 -1.094,-2.39199 -2.45199,-2.39399 -0.646,0 -1.27599,0.022 -1.89599,0.056 1.05599,-2.42199 1.52399,-5.08797 1.42799,-7.96596 -0.044,-1.31799 -1.17999,-2.35199 -2.53599,-2.30999 -1.35799,0.044 -2.41998,1.148 -2.37598,2.46799 0.128,3.76998 -0.016,7.13796 -2.89799,8.91195 -0.81999,0.504 -1.77199,0.94 -2.67398,0.94 0.69999,-1.85799 1.22999,-3.81998 1.44599,-5.93597 0.14,-1.34999 0.154,-2.95398 -0.004,-4.19998 -0.246,-1.93199 -0.542,-4.12198 0.21,-5.76997 0.67599,-1.41999 2.18799,-2.01519 4.40997,-2.01519 1.354,-0.001 2.45399,-1.06959 2.45399,-2.38719 0,-1.31979 -1.09799,-2.39038 -2.45399,-2.39138 -3.30198,0 -5.80197,1.69419 -7.22196,3.74058 -0.742,-1.5446 -1.64399,-3.13619 -2.73599,-4.78358 -0.35199,-0.5322 -0.90799,-0.9066 -1.54399,-1.04099 -0.314,-0.066 -0.64199,-0.0722 -0.95799,-0.018 -0.318,0.056 -0.622,0.17199 -0.892,0.34179 z"
         style="opacity:0.2;fill:#000000;stroke-width:1.99999"
         id="path3214"
         sodipodi:nodetypes="cccscsssccccccccccscccsssssccsccccccccsccccccc" />
      <path
         d="m 334.95916,49.56866 c -1.713,1.0716 -2.208,3.2895 -1.104,4.953 6.06596,9.15776 7.49696,16.06372 6.87596,22.11768 -2.51098,11.59194 -7.96796,13.94394 -12.73494,13.94394 -4.65596,0 -3.41098,-7.46996 0.09,-9.65696 2.088,-1.27198 4.76398,-2.09698 6.81898,-2.09698 2.03398,0 3.68398,-1.605 3.68398,-3.58198 0,-1.98 -1.65,-3.58198 -3.68398,-3.58198 -2.397,0 -4.75198,0.48898 -6.95098,1.32598 0.453,-2.06398 0.615,-4.29598 0.036,-6.66596 -0.88198,-3.59998 -3.41698,-7.04156 -7.81796,-10.37514 -0.77098,-0.5859 -1.74898,-0.8484 -2.72098,-0.7311 -0.9696,0.1176 -1.85188,0.603 -2.45308,1.35388 -1.2492,1.5615 -0.9591,3.81298 0.6468,5.02738 3.58828,2.71498 4.77026,4.72798 5.17526,6.38096 0.405,1.656 0.081,3.432 -0.732,5.87098 -1.04098,3.28798 -2.24848,6.22196 -2.77738,9.03596 -0.2598,1.38598 -0.2823,2.89198 -0.3489,4.09798 -2.58298,-2.454 -3.59488,-5.69698 -3.59488,-10.43096 0,-1.97998 -1.64968,-3.58198 -3.68428,-3.58198 -2.03458,0.004 -3.68128,1.605 -3.68278,3.58198 0,6.46798 1.9395,12.62094 7.13876,16.72492 4.70698,4.37398 16.67542,2.75698 16.67542,9.77696 0,1.97998 2.97298,2.94298 5.00698,2.94298 2.08798,0 4.71298,-1.359 4.71298,-2.94298 0,-7.96496 8.60694,-12.80394 22.77588,-12.78294 2.03698,0.002 3.68698,-1.599 3.68998,-3.57598 0.004,-1.98 -1.641,-3.58798 -3.67798,-3.59098 -0.969,0 -1.914,0.033 -2.844,0.084 1.584,-3.63298 2.286,-7.63196 2.142,-11.94894 -0.066,-1.977 -1.77,-3.52798 -3.80398,-3.46498 -2.037,0.066 -3.62998,1.72196 -3.56398,3.70198 0.192,5.65496 -0.024,10.70694 -4.34698,13.36792 -1.23,0.756 -2.65798,1.41 -4.01098,1.41 1.05,-2.78698 1.84498,-5.72998 2.16898,-8.90396 0.21,-2.02498 0.231,-4.43098 -0.006,-6.29996 -0.369,-2.898 -0.81298,-6.18298 0.315,-8.65496 1.014,-2.13 3.28198,-3.02278 6.61498,-3.02278 2.03098,-0.002 3.68098,-1.6044 3.68098,-3.58078 0,-1.9797 -1.647,-3.5856 -3.68098,-3.5871 -4.95298,0 -8.70296,2.5413 -10.83296,5.61088 -1.11298,-2.31688 -2.46598,-4.70428 -4.10398,-7.17536 -0.52798,-0.7983 -1.36198,-1.3599 -2.31598,-1.56152 -0.471,-0.099 -0.963,-0.1082 -1.437,-0.027 -0.477,0.084 -0.93298,0.25798 -1.33798,0.5127 z"
         style="opacity:0.2;fill:#000000;stroke-width:2.99998"
         id="path3764" />
      <path
         d="m 141.2244,87.516487 c -4.56796,2.8576 -5.88796,8.77196 -2.94396,13.207963 16.17592,24.42068 19.99188,42.83656 18.33588,58.98048 -6.69596,30.91184 -21.24788,37.18384 -33.9598,37.18384 -12.41596,0 -9.09596,-19.91992 0.24,-25.75188 5.56796,-3.392 12.70392,-5.59196 18.18388,-5.59196 5.424,0 9.82396,-4.28 9.82396,-9.55196 0,-5.28 -4.39996,-9.55196 -9.82396,-9.55196 -6.39196,0 -12.67192,1.304 -18.53588,3.53596 1.20796,-5.50396 1.63996,-11.45592 0.096,-17.77588 -2.352,-9.59996 -9.11196,-18.77752 -20.84792,-27.66708 -2.055999,-1.5624 -4.663959,-2.26236 -7.255959,-1.9496 -2.5856,0.3136 -4.93836,1.608 -6.54156,3.6104 -3.3312,4.16396 -2.5576,10.16796 1.7248,13.40632 9.56876,7.23996 12.720719,12.60796 13.800719,17.01592 1.08,4.416 0.216,9.15196 -1.952,15.65592 -2.775959,8.76796 -5.995959,16.59192 -7.406359,24.09588 -0.6928,3.696 -0.7528,7.71196 -0.9304,10.92796 -6.88796,-6.54396 -9.58632,-15.19192 -9.58632,-27.81588 0,-5.27996 -4.3992,-9.55196 -9.82476,-9.55196 -5.4256,0.008 -9.81676,4.28 -9.82076,9.55196 0,17.24792 5.17196,33.65584 19.03672,44.5998 12.55192,11.66392 44.467759,7.35196 44.467759,26.07184 0,5.28 7.92796,7.84796 13.35192,7.84796 5.568,0 12.56796,-3.62396 12.56796,-7.84796 0,-21.23988 22.95188,-34.1438 60.73568,-34.0878 5.43196,0.008 9.83196,-4.264 9.83996,-9.53596 0.008,-5.27996 -4.376,-9.56796 -9.80796,-9.57596 -2.584,0 -5.10396,0.088 -7.58396,0.224 4.22396,-9.68796 6.09596,-20.35188 5.71196,-31.86384 -0.176,-5.27196 -4.71996,-9.40796 -10.14396,-9.23996 -5.43196,0.176 -9.67992,4.592 -9.50392,9.87196 0.512,15.07992 -0.064,28.55184 -11.59196,35.6478 -3.27996,2.016 -7.08796,3.76 -10.69592,3.76 2.79996,-7.43196 4.91996,-15.27992 5.78396,-23.74388 0.56,-5.39996 0.616,-11.81592 -0.016,-16.79992 -0.984,-7.72796 -2.168,-16.48792 0.84,-23.07988 2.70396,-5.67996 8.75196,-8.06076 17.63988,-8.06076 5.416,-0.004 9.81596,-4.27836 9.81596,-9.54876 0,-5.279163 -4.39196,-9.561523 -9.81596,-9.565523 -13.20792,0 -23.20788,6.776763 -28.88784,14.962323 -2.968,-6.1784 -6.57596,-12.544763 -10.94396,-19.134323 -1.40796,-2.1288 -3.63196,-3.6264 -6.17596,-4.16396 -1.256,-0.264 -2.56796,-0.2888 -3.83196,-0.072 -1.272,0.224 -2.488,0.68796 -3.568,1.36716 z"
         style="opacity:0.2;fill:#000000;stroke-width:7.99996"
         id="path3574" />
    </g>
    <g
       id="g1632">
      <path
         d="m 423.82038,143.09962 c -0.29289,0.1879 -0.37737,0.57718 -0.18861,0.86904 1.03746,1.60665 1.28233,2.81848 1.17611,3.88049 -0.42941,2.03368 -1.36281,2.44625 -2.17851,2.44625 -0.79639,0 -0.58312,-1.31067 0.0157,-1.69429 0.35735,-0.22311 0.81509,-0.36813 1.16637,-0.36813 0.34813,0 0.63034,-0.28131 0.63034,-0.6284 0,-0.34719 -0.28221,-0.6285 -0.63034,-0.6285 -0.41031,0 -0.81282,0.0862 -1.18854,0.23297 0.0768,-0.36217 0.10506,-0.7536 0.007,-1.16965 -0.15065,-0.63177 -0.58437,-1.23524 -1.33745,-1.82022 -0.13186,-0.10271 -0.29916,-0.14869 -0.46511,-0.12814 -0.16596,0.0204 -0.31691,0.10588 -0.41965,0.23748 -0.21366,0.27401 -0.1642,0.66894 0.1107,0.88208 0.61352,0.47652 0.81611,0.82925 0.88538,1.11959 0.0692,0.29032 0.0135,0.60181 -0.1256,1.02978 -0.17786,0.57676 -0.38434,1.09165 -0.47487,1.58538 -0.0445,0.24304 -0.0483,0.50751 -0.0599,0.71882 -0.44183,-0.43063 -0.61475,-0.99919 -0.61475,-1.82997 -1.3e-4,-0.34709 -0.28234,-0.6285 -0.63035,-0.6284 -0.3478,2.7e-4 -0.62961,0.28154 -0.62972,0.6284 0,1.13466 0.3318,2.21431 1.22107,2.93456 0.80502,0.76695 2.85216,0.48349 2.85216,1.71473 0,0.34749 0.50862,0.51663 0.85663,0.51663 0.35694,0 0.80615,-0.23862 0.80615,-0.51663 0,-1.39698 1.47221,-2.24603 3.89577,-2.24234 0.34812,3.5e-4 0.63056,-0.28059 0.63106,-0.62767 3.7e-4,-0.34718 -0.28099,-0.6291 -0.62911,-0.62973 -0.16573,-1.7e-4 -0.32728,0.006 -0.48657,0.0148 0.27095,-0.63722 0.39112,-1.33878 0.36629,-2.09659 -0.012,-0.34699 -0.30276,-0.61895 -0.65056,-0.60767 -0.34822,0.0106 -0.621,0.30203 -0.60961,0.64922 0.0329,0.99221 -0.004,1.87821 -0.74355,2.34527 -0.21018,0.13268 -0.45455,0.24784 -0.68628,0.24784 0.17991,-0.48932 0.31579,-1.00586 0.37142,-1.5626 0.0354,-0.35531 0.0393,-0.77742 -10e-4,-1.10532 -0.0629,-0.50801 -0.13886,-1.08417 0.054,-1.51817 0.17323,-0.37378 0.56137,-0.53029 1.13126,-0.53029 0.34782,-2.6e-4 0.62965,-0.28163 0.62974,-0.62841 1.6e-4,-0.34719 -0.28173,-0.62879 -0.62974,-0.6291 -0.84688,0 -1.48883,0.44571 -1.85274,0.9842 -0.19027,-0.4064 -0.422,-0.82523 -0.70197,-1.25873 -0.0904,-0.14008 -0.23287,-0.23851 -0.39616,-0.27392 -0.0809,-0.0174 -0.16441,-0.0191 -0.24588,-0.004 -0.0814,0.0147 -0.1593,0.0452 -0.22898,0.0899 z"
         style="display:inline;fill:#2689fd;fill-opacity:1;stroke-width:0.102629;enable-background:new"
         id="path2086"
         sodipodi:nodetypes="cccscsssccccccscscccccssscccccccscscccsccscccc" />
      <path
         d="m 427.75695,105.12961 c -0.4,0.2442 -0.515,0.7502 -0.257,1.1297 1.415,2.0888 1.749,3.6637 1.604,5.0446 -0.586,2.644 -1.859,3.18 -2.972,3.18 -1.0861,0 -0.7953,-1.704 0.022,-2.203 0.487,-0.29 1.112,-0.478 1.591,-0.478 0.474,0 0.86,-0.366 0.86,-0.817 0,-0.451 -0.386,-0.817 -0.86,-0.817 -0.56,0 -1.109,0.112 -1.622,0.303 0.105,-0.471 0.143,-0.9797 0.008,-1.5206 -0.2052,-0.8215 -0.7971,-1.6059 -1.8243,-2.3662 -0.1798,-0.1334 -0.4083,-0.1935 -0.6347,-0.1669 -0.2263,0.0266 -0.4321,0.1378 -0.5723,0.309 -0.2915,0.356 -0.2239,0.8696 0.1509,1.1465 0.8368,0.6194 1.1134,1.0779 1.2077,1.4555 0.0947,0.3773 0.0185,0.7827 -0.1712,1.3387 -0.2428,0.75 -0.5243,1.419 -0.6478,2.061 -0.0609,0.316 -0.0659,0.66 -0.0815,0.934 -0.603,-0.559 -0.8386,-1.299 -0.8386,-2.379 -3e-4,-0.451 -0.3855,-0.816 -0.8599,-0.816 -0.4745,0 -0.8589,0.365 -0.8592,0.816 0,1.476 0.4527,2.879 1.6657,3.815 1.0984,0.997 3.8902,0.629 3.8902,2.229 0,0.452 0.695,0.672 1.169,0.672 0.487,0 1.1,-0.31 1.1,-0.672 0,-1.816 2.008,-2.919 5.314,-2.915 0.475,0.001 0.861,-0.364 0.861,-0.816 10e-4,-0.451 -0.383,-0.818 -0.858,-0.818 -0.226,-10e-4 -0.447,0.007 -0.664,0.019 0.37,-0.828 0.534,-1.74 0.5,-2.725 -0.016,-0.4513 -0.413,-0.8048 -0.888,-0.7904 -0.475,0.0147 -0.847,0.3927 -0.831,0.8444 0.045,1.289 -0.006,2.441 -1.015,3.048 -0.286,0.173 -0.62,0.323 -0.936,0.323 0.246,-0.637 0.431,-1.308 0.507,-2.032 0.048,-0.461 0.054,-1.01 -0.002,-1.436 -0.086,-0.6611 -0.189,-1.4099 0.074,-1.9742 0.236,-0.4859 0.766,-0.6894 1.543,-0.6894 0.475,-4e-4 0.859,-0.3662 0.859,-0.8168 0,-0.4514 -0.384,-0.8175 -0.859,-0.8178 -1.155,0 -2.031,0.5794 -2.527,1.2792 -0.26,-0.5283 -0.576,-1.0724 -0.958,-1.636 -0.123,-0.1824 -0.318,-0.31 -0.541,-0.3561 -0.11,-0.023 -0.224,-0.0248 -0.335,-0.006 -0.111,0.0191 -0.217,0.0586 -0.312,0.1169 z"
         style="fill:#2689fd"
         id="path4007"
         sodipodi:nodetypes="cccscssscccssccccccsccssscccccccccccccsccccccc" />
      <path
         d="m 431.65305,58.1895 c -0.571,0.3572 -0.736,1.0965 -0.368,1.651 2.022,3.0526 2.499,5.3546 2.292,7.3726 -0.837,3.864 -2.656,4.648 -4.245,4.648 -1.552,0 -1.137,-2.49 0.03,-3.219 0.696,-0.424 1.588,-0.699 2.273,-0.699 0.678,0 1.228,-0.535 1.228,-1.194 0,-0.66 -0.55,-1.194 -1.228,-1.194 -0.799,0 -1.584,0.163 -2.317,0.442 0.151,-0.688 0.205,-1.432 0.012,-2.222 -0.294,-1.2 -1.139,-2.3472 -2.606,-3.4584 -0.257,-0.1953 -0.583,-0.2828 -0.907,-0.2437 -0.3232,0.0392 -0.6173,0.201 -0.8177,0.4513 -0.4164,0.5205 -0.3197,1.271 0.2156,1.6758 1.1961,0.905 1.5901,1.576 1.7251,2.127 0.135,0.552 0.027,1.144 -0.244,1.957 -0.347,1.096 -0.7495,2.074 -0.9258,3.012 -0.0866,0.462 -0.0941,0.964 -0.1163,1.366 -0.861,-0.818 -1.1983,-1.899 -1.1983,-3.477 0,-0.66 -0.5499,-1.194 -1.2281,-1.194 -0.6782,10e-4 -1.2271,0.535 -1.2276,1.194 0,2.156 0.6465,4.207 2.3796,5.575 1.569,1.458 5.5585,0.919 5.5585,3.259 0,0.66 0.991,0.981 1.669,0.981 0.696,0 1.571,-0.453 1.571,-0.981 0,-2.655 2.869,-4.268 7.592,-4.261 0.679,0.001 1.229,-0.533 1.23,-1.192 0.001,-0.66 -0.547,-1.196 -1.226,-1.197 -0.323,0 -0.638,0.011 -0.948,0.028 0.528,-1.211 0.762,-2.544 0.714,-3.983 -0.022,-0.659 -0.59,-1.176 -1.268,-1.155 -0.679,0.022 -1.21,0.574 -1.188,1.234 0.064,1.885 -0.008,3.569 -1.449,4.456 -0.41,0.252 -0.886,0.47 -1.337,0.47 0.35,-0.929 0.615,-1.91 0.723,-2.968 0.07,-0.675 0.077,-1.477 -0.002,-2.1 -0.123,-0.966 -0.271,-2.061 0.105,-2.885 0.338,-0.71 1.094,-1.0076 2.205,-1.0076 0.677,-6e-4 1.227,-0.5348 1.227,-1.1936 0,-0.6599 -0.549,-1.1952 -1.227,-1.1957 -1.651,0 -2.901,0.8471 -3.611,1.8703 -0.371,-0.7723 -0.822,-1.5681 -1.368,-2.3918 -0.176,-0.2661 -0.454,-0.4533 -0.772,-0.5205 -0.157,-0.033 -0.321,-0.0361 -0.479,-0.0086 -0.159,0.028 -0.311,0.086 -0.446,0.1709 z"
         style="fill:#2689fd"
         id="path3158"
         sodipodi:nodetypes="cccscsssccccccccccscccsssssccsccccccccscccccc" />
      <path
         d="m 311.47958,230.28433 c -0.8565,0.5358 -1.104,1.64474 -0.552,2.47649 3.03298,4.57888 3.74848,8.03186 3.43798,11.05884 -1.25549,5.79597 -3.98398,6.97197 -6.36747,6.97197 -2.32798,0 -1.70549,-3.73498 0.045,-4.82848 1.044,-0.63599 2.38199,-1.04849 3.40949,-1.04849 1.01699,0 1.84199,-0.8025 1.84199,-1.79099 0,-0.99 -0.825,-1.79099 -1.84199,-1.79099 -1.1985,0 -2.37599,0.24449 -3.47549,0.66299 0.2265,-1.03199 0.3075,-2.14799 0.018,-3.33298 -0.44099,-1.79999 -1.70849,-3.52078 -3.90898,-5.18757 -0.38549,-0.29295 -0.87449,-0.4242 -1.36049,-0.36555 -0.4848,0.0588 -0.92594,0.3015 -1.22654,0.67694 -0.6246,0.78075 -0.47955,1.90649 0.3234,2.51369 1.79414,1.35749 2.38513,2.36399 2.58763,3.19048 0.2025,0.828 0.0405,1.716 -0.366,2.93549 -0.52049,1.64399 -1.12424,3.11098 -1.38869,4.51798 -0.1299,0.69299 -0.14115,1.44599 -0.17445,2.04899 -1.29149,-1.227 -1.79744,-2.84849 -1.79744,-5.21548 0,-0.98999 -0.82484,-1.79099 -1.84214,-1.79099 -1.01729,0.002 -1.84064,0.8025 -1.84139,1.79099 0,3.23399 0.96975,6.31047 3.56938,8.36246 2.35349,2.18699 8.33771,1.37849 8.33771,4.88848 0,0.98999 1.48649,1.47149 2.50349,1.47149 1.04399,0 2.35649,-0.6795 2.35649,-1.47149 0,-3.98248 4.30347,-6.40197 11.38794,-6.39147 1.01849,10e-4 1.84349,-0.7995 1.84499,-1.78799 0.002,-0.99 -0.8205,-1.79399 -1.83899,-1.79549 -0.4845,0 -0.957,0.0165 -1.422,0.042 0.792,-1.81649 1.143,-3.81598 1.071,-5.97447 -0.033,-0.9885 -0.885,-1.76399 -1.90199,-1.73249 -1.0185,0.033 -1.81499,0.86099 -1.78199,1.85099 0.096,2.82748 -0.012,5.35347 -2.17349,6.68396 -0.615,0.378 -1.32899,0.705 -2.00549,0.705 0.525,-1.39349 0.92249,-2.86499 1.08449,-4.45198 0.105,-1.01249 0.1155,-2.21549 -0.003,-3.14998 -0.1845,-1.449 -0.40649,-3.09149 0.1575,-4.32748 0.507,-1.065 1.64099,-1.51139 3.30749,-1.51139 1.01549,-9e-4 1.84049,-0.8022 1.84049,-1.79039 0,-0.98985 -0.8235,-1.7928 -1.84049,-1.79355 -2.47649,0 -4.35148,1.27065 -5.41648,2.80544 -0.55649,-1.15844 -1.23299,-2.35214 -2.05199,-3.58768 -0.26399,-0.39915 -0.68099,-0.67995 -1.15799,-0.78075 -0.2355,-0.0495 -0.4815,-0.0541 -0.7185,-0.0135 -0.2385,0.042 -0.46649,0.129 -0.66899,0.25635 z"
         style="fill:#2689fd;stroke-width:1.49999"
         id="path3708"
         sodipodi:nodetypes="cccscsssccccccccccscccsssccccsccccccccsccccccc" />
      <path
         d="m 319.3061,154.37906 c -1.14199,0.7144 -1.47199,2.19299 -0.73599,3.30199 4.04398,6.10517 4.99797,10.70914 4.58397,14.74512 -1.67399,7.72796 -5.31197,9.29596 -8.48995,9.29596 -3.10399,0 -2.27399,-4.97998 0.06,-6.43797 1.39199,-0.848 3.17598,-1.39799 4.54597,-1.39799 1.356,0 2.45599,-1.07 2.45599,-2.38799 0,-1.32 -1.09999,-2.38799 -2.45599,-2.38799 -1.59799,0 -3.16798,0.326 -4.63397,0.88399 0.30199,-1.37599 0.40999,-2.86398 0.024,-4.44397 -0.588,-2.39999 -2.27799,-4.69438 -5.21198,-6.91677 -0.514,-0.3906 -1.16599,-0.56559 -1.81399,-0.4874 -0.6464,0.0784 -1.23459,0.402 -1.63539,0.9026 -0.8328,1.04099 -0.6394,2.54199 0.4312,3.35158 2.39219,1.80999 3.18018,3.15199 3.45018,4.25398 0.27,1.104 0.054,2.28799 -0.488,3.91398 -0.69399,2.19199 -1.49899,4.14798 -1.85159,6.02397 -0.1732,0.924 -0.1882,1.92799 -0.2326,2.73199 -1.72199,-1.63599 -2.39658,-3.79798 -2.39658,-6.95397 0,-1.31999 -1.0998,-2.38799 -2.45619,-2.38799 -1.3564,0.002 -2.45419,1.07 -2.45519,2.38799 0,4.31198 1.29299,8.41396 4.75918,11.14995 3.13798,2.91598 11.11694,1.83799 11.11694,6.51796 0,1.32 1.98199,1.96199 3.33798,1.96199 1.392,0 3.14199,-0.90599 3.14199,-1.96199 0,-5.30997 5.73797,-8.53595 15.18392,-8.52195 1.35799,0.002 2.45799,-1.066 2.45999,-2.38399 0.002,-1.31999 -1.094,-2.39199 -2.45199,-2.39399 -0.646,0 -1.27599,0.022 -1.89599,0.056 1.05599,-2.42199 1.52399,-5.08797 1.42799,-7.96596 -0.044,-1.31799 -1.17999,-2.35199 -2.53599,-2.30999 -1.35799,0.044 -2.41998,1.148 -2.37598,2.46799 0.128,3.76998 -0.016,7.13796 -2.89799,8.91195 -0.81999,0.504 -1.77199,0.94 -2.67398,0.94 0.69999,-1.85799 1.22999,-3.81998 1.44599,-5.93597 0.14,-1.34999 0.154,-2.95398 -0.004,-4.19998 -0.246,-1.93199 -0.542,-4.12198 0.21,-5.76997 0.67599,-1.41999 2.18799,-2.01519 4.40997,-2.01519 1.354,-0.001 2.45399,-1.06959 2.45399,-2.38719 0,-1.31979 -1.09799,-2.39038 -2.45399,-2.39138 -3.30198,0 -5.80197,1.69419 -7.22196,3.74058 -0.742,-1.5446 -1.64399,-3.13619 -2.73599,-4.78358 -0.35199,-0.5322 -0.90799,-0.9066 -1.54399,-1.04099 -0.314,-0.066 -0.64199,-0.0722 -0.95799,-0.018 -0.318,0.056 -0.622,0.17199 -0.892,0.34179 z"
         style="opacity:1;fill:#2689fd;fill-opacity:1;stroke-width:1.99999"
         id="path3242"
         sodipodi:nodetypes="cccscsssccccccccccscccsssssccsccccccccsccccccc" />
      <path
         d="m 334.95916,48.56866 c -1.713,1.0716 -2.208,3.28948 -1.104,4.95298 6.06596,9.15776 7.49696,16.06372 6.87596,22.11768 -2.51098,11.59194 -7.96796,13.94394 -12.73494,13.94394 -4.65596,0 -3.41098,-7.46996 0.09,-9.65696 2.088,-1.27198 4.76398,-2.09698 6.81898,-2.09698 2.03398,0 3.68398,-1.605 3.68398,-3.58198 0,-1.98 -1.65,-3.58198 -3.68398,-3.58198 -2.397,0 -4.75198,0.48898 -6.95098,1.32598 0.453,-2.06398 0.615,-4.29598 0.036,-6.66596 -0.88198,-3.59998 -3.41698,-7.04156 -7.81796,-10.37514 -0.77098,-0.5859 -1.74898,-0.8484 -2.72098,-0.7311 -0.9696,0.1176 -1.85188,0.603 -2.45308,1.35388 -1.2492,1.5615 -0.9591,3.81298 0.6468,5.02738 3.58828,2.71498 4.77026,4.72798 5.17526,6.38096 0.405,1.656 0.081,3.432 -0.732,5.87098 -1.04098,3.28798 -2.24848,6.22196 -2.77738,9.03596 -0.2598,1.38598 -0.2823,2.89198 -0.3489,4.09798 -2.58298,-2.454 -3.59488,-5.69698 -3.59488,-10.43096 0,-1.97998 -1.64968,-3.58198 -3.68428,-3.58198 -2.03458,0.004 -3.68128,1.605 -3.68278,3.58198 0,6.46798 1.9395,12.62094 7.13876,16.72492 4.70698,4.37398 16.67542,2.75698 16.67542,9.77696 0,1.97998 2.97298,2.94298 5.00698,2.94298 2.08798,0 4.71298,-1.359 4.71298,-2.94298 0,-7.96496 8.60694,-12.80394 22.77588,-12.78294 2.03698,0.002 3.68698,-1.599 3.68998,-3.57598 0.004,-1.98 -1.641,-3.58798 -3.67798,-3.59098 -0.969,0 -1.914,0.033 -2.844,0.084 1.584,-3.63298 2.286,-7.63196 2.142,-11.94894 -0.066,-1.977 -1.77,-3.52798 -3.80398,-3.46498 -2.037,0.066 -3.62998,1.72198 -3.56398,3.70198 0.192,5.65496 -0.024,10.70694 -4.34698,13.36792 -1.23,0.756 -2.65798,1.41 -4.01098,1.41 1.05,-2.78698 1.84498,-5.72998 2.16898,-8.90396 0.21,-2.02498 0.231,-4.43098 -0.006,-6.29996 -0.369,-2.898 -0.81298,-6.18298 0.315,-8.65496 1.014,-2.13 3.28198,-3.02278 6.61498,-3.02278 2.03098,-0.002 3.68098,-1.6044 3.68098,-3.58078 0,-1.9797 -1.647,-3.5856 -3.68098,-3.5871 -4.95298,0 -8.70296,2.5413 -10.83296,5.61088 -1.11298,-2.31688 -2.46598,-4.70428 -4.10398,-7.17536 -0.52798,-0.7983 -1.36198,-1.3599 -2.31598,-1.5615 -0.471,-0.099 -0.963,-0.1082 -1.437,-0.027 -0.477,0.084 -0.93298,0.258 -1.33798,0.5127 z"
         style="fill:#2689fd;stroke-width:2.99998"
         id="path3792" />
      <path
         d="m 141.2244,85.51624 c -4.56796,2.8576 -5.88796,8.77196 -2.94396,13.20796 16.17592,24.42068 19.99188,42.83656 18.33588,58.98048 -6.69596,30.91184 -21.24788,37.18384 -33.9598,37.18384 -12.41596,0 -9.09596,-19.91992 0.24,-25.75188 5.56796,-3.392 12.70392,-5.59196 18.18388,-5.59196 5.424,0 9.82396,-4.28 9.82396,-9.55196 0,-5.28 -4.39996,-9.55196 -9.82396,-9.55196 -6.39196,0 -12.67192,1.304 -18.53588,3.53596 1.20796,-5.50396 1.63996,-11.45592 0.096,-17.77588 -2.352,-9.59996 -9.11196,-18.77752 -20.84792,-27.66708 -2.055999,-1.5624 -4.663959,-2.26236 -7.255959,-1.9496 -2.5856,0.3136 -4.93836,1.608 -6.54156,3.6104 -3.3312,4.16396 -2.5576,10.16796 1.7248,13.40632 9.56876,7.23996 12.720719,12.60796 13.800719,17.01592 1.08,4.416 0.216,9.15196 -1.952,15.65592 -2.775959,8.76796 -5.995959,16.59192 -7.406359,24.09588 -0.6928,3.696 -0.7528,7.71196 -0.9304,10.92796 -6.88796,-6.54396 -9.58632,-15.19192 -9.58632,-27.81588 0,-5.27996 -4.3992,-9.55196 -9.82476,-9.55196 -5.4256,0.008 -9.81676,4.28 -9.82076,9.55196 0,17.24792 5.17196,33.65584 19.03672,44.5998 12.55192,11.66392 44.467759,7.35196 44.467759,26.07184 0,5.28 7.92796,7.84796 13.35192,7.84796 5.568,0 12.56796,-3.62396 12.56796,-7.84796 0,-21.23988 22.95188,-34.1438 60.73568,-34.0878 5.43196,0.008 9.83196,-4.264 9.83996,-9.53596 0.008,-5.27996 -4.376,-9.56796 -9.80796,-9.57596 -2.584,0 -5.10396,0.088 -7.58396,0.224 4.22396,-9.68796 6.09596,-20.35188 5.71196,-31.86384 -0.176,-5.27196 -4.71996,-9.40796 -10.14396,-9.23996 -5.43196,0.176 -9.67992,4.592 -9.50392,9.87196 0.512,15.07992 -0.064,28.55184 -11.59196,35.6478 -3.27996,2.016 -7.08796,3.76 -10.69592,3.76 2.79996,-7.43196 4.91996,-15.27992 5.78396,-23.74388 0.56,-5.39996 0.616,-11.81592 -0.016,-16.79992 -0.984,-7.72796 -2.168,-16.48792 0.84,-23.07988 2.70396,-5.67996 8.75196,-8.06076 17.63988,-8.06076 5.416,-0.004 9.81596,-4.27836 9.81596,-9.54876 0,-5.27916 -4.39196,-9.56152 -9.81596,-9.56552 -13.20792,0 -23.20788,6.77676 -28.88784,14.96232 -2.968,-6.1784 -6.57596,-12.54476 -10.94396,-19.13432 -1.40796,-2.1288 -3.63196,-3.6264 -6.17596,-4.16396 -1.256,-0.264 -2.56796,-0.2888 -3.83196,-0.072 -1.272,0.224 -2.488,0.68796 -3.568,1.36716 z"
         style="fill:#2689fd;fill-opacity:1;stroke-width:7.99996"
         id="path3546" />
    </g>
  </g>
  <g
     id="Highlights">
    <path
       id="rect653"
       style="opacity:0.2;fill:#ffffff"
       d="M 80,44 C 53.408027,44 32,65.408027 32,92 v 2 C 32,67.408027 53.408027,46 80,46 h 128 c 26.59197,0 48,21.408027 48,48 V 92 C 256,65.408027 234.59197,44 208,44 Z"
       sodipodi:nodetypes="sscsscsss" />
    <path
       id="rect773"
       style="opacity:0.2;fill:#ffffff"
       d="m 312,34 c -9.97199,0 -18,8.02801 -18,18 v 1 c 0,-9.97199 8.02801,-18 18,-18 h 48 c 9.97199,0 18,8.02801 18,18 v -1 c 0,-9.97199 -8.02801,-18 -18,-18 z" />
    <path
       id="rect1135"
       style="opacity:0.2;fill:#ffffff;fill-opacity:1"
       d="m 304,144 c -6.64799,0 -12,5.35201 -12,12 v 1 c 0,-6.64799 5.35201,-12 12,-12 h 32 c 6.64799,0 12,5.35201 12,12 v -1 c 0,-6.64799 -5.35201,-12 -12,-12 z" />
    <path
       id="rect1265"
       style="opacity:0.2;fill:#ffffff;fill-opacity:1"
       d="m 300,223 c -4.986,0 -9,4.014 -9,9 v 1 c 0,-4.986 4.014,-9 9,-9 h 24 c 4.986,0 9,4.014 9,9 v -1 c 0,-4.986 -4.014,-9 -9,-9 z" />
    <path
       id="rect1368"
       style="opacity:0.2;fill:#ffffff;fill-opacity:1"
       d="m 424,54 c -3.324,0 -6,2.676003 -6,6 v 1 c 0,-3.323997 2.676,-6 6,-6 h 16 c 3.324,0 6,2.676003 6,6 v -1 c 0,-3.323997 -2.676,-6 -6,-6 z" />
    <path
       id="rect1402"
       style="opacity:0.2;fill:#ffffff;fill-opacity:1"
       d="m 420,140 c -2.216,0 -4,1.784 -4,4 v 1 c 0,-2.216 1.784,-4 4,-4 h 8 c 2.216,0 4,1.784 4,4 v -1 c 0,-2.216 -1.784,-4 -4,-4 z" />
    <path
       id="rect1436"
       style="opacity:0.2;fill:#ffffff;fill-opacity:1"
       d="m 422,102 c -2.216,0 -4,1.784 -4,4 v 1 c 0,-2.216 1.784,-4 4,-4 h 12 c 2.216,0 4,1.784 4,4 v -1 c 0,-2.216 -1.784,-4 -4,-4 z" />
  </g>
</svg>
