<?xml version="1.0" encoding="UTF-8" standalone="no"?>
<!-- Created with Inkscape (http://www.inkscape.org/) -->

<svg
   width="480"
   height="300"
   viewBox="0 0 480 300"
   version="1.1"
   id="svg5"
   inkscape:version="1.2.2 (1:1.2.2+202305151914+b0a8486541)"
   sodipodi:docname="web-spotify.svg"
   xmlns:inkscape="http://www.inkscape.org/namespaces/inkscape"
   xmlns:sodipodi="http://sodipodi.sourceforge.net/DTD/sodipodi-0.dtd"
   xmlns="http://www.w3.org/2000/svg"
   xmlns:svg="http://www.w3.org/2000/svg">
  <sodipodi:namedview
     id="namedview7"
     pagecolor="#888888"
     bordercolor="#000000"
     borderopacity="0.25"
     inkscape:showpageshadow="true"
     inkscape:pageopacity="0"
     inkscape:pagecheckerboard="0"
     inkscape:deskcolor="#888888"
     inkscape:document-units="px"
     showgrid="false"
     showborder="false"
     inkscape:zoom="2.6866667"
     inkscape:cx="240.07444"
     inkscape:cy="150"
     inkscape:window-width="1920"
     inkscape:window-height="1008"
     inkscape:window-x="0"
     inkscape:window-y="0"
     inkscape:window-maximized="1"
     inkscape:current-layer="svg5" />
  <defs
     id="defs2" />
  <g
     id="Baseplate"
     style="display:none">
    <text
       y="19.774782"
       xml:space="preserve"
       x="15.006946"
       style="font-style:normal;font-variant:normal;font-weight:normal;font-stretch:normal;line-height:0%;font-family:'DejaVu Sans';-inkscape-font-specification:'DejaVu Sans';display:inline;fill:#000000;fill-opacity:1;stroke:none;enable-background:new"
       inkscape:label="context"
       id="context"><tspan
         style="font-style:normal;font-variant:normal;font-weight:normal;font-stretch:normal;font-size:18px;line-height:1.25;font-family:'DejaVu Sans';-inkscape-font-specification:'DejaVu Sans'"
         y="19.774782"
         x="15.006946"
         sodipodi:role="line"
         id="tspan3933">apps</tspan></text>
    <text
       y="19.774782"
       xml:space="preserve"
       x="122.48839"
       style="font-style:normal;font-variant:normal;font-weight:bold;font-stretch:normal;line-height:0%;font-family:'DejaVu Sans';-inkscape-font-specification:'DejaVu Sans Bold';text-align:start;writing-mode:lr-tb;text-anchor:start;display:inline;fill:#000000;fill-opacity:1;stroke:none;enable-background:new"
       inkscape:label="icon-name"
       id="icon-name"><tspan
         style="font-style:normal;font-variant:normal;font-weight:bold;font-stretch:normal;font-size:18px;line-height:1.25;font-family:'DejaVu Sans';-inkscape-font-specification:'DejaVu Sans Bold'"
         y="19.774782"
         x="122.48839"
         sodipodi:role="line"
         id="tspan3937">web-spotify</tspan></text>
    <rect
       style="fill:#ffffff"
       id="256x256"
       width="256"
       height="256"
       x="16"
       y="28" />
    <rect
       style="fill:#ffffff"
       id="96x96"
       width="96"
       height="96"
       x="288"
       y="28" />
    <rect
       style="fill:#ffffff"
       id="64x64"
       width="64"
       height="64"
       x="288"
       y="140" />
    <rect
       style="fill:#ffffff"
       id="48x48"
       width="48"
       height="48"
       x="288"
       y="220" />
    <rect
       style="fill:#ffffff"
       id="32x32"
       width="32"
       height="32"
       x="416"
       y="52" />
    <rect
       style="fill:#ffffff"
       id="24x24"
       width="24"
       height="24"
       x="416"
       y="100" />
    <rect
       style="fill:#ffffff"
       id="22x22"
       width="22"
       height="22"
       x="417"
       y="101" />
    <rect
       style="fill:#ffffff"
       id="16x16"
       width="16"
       height="16"
       x="416"
       y="140" />
  </g>
  <g
     id="Shadow">
    <rect
       style="opacity:0.2;fill:#000000"
       id="rect651"
       width="224"
       height="224"
       x="32"
       y="46"
       ry="48" />
    <rect
       style="opacity:0.2;fill:#000000"
       id="rect769"
       width="84"
       height="85"
       x="294"
       y="34"
       ry="18" />
    <rect
       style="opacity:0.2;fill:#000000;fill-opacity:1"
       id="rect1131"
       width="56"
       height="56"
       x="292"
       y="145"
       ry="12" />
    <rect
       style="opacity:0.2;fill:#000000;fill-opacity:1"
       id="rect1261"
       width="42"
       height="42"
       x="291"
       y="224"
       ry="9" />
    <rect
       style="opacity:0.2;fill:#000000;fill-opacity:1"
       id="rect1364"
       width="28"
       height="29"
       x="418"
       y="54"
       ry="6" />
    <rect
       style="opacity:0.2;fill:#000000;fill-opacity:1"
       id="rect1398"
       width="16"
       height="16"
       x="416"
       y="141"
       ry="4" />
    <rect
       style="opacity:0.2;fill:#000000;fill-opacity:1"
       id="rect1432"
       width="20"
       height="20"
       x="418"
       y="103"
       ry="4" />
  </g>
  <g
     id="Background">
    <rect
       style="fill:#1ed760;fill-opacity:1"
       id="rect597"
       width="224"
       height="224"
       x="32"
       y="44"
       ry="48" />
    <rect
       style="opacity:1;fill:#1ed760;fill-opacity:1"
       id="rect771"
       width="84"
       height="84"
       x="294"
       y="34"
       ry="18" />
    <rect
       style="opacity:1;fill:#1ed760;fill-opacity:1"
       id="rect1133"
       width="56"
       height="56"
       x="292"
       y="144"
       ry="12" />
    <rect
       style="opacity:1;fill:#1ed760;fill-opacity:1"
       id="rect1263"
       width="42"
       height="42"
       x="291"
       y="223"
       ry="9" />
    <rect
       style="opacity:1;fill:#1ed760;fill-opacity:1"
       id="rect1366"
       width="28"
       height="28"
       x="418"
       y="54"
       ry="6" />
    <rect
       style="opacity:1;fill:#1ed760;fill-opacity:1"
       id="rect1400"
       width="16"
       height="16"
       x="416"
       y="140"
       ry="4" />
    <rect
       style="opacity:1;fill:#1ed760;fill-opacity:1"
       id="rect1434"
       width="20"
       height="20"
       x="418"
       y="102"
       ry="4" />
  </g>
  <g
     id="Symbols">
    <g
       id="g780">
      <path
         id="path520"
         style="color:#000000;fill:#ffffff;stroke-linecap:round;-inkscape-stroke:none;opacity:0.2"
         d="m 422.99023,144.52037 c -1.53224,-0.01 -3.03451,0.18298 -4.4082,0.5 -0.40327,0.093 -0.65499,0.49506 -0.5625,0.89844 0.093,0.40327 0.49506,0.65499 0.89844,0.5625 3.11862,-0.71968 6.95188,-0.69813 9.94922,0.93359 0.36352,0.19843 0.81907,0.0647 1.01758,-0.29883 0.19812,-0.36404 0.0634,-0.81975 -0.30079,-1.01757 -1.72731,-0.94034 -3.63299,-1.40509 -5.52929,-1.53711 -0.35556,-0.0248 -0.71086,-0.0387 -1.06446,-0.041 z m -0.16796,3.00586 c -1.2177,0.0164 -2.36998,0.20081 -3.3086,0.51367 -0.39233,0.13089 -0.60465,0.55466 -0.47461,0.94727 0.13089,0.39233 0.55466,0.60465 0.94727,0.47461 0.99851,-0.33284 2.49122,-0.51814 3.95117,-0.40039 1.45995,0.11774 2.88272,0.54236 3.82422,1.28515 0.32528,0.25597 0.79643,0.20002 1.05273,-0.125 0.25642,-0.32477 0.20136,-0.79585 -0.12304,-1.05273 -1.28451,-1.01341 -2.97573,-1.46776 -4.63477,-1.60156 -0.41476,-0.0335 -0.82848,-0.0465 -1.23437,-0.041 z m 0.41796,2.97656 c -0.8958,-0.004 -1.80785,0.0784 -2.64843,0.26563 -0.4047,0.0903 -0.6593,0.49192 -0.56836,0.89648 0.0904,0.40376 0.49063,0.65808 0.89453,0.56836 1.02212,-0.22766 2.27345,-0.2797 3.39062,-0.17969 1.11718,0.10002 2.11884,0.37912 2.55469,0.64063 0.3554,0.21322 0.81637,0.0978 1.0293,-0.25781 0.21356,-0.35489 0.099,-0.81571 -0.25586,-1.0293 -0.81415,-0.48849 -1.93684,-0.73517 -3.19336,-0.84766 -0.39267,-0.0352 -0.79594,-0.0549 -1.20313,-0.0566 z"
         sodipodi:nodetypes="sscccccssscccscccssscccssccss" />
      <path
         d="m 422.99023,144.02037 c -1.53224,-0.01 -3.03451,0.18298 -4.4082,0.5 -0.40327,0.093 -0.65499,0.49506 -0.5625,0.89844 0.093,0.40327 0.49506,0.65499 0.89844,0.5625 3.11862,-0.71968 6.95188,-0.69813 9.94922,0.93359 0.36352,0.19843 0.81907,0.0647 1.01758,-0.29883 0.19812,-0.36404 0.0634,-0.81975 -0.30079,-1.01757 -1.72731,-0.94034 -3.63299,-1.40509 -5.52929,-1.53711 -0.35556,-0.0248 -0.71086,-0.0387 -1.06446,-0.041 z m -0.16796,3.00586 c -1.2177,0.0164 -2.36998,0.20081 -3.3086,0.51367 -0.39233,0.13089 -0.60465,0.55466 -0.47461,0.94727 0.13089,0.39233 0.55466,0.60465 0.94727,0.47461 0.99851,-0.33284 2.49122,-0.51814 3.95117,-0.40039 1.45995,0.11774 2.88272,0.54236 3.82422,1.28515 0.32528,0.25597 0.79643,0.20002 1.05273,-0.125 0.25642,-0.32477 0.20136,-0.79585 -0.12304,-1.05273 -1.28451,-1.01341 -2.97573,-1.46776 -4.63477,-1.60156 -0.41476,-0.0335 -0.82848,-0.0465 -1.23437,-0.041 z m 0.41796,2.97656 c -0.8958,-0.004 -1.80785,0.0784 -2.64843,0.26563 -0.4047,0.0903 -0.6593,0.49192 -0.56836,0.89648 0.0904,0.40376 0.49063,0.65808 0.89453,0.56836 1.02212,-0.22766 2.27345,-0.2797 3.39062,-0.17969 1.11718,0.10002 2.11884,0.37912 2.55469,0.64063 0.3554,0.21322 0.81637,0.0978 1.0293,-0.25781 0.21356,-0.35489 0.099,-0.81571 -0.25586,-1.0293 -0.81415,-0.48849 -1.93684,-0.73517 -3.19336,-0.84766 -0.39267,-0.0352 -0.79594,-0.0549 -1.20313,-0.0566 z"
         style="color:#000000;fill:#3f3f3f;stroke-linecap:round;-inkscape-stroke:none"
         id="path758" />
    </g>
    <g
       id="g1734">
      <path
         id="path275"
         style="color:#000000;fill:#ffffff;stroke-linecap:round;-inkscape-stroke:none;opacity:0.2;stroke:none"
         d="M 427.1582 107.47461 C 425.07546 107.4676 423.07394 107.84487 421.55273 108.60547 A 1 1 0 0 0 421.10547 109.94727 A 1 1 0 0 0 422.44727 110.39453 C 423.70874 109.76379 425.84278 109.38124 427.94531 109.49805 C 430.04785 109.61485 432.11126 110.22748 433.35938 111.26758 A 1 1 0 0 0 434.76758 111.14062 A 1 1 0 0 0 434.64062 109.73242 C 432.88876 108.27253 430.45215 107.63515 428.05469 107.50195 C 427.755 107.4853 427.45574 107.47561 427.1582 107.47461 z M 426.75391 111.49805 C 425.28469 111.51329 423.83573 111.70378 422.54492 112.02148 A 0.75 0.75 0 0 0 421.99609 112.92969 A 0.75 0.75 0 0 0 422.9043 113.47852 C 426.01211 112.71366 430.34845 112.86219 432.85938 114.39062 A 0.75 0.75 0 0 0 433.89062 114.14062 A 0.75 0.75 0 0 0 433.64062 113.10938 C 432.09511 112.16859 430.1815 111.68557 428.22461 111.54297 C 427.73539 111.50732 427.24365 111.49297 426.75391 111.49805 z M 427.70117 114.89062 C 426.15585 114.89839 424.66124 115.15654 423.51367 115.53906 A 0.75 0.75 0 0 0 423.03906 116.48633 A 0.75 0.75 0 0 0 423.98633 116.96094 C 425.01225 116.61896 426.5173 116.36579 427.98828 116.39062 C 429.45926 116.41542 430.89017 116.72892 431.82617 117.36914 A 0.75 0.75 0 0 0 432.86914 117.17383 A 0.75 0.75 0 0 0 432.67383 116.13086 C 431.35983 115.23209 429.66574 114.9205 428.01172 114.89258 C 427.90834 114.89083 427.80419 114.89011 427.70117 114.89062 z " />
      <path
         id="path277"
         style="color:#000000;fill:#3f3f3f;stroke-linecap:round;-inkscape-stroke:none"
         d="M 427.1582 106.97461 C 425.07546 106.9676 423.07394 107.34487 421.55273 108.10547 A 1 1 0 0 0 421.10547 109.44727 A 1 1 0 0 0 422.44727 109.89453 C 423.70874 109.26379 425.84278 108.88124 427.94531 108.99805 C 430.04785 109.11485 432.11126 109.72748 433.35938 110.76758 A 1 1 0 0 0 434.76758 110.64062 A 1 1 0 0 0 434.64062 109.23242 C 432.88876 107.77253 430.45215 107.13515 428.05469 107.00195 C 427.755 106.9853 427.45574 106.97561 427.1582 106.97461 z M 426.75391 110.99805 C 425.28469 111.01329 423.83573 111.20378 422.54492 111.52148 A 0.75 0.75 0 0 0 421.99609 112.42969 A 0.75 0.75 0 0 0 422.9043 112.97852 C 426.01211 112.21366 430.34845 112.36219 432.85938 113.89062 A 0.75 0.75 0 0 0 433.89062 113.64062 A 0.75 0.75 0 0 0 433.64062 112.60938 C 432.09511 111.66859 430.1815 111.18557 428.22461 111.04297 C 427.73539 111.00732 427.24365 110.99297 426.75391 110.99805 z M 427.70117 114.39062 C 426.15585 114.39839 424.66124 114.65654 423.51367 115.03906 A 0.75 0.75 0 0 0 423.03906 115.98633 A 0.75 0.75 0 0 0 423.98633 116.46094 C 425.01225 116.11896 426.5173 115.86579 427.98828 115.89062 C 429.45926 115.91542 430.89017 116.22892 431.82617 116.86914 A 0.75 0.75 0 0 0 432.86914 116.67383 A 0.75 0.75 0 0 0 432.67383 115.63086 C 431.35983 114.73209 429.66574 114.4205 428.01172 114.39258 C 427.90834 114.39083 427.80419 114.39011 427.70117 114.39062 z " />
    </g>
    <g
       id="g1962">
      <path
         id="path1445"
         style="color:#000000;fill:#ffffff;stroke-linecap:round;-inkscape-stroke:none;opacity:0.2;stroke:none"
         d="M 430.71289 62.005859 C 427.94195 61.994261 425.27096 62.403674 423.06836 63.064453 A 1.5 1.5 0 0 0 422.0625 64.931641 A 1.5 1.5 0 0 0 423.93164 65.9375 C 428.50984 64.564041 436.25644 64.659581 440.64062 67.728516 A 1.5 1.5 0 0 0 442.72852 67.361328 A 1.5 1.5 0 0 0 442.35938 65.271484 C 439.55149 63.305959 436.08567 62.347892 432.64258 62.083984 C 431.997 62.034502 431.35234 62.008536 430.71289 62.005859 z M 430.47852 67.550781 C 428.13328 67.528211 425.82982 67.907892 423.71289 68.542969 A 1 1 0 0 0 423.04297 69.787109 A 1 1 0 0 0 424.28711 70.458984 C 429.0762 69.022257 434.7337 69.035849 439.42578 72.320312 A 1 1 0 0 0 440.81836 72.074219 A 1 1 0 0 0 440.57422 70.681641 C 437.92027 68.823879 435.00777 67.898428 432.10742 67.632812 C 431.56361 67.58301 431.01972 67.55599 430.47852 67.550781 z M 430.24219 71.976562 C 428.08065 71.969998 426.07394 72.344871 424.55273 73.105469 A 1 1 0 0 0 424.10547 74.447266 A 1 1 0 0 0 425.44727 74.894531 C 426.70874 74.26379 428.8352 73.880307 431.07227 73.998047 C 433.30932 74.115787 435.66127 74.716759 437.4707 75.847656 A 1 1 0 0 0 438.84766 75.53125 A 1 1 0 0 0 438.5293 74.152344 C 436.33874 72.783245 433.69066 72.134213 431.17773 72.001953 C 430.86362 71.985421 430.55098 71.9775 430.24219 71.976562 z " />
      <path
         id="path1447"
         style="color:#000000;fill:#3f3f3f;stroke-linecap:round;-inkscape-stroke:none;stroke:none"
         d="M 430.71289 61.005859 C 427.94195 60.994261 425.27096 61.403674 423.06836 62.064453 A 1.5 1.5 0 0 0 422.0625 63.931641 A 1.5 1.5 0 0 0 423.93164 64.9375 C 428.50984 63.564041 436.25644 63.659581 440.64062 66.728516 A 1.5 1.5 0 0 0 442.72852 66.361328 A 1.5 1.5 0 0 0 442.35938 64.271484 C 439.55149 62.305959 436.08567 61.347892 432.64258 61.083984 C 431.997 61.034502 431.35234 61.008536 430.71289 61.005859 z M 430.47852 66.550781 C 428.13328 66.528211 425.82982 66.907892 423.71289 67.542969 A 1 1 0 0 0 423.04297 68.787109 A 1 1 0 0 0 424.28711 69.458984 C 429.0762 68.022257 434.7337 68.035849 439.42578 71.320312 A 1 1 0 0 0 440.81836 71.074219 A 1 1 0 0 0 440.57422 69.681641 C 437.92027 67.823879 435.00777 66.898428 432.10742 66.632812 C 431.56361 66.58301 431.01972 66.55599 430.47852 66.550781 z M 430.24219 70.976562 C 428.08065 70.969998 426.07394 71.344871 424.55273 72.105469 A 1 1 0 0 0 424.10547 73.447266 A 1 1 0 0 0 425.44727 73.894531 C 426.70874 73.26379 428.8352 72.880307 431.07227 72.998047 C 433.30932 73.115787 435.66127 73.716759 437.4707 74.847656 A 1 1 0 0 0 438.84766 74.53125 A 1 1 0 0 0 438.5293 73.152344 C 436.33874 71.783245 433.69066 71.134213 431.17773 71.001953 C 430.86362 70.985421 430.55098 70.9775 430.24219 70.976562 z " />
    </g>
    <g
       id="g342">
      <path
         id="path1801"
         style="color:#000000;opacity:0.2;fill:#ffffff;stroke:none;stroke-linecap:round;-inkscape-stroke:none"
         d="m 308.77148,235.93164 c -0.89656,3e-4 -1.78801,0.0286 -2.66601,0.0859 -2.34133,0.15279 -4.5926,0.50664 -6.62305,1.05078 -1.06674,0.28596 -1.69978,1.38242 -1.41406,2.44922 0.28596,1.06674 1.38242,1.69978 2.44922,1.41406 6.80418,-1.82345 18.2296,-0.69654 23.37304,2.73242 0.91904,0.61267 2.16073,0.36433 2.77344,-0.55468 0.61267,-0.91904 0.36433,-2.16073 -0.55468,-2.77344 -4.4996,-2.99974 -11.06192,-4.40639 -17.3379,-4.4043 z m 0.25782,7.06641 c -0.77931,-0.006 -1.5685,0.0151 -2.36524,0.0644 -2.12462,0.13162 -4.30462,0.46012 -6.50781,0.97852 -0.80619,0.18947 -1.3063,0.99645 -1.11719,1.80273 0.18944,0.80715 0.99775,1.30753 1.80469,1.11719 8.18721,-1.92641 15.73683,-0.91104 20.77344,2.75195 0.66984,0.48765 1.60818,0.33986 2.0957,-0.33008 0.48765,-0.66984 0.33986,-1.60818 -0.33008,-2.0957 -3.91346,-2.84615 -8.89837,-4.24752 -14.35351,-4.28906 z m 0.23828,6.0664 c -2.69392,-0.0262 -5.38479,0.34676 -8.10547,0.97461 -0.80668,0.18685 -1.30937,0.99202 -1.12305,1.79883 0.18685,0.80668 0.99202,1.30937 1.79883,1.12305 6.30292,-1.45452 11.79045,-1.45793 17.95117,1.85937 0.72921,0.39237 1.63844,0.11961 2.03125,-0.60937 0.39237,-0.72921 0.11961,-1.63844 -0.60937,-2.03125 -3.41963,-1.84134 -6.75806,-2.76318 -10.07813,-3.03125 -0.62251,-0.0503 -1.24356,-0.0779 -1.86523,-0.084 z"
         sodipodi:nodetypes="sscccsscsssccccccssccccccss" />
      <path
         id="path1803"
         style="color:#000000;fill:#3f3f3f;stroke:none;stroke-linecap:round;-inkscape-stroke:none"
         d="m 308.99805,234.99609 c -0.92559,-0.007 -1.8447,0.0136 -2.75,0.0625 -2.41415,0.13039 -4.72439,0.46274 -6.76563,1.00977 -1.06674,0.28596 -1.69978,1.38242 -1.41406,2.44922 0.28596,1.06674 1.38242,1.69978 2.44922,1.41406 3.38051,-0.90594 8.21995,-1.17005 12.69336,-0.69336 4.4734,0.47669 8.61231,1.78282 10.53906,3.32422 0.86278,0.69092 2.12243,0.55096 2.8125,-0.3125 0.68959,-0.86247 0.5497,-2.12062 -0.3125,-2.81055 -3.07324,-2.45858 -7.70441,-3.65443 -12.61523,-4.17773 -1.53464,-0.16353 -3.09408,-0.25341 -4.63672,-0.26563 z m 0.0312,7.00196 c -0.77931,-0.006 -1.5685,0.0151 -2.36524,0.0644 -2.12462,0.13162 -4.30462,0.46012 -6.50781,0.97852 -0.80619,0.18947 -1.3063,0.99645 -1.11719,1.80273 0.18944,0.80715 0.99775,1.30753 1.80469,1.11719 8.18721,-1.92641 15.73683,-0.91104 20.77344,2.75195 0.66984,0.48765 1.60818,0.33986 2.0957,-0.33008 0.48765,-0.66984 0.33986,-1.60818 -0.33008,-2.0957 -3.91346,-2.84615 -8.89837,-4.24752 -14.35351,-4.28906 z m 0.23828,6.0664 c -2.69392,-0.0262 -5.38479,0.34676 -8.10547,0.97461 -0.80668,0.18685 -1.30937,0.99202 -1.12305,1.79883 0.18685,0.80668 0.99202,1.30937 1.79883,1.12305 6.30292,-1.45452 11.79045,-1.45793 17.95117,1.85937 0.72921,0.39237 1.63844,0.11961 2.03125,-0.60937 0.39237,-0.72921 0.11961,-1.63844 -0.60937,-2.03125 -3.41963,-1.84134 -6.75806,-2.76318 -10.07813,-3.03125 -0.62251,-0.0503 -1.24356,-0.0779 -1.86523,-0.084 z"
         sodipodi:nodetypes="sscccscccssssccccccssccccccss" />
    </g>
    <g
       id="g1248"
       transform="matrix(1.0000421,0,0,1,-0.01342918,0)">
      <path
         id="path1028"
         style="color:#000000;opacity:0.2;fill:#ffffff;stroke-linecap:round;-inkscape-stroke:none"
         d="m 315.90234,160.02539 c -5.14058,0.0155 -9.82075,0.75057 -13.33007,2.1543 -1.28209,0.51284 -1.9056,1.96799 -1.39258,3.25 0.51284,1.28101 1.96658,1.9043 3.24804,1.39258 3.18082,-1.27233 8.83931,-2.05863 14.79688,-1.70118 5.95756,0.35746 12.2601,1.82219 17.03516,4.55079 1.19898,0.68425 2.72562,0.26717 3.41015,-0.93165 0.68457,-1.19846 0.26841,-2.72495 -0.92969,-3.41015 -5.72492,-3.27139 -12.67244,-4.80668 -19.21484,-5.19922 -1.2267,-0.0736 -2.43676,-0.10904 -3.62305,-0.10547 z m -1.24023,9.96484 c -1.05657,-0.009 -2.09322,0.0108 -3.09766,0.0586 -2.67849,0.12741 -5.12743,0.46192 -7.11328,1.02929 -1.06272,0.30284 -1.67846,1.41012 -1.375,2.47266 0.30369,1.06193 1.4107,1.67665 2.47266,1.37305 3.0283,-0.86523 8.70174,-1.16579 14.14844,-0.68164 5.44669,0.48415 10.81207,1.83434 13.19335,3.42187 0.91904,0.61267 2.16073,0.36433 2.77344,-0.55468 0.61267,-0.91904 0.36433,-2.16073 -0.55468,-2.77344 -3.6187,-2.41247 -9.25336,-3.56228 -15.05665,-4.07813 -1.81352,-0.1612 -3.62967,-0.25302 -5.39062,-0.26758 z m 0.91797,8.98829 c -3.81324,-0.005 -7.37967,0.41083 -10.06446,1.08203 -1.07174,0.26796 -1.72325,1.35409 -1.45507,2.42578 0.26798,1.07079 1.35278,1.72202 2.42383,1.45508 5.39127,-1.34782 17.43886,-1.24345 23.62109,1.84765 0.98806,0.49417 2.18964,0.0936 2.68359,-0.89453 0.49417,-0.98806 0.0936,-2.18964 -0.89453,-2.68359 -3.90887,-1.95444 -8.85102,-2.90439 -13.64258,-3.16016 -0.89841,-0.048 -1.79189,-0.0712 -2.67187,-0.0723 z"
         sodipodi:nodetypes="ssccscccsscscccssscscsssccccsss" />
      <path
         id="path1030"
         style="color:#000000;fill:#3f3f3f;stroke-linecap:round;-inkscape-stroke:none"
         d="m 315.90234,159.02539 c -5.14058,0.0155 -9.82075,0.75057 -13.33007,2.1543 -1.28209,0.51284 -1.9056,1.96799 -1.39258,3.25 0.51284,1.28101 1.96658,1.9043 3.24804,1.39258 3.18082,-1.27233 8.83931,-2.05863 14.79688,-1.70118 5.95756,0.35746 12.2601,1.82219 17.03516,4.55079 1.19898,0.68425 2.72562,0.26717 3.41015,-0.93165 0.68457,-1.19846 0.26841,-2.72495 -0.92969,-3.41015 -5.72492,-3.27139 -12.67244,-4.80668 -19.21484,-5.19922 -1.2267,-0.0736 -2.43676,-0.10904 -3.62305,-0.10547 z m -1.24023,9.96484 c -1.05657,-0.009 -2.09322,0.0108 -3.09766,0.0586 -2.67849,0.12741 -5.12743,0.46192 -7.11328,1.02929 -1.06272,0.30284 -1.67846,1.41012 -1.375,2.47266 0.30369,1.06193 1.4107,1.67665 2.47266,1.37305 3.0283,-0.86523 8.70174,-1.16579 14.14844,-0.68164 5.44669,0.48415 10.81207,1.83434 13.19335,3.42187 0.91904,0.61267 2.16073,0.36433 2.77344,-0.55468 0.61267,-0.91904 0.36433,-2.16073 -0.55468,-2.77344 -3.6187,-2.41247 -9.25336,-3.56228 -15.05665,-4.07813 -1.81352,-0.1612 -3.62967,-0.25302 -5.39062,-0.26758 z m 0.91797,8.98829 c -3.81324,-0.005 -7.37967,0.41083 -10.06446,1.08203 -1.07174,0.26796 -1.72325,1.35409 -1.45507,2.42578 0.26798,1.07079 1.35278,1.72202 2.42383,1.45508 5.39127,-1.34782 17.43886,-1.24345 23.62109,1.84765 0.98806,0.49417 2.18964,0.0936 2.68359,-0.89453 0.49417,-0.98806 0.0936,-2.18964 -0.89453,-2.68359 -3.90887,-1.95444 -8.85102,-2.90439 -13.64258,-3.16016 -0.89841,-0.048 -1.79189,-0.0712 -2.67187,-0.0723 z"
         sodipodi:nodetypes="ssccscccsscscccssscscsssccccsss" />
    </g>
    <g
       id="g512"
       transform="matrix(2,0,0,2,-288,-412)">
      <path
         d="m 308.77148,235.49504 c -0.89656,3e-4 -1.78801,0.0286 -2.66601,0.0859 -2.34133,0.15279 -4.5926,0.50664 -6.62305,1.05078 -1.06674,0.28596 -1.69978,1.38242 -1.41406,2.44922 0.28596,1.06674 1.38242,1.69978 2.44922,1.41406 6.80418,-1.82345 18.2296,-0.69654 23.37304,2.73242 0.91904,0.61267 2.16073,0.36433 2.77344,-0.55468 0.61267,-0.91904 0.36433,-2.16073 -0.55468,-2.77344 -4.4996,-2.99974 -11.06192,-4.40639 -17.3379,-4.4043 z m 0.25782,7.06641 c -0.77931,-0.006 -1.5685,0.0151 -2.36524,0.0644 -2.12462,0.13162 -4.30462,0.46012 -6.50781,0.97852 -0.80619,0.18947 -1.3063,0.99645 -1.11719,1.80273 0.18944,0.80715 0.99775,1.30753 1.80469,1.11719 8.18721,-1.92641 15.73683,-0.91104 20.77344,2.75195 0.66984,0.48765 1.60818,0.33986 2.0957,-0.33008 0.48765,-0.66984 0.33986,-1.60818 -0.33008,-2.0957 -3.91346,-2.84615 -8.89837,-4.24752 -14.35351,-4.28906 z m 0.23828,6.0664 c -2.69392,-0.0262 -5.38479,0.34676 -8.10547,0.97461 -0.80668,0.18685 -1.30937,0.99202 -1.12305,1.79883 0.18685,0.80668 0.99202,1.30937 1.79883,1.12305 6.30292,-1.45452 11.79045,-1.45793 17.95117,1.85937 0.72921,0.39237 1.63844,0.11961 2.03125,-0.60937 0.39237,-0.72921 0.11961,-1.63844 -0.60937,-2.03125 -3.41963,-1.84134 -6.75806,-2.76318 -10.07813,-3.03125 -0.62251,-0.0503 -1.24356,-0.0779 -1.86523,-0.084 z"
         style="color:#000000;opacity:0.2;fill:#ffffff;stroke:none;stroke-linecap:round;-inkscape-stroke:none"
         id="path435" />
      <path
         d="m 308.99805,234.99609 c -0.92559,-0.007 -1.8447,0.0136 -2.75,0.0625 -2.41415,0.13039 -4.72439,0.46274 -6.76563,1.00977 -1.06674,0.28596 -1.69978,1.38242 -1.41406,2.44922 0.28596,1.06674 1.38242,1.69978 2.44922,1.41406 3.38051,-0.90594 8.21995,-1.17005 12.69336,-0.69336 4.4734,0.47669 8.61231,1.78282 10.53906,3.32422 0.86278,0.69092 2.12243,0.55096 2.8125,-0.3125 0.68959,-0.86247 0.5497,-2.12062 -0.3125,-2.81055 -3.07324,-2.45858 -7.70441,-3.65443 -12.61523,-4.17773 -1.53464,-0.16353 -3.09408,-0.25341 -4.63672,-0.26563 z m 0.0312,7.00196 c -0.77931,-0.006 -1.5685,0.0151 -2.36524,0.0644 -2.12462,0.13162 -4.30462,0.46012 -6.50781,0.97852 -0.80619,0.18947 -1.3063,0.99645 -1.11719,1.80273 0.18944,0.80715 0.99775,1.30753 1.80469,1.11719 8.18721,-1.92641 15.73683,-0.91104 20.77344,2.75195 0.66984,0.48765 1.60818,0.33986 2.0957,-0.33008 0.48765,-0.66984 0.33986,-1.60818 -0.33008,-2.0957 -3.91346,-2.84615 -8.89837,-4.24752 -14.35351,-4.28906 z m 0.23828,6.0664 c -2.69392,-0.0262 -5.38479,0.34676 -8.10547,0.97461 -0.80668,0.18685 -1.30937,0.99202 -1.12305,1.79883 0.18685,0.80668 0.99202,1.30937 1.79883,1.12305 6.30292,-1.45452 11.79045,-1.45793 17.95117,1.85937 0.72921,0.39237 1.63844,0.11961 2.03125,-0.60937 0.39237,-0.72921 0.11961,-1.63844 -0.60937,-2.03125 -3.41963,-1.84134 -6.75806,-2.76318 -10.07813,-3.03125 -0.62251,-0.0503 -1.24356,-0.0779 -1.86523,-0.084 z"
         style="color:#000000;fill:#3f3f3f;stroke:none;stroke-linecap:round;-inkscape-stroke:none"
         id="path394" />
    </g>
    <g
       id="g1401">
      <path
         d="m 127.61405,106.10097 c -20.56408,0.062 -39.286283,3.00228 -53.324763,8.6172 -5.1288,2.05136 -7.62304,7.87196 -5.5708,13 2.05152,5.12404 7.86696,7.6172 12.99328,5.57032 12.72432,-5.08932 35.360203,-8.23452 59.192483,-6.80472 23.83224,1.42984 49.04456,7.28876 68.1464,18.20316 4.79628,2.737 10.9034,1.06868 13.64172,-3.7266 2.73852,-4.79384 1.07376,-10.8998 -3.71908,-13.6406 -22.9016,-13.08556 -50.694,-19.22672 -76.86584,-20.79688 -4.9072,-0.2944 -9.74784,-0.43616 -14.4934,-0.42188 z m -4.96132,39.85936 c -4.22668,-0.036 -8.3736,0.0432 -12.39168,0.2344 -10.714923,0.50964 -20.511483,1.84768 -28.455523,4.11716 -4.25128,1.21136 -6.7144,5.64048 -5.50048,9.89064 1.21484,4.24772 5.64328,6.7066 9.89144,5.4922 12.11424,-3.46092 34.809923,-4.66316 56.598563,-2.72656 21.7886,1.9366 43.25192,7.33736 52.77784,13.68748 3.67644,2.45068 8.64368,1.45732 11.09468,-2.21872 2.45092,-3.67616 1.45748,-8.64292 -2.21888,-11.09376 -14.476,-9.64988 -37.01656,-14.24912 -60.23168,-16.31252 -7.25468,-0.6448 -14.51992,-1.01208 -21.56428,-1.07032 z m 3.6722,35.95316 c -15.25424,-0.02 -29.521163,1.64332 -40.261283,4.32812 -4.28728,1.07184 -6.89352,5.41636 -5.82076,9.70312 1.072,4.28316 5.4116,6.88808 9.69612,5.82032 21.566923,-5.39128 69.761363,-4.9738 94.492363,7.3906 3.95256,1.97668 8.75932,0.3744 10.73524,-3.57812 1.97684,-3.95224 0.3744,-8.75856 -3.57844,-10.73436 -15.63676,-7.81776 -35.40704,-11.61756 -54.57488,-12.64064 -3.59396,-0.192 -7.1682,-0.2848 -10.68836,-0.2892 z"
         style="color:#000000;opacity:0.2;fill:#ffffff;stroke-width:4.00008;stroke-linecap:round;-inkscape-stroke:none"
         id="path1340" />
      <path
         d="m 127.61405,104.10153 c -20.56404,0.062 -39.286283,3.00228 -53.324763,8.6172 -5.12876,2.05136 -7.62304,7.87196 -5.5708,13 2.05152,5.12404 7.86696,7.6172 12.99328,5.57032 12.72432,-5.08932 35.360203,-8.23452 59.192483,-6.80472 23.83224,1.42984 49.04456,7.28876 68.1464,18.20316 4.79628,2.737 10.9034,1.06868 13.64172,-3.7266 2.73852,-4.79384 1.07376,-10.8998 -3.71908,-13.6406 -22.9016,-13.08556 -50.694,-19.22672 -76.86584,-20.79688 -4.9072,-0.2944 -9.74784,-0.43616 -14.4934,-0.42188 z m -4.96132,39.85936 c -4.22664,-0.036 -8.3736,0.0432 -12.39168,0.2344 -10.714883,0.50964 -20.511483,1.84768 -28.455523,4.11716 -4.25124,1.21136 -6.7144,5.64048 -5.50048,9.89064 1.21484,4.24772 5.64328,6.7066 9.89148,5.4922 12.1142,-3.46092 34.809883,-4.66316 56.598523,-2.72656 21.7886,1.9366 43.25196,7.33736 52.77788,13.68748 3.67644,2.45068 8.64364,1.45732 11.09464,-2.21872 2.45092,-3.67616 1.45748,-8.64292 -2.21888,-11.09376 -14.476,-9.64988 -37.01656,-14.24912 -60.23164,-16.31252 -7.25472,-0.6448 -14.51996,-1.01208 -21.56432,-1.07032 z m 3.6722,35.95316 c -15.25424,-0.02 -29.521163,1.64332 -40.261283,4.32812 -4.28728,1.07184 -6.89352,5.41636 -5.82076,9.70312 1.072,4.28316 5.4116,6.88808 9.69616,5.82032 21.566883,-5.39128 69.761323,-4.9738 94.492323,7.3906 3.95256,1.97668 8.75932,0.3744 10.73524,-3.57812 1.97684,-3.95224 0.3744,-8.75856 -3.5784,-10.73436 -15.6368,-7.81776 -35.40708,-11.61756 -54.57492,-12.64064 -3.59396,-0.192 -7.16816,-0.2848 -10.68836,-0.2892 z"
         style="color:#000000;fill:#3f3f3f;stroke-width:4.00008;stroke-linecap:round;-inkscape-stroke:none"
         id="path1312" />
    </g>
  </g>
  <g
     id="Highlights">
    <path
       id="rect653"
       style="opacity:0.2;fill:#ffffff"
       d="M 80,44 C 53.408027,44 32,65.408027 32,92 v 2 C 32,67.408027 53.408027,46 80,46 h 128 c 26.59197,0 48,21.408027 48,48 V 92 C 256,65.408027 234.59197,44 208,44 Z"
       sodipodi:nodetypes="sscsscsss" />
    <path
       id="rect773"
       style="opacity:0.2;fill:#ffffff"
       d="m 312,34 c -9.97199,0 -18,8.02801 -18,18 v 1 c 0,-9.97199 8.02801,-18 18,-18 h 48 c 9.97199,0 18,8.02801 18,18 v -1 c 0,-9.97199 -8.02801,-18 -18,-18 z" />
    <path
       id="rect1135"
       style="opacity:0.2;fill:#ffffff;fill-opacity:1"
       d="m 304,144 c -6.64799,0 -12,5.35201 -12,12 v 1 c 0,-6.64799 5.35201,-12 12,-12 h 32 c 6.64799,0 12,5.35201 12,12 v -1 c 0,-6.64799 -5.35201,-12 -12,-12 z" />
    <path
       id="rect1265"
       style="opacity:0.2;fill:#ffffff;fill-opacity:1"
       d="m 300,223 c -4.986,0 -9,4.014 -9,9 v 1 c 0,-4.986 4.014,-9 9,-9 h 24 c 4.986,0 9,4.014 9,9 v -1 c 0,-4.986 -4.014,-9 -9,-9 z" />
    <path
       id="rect1368"
       style="opacity:0.2;fill:#ffffff;fill-opacity:1"
       d="m 424,54 c -3.324,0 -6,2.676003 -6,6 v 1 c 0,-3.323997 2.676,-6 6,-6 h 16 c 3.324,0 6,2.676003 6,6 v -1 c 0,-3.323997 -2.676,-6 -6,-6 z" />
    <path
       id="rect1402"
       style="opacity:0.2;fill:#ffffff;fill-opacity:1"
       d="m 420,140 c -2.216,0 -4,1.784 -4,4 v 1 c 0,-2.216 1.784,-4 4,-4 h 8 c 2.216,0 4,1.784 4,4 v -1 c 0,-2.216 -1.784,-4 -4,-4 z" />
    <path
       id="rect1436"
       style="opacity:0.2;fill:#ffffff;fill-opacity:1"
       d="m 422,102 c -2.216,0 -4,1.784 -4,4 v 1 c 0,-2.216 1.784,-4 4,-4 h 12 c 2.216,0 4,1.784 4,4 v -1 c 0,-2.216 -1.784,-4 -4,-4 z" />
  </g>
</svg>
