<?xml version="1.0" encoding="UTF-8" standalone="no"?>
<!-- Created with Inkscape (http://www.inkscape.org/) -->

<svg
   width="480"
   height="300"
   viewBox="0 0 480 300"
   version="1.1"
   id="svg5"
   inkscape:version="1.2.2 (1:1.2.2+202305151914+b0a8486541)"
   sodipodi:docname="web-telegram.svg"
   xmlns:inkscape="http://www.inkscape.org/namespaces/inkscape"
   xmlns:sodipodi="http://sodipodi.sourceforge.net/DTD/sodipodi-0.dtd"
   xmlns="http://www.w3.org/2000/svg"
   xmlns:svg="http://www.w3.org/2000/svg">
  <sodipodi:namedview
     id="namedview7"
     pagecolor="#888888"
     bordercolor="#000000"
     borderopacity="0.25"
     inkscape:showpageshadow="true"
     inkscape:pageopacity="0"
     inkscape:pagecheckerboard="0"
     inkscape:deskcolor="#888888"
     inkscape:document-units="px"
     showgrid="false"
     showborder="false"
     inkscape:zoom="2.6866667"
     inkscape:cx="240.44665"
     inkscape:cy="150"
     inkscape:window-width="1920"
     inkscape:window-height="1008"
     inkscape:window-x="0"
     inkscape:window-y="0"
     inkscape:window-maximized="1"
     inkscape:current-layer="svg5" />
  <defs
     id="defs2" />
  <g
     id="Baseplate"
     style="display:none">
    <text
       y="19.774782"
       xml:space="preserve"
       x="15.006946"
       style="font-style:normal;font-variant:normal;font-weight:normal;font-stretch:normal;line-height:0%;font-family:'DejaVu Sans';-inkscape-font-specification:'DejaVu Sans';display:inline;fill:#000000;fill-opacity:1;stroke:none;enable-background:new"
       inkscape:label="context"
       id="context"><tspan
         style="font-style:normal;font-variant:normal;font-weight:normal;font-stretch:normal;font-size:18px;line-height:1.25;font-family:'DejaVu Sans';-inkscape-font-specification:'DejaVu Sans'"
         y="19.774782"
         x="15.006946"
         sodipodi:role="line"
         id="tspan3933">apps</tspan></text>
    <text
       y="19.774782"
       xml:space="preserve"
       x="122.48839"
       style="font-style:normal;font-variant:normal;font-weight:bold;font-stretch:normal;line-height:0%;font-family:'DejaVu Sans';-inkscape-font-specification:'DejaVu Sans Bold';text-align:start;writing-mode:lr-tb;text-anchor:start;display:inline;fill:#000000;fill-opacity:1;stroke:none;enable-background:new"
       inkscape:label="icon-name"
       id="icon-name"><tspan
         style="font-style:normal;font-variant:normal;font-weight:bold;font-stretch:normal;font-size:18px;line-height:1.25;font-family:'DejaVu Sans';-inkscape-font-specification:'DejaVu Sans Bold'"
         y="19.774782"
         x="122.48839"
         sodipodi:role="line"
         id="tspan3937">web-telegram</tspan></text>
    <rect
       style="fill:#ffffff"
       id="256x256"
       width="256"
       height="256"
       x="16"
       y="28" />
    <rect
       style="fill:#ffffff"
       id="96x96"
       width="96"
       height="96"
       x="288"
       y="28" />
    <rect
       style="fill:#ffffff"
       id="64x64"
       width="64"
       height="64"
       x="288"
       y="140" />
    <rect
       style="fill:#ffffff"
       id="48x48"
       width="48"
       height="48"
       x="288"
       y="220" />
    <rect
       style="fill:#ffffff"
       id="32x32"
       width="32"
       height="32"
       x="416"
       y="52" />
    <rect
       style="fill:#ffffff"
       id="24x24"
       width="24"
       height="24"
       x="416"
       y="100" />
    <rect
       style="fill:#ffffff"
       id="22x22"
       width="22"
       height="22"
       x="417"
       y="101" />
    <rect
       style="fill:#ffffff"
       id="16x16"
       width="16"
       height="16"
       x="416"
       y="140" />
  </g>
  <g
     id="Shadow">
    <rect
       style="opacity:0.2;fill:#000000"
       id="rect651"
       width="224"
       height="224"
       x="32"
       y="46"
       ry="48" />
    <rect
       style="opacity:0.2;fill:#000000"
       id="rect769"
       width="84"
       height="85"
       x="294"
       y="34"
       ry="18" />
    <rect
       style="opacity:0.2;fill:#000000;fill-opacity:1"
       id="rect1131"
       width="56"
       height="56"
       x="292"
       y="145"
       ry="12" />
    <rect
       style="opacity:0.2;fill:#000000;fill-opacity:1"
       id="rect1261"
       width="42"
       height="42"
       x="291"
       y="224"
       ry="9" />
    <rect
       style="opacity:0.2;fill:#000000;fill-opacity:1"
       id="rect1364"
       width="28"
       height="29"
       x="418"
       y="54"
       ry="6" />
    <rect
       style="opacity:0.2;fill:#000000;fill-opacity:1"
       id="rect1398"
       width="16"
       height="16"
       x="416"
       y="141"
       ry="4" />
    <rect
       style="opacity:0.2;fill:#000000;fill-opacity:1"
       id="rect1432"
       width="20"
       height="20"
       x="418"
       y="103"
       ry="4" />
  </g>
  <g
     id="Background">
    <rect
       style="fill:#28a4e2;fill-opacity:1"
       id="rect597"
       width="224"
       height="224"
       x="32"
       y="44"
       ry="48" />
    <rect
       style="opacity:1;fill:#28a4e2;fill-opacity:1"
       id="rect771"
       width="84"
       height="84"
       x="294"
       y="34"
       ry="18" />
    <rect
       style="opacity:1;fill:#28a4e2;fill-opacity:1"
       id="rect1133"
       width="56"
       height="56"
       x="292"
       y="144"
       ry="12" />
    <rect
       style="opacity:1;fill:#28a4e2;fill-opacity:1"
       id="rect1263"
       width="42"
       height="42"
       x="291"
       y="223"
       ry="9" />
    <rect
       style="opacity:1;fill:#28a4e2;fill-opacity:1"
       id="rect1366"
       width="28"
       height="28"
       x="418"
       y="54"
       ry="6" />
    <rect
       style="opacity:1;fill:#28a4e2;fill-opacity:1"
       id="rect1400"
       width="16"
       height="16"
       x="416"
       y="140"
       ry="4" />
    <rect
       style="opacity:1;fill:#28a4e2;fill-opacity:1"
       id="rect1434"
       width="20"
       height="20"
       x="418"
       y="102"
       ry="4" />
  </g>
  <g
     id="g1675">
    <g
       id="g1663">
      <path
         d="m 426.78288,152.15182 c 0.15852,-0.29507 1.06938,-5.34054 1.1996,-6.64481 0.14087,-1.29241 -0.59364,-1.05208 -1.26951,-0.83375 -1.65815,0.5375 -6.90072,2.71621 -8.33571,3.43527 -0.35328,0.14064 -0.50599,0.37925 -0.24893,0.58578 0.22132,0.17506 1.03119,0.41549 1.68432,0.53751 0.55677,0.16192 0.98925,0.007 1.38845,-0.20936 0.95938,-0.54605 3.8181,-2.28269 3.97204,-2.3795 0.15395,-0.0968 0.32244,0.0829 0.23628,0.16982 -0.0862,0.087 -2.11075,1.82997 -2.77547,2.61803 -0.35215,0.43332 -0.34161,0.66466 0.0202,0.9379 0.8116,0.61097 2.98003,2.00381 3.30269,2.088 0.41143,0.10736 0.65239,0.0184 0.82608,-0.30489 z"
         style="fill:#000000;opacity:0.2"
         id="path1641" />
      <path
         d="m 426.78288,151.65182 c 0.15852,-0.29507 1.06938,-5.34054 1.1996,-6.64481 0.14087,-1.29241 -0.59364,-1.05208 -1.26951,-0.83375 -1.65815,0.5375 -6.90072,2.71621 -8.33571,3.43527 -0.35328,0.14064 -0.50599,0.37925 -0.24893,0.58578 0.22132,0.17506 1.03119,0.41549 1.68432,0.53751 0.55677,0.16192 0.98925,0.007 1.38845,-0.20936 0.95938,-0.54605 3.8181,-2.28269 3.97204,-2.3795 0.15395,-0.0968 0.32244,0.0829 0.23628,0.16982 -0.0862,0.087 -2.11075,1.82997 -2.77547,2.61803 -0.35215,0.43332 -0.34161,0.66466 0.0202,0.9379 0.8116,0.61097 2.98003,2.00381 3.30269,2.088 0.41143,0.10736 0.65239,0.0184 0.82608,-0.30489 z"
         style="fill:#ffffff"
         id="path1613"
         sodipodi:nodetypes="sccccccssccsss" />
    </g>
    <g
       id="g1667"
       transform="translate(2.091995e-5)">
      <path
         d="m 432.53945,117.06478 c 0.19023,-0.36885 1.28327,-6.67568 1.43952,-8.30601 0.16904,-1.61552 -0.71236,-1.3151 -1.5234,-1.04219 -1.98979,0.67188 -8.28087,3.39526 -10.00286,4.29408 -0.42394,0.1758 -0.60718,0.47407 -0.29872,0.73223 0.26559,0.21882 1.23743,0.51936 2.02119,0.67188 0.66813,0.20241 1.18709,0.008 1.66614,-0.26169 1.15125,-0.68257 4.58172,-2.85337 4.76645,-2.97437 0.18474,-0.12101 0.38693,0.10355 0.28354,0.21226 -0.10339,0.10871 -2.5329,2.28746 -3.33057,3.27255 -0.42259,0.54164 -0.40993,0.83082 0.0242,1.17237 0.97392,0.76371 3.57604,2.50477 3.96323,2.61 0.49372,0.13419 0.78287,0.023 0.9913,-0.38111 z"
         style="opacity:0.2;fill:#000000"
         id="path1066"
         sodipodi:nodetypes="sccccccssccsss" />
      <path
         d="m 432.53943,116.56478 c 0.19023,-0.36885 1.28327,-6.67568 1.43952,-8.30601 0.16904,-1.61552 -0.71236,-1.3151 -1.5234,-1.04219 -1.98979,0.67188 -8.28087,3.39526 -10.00286,4.29408 -0.42394,0.1758 -0.60718,0.47407 -0.29872,0.73223 0.26559,0.21882 1.23743,0.51936 2.02119,0.67188 0.66813,0.20241 1.18709,0.008 1.66614,-0.26169 1.15125,-0.68257 4.58172,-2.85337 4.76645,-2.97437 0.18474,-0.12101 0.38693,0.10355 0.28354,0.21226 -0.10339,0.10871 -2.5329,2.28746 -3.33057,3.27255 -0.42259,0.54164 -0.40993,0.83082 0.0242,1.17237 0.97392,0.76371 3.57604,2.50477 3.96323,2.61 0.49372,0.13419 0.78287,0.023 0.9913,-0.38111 z"
         style="fill:#ffffff"
         id="path1458" />
    </g>
    <g
       id="g2001">
      <path
         d="m 437.93097,75.391043 c 0.269,-0.517 1.818,-9.346 2.039,-11.629 0.24,-2.2615 -1.009,-1.8409 -2.158,-1.4588 -2.819,0.9408 -11.7312,4.7538 -14.1707,6.0118 -0.6005,0.246 -0.8601,0.664 -0.4231,1.025 0.3762,0.306 1.753,0.727 2.8633,0.941 0.9465,0.283 1.6815,0.012 2.3605,-0.367 1.631,-0.955 6.491,-3.994 6.752,-4.164 0.262,-0.169 0.548,0.145 0.402,0.297 -0.146,0.153 -3.588,3.203 -4.718,4.582 -0.599,0.758 -0.581,1.163 0.034,1.641 1.38,1.069 5.066,3.507 5.615,3.654 0.699,0.188 1.109,0.032 1.404,-0.533 z"
         style="fill:#000000;opacity:0.2"
         id="path1951"
         sodipodi:nodetypes="ccccccccccccc" />
      <path
         d="m 437.93097,74.391131 c 0.269,-0.517 1.818,-9.346 2.039,-11.629 0.24,-2.2615 -1.009,-1.8409 -2.158,-1.4588 -2.819,0.9408 -11.7312,4.7538 -14.1707,6.0118 -0.6005,0.246 -0.8601,0.664 -0.4231,1.025 0.3762,0.306 1.753,0.727 2.8633,0.941 0.9465,0.283 1.6815,0.012 2.3605,-0.367 1.631,-0.955 6.491,-3.994 6.752,-4.164 0.262,-0.169 0.548,0.145 0.402,0.297 -0.146,0.153 -3.588,3.203 -4.718,4.582 -0.599,0.758 -0.581,1.163 0.034,1.641 1.38,1.069 5.066,3.507 5.615,3.654 0.699,0.188 1.109,0.032 1.404,-0.533 z"
         style="fill:#ffffff"
         id="path1979" />
    </g>
    <g
       id="g2276"
       transform="translate(-13.565777,-7.1127358)">
      <path
         d="m 334.52303,262.1992 c 0.39584,-0.77489 2.67292,-14.01937 2.99896,-17.44231 0.35209,-3.39354 -1.48437,-2.7625 -3.17396,-2.18921 -4.1448,1.41117 -17.25211,7.13043 -20.83961,9.01725 -0.8823,0.36959 -1.26459,0.99538 -0.62188,1.53822 0.55313,0.45884 2.57813,1.09093 4.21042,1.41118 1.39271,0.42419 2.47397,0.0178 3.47188,-0.55019 2.39792,-1.43323 9.54481,-5.99225 9.93023,-6.24635 0.38437,-0.2541 0.80521,0.2184 0.59062,0.44624 -0.21562,0.22785 -5.27709,4.80367 -6.93959,6.87214 -0.88021,1.13713 -0.85313,1.74507 0.051,2.46221 2.02917,1.60332 7.45001,5.25936 8.25626,5.48091 1.02917,0.28139 1.63126,0.0483 2.06563,-0.80009 z"
         style="opacity:0.2;fill:#000000;stroke-width:1.04582"
         id="path2221"
         sodipodi:nodetypes="scccccccccccss" />
      <path
         d="m 334.52303,261.1992 c 0.39583,-0.77489 2.67292,-14.01937 2.99897,-17.44231 0.35208,-3.39354 -1.48439,-2.7625 -3.17397,-2.18921 -4.1448,1.41117 -17.25211,7.13043 -20.83961,9.01725 -0.88229,0.36959 -1.26459,0.99538 -0.62188,1.53822 0.55312,0.45884 2.57813,1.09093 4.21042,1.41118 1.39272,0.42419 2.47397,0.0178 3.47188,-0.55019 2.39792,-1.43323 9.54481,-5.99225 9.93023,-6.24635 0.38437,-0.2541 0.8052,0.2184 0.59063,0.44624 -0.21563,0.22785 -5.2771,4.80367 -6.9396,6.87214 -0.88021,1.13713 -0.85312,1.74507 0.051,2.46221 2.02917,1.60332 7.45002,5.25936 8.25626,5.48091 1.02917,0.28139 1.63125,0.0483 2.06563,-0.80009 z"
         style="fill:#ffffff;stroke-width:1.04581"
         id="path2144"
         sodipodi:nodetypes="scccccccccccss" />
    </g>
    <g
       id="g2616">
      <path
         d="m 331.86179,186.78138 c 0.53896,-1.03276 3.63591,-18.69191 4.07863,-23.25684 0.47896,-4.52345 -2.01837,-3.68228 -4.31631,-2.91812 -5.63773,1.88125 -23.46246,9.50673 -28.34143,12.02343 -1.20116,0.49223 -1.72035,1.32738 -0.84637,2.05023 0.7525,0.6127 3.50605,1.45422 5.72671,1.88127 1.89302,0.56675 3.36342,0.0239 4.72073,-0.73274 3.26188,-1.91119 12.98153,-7.98943 13.50494,-8.32824 0.52341,-0.3388 1.09628,0.28997 0.80335,0.59436 -0.29294,0.30438 -7.17655,6.40488 -9.4366,9.16312 -1.19734,1.5166 -1.16147,2.32629 0.0685,3.28265 2.75944,2.13838 10.13211,7.01334 11.22913,7.308 1.39888,0.37574 2.21815,0.0645 2.80869,-1.06712 z"
         style="opacity:0.2;fill:#000000"
         id="path2561"
         sodipodi:nodetypes="sccccccssccsss" />
      <path
         d="m 331.86179,185.78138 c 0.53896,-1.03276 3.63591,-18.69191 4.07863,-23.25684 0.47896,-4.52345 -2.01837,-3.68228 -4.31631,-2.91812 -5.63773,1.88125 -23.46246,9.50673 -28.34143,12.02343 -1.20116,0.49223 -1.72035,1.32738 -0.84637,2.05023 0.7525,0.6127 3.50605,1.45422 5.72671,1.88127 1.89302,0.56675 3.36342,0.0239 4.72073,-0.73274 3.26188,-1.91119 12.98153,-7.98943 13.50494,-8.32824 0.52341,-0.3388 1.09628,0.28997 0.80335,0.59436 -0.29294,0.30438 -7.17655,6.40488 -9.4366,9.16312 -1.19734,1.5166 -1.16147,2.32629 0.0685,3.28265 2.75944,2.13838 10.13211,7.01334 11.22913,7.308 1.39888,0.37574 2.21815,0.0645 2.80869,-1.06712 z"
         style="fill:#ffffff"
         id="path2533"
         sodipodi:nodetypes="sccccccssccsss" />
    </g>
    <g
       id="g2390">
      <path
         d="m 353.9145,97.17292 c 0.7917,-1.54978 5.34584,-28.03874 5.99792,-34.88462 0.70418,-6.78708 -2.96874,-5.525 -6.34792,-4.37842 -8.28958,2.82234 -34.50422,14.26086 -41.67922,18.0345 -1.7646,0.73918 -2.52918,1.99076 -1.24374,3.07644 1.10626,0.91768 5.15624,2.18186 8.42084,2.82236 2.78542,0.84838 4.94794,0.0356 6.94376,-1.10038 4.79584,-2.86646 19.0896,-11.9845 19.86044,-12.4927 0.76874,-0.5082 1.61042,0.4368 1.18126,0.89248 -0.43126,0.4557 -10.55418,9.60734 -13.8792,13.74428 -1.7604,2.27426 -1.70626,3.49014 0.102,4.92442 4.05836,3.20664 14.90002,10.51872 16.51252,10.96182 2.05834,0.56278 3.26252,0.0966 4.13126,-1.60018 z"
         style="opacity:0.2;fill:#000000;stroke-width:2.09164"
         id="path2314" />
      <path
         d="m 353.9145,96.17292 c 0.79166,-1.54978 5.34584,-28.03874 5.99794,-34.88462 0.70416,-6.78708 -2.96878,-5.525 -6.34794,-4.37842 -8.2896,2.82234 -34.50422,14.26086 -41.67922,18.0345 -1.76458,0.73918 -2.52918,1.99076 -1.24376,3.07644 1.10624,0.91768 5.15626,2.18186 8.42084,2.82236 2.78544,0.84838 4.94794,0.0356 6.94376,-1.10038 4.79584,-2.86646 19.08962,-11.9845 19.86046,-12.4927 0.76874,-0.5082 1.6104,0.4368 1.18126,0.89248 -0.43126,0.4557 -10.5542,9.60734 -13.8792,13.74428 -1.76042,2.27426 -1.70624,3.49014 0.102,4.92442 4.05834,3.20664 14.90004,10.51872 16.51252,10.96182 2.05834,0.56278 3.2625,0.0966 4.13126,-1.60018 z"
         style="fill:#ffffff;stroke-width:2.09162"
         id="path2286" />
    </g>
    <g
       id="g2676"
       transform="matrix(4,0,0,4,-1136,-532)">
      <path
         d="m 331.86179,186.28138 c 0.53896,-1.03276 3.63591,-18.69191 4.07863,-23.25684 0.47896,-4.52345 -2.01837,-3.68228 -4.31631,-2.91812 -5.63773,1.88125 -23.46246,9.50673 -28.34143,12.02343 -1.20116,0.49223 -1.72035,1.32738 -0.84637,2.05023 0.7525,0.6127 3.50605,1.45422 5.72671,1.88127 1.89302,0.56675 3.36342,0.0239 4.72073,-0.73274 3.26188,-1.91119 12.98153,-7.98943 13.50494,-8.32824 0.52341,-0.3388 1.09628,0.28997 0.80335,0.59436 -0.29294,0.30438 -7.17655,6.40488 -9.4366,9.16312 -1.19734,1.5166 -1.16147,2.32629 0.0685,3.28265 2.75944,2.13838 10.13211,7.01334 11.22913,7.308 1.39888,0.37574 2.21815,0.0645 2.80869,-1.06712 z"
         style="opacity:0.2;fill:#000000"
         id="path2654" />
      <path
         d="m 331.86179,185.78138 c 0.53896,-1.03276 3.63591,-18.69191 4.07863,-23.25684 0.47896,-4.52345 -2.01837,-3.68228 -4.31631,-2.91812 -5.63773,1.88125 -23.46246,9.50673 -28.34143,12.02343 -1.20116,0.49223 -1.72035,1.32738 -0.84637,2.05023 0.7525,0.6127 3.50605,1.45422 5.72671,1.88127 1.89302,0.56675 3.36342,0.0239 4.72073,-0.73274 3.26188,-1.91119 12.98153,-7.98943 13.50494,-8.32824 0.52341,-0.3388 1.09628,0.28997 0.80335,0.59436 -0.29294,0.30438 -7.17655,6.40488 -9.4366,9.16312 -1.19734,1.5166 -1.16147,2.32629 0.0685,3.28265 2.75944,2.13838 10.13211,7.01334 11.22913,7.308 1.39888,0.37574 2.21815,0.0645 2.80869,-1.06712 z"
         style="fill:#ffffff"
         id="path2626" />
    </g>
  </g>
  <g
     id="Highlights">
    <path
       id="rect653"
       style="opacity:0.2;fill:#ffffff"
       d="M 80,44 C 53.408027,44 32,65.408027 32,92 v 2 C 32,67.408027 53.408027,46 80,46 h 128 c 26.59197,0 48,21.408027 48,48 V 92 C 256,65.408027 234.59197,44 208,44 Z"
       sodipodi:nodetypes="sscsscsss" />
    <path
       id="rect773"
       style="opacity:0.2;fill:#ffffff"
       d="m 312,34 c -9.97199,0 -18,8.02801 -18,18 v 1 c 0,-9.97199 8.02801,-18 18,-18 h 48 c 9.97199,0 18,8.02801 18,18 v -1 c 0,-9.97199 -8.02801,-18 -18,-18 z" />
    <path
       id="rect1135"
       style="opacity:0.2;fill:#ffffff;fill-opacity:1"
       d="m 304,144 c -6.64799,0 -12,5.35201 -12,12 v 1 c 0,-6.64799 5.35201,-12 12,-12 h 32 c 6.64799,0 12,5.35201 12,12 v -1 c 0,-6.64799 -5.35201,-12 -12,-12 z" />
    <path
       id="rect1265"
       style="opacity:0.2;fill:#ffffff;fill-opacity:1"
       d="m 300,223 c -4.986,0 -9,4.014 -9,9 v 1 c 0,-4.986 4.014,-9 9,-9 h 24 c 4.986,0 9,4.014 9,9 v -1 c 0,-4.986 -4.014,-9 -9,-9 z" />
    <path
       id="rect1368"
       style="opacity:0.2;fill:#ffffff;fill-opacity:1"
       d="m 424,54 c -3.324,0 -6,2.676003 -6,6 v 1 c 0,-3.323997 2.676,-6 6,-6 h 16 c 3.324,0 6,2.676003 6,6 v -1 c 0,-3.323997 -2.676,-6 -6,-6 z" />
    <path
       id="rect1402"
       style="opacity:0.2;fill:#ffffff;fill-opacity:1"
       d="m 420,140 c -2.216,0 -4,1.784 -4,4 v 1 c 0,-2.216 1.784,-4 4,-4 h 8 c 2.216,0 4,1.784 4,4 v -1 c 0,-2.216 -1.784,-4 -4,-4 z" />
    <path
       id="rect1436"
       style="opacity:0.2;fill:#ffffff;fill-opacity:1"
       d="m 422,102 c -2.216,0 -4,1.784 -4,4 v 1 c 0,-2.216 1.784,-4 4,-4 h 12 c 2.216,0 4,1.784 4,4 v -1 c 0,-2.216 -1.784,-4 -4,-4 z" />
  </g>
</svg>
