<?xml version="1.0" encoding="UTF-8" standalone="no"?>
<!-- Created with Inkscape (http://www.inkscape.org/) -->

<svg
   width="480"
   height="300"
   viewBox="0 0 480 300"
   version="1.1"
   id="svg5"
   inkscape:version="1.2.2 (1:1.2.2+202305151914+b0a8486541)"
   sodipodi:docname="web-foursquare.svg"
   xmlns:inkscape="http://www.inkscape.org/namespaces/inkscape"
   xmlns:sodipodi="http://sodipodi.sourceforge.net/DTD/sodipodi-0.dtd"
   xmlns="http://www.w3.org/2000/svg"
   xmlns:svg="http://www.w3.org/2000/svg">
  <sodipodi:namedview
     id="namedview7"
     pagecolor="#888888"
     bordercolor="#000000"
     borderopacity="0.25"
     inkscape:showpageshadow="true"
     inkscape:pageopacity="0"
     inkscape:pagecheckerboard="0"
     inkscape:deskcolor="#888888"
     inkscape:document-units="px"
     showgrid="false"
     showborder="false"
     inkscape:zoom="2.6770833"
     inkscape:cx="240.18677"
     inkscape:cy="150.16343"
     inkscape:window-width="1920"
     inkscape:window-height="1008"
     inkscape:window-x="0"
     inkscape:window-y="0"
     inkscape:window-maximized="1"
     inkscape:current-layer="svg5" />
  <defs
     id="defs2" />
  <g
     id="Baseplate"
     style="display:none">
    <text
       y="19.774782"
       xml:space="preserve"
       x="15.006946"
       style="font-style:normal;font-variant:normal;font-weight:normal;font-stretch:normal;line-height:0%;font-family:'DejaVu Sans';-inkscape-font-specification:'DejaVu Sans';display:inline;fill:#000000;fill-opacity:1;stroke:none;enable-background:new"
       inkscape:label="context"
       id="context"><tspan
         style="font-style:normal;font-variant:normal;font-weight:normal;font-stretch:normal;font-size:18px;line-height:1.25;font-family:'DejaVu Sans';-inkscape-font-specification:'DejaVu Sans'"
         y="19.774782"
         x="15.006946"
         sodipodi:role="line"
         id="tspan3933">apps</tspan></text>
    <text
       y="19.774782"
       xml:space="preserve"
       x="122.48839"
       style="font-style:normal;font-variant:normal;font-weight:bold;font-stretch:normal;line-height:0%;font-family:'DejaVu Sans';-inkscape-font-specification:'DejaVu Sans Bold';text-align:start;writing-mode:lr-tb;text-anchor:start;display:inline;fill:#000000;fill-opacity:1;stroke:none;enable-background:new"
       inkscape:label="icon-name"
       id="icon-name"><tspan
         style="font-style:normal;font-variant:normal;font-weight:bold;font-stretch:normal;font-size:18px;line-height:1.25;font-family:'DejaVu Sans';-inkscape-font-specification:'DejaVu Sans Bold'"
         y="19.774782"
         x="122.48839"
         sodipodi:role="line"
         id="tspan3937">web-foursquare</tspan></text>
    <rect
       style="fill:#ffffff"
       id="256x256"
       width="256"
       height="256"
       x="16"
       y="28" />
    <rect
       style="fill:#ffffff"
       id="96x96"
       width="96"
       height="96"
       x="288"
       y="28" />
    <rect
       style="fill:#ffffff"
       id="64x64"
       width="64"
       height="64"
       x="288"
       y="140" />
    <rect
       style="fill:#ffffff"
       id="48x48"
       width="48"
       height="48"
       x="288"
       y="220" />
    <rect
       style="fill:#ffffff"
       id="32x32"
       width="32"
       height="32"
       x="416"
       y="52" />
    <rect
       style="fill:#ffffff"
       id="24x24"
       width="24"
       height="24"
       x="416"
       y="100" />
    <rect
       style="fill:#ffffff"
       id="22x22"
       width="22"
       height="22"
       x="417"
       y="101" />
    <rect
       style="fill:#ffffff"
       id="16x16"
       width="16"
       height="16"
       x="416"
       y="140" />
  </g>
  <g
     id="Shadow">
    <rect
       style="opacity:0.2;fill:#000000"
       id="rect651"
       width="224"
       height="224"
       x="32"
       y="46"
       ry="48" />
    <rect
       style="opacity:0.2;fill:#000000"
       id="rect769"
       width="84"
       height="85"
       x="294"
       y="34"
       ry="18" />
    <rect
       style="opacity:0.2;fill:#000000;fill-opacity:1"
       id="rect1131"
       width="56"
       height="56"
       x="292"
       y="145"
       ry="12" />
    <rect
       style="opacity:0.2;fill:#000000;fill-opacity:1"
       id="rect1261"
       width="42"
       height="42"
       x="291"
       y="224"
       ry="9" />
    <rect
       style="opacity:0.2;fill:#000000;fill-opacity:1"
       id="rect1364"
       width="28"
       height="29"
       x="418"
       y="54"
       ry="6" />
    <rect
       style="opacity:0.2;fill:#000000;fill-opacity:1"
       id="rect1398"
       width="16"
       height="16"
       x="416"
       y="141"
       ry="4" />
    <rect
       style="opacity:0.2;fill:#000000;fill-opacity:1"
       id="rect1432"
       width="20"
       height="20"
       x="418"
       y="103"
       ry="4" />
  </g>
  <g
     id="Background">
    <rect
       style="fill:#fa4778;fill-opacity:1"
       id="rect597"
       width="224"
       height="224"
       x="32"
       y="44"
       ry="48" />
    <rect
       style="opacity:1;fill:#fa4778;fill-opacity:1"
       id="rect771"
       width="84"
       height="84"
       x="294"
       y="34"
       ry="18" />
    <rect
       style="opacity:1;fill:#fa4778;fill-opacity:1"
       id="rect1133"
       width="56"
       height="56"
       x="292"
       y="144"
       ry="12" />
    <rect
       style="opacity:1;fill:#fa4778;fill-opacity:1"
       id="rect1263"
       width="42"
       height="42"
       x="291"
       y="223"
       ry="9" />
    <rect
       style="opacity:1;fill:#fa4778;fill-opacity:1"
       id="rect1366"
       width="28"
       height="28"
       x="418"
       y="54"
       ry="6" />
    <rect
       style="opacity:1;fill:#fa4778;fill-opacity:1"
       id="rect1400"
       width="16"
       height="16"
       x="416"
       y="140"
       ry="4" />
    <rect
       style="opacity:1;fill:#fa4778;fill-opacity:1"
       id="rect1434"
       width="20"
       height="20"
       x="418"
       y="102"
       ry="4" />
  </g>
  <g
     id="Symbols">
    <path
       d="m 420.50026,143.5 c -0.27613,3e-5 -0.49997,0.22387 -0.5,0.5 v 10 c -0.001,0.48139 0.61194,0.68619 0.90039,0.30078 L 423.75026,150.5 h 2.25 c 0.22922,-3.6e-4 0.42884,-0.15652 0.48438,-0.37891 l 0.75,-3 0.75,-3 c 0.0786,-0.31522 -0.15949,-0.62057 -0.48438,-0.62109 z m 0.5,1 h 5.85938 l -0.5,2 h -2.85938 c -0.27308,0.004 -0.49219,0.22689 -0.49219,0.5 0,0.27311 0.21911,0.49571 0.49219,0.5 h 2.60938 l -0.50001,2 h -2.10937 c -0.15738,-3e-4 -0.30571,0.0735 -0.40039,0.19922 l -2.09961,2.79883 z"
       style="color:#000000;fill:#000000;stroke:none;stroke-linecap:round;stroke-linejoin:round;-inkscape-stroke:none;opacity:0.2"
       id="path909"
       sodipodi:nodetypes="cccccccccccccccsccccccc" />
    <path
       d="m 420.50026,143 c -0.27613,3e-5 -0.49997,0.22387 -0.5,0.5 v 10 c -0.001,0.48139 0.61194,0.68619 0.90039,0.30078 L 423.75026,150 h 2.25 c 0.22922,-3.6e-4 0.42884,-0.15652 0.48438,-0.37891 l 0.75,-3 0.75,-3 c 0.0786,-0.31522 -0.15949,-0.62057 -0.48438,-0.62109 z m 0.5,1 h 5.85938 l -0.5,2 h -2.85938 c -0.27308,0.004 -0.49219,0.22689 -0.49219,0.5 0,0.27311 0.21911,0.49571 0.49219,0.5 h 2.60938 l -0.50001,2 h -2.10937 c -0.15738,-3e-4 -0.30571,0.0735 -0.40039,0.19922 l -2.09961,2.79883 z"
       style="color:#000000;fill:#ffffff;stroke:none;stroke-linecap:round;stroke-linejoin:round;-inkscape-stroke:none"
       id="path1534" />
    <path
       d="m 423.9999,105.5 c -0.55226,6e-5 -0.99994,0.44774 -1,1 v 12 c -4.7e-4,0.94578 1.19066,1.36372 1.78125,0.625 l 3.69922,-4.625 h 2.26953 c 0.48444,-7e-5 0.89918,-0.34733 0.98437,-0.82422 l 0.625,-3.5 0.625,-3.5 c 0.10937,-0.61288 -0.3618,-1.17567 -0.98437,-1.17578 z m 1,2 h 5.80469 l -0.26758,1.5 h -2.53711 c -0.54692,0.008 -0.98633,0.45303 -0.98633,1 0,0.54697 0.43941,0.99247 0.98633,1 h 2.17969 l -0.26758,1.5 h -1.91211 c -0.30386,-1.8e-4 -0.59132,0.13781 -0.78125,0.375 l -2.21875,2.77344 z"
       style="color:#000000;fill:#000000;stroke-linecap:round;stroke-linejoin:round;-inkscape-stroke:none;opacity:0.2"
       id="path2411"
       sodipodi:nodetypes="cccccccccccccccsccccccc" />
    <path
       d="m 423.9999,105 c -0.55226,6e-5 -0.99994,0.44774 -1,1 v 12 c -4.7e-4,0.94578 1.19066,1.36372 1.78125,0.625 L 428.48037,114 h 2.26953 c 0.48444,-7e-5 0.89918,-0.34733 0.98437,-0.82422 l 0.625,-3.5 0.625,-3.5 c 0.10937,-0.61288 -0.3618,-1.17567 -0.98437,-1.17578 z m 1,2 h 5.80469 l -0.26758,1.5 h -2.53711 c -0.54692,0.008 -0.98633,0.45303 -0.98633,1 0,0.54697 0.43941,0.99247 0.98633,1 h 2.17969 l -0.26758,1.5 h -1.91211 c -0.30386,-1.8e-4 -0.59132,0.13781 -0.78125,0.375 l -2.21875,2.77344 z"
       style="color:#000000;fill:#ffffff;stroke-linecap:round;stroke-linejoin:round;-inkscape-stroke:none"
       id="path2439" />
    <path
       d="m 426,60 c -0.55226,5.5e-5 -0.99994,0.447738 -1,1 v 16 c 5.7e-4,0.934453 1.16844,1.357724 1.76758,0.640625 L 431.46875,72 H 435 c 0.47687,-1.69e-4 0.88729,-0.337007 0.98047,-0.804688 l 1,-4.999999 1,-5 C 438.10355,60.576877 437.63056,60.000248 437,60 Z m 1,2 h 8.7793 l -0.59961,3 H 431 c -0.54692,0.0075 -0.98633,0.453033 -0.98633,1 0,0.546967 0.43941,0.992468 0.98633,1.000001 h 3.7793 L 434.17969,70 H 431 c -0.29648,9.5e-5 -0.57764,0.13173 -0.76758,0.359375 L 427,74.238281 Z"
       style="color:#000000;opacity:0.2;fill:#000000;stroke-linejoin:round;-inkscape-stroke:none"
       id="path2604"
       sodipodi:nodetypes="cccccccccccccccsccccccc" />
    <path
       d="m 426,59 c -0.55226,5.5e-5 -0.99994,0.447738 -1,1 v 16 c 5.7e-4,0.934453 1.16844,1.357724 1.76758,0.640625 L 431.46875,71 H 435 c 0.47687,-1.69e-4 0.88729,-0.337007 0.98047,-0.804688 l 1,-4.999999 1,-5 C 438.10355,59.576877 437.63056,59.000248 437,59 Z m 1,2 h 8.7793 l -0.59961,3 H 431 c -0.54692,0.0075 -0.98633,0.453033 -0.98633,1 0,0.546967 0.43941,0.992468 0.98633,1.000001 h 3.7793 L 434.17969,69 H 431 c -0.29648,9.5e-5 -0.57764,0.13173 -0.76758,0.359375 L 427,73.238281 Z"
       style="color:#000000;fill:#ffffff;stroke-linejoin:round;-inkscape-stroke:none"
       id="path2659"
       sodipodi:nodetypes="cccccccccccccccsccccccc" />
    <path
       d="m 303.5,231 c -0.82839,8e-5 -1.49992,0.67161 -1.5,1.5 v 25 c 8e-4,1.37878 1.70479,2.02635 2.62109,0.99609 L 312.17383,250 H 318.5 c 0.72163,1.7e-4 1.34112,-0.51348 1.47461,-1.22266 l 1.5,-8 1.5,-8 C 323.14825,231.8538 322.43972,230.99982 321.5,231 Z m 1.5,3 h 14.69336 l -0.9375,5 H 311.5 c -0.81999,0.0118 -1.47852,0.67992 -1.47852,1.5 0,0.82008 0.65853,1.48817 1.47852,1.5 h 6.69336 l -0.9375,5 H 311.5 c -0.42852,1.4e-4 -0.83652,0.18353 -1.12109,0.50391 L 305,253.55469 Z"
       style="color:#000000;opacity:0.2;fill:#000000;stroke-linejoin:round;-inkscape-stroke:none"
       id="path2852"
       sodipodi:nodetypes="cccccccccccccccsccccccc" />
    <path
       d="m 303.5,230 c -0.82839,8e-5 -1.49992,0.67161 -1.5,1.5 v 25 c 8e-4,1.37878 1.70479,2.02635 2.62109,0.99609 L 312.17383,249 H 318.5 c 0.72163,1.7e-4 1.34112,-0.51348 1.47461,-1.22266 l 1.5,-8 1.5,-8 C 323.14825,230.8538 322.43972,229.99982 321.5,230 Z m 1.5,3 h 14.69336 l -0.9375,5 H 311.5 c -0.81999,0.0118 -1.47852,0.67992 -1.47852,1.5 0,0.82008 0.65853,1.48817 1.47852,1.5 h 6.69336 l -0.9375,5 H 311.5 c -0.42852,1.4e-4 -0.83652,0.18353 -1.12109,0.50391 L 305,252.55469 Z"
       style="color:#000000;fill:#ffffff;stroke-linejoin:round;-inkscape-stroke:none"
       id="path2824"
       sodipodi:nodetypes="cccccccccccccccsccccccc" />
    <path
       d="m 309.99999,155 c -1.10451,1e-4 -1.99987,0.89548 -1.99999,1.99999 v 31.9999 c 10e-4,1.86889 2.33687,2.71543 3.53515,1.28123 l 9.40231,-11.2812 h 7.06247 c 0.95374,-3.4e-4 1.77458,-0.67402 1.96094,-1.60937 l 1.99999,-9.99997 1.99999,-9.99997 c 0.24616,-1.23685 -0.69981,-2.39011 -1.96093,-2.39061 z m 2,3.99999 h 17.55854 l -1.19922,5.99998 h -8.35935 c -1.09384,0.014 -1.97265,0.90605 -1.97265,1.99999 0,1.09394 0.87881,1.98493 1.97265,1.99999 h 7.55858 l -1.19922,5.99998 h -6.35936 c -0.59296,1.8e-4 -1.15528,0.26346 -1.53515,0.71874 l -6.46482,7.7578 z"
       style="color:#000000;opacity:0.2;fill:#000000;stroke-width:1.99999;stroke-linejoin:round;-inkscape-stroke:none"
       id="path2964"
       sodipodi:nodetypes="cccccccccccccccsccccccc" />
    <path
       d="m 310.00025,154 c -1.10449,1.2e-4 -1.99983,0.89546 -1.99995,1.99995 v 31.99914 c 0.001,1.86885 2.33682,2.71537 3.53507,1.28123 l 9.40208,-11.28096 h 7.06231 c 0.95372,-3.4e-4 1.77454,-0.674 1.96089,-1.60934 l 1.99995,-9.99973 1.99995,-9.99973 C 334.2067,155.15373 333.26074,154.0005 331.99966,154 Z m 1.99994,3.99989 h 17.55813 l -1.19919,5.99984 h -8.35915 c -1.09381,0.014 -1.97261,0.90604 -1.97261,1.99995 0,1.09391 0.8788,1.98489 1.97261,1.99995 h 7.5584 l -1.19919,5.99983 h -6.35921 c -0.59295,2e-4 -1.15525,0.26346 -1.53512,0.71875 l -6.46467,7.75759 z"
       style="color:#000000;fill:#ffffff;stroke-width:1.99995;stroke-linejoin:round;-inkscape-stroke:none"
       id="path2936"
       sodipodi:nodetypes="cccccccccccccccsccccccc" />
    <path
       d="m 319.00001,50.00001 c -1.65678,1.6e-4 -2.99985,1.34323 -3.00001,3.00001 v 50.00024 c 0.002,2.75757 3.4096,4.05272 5.2422,1.99219 l 15.10556,-16.99226 h 12.6524 c 1.44326,3.4e-4 2.68225,-1.02697 2.94923,-2.44533 l 3.00001,-16.00008 3.00002,-16.00007 c 0.34728,-1.84709 -1.06979,-3.55506 -2.94924,-3.5547 z m 3.00002,6.00003 h 29.38686 l -1.87501,10.00005 h -14.51179 c -1.63999,0.0236 -2.95705,1.35984 -2.95705,3.00001 0,1.64017 1.31706,2.97635 2.95705,3.00001 h 13.38678 l -1.87501,10.00005 h -11.51177 c -0.85704,2.8e-4 -1.67305,0.36706 -2.24219,1.00783 L 322.00003,95.1096 Z"
       style="color:#000000;opacity:0.2;fill:#000000;stroke-width:2.00001;stroke-linejoin:round;-inkscape-stroke:none"
       id="path2908" />
    <path
       d="m 319.00001,48 c -1.65678,1.6e-4 -2.99985,1.34323 -3.00001,3.00001 v 50.00024 c 0.002,2.75757 3.4096,4.05272 5.2422,1.99219 l 15.10556,-16.99226 h 12.6524 c 1.44326,3.4e-4 2.68225,-1.02696 2.94923,-2.44533 L 354.9494,67.55477 357.94942,51.5547 C 358.2967,49.70761 356.87963,47.99964 355.00018,48 Z m 3.00002,6.00003 h 29.38686 l -1.87501,10.00005 h -14.51179 c -1.63999,0.0236 -2.95705,1.35984 -2.95705,3.00001 0,1.64017 1.31706,2.97635 2.95705,3.00001 h 13.38678 l -1.87501,10.00005 h -11.51177 c -0.85704,2.8e-4 -1.67305,0.36706 -2.24219,1.00783 l -10.75787,12.10161 z"
       style="color:#000000;fill:#ffffff;stroke-width:2.00001;stroke-linejoin:round;-inkscape-stroke:none"
       id="path2880" />
    <path
       d="M 101.99996,86 C 97.58192,86.0004 94.00048,89.58192 94,93.99996 v 127.99962 c 0.004,7.47556 9.34748,10.86172 14.1406,5.12492 l 37.60925,-45.12481 h 28.24988 c 3.81496,-10e-4 7.09832,-2.69608 7.84376,-6.43748 l 7.99996,-39.99988 7.99996,-39.99989 C 198.82805,90.61504 195.04417,86.002 189.99969,86 Z m 8,15.99996 h 70.23417 l -4.79688,23.99993 h -33.4374 c -4.37536,0.056 -7.8906,3.6242 -7.8906,7.99996 0,4.37576 3.51524,7.93972 7.8906,7.99996 h 30.23432 l -4.79688,23.99992 h -25.43744 c -2.37184,7.2e-4 -4.62112,1.05384 -6.1406,2.87496 l -25.85929,31.03121 z"
       style="color:#000000;opacity:0.2;fill:#000000;stroke-width:7.99996;stroke-linejoin:round;-inkscape-stroke:none"
       id="path3020" />
    <path
       d="m 102.00204,84 c -4.41796,4.8e-4 -7.99932,3.58184 -7.9998,7.9998 v 127.99658 c 0.004,7.4754 9.34728,10.86148 14.14028,5.12492 l 37.60833,-45.12385 h 28.24924 c 3.81488,-10e-4 7.09816,-2.696 7.84356,-6.43736 l 7.9998,-39.99892 7.9998,-39.99893 C 198.82785,88.61492 195.04401,84.002 189.99969,84 Z m 7.99976,15.99956 h 70.23253 l -4.79676,23.99937 h -33.4366 c -4.37524,0.056 -7.89044,3.62416 -7.89044,7.9998 0,4.37564 3.5152,7.93956 7.89044,7.9998 h 30.2336 l -4.79676,23.99932 h -25.43684 c -2.3718,8e-4 -4.621,1.05384 -6.14048,2.875 l -25.85869,31.03037 z"
       style="color:#000000;fill:#ffffff;stroke-width:7.9998;stroke-linejoin:round;-inkscape-stroke:none"
       id="path2992" />
  </g>
  <g
     id="Highlights">
    <path
       id="rect653"
       style="opacity:0.2;fill:#ffffff"
       d="M 80,44 C 53.408027,44 32,65.408027 32,92 v 2 C 32,67.408027 53.408027,46 80,46 h 128 c 26.59197,0 48,21.408027 48,48 V 92 C 256,65.408027 234.59197,44 208,44 Z"
       sodipodi:nodetypes="sscsscsss" />
    <path
       id="rect773"
       style="opacity:0.2;fill:#ffffff"
       d="m 312,34 c -9.97199,0 -18,8.02801 -18,18 v 1 c 0,-9.97199 8.02801,-18 18,-18 h 48 c 9.97199,0 18,8.02801 18,18 v -1 c 0,-9.97199 -8.02801,-18 -18,-18 z" />
    <path
       id="rect1135"
       style="opacity:0.2;fill:#ffffff;fill-opacity:1"
       d="m 304,144 c -6.64799,0 -12,5.35201 -12,12 v 1 c 0,-6.64799 5.35201,-12 12,-12 h 32 c 6.64799,0 12,5.35201 12,12 v -1 c 0,-6.64799 -5.35201,-12 -12,-12 z" />
    <path
       id="rect1265"
       style="opacity:0.2;fill:#ffffff;fill-opacity:1"
       d="m 300,223 c -4.986,0 -9,4.014 -9,9 v 1 c 0,-4.986 4.014,-9 9,-9 h 24 c 4.986,0 9,4.014 9,9 v -1 c 0,-4.986 -4.014,-9 -9,-9 z" />
    <path
       id="rect1368"
       style="opacity:0.2;fill:#ffffff;fill-opacity:1"
       d="m 424,54 c -3.324,0 -6,2.676003 -6,6 v 1 c 0,-3.323997 2.676,-6 6,-6 h 16 c 3.324,0 6,2.676003 6,6 v -1 c 0,-3.323997 -2.676,-6 -6,-6 z" />
    <path
       id="rect1402"
       style="opacity:0.2;fill:#ffffff;fill-opacity:1"
       d="m 420,140 c -2.216,0 -4,1.784 -4,4 v 1 c 0,-2.216 1.784,-4 4,-4 h 8 c 2.216,0 4,1.784 4,4 v -1 c 0,-2.216 -1.784,-4 -4,-4 z" />
    <path
       id="rect1436"
       style="opacity:0.2;fill:#ffffff;fill-opacity:1"
       d="m 422,102 c -2.216,0 -4,1.784 -4,4 v 1 c 0,-2.216 1.784,-4 4,-4 h 12 c 2.216,0 4,1.784 4,4 v -1 c 0,-2.216 -1.784,-4 -4,-4 z" />
  </g>
</svg>
