<?xml version="1.0" encoding="UTF-8" standalone="no"?>
<!-- Created with Inkscape (http://www.inkscape.org/) -->

<svg
   width="480"
   height="300"
   viewBox="0 0 480 300"
   version="1.1"
   id="svg5"
   inkscape:version="1.2.2 (1:1.2.2+202305151914+b0a8486541)"
   sodipodi:docname="web-google.svg"
   xmlns:inkscape="http://www.inkscape.org/namespaces/inkscape"
   xmlns:sodipodi="http://sodipodi.sourceforge.net/DTD/sodipodi-0.dtd"
   xmlns="http://www.w3.org/2000/svg"
   xmlns:svg="http://www.w3.org/2000/svg">
  <sodipodi:namedview
     id="namedview7"
     pagecolor="#888888"
     bordercolor="#000000"
     borderopacity="0.25"
     inkscape:showpageshadow="true"
     inkscape:pageopacity="0"
     inkscape:pagecheckerboard="0"
     inkscape:deskcolor="#888888"
     inkscape:document-units="px"
     showgrid="false"
     showborder="false"
     inkscape:zoom="2.6866667"
     inkscape:cx="240.07444"
     inkscape:cy="150"
     inkscape:window-width="1920"
     inkscape:window-height="1008"
     inkscape:window-x="0"
     inkscape:window-y="0"
     inkscape:window-maximized="1"
     inkscape:current-layer="svg5"
     showguides="false" />
  <defs
     id="defs2" />
  <g
     id="Baseplate"
     style="display:none">
    <text
       y="19.774782"
       xml:space="preserve"
       x="15.006946"
       style="font-style:normal;font-variant:normal;font-weight:normal;font-stretch:normal;line-height:0%;font-family:'DejaVu Sans';-inkscape-font-specification:'DejaVu Sans';display:inline;fill:#000000;fill-opacity:1;stroke:none;enable-background:new"
       inkscape:label="context"
       id="context"><tspan
         style="font-style:normal;font-variant:normal;font-weight:normal;font-stretch:normal;font-size:18px;line-height:1.25;font-family:'DejaVu Sans';-inkscape-font-specification:'DejaVu Sans'"
         y="19.774782"
         x="15.006946"
         sodipodi:role="line"
         id="tspan3933">apps</tspan></text>
    <text
       y="19.774782"
       xml:space="preserve"
       x="122.48839"
       style="font-style:normal;font-variant:normal;font-weight:bold;font-stretch:normal;line-height:0%;font-family:'DejaVu Sans';-inkscape-font-specification:'DejaVu Sans Bold';text-align:start;writing-mode:lr-tb;text-anchor:start;display:inline;fill:#000000;fill-opacity:1;stroke:none;enable-background:new"
       inkscape:label="icon-name"
       id="icon-name"><tspan
         style="font-style:normal;font-variant:normal;font-weight:bold;font-stretch:normal;font-size:18px;line-height:1.25;font-family:'DejaVu Sans';-inkscape-font-specification:'DejaVu Sans Bold'"
         y="19.774782"
         x="122.48839"
         sodipodi:role="line"
         id="tspan3937">web-google</tspan></text>
    <rect
       style="fill:#ffffff"
       id="256x256"
       width="256"
       height="256"
       x="16"
       y="28" />
    <rect
       style="fill:#ffffff"
       id="96x96"
       width="96"
       height="96"
       x="288"
       y="28" />
    <rect
       style="fill:#ffffff"
       id="64x64"
       width="64"
       height="64"
       x="288"
       y="140" />
    <rect
       style="fill:#ffffff"
       id="48x48"
       width="48"
       height="48"
       x="288"
       y="220" />
    <rect
       style="fill:#ffffff"
       id="32x32"
       width="32"
       height="32"
       x="416"
       y="52" />
    <rect
       style="fill:#ffffff"
       id="24x24"
       width="24"
       height="24"
       x="416"
       y="100" />
    <rect
       style="fill:#ffffff"
       id="22x22"
       width="22"
       height="22"
       x="417"
       y="101" />
    <rect
       style="fill:#ffffff"
       id="16x16"
       width="16"
       height="16"
       x="416"
       y="140" />
  </g>
  <g
     id="Shadow">
    <rect
       style="opacity:0.2;fill:#000000"
       id="rect651"
       width="224"
       height="224"
       x="32"
       y="46"
       ry="48" />
    <rect
       style="opacity:0.2;fill:#000000"
       id="rect769"
       width="84"
       height="85"
       x="294"
       y="34"
       ry="18" />
    <rect
       style="opacity:0.2;fill:#000000;fill-opacity:1"
       id="rect1131"
       width="56"
       height="56"
       x="292"
       y="145"
       ry="12" />
    <rect
       style="opacity:0.2;fill:#000000;fill-opacity:1"
       id="rect1261"
       width="42"
       height="42"
       x="291"
       y="224"
       ry="9" />
    <rect
       style="opacity:0.2;fill:#000000;fill-opacity:1"
       id="rect1364"
       width="28"
       height="29"
       x="418"
       y="54"
       ry="6" />
    <rect
       style="opacity:0.2;fill:#000000;fill-opacity:1"
       id="rect1398"
       width="16"
       height="16"
       x="416"
       y="141"
       ry="4" />
    <rect
       style="opacity:0.2;fill:#000000;fill-opacity:1"
       id="rect1432"
       width="20"
       height="20"
       x="418"
       y="103"
       ry="4" />
  </g>
  <g
     id="Background">
    <rect
       style="fill:#efefef;fill-opacity:1"
       id="rect597"
       width="224"
       height="224"
       x="32"
       y="44"
       ry="48" />
    <rect
       style="opacity:1;fill:#efefef;fill-opacity:1"
       id="rect771"
       width="84"
       height="84"
       x="294"
       y="34"
       ry="18" />
    <rect
       style="opacity:1;fill:#efefef;fill-opacity:1"
       id="rect1133"
       width="56"
       height="56"
       x="292"
       y="144"
       ry="12" />
    <rect
       style="opacity:1;fill:#efefef;fill-opacity:1"
       id="rect1263"
       width="42"
       height="42"
       x="291"
       y="223"
       ry="9" />
    <rect
       style="opacity:1;fill:#efefef;fill-opacity:1"
       id="rect1366"
       width="28"
       height="28"
       x="418"
       y="54"
       ry="6" />
    <rect
       style="opacity:1;fill:#efefef;fill-opacity:1"
       id="rect1400"
       width="16"
       height="16"
       x="416"
       y="140"
       ry="4" />
    <rect
       style="opacity:1;fill:#efefef;fill-opacity:1"
       id="rect1434"
       width="20"
       height="20"
       x="418"
       y="102"
       ry="4" />
  </g>
  <g
     id="Symbols"
     transform="translate(4.72911,-34.00992)">
    <g
       id="g4783">
      <path
         d="m 419.27089,177.50992 c -2.76141,0 -5,2.23858 -5,5 0,2.76141 2.23859,5 5,5 2.76141,0 5,-2.23859 5,-5 0,-0.34247 -0.035,-0.67689 -0.10059,-1 h -4.89941 v 2 h 2.8291 c -0.41192,1.16503 -1.523,2 -2.8291,2 -1.65686,0 -3,-1.34315 -3,-3 0,-1.65685 1.34314,-3 3,-3 0.82842,0 1.5782,0.33601 2.12109,0.8789 l 1.41406,-1.41406 c -0.90482,-0.90482 -2.15444,-1.46484 -3.53515,-1.46484 z"
         style="opacity:0.2;fill:#000000;fill-opacity:1;stroke-width:0.5"
         id="path5511" />
      <path
         d="m 423.41951,139.50992 c -2.7449,0 -5.18818,1.58086 -6.37696,3.88086 l 1.65039,1.11719 -1.65625,-1.11719 c -0.48469,0.94 -0.76562,1.99914 -0.76562,3.11914 0,1.16 0.29719,2.25094 0.8125,3.21094 l 2.46875,-1.73828 c -0.18573,-0.46878 -0.28116,-0.96844 -0.28125,-1.47266 10e-4,-0.48891 0.0918,-0.97348 0.26758,-1.42969 0.592,-1.54689 2.07612,-2.56892 3.73242,-2.57031 1.02386,0.002 2.0081,0.39595 2.75,1.10156 l 2.0918,-2.22656 c -1.21429,-1.16 -2.85663,-1.875 -4.69336,-1.875 z m -0.14844,5 v 3 h 3.86523 c -0.0424,0.16999 -0.0959,0.33702 -0.16015,0.5 -0.0733,0.17919 -0.15942,0.35282 -0.25781,0.51953 -0.002,0.004 -0.004,0.008 -0.006,0.0117 l -0.0117,0.0156 c -0.0969,0.16309 -0.20522,0.31908 -0.32422,0.4668 -0.12228,0.15143 -0.25545,0.29373 -0.39844,0.42578 -10e-4,0.001 -0.002,0.003 -0.004,0.004 l -0.008,0.006 c -0.13515,0.12374 -0.27887,0.23773 -0.42969,0.3418 -0.003,0.002 -0.005,0.004 -0.008,0.006 -0.66455,0.45653 -1.45154,0.70159 -2.2578,0.70304 -1.63938,-6e-4 -3.11244,-1.00148 -3.7168,-2.52539 l -2.46679,1.73633 c 1.20408,2.25 3.62284,3.78906 6.33203,3.78906 1.79592,0 3.40214,-0.67406 4.61133,-1.78906 1.38267,-1.28004 2.24023,-3.14594 2.24023,-5.21094 -0.0122,-0.65382 -0.1193,-1.33144 -0.19922,-2 h -0.81641 z"
         style="opacity:0.2;fill:#000000"
         id="path2274" />
      <path
         id="path2600"
         style="opacity:0.2;fill:#000000;fill-opacity:1"
         d="m 427.27089,93.00992 c -5.52282,0 -10,4.477171 -10,10 0,5.52282 4.47718,10 10,10 5.52282,0 10,-4.47718 10,-10 0,-0.68493 -0.07,-1.35378 -0.20117,-2 h -9.79883 v 4 h 5.6582 c -0.82384,2.33007 -3.04599,4 -5.6582,4 -3.31371,0 -6,-2.68629 -6,-6 0,-3.313699 2.68629,-6 6,-6 1.65685,0 3.1564,0.672029 4.24219,1.757812 l 2.82812,-2.828125 c -1.80964,-1.809641 -4.30889,-2.929687 -7.07031,-2.929687 z"
         sodipodi:nodetypes="ssssccccsssccs" />
      <path
         d="m 307.27089,264.00992 c -8.28423,0 -15,6.71575 -15,15 0,8.28423 6.71577,15 15,15 8.28423,0 15,-6.71577 15,-15 0,-1.0274 -0.105,-2.03067 -0.30175,-3 h -14.69825 v 6 h 8.4873 c -1.23576,3.49511 -4.56899,6 -8.4873,6 -4.97057,0 -9,-4.02944 -9,-9 0,-4.97055 4.02943,-9 9,-9 2.48527,0 4.7346,1.00805 6.36329,2.63671 l 4.24217,-4.24217 c -2.71446,-2.71447 -6.46333,-4.39454 -10.60546,-4.39454 z"
         style="opacity:0.2;fill:#000000;fill-opacity:1;stroke-width:1.5"
         id="path5057"
         sodipodi:nodetypes="ssssccccsssccs" />
      <path
         d="m 315.27089,187.00992 c -11.04564,0 -20,8.95434 -20,20 0,11.04564 8.95436,20 20,20 11.04564,0 20,-8.95436 20,-20 0,-1.36986 -0.14,-2.70756 -0.40234,-4 h -19.59766 v 8 h 11.3164 c -1.64768,4.66014 -6.09198,8 -11.3164,8 -6.62742,0 -12,-5.37258 -12,-12 0,-6.6274 5.37258,-12 12,-12 3.3137,0 6.3128,1.34406 8.48438,3.51562 l 5.65624,-5.65624 c -3.61928,-3.6193 -8.61778,-5.85938 -14.14062,-5.85938 z"
         style="opacity:0.2;fill:#000000;fill-opacity:1;stroke-width:2"
         id="path4917"
         sodipodi:nodetypes="ssssccccsssccs" />
      <path
         d="m 331.27089,81.00992 c -16.56846,0 -30,13.4315 -30,30 0,16.56846 13.43154,30 30,30 16.56846,0 30,-13.43154 30,-30 0,-2.0548 -0.21,-4.06134 -0.6035,-6 h -29.3965 v 12 h 16.9746 c -2.47152,6.99022 -9.13798,12 -16.9746,12 -9.94114,0 -18,-8.05888 -18,-18 0,-9.9411 8.05886,-18 18,-18 4.97054,0 9.4692,2.0161 12.72658,5.27342 l 8.48434,-8.48434 c -5.42892,-5.42894 -12.92666,-8.78908 -21.21092,-8.78908 z"
         style="opacity:0.2;fill:#000000;fill-opacity:1;stroke-width:3"
         id="path5085" />
      <path
         d="m 139.27086,114.0099 c -44.18256,0 -80,35.81736 -80,80 0,44.18256 35.81744,80 80,80 44.18256,0 80,-35.81744 80,-80 0,-5.47944 -0.56,-10.83024 -1.60936,-16 h -78.39064 v 32 h 45.2656 c -6.59072,18.64056 -24.36792,32 -45.2656,32 -26.50968,0 -48,-21.49032 -48,-48 0,-26.5096 21.49032,-48 48,-48 13.2548,0 25.2512,5.37624 33.93752,14.06248 l 22.62496,-22.62496 C 181.35622,122.97022 161.36222,114.0099 139.27086,114.0099 Z"
         style="opacity:0.2;fill:#000000;fill-opacity:1;stroke-width:8"
         id="path5365" />
    </g>
    <g
       id="g5571">
      <g
         id="g5501">
        <path
           d="m 416.83143,183.7521 -1.6289,1.16309 c 0.90692,1.26775 2.39075,2.09473 4.06836,2.09473 1.46654,0 2.78369,-0.63286 3.69824,-1.63867 l -1.48047,-1.34571 c -0.54867,0.6034 -1.33798,0.98438 -2.21777,0.98438 -1.00655,0 -1.89457,-0.49706 -2.43848,-1.25782 z"
           style="fill:#00ac47;fill-opacity:1;stroke-width:0.5"
           id="path5477" />
        <path
           d="m 419.27089,181.00992 v 2 h 2.8291 c -0.13453,0.3805 -0.34423,0.72508 -0.61035,1.01758 l 1.48145,1.3457 c 0.80759,-0.88805 1.2998,-2.06838 1.2998,-3.36328 0,-0.34247 -0.035,-0.67689 -0.10059,-1 z"
           style="fill:#2684fc;fill-opacity:1;stroke-width:0.5"
           id="path5393" />
        <path
           d="m 415.20253,179.10464 c -0.58598,0.81901 -0.93164,1.82144 -0.93164,2.90528 0,1.08383 0.34566,2.08626 0.93164,2.90527 l 1.6289,-1.16309 c -0.35151,-0.49137 -0.56054,-1.09195 -0.56054,-1.74218 0,-0.65023 0.20903,-1.25081 0.56054,-1.74219 z"
           style="fill:#ffba00;fill-opacity:1;stroke-width:0.5"
           id="path5449" />
        <path
           d="m 419.27089,177.00992 c -1.67757,0 -3.16138,0.82705 -4.06836,2.09473 l 1.62793,1.1621 c 0.54418,-0.76055 1.43391,-1.25683 2.44043,-1.25683 0.82842,0 1.5782,0.33602 2.12109,0.87891 l 1.41406,-1.41407 c -0.90482,-0.90482 -2.15445,-1.46484 -3.53515,-1.46484 z"
           style="fill:#ea4335;fill-opacity:1;stroke-width:0.5"
           id="path5421" />
      </g>
      <g
         id="g713">
        <path
           d="m 423.27089,144.00992 v 3 h 3.86523 c -0.0424,0.16999 -0.0959,0.33702 -0.16015,0.5 -0.0732,0.17919 -0.15942,0.35282 -0.25781,0.51953 -0.002,0.004 -0.004,0.008 -0.006,0.0117 l -0.0117,0.0156 c -0.0969,0.16309 -0.20522,0.31908 -0.32422,0.4668 -0.12228,0.15143 -0.25545,0.29373 -0.39844,0.42578 -10e-4,0.001 -0.002,0.003 -0.004,0.004 l -0.008,0.006 c -0.13755,0.12594 -0.28374,0.24211 -0.4375,0.34765 -0.006,0.004 -0.0114,0.01 -0.0176,0.0137 l 2.51953,1.9004 c 1.38268,-1.28004 2.24026,-3.14598 2.24026,-5.21098 -0.0122,-0.65382 -0.1193,-1.33144 -0.19922,-2 h -0.81641 z"
           style="fill:#2684fc;fill-opacity:1"
           id="path444" />
        <path
           d="m 423.41933,139.00992 c -2.7449,0 -5.18916,1.57988 -6.37793,3.87988 l 2.49804,1.69043 c 0.59187,-1.54656 2.07551,-2.56852 3.73145,-2.57031 1.02386,0.002 2.0081,0.39595 2.75,1.10156 l 2.0918,-2.22656 c -1.21429,-1.16 -2.85663,-1.875 -4.69336,-1.875 z"
           style="fill:#ea4335;fill-opacity:1"
           id="path416" />
        <path
           d="m 417.03651,142.8898 c -0.48469,0.94 -0.76562,2.00012 -0.76562,3.12012 0,1.16 0.29622,2.24996 0.81152,3.20996 l 2.46973,-1.73828 c -0.18561,-0.46847 -0.28103,-0.96778 -0.28125,-1.47168 10e-4,-0.48897 0.0924,-0.97355 0.26855,-1.42969 l -0.8291,-0.56054 z"
           style="fill:#ffba00;fill-opacity:1"
           id="path388" />
        <path
           d="m 419.55409,147.48453 -2.46679,1.73535 c 1.20408,2.25 3.62284,3.79004 6.33203,3.79004 1.79592,0 3.40214,-0.67504 4.61132,-1.79004 l -2.49414,-1.91894 c -0.66606,0.46015 -1.45607,0.70737 -2.26562,0.70898 -1.63938,-6e-4 -3.11243,-1.00147 -3.7168,-2.52539 z"
           style="fill:#00ac47;fill-opacity:1"
           id="path360" />
      </g>
      <g
         id="g4901">
        <path
           id="path4060"
           style="opacity:1;fill:#2684fc;fill-opacity:1"
           d="m 427.27089,100.00992 v 4 h 5.6582 c -0.26906,0.761 -0.68845,1.45016 -1.2207,2.03516 l 2.96289,2.6914 c 1.61518,-1.7761 2.59961,-4.13675 2.59961,-6.72656 0,-0.68493 -0.07,-1.35378 -0.20117,-2 z"
           sodipodi:nodetypes="cccccscc" />
        <path
           id="path3993"
           style="opacity:1;fill:#00ac47;fill-opacity:1"
           d="m 422.39198,105.49429 -3.25781,2.32618 c 1.81384,2.5355 4.7815,4.18945 8.13672,4.18945 2.93307,0 5.56738,-1.26572 7.39648,-3.27734 l -2.96093,-2.69141 c -1.09734,1.2068 -2.67597,1.96875 -4.43555,1.96875 -2.01311,0 -3.78914,-0.99411 -4.87695,-2.51563 z"
           sodipodi:nodetypes="ccsccscc" />
        <path
           id="path4229"
           style="opacity:1;fill:#ffba00;fill-opacity:1"
           d="m 419.13417,96.199373 c -1.17195,1.638021 -1.86328,3.642871 -1.86328,5.810547 0,2.16767 0.69133,4.17253 1.86328,5.81055 l 3.25781,-2.32618 c -0.70302,-0.98275 -1.12109,-2.1839 -1.12109,-3.48437 0,-1.30046 0.41807,-2.501622 1.12109,-3.484375 z"
           sodipodi:nodetypes="csccscc" />
        <path
           id="path4026"
           style="opacity:1;fill:#ea4335;fill-opacity:1"
           d="m 427.27089,92.00992 c -3.35515,0 -6.32277,1.65411 -8.13672,4.189453 l 3.25586,2.324219 c 1.08838,-1.52112 2.86783,-2.513672 4.88086,-2.513672 1.65685,0 3.1564,0.672034 4.24219,1.757812 l 2.82812,-2.828125 c -1.80964,-1.809643 -4.30889,-2.929687 -7.07031,-2.929687 z"
           sodipodi:nodetypes="sccsccs" />
      </g>
      <g
         id="g5109">
        <path
           d="m 307.27089,275.00992 v 6 h 8.4873 c -0.40359,1.1415 -1.03267,2.17524 -1.83105,3.05274 l 4.44434,4.0371 c 2.42277,-2.66415 3.89941,-6.20513 3.89941,-10.08984 0,-1.0274 -0.105,-2.03067 -0.30175,-3 z"
           style="fill:#2684fc;fill-opacity:1;stroke-width:1.5"
           id="path4945"
           sodipodi:nodetypes="cccccscc" />
        <path
           d="m 299.95253,283.23648 -4.88672,3.48926 c 2.72076,3.80325 7.17225,6.28417 12.20508,6.28417 4.3996,0 8.35107,-1.89859 11.09472,-4.916 l -4.4414,-4.03713 c -1.64601,1.8102 -4.01395,2.95313 -6.65332,2.95313 -3.01966,0 -5.68371,-1.49117 -7.31543,-3.77345 z"
           style="fill:#00ac47;fill-opacity:1;stroke-width:1.5"
           id="path5029"
           sodipodi:nodetypes="ccsccscc" />
        <path
           d="m 295.06581,269.2941 c -1.75792,2.45703 -2.79492,5.4643 -2.79492,8.71582 0,3.25151 1.037,6.25879 2.79492,8.71583 l 4.88672,-3.48927 c -1.05453,-1.47413 -1.68164,-3.27585 -1.68164,-5.22656 0,-1.95069 0.62711,-3.75243 1.68164,-5.22657 z"
           style="fill:#ffba00;fill-opacity:1;stroke-width:1.5"
           id="path5001"
           sodipodi:nodetypes="csccscc" />
        <path
           d="m 307.27089,263.00992 c -5.03272,0 -9.48415,2.48117 -12.20508,6.28418 l 4.88379,3.48633 c 1.63257,-2.28168 4.30175,-3.77051 7.32129,-3.77051 2.48527,0 4.7346,1.00805 6.36328,2.63672 l 4.24218,-4.24219 c -2.71446,-2.71446 -6.46333,-4.39453 -10.60546,-4.39453 z"
           style="fill:#ea4335;fill-opacity:1;stroke-width:1.5"
           id="path4973"
           sodipodi:nodetypes="sccsccs" />
      </g>
      <g
         id="g5265">
        <path
           d="m 315.27089,202.00992 v 8 h 11.3164 c -0.53812,1.522 -1.3769,2.90032 -2.4414,4.07032 l 5.92578,5.3828 c 3.23036,-3.5522 5.19922,-8.2735 5.19922,-13.45312 0,-1.36986 -0.14,-2.70756 -0.40234,-4 z"
           style="fill:#2684fc;fill-opacity:1;stroke-width:2"
           id="path4821"
           sodipodi:nodetypes="cccccscc" />
        <path
           d="m 305.51307,212.97866 -6.51562,4.65234 c 3.62768,5.07102 9.563,8.37892 16.27344,8.37892 5.86614,0 11.13476,-2.53144 14.79296,-6.55468 l -5.92186,-5.38282 c -2.19468,2.4136 -5.35194,3.9375 -8.8711,3.9375 -4.02622,0 -7.57828,-1.98824 -9.7539,-5.03126 z"
           style="fill:#00ac47;fill-opacity:1;stroke-width:2"
           id="path4793"
           sodipodi:nodetypes="ccsccscc" />
        <path
           d="m 298.99745,194.38881 c -2.3439,3.27605 -3.72656,7.28575 -3.72656,11.62111 0,4.33534 1.38266,8.34506 3.72656,11.6211 l 6.51562,-4.65236 c -1.40604,-1.9655 -2.24218,-4.3678 -2.24218,-6.96874 0,-2.60094 0.83614,-5.00326 2.24218,-6.96876 z"
           style="fill:#ffba00;fill-opacity:1;stroke-width:2"
           id="path4849"
           sodipodi:nodetypes="csccscc" />
        <path
           d="m 315.27089,186.00992 c -6.7103,0 -12.64554,3.30822 -16.27344,8.37891 l 6.51172,4.64843 c 2.17676,-3.04224 5.73566,-5.02734 9.76172,-5.02734 3.3137,0 6.3128,1.34407 8.48438,3.51562 l 5.65624,-5.65625 c -3.61928,-3.61928 -8.61778,-5.85937 -14.14062,-5.85937 z"
           style="fill:#ea4335;fill-opacity:1;stroke-width:2"
           id="path4877"
           sodipodi:nodetypes="sccsccs" />
      </g>
      <g
         id="g5227"
         transform="translate(9.00001,-183)">
        <path
           d="m 322.27089,287.00992 v 12 h 16.9746 c -0.80718,2.283 -2.06534,4.35048 -3.6621,6.10548 l 8.88868,8.0742 c 4.84554,-5.3283 7.79882,-12.41026 7.79882,-20.17968 0,-2.0548 -0.21,-4.06134 -0.6035,-6 z"
           style="fill:#2684fc;fill-opacity:1;stroke-width:3"
           id="path5147" />
        <path
           d="m 307.62831,303.46308 -9.77344,6.97852 c 5.44152,7.6065 14.3445,12.56834 24.41016,12.56834 8.7992,0 16.70214,-3.79718 22.18944,-9.832 l -8.8828,-8.07426 c -3.29202,3.6204 -8.0279,5.90626 -13.30664,5.90626 -6.03932,0 -11.36742,-2.98234 -14.63086,-7.5469 z"
           style="fill:#00ac47;fill-opacity:1;stroke-width:3"
           id="path5175" />
        <path
           d="m 297.86073,275.57828 c -3.51584,4.91406 -5.58984,10.9286 -5.58984,17.43164 0,6.50302 2.074,12.51758 5.58984,17.43166 l 9.77344,-6.97854 c -2.10906,-2.94826 -3.36328,-6.5517 -3.36328,-10.45312 0,-3.90138 1.25422,-7.50486 3.36328,-10.45314 z"
           style="fill:#ffba00;fill-opacity:1;stroke-width:3"
           id="path5203" />
        <path
           d="m 322.27089,263.00992 c -10.06544,0 -18.9683,4.96234 -24.41016,12.56836 l 9.76758,6.97266 c 3.26514,-4.56336 8.6035,-7.54102 14.64258,-7.54102 4.97054,0 9.4692,2.0161 12.72656,5.27344 l 8.48436,-8.48438 c -5.42892,-5.42892 -12.92666,-8.78906 -21.21092,-8.78906 z"
           style="fill:#ea4335;fill-opacity:1;stroke-width:3"
           id="path5119" />
      </g>
      <g
         id="g5355"
         transform="matrix(4,0,0,4,-1121.8127,-632.02984)">
        <path
           d="m 315.27089,202.00994 v 8 h 11.3164 c -0.53812,1.522 -1.3769,2.90032 -2.4414,4.07032 l 5.92578,5.3828 c 3.23036,-3.5522 5.19922,-8.2735 5.19922,-13.45312 0,-1.36986 -0.14,-2.70756 -0.40234,-4 z"
           style="fill:#2684fc;fill-opacity:1;stroke-width:1"
           id="path5237" />
        <path
           d="m 305.51307,212.97868 -6.51562,4.65234 c 3.62768,5.07102 9.563,8.37892 16.27344,8.37892 5.86614,0 11.13476,-2.53144 14.79296,-6.55468 l -5.92186,-5.38282 c -2.19468,2.4136 -5.35194,3.9375 -8.8711,3.9375 -4.02622,0 -7.57828,-1.98824 -9.7539,-5.03126 z"
           style="fill:#00ac47;fill-opacity:1;stroke-width:2"
           id="path5331" />
        <path
           d="m 298.99745,194.38883 c -2.3439,3.27605 -3.72656,7.28575 -3.72656,11.62111 0,4.33534 1.38266,8.34506 3.72656,11.6211 l 6.51562,-4.65236 c -1.40604,-1.9655 -2.24218,-4.3678 -2.24218,-6.96874 0,-2.60094 0.83614,-5.00326 2.24218,-6.96876 z"
           style="fill:#ffba00;fill-opacity:1;stroke-width:2"
           id="path5303" />
        <path
           d="m 315.27089,186.00994 c -6.7103,0 -12.64554,3.30822 -16.27344,8.37891 l 6.51172,4.64843 c 2.17676,-3.04224 5.73566,-5.02734 9.76172,-5.02734 3.3137,0 6.3128,1.34407 8.48438,3.51562 l 5.65624,-5.65625 c -3.61928,-3.61928 -8.61778,-5.85937 -14.14062,-5.85937 z"
           style="fill:#ea4335;fill-opacity:1;stroke-width:2"
           id="path5275" />
      </g>
    </g>
  </g>
  <g
     id="Highlights">
    <path
       id="rect653"
       style="opacity:0.2;fill:#ffffff"
       d="M 80,44 C 53.408027,44 32,65.408027 32,92 v 2 C 32,67.408027 53.408027,46 80,46 h 128 c 26.59197,0 48,21.408027 48,48 V 92 C 256,65.408027 234.59197,44 208,44 Z"
       sodipodi:nodetypes="sscsscsss" />
    <path
       id="rect773"
       style="opacity:0.2;fill:#ffffff"
       d="m 312,34 c -9.97199,0 -18,8.02801 -18,18 v 1 c 0,-9.97199 8.02801,-18 18,-18 h 48 c 9.97199,0 18,8.02801 18,18 v -1 c 0,-9.97199 -8.02801,-18 -18,-18 z" />
    <path
       id="rect1135"
       style="opacity:0.2;fill:#ffffff;fill-opacity:1"
       d="m 304,144 c -6.64799,0 -12,5.35201 -12,12 v 1 c 0,-6.64799 5.35201,-12 12,-12 h 32 c 6.64799,0 12,5.35201 12,12 v -1 c 0,-6.64799 -5.35201,-12 -12,-12 z" />
    <path
       id="rect1265"
       style="opacity:0.2;fill:#ffffff;fill-opacity:1"
       d="m 300,223 c -4.986,0 -9,4.014 -9,9 v 1 c 0,-4.986 4.014,-9 9,-9 h 24 c 4.986,0 9,4.014 9,9 v -1 c 0,-4.986 -4.014,-9 -9,-9 z" />
    <path
       id="rect1368"
       style="opacity:0.2;fill:#ffffff;fill-opacity:1"
       d="m 424,54 c -3.324,0 -6,2.676003 -6,6 v 1 c 0,-3.323997 2.676,-6 6,-6 h 16 c 3.324,0 6,2.676003 6,6 v -1 c 0,-3.323997 -2.676,-6 -6,-6 z" />
    <path
       id="rect1402"
       style="opacity:0.2;fill:#ffffff;fill-opacity:1"
       d="m 420,140 c -2.216,0 -4,1.784 -4,4 v 1 c 0,-2.216 1.784,-4 4,-4 h 8 c 2.216,0 4,1.784 4,4 v -1 c 0,-2.216 -1.784,-4 -4,-4 z" />
    <path
       id="rect1436"
       style="opacity:0.2;fill:#ffffff;fill-opacity:1"
       d="m 422,102 c -2.216,0 -4,1.784 -4,4 v 1 c 0,-2.216 1.784,-4 4,-4 h 12 c 2.216,0 4,1.784 4,4 v -1 c 0,-2.216 -1.784,-4 -4,-4 z" />
  </g>
</svg>
