<?xml version="1.0" encoding="UTF-8" standalone="no"?>
<!-- Created with Inkscape (http://www.inkscape.org/) -->

<svg
   width="480"
   height="300"
   viewBox="0 0 480 300"
   version="1.1"
   id="svg5"
   inkscape:version="1.2.2 (1:1.2.2+202305151914+b0a8486541)"
   sodipodi:docname="web-amazon.svg"
   xmlns:inkscape="http://www.inkscape.org/namespaces/inkscape"
   xmlns:sodipodi="http://sodipodi.sourceforge.net/DTD/sodipodi-0.dtd"
   xmlns="http://www.w3.org/2000/svg"
   xmlns:svg="http://www.w3.org/2000/svg">
  <sodipodi:namedview
     id="namedview7"
     pagecolor="#888888"
     bordercolor="#000000"
     borderopacity="0.25"
     inkscape:showpageshadow="true"
     inkscape:pageopacity="0"
     inkscape:pagecheckerboard="0"
     inkscape:deskcolor="#888888"
     inkscape:document-units="px"
     showgrid="false"
     showborder="false"
     inkscape:zoom="2.6866667"
     inkscape:cx="240.07444"
     inkscape:cy="150"
     inkscape:window-width="1920"
     inkscape:window-height="1008"
     inkscape:window-x="0"
     inkscape:window-y="0"
     inkscape:window-maximized="1"
     inkscape:current-layer="svg5" />
  <defs
     id="defs2" />
  <g
     id="Baseplate"
     style="display:none">
    <text
       y="19.774782"
       xml:space="preserve"
       x="15.006946"
       style="font-style:normal;font-variant:normal;font-weight:normal;font-stretch:normal;line-height:0%;font-family:'DejaVu Sans';-inkscape-font-specification:'DejaVu Sans';display:inline;fill:#000000;fill-opacity:1;stroke:none;enable-background:new"
       inkscape:label="context"
       id="context"><tspan
         style="font-style:normal;font-variant:normal;font-weight:normal;font-stretch:normal;font-size:18px;line-height:1.25;font-family:'DejaVu Sans';-inkscape-font-specification:'DejaVu Sans'"
         y="19.774782"
         x="15.006946"
         sodipodi:role="line"
         id="tspan3933">apps</tspan></text>
    <text
       y="19.774782"
       xml:space="preserve"
       x="122.48839"
       style="font-style:normal;font-variant:normal;font-weight:bold;font-stretch:normal;line-height:0%;font-family:'DejaVu Sans';-inkscape-font-specification:'DejaVu Sans Bold';text-align:start;writing-mode:lr-tb;text-anchor:start;display:inline;fill:#000000;fill-opacity:1;stroke:none;enable-background:new"
       inkscape:label="icon-name"
       id="icon-name"><tspan
         style="font-style:normal;font-variant:normal;font-weight:bold;font-stretch:normal;font-size:18px;line-height:1.25;font-family:'DejaVu Sans';-inkscape-font-specification:'DejaVu Sans Bold'"
         y="19.774782"
         x="122.48839"
         sodipodi:role="line"
         id="tspan3937">web-amazon</tspan></text>
    <rect
       style="fill:#ffffff"
       id="256x256"
       width="256"
       height="256"
       x="16"
       y="28" />
    <rect
       style="fill:#ffffff"
       id="96x96"
       width="96"
       height="96"
       x="288"
       y="28" />
    <rect
       style="fill:#ffffff"
       id="64x64"
       width="64"
       height="64"
       x="288"
       y="140" />
    <rect
       style="fill:#ffffff"
       id="48x48"
       width="48"
       height="48"
       x="288"
       y="220" />
    <rect
       style="fill:#ffffff"
       id="32x32"
       width="32"
       height="32"
       x="416"
       y="52" />
    <rect
       style="fill:#ffffff"
       id="24x24"
       width="24"
       height="24"
       x="416"
       y="100" />
    <rect
       style="fill:#ffffff"
       id="22x22"
       width="22"
       height="22"
       x="417"
       y="101" />
    <rect
       style="fill:#ffffff"
       id="16x16"
       width="16"
       height="16"
       x="416"
       y="140" />
  </g>
  <g
     id="Shadow">
    <rect
       style="opacity:0.2;fill:#000000"
       id="rect651"
       width="224"
       height="224"
       x="32"
       y="46"
       ry="48" />
    <rect
       style="opacity:0.2;fill:#000000"
       id="rect769"
       width="84"
       height="85"
       x="294"
       y="34"
       ry="18" />
    <rect
       style="opacity:0.2;fill:#000000;fill-opacity:1"
       id="rect1131"
       width="56"
       height="56"
       x="292"
       y="145"
       ry="12" />
    <rect
       style="opacity:0.2;fill:#000000;fill-opacity:1"
       id="rect1261"
       width="42"
       height="42"
       x="291"
       y="224"
       ry="9" />
    <rect
       style="opacity:0.2;fill:#000000;fill-opacity:1"
       id="rect1364"
       width="28"
       height="29"
       x="418"
       y="54"
       ry="6" />
    <rect
       style="opacity:0.2;fill:#000000;fill-opacity:1"
       id="rect1398"
       width="16"
       height="16"
       x="416"
       y="141"
       ry="4" />
    <rect
       style="opacity:0.2;fill:#000000;fill-opacity:1"
       id="rect1432"
       width="20"
       height="20"
       x="418"
       y="103"
       ry="4" />
  </g>
  <g
     id="Background">
    <rect
       style="fill:#e0e0e0;fill-opacity:1"
       id="rect597"
       width="224"
       height="224"
       x="32"
       y="44"
       ry="48" />
    <rect
       style="opacity:1;fill:#e0e0e0;fill-opacity:1"
       id="rect771"
       width="84"
       height="84"
       x="294"
       y="34"
       ry="18" />
    <rect
       style="opacity:1;fill:#e0e0e0;fill-opacity:1"
       id="rect1133"
       width="56"
       height="56"
       x="292"
       y="144"
       ry="12" />
    <rect
       style="opacity:1;fill:#e0e0e0;fill-opacity:1"
       id="rect1263"
       width="42"
       height="42"
       x="291"
       y="223"
       ry="9" />
    <rect
       style="opacity:1;fill:#e0e0e0;fill-opacity:1"
       id="rect1366"
       width="28"
       height="28"
       x="418"
       y="54"
       ry="6" />
    <rect
       style="opacity:1;fill:#e0e0e0;fill-opacity:1"
       id="rect1400"
       width="16"
       height="16"
       x="416"
       y="140"
       ry="4" />
    <rect
       style="opacity:1;fill:#e0e0e0;fill-opacity:1"
       id="rect1434"
       width="20"
       height="20"
       x="418"
       y="102"
       ry="4" />
  </g>
  <g
     id="g956">
    <g
       id="g1242">
      <path
         d="m 424.0157,144.296 c -1.1086,0 -2.34798,0.41366 -2.60938,1.78516 -0.0257,0.1464 0.0788,0.22344 0.17383,0.24414 l 1.13281,0.12109 c 0.105,-0.005 0.18187,-0.10789 0.20117,-0.21289 0.0971,-0.4729 0.49516,-0.69922 0.93946,-0.69922 0.2393,0 0.51209,0.0877 0.65429,0.30274 0.1628,0.23929 0.14063,0.5686 0.14063,0.8457 v 0.15039 c -0.6757,0.0772 -1.55976,0.1257 -2.19336,0.4043 -0.73,0.315 -1.24414,0.95985 -1.24414,1.90625 0,1.21219 0.76539,1.81836 1.74609,1.81836 0.8301,-1e-5 1.28383,-0.19406 1.92383,-0.84766 0.2129,0.3065 0.28087,0.45634 0.66797,0.77734 0.0868,0.0458 0.19824,0.0417 0.27539,-0.0273 h 0.002 l 0.002,0.002 c 0.23289,-0.207 0.65753,-0.57484 0.89453,-0.77344 0.095,-0.0793 0.0779,-0.20554 0.002,-0.31054 -0.213,-0.2957 -0.43945,-0.53553 -0.43945,-1.08203 v -1.81836 c 0,-0.7693 0.0539,-1.47586 -0.51368,-2.00586 -0.4479,-0.4295 -1.18796,-0.58008 -1.75585,-0.58008 z m 0.63281,3.47266 v 0.25195 c 0,0.4543 0.0125,0.83273 -0.2168,1.23633 -0.1857,0.3279 -0.48079,0.53125 -0.80859,0.53125 -0.4479,0 -0.70899,-0.34211 -0.70899,-0.84571 0,-0.9943 0.89078,-1.17382 1.73438,-1.17382 z m 3.61719,3.60937 c -0.35,0.005 -0.76318,0.0822 -1.07618,0.30273 -0.096,0.068 -0.0797,0.16144 0.0273,0.14844 0.353,-0.042 1.13834,-0.13603 1.27734,0.043 0.141,0.179 -0.15411,0.91805 -0.28711,1.24805 -0.04,0.1 0.0457,0.13945 0.13672,0.0644 0.588,-0.491 0.73914,-1.52092 0.61914,-1.66992 -0.06,-0.074 -0.34727,-0.14162 -0.69726,-0.13672 z m -9.19336,0.19727 c -0.073,0.01 -0.10425,0.098 -0.0274,0.16796 1.3051,1.179 3.02912,1.88672 4.94531,1.88672 1.3668,0 2.95383,-0.42933 4.04883,-1.23632 0.181,-0.135 0.0268,-0.33486 -0.1582,-0.25586 -1.227,0.521 -2.56199,0.77148 -3.77539,0.77148 -1.7992,0 -3.54062,-0.4935 -4.94922,-1.3125 -0.0307,-0.018 -0.0597,-0.0245 -0.084,-0.0215 z"
         style="fill:#000000;fill-rule:evenodd;opacity:0.2"
         id="path1219" />
      <path
         d="m 424.64851,147.5218 c 0,0.4543 0.0114,0.8336 -0.2179,1.2372 -0.1857,0.3279 -0.4793,0.53 -0.8071,0.53 -0.4479,0 -0.7093,-0.3414 -0.7093,-0.845 0,-0.9943 0.8907,-1.175 1.7343,-1.175 v 0.2528 m 1.1765,2.8432 c -0.0772,0.07 -0.1886,0.074 -0.2758,0.028 -0.3871,-0.321 -0.4564,-0.4711 -0.6693,-0.7776 -0.64,0.6536 -1.0928,0.8486 -1.9229,0.8486 -0.9807,0 -1.7457,-0.6064 -1.7457,-1.8186 0,-0.9464 0.5136,-1.5914 1.2436,-1.9064 0.6336,-0.2786 1.5179,-0.3279 2.1936,-0.4051 v -0.1507 c 0,-0.2771 0.0214,-0.6057 -0.1414,-0.845 -0.1422,-0.215 -0.415,-0.3036 -0.6543,-0.3036 -0.4443,0 -0.8415,0.2279 -0.9386,0.7008 -0.0193,0.105 -0.0964,0.2078 -0.2014,0.2128 l -1.1322,-0.1221 c -0.095,-0.0207 -0.2,-0.0979 -0.1743,-0.2443 0.2614,-1.3715 1.5,-1.7848 2.6086,-1.7848 0.5679,0 1.3093,0.151 1.7572,0.5805 0.5676,0.53 0.5136,1.2371 0.5136,2.0064 v 1.8179 c 0,0.5465 0.226,0.7858 0.439,1.0815 0.076,0.105 0.092,0.2307 -0.003,0.31 -0.237,0.1986 -0.661,0.5677 -0.8939,0.7747 l -0.003,-0.003"
         style="fill:#4d4d4d;fill-rule:evenodd;fill-opacity:1"
         id="path1095" />
      <path
         d="m 428.26571,150.8789 c -0.35,0.005 -0.764,0.0826 -1.077,0.3031 -0.096,0.068 -0.079,0.161 0.028,0.148 0.353,-0.042 1.138,-0.136 1.277,0.043 0.141,0.179 -0.154,0.918 -0.287,1.248 -0.04,0.1 0.046,0.14 0.137,0.065 0.588,-0.491 0.739,-1.521 0.619,-1.67 -0.06,-0.074 -0.347,-0.142 -0.697,-0.1371 z m -9.1937,0.1971 c -0.073,0.01 -0.1043,0.098 -0.0274,0.168 1.3051,1.179 3.0291,1.887 4.9453,1.887 1.3668,0 2.9538,-0.429 4.0488,-1.236 0.181,-0.135 0.027,-0.335 -0.158,-0.256 -1.227,0.521 -2.5621,0.771 -3.7755,0.771 -1.7992,0 -3.5407,-0.493 -4.9493,-1.312 -0.0307,-0.018 -0.0596,-0.025 -0.0839,-0.022 z"
         style="fill:#ff9900"
         id="path1123" />
    </g>
    <g
       id="g1795">
      <path
         id="path1387"
         style="opacity:0.2;fill:#000000;fill-rule:evenodd"
         d="m 428.02394,105.5 c -1.59,0 -3.36904,0.62088 -3.74414,2.67578 -0.037,0.2186 0.1135,0.33419 0.25,0.36719 l 1.625,0.18164 c 0.152,-0.008 0.26101,-0.16231 0.29101,-0.32031 0.139,-0.7092 0.70671,-1.05078 1.34571,-1.05078 0.34399,0 0.73345,0.13257 0.93945,0.45507 0.232,0.3596 0.20117,0.85148 0.20117,1.26758 v 0.22656 c -0.971,0.1155 -2.24144,0.18933 -3.14844,0.60743 -1.0467,0.4734 -1.7832,1.44328 -1.7832,2.86328 0,1.819 1.09776,2.72656 2.50586,2.72656 1.192,0 1.84177,-0.29244 2.75976,-1.27344 0.306,0.461 0.40594,0.68597 0.96094,1.16797 0.12421,0.0686 0.28168,0.0611 0.39063,-0.041 l 0.006,0.006 c 0.334,-0.31 0.9412,-0.86111 1.2832,-1.16211 0.135,-0.118 0.11191,-0.30884 0.004,-0.46484 -0.307,-0.444 -0.63086,-0.80205 -0.63086,-1.62305 v -2.72661 c 0,-1.1548 0.0787,-2.21652 -0.73633,-3.01172 -0.64103,-0.6446 -1.70556,-0.87109 -2.51956,-0.87109 z m 0.91015,5.20508 v 0.38086 l -0.002,-0.002 c 0,0.684 0.0185,1.25242 -0.3125,1.85742 -0.265,0.492 -0.6872,0.79492 -1.1582,0.79492 -0.642,0 -1.01562,-0.50962 -1.01563,-1.26562 0,-1.493 1.27829,-1.76563 2.48829,-1.76563 z m 4.11328,5.79297 c -0.455,0.007 -0.99339,0.11325 -1.40039,0.40625 -0.127,0.09 -0.10484,0.21426 0.0352,0.19726 0.458,-0.057 1.48011,-0.18331 1.66211,0.0547 0.183,0.238 -0.20304,1.22407 -0.37304,1.66406 -0.053,0.132 0.0568,0.18599 0.17382,0.084 0.766,-0.65399 0.96069,-2.0237 0.80469,-2.2207 -0.077,-0.099 -0.44834,-0.19155 -0.90234,-0.18555 z m -11.95312,0.26367 c -0.0945,0.013 -0.13661,0.13065 -0.0371,0.22265 1.697,1.571 3.93969,2.51563 6.42969,2.51563 1.777,0 3.83772,-0.57444 5.26172,-1.64844 l 0.002,-0.002 c 0.237,-0.18 0.035,-0.44579 -0.20703,-0.34179 -1.594,0.69499 -3.33026,1.02929 -4.90625,1.02929 -2.338,0 -4.6036,-0.65605 -6.4336,-1.74804 -0.04,-0.024 -0.0774,-0.0313 -0.10937,-0.0273 z" />
      <path
         d="m 428.9335,110.585 c 0,0.684 0.018,1.253 -0.313,1.858 -0.265,0.492 -0.687,0.795 -1.158,0.795 -0.642,0 -1.016,-0.511 -1.016,-1.267 0,-1.493 1.278,-1.764 2.488,-1.764 v 0.379 m 1.687,4.266 c -0.109,0.104 -0.269,0.112 -0.394,0.043 -0.555,-0.482 -0.655,-0.707 -0.961,-1.168 -0.918,0.981 -1.567,1.274 -2.759,1.274 -1.4081,0 -2.5054,-0.908 -2.5054,-2.727 0,-1.42 0.7367,-2.3893 1.7834,-2.8624 0.907,-0.4181 2.177,-0.4922 3.148,-0.6077 v -0.2266 c 0,-0.4161 0.031,-0.9082 -0.201,-1.2678 -0.206,-0.3225 -0.596,-0.4551 -0.94,-0.4551 -0.639,0 -1.207,0.3421 -1.346,1.0513 -0.03,0.158 -0.139,0.3126 -0.291,0.3206 l -1.6238,-0.1816 c -0.1365,-0.033 -0.287,-0.1485 -0.25,-0.3671 0.3751,-2.0549 2.1528,-2.6766 3.7428,-2.6766 0.814,0 1.879,0.2266 2.52,0.8712 0.815,0.7952 0.737,1.8559 0.737,3.0107 v 2.7271 c 0,0.821 0.324,1.18 0.631,1.624 0.108,0.156 0.131,0.347 -0.004,0.465 -0.342,0.301 -0.949,0.852 -1.283,1.162 l -0.006,-0.006"
         style="fill:#4d4d4d;fill-rule:evenodd;fill-opacity:1"
         id="path1526" />
      <path
         d="m 433.0465,115.999 c -0.455,0.007 -0.992,0.112 -1.399,0.405 -0.127,0.09 -0.105,0.214 0.035,0.197 0.458,-0.057 1.479,-0.182 1.661,0.056 0.183,0.238 -0.203,1.223 -0.373,1.663 -0.053,0.132 0.058,0.187 0.175,0.085 0.766,-0.654 0.961,-2.025 0.805,-2.222 -0.077,-0.099 -0.45,-0.19 -0.904,-0.184 z m -11.952,0.263 c -0.0945,0.013 -0.1365,0.131 -0.037,0.223 1.697,1.571 3.94,2.515 6.43,2.515 1.777,0 3.838,-0.575 5.262,-1.649 l 10e-4,-0.002 c 0.237,-0.18 0.035,-0.445 -0.207,-0.341 -1.594,0.695 -3.33,1.029 -4.906,1.029 -2.338,0 -4.6035,-0.656 -6.4335,-1.748 -0.04,-0.024 -0.0775,-0.031 -0.1095,-0.027 z"
         style="fill:#ff9900"
         id="path1554" />
    </g>
    <g
       id="g2069">
      <path
         id="path1620"
         style="opacity:0.2;fill:#000000;fill-rule:evenodd"
         d="m 432.02565,60.003906 c -1.956,0 -4.14347,0.764972 -4.60547,3.292969 -0.045,0.269 0.1406,0.410172 0.3086,0.451172 l 1.99804,0.222656 c 0.187,-0.01 0.32142,-0.200531 0.35742,-0.394531 0.17,-0.872999 0.87025,-1.292969 1.65625,-1.292969 0.423,0 0.90425,0.163547 1.15625,0.560547 0.286,0.443 0.24805,1.046594 0.24805,1.558594 v 0.279297 c -1.195,0.141999 -2.75705,0.233047 -3.87305,0.748047 -1.28799,0.581999 -2.19531,1.773486 -2.19531,3.521484 0,2.237998 1.35099,3.355469 3.08399,3.355469 1.46599,0 2.26453,-0.359408 3.39453,-1.566407 0.377,0.567 0.49864,0.844501 1.18164,1.4375 0.15244,0.08414 0.34852,0.07455 0.48242,-0.04883 l 0.008,0.0059 c 0.411,-0.382 1.15908,-1.059688 1.58008,-1.429688 0.166,-0.145 0.13591,-0.379266 0.004,-0.572266 -0.378,-0.544999 -0.77735,-0.988046 -0.77735,-1.998046 v -3.355469 c 0,-1.420999 0.0977,-2.727079 -0.90429,-3.705078 -0.78898,-0.793338 -2.1005,-1.070351 -3.1035,-1.070351 z m 1.12109,6.404297 V 66.875 l -0.002,-0.002 c 0,0.840999 0.0222,1.54211 -0.38476,2.287109 -0.326,0.606 -0.84483,0.978516 -1.42383,0.978516 -0.791,0 -1.25,-0.630548 -1.25,-1.560547 0,-1.836997 2.09615,-3.303093 3.06055,-2.169922 z m 5.67969,6.896118 c -0.55975,-0.01866 -1.2207,0.137046 -1.7207,0.498046 -0.157,0.11 -0.13003,0.264188 0.043,0.242188 0.563,-0.07 1.81997,-0.22464 2.04297,0.06836 0.226,0.293 -0.24999,1.505876 -0.45899,2.046875 -0.064,0.162999 0.0728,0.229468 0.2168,0.105469 0.942,-0.804999 1.18323,-2.493329 0.99023,-2.736328 -0.095,-0.122 -0.55353,-0.205951 -1.11328,-0.22461 z m -14.70898,0.324218 c -0.0461,0.108356 -0.16762,0.159437 -0.0449,0.273438 2.08769,1.933998 4.84711,3.095703 7.9121,3.095703 2.187,0 4.72552,-0.707298 6.47852,-2.029297 v -0.002 c 0.291,-0.221999 0.0421,-0.546921 -0.25586,-0.419922 -1.962,0.855999 -4.09811,1.265625 -6.03711,1.265625 -2.878,0 -5.66527,-0.808345 -7.91797,-2.152344 -0.0492,-0.029 -0.11942,-0.0673 -0.13476,-0.03125 z"
         sodipodi:nodetypes="sccccscsccssccccccsscssccccssscsccccccssscscccscss" />
      <path
         style="fill:#4d4d4d;fill-rule:evenodd;fill-opacity:1"
         d="m 433.14526,65.874 c 0,0.841 0.022,1.541 -0.385,2.286 -0.326,0.606 -0.846,0.979 -1.425,0.979 -0.791,0 -1.25,-0.63 -1.25,-1.56 0,-1.837 1.573,-2.171 3.061,-2.171 v 0.467 m 2.076,5.25 c -0.134,0.127 -0.331,0.137 -0.485,0.052 -0.683,-0.593 -0.806,-0.87 -1.183,-1.437 -1.13,1.207 -1.928,1.567 -3.394,1.567 -1.733,0 -3.083,-1.117 -3.083,-3.355 0,-1.748 0.906,-2.94 2.194,-3.522 1.116,-0.515 2.678,-0.606 3.873,-0.748 v -0.279 c 0,-0.512 0.038,-1.117 -0.248,-1.56 -0.252,-0.397 -0.733,-0.56 -1.156,-0.56 -0.786,0 -1.486,0.421 -1.656,1.294 -0.036,0.194 -0.171,0.384 -0.358,0.394 l -1.998,-0.223 c -0.168,-0.041 -0.353,-0.183 -0.308,-0.452 0.462,-2.528 2.65,-3.293 4.606,-3.293 1.003,0 2.313,0.2787 3.102,1.072 1.002,0.978 0.906,2.283 0.906,3.704 v 3.356 c 0,1.01 0.399,1.452 0.777,1.997 0.132,0.193 0.161,0.428 -0.005,0.573 -0.421,0.37 -1.168,1.048 -1.579,1.43 l -0.008,-0.007"
         id="path1622" />
      <path
         style="fill:#ff9900"
         d="m 438.82626,72.304 c -0.56,0.008 -1.221,0.137 -1.721,0.498 -0.157,0.11 -0.13,0.264 0.043,0.242001 0.563,-0.07 1.82,-0.223 2.043,0.07 0.226,0.293001 -0.25,1.505 -0.459,2.046001 -0.064,0.162999 0.073,0.23 0.217,0.105999 0.942,-0.805 1.183,-2.492999 0.99,-2.736 -0.095,-0.122 -0.553,-0.234 -1.113,-0.226001 z m -14.709,0.325 c -0.1168,0.015 -0.1684,0.16 -0.0457,0.274 2.0877,1.934 4.8487,3.095 7.9137,3.095 2.187,0 4.724,-0.706999 6.477,-2.029 l 10e-4,-0.002 c 0.291,-0.222 0.043,-0.548 -0.255,-0.421001 -1.962,0.856 -4.099,1.267 -6.038,1.267 -2.878,0 -5.666,-0.808 -7.9187,-2.152 -0.0492,-0.029 -0.0957,-0.037 -0.1346,-0.032 z"
         id="path1626" />
    </g>
    <g
       id="g2095">
      <path
         id="path1970"
         style="opacity:0.2;fill:#000000;fill-rule:evenodd"
         d="m 312.04333,232.00977 c -3.179,0 -6.73438,1.24256 -7.48438,5.35156 -0.074,0.437 0.227,0.66837 0.5,0.73437 l 3.2461,0.36133 c 0.305,-0.016 0.52303,-0.32462 0.58203,-0.64062 0.277,-1.418 1.41441,-2.10157 2.6914,-2.10157 0.688,0 1.46891,0.26516 1.87891,0.91016 0.465,0.719 0.40234,1.70316 0.40234,2.53516 v 0.45312 c -1.94099,0.231 -4.47997,0.37885 -6.29296,1.21485 -2.093,0.94599 -3.56641,2.88265 -3.56641,5.72265 0,3.637 2.19377,5.45313 5.00977,5.45313 2.38299,0 3.67962,-0.58588 5.51562,-2.54688 0.613,0.922 0.81288,1.37094 1.92188,2.33594 0.24999,0.137 0.57006,0.12106 0.78906,-0.0859 l -0.004,0.006 0.0117,0.0117 c 0.668,-0.621 1.8824,-1.72222 2.5664,-2.32422 0.27,-0.235 0.22282,-0.61669 0.008,-0.92969 -0.614,-0.887 -1.26171,-1.60509 -1.26171,-3.24609 v -5.45313 c 0,-2.30899 0.15438,-4.42953 -1.47461,-6.01953 -1.282,-1.289 -3.41007,-1.74218 -5.03907,-1.74218 z m 1.81836,10.4082 v 0.75781 c 0,1.367 0.035,2.50385 -0.625,3.71485 -0.531,0.98399 -1.37541,1.58984 -2.31641,1.58984 -1.285,0 -2.03125,-1.02316 -2.03125,-2.53516 0,-2.98399 2.55466,-3.52734 4.97266,-3.52734 z m 9.23047,9.58008 c -0.91,0.013 -1.98488,0.22259 -2.79688,0.80859 -0.254,0.18 -0.21069,0.42953 0.0703,0.39453 0.914,-0.114 2.95731,-0.36372 3.32031,0.11328 0.367,0.476 -0.40609,2.44522 -0.74609,3.32422 -0.105,0.266 0.11756,0.37488 0.35156,0.17188 1.531,-1.308 1.92238,-4.05032 1.60938,-4.44532 -0.154,-0.19699 -0.8996,-0.38018 -1.8086,-0.36718 z m -23.90235,0.52734 c -0.189,0.026 -0.27322,0.26031 -0.0742,0.44531 3.394,3.143 7.87938,5.0293 12.85938,5.0293 3.554,0 7.67739,-1.14888 10.52539,-3.29687 l 0.002,-0.004 c 0.473,-0.36001 0.0699,-0.8906 -0.41406,-0.6836 -3.188,1.391 -6.66051,2.05861 -9.8125,2.05861 -4.676,0 -9.20719,-1.31211 -12.86719,-3.49611 -0.08,-0.048 -0.15475,-0.0607 -0.21875,-0.0527 z"
         sodipodi:nodetypes="cccccscsccsscccccccssccccscsscsccccccssscscccscss" />
      <path
         d="m 313.86136,242.175 c 0,1.367 0.035,2.504 -0.625,3.715 -0.531,0.984 -1.375,1.59 -2.316,1.59 -1.285,0 -2.031,-1.023 -2.031,-2.535 0,-2.984 2.555,-3.527 4.973,-3.527 v 0.75801 m 3.375,8.531 c -0.219,0.207 -0.539,0.223 -0.789,0.086 -1.109,-0.965 -1.309,-1.414 -1.922,-2.336 -1.836,1.961 -3.133,2.547 -5.516,2.547 -2.816,0 -5.01,-1.816 -5.01,-5.453 0,-2.84001 1.473,-4.777 3.566,-5.72301 1.813,-0.836 4.352,-0.984 6.293,-1.215 v -0.453 c 0,-0.832 0.063,-1.816 -0.402,-2.535 -0.41,-0.645 -1.191,-0.91 -1.879,-0.91 -1.277,0 -2.414,0.684 -2.691,2.102 -0.059,0.316 -0.277,0.625 -0.582,0.641 l -3.246,-0.363 c -0.273,-0.066 -0.574,-0.297 -0.5,-0.734 0.75,-4.109 4.305,-5.352 7.484,-5.352 1.629,0 3.758,0.453 5.04,1.742 1.629,1.59 1.473,3.711 1.473,6.02 v 5.453 c 0,1.641 0.648,2.359 1.262,3.246 0.215,0.313 0.262,0.695 -0.008,0.93 -0.684,0.602 -1.898,1.703 -2.566,2.32401 l -0.012,-0.012"
         style="fill:#4d4d4d;fill-rule:evenodd;fill-opacity:1"
         id="path1942"
         sodipodi:nodetypes="ccsscccccssccscsccccscsscccc" />
      <path
         d="m 323.09236,250.998 c -0.91,0.013 -1.985,0.223 -2.797,0.809 -0.254,0.18 -0.211,0.429 0.07,0.394 0.914,-0.114 2.958,-0.364 3.321,0.113 0.367,0.476 -0.407,2.446 -0.747,3.325 -0.105,0.266 0.118,0.375 0.352,0.172 1.531,-1.308 1.922,-4.051 1.609,-4.446 -0.154,-0.197 -0.899,-0.38 -1.808,-0.367 z m -23.903,0.527 c -0.189,0.026 -0.273,0.261 -0.074,0.446 3.394,3.143 7.88,5.029 12.86,5.029 3.554,0 7.677,-1.149 10.525,-3.297 l 0.002,-0.004 c 0.473,-0.36 0.07,-0.89 -0.414,-0.683 -3.188,1.391 -6.661,2.058 -9.813,2.058 -4.676,0 -9.207,-1.312 -12.867,-3.496 -0.08,-0.048 -0.155,-0.061 -0.219,-0.053 z"
         style="fill:#ff9900"
         id="path1998"
         sodipodi:nodetypes="sccccccsccscccscc" />
    </g>
    <g
       id="g808">
      <path
         id="path496"
         style="opacity:0.2;fill:#000000;fill-rule:evenodd"
         d="m 320.05222,157.00633 c -3.91299,0 -8.28793,1.52895 -9.21093,6.58594 -0.091,0.53799 0.27923,0.82329 0.61523,0.90429 l 3.99414,0.44727 c 0.376,-0.02 0.6438,-0.40007 0.7168,-0.78906 0.34,-1.745 1.7405,-2.58789 3.3125,-2.58789 0.846,0 1.8075,0.32709 2.3125,1.12109 0.572,0.885 0.49414,2.09514 0.49414,3.11914 v 0.55664 c -2.38899,0.285 -5.51314,0.4671 -7.74414,1.49609 -2.576,1.164 -4.38867,3.54893 -4.38867,7.04493 0,4.47599 2.70002,6.71093 6.16601,6.71093 2.933,0 4.52907,-0.72077 6.78907,-3.13476 0.754,1.135 0.99828,1.688 2.36328,2.875 0.30569,0.16773 0.69796,0.14804 0.96679,-0.10156 l 0.0137,0.0156 c 0.822,-0.76399 2.31621,-2.11837 3.15821,-2.85937 0.332,-0.289 0.27473,-0.75853 0.01,-1.14453 -0.75603,-1.091 -1.55277,-1.9761 -1.55277,-3.9961 v -6.71094 c 0,-2.84199 0.1925,-5.4512 -1.8125,-7.4082 -1.578,-1.587 -4.19813,-2.14453 -6.20313,-2.14453 z m 2.23829,12.81055 v 0.93359 l -0.002,-0.002 c 0,1.683 0.0435,3.08127 -0.76953,4.57226 -0.653,1.211 -1.69161,1.95704 -2.84961,1.95704 -1.582,0 -2.5,-1.25815 -2.5,-3.11915 0,-3.67299 3.14509,-4.34179 6.12109,-4.34179 z m 11.36132,11.79296 c -1.11899,0.017 -2.44336,0.27314 -3.44336,0.99414 -0.313,0.222 -0.2581,0.52933 0.0879,0.48633 1.125,-0.14 3.63894,-0.44833 4.08594,0.13867 0.452,0.586 -0.49997,3.0098 -0.91797,4.0918 -0.129,0.327 0.1456,0.46094 0.4336,0.21094 1.88399,-1.609 2.36451,-4.98471 1.97851,-5.4707 -0.189,-0.243 -1.10461,-0.46718 -2.22461,-0.45118 z m -29.35742,0.64649 c -0.0211,-0.001 -0.041,-5.5e-4 -0.0605,0.002 -0.234,0.032 -0.33679,0.32183 -0.0918,0.54883 4.17599,3.86999 9.69719,6.18945 15.82618,6.18945 4.37399,0 9.44908,-1.41265 12.95507,-4.05664 l 0.002,-0.004 c 0.582,-0.443 0.0862,-1.09875 -0.50976,-0.84375 -3.92299,1.71199 -8.19718,2.53515 -12.07617,2.53515 -5.75499,0 -11.3329,-1.61474 -15.83789,-4.30273 -0.0735,-0.0443 -0.14378,-0.0649 -0.20704,-0.0684 z"
         sodipodi:nodetypes="sccccscsccssccccccsscssccccssscsccccccsscccscccsccc" />
      <path
         d="m 322.28985,169.748 c 0,1.683 0.043,3.082 -0.77,4.573 -0.653,1.211 -1.692,1.957 -2.85,1.957 -1.582,0 -2.5,-1.259 -2.5,-3.12 0,-3.673 3.145,-4.341 6.121,-4.341 v 0.933 m 4.153,10.499 c -0.269,0.255 -0.663,0.275 -0.971,0.106 -1.365,-1.187 -1.611,-1.74 -2.365,-2.875 -2.26,2.414 -3.856,3.135 -6.789,3.135 -3.466,0 -6.166,-2.235 -6.166,-6.711 0,-3.496 1.813,-5.88 4.389,-7.044 2.231,-1.029 5.356,-1.211 7.745,-1.496 v -0.557 c 0,-1.024 0.077,-2.235 -0.495,-3.12 -0.505,-0.794 -1.466,-1.12 -2.312,-1.12 -1.572,0 -2.972,0.842 -3.312,2.587 -0.073,0.389 -0.341,0.769 -0.717,0.789 l -3.995,-0.447 c -0.336,-0.081 -0.706,-0.365 -0.615,-0.903 0.923,-5.057 5.298,-6.587 9.211,-6.587 2.005,0 4.625,0.557 6.203,2.144 2.005,1.957 1.813,4.567 1.813,7.409 v 6.711 c 0,2.02 0.797,2.904 1.553,3.995 0.265,0.386 0.322,0.856 -0.01,1.145 -0.842,0.741 -2.336,2.096 -3.158,2.86 l -0.015,-0.015"
         style="fill:#4d4d4d;fill-rule:evenodd;fill-opacity:1"
         id="path308"
         sodipodi:nodetypes="ccsscccccssccscsccccscsscccc" />
      <path
         d="m 333.65085,180.609 c -1.119,0.017 -2.442,0.274 -3.442,0.995 -0.313,0.222 -0.259,0.529 0.087,0.486 1.125,-0.14 3.639,-0.448 4.086,0.139 0.452,0.586 -0.5,3.01 -0.918,4.092 -0.129,0.327 0.145,0.461 0.433,0.211 1.884,-1.609 2.366,-4.985 1.98,-5.471 -0.189,-0.243 -1.106,-0.468 -2.226,-0.452 z m -29.417,0.649 c -0.234,0.032 -0.337,0.321 -0.092,0.548 4.176,3.87 9.698,6.191 15.827,6.191 4.374,0 9.448,-1.414 12.954,-4.058 l 0.002,-0.004 c 0.582,-0.443 0.086,-1.097 -0.51,-0.842 -3.923,1.712 -8.197,2.534 -12.076,2.534 -5.755,0 -11.332,-1.615 -15.837,-4.303 -0.098,-0.059 -0.191,-0.075 -0.269,-0.065 z"
         style="fill:#ff9900"
         id="path386"
         sodipodi:nodetypes="ccccccccccscccsccc" />
    </g>
    <g
       id="g2184"
       transform="matrix(2,0,0,2,-288,-412)">
      <path
         d="m 312.04261,231.509 c -3.179,0 -6.73438,1.24256 -7.48438,5.35156 -0.074,0.437 0.227,0.66837 0.5,0.73437 l 3.2461,0.36133 c 0.305,-0.016 0.52303,-0.32462 0.58203,-0.64062 0.277,-1.418 1.41441,-2.10157 2.6914,-2.10157 0.688,0 1.46891,0.26516 1.87891,0.91016 0.465,0.719 0.40234,1.70316 0.40234,2.53516 v 0.45312 c -1.94099,0.231 -4.47997,0.37885 -6.29296,1.21485 -2.093,0.94599 -3.56641,2.88265 -3.56641,5.72265 0,3.637 2.19377,5.45313 5.00977,5.45313 2.38299,0 3.67962,-0.58588 5.51562,-2.54688 0.613,0.922 0.81288,1.37094 1.92188,2.33594 0.24999,0.137 0.57006,0.12106 0.78906,-0.0859 l -0.004,0.006 0.0117,0.0117 c 0.668,-0.621 1.8824,-1.72222 2.5664,-2.32422 0.27,-0.235 0.22282,-0.61669 0.008,-0.92969 -0.614,-0.887 -1.26171,-1.60509 -1.26171,-3.24609 v -5.45313 c 0,-2.30899 0.15438,-4.42953 -1.47461,-6.01953 -1.282,-1.289 -3.41007,-1.74218 -5.03907,-1.74218 z m 1.81836,10.4082 v 0.75781 c 0,1.367 0.035,2.50385 -0.625,3.71485 -0.531,0.98399 -1.37541,1.58984 -2.31641,1.58984 -1.285,0 -2.03125,-1.02316 -2.03125,-2.53516 0,-2.98399 2.55466,-3.52734 4.97266,-3.52734 z m 9.23047,9.58008 c -0.91,0.013 -1.98488,0.22259 -2.79688,0.80859 -0.254,0.18 -0.21069,0.42953 0.0703,0.39453 0.914,-0.114 2.95731,-0.36372 3.32031,0.11328 0.367,0.476 -0.40609,2.44522 -0.74609,3.32422 -0.105,0.266 0.11756,0.37488 0.35156,0.17188 1.531,-1.308 1.92238,-4.05032 1.60938,-4.44532 -0.154,-0.19699 -0.8996,-0.38018 -1.8086,-0.36718 z m -23.90235,0.52734 c -0.189,0.026 -0.27322,0.26031 -0.0742,0.44531 3.394,3.143 7.87938,5.0293 12.85938,5.0293 3.554,0 7.67739,-1.14888 10.52539,-3.29687 l 0.002,-0.004 c 0.473,-0.36001 0.0699,-0.8906 -0.41406,-0.6836 -3.188,1.391 -6.66051,2.05861 -9.8125,2.05861 -4.676,0 -9.20719,-1.31211 -12.86719,-3.49611 -0.08,-0.048 -0.15475,-0.0607 -0.21875,-0.0527 z"
         style="opacity:0.2;fill:#000000;fill-rule:evenodd"
         id="path2161" />
      <path
         d="m 313.86136,242.175 c 0,1.367 0.035,2.504 -0.625,3.715 -0.531,0.984 -1.375,1.59 -2.316,1.59 -1.285,0 -2.031,-1.023 -2.031,-2.535 0,-2.984 2.555,-3.527 4.973,-3.527 v 0.75801 m 3.375,8.531 c -0.219,0.207 -0.539,0.223 -0.789,0.086 -1.109,-0.965 -1.309,-1.414 -1.922,-2.336 -1.836,1.961 -3.133,2.547 -5.516,2.547 -2.816,0 -5.01,-1.816 -5.01,-5.453 0,-2.84001 1.473,-4.777 3.566,-5.72301 1.813,-0.836 4.352,-0.984 6.293,-1.215 v -0.453 c 0,-0.832 0.063,-1.816 -0.402,-2.535 -0.41,-0.645 -1.191,-0.91 -1.879,-0.91 -1.277,0 -2.414,0.684 -2.691,2.102 -0.059,0.316 -0.277,0.625 -0.582,0.641 l -3.246,-0.363 c -0.273,-0.066 -0.574,-0.297 -0.5,-0.734 0.75,-4.109 4.305,-5.352 7.484,-5.352 1.629,0 3.758,0.453 5.04,1.742 1.629,1.59 1.473,3.711 1.473,6.02 v 5.453 c 0,1.641 0.648,2.359 1.262,3.246 0.215,0.313 0.262,0.695 -0.008,0.93 -0.684,0.602 -1.898,1.703 -2.566,2.32401 l -0.012,-0.012"
         style="fill:#4d4d4d;fill-rule:evenodd;fill-opacity:1"
         id="path2105" />
      <path
         d="m 323.09236,250.998 c -0.91,0.013 -1.985,0.223 -2.797,0.809 -0.254,0.18 -0.211,0.429 0.07,0.394 0.914,-0.114 2.958,-0.364 3.321,0.113 0.367,0.476 -0.407,2.446 -0.747,3.325 -0.105,0.266 0.118,0.375 0.352,0.172 1.531,-1.308 1.922,-4.051 1.609,-4.446 -0.154,-0.197 -0.899,-0.38 -1.808,-0.367 z m -23.903,0.527 c -0.189,0.026 -0.273,0.261 -0.074,0.446 3.394,3.143 7.88,5.029 12.86,5.029 3.554,0 7.677,-1.149 10.525,-3.297 l 0.002,-0.004 c 0.473,-0.36 0.07,-0.89 -0.414,-0.683 -3.188,1.391 -6.661,2.058 -9.813,2.058 -4.676,0 -9.207,-1.312 -12.867,-3.496 -0.08,-0.048 -0.155,-0.061 -0.219,-0.053 z"
         style="fill:#ff9900"
         id="path2133" />
    </g>
    <g
       id="g882"
       transform="matrix(4,0,0,4,-1136,-532)">
      <path
         d="m 320.05222,156.50602 c -3.91299,0 -8.28793,1.52895 -9.21093,6.58594 -0.091,0.53799 0.27923,0.82329 0.61523,0.90429 l 3.99414,0.44727 c 0.376,-0.02 0.6438,-0.40007 0.7168,-0.78906 0.34,-1.745 1.7405,-2.58789 3.3125,-2.58789 0.846,0 1.8075,0.32709 2.3125,1.12109 0.572,0.885 0.49414,2.09514 0.49414,3.11914 v 0.55664 c -2.38899,0.285 -5.51314,0.4671 -7.74414,1.49609 -2.576,1.164 -4.38867,3.54893 -4.38867,7.04493 0,4.47599 2.70002,6.71093 6.16601,6.71093 2.933,0 4.52907,-0.72077 6.78907,-3.13476 0.754,1.135 0.99828,1.688 2.36328,2.875 0.30569,0.16773 0.69796,0.14804 0.96679,-0.10156 l 0.0137,0.0156 c 0.822,-0.76399 2.31621,-2.11837 3.15821,-2.85937 0.332,-0.289 0.27473,-0.75853 0.01,-1.14453 -0.75603,-1.091 -1.55277,-1.9761 -1.55277,-3.9961 v -6.71094 c 0,-2.84199 0.1925,-5.4512 -1.8125,-7.4082 -1.578,-1.587 -4.19813,-2.14453 -6.20313,-2.14453 z m 2.23829,12.81055 v 0.93359 l -0.002,-0.002 c 0,1.683 0.0435,3.08127 -0.76953,4.57226 -0.653,1.211 -1.69161,1.95704 -2.84961,1.95704 -1.582,0 -2.5,-1.25815 -2.5,-3.11915 0,-3.67299 3.14509,-4.34179 6.12109,-4.34179 z m 11.36132,11.79296 c -1.11899,0.017 -2.44336,0.27314 -3.44336,0.99414 -0.313,0.222 -0.2581,0.52933 0.0879,0.48633 1.125,-0.14 3.63894,-0.44833 4.08594,0.13867 0.452,0.586 -0.49997,3.0098 -0.91797,4.0918 -0.129,0.327 0.1456,0.46094 0.4336,0.21094 1.88399,-1.609 2.36451,-4.98471 1.97851,-5.4707 -0.189,-0.243 -1.10461,-0.46718 -2.22461,-0.45118 z m -29.35742,0.64649 c -0.0211,-0.001 -0.041,-5.5e-4 -0.0605,0.002 -0.234,0.032 -0.33679,0.32183 -0.0918,0.54883 4.17599,3.86999 9.69719,6.18945 15.82618,6.18945 4.37399,0 9.44908,-1.41265 12.95507,-4.05664 l 0.002,-0.004 c 0.582,-0.443 0.0862,-1.09875 -0.50976,-0.84375 -3.92299,1.71199 -8.19718,2.53515 -12.07617,2.53515 -5.75499,0 -11.3329,-1.61474 -15.83789,-4.30273 -0.0735,-0.0443 -0.14378,-0.0649 -0.20704,-0.0684 z"
         style="opacity:0.2;fill:#000000;fill-rule:evenodd"
         id="path859" />
      <path
         d="m 322.28985,169.748 c 0,1.683 0.043,3.082 -0.77,4.573 -0.653,1.211 -1.692,1.957 -2.85,1.957 -1.582,0 -2.5,-1.259 -2.5,-3.12 0,-3.673 3.145,-4.341 6.121,-4.341 v 0.933 m 4.153,10.499 c -0.269,0.255 -0.663,0.275 -0.971,0.106 -1.365,-1.187 -1.611,-1.74 -2.365,-2.875 -2.26,2.414 -3.856,3.135 -6.789,3.135 -3.466,0 -6.166,-2.235 -6.166,-6.711 0,-3.496 1.813,-5.88 4.389,-7.044 2.231,-1.029 5.356,-1.211 7.745,-1.496 v -0.557 c 0,-1.024 0.077,-2.235 -0.495,-3.12 -0.505,-0.794 -1.466,-1.12 -2.312,-1.12 -1.572,0 -2.972,0.842 -3.312,2.587 -0.073,0.389 -0.341,0.769 -0.717,0.789 l -3.995,-0.447 c -0.336,-0.081 -0.706,-0.365 -0.615,-0.903 0.923,-5.057 5.298,-6.587 9.211,-6.587 2.005,0 4.625,0.557 6.203,2.144 2.005,1.957 1.813,4.567 1.813,7.409 v 6.711 c 0,2.02 0.797,2.904 1.553,3.995 0.265,0.386 0.322,0.856 -0.01,1.145 -0.842,0.741 -2.336,2.096 -3.158,2.86 l -0.015,-0.015"
         style="fill:#4d4d4d;fill-rule:evenodd;fill-opacity:1"
         id="path798" />
      <path
         d="m 333.65085,180.609 c -1.119,0.017 -2.442,0.274 -3.442,0.995 -0.313,0.222 -0.259,0.529 0.087,0.486 1.125,-0.14 3.639,-0.448 4.086,0.139 0.452,0.586 -0.5,3.01 -0.918,4.092 -0.129,0.327 0.145,0.461 0.433,0.211 1.884,-1.609 2.366,-4.985 1.98,-5.471 -0.189,-0.243 -1.106,-0.468 -2.226,-0.452 z m -29.417,0.649 c -0.234,0.032 -0.337,0.321 -0.092,0.548 4.176,3.87 9.698,6.191 15.827,6.191 4.374,0 9.448,-1.414 12.954,-4.058 l 0.002,-0.004 c 0.582,-0.443 0.086,-1.097 -0.51,-0.842 -3.923,1.712 -8.197,2.534 -12.076,2.534 -5.755,0 -11.332,-1.615 -15.837,-4.303 -0.098,-0.059 -0.191,-0.075 -0.269,-0.065 z"
         style="fill:#ff9900"
         id="path831" />
    </g>
  </g>
  <g
     id="Highlights">
    <path
       id="rect653"
       style="opacity:0.2;fill:#ffffff"
       d="M 80,44 C 53.408027,44 32,65.408027 32,92 v 2 C 32,67.408027 53.408027,46 80,46 h 128 c 26.59197,0 48,21.408027 48,48 V 92 C 256,65.408027 234.59197,44 208,44 Z"
       sodipodi:nodetypes="sscsscsss" />
    <path
       id="rect773"
       style="opacity:0.2;fill:#ffffff"
       d="m 312,34 c -9.97199,0 -18,8.02801 -18,18 v 1 c 0,-9.97199 8.02801,-18 18,-18 h 48 c 9.97199,0 18,8.02801 18,18 v -1 c 0,-9.97199 -8.02801,-18 -18,-18 z" />
    <path
       id="rect1135"
       style="opacity:0.2;fill:#ffffff;fill-opacity:1"
       d="m 304,144 c -6.64799,0 -12,5.35201 -12,12 v 1 c 0,-6.64799 5.35201,-12 12,-12 h 32 c 6.64799,0 12,5.35201 12,12 v -1 c 0,-6.64799 -5.35201,-12 -12,-12 z" />
    <path
       id="rect1265"
       style="opacity:0.2;fill:#ffffff;fill-opacity:1"
       d="m 300,223 c -4.986,0 -9,4.014 -9,9 v 1 c 0,-4.986 4.014,-9 9,-9 h 24 c 4.986,0 9,4.014 9,9 v -1 c 0,-4.986 -4.014,-9 -9,-9 z" />
    <path
       id="rect1368"
       style="opacity:0.2;fill:#ffffff;fill-opacity:1"
       d="m 424,54 c -3.324,0 -6,2.676003 -6,6 v 1 c 0,-3.323997 2.676,-6 6,-6 h 16 c 3.324,0 6,2.676003 6,6 v -1 c 0,-3.323997 -2.676,-6 -6,-6 z" />
    <path
       id="rect1402"
       style="opacity:0.2;fill:#ffffff;fill-opacity:1"
       d="m 420,140 c -2.216,0 -4,1.784 -4,4 v 1 c 0,-2.216 1.784,-4 4,-4 h 8 c 2.216,0 4,1.784 4,4 v -1 c 0,-2.216 -1.784,-4 -4,-4 z" />
    <path
       id="rect1436"
       style="opacity:0.2;fill:#ffffff;fill-opacity:1"
       d="m 422,102 c -2.216,0 -4,1.784 -4,4 v 1 c 0,-2.216 1.784,-4 4,-4 h 12 c 2.216,0 4,1.784 4,4 v -1 c 0,-2.216 -1.784,-4 -4,-4 z" />
  </g>
</svg>
