<?xml version="1.0" encoding="UTF-8" standalone="no"?>
<!-- Created with Inkscape (http://www.inkscape.org/) -->

<svg
   width="480"
   height="300"
   viewBox="0 0 480 300"
   version="1.1"
   id="svg5"
   inkscape:version="1.2.2 (1:1.2.2+202305151914+b0a8486541)"
   sodipodi:docname="web-google-photos.svg"
   xmlns:inkscape="http://www.inkscape.org/namespaces/inkscape"
   xmlns:sodipodi="http://sodipodi.sourceforge.net/DTD/sodipodi-0.dtd"
   xmlns="http://www.w3.org/2000/svg"
   xmlns:svg="http://www.w3.org/2000/svg">
  <sodipodi:namedview
     id="namedview7"
     pagecolor="#888888"
     bordercolor="#000000"
     borderopacity="0.25"
     inkscape:showpageshadow="true"
     inkscape:pageopacity="0"
     inkscape:pagecheckerboard="0"
     inkscape:deskcolor="#888888"
     inkscape:document-units="px"
     showgrid="false"
     showborder="false"
     inkscape:zoom="2.6866667"
     inkscape:cx="239.88834"
     inkscape:cy="150"
     inkscape:window-width="1920"
     inkscape:window-height="1008"
     inkscape:window-x="0"
     inkscape:window-y="0"
     inkscape:window-maximized="1"
     inkscape:current-layer="g2855" />
  <defs
     id="defs2" />
  <g
     id="Baseplate"
     style="display:none">
    <text
       y="19.774782"
       xml:space="preserve"
       x="15.006946"
       style="font-style:normal;font-variant:normal;font-weight:normal;font-stretch:normal;line-height:0%;font-family:'DejaVu Sans';-inkscape-font-specification:'DejaVu Sans';display:inline;fill:#000000;fill-opacity:1;stroke:none;enable-background:new"
       inkscape:label="context"
       id="context"><tspan
         style="font-style:normal;font-variant:normal;font-weight:normal;font-stretch:normal;font-size:18px;line-height:1.25;font-family:'DejaVu Sans';-inkscape-font-specification:'DejaVu Sans'"
         y="19.774782"
         x="15.006946"
         sodipodi:role="line"
         id="tspan3933">apps</tspan></text>
    <text
       y="19.774782"
       xml:space="preserve"
       x="122.48839"
       style="font-style:normal;font-variant:normal;font-weight:bold;font-stretch:normal;line-height:0%;font-family:'DejaVu Sans';-inkscape-font-specification:'DejaVu Sans Bold';text-align:start;writing-mode:lr-tb;text-anchor:start;display:inline;fill:#000000;fill-opacity:1;stroke:none;enable-background:new"
       inkscape:label="icon-name"
       id="icon-name"><tspan
         style="font-style:normal;font-variant:normal;font-weight:bold;font-stretch:normal;font-size:18px;line-height:1.25;font-family:'DejaVu Sans';-inkscape-font-specification:'DejaVu Sans Bold'"
         y="19.774782"
         x="122.48839"
         sodipodi:role="line"
         id="tspan3937">web-google-photos</tspan></text>
    <rect
       style="fill:#ffffff"
       id="256x256"
       width="256"
       height="256"
       x="16"
       y="28" />
    <rect
       style="fill:#ffffff"
       id="96x96"
       width="96"
       height="96"
       x="288"
       y="28" />
    <rect
       style="fill:#ffffff"
       id="64x64"
       width="64"
       height="64"
       x="288"
       y="140" />
    <rect
       style="fill:#ffffff"
       id="48x48"
       width="48"
       height="48"
       x="288"
       y="220" />
    <rect
       style="fill:#ffffff"
       id="32x32"
       width="32"
       height="32"
       x="416"
       y="52" />
    <rect
       style="fill:#ffffff"
       id="24x24"
       width="24"
       height="24"
       x="416"
       y="100" />
    <rect
       style="fill:#ffffff"
       id="22x22"
       width="22"
       height="22"
       x="417"
       y="101" />
    <rect
       style="fill:#ffffff"
       id="16x16"
       width="16"
       height="16"
       x="416"
       y="140" />
  </g>
  <g
     id="Shadow">
    <rect
       style="opacity:0.2;fill:#000000"
       id="rect651"
       width="224"
       height="224"
       x="32"
       y="46"
       ry="48" />
    <rect
       style="opacity:0.2;fill:#000000"
       id="rect769"
       width="84"
       height="85"
       x="294"
       y="34"
       ry="18" />
    <rect
       style="opacity:0.2;fill:#000000;fill-opacity:1"
       id="rect1131"
       width="56"
       height="56"
       x="292"
       y="145"
       ry="12" />
    <rect
       style="opacity:0.2;fill:#000000;fill-opacity:1"
       id="rect1261"
       width="42"
       height="42"
       x="291"
       y="224"
       ry="9" />
    <rect
       style="opacity:0.2;fill:#000000;fill-opacity:1"
       id="rect1364"
       width="28"
       height="29"
       x="418"
       y="54"
       ry="6" />
    <rect
       style="opacity:0.2;fill:#000000;fill-opacity:1"
       id="rect1398"
       width="16"
       height="16"
       x="416"
       y="141"
       ry="4" />
    <rect
       style="opacity:0.2;fill:#000000;fill-opacity:1"
       id="rect1432"
       width="20"
       height="20"
       x="418"
       y="103"
       ry="4" />
  </g>
  <g
     id="Background">
    <rect
       style="fill:#efefef;fill-opacity:1"
       id="rect597"
       width="224"
       height="224"
       x="32"
       y="44"
       ry="48" />
    <rect
       style="opacity:1;fill:#efefef;fill-opacity:1"
       id="rect771"
       width="84"
       height="84"
       x="294"
       y="34"
       ry="18" />
    <rect
       style="opacity:1;fill:#efefef;fill-opacity:1"
       id="rect1133"
       width="56"
       height="56"
       x="292"
       y="144"
       ry="12" />
    <rect
       style="opacity:1;fill:#efefef;fill-opacity:1"
       id="rect1263"
       width="42"
       height="42"
       x="291"
       y="223"
       ry="9" />
    <rect
       style="opacity:1;fill:#efefef;fill-opacity:1"
       id="rect1366"
       width="28"
       height="28"
       x="418"
       y="54"
       ry="6" />
    <rect
       style="opacity:1;fill:#efefef;fill-opacity:1"
       id="rect1400"
       width="16"
       height="16"
       x="416"
       y="140"
       ry="4" />
    <rect
       style="opacity:1;fill:#efefef;fill-opacity:1"
       id="rect1434"
       width="20"
       height="20"
       x="418"
       y="102"
       ry="4" />
  </g>
  <g
     id="g2855">
    <g
       id="g4331">
      <path
         d="m 424,142.5 v 6 c 1.65684,0 3,-1.34315 3,-3 0,-1.65684 -1.34316,-3 -3,-3 z m 0,6 c 0,1.65685 1.34315,3 3,3 1.65684,0 3,-1.34315 3,-3 z m 0,0 c -1.65685,0 -3,1.34316 -3,3 0,1.65685 1.34315,3 3,3 z m 0,0 c 0,-1.65684 -1.34316,-3 -3,-3 -1.65685,0 -3,1.34316 -3,3 z"
         style="fill:#000000;fill-opacity:1;opacity:0.2"
         id="path4387" />
      <path
         id="path4115"
         style="opacity:1;fill:#ffba00;fill-opacity:1"
         d="m 421,145 c -1.65685,0 -3,1.34315 -3,3 h 6 c 0,-1.65685 -1.34315,-3 -3,-3 z"
         sodipodi:nodetypes="sccs" />
      <path
         d="m 427,151 c -1.65685,0 -3,-1.34315 -3,-3 h 6 c 0,1.65685 -1.34315,3 -3,3 z"
         style="fill:#2684fc;fill-opacity:1"
         id="path4182"
         sodipodi:nodetypes="sccs" />
      <path
         d="m 427,145 c 0,-1.65685 -1.34315,-3 -3,-3 v 6 c 1.65685,0 3,-1.34315 3,-3 z"
         style="fill:#ea4335;fill-opacity:1"
         id="path4210"
         sodipodi:nodetypes="sccs" />
      <path
         d="m 421,151 c 0,1.65685 1.34315,3 3,3 v -6 c -1.65685,0 -3,1.34315 -3,3 z"
         style="fill:#00ac47;fill-opacity:1"
         id="path4238" />
    </g>
    <g
       id="g6743"
       transform="translate(0,3)">
      <path
         d="m 428.5,102.5 c -0.277,0 -0.5,0.223 -0.5,0.5 v 6 c 0,-1.93299 -1.56701,-3.5 -3.5,-3.5 -1.933,0 -3.5,1.56701 -3.5,3.5 0,0.277 0.223,0.5 0.5,0.5 h 6 c -1.93299,0 -3.5,1.56701 -3.5,3.5 0,1.93299 1.56701,3.5 3.5,3.5 0.277,0 0.5,-0.223 0.5,-0.5 v -6 c 0,1.93299 1.56701,3.5 3.5,3.5 1.933,0 3.5,-1.56701 3.5,-3.5 0,-0.277 -0.223,-0.5 -0.5,-0.5 h -6 c 1.93299,0 3.5,-1.56701 3.5,-3.5 0,-1.93299 -1.56701,-3.5 -3.5,-3.5 z"
         style="opacity:0.2;fill:#000000;fill-opacity:1;stroke-width:1.16667"
         id="path6718" />
      <path
         d="m 421,108.5 c 0,0.277 0.223,0.5 0.5,0.5 h 6.5 v -0.5 c 0,-1.93299 -1.56701,-3.5 -3.5,-3.5 -1.933,0 -3.5,1.56701 -3.5,3.5 z"
         style="fill:#ffba00;fill-opacity:1;stroke-width:1.16667"
         id="path6271"
         sodipodi:nodetypes="sscsss" />
      <path
         d="m 435,109.5 c 0,-0.277 -0.223,-0.5 -0.5,-0.5 H 428 v 0.5 c 0,1.93299 1.56701,3.5 3.5,3.5 1.933,0 3.5,-1.56701 3.5,-3.5 z"
         style="fill:#2684fc;fill-opacity:1;stroke-width:1.16667"
         id="path6575" />
      <path
         id="path5675"
         style="fill:#ea4335;fill-opacity:1;stroke-width:1.16667"
         d="m 428.5,102 c -0.277,0 -0.5,0.223 -0.5,0.5 v 6.5 h 0.5 c 1.93299,0 3.5,-1.56701 3.5,-3.5 0,-1.93299 -1.56701,-3.5 -3.5,-3.5 z"
         sodipodi:nodetypes="sscsss" />
      <path
         d="m 427.5,116 c 0.277,0 0.5,-0.223 0.5,-0.5 V 109 h -0.5 c -1.93299,0 -3.5,1.56701 -3.5,3.5 0,1.93299 1.56701,3.5 3.5,3.5 z"
         style="fill:#00ac47;fill-opacity:1;stroke-width:1.16667"
         id="path6174"
         sodipodi:nodetypes="sscsss" />
    </g>
    <g
       id="g5102">
      <path
         d="m 433,59 c -0.554,0 -1,0.446001 -1,1 v 8 c 0,-2.761417 -2.23858,-5 -5,-5 -2.76142,0 -5,2.238583 -5,5 0,0.553999 0.446,1 1,1 h 8 c -2.76142,0 -5,2.238583 -5,5 0,2.761417 2.23858,5 5,5 0.554,0 1,-0.446001 1,-1 v -8 c 0,2.761417 2.23858,5 5,5 2.76142,0 5,-2.238583 5,-5 0,-0.553999 -0.446,-1 -1,-1 h -8 c 2.76142,0 5,-2.238583 5,-5 0,-2.761417 -2.23858,-5 -5,-5 z"
         style="fill:#000000;fill-opacity:1;stroke-width:1.66667;opacity:0.2"
         id="path5077" />
      <path
         d="m 422,67 c 0,0.554 0.446,1 1,1 h 9 v -1 c 0,-2.76142 -2.23858,-5 -5,-5 -2.76142,0 -5,2.23858 -5,5 z"
         style="fill:#ffba00;fill-opacity:1;stroke-width:1.66667"
         id="path4533" />
      <path
         d="m 442,69 c 0,-0.554 -0.446,-1 -1,-1 h -9 v 1 c 0,2.76142 2.23858,5 5,5 2.76142,0 5,-2.23858 5,-5 z"
         style="fill:#2684fc;fill-opacity:1;stroke-width:1.66667"
         id="path4561" />
      <path
         id="path4499"
         style="fill:#ea4335;fill-opacity:1;stroke-width:1.66667"
         d="m 433,58 c -0.554,0 -1,0.446 -1,1 v 9 h 1 c 2.76142,0 5,-2.23858 5,-5 0,-2.76142 -2.23858,-5 -5,-5 z"
         sodipodi:nodetypes="sscsss" />
      <path
         d="m 431,78 c 0.554,0 1,-0.446 1,-1 v -9 h -1 c -2.76142,0 -5,2.23858 -5,5 0,2.76142 2.23858,5 5,5 z"
         style="fill:#00ac47;fill-opacity:1;stroke-width:1.66667"
         id="path4589" />
    </g>
    <g
       id="g5441">
      <path
         d="m 312.5,230 c -0.277,0 -0.5,0.223 -0.5,0.5 v 14 c 0,-4.14211 -3.35789,-7.5 -7.5,-7.5 -4.14213,0 -7.5,3.35789 -7.5,7.5 0,0.277 0.223,0.5 0.5,0.5 h 14 c -4.14212,0 -7.5,3.35789 -7.5,7.5 0,4.14213 3.35788,7.5 7.5,7.5 0.277,0 0.5,-0.223 0.5,-0.5 v -14 c 0,4.14212 3.35788,7.5 7.5,7.5 4.14212,0 7.5,-3.35788 7.5,-7.5 0,-0.277 -0.223,-0.5 -0.5,-0.5 h -14 c 4.14211,0 7.5,-3.35788 7.5,-7.5 0,-4.14212 -3.35789,-7.5 -7.5,-7.5 z"
         style="opacity:0.2;fill:#000000;fill-opacity:1;stroke-width:2.5"
         id="path5416"
         sodipodi:nodetypes="sscssscssscssscss" />
      <path
         d="m 297,243.5 c 0,0.277 0.223,0.5 0.5,0.5 H 312 v -0.5 c 0,-4.14212 -3.35788,-7.5 -7.5,-7.5 -4.14213,0 -7.5,3.35788 -7.5,7.5 z"
         style="fill:#ffba00;fill-opacity:1;stroke-width:2.5"
         id="path5244"
         sodipodi:nodetypes="sscsss" />
      <path
         d="m 327,244.5 c 0,-0.277 -0.223,-0.5 -0.5,-0.5 H 312 v 0.5 c 0,4.14212 3.35788,7.5 7.5,7.5 4.14213,0 7.5,-3.35788 7.5,-7.5 z"
         style="fill:#2684fc;fill-opacity:1;stroke-width:2.5"
         id="path5272"
         sodipodi:nodetypes="sscsss" />
      <path
         id="path5112"
         style="fill:#ea4335;fill-opacity:1;stroke-width:2.5"
         d="m 312.5,229 c -0.277,0 -0.5,0.223 -0.5,0.5 V 244 h 0.5 c 4.14212,0 7.5,-3.35788 7.5,-7.5 0,-4.14213 -3.35788,-7.5 -7.5,-7.5 z"
         sodipodi:nodetypes="sscsss" />
      <path
         d="m 311.5,259 c 0.277,0 0.5,-0.223 0.5,-0.5 V 244 h -0.5 c -4.14212,0 -7.5,3.35788 -7.5,7.5 0,4.14213 3.35788,7.5 7.5,7.5 z"
         style="fill:#00ac47;fill-opacity:1;stroke-width:2.5"
         id="path5147"
         sodipodi:nodetypes="sscsss" />
    </g>
    <g
       id="g2773">
      <path
         d="m 321,153 c -0.554,0 -1,0.446 -1,1 v 18 c 0,-6.21412 -4.47718,-10 -10,-10 -5.46495,0 -10,4.53383 -10,10 0,0.554 0.446,1 1,1 h 18 c -6.21412,0 -10,4.47717 -10,10 0,5.46494 4.53383,10 10,10 0.554,0 1,-0.446 1,-1 v -18 c 0,6.21411 4.47717,10 10,10 5.46494,0 10,-4.53384 10,-10 0,-0.554 -0.446,-1 -1,-1 h -18 c 6.21411,0 10,-4.47718 10,-10 0,-5.46495 -4.53384,-10 -10,-10 z"
         style="opacity:0.2;fill:#000000;fill-opacity:1;stroke-width:1.82111"
         id="path2829"
         sodipodi:nodetypes="sscssscssscssscss" />
      <path
         id="path418"
         style="opacity:1;fill:#ffba00;fill-opacity:1;stroke-width:1.82111"
         d="m 310,161 c -5.46495,0 -10,4.53383 -10,10 0,0.554 0.446,1 1,1 h 19 v -1 c 0,-6.21412 -4.47717,-10 -10,-10 z"
         sodipodi:nodetypes="ssccss" />
      <path
         d="m 330,183 c 5.46495,0 10,-4.53383 10,-10 0,-0.554 -0.446,-1 -1,-1 h -19 v 1 c 0,6.21412 4.47717,10 10,10 z"
         style="fill:#2684fc;fill-opacity:1;stroke-width:1.82111"
         id="path1093"
         sodipodi:nodetypes="ssscss" />
      <path
         d="m 331,162 c 0,-5.46495 -4.53383,-10 -10,-10 -0.554,0 -1,0.446 -1,1 v 19 h 1 c 6.21412,0 10,-4.47717 10,-10 z"
         style="fill:#ea4335;fill-opacity:1;stroke-width:1.82111"
         id="path1037"
         sodipodi:nodetypes="ssscss" />
      <path
         d="m 309,182 c 0,5.46495 4.53383,10 10,10 0.554,0 1,-0.446 1,-1 v -19 h -1 c -6.21412,0 -10,4.47717 -10,10 z"
         style="fill:#00ac47;fill-opacity:1;stroke-width:1.82111"
         id="path1065"
         sodipodi:nodetypes="ssscss" />
    </g>
    <g
       id="g5588"
       transform="matrix(2,0,0,2,-288,-412)">
      <path
         d="m 312.5,229.5 c -0.277,0 -0.5,0.223 -0.5,0.5 v 14 c 0,-4.14211 -3.35789,-7.5 -7.5,-7.5 -4.14213,0 -7.5,3.35789 -7.5,7.5 0,0.277 0.223,0.5 0.5,0.5 h 14 c -4.14212,0 -7.5,3.35789 -7.5,7.5 0,4.14213 3.35788,7.5 7.5,7.5 0.277,0 0.5,-0.223 0.5,-0.5 v -14 c 0,4.14212 3.35788,7.5 7.5,7.5 4.14212,0 7.5,-3.35788 7.5,-7.5 0,-0.277 -0.223,-0.5 -0.5,-0.5 h -14 c 4.14211,0 7.5,-3.35788 7.5,-7.5 0,-4.14212 -3.35789,-7.5 -7.5,-7.5 z"
         style="opacity:0.2;fill:#000000;fill-opacity:1;stroke-width:2.5"
         id="path5563" />
      <path
         d="m 297,243.5 c 0,0.277 0.223,0.5 0.5,0.5 H 312 v -0.5 c 0,-4.14212 -3.35788,-7.5 -7.5,-7.5 -4.14213,0 -7.5,3.35788 -7.5,7.5 z"
         style="fill:#ffba00;fill-opacity:1;stroke-width:2.5"
         id="path5479" />
      <path
         d="m 327,244.5 c 0,-0.277 -0.223,-0.5 -0.5,-0.5 H 312 v 0.5 c 0,4.14212 3.35788,7.5 7.5,7.5 4.14213,0 7.5,-3.35788 7.5,-7.5 z"
         style="fill:#2684fc;fill-opacity:1;stroke-width:2.5"
         id="path5451" />
      <path
         d="m 312.5,229 c -0.277,0 -0.5,0.223 -0.5,0.5 V 244 h 0.5 c 4.14212,0 7.5,-3.35788 7.5,-7.5 0,-4.14213 -3.35788,-7.5 -7.5,-7.5 z"
         style="fill:#ea4335;fill-opacity:1;stroke-width:2.5"
         id="path5507" />
      <path
         d="m 311.5,259 c 0.277,0 0.5,-0.223 0.5,-0.5 V 244 h -0.5 c -4.14212,0 -7.5,3.35788 -7.5,7.5 0,4.14213 3.35788,7.5 7.5,7.5 z"
         style="fill:#00ac47;fill-opacity:1;stroke-width:2.5"
         id="path5535" />
    </g>
    <g
       id="g3054"
       transform="matrix(4,0,0,4,-1136,-532)">
      <path
         d="m 321,152.5 c -0.554,0 -1,0.446 -1,1 v 18 c 0,-6.21412 -4.47718,-10 -10,-10 -5.46495,0 -10,4.53383 -10,10 0,0.554 0.446,1 1,1 h 18 c -6.21412,0 -10,4.47717 -10,10 0,5.46494 4.53383,10 10,10 0.554,0 1,-0.446 1,-1 v -18 c 0,6.21411 4.47717,10 10,10 5.46494,0 10,-4.53384 10,-10 0,-0.554 -0.446,-1 -1,-1 h -18 c 6.21411,0 10,-4.47718 10,-10 0,-5.46495 -4.53384,-10 -10,-10 z"
         style="opacity:0.2;fill:#000000;fill-opacity:1;stroke-width:1.82111"
         id="path3029" />
      <path
         d="m 310,161 c -5.46495,0 -10,4.53383 -10,10 0,0.554 0.446,1 1,1 h 19 v -1 c 0,-6.21412 -4.47717,-10 -10,-10 z"
         style="fill:#ffba00;fill-opacity:1;stroke-width:1.82111"
         id="path2865" />
      <path
         d="m 330,183 c 5.46495,0 10,-4.53383 10,-10 0,-0.554 -0.446,-1 -1,-1 h -19 v 1 c 0,6.21412 4.47717,10 10,10 z"
         style="fill:#2684fc;fill-opacity:1;stroke-width:1.82111"
         id="path2921" />
      <path
         d="m 331,162 c 0,-5.46495 -4.53383,-10 -10,-10 -0.554,0 -1,0.446 -1,1 v 19 h 1 c 6.21412,0 10,-4.47717 10,-10 z"
         style="fill:#ea4335;fill-opacity:1;stroke-width:1.82111"
         id="path2893"
         sodipodi:nodetypes="ssscss" />
      <path
         d="m 309,182 c 0,5.46495 4.53383,10 10,10 0.554,0 1,-0.446 1,-1 v -19 h -1 c -6.21412,0 -10,4.47717 -10,10 z"
         style="fill:#00ac47;fill-opacity:1;stroke-width:1.82111"
         id="path3001" />
    </g>
  </g>
  <g
     id="Highlights">
    <path
       id="rect653"
       style="opacity:0.2;fill:#ffffff"
       d="M 80,44 C 53.408027,44 32,65.408027 32,92 v 2 C 32,67.408027 53.408027,46 80,46 h 128 c 26.59197,0 48,21.408027 48,48 V 92 C 256,65.408027 234.59197,44 208,44 Z"
       sodipodi:nodetypes="sscsscsss" />
    <path
       id="rect773"
       style="opacity:0.2;fill:#ffffff"
       d="m 312,34 c -9.97199,0 -18,8.02801 -18,18 v 1 c 0,-9.97199 8.02801,-18 18,-18 h 48 c 9.97199,0 18,8.02801 18,18 v -1 c 0,-9.97199 -8.02801,-18 -18,-18 z" />
    <path
       id="rect1135"
       style="opacity:0.2;fill:#ffffff;fill-opacity:1"
       d="m 304,144 c -6.64799,0 -12,5.35201 -12,12 v 1 c 0,-6.64799 5.35201,-12 12,-12 h 32 c 6.64799,0 12,5.35201 12,12 v -1 c 0,-6.64799 -5.35201,-12 -12,-12 z" />
    <path
       id="rect1265"
       style="opacity:0.2;fill:#ffffff;fill-opacity:1"
       d="m 300,223 c -4.986,0 -9,4.014 -9,9 v 1 c 0,-4.986 4.014,-9 9,-9 h 24 c 4.986,0 9,4.014 9,9 v -1 c 0,-4.986 -4.014,-9 -9,-9 z" />
    <path
       id="rect1368"
       style="opacity:0.2;fill:#ffffff;fill-opacity:1"
       d="m 424,54 c -3.324,0 -6,2.676003 -6,6 v 1 c 0,-3.323997 2.676,-6 6,-6 h 16 c 3.324,0 6,2.676003 6,6 v -1 c 0,-3.323997 -2.676,-6 -6,-6 z" />
    <path
       id="rect1402"
       style="opacity:0.2;fill:#ffffff;fill-opacity:1"
       d="m 420,140 c -2.216,0 -4,1.784 -4,4 v 1 c 0,-2.216 1.784,-4 4,-4 h 8 c 2.216,0 4,1.784 4,4 v -1 c 0,-2.216 -1.784,-4 -4,-4 z" />
    <path
       id="rect1436"
       style="opacity:0.2;fill:#ffffff;fill-opacity:1"
       d="m 422,102 c -2.216,0 -4,1.784 -4,4 v 1 c 0,-2.216 1.784,-4 4,-4 h 12 c 2.216,0 4,1.784 4,4 v -1 c 0,-2.216 -1.784,-4 -4,-4 z" />
  </g>
</svg>
