<?xml version="1.0" encoding="UTF-8" standalone="no"?>
<!-- Created with Inkscape (http://www.inkscape.org/) -->

<svg
   width="480"
   height="300"
   viewBox="0 0 480 300"
   version="1.1"
   id="svg5"
   inkscape:version="1.2.2 (1:1.2.2+202305151914+b0a8486541)"
   sodipodi:docname="workspace-overview.svg"
   xmlns:inkscape="http://www.inkscape.org/namespaces/inkscape"
   xmlns:sodipodi="http://sodipodi.sourceforge.net/DTD/sodipodi-0.dtd"
   xmlns="http://www.w3.org/2000/svg"
   xmlns:svg="http://www.w3.org/2000/svg">
  <sodipodi:namedview
     id="namedview7"
     pagecolor="#888888"
     bordercolor="#000000"
     borderopacity="0.25"
     inkscape:showpageshadow="true"
     inkscape:pageopacity="0"
     inkscape:pagecheckerboard="0"
     inkscape:deskcolor="#888888"
     inkscape:document-units="px"
     showgrid="false"
     showborder="false"
     inkscape:zoom="2.6866667"
     inkscape:cx="240.07444"
     inkscape:cy="150"
     inkscape:window-width="1920"
     inkscape:window-height="1008"
     inkscape:window-x="0"
     inkscape:window-y="0"
     inkscape:window-maximized="1"
     inkscape:current-layer="svg5" />
  <defs
     id="defs2">
    <mask
       maskUnits="userSpaceOnUse"
       id="mask528">
      <rect
         style="opacity:1;fill:#ffffff"
         id="rect530"
         width="56"
         height="56"
         x="292"
         y="144"
         ry="12" />
    </mask>
    <mask
       maskUnits="userSpaceOnUse"
       id="mask532">
      <rect
         style="opacity:1;fill:#ffffff"
         id="rect534"
         width="56"
         height="56"
         x="292"
         y="144"
         ry="12" />
    </mask>
    <mask
       maskUnits="userSpaceOnUse"
       id="mask596">
      <rect
         style="opacity:1;fill:#ffffff"
         id="rect598"
         width="42"
         height="42"
         x="291"
         y="223"
         ry="9" />
    </mask>
    <mask
       maskUnits="userSpaceOnUse"
       id="mask600">
      <rect
         style="opacity:1;fill:#ffffff"
         id="rect602"
         width="42"
         height="42"
         x="291"
         y="223"
         ry="9" />
    </mask>
    <mask
       maskUnits="userSpaceOnUse"
       id="mask612">
      <rect
         style="opacity:1;fill:#ffffff"
         id="rect614"
         width="28"
         height="28"
         x="418"
         y="54"
         ry="6" />
    </mask>
    <mask
       maskUnits="userSpaceOnUse"
       id="mask616">
      <rect
         style="opacity:1;fill:#ffffff"
         id="rect618"
         width="28"
         height="28"
         x="418"
         y="54"
         ry="6" />
    </mask>
    <mask
       maskUnits="userSpaceOnUse"
       id="mask630">
      <rect
         style="opacity:1;fill:#ffffff"
         id="rect632"
         width="20"
         height="20"
         x="418"
         y="102"
         ry="4" />
    </mask>
    <mask
       maskUnits="userSpaceOnUse"
       id="mask634">
      <rect
         style="opacity:1;fill:#ffffff"
         id="rect636"
         width="20"
         height="20"
         x="418"
         y="102"
         ry="4" />
    </mask>
    <mask
       maskUnits="userSpaceOnUse"
       id="mask646">
      <rect
         style="opacity:1;fill:#ffffff"
         id="rect648"
         width="16"
         height="16"
         x="416"
         y="140"
         ry="4" />
    </mask>
    <mask
       maskUnits="userSpaceOnUse"
       id="mask650">
      <rect
         style="opacity:1;fill:#ffffff"
         id="rect652"
         width="16"
         height="16"
         x="416"
         y="140"
         ry="4" />
    </mask>
    <mask
       maskUnits="userSpaceOnUse"
       id="mask662">
      <rect
         style="opacity:1;fill:#ffffff"
         id="rect664"
         width="84"
         height="84"
         x="294"
         y="34"
         ry="18" />
    </mask>
    <mask
       maskUnits="userSpaceOnUse"
       id="mask666">
      <rect
         style="opacity:1;fill:#ffffff"
         id="rect668"
         width="84"
         height="84"
         x="294"
         y="34"
         ry="18" />
    </mask>
    <mask
       maskUnits="userSpaceOnUse"
       id="mask678">
      <rect
         style="opacity:1;fill:#ffffff"
         id="rect680"
         width="224"
         height="224"
         x="32"
         y="44"
         ry="48" />
    </mask>
    <mask
       maskUnits="userSpaceOnUse"
       id="mask682">
      <rect
         style="opacity:1;fill:#ffffff"
         id="rect684"
         width="224"
         height="224"
         x="32"
         y="44"
         ry="48" />
    </mask>
    <mask
       maskUnits="userSpaceOnUse"
       id="mask434">
      <rect
         style="opacity:1;fill:#ffffff;fill-opacity:1;stroke-width:0.999999"
         id="rect436"
         width="224"
         height="224"
         x="32"
         y="44"
         ry="48" />
    </mask>
    <mask
       maskUnits="userSpaceOnUse"
       id="mask496">
      <rect
         style="opacity:1;fill:#ffffff;fill-opacity:1"
         id="rect498"
         width="28"
         height="28"
         x="418"
         y="54"
         ry="6" />
    </mask>
    <mask
       maskUnits="userSpaceOnUse"
       id="mask501">
      <rect
         style="opacity:1;fill:#ffffff;fill-opacity:1"
         id="rect503"
         width="20"
         height="20"
         x="418"
         y="102"
         ry="4" />
    </mask>
    <mask
       maskUnits="userSpaceOnUse"
       id="mask506">
      <rect
         style="opacity:1;fill:#ffffff;fill-opacity:1"
         id="rect508"
         width="16"
         height="16"
         x="416"
         y="140"
         ry="4" />
    </mask>
    <mask
       maskUnits="userSpaceOnUse"
       id="mask732">
      <rect
         style="opacity:1;fill:#ffffff;fill-opacity:1"
         id="rect734"
         width="56"
         height="56"
         x="292"
         y="143"
         ry="12" />
    </mask>
    <mask
       maskUnits="userSpaceOnUse"
       id="mask889">
      <rect
         style="opacity:1;fill:#ffffff;fill-opacity:1"
         id="rect891"
         width="84"
         height="84"
         x="294"
         y="34"
         ry="18" />
    </mask>
    <mask
       maskUnits="userSpaceOnUse"
       id="mask918">
      <rect
         style="opacity:1;fill:#ffffff;fill-opacity:1"
         id="rect920"
         width="42"
         height="42"
         x="291"
         y="223"
         ry="9" />
    </mask>
  </defs>
  <g
     id="Baseplate"
     style="display:none">
    <text
       y="19.774782"
       xml:space="preserve"
       x="15.006946"
       style="font-style:normal;font-variant:normal;font-weight:normal;font-stretch:normal;line-height:0%;font-family:'DejaVu Sans';-inkscape-font-specification:'DejaVu Sans';display:inline;fill:#000000;fill-opacity:1;stroke:none;enable-background:new"
       inkscape:label="context"
       id="context"><tspan
         style="font-style:normal;font-variant:normal;font-weight:normal;font-stretch:normal;font-size:18px;line-height:1.25;font-family:'DejaVu Sans';-inkscape-font-specification:'DejaVu Sans'"
         y="19.774782"
         x="15.006946"
         sodipodi:role="line"
         id="tspan3933">apps</tspan></text>
    <text
       y="19.774782"
       xml:space="preserve"
       x="122.48839"
       style="font-style:normal;font-variant:normal;font-weight:bold;font-stretch:normal;line-height:0%;font-family:'DejaVu Sans';-inkscape-font-specification:'DejaVu Sans Bold';text-align:start;writing-mode:lr-tb;text-anchor:start;display:inline;fill:#000000;fill-opacity:1;stroke:none;enable-background:new"
       inkscape:label="icon-name"
       id="icon-name"><tspan
         style="font-style:normal;font-variant:normal;font-weight:bold;font-stretch:normal;font-size:18px;line-height:1.25;font-family:'DejaVu Sans';-inkscape-font-specification:'DejaVu Sans Bold'"
         y="19.774782"
         x="122.48839"
         sodipodi:role="line"
         id="tspan3937">workspace-overview</tspan></text>
    <rect
       style="fill:#ffffff"
       id="256x256"
       width="256"
       height="256"
       x="16"
       y="28" />
    <rect
       style="fill:#ffffff"
       id="96x96"
       width="96"
       height="96"
       x="288"
       y="28" />
    <rect
       style="fill:#ffffff"
       id="64x64"
       width="64"
       height="64"
       x="288"
       y="140" />
    <rect
       style="fill:#ffffff"
       id="48x48"
       width="48"
       height="48"
       x="288"
       y="220" />
    <rect
       style="fill:#ffffff"
       id="32x32"
       width="32"
       height="32"
       x="416"
       y="52" />
    <rect
       style="fill:#ffffff"
       id="24x24"
       width="24"
       height="24"
       x="416"
       y="100" />
    <rect
       style="fill:#ffffff"
       id="22x22"
       width="22"
       height="22"
       x="417"
       y="101" />
    <rect
       style="fill:#ffffff"
       id="16x16"
       width="16"
       height="16"
       x="416"
       y="140" />
  </g>
  <g
     id="Shadow">
    <rect
       style="opacity:0.2;fill:#000000"
       id="rect651"
       width="224"
       height="224"
       x="32"
       y="46"
       ry="48" />
    <rect
       style="opacity:0.2;fill:#000000"
       id="rect769"
       width="84"
       height="85"
       x="294"
       y="34"
       ry="18" />
    <rect
       style="opacity:0.2;fill:#000000;fill-opacity:1"
       id="rect1131"
       width="56"
       height="56"
       x="292"
       y="145"
       ry="12" />
    <rect
       style="opacity:0.2;fill:#000000;fill-opacity:1"
       id="rect1261"
       width="42"
       height="42"
       x="291"
       y="224"
       ry="9" />
    <rect
       style="opacity:0.2;fill:#000000;fill-opacity:1"
       id="rect1364"
       width="28"
       height="29"
       x="418"
       y="54"
       ry="6" />
    <rect
       style="opacity:0.2;fill:#000000;fill-opacity:1"
       id="rect1398"
       width="16"
       height="16"
       x="416"
       y="141"
       ry="4" />
    <rect
       style="opacity:0.2;fill:#000000;fill-opacity:1"
       id="rect1432"
       width="20"
       height="20"
       x="418"
       y="103"
       ry="4" />
  </g>
  <g
     id="Background">
    <rect
       style="fill:#33a8e7;fill-opacity:1"
       id="rect597"
       width="224"
       height="224"
       x="32"
       y="44"
       ry="48" />
    <rect
       style="opacity:1;fill:#33a8e7;fill-opacity:1"
       id="rect771"
       width="84"
       height="84"
       x="294"
       y="34"
       ry="18" />
    <rect
       style="opacity:1;fill:#33a8e7;fill-opacity:1"
       id="rect1133"
       width="56"
       height="56"
       x="292"
       y="144"
       ry="12" />
    <rect
       style="opacity:1;fill:#33a8e7;fill-opacity:1"
       id="rect1263"
       width="42"
       height="42"
       x="291"
       y="223"
       ry="9" />
    <rect
       style="opacity:1;fill:#33a8e7;fill-opacity:1"
       id="rect1366"
       width="28"
       height="28"
       x="418"
       y="54"
       ry="6" />
    <rect
       style="opacity:1;fill:#33a8e7;fill-opacity:1"
       id="rect1400"
       width="16"
       height="16"
       x="416"
       y="140"
       ry="4" />
    <rect
       style="opacity:1;fill:#33a8e7;fill-opacity:1"
       id="rect1434"
       width="20"
       height="20"
       x="418"
       y="102"
       ry="4" />
  </g>
  <g
     id="Symbols">
    <rect
       style="opacity:1;fill:#147eb8;fill-opacity:1;stroke-width:0.894427"
       id="rect1565"
       width="16"
       height="4"
       x="416"
       y="152"
       mask="url(#mask506)" />
    <path
       d="m 423,152 v 1 h -1 v 1 h 1 v 1 h 1 v -1 h 1 v -1 h -1 v -1 z"
       style="fill:#ffffff;stroke-width:1;stroke-linecap:square"
       id="path861" />
    <rect
       style="opacity:1;fill:#147eb8;fill-opacity:1;stroke-width:0.912871"
       id="rect1563"
       width="20"
       height="5"
       x="418"
       y="117"
       mask="url(#mask501)" />
    <path
       id="path783"
       style="fill:#ffffff;stroke-width:1;stroke-linecap:square"
       d="m 427,118 v 1 h -1 v 1 h 1 v 1 h 1 v -1 h 1 v -1 h -1 v -1 z"
       sodipodi:nodetypes="ccccccccccccc" />
    <rect
       style="opacity:1;fill:#147eb8;fill-opacity:1;stroke-width:0.935414"
       id="rect1561"
       width="28"
       height="7"
       x="418"
       y="75"
       mask="url(#mask496)" />
    <path
       d="m 431,76 v 2 h -2 v 1 h 2 v 2 h 1 v -2 h 2 v -1 h -2 v -2 z"
       style="fill:#ffffff;stroke-width:1;stroke-linecap:square"
       id="path642"
       sodipodi:nodetypes="ccccccccccccc" />
    <rect
       style="fill:#147eb8;fill-opacity:1;stroke-width:0.953463"
       id="rect1519"
       width="42"
       height="10"
       x="291"
       y="255"
       mask="url(#mask918)" />
    <path
       d="m 311,256 v 3 h -3 v 1 h 3 v 3 h 1 v -3 h 3 v -1 h -3 v -3 z"
       style="fill:#ffffff;stroke-width:2;stroke-linecap:square"
       id="path699"
       sodipodi:nodetypes="ccccccccccccc" />
    <rect
       style="opacity:1;fill:#147eb8;fill-opacity:1;stroke-width:0.25"
       id="rect1286"
       width="56"
       height="14"
       x="292"
       y="185"
       mask="url(#mask732)"
       transform="translate(0,1)" />
    <path
       d="m 319,189 v 3 h -3 v 2 h 3 v 3 h 2 v -3 h 3 v -2 h -3 v -3 z"
       style="fill:#ffffff;stroke-width:2;stroke-linecap:square"
       id="path671"
       sodipodi:nodetypes="ccccccccccccc" />
    <rect
       style="opacity:1;fill:#147eb8;fill-opacity:1;stroke-width:0.975898"
       id="rect1517"
       width="84"
       height="20"
       x="294"
       y="98"
       mask="url(#mask889)" />
    <path
       d="m 335,101 v 6 h -6 v 2 h 6 v 6 h 2 v -6 h 6 v -2 h -6 v -6 z"
       style="fill:#ffffff;stroke-width:4;stroke-linecap:square"
       id="path727" />
    <rect
       style="opacity:1;fill:#147eb8;fill-opacity:1;stroke-width:1.11802"
       id="rect364"
       width="224"
       height="50"
       x="32"
       y="218"
       mask="url(#mask434)" />
    <path
       d="m 140,227 v 12 h -12 v 8 h 12 v 12 h 8 v -12 h 12 v -8 h -12 v -12 z"
       style="fill:#ffffff;stroke-width:8;stroke-linecap:square"
       id="path755" />
  </g>
  <g
     id="Highlights">
    <path
       id="rect653"
       style="opacity:0.2;fill:#ffffff"
       d="M 80,44 C 53.408027,44 32,65.408027 32,92 v 2 C 32,67.408027 53.408027,46 80,46 h 128 c 26.59197,0 48,21.408027 48,48 V 92 C 256,65.408027 234.59197,44 208,44 Z"
       sodipodi:nodetypes="sscsscsss" />
    <path
       id="rect773"
       style="opacity:0.2;fill:#ffffff"
       d="m 312,34 c -9.97199,0 -18,8.02801 -18,18 v 1 c 0,-9.97199 8.02801,-18 18,-18 h 48 c 9.97199,0 18,8.02801 18,18 v -1 c 0,-9.97199 -8.02801,-18 -18,-18 z" />
    <path
       id="rect1135"
       style="opacity:0.2;fill:#ffffff;fill-opacity:1"
       d="m 304,144 c -6.64799,0 -12,5.35201 -12,12 v 1 c 0,-6.64799 5.35201,-12 12,-12 h 32 c 6.64799,0 12,5.35201 12,12 v -1 c 0,-6.64799 -5.35201,-12 -12,-12 z" />
    <path
       id="rect1265"
       style="opacity:0.2;fill:#ffffff;fill-opacity:1"
       d="m 300,223 c -4.986,0 -9,4.014 -9,9 v 1 c 0,-4.986 4.014,-9 9,-9 h 24 c 4.986,0 9,4.014 9,9 v -1 c 0,-4.986 -4.014,-9 -9,-9 z" />
    <path
       id="rect1368"
       style="opacity:0.2;fill:#ffffff;fill-opacity:1"
       d="m 424,54 c -3.324,0 -6,2.676003 -6,6 v 1 c 0,-3.323997 2.676,-6 6,-6 h 16 c 3.324,0 6,2.676003 6,6 v -1 c 0,-3.323997 -2.676,-6 -6,-6 z" />
    <path
       id="rect1402"
       style="opacity:0.2;fill:#ffffff;fill-opacity:1"
       d="m 420,140 c -2.216,0 -4,1.784 -4,4 v 1 c 0,-2.216 1.784,-4 4,-4 h 8 c 2.216,0 4,1.784 4,4 v -1 c 0,-2.216 -1.784,-4 -4,-4 z" />
    <path
       id="rect1436"
       style="opacity:0.2;fill:#ffffff;fill-opacity:1"
       d="m 422,102 c -2.216,0 -4,1.784 -4,4 v 1 c 0,-2.216 1.784,-4 4,-4 h 12 c 2.216,0 4,1.784 4,4 v -1 c 0,-2.216 -1.784,-4 -4,-4 z" />
  </g>
  <g
     id="g1058">
    <g
       id="g997"
       transform="translate(0,-2)">
      <rect
         style="opacity:1;fill:#ffffff"
         id="rect985"
         width="2"
         height="2"
         x="418"
         y="151" />
      <rect
         style="opacity:1;fill:#ffffff"
         id="rect987"
         width="2"
         height="2"
         x="421"
         y="151" />
      <rect
         style="opacity:1;fill:#ffffff"
         id="rect989"
         width="2"
         height="2"
         x="424"
         y="151" />
      <rect
         style="opacity:1;fill:#ffffff"
         id="rect991"
         width="2"
         height="2"
         x="427"
         y="151" />
    </g>
    <g
       id="g983"
       transform="translate(0,-4)">
      <rect
         style="opacity:0.2;fill:#000000"
         id="rect959"
         width="3"
         height="3"
         x="420"
         y="116.54" />
      <rect
         style="opacity:0.2;fill:#000000"
         id="rect961"
         width="3"
         height="3"
         x="424"
         y="116.54" />
      <rect
         style="opacity:0.2;fill:#000000"
         id="rect963"
         width="3"
         height="3"
         x="428"
         y="116.54" />
      <rect
         style="opacity:0.2;fill:#000000"
         id="rect965"
         width="3"
         height="3"
         x="432"
         y="116.54" />
      <rect
         style="opacity:1;fill:#ffffff"
         id="rect967"
         width="3"
         height="3"
         x="420"
         y="116" />
      <rect
         style="opacity:1;fill:#ffffff"
         id="rect969"
         width="3"
         height="3"
         x="424"
         y="116" />
      <rect
         style="opacity:1;fill:#ffffff"
         id="rect971"
         width="3"
         height="3"
         x="428"
         y="116" />
      <rect
         style="opacity:1;fill:#ffffff"
         id="rect973"
         width="3"
         height="3"
         x="432"
         y="116" />
    </g>
    <g
       id="g872"
       transform="matrix(0.5,0,0,0.5,272,-22.5)">
      <rect
         style="opacity:0.2;fill:#000000"
         id="rect848"
         width="8"
         height="8"
         x="298"
         y="185"
         ry="2" />
      <rect
         style="opacity:0.2;fill:#000000"
         id="rect850"
         width="8"
         height="8"
         x="310"
         y="185"
         ry="2" />
      <rect
         style="opacity:0.2;fill:#000000"
         id="rect852"
         width="8"
         height="8"
         x="322"
         y="185"
         ry="2" />
      <rect
         style="opacity:0.2;fill:#000000"
         id="rect854"
         width="8"
         height="8"
         x="334"
         y="185"
         ry="2" />
      <rect
         style="opacity:1;fill:#ffffff"
         id="rect856"
         width="8"
         height="8"
         x="298"
         y="183"
         ry="2" />
      <rect
         style="opacity:1;fill:#ffffff"
         id="rect858"
         width="8"
         height="8"
         x="310"
         y="183"
         ry="2" />
      <rect
         style="opacity:1;fill:#ffffff"
         id="rect860"
         width="8"
         height="8"
         x="322"
         y="183"
         ry="2" />
      <rect
         style="opacity:1;fill:#ffffff"
         id="rect862"
         width="8"
         height="8"
         x="334"
         y="183"
         ry="2" />
    </g>
    <g
       id="g930"
       transform="translate(0,-7)">
      <rect
         style="opacity:0.2;fill:#000000"
         id="rect901"
         width="6"
         height="6"
         x="322"
         y="254"
         ry="1.5" />
      <rect
         style="opacity:0.2;fill:#000000"
         id="rect903"
         width="6"
         height="6"
         x="313"
         y="254"
         ry="1.5" />
      <rect
         style="opacity:0.2;fill:#000000"
         id="rect905"
         width="6"
         height="6"
         x="304"
         y="254"
         ry="1.5" />
      <rect
         style="opacity:0.2;fill:#000000"
         id="rect907"
         width="6"
         height="6"
         x="295"
         y="254"
         ry="1.5" />
      <rect
         style="opacity:1;fill:#ffffff"
         id="rect909"
         width="6"
         height="6"
         x="295"
         y="253"
         ry="1.5" />
      <rect
         style="opacity:1;fill:#ffffff"
         id="rect911"
         width="6"
         height="6"
         x="304"
         y="253"
         ry="1.5" />
      <rect
         style="opacity:1;fill:#ffffff"
         id="rect913"
         width="6"
         height="6"
         x="313"
         y="253"
         ry="1.5" />
      <rect
         style="opacity:1;fill:#ffffff"
         id="rect915"
         width="6"
         height="6"
         x="322"
         y="253"
         ry="1.5" />
    </g>
    <g
       id="g794"
       transform="translate(0,2)">
      <rect
         style="opacity:0.2;fill:#000000"
         id="rect729"
         width="8"
         height="8"
         x="334"
         y="174"
         ry="2" />
      <rect
         style="opacity:0.2;fill:#000000"
         id="rect736"
         width="8"
         height="8"
         x="322"
         y="174"
         ry="2" />
      <rect
         style="opacity:0.2;fill:#000000"
         id="rect738"
         width="8"
         height="8"
         x="310"
         y="174"
         ry="2" />
      <rect
         style="opacity:0.2;fill:#000000"
         id="rect740"
         width="8"
         height="8"
         x="298"
         y="174"
         ry="2" />
      <rect
         style="opacity:1;fill:#ffffff"
         id="rect748"
         width="8"
         height="8"
         x="298"
         y="173"
         ry="2" />
      <rect
         style="opacity:1;fill:#ffffff"
         id="rect750"
         width="8"
         height="8"
         x="310"
         y="173"
         ry="2" />
      <rect
         style="opacity:1;fill:#ffffff"
         id="rect752"
         width="8"
         height="8"
         x="322"
         y="173"
         ry="2" />
      <rect
         style="opacity:1;fill:#ffffff"
         id="rect754"
         width="8"
         height="8"
         x="334"
         y="173"
         ry="2" />
    </g>
    <g
       id="g886"
       transform="matrix(1.5,0,0,1.5,-144,-194.5)">
      <rect
         style="opacity:0.2;fill:#000000"
         id="rect874"
         width="8"
         height="8"
         x="298"
         y="183.66667"
         ry="2" />
      <rect
         style="opacity:0.2;fill:#000000"
         id="rect876"
         width="8"
         height="8"
         x="310"
         y="183.66667"
         ry="2" />
      <rect
         style="opacity:0.2;fill:#000000"
         id="rect878"
         width="8"
         height="8"
         x="322"
         y="183.66667"
         ry="2" />
      <rect
         style="opacity:0.2;fill:#000000"
         id="rect880"
         width="8"
         height="8"
         x="334"
         y="183.66667"
         ry="2" />
      <rect
         style="opacity:1;fill:#ffffff;stroke-width:0.666667"
         id="rect893"
         width="8"
         height="8"
         x="334"
         y="183"
         ry="2" />
      <rect
         style="opacity:1;fill:#ffffff;stroke-width:0.666667"
         id="rect895"
         width="8"
         height="8"
         x="322"
         y="183"
         ry="2" />
      <rect
         style="opacity:1;fill:#ffffff;stroke-width:0.666667"
         id="rect897"
         width="8"
         height="8"
         x="310"
         y="183"
         ry="2" />
      <rect
         style="opacity:1;fill:#ffffff;stroke-width:0.666667"
         id="rect899"
         width="8"
         height="8"
         x="298"
         y="183"
         ry="2" />
    </g>
    <g
       id="g780"
       transform="matrix(4,0,0,4,-1136,-528)">
      <rect
         style="opacity:0.2;fill:#000000"
         id="rect756"
         width="8"
         height="8"
         x="298"
         y="176"
         ry="2" />
      <rect
         style="opacity:0.2;fill:#000000"
         id="rect758"
         width="8"
         height="8"
         x="310"
         y="176"
         ry="2" />
      <rect
         style="opacity:0.2;fill:#000000"
         id="rect760"
         width="8"
         height="8"
         x="322"
         y="176"
         ry="2" />
      <rect
         style="opacity:0.2;fill:#000000"
         id="rect762"
         width="8"
         height="8"
         x="334"
         y="176"
         ry="2" />
      <rect
         style="opacity:1;fill:#ffffff"
         id="rect764"
         width="8"
         height="8"
         x="298"
         y="175.5"
         ry="2" />
      <rect
         style="opacity:1;fill:#ffffff"
         id="rect766"
         width="8"
         height="8"
         x="310"
         y="175.5"
         ry="2" />
      <rect
         style="opacity:1;fill:#ffffff"
         id="rect768"
         width="8"
         height="8"
         x="322"
         y="175.5"
         ry="2" />
      <rect
         style="opacity:1;fill:#ffffff"
         id="rect770"
         width="8"
         height="8"
         x="334"
         y="175.5"
         ry="2" />
    </g>
  </g>
</svg>
