<?xml version="1.0" encoding="UTF-8" standalone="no"?>
<!-- Created with Inkscape (http://www.inkscape.org/) -->

<svg
   width="480"
   height="300"
   viewBox="0 0 480 300"
   version="1.1"
   id="svg5"
   inkscape:version="1.2.2 (1:1.2.2+202305151914+b0a8486541)"
   sodipodi:docname="workspace-switcher-top-left.svg"
   xmlns:inkscape="http://www.inkscape.org/namespaces/inkscape"
   xmlns:sodipodi="http://sodipodi.sourceforge.net/DTD/sodipodi-0.dtd"
   xmlns="http://www.w3.org/2000/svg"
   xmlns:svg="http://www.w3.org/2000/svg">
  <sodipodi:namedview
     id="namedview7"
     pagecolor="#888888"
     bordercolor="#000000"
     borderopacity="0.25"
     inkscape:showpageshadow="true"
     inkscape:pageopacity="0"
     inkscape:pagecheckerboard="0"
     inkscape:deskcolor="#888888"
     inkscape:document-units="px"
     showgrid="false"
     showborder="false"
     inkscape:zoom="2.6866667"
     inkscape:cx="240.07444"
     inkscape:cy="150"
     inkscape:window-width="1920"
     inkscape:window-height="1008"
     inkscape:window-x="0"
     inkscape:window-y="0"
     inkscape:window-maximized="1"
     inkscape:current-layer="svg5" />
  <defs
     id="defs2">
    <mask
       maskUnits="userSpaceOnUse"
       id="mask528">
      <rect
         style="opacity:1;fill:#ffffff"
         id="rect530"
         width="56"
         height="56"
         x="292"
         y="144"
         ry="12" />
    </mask>
    <mask
       maskUnits="userSpaceOnUse"
       id="mask532">
      <rect
         style="opacity:1;fill:#ffffff"
         id="rect534"
         width="56"
         height="56"
         x="292"
         y="144"
         ry="12" />
    </mask>
    <mask
       maskUnits="userSpaceOnUse"
       id="mask596">
      <rect
         style="opacity:1;fill:#ffffff"
         id="rect598"
         width="42"
         height="42"
         x="291"
         y="223"
         ry="9" />
    </mask>
    <mask
       maskUnits="userSpaceOnUse"
       id="mask600">
      <rect
         style="opacity:1;fill:#ffffff"
         id="rect602"
         width="42"
         height="42"
         x="291"
         y="223"
         ry="9" />
    </mask>
    <mask
       maskUnits="userSpaceOnUse"
       id="mask612">
      <rect
         style="opacity:1;fill:#ffffff"
         id="rect614"
         width="28"
         height="28"
         x="418"
         y="54"
         ry="6" />
    </mask>
    <mask
       maskUnits="userSpaceOnUse"
       id="mask616">
      <rect
         style="opacity:1;fill:#ffffff"
         id="rect618"
         width="28"
         height="28"
         x="418"
         y="54"
         ry="6" />
    </mask>
    <mask
       maskUnits="userSpaceOnUse"
       id="mask630">
      <rect
         style="opacity:1;fill:#ffffff"
         id="rect632"
         width="20"
         height="20"
         x="418"
         y="102"
         ry="4" />
    </mask>
    <mask
       maskUnits="userSpaceOnUse"
       id="mask634">
      <rect
         style="opacity:1;fill:#ffffff"
         id="rect636"
         width="20"
         height="20"
         x="418"
         y="102"
         ry="4" />
    </mask>
    <mask
       maskUnits="userSpaceOnUse"
       id="mask646">
      <rect
         style="opacity:1;fill:#ffffff"
         id="rect648"
         width="16"
         height="16"
         x="416"
         y="140"
         ry="4" />
    </mask>
    <mask
       maskUnits="userSpaceOnUse"
       id="mask650">
      <rect
         style="opacity:1;fill:#ffffff"
         id="rect652"
         width="16"
         height="16"
         x="416"
         y="140"
         ry="4" />
    </mask>
    <mask
       maskUnits="userSpaceOnUse"
       id="mask662">
      <rect
         style="opacity:1;fill:#ffffff"
         id="rect664"
         width="84"
         height="84"
         x="294"
         y="34"
         ry="18" />
    </mask>
    <mask
       maskUnits="userSpaceOnUse"
       id="mask666">
      <rect
         style="opacity:1;fill:#ffffff"
         id="rect668"
         width="84"
         height="84"
         x="294"
         y="34"
         ry="18" />
    </mask>
    <mask
       maskUnits="userSpaceOnUse"
       id="mask678">
      <rect
         style="opacity:1;fill:#ffffff"
         id="rect680"
         width="224"
         height="224"
         x="32"
         y="44"
         ry="48" />
    </mask>
    <mask
       maskUnits="userSpaceOnUse"
       id="mask682">
      <rect
         style="opacity:1;fill:#ffffff"
         id="rect684"
         width="224"
         height="224"
         x="32"
         y="44"
         ry="48" />
    </mask>
    <mask
       maskUnits="userSpaceOnUse"
       id="mask945">
      <rect
         style="opacity:1;fill:#ffffff;stroke-width:2;stroke-linecap:square"
         id="rect947"
         width="56"
         height="56"
         x="292"
         y="144"
         ry="12" />
    </mask>
    <mask
       maskUnits="userSpaceOnUse"
       id="mask1113">
      <rect
         style="opacity:1;fill:#ffffff;stroke-width:2;stroke-linecap:square"
         id="rect1115"
         width="20"
         height="20"
         x="418"
         y="102" />
    </mask>
    <mask
       maskUnits="userSpaceOnUse"
       id="mask1179">
      <rect
         style="opacity:1;fill:#ffffff;stroke-width:2;stroke-linecap:square"
         id="rect1181"
         width="42"
         height="42"
         x="291"
         y="223"
         ry="9" />
    </mask>
    <mask
       maskUnits="userSpaceOnUse"
       id="mask1371">
      <rect
         style="opacity:1;fill:#ffffff;stroke-width:2;stroke-linecap:square"
         id="rect1373"
         width="16"
         height="16"
         x="416"
         y="140"
         ry="4" />
    </mask>
    <mask
       maskUnits="userSpaceOnUse"
       id="mask1381">
      <rect
         style="opacity:1;fill:#ffffff;stroke-width:2;stroke-linecap:square"
         id="rect1383"
         width="56"
         height="56"
         x="289"
         y="144"
         ry="12" />
    </mask>
    <mask
       maskUnits="userSpaceOnUse"
       id="mask1460">
      <rect
         style="opacity:1;fill:#ffffff;stroke-width:2;stroke-linecap:square"
         id="rect1462"
         width="28"
         height="28"
         x="418"
         y="54"
         ry="6" />
    </mask>
    <mask
       maskUnits="userSpaceOnUse"
       id="mask1624">
      <rect
         style="opacity:1;fill:#ffffff;stroke-width:2;stroke-linecap:square"
         id="rect1626"
         width="42"
         height="42"
         x="291"
         y="223"
         ry="9" />
    </mask>
    <mask
       maskUnits="userSpaceOnUse"
       id="mask1989">
      <rect
         style="opacity:1;fill:#ffffff;fill-opacity:1;stroke-width:0.75;stroke-linecap:round;stroke-linejoin:round"
         id="rect1991"
         width="16"
         height="16"
         x="416"
         y="140"
         ry="4" />
    </mask>
    <mask
       maskUnits="userSpaceOnUse"
       id="mask1995">
      <rect
         style="opacity:1;fill:#ffffff;fill-opacity:1;stroke-width:0.75;stroke-linecap:round;stroke-linejoin:round"
         id="rect1997"
         width="20"
         height="20"
         x="418"
         y="102"
         ry="4" />
    </mask>
    <mask
       maskUnits="userSpaceOnUse"
       id="mask2005">
      <rect
         style="opacity:1;fill:#ffffff;fill-opacity:1;stroke-width:0.75;stroke-linecap:round;stroke-linejoin:round"
         id="rect2007"
         width="28"
         height="28"
         x="418"
         y="54"
         ry="6" />
    </mask>
    <mask
       maskUnits="userSpaceOnUse"
       id="mask2011">
      <rect
         style="opacity:1;fill:#ffffff;fill-opacity:1;stroke-width:0.75;stroke-linecap:round;stroke-linejoin:round"
         id="rect2013"
         width="42"
         height="42"
         x="291"
         y="223"
         ry="9" />
    </mask>
    <mask
       maskUnits="userSpaceOnUse"
       id="mask2017">
      <rect
         style="opacity:1;fill:#ffffff;fill-opacity:1;stroke-width:0.75;stroke-linecap:round;stroke-linejoin:round"
         id="rect2019"
         width="56"
         height="56"
         x="292"
         y="144"
         ry="12" />
    </mask>
    <mask
       maskUnits="userSpaceOnUse"
       id="mask2023">
      <rect
         style="opacity:1;fill:#ffffff;fill-opacity:1;stroke-width:0.75;stroke-linecap:round;stroke-linejoin:round"
         id="rect2025"
         width="84"
         height="84"
         x="294"
         y="34"
         ry="18" />
    </mask>
    <mask
       maskUnits="userSpaceOnUse"
       id="mask2029">
      <rect
         style="opacity:1;fill:#ffffff;fill-opacity:1;stroke-width:0.75;stroke-linecap:round;stroke-linejoin:round"
         id="rect2031"
         width="224"
         height="224"
         x="32"
         y="44"
         ry="48" />
    </mask>
    <mask
       maskUnits="userSpaceOnUse"
       id="mask2961">
      <rect
         style="opacity:1;fill:#ffffff;stroke-width:2;stroke-linecap:square"
         id="rect2963"
         width="16"
         height="16"
         x="416"
         y="140"
         ry="4" />
    </mask>
    <mask
       maskUnits="userSpaceOnUse"
       id="mask2955">
      <rect
         style="opacity:1;fill:#ffffff;stroke-width:2;stroke-linecap:square"
         id="rect2957"
         width="20"
         height="20"
         x="418"
         y="102"
         ry="4" />
    </mask>
    <mask
       maskUnits="userSpaceOnUse"
       id="mask2949">
      <rect
         style="opacity:1;fill:#ffffff;stroke-width:2;stroke-linecap:square"
         id="rect2951"
         width="28"
         height="28"
         x="418"
         y="54"
         ry="6" />
    </mask>
    <mask
       maskUnits="userSpaceOnUse"
       id="mask2943">
      <rect
         style="opacity:1;fill:#ffffff;stroke-width:2;stroke-linecap:square"
         id="rect2945"
         width="42"
         height="42"
         x="291"
         y="223"
         ry="9" />
    </mask>
    <mask
       maskUnits="userSpaceOnUse"
       id="mask2937">
      <rect
         style="opacity:1;fill:#ffffff;stroke-width:2;stroke-linecap:square"
         id="rect2939"
         width="56"
         height="56"
         x="292"
         y="144"
         ry="12" />
    </mask>
    <mask
       maskUnits="userSpaceOnUse"
       id="mask2931">
      <rect
         style="opacity:1;fill:#ffffff;stroke-width:2;stroke-linecap:square"
         id="rect2933"
         width="84"
         height="84"
         x="294"
         y="34"
         ry="18" />
    </mask>
    <mask
       maskUnits="userSpaceOnUse"
       id="mask2925">
      <rect
         style="opacity:1;fill:#ffffff;stroke-width:2;stroke-linecap:square"
         id="rect2927"
         width="224"
         height="224"
         x="32"
         y="44"
         ry="48" />
    </mask>
    <mask
       maskUnits="userSpaceOnUse"
       id="mask3136">
      <rect
         style="fill:#ffffff;fill-opacity:1"
         id="rect3138"
         width="224"
         height="224"
         x="32"
         y="44"
         ry="48" />
    </mask>
    <mask
       maskUnits="userSpaceOnUse"
       id="mask3140">
      <rect
         style="fill:#ffffff;fill-opacity:1"
         id="rect3142"
         width="224"
         height="224"
         x="32"
         y="44"
         ry="48" />
    </mask>
    <mask
       maskUnits="userSpaceOnUse"
       id="mask3144">
      <rect
         style="fill:#ffffff;fill-opacity:1"
         id="rect3146"
         width="84"
         height="84"
         x="294"
         y="34"
         ry="18" />
    </mask>
    <mask
       maskUnits="userSpaceOnUse"
       id="mask3148">
      <rect
         style="fill:#ffffff;fill-opacity:1"
         id="rect3150"
         width="84"
         height="84"
         x="294"
         y="34"
         ry="18" />
    </mask>
    <mask
       maskUnits="userSpaceOnUse"
       id="mask3152">
      <rect
         style="fill:#ffffff;fill-opacity:1"
         id="rect3154"
         width="56"
         height="56"
         x="292"
         y="144"
         ry="12" />
    </mask>
    <mask
       maskUnits="userSpaceOnUse"
       id="mask3156">
      <rect
         style="fill:#ffffff;fill-opacity:1"
         id="rect3158"
         width="56"
         height="56"
         x="292"
         y="144"
         ry="12" />
    </mask>
    <mask
       maskUnits="userSpaceOnUse"
       id="mask3160">
      <rect
         style="fill:#ffffff;fill-opacity:1"
         id="rect3162"
         width="42"
         height="42"
         x="291"
         y="223"
         ry="9" />
    </mask>
    <mask
       maskUnits="userSpaceOnUse"
       id="mask3164">
      <rect
         style="fill:#ffffff;fill-opacity:1"
         id="rect3166"
         width="42"
         height="42"
         x="291"
         y="223"
         ry="9" />
    </mask>
    <mask
       maskUnits="userSpaceOnUse"
       id="mask3168">
      <rect
         style="fill:#ffffff;fill-opacity:1"
         id="rect3170"
         width="16"
         height="16"
         x="416"
         y="140"
         ry="4" />
    </mask>
    <mask
       maskUnits="userSpaceOnUse"
       id="mask3172">
      <rect
         style="fill:#ffffff;fill-opacity:1"
         id="rect3174"
         width="16"
         height="16"
         x="416"
         y="140"
         ry="4" />
    </mask>
    <mask
       maskUnits="userSpaceOnUse"
       id="mask3176">
      <rect
         style="fill:#ffffff;fill-opacity:1"
         id="rect3178"
         width="20"
         height="20"
         x="418"
         y="102"
         ry="4" />
    </mask>
    <mask
       maskUnits="userSpaceOnUse"
       id="mask3180">
      <rect
         style="fill:#ffffff;fill-opacity:1"
         id="rect3182"
         width="20"
         height="20"
         x="418"
         y="102"
         ry="4" />
    </mask>
    <mask
       maskUnits="userSpaceOnUse"
       id="mask3184">
      <rect
         style="fill:#ffffff;fill-opacity:1"
         id="rect3186"
         width="28"
         height="28"
         x="418"
         y="54"
         ry="6" />
    </mask>
    <mask
       maskUnits="userSpaceOnUse"
       id="mask3188">
      <rect
         style="fill:#ffffff;fill-opacity:1"
         id="rect3190"
         width="28"
         height="28"
         x="418"
         y="54"
         ry="6" />
    </mask>
  </defs>
  <g
     id="Baseplate"
     style="display:none">
    <text
       y="19.774782"
       xml:space="preserve"
       x="15.006946"
       style="font-style:normal;font-variant:normal;font-weight:normal;font-stretch:normal;line-height:0%;font-family:'DejaVu Sans';-inkscape-font-specification:'DejaVu Sans';display:inline;fill:#000000;fill-opacity:1;stroke:none;enable-background:new"
       inkscape:label="context"
       id="context"><tspan
         style="font-style:normal;font-variant:normal;font-weight:normal;font-stretch:normal;font-size:18px;line-height:1.25;font-family:'DejaVu Sans';-inkscape-font-specification:'DejaVu Sans'"
         y="19.774782"
         x="15.006946"
         sodipodi:role="line"
         id="tspan3933">apps</tspan></text>
    <text
       y="19.774782"
       xml:space="preserve"
       x="122.48839"
       style="font-style:normal;font-variant:normal;font-weight:bold;font-stretch:normal;line-height:0%;font-family:'DejaVu Sans';-inkscape-font-specification:'DejaVu Sans Bold';text-align:start;writing-mode:lr-tb;text-anchor:start;display:inline;fill:#000000;fill-opacity:1;stroke:none;enable-background:new"
       inkscape:label="icon-name"
       id="icon-name"><tspan
         style="font-style:normal;font-variant:normal;font-weight:bold;font-stretch:normal;font-size:18px;line-height:1.25;font-family:'DejaVu Sans';-inkscape-font-specification:'DejaVu Sans Bold'"
         y="19.774782"
         x="122.48839"
         sodipodi:role="line"
         id="tspan3937">workspace-switcher-top-left</tspan></text>
    <rect
       style="fill:#ffffff"
       id="256x256"
       width="256"
       height="256"
       x="16"
       y="28" />
    <rect
       style="fill:#ffffff"
       id="96x96"
       width="96"
       height="96"
       x="288"
       y="28" />
    <rect
       style="fill:#ffffff"
       id="64x64"
       width="64"
       height="64"
       x="288"
       y="140" />
    <rect
       style="fill:#ffffff"
       id="48x48"
       width="48"
       height="48"
       x="288"
       y="220" />
    <rect
       style="fill:#ffffff"
       id="32x32"
       width="32"
       height="32"
       x="416"
       y="52" />
    <rect
       style="fill:#ffffff"
       id="24x24"
       width="24"
       height="24"
       x="416"
       y="100" />
    <rect
       style="fill:#ffffff"
       id="22x22"
       width="22"
       height="22"
       x="417"
       y="101" />
    <rect
       style="fill:#ffffff"
       id="16x16"
       width="16"
       height="16"
       x="416"
       y="140" />
  </g>
  <g
     id="Shadow">
    <rect
       style="opacity:0.2;fill:#000000"
       id="rect651"
       width="224"
       height="224"
       x="32"
       y="46"
       ry="48" />
    <rect
       style="opacity:0.2;fill:#000000"
       id="rect769"
       width="84"
       height="85"
       x="294"
       y="34"
       ry="18" />
    <rect
       style="opacity:0.2;fill:#000000;fill-opacity:1"
       id="rect1131"
       width="56"
       height="56"
       x="292"
       y="145"
       ry="12" />
    <rect
       style="opacity:0.2;fill:#000000;fill-opacity:1"
       id="rect1261"
       width="42"
       height="42"
       x="291"
       y="224"
       ry="9" />
    <rect
       style="opacity:0.2;fill:#000000;fill-opacity:1"
       id="rect1364"
       width="28"
       height="29"
       x="418"
       y="54"
       ry="6" />
    <rect
       style="opacity:0.2;fill:#000000;fill-opacity:1"
       id="rect1398"
       width="16"
       height="16"
       x="416"
       y="141"
       ry="4" />
    <rect
       style="opacity:0.2;fill:#000000;fill-opacity:1"
       id="rect1432"
       width="20"
       height="20"
       x="418"
       y="103"
       ry="4" />
  </g>
  <g
     id="Background">
    <path
       id="rect597"
       style="fill:#0245c5;fill-opacity:1"
       d="M 144 44 L 32 156 L 32 220 C 32 246.59197 53.408027 268 80 268 L 208 268 C 234.59197 268 256 246.59197 256 220 L 256 92 C 256 65.408027 234.59197 44 208 44 L 144 44 z " />
    <path
       id="rect771"
       style="opacity:1;fill:#0245c5;fill-opacity:1"
       d="M 336 34 L 294 76 L 294 100 C 294 109.97199 302.02801 118 312 118 L 360 118 C 369.97199 118 378 109.97199 378 100 L 378 52 C 378 42.02801 369.97199 34 360 34 L 336 34 z " />
    <path
       id="rect1133"
       style="opacity:1;fill:#0245c5;fill-opacity:1"
       d="M 320 144 L 292 172 L 292 188 C 292 194.64799 297.35201 200 304 200 L 336 200 C 342.64799 200 348 194.64799 348 188 L 348 156 C 348 149.35201 342.64799 144 336 144 L 320 144 z " />
    <path
       id="rect1263"
       style="opacity:1;fill:#0245c5;fill-opacity:1"
       d="M 312 223 L 291 244 L 291 256 C 291 260.986 295.014 265 300 265 L 324 265 C 328.986 265 333 260.986 333 256 L 333 232 C 333 227.014 328.986 223 324 223 L 312 223 z " />
    <path
       id="rect1366"
       style="opacity:1;fill:#0245c5;fill-opacity:1"
       d="M 432 54 L 418 68 L 418 76 C 418 79.323997 420.676 82 424 82 L 440 82 C 443.324 82 446 79.323997 446 76 L 446 60 C 446 56.676003 443.324 54 440 54 L 432 54 z " />
    <path
       id="rect1400"
       style="opacity:1;fill:#0245c5;fill-opacity:1"
       d="M 424 140 L 416 148 L 416 152 C 416 154.216 417.784 156 420 156 L 428 156 C 430.216 156 432 154.216 432 152 L 432 144 C 432 141.784 430.216 140 428 140 L 424 140 z " />
    <path
       id="rect1434"
       style="opacity:1;fill:#0245c5;fill-opacity:1"
       d="M 428 102 L 418 112 L 418 118 C 418 120.216 419.784 122 422 122 L 434 122 C 436.216 122 438 120.216 438 118 L 438 106 C 438 103.784 436.216 102 434 102 L 428 102 z " />
  </g>
  <g
     id="g3226">
    <g
       id="g2921">
      <rect
         style="opacity:0.2;fill:#ffffff;stroke-width:1.14286;stroke-linecap:square"
         id="rect2871"
         width="8"
         height="16"
         x="424"
         y="140"
         mask="url(#mask2961)" />
      <rect
         style="opacity:0.2;fill:#ffffff;stroke-width:2;stroke-linecap:square"
         id="rect2900"
         width="10"
         height="20"
         x="428"
         y="102"
         mask="url(#mask2955)" />
      <rect
         style="opacity:0.2;fill:#ffffff;stroke-width:2;stroke-linecap:square"
         id="rect2904"
         width="14"
         height="28"
         x="432"
         y="54"
         mask="url(#mask2949)" />
      <rect
         style="opacity:0.2;fill:#ffffff;stroke-width:2;stroke-linecap:square"
         id="rect2906"
         width="21"
         height="42"
         x="312"
         y="223"
         mask="url(#mask2943)" />
      <rect
         style="opacity:0.2;fill:#ffffff;stroke-width:2;stroke-linecap:square"
         id="rect2908"
         width="28"
         height="56"
         x="320"
         y="144"
         mask="url(#mask2937)" />
      <rect
         style="opacity:0.2;fill:#ffffff;stroke-width:2;stroke-linecap:square"
         id="rect2910"
         width="42"
         height="84"
         x="336"
         y="34"
         mask="url(#mask2931)" />
      <rect
         style="opacity:0.2;fill:#ffffff;stroke-width:2;stroke-linecap:square"
         id="rect2912"
         width="112"
         height="224"
         x="144"
         y="44"
         mask="url(#mask2925)" />
    </g>
    <g
       id="g922">
      <rect
         style="opacity:0.1;fill:#ffffff;fill-opacity:1;stroke-width:0.75;stroke-linecap:round;stroke-linejoin:round"
         id="rect1858"
         width="8"
         height="16"
         x="424"
         y="140"
         mask="url(#mask1989)"
         transform="matrix(0,-1,-1,0,572,572)" />
      <rect
         style="opacity:0.1;fill:#ffffff;fill-opacity:1;stroke-width:0.75;stroke-linecap:round;stroke-linejoin:round"
         id="rect1912"
         width="10"
         height="20"
         x="428"
         y="102"
         mask="url(#mask1995)"
         transform="matrix(0,-1,-1,0,540,540)" />
      <rect
         style="opacity:0.1;fill:#ffffff;fill-opacity:1;stroke-width:0.75;stroke-linecap:round;stroke-linejoin:round"
         id="rect1914"
         width="14"
         height="28"
         x="432"
         y="54"
         mask="url(#mask2005)"
         transform="matrix(0,-1,-1,0,500,500)" />
      <rect
         style="opacity:0.1;fill:#ffffff;fill-opacity:1;stroke-width:0.75;stroke-linecap:round;stroke-linejoin:round"
         id="rect1918"
         width="21"
         height="42"
         x="312"
         y="223"
         mask="url(#mask2011)"
         transform="matrix(0,-1,-1,0,556,556)" />
      <rect
         style="opacity:0.1;fill:#ffffff;fill-opacity:1;stroke-width:0.75;stroke-linecap:round;stroke-linejoin:round"
         id="rect1920"
         width="28"
         height="56"
         x="320"
         y="144"
         mask="url(#mask2017)"
         transform="matrix(0,-1,-1,0,492,492)" />
      <rect
         style="opacity:0.1;fill:#ffffff;fill-opacity:1;stroke-width:0.75;stroke-linecap:round;stroke-linejoin:round"
         id="rect1922"
         width="42"
         height="84"
         x="336"
         y="34"
         mask="url(#mask2023)"
         transform="matrix(0,-1,-1,0,412,412)" />
      <rect
         style="opacity:0.1;fill:#ffffff;fill-opacity:1;stroke-width:0.75;stroke-linecap:round;stroke-linejoin:round"
         id="rect1924"
         width="112"
         height="224"
         x="144"
         y="44"
         mask="url(#mask2029)"
         transform="matrix(0,-1,-1,0,300,300)" />
    </g>
  </g>
  <g
     id="g3244">
    <g
       id="g3208">
      <rect
         style="fill:#000000;fill-opacity:1;stroke-width:2;stroke-linecap:square;opacity:0.2"
         id="rect2712"
         width="112"
         height="112"
         x="32"
         y="46"
         mask="url(#mask3140)" />
      <rect
         style="fill:#000000;fill-opacity:1;stroke-width:2;stroke-linecap:square;opacity:0.2"
         id="rect2766"
         width="42"
         height="42"
         x="294"
         y="35"
         mask="url(#mask3148)" />
      <rect
         style="fill:#000000;fill-opacity:1;stroke-width:2;stroke-linecap:square;opacity:0.2"
         id="rect2768"
         width="28"
         height="28"
         x="292"
         y="145"
         mask="url(#mask3156)" />
      <rect
         style="fill:#000000;fill-opacity:1;stroke-width:2;stroke-linecap:square;opacity:0.2"
         id="rect2770"
         width="21"
         height="21"
         x="291"
         y="224"
         mask="url(#mask3164)" />
      <rect
         style="fill:#000000;fill-opacity:1;stroke-width:2;stroke-linecap:square;opacity:0.2"
         id="rect2772"
         width="14"
         height="14"
         x="418"
         y="55"
         mask="url(#mask3188)" />
      <rect
         style="fill:#000000;fill-opacity:1;stroke-width:2;stroke-linecap:square;opacity:0.2"
         id="rect2774"
         width="10"
         height="10"
         x="418"
         y="103"
         mask="url(#mask3180)" />
      <rect
         style="fill:#000000;fill-opacity:1;stroke-width:2;stroke-linecap:square;opacity:0.2"
         id="rect2776"
         width="8"
         height="8"
         x="416"
         y="141"
         mask="url(#mask3172)" />
    </g>
    <g
       id="g3199">
      <rect
         style="fill:#e4e4e4;fill-opacity:1;stroke-width:2;stroke-linecap:square"
         id="rect2219"
         width="112"
         height="112"
         x="32"
         y="44"
         mask="url(#mask3136)" />
      <rect
         style="fill:#e4e4e4;fill-opacity:1;stroke-width:2;stroke-linecap:square"
         id="rect2689"
         width="42"
         height="42"
         x="294"
         y="34"
         mask="url(#mask3144)" />
      <rect
         style="fill:#e4e4e4;fill-opacity:1;stroke-width:2;stroke-linecap:square"
         id="rect2691"
         width="28"
         height="28"
         x="292"
         y="144"
         mask="url(#mask3152)" />
      <rect
         style="fill:#e4e4e4;fill-opacity:1;stroke-width:2;stroke-linecap:square"
         id="rect2693"
         width="21"
         height="21"
         x="291"
         y="223"
         mask="url(#mask3160)" />
      <rect
         style="fill:#e4e4e4;fill-opacity:1;stroke-width:2;stroke-linecap:square"
         id="rect2695"
         width="14"
         height="14"
         x="418"
         y="54"
         mask="url(#mask3184)" />
      <rect
         style="fill:#e4e4e4;fill-opacity:1;stroke-width:2;stroke-linecap:square"
         id="rect2697"
         width="10"
         height="10"
         x="418"
         y="102"
         mask="url(#mask3176)" />
      <rect
         style="fill:#e4e4e4;fill-opacity:1;stroke-width:2;stroke-linecap:square"
         id="rect2699"
         width="8"
         height="8"
         x="416"
         y="140"
         mask="url(#mask3168)" />
    </g>
  </g>
  <g
     id="Highlights">
    <path
       id="rect653"
       style="opacity:0.2;fill:#ffffff"
       d="M 80,44 C 53.408027,44 32,65.408027 32,92 v 2 C 32,67.408027 53.408027,46 80,46 h 128 c 26.59197,0 48,21.408027 48,48 V 92 C 256,65.408027 234.59197,44 208,44 Z"
       sodipodi:nodetypes="sscsscsss" />
    <path
       id="rect773"
       style="opacity:0.2;fill:#ffffff"
       d="m 312,34 c -9.97199,0 -18,8.02801 -18,18 v 1 c 0,-9.97199 8.02801,-18 18,-18 h 48 c 9.97199,0 18,8.02801 18,18 v -1 c 0,-9.97199 -8.02801,-18 -18,-18 z" />
    <path
       id="rect1135"
       style="opacity:0.2;fill:#ffffff;fill-opacity:1"
       d="m 304,144 c -6.64799,0 -12,5.35201 -12,12 v 1 c 0,-6.64799 5.35201,-12 12,-12 h 32 c 6.64799,0 12,5.35201 12,12 v -1 c 0,-6.64799 -5.35201,-12 -12,-12 z" />
    <path
       id="rect1265"
       style="opacity:0.2;fill:#ffffff;fill-opacity:1"
       d="m 300,223 c -4.986,0 -9,4.014 -9,9 v 1 c 0,-4.986 4.014,-9 9,-9 h 24 c 4.986,0 9,4.014 9,9 v -1 c 0,-4.986 -4.014,-9 -9,-9 z" />
    <path
       id="rect1368"
       style="opacity:0.2;fill:#ffffff;fill-opacity:1"
       d="m 424,54 c -3.324,0 -6,2.676003 -6,6 v 1 c 0,-3.323997 2.676,-6 6,-6 h 16 c 3.324,0 6,2.676003 6,6 v -1 c 0,-3.323997 -2.676,-6 -6,-6 z" />
    <path
       id="rect1402"
       style="opacity:0.2;fill:#ffffff;fill-opacity:1"
       d="m 420,140 c -2.216,0 -4,1.784 -4,4 v 1 c 0,-2.216 1.784,-4 4,-4 h 8 c 2.216,0 4,1.784 4,4 v -1 c 0,-2.216 -1.784,-4 -4,-4 z" />
    <path
       id="rect1436"
       style="opacity:0.2;fill:#ffffff;fill-opacity:1"
       d="m 422,102 c -2.216,0 -4,1.784 -4,4 v 1 c 0,-2.216 1.784,-4 4,-4 h 12 c 2.216,0 4,1.784 4,4 v -1 c 0,-2.216 -1.784,-4 -4,-4 z" />
  </g>
</svg>
