<?xml version="1.0" encoding="UTF-8" standalone="no"?>
<!-- Created with Inkscape (http://www.inkscape.org/) -->

<svg
   width="480"
   height="300"
   viewBox="0 0 480 300"
   version="1.1"
   id="svg5"
   inkscape:version="1.2.2 (1:1.2.2+202305151914+b0a8486541)"
   sodipodi:docname="yakuake.svg"
   xmlns:inkscape="http://www.inkscape.org/namespaces/inkscape"
   xmlns:sodipodi="http://sodipodi.sourceforge.net/DTD/sodipodi-0.dtd"
   xmlns="http://www.w3.org/2000/svg"
   xmlns:svg="http://www.w3.org/2000/svg">
  <sodipodi:namedview
     id="namedview7"
     pagecolor="#888888"
     bordercolor="#000000"
     borderopacity="0.25"
     inkscape:showpageshadow="true"
     inkscape:pageopacity="0"
     inkscape:pagecheckerboard="0"
     inkscape:deskcolor="#888888"
     inkscape:document-units="px"
     showgrid="false"
     showborder="false"
     inkscape:zoom="2.6866667"
     inkscape:cx="240.07444"
     inkscape:cy="150"
     inkscape:window-width="1920"
     inkscape:window-height="1008"
     inkscape:window-x="0"
     inkscape:window-y="0"
     inkscape:window-maximized="1"
     inkscape:current-layer="g5284" />
  <defs
     id="defs2" />
  <g
     id="Baseplate"
     style="display:none">
    <text
       y="19.774782"
       xml:space="preserve"
       x="15.006946"
       style="font-style:normal;font-variant:normal;font-weight:normal;font-stretch:normal;line-height:0%;font-family:'DejaVu Sans';-inkscape-font-specification:'DejaVu Sans';display:inline;fill:#000000;fill-opacity:1;stroke:none;enable-background:new"
       inkscape:label="context"
       id="context"><tspan
         style="font-style:normal;font-variant:normal;font-weight:normal;font-stretch:normal;font-size:18px;line-height:1.25;font-family:'DejaVu Sans';-inkscape-font-specification:'DejaVu Sans'"
         y="19.774782"
         x="15.006946"
         sodipodi:role="line"
         id="tspan3933">apps</tspan></text>
    <text
       y="19.774782"
       xml:space="preserve"
       x="122.48839"
       style="font-style:normal;font-variant:normal;font-weight:bold;font-stretch:normal;line-height:0%;font-family:'DejaVu Sans';-inkscape-font-specification:'DejaVu Sans Bold';text-align:start;writing-mode:lr-tb;text-anchor:start;display:inline;fill:#000000;fill-opacity:1;stroke:none;enable-background:new"
       inkscape:label="icon-name"
       id="icon-name"><tspan
         style="font-style:normal;font-variant:normal;font-weight:bold;font-stretch:normal;font-size:18px;line-height:1.25;font-family:'DejaVu Sans';-inkscape-font-specification:'DejaVu Sans Bold'"
         y="19.774782"
         x="122.48839"
         sodipodi:role="line"
         id="tspan3937">yakuake</tspan></text>
    <rect
       style="fill:#ffffff"
       id="256x256"
       width="256"
       height="256"
       x="16"
       y="28" />
    <rect
       style="fill:#ffffff"
       id="96x96"
       width="96"
       height="96"
       x="288"
       y="28" />
    <rect
       style="fill:#ffffff"
       id="64x64"
       width="64"
       height="64"
       x="288"
       y="140" />
    <rect
       style="fill:#ffffff"
       id="48x48"
       width="48"
       height="48"
       x="288"
       y="220" />
    <rect
       style="fill:#ffffff"
       id="32x32"
       width="32"
       height="32"
       x="416"
       y="52" />
    <rect
       style="fill:#ffffff"
       id="24x24"
       width="24"
       height="24"
       x="416"
       y="100" />
    <rect
       style="fill:#ffffff"
       id="22x22"
       width="22"
       height="22"
       x="417"
       y="101" />
    <rect
       style="fill:#ffffff"
       id="16x16"
       width="16"
       height="16"
       x="416"
       y="140" />
  </g>
  <g
     id="Shadow">
    <rect
       style="opacity:0.2;fill:#000000"
       id="rect651"
       width="224"
       height="224"
       x="32"
       y="46"
       ry="48" />
    <rect
       style="opacity:0.2;fill:#000000"
       id="rect769"
       width="84"
       height="85"
       x="294"
       y="34"
       ry="18" />
    <rect
       style="opacity:0.2;fill:#000000;fill-opacity:1"
       id="rect1131"
       width="56"
       height="56"
       x="292"
       y="145"
       ry="12" />
    <rect
       style="opacity:0.2;fill:#000000;fill-opacity:1"
       id="rect1261"
       width="42"
       height="42"
       x="291"
       y="224"
       ry="9" />
    <rect
       style="opacity:0.2;fill:#000000;fill-opacity:1"
       id="rect1364"
       width="28"
       height="29"
       x="418"
       y="54"
       ry="6" />
    <rect
       style="opacity:0.2;fill:#000000;fill-opacity:1"
       id="rect1398"
       width="16"
       height="16"
       x="416"
       y="141"
       ry="4" />
    <rect
       style="opacity:0.2;fill:#000000;fill-opacity:1"
       id="rect1432"
       width="20"
       height="20"
       x="418"
       y="103"
       ry="4" />
  </g>
  <g
     id="Background">
    <rect
       style="fill:#4f4f4f;fill-opacity:1"
       id="rect597"
       width="224"
       height="224"
       x="32"
       y="44"
       ry="48" />
    <rect
       style="opacity:1;fill:#4f4f4f;fill-opacity:1"
       id="rect771"
       width="84"
       height="84"
       x="294"
       y="34"
       ry="18" />
    <rect
       style="opacity:1;fill:#4f4f4f;fill-opacity:1"
       id="rect1133"
       width="56"
       height="56"
       x="292"
       y="144"
       ry="12" />
    <rect
       style="opacity:1;fill:#4f4f4f;fill-opacity:1"
       id="rect1263"
       width="42"
       height="42"
       x="291"
       y="223"
       ry="9" />
    <rect
       style="opacity:1;fill:#4f4f4f;fill-opacity:1"
       id="rect1366"
       width="28"
       height="28"
       x="418"
       y="54"
       ry="6" />
    <rect
       style="opacity:1;fill:#4f4f4f;fill-opacity:1"
       id="rect1400"
       width="16"
       height="16"
       x="416"
       y="140"
       ry="4" />
    <rect
       style="opacity:1;fill:#4f4f4f;fill-opacity:1"
       id="rect1434"
       width="20"
       height="20"
       x="418"
       y="102"
       ry="4" />
  </g>
  <g
     id="g5284">
    <g
       id="g5402"
       transform="matrix(0.5,0,0,0.5,207.5,114)">
      <path
         d="M 423.82812,61 421,63.82812 424.94922,67.77734 421,71.72656 423.82812,74.55468 434.5586,63.82812 431.73046,61 427.77733,64.94922 Z M 431,75 v 4 h 12 v -4 z"
         style="fill:#000000;stroke-width:6.3246;stroke-linecap:square;opacity:0.2"
         id="path5452" />
      <path
         d="m 431,74 h 12 v 4 h -12 z"
         style="fill:#3498db;stroke-width:3.1623;stroke-linecap:square"
         id="path5294"
         sodipodi:nodetypes="ccccc" />
      <path
         d="m 426.65675,65.071338 5.07117,-5.071337 2.82843,2.828426 -5.0715,5.071342 z"
         style="fill:#236ac6;fill-opacity:1;stroke-width:1.58115;stroke-linecap:square"
         id="path5350"
         sodipodi:nodetypes="ccccc" />
      <path
         id="path5508"
         style="fill:#ffffff;fill-opacity:1;stroke-width:3.16245;stroke-linecap:square;opacity:0.1"
         d="M 431.72656 60 L 426.65625 65.070312 L 427.15625 65.570312 L 431.72656 61 L 434.05469 63.328125 L 434.55469 62.828125 L 431.72656 60 z " />
      <path
         d="M 421,70.727921 424.94975,66.778175 421,62.828428 423.82817,60 l 6.77842,6.778172 -6.77817,6.778177 z"
         style="fill:#3498db;stroke-width:1.58115;stroke-linecap:square"
         id="path5322"
         sodipodi:nodetypes="ccccccc" />
      <path
         id="path5564"
         style="fill:#ffffff;stroke-width:3.16146;stroke-linecap:square;opacity:0.1"
         d="M 423.82812 60 L 421 62.828125 L 421.5 63.328125 L 423.82812 61 L 430.10547 67.277344 L 430.60547 66.777344 L 423.82812 60 z M 424.44922 67.277344 L 421 70.726562 L 421.5 71.226562 L 424.94922 67.777344 L 424.44922 67.277344 z " />
      <path
         d="m 431,74 h 12 v 1 h -12 z"
         style="fill:#ffffff;stroke-width:3.16229;stroke-linecap:square;opacity:0.1"
         id="path5480" />
    </g>
    <g
       id="g5234"
       transform="matrix(0.49999563,0,0,0.49999563,272.00131,-9.4988769)">
      <path
         d="M 300.82812,234 298,236.82812 l 6.07227,6.07227 -6.07227,6.07031 2.82812,2.82813 14.97081,-14.9704 -2.82812,-2.82813 -6.07031,6.07226 z m 11.17209,17.99995 v 4 h 14 v -4 z"
         style="opacity:0.2;fill:#000000;fill-opacity:1;stroke-width:2.16025;stroke-linecap:square"
         id="path5095"
         sodipodi:nodetypes="cccccccccccccc" />
      <path
         d="m 312.00021,250.99995 h 14 v 4 h -14 z"
         style="fill:#3498db;stroke-width:2.16025;stroke-linecap:square"
         id="path5047" />
      <path
         d="m 304.48553,241.48558 8.48528,-8.48528 2.82843,2.82843 -8.48529,8.48528 z"
         style="fill:#236ac6;stroke-width:2.06757;stroke-linecap:square"
         id="path5123" />
      <path
         d="m 312.97103,233.0003 -8.48633,8.48438 0.49999,0.49999 7.98633,-7.98437 2.32813,2.32813 0.5,-0.5 z"
         style="opacity:0.1;fill:#ffffff;fill-opacity:1;stroke-width:2.06757;stroke-linecap:square"
         id="path5179" />
      <path
         d="m 298,235.82822 6.07128,6.07128 -6.07128,6.07129 2.82843,2.82842 8.8997,-8.89971 -8.8997,-8.89971 z"
         style="fill:#3498db;fill-opacity:1;stroke-width:2;stroke-linecap:square"
         id="path5019" />
      <path
         d="M 300.82812,233 298,235.82812 l 0.5,0.5 2.32812,-2.32812 8.4004,8.40039 0.5,-0.5 z m 2.74219,9.40039 -5.57031,5.57031 0.5,0.5 5.57031,-5.57031 z"
         style="opacity:0.1;fill:#ffffff;fill-opacity:1;stroke-width:2;stroke-linecap:square"
         id="path5207" />
      <path
         d="m 312.00021,250.99995 h 14 v 1 h -14 z"
         style="opacity:0.1;fill:#ffffff;stroke-width:2;stroke-linecap:square"
         id="path5151" />
    </g>
    <g
       id="g4325"
       transform="matrix(0.5,0,0,0.5,272,-18)">
      <path
         d="m 304.24526,160 -4.2461,4.2422 7.90236,7.90234 -7.90236,7.89844 4.2461,4.24218 20.03906,-20.04296 -4.24218,-4.2422 -7.89844,7.90236 z m 15.7539,24 v 6 h 20 v -6 z"
         style="fill:#000000;stroke-width:6.32458;stroke-linecap:square;opacity:0.2"
         id="path4375" />
      <path
         d="m 320,182 h 20 v 6 h -20 z"
         style="fill:#3498db;stroke-width:3.16229;stroke-linecap:square"
         id="path4130"
         sodipodi:nodetypes="ccccc" />
      <path
         d="M 309.89868,168.14267 320.04168,158 l 4.24264,4.24264 -10.143,10.14268 z"
         style="fill:#236ac6;fill-opacity:1;stroke-width:3.16229;stroke-linecap:square"
         id="path4089"
         sodipodi:nodetypes="ccccc" />
      <path
         id="path4186"
         style="opacity:0.1;fill:#ffffff;fill-opacity:1;stroke-width:3.16229;stroke-linecap:square"
         d="m 320.04102,158 -12.14063,12.14258 1,1 L 320.04102,160 l 3.24414,3.24219 1,-1 z" />
      <path
         d="m 300.00004,178.04163 7.89949,-7.8995 -7.89949,-7.89949 4.24264,-4.24264 12.14213,12.14213 -12.14213,12.14214 z"
         style="fill:#3498db;stroke-width:3.16229;stroke-linecap:square"
         id="path4158"
         sodipodi:nodetypes="ccccccc" />
      <path
         id="path4243"
         style="opacity:0.1;fill:#ffffff;stroke-width:3.16229;stroke-linecap:square"
         d="M 304.24219,158 300,162.24219 l 1,1 3.24219,-3.24219 11.14258,11.14258 1,-1 z m 2.6582,13.14258 -6.90039,6.89844 1,1 6.90039,-6.89844 z" />
      <path
         d="m 320,182 h 20 v 2 h -20 z"
         style="opacity:0.1;fill:#ffffff;stroke-width:2;stroke-linecap:square"
         id="path4299"
         sodipodi:nodetypes="ccccc" />
    </g>
    <g
       id="g3091">
      <path
         d="m 300.82833,234 -2.82812,2.82812 6.07227,6.07227 -6.07227,6.07031 2.82812,2.82813 14.97081,-14.9704 -2.82812,-2.82813 -6.07031,6.07226 z m 11.17188,19 v 4 h 14 v -4 z"
         style="opacity:0.2;fill:#000000;fill-opacity:1;stroke-width:2.16025;stroke-linecap:square"
         id="path3169"
         sodipodi:nodetypes="cccccccccccccc" />
      <path
         d="m 312.00021,252.00002 h 14 v 4 h -14 z"
         style="fill:#3498db;stroke-width:2.16025;stroke-linecap:square"
         id="path3279"
         sodipodi:nodetypes="ccccc" />
      <path
         d="M 304.48523,241.48528 312.97051,233 l 2.82843,2.82843 -8.48529,8.48528 z"
         style="fill:#236ac6;stroke-width:2.06757;stroke-linecap:square"
         id="path3198"
         sodipodi:nodetypes="ccccc" />
      <path
         d="m 312.97081,233.0003 -8.48633,8.48438 0.49999,0.49999 7.98633,-7.98437 2.32813,2.32813 0.5,-0.5 z"
         style="opacity:0.1;fill:#ffffff;fill-opacity:1;stroke-width:2.06757;stroke-linecap:square"
         id="path3065"
         sodipodi:nodetypes="ccccccc" />
      <path
         d="m 298,235.82822 6.07128,6.07128 -6.07128,6.07129 2.82843,2.82842 8.8997,-8.89971 -8.8997,-8.89971 z"
         style="fill:#3498db;fill-opacity:1;stroke-width:2;stroke-linecap:square"
         id="path2383"
         sodipodi:nodetypes="ccccccc" />
      <path
         id="path3009"
         style="opacity:0.1;fill:#ffffff;fill-opacity:1;stroke-width:2;stroke-linecap:square"
         d="M 300.82812,233 298,235.82812 l 0.5,0.5 2.32812,-2.32812 8.4004,8.40039 0.5,-0.5 z m 2.74219,9.40039 -5.57031,5.57031 0.5,0.5 5.57031,-5.57031 z"
         sodipodi:nodetypes="cccccccccccc" />
      <path
         d="m 312.00021,252.00002 h 14 v 1 h -14 z"
         style="opacity:0.1;fill:#ffffff;stroke-width:2;stroke-linecap:square"
         id="path3308"
         sodipodi:nodetypes="ccccc" />
    </g>
    <g
       id="g4077">
      <path
         d="M 304.24414,159 300,163.24414 l 7.90039,7.89844 -7.90039,7.90039 4.24414,4.24219 20.04102,-20.04102 -4.24219,-4.24414 -7.90039,7.90039 z M 320,183 v 6 h 20 v -6 z"
         style="fill:#000000;stroke-width:3.16229;stroke-linecap:square;opacity:0.2"
         id="path4593" />
      <path
         d="m 320,182 h 20 v 6 h -20 z"
         style="fill:#3498db;stroke-width:3.16229;stroke-linecap:square"
         id="path3801"
         sodipodi:nodetypes="ccccc" />
      <path
         d="M 309.89953,168.14213 320.04168,158 l 4.24264,4.24264 -10.14215,10.14214 z"
         style="fill:#236ac6;fill-opacity:1;stroke-width:3.16229;stroke-linecap:square"
         id="path3829"
         sodipodi:nodetypes="ccccc" />
      <path
         id="path4441"
         style="fill:#ffffff;fill-opacity:1;stroke-width:3.16229;stroke-linecap:square;opacity:0.1"
         d="M 320.04102 158 L 307.90039 170.14258 L 308.40039 170.64258 L 320.04102 159 L 323.78516 162.74219 L 324.28516 162.24219 L 320.04102 158 z " />
      <path
         d="m 300.00004,178.04163 7.89949,-7.8995 -7.89949,-7.89949 4.24264,-4.24264 12.14213,12.14213 -12.14213,12.14214 z"
         style="fill:#3498db;stroke-width:3.16229;stroke-linecap:square"
         id="path3857"
         sodipodi:nodetypes="ccccccc" />
      <path
         id="path4497"
         style="fill:#ffffff;stroke-width:3.16229;stroke-linecap:square;opacity:0.1"
         d="M 304.24219 158 L 300 162.24219 L 300.5 162.74219 L 304.24219 159 L 315.88477 170.64258 L 316.38477 170.14258 L 304.24219 158 z M 307.40039 170.64258 L 300 178.04102 L 300.5 178.54102 L 307.90039 171.14258 L 307.40039 170.64258 z " />
      <path
         d="m 320,182 h 20 v 1 h -20 z"
         style="opacity:0.1;fill:#ffffff;stroke-width:2;stroke-linecap:square"
         id="path4413"
         sodipodi:nodetypes="ccccc" />
    </g>
    <g
       id="g3615"
       transform="matrix(2,0,0,2,-288,-412)">
      <path
         d="m 300.82833,233.50002 -2.82812,2.82812 6.07227,6.07227 -6.07227,6.07031 2.82812,2.82813 14.97081,-14.9704 -2.82812,-2.82813 -6.07031,6.07226 z m 11.17188,19 v 4 h 14 v -4 z"
         style="opacity:0.2;fill:#000000;fill-opacity:1;stroke-width:2.16025;stroke-linecap:square"
         id="path3336" />
      <path
         d="m 312.00021,252.00002 h 14 v 4 h -14 z"
         style="fill:#3498db;stroke-width:2.16025;stroke-linecap:square"
         id="path3364" />
      <path
         d="m 304.48553,241.48558 8.48528,-8.48528 2.82843,2.82843 -8.48529,8.48528 z"
         style="fill:#236ac6;stroke-width:2.06757;stroke-linecap:square"
         id="path3392" />
      <path
         id="path3420"
         style="opacity:0.1;fill:#ffffff;fill-opacity:1;stroke-width:2.06757;stroke-linecap:square"
         d="m 312.9707,233 -8.48632,8.48438 0.25,0.25 8.23632,-8.23438 2.57813,2.57812 0.25,-0.25 z" />
      <path
         d="m 298,235.82822 6.07128,6.07128 -6.07128,6.07129 2.82843,2.82842 8.8997,-8.89971 -8.8997,-8.89971 z"
         style="fill:#3498db;fill-opacity:1;stroke-width:2;stroke-linecap:square"
         id="path3476"
         sodipodi:nodetypes="ccccccc" />
      <path
         id="path3532"
         style="opacity:0.1;fill:#ffffff;fill-opacity:1;stroke-width:2;stroke-linecap:square"
         d="M 300.82812,233 298,235.83008 l 0.25,0.24804 2.57812,-2.57812 8.6504,8.65039 0.25,-0.25 z m 2.99415,9.15039 -5.82227,5.82227 0.25,0.25 5.82031,-5.82227 z" />
      <path
         d="m 312.00021,252.00002 h 14 v 0.5 h -14 z"
         style="opacity:0.1;fill:#ffffff;stroke-width:1.41421;stroke-linecap:square"
         id="path3588" />
    </g>
    <g
       id="g4927"
       transform="matrix(4,0,0,4,-1136,-532)">
      <path
         d="M 304.24219,158.5 300,162.74219 l 7.89844,7.90039 -7.89844,7.89844 4.24219,4.24218 20.04102,-20.04101 -4.24219,-4.24219 -7.89844,7.89844 z M 320,182.5 v 6 h 20 v -6 z"
         style="opacity:0.2;fill:#000000;stroke-width:3.16229;stroke-linecap:square"
         id="path4900" />
      <path
         d="m 320,182 h 20 v 6 h -20 z"
         style="fill:#3498db;stroke-width:3.16229;stroke-linecap:square"
         id="path4621" />
      <path
         d="M 309.89953,168.14213 320.04168,158 l 4.24264,4.24264 -10.14215,10.14214 z"
         style="fill:#236ac6;fill-opacity:1;stroke-width:3.16229;stroke-linecap:square"
         id="path4649"
         sodipodi:nodetypes="ccccc" />
      <path
         id="path4705"
         style="opacity:0.1;fill:#ffffff;fill-opacity:1;stroke-width:3.16229;stroke-linecap:square"
         d="m 320.04102,158 -10.14258,10.14258 0.25,0.25 9.89258,-9.89258 3.99218,3.99219 0.25,-0.25 z" />
      <path
         d="m 300,178.04118 7.89949,-7.8995 -7.89949,-7.89949 4.24264,-4.24264 12.14213,12.14213 -12.14213,12.14214 z"
         style="fill:#3498db;stroke-width:3.16229;stroke-linecap:square"
         id="path4677"
         sodipodi:nodetypes="ccccccc" />
      <path
         id="path4761"
         style="opacity:0.1;fill:#ffffff;stroke-width:3.16229;stroke-linecap:square"
         d="M 304.24219,158 300,162.24219 l 0.25,0.25 3.99219,-3.99219 11.89258,11.89258 0.25,-0.25 z m 3.4082,12.39258 -7.65039,7.64844 0.25,0.25 7.65039,-7.64844 z" />
      <path
         d="m 320,182 h 20 v 0.5 h -20 z"
         style="opacity:0.1;fill:#ffffff;stroke-width:1.41421;stroke-linecap:square"
         id="path4832"
         sodipodi:nodetypes="ccccc" />
    </g>
  </g>
  <g
     id="Highlights">
    <path
       id="rect653"
       style="opacity:0.2;fill:#ffffff"
       d="M 80,44 C 53.408027,44 32,65.408027 32,92 v 2 C 32,67.408027 53.408027,46 80,46 h 128 c 26.59197,0 48,21.408027 48,48 V 92 C 256,65.408027 234.59197,44 208,44 Z"
       sodipodi:nodetypes="sscsscsss" />
    <path
       id="rect773"
       style="opacity:0.2;fill:#ffffff"
       d="m 312,34 c -9.97199,0 -18,8.02801 -18,18 v 1 c 0,-9.97199 8.02801,-18 18,-18 h 48 c 9.97199,0 18,8.02801 18,18 v -1 c 0,-9.97199 -8.02801,-18 -18,-18 z" />
    <path
       id="rect1135"
       style="opacity:0.2;fill:#ffffff;fill-opacity:1"
       d="m 304,144 c -6.64799,0 -12,5.35201 -12,12 v 1 c 0,-6.64799 5.35201,-12 12,-12 h 32 c 6.64799,0 12,5.35201 12,12 v -1 c 0,-6.64799 -5.35201,-12 -12,-12 z" />
    <path
       id="rect1265"
       style="opacity:0.2;fill:#ffffff;fill-opacity:1"
       d="m 300,223 c -4.986,0 -9,4.014 -9,9 v 1 c 0,-4.986 4.014,-9 9,-9 h 24 c 4.986,0 9,4.014 9,9 v -1 c 0,-4.986 -4.014,-9 -9,-9 z" />
    <path
       id="rect1368"
       style="opacity:0.2;fill:#ffffff;fill-opacity:1"
       d="m 424,54 c -3.324,0 -6,2.676003 -6,6 v 1 c 0,-3.323997 2.676,-6 6,-6 h 16 c 3.324,0 6,2.676003 6,6 v -1 c 0,-3.323997 -2.676,-6 -6,-6 z" />
    <path
       id="rect1402"
       style="opacity:0.2;fill:#ffffff;fill-opacity:1"
       d="m 420,140 c -2.216,0 -4,1.784 -4,4 v 1 c 0,-2.216 1.784,-4 4,-4 h 8 c 2.216,0 4,1.784 4,4 v -1 c 0,-2.216 -1.784,-4 -4,-4 z" />
    <path
       id="rect1436"
       style="opacity:0.2;fill:#ffffff;fill-opacity:1"
       d="m 422,102 c -2.216,0 -4,1.784 -4,4 v 1 c 0,-2.216 1.784,-4 4,-4 h 12 c 2.216,0 4,1.784 4,4 v -1 c 0,-2.216 -1.784,-4 -4,-4 z" />
  </g>
</svg>
