<?xml version="1.0" encoding="UTF-8" standalone="no"?>
<!-- Created with Inkscape (http://www.inkscape.org/) -->

<svg
   width="450"
   height="148"
   viewBox="0 0 450 148"
   version="1.1"
   id="svg1857"
   sodipodi:docname="audio-speakers.svg"
   inkscape:version="1.2.2 (1:1.2.2+202305151914+b0a8486541)"
   xmlns:inkscape="http://www.inkscape.org/namespaces/inkscape"
   xmlns:sodipodi="http://sodipodi.sourceforge.net/DTD/sodipodi-0.dtd"
   xmlns="http://www.w3.org/2000/svg"
   xmlns:svg="http://www.w3.org/2000/svg">
  <sodipodi:namedview
     id="namedview1859"
     pagecolor="#d2d2d2"
     bordercolor="#000000"
     borderopacity="0.25"
     inkscape:showpageshadow="2"
     inkscape:pageopacity="0"
     inkscape:pagecheckerboard="0"
     inkscape:deskcolor="#d2d2d2"
     inkscape:document-units="px"
     showgrid="false"
     inkscape:zoom="2.9088889"
     inkscape:cx="225.34377"
     inkscape:cy="73.911382"
     inkscape:window-width="1920"
     inkscape:window-height="1008"
     inkscape:window-x="0"
     inkscape:window-y="0"
     inkscape:window-maximized="1"
     inkscape:current-layer="svg1857"
     showborder="false" />
  <defs
     id="defs1854" />
  <g
     id="Baseplate"
     style="display:none">
    <rect
       style="display:inline;fill:#000000"
       id="16x16"
       width="16"
       height="16"
       x="402"
       y="121.99999" />
    <rect
       style="display:inline;fill:#000000"
       id="22x22"
       width="22"
       height="22"
       x="379"
       y="115" />
    <rect
       style="display:inline;fill:#000000"
       id="24x24"
       width="24"
       height="24"
       x="378"
       y="113.99999" />
    <rect
       style="display:inline;fill:#000000"
       id="32x32"
       width="32"
       height="32"
       x="346"
       y="105.99999" />
    <rect
       style="display:inline;fill:#000000"
       id="48x48"
       width="48"
       height="48"
       x="298"
       y="90" />
    <rect
       style="display:inline;fill:#000000"
       id="64x64"
       width="64"
       height="64"
       x="233.99998"
       y="74" />
    <rect
       style="display:inline;fill:#000000"
       id="96x96"
       width="96"
       height="96"
       x="137.99998"
       y="42" />
    <rect
       style="display:inline;fill:#000000"
       id="128x128"
       width="128"
       height="128"
       x="10"
       y="10" />
    <text
       xml:space="preserve"
       style="font-weight:600;font-size:18.6667px;font-family:'Noto Sans';-inkscape-font-specification:'Noto Sans Semi-Bold';text-align:end;text-anchor:end;opacity:1;fill:#000000;stroke:none;stroke-width:4;stroke-linecap:round;stroke-linejoin:round"
       x="418.18896"
       y="20.30912"
       id="context"><tspan
         sodipodi:role="line"
         id="tspan1650"
         x="418.18896"
         y="20.30912"
         style="font-style:normal;font-variant:normal;font-weight:normal;font-stretch:normal;font-size:18.6667px;font-family:'Noto Sans';-inkscape-font-specification:'Noto Sans';text-align:end;text-anchor:end;fill:#000000;stroke:none">devices</tspan></text>
    <text
       xml:space="preserve"
       style="font-weight:600;font-size:18.6667px;font-family:'Noto Sans';-inkscape-font-specification:'Noto Sans Semi-Bold';text-align:end;text-anchor:end;fill:#000000;stroke:none;stroke-width:4;stroke-linecap:round;stroke-linejoin:round"
       x="418.24496"
       y="42.27351"
       id="icon-name"><tspan
         sodipodi:role="line"
         id="tspan1650-6"
         x="418.24496"
         y="42.27351"
         style="font-style:normal;font-variant:normal;font-weight:bold;font-stretch:normal;font-size:18.6667px;font-family:'Noto Sans';-inkscape-font-specification:'Noto Sans Bold';text-align:end;text-anchor:end;fill:#000000;stroke:none">audio-speakers</tspan></text>
  </g>
  <g
     id="Icon">
    <g
       id="audio-speakers_16"
       inkscape:export-filename="../usr/share/icons/Mint-C/devices/16/audio-speakers.png"
       inkscape:export-xdpi="96"
       inkscape:export-ydpi="96"
       transform="translate(-22,-128)">
      <rect
         style="fill:#4f4f4f;fill-opacity:1"
         id="rect3832"
         width="12"
         height="15.999985"
         x="426"
         y="250.00002"
         ry="2" />
      <circle
         style="fill:#2f2f2f;fill-opacity:1"
         id="path3886"
         cx="432"
         cy="260"
         r="4" />
      <circle
         style="fill:#fec006;fill-opacity:1"
         id="path3888"
         cx="432"
         cy="260"
         r="3" />
      <circle
         style="fill:#3f3f3f;fill-opacity:1"
         id="path3890"
         cx="432"
         cy="260"
         r="1" />
      <circle
         style="fill:#2f2f2f;fill-opacity:1"
         id="path4450"
         cx="432"
         cy="253"
         r="1" />
    </g>
    <g
       id="audio-speakers_24"
       inkscape:export-filename="../usr/share/icons/Mint-C/devices/24/audio-speakers.png"
       inkscape:export-xdpi="96"
       inkscape:export-ydpi="96"
       transform="translate(0,-128.00002)">
      <rect
         style="fill:#4f4f4f"
         width="16"
         height="20"
         x="-398"
         y="244.00002"
         rx="1"
         ry="1"
         transform="scale(-1,1)"
         id="rect937-9" />
      <circle
         style="opacity:0.4"
         cx="-256"
         cy="390"
         r="7"
         transform="rotate(-90)"
         id="circle939-2" />
      <circle
         style="opacity:0.2"
         cx="-256.5"
         cy="-390"
         r="5"
         transform="matrix(0,-1,-1,0,0,0)"
         id="circle941-0" />
      <circle
         style="fill:#fec006"
         cx="-256"
         cy="-390"
         r="5"
         transform="matrix(0,-1,-1,0,0,0)"
         id="circle943-2" />
      <circle
         style="fill:#3f3f3f"
         cx="-256"
         cy="-390"
         r="2"
         transform="matrix(0,-1,-1,0,0,0)"
         id="circle945-3" />
      <circle
         style="opacity:0.4"
         cx="247.00002"
         cy="-385.5"
         r="1"
         transform="rotate(90)"
         id="circle947-7" />
      <circle
         style="opacity:0.4"
         cx="247.00002"
         cy="-394.5"
         r="1"
         transform="rotate(90)"
         id="circle949-5" />
      <path
         style="opacity:0.2"
         d="m 382,263.00002 v 0.5 c 0,0.554 0.446,1 1,1 h 14 c 0.554,0 1,-0.446 1,-1 v -0.5 c 0,0.554 -0.446,1 -1,1 h -14 c -0.554,0 -1,-0.446 -1,-1 z"
         id="path951-9" />
      <path
         style="opacity:0.1;fill:#ffffff"
         d="m 383,244.00002 c -0.554,0 -1,0.446 -1,1 v 0.5 c 0,-0.554 0.446,-1 1,-1 h 14 c 0.554,0 1,0.446 1,1 v -0.5 c 0,-0.554 -0.446,-1 -1,-1 z"
         id="path953-2" />
    </g>
    <g
       id="audio-speakers_32"
       inkscape:export-filename="../usr/share/icons/Mint-C/devices/32@2x/audio-speakers.png"
       inkscape:export-xdpi="192"
       inkscape:export-ydpi="192"
       transform="translate(0,-128.00002)">
      <rect
         fill="#4f4f4f"
         width="20"
         height="26"
         x="-372"
         y="237"
         rx="1.25"
         ry="1.3"
         transform="scale(-1,1)"
         id="rect1222" />
      <circle
         style="opacity:0.4"
         cx="-251.99998"
         cy="362"
         r="9"
         transform="rotate(-90)"
         id="circle1224" />
      <circle
         opacity="0.2"
         cx="-253"
         cy="-362"
         r="7"
         transform="matrix(0,-1,-1,0,0,0)"
         id="circle1226" />
      <circle
         fill="#fec006"
         cx="-252"
         cy="-362"
         r="7"
         transform="matrix(0,-1,-1,0,0,0)"
         id="circle1228" />
      <circle
         style="fill:#3f3f3f"
         cx="-252"
         cy="-362"
         r="3"
         transform="matrix(0,-1,-1,0,0,0)"
         id="circle1230" />
      <circle
         style="opacity:0.4"
         cx="240.99998"
         cy="-356"
         r="1"
         transform="rotate(90)"
         id="circle1232" />
      <circle
         style="opacity:0.4"
         cx="240.99998"
         cy="-368"
         r="1"
         transform="rotate(90)"
         id="circle1234" />
      <path
         opacity="0.2"
         d="m 352,261.699 v 1 c 0,0.72 0.5575,1.301 1.25,1.301 h 17.5 c 0.692,0 1.25,-0.581 1.25,-1.301 v -1 c 0,0.72 -0.558,1.301 -1.25,1.301 h -17.5 c -0.6925,0 -1.25,-0.581 -1.25,-1.301 z"
         id="path1236" />
      <path
         fill="#ffffff"
         opacity="0.1"
         d="m 353.25,237 c -0.6925,0 -1.25,0.5806 -1.25,1.3008 v 1 C 352,238.5806 352.5575,238 353.25,238 h 17.5 c 0.692,0 1.25,0.5806 1.25,1.3008 v -1 C 372,237.5806 371.442,237 370.75,237 Z"
         id="path1238" />
    </g>
    <g
       id="audio-speakers_48"
       inkscape:export-filename="../usr/share/icons/Mint-C/devices/48@2x/audio-speakers.png"
       inkscape:export-xdpi="192"
       inkscape:export-ydpi="192"
       transform="translate(0,-128.00002)">
      <rect
         fill="#4f4f4f"
         width="32"
         height="40"
         x="-338"
         y="222"
         rx="2"
         ry="2"
         transform="scale(-1,1)"
         id="rect1450" />
      <circle
         style="opacity:0.4"
         cx="-246"
         cy="322"
         r="13"
         transform="rotate(-90)"
         id="circle1452" />
      <circle
         opacity="0.2"
         cx="-247"
         cy="-322"
         r="11"
         transform="matrix(0,-1,-1,0,0,0)"
         id="circle1454" />
      <circle
         fill="#fec006"
         cx="-246"
         cy="-322"
         r="11"
         transform="matrix(0,-1,-1,0,0,0)"
         id="circle1456" />
      <circle
         style="fill:#3f3f3f"
         cx="-246"
         cy="-322"
         r="5"
         transform="matrix(0,-1,-1,0,0,0)"
         id="circle1458" />
      <circle
         style="opacity:0.4"
         cx="228"
         cy="-313"
         r="2"
         transform="rotate(90)"
         id="circle1460" />
      <circle
         style="opacity:0.4"
         cx="228"
         cy="-331"
         r="2"
         transform="rotate(90)"
         id="circle1462" />
      <path
         opacity="0.2"
         d="m 306,260 v 1 c 0,1.108 0.892,2 2,2 h 28 c 1.108,0 2,-0.892 2,-2 v -1 c 0,1.108 -0.892,2 -2,2 h -28 c -1.108,0 -2,-0.892 -2,-2 z"
         id="path1464" />
      <path
         fill="#ffffff"
         opacity="0.1"
         d="m 308,222 c -1.108,0 -2,0.892 -2,2 v 1 c 0,-1.108 0.892,-2 2,-2 h 28 c 1.108,0 2,0.892 2,2 v -1 c 0,-1.108 -0.892,-2 -2,-2 z"
         id="path1466" />
    </g>
    <g
       id="audio-speakers_64"
       inkscape:export-filename="../usr/share/icons/Mint-C/devices/64@2x/audio-speakers.png"
       inkscape:export-xdpi="192"
       inkscape:export-ydpi="192"
       transform="translate(0,-128.00002)">
      <rect
         style="fill:#4f4f4f"
         width="40"
         height="52"
         x="-286"
         y="208.00002"
         rx="2.5"
         ry="2.5999999"
         transform="scale(-1,1)"
         id="rect3552" />
      <circle
         style="opacity:0.4"
         cx="-238.00002"
         cy="266"
         r="18"
         transform="rotate(-90)"
         id="circle3554" />
      <circle
         style="opacity:0.2"
         cx="-239.00002"
         cy="-266"
         r="14"
         transform="matrix(0,-1,-1,0,0,0)"
         id="circle3556" />
      <circle
         style="fill:#fec006"
         cx="-238.00002"
         cy="-266"
         r="14"
         transform="matrix(0,-1,-1,0,0,0)"
         id="circle3558" />
      <circle
         style="fill:#3f3f3f"
         cx="-238.00002"
         cy="-266"
         r="6"
         transform="matrix(0,-1,-1,0,0,0)"
         id="circle3560" />
      <circle
         style="opacity:0.4"
         cx="216.00002"
         cy="-254.00002"
         r="2"
         transform="rotate(90)"
         id="circle3562" />
      <circle
         style="opacity:0.4"
         cx="216.00002"
         cy="-278"
         r="2"
         transform="rotate(90)"
         id="circle3564" />
      <path
         style="opacity:0.2"
         d="m 246.00001,257.39846 v 1 c 0,1.44 1.115,2.60156 2.5,2.60156 h 35 c 1.384,0 2.5,-1.16156 2.5,-2.60156 v -1 c 0,1.44 -1.116,2.60156 -2.5,2.60156 h -35 c -1.385,0 -2.5,-1.16156 -2.5,-2.60156 z"
         id="path3566" />
      <path
         style="opacity:0.1;fill:#ffffff"
         d="m 248.50001,208.00002 c -1.385,0 -2.5,1.16066 -2.5,2.60043 v 0.99957 c 0,-1.43978 1.115,-2.60043 2.5,-2.60043 h 35 c 1.384,0 2.5,1.16065 2.5,2.60043 v -0.99957 c 0,-1.43977 -1.116,-2.60043 -2.5,-2.60043 z"
         id="path3568" />
    </g>
    <g
       id="audio-speakers_96"
       inkscape:export-filename="../usr/share/icons/Mint-C/devices/96@2x/audio-speakers.png"
       inkscape:export-xdpi="192"
       inkscape:export-ydpi="192"
       transform="translate(0,-128)">
      <rect
         style="display:inline;fill:none"
         id="rect2084-0"
         width="96"
         height="96"
         x="138"
         y="170" />
      <rect
         style="fill:#4f4f4f;stroke-width:1.5"
         width="60"
         height="78"
         x="-216"
         y="179"
         ry="4"
         transform="scale(-1,1)"
         id="rect3552-3" />
      <circle
         style="opacity:0.4;stroke-width:1.5"
         cx="-224"
         cy="186"
         r="27"
         transform="rotate(-90)"
         id="circle3554-6" />
      <circle
         style="opacity:0.2;stroke-width:1.5"
         cx="-225"
         cy="-186"
         r="21"
         transform="matrix(0,-1,-1,0,0,0)"
         id="circle3556-7" />
      <circle
         style="fill:#fec006;stroke-width:1.5"
         cx="-224"
         cy="-186"
         r="21"
         transform="matrix(0,-1,-1,0,0,0)"
         id="circle3558-5" />
      <circle
         style="fill:#3f3f3f;stroke-width:1.5"
         cx="-224"
         cy="-186"
         r="9"
         transform="matrix(0,-1,-1,0,0,0)"
         id="circle3560-3" />
      <circle
         style="opacity:0.4;stroke-width:1.5"
         cx="191"
         cy="-168"
         r="3"
         transform="rotate(90)"
         id="circle3562-5" />
      <circle
         style="opacity:0.4;stroke-width:1.5"
         cx="191"
         cy="-204"
         r="3"
         transform="rotate(90)"
         id="circle3564-6" />
      <path
         id="rect442"
         style="opacity:0.2;fill:#ffffff"
         d="m 160,179 c -2.216,0 -4,1.784 -4,4 v 1 c 0,-2.216 1.784,-4 4,-4 h 52 c 2.216,0 4,1.784 4,4 v -1 c 0,-2.216 -1.784,-4 -4,-4 z"
         sodipodi:nodetypes="sscsscsss" />
      <path
         d="m 160,258 c -2.216,0 -4,-1.784 -4,-4 v -1 c 0,2.216 1.784,4 4,4 h 52 c 2.216,0 4,-1.784 4,-4 v 1 c 0,2.216 -1.784,4 -4,4 z"
         style="opacity:0.2;fill:#000000"
         id="path527" />
    </g>
    <g
       id="audio-speakers_128"
       style="display:inline"
       inkscape:export-filename="../usr/share/icons/Mint-C/devices/128/audio-speakers.png"
       inkscape:export-xdpi="96"
       inkscape:export-ydpi="96"
       transform="translate(0,-128)">
      <rect
         style="display:inline;fill:none"
         id="rect2030-2"
         width="128"
         height="128"
         x="10"
         y="138" />
      <rect
         style="fill:#4f4f4f;stroke-width:2"
         width="79.999977"
         height="103.99997"
         x="-113.99997"
         y="150"
         rx="4.9999986"
         ry="5.1999984"
         transform="scale(-1,1)"
         id="rect3552-2" />
      <circle
         style="opacity:0.4;stroke-width:2"
         cx="-209.99995"
         cy="73.999977"
         r="35.999989"
         transform="rotate(-90)"
         id="circle3554-7" />
      <circle
         style="opacity:0.2;stroke-width:2"
         cx="-211"
         cy="-73.999977"
         r="27.999992"
         transform="matrix(0,-1,-1,0,0,0)"
         id="circle3556-0" />
      <circle
         style="fill:#fec006;stroke-width:2"
         cx="-209.99998"
         cy="-73.999977"
         r="27.999992"
         transform="matrix(0,-1,-1,0,0,0)"
         id="circle3558-9" />
      <circle
         style="fill:#3f3f3f;stroke-width:2"
         cx="-209.99998"
         cy="-73.999977"
         r="11.999997"
         transform="matrix(0,-1,-1,0,0,0)"
         id="circle3560-36" />
      <circle
         style="opacity:0.4;stroke-width:2"
         cx="165.99997"
         cy="-50.000011"
         r="3.9999988"
         transform="rotate(90)"
         id="circle3562-0" />
      <circle
         style="opacity:0.4;stroke-width:2"
         cx="165.99997"
         cy="-97.999969"
         r="3.9999988"
         transform="rotate(90)"
         id="circle3564-62" />
      <path
         id="path3566-6"
         style="opacity:0.2;stroke-width:2"
         d="m 34,248.79688 v 1.0039 C 34,252.68158 36.230004,255 39,255 h 70 c 2.77,0 5,-2.31842 5,-5.19922 v -1.0039 C 114,251.67686 111.768,254 109,254 H 39 c -2.769997,0 -5,-2.32314 -5,-5.20312 z" />
      <path
         id="path3568-1"
         style="opacity:0.1;fill:#ffffff;stroke-width:2"
         d="m 39,150 c -2.769997,0 -5,2.32163 -5,5.20117 v 0.99805 C 34,153.31842 36.230004,151 39,151 h 70 c 2.77,0 5,2.31842 5,5.19922 v -0.99805 C 114,152.32163 111.768,150 109,150 Z" />
    </g>
  </g>
</svg>
