<?xml version="1.0" encoding="UTF-8" standalone="no"?>
<!-- Created with Inkscape (http://www.inkscape.org/) -->

<svg
   width="450"
   height="148"
   viewBox="0 0 450 148"
   version="1.1"
   id="svg1857"
   sodipodi:docname="audio-headphones.svg"
   inkscape:version="1.2.2 (1:1.2.2+202305151914+b0a8486541)"
   xmlns:inkscape="http://www.inkscape.org/namespaces/inkscape"
   xmlns:sodipodi="http://sodipodi.sourceforge.net/DTD/sodipodi-0.dtd"
   xmlns="http://www.w3.org/2000/svg"
   xmlns:svg="http://www.w3.org/2000/svg">
  <sodipodi:namedview
     id="namedview1859"
     pagecolor="#d2d2d2"
     bordercolor="#000000"
     borderopacity="0.25"
     inkscape:showpageshadow="2"
     inkscape:pageopacity="0"
     inkscape:pagecheckerboard="0"
     inkscape:deskcolor="#d2d2d2"
     inkscape:document-units="px"
     showgrid="false"
     inkscape:zoom="2.86"
     inkscape:cx="225"
     inkscape:cy="74.125874"
     inkscape:window-width="1920"
     inkscape:window-height="1008"
     inkscape:window-x="0"
     inkscape:window-y="0"
     inkscape:window-maximized="1"
     inkscape:current-layer="svg1857"
     showborder="false" />
  <defs
     id="defs1854" />
  <g
     id="Baseplate"
     style="display:none">
    <rect
       style="display:inline;fill:#000000"
       id="16x16"
       width="16"
       height="16"
       x="402"
       y="121.99999" />
    <rect
       style="display:inline;fill:#000000"
       id="22x22"
       width="22"
       height="22"
       x="379"
       y="115" />
    <rect
       style="display:inline;fill:#000000"
       id="24x24"
       width="24"
       height="24"
       x="378"
       y="113.99999" />
    <rect
       style="display:inline;fill:#000000"
       id="32x32"
       width="32"
       height="32"
       x="346"
       y="105.99999" />
    <rect
       style="display:inline;fill:#000000"
       id="48x48"
       width="48"
       height="48"
       x="298"
       y="90" />
    <rect
       style="display:inline;fill:#000000"
       id="64x64"
       width="64"
       height="64"
       x="233.99998"
       y="74" />
    <rect
       style="display:inline;fill:#000000"
       id="96x96"
       width="96"
       height="96"
       x="137.99998"
       y="42" />
    <rect
       style="display:inline;fill:#000000"
       id="128x128"
       width="128"
       height="128"
       x="10"
       y="10" />
    <text
       xml:space="preserve"
       style="font-weight:600;font-size:18.6667px;font-family:'Noto Sans';-inkscape-font-specification:'Noto Sans Semi-Bold';text-align:end;text-anchor:end;opacity:1;fill:#000000;stroke:none;stroke-width:4;stroke-linecap:round;stroke-linejoin:round"
       x="418.18896"
       y="20.30912"
       id="context"><tspan
         sodipodi:role="line"
         id="tspan1650"
         x="418.18896"
         y="20.30912"
         style="font-style:normal;font-variant:normal;font-weight:normal;font-stretch:normal;font-size:18.6667px;font-family:'Noto Sans';-inkscape-font-specification:'Noto Sans';text-align:end;text-anchor:end;fill:#000000;stroke:none">devices</tspan></text>
    <text
       xml:space="preserve"
       style="font-weight:600;font-size:18.6667px;font-family:'Noto Sans';-inkscape-font-specification:'Noto Sans Semi-Bold';text-align:end;text-anchor:end;fill:#000000;stroke:none;stroke-width:4;stroke-linecap:round;stroke-linejoin:round"
       x="418.24496"
       y="42.27351"
       id="icon-name"><tspan
         sodipodi:role="line"
         id="tspan1650-6"
         x="418.24496"
         y="42.27351"
         style="font-style:normal;font-variant:normal;font-weight:bold;font-stretch:normal;font-size:18.6667px;font-family:'Noto Sans';-inkscape-font-specification:'Noto Sans Bold';text-align:end;text-anchor:end;fill:#000000;stroke:none">audio-headphones</tspan></text>
  </g>
  <g
     id="Icon">
    <g
       id="audio-headphones_16"
       inkscape:export-filename="../usr/share/icons/Mint-C/devices/16/audio-headphones.png"
       inkscape:export-xdpi="96"
       inkscape:export-ydpi="96"
       transform="translate(-22)">
      <path
         id="rect1078"
         style="fill:#4f4f4f;fill-opacity:1"
         d="m 432,123 c -3.878,0 -7,3.122 -7,7 v 4 c 0,1.31048 0.83335,2.41566 2,2.82617 V 130 c 0,-2.77 2.23,-5 5,-5 2.77,0 5,2.23 5,5 v 6.82617 c 1.16665,-0.41051 2,-1.51569 2,-2.82617 v -4 c 0,-3.878 -3.122,-7 -7,-7 z" />
      <rect
         style="fill:#8e8e8e;fill-opacity:1"
         id="rect1136"
         width="2"
         height="5"
         x="427"
         y="133" />
      <rect
         style="fill:#8e8e8e;fill-opacity:1"
         id="rect1138"
         width="2"
         height="5"
         x="435"
         y="133" />
    </g>
    <g
       id="audio-headphones_24"
       inkscape:export-filename="../usr/share/icons/Mint-C/devices/24/audio-headphones.png"
       inkscape:export-xdpi="96"
       inkscape:export-ydpi="96">
      <path
         style="display:inline;opacity:0.2"
         d="m 384.001,128.4998 v 7 h 3 v -7 z m 9,0 v 7 h 3 v -7 z"
         id="path432" />
      <path
         style="opacity:0.2"
         d="m 390,116.4998 c -4.986,0 -9,4.015 -9,9.0025 v 6.0015 c 0,0 0,3.00075 3,3.00075 h 10e-4 v -7.502 H 384 v -1.5004 c 0,-3.32485 2.676,-6.0015 6,-6.0015 3.324,0 6,2.6767 6,6.0015 v 0.99535 h 10e-4 v 8.007 c 0.005,-0.001 2.999,-0.004 2.999,-3.0015 v -6.0015 c 0,-4.9875 -4.014,-9.0025 -9,-9.0025 z"
         id="path434" />
      <path
         style="fill:#4f4f4f"
         d="m 390,115.9998 c -4.986,0 -9,4.015 -9,9.0025 v 6.0015 c 0,0 0,3.00075 3,3.00075 h 10e-4 v -7.502 H 384 v -1.5004 c 0,-3.32485 2.676,-6.0015 6,-6.0015 3.324,0 6,2.6767 6,6.0015 v 0.99535 h 10e-4 v 8.007 c 0.005,-0.001 2.999,-0.004 2.999,-3.0015 v -6.0015 c 0,-4.9875 -4.014,-9.0025 -9,-9.0025 z"
         id="path436" />
      <path
         style="opacity:0.1;fill:#ffffff"
         d="m 390,115.9998 c -4.986,0 -9,4.015 -9,9.0025 v 0.49524 c 0,-4.9873 4.014,-9.0025 9,-9.0025 4.986,0 9,4.01505 9,9.0025 v -0.495 c 0,-4.9875 -4.014,-9.0025 -9,-9.0025 z m -6,10.5025 v 0.49524 h 10e-4 v -0.49524 z"
         id="path438" />
      <path
         style="fill:#8e8e8e"
         d="m 384.001,127.9998 v 7 h 3 v -7 z m 9,0 v 7 h 3 v -7 z"
         id="path440" />
      <path
         style="opacity:0.1;fill:#ffffff"
         d="m 384.00195,127.9998 v 0.5 h 3 v -0.5 z m 9,0 v 0.5 h 3 v -0.5 z"
         id="path442" />
    </g>
    <g
       id="audio-headphones_32"
       inkscape:export-filename="../usr/share/icons/Mint-C/devices/32@2x/audio-headphones.png"
       inkscape:export-xdpi="192"
       inkscape:export-ydpi="192">
      <path
         fill="#4f4f4f"
         d="m 362,107.0004 c -7.732,0 -14,6.268 -14,14 v 9 c 0,3.5696 2.5419,4.541 4,4.8066 V 121 c 0,-5.54 4.46,-10 10,-10 5.54,0 10,4.46 10,10 v 13.812 c 1.458,-0.268 4,-1.242 4,-4.812 v -9 c 0,-7.732 -6.268,-14 -14,-14 z"
         id="path708" />
      <path
         fill="#8e8e8e"
         d="m 352,123.0002 v 14 h 5 v -14 z m 15,0 v 14 h 5 v -14 z"
         id="path710" />
      <path
         fill="#ffffff"
         opacity="0.1"
         d="m 362,107.0004 c -7.732,0 -14,6.268 -14,14 v 1 c 0,-7.732 6.268,-14 14,-14 7.732,0 14,6.268 14,14 v -1 c 0,-7.732 -6.268,-14 -14,-14 z"
         id="path712" />
      <path
         fill="#ffffff"
         opacity="0.1"
         d="m 352,123.0002 v 1 h 5 v -1 z m 15,0 v 1 h 5 v -1 z"
         id="path714" />
      <path
         opacity="0.2"
         d="m 362,111.0002 c -5.54,0 -10,4.46 -10,10 v 1 c 0,-5.54 4.46,-10 10,-10 5.54,0 10,4.46 10,10 v -1 c 0,-5.54 -4.46,-10 -10,-10 z m -14,19 v 1 c 0,3.5696 2.5419,4.541 4,4.8066 v -1 c -1.4581,-0.266 -4,-1.237 -4,-4.807 z m 28,0 c 0,3.5696 -2.5419,4.5451 -4,4.8125 v 1 c 1.458,-0.267 4,-1.242 4,-4.812 v -1 z m -24,7 v 1 h 5 v -1 z m 15,0 v 1 h 5 v -1 z"
         id="path716" />
    </g>
    <g
       id="audio-headphones_48"
       inkscape:export-filename="../usr/share/icons/Mint-C/devices/48@2x/audio-headphones.png"
       inkscape:export-xdpi="192"
       inkscape:export-ydpi="192">
      <path
         fill="#4f4f4f"
         d="m 322,94.9996 c -9.972,0 -18,8.03 -18,18.005 v 12.003 c 0,0 0,6.0015 6,6.0015 h 0.002 v -15.004 H 310 v -3.0008 c 0,-6.6497 5.352,-12.003 12,-12.003 6.648,0 12,5.3534 12,12.003 v 1.9907 h 0.002 v 16.014 c 0.011,-0.002 5.998,-0.008 5.998,-6.003 v -12.003 c 0,-9.975 -8.028,-18.005 -18,-18.005 z"
         id="path2434" />
      <path
         fill="#ffffff"
         opacity="0.1"
         d="m 322,94.9996 c -9.972,0 -18,8.03 -18,18.005 v 0.99048 c 0,-9.9746 8.028,-18.005 18,-18.005 9.972,0 18,8.0301 18,18.005 v -0.99 c 0,-9.975 -8.028,-18.005 -18,-18.005 z m -12,21.005 v 0.99048 h 0.002 v -0.99048 z"
         id="path2436" />
      <path
         fill="#8e8e8e"
         d="m 310.002,117.9956 v 15.004 h 6 v -15.004 z m 18,0 v 15.004 h 6 v -15.004 z"
         id="path2438" />
      <path
         fill="#ffffff"
         opacity="0.1"
         d="m 310.002,117.9956 v 1.0003 h 6 v -1.0003 z m 18,0 v 1.0003 h 6 v -1.0003 z"
         id="path2440" />
      <path
         opacity="0.2"
         d="m 322,101.0016 c -6.648,0 -12,5.3522 -12,12.002 v 1 c 0,-6.6497 5.352,-12.002 12,-12.002 6.648,0 12,5.3522 12,12.002 v -1 c 0,-6.65 -5.352,-12.002 -12,-12.002 z m 12,13.994 v 1 h 0.002 v -1 z m -30,10.012 v 1 c 0,0 0,6.002 6,6.002 h 0.002 v -1 H 310 c -6,0 -6,-6.002 -6,-6.002 z m 36,0 c 0,5.9955 -5.9868,6.0019 -5.998,6.002 v 1 c 0.011,0 5.998,-0.007 5.998,-6.002 z m -29.998,7.992 v 1 h 6 v -1 z m 18,0 v 1 h 6 v -1 z"
         id="path2442" />
    </g>
    <g
       id="audio-headphones_64"
       inkscape:export-filename="../usr/share/icons/Mint-C/devices/64/audio-headphones.png"
       inkscape:export-xdpi="96"
       inkscape:export-ydpi="96">
      <path
         style="opacity:0.2"
         d="m 266,83.0004 c -11.08,0 -20,8.92 -20,20 v 2 c 0,-11.08 8.92,-20 20,-20 11.08,0 20,8.92 20,20 v -2 c 0,-11.08 -8.92,-20 -20,-20 z m -28,38 v 2 c 0,7.1392 5.0838,9.082 8,9.6132 v -2 c -2.9162,-0.532 -8,-2.474 -8,-9.614 z m 56,0 c 0,7.1392 -5.0838,9.0902 -8,9.625 v 2 c 2.916,-0.534 8,-2.484 8,-9.624 v -2 z m -48,14 v 2 h 10 v -2 z m 30,0 v 2 h 10 v -2 z"
         id="path2098" />
      <path
         style="fill:#4f4f4f"
         d="m 266,76.0008 c -15.464,0 -28,12.536 -28,28 v 18 c 0,7.1392 5.0838,9.082 8,9.6132 V 104 c 0,-11.08 8.92,-20 20,-20 11.08,0 20,8.92 20,20 v 27.624 c 2.916,-0.536 8,-2.484 8,-9.624 V 104 C 294,88.536 281.464,76 266,76 Z"
         id="path2100" />
      <path
         style="fill:#8e8e8e"
         d="m 246,108.0004 v 28 h 10 v -28 z m 30,0 v 28 h 10 v -28 z"
         id="path2102" />
      <path
         style="opacity:0.1;fill:#ffffff"
         d="m 266,76.0004 c -15.464,0 -28,12.536 -28,28 v 1 c 0,-15.464 12.536,-28 28,-28 15.464,0 28,12.536 28,28 v -1 c 0,-15.464 -12.536,-28 -28,-28 z"
         id="path2104" />
      <path
         style="opacity:0.1;fill:#ffffff"
         d="m 246,108.0004 v 1 h 10 v -1 z m 30,0 v 1 h 10 v -1 z"
         id="path2106" />
    </g>
    <g
       id="audio-headphones_96"
       inkscape:export-filename="../usr/share/icons/Mint-C/devices/96/audio-headphones.png"
       inkscape:export-xdpi="96"
       inkscape:export-ydpi="96">
      <path
         style="opacity:0.2;stroke-width:1.5"
         d="m 186,55 c -16.62,0 -30,13.38 -30,30.000005 v 3 C 156,71.38 169.38,58.000001 186,58.000001 c 16.62,0 30,13.38 30,30.000004 v -3 C 216,68.38 202.62,55.000001 186,55 Z m -42,57.00001 v 3 c 0,10.70879 7.6257,13.62299 12,14.4198 v -3 c -4.3743,-0.79801 -12,-3.711 -12,-14.421 z m 84,0 c 0,10.7088 -7.6257,13.6353 -12,14.4375 v 3 c 4.374,-0.801 12,-3.72601 12,-14.436 v -3 z m -72,21 v 3 h 15 v -3 z m 45,0 v 3 h 15 v -3 z"
         id="path2098-2" />
      <path
         style="fill:#4f4f4f;stroke-width:1.5"
         d="m 186,45.0012 c -23.196,0 -42,18.804 -42,42 v 27 c 0,10.7088 7.6257,13.623 12,14.4198 V 87 c 0,-16.62 13.38,-30 30,-30 16.62,0 30,13.38 30,30 v 41.436 c 4.374,-0.804 12,-3.726 12,-14.436 V 87 C 228,63.804 209.196,45 186,45 Z"
         id="path2100-9" />
      <path
         style="fill:#8e8e8e;stroke-width:1.5"
         d="m 156,93.0006 v 42 h 15 v -42 z m 45,0 v 42 h 15 v -42 z"
         id="path2102-1" />
      <path
         id="path2104-2"
         style="opacity:0.1;fill:#ffffff;stroke-width:1.5"
         d="m 186,45 c -23.19597,0 -42,18.804023 -42,42 v 1.001955 c 0,-23.195984 18.80403,-42.000002 42,-42.000002 v -0.002 c 23.19597,0 42,18.804019 42,42.000005 V 87 C 228,63.804023 209.19597,45 186,45 Z" />
      <path
         style="opacity:0.1;fill:#ffffff;stroke-width:1.22475"
         d="m 156,93.0006 v 1.000005 h 15 V 93.0006 Z m 45,0 v 1.000005 h 15 V 93.0006 Z"
         id="path2106-7" />
    </g>
    <g
       id="audio-headphones_128"
       inkscape:export-filename="../usr/share/icons/Mint-C/devices/128@2x/audio-headphones.png"
       inkscape:export-xdpi="192"
       inkscape:export-ydpi="192">
      <path
         style="opacity:0.2;stroke-width:2"
         d="M 74,27 C 51.84,27 34,44.84 34,67.000004 v 4 C 34,48.84 51.84,31 74,31 c 22.16,0 40,17.84 40,40.000004 v -4 C 114,44.84 96.16,27 74,27 Z m -56,76 v 4 c 0,14.2784 10.1676,18.164 16,19.2264 v -4 c -5.8324,-1.064 -16,-4.948 -16,-19.228 z m 112,0 c 0,14.2784 -10.1676,18.1804 -16,19.25 v 4 c 5.832,-1.068 16,-4.968 16,-19.248 v -4 z m -96,28 v 4 h 20 v -4 z m 60,0 v 4 h 20 v -4 z"
         id="path2098-5" />
      <path
         style="fill:#4f4f4f;stroke-width:2"
         d="m 74,14.0016 c -30.928,0 -56,25.072 -56,56.000004 V 106.0016 c 0,14.2784 10.1676,18.164 16,19.2264 V 70.000004 C 34,47.84 51.84,30 74,30 c 22.16,0 40,17.84 40,40.000004 V 125.248 c 5.832,-1.072 16,-4.968 16,-19.248 V 70.000004 C 130,39.072 104.928,14 74,14 Z"
         id="path2100-6" />
      <path
         style="fill:#8e8e8e;stroke-width:2"
         d="m 34,78 v 56 H 54 V 78 Z m 60,0 v 56 h 20 V 78 Z"
         id="path2102-2" />
      <path
         id="path2104-9"
         style="opacity:0.1;fill:#ffffff;stroke-width:2"
         d="M 74,14 C 43.072031,14 18,39.072027 18,70 v 1.001953 c 0,-30.927973 25.072031,-56 56,-56 V 15 c 30.92797,0 56,25.072027 56,56 V 70 C 130,39.072027 104.92797,14 74,14 Z" />
      <path
         id="path2106-1"
         style="opacity:0.1;fill:#ffffff;stroke-width:2"
         d="m 34,78 v 1 h 20 v -1 z m 60,0 v 1 h 20 v -1 z" />
    </g>
  </g>
</svg>
