<?xml version="1.0" encoding="UTF-8" standalone="no"?>
<!-- Created with Inkscape (http://www.inkscape.org/) -->

<svg
   width="450"
   height="148"
   viewBox="0 0 450 148"
   version="1.1"
   id="svg1857"
   sodipodi:docname="camera-photo.svg"
   inkscape:version="1.2.2 (1:1.2.2+202305151914+b0a8486541)"
   xmlns:inkscape="http://www.inkscape.org/namespaces/inkscape"
   xmlns:sodipodi="http://sodipodi.sourceforge.net/DTD/sodipodi-0.dtd"
   xmlns="http://www.w3.org/2000/svg"
   xmlns:svg="http://www.w3.org/2000/svg">
  <sodipodi:namedview
     id="namedview1859"
     pagecolor="#d2d2d2"
     bordercolor="#000000"
     borderopacity="0.25"
     inkscape:showpageshadow="2"
     inkscape:pageopacity="0"
     inkscape:pagecheckerboard="0"
     inkscape:deskcolor="#d2d2d2"
     inkscape:document-units="px"
     showgrid="false"
     inkscape:zoom="2.9088889"
     inkscape:cx="225"
     inkscape:cy="73.911383"
     inkscape:window-width="1920"
     inkscape:window-height="1008"
     inkscape:window-x="0"
     inkscape:window-y="0"
     inkscape:window-maximized="1"
     inkscape:current-layer="svg1857"
     showborder="false" />
  <defs
     id="defs1854" />
  <g
     id="Baseplate"
     style="display:none">
    <rect
       style="display:inline;fill:#000000"
       id="16x16"
       width="16"
       height="16"
       x="402"
       y="121.99999" />
    <rect
       style="display:inline;fill:#000000"
       id="22x22"
       width="22"
       height="22"
       x="379"
       y="115" />
    <rect
       style="display:inline;fill:#000000"
       id="24x24"
       width="24"
       height="24"
       x="378"
       y="113.99999" />
    <rect
       style="display:inline;fill:#000000"
       id="32x32"
       width="32"
       height="32"
       x="346"
       y="105.99999" />
    <rect
       style="display:inline;fill:#000000"
       id="48x48"
       width="48"
       height="48"
       x="298"
       y="90" />
    <rect
       style="display:inline;fill:#000000"
       id="64x64"
       width="64"
       height="64"
       x="233.99998"
       y="74" />
    <rect
       style="display:inline;fill:#000000"
       id="96x96"
       width="96"
       height="96"
       x="137.99998"
       y="42" />
    <rect
       style="display:inline;fill:#000000"
       id="128x128"
       width="128"
       height="128"
       x="10"
       y="10" />
    <text
       xml:space="preserve"
       style="font-weight:600;font-size:18.6667px;font-family:'Noto Sans';-inkscape-font-specification:'Noto Sans Semi-Bold';text-align:end;text-anchor:end;opacity:1;fill:#000000;stroke:none;stroke-width:4;stroke-linecap:round;stroke-linejoin:round"
       x="418.18896"
       y="20.30912"
       id="context"><tspan
         sodipodi:role="line"
         id="tspan1650"
         x="418.18896"
         y="20.30912"
         style="font-style:normal;font-variant:normal;font-weight:normal;font-stretch:normal;font-size:18.6667px;font-family:'Noto Sans';-inkscape-font-specification:'Noto Sans';text-align:end;text-anchor:end;fill:#000000;stroke:none">devices</tspan></text>
    <text
       xml:space="preserve"
       style="font-weight:600;font-size:18.6667px;font-family:'Noto Sans';-inkscape-font-specification:'Noto Sans Semi-Bold';text-align:end;text-anchor:end;fill:#000000;stroke:none;stroke-width:4;stroke-linecap:round;stroke-linejoin:round"
       x="418.24496"
       y="42.27351"
       id="icon-name"><tspan
         sodipodi:role="line"
         id="tspan1650-6"
         x="418.24496"
         y="42.27351"
         style="font-style:normal;font-variant:normal;font-weight:bold;font-stretch:normal;font-size:18.6667px;font-family:'Noto Sans';-inkscape-font-specification:'Noto Sans Bold';text-align:end;text-anchor:end;fill:#000000;stroke:none">camera-photo</tspan></text>
  </g>
  <g
     id="Icon">
    <g
       id="camera-photo_16"
       inkscape:export-filename="../usr/share/icons/Mint-C/devices/16/camera-photo.png"
       inkscape:export-xdpi="96"
       inkscape:export-ydpi="96"
       transform="translate(-22,-256)">
      <path
         d="m 430,379 c -0.4,0 -0.39945,7.1e-4 -0.7793,0.4043 L 428.13672,381 h -2.53711 c -0.88,0 -1.59961,0.65616 -1.59961,1.51172 v 8.93359 c 0,0.85556 0.71961,1.55469 1.59961,1.55469 h 12.80078 c 0.88,0 1.59961,-0.69913 1.59961,-1.55469 v -8.93359 C 440,381.65616 439.28039,381 438.40039,381 h -2.53711 l -1.09766,-1.61133 C 434.40045,379.00067 434.4,379 434,379 Z"
         style="color:#444444;fill:#4f4f4f;fill-opacity:1"
         id="path11417"
         sodipodi:nodetypes="sccssssssssccss" />
      <path
         id="rect12068"
         style="opacity:0.2;fill:#000000;fill-opacity:1"
         d="m 430,379 c -0.4,0 -0.39945,7.1e-4 -0.7793,0.4043 L 428.13672,381 h -2.53711 C 424.71961,381 424,381.65616 424,382.51172 V 384 h 16 v -1.48828 C 440,381.65616 439.28039,381 438.40039,381 h -2.53711 l -1.09766,-1.61133 C 434.40046,379.00067 434.4,379 434,379 Z" />
      <rect
         style="opacity:1;fill:#ffffff;fill-opacity:1"
         id="rect12123"
         width="1"
         height="1"
         x="438"
         y="382" />
      <circle
         style="opacity:1;fill:#2f2f2f;fill-opacity:1"
         id="path12813"
         cx="432"
         cy="387"
         r="4" />
      <circle
         style="opacity:1;fill:#00b1c4;fill-opacity:1"
         id="path13212"
         cx="432"
         cy="387"
         r="3" />
      <circle
         style="opacity:1;fill:#70f4ff;fill-opacity:1"
         id="path13266"
         cx="432"
         cy="387"
         r="1" />
    </g>
    <g
       id="camera-photo_24"
       inkscape:export-filename="../usr/share/icons/Mint-C/devices/24@2x/camera-photo.png"
       inkscape:export-xdpi="192"
       inkscape:export-ydpi="192"
       transform="translate(0,-256)">
      <path
         style="opacity:0.2"
         d="M 386.52518,374.0189 385.16992,375.5 H 382 c -1.1,0 -2,0.9 -2,2 v 12 c 0,1.1 0.9,2 2,2 h 16 c 1.1,0 2,-0.9 2,-2 v -12 c 0,-1.1 -0.9,-2 -2,-2 h -3.16992 l -1.37361,-1.50114 C 393,373.5 393,373.5 392.5,373.5 h -5 c -0.5,0 -0.5,0 -0.97482,0.5189 z"
         id="path10871" />
      <path
         style="fill:#4f4f4f"
         d="M 386.52518,373.5189 385.16992,375 H 382 c -1.1,0 -2,0.9 -2,2 v 12 c 0,1.1 0.9,2 2,2 h 16 c 1.1,0 2,-0.9 2,-2 v -12 c 0,-1.1 -0.9,-2 -2,-2 h -3.16992 l -1.37361,-1.50114 C 393,373 393,373 392.5,373 h -5 c -0.5,0 -0.5,0 -0.97482,0.5189 z"
         id="path10873" />
      <path
         style="opacity:0.2"
         d="M 386.52518,373.5189 385.16992,375 H 382 c -1.1,0 -2,0.9 -2,2 v 1 h 20 v -1 c 0,-1.1 -0.9,-2 -2,-2 h -3.16992 l -1.37361,-1.50114 C 393,373 393,373 392.5,373 h -5 c -0.5,0 -0.5,0 -0.97482,0.5189 z"
         id="path10875" />
      <circle
         style="fill:#2f2f2f"
         cx="390"
         cy="-383"
         r="6"
         transform="scale(1,-1)"
         id="circle10877" />
      <circle
         style="opacity:0.1"
         cx="398"
         cy="377.5"
         r="1"
         id="circle10879" />
      <circle
         style="fill:#ffffff"
         cx="398"
         cy="377"
         r="1"
         id="circle10881" />
      <circle
         style="opacity:0.2"
         cx="390"
         cy="-383.5"
         r="5"
         transform="scale(1,-1)"
         id="circle10883" />
      <circle
         style="fill:#00b1c4"
         cx="390"
         cy="-383"
         r="5"
         transform="scale(1,-1)"
         id="circle10885" />
      <circle
         style="opacity:0.2"
         cx="390"
         cy="383.5"
         r="3"
         id="circle10887" />
      <circle
         style="fill:#70f4ff"
         cx="390"
         cy="383"
         r="3"
         id="circle10889" />
      <path
         style="opacity:0.1;fill:#ffffff"
         d="m 387.5,373 c -0.5,0 -0.49979,-3.5e-4 -0.97461,0.51855 L 385.16992,375 H 382 c -1.1,0 -2,0.9 -2,2 v 0.5 c 0,-1.1 0.9,-2 2,-2 h 3.16992 l 1.35547,-1.48145 C 387.00021,373.49965 387,373.5 387.5,373.5 h 5 c 0.5,0 0.49958,1.7e-4 0.95605,0.49902 L 394.83008,375.5 H 398 c 1.1,0 2,0.9 2,2 V 377 c 0,-1.1 -0.9,-2 -2,-2 h -3.16992 l -1.37403,-1.50098 C 392.99958,373.00017 393,373 392.5,373 Z"
         id="path10891" />
      <path
         style="opacity:0.2;fill:#ffffff"
         d="m 390,380 a 3,3 0 0 0 -3,3 3,3 0 0 0 0.0107,0.24707 3,3 0 0 1 2.98926,-2.74707 3,3 0 0 1 2.98926,2.75293 3,3 0 0 0 0.0107,-0.25293 3,3 0 0 0 -3,-3 z"
         id="path10893" />
    </g>
    <g
       id="camera-photo_32"
       inkscape:export-filename="../usr/share/icons/Mint-C/devices/32/camera-photo.png"
       inkscape:export-xdpi="96"
       inkscape:export-ydpi="96"
       transform="translate(0,-256.00001)">
      <path
         style="opacity:0.2"
         d="M 357.13526,366.7207 355.23789,369 H 350.8 c -1.54,0 -2.8,1.22811 -2.8,2.75589 v 16.46633 C 348,389.75 349.26,391 350.8,391 h 22.4 c 1.54,0 2.8,-1.25 2.8,-2.77778 v -16.46633 c 0,-1.52778 -1.26002,-2.74829 -2.8,-2.75589 h -4.43789 l -1.92305,-2.30714 C 366.2,366 366.2,366 365.5,366 h -7 c -0.7,0 -0.7,0 -1.36474,0.7207 z"
         id="path10141" />
      <path
         style="fill:#4f4f4f"
         d="M 357.13526,365.7207 355.23789,368 H 350.8 c -1.54,0 -2.8,1.22811 -2.8,2.75589 v 16.46633 C 348,388.75 349.26,390 350.8,390 h 22.4 c 1.54,0 2.8,-1.25 2.8,-2.77778 v -16.46633 c 0,-1.52778 -1.26002,-2.74829 -2.8,-2.75589 h -4.43789 l -1.92305,-2.30714 C 366.2,365 366.2,365 365.5,365 h -7 c -0.7,0 -0.7,0 -1.36474,0.7207 z"
         id="path10143" />
      <path
         style="opacity:0.2"
         d="M 357.13526,365.7207 355.23789,368 H 350.8 c -1.54,0 -2.8,1.22811 -2.8,2.75589 V 372 h 28 v -1.24411 c 0,-1.52778 -1.26002,-2.74829 -2.8,-2.75589 h -4.43789 l -1.92305,-2.30714 C 366.2,365 366.2,365 365.5,365 h -7 c -0.7,0 -0.7,0 -1.36474,0.7207 z"
         id="path10145" />
      <circle
         style="opacity:0.1"
         cx="373.5"
         cy="371.5"
         r="1.5"
         id="circle10147" />
      <circle
         style="fill:#ffffff"
         cx="373.5"
         cy="370.5"
         r="1.5"
         id="circle10149" />
      <circle
         style="fill:#2f2f2f"
         cx="362"
         cy="-379"
         r="9"
         transform="scale(1,-1)"
         id="circle10151" />
      <circle
         style="opacity:0.2"
         cx="362"
         cy="-380"
         r="7"
         transform="scale(1,-1)"
         id="circle10153" />
      <circle
         style="fill:#00b1c4"
         cx="362"
         cy="-379"
         r="7"
         transform="scale(1,-1)"
         id="circle10155" />
      <circle
         style="opacity:0.2"
         cx="362"
         cy="380"
         r="4"
         id="circle10157" />
      <circle
         style="fill:#70f4ff"
         cx="362"
         cy="379"
         r="4"
         id="circle10159" />
      <path
         style="opacity:0.1;fill:#ffffff"
         d="m 358.5,365 c -0.7,0 -0.70049,10e-6 -1.36523,0.7207 L 355.23828,368 h -4.4375 c -1.54,0 -2.80078,1.22808 -2.80078,2.75586 v 1 C 348,370.22808 349.26078,369 350.80078,369 h 4.4375 l 1.89649,-2.2793 C 357.79951,366.00001 357.8,366 358.5,366 h 7 c 0.7,0 0.70078,5e-4 1.33984,0.69336 L 368.76172,369 h 4.4375 C 374.7392,369.008 376,370.22808 376,371.75586 v -1 c 0,-1.52778 -1.2608,-2.74826 -2.80078,-2.75586 h -4.4375 l -1.92188,-2.30664 C 366.20078,365.0005 366.2,365 365.5,365 Z"
         id="path10161" />
      <path
         style="opacity:0.2;fill:#ffffff"
         d="M 361.93945,375 A 4,4 0 0 0 358,379 a 4,4 0 0 0 0.0312,0.49609 4,4 0 0 1 3.96875,-3.49609 4,4 0 0 1 3.96875,3.50391 4,4 0 0 0 0.0312,-0.50391 4,4 0 0 0 -4,-4 4,4 0 0 0 -0.0606,0 z"
         id="path10163" />
    </g>
    <g
       id="camera-photo_48"
       inkscape:export-filename="../usr/share/icons/Mint-C/devices/48/camera-photo.png"
       inkscape:export-xdpi="96"
       inkscape:export-ydpi="96"
       transform="translate(0,-256)">
      <path
         style="opacity:0.2"
         d="M 315.05037,354.0378 312.33984,357 H 306 c -2.2,0 -4,1.8 -4,4 v 24 c 0,2.2 1.8,4 4,4 h 32 c 2.2,0 4,-1.8 4,-4 v -24 c 0,-2.2 -1.8,-4 -4,-4 h -6.33984 l -2.74722,-3.00229 C 328,353 328,353 327,353 h -10 c -1,0 -1,0 -1.94963,1.0378 z"
         id="path10600" />
      <path
         style="fill:#4f4f4f"
         d="M 315.05037,353.0378 312.33984,356 H 306 c -2.2,0 -4,1.8 -4,4 v 24 c 0,2.2 1.8,4 4,4 h 32 c 2.2,0 4,-1.8 4,-4 v -24 c 0,-2.2 -1.8,-4 -4,-4 h -6.33984 l -2.74722,-3.00229 C 328,352 328,352 327,352 h -10 c -1,0 -1,0 -1.94963,1.0378 z"
         id="path10602" />
      <path
         style="opacity:0.2"
         d="M 315.05037,353.0378 312.33984,356 H 306 c -2.2,0 -4,1.8 -4,4 v 2 h 40 v -2 c 0,-2.2 -1.8,-4 -4,-4 h -6.33984 l -2.74722,-3.00229 C 328,352 328,352 327,352 h -10 c -1,0 -1,0 -1.94963,1.0378 z"
         id="path10604" />
      <circle
         style="fill:#2f2f2f"
         cx="322"
         cy="-372"
         r="13"
         transform="scale(1,-1)"
         id="circle10606" />
      <circle
         style="opacity:0.1"
         cx="338"
         cy="361"
         r="2"
         id="circle10608" />
      <circle
         style="fill:#ffffff"
         cx="338"
         cy="360"
         r="2"
         id="circle10610" />
      <circle
         style="opacity:0.2"
         cx="322"
         cy="-373"
         r="10"
         transform="scale(1,-1)"
         id="circle10612" />
      <circle
         style="fill:#00b1c4"
         cx="322"
         cy="-372"
         r="10"
         transform="scale(1,-1)"
         id="circle10614" />
      <circle
         style="opacity:0.2"
         cx="322"
         cy="373"
         r="6"
         id="circle10616" />
      <circle
         style="fill:#70f4ff"
         cx="322"
         cy="372"
         r="6"
         id="circle10618" />
      <path
         style="opacity:0.1;fill:#ffffff"
         d="m 317,352 c -1,0 -0.99959,-6.9e-4 -1.94922,1.03711 L 312.33984,356 H 306 c -2.2,0 -4,1.8 -4,4 v 1 c 0,-2.2 1.8,-4 4,-4 h 6.33984 l 2.71094,-2.96289 C 316.00041,352.99931 316,353 317,353 h 10 c 1,0 0.99916,3.4e-4 1.91211,0.99805 L 331.66016,357 H 338 c 2.2,0 4,1.8 4,4 v -1 c 0,-2.2 -1.8,-4 -4,-4 h -6.33984 l -2.74805,-3.00195 C 327.99916,352.00034 328,352 327,352 Z"
         id="path10620" />
      <path
         style="opacity:0.2;fill:#ffffff"
         d="m 322,366 a 6,6 0 0 0 -6,6 6,6 0 0 0 0.0215,0.49414 6,6 0 0 1 5.97852,-5.49414 6,6 0 0 1 5.97852,5.50586 6,6 0 0 0 0.0215,-0.50586 6,6 0 0 0 -6,-6 z"
         id="path10622" />
    </g>
    <g
       id="camera-photo_64"
       inkscape:export-filename="../usr/share/icons/Mint-C/devices/64@2x/camera-photo.png"
       inkscape:export-xdpi="192"
       inkscape:export-ydpi="192"
       transform="translate(-3.0517578e-5,-256)">
      <path
         style="opacity:0.2"
         d="M 256.27054,339.44139 252.4758,344 h -8.87578 c -3.08,0 -5.6,2.45622 -5.6,5.51178 v 32.93266 c 0,3.05556 2.52,5.55556 5.6,5.55556 h 44.8 c 3.08,0 5.6,-2.5 5.6,-5.55556 v -32.93266 c 0,-3.05556 -2.52004,-5.49659 -5.6,-5.51178 h -8.87578 l -3.8461,-4.61429 C 274.40002,338 274.40002,338 273.00002,338 h -14 c -1.4,0 -1.4,0 -2.72948,1.44139 z"
         id="path7294" />
      <path
         style="fill:#4f4f4f"
         d="M 256.27054,338.44139 252.4758,343 h -8.87578 c -3.08,0 -5.6,2.45622 -5.6,5.51178 v 32.93266 c 0,3.05556 2.52,5.55556 5.6,5.55556 h 44.8 c 3.08,0 5.6,-2.5 5.6,-5.55556 v -32.93266 c 0,-3.05556 -2.52004,-5.49659 -5.6,-5.51178 h -8.87578 l -3.8461,-4.61429 C 274.40002,337 274.40002,337 273.00002,337 h -14 c -1.4,0 -1.4,0 -2.72948,1.44139 z"
         id="path7296" />
      <path
         style="opacity:0.2"
         d="M 256.27054,338.44139 252.4758,343 h -8.87578 c -3.08,0 -5.6,2.45622 -5.6,5.51178 V 351 h 56 v -2.48822 c 0,-3.05556 -2.52004,-5.49659 -5.6,-5.51178 h -8.87578 l -3.8461,-4.61429 C 274.40002,337 274.40002,337 273.00002,337 h -14 c -1.4,0 -1.4,0 -2.72948,1.44139 z"
         id="path7298" />
      <circle
         style="opacity:0.1"
         cx="289.00003"
         cy="349"
         r="3"
         id="circle7300" />
      <circle
         style="fill:#ffffff"
         cx="289.00003"
         cy="348"
         r="3"
         id="circle7302" />
      <circle
         style="fill:#2f2f2f"
         cx="266"
         cy="-365"
         r="18"
         transform="scale(1,-1)"
         id="circle7304" />
      <circle
         style="opacity:0.2"
         cx="266"
         cy="-366"
         r="14"
         transform="scale(1,-1)"
         id="circle7306" />
      <circle
         style="fill:#00b1c4"
         cx="266"
         cy="-365"
         r="14"
         transform="scale(1,-1)"
         id="circle7308" />
      <circle
         style="opacity:0.2"
         cx="266"
         cy="366"
         r="8"
         id="circle7310" />
      <circle
         style="fill:#70f4ff"
         cx="266"
         cy="365"
         r="8"
         id="circle7312" />
      <path
         style="opacity:0.1;fill:#ffffff"
         d="m 259.00002,337 c -1.4,0 -1.40099,10e-6 -2.73047,1.44141 L 252.47658,343 h -8.875 c -3.08,0 -5.60156,2.45616 -5.60156,5.51172 v 1 c 0,-3.05556 2.52156,-5.51172 5.60156,-5.51172 h 8.875 l 3.79297,-4.55859 C 257.59903,338.00001 257.60002,338 259.00002,338 h 14 c 1.4,0 1.40157,10e-4 2.67969,1.38672 L 279.52346,344 h 8.875 c 3.07996,0.0152 5.60156,2.45616 5.60156,5.51172 v -1 c 0,-3.05556 -2.5216,-5.49653 -5.60156,-5.51172 h -8.875 l -3.84375,-4.61328 C 274.40159,337.00101 274.40002,337 273.00002,337 Z"
         id="path7314" />
      <path
         style="opacity:0.2;fill:#ffffff"
         d="m 265.87893,357 a 8,8 0 0 0 -7.87891,8 8,8 0 0 0 0.0156,0.50586 A 8,8 0 0 1 265.87891,358 8,8 0 0 1 266,358 a 8,8 0 0 1 7.98437,7.49805 8,8 0 0 0 0.0156,-0.49805 8,8 0 0 0 -8,-8 8,8 0 0 0 -0.12109,0 z"
         id="path7316" />
    </g>
    <g
       id="camera-photo_96"
       inkscape:export-filename="../usr/share/icons/Mint-C/devices/96@2x/camera-photo.png"
       inkscape:export-xdpi="192"
       inkscape:export-ydpi="192"
       transform="translate(-1.5258789e-5,-256)">
      <path
         style="opacity:0.2;stroke-width:1.5"
         d="M 171.40578,312.16208 165.71367,319 H 152.4 c -4.62,0 -8.4,3.68433 -8.4,8.26767 v 49.39899 C 144,381.25 147.78,385 152.4,385 h 67.2 c 4.62,0 8.4,-3.75 8.4,-8.33334 v -49.39899 c 0,-4.58334 -3.78006,-8.24489 -8.4,-8.26767 h -13.31367 l -5.76915,-6.92144 C 198.6,310 198.6,310 196.5,310 h -21 c -2.1,0 -2.1,0 -4.09422,2.16208 z"
         id="path7294-6" />
      <path
         style="fill:#4f4f4f;stroke-width:1.5"
         d="M 171.40578,311.16208 165.71367,318 H 152.4 c -4.62,0 -8.4,3.68433 -8.4,8.26767 v 49.39899 C 144,380.25 147.78,384 152.4,384 h 67.2 c 4.62,0 8.4,-3.75 8.4,-8.33334 v -49.39899 c 0,-4.58334 -3.78006,-8.24489 -8.4,-8.26767 h -13.31367 l -5.76915,-6.92144 C 198.6,309 198.6,309 196.5,309 h -21 c -2.1,0 -2.1,0 -4.09422,2.16208 z"
         id="path7296-32" />
      <path
         style="opacity:0.2;stroke-width:1.5"
         d="M 171.40578,311.16208 165.71367,318 H 152.4 c -4.62,0 -8.4,3.68433 -8.4,8.26767 V 330 h 84 v -3.73233 c 0,-4.58334 -3.78006,-8.24489 -8.4,-8.26767 h -13.31367 l -5.76915,-6.92144 C 198.6,309 198.6,309 196.5,309 h -21 c -2.1,0 -2.1,0 -4.09422,2.16208 z"
         id="path7298-0" />
      <circle
         style="opacity:0.1;stroke-width:1.5"
         cx="220.50002"
         cy="326.5"
         r="4.5"
         id="circle7300-6" />
      <circle
         style="fill:#ffffff;stroke-width:1.5"
         cx="220.50002"
         cy="325.5"
         r="4.5"
         id="circle7302-1" />
      <circle
         style="fill:#2f2f2f;stroke-width:1.5"
         cx="185.99997"
         cy="-351"
         r="27"
         transform="scale(1,-1)"
         id="circle7304-5" />
      <circle
         style="opacity:0.2;stroke-width:1.5"
         cx="185.99997"
         cy="-352"
         r="21"
         transform="scale(1,-1)"
         id="circle7306-5" />
      <circle
         style="fill:#00b1c4;stroke-width:1.5"
         cx="185.99997"
         cy="-351"
         r="21"
         transform="scale(1,-1)"
         id="circle7308-47" />
      <circle
         style="opacity:0.2;stroke-width:1.5"
         cx="185.99997"
         cy="352"
         r="12"
         id="circle7310-6" />
      <circle
         style="fill:#70f4ff;stroke-width:1.5"
         cx="185.99997"
         cy="351"
         r="12"
         id="circle7312-5" />
      <path
         id="path7314-6"
         style="opacity:0.1;fill:#ffffff;stroke-width:1.5"
         d="m 175.5,309 c -2.1,0 -2.10149,10e-6 -4.0957,2.16211 L 165.71484,318 h -13.3125 C 147.78235,318 144,321.68424 144,326.26758 v 1 C 144,322.68424 147.7804,319 152.40039,319 h 13.3125 l 5.69336,-6.83789 C 173.40047,310.00003 173.4,310 175.5,310 h 21 c 2.1,0 2.1004,-4.3e-4 4.01758,2.07812 L 206.28711,319 h 13.3125 c 4.61993,0.0228 8.40039,3.68424 8.40039,8.26758 v -1 c 0,-4.58334 -3.78241,-8.2448 -8.40234,-8.26758 h -13.3125 l -5.76563,-6.91992 C 198.60235,309.00151 198.6,309 196.5,309 Z" />
      <path
         id="path7316-9"
         style="opacity:0.2;fill:#ffffff;stroke-width:1.5"
         d="M 185.81836,339 A 12,12 0 0 0 174,351 12,12 0 0 0 174.0215,351.70117 12,12 0 0 1 186,340 12,12 0 0 1 197.98633,351.41211 12,12 0 0 0 198,351 a 12,12 0 0 0 -12,-12 12,12 0 0 0 -0.18164,0 z" />
    </g>
    <g
       id="camera-photo_128"
       inkscape:export-filename="../usr/share/icons/Mint-C/devices/128@2x/camera-photo.png"
       inkscape:export-xdpi="192"
       inkscape:export-ydpi="192"
       transform="translate(0,-256)">
      <path
         style="opacity:0.2;stroke-width:2"
         d="M 54.541036,284.88278 46.951564,294 H 29.2 C 23.04,294 18,298.91244 18,305.02356 v 65.86532 C 18,377 23.04,382 29.2,382 h 89.6 c 6.16,0 11.2,-5 11.2,-11.11112 V 305.02356 C 130,298.91244 124.95992,294.03038 118.8,294 h -17.75157 l -7.692189,-9.22858 C 90.800001,282 90.800001,282 88.000001,282 H 60 c -2.8,0 -2.8,0 -5.458964,2.88278 z"
         id="path7294-9" />
      <path
         style="fill:#4f4f4f;stroke-width:2"
         d="M 54.541036,282.88278 46.951564,292 H 29.2 C 23.04,292 18,296.91244 18,303.02356 v 65.86532 C 18,375 23.04,380 29.2,380 h 89.6 c 6.16,0 11.2,-5 11.2,-11.11112 V 303.02356 C 130,296.91244 124.95992,292.03038 118.8,292 h -17.75157 l -7.692189,-9.22858 C 90.800001,280 90.800001,280 88.000001,280 H 60 c -2.8,0 -2.8,0 -5.458964,2.88278 z"
         id="path7296-3" />
      <path
         style="opacity:0.2;stroke-width:2"
         d="M 54.541036,282.88278 46.951564,292 H 29.2 C 23.04,292 18,296.91244 18,303.02356 V 308 h 112 v -4.97644 C 130,296.91244 124.95992,292.03038 118.8,292 h -17.75157 l -7.692189,-9.22858 C 90.800001,280 90.800001,280 88.000001,280 H 60 c -2.8,0 -2.8,0 -5.458964,2.88278 z"
         id="path7298-1" />
      <circle
         style="opacity:0.1;stroke-width:2"
         cx="119.99999"
         cy="303"
         r="6"
         id="circle7300-9" />
      <circle
         style="fill:#ffffff;stroke-width:2"
         cx="119.99999"
         cy="302"
         r="6"
         id="circle7302-4" />
      <circle
         style="fill:#2f2f2f;stroke-width:2"
         cx="74"
         cy="-336"
         r="36"
         transform="scale(1,-1)"
         id="circle7304-7" />
      <circle
         style="opacity:0.2;stroke-width:2"
         cx="74"
         cy="-337"
         r="28"
         transform="scale(1,-1)"
         id="circle7306-8" />
      <circle
         style="fill:#00b1c4;stroke-width:2"
         cx="74"
         cy="-336"
         r="28"
         transform="scale(1,-1)"
         id="circle7308-4" />
      <circle
         style="opacity:0.2;stroke-width:2"
         cx="74"
         cy="337"
         r="16"
         id="circle7310-5" />
      <circle
         style="fill:#70f4ff;stroke-width:2"
         cx="74"
         cy="336"
         r="16"
         id="circle7312-0" />
      <path
         id="path7314-3"
         style="opacity:0.1;fill:#ffffff;stroke-width:2"
         d="m 60,280 c -2.799997,0 -2.801976,2e-5 -5.460938,2.88281 L 46.953125,292 h -17.75 C 23.043131,292 18,296.91232 18,303.02344 v 1 C 18,297.91232 23.039225,293 29.199219,293 h 17.751953 l 7.589844,-9.11719 C 57.199977,281.00004 57.200003,281 60,281 h 28 c 2.799997,0 2.799231,7e-5 5.355469,2.77148 L 101.04883,293 h 17.75195 C 124.9607,293.03038 130,297.91232 130,304.02344 v -1 C 130,296.91232 124.9568,292.03038 118.79688,292 h -17.75 l -7.687505,-9.22656 C 90.803138,280.00202 90.799997,280 88,280 Z" />
      <path
         id="path7316-6"
         style="opacity:0.2;fill:#ffffff;stroke-width:2"
         d="M 73.757812,320 A 16,16 0 0 0 58,336 16,16 0 0 0 58.021484,336.69727 16,16 0 0 1 74,321 16,16 0 0 1 89.986328,336.44141 16,16 0 0 0 90,336 16,16 0 0 0 74,320 a 16,16 0 0 0 -0.242188,0 z" />
    </g>
  </g>
</svg>
