<?xml version="1.0" encoding="UTF-8" standalone="no"?>
<!-- Created with Inkscape (http://www.inkscape.org/) -->

<svg
   width="450"
   height="148"
   viewBox="0 0 450 148"
   version="1.1"
   id="svg1857"
   sodipodi:docname="drive-harddisk.svg"
   inkscape:version="1.2.2 (1:1.2.2+202305151914+b0a8486541)"
   xmlns:inkscape="http://www.inkscape.org/namespaces/inkscape"
   xmlns:sodipodi="http://sodipodi.sourceforge.net/DTD/sodipodi-0.dtd"
   xmlns="http://www.w3.org/2000/svg"
   xmlns:svg="http://www.w3.org/2000/svg">
  <sodipodi:namedview
     id="namedview1859"
     pagecolor="#d2d2d2"
     bordercolor="#000000"
     borderopacity="0.25"
     inkscape:showpageshadow="2"
     inkscape:pageopacity="0"
     inkscape:pagecheckerboard="0"
     inkscape:deskcolor="#d2d2d2"
     inkscape:document-units="px"
     showgrid="false"
     inkscape:zoom="2.9088889"
     inkscape:cx="225"
     inkscape:cy="73.911383"
     inkscape:window-width="1920"
     inkscape:window-height="1008"
     inkscape:window-x="0"
     inkscape:window-y="0"
     inkscape:window-maximized="1"
     inkscape:current-layer="svg1857"
     showborder="false" />
  <defs
     id="defs1854" />
  <g
     id="Baseplate"
     style="display:none">
    <rect
       style="display:inline;fill:#000000"
       id="16x16"
       width="16"
       height="16"
       x="402"
       y="121.99999" />
    <rect
       style="display:inline;fill:#000000"
       id="22x22"
       width="22"
       height="22"
       x="379"
       y="115" />
    <rect
       style="display:inline;fill:#000000"
       id="24x24"
       width="24"
       height="24"
       x="378"
       y="113.99999" />
    <rect
       style="display:inline;fill:#000000"
       id="32x32"
       width="32"
       height="32"
       x="346"
       y="105.99999" />
    <rect
       style="display:inline;fill:#000000"
       id="48x48"
       width="48"
       height="48"
       x="298"
       y="90" />
    <rect
       style="display:inline;fill:#000000"
       id="64x64"
       width="64"
       height="64"
       x="233.99998"
       y="74" />
    <rect
       style="display:inline;fill:#000000"
       id="96x96"
       width="96"
       height="96"
       x="137.99998"
       y="42" />
    <rect
       style="display:inline;fill:#000000"
       id="128x128"
       width="128"
       height="128"
       x="10"
       y="10" />
    <text
       xml:space="preserve"
       style="font-weight:600;font-size:18.6667px;font-family:'Noto Sans';-inkscape-font-specification:'Noto Sans Semi-Bold';text-align:end;text-anchor:end;opacity:1;fill:#000000;stroke:none;stroke-width:4;stroke-linecap:round;stroke-linejoin:round"
       x="418.18896"
       y="20.30912"
       id="context"><tspan
         sodipodi:role="line"
         id="tspan1650"
         x="418.18896"
         y="20.30912"
         style="font-style:normal;font-variant:normal;font-weight:normal;font-stretch:normal;font-size:18.6667px;font-family:'Noto Sans';-inkscape-font-specification:'Noto Sans';text-align:end;text-anchor:end;fill:#000000;stroke:none">devices</tspan></text>
    <text
       xml:space="preserve"
       style="font-weight:600;font-size:18.6667px;font-family:'Noto Sans';-inkscape-font-specification:'Noto Sans Semi-Bold';text-align:end;text-anchor:end;fill:#000000;stroke:none;stroke-width:4;stroke-linecap:round;stroke-linejoin:round"
       x="418.24496"
       y="42.27351"
       id="icon-name"><tspan
         sodipodi:role="line"
         id="tspan1650-6"
         x="418.24496"
         y="42.27351"
         style="font-style:normal;font-variant:normal;font-weight:bold;font-stretch:normal;font-size:18.6667px;font-family:'Noto Sans';-inkscape-font-specification:'Noto Sans Bold';text-align:end;text-anchor:end;fill:#000000;stroke:none">drive-harddisk</tspan></text>
  </g>
  <g
     id="Icon">
    <g
       id="drive-harddisk_16"
       inkscape:export-filename="../usr/share/icons/Mint-C/devices/16/drive-harddisk.png"
       inkscape:export-xdpi="96"
       inkscape:export-ydpi="96"
       transform="translate(-22,-384.00001)">
      <rect
         style="fill:#8e8e8e;fill-opacity:1"
         id="rect14777"
         width="12"
         height="16"
         x="426"
         y="506"
         ry="1" />
      <path
         d="m 432,509 c 2.209,0 4,1.7909 4,4 0,2.2091 -1.791,4 -4,4 h -4 v -4 c 0,-2.2091 1.7909,-4 4,-4 z m 0,2 c -1.1046,0 -2,0.8954 -2,2 0,1.1046 0.8954,2 2,2 1.1046,0 2,-0.8954 2,-2 0,-1.1046 -0.8954,-2 -2,-2 z"
         style="color:#444444;fill:#474747;fill-opacity:1"
         id="path14471" />
    </g>
    <g
       id="drive-harddisk_24"
       inkscape:export-filename="../usr/share/icons/Mint-C/devices/24@2x/drive-harddisk.png"
       inkscape:export-xdpi="192"
       inkscape:export-ydpi="192"
       transform="translate(0,-384)">
      <rect
         style="opacity:0.2"
         width="20"
         height="16"
         x="-520.5"
         y="-398"
         rx="1"
         ry="1"
         transform="matrix(0,-1,-1,0,0,0)"
         id="rect1720-5" />
      <rect
         style="fill:#8e8e8e"
         width="20"
         height="16"
         x="-520"
         y="-398"
         rx="1"
         ry="1"
         transform="matrix(0,-1,-1,0,0,0)"
         id="rect1722-6" />
      <path
         style="opacity:0.5"
         d="m 390,503.00001 c -2.7614,0 -5,2.2386 -5,5 v 5 h 5 c 2.761,0 5,-2.239 5,-5 0,-2.7614 -2.239,-5 -5,-5 z m 0,2 c 1.657,0 3,1.3432 3,3 0,1.657 -1.343,3 -3,3 -1.657,0 -3,-1.343 -3,-3 0,-1.6568 1.343,-3 3,-3 z"
         id="path1724-2" />
      <path
         style="opacity:0.2;fill:#ffffff"
         d="m 383,500.00001 c -0.554,0 -1,0.446 -1,1 v 0.5 c 0,-0.554 0.446,-1 1,-1 h 14 c 0.554,0 1,0.446 1,1 v -0.5 c 0,-0.554 -0.446,-1 -1,-1 z"
         id="path1726-9" />
    </g>
    <g
       id="drive-harddisk_32"
       inkscape:export-filename="../usr/share/icons/Mint-C/devices/32/drive-harddisk.png"
       inkscape:export-xdpi="96"
       inkscape:export-ydpi="96"
       transform="translate(0,-384)">
      <rect
         style="opacity:0.2"
         width="28"
         height="22"
         x="-521"
         y="-373"
         rx="2"
         ry="2"
         transform="matrix(0,-1,-1,0,0,0)"
         id="rect1249" />
      <rect
         style="fill:#8e8e8e"
         width="28"
         height="22"
         x="-520"
         y="-373"
         rx="2"
         ry="2"
         transform="matrix(0,-1,-1,0,0,0)"
         id="rect1251" />
      <path
         style="opacity:0.5"
         d="m 362,496.00003 c -3.866,0 -7,3.134 -7,7 v 7 h 7 c 3.866,0 7,-3.134 7,-7 0,-3.866 -3.134,-7 -7,-7 z m 0,4 a 3,3 0 0 1 3,3 3,3 0 0 1 -3,3 3,3 0 0 1 -3,-3 3,3 0 0 1 3,-3 z"
         id="path1253" />
      <path
         style="opacity:0.2;fill:#ffffff"
         d="m 353,492.00003 c -1.108,0 -2,0.892 -2,2 v 1 c 0,-1.108 0.892,-2 2,-2 h 18 c 1.108,0 2,0.892 2,2 v -1 c 0,-1.108 -0.892,-2 -2,-2 z"
         id="path1255" />
    </g>
    <g
       id="drive-harddisk_48"
       inkscape:export-filename="../usr/share/icons/Mint-C/devices/48@2x/drive-harddisk.png"
       inkscape:export-xdpi="192"
       inkscape:export-ydpi="192"
       transform="translate(0,-384)">
      <rect
         style="opacity:0.2"
         width="40"
         height="32"
         x="-519"
         y="-338"
         rx="2"
         ry="2"
         transform="matrix(0,-1,-1,0,0,0)"
         id="rect14154" />
      <rect
         style="fill:#8e8e8e"
         width="40"
         height="32"
         x="-518"
         y="-338"
         rx="2"
         ry="2"
         transform="matrix(0,-1,-1,0,0,0)"
         id="rect14156" />
      <path
         style="opacity:0.5"
         d="m 322,484.00003 c 5.5228,0 10,4.4772 10,10 0,5.5228 -4.4772,10 -10,10 h -10 v -10 c 0,-5.5228 4.4772,-10 10,-10 z m 0,5 c -2.7614,0 -5,2.2386 -5,5 0,2.7614 2.2386,5 5,5 2.7614,0 5,-2.2386 5,-5 0,-2.7614 -2.2386,-5 -5,-5 z"
         id="path14158" />
      <path
         style="opacity:0.2;fill:#ffffff"
         d="m 308,478.00003 c -1.108,0 -2,0.892 -2,2 v 1 c 0,-1.108 0.892,-2 2,-2 h 28 c 1.108,0 2,0.892 2,2 v -1 c 0,-1.108 -0.892,-2 -2,-2 z"
         id="path14160" />
    </g>
    <g
       id="drive-harddisk_64"
       inkscape:export-filename="../usr/share/icons/Mint-C/devices/64/drive-harddisk.png"
       inkscape:export-xdpi="96"
       inkscape:export-ydpi="96"
       transform="translate(0,-384)">
      <rect
         style="opacity:0.2"
         width="56"
         height="44"
         x="-519"
         y="-288"
         rx="4"
         ry="4"
         transform="matrix(0,-1,-1,0,0,0)"
         id="rect15215" />
      <rect
         style="fill:#8e8e8e"
         width="56"
         height="44"
         x="-518"
         y="-288"
         rx="4"
         ry="4"
         transform="matrix(0,-1,-1,0,0,0)"
         id="rect15217" />
      <path
         style="opacity:0.5"
         d="m 266,470 c -7.732,0 -14,6.268 -14,14 v 14 h 14 c 7.732,0 14,-6.268 14,-14 0,-7.732 -6.268,-14 -14,-14 z m 0,8 a 6,6 0 0 1 6,6 6,6 0 0 1 -6,6 6,6 0 0 1 -6,-6 6,6 0 0 1 6,-6 z"
         id="path15219" />
      <path
         style="opacity:0.2;fill:#ffffff"
         d="m 248,462 c -2.216,0 -4,1.784 -4,4 v 1 c 0,-2.216 1.784,-4 4,-4 h 36 c 2.216,0 4,1.784 4,4 v -1 c 0,-2.216 -1.784,-4 -4,-4 z"
         id="path15221" />
    </g>
    <g
       id="drive-harddisk_96"
       inkscape:export-filename="../usr/share/icons/Mint-C/devices/96/drive-harddisk.png"
       inkscape:export-xdpi="96"
       inkscape:export-ydpi="96"
       transform="translate(-1.5258789e-5,-384)">
      <rect
         style="opacity:0.2;stroke-width:1.5"
         width="84"
         height="66"
         x="-517"
         y="-219"
         rx="6"
         ry="6"
         transform="matrix(0,-1,-1,0,0,0)"
         id="rect15215-3" />
      <rect
         style="fill:#8e8e8e;stroke-width:1.5"
         width="84"
         height="66"
         x="-516"
         y="-219"
         rx="6"
         ry="6"
         transform="matrix(0,-1,-1,0,0,0)"
         id="rect15217-6" />
      <path
         style="opacity:0.5;stroke-width:1.5"
         d="m 186,444 c -11.598,0 -21,9.402 -21,21 v 21.00001 h 21 c 11.598,0 21,-9.40201 21,-21.00001 0,-11.598 -9.402,-21 -21,-21 z m 0,12 a 9,9 0 0 1 9,9 9,9 0 0 1 -9,9 9,9 0 0 1 -9,-9 9,9 0 0 1 9,-9 z"
         id="path15219-7" />
      <path
         id="path15221-5"
         style="opacity:0.2;fill:#ffffff;stroke-width:1.5"
         d="m 159,432 c -3.324,0 -6,2.676 -6,6 v 1 c 0,-3.324 2.676,-6 6,-6 h 54 c 3.324,0 6,2.676 6,6 v -1 c 0,-3.324 -2.676,-6 -6,-6 z" />
    </g>
    <g
       id="drive-harddisk_128"
       inkscape:export-filename="../usr/share/icons/Mint-C/devices/128@2x/drive-harddisk.png"
       inkscape:export-xdpi="192"
       inkscape:export-ydpi="192"
       transform="translate(0,-384)">
      <rect
         style="opacity:0.2;stroke-width:2"
         width="111.99999"
         height="87.999992"
         x="-515"
         y="-117.99999"
         rx="7.9999995"
         ry="7.9999995"
         transform="matrix(0,-1,-1,0,0,0)"
         id="rect15215-6" />
      <rect
         style="fill:#8e8e8e;stroke-width:2"
         width="111.99999"
         height="87.999992"
         x="-514"
         y="-117.99999"
         rx="7.9999995"
         ry="7.9999995"
         transform="matrix(0,-1,-1,0,0,0)"
         id="rect15217-8" />
      <path
         style="opacity:0.5;stroke-width:2"
         d="m 73.999996,418.00005 c -15.463999,0 -27.999999,12.536 -27.999999,28 v 28 h 27.999999 c 15.464002,0 28.000004,-12.536 28.000004,-28 0,-15.464 -12.536002,-28 -28.000004,-28 z m 0,16 a 11.999999,11.999999 0 0 1 12.000002,12 11.999999,11.999999 0 0 1 -12.000002,12 11.999999,11.999999 0 0 1 -11.999999,-12 11.999999,11.999999 0 0 1 11.999999,-12 z"
         id="path15219-9" />
      <path
         id="path15221-2"
         style="opacity:0.2;fill:#ffffff;stroke-width:2"
         d="m 38,402 c -4.431996,0 -8,3.568 -8,8 v 1 c 0,-4.432 3.568005,-8 8,-8 h 72 c 4.432,0 8,3.568 8,8 v -1 c 0,-4.432 -3.568,-8 -8,-8 z" />
    </g>
  </g>
</svg>
