<?xml version="1.0" encoding="UTF-8" standalone="no"?>
<!-- Created with Inkscape (http://www.inkscape.org/) -->

<svg
   width="450"
   height="148"
   viewBox="0 0 450 148"
   version="1.1"
   id="svg1857"
   sodipodi:docname="printer.svg"
   inkscape:version="1.2.2 (1:1.2.2+202305151914+b0a8486541)"
   xmlns:inkscape="http://www.inkscape.org/namespaces/inkscape"
   xmlns:sodipodi="http://sodipodi.sourceforge.net/DTD/sodipodi-0.dtd"
   xmlns="http://www.w3.org/2000/svg"
   xmlns:svg="http://www.w3.org/2000/svg">
  <sodipodi:namedview
     id="namedview1859"
     pagecolor="#d2d2d2"
     bordercolor="#000000"
     borderopacity="0.25"
     inkscape:showpageshadow="2"
     inkscape:pageopacity="0"
     inkscape:pagecheckerboard="0"
     inkscape:deskcolor="#d2d2d2"
     inkscape:document-units="px"
     showgrid="false"
     inkscape:zoom="2.86"
     inkscape:cx="225"
     inkscape:cy="74.125874"
     inkscape:window-width="1920"
     inkscape:window-height="1008"
     inkscape:window-x="0"
     inkscape:window-y="0"
     inkscape:window-maximized="1"
     inkscape:current-layer="svg1857"
     showborder="false" />
  <defs
     id="defs1854" />
  <g
     id="Baseplate"
     style="display:none">
    <rect
       style="display:inline;fill:#000000"
       id="16x16"
       width="16"
       height="16"
       x="402"
       y="121.99999" />
    <rect
       style="display:inline;fill:#000000"
       id="22x22"
       width="22"
       height="22"
       x="379"
       y="115" />
    <rect
       style="display:inline;fill:#000000"
       id="24x24"
       width="24"
       height="24"
       x="378"
       y="113.99999" />
    <rect
       style="display:inline;fill:#000000"
       id="32x32"
       width="32"
       height="32"
       x="346"
       y="105.99999" />
    <rect
       style="display:inline;fill:#000000"
       id="48x48"
       width="48"
       height="48"
       x="298"
       y="90" />
    <rect
       style="display:inline;fill:#000000"
       id="64x64"
       width="64"
       height="64"
       x="233.99998"
       y="74" />
    <rect
       style="display:inline;fill:#000000"
       id="96x96"
       width="96"
       height="96"
       x="137.99998"
       y="42" />
    <rect
       style="display:inline;fill:#000000"
       id="128x128"
       width="128"
       height="128"
       x="10"
       y="10" />
    <text
       xml:space="preserve"
       style="font-weight:600;font-size:18.6667px;font-family:'Noto Sans';-inkscape-font-specification:'Noto Sans Semi-Bold';text-align:end;text-anchor:end;opacity:1;fill:#000000;stroke:none;stroke-width:4;stroke-linecap:round;stroke-linejoin:round"
       x="418.18896"
       y="20.30912"
       id="context"><tspan
         sodipodi:role="line"
         id="tspan1650"
         x="418.18896"
         y="20.30912"
         style="font-style:normal;font-variant:normal;font-weight:normal;font-stretch:normal;font-size:18.6667px;font-family:'Noto Sans';-inkscape-font-specification:'Noto Sans';text-align:end;text-anchor:end;fill:#000000;stroke:none">devices</tspan></text>
    <text
       xml:space="preserve"
       style="font-weight:600;font-size:18.6667px;font-family:'Noto Sans';-inkscape-font-specification:'Noto Sans Semi-Bold';text-align:end;text-anchor:end;fill:#000000;stroke:none;stroke-width:4;stroke-linecap:round;stroke-linejoin:round"
       x="418.24496"
       y="42.27351"
       id="icon-name"><tspan
         sodipodi:role="line"
         id="tspan1650-6"
         x="418.24496"
         y="42.27351"
         style="font-style:normal;font-variant:normal;font-weight:bold;font-stretch:normal;font-size:18.6667px;font-family:'Noto Sans';-inkscape-font-specification:'Noto Sans Bold';text-align:end;text-anchor:end;fill:#000000;stroke:none">printer</tspan></text>
  </g>
  <g
     id="Icon">
    <g
       id="printer_16"
       inkscape:export-filename="../usr/share/icons/Mint-C/devices/16@2x/printer.png"
       inkscape:export-xdpi="192"
       inkscape:export-ydpi="192"
       transform="translate(-537,-384.00001)">
      <rect
         style="opacity:1;fill:none;stroke-width:5;stroke-linecap:round;stroke-linejoin:round"
         id="rect5844"
         width="16"
         height="16"
         x="939"
         y="506" />
      <rect
         style="fill:#e4e4e4;fill-opacity:1;stroke-width:5;stroke-linecap:round;stroke-linejoin:round"
         id="rect8933"
         width="10"
         height="8"
         x="942"
         y="507"
         ry="1" />
      <rect
         style="fill:#4f4f4f;fill-opacity:1;stroke-width:5;stroke-linecap:round;stroke-linejoin:round"
         id="rect8603"
         width="14"
         height="7"
         x="940"
         y="511"
         ry="1" />
      <rect
         style="opacity:0.2;fill:#000000;fill-opacity:1;stroke-width:5;stroke-linecap:round;stroke-linejoin:round"
         id="rect9128"
         width="12"
         height="2"
         x="941"
         y="515" />
      <path
         id="rect9125"
         style="fill:#e4e4e4;stroke-width:5;stroke-linecap:round;stroke-linejoin:round"
         d="m 952,516 v 4 c 0,0.554 -0.446,1 -1,1 h -8 c -0.554,0 -1,-0.446 -1,-1 v -4 z"
         sodipodi:nodetypes="csssscc" />
      <rect
         style="opacity:1;fill:#76ff03;fill-opacity:1;stroke-width:5;stroke-linecap:round;stroke-linejoin:round"
         id="rect9182"
         width="1"
         height="1"
         x="941"
         y="512" />
      <rect
         style="opacity:0.5;fill:#000000;fill-opacity:1;stroke-width:3.53553;stroke-linecap:round;stroke-linejoin:round"
         id="rect9443"
         width="4"
         height="1"
         x="943"
         y="517" />
      <rect
         style="opacity:0.5;fill:#000000;fill-opacity:1;stroke-width:5;stroke-linecap:round;stroke-linejoin:round"
         id="rect9445"
         width="8"
         height="1"
         x="943"
         y="519" />
    </g>
    <g
       id="printer_24"
       inkscape:export-filename="../usr/share/icons/Mint-C/devices/24@2x/printer.png"
       inkscape:export-xdpi="192"
       inkscape:export-ydpi="192"
       transform="translate(-515,-383.99999)">
      <rect
         style="opacity:0.2"
         width="8.5"
         height="20"
         x="-514.5"
         y="-915"
         rx="1"
         ry="1"
         transform="matrix(0,-1,-1,0,0,0)"
         id="rect8145-6" />
      <path
         style="opacity:0.2"
         d="m 897,512 v 7.5 c 0,0.554 0.446,1 1,1 h 14 c 0.554,0 1,-0.446 1,-1 V 512 Z"
         id="path8147-1" />
      <path
         style="fill:#e4e4e4"
         d="m 898,500 c -0.554,0 -1,0.446 -1,1 v 6 h 16 v -6 c 0,-0.554 -0.446,-1 -1,-1 z"
         id="path8149-2" />
      <rect
         style="fill:#4f4f4f"
         width="9"
         height="20"
         x="-514"
         y="-915"
         rx="1.059"
         ry="1"
         transform="matrix(0,-1,-1,0,0,0)"
         id="rect8151-9" />
      <rect
         style="opacity:0.2"
         width="18"
         height="2"
         x="896"
         y="510.5"
         id="rect8153-3" />
      <rect
         style="opacity:0.2"
         width="2"
         height="2"
         x="896"
         y="506.5"
         rx="0.75"
         ry="0.75"
         id="rect8155-1" />
      <rect
         style="fill:#76ff03"
         width="2"
         height="2"
         x="896"
         y="506"
         rx="0.75"
         ry="0.75"
         id="rect8157-9" />
      <path
         style="fill:#e4e4e4"
         d="m 897,511.5 v 7.5 c 0,0.554 0.446,1 1,1 h 14 c 0.554,0 1,-0.446 1,-1 v -7.5 z"
         id="path8159-4" />
      <path
         style="opacity:0.2;fill:#ffffff"
         d="m 898,500 c -0.554,0 -1,0.446 -1,1 v 0.5 c 0,-0.554 0.446,-1 1,-1 h 14 c 0.554,0 1,0.446 1,1 V 501 c 0,-0.554 -0.446,-1 -1,-1 z"
         id="path8161-7" />
      <rect
         style="opacity:0.5"
         width="10.5"
         height="1"
         x="899"
         y="517"
         id="rect8163-8" />
      <rect
         style="opacity:0.5"
         width="8.5"
         height="1"
         x="899"
         y="515"
         id="rect8165-4" />
      <rect
         style="opacity:0.5"
         width="12"
         height="1"
         x="899"
         y="513"
         id="rect8167-5" />
      <path
         style="opacity:0.2;fill:#ffffff"
         d="m 896.75,506 c -0.4155,0 -0.75,0.3345 -0.75,0.75 v 0.5 c 0,-0.4155 0.3345,-0.75 0.75,-0.75 h 0.5 c 0.4155,0 0.75,0.3345 0.75,0.75 v -0.5 c 0,-0.4155 -0.3345,-0.75 -0.75,-0.75 z"
         id="path8169-0" />
      <path
         style="opacity:0.1;fill:#ffffff"
         d="m 896,505 c -0.554,0 -1,0.47201 -1,1.05859 v 0.5 c 0,-0.58658 0.446,-1.05859 1,-1.05859 h 18 c 0.554,0 1,0.47201 1,1.05859 v -0.5 C 915,505.47201 914.554,505 914,505 Z"
         id="path8171-3" />
    </g>
    <g
       id="printer_32"
       inkscape:export-filename="../usr/share/icons/Mint-C/devices/32/printer.png"
       inkscape:export-xdpi="96"
       inkscape:export-ydpi="96"
       transform="translate(-515.00002,-384)">
      <rect
         style="opacity:1;fill:none;stroke-width:5;stroke-linecap:round;stroke-linejoin:round"
         id="rect5838"
         width="32"
         height="32"
         x="861"
         y="490" />
      <rect
         style="opacity:0.2"
         width="12"
         height="28"
         x="-513"
         y="-891"
         rx="1.4119999"
         ry="1.4"
         transform="matrix(0,-1,-1,0,0,0)"
         id="rect7625" />
      <path
         style="opacity:0.2"
         d="m 866,509 v 10.58823 c 0,0.78213 0.61325,1.41178 1.375,1.41178 h 19.25 c 0.76175,0 1.375,-0.62965 1.375,-1.41178 V 509 Z"
         id="path7627" />
      <path
         style="fill:#e4e4e4"
         d="m 867.375,492 c -0.76175,0 -1.375,0.63714 -1.375,1.42857 V 502 h 22 v -8.57143 C 888,492.63714 887.38675,492 886.625,492 Z"
         id="path7629" />
      <rect
         style="fill:#4f4f4f"
         width="12"
         height="28"
         x="-512"
         y="-891"
         rx="1.4119999"
         ry="1.4"
         transform="matrix(0,-1,-1,0,0,0)"
         id="rect7631" />
      <rect
         style="opacity:0.2"
         width="24"
         height="2"
         x="865"
         y="507"
         id="rect7633" />
      <rect
         style="opacity:0.2"
         width="3"
         height="3"
         x="865"
         y="503"
         rx="1.125"
         ry="1.125"
         id="rect7635" />
      <rect
         style="fill:#76ff03"
         width="3"
         height="3"
         x="865"
         y="502"
         rx="1.125"
         ry="1.125"
         id="rect7637" />
      <path
         style="fill:#e4e4e4"
         d="m 866,508 v 10.58823 c 0,0.78213 0.61325,1.41178 1.375,1.41178 h 19.25 c 0.76175,0 1.375,-0.62965 1.375,-1.41178 V 508 Z"
         id="path7639" />
      <path
         style="opacity:0.5;fill-rule:evenodd"
         d="m 869,516.00001 h 14 v 2 h -14 z"
         id="path7641" />
      <path
         style="opacity:0.5;fill-rule:evenodd"
         d="m 869,513.00001 h 11 v 2 h -11 z"
         id="path7643" />
      <path
         style="opacity:0.5;fill-rule:evenodd"
         d="m 869,510.00001 h 16 v 2 h -16 z"
         id="path7645" />
      <path
         style="opacity:0.2;fill:#ffffff"
         d="m 866.125,502 c -0.62325,0 -1.125,0.50176 -1.125,1.125 v 0.75 c 0,0.0444 0.0204,0.082 0.0254,0.125 0.0645,-0.56106 0.52071,-1 1.09961,-1 h 0.75 c 0.5789,0 1.03508,0.43894 1.09961,1 0.005,-0.043 0.0254,-0.0806 0.0254,-0.125 v -0.75 c 0,-0.62324 -0.50175,-1.125 -1.125,-1.125 z"
         id="path7647" />
      <path
         style="opacity:0.1;fill:#ffffff"
         d="M 864.40039,500 C 863.62479,500 863,500.63 863,501.41211 v 1 C 863,501.62999 863.62479,501 864.40039,501 h 25.19922 c 0.7756,0 1.40039,0.63 1.40039,1.41211 v -1 C 891,500.62999 890.37521,500 889.59961,500 Z"
         id="path7649" />
      <path
         style="opacity:0.2;fill:#ffffff"
         d="m 867.375,492 c -0.76175,0 -1.375,0.63631 -1.375,1.42773 v 1 C 866,493.63631 866.61325,493 867.375,493 h 19.25 c 0.76175,0 1.375,0.63631 1.375,1.42773 v -1 C 888,492.63631 887.38675,492 886.625,492 Z"
         id="path7651" />
    </g>
    <g
       id="printer_48"
       inkscape:export-filename="../usr/share/icons/Mint-C/devices/48@2x/printer.png"
       inkscape:export-xdpi="192"
       inkscape:export-ydpi="192"
       transform="translate(-515.00002,-384)">
      <rect
         style="opacity:1;fill:none;stroke-width:5;stroke-linecap:round;stroke-linejoin:round"
         id="rect5836"
         width="48"
         height="48"
         x="813"
         y="474"
         ry="0" />
      <rect
         style="opacity:0.2"
         width="17"
         height="40"
         x="-507.00003"
         y="-857"
         rx="2"
         ry="2"
         transform="matrix(0,-1,-1,0,0,0)"
         id="rect7889" />
      <path
         style="opacity:0.2"
         d="m 821,502 v 15 c 0,1.108 0.892,2 2,2 h 28 c 1.108,0 2,-0.892 2,-2 v -15 z"
         id="path7891" />
      <path
         style="fill:#e4e4e4"
         d="m 823,478 c -1.108,0 -2,0.892 -2,2 v 12 h 32 v -12 c 0,-1.108 -0.892,-2 -2,-2 z"
         id="path7893" />
      <rect
         fill="#4f4f4f"
         width="17"
         height="40"
         x="-506.00003"
         y="-857"
         rx="2"
         ry="2"
         transform="matrix(0,-1,-1,0,0,0)"
         id="rect7895" />
      <path
         fill="#ffffff"
         opacity="0.1"
         d="m 819,489.004 c -1.108,0 -2,0.892 -2,2 v 1 c 0,-1.108 0.892,-2 2,-2 h 36 c 1.108,0 2,0.892 2,2 v -1 c 0,-1.108 -0.892,-2 -2,-2 z"
         id="path7897" />
      <rect
         style="opacity:0.2"
         width="36"
         height="4"
         x="819"
         y="499"
         id="rect7899" />
      <rect
         style="opacity:0.2"
         width="4"
         height="4"
         x="819"
         y="492"
         rx="1.5"
         ry="1.5"
         id="rect7901" />
      <rect
         style="fill:#76ff03"
         width="4"
         height="4"
         x="819"
         y="491"
         rx="1.5"
         ry="1.5"
         id="rect7903" />
      <path
         style="fill:#e4e4e4"
         d="m 821,501 v 15 c 0,1.108 0.892,2 2,2 h 28 c 1.108,0 2,-0.892 2,-2 v -15 z"
         id="path7905" />
      <path
         style="opacity:0.2;fill:#ffffff"
         d="m 823,478 c -1.108,0 -2,0.892 -2,2 v 1 c 0,-1.108 0.892,-2 2,-2 h 28 c 1.108,0 2,0.892 2,2 v -1 c 0,-1.108 -0.892,-2 -2,-2 z"
         id="path7907" />
      <rect
         style="opacity:0.5"
         width="21"
         height="2"
         x="825"
         y="512"
         id="rect7909" />
      <rect
         style="opacity:0.5"
         width="17"
         height="2"
         x="825"
         y="508.00003"
         id="rect7911" />
      <rect
         style="opacity:0.5"
         width="24"
         height="2"
         x="825"
         y="504"
         id="rect7913" />
      <path
         style="opacity:0.2;fill:#ffffff"
         d="m 820.5,491 c -0.831,0 -1.5,0.669 -1.5,1.5 v 1 c 0,-0.831 0.669,-1.5 1.5,-1.5 h 1 c 0.831,0 1.5,0.669 1.5,1.5 v -1 c 0,-0.831 -0.669,-1.5 -1.5,-1.5 z"
         id="path7915" />
    </g>
    <g
       id="printer_64"
       inkscape:export-filename="../usr/share/icons/Mint-C/devices/64/printer.png"
       inkscape:export-xdpi="96"
       inkscape:export-ydpi="96"
       transform="translate(-515.00002,-384)">
      <rect
         style="opacity:1;fill:none;stroke-width:5;stroke-linecap:round;stroke-linejoin:round"
         id="rect5834"
         width="64"
         height="64"
         x="749"
         y="458" />
      <path
         style="opacity:0.2"
         d="m 759,495 v 20.2 c 0,1.5512 1.2265,2.8 2.75,2.8 h 38.5 c 1.5235,0 2.75,-1.2488 2.75,-2.8 V 495 Z"
         id="path6209" />
      <rect
         style="opacity:0.2"
         width="24"
         height="56"
         x="-503"
         y="-809"
         rx="2.8239999"
         ry="2.8"
         transform="matrix(0,-1,-1,0,0,0)"
         id="rect6211" />
      <path
         style="fill:#e4e4e4"
         d="m 761.75,462 c -1.5235,0 -2.75,1.27429 -2.75,2.85714 V 482 h 44 V 464.85714 C 803,463.27429 801.7735,462 800.25,462 Z"
         id="path6213" />
      <rect
         style="fill:#4f4f4f"
         width="24"
         height="56"
         x="-502"
         y="-809"
         rx="2.8239999"
         ry="2.8"
         transform="matrix(0,-1,-1,0,0,0)"
         id="rect6215" />
      <rect
         style="opacity:0.2"
         width="50"
         height="6"
         x="756"
         y="491"
         id="rect6217" />
      <rect
         style="opacity:0.2"
         width="5"
         height="5"
         x="756"
         y="482"
         rx="1.875"
         ry="1.875"
         id="rect6219" />
      <rect
         style="fill:#76ff03"
         width="5"
         height="5"
         x="756"
         y="481"
         rx="1.875"
         ry="1.875"
         id="rect6221" />
      <path
         style="fill:#e4e4e4"
         d="m 759,494 v 20.2 c 0,1.5512 1.2265,2.8 2.75,2.8 h 38.5 c 1.5235,0 2.75,-1.2488 2.75,-2.8 V 494 Z"
         id="path6223" />
      <rect
         style="opacity:0.5"
         width="29"
         height="3"
         x="764"
         y="510"
         id="rect6225" />
      <rect
         style="opacity:0.5"
         width="24"
         height="3"
         x="764"
         y="504"
         id="rect6227" />
      <rect
         style="opacity:0.5"
         width="34"
         height="3"
         x="764"
         y="498"
         id="rect6229" />
      <path
         style="opacity:0.2;fill:#ffffff"
         d="m 761.75,462 c -1.5235,0 -2.75,1.27456 -2.75,2.85742 v 1 C 759,464.27456 760.2265,463 761.75,463 h 38.5 c 1.5235,0 2.75,1.27456 2.75,2.85742 v -1 C 803,463.27456 801.7735,462 800.25,462 Z"
         id="path6231" />
      <path
         style="opacity:0.1;fill:#ffffff"
         d="M 755.80078,478 C 754.24958,478 753,479.25998 753,480.82422 v 1 C 753,480.25998 754.24958,479 755.80078,479 h 50.39844 c 1.5512,0 2.80078,1.25998 2.80078,2.82422 v -1 C 809,479.25998 807.75042,478 806.19922,478 Z"
         id="path6233" />
      <path
         style="opacity:0.2;fill:#ffffff"
         d="m 757.875,481 c -1.03875,0 -1.875,0.83625 -1.875,1.875 v 1 c 0,-1.03875 0.83625,-1.875 1.875,-1.875 h 1.25 c 1.03875,0 1.875,0.83625 1.875,1.875 v -1 C 761,481.83625 760.16375,481 759.125,481 Z"
         id="path6235" />
    </g>
    <g
       id="printer_96"
       inkscape:export-filename="../usr/share/icons/Mint-C/devices/96@2x/printer.png"
       inkscape:export-xdpi="192"
       inkscape:export-ydpi="192"
       transform="translate(-515.00002,-384)">
      <rect
         style="opacity:1;fill:none;stroke-width:5;stroke-linecap:round;stroke-linejoin:round"
         id="rect5832"
         width="96"
         height="96"
         x="653"
         y="426" />
      <path
         style="opacity:0.2;stroke-width:1.5"
         d="m 668,481 v 30.29999 c 0,2.3268 1.83975,4.2 4.125,4.2 h 57.75 c 2.28525,0 4.125,-1.8732 4.125,-4.2 V 481 Z"
         id="path6209-6" />
      <rect
         style="opacity:0.2;stroke-width:1.5"
         width="35.999996"
         height="83.999992"
         x="-493"
         y="-743"
         rx="4.2359996"
         ry="4.1999993"
         transform="matrix(0,-1,-1,0,0,0)"
         id="rect6211-2" />
      <path
         style="fill:#e4e4e4;stroke-width:1.5"
         d="m 672.125,432 c -2.28525,0 -4.125,1.91143 -4.125,4.28571 V 462 h 66 V 436.28571 C 734,433.91143 732.16025,432 729.875,432 Z"
         id="path6213-6" />
      <rect
         style="fill:#4f4f4f;stroke-width:1.5"
         width="35.999996"
         height="83.999992"
         x="-492"
         y="-743"
         rx="4.2359996"
         ry="4.1999993"
         transform="matrix(0,-1,-1,0,0,0)"
         id="rect6215-1" />
      <rect
         style="opacity:0.2;stroke-width:1.5"
         width="74.999992"
         height="8.999999"
         x="663.5"
         y="475.5"
         id="rect6217-8" />
      <rect
         style="opacity:0.2;stroke-width:1.5"
         width="8"
         height="8"
         x="663"
         y="461"
         ry="3"
         id="rect6219-7" />
      <rect
         style="fill:#76ff03;stroke-width:1.5"
         width="8"
         height="8"
         x="663"
         y="460"
         ry="3"
         id="rect6221-92" />
      <path
         style="fill:#e4e4e4;stroke-width:1.5"
         d="m 668,480 v 30.29999 c 0,2.3268 1.83975,4.2 4.125,4.2 h 57.75 c 2.28525,0 4.125,-1.8732 4.125,-4.2 V 480 Z"
         id="path6223-0" />
      <rect
         style="opacity:0.5;stroke-width:1.5"
         width="43.499996"
         height="4.4999995"
         x="675.5"
         y="504"
         id="rect6225-23" />
      <rect
         style="opacity:0.5;stroke-width:1.5"
         width="35.999996"
         height="4.4999995"
         x="675.5"
         y="495"
         id="rect6227-75" />
      <rect
         style="opacity:0.5;stroke-width:1.5"
         width="50.999996"
         height="4.4999995"
         x="675.5"
         y="486"
         id="rect6229-9" />
      <path
         id="path6231-2"
         style="opacity:0.2;fill:#ffffff;stroke-width:1.5"
         d="m 672.125,432 c -2.28525,0 -4.125,1.91087 -4.125,4.28516 v 1 C 668,434.91088 669.83975,433 672.125,433 h 57.75 c 2.28525,0 4.125,1.91088 4.125,4.28516 v -1 C 734,433.91087 732.16025,432 729.875,432 Z" />
      <path
         id="path6233-2"
         style="opacity:0.1;fill:#ffffff;stroke-width:1.5"
         d="M 663.20117,456 C 660.87437,456 659,457.88997 659,460.23633 v 1 C 659,458.88959 660.87242,457 663.19922,457 h 75.60156 c 2.3268,0 4.19922,1.88959 4.19922,4.23633 v -1 C 743,457.88997 741.12563,456 738.79883,456 Z" />
      <path
         id="path6235-8"
         style="opacity:0.2;fill:#ffffff;stroke-width:1.5"
         d="M 665.8125,460 C 664.25438,460 663,461.25437 663,462.8125 v 1 C 663,462.25438 664.25438,461 665.8125,461 h 2.37525 c 1.55812,0 2.8125,1.25438 2.8125,2.8125 v -1 c 0,-1.55813 -1.25437,-2.8125 -2.8125,-2.8125 z"
         sodipodi:nodetypes="sscsscsss" />
    </g>
    <g
       id="printer_128"
       inkscape:export-filename="../usr/share/icons/Mint-C/devices/128/printer.png"
       inkscape:export-xdpi="96"
       inkscape:export-ydpi="96"
       transform="translate(-515.00002,-384)">
      <rect
         style="opacity:1;fill:none;stroke-width:5;stroke-linecap:round;stroke-linejoin:round"
         id="rect5830"
         width="128"
         height="128"
         x="525"
         y="394" />
      <path
         style="opacity:0.2;stroke-width:2"
         d="m 546.00003,466.99999 v 40.39998 c 0,3.1024 2.453,5.6 5.5,5.6 h 76.99998 c 3.047,0 5.5,-2.4976 5.5,-5.6 v -40.39998 z"
         id="path6209-7" />
      <rect
         style="opacity:0.2;stroke-width:2"
         width="47.999989"
         height="111.99997"
         x="-483"
         y="-645.99994"
         rx="5.6479983"
         ry="5.5999985"
         transform="matrix(0,-1,-1,0,0,0)"
         id="rect6211-5" />
      <path
         style="fill:#e4e4e4;stroke-width:2"
         d="m 551.50003,402.00001 c -3.047,0 -5.5,2.54858 -5.5,5.71428 V 442 h 87.99998 v -34.28571 c 0,-3.1657 -2.453,-5.71428 -5.5,-5.71428 z"
         id="path6213-3" />
      <rect
         style="fill:#4f4f4f;stroke-width:2"
         width="47.999989"
         height="111.99997"
         x="-482"
         y="-645.99994"
         rx="5.6479983"
         ry="5.5999985"
         transform="matrix(0,-1,-1,0,0,0)"
         id="rect6215-5" />
      <rect
         style="opacity:0.2;stroke-width:2"
         width="99.999977"
         height="11.999997"
         x="540"
         y="460.00003"
         id="rect6217-6" />
      <rect
         style="opacity:0.2;stroke-width:2"
         width="9.9999971"
         height="9.9999971"
         x="540"
         y="441"
         rx="3.749999"
         ry="3.749999"
         id="rect6219-2" />
      <rect
         style="fill:#76ff03;stroke-width:2"
         width="9.9999971"
         height="9.9999971"
         x="540"
         y="440.00003"
         rx="3.749999"
         ry="3.749999"
         id="rect6221-9" />
      <path
         style="fill:#e4e4e4;stroke-width:2"
         d="m 546.00003,466 v 40.39998 c 0,3.1024 2.453,5.6 5.5,5.6 h 76.99998 c 3.047,0 5.5,-2.4976 5.5,-5.6 V 466 Z"
         id="path6223-1" />
      <rect
         style="opacity:0.5;stroke-width:2"
         width="57.999985"
         height="5.9999986"
         x="556"
         y="498"
         id="rect6225-2" />
      <rect
         style="opacity:0.5;stroke-width:2"
         width="47.999989"
         height="5.9999986"
         x="556"
         y="486"
         id="rect6227-7" />
      <rect
         style="opacity:0.5;stroke-width:2"
         width="67.999977"
         height="5.9999986"
         x="556"
         y="474.00003"
         id="rect6229-0" />
      <path
         style="opacity:0.2;fill:#ffffff;stroke-width:2"
         d="m 551.50003,402.00001 c -3.047,0 -5.5,2.54912 -5.5,5.71484 v 2 c 0,-3.16572 2.453,-5.71484 5.5,-5.71484 h 76.99998 c 3.047,0 5.5,2.54912 5.5,5.71484 v -2 c 0,-3.16572 -2.453,-5.71484 -5.5,-5.71484 z"
         id="path6231-9" />
      <path
         id="path6233-3"
         style="opacity:0.1;fill:#ffffff;stroke-width:2"
         d="M 539.60156,434 C 536.49917,434 534,436.51996 534,439.64844 v 1 C 534,437.51945 536.49721,435 539.59961,435 h 100.80078 c 3.1024,0 5.59961,2.51945 5.59961,5.64844 v -1 C 646,436.51996 643.50082,434 640.39844,434 Z" />
      <path
         style="opacity:0.2;fill:#ffffff;stroke-width:2"
         d="m 543.75003,440 c -2.0775,0 -3.75,1.6725 -3.75,3.75 v 2 c 0,-2.0775 1.6725,-3.75 3.75,-3.75 h 2.5 c 2.0775,0 3.75,1.6725 3.75,3.75 v -2 c 0,-2.0775 -1.6725,-3.75 -3.75,-3.75 z"
         id="path6235-6" />
    </g>
  </g>
</svg>
