<?xml version="1.0" encoding="UTF-8" standalone="no"?>
<svg
   width="48"
   height="48"
   version="1"
   id="svg778"
   sodipodi:docname="application-vnd.debian.binary-package.svg"
   inkscape:version="1.2.2 (1:1.2.2+202305151914+b0a8486541)"
   xmlns:inkscape="http://www.inkscape.org/namespaces/inkscape"
   xmlns:sodipodi="http://sodipodi.sourceforge.net/DTD/sodipodi-0.dtd"
   xmlns="http://www.w3.org/2000/svg"
   xmlns:svg="http://www.w3.org/2000/svg">
  <defs
     id="defs782" />
  <sodipodi:namedview
     id="namedview780"
     pagecolor="#ffffff"
     bordercolor="#000000"
     borderopacity="0.25"
     inkscape:showpageshadow="2"
     inkscape:pageopacity="0.0"
     inkscape:pagecheckerboard="0"
     inkscape:deskcolor="#d1d1d1"
     showgrid="false"
     inkscape:zoom="16.791667"
     inkscape:cx="23.970223"
     inkscape:cy="24"
     inkscape:window-width="1920"
     inkscape:window-height="1008"
     inkscape:window-x="0"
     inkscape:window-y="0"
     inkscape:window-maximized="1"
     inkscape:current-layer="svg778" />
  <rect
     style="opacity:0.2"
     width="40"
     height="40"
     x="4"
     y="5"
     ry="4"
     id="rect750" />
  <rect
     style="fill:#dfdfdf;fill-opacity:1;stroke-width:1.74999"
     id="rect944"
     width="40"
     height="40"
     x="3.9999998"
     y="4"
     ry="4" />
  <circle
     style="fill:#86be43;fill-opacity:1;stroke-width:1"
     id="path3421"
     cx="24"
     cy="24"
     r="10" />
  <path
     d="m 19.375,19 h 1.25 C 20.83808,19 21,19.165152 21,19.375 v 1.25 C 21,20.834848 20.83808,21 20.625,21 h -1.25 C 19.16192,21 19,20.834848 19,20.625 v -1.25 C 19,19.165152 19.16192,19 19.375,19 Z m 4,0 h 1.25 C 24.83808,19 25,19.165152 25,19.375 v 1.25 C 25,20.834848 24.83808,21 24.625,21 h -1.25 C 23.16192,21 23,20.834848 23,20.625 v -1.25 C 23,19.165152 23.16192,19 23.375,19 Z m 4,0 h 1.25 C 28.83808,19 29,19.165152 29,19.375 v 1.25 C 29,20.834848 28.83808,21 28.625,21 h -1.25 C 27.16192,21 27,20.834848 27,20.625 v -1.25 C 27,19.165152 27.16192,19 27.375,19 Z m -8,4 h 1.25 C 20.83808,23 21,23.165152 21,23.375 v 1.25 C 21,24.834848 20.83808,25 20.625,25 h -1.25 C 19.16192,25 19,24.834848 19,24.625 v -1.25 C 19,23.165152 19.16192,23 19.375,23 Z m 4,0 h 1.25 C 24.83808,23 25,23.165152 25,23.375 v 1.25 C 25,24.834848 24.83808,25 24.625,25 h -1.25 C 23.16192,25 23,24.834848 23,24.625 v -1.25 C 23,23.165152 23.16192,23 23.375,23 Z m 4,0 h 1.25 C 28.83808,23 29,23.165152 29,23.375 v 1.25 C 29,24.834848 28.83808,25 28.625,25 h -1.25 C 27.16192,25 27,24.834848 27,24.625 v -1.25 C 27,23.165152 27.16192,23 27.375,23 Z m -8,4 h 1.25 C 20.83808,27 21,27.165152 21,27.375 v 1.25 C 21,28.834848 20.83808,29 20.625,29 h -1.25 C 19.16192,29 19,28.834848 19,28.625 v -1.25 C 19,27.165152 19.16192,27 19.375,27 Z m 4,0 h 1.25 C 24.83808,27 25,27.165152 25,27.375 v 1.25 C 25,28.834848 24.83808,29 24.625,29 h -1.25 C 23.16192,29 23,28.834848 23,28.625 v -1.25 C 23,27.165152 23.16192,27 23.375,27 Z m 4,0 h 1.25 C 28.83808,27 29,27.165152 29,27.375 v 1.25 C 29,28.834848 28.83808,29 28.625,29 h -1.25 C 27.16192,29 27,28.834848 27,28.625 v -1.25 C 27,27.165152 27.16192,27 27.375,27 Z"
     style="color:#000000;display:inline;overflow:visible;visibility:visible;fill:#ffffff;fill-opacity:1;fill-rule:nonzero;stroke:none;stroke-width:4;marker:none;enable-background:accumulate"
     id="path4047" />
  <path
     style="opacity:0.2;fill:#ffffff"
     d="m 7.9999999,4 c -2.216,0 -4,1.784 -4,4 v 1 c 0,-2.216 1.784,-4 4,-4 H 40 c 2.216,0 4,1.784 4,4 V 8 C 44,5.784 42.216,4 40,4 Z"
     id="path2053" />
</svg>
