<?xml version="1.0" encoding="UTF-8" standalone="no"?>
<svg
   width="48"
   height="48"
   version="1"
   id="svg14"
   sodipodi:docname="application-x-trash.svg"
   inkscape:version="1.2.2 (1:1.2.2+202305151914+b0a8486541)"
   xmlns:inkscape="http://www.inkscape.org/namespaces/inkscape"
   xmlns:sodipodi="http://sodipodi.sourceforge.net/DTD/sodipodi-0.dtd"
   xmlns="http://www.w3.org/2000/svg"
   xmlns:svg="http://www.w3.org/2000/svg">
  <defs
     id="defs18" />
  <sodipodi:namedview
     id="namedview16"
     pagecolor="#ffffff"
     bordercolor="#000000"
     borderopacity="0.25"
     inkscape:showpageshadow="2"
     inkscape:pageopacity="0.0"
     inkscape:pagecheckerboard="0"
     inkscape:deskcolor="#d1d1d1"
     showgrid="false"
     inkscape:zoom="16.791667"
     inkscape:cx="24"
     inkscape:cy="24"
     inkscape:window-width="1920"
     inkscape:window-height="1008"
     inkscape:window-x="0"
     inkscape:window-y="0"
     inkscape:window-maximized="1"
     inkscape:current-layer="svg14" />
  <path
     style="opacity:0.2"
     d="M 10,5 C 8.892,5 8,5.892 8,7 v 36 c 0,1.108 0.892,2 2,2 h 28 c 1.108,0 2,-0.892 2,-2 V 17 L 29,16 28,5 Z"
     id="path2" />
  <path
     fill="#e4e4e4"
     d="m10 4c-1.108 0-2 0.892-2 2v36c0 1.108 0.892 2 2 2h28c1.108 0 2-0.892 2-2v-26l-11-1-1-11z"
     id="path4" />
  <path
     d="m 17.357273,36.230167 c -0.191991,0.344685 -0.344585,0.863302 -0.344585,1.190068 0,0.0758 0,0.172392 0.02,0.306206 L 14.633994,33.601124 C 14.557997,33.46733 14.5,33.275219 14.5,33.102207 c 0,-0.173193 0.058,-0.383843 0.133994,-0.517917 L 15.785543,30.569419 14.5,29.840851 l 4.183414,-0.0774 2.03351,3.664677 -1.304342,-0.748227 z m 1.842518,-12.077723 c 0.364384,-0.633871 0.959757,-0.979236 1.688325,-0.979236 0.787365,0 1.401538,0.365044 1.842518,1.11239 l 0.652571,1.093612 -2.264899,4.365406 -3.664637,-2.580186 z m 0.267988,15.397036 c -1.093551,0 -1.995311,-0.9018 -1.995311,-1.995391 0,-0.307087 0.133994,-0.825664 0.326785,-1.151569 l 0.613373,-1.093612 h 4.548198 V 39.5495 h -3.493045 z m 3.646638,-15.512991 c -0.287387,-0.498237 -0.67137,-0.844502 -1.13195,-1.036533 h 4.719991 c 0.422181,0 0.747966,0.173192 0.940758,0.499797 l 1.170348,1.995372 1.266143,-0.748927 -2.034509,3.646558 -4.163015,-0.0586 1.285543,-0.728567 z m 7.273077,11.310898 c 0.574974,0 1.055353,-0.153593 1.457935,-0.45996 l -2.379894,4.144096 c -0.191992,0.325885 -0.536776,0.531376 -0.939358,0.517937 h -2.246101 v 1.477454 l -2.148704,-3.5879 2.148704,-3.588821 v 1.497174 h 4.107418 z m 1.840918,-3.454047 c 0.173992,0.307107 0.269588,0.632972 0.269588,0.978557 0,0.690929 -0.44178,1.420157 -1.055153,1.764861 -0.288387,0.154393 -0.692569,0.274428 -1.093751,0.250689 h -1.267544 l -2.2633,-3.915366 3.664838,-2.091647 z"
     style="opacity:0.2;fill:#000000;fill-opacity:1;stroke-width:1.99991"
     id="path5266" />
  <path
     d="m 17.357273,35.230212 c -0.191991,0.344685 -0.344585,0.863302 -0.344585,1.190067 0,0.0758 0,0.172392 0.02,0.306206 L 14.633994,32.601169 C 14.557997,32.467375 14.5,32.275263 14.5,32.102251 c 0,-0.173192 0.058,-0.383843 0.133994,-0.517917 L 15.785543,29.569464 14.5,28.840896 l 4.183414,-0.0774 2.03351,3.664677 -1.304342,-0.748226 z m 1.842518,-12.077723 c 0.364384,-0.633872 0.959757,-0.979237 1.688325,-0.979237 0.787365,0 1.401538,0.365044 1.842518,1.112391 l 0.652571,1.093611 -2.264899,4.365406 -3.664637,-2.580185 z m 0.267988,15.397035 c -1.093551,0 -1.995311,-0.9018 -1.995311,-1.995391 0,-0.307086 0.133994,-0.825663 0.326785,-1.151569 l 0.613373,-1.093611 h 4.548198 v 4.240591 h -3.493045 z m 3.646638,-15.51299 C 22.82703,22.538296 22.443047,22.192031 21.982467,22 h 4.719991 c 0.422181,0 0.747966,0.173192 0.940758,0.499798 l 1.170348,1.995371 1.266143,-0.748927 -2.034509,3.646558 -4.163015,-0.0586 1.285543,-0.728568 z m 7.273077,11.310897 c 0.574974,0 1.055353,-0.153593 1.457935,-0.459959 l -2.379894,4.144095 c -0.191992,0.325886 -0.536776,0.531377 -0.939358,0.517937 h -2.246101 v 1.477455 l -2.148704,-3.587901 2.148704,-3.58882 v 1.497173 h 4.107418 z m 1.840918,-3.454046 c 0.173992,0.307106 0.269588,0.632972 0.269588,0.978556 0,0.690929 -0.44178,1.420157 -1.055153,1.764862 -0.288387,0.154393 -0.692569,0.274428 -1.093751,0.250689 h -1.267544 l -2.2633,-3.915366 3.664838,-2.091647 z"
     style="fill:#6d9d16;fill-opacity:1;stroke-width:1.99991"
     id="path4964"
     sodipodi:nodetypes="csccsccccccccsccccccsccccccccscccccccccccccccccccscccccc" />
  <path
     fill="#fff"
     opacity=".2"
     d="m10 4c-1.108 0-2 0.892-2 2v1c0-1.108 0.892-2 2-2h18l11 11h1l-12-12z"
     id="path6" />
  <path
     style="opacity:0.2"
     d="m 28,5 v 10 c 0,1.1046 0.89543,2 2,2 h 10 z"
     id="path8" />
  <path
     fill="#fafafa"
     d="m28 4v10c0 1.1046 0.89543 2 2 2h10l-12-12z"
     id="path10" />
</svg>
