<?xml version="1.0" encoding="UTF-8" standalone="no"?>
<svg
   width="48"
   height="48"
   version="1"
   id="svg5094"
   sodipodi:docname="application-json.svg"
   inkscape:version="1.2.2 (1:1.2.2+202305151914+b0a8486541)"
   xmlns:inkscape="http://www.inkscape.org/namespaces/inkscape"
   xmlns:sodipodi="http://sodipodi.sourceforge.net/DTD/sodipodi-0.dtd"
   xmlns="http://www.w3.org/2000/svg"
   xmlns:svg="http://www.w3.org/2000/svg">
  <defs
     id="defs5098" />
  <sodipodi:namedview
     id="namedview5096"
     pagecolor="#ffffff"
     bordercolor="#000000"
     borderopacity="0.25"
     inkscape:showpageshadow="2"
     inkscape:pageopacity="0.0"
     inkscape:pagecheckerboard="0"
     inkscape:deskcolor="#d1d1d1"
     showgrid="false"
     inkscape:zoom="16.791667"
     inkscape:cx="24"
     inkscape:cy="24"
     inkscape:window-width="1920"
     inkscape:window-height="1008"
     inkscape:window-x="0"
     inkscape:window-y="0"
     inkscape:window-maximized="1"
     inkscape:current-layer="svg5094" />
  <path
     style="opacity:0.2;stroke-width:2"
     d="M 10,5 C 8.892,5 8,5.892 8,7 v 36 c 0,1.108 0.892,2 2,2 h 28 c 1.108,0 2,-0.892 2,-2 V 17 L 29,16 28,5 Z"
     id="path5082" />
  <path
     style="fill:#e4e4e4;stroke-width:2"
     d="M 10,4 C 8.892,4 8,4.892 8,6 v 36 c 0,1.108 0.892,2 2,2 h 28 c 1.108,0 2,-0.892 2,-2 V 16 L 29,15 28,4 Z"
     id="path5084" />
  <path
     id="path701"
     style="color:#000000;opacity:0.2;fill:#000000;stroke-width:2;stroke-linecap:round;-inkscape-stroke:none"
     d="m 18.929688,23.003906 c -0.130145,0.0093 -0.260021,0.04189 -0.378907,0.101562 -1.619264,0.809634 -2.519928,1.670056 -2.835937,2.691408 -0.316012,1.021348 0.02436,1.896508 0.203125,2.492186 0.17876,0.595682 0.235899,0.856386 0.07813,1.171876 -0.15776,0.31549 -0.740737,0.914098 -2.390625,1.621094 -0.08442,0.0635 -0.15826,0.13996 -0.21875,0.226562 -0.1231,0.07552 -0.228372,0.1768 -0.308594,0.296874 -4e-5,0.0052 -4e-5,0.01043 0,0.01563 -0.02544,0.1249 -0.02667,0.25351 -0.0039,0.378906 -0.02286,0.1254 -0.02163,0.254006 0.0039,0.378906 -4e-5,0.0052 -4e-5,0.01043 0,0.01563 0.08022,0.12008 0.1855,0.22136 0.308594,0.296874 0.0605,0.0866 0.13432,0.16306 0.21875,0.226562 1.649002,0.706616 2.220964,1.304844 2.371093,1.613282 0.15012,0.308438 0.08888,0.572672 -0.09766,1.171874 -0.18654,0.599206 -0.532795,1.477572 -0.207031,2.503908 0.325764,1.026334 1.240716,1.883484 2.886719,2.691406 0.496139,0.244396 1.096442,0.0396 1.339844,-0.457032 0.244388,-0.496154 0.03962,-1.096464 -0.457032,-1.339844 -1.40999,-0.692074 -1.772453,-1.20993 -1.863281,-1.496094 -0.09084,-0.28616 0.0084,-0.6578 0.210937,-1.308592 0.202592,-0.650792 0.473065,-1.636568 -0.01562,-2.640626 -0.313978,-0.645056 -1.333726,-1.129928 -2.171876,-1.652344 0.842662,-0.522176 1.862539,-1.010324 2.183594,-1.652344 0.498576,-0.997006 0.243231,-1.986308 0.04687,-2.640624 -0.19636,-0.654318 -0.297113,-1.029168 -0.207031,-1.320314 0.09008,-0.291146 0.439582,-0.805728 1.820312,-1.496092 0.493696,-0.246236 0.69471,-0.845776 0.449219,-1.339844 -0.11808,-0.238126 -0.326107,-0.419444 -0.578125,-0.503906 -0.126161,-0.04217 -0.256574,-0.05617 -0.386718,-0.04688 z m 10.140624,0 c -0.129452,-0.0093 -0.261148,0.0052 -0.386718,0.04688 -0.252018,0.08446 -0.460044,0.26578 -0.578126,0.503906 -0.24549,0.494068 -0.04448,1.09361 0.44922,1.339844 1.38074,0.690368 1.726272,1.204892 1.816406,1.496092 0.09014,0.2912 -0.0068,0.666022 -0.203126,1.320314 -0.19628,0.654288 -0.45162,1.643644 0.04688,2.640624 0.321002,0.642004 1.34104,1.130152 2.183594,1.652344 -0.838044,0.522432 -1.857956,1.007306 -2.171876,1.652344 -0.48863,1.004032 -0.218168,1.98986 -0.01562,2.640626 0.202518,0.650766 0.301816,1.022376 0.210938,1.308592 -0.09088,0.286218 -0.453282,0.804014 -1.863282,1.496094 -0.49665,0.24338 -0.70142,0.84369 -0.457032,1.339844 0.24338,0.49665 0.84369,0.70142 1.339844,0.457032 1.645994,-0.807918 2.560852,-1.665128 2.886718,-2.691406 0.32587,-1.026282 -0.02056,-1.904676 -0.20703,-2.503908 -0.18648,-0.599228 -0.247772,-0.86341 -0.09766,-1.171874 0.15012,-0.308464 0.722348,-0.906676 2.371094,-1.613282 0.228476,-0.1007 0.411012,-0.283242 0.511718,-0.511718 l 0.01172,-0.01172 c 10e-6,-0.0026 10e-6,-0.0052 0,-0.0078 0.02626,-0.0758 0.04332,-0.1545 0.05078,-0.234374 0.013,-0.05 0.02218,-0.100944 0.02734,-0.152344 -0.0052,-0.05142 -0.0144,-0.102344 -0.02734,-0.152344 -0.0074,-0.07988 -0.02452,-0.15858 -0.05078,-0.234374 10e-6,-0.0026 10e-6,-0.0052 0,-0.0078 -0.0038,-0.004 -0.0077,-0.0077 -0.01172,-0.01172 -0.1007,-0.228476 -0.283242,-0.411012 -0.511718,-0.511718 -1.649632,-0.706986 -2.232868,-1.305578 -2.390626,-1.621094 -0.15776,-0.315516 -0.100574,-0.576168 0.07813,-1.171876 0.17872,-0.595706 0.51924,-1.470892 0.203124,-2.492186 -0.316116,-1.021298 -1.22059,-1.88178 -2.839844,-2.691408 -0.118336,-0.05914 -0.245548,-0.09227 -0.375,-0.101562 z M 24,27 c -1.104568,0 -2,0.895432 -2,2 0,1.104568 0.895432,2 2,2 1.104568,0 2,-0.895432 2,-2 0,-1.104568 -0.895432,-2 -2,-2 z m 0,6 c -1.104568,0 -2,0.895432 -2,2 0,1.104568 0.895432,2 2,2 v 2 c 1.104568,0 2,-1.790864 2,-4 0,-1.104568 -0.895432,-2 -2,-2 z" />
  <path
     id="path363"
     style="color:#000000;fill:#84b841;fill-opacity:1;stroke-width:2;stroke-linecap:round;-inkscape-stroke:none"
     d="m 18.929688,22.003906 c -0.130144,0.0092 -0.26002,0.0419 -0.378907,0.10156 -1.619263,0.809634 -2.519927,1.670056 -2.835937,2.691408 -0.316011,1.021348 0.02436,1.896508 0.203125,2.492186 0.178764,0.595682 0.235891,0.856386 0.07813,1.171876 -0.157768,0.31549 -0.740736,0.914098 -2.390625,1.621094 -0.08443,0.0635 -0.158258,0.13996 -0.21875,0.226562 -0.123094,0.07552 -0.228372,0.1768 -0.308594,0.296874 -4.1e-5,0.0052 -4.1e-5,0.0104 0,0.0156 -0.02544,0.1249 -0.02677,0.25351 -0.0039,0.378906 -0.02286,0.1254 -0.02153,0.254006 0.0039,0.378906 -4.1e-5,0.0052 -4.1e-5,0.0104 0,0.0156 0.08022,0.12008 0.1855,0.22136 0.308594,0.296874 0.06049,0.0866 0.134324,0.16306 0.21875,0.226562 1.649002,0.706616 2.220965,1.304844 2.371093,1.613282 0.150128,0.308438 0.08888,0.572672 -0.09766,1.171874 -0.186532,0.599206 -0.532794,1.477572 -0.207031,2.503908 0.325764,1.026334 1.240715,1.883484 2.886719,2.691406 0.496138,0.244396 1.096442,0.0396 1.339844,-0.457032 0.244386,-0.496154 0.03962,-1.096464 -0.457032,-1.339844 -1.40999,-0.692074 -1.772451,-1.20993 -1.863281,-1.496094 -0.09083,-0.28616 0.0083,-0.6578 0.210938,-1.308592 0.202591,-0.650792 0.473084,-1.636568 -0.01562,-2.640626 -0.313978,-0.645056 -1.333727,-1.129928 -2.171876,-1.652344 0.84266,-0.522176 1.862539,-1.010324 2.183594,-1.652344 0.498576,-0.997006 0.243236,-1.986308 0.04687,-2.640624 -0.196365,-0.654264 -0.297118,-1.029114 -0.207036,-1.32026 0.09008,-0.291146 0.439582,-0.805728 1.820312,-1.496092 0.493696,-0.246236 0.694708,-0.845776 0.449219,-1.339844 -0.118082,-0.238126 -0.326107,-0.419444 -0.578125,-0.503906 -0.12616,-0.04218 -0.256574,-0.05618 -0.386718,-0.04688 z m 10.140624,0 c -0.12946,-0.0092 -0.261148,0.0052 -0.386718,0.04688 -0.252018,0.08446 -0.460044,0.26578 -0.578126,0.503906 -0.24549,0.494068 -0.04448,1.09361 0.44922,1.339844 1.38074,0.690368 1.726272,1.204892 1.816406,1.496092 0.09014,0.2912 -0.0068,0.666022 -0.203126,1.320314 -0.19628,0.654288 -0.45162,1.643644 0.04688,2.640624 0.321002,0.642004 1.34104,1.130152 2.183594,1.652344 -0.838044,0.522432 -1.857956,1.007306 -2.171876,1.652344 -0.48863,1.004032 -0.218168,1.98986 -0.0156,2.640626 0.202518,0.650766 0.301816,1.022376 0.210938,1.308592 -0.09088,0.286218 -0.453282,0.804014 -1.863282,1.496094 -0.49665,0.24338 -0.70142,0.84369 -0.457032,1.339844 0.24338,0.49665 0.84369,0.70142 1.339844,0.457032 1.645994,-0.807918 2.560852,-1.665128 2.886718,-2.691406 0.32587,-1.026282 -0.02056,-1.904676 -0.20703,-2.503908 -0.18648,-0.599228 -0.247772,-0.86341 -0.09766,-1.171874 0.15012,-0.308464 0.722348,-0.906676 2.371094,-1.613282 0.228476,-0.1007 0.411012,-0.283242 0.511718,-0.511718 l 0.0118,-0.0118 c 1e-5,-0.0026 1e-5,-0.0052 0,-0.0078 0.02626,-0.0758 0.04332,-0.1545 0.05078,-0.234374 0.013,-0.05 0.02218,-0.10094 0.02734,-0.15234 -0.0052,-0.05142 -0.0144,-0.10234 -0.02734,-0.15234 -0.0074,-0.07988 -0.02452,-0.15858 -0.05078,-0.234374 1e-5,-0.0026 1e-5,-0.0052 0,-0.0078 -0.0038,-0.004 -0.0078,-0.0078 -0.0118,-0.0118 -0.1007,-0.228476 -0.283242,-0.411012 -0.511718,-0.511718 -1.649632,-0.706986 -2.232868,-1.305578 -2.390626,-1.621094 -0.15776,-0.315516 -0.10058,-0.576168 0.07812,-1.171876 0.17872,-0.595706 0.51924,-1.470892 0.203124,-2.492186 -0.316116,-1.021298 -1.22059,-1.88178 -2.839844,-2.691408 -0.11834,-0.05914 -0.245548,-0.09226 -0.375,-0.10156 z M 24,26 c -1.10457,0 -2,0.89543 -2,2 0,1.10457 0.89543,2 2,2 1.10457,0 2,-0.89543 2,-2 0,-1.10457 -0.89543,-2 -2,-2 z m 0,6 c -1.10457,0 -2,0.89543 -2,2 0,1.10457 0.89543,2 2,2 v 2 c 1.10457,0 2,-1.790862 2,-4 0,-1.10457 -0.89543,-2 -2,-2 z"
     sodipodi:nodetypes="scssscccccccccssscccssscssscccsscccscscscscccscscccccccccccscscssssssssccss" />
  <path
     style="opacity:0.2;fill:#ffffff;stroke-width:2"
     d="M 10,4 C 8.892,4 8,4.892 8,6 V 7 C 8,5.892 8.892,5 10,5 h 18 l 11,11 h 1 L 28,4 Z"
     id="path5086" />
  <path
     style="opacity:0.2;stroke-width:2"
     d="m 28,5 v 10 c 0,1.1046 0.89543,2 2,2 h 10 z"
     id="path5088" />
  <path
     style="fill:#fafafa;stroke-width:2"
     d="m 28,4 v 10 c 0,1.1046 0.89543,2 2,2 h 10 z"
     id="path5090" />
</svg>
