<?xml version="1.0" encoding="UTF-8" standalone="no"?>
<svg
   width="48"
   height="48"
   version="1.1"
   id="svg1252"
   sodipodi:docname="application-x-theme.svg"
   inkscape:version="1.2.2 (1:1.2.2+202305151914+b0a8486541)"
   xmlns:inkscape="http://www.inkscape.org/namespaces/inkscape"
   xmlns:sodipodi="http://sodipodi.sourceforge.net/DTD/sodipodi-0.dtd"
   xmlns="http://www.w3.org/2000/svg"
   xmlns:svg="http://www.w3.org/2000/svg">
  <defs
     id="defs1256" />
  <sodipodi:namedview
     id="namedview1254"
     pagecolor="#ffffff"
     bordercolor="#000000"
     borderopacity="0.25"
     inkscape:showpageshadow="2"
     inkscape:pageopacity="0.0"
     inkscape:pagecheckerboard="0"
     inkscape:deskcolor="#d1d1d1"
     showgrid="false"
     inkscape:zoom="16.791667"
     inkscape:cx="23.970223"
     inkscape:cy="24"
     inkscape:window-width="1920"
     inkscape:window-height="1008"
     inkscape:window-x="0"
     inkscape:window-y="0"
     inkscape:window-maximized="1"
     inkscape:current-layer="svg1252" />
  <path
     style="opacity:0.2"
     d="M 10,5 C 8.892,5 8,5.892 8,7 V 43 C 8,44.108 8.892,45 10,45 H 38 C 39.108,45 40,44.108 40,43 V 17 L 28,5 Z"
     id="path1212" />
  <path
     style="fill:#e4e4e4"
     d="M 10,4 C 8.892,4 8,4.892 8,6 V 42 C 8,43.108 8.892,44 10,44 H 38 C 39.108,44 40,43.108 40,42 V 16 L 30,14 28,4 Z"
     id="path1214" />
  <path
     id="ellipse2-3"
     style="opacity:0.2;fill:#000000;stroke-width:1.48326"
     d="m 24.001912,18 a 5.3745489,6 0 0 0 -4.884304,3.500977 5.9794338,5.3931258 31.140202 0 0 -5.460108,2.501954 5.9794338,5.3931258 31.140202 0 0 0.572939,6 A 5.3931258,5.9794338 58.859796 0 0 13.6575,36 5.3931258,5.9794338 58.859796 0 0 19.117608,38.501953 5.3740753,6 0 0 0 24.001912,42 5.3740753,6 0 0 0 28.886216,38.496094 C 31.160575,38.801321 33.290986,37.825966 34.343459,36 35.427884,34.113174 35.125305,31.771578 33.77052,30 a 5.3931258,5.9794338 58.859796 0 0 0.572939,-6 5.3931258,5.9794338 58.859796 0 0 -0.776333,-0.996093 5.3934061,5.9790222 58.858471 0 0 -0.171881,-0.181641 5.3931258,5.9794338 58.859796 0 0 -0.320845,-0.251954 5.3934061,5.9790222 58.858471 0 0 -0.277876,-0.213867 5.3931258,5.9794338 58.859796 0 0 -0.317981,-0.181639 5.3934061,5.9790222 58.858471 0 0 -0.37241,-0.205078 5.3931258,5.9794338 58.859796 0 0 -0.338034,-0.13476 5.3934061,5.9790222 58.858471 0 0 -0.381005,-0.140625 5.3931258,5.9794338 58.859796 0 0 -0.435434,-0.10254 5.3934061,5.9790222 58.858471 0 0 -0.340898,-0.07325 5.3931258,5.9794338 58.859796 0 0 -0.438298,-0.04101 5.3934061,5.9790222 58.858471 0 0 -0.297929,-0.0293 5.3934061,5.9790222 58.858471 0 0 -0.08593,0.003 5.3931258,5.9794338 58.859796 0 0 -0.289335,0.0089 5.3934061,5.9790222 58.858471 0 0 -0.478404,0.03222 5.3931258,5.9794338 58.859796 0 0 -0.140365,0.0088 5.3745489,6 0 0 0 -4.878584,-3.501173 z m 5.004621,20.16504 c -0.02583,0.07393 -0.05173,0.146865 -0.08022,0.219726 a 5.3740753,6 0 0 0 0.07162,-0.216797 9.5542375,9.6000002 0 0 0 0.0087,-0.003 z" />
  <g
     id="g809"
     transform="matrix(1.4666054,0,0,1.5,1.2671563,-1)">
    <path
       id="ellipse2"
       style="fill:#278df2"
       d="m 22.014627,20 a 6.5139999,6.4000001 0 0 1 -6.514,6.4 6.5139999,6.4000001 0 0 1 -6.514,-6.4 6.5139999,6.4000001 0 0 1 6.514,-6.4 6.5139999,6.4000001 0 0 1 6.514,6.4 z" />
    <path
       id="ellipse8"
       style="fill:#34e0c4;stroke-width:0.999941"
       d="m 20.858313,21.117135 a 3.6139282,4.0558468 63.834735 0 1 -5.358305,-1.117392 3.6139282,4.0558468 63.834735 0 1 1.694173,-5.117667 3.6139282,4.0558468 63.834735 0 1 5.358305,1.117392 3.6139282,4.0558468 63.834735 0 1 -1.694173,5.117667 z" />
    <path
       id="ellipse10"
       style="fill:#ffc107"
       d="m 19.164627,24 a 3.664,4 0 0 1 -3.664,4 3.664,4 0 0 1 -3.664,-4 3.664,4 0 0 1 3.664,-4 3.664,4 0 0 1 3.664,4 z" />
    <path
       id="ellipse14"
       style="fill:#fb8300;stroke-width:0.999941"
       d="m 13.805834,25.117411 a 3.6139282,4.0558468 63.834735 0 1 -5.3583056,-1.117392 3.6139282,4.0558468 63.834735 0 1 1.6941736,-5.117667 3.6139282,4.0558468 63.834735 0 1 5.358306,1.117392 3.6139282,4.0558468 63.834735 0 1 -1.694174,5.117667 z" />
    <path
       id="ellipse18"
       style="fill:#fa3e30;stroke-width:0.999941"
       d="m 10.142043,21.118169 a 4.0558468,3.6139282 26.165265 0 0 5.358306,-1.117391 4.0558468,3.6139282 26.165265 0 0 -1.694173,-5.117667 4.0558468,3.6139282 26.165265 0 0 -5.3583063,1.117391 4.0558468,3.6139282 26.165265 0 0 1.6941733,5.117667 z" />
    <path
       style="fill:#a544c9"
       d="m 15.500162,12 a 3.6643229,4 0 0 0 -3.664323,4 3.6643229,4 0 0 0 3.664323,4 3.6141143,4.0555696 63.838713 0 1 1.693794,-5.117969 3.6141143,4.0555696 63.838713 0 1 1.634155,-0.545313 A 3.6643229,4 0 0 0 15.500162,12 Z m 0,8 A 3.6643229,4 0 0 0 18.983177,17.233593 3.6643229,4 0 0 1 18.490942,18.301562 4.0555696,3.6141143 26.161287 0 0 15.500162,20 Z m 3.483015,-2.766407 a 3.6643229,4 0 0 0 0.08827,-0.353125 3.6643229,4 0 0 1 -0.08827,0.353125 z m -0.112124,-2.790625 a 3.6643229,4 0 0 1 0.122461,0.364844 3.6643229,4 0 0 0 -0.122461,-0.364844 z m 0.128028,0.38125 a 3.6643229,4 0 0 1 0.07475,0.316406 3.6643229,4 0 0 0 -0.07475,-0.316406 z m 0.09542,0.414063 a 3.6643229,4 0 0 1 0.03578,0.255469 3.6643229,4 0 0 0 -0.03578,-0.255469 z m 0.05328,0.414843 A 3.6643229,4 0 0 1 19.164481,16 a 3.6643229,4 0 0 0 -0.0167,-0.346876 z m 0.0087,0.523438 a 3.6643229,4 0 0 1 -0.0159,0.2625 3.6643229,4 0 0 0 0.0159,-0.2625 z m -0.02858,0.354688 a 3.6643229,4 0 0 1 -0.04771,0.310156 3.6643229,4 0 0 0 0.04771,-0.310156 z"
       id="path8" />
    <path
       style="fill:#009688"
       d="m 18.547402,18.297656 c -1.302141,0.03619 -2.442407,0.673203 -3.04724,1.702344 2.023749,0 3.664322,1.79086 3.664322,4 -0.0014,0.574359 -0.116154,1.141646 -0.336373,1.663281 1.55137,0.204283 3.006096,-0.44546 3.723964,-1.663281 1.012085,-1.721894 0.25372,-4.013368 -1.693796,-5.117969 -0.710558,-0.402895 -1.516036,-0.606585 -2.310877,-0.584375 z m 0.280709,7.365625 z M 15.500162,20 Z"
       id="path10" />
    <path
       id="ellipse980"
       style="fill:#03a9f4"
       d="m 19.505232,14.297656 a 3.6141143,4.0555696 63.838713 0 0 -2.311076,0.584766 3.6141143,4.0555696 63.838713 0 0 -1.693795,5.117382 c 0.604868,-1.029003 1.744999,-1.665958 3.047041,-1.702148 0.794841,-0.02221 1.600319,0.18148 2.310877,0.584375 0.523507,0.296925 0.960199,0.680123 1.300565,1.114453 A 3.6141143,4.0555696 63.838713 0 0 22.552273,16 3.6141143,4.0555696 63.838713 0 0 19.505232,14.297656 Z M 15.500361,20 a 3.6141143,4.0555696 63.838713 0 0 2.996148,1.698632 C 17.833293,20.671548 16.738993,20.000072 15.500361,20 Z" />
    <path
       style="fill:#ffc107"
       d="m 15.500361,19.999804 c -6.3156123,6.400131 -3.157806,3.200066 0,0 z m 0,1.96e-4 c 0.642929,1.293551 1.748509,1.853628 2.996148,1.698632 C 17.833293,20.671548 16.738993,20.000072 15.500361,20 Z"
       id="path13" />
  </g>
  <path
     style="opacity:0.2"
     d="M 40,17 28,5 V 15 C 28,16.108 28.892,17 30,17 Z"
     id="path1216" />
  <path
     style="fill:#fafafa"
     d="M 40,16 28,4 V 14 C 28,15.108 28.892,16 30,16 Z"
     id="path1218" />
  <path
     style="opacity:0.2;fill:#ffffff"
     d="M 10 4 C 8.892 4 8 4.892 8 6 L 8 7 C 8 5.892 8.892 5 10 5 L 28 5 L 28 4 L 10 4 z"
     id="path1220" />
</svg>
