<?xml version="1.0" encoding="UTF-8" standalone="no"?>
<svg
   width="48"
   height="48"
   version="1"
   id="svg14"
   sodipodi:docname="application-vnd.ms-powerpoint.svg"
   inkscape:version="1.2.2 (1:1.2.2+202305151914+b0a8486541)"
   xmlns:inkscape="http://www.inkscape.org/namespaces/inkscape"
   xmlns:sodipodi="http://sodipodi.sourceforge.net/DTD/sodipodi-0.dtd"
   xmlns="http://www.w3.org/2000/svg"
   xmlns:svg="http://www.w3.org/2000/svg">
  <defs
     id="defs18" />
  <sodipodi:namedview
     id="namedview16"
     pagecolor="#ffffff"
     bordercolor="#000000"
     borderopacity="0.25"
     inkscape:showpageshadow="2"
     inkscape:pageopacity="0.0"
     inkscape:pagecheckerboard="0"
     inkscape:deskcolor="#d1d1d1"
     showgrid="false"
     inkscape:zoom="16.791667"
     inkscape:cx="24"
     inkscape:cy="24"
     inkscape:window-width="1920"
     inkscape:window-height="1008"
     inkscape:window-x="0"
     inkscape:window-y="0"
     inkscape:window-maximized="1"
     inkscape:current-layer="svg14" />
  <path
     style="opacity:0.2"
     d="M 10,5 C 8.892,5 8,5.892 8,7 v 36 c 0,1.108 0.892,2 2,2 h 28 c 1.108,0 2,-0.892 2,-2 V 17 L 29,16 28,5 Z"
     id="path2" />
  <path
     fill="#e4e4e4"
     d="m10 4c-1.108 0-2 0.892-2 2v36c0 1.108 0.892 2 2 2h28c1.108 0 2-0.892 2-2v-26l-11-1-1-11z"
     id="path4" />
  <ellipse
     style="opacity:0.2;fill:#000000;fill-opacity:1;stroke-width:7.14286;stroke-linecap:round;stroke-linejoin:round"
     id="path7987"
     cx="25.999998"
     cy="30.999994"
     rx="9.999999"
     ry="9.9999962" />
  <circle
     style="fill:#ff8f6b;fill-opacity:1;stroke-width:6.66664;stroke-linejoin:bevel"
     id="path31463"
     cx="26.000006"
     cy="29.999994"
     r="9.9999943" />
  <path
     id="path31465"
     style="fill:#d35230;fill-opacity:1;stroke-width:5;stroke-linejoin:bevel"
     d="m 16.00001,29.999997 c -2e-6,5.522847 4.477149,9.999997 9.999994,9.999997 5.522846,0 9.999999,-4.47715 9.999995,-9.999997 h -9.999995 z"
     sodipodi:nodetypes="csccc" />
  <path
     id="path8517"
     style="opacity:0.2;fill:#000000;fill-opacity:1;stroke-width:5;stroke-linejoin:bevel"
     d="m 16.000002,29.999999 c -2e-6,0.337258 0.0182,0.671322 0.05078,1 h 9.949214 9.949217 c 0.03262,-0.328678 0.05078,-0.662742 0.05078,-1 h -9.999999 z" />
  <path
     id="path31759"
     style="fill:#ed6c47;fill-opacity:1;stroke-width:5;stroke-linejoin:bevel"
     d="m 25.999998,20.000004 a 9.9999938,9.9999944 0 0 0 -9.999996,9.999993 h 9.999996 z" />
  <path
     id="path8587"
     style="opacity:0.2;fill:#ffffff;fill-opacity:1;stroke-width:5;stroke-linejoin:bevel"
     d="m 25.999998,20 c -5.522839,0 -10,4.477157 -9.999996,9.999999 h 0.05078 C 16.552177,24.946345 20.814417,21 25.999996,21 c 5.185584,0 9.447821,3.946345 9.949217,8.999999 h 0.05078 C 35.999995,24.477157 31.522836,20 25.999994,20 Z" />
  <rect
     style="opacity:0.2;fill:#000000;fill-opacity:1;stroke-width:7.5;stroke-linecap:round;stroke-linejoin:round"
     id="rect7881"
     width="11.999999"
     height="11.999999"
     x="12"
     y="25"
     ry="1.9999998" />
  <rect
     style="fill:#c43e1c;fill-opacity:1;stroke-width:0.749996"
     id="rect2687"
     width="11.999999"
     height="11.999999"
     x="12"
     y="24"
     ry="1.9999998" />
  <path
     fill="#fff"
     opacity=".2"
     d="m10 4c-1.108 0-2 0.892-2 2v1c0-1.108 0.892-2 2-2h18l11 11h1l-12-12z"
     id="path6" />
  <path
     style="opacity:0.2"
     d="m 28,5 v 10 c 0,1.1046 0.89543,2 2,2 h 10 z"
     id="path8" />
  <path
     fill="#fafafa"
     d="m28 4v10c0 1.1046 0.89543 2 2 2h10l-12-12z"
     id="path10" />
  <path
     id="rect573"
     style="fill:#ffffff;stroke-width:5;stroke-linecap:round;stroke-linejoin:round"
     d="m 16,26 v 8 h 1 v -3 h 1.5 C 19.884997,31 21,29.884997 21,28.5 21,27.115003 19.884997,26 18.5,26 H 17 Z m 1,1 h 1.5 c 0.830997,0 1.5,0.669003 1.5,1.5 0,0.830997 -0.669003,1.5 -1.5,1.5 H 17 Z" />
</svg>
