<?xml version="1.0" encoding="UTF-8" standalone="no"?>
<svg
   width="48"
   height="48"
   version="1"
   id="svg7038"
   sodipodi:docname="image-x-generic.svg"
   inkscape:version="1.2.2 (1:1.2.2+202305151914+b0a8486541)"
   xmlns:inkscape="http://www.inkscape.org/namespaces/inkscape"
   xmlns:sodipodi="http://sodipodi.sourceforge.net/DTD/sodipodi-0.dtd"
   xmlns="http://www.w3.org/2000/svg"
   xmlns:svg="http://www.w3.org/2000/svg">
  <defs
     id="defs7042" />
  <sodipodi:namedview
     id="namedview7040"
     pagecolor="#ffffff"
     bordercolor="#000000"
     borderopacity="0.25"
     inkscape:showpageshadow="2"
     inkscape:pageopacity="0.0"
     inkscape:pagecheckerboard="0"
     inkscape:deskcolor="#d1d1d1"
     showgrid="false"
     inkscape:zoom="16.791667"
     inkscape:cx="23.970223"
     inkscape:cy="24"
     inkscape:window-width="1920"
     inkscape:window-height="1008"
     inkscape:window-x="0"
     inkscape:window-y="0"
     inkscape:window-maximized="1"
     inkscape:current-layer="svg7038" />
  <path
     style="opacity:0.2"
     d="M 44,41 V 9 C 44,7.892 43.108,7 42,7 H 6 C 4.892,7 4,7.892 4,9 v 32 c 0,1.108 0.892,2 2,2 h 36 c 1.108,0 2,-0.892 2,-2 z"
     id="path7028" />
  <path
     style="fill:#8f3d8b;fill-opacity:1"
     d="M 44,40 V 8 C 44,6.892 43.108,6 42,6 H 6 C 4.892,6 4,6.892 4,8 v 32 c 0,1.108 0.892,2 2,2 h 36 c 1.108,0 2,-0.892 2,-2 z"
     id="path7030" />
  <path
     style="opacity:0.2;fill:#ffffff"
     d="M 6,6 C 4.892,6 4,6.892 4,8 V 9 C 4,7.892 4.892,7 6,7 h 36 c 1.108,0 2,0.892 2,2 V 8 C 44,6.892 43.108,6 42,6 Z"
     id="path7032" />
  <path
     style="opacity:0.2"
     d="m 16.5,20.69 9.9375,11.25 6.375,-6.1875 L 39,31.94 v 5.0625 H 9 v -7.5 z"
     id="path7034" />
  <path
     style="fill:#ffffff"
     d="m 16.5,19.69 9.9375,11.25 6.375,-6.1875 L 39,30.94 v 5.0625 H 9 v -7.5 z"
     id="path7036" />
</svg>
