<?xml version="1.0" encoding="UTF-8" standalone="no"?>
<svg
   width="48"
   height="48"
   version="1"
   id="svg778"
   sodipodi:docname="package-x-generic.svg"
   inkscape:version="1.2.2 (1:1.2.2+202305151914+b0a8486541)"
   xmlns:inkscape="http://www.inkscape.org/namespaces/inkscape"
   xmlns:sodipodi="http://sodipodi.sourceforge.net/DTD/sodipodi-0.dtd"
   xmlns="http://www.w3.org/2000/svg"
   xmlns:svg="http://www.w3.org/2000/svg">
  <defs
     id="defs782" />
  <sodipodi:namedview
     id="namedview780"
     pagecolor="#ffffff"
     bordercolor="#000000"
     borderopacity="0.25"
     inkscape:showpageshadow="2"
     inkscape:pageopacity="0.0"
     inkscape:pagecheckerboard="0"
     inkscape:deskcolor="#d1d1d1"
     showgrid="false"
     inkscape:zoom="16.791667"
     inkscape:cx="23.970223"
     inkscape:cy="24"
     inkscape:window-width="1920"
     inkscape:window-height="1008"
     inkscape:window-x="0"
     inkscape:window-y="0"
     inkscape:window-maximized="1"
     inkscape:current-layer="svg778" />
  <rect
     style="opacity:0.2"
     width="40"
     height="40"
     x="4"
     y="5"
     ry="4"
     id="rect750" />
  <rect
     style="fill:#c19f5f;fill-opacity:1;stroke-width:1.74999"
     id="rect944"
     width="40"
     height="40"
     x="3.9999998"
     y="4"
     ry="4" />
  <rect
     style="opacity:0.2"
     width="8"
     height="19"
     x="20"
     y="4"
     id="rect2051" />
  <rect
     style="fill:#ffffff"
     width="2"
     height="2"
     x="22"
     y="18"
     id="rect2055" />
  <path
     style="fill:#4b4b4b"
     d="m 24,18 c 3,0 3,3.999999 4,3.999999 v 5 c 0,0.554 -0.446,1 -1,1 h -6 c -0.554,0 -1,-0.446 -1,-1 v -5 C 21,21.999999 21,18 24,18 Z"
     id="path2057" />
  <rect
     style="fill:#ffffff"
     width="2"
     height="2"
     x="24"
     y="16"
     id="rect2059" />
  <rect
     style="fill:#ffffff"
     width="2"
     height="2"
     x="22"
     y="14"
     id="rect2061" />
  <rect
     style="fill:#ffffff"
     width="2"
     height="2"
     x="24"
     y="12"
     id="rect2063" />
  <rect
     style="fill:#ffffff"
     width="2"
     height="2"
     x="22"
     y="10"
     id="rect2065" />
  <rect
     style="fill:#ffffff"
     width="2"
     height="2"
     x="24"
     y="8"
     id="rect2067" />
  <rect
     style="fill:#ffffff"
     width="2"
     height="2"
     x="22"
     y="6"
     id="rect2069" />
  <rect
     style="fill:#ffffff"
     width="2"
     height="2"
     x="24"
     y="4"
     id="rect2071" />
  <path
     style="opacity:0.2"
     d="M 23.734375,23.999999 C 21.666108,23.999999 20,25.659634 20,27.718749 v 7.5625 c 0,2.059117 1.666108,3.71875 3.734375,3.71875 h 0.53125 C 26.333892,38.999999 28,37.340366 28,35.281249 v -7.5625 c 0,-2.059115 -1.666108,-3.71875 -3.734375,-3.71875 z m 0.265625,8 c 1.656854,3e-6 3,1.345149 3,3.001953 0,1.656805 -1.343146,2.998047 -3,2.998047 -1.656854,0 -3,-1.341242 -3,-2.998047 0,-1.656804 1.343146,-3.00195 3,-3.001953 z"
     id="path2073" />
  <path
     style="fill:#ffffff"
     d="M 23.734375,22.999999 C 21.666108,22.999999 20,24.659634 20,26.718749 v 7.5625 c 0,2.059117 1.666108,3.71875 3.734375,3.71875 h 0.53125 C 26.333892,37.999999 28,36.340366 28,34.281249 v -7.5625 c 0,-2.059115 -1.666108,-3.71875 -3.734375,-3.71875 z m 0.265625,8 c 1.656854,3e-6 3,1.345149 3,3.001953 0,1.656805 -1.343146,2.998047 -3,2.998047 -1.656854,0 -3,-1.341242 -3,-2.998047 0,-1.656804 1.343146,-3.00195 3,-3.001953 z"
     id="path2075" />
  <path
     style="fill:#909090"
     d="M 23.984375,20.000121 A 1.0001,0.99544853 0 0 0 23,21.009078 v 3.981396 a 1.0001,0.99544853 0 1 0 2,0 v -3.981396 a 1.0001,0.99544853 0 0 0 -1.015625,-1.008957 z"
     id="path2077" />
  <path
     style="opacity:0.2;fill:#ffffff"
     d="m 7.9999999,4 c -2.216,0 -4,1.784 -4,4 v 1 c 0,-2.216 1.784,-4 4,-4 H 40 c 2.216,0 4,1.784 4,4 V 8 C 44,5.784 42.216,4 40,4 Z"
     id="path2053" />
</svg>
