<?xml version="1.0" encoding="UTF-8" standalone="no"?>
<svg
   width="48"
   height="48"
   version="1"
   id="svg14"
   sodipodi:docname="text-x-vala.svg"
   inkscape:version="1.2.2 (1:1.2.2+202305151914+b0a8486541)"
   xmlns:inkscape="http://www.inkscape.org/namespaces/inkscape"
   xmlns:sodipodi="http://sodipodi.sourceforge.net/DTD/sodipodi-0.dtd"
   xmlns="http://www.w3.org/2000/svg"
   xmlns:svg="http://www.w3.org/2000/svg">
  <defs
     id="defs18" />
  <sodipodi:namedview
     id="namedview16"
     pagecolor="#ffffff"
     bordercolor="#000000"
     borderopacity="0.25"
     inkscape:showpageshadow="2"
     inkscape:pageopacity="0.0"
     inkscape:pagecheckerboard="0"
     inkscape:deskcolor="#d1d1d1"
     showgrid="false"
     inkscape:zoom="16.791667"
     inkscape:cx="23.970223"
     inkscape:cy="24"
     inkscape:window-width="1920"
     inkscape:window-height="1008"
     inkscape:window-x="0"
     inkscape:window-y="0"
     inkscape:window-maximized="1"
     inkscape:current-layer="svg14" />
  <path
     style="opacity:0.2"
     d="M 10,5 C 8.892,5 8,5.892 8,7 v 36 c 0,1.108 0.892,2 2,2 h 28 c 1.108,0 2,-0.892 2,-2 V 17 L 29,16 28,5 Z"
     id="path2" />
  <path
     fill="#e4e4e4"
     d="m10 4c-1.108 0-2 0.892-2 2v36c0 1.108 0.892 2 2 2h28c1.108 0 2-0.892 2-2v-26l-11-1-1-11z"
     id="path4" />
  <path
     d="M 21.000581,40.998951 21,22.99954 c -1.240747,0.468627 -1.79982,0.985489 -2.497255,1.983528 -0.689651,0.998431 -1.034476,2.739453 -1.034476,4.223767 0,0.338431 0.01732,0.616274 0.05195,0.833529 0.04281,0.208235 0.08582,0.377451 0.129018,0.507647 0.0432,0.121569 0.08212,0.217059 0.116757,0.286471 0.04281,0.06941 0.06422,0.130196 0.06422,0.182353 -0.456523,0 -0.861284,-0.04333 -1.214282,-0.13 C 16.262544,30.791145 15.9652,30.643501 15.7239,30.443893 15.491163,30.244677 15.310188,29.979971 15.180975,29.649776 15.060325,29.320364 15,28.912521 15,28.426246 c 0,-0.590196 0.124737,-1.671413 0.37421,-2.244354 0.258424,-0.572549 0.607336,-1.115099 1.046735,-1.627648 0.447962,-0.511765 0.969287,-0.984706 1.563974,-1.418823 0.603249,-0.434117 1.245029,-0.807451 1.925339,-1.12 0.688873,-0.321177 1.403821,-0.568432 2.144845,-0.741765 0.749587,-0.182745 1.494892,-0.274117 2.235916,-0.274117 0.278844,-0.03531 0.687717,0.05021 0.708981,0.05176 v 16.405882 l 6.152304,-16.328235 h 1.847701 L 25.647752,40.99954 H 21 Z"
     style="fill:#000000;opacity:0.2"
     id="path962"
     sodipodi:nodetypes="cccscccccccsccccccccccccc" />
  <path
     d="M 21.000581,39.998951 21,21.99954 c -1.240747,0.468627 -1.79982,0.985489 -2.497255,1.983528 -0.689651,0.998431 -1.034476,2.739453 -1.034476,4.223767 0,0.338431 0.01732,0.616274 0.05195,0.833529 0.04281,0.208235 0.08582,0.377451 0.129018,0.507647 0.0432,0.121569 0.08212,0.217059 0.116757,0.286471 0.04281,0.06941 0.06422,0.130196 0.06422,0.182353 -0.456523,0 -0.861284,-0.04333 -1.214282,-0.13 C 16.262544,29.791145 15.9652,29.643501 15.7239,29.443893 15.491163,29.244677 15.310188,28.979971 15.180975,28.649776 15.060325,28.320364 15,27.912521 15,27.426246 c 0,-0.590196 0.124737,-1.671413 0.37421,-2.244354 0.258424,-0.572549 0.607336,-1.115099 1.046735,-1.627648 0.447962,-0.511765 0.969287,-0.984706 1.563974,-1.418823 0.603249,-0.434117 1.245029,-0.807451 1.925339,-1.12 0.688873,-0.321177 1.403821,-0.568432 2.144845,-0.741765 0.749587,-0.182745 1.494892,-0.274117 2.235916,-0.274117 0.278844,-0.03531 0.687717,0.05021 0.708981,0.05176 v 16.405882 l 6.152304,-16.328235 h 1.847701 L 25.647752,39.99954 H 21 Z"
     style="fill:#634d9f;fill-opacity:1"
     id="path1115" />
  <path
     fill="#fff"
     opacity=".2"
     d="m10 4c-1.108 0-2 0.892-2 2v1c0-1.108 0.892-2 2-2h18l11 11h1l-12-12z"
     id="path6" />
  <path
     style="opacity:0.2"
     d="m 28,5 v 10 c 0,1.1046 0.89543,2 2,2 h 10 z"
     id="path8" />
  <path
     fill="#fafafa"
     d="m28 4v10c0 1.1046 0.89543 2 2 2h10l-12-12z"
     id="path10" />
</svg>
