<?xml version="1.0" encoding="UTF-8" standalone="no"?>
<svg
   width="64"
   height="64"
   version="1.1"
   id="svg5462"
   sodipodi:docname="application-x-trash.svg"
   inkscape:version="1.2.2 (1:1.2.2+202305151914+b0a8486541)"
   xmlns:inkscape="http://www.inkscape.org/namespaces/inkscape"
   xmlns:sodipodi="http://sodipodi.sourceforge.net/DTD/sodipodi-0.dtd"
   xmlns="http://www.w3.org/2000/svg"
   xmlns:svg="http://www.w3.org/2000/svg">
  <defs
     id="defs5466" />
  <sodipodi:namedview
     id="namedview5464"
     pagecolor="#ffffff"
     bordercolor="#000000"
     borderopacity="0.25"
     inkscape:showpageshadow="2"
     inkscape:pageopacity="0.0"
     inkscape:pagecheckerboard="0"
     inkscape:deskcolor="#d1d1d1"
     showgrid="false"
     inkscape:zoom="12.59375"
     inkscape:cx="32"
     inkscape:cy="32"
     inkscape:window-width="1920"
     inkscape:window-height="1008"
     inkscape:window-x="0"
     inkscape:window-y="0"
     inkscape:window-maximized="1"
     inkscape:current-layer="svg5462" />
  <path
     style="opacity:0.2"
     d="M 12.75,5 C 11.2265,5 10,6.2488 10,7.8 v 50.4 c 0,1.55008 1.2265,2.8 2.75,2.8 h 38.5 C 52.7724,61 54,59.75008 54,58.2 V 23 L 40,19 36,5 Z"
     id="path5450" />
  <path
     style="fill:#e4e4e4"
     d="M 12.75,4 C 11.2265,4 10,5.2488 10,6.8 v 50.4 c 0,1.55008 1.2265,2.8 2.75,2.8 h 38.5 C 52.7724,60 54,58.75008 54,57.2 V 22 L 40,18 36,4 Z"
     id="path5452" />
  <path
     d="m 23.8106,48.623058 c -0.256,0.4596 -0.4596,1.15112 -0.4596,1.58684 0,0.1012 0,0.22982 0.026,0.4083 l -3.1984,-5.5007 c -0.102,-0.1784 -0.178,-0.43454 -0.178,-0.66524 0,-0.231 0.076,-0.5118 0.178,-0.6906 l 1.5356,-2.6866 -1.7142,-0.97146 5.578,-0.1032 2.7116,4.88646 -1.7392,-0.9977 z M 26.2674,32.51872 c 0.4858,-0.8452 1.2796,-1.30572 2.251,-1.30572 1.0498,0 1.8688,0.48676 2.4568,1.48328 l 0.8702,1.458198 -3.0198,5.8208 -4.8866,-3.4404 z m 0.3572,20.530278 c -1.4582,0 -2.6604,-1.20244 -2.6604,-2.66062 0,-0.40948 0.18,-1.10096 0.4354,-1.5355 l 0.818,-1.4582 h 6.0646 v 5.65436 H 26.6246 Z M 31.487,32.36412 C 31.1038,31.69976 30.5918,31.23806 29.9776,30.982 h 6.2936 c 0.563,0 0.9976,0.231 1.2544,0.66642 l 1.5606,2.660618 1.6882,-0.9986 -2.7128,4.86226 -5.5508,-0.0782 1.714,-0.97144 z m 9.698,15.081858 c 0.7666,0 1.407,-0.20472 1.9438,-0.61332 l -3.1732,5.52572 c -0.256,0.43452 -0.7158,0.70852 -1.2526,0.6906 h -2.9948 v 1.97002 l -2.8652,-4.78408 2.8652,-4.7853 v 1.99632 h 5.4768 z m 2.4546,-4.6056 c 0.231,0.40948 0.3594,0.844 0.3594,1.30478 0,0.9213 -0.5892,1.89364 -1.407,2.35328 -0.3844,0.20594 -0.9234,0.3659 -1.4582,0.33426 h -1.6902 l -3.0178,-5.22072 4.8866,-2.78898 z"
     style="opacity:0.2;fill:#000000;fill-opacity:1;stroke-width:2"
     id="path7054" />
  <path
     d="m 23.8106,47.623058 c -0.256,0.4596 -0.4596,1.15112 -0.4596,1.58684 0,0.1012 0,0.22982 0.026,0.4083 l -3.1984,-5.5007 c -0.102,-0.1784 -0.178,-0.43454 -0.178,-0.66524 0,-0.231 0.076,-0.5118 0.178,-0.6906 l 1.5356,-2.6866 -1.7142,-0.97146 5.578,-0.1032 2.7116,4.88646 -1.7392,-0.9977 z M 26.2674,31.51872 c 0.4858,-0.8452 1.2796,-1.30572 2.251,-1.30572 1.0498,0 1.8688,0.48676 2.4568,1.48328 l 0.8702,1.458198 -3.0198,5.8208 -4.8866,-3.4404 z m 0.3572,20.530278 c -1.4582,0 -2.6604,-1.20244 -2.6604,-2.66062 0,-0.40948 0.18,-1.10096 0.4354,-1.5355 l 0.818,-1.4582 h 6.0646 v 5.65436 H 26.6246 Z M 31.487,31.36412 C 31.1038,30.69976 30.5918,30.23806 29.9776,29.982 h 6.2936 c 0.563,0 0.9976,0.231 1.2544,0.66642 l 1.5606,2.660618 1.6882,-0.9986 -2.7128,4.86226 -5.5508,-0.0782 1.714,-0.97144 z m 9.698,15.081858 c 0.7666,0 1.407,-0.20472 1.9438,-0.61332 l -3.1732,5.52572 c -0.256,0.43452 -0.7158,0.70852 -1.2526,0.6906 h -2.9948 v 1.97002 l -2.8652,-4.78408 2.8652,-4.7853 v 1.99632 h 5.4768 z m 2.4546,-4.6056 c 0.231,0.40948 0.3594,0.844 0.3594,1.30478 0,0.9213 -0.5892,1.89364 -1.407,2.35328 -0.3844,0.20594 -0.9234,0.3659 -1.4582,0.33426 h -1.6902 l -3.0178,-5.22072 4.8866,-2.78898 z"
     style="fill:#6d9d19;fill-opacity:1;stroke-width:2"
     id="path6538"
     sodipodi:nodetypes="csccsccccccccsccccccsccccccccscccccccccccccccccccscccccc" />
  <path
     style="opacity:0.2"
     d="M 54,23 36,5 V 20.1875 C 36,21.74675 37.2555,23 38.8125,23 Z"
     id="path5454" />
  <path
     style="fill:#fafafa"
     d="M 54,22 36,4 V 19.1875 C 36,20.74675 37.2555,22 38.8125,22 Z"
     id="path5456" />
  <path
     style="opacity:0.2;fill:#ffffff"
     d="M 12.75 4 C 11.2265 4 10 5.2495812 10 6.8007812 L 10 7.8007812 C 10 6.2495813 11.2265 5 12.75 5 L 36 5 L 36 4 L 12.75 4 z"
     id="path5458" />
</svg>
