<?xml version="1.0" encoding="UTF-8" standalone="no"?>
<svg
   width="64"
   height="64"
   version="1.1"
   id="svg5462"
   sodipodi:docname="application-json.svg"
   inkscape:version="1.2.2 (1:1.2.2+202305151914+b0a8486541)"
   xmlns:inkscape="http://www.inkscape.org/namespaces/inkscape"
   xmlns:sodipodi="http://sodipodi.sourceforge.net/DTD/sodipodi-0.dtd"
   xmlns="http://www.w3.org/2000/svg"
   xmlns:svg="http://www.w3.org/2000/svg">
  <defs
     id="defs5466" />
  <sodipodi:namedview
     id="namedview5464"
     pagecolor="#ffffff"
     bordercolor="#000000"
     borderopacity="0.25"
     inkscape:showpageshadow="2"
     inkscape:pageopacity="0.0"
     inkscape:pagecheckerboard="0"
     inkscape:deskcolor="#d1d1d1"
     showgrid="false"
     inkscape:zoom="12.59375"
     inkscape:cx="32"
     inkscape:cy="32"
     inkscape:window-width="1920"
     inkscape:window-height="1008"
     inkscape:window-x="0"
     inkscape:window-y="0"
     inkscape:window-maximized="1"
     inkscape:current-layer="svg5462" />
  <path
     style="opacity:0.2"
     d="M 12.75,5 C 11.2265,5 10,6.2488 10,7.8 v 50.4 c 0,1.55008 1.2265,2.8 2.75,2.8 h 38.5 C 52.7724,61 54,59.75008 54,58.2 V 23 L 40,19 36,5 Z"
     id="path5450" />
  <path
     style="fill:#e4e4e4"
     d="M 12.75,4 C 11.2265,4 10,5.2488 10,6.8 v 50.4 c 0,1.55008 1.2265,2.8 2.75,2.8 h 38.5 C 52.7724,60 54,58.75008 54,57.2 V 22 L 40,18 36,4 Z"
     id="path5452" />
  <path
     d="m 26.455747,31.00023 c -0.0378,-4.72e-4 -0.0756,8.3e-4 -0.113276,0.004 -0.107816,0.0066 -0.214254,0.0276 -0.316394,0.0625 0,0 -0.748661,0.245911 -1.617129,0.699192 -0.868407,0.453284 -1.92249,1.089554 -2.601465,2.179608 -0.755752,1.213151 -0.469399,2.512269 -0.234368,3.288942 0.235032,0.776689 0.361619,1.116607 0.144535,1.636657 -0.106016,0.253945 -0.754016,0.806665 -1.46479,1.152302 -0.711253,0.345699 -1.355417,0.527324 -1.355417,0.527324 -0.645261,0.165894 -1.029798,0.822584 -0.855437,1.460882 -0.151954,0.626793 0.227638,1.259451 0.855437,1.425729 0,0 0.644664,0.181694 1.355417,0.527325 0.710794,0.345619 1.358814,0.902264 1.46479,1.156207 0.217092,0.519993 0.0905,0.859906 -0.144535,1.636657 -0.235031,0.77669 -0.521384,2.075594 0.234368,3.288943 0.679015,1.090033 1.733058,1.722356 2.601465,2.175699 0.868408,0.453281 1.617129,0.699194 1.617129,0.699194 1.550606,0.571711 2.341355,-1.792345 0.753878,-2.253824 0,0 -0.567845,-0.188753 -1.25386,-0.546854 -0.686055,-0.358081 -1.420275,-0.911646 -1.679626,-1.328077 -0.293429,-0.471034 -0.198652,-0.63442 0.0196,-1.355418 0.218191,-0.721015 0.613003,-1.917159 0.0664,-3.226442 -0.484082,-1.159479 -1.451112,-1.772139 -2.31632,-2.214762 0.865088,-0.442564 1.832118,-1.059131 2.31632,-2.218668 0.54662,-1.309264 0.151794,-2.505447 -0.0664,-3.226443 -0.218192,-0.721015 -0.312941,-0.884405 -0.0196,-1.355419 0.259391,-0.416411 0.993651,-0.969957 1.679626,-1.328075 0.686055,-0.358083 1.25386,-0.546856 1.25386,-0.546856 1.28323,-0.402591 1.024756,-2.274962 -0.320302,-2.32032 z m 11.077714,0 c -1.343153,0.04922 -1.598083,1.918697 -0.316395,2.320226 0,0 0.567805,0.188773 1.25386,0.546856 0.685974,0.3581 1.420235,0.911646 1.679626,1.328075 0.293409,0.471016 0.198652,0.634402 -0.0196,1.355419 -0.218192,0.720976 -0.613023,1.921063 -0.0664,3.230349 0.484102,1.159437 1.451152,1.772118 2.31632,2.214762 -0.865108,0.442523 -1.832138,1.055185 -2.31632,2.214762 -0.5466,1.309265 -0.151795,2.505447 0.0664,3.226442 0.218192,0.720996 0.312961,0.884384 0.0196,1.355418 -0.259351,0.416431 -0.993592,0.969996 -1.679626,1.328077 -0.686015,0.358101 -1.25386,0.546854 -1.25386,0.546854 -1.587477,0.461479 -0.796728,2.825535 0.753878,2.253824 0,0 0.748721,-0.245911 1.617128,-0.699194 0.868348,-0.453321 1.922391,-1.085666 2.601466,-2.175699 0.755752,-1.213271 0.469399,-2.512073 0.234367,-3.288943 -0.235031,-0.776749 -0.361618,-1.116664 -0.144534,-1.636657 0.105976,-0.253945 0.753996,-0.81059 1.46479,-1.156207 0.710753,-0.345619 1.355417,-0.527325 1.355417,-0.527325 0.627799,-0.166273 1.007395,-0.798936 0.855439,-1.425729 0.174353,-0.638298 -0.210179,-1.294996 -0.855439,-1.460882 0,0 -0.644164,-0.181633 -1.355417,-0.527324 -0.710774,-0.345619 -1.358774,-0.898357 -1.46479,-1.152302 -0.217092,-0.520052 -0.0905,-0.859966 0.144534,-1.636657 0.235032,-0.776691 0.521405,-2.075791 -0.234367,-3.288942 -0.678915,-1.090034 -1.732998,-1.726304 -2.601466,-2.179608 -0.868447,-0.453281 -1.621034,-0.699192 -1.621034,-0.699192 -0.100896,-0.03456 -0.205984,-0.05558 -0.312488,-0.0625 -0.03898,-0.0032 -0.07808,-0.0046 -0.117176,-0.004 h -0.004 z m -5.534952,5.999778 c -1.104567,-9.2e-5 -2.000017,0.895359 -1.999926,1.999926 -9.1e-5,1.104567 0.895359,2.000018 1.999926,1.999926 1.104568,9.2e-5 2.000018,-0.895359 1.999926,-1.999926 9.2e-5,-1.104567 -0.895358,-2.000018 -1.999926,-1.999926 z m 0,6.007589 c -1.104549,0 -1.999926,0.895377 -1.999926,1.999926 0,1.104517 0.895377,1.999926 1.999926,1.999926 0.706948,0 0.999963,1.999926 0.999963,1.999926 0,0 0.999963,-3.602149 0.999963,-3.999852 0,-1.104549 -0.895376,-1.999926 -1.999926,-1.999926 z"
     style="opacity:0.2;fill:#000000;fill-opacity:1;fill-rule:evenodd;stroke-width:1.99993"
     id="path2752" />
  <path
     d="m 26.455717,30.000255 c -0.0378,-4.72e-4 -0.07561,8.3e-4 -0.113289,0.004 -0.107819,0.0067 -0.214252,0.02759 -0.316393,0.06251 0,0 -0.748656,0.245909 -1.617122,0.699188 -0.868403,0.453281 -1.922481,1.08955 -2.601452,2.179597 -0.755748,1.213146 -0.469398,2.51226 -0.234367,3.28893 0.235031,0.776684 0.361617,1.116602 0.144533,1.636649 -0.106023,0.253945 -0.754013,0.806661 -1.464784,1.152296 -0.711248,0.3457 -1.355411,0.527322 -1.355411,0.527322 -0.645257,0.165907 -1.029793,0.822581 -0.855434,1.460876 -0.15196,0.626791 0.227638,1.259447 0.855434,1.425724 0,0 0.644663,0.18171 1.355411,0.527321 0.710792,0.345619 1.358809,0.902261 1.464784,1.156204 0.217092,0.519988 0.0905,0.859902 -0.144533,1.636649 -0.235031,0.776686 -0.521381,2.075584 0.234367,3.288928 0.679011,1.090028 1.733049,1.722349 2.601452,2.175689 0.868405,0.453281 1.617122,0.699193 1.617122,0.699193 1.550601,0.571708 2.341345,-1.79234 0.753875,-2.253815 0,0 -0.567842,-0.188755 -1.253852,-0.546853 -0.686054,-0.358078 -1.42027,-0.91164 -1.67962,-1.328068 -0.293429,-0.471035 -0.198664,-0.634421 0.01958,-1.355413 0.218192,-0.721013 0.613002,-1.917153 0.0664,-3.226431 -0.484079,-1.159473 -1.451106,-1.772129 -2.31631,-2.214752 0.865085,-0.442559 1.83211,-1.059125 2.31631,-2.218657 0.546619,-1.309257 0.151799,-2.505436 -0.0664,-3.226429 -0.218192,-0.72101 -0.312938,-0.8844 -0.01958,-1.355414 0.259388,-0.416408 0.993645,-0.969952 1.67962,-1.328069 0.686051,-0.35808 1.253852,-0.546853 1.253852,-0.546853 1.283225,-0.40259 1.024751,-2.274952 -0.320301,-2.32031 z m 11.077665,0 c -1.343145,0.04923 -1.598075,1.918687 -0.316392,2.320216 0,0 0.567804,0.188775 1.253855,0.546853 0.68597,0.358098 1.420229,0.911642 1.679619,1.328068 0.293409,0.471016 0.198665,0.634402 -0.01958,1.355415 -0.218191,0.720973 -0.613019,1.921057 -0.0664,3.230334 0.484099,1.159433 1.451145,1.772112 2.316309,2.214752 -0.865104,0.442523 -1.832129,1.055182 -2.316309,2.214754 -0.546598,1.30926 -0.151798,2.505436 0.0664,3.226429 0.21819,0.72099 0.312961,0.884378 0.01958,1.355412 -0.259349,0.416429 -0.993588,0.969992 -1.679619,1.328071 -0.686011,0.358098 -1.253855,0.546851 -1.253855,0.546851 -1.587468,0.461477 -0.796724,2.825525 0.753876,2.253814 0,0 0.748716,-0.245909 1.617119,-0.69919 0.868345,-0.45332 1.922385,-1.085661 2.601457,-2.175691 0.755748,-1.213264 0.469395,-2.512061 0.234366,-3.288929 -0.23503,-0.776744 -0.361616,-1.116658 -0.144532,-1.636649 0.105982,-0.253944 0.753992,-0.810586 1.46478,-1.156201 0.710751,-0.345619 1.355412,-0.527322 1.355412,-0.527322 0.627799,-0.16629 1.007392,-0.798934 0.855434,-1.425725 0.174364,-0.638295 -0.210177,-1.29499 -0.855434,-1.460875 0,0 -0.64416,-0.181649 -1.355412,-0.527321 -0.710768,-0.345619 -1.358766,-0.898354 -1.46478,-1.152298 -0.217092,-0.520049 -0.0905,-0.859963 0.144532,-1.636649 0.235029,-0.776689 0.521402,-2.075782 -0.234366,-3.28893 -0.678913,-1.090027 -1.732991,-1.726296 -2.601457,-2.179597 -0.868443,-0.453279 -1.621025,-0.699189 -1.621025,-0.699189 -0.100896,-0.03455 -0.205985,-0.05558 -0.312488,-0.06251 -0.03897,-0.0032 -0.07807,-0.0046 -0.117184,-0.004 h -0.004 z m -5.534926,5.999752 c -1.104562,-9.1e-5 -2.000009,0.895354 -1.999916,1.999917 -9.3e-5,1.104562 0.895354,2.000009 1.999916,1.999918 1.104563,9.1e-5 2.00001,-0.895356 1.999919,-1.999918 9.1e-5,-1.104563 -0.895356,-2.000008 -1.999919,-1.999917 z m 0,6.007565 c -1.104544,0 -1.999916,0.895372 -1.999916,1.999916 0,1.104512 0.895372,1.999917 1.999916,1.999917 0.706945,0 0.999959,1.999919 0.999959,1.999919 0,0 0.99996,-3.602135 0.99996,-3.999836 0,-1.104544 -0.895375,-1.999916 -1.999919,-1.999916 z"
     style="fill:#84b841;fill-opacity:1;fill-rule:evenodd;stroke-width:1.99992"
     id="path1746"
     sodipodi:nodetypes="cccccsccccccccccccccccccscccccccccccccsscccccccccccccsccccccccccccssscss" />
  <path
     style="opacity:0.2"
     d="M 54,23 36,5 V 20.1875 C 36,21.74675 37.2555,23 38.8125,23 Z"
     id="path5454" />
  <path
     style="fill:#fafafa"
     d="M 54,22 36,4 V 19.1875 C 36,20.74675 37.2555,22 38.8125,22 Z"
     id="path5456" />
  <path
     style="opacity:0.2;fill:#ffffff"
     d="M 12.75 4 C 11.2265 4 10 5.2495812 10 6.8007812 L 10 7.8007812 C 10 6.2495813 11.2265 5 12.75 5 L 36 5 L 36 4 L 12.75 4 z"
     id="path5458" />
</svg>
