<?xml version="1.0" encoding="UTF-8" standalone="no"?>
<svg
   width="64"
   height="64"
   version="1.1"
   id="svg5278"
   sodipodi:docname="application-vnd.ms-powerpoint.svg"
   inkscape:version="1.2.2 (1:1.2.2+202305151914+b0a8486541)"
   xmlns:inkscape="http://www.inkscape.org/namespaces/inkscape"
   xmlns:sodipodi="http://sodipodi.sourceforge.net/DTD/sodipodi-0.dtd"
   xmlns="http://www.w3.org/2000/svg"
   xmlns:svg="http://www.w3.org/2000/svg">
  <defs
     id="defs5282" />
  <sodipodi:namedview
     id="namedview5280"
     pagecolor="#ffffff"
     bordercolor="#000000"
     borderopacity="0.25"
     inkscape:showpageshadow="2"
     inkscape:pageopacity="0.0"
     inkscape:pagecheckerboard="0"
     inkscape:deskcolor="#d1d1d1"
     showgrid="false"
     inkscape:zoom="12.59375"
     inkscape:cx="32"
     inkscape:cy="32"
     inkscape:window-width="1920"
     inkscape:window-height="1008"
     inkscape:window-x="0"
     inkscape:window-y="0"
     inkscape:window-maximized="1"
     inkscape:current-layer="svg5278" />
  <path
     style="opacity:0.2;stroke-width:2"
     d="M 12.75,5 C 11.2265,5 10,6.2488 10,7.8 v 50.4 c 0,1.55008 1.2265,2.8 2.75,2.8 h 38.5 C 52.7724,61 54,59.75008 54,58.2 V 23 L 40,19 36,5 Z"
     id="path5266" />
  <path
     style="fill:#e4e4e4;stroke-width:2"
     d="M 12.75,4 C 11.2265,4 10,5.2488 10,6.8 v 50.4 c 0,1.55008 1.2265,2.8 2.75,2.8 h 38.5 C 52.7724,60 54,58.75008 54,57.2 V 22 L 40,18 36,4 Z"
     id="path5268" />
  <ellipse
     style="opacity:0.2;fill:#000000;fill-opacity:1;stroke-width:10;stroke-linecap:round;stroke-linejoin:round"
     id="path7987"
     cx="34"
     cy="42.999996"
     rx="14"
     ry="13.999996" />
  <circle
     style="opacity:1;fill:#ff8f6b;fill-opacity:1;stroke-width:9.33332;stroke-linejoin:bevel"
     id="path31463"
     cx="34.000004"
     cy="41.999992"
     r="13.999993" />
  <path
     id="path31465"
     style="opacity:1;fill:#d35230;fill-opacity:1;stroke-width:6.99998;stroke-linejoin:bevel"
     d="m 20.000008,41.999994 c -2e-6,7.731986 6.26801,13.999998 13.999996,13.999998 7.731986,0 13.999998,-6.268012 13.999996,-13.999998 H 34.000004 Z"
     sodipodi:nodetypes="csccc" />
  <path
     id="path7584"
     style="opacity:0.2;fill:#000000;fill-opacity:1;stroke-width:6.99998;stroke-linejoin:bevel"
     d="m 20,42 c 0,0.337258 0.01952,0.66871 0.04297,1 H 34 47.957032 C 47.980484,42.66871 48,42.337258 48,42 H 34 Z" />
  <path
     id="path31759"
     style="opacity:1;fill:#ed6c47;fill-opacity:1;stroke-width:6.99998;stroke-linejoin:bevel"
     d="M 33.999996,28.000002 A 13.999993,13.999994 0 0 0 20,41.999994 h 13.999996 z" />
  <path
     id="path7781"
     style="opacity:0.2;fill:#ffffff;fill-opacity:1;stroke-width:6.99998;stroke-linejoin:bevel"
     d="m 34,28 c -7.731978,0 -14.000002,6.268022 -14,14 h 0.04297 C 20.55718,34.736164 26.60528,29 34,29 c 7.39472,0 13.44282,5.736164 13.957032,13 H 48 c 2e-6,-7.731978 -6.268022,-14 -14,-14 z" />
  <rect
     style="opacity:0.2;fill:#000000;fill-opacity:1;stroke-width:10;stroke-linecap:round;stroke-linejoin:round"
     id="rect7881"
     width="16"
     height="16"
     x="16"
     y="35"
     ry="1.9999993" />
  <rect
     style="fill:#c43e1c;fill-opacity:1;stroke-width:0.999994"
     id="rect2687"
     width="16"
     height="16"
     x="16"
     y="33.999996"
     ry="1.9999993" />
  <path
     id="rect4291"
     style="fill:#ffffff;fill-opacity:1;stroke-width:1"
     d="m 20,36.000086 v 12 h 2.000002 v -3.999998 h 2 c 2.20914,0 4,-1.79086 4,-4 0,-2.20914 -1.79086,-4.000002 -4,-4.000002 h -2 z m 2.000002,2 h 2 c 1.10457,0 2.000002,0.895432 2,2.000002 -2e-6,1.104568 -0.895432,1.999996 -2,1.999996 h -2 z"
     sodipodi:nodetypes="ccccssscccssscc" />
  <path
     style="opacity:0.2;stroke-width:2"
     d="M 54,23 36,5 V 20.1875 C 36,21.74675 37.2555,23 38.8125,23 Z"
     id="path5270" />
  <path
     style="fill:#fafafa;stroke-width:2"
     d="M 54,22 36,4 V 19.1875 C 36,20.74675 37.2555,22 38.8125,22 Z"
     id="path5272" />
  <path
     id="path5274"
     style="opacity:0.2;fill:#ffffff;stroke-width:2"
     d="M 12.75,4 C 11.226502,4 10,5.2495828 10,6.8007812 v 1 C 10,6.2495828 11.226502,5 12.75,5 H 36 V 4 Z" />
</svg>
