<?xml version="1.0" encoding="UTF-8" standalone="no"?>
<svg
   width="64"
   height="64"
   version="1"
   id="svg6695"
   sodipodi:docname="image-x-generic.svg"
   inkscape:version="1.2.2 (1:1.2.2+202305151914+b0a8486541)"
   xmlns:inkscape="http://www.inkscape.org/namespaces/inkscape"
   xmlns:sodipodi="http://sodipodi.sourceforge.net/DTD/sodipodi-0.dtd"
   xmlns="http://www.w3.org/2000/svg"
   xmlns:svg="http://www.w3.org/2000/svg">
  <defs
     id="defs6699" />
  <sodipodi:namedview
     id="namedview6697"
     pagecolor="#ffffff"
     bordercolor="#000000"
     borderopacity="0.25"
     inkscape:showpageshadow="2"
     inkscape:pageopacity="0.0"
     inkscape:pagecheckerboard="0"
     inkscape:deskcolor="#d1d1d1"
     showgrid="false"
     inkscape:zoom="12.59375"
     inkscape:cx="31.960298"
     inkscape:cy="32"
     inkscape:window-width="1920"
     inkscape:window-height="1008"
     inkscape:window-x="0"
     inkscape:window-y="0"
     inkscape:window-maximized="1"
     inkscape:current-layer="svg6695"
     showguides="false" />
  <rect
     style="opacity:0.2;fill:#000000;stroke-width:2"
     id="rect6970"
     width="52"
     height="48"
     x="6.000001"
     y="9"
     ry="4" />
  <rect
     style="fill:#8f3d8b;fill-opacity:1;stroke-width:3.99994"
     id="rect342"
     width="52"
     height="48"
     x="6.000001"
     y="8"
     ry="4" />
  <path
     style="opacity:0.2;stroke-width:2"
     d="m 22.000001,27 12,16 10,-8 8,8 v 6 H 12 V 39 Z"
     id="path6691" />
  <path
     fill="#ffffff"
     d="m 22.000001,26 12,16 10,-8 8,8 v 6 H 12 V 38 Z"
     id="path6693"
     style="stroke-width:2" />
  <path
     id="rect6880"
     style="opacity:0.2;fill:#ffffff;stroke-width:2"
     d="M 10,8 C 7.7840022,8 6,9.7840022 6,12 v 1 C 6,10.784002 7.7840022,9 10,9 h 44.000001 c 2.215998,0 4,1.784002 4,4 v -1 c 0,-2.2159978 -1.784002,-4 -4,-4 z"
     sodipodi:nodetypes="sscsscsss" />
</svg>
