<?xml version="1.0" encoding="UTF-8" standalone="no"?>
<svg
   width="64"
   height="64"
   version="1"
   id="svg778"
   sodipodi:docname="package-x-generic.svg"
   inkscape:version="1.2.2 (1:1.2.2+202305151914+b0a8486541)"
   xmlns:inkscape="http://www.inkscape.org/namespaces/inkscape"
   xmlns:sodipodi="http://sodipodi.sourceforge.net/DTD/sodipodi-0.dtd"
   xmlns="http://www.w3.org/2000/svg"
   xmlns:svg="http://www.w3.org/2000/svg">
  <defs
     id="defs782" />
  <sodipodi:namedview
     id="namedview780"
     pagecolor="#ffffff"
     bordercolor="#000000"
     borderopacity="0.25"
     inkscape:showpageshadow="2"
     inkscape:pageopacity="0.0"
     inkscape:pagecheckerboard="0"
     inkscape:deskcolor="#d1d1d1"
     showgrid="false"
     inkscape:zoom="12.59375"
     inkscape:cx="31.960298"
     inkscape:cy="32"
     inkscape:window-width="1920"
     inkscape:window-height="1008"
     inkscape:window-x="0"
     inkscape:window-y="0"
     inkscape:window-maximized="1"
     inkscape:current-layer="svg778" />
  <rect
     style="opacity:0.2;stroke-width:2"
     width="56"
     height="56"
     x="4"
     y="5"
     ry="6"
     id="rect750" />
  <rect
     style="fill:#c19f5f;fill-opacity:1;stroke-width:3.49998"
     id="rect944"
     width="56"
     height="56"
     x="3.9999998"
     y="4"
     ry="6" />
  <rect
     style="opacity:0.2"
     width="10"
     height="27"
     x="27"
     y="4"
     id="rect1593" />
  <rect
     style="fill:#ffffff"
     width="3"
     height="3"
     x="32"
     y="4"
     id="rect1595" />
  <rect
     style="fill:#ffffff"
     width="3"
     height="3"
     x="29"
     y="25"
     id="rect1597" />
  <path
     style="fill:#4b4b4b"
     d="m 32,25 c 3.75,0 3.75,5.6 5,5.6 v 7 c 0,0.7756 -0.5575,1.4 -1.25,1.4 h -7.5 C 27.5575,39 27,38.3756 27,37.6 v -7 c 1.25,0 1.25,-5.6 5,-5.6 z"
     id="path1599" />
  <path
     style="opacity:0.2"
     d="M 31.667969,32 C 29.082636,32 27,34.102725 27,36.710938 v 9.578124 C 27,48.897276 29.082636,51 31.667969,51 h 0.664062 C 34.917364,51 37,48.897277 37,46.289062 V 36.710938 C 37,34.102725 34.917364,32 32.332031,32 Z M 32,42 c 2.209139,4e-6 4,1.792881 4,4.001953 C 36,48.211026 34.209139,50 32,50 29.790861,50 28,48.211026 28,46.001953 28,43.792881 29.790861,42.000004 32,42 Z"
     id="path1601" />
  <path
     style="fill:#ffffff"
     d="M 31.667969,31 C 29.082636,31 27,33.102725 27,35.710938 v 9.578124 C 27,47.897276 29.082636,50 31.667969,50 h 0.664062 C 34.917364,50 37,47.897277 37,45.289062 V 35.710938 C 37,33.102725 34.917364,31 32.332031,31 Z M 32,41 c 2.209139,4e-6 4,1.792881 4,4.001953 C 36,47.211026 34.209139,49 32,49 29.790861,49 28,47.211026 28,45.001953 28,42.792881 29.790861,41.000004 32,41 Z"
     id="path1603" />
  <path
     style="fill:#909090"
     d="M 31.984375,27.000122 A 1.0001,0.99660733 0 0 0 31,28.010254 V 33.9893 a 1.0001,0.99660733 0 1 0 2,0 v -5.979046 a 1.0001,0.99660733 0 0 0 -1.015625,-1.010132 z"
     id="path1605" />
  <rect
     style="fill:#ffffff"
     width="3"
     height="3"
     x="29"
     y="7"
     id="rect1607" />
  <rect
     style="fill:#ffffff"
     width="3"
     height="3"
     x="32"
     y="10"
     id="rect1609" />
  <rect
     style="fill:#ffffff"
     width="3"
     height="3"
     x="29"
     y="13"
     id="rect1611" />
  <rect
     style="fill:#ffffff"
     width="3"
     height="3"
     x="32"
     y="16"
     id="rect1613" />
  <rect
     style="fill:#ffffff"
     width="3"
     height="3"
     x="29"
     y="19"
     id="rect1615" />
  <rect
     style="fill:#ffffff"
     width="3"
     height="3"
     x="32"
     y="22"
     id="rect1617" />
  <path
     id="rect914"
     style="opacity:0.2;fill:#ffffff;stroke-width:2"
     d="M 10,4 C 6.6760034,4 4,6.6760034 4,10 v 1 C 4,7.6760034 6.6760034,5 10,5 h 44 c 3.323996,0 6,2.6760034 6,6 V 10 C 60,6.6760034 57.323996,4 54,4 Z"
     sodipodi:nodetypes="sscsscsss" />
</svg>
