<?xml version="1.0" encoding="UTF-8" standalone="no"?>
<svg
   width="64"
   height="64"
   version="1.1"
   id="svg5462"
   sodipodi:docname="text-x-vala.svg"
   inkscape:version="1.2.2 (1:1.2.2+202305151914+b0a8486541)"
   xmlns:inkscape="http://www.inkscape.org/namespaces/inkscape"
   xmlns:sodipodi="http://sodipodi.sourceforge.net/DTD/sodipodi-0.dtd"
   xmlns="http://www.w3.org/2000/svg"
   xmlns:svg="http://www.w3.org/2000/svg">
  <defs
     id="defs5466" />
  <sodipodi:namedview
     id="namedview5464"
     pagecolor="#ffffff"
     bordercolor="#000000"
     borderopacity="0.25"
     inkscape:showpageshadow="2"
     inkscape:pageopacity="0.0"
     inkscape:pagecheckerboard="0"
     inkscape:deskcolor="#d1d1d1"
     showgrid="false"
     inkscape:zoom="12.59375"
     inkscape:cx="31.960298"
     inkscape:cy="32"
     inkscape:window-width="1920"
     inkscape:window-height="1008"
     inkscape:window-x="0"
     inkscape:window-y="0"
     inkscape:window-maximized="1"
     inkscape:current-layer="svg5462" />
  <path
     style="opacity:0.2"
     d="M 12.75,5 C 11.2265,5 10,6.2488 10,7.8 v 50.4 c 0,1.55008 1.2265,2.8 2.75,2.8 h 38.5 C 52.7724,61 54,59.75008 54,58.2 V 23 L 40,19 36,5 Z"
     id="path5450" />
  <path
     style="fill:#e4e4e4"
     d="M 12.75,4 C 11.2265,4 10,5.2488 10,6.8 v 50.4 c 0,1.55008 1.2265,2.8 2.75,2.8 h 38.5 C 52.7724,60 54,58.75008 54,57.2 V 22 L 40,18 36,4 Z"
     id="path5452" />
  <path
     d="M 27.998102,54.999176 27.997288,29.81076 c -1.736304,0.655798 -2.473606,1.288882 -3.445802,2.688186 -0.968904,1.39457 -1.097386,3.921164 -1.097386,5.998314 0,0.473602 0.02422,0.862416 0.0727,1.166444 0.05992,0.291404 0.12008,0.528204 0.18054,0.710402 0.06046,0.17012 0.11492,0.303754 0.16338,0.400886 0.05992,0.09714 0.08986,0.1822 0.08986,0.255186 -0.638858,0 -1.205282,-0.06064 -1.69927,-0.18192 -0.494506,-0.1339 -0.91061,-0.34052 -1.248286,-0.619856 C 20.687334,39.949618 20.434078,39.579188 20.253256,39.11711 20.084416,38.656134 20,38.085396 20,37.404902 c 0,-0.825922 0.229634,-2.317186 0.52367,-3.140754 1.272406,-3.563906 5.600086,-5.8588 8.950132,-6.868598 1.033754,-0.311602 2.091954,-0.3836 3.128946,-0.3836 0.390214,-0.04942 0.962392,0.07028 0.99215,0.07244 v 22.95842 l 8.609548,-22.84977 h 2.585676 L 34.501362,55 h -6.504074 z"
     style="opacity:0.2;fill:#000000;fill-opacity:1;stroke-width:2"
     id="path2548" />
  <path
     d="m 27.998102,53.999178 -8.14e-4,-25.188416 c -1.736304,0.655798 -2.473606,1.288882 -3.445802,2.688188 -0.968904,1.394568 -1.097386,3.921162 -1.097386,5.998312 0,0.473602 0.02422,0.862418 0.0727,1.166444 0.05992,0.291404 0.12008,0.528204 0.18054,0.710402 0.06046,0.17012 0.11492,0.303754 0.16338,0.400886 0.05992,0.09714 0.08986,0.1822 0.08986,0.255186 -0.638858,0 -1.205282,-0.06064 -1.69927,-0.18192 C 21.766804,39.71436 21.3507,39.50774 21.013024,39.228406 20.687334,38.949622 20.434078,38.57919 20.253256,38.117114 20.084416,37.656136 20,37.085398 20,36.404904 c 0,-0.825922 0.229634,-2.317186 0.52367,-3.140754 1.272406,-3.563906 5.600086,-5.858802 8.950132,-6.8686 1.033754,-0.311602 2.091954,-0.3836 3.128946,-0.3836 0.390214,-0.04942 0.962392,0.07028 0.99215,0.07244 v 22.958424 l 8.609548,-22.849772 h 2.585676 l -10.28876,27.806962 h -6.504074 z"
     style="fill:#634d9f;fill-opacity:1;stroke-width:2"
     id="path1669"
     sodipodi:nodetypes="ccsscccccccssscccccccc" />
  <path
     style="opacity:0.2"
     d="M 54,23 36,5 V 20.1875 C 36,21.74675 37.2555,23 38.8125,23 Z"
     id="path5454" />
  <path
     style="fill:#fafafa"
     d="M 54,22 36,4 V 19.1875 C 36,20.74675 37.2555,22 38.8125,22 Z"
     id="path5456" />
  <path
     style="opacity:0.2;fill:#ffffff"
     d="M 12.75 4 C 11.2265 4 10 5.2495812 10 6.8007812 L 10 7.8007812 C 10 6.2495813 11.2265 5 12.75 5 L 36 5 L 36 4 L 12.75 4 z"
     id="path5458" />
</svg>
