<?xml version="1.0" encoding="UTF-8" standalone="no"?>
<svg
   width="64"
   height="64"
   version="1"
   id="svg6695"
   sodipodi:docname="video-x-generic.svg"
   inkscape:version="1.2.2 (1:1.2.2+202305151914+b0a8486541)"
   xmlns:inkscape="http://www.inkscape.org/namespaces/inkscape"
   xmlns:sodipodi="http://sodipodi.sourceforge.net/DTD/sodipodi-0.dtd"
   xmlns="http://www.w3.org/2000/svg"
   xmlns:svg="http://www.w3.org/2000/svg">
  <defs
     id="defs6699" />
  <sodipodi:namedview
     id="namedview6697"
     pagecolor="#ffffff"
     bordercolor="#000000"
     borderopacity="0.25"
     inkscape:showpageshadow="2"
     inkscape:pageopacity="0.0"
     inkscape:pagecheckerboard="0"
     inkscape:deskcolor="#d1d1d1"
     showgrid="false"
     inkscape:zoom="12.59375"
     inkscape:cx="31.960298"
     inkscape:cy="32"
     inkscape:window-width="1920"
     inkscape:window-height="1008"
     inkscape:window-x="0"
     inkscape:window-y="0"
     inkscape:window-maximized="1"
     inkscape:current-layer="svg6695"
     showguides="false" />
  <rect
     style="opacity:0.2;fill:#000000;stroke-width:2"
     id="rect6970"
     width="52"
     height="48"
     x="6.000001"
     y="9"
     ry="4" />
  <rect
     style="fill:#5c5c5c;fill-opacity:1;stroke-width:3.99994"
     id="rect342"
     width="52"
     height="48"
     x="6.000001"
     y="8"
     ry="4" />
  <path
     d="M 19.5,18 C 18.669,18 18,18.669 18,19.5 v 27 c 0,0.831 0.669,1.5 1.5,1.5 h 25 c 0.831,0 1.5,-0.669 1.5,-1.5 v -27 C 46,18.669 45.331,18 44.5,18 Z m 0.5,2 h 2 v 2 h -2 z m 5,0 h 14 c 0.554002,0 1,0.446 1,1 v 10 c 0,0.554 -0.445998,1 -1,1 H 25 c -0.554,0 -1,-0.446 -1,-1 V 21 c 0,-0.554 0.446,-1 1,-1 z m 17,0 h 2 v 2 h -2 z m -22,4 h 2 v 2 h -2 z m 22,0 h 2 v 2 h -2 z m -22,4 h 2 v 2 h -2 z m 22,0 h 2 v 2 h -2 z m -22,4 h 2 v 2 h -2 z m 22,0 h 2 v 2 h -2 z m -17,2 h 14 c 0.554002,0 1,0.446 1,1 v 10 c 0,0.554 -0.445998,1 -1,1 H 25 c -0.554,0 -1,-0.446 -1,-1 V 35 c 0,-0.554 0.446,-1 1,-1 z m -5,2 h 2 v 2 h -2 z m 22,0 h 2 v 2 h -2 z m -22,4 h 2 v 2 h -2 z m 22,0 h 2 v 2 h -2 z m -22,4 h 2 v 2 h -2 z m 22,0 h 2 v 2 h -2 z"
     style="fill:#000000;fill-opacity:1;stroke:none;stroke-width:4;stroke-miterlimit:4;stroke-dasharray:none;stroke-opacity:1;opacity:0.2"
     id="path2852" />
  <path
     d="M 19.5,17 C 18.669,17 18,17.669 18,18.5 v 27 c 0,0.831 0.669,1.5 1.5,1.5 h 25 c 0.831,0 1.5,-0.669 1.5,-1.5 v -27 C 46,17.669 45.331,17 44.5,17 Z m 0.5,2 h 2 v 2 h -2 z m 5,0 h 14 c 0.554002,0 1,0.446 1,1 v 10 c 0,0.554 -0.445998,1 -1,1 H 25 c -0.554,0 -1,-0.446 -1,-1 V 20 c 0,-0.554 0.446,-1 1,-1 z m 17,0 h 2 v 2 h -2 z m -22,4 h 2 v 2 h -2 z m 22,0 h 2 v 2 h -2 z m -22,4 h 2 v 2 h -2 z m 22,0 h 2 v 2 h -2 z m -22,4 h 2 v 2 h -2 z m 22,0 h 2 v 2 h -2 z m -17,2 h 14 c 0.554002,0 1,0.446 1,1 v 10 c 0,0.554 -0.445998,1 -1,1 H 25 c -0.554,0 -1,-0.446 -1,-1 V 34 c 0,-0.554 0.446,-1 1,-1 z m -5,2 h 2 v 2 h -2 z m 22,0 h 2 v 2 h -2 z m -22,4 h 2 v 2 h -2 z m 22,0 h 2 v 2 h -2 z m -22,4 h 2 v 2 h -2 z m 22,0 h 2 v 2 h -2 z"
     style="fill:#ffffff;fill-opacity:1;stroke:none;stroke-width:4;stroke-miterlimit:4;stroke-dasharray:none;stroke-opacity:1"
     id="path2650"
     sodipodi:nodetypes="ssssssssscccccssssssssscccccccccccccccccccccccccccccccccccssssssssscccccccccccccccccccccccccccccc" />
  <path
     id="rect6880"
     style="opacity:0.2;fill:#ffffff;stroke-width:2"
     d="M 10,8 C 7.7840022,8 6,9.7840022 6,12 v 1 C 6,10.784002 7.7840022,9 10,9 h 44.000001 c 2.215998,0 4,1.784002 4,4 v -1 c 0,-2.2159978 -1.784002,-4 -4,-4 z"
     sodipodi:nodetypes="sscsscsss" />
</svg>
