<?xml version="1.0" encoding="UTF-8" standalone="no"?>
<!-- Created with Inkscape (http://www.inkscape.org/) -->

<svg
   width="480"
   height="300"
   viewBox="0 0 480 300"
   version="1.1"
   id="svg5"
   inkscape:version="1.2.2 (1:1.2.2+202305151914+b0a8486541)"
   sodipodi:docname="applications-internet.svg"
   xmlns:inkscape="http://www.inkscape.org/namespaces/inkscape"
   xmlns:sodipodi="http://sodipodi.sourceforge.net/DTD/sodipodi-0.dtd"
   xmlns="http://www.w3.org/2000/svg"
   xmlns:svg="http://www.w3.org/2000/svg">
  <sodipodi:namedview
     id="namedview7"
     pagecolor="#888888"
     bordercolor="#000000"
     borderopacity="0.25"
     inkscape:showpageshadow="true"
     inkscape:pageopacity="0"
     inkscape:pagecheckerboard="0"
     inkscape:deskcolor="#888888"
     inkscape:document-units="px"
     showgrid="false"
     showborder="false"
     inkscape:zoom="2.6866667"
     inkscape:cx="240.07444"
     inkscape:cy="150"
     inkscape:window-width="1920"
     inkscape:window-height="1008"
     inkscape:window-x="0"
     inkscape:window-y="0"
     inkscape:window-maximized="1"
     inkscape:current-layer="svg5" />
  <defs
     id="defs2" />
  <g
     id="Baseplate"
     style="display:none">
    <text
       y="19.774782"
       xml:space="preserve"
       x="15.006946"
       style="font-style:normal;font-variant:normal;font-weight:normal;font-stretch:normal;line-height:0%;font-family:'DejaVu Sans';-inkscape-font-specification:'DejaVu Sans';display:inline;fill:#000000;fill-opacity:1;stroke:none;enable-background:new"
       inkscape:label="context"
       id="context"><tspan
         style="font-style:normal;font-variant:normal;font-weight:normal;font-stretch:normal;font-size:18px;line-height:1.25;font-family:'DejaVu Sans';-inkscape-font-specification:'DejaVu Sans'"
         y="19.774782"
         x="15.006946"
         sodipodi:role="line"
         id="tspan3933">categories</tspan></text>
    <text
       y="19.774782"
       xml:space="preserve"
       x="122.48839"
       style="font-style:normal;font-variant:normal;font-weight:bold;font-stretch:normal;line-height:0%;font-family:'DejaVu Sans';-inkscape-font-specification:'DejaVu Sans Bold';text-align:start;writing-mode:lr-tb;text-anchor:start;display:inline;fill:#000000;fill-opacity:1;stroke:none;enable-background:new"
       inkscape:label="icon-name"
       id="icon-name"><tspan
         style="font-style:normal;font-variant:normal;font-weight:bold;font-stretch:normal;font-size:18px;line-height:1.25;font-family:'DejaVu Sans';-inkscape-font-specification:'DejaVu Sans Bold'"
         y="19.774782"
         x="122.48839"
         sodipodi:role="line"
         id="tspan3937">applications-internet</tspan></text>
    <rect
       style="fill:#ffffff"
       id="256x256"
       width="256"
       height="256"
       x="16"
       y="28" />
    <rect
       style="fill:#ffffff"
       id="96x96"
       width="96"
       height="96"
       x="288"
       y="28" />
    <rect
       style="fill:#ffffff"
       id="64x64"
       width="64"
       height="64"
       x="288"
       y="140" />
    <rect
       style="fill:#ffffff"
       id="48x48"
       width="48"
       height="48"
       x="288"
       y="220" />
    <rect
       style="fill:#ffffff"
       id="32x32"
       width="32"
       height="32"
       x="416"
       y="52" />
    <rect
       style="fill:#ffffff"
       id="24x24"
       width="24"
       height="24"
       x="416"
       y="100" />
    <rect
       style="fill:#ffffff"
       id="22x22"
       width="22"
       height="22"
       x="417"
       y="101" />
    <rect
       style="fill:#ffffff"
       id="16x16"
       width="16"
       height="16"
       x="416"
       y="140" />
  </g>
  <g
     id="Shadow">
    <rect
       style="opacity:0.2;fill:#000000"
       id="rect651"
       width="224"
       height="224"
       x="32"
       y="46"
       ry="48" />
    <rect
       style="opacity:0.2;fill:#000000"
       id="rect769"
       width="84"
       height="85"
       x="294"
       y="34"
       ry="18" />
    <rect
       style="opacity:0.2;fill:#000000;fill-opacity:1"
       id="rect1131"
       width="56"
       height="56"
       x="292"
       y="145"
       ry="12" />
    <rect
       style="opacity:0.2;fill:#000000;fill-opacity:1"
       id="rect1261"
       width="42"
       height="42"
       x="291"
       y="224"
       ry="9" />
    <rect
       style="opacity:0.2;fill:#000000;fill-opacity:1"
       id="rect1364"
       width="28"
       height="29"
       x="418"
       y="54"
       ry="6" />
    <rect
       style="opacity:0.2;fill:#000000;fill-opacity:1"
       id="rect1398"
       width="16"
       height="16"
       x="416"
       y="141"
       ry="4" />
    <rect
       style="opacity:0.2;fill:#000000;fill-opacity:1"
       id="rect1432"
       width="20"
       height="20"
       x="418"
       y="103"
       ry="4" />
  </g>
  <g
     id="Background">
    <rect
       style="fill:#3a56d3;fill-opacity:1"
       id="rect597"
       width="224"
       height="224"
       x="32"
       y="44"
       ry="48" />
    <rect
       style="opacity:1;fill:#3a56d3;fill-opacity:1"
       id="rect771"
       width="84"
       height="84"
       x="294"
       y="34"
       ry="18" />
    <rect
       style="opacity:1;fill:#3a56d3;fill-opacity:1"
       id="rect1133"
       width="56"
       height="56"
       x="292"
       y="144"
       ry="12" />
    <rect
       style="opacity:1;fill:#3a56d3;fill-opacity:1"
       id="rect1263"
       width="42"
       height="42"
       x="291"
       y="223"
       ry="9" />
    <rect
       style="opacity:1;fill:#3a56d3;fill-opacity:1"
       id="rect1366"
       width="28"
       height="28"
       x="418"
       y="54"
       ry="6" />
    <rect
       style="opacity:1;fill:#3a56d3;fill-opacity:1"
       id="rect1400"
       width="16"
       height="16"
       x="416"
       y="140"
       ry="4" />
    <rect
       style="opacity:1;fill:#3a56d3;fill-opacity:1"
       id="rect1434"
       width="20"
       height="20"
       x="418"
       y="102"
       ry="4" />
  </g>
  <g
     id="Symbols">
    <g
       id="g1504"
       transform="translate(-17.067,5.4441681)">
      <circle
         style="fill:#ffffff"
         cx="441.06699"
         cy="142.55583"
         r="4"
         id="circle1325" />
      <path
         style="fill:#3ea0f4"
         d="m 444.20762,139.55583 c -1.21276,0 -2.68685,0.26117 -4.1582,0.73242 -1.47135,0.47125 -2.7787,1.10641 -3.68555,1.78711 -1.47134,1.10575 -1.38105,1.96227 -1.19531,2.375 0.18574,0.41273 0.79116,1.10547 2.75781,1.10547 0.15522,0 0.3153,-0.003 0.47852,-0.0117 -0.48084,-0.42868 -0.85619,-0.97316 -1.08594,-1.58789 -0.13241,-0.0447 -0.20401,-0.0933 -0.21875,-0.125 -0.0355,-0.0763 0.0925,-0.399 0.69532,-0.85156 0.67372,-0.50436 1.71295,-1.00655 2.84765,-1.36914 1.1347,-0.36532 2.3057,-0.57422 3.20508,-0.57422 0.8059,0 1.15008,0.1678 1.18555,0.24414 0.0168,0.0361 -0.006,0.12941 -0.0957,0.26367 0.0843,0.32326 0.1289,0.66206 0.1289,1.01172 0,0.35513 -0.046,0.69953 -0.13281,1.02734 0.30462,-0.17764 0.58684,-0.3599 0.83593,-0.54687 1.47135,-1.10575 1.38106,-1.96227 1.19532,-2.375 -0.1821,-0.41273 -0.78752,-1.10547 -2.75782,-1.10547 z"
         id="path1327" />
    </g>
    <g
       id="g1321"
       transform="translate(6.6311378,-1.9749374)">
      <circle
         style="fill:#ffffff"
         cx="421.36887"
         cy="113.97494"
         r="5"
         id="circle1882" />
      <path
         style="opacity:0.1;fill:#000000"
         d="m 424.69016,111.89974 c -1.0744,0 -2.47262,0.28641 -3.82813,0.78516 -1.35551,0.49503 -2.59555,1.18056 -3.40039,1.86914 -0.72011,0.61786 -0.87341,1.05692 -0.83105,1.16113 0.009,0.0217 0.0375,0.0496 0.0801,0.0791 0.009,0.0236 0.0207,0.046 0.0303,0.0694 0.11802,-0.20408 0.33708,-0.48043 0.7207,-0.80958 0.80484,-0.68858 2.04488,-1.3741 3.4004,-1.86914 1.35551,-0.49875 2.75372,-0.78515 3.82812,-0.78515 0.64812,0 1.04195,0.10493 1.24609,0.20508 l 10e-4,-0.004 0.0273,0.0176 c 0.0378,0.0202 0.0685,0.0401 0.0908,0.0586 l 0.16993,0.10937 c -0.0357,-0.14604 -0.0769,-0.28996 -0.125,-0.43066 0.0142,-0.0551 0.0163,-0.0978 0.007,-0.1211 -0.0424,-0.10421 -0.45427,-0.33496 -1.417,-0.33496 z m 3.66015,0.43946 c -0.0766,0.59413 -0.44163,1.37239 -1.49414,2.27636 -0.1601,0.13735 -0.33603,0.27244 -0.51757,0.40625 -0.0215,0.19436 -0.0539,0.3852 -0.0967,0.57227 0.21708,-0.1572 0.42539,-0.3165 0.61425,-0.47852 1.38071,-1.18586 1.58097,-2.15563 1.49414,-2.77636 z m -13.96289,3.77148 c -0.0483,0.37487 0.0168,0.67676 0.10059,0.88965 0.2167,0.55031 0.92139,1.47461 3.21582,1.47461 0.20478,0 0.41712,-0.01 0.63379,-0.0244 -0.19096,-0.14582 -0.37017,-0.30632 -0.53809,-0.47754 -0.0317,4.5e-4 -0.0643,0.002 -0.0957,0.002 -2.29443,0 -2.99912,-0.9243 -3.21582,-1.47461 -0.0424,-0.10767 -0.0795,-0.23865 -0.10059,-0.38965 z"
         id="path1884"
         sodipodi:nodetypes="scccccccscccccccsssccccssccsccsssc" />
      <path
         style="fill:#3ea0f4"
         d="m 425.03391,109.97494 c -1.4149,0 -3.13597,0.3492 -4.85254,0.97754 -1.71657,0.62834 -3.24182,1.47424 -4.2998,2.38183 -1.71658,1.47434 -1.61025,2.61571 -1.39356,3.16602 0.2167,0.55031 0.92139,1.47461 3.21582,1.47461 0.20478,0 0.41712,-0.01 0.63379,-0.0244 -0.72281,-0.55194 -1.29064,-1.29571 -1.62695,-2.15626 -0.0426,-0.0295 -0.0713,-0.0574 -0.0801,-0.0791 -0.0424,-0.10421 0.11094,-0.54327 0.83105,-1.16113 0.80484,-0.68858 2.04488,-1.37411 3.40039,-1.86914 1.35551,-0.49875 2.75373,-0.78516 3.82813,-0.78516 0.96272,0 1.37463,0.23075 1.41699,0.33496 0.01,0.0233 0.007,0.066 -0.007,0.1211 0.1737,0.50784 0.26852,1.05242 0.26852,1.61914 0,0.38483 -0.0446,0.75926 -0.12695,1.11914 0.21708,-0.1572 0.42539,-0.3165 0.61425,-0.47852 1.71658,-1.47433 1.61026,-2.6157 1.39356,-3.16601 -0.21245,-0.55031 -0.91714,-1.47461 -3.21582,-1.47461 z"
         id="path1886"
         sodipodi:nodetypes="cscsscccccsccsccccc" />
      <path
         style="opacity:0.2;fill:#000000"
         d="m 426.35715,114.14584 c -0.092,2.68992 -2.29679,4.82436 -4.98828,4.8291 -2.07921,-0.005 -3.87104,-1.28125 -4.6178,-3.10729 l -0.11644,-0.2699 c -0.0594,0.37525 0.0549,0.68129 0.19676,0.98036 0.0488,0.10515 0.10119,0.20832 0.15695,0.30935 0.85139,1.54261 2.49394,2.58748 4.38053,2.58748 2.76142,0 5,-2.23858 5,-5 -2.9e-4,-0.1098 -0.004,-0.21956 -0.0117,-0.3291 z"
         id="path1888" />
    </g>
    <g
       id="g1006"
       transform="translate(17.732023,-84.477673)">
      <path
         d="m 421.24063,152.86829 c -0.20691,3.70212 -3.26478,6.60067 -6.97266,6.60938 -2.85154,-0.007 -5.32321,-1.72446 -6.40346,-4.20821 l -0.28238,-0.31642 c 0.004,0.78288 0.35055,1.48435 0.66377,2.09534 1.22008,2.05325 3.46038,3.42929 6.02207,3.42929 3.86599,0 7,-3.13401 7,-7 -2.6e-4,-0.20343 -0.009,-0.40674 -0.0273,-0.60938 z"
         style="opacity:0.2;fill:#000000"
         id="path1194" />
      <circle
         style="fill:#ffffff;stroke-linecap:square"
         id="path1294"
         cx="414.26797"
         cy="152.47768"
         r="7" />
      <path
         d="m 418.93594,149.41517 c -1.5103,0 -3.4754,0.42204 -5.38086,1.1582 -1.90547,0.73068 -3.64792,1.74342 -4.7793,2.75977 -1.01228,0.91196 -1.22751,1.55907 -1.16797,1.71289 0.0186,0.0481 0.0948,0.11517 0.22266,0.18359 0.0154,0.036 0.0348,0.0698 0.0508,0.10547 0.18225,-0.27505 0.46224,-0.6125 0.89453,-1.00195 1.13138,-1.01635 2.87383,-2.0291 4.7793,-2.75977 1.90546,-0.73616 3.87056,-1.1582 5.38086,-1.1582 0.44665,0 0.80636,0.0373 1.09139,0.0926 0.41382,0.0531 0.6825,0.2339 1.06486,0.41126 -0.0565,-0.24783 -0.12515,-0.4915 -0.20703,-0.72851 0.0488,-0.13419 0.0613,-0.2339 0.043,-0.28125 -0.0596,-0.15382 -0.63887,-0.49414 -1.99219,-0.49414 z m 5.28711,0.74219 c -0.14384,0.87348 -0.68511,1.99152 -2.11524,3.28125 -0.26859,0.24193 -0.56523,0.48039 -0.875,0.71484 -0.0384,0.3964 -0.10764,0.7839 -0.20898,1.1582 0.38865,-0.2854 0.75465,-0.57639 1.08398,-0.87304 2.05669,-1.85477 2.27895,-3.35728 2.11524,-4.28125 z m -19.91016,5.64062 c -0.1028,0.62428 -0.004,1.12469 0.125,1.46875 0.30957,0.82547 1.316,2.21094 4.59375,2.21094 0.47379,0 0.97398,-0.0297 1.49024,-0.0859 -0.41872,-0.26583 -0.80608,-0.5777 -1.15821,-0.92383 -0.11058,0.003 -0.22406,0.01 -0.33203,0.01 -3.27775,0 -4.28418,-1.38547 -4.59375,-2.21093 -0.0499,-0.13315 -0.0935,-0.29105 -0.125,-0.46875 z"
         style="opacity:0.1;fill:#000000"
         id="path1166" />
      <path
         d="m 419.5043,146.47767 c -2.02129,0 -4.48135,0.52429 -6.9336,1.4668 -2.45224,0.9425 -4.63116,2.21086 -6.14257,3.57226 -2.45225,2.2115 -2.2998,3.92454 -1.99024,4.75 0.30957,0.82546 1.316,2.21094 4.59375,2.21094 0.47379,0 0.97398,-0.0297 1.49024,-0.0859 -1.1874,-0.75386 -2.13233,-1.85603 -2.69141,-3.16211 -0.12789,-0.0684 -0.20405,-0.13552 -0.22266,-0.18359 -0.0596,-0.15382 0.15569,-0.80093 1.16797,-1.71289 1.13138,-1.01635 2.87383,-2.0291 4.7793,-2.75977 1.90546,-0.73616 3.87056,-1.1582 5.38086,-1.1582 1.35332,0 1.93263,0.34031 1.99219,0.49414 0.0183,0.0474 0.006,0.14707 -0.043,0.28125 0.24756,0.7166 0.38281,1.48635 0.38281,2.28711 0,0.63459 -0.0859,1.24946 -0.24414,1.83398 0.38865,-0.2854 0.75465,-0.57639 1.08398,-0.87304 2.45225,-2.2115 2.29981,-3.92454 1.99024,-4.75 -0.3035,-0.82546 -1.30993,-2.21094 -4.59375,-2.21094 z"
         style="fill:#3ea0f4"
         id="path1222" />
    </g>
    <g
       id="g650"
       transform="translate(288,220)">
      <circle
         style="opacity:0.2;fill:#000000;fill-opacity:1;stroke-width:2.00007;stroke-linecap:square"
         id="path2058"
         cx="24.000204"
         cy="25.000034"
         r="10.000353" />
      <circle
         style="opacity:1;fill:#ffffff;fill-opacity:1;stroke-width:2.00007;stroke-linecap:square"
         id="path2060"
         cx="24.000204"
         cy="23.999996"
         r="10.000353" />
      <path
         d="m 30.643033,19.849458 c -2.14888,0 -4.94542,0.57284 -7.65653,1.57037 -2.71112,0.9901 -5.19128,2.3612 -6.80102,3.73841 -1.44027,1.23577 -1.74688,2.113918 -1.66216,2.322345 0.018,0.0434 0.075,0.0992 0.16021,0.158206 0.018,0.0472 0.0414,0.092 0.0606,0.138805 0.23605,-0.408175 0.67418,-0.960896 1.44145,-1.619216 1.60974,-1.37721 4.0899,-2.7483 6.80104,-3.73841 2.71111,-0.99754 5.50763,-1.57036 7.65651,-1.57036 1.29628,0 2.08397,0.20987 2.49227,0.41018 l 0.002,-0.008 0.0546,0.0352 c 0.0756,0.0404 0.137,0.0802 0.1816,0.1172 l 0.33988,0.21875 c -0.0714,-0.29209 -0.15381,-0.57994 -0.25001,-0.86135 0.0284,-0.11021 0.0326,-0.19561 0.014,-0.24221 -0.0848,-0.20843 -0.90857,-0.66994 -2.8341,-0.66994 z m 7.32056,0.87895 c -0.15321,1.1883 -0.88329,2.74487 -2.98839,4.55288 -0.32021,0.27471 -0.67208,0.5449 -1.03518,0.81253 -0.043,0.38873 -0.1078,0.77042 -0.1934,1.144577 0.43417,-0.314407 0.85081,-0.633027 1.22854,-0.957077 2.76152,-2.3718 3.16205,-4.31141 2.98839,-5.55291 z m -27.92677,7.543223 c -0.0966,0.749767 0.0336,1.353568 0.20119,1.779363 0.43341,1.100659 1.84284,2.949324 6.43187,2.949324 0.40957,0 0.83427,-0.02 1.26762,-0.0488 -0.38193,-0.29165 -0.74037,-0.612662 -1.07622,-0.955114 -0.0634,9e-4 -0.1286,0.004 -0.1914,0.004 -4.58903,0 -5.99846,-1.848666 -6.43187,-2.949324 -0.0848,-0.215348 -0.15901,-0.477317 -0.20119,-0.779328 z"
         style="opacity:0.1;fill:#000000;stroke-width:2.00007"
         id="path2150" />
      <path
         d="m 31.330553,15.999718 c -2.8299,0 -6.27216,0.69843 -9.70542,1.95515 -3.43326,1.25672 -6.48387,2.94858 -8.5999,4.76383 -3.4332802,2.94878 -3.2206202,5.231602 -2.78722,6.332261 0.43341,1.100658 1.84284,2.949324 6.43187,2.949324 0.40957,0 0.83427,-0.02 1.26762,-0.0488 -1.44567,-1.103919 -2.58137,-2.591512 -3.25401,-4.312672 -0.0852,-0.059 -0.14261,-0.114804 -0.16021,-0.158206 -0.0848,-0.208427 0.22189,-1.086577 1.66216,-2.322347 1.60974,-1.37721 4.0899,-2.74831 6.80102,-3.73841 2.71111,-0.99753 5.50765,-1.57037 7.65653,-1.57037 1.92551,0 2.74936,0.46151 2.83408,0.66994 0.02,0.0466 0.014,0.132 -0.014,0.24221 0.34741,1.01571 0.53706,2.10491 0.53706,3.23839 0,0.76969 -0.0892,1.51858 -0.25391,2.23836 0.43417,-0.31441 0.85081,-0.63302 1.22854,-0.95707 3.43328,-2.94877 3.22063,-5.23159 2.78722,-6.33225 -0.42492,-1.10065 -1.83435,-2.94932 -6.43187,-2.94932 z"
         style="fill:#3ea0f4;stroke-width:2.00007"
         id="path2122"
         sodipodi:nodetypes="cscsscccccsccsccccc" />
    </g>
    <g
       id="g1427"
       transform="translate(-2.7047119,-0.57692)">
      <circle
         style="fill:#ffffff"
         cx="322.70471"
         cy="172.57692"
         r="14"
         id="circle295" />
      <path
         style="opacity:0.1;fill:#000000"
         d="m 332.04065,166.45192 c -3.0206,0 -6.95079,0.84409 -10.76172,2.31641 -3.81095,1.46134 -7.29585,3.48683 -9.5586,5.51953 -1.22526,1.10384 -1.86132,2.00851 -2.15039,2.62304 l -0.10901,0.26367 c 0,0 0.1602,0.38959 0.19216,0.4609 0.0623,-0.0941 0.4086,-0.53555 0.48293,-0.63684 0.36023,-0.4909 0.86762,-1.0651 1.58431,-1.71077 2.26276,-2.03269 5.74765,-4.05819 9.5586,-5.51953 3.81093,-1.47232 7.74112,-2.31641 10.76172,-2.31641 0.8933,0 1.61354,0.0748 2.18359,0.18555 0.69887,0.0897 1.20811,0.37004 1.80469,0.66601 -0.0319,-0.0995 -0.0558,-0.20228 -0.0898,-0.30078 0.0975,-0.26837 0.1226,-0.4678 0.0859,-0.5625 -0.11911,-0.30765 -1.27775,-0.98828 -3.98438,-0.98828 z m 10.63672,1.00781 c -0.16075,1.80768 -1.16662,4.21964 -4.29297,7.03906 -0.58125,0.52356 -1.22616,1.03694 -1.90235,1.54297 -0.0714,0.40713 -0.15901,0.80936 -0.26562,1.20313 0.7773,-0.57081 1.50929,-1.1528 2.16797,-1.7461 3.74725,-3.37937 4.44515,-6.17122 4.29297,-8.03906 z m -39.94532,11.28906 c -0.081,1.00253 0.0922,1.81893 0.3125,2.40625 0.61913,1.65093 2.63199,4.42188 9.1875,4.42188 0.94759,0 1.94796,-0.0594 2.98047,-0.17188 -0.43241,-0.27453 -0.84819,-0.57414 -1.24609,-0.89453 -0.59212,0.0401 -1.17482,0.0664 -1.73438,0.0664 -6.55551,0 -8.56837,-2.77095 -9.1875,-4.42188 -0.1416,-0.37757 -0.26233,-0.85227 -0.3125,-1.40625 z"
         id="path297" />
      <path
         style="fill:#3ea0f4"
         d="m 333.17737,160.57692 c -4.04257,0 -8.9627,1.04858 -13.86719,2.93359 -4.9045,1.88501 -9.26234,4.42174 -12.28516,7.14453 -4.90449,4.423 -4.5996,7.84908 -3.98047,9.5 0.61913,1.65093 2.63199,4.42188 9.1875,4.42188 0.94759,0 1.94796,-0.0594 2.98047,-0.17188 -2.3748,-1.50772 -4.26466,-3.71205 -5.38281,-6.32421 -0.25577,-0.13684 -0.4081,-0.27105 -0.44531,-0.36719 -0.11909,-0.30765 0.31137,-1.60185 2.33593,-3.42578 2.26275,-2.03269 5.74765,-4.05819 9.5586,-5.51953 3.81093,-1.47232 7.74112,-2.31641 10.76172,-2.31641 2.70664,0 3.86527,0.68063 3.98437,0.98828 0.0367,0.0947 0.0116,0.29413 -0.0859,0.5625 0.49514,1.43321 0.76563,2.9727 0.76563,4.57422 0,1.26919 -0.17176,2.49892 -0.48828,3.66797 0.7773,-0.57081 1.50929,-1.1528 2.16797,-1.74609 4.90449,-4.423 4.5996,-7.84908 3.98047,-9.5 -0.60699,-1.65093 -2.61985,-4.42188 -9.1875,-4.42188 z"
         id="path299"
         sodipodi:nodetypes="sscssccsccsscscccss" />
      <path
         style="opacity:0.2;fill:#000000"
         d="m 336.68323,172.86403 c -0.15612,7.61129 -6.36564,13.70281 -13.97852,13.71289 -5.80321,-0.006 -10.96366,-3.58526 -13.03732,-8.93427 -0.11739,-0.3028 -0.1093,-0.15426 -0.20646,-0.46808 -0.10946,0.58121 0.11908,1.09451 0.39232,1.80324 0.23705,0.61484 0.52746,1.19535 0.80654,1.73973 2.44015,4.1065 6.92153,6.85938 12.04492,6.85938 7.73199,0 14,-6.26801 14,-14 -3e-4,-0.238 -0.009,-0.47527 -0.0215,-0.71289 z"
         id="path301" />
    </g>
    <g
       id="g1071">
      <ellipse
         style="opacity:0.2;fill:#000000;fill-opacity:1;stroke-width:2;stroke-linecap:square"
         id="path2174"
         cx="336"
         cy="77.00071"
         rx="20.000708"
         ry="20.000002" />
      <ellipse
         style="opacity:1;fill:#ffffff;fill-opacity:1;stroke-width:2;stroke-linecap:square"
         id="path2176"
         cx="336"
         cy="76.00071"
         rx="20.000698"
         ry="20.000711" />
      <path
         id="path941"
         style="opacity:0.2;fill:#000000;stroke-width:4.00014"
         d="m 349.28474,67.69993 c -4.29776,0 -9.89029,1.14557 -15.3125,3.14063 -5.42224,1.9802 -10.38209,4.72215 -13.60157,7.47656 -2.88053,2.47154 -3.49381,4.22769 -3.32421,4.64453 0.0209,0.0515 0.0766,0.114641 0.14843,0.179691 0.33441,-0.824431 1.23033,-2.154991 3.17578,-3.824221 3.21948,-2.75441 8.17933,-5.49636 13.60157,-7.47656 5.42221,-1.99506 11.01474,-3.14063 15.3125,-3.14063 3.85101,0 5.49853,0.92299 5.66797,1.33985 0.04,0.0932 0.0287,0.26395 -0.0274,0.48437 0.6337,1.85273 1.00209,3.82989 1.0625,5.88282 0.003,-0.13548 0.0117,-0.27011 0.0117,-0.40625 0,-2.26696 -0.3794,-4.44515 -1.07422,-6.47657 0.056,-0.22042 0.0674,-0.39117 0.0274,-0.48437 -0.16944,-0.41686 -1.81696,-1.33985 -5.66797,-1.33985 z m 14.69531,1.23047 c -0.1495,2.43497 -1.50091,5.74181 -6.03125,9.63282 -0.68695,0.58932 -1.44307,1.16898 -2.22656,1.74218 -0.0661,0.39457 -0.14203,0.78538 -0.23047,1.17188 0.86834,-0.62882 1.70157,-1.26596 2.45703,-1.91406 5.18347,-4.45198 6.21152,-8.14294 6.03125,-10.63282 z m -55.96094,15.140631 c -0.0771,1.25567 0.16212,2.28229 0.45703,3.03125 0.86682,2.20132 3.68523,5.89844 12.86328,5.89844 0.81914,0 1.66846,-0.0401 2.53516,-0.0977 -0.39006,-0.29785 -0.76607,-0.61246 -1.13281,-0.9375 -0.47478,0.0211 -0.94423,0.0352 -1.40235,0.0352 -9.17805,0 -11.99646,-3.69712 -12.86328,-5.89844 -0.21246,-0.53957 -0.3985,-1.22279 -0.45703,-2.03125 z" />
      <path
         d="m 350.66069,60.00015 c -5.6598,0 -12.54432,1.39686 -19.41084,3.9103 -6.86652,2.51344 -12.96774,5.89716 -17.1998,9.52766 -6.86657,5.89756 -6.44125,10.463201 -5.57444,12.664521 0.86682,2.20132 3.68568,5.89864 12.86374,5.89864 0.81914,0 1.66854,-0.04 2.53524,-0.0976 -2.89134,-2.20784 -5.16274,-5.18302 -6.50802,-8.62534 -0.1704,-0.118 -0.28522,-0.2296 -0.32042,-0.316421 -0.1696,-0.41684 0.44378,-2.17314 3.32432,-4.64468 3.21948,-2.75442 8.1798,-5.49662 13.60204,-7.47682 5.42222,-1.99506 11.0153,-3.14074 15.31306,-3.14074 3.85102,0 5.49872,0.92302 5.66816,1.33988 0.04,0.0932 0.028,0.264 -0.028,0.48442 0.69482,2.03142 1.07412,4.20982 1.07412,6.47678 0,1.53938 -0.1784,3.03716 -0.50782,4.47672 0.86834,-0.62882 1.70162,-1.26604 2.45708,-1.91414 6.86656,-5.89754 6.44126,-10.46318 5.57444,-12.6645 -0.84984,-2.2013 -3.6687,-5.89864 -12.86374,-5.89864 z"
         style="fill:#3ea0f4;stroke-width:4.00014"
         id="path969" />
    </g>
    <g
       id="g786"
       transform="matrix(4,0,0,4,-432,-468)">
      <circle
         style="opacity:0.2;fill:#000000;stroke-linecap:square"
         id="path703"
         cx="144"
         cy="156.5"
         r="14" />
      <circle
         style="opacity:1;fill:#f9f9f9;stroke-linecap:square"
         id="path705"
         cx="144"
         cy="156"
         r="14" />
      <path
         id="path715"
         style="opacity:0.2;fill:#000000"
         d="m 153.33636,149.875 c -3.0206,0 -6.9508,0.84409 -10.76172,2.31641 -3.81095,1.46133 -7.29585,3.48684 -9.5586,5.51953 -2.02455,1.82393 -2.45502,3.11813 -2.33593,3.42578 0.008,0.0197 0.0219,0.0419 0.0391,0.0644 0.17589,-0.58458 0.79931,-1.64108 2.29687,-2.99023 2.26275,-2.03269 5.74765,-4.0582 9.5586,-5.51953 3.81092,-1.47232 7.74112,-2.31641 10.76172,-2.31641 2.52435,0 3.68977,0.58864 3.93359,0.91797 0.0567,-0.19447 0.0804,-0.35315 0.0508,-0.42969 -0.1191,-0.30765 -1.27774,-0.98828 -3.98437,-0.98828 z m 10.65625,0.72852 c -0.0787,1.83504 -1.0213,4.35026 -4.3125,7.31836 -0.61707,0.55581 -1.30266,1.10064 -2.02539,1.63671 -0.0456,0.20382 -0.0883,0.40902 -0.14258,0.60938 0.7773,-0.57081 1.50929,-1.15281 2.16797,-1.74609 3.60079,-3.2473 4.39046,-5.95379 4.3125,-7.81836 z m -6.6875,1.06054 c -0.0167,0.0799 -0.0334,0.1602 -0.0703,0.26172 0.46257,1.33895 0.72671,2.77138 0.75976,4.25977 8.3e-4,-0.0622 0.006,-0.12314 0.006,-0.18555 0,-1.51441 -0.25034,-2.96987 -0.69531,-4.33594 z m -33.29688,10.23242 c -0.0386,0.89951 0.12838,1.63859 0.33203,2.18164 0.61913,1.65093 2.632,4.42188 9.1875,4.42188 0.94759,0 1.94796,-0.0594 2.98047,-0.17188 -0.22126,-0.14047 -0.43387,-0.29297 -0.64648,-0.44531 -0.80167,0.0706 -1.58771,0.11719 -2.33399,0.11719 -6.5555,0 -8.56837,-2.77095 -9.1875,-4.42188 -0.16457,-0.43884 -0.3038,-1.00655 -0.33203,-1.68164 z" />
      <path
         d="m 154.47241,144 c -4.04248,0 -8.96251,1.04858 -13.86689,2.93359 -4.9044,1.88501 -9.26215,4.42174 -12.2849,7.14453 -4.90439,4.423 -4.5995,7.84908 -3.98039,9.5 0.61912,1.65093 2.63194,4.42188 9.18731,4.42188 0.94757,0 1.94792,-0.0594 2.9804,-0.17188 -2.37475,-1.50772 -4.26457,-3.71205 -5.38269,-6.32421 -0.25577,-0.13684 -0.40809,-0.27105 -0.4453,-0.36719 -0.11909,-0.30765 0.31136,-1.60185 2.33588,-3.42578 2.2627,-2.03269 5.74753,-4.05819 9.55839,-5.51953 3.81085,-1.47232 7.74096,-2.31641 10.7615,-2.31641 2.70658,0 3.86518,0.68063 3.98428,0.98828 0.0367,0.0947 0.0116,0.29413 -0.0859,0.5625 0.49513,1.43321 0.76562,2.9727 0.76562,4.57422 0,1.26919 -0.17176,2.49892 -0.48827,3.66797 0.77728,-0.57081 1.50926,-1.1528 2.16792,-1.74609 4.90439,-4.423 4.5995,-7.84908 3.98039,-9.5 C 163.05278,146.77095 161.03996,144 154.47245,144 Z"
         style="fill:#3ea0f4;stroke-width:0.999989"
         id="path631"
         sodipodi:nodetypes="sscssccsccsscscccss" />
    </g>
  </g>
  <g
     id="Highlights">
    <path
       id="rect653"
       style="opacity:0.2;fill:#ffffff"
       d="M 80,44 C 53.408027,44 32,65.408027 32,92 v 2 C 32,67.408027 53.408027,46 80,46 h 128 c 26.59197,0 48,21.408027 48,48 V 92 C 256,65.408027 234.59197,44 208,44 Z"
       sodipodi:nodetypes="sscsscsss" />
    <path
       id="rect773"
       style="opacity:0.2;fill:#ffffff"
       d="m 312,34 c -9.97199,0 -18,8.02801 -18,18 v 1 c 0,-9.97199 8.02801,-18 18,-18 h 48 c 9.97199,0 18,8.02801 18,18 v -1 c 0,-9.97199 -8.02801,-18 -18,-18 z" />
    <path
       id="rect1135"
       style="opacity:0.2;fill:#ffffff;fill-opacity:1"
       d="m 304,144 c -6.64799,0 -12,5.35201 -12,12 v 1 c 0,-6.64799 5.35201,-12 12,-12 h 32 c 6.64799,0 12,5.35201 12,12 v -1 c 0,-6.64799 -5.35201,-12 -12,-12 z" />
    <path
       id="rect1265"
       style="opacity:0.2;fill:#ffffff;fill-opacity:1"
       d="m 300,223 c -4.986,0 -9,4.014 -9,9 v 1 c 0,-4.986 4.014,-9 9,-9 h 24 c 4.986,0 9,4.014 9,9 v -1 c 0,-4.986 -4.014,-9 -9,-9 z" />
    <path
       id="rect1368"
       style="opacity:0.2;fill:#ffffff;fill-opacity:1"
       d="m 424,54 c -3.324,0 -6,2.676003 -6,6 v 1 c 0,-3.323997 2.676,-6 6,-6 h 16 c 3.324,0 6,2.676003 6,6 v -1 c 0,-3.323997 -2.676,-6 -6,-6 z" />
    <path
       id="rect1402"
       style="opacity:0.2;fill:#ffffff;fill-opacity:1"
       d="m 420,140 c -2.216,0 -4,1.784 -4,4 v 1 c 0,-2.216 1.784,-4 4,-4 h 8 c 2.216,0 4,1.784 4,4 v -1 c 0,-2.216 -1.784,-4 -4,-4 z" />
    <path
       id="rect1436"
       style="opacity:0.2;fill:#ffffff;fill-opacity:1"
       d="m 422,102 c -2.216,0 -4,1.784 -4,4 v 1 c 0,-2.216 1.784,-4 4,-4 h 12 c 2.216,0 4,1.784 4,4 v -1 c 0,-2.216 -1.784,-4 -4,-4 z" />
  </g>
</svg>
