<?xml version="1.0" encoding="UTF-8" standalone="no"?>
<!-- Created with Inkscape (http://www.inkscape.org/) -->

<svg
   width="480"
   height="300"
   viewBox="0 0 480 300"
   version="1.1"
   id="svg5"
   inkscape:version="1.2.2 (1:1.2.2+202305151914+b0a8486541)"
   sodipodi:docname="applications-mathematics.svg"
   xmlns:inkscape="http://www.inkscape.org/namespaces/inkscape"
   xmlns:sodipodi="http://sodipodi.sourceforge.net/DTD/sodipodi-0.dtd"
   xmlns="http://www.w3.org/2000/svg"
   xmlns:svg="http://www.w3.org/2000/svg">
  <sodipodi:namedview
     id="namedview7"
     pagecolor="#888888"
     bordercolor="#000000"
     borderopacity="0.25"
     inkscape:showpageshadow="true"
     inkscape:pageopacity="0"
     inkscape:pagecheckerboard="0"
     inkscape:deskcolor="#888888"
     inkscape:document-units="px"
     showgrid="false"
     showborder="false"
     inkscape:zoom="2.6854167"
     inkscape:cx="184.70132"
     inkscape:cy="150.06982"
     inkscape:window-width="1920"
     inkscape:window-height="1008"
     inkscape:window-x="0"
     inkscape:window-y="0"
     inkscape:window-maximized="1"
     inkscape:current-layer="svg5" />
  <defs
     id="defs2" />
  <g
     id="Baseplate"
     style="display:none">
    <text
       y="19.774782"
       xml:space="preserve"
       x="15.006946"
       style="font-style:normal;font-variant:normal;font-weight:normal;font-stretch:normal;line-height:0%;font-family:'DejaVu Sans';-inkscape-font-specification:'DejaVu Sans';display:inline;fill:#000000;fill-opacity:1;stroke:none;enable-background:new"
       inkscape:label="context"
       id="context"><tspan
         style="font-style:normal;font-variant:normal;font-weight:normal;font-stretch:normal;font-size:18px;line-height:1.25;font-family:'DejaVu Sans';-inkscape-font-specification:'DejaVu Sans'"
         y="19.774782"
         x="15.006946"
         sodipodi:role="line"
         id="tspan3933">categories</tspan></text>
    <text
       y="19.774782"
       xml:space="preserve"
       x="122.48839"
       style="font-style:normal;font-variant:normal;font-weight:bold;font-stretch:normal;line-height:0%;font-family:'DejaVu Sans';-inkscape-font-specification:'DejaVu Sans Bold';text-align:start;writing-mode:lr-tb;text-anchor:start;display:inline;fill:#000000;fill-opacity:1;stroke:none;enable-background:new"
       inkscape:label="icon-name"
       id="icon-name"><tspan
         style="font-style:normal;font-variant:normal;font-weight:bold;font-stretch:normal;font-size:18px;line-height:1.25;font-family:'DejaVu Sans';-inkscape-font-specification:'DejaVu Sans Bold'"
         y="19.774782"
         x="122.48839"
         sodipodi:role="line"
         id="tspan3937">applications-mathematics</tspan></text>
    <rect
       style="fill:#ffffff"
       id="256x256"
       width="256"
       height="256"
       x="16"
       y="28" />
    <rect
       style="fill:#ffffff"
       id="96x96"
       width="96"
       height="96"
       x="288"
       y="28" />
    <rect
       style="fill:#ffffff"
       id="64x64"
       width="64"
       height="64"
       x="288"
       y="140" />
    <rect
       style="fill:#ffffff"
       id="48x48"
       width="48"
       height="48"
       x="288"
       y="220" />
    <rect
       style="fill:#ffffff"
       id="32x32"
       width="32"
       height="32"
       x="416"
       y="52" />
    <rect
       style="fill:#ffffff"
       id="24x24"
       width="24"
       height="24"
       x="416"
       y="100" />
    <rect
       style="fill:#ffffff"
       id="22x22"
       width="22"
       height="22"
       x="417"
       y="101" />
    <rect
       style="fill:#ffffff"
       id="16x16"
       width="16"
       height="16"
       x="416"
       y="140" />
  </g>
  <g
     id="Shadow">
    <rect
       style="opacity:0.2;fill:#000000"
       id="rect651"
       width="224"
       height="224"
       x="32"
       y="46"
       ry="48" />
    <rect
       style="opacity:0.2;fill:#000000"
       id="rect769"
       width="84"
       height="85"
       x="294"
       y="34"
       ry="18" />
    <rect
       style="opacity:0.2;fill:#000000;fill-opacity:1"
       id="rect1131"
       width="56"
       height="56"
       x="292"
       y="145"
       ry="12" />
    <rect
       style="opacity:0.2;fill:#000000;fill-opacity:1"
       id="rect1261"
       width="42"
       height="42"
       x="291"
       y="224"
       ry="9" />
    <rect
       style="opacity:0.2;fill:#000000;fill-opacity:1"
       id="rect1364"
       width="28"
       height="29"
       x="418"
       y="54"
       ry="6" />
    <rect
       style="opacity:0.2;fill:#000000;fill-opacity:1"
       id="rect1398"
       width="16"
       height="16"
       x="416"
       y="141"
       ry="4" />
    <rect
       style="opacity:0.2;fill:#000000;fill-opacity:1"
       id="rect1432"
       width="20"
       height="20"
       x="418"
       y="103"
       ry="4" />
  </g>
  <g
     id="Background">
    <rect
       style="fill:#595959;fill-opacity:1"
       id="rect597"
       width="224"
       height="224"
       x="32"
       y="44"
       ry="48" />
    <rect
       style="opacity:1;fill:#595959;fill-opacity:1"
       id="rect771"
       width="84"
       height="84"
       x="294"
       y="34"
       ry="18" />
    <rect
       style="opacity:1;fill:#595959;fill-opacity:1"
       id="rect1133"
       width="56"
       height="56"
       x="292"
       y="144"
       ry="12" />
    <rect
       style="opacity:1;fill:#595959;fill-opacity:1"
       id="rect1263"
       width="42"
       height="42"
       x="291"
       y="223"
       ry="9" />
    <rect
       style="opacity:1;fill:#595959;fill-opacity:1"
       id="rect1366"
       width="28"
       height="28"
       x="418"
       y="54"
       ry="6" />
    <rect
       style="opacity:1;fill:#595959;fill-opacity:1"
       id="rect1400"
       width="16"
       height="16"
       x="416"
       y="140"
       ry="4" />
    <rect
       style="opacity:1;fill:#595959;fill-opacity:1"
       id="rect1434"
       width="20"
       height="20"
       x="418"
       y="102"
       ry="4" />
  </g>
  <g
     id="Symbols">
    <g
       id="g2250">
      <path
         id="rect1240"
         style="fill:#22b37e;fill-opacity:1"
         d="m 423,148 v 8 h 5 c 2.216,0 4,-1.784 4,-4 v -4 z"
         sodipodi:nodetypes="ccsscc" />
      <path
         id="rect1662"
         style="fill:#8c8c8f;fill-opacity:1"
         d="m 416,147 v 5 c 0,2.216 1.784,4 4,4 h 4 v -9 z"
         sodipodi:nodetypes="cssccc" />
      <path
         id="rect1721"
         style="fill:#a6a6a6;fill-opacity:1"
         d="m 420,140 c -2.216,0 -4,1.784 -4,4 v 4 h 8 v -8 z" />
      <path
         d="m 419.99952,142 v 2 h -2 v 1 h 2 v 2 h 1 v -2 h 2 v -1 h -2 v -2 z m 6,2 v 1 h 4 v -1 z m -7.64648,5.64648 -0.70704,0.70704 1.64649,1.64648 -1.64649,1.64648 0.70704,0.70704 1.64648,-1.64649 1.64648,1.64649 0.70704,-0.70704 -1.64649,-1.64648 1.64649,-1.64648 -0.70704,-0.70704 -1.64648,1.64649 z M 425.99952,151 v 1 h 4 v -1 z m 0,2 v 1 h 4 v -1 z"
         style="fill:#ffffff;stroke:none"
         id="path1168"
         sodipodi:nodetypes="ccccccccccccccccccccccccccccccccccccccccc" />
    </g>
    <g
       id="g3258">
      <path
         id="rect2259"
         style="fill:#22b37e;fill-opacity:1"
         d="m 427,112 v 10 h 7 c 2.216,0 4,-1.784 4,-4 v -6 z"
         sodipodi:nodetypes="ccsscc" />
      <path
         id="rect2816"
         style="fill:#8c8c8f;fill-opacity:1"
         d="m 418,111 v 7 c 0,2.216 1.784,4 4,4 h 6 v -11 z"
         sodipodi:nodetypes="cssccc" />
      <path
         id="rect2974"
         style="fill:#a6a6a6;fill-opacity:1"
         d="m 422,102 c -2.216,0 -4,1.784 -4,4 v 6 h 10 v -10 z" />
      <path
         d="m 423,106.5 v 1.5 h -1.5 v 1 h 1.5 v 1.5 h 1 V 109 h 1.5 v -1 H 424 v -1.5 z m 8,1.5 v 1 h 4 v -1 z m -9.29297,7.58594 -0.70703,0.70703 0.35352,0.35351 1.14648,1.14649 -1.14648,1.14648 L 421,119.29297 421.70703,120 l 0.35352,-0.35352 1.14648,-1.14648 1.14649,1.14648 0.35351,0.35352 0.70703,-0.70703 -0.35351,-0.35352 -1.14649,-1.14648 1.14649,-1.14649 0.35351,-0.35351 -0.70703,-0.70703 -0.35351,0.35351 -1.14649,1.14649 -1.14648,-1.14649 z M 431,116 v 1 h 4 v -1 z m 0,2 v 1 h 4 v -1 z"
         style="opacity:0.2;fill:#000000"
         id="path3476" />
      <path
         d="m 423,105.5 v 1.5 h -1.5 v 1 h 1.5 v 1.5 h 1 V 108 h 1.5 v -1 H 424 v -1.5 z m 8,1.5 v 1 h 4 v -1 z m -9.29297,7.58594 -0.70703,0.70703 0.35352,0.35351 1.14648,1.14649 -1.14648,1.14648 L 421,118.29297 421.70703,119 l 0.35352,-0.35352 1.14648,-1.14648 1.14649,1.14648 0.35351,0.35352 0.70703,-0.70703 -0.35351,-0.35352 -1.14649,-1.14648 1.14649,-1.14649 0.35351,-0.35351 -0.70703,-0.70703 -0.35351,0.35351 -1.14649,1.14649 -1.14648,-1.14649 z M 431,115 v 1 h 4 v -1 z m 0,2 v 1 h 4 v -1 z"
         style="fill:#ffffff"
         id="path3420"
         sodipodi:nodetypes="ccccccccccccccccccccccccccccccccccccccccccccccccc" />
    </g>
    <g
       id="g4054">
      <path
         id="rect3568"
         style="opacity:1;fill:#22b37e;fill-opacity:1"
         d="m 430,68 v 14 h 10 c 3.324,0 6,-2.676003 6,-6 v -8 z"
         sodipodi:nodetypes="ccsscc" />
      <path
         id="rect3708"
         style="opacity:1;fill:#8c8c8f;fill-opacity:1"
         d="m 418,66 v 10 c 0,3.323997 2.676,6 6,6 h 8 V 66 Z"
         sodipodi:nodetypes="cssccc" />
      <path
         id="rect3848"
         style="opacity:1;fill:#a6a6a6;fill-opacity:1"
         d="m 424,54 c -3.324,0 -6,2.676003 -6,6 v 8 h 14 V 54 Z" />
      <path
         d="m 424.99952,59 v 3 h -3 v 1 h 3 v 3 h 1 v -3 h 3 v -1 h -3 v -3 z m 11,3 v 1 h 6 V 62 Z M 422.35304,72.646484 421.646,73.353516 424.29249,76 l -2.64649,2.646489 0.70704,0.70703 2.64648,-2.64649 2.64648,2.64649 0.70704,-0.70703 L 425.70655,76 l 2.64649,-2.646484 -0.70704,-0.707032 -2.64648,2.646485 z M 435.99952,74 v 1 h 6 v -1 z m 0,2.999999 v 1 h 6 v -1 z"
         style="opacity:0.2;fill:#000000"
         id="path4429" />
      <path
         d="m 424.99952,58 v 3 h -3 v 1 h 3 v 3 h 1 v -3 h 3 v -1 h -3 v -3 z m 11,3 v 1 h 6 V 61 Z M 422.35304,71.646484 421.646,72.353516 424.29249,75 l -2.64649,2.646484 0.70704,0.707032 2.64648,-2.646485 2.64648,2.646485 0.70704,-0.707032 L 425.70655,75 l 2.64649,-2.646484 -0.70704,-0.707032 -2.64648,2.646485 z M 435.99952,73 v 1 h 6 v -1 z m 0,3 v 1 h 6 v -1 z"
         style="fill:#ffffff"
         id="path4374"
         sodipodi:nodetypes="ccccccccccccccccccccccccccccccccccccccccc" />
    </g>
    <g
       id="g4140">
      <path
         id="rect3568-2"
         style="fill:#22b37e;fill-opacity:1;stroke-width:1.5"
         d="m 309,244 v 21 h 15 c 4.986,0 9,-4.014 9,-9 v -12 z"
         sodipodi:nodetypes="ccsscc" />
      <path
         id="rect3708-9"
         style="fill:#8c8c8f;fill-opacity:1;stroke-width:1.5"
         d="m 291,241 v 15 c 0,4.986 4.014,9 9,9 h 12 v -24 z"
         sodipodi:nodetypes="cssccc" />
      <path
         id="rect3848-1"
         style="fill:#a6a6a6;fill-opacity:1;stroke-width:1.5"
         d="m 300,223 c -4.986,0 -9,4.014 -9,9 v 12 h 21 v -21 z" />
      <path
         d="m 301,230 v 4 h -4 v 2 h 4 v 4 h 2 v -4 h 4 v -2 h -4 v -4 z m 16,4 v 2 h 10 v -2 z m -19.53516,16.05078 -1.41406,1.41406 3.53516,3.53516 -3.53516,3.53516 1.41406,1.41406 3.53516,-3.53516 3.53516,3.53516 1.41406,-1.41406 -3.53516,-3.53516 3.53516,-3.53516 -1.41406,-1.41406 L 301,253.58594 Z M 317,252 v 2 h 10 v -2 z m 0,4 v 2 h 10 v -2 z"
         style="opacity:0.2;fill:#000000"
         id="path4782" />
      <path
         id="path4725"
         style="fill:#ffffff"
         d="m 301,229 v 4 h -4 v 2 h 4 v 4 h 2 v -4 h 4 v -2 h -4 v -4 z m 16,4 v 2 h 10 v -2 z m -19.53516,16.05078 -1.41406,1.41406 3.53516,3.53516 -3.53516,3.53516 1.41406,1.41406 3.53516,-3.53516 3.53516,3.53516 1.41406,-1.41406 -3.53516,-3.53516 3.53516,-3.53516 -1.41406,-1.41406 L 301,252.58594 Z M 317,251 v 2 h 10 v -2 z m 0,4 v 2 h 10 v -2 z"
         sodipodi:nodetypes="ccccccccccccccccccccccccccccccccccccccccc" />
    </g>
    <g
       id="g4148">
      <path
         id="rect3568-5"
         style="fill:#22b37e;fill-opacity:1;stroke-width:2"
         d="m 316,172 v 28 h 20 c 6.648,0 12,-5.35201 12,-12 v -16 z"
         sodipodi:nodetypes="ccsscc" />
      <path
         id="rect3708-3"
         style="fill:#8c8c8f;fill-opacity:1;stroke-width:2"
         d="m 292,168 v 20 c 0,6.64799 5.352,12 12,12 h 16 v -32 z"
         sodipodi:nodetypes="cssccc" />
      <path
         id="rect3848-5"
         style="fill:#a6a6a6;fill-opacity:1;stroke-width:2"
         d="m 304,144 c -6.648,0 -12,5.35201 -12,12 v 16 h 28 v -28 z" />
      <path
         d="m 306,152.99983 v 6.00015 h -6 v 2.00004 h 6 v 6.00014 h 1.99953 v -6.00014 h 6.00014 v -2.00004 h -6.00014 v -6.00015 z m 22,6.00015 v 2.00004 h 12.00028 v -2.00004 z m -27.29309,21.29274 -1.41411,1.41411 5.2931,5.29309 -5.2931,5.2931 1.41411,1.41409 5.29309,-5.2931 5.29308,5.2931 1.41412,-1.41409 -5.29311,-5.2931 5.29311,-5.29309 -1.41412,-1.41411 L 306,185.58582 Z M 328,183 v 2 h 12.00028 v -2 z m 0,6 v 2 h 12.00028 v -2 z"
         style="opacity:0.2;fill:#000000;stroke-width:2.00005"
         id="path4429-0"
         sodipodi:nodetypes="ccccccccccccccccccccccccccccccccccccccccc" />
      <path
         d="m 306,152 v 6.00014 h -6 v 2.00005 h 6 v 6.00014 h 1.99953 v -6.00014 h 6.00014 v -2.00005 h -6.00014 V 152 Z m 22,6.00014 v 2.00005 h 12.00028 v -2.00005 z m -27.29309,21.29274 -1.41411,1.41412 5.2931,5.29308 -5.2931,5.29309 1.41411,1.41411 5.29309,-5.2931 5.29308,5.2931 1.41412,-1.41411 -5.29311,-5.29309 5.29311,-5.29308 -1.41412,-1.41412 L 306,184.58599 Z M 328,182 v 2 h 12.00028 v -2 z m 0,6 v 2 h 12.00028 v -2 z"
         style="fill:#ffffff;stroke-width:2.00005"
         id="path4374-6"
         sodipodi:nodetypes="ccccccccccccccccccccccccccccccccccccccccc" />
    </g>
    <g
       id="g4192">
      <path
         id="rect3568-5-2"
         style="fill:#22b37e;fill-opacity:1;stroke-width:3"
         d="m 330,76 v 42 h 30 c 9.972,0 18,-8.02801 18,-18 V 76 Z"
         sodipodi:nodetypes="ccsscc" />
      <path
         id="rect3708-3-7"
         style="fill:#8c8c8f;fill-opacity:1;stroke-width:3"
         d="m 294,70 v 30 c 0,9.97199 8.028,18 18,18 h 24 V 70 Z"
         sodipodi:nodetypes="cssccc" />
      <path
         id="rect3848-5-0"
         style="fill:#a6a6a6;fill-opacity:1;stroke-width:3"
         d="m 312,34 c -9.972,0 -18,8.028015 -18,18 v 24 h 42 V 34 Z" />
      <path
         d="m 314.00044,47 v 8 h -8 v 4 h 8 v 8 h 4 v -8 h 8 v -4 h -8 v -8 z m 32,8 v 4 h 20 v -4 z m -38.07076,32.10156 -2.82812,2.82812 7.07032,7.07032 -7.07032,7.07032 2.82812,2.82812 7.07032,-7.07032 7.07032,7.07032 2.82812,-2.82812 L 317.82812,97 324.89844,89.92968 322.07032,87.10156 315,94.17188 Z M 346.00044,91 v 4 h 20 v -4 z m 0,8 v 4 h 20 v -4 z"
         style="opacity:0.2;fill:#000000;stroke-width:2"
         id="path4782-7"
         sodipodi:nodetypes="ccccccccccccccccccccccccccccccccccccccccc" />
      <path
         id="path4725-5"
         style="fill:#ffffff;stroke-width:2"
         d="m 314.00044,46 v 8 h -8 v 4 h 8 v 8 h 4 v -8 h 8 v -4 h -8 v -8 z m 32,8 v 4 h 20 v -4 z m -38.07076,32.10156 -2.82812,2.82812 7.07032,7.07032 -7.07032,7.07032 2.82812,2.82812 7.07032,-7.07032 7.07032,7.07032 2.82812,-2.82812 L 317.82812,96 324.89844,88.92968 322.07032,86.10156 315,93.17188 Z M 346.00044,90 v 4 h 20 v -4 z m 0,8 v 4 h 20 v -4 z"
         sodipodi:nodetypes="ccccccccccccccccccccccccccccccccccccccccc" />
    </g>
    <g
       id="g4218">
      <path
         id="rect3568-5-9"
         style="fill:#22b37e;fill-opacity:1;stroke-width:8"
         d="m 128,155.99998 v 112 h 80 c 26.592,0 48,-21.40804 48,-48 v -64 z"
         sodipodi:nodetypes="ccsscc" />
      <path
         id="rect3708-3-3"
         style="fill:#8c8c8f;fill-opacity:1;stroke-width:8"
         d="m 32,140.00002 v 79.99996 c 0,26.59196 21.408,48 48,48 h 64 V 140.00002 Z"
         sodipodi:nodetypes="cssccc" />
      <path
         id="rect3848-5-6"
         style="fill:#a6a6a6;fill-opacity:1;stroke-width:8"
         d="m 80,44.00002 c -26.592,0 -48,21.40804 -48,48 v 63.99996 H 144 V 44.00002 Z" />
      <path
         d="m 88,78 v 23.99992 H 63.9998 v 8.00016 H 88 V 134 h 8 v -23.99992 h 24 v -8.00016 H 96 V 78 Z m 87.9998,23.99992 v 8.00016 H 224 v -8.00016 z m -109.17236,85.17096 -5.65644,5.65644 21.1724,21.17236 -21.1724,21.1724 5.65644,5.65636 21.17236,-21.1724 21.17232,21.1724 5.65648,-5.65636 -21.17244,-21.1724 21.17244,-21.17236 -5.65648,-5.65644 -21.17232,21.1724 z M 175.9998,198 v 8 H 224 v -8 z m 0,24 v 8 H 224 v -8 z"
         style="opacity:0.2;fill:#000000;stroke-width:8.0002"
         id="path4429-0-7"
         sodipodi:nodetypes="ccccccccccccccccccccccccccccccccccccccccc" />
      <path
         d="M 87.9999,75.99934 V 99.9999 l -24.0001,6.6e-4 v 8.0002 l 24.0001,-6.6e-4 v 24.00056 h 8.0002 V 108.0001 H 120 V 99.9999 H 96.0001 V 75.99934 Z m 87.9999,24.00122 v 8.0002 H 224 v -8.0002 z M 66.82744,185.17152 61.171,190.828 l 21.1724,21.17232 -21.1724,21.17236 5.65644,5.65644 21.17236,-21.1724 21.17232,21.1724 5.65648,-5.65644 L 93.65616,212.00032 114.8286,190.828 109.17212,185.17152 87.9998,206.34396 Z M 175.9998,196 v 8 H 224 v -8 z m 0,24 v 8 H 224 v -8 z"
         style="fill:#ffffff;stroke-width:8.0002"
         id="path4374-6-9"
         sodipodi:nodetypes="ccccccccccccccccccccccccccccccccccccccccc" />
    </g>
  </g>
  <g
     id="Highlights">
    <path
       id="rect653"
       style="opacity:0.2;fill:#ffffff"
       d="M 80,44 C 53.408027,44 32,65.408027 32,92 v 2 C 32,67.408027 53.408027,46 80,46 h 128 c 26.59197,0 48,21.408027 48,48 V 92 C 256,65.408027 234.59197,44 208,44 Z"
       sodipodi:nodetypes="sscsscsss" />
    <path
       id="rect773"
       style="opacity:0.2;fill:#ffffff"
       d="m 312,34 c -9.97199,0 -18,8.02801 -18,18 v 1 c 0,-9.97199 8.02801,-18 18,-18 h 48 c 9.97199,0 18,8.02801 18,18 v -1 c 0,-9.97199 -8.02801,-18 -18,-18 z" />
    <path
       id="rect1135"
       style="opacity:0.2;fill:#ffffff;fill-opacity:1"
       d="m 304,144 c -6.64799,0 -12,5.35201 -12,12 v 1 c 0,-6.64799 5.35201,-12 12,-12 h 32 c 6.64799,0 12,5.35201 12,12 v -1 c 0,-6.64799 -5.35201,-12 -12,-12 z" />
    <path
       id="rect1265"
       style="opacity:0.2;fill:#ffffff;fill-opacity:1"
       d="m 300,223 c -4.986,0 -9,4.014 -9,9 v 1 c 0,-4.986 4.014,-9 9,-9 h 24 c 4.986,0 9,4.014 9,9 v -1 c 0,-4.986 -4.014,-9 -9,-9 z" />
    <path
       id="rect1368"
       style="opacity:0.2;fill:#ffffff;fill-opacity:1"
       d="m 424,54 c -3.324,0 -6,2.676003 -6,6 v 1 c 0,-3.323997 2.676,-6 6,-6 h 16 c 3.324,0 6,2.676003 6,6 v -1 c 0,-3.323997 -2.676,-6 -6,-6 z" />
    <path
       id="rect1402"
       style="opacity:0.2;fill:#ffffff;fill-opacity:1"
       d="m 420,140 c -2.216,0 -4,1.784 -4,4 v 1 c 0,-2.216 1.784,-4 4,-4 h 8 c 2.216,0 4,1.784 4,4 v -1 c 0,-2.216 -1.784,-4 -4,-4 z" />
    <path
       id="rect1436"
       style="opacity:0.2;fill:#ffffff;fill-opacity:1"
       d="m 422,102 c -2.216,0 -4,1.784 -4,4 v 1 c 0,-2.216 1.784,-4 4,-4 h 12 c 2.216,0 4,1.784 4,4 v -1 c 0,-2.216 -1.784,-4 -4,-4 z" />
  </g>
</svg>
