<?xml version="1.0" encoding="UTF-8" standalone="no"?>
<!-- Created with Inkscape (http://www.inkscape.org/) -->

<svg
   width="480"
   height="300"
   viewBox="0 0 480 300"
   version="1.1"
   id="svg5"
   inkscape:version="1.2.2 (1:1.2.2+202305151914+b0a8486541)"
   sodipodi:docname="applications-games.svg"
   xmlns:inkscape="http://www.inkscape.org/namespaces/inkscape"
   xmlns:sodipodi="http://sodipodi.sourceforge.net/DTD/sodipodi-0.dtd"
   xmlns="http://www.w3.org/2000/svg"
   xmlns:svg="http://www.w3.org/2000/svg">
  <sodipodi:namedview
     id="namedview7"
     pagecolor="#888888"
     bordercolor="#000000"
     borderopacity="0.25"
     inkscape:showpageshadow="true"
     inkscape:pageopacity="0"
     inkscape:pagecheckerboard="0"
     inkscape:deskcolor="#888888"
     inkscape:document-units="px"
     showgrid="false"
     showborder="false"
     inkscape:zoom="2.7416667"
     inkscape:cx="240"
     inkscape:cy="149.90881"
     inkscape:window-width="1920"
     inkscape:window-height="1008"
     inkscape:window-x="0"
     inkscape:window-y="0"
     inkscape:window-maximized="1"
     inkscape:current-layer="svg5"
     showguides="false" />
  <defs
     id="defs2" />
  <g
     id="Baseplate"
     style="display:none">
    <text
       y="19.774782"
       xml:space="preserve"
       x="15.006946"
       style="font-style:normal;font-variant:normal;font-weight:normal;font-stretch:normal;line-height:0%;font-family:'DejaVu Sans';-inkscape-font-specification:'DejaVu Sans';display:inline;fill:#000000;fill-opacity:1;stroke:none;enable-background:new"
       inkscape:label="context"
       id="context"><tspan
         style="font-style:normal;font-variant:normal;font-weight:normal;font-stretch:normal;font-size:18px;line-height:1.25;font-family:'DejaVu Sans';-inkscape-font-specification:'DejaVu Sans'"
         y="19.774782"
         x="15.006946"
         sodipodi:role="line"
         id="tspan3933">categories</tspan></text>
    <text
       y="19.774782"
       xml:space="preserve"
       x="122.48839"
       style="font-style:normal;font-variant:normal;font-weight:bold;font-stretch:normal;line-height:0%;font-family:'DejaVu Sans';-inkscape-font-specification:'DejaVu Sans Bold';text-align:start;writing-mode:lr-tb;text-anchor:start;display:inline;fill:#000000;fill-opacity:1;stroke:none;enable-background:new"
       inkscape:label="icon-name"
       id="icon-name"><tspan
         style="font-style:normal;font-variant:normal;font-weight:bold;font-stretch:normal;font-size:18px;line-height:1.25;font-family:'DejaVu Sans';-inkscape-font-specification:'DejaVu Sans Bold'"
         y="19.774782"
         x="122.48839"
         sodipodi:role="line"
         id="tspan3937">applications-games</tspan></text>
    <rect
       style="fill:#ffffff"
       id="256x256"
       width="256"
       height="256"
       x="16"
       y="28" />
    <rect
       style="fill:#ffffff"
       id="96x96"
       width="96"
       height="96"
       x="288"
       y="28" />
    <rect
       style="fill:#ffffff"
       id="64x64"
       width="64"
       height="64"
       x="288"
       y="140" />
    <rect
       style="fill:#ffffff"
       id="48x48"
       width="48"
       height="48"
       x="288"
       y="220" />
    <rect
       style="fill:#ffffff"
       id="32x32"
       width="32"
       height="32"
       x="416"
       y="52" />
    <rect
       style="fill:#ffffff"
       id="24x24"
       width="24"
       height="24"
       x="416"
       y="100" />
    <rect
       style="fill:#ffffff"
       id="22x22"
       width="22"
       height="22"
       x="417"
       y="101" />
    <rect
       style="fill:#ffffff"
       id="16x16"
       width="16"
       height="16"
       x="416"
       y="140" />
  </g>
  <g
     id="Shadow">
    <rect
       style="opacity:0.2;fill:#000000"
       id="rect651"
       width="224"
       height="224"
       x="32"
       y="46"
       ry="48" />
    <rect
       style="opacity:0.2;fill:#000000"
       id="rect769"
       width="84"
       height="85"
       x="294"
       y="34"
       ry="18" />
    <rect
       style="opacity:0.2;fill:#000000;fill-opacity:1"
       id="rect1131"
       width="56"
       height="56"
       x="292"
       y="145"
       ry="12" />
    <rect
       style="opacity:0.2;fill:#000000;fill-opacity:1"
       id="rect1261"
       width="42"
       height="42"
       x="291"
       y="224"
       ry="9" />
    <rect
       style="opacity:0.2;fill:#000000;fill-opacity:1"
       id="rect1364"
       width="28"
       height="29"
       x="418"
       y="54"
       ry="6" />
    <rect
       style="opacity:0.2;fill:#000000;fill-opacity:1"
       id="rect1398"
       width="16"
       height="16"
       x="416"
       y="141"
       ry="4" />
    <rect
       style="opacity:0.2;fill:#000000;fill-opacity:1"
       id="rect1432"
       width="20"
       height="20"
       x="418"
       y="103"
       ry="4" />
  </g>
  <g
     id="Background">
    <rect
       style="fill:#e0e0e0;fill-opacity:1"
       id="rect597"
       width="224"
       height="224"
       x="32"
       y="44"
       ry="48" />
    <rect
       style="opacity:1;fill:#e0e0e0;fill-opacity:1"
       id="rect771"
       width="84"
       height="84"
       x="294"
       y="34"
       ry="18" />
    <rect
       style="opacity:1;fill:#e0e0e0;fill-opacity:1"
       id="rect1133"
       width="56"
       height="56"
       x="292"
       y="144"
       ry="12" />
    <rect
       style="opacity:1;fill:#e0e0e0;fill-opacity:1"
       id="rect1263"
       width="42"
       height="42"
       x="291"
       y="223"
       ry="9" />
    <rect
       style="opacity:1;fill:#e0e0e0;fill-opacity:1"
       id="rect1366"
       width="28"
       height="28"
       x="418"
       y="54"
       ry="6" />
    <rect
       style="opacity:1;fill:#e0e0e0;fill-opacity:1"
       id="rect1400"
       width="16"
       height="16"
       x="416"
       y="140"
       ry="4" />
    <rect
       style="opacity:1;fill:#e0e0e0;fill-opacity:1"
       id="rect1434"
       width="20"
       height="20"
       x="418"
       y="102"
       ry="4" />
  </g>
  <g
     id="g1317">
    <g
       id="g4329">
      <path
         d="m 426.25027,145.49979 c 2.30152,0 2.7752,-0.26972 2.9715,1.2913 l 0.7302,4.02242 c 0.0304,0.1436 0.0464,0.78951 0.0484,0.93628 0,1.24263 -0.931,1.68909 -1.50008,1.75 -0.85276,0.005 -1.31027,-0.37324 -1.66009,-1.20749 l -0.73982,-1.79241 h -4.35028 c -2.09124,0 -2.25002,-0.92258 -2.25002,-3.0001 0,-1.3687 -0.55461,-2 2.25002,-2 z"
         style="fill:#000000;fill-opacity:1;stroke-width:1.50002;stroke-linecap:square;opacity:0.2"
         id="path4021" />
      <path
         d="m 426.25027,145 c 2.30152,0 2.7752,-0.26972 2.9715,1.2913 l 0.7302,4.02242 c 0.0304,0.1436 0.0464,0.78951 0.0484,0.93628 0,1.24263 -0.931,1.68909 -1.50008,1.75 -0.85276,0.005 -1.31027,-0.37324 -1.66009,-1.20749 l -0.73982,-1.79241 h -4.35028 c -2.09124,0 -2.25002,-0.92258 -2.25002,-3.0001 0,-1.3687 -0.55461,-2 2.25002,-2 z"
         style="fill:#b8b8b8;fill-opacity:1;stroke-width:1.50002;stroke-linecap:square"
         id="path3717"
         sodipodi:nodetypes="sccccccssss" />
      <path
         d="m 421.7501,144.5 c -2.30152,0 -2.76972,1.11821 -2.96602,2.67923 l -0.73568,3.63449 c -0.0304,0.1436 -0.0464,0.78951 -0.0484,0.93628 0,1.24263 0.931,1.68909 1.50008,1.75 0.85276,0.005 1.31027,-0.37324 1.66009,-1.20749 L 422.20008,149.5 h 4.8 c 1.65097,0 2.25022,-0.4225 2.25022,-2.5 0,-1.3687 -0.62722,-2.5 -2.25022,-2.5 z"
         style="fill:#000000;fill-opacity:1;stroke-width:1.50002;stroke-linecap:square;opacity:0.2"
         id="path4049" />
      <path
         d="m 421.7501,144 c -2.30152,0 -2.76972,1.11821 -2.96602,2.67923 l -0.73568,3.63449 c -0.0304,0.1436 -0.0464,0.78951 -0.0484,0.93628 0,1.24263 0.931,1.68909 1.50008,1.75 0.85276,0.005 1.31027,-0.37324 1.66009,-1.20749 L 422.20008,149 h 4.8 c 1.65097,0 2.25022,-0.4225 2.25022,-2.5 0,-1.3687 -0.62722,-2.5 -2.25022,-2.5 z"
         style="fill:#6f6f6f;fill-opacity:1;stroke-width:1.50002;stroke-linecap:square"
         id="path3661"
         sodipodi:nodetypes="sccccccssss" />
      <path
         id="path4077"
         style="fill:#000000;stroke-width:2;opacity:0.2"
         d="M 421 145.5 L 421 146.5 L 420 146.5 L 420 147.5 L 421 147.5 L 421 148.5 L 422 148.5 L 422 147.5 L 423 147.5 L 423 146.5 L 422 146.5 L 422 145.5 L 421 145.5 z M 426.5 145.5 A 0.5 0.49989319 0 0 0 426 146 A 0.5 0.49989319 0 0 0 426.5 146.5 A 0.5 0.49989319 0 0 0 427 146 A 0.5 0.49989319 0 0 0 426.5 145.5 z M 425.5 146.5 A 0.5 0.49989319 0 0 0 425 147 A 0.5 0.49989319 0 0 0 425.5 147.5 A 0.5 0.49989319 0 0 0 426 147 A 0.5 0.49989319 0 0 0 425.5 146.5 z M 427.5 146.5 A 0.5 0.49989319 0 0 0 427 147 A 0.5 0.49989319 0 0 0 427.5 147.5 A 0.5 0.49989319 0 0 0 428 147 A 0.5 0.49989319 0 0 0 427.5 146.5 z M 426.5 147.5 A 0.5 0.49989319 0 0 0 426 148 A 0.5 0.49989319 0 0 0 426.5 148.5 A 0.5 0.49989319 0 0 0 427 148 A 0.5 0.49989319 0 0 0 426.5 147.5 z " />
      <path
         id="path4105"
         style="fill:#ffffff;stroke-width:2"
         d="m 421,145 v 1 h -1 v 1 h 1 v 1 h 1 v -1 h 1 v -1 h -1 v -1 z m 5.5,0 c -0.27618,0 -0.50006,0.22387 -0.5,0.5 -6e-5,0.27613 0.22382,0.5 0.5,0.5 0.27618,0 0.50006,-0.22387 0.5,-0.5 6e-5,-0.27613 -0.22382,-0.5 -0.5,-0.5 z m -1,1 c -0.27618,0 -0.50006,0.22387 -0.5,0.5 -6e-5,0.27613 0.22382,0.5 0.5,0.5 0.27618,0 0.50006,-0.22387 0.5,-0.5 6e-5,-0.27613 -0.22382,-0.5 -0.5,-0.5 z m 2,0 c -0.27618,0 -0.50006,0.22387 -0.5,0.5 -6e-5,0.27613 0.22382,0.5 0.5,0.5 0.27618,0 0.50006,-0.22387 0.5,-0.5 6e-5,-0.27613 -0.22382,-0.5 -0.5,-0.5 z m -1,1 c -0.27618,0 -0.50006,0.22387 -0.5,0.5 -6e-5,0.27613 0.22382,0.5 0.5,0.5 0.27618,0 0.50006,-0.22387 0.5,-0.5 6e-5,-0.27613 -0.22382,-0.5 -0.5,-0.5 z"
         sodipodi:nodetypes="cccccccccccccscscsscscsscscsscscs" />
    </g>
    <g
       id="g3437"
       transform="matrix(0.5,0,0,0.5,272.5,-9.999895)">
      <path
         d="m 305.5,236 c -5.60912,0 -5.99999,2.76263 -6,5.5 -10e-6,4.15499 1.81754,9.5 6,9.5 h 10.59585 l 1.26563,3.24023 c 0.69966,1.66845 1.53485,2.75971 4.13867,2.75977 1.82642,-6e-5 3.5,-2.01472 3.5,-4.5 -0.004,-0.29348 -0.0351,-0.58588 -0.0957,-0.87305 l -1.47071,-10.76923 C 323.04115,237.73569 322.10315,236 317.50015,236 Z"
         style="opacity:0.2;fill:#000000;fill-opacity:1;stroke-width:1.5;stroke-linecap:square"
         id="path3413"
         sodipodi:nodetypes="sssccscccss" />
      <path
         d="m 305.5,235 c -5.60912,0 -5.99999,2.76263 -6,5.5 -10e-6,4.15499 1.81754,9.5 6,9.5 h 10.59585 l 1.26563,3.24023 c 0.69966,1.66845 1.53485,2.75971 4.13867,2.75977 1.82642,-6e-5 3.5,-2.01472 3.5,-4.5 -0.004,-0.29348 -0.0351,-0.58588 -0.0957,-0.87305 l -1.47071,-10.76923 C 323.04115,236.73569 322.10315,235 317.50015,235 Z"
         style="fill:#b8b8b8;fill-opacity:1;stroke-width:1.5;stroke-linecap:square"
         id="path3357"
         sodipodi:nodetypes="sssccccccss" />
      <path
         d="m 304.50004,235 c -4.603,0 -5.54004,2.23638 -5.93263,5.35841 l -1.47071,11.26827 c -0.0606,0.28717 -0.093,0.57957 -0.0967,0.87305 0,2.48528 1.67347,4.49995 3.49989,4.50001 2.60382,-6e-5 3.44001,-1.09133 4.13966,-2.75978 L 306.8,249.00021 h 10.70018 c 4.18246,0 6.00002,-2.84472 6.00001,-6.99971 -10e-6,-2.73737 -0.39088,-7.0005 -6.00001,-7.0005 z"
         style="opacity:0.2;fill:#000000;fill-opacity:1;stroke-width:1.5;stroke-linecap:square"
         id="path3385"
         sodipodi:nodetypes="scccsccssss" />
      <path
         d="m 304.50004,233.99979 c -4.603,0 -5.54004,2.23638 -5.93263,5.35841 l -1.47071,11.26827 c -0.0606,0.28717 -0.093,0.57957 -0.0967,0.87305 0,2.48528 1.67347,4.49995 3.49989,4.50001 2.60382,-6e-5 3.44001,-1.09133 4.13966,-2.75978 L 306.8,248 h 10.70018 c 4.18246,0 6.00002,-2.84472 6.00001,-6.99971 -10e-6,-2.73737 -0.39088,-7.0005 -6.00001,-7.0005 z"
         style="fill:#6f6f6f;fill-opacity:1;stroke-width:1.5;stroke-linecap:square"
         id="path3329"
         sodipodi:nodetypes="sccccccssss" />
      <path
         id="path3504"
         style="fill:#000000;stroke-width:4;opacity:0.2"
         d="M 303 238.99979 L 303 240.99979 L 301 240.99979 L 301 242.99979 L 303 242.99979 L 303 244.99979 L 305 244.99979 L 305 242.99979 L 307 242.99979 L 307 240.99979 L 305 240.99979 L 305 238.99979 L 303 238.99979 z M 318 238.99979 C 317.44764 238.99979 316.99988 239.44753 317 239.99979 C 316.99988 240.55205 317.44764 240.99979 318 240.99979 C 318.55236 240.99979 319.00012 240.55205 319 239.99979 C 319.00012 239.44753 318.55236 238.99979 318 238.99979 z M 316 240.99979 C 315.44764 240.99979 314.99988 241.44753 315 241.99979 C 314.99988 242.55205 315.44764 242.99979 316 242.99979 C 316.55236 242.99979 317.00012 242.55205 317 241.99979 C 317.00012 241.44753 316.55236 240.99979 316 240.99979 z M 320 240.99979 C 319.44764 240.99979 318.99988 241.44753 319 241.99979 C 318.99988 242.55205 319.44764 242.99979 320 242.99979 C 320.55236 242.99979 321.00012 242.55205 321 241.99979 C 321.00012 241.44753 320.55236 240.99979 320 240.99979 z M 318 242.99979 C 317.44764 242.99979 316.99988 243.44753 317 243.99979 C 316.99988 244.55205 317.44764 244.99979 318 244.99979 C 318.55236 244.99979 319.00012 244.55205 319 243.99979 C 319.00012 243.44753 318.55236 242.99979 318 242.99979 z " />
      <path
         id="path3447"
         style="fill:#ffffff;stroke-width:2"
         d="M 303 237.99979 L 303 239.99979 L 301 239.99979 L 301 241.99979 L 303 241.99979 L 303 243.99979 L 305 243.99979 L 305 241.99979 L 307 241.99979 L 307 239.99979 L 305 239.99979 L 305 237.99979 L 303 237.99979 z M 318 237.99979 C 317.44764 237.99979 316.99988 238.44753 317 238.99979 C 316.99988 239.55205 317.44764 239.99979 318 239.99979 C 318.55236 239.99979 319.00012 239.55205 319 238.99979 C 319.00012 238.44753 318.55236 237.99979 318 237.99979 z M 316 239.99979 C 315.44764 239.99979 314.99988 240.44753 315 240.99979 C 314.99988 241.55205 315.44764 241.99979 316 241.99979 C 316.55236 241.99979 317.00012 241.55205 317 240.99979 C 317.00012 240.44753 316.55236 239.99979 316 239.99979 z M 320 239.99979 C 319.44764 239.99979 318.99988 240.44753 319 240.99979 C 318.99988 241.55205 319.44764 241.99979 320 241.99979 C 320.55236 241.99979 321.00012 241.55205 321 240.99979 C 321.00012 240.44753 320.55236 239.99979 320 239.99979 z M 318 241.99979 C 317.44764 241.99979 316.99988 242.44753 317 242.99979 C 316.99988 243.55205 317.44764 243.99979 318 243.99979 C 318.55236 243.99979 319.00012 243.55205 319 242.99979 C 319.00012 242.44753 318.55236 241.99979 318 241.99979 z " />
    </g>
    <g
       id="g1539">
      <path
         d="m 439.22461,63.945376 c -0.54513,0.0048 -1.26565,0.05469 -2.22461,0.05469 h -10 c -3.73941,0 -3,1.230012 -3,4 0,4.038545 0.12819,6.040523 3,6 h 8.39844 l 0.84179,2.160156 c 0.46643,1.112294 1.55365,1.837144 2.75977,1.839844 1.65686,0 3,-1.34315 3,-3 -0.002,-0.195648 -0.024,-0.390587 -0.0645,-0.582031 l -0.98047,-8.845703 c -0.17994,-1.430926 -0.53119,-1.637603 -1.73047,-1.626954 z"
         style="fill:#000000;fill-opacity:1;stroke-width:2;stroke-linecap:square;opacity:0.2"
         id="path1236" />
      <path
         id="path1153"
         style="fill:#b8b8b8;fill-opacity:1;stroke-width:2;stroke-linecap:square"
         d="M 439.22461,62.945312 C 438.67948,62.950153 437.95896,63 437,63 h -10 c -3.73941,0 -3,1.230012 -3,4 0,4.038545 0.12819,6.040523 3,6 h 8.39844 l 0.84179,2.160156 C 436.70666,76.27245 437.79388,76.9973 439,77 c 1.65686,0 3,-1.34315 3,-3 -0.002,-0.195648 -0.024,-0.390587 -0.0645,-0.582031 l -0.98047,-8.845703 c -0.17994,-1.430926 -0.53119,-1.637603 -1.73047,-1.626954 z"
         sodipodi:nodetypes="sssccccccccss" />
      <path
         d="m 426.99995,62 c -3.06866,0 -3.69335,1.490917 -3.95508,3.572266 l -0.98047,8.845703 C 422.024,74.609413 422.0024,74.804352 422,75 c 0,1.656852 1.34315,3 3,3 1.20613,-0.0027 2.29334,-0.727549 2.75977,-1.839844 L 429.38281,72 H 437 c 2.7883,0 4,-2.230009 4,-5 0,-2.769991 -0.26059,-5 -4,-5 z"
         style="fill:#000000;fill-opacity:1;stroke-width:2;stroke-linecap:square;opacity:0.2"
         id="path1264" />
      <path
         d="m 427.00005,61 c -3.06866,0 -3.69335,1.490917 -3.95508,3.572266 l -0.98047,8.845703 C 422.0241,73.609413 422.0025,73.804352 422,74 c 0,1.656852 1.34315,3 3,3 1.20613,-0.0027 2.29334,-0.727549 2.75977,-1.839844 L 429.38281,71 H 437 c 2.7883,0 4,-2.230009 4,-5 0,-2.769991 -0.26059,-5 -4,-5 z"
         style="fill:#6f6f6f;fill-opacity:1;stroke-width:2;stroke-linecap:square"
         id="path1292"
         sodipodi:nodetypes="sccccccssss" />
      <path
         id="path2710"
         style="opacity:0.2;fill:#000000"
         d="M 426 64 L 426 66 L 424 66 L 424 68 L 426 68 L 426 70 L 428 70 L 428 68 L 430 68 L 430 66 L 428 66 L 428 64 L 426 64 z M 437 64 C 436.44771 64 436 64.447718 436 65 C 436 65.552282 436.44771 66 437 66 C 437.55229 66 438 65.552282 438 65 C 438 64.447718 437.55229 64 437 64 z M 435 66 C 434.44771 66 434 66.447718 434 67 C 434 67.552282 434.44771 68 435 68 C 435.55229 68 436 67.552282 436 67 C 436 66.447718 435.55229 66 435 66 z M 439 66 C 438.44771 66 438 66.447718 438 67 C 438 67.552282 438.44771 68 439 68 C 439.55229 68 440 67.552282 440 67 C 440 66.447718 439.55229 66 439 66 z M 437 68 C 436.44771 68 436 68.447718 436 69 C 436 69.552282 436.44771 70 437 70 C 437.55229 70 438 69.552282 438 69 C 438 68.447718 437.55229 68 437 68 z " />
      <path
         id="path2738"
         style="fill:#ffffff"
         d="M 426 63 L 426 65 L 424 65 L 424 67 L 426 67 L 426 69 L 428 69 L 428 67 L 430 67 L 430 65 L 428 65 L 428 63 L 426 63 z M 437 63 C 436.44771 63 436 63.447718 436 64 C 436 64.552282 436.44771 65 437 65 C 437.55229 65 438 64.552282 438 64 C 438 63.447718 437.55229 63 437 63 z M 435 65 C 434.44771 65 434 65.447718 434 66 C 434 66.552282 434.44771 67 435 67 C 435.55229 67 436 66.552282 436 66 C 436 65.447718 435.55229 65 435 65 z M 439 65 C 438.44771 65 438 65.447718 438 66 C 438 66.552282 438.44771 67 439 67 C 439.55229 67 440 66.552282 440 66 C 440 65.447718 439.55229 65 439 65 z M 437 67 C 436.44771 67 436 67.447718 436 68 C 436 68.552282 436.44771 69 437 69 C 437.55229 69 438 68.552282 438 68 C 438 67.447718 437.55229 67 437 67 z " />
    </g>
    <g
       id="g1912">
      <path
         id="path1887"
         style="fill:#000000;fill-opacity:1;stroke-width:1.5;stroke-linecap:square;opacity:0.2"
         d="m 305.5,236 c -5.60912,0 -5.99999,2.76263 -6,5.5 -10e-6,4.15499 1.81754,9.5 6,9.5 h 12.5957 l 1.26563,3.24023 c 0.69965,1.66845 1.53485,2.75971 4.13867,2.75977 1.82642,-6e-5 3.5,-2.01472 3.5,-4.5 -0.004,-0.29348 -0.0351,-0.58588 -0.0957,-0.87305 l -1.47071,-11.26953 C 325.041,237.23539 324.103,236 319.5,236 Z"
         sodipodi:nodetypes="sscccccccss" />
      <path
         d="m 305.5,235 c -5.60912,0 -5.99999,2.76263 -6,5.5 -10e-6,4.15499 1.81754,9.5 6,9.5 h 12.5957 l 1.26563,3.24023 c 0.69965,1.66845 1.53485,2.75971 4.13867,2.75977 1.82642,-6e-5 3.5,-2.01472 3.5,-4.5 -0.004,-0.29348 -0.0351,-0.58588 -0.0957,-0.87305 l -1.47071,-11.26953 C 325.041,236.23539 324.103,235 319.5,235 Z"
         style="fill:#b8b8b8;fill-opacity:1;stroke-width:1.5;stroke-linecap:square"
         id="path1922"
         sodipodi:nodetypes="sssccccccss" />
      <path
         d="m 304.50004,235 c -4.603,0 -5.54004,2.23638 -5.93263,5.35841 l -1.47071,11.26827 c -0.0606,0.28717 -0.093,0.57957 -0.0967,0.87305 0,2.48528 1.67347,4.49995 3.49989,4.50001 2.60382,-6e-5 3.44001,-1.09133 4.13966,-2.75978 l 2.43456,-6.23976 h 12.42592 c 4.18246,0 6.00002,-2.34501 6.00001,-6.5 -1e-5,-2.73737 -0.39088,-6.5002 -6.00001,-6.5002 z"
         style="fill:#000000;fill-opacity:1;stroke-width:1.5;stroke-linecap:square;opacity:0.2"
         id="path1950" />
      <path
         d="m 304.50004,233.99979 c -4.603,0 -5.54004,2.23638 -5.93263,5.35841 l -1.47071,11.26827 c -0.0606,0.28717 -0.093,0.57957 -0.0967,0.87305 0,2.48528 1.67347,4.49995 3.49989,4.50001 2.60382,-6e-5 3.44001,-1.09133 4.13966,-2.75978 l 2.43456,-6.23976 h 12.42592 c 4.18246,0 6.00002,-2.34501 6.00001,-6.5 -1e-5,-2.73737 -0.39088,-6.5002 -6.00001,-6.5002 z"
         style="fill:#6f6f6f;fill-opacity:1;stroke-width:1.5;stroke-linecap:square"
         id="path1603"
         sodipodi:nodetypes="sccccccssss" />
      <path
         id="path1771"
         style="opacity:0.2;fill:#000000;stroke-width:0.75"
         d="m 305,237 c -0.554,0 -1,0.446 -1,1 v 2 h -2 c -0.554,0 -1,0.446 -1,1 v 1 c 0,0.554 0.446,1 1,1 h 2 v 2 c 0,0.554 0.446,1 1,1 h 1 c 0.554,0 1,-0.446 1,-1 v -2 h 2 c 0.554,0 1,-0.446 1,-1 v -1 c 0,-0.554 -0.446,-1 -1,-1 h -2 v -2 c 0,-0.554 -0.446,-1 -1,-1 z m 14.5,0 c -0.828,0 -1.5,0.672 -1.5,1.5 0,0.828 0.672,1.5 1.5,1.5 0.828,0 1.5,-0.672 1.5,-1.5 0,-0.828 -0.672,-1.5 -1.5,-1.5 z m -3,3 c -0.828,0 -1.5,0.672 -1.5,1.5 0,0.828 0.672,1.5 1.5,1.5 0.828,0 1.5,-0.672 1.5,-1.5 0,-0.828 -0.672,-1.5 -1.5,-1.5 z m 6,0 c -0.828,0 -1.5,0.672 -1.5,1.5 0,0.828 0.672,1.5 1.5,1.5 0.828,0 1.5,-0.672 1.5,-1.5 0,-0.828 -0.672,-1.5 -1.5,-1.5 z m -3,3 c -0.828,0 -1.5,0.672 -1.5,1.5 0,0.828 0.672,1.5 1.5,1.5 0.828,0 1.5,-0.672 1.5,-1.5 0,-0.828 -0.672,-1.5 -1.5,-1.5 z"
         sodipodi:nodetypes="sscsssscsssscsssscsssssssssssssssssssssss" />
      <path
         d="m 305,236 c -0.554,0 -1,0.446 -1,1 v 2 h -2 c -0.554,0 -1,0.446 -1,1 v 1 c 0,0.554 0.446,1 1,1 h 2 v 2 c 0,0.554 0.446,1 1,1 h 1 c 0.554,0 1,-0.446 1,-1 v -2 h 2 c 0.554,0 1,-0.446 1,-1 v -1 c 0,-0.554 -0.446,-1 -1,-1 h -2 v -2 c 0,-0.554 -0.446,-1 -1,-1 z m 14.5,0 c -0.828,0 -1.5,0.672 -1.5,1.5 0,0.828 0.672,1.5 1.5,1.5 0.828,0 1.5,-0.672 1.5,-1.5 0,-0.828 -0.672,-1.5 -1.5,-1.5 z m -3,3 c -0.828,0 -1.5,0.672 -1.5,1.5 0,0.828 0.672,1.5 1.5,1.5 0.828,0 1.5,-0.672 1.5,-1.5 0,-0.828 -0.672,-1.5 -1.5,-1.5 z m 6,0 c -0.828,0 -1.5,0.672 -1.5,1.5 0,0.828 0.672,1.5 1.5,1.5 0.828,0 1.5,-0.672 1.5,-1.5 0,-0.828 -0.672,-1.5 -1.5,-1.5 z m -3,3 c -0.828,0 -1.5,0.672 -1.5,1.5 0,0.828 0.672,1.5 1.5,1.5 0.828,0 1.5,-0.672 1.5,-1.5 0,-0.828 -0.672,-1.5 -1.5,-1.5 z"
         style="fill:#ffffff;stroke-width:0.75"
         id="path2795"
         sodipodi:nodetypes="sscsssscsssscsssscsssssssssssssssssssssss" />
    </g>
    <g
       id="g3117">
      <path
         d="m 334.44922,162.89075 c -1.09026,0.01 -2.5313,0.10938 -4.44922,0.10938 h -20 c -7.47882,0 -6,2.46003 -6,8 0,8.07709 0.25638,12.08105 6,12 h 16.79688 l 1.68358,4.32031 c 0.93286,2.22459 3.1073,3.67429 5.51954,3.67969 3.31372,0 6,-2.6863 6,-6 -0.004,-0.39129 -0.048,-0.78117 -0.129,-1.16406 l -1.96094,-17.69141 c -0.35988,-2.86185 -1.06238,-3.2752 -3.46094,-3.2539 z"
         style="opacity:0.2;fill:#000000;fill-opacity:1;stroke-width:4;stroke-linecap:square"
         id="path1439"
         sodipodi:nodetypes="csssccccccccc" />
      <path
         d="M 334.44922,161.89062 C 333.35896,161.90022 331.91792,162 330,162 h -20 c -7.47882,0 -6,2.46002 -6,8 0,8.07709 0.25638,12.08105 6,12 h 16.79688 l 1.68358,4.32031 c 0.93286,2.22459 3.1073,3.67429 5.51954,3.67969 3.31372,0 6,-2.6863 6,-6 -0.004,-0.3913 -0.048,-0.78117 -0.129,-1.16406 l -1.96094,-17.69141 c -0.35988,-2.86185 -1.06238,-3.2752 -3.46094,-3.25391 z"
         style="fill:#b8b8b8;fill-opacity:1;stroke-width:4;stroke-linecap:square"
         id="path1383"
         sodipodi:nodetypes="sssscccccccss" />
      <path
         d="m 310.0001,159 c -6.13732,0 -7.3867,2.98183 -7.91016,7.14453 l -1.96094,17.69141 c -0.0808,0.38289 -0.124,0.77276 -0.129,1.16406 0,3.3137 2.6863,6 6,6 2.41226,-0.005 4.58668,-1.4551 5.51954,-3.67969 L 314.76562,179 H 330 c 5.5766,0 8,-4.46002 8,-10 0,-5.53998 -0.52118,-10 -8,-10 z"
         style="opacity:0.2;fill:#000000;fill-opacity:1;stroke-width:4;stroke-linecap:square"
         id="path1411"
         sodipodi:nodetypes="sccccccssss" />
      <path
         d="m 310.0001,158 c -6.13732,0 -7.3867,2.98183 -7.91016,7.14453 l -1.96094,17.69141 c -0.0808,0.38289 -0.124,0.77276 -0.129,1.16406 0,3.3137 2.6863,6 6,6 2.41226,-0.005 4.58668,-1.4551 5.51954,-3.67969 L 314.76562,178 H 330 c 5.5766,0 8,-4.46002 8,-10 0,-5.53998 -0.52118,-10 -8,-10 z"
         style="fill:#6f6f6f;fill-opacity:1;stroke-width:4;stroke-linecap:square"
         id="path1327"
         sodipodi:nodetypes="sccccccssss" />
      <path
         id="path1355"
         style="opacity:0.2;fill:#000000;stroke-width:2"
         d="m 310,163 c -0.554,0 -1,0.446 -1,1 v 3 h -3 c -0.554,0 -1,0.446 -1,1 v 2 c 0,0.554 0.446,1 1,1 h 3 v 3 c 0,0.554 0.446,1 1,1 h 2 c 0.554,0 1,-0.446 1,-1 v -3 h 3 c 0.554,0 1,-0.446 1,-1 v -2 c 0,-0.554 -0.446,-1 -1,-1 h -3 v -3 c 0,-0.554 -0.446,-1 -1,-1 z m 19,0 c -1.104,0 -2,0.896 -2,2 0,1.104 0.896,2 2,2 1.104,0 2,-0.896 2,-2 0,-1.104 -0.896,-2 -2,-2 z m -4,4 c -1.104,0 -2,0.896 -2,2 0,1.104 0.896,2 2,2 1.104,0 2,-0.896 2,-2 0,-1.104 -0.896,-2 -2,-2 z m 8,0 c -1.104,0 -2,0.896 -2,2 0,1.104 0.896,2 2,2 1.104,0 2,-0.896 2,-2 0,-1.104 -0.896,-2 -2,-2 z m -4,4 c -1.104,0 -2,0.896 -2,2 0,1.104 0.896,2 2,2 1.104,0 2,-0.896 2,-2 0,-1.104 -0.896,-2 -2,-2 z"
         sodipodi:nodetypes="sscsssscsssscsssscsssssssssssssssssssssss" />
      <path
         d="m 310,162 c -0.554,0 -1,0.446 -1,1 v 3 h -3 c -0.554,0 -1,0.446 -1,1 v 2 c 0,0.554 0.446,1 1,1 h 3 v 3 c 0,0.554 0.446,1 1,1 h 2 c 0.554,0 1,-0.446 1,-1 v -3 h 3 c 0.554,0 1,-0.446 1,-1 v -2 c 0,-0.554 -0.446,-1 -1,-1 h -3 v -3 c 0,-0.554 -0.446,-1 -1,-1 z m 19,0 c -1.104,0 -2,0.896 -2,2 0,1.104 0.896,2 2,2 1.104,0 2,-0.896 2,-2 0,-1.104 -0.896,-2 -2,-2 z m -4,4 c -1.104,0 -2,0.896 -2,2 0,1.104 0.896,2 2,2 1.104,0 2,-0.896 2,-2 0,-1.104 -0.896,-2 -2,-2 z m 8,0 c -1.104,0 -2,0.896 -2,2 0,1.104 0.896,2 2,2 1.104,0 2,-0.896 2,-2 0,-1.104 -0.896,-2 -2,-2 z m -4,4 c -1.104,0 -2,0.896 -2,2 0,1.104 0.896,2 2,2 1.104,0 2,-0.896 2,-2 0,-1.104 -0.896,-2 -2,-2 z"
         style="fill:#ffffff;stroke-width:1"
         id="path2682"
         sodipodi:nodetypes="sscsssscsssscsssscsssssssssssssssssssssss" />
    </g>
    <g
       id="g2989"
       transform="matrix(2,0,0,2,-288,-412)">
      <path
         d="m 305.5,235.5 c -5.60912,0 -5.99999,2.76263 -6,5.5 -10e-6,4.15499 1.81754,9.5 6,9.5 h 12.5957 l 1.26563,3.24023 c 0.69965,1.66845 1.53485,2.75971 4.13867,2.75977 1.82642,-6e-5 3.5,-2.01472 3.5,-4.5 -0.004,-0.29348 -0.0351,-0.58588 -0.0957,-0.87305 l -1.47071,-11.26953 C 325.041,236.73539 324.103,235.5 319.5,235.5 Z"
         style="opacity:0.2;fill:#000000;fill-opacity:1;stroke-width:1.5;stroke-linecap:square"
         id="path2879"
         sodipodi:nodetypes="sssccccccss" />
      <path
         d="m 305.5,235 c -5.60912,0 -5.99999,2.76263 -6,5.5 -10e-6,4.15499 1.81754,9.5 6,9.5 h 12.5957 l 1.26563,3.24023 c 0.69965,1.66845 1.53485,2.75971 4.13867,2.75977 1.82642,-6e-5 3.5,-2.01472 3.5,-4.5 -0.004,-0.29348 -0.0351,-0.58588 -0.0957,-0.87305 l -0.97052,-11.26953 C 325.54119,236.23539 324.103,235 319.5,235 Z"
         style="fill:#b8b8b8;fill-opacity:1;stroke-width:1.5;stroke-linecap:square"
         id="path2907"
         sodipodi:nodetypes="sssccccccss" />
      <path
         d="m 304.50004,234.5 c -4.603,0 -5.54004,2.23638 -5.93263,5.35841 l -1.47071,11.26827 c -0.0606,0.28717 -0.093,0.57957 -0.0967,0.87305 0,2.48528 1.67347,4.49995 3.49989,4.50001 2.60382,-6e-5 3.44001,-1.09133 4.13966,-2.75978 l 2.43456,-5.73986 h 12.42592 c 4.18246,0 6.00002,-2.84491 6.00001,-6.9999 -1e-5,-2.73737 -0.39088,-6.5002 -6.00001,-6.5002 z"
         style="opacity:0.2;fill:#000000;fill-opacity:1;stroke-width:1.5;stroke-linecap:square"
         id="path2851"
         sodipodi:nodetypes="sccccccssss" />
      <path
         d="m 304.50004,233.5 c -4.603,0 -6.03995,2.73617 -6.43254,5.8582 l -0.9708,11.26827 c -0.0606,0.28717 -0.093,0.57957 -0.0967,0.87305 0,2.48528 1.67347,4.49995 3.49989,4.50001 2.60382,-6e-5 3.44001,-1.09133 4.13966,-2.75978 l 2.43456,-5.73985 h 12.42592 c 4.18246,0 6.50021,-2.84492 6.50019,-6.99991 0,-2.73737 -0.89106,-6.99999 -6.50019,-6.99999 z"
         style="fill:#6f6f6f;fill-opacity:1;stroke-width:1.5;stroke-linecap:square"
         id="path2823"
         sodipodi:nodetypes="sccccccssss" />
      <path
         d="m 304.5,236.5 c -0.554,0 -1,0.446 -1,1 v 2 h -2 c -0.554,0 -1,0.446 -1,1 v 1 c 0,0.554 0.446,1 1,1 h 2 v 2 c 0,0.554 0.446,1 1,1 h 1 c 0.554,0 1,-0.446 1,-1 v -2 h 2 c 0.554,0 1,-0.446 1,-1 v -1 c 0,-0.554 -0.446,-1 -1,-1 h -2 v -2 c 0,-0.554 -0.446,-1 -1,-1 z m 14.5,0 c -0.828,0 -1.5,0.672 -1.5,1.5 0,0.828 0.672,1.5 1.5,1.5 0.828,0 1.5,-0.672 1.5,-1.5 0,-0.828 -0.672,-1.5 -1.5,-1.5 z m -3,3 c -0.828,0 -1.5,0.672 -1.5,1.5 0,0.828 0.672,1.5 1.5,1.5 0.828,0 1.5,-0.672 1.5,-1.5 0,-0.828 -0.672,-1.5 -1.5,-1.5 z m 6,0 c -0.828,0 -1.5,0.672 -1.5,1.5 0,0.828 0.672,1.5 1.5,1.5 0.828,0 1.5,-0.672 1.5,-1.5 0,-0.828 -0.672,-1.5 -1.5,-1.5 z m -3,3 c -0.828,0 -1.5,0.672 -1.5,1.5 0,0.828 0.672,1.5 1.5,1.5 0.828,0 1.5,-0.672 1.5,-1.5 0,-0.828 -0.672,-1.5 -1.5,-1.5 z"
         style="opacity:0.2;fill:#000000;stroke-width:0.75"
         id="path2963" />
      <path
         d="m 304.5,236 c -0.554,0 -1,0.446 -1,1 v 2 h -2 c -0.554,0 -1,0.446 -1,1 v 1 c 0,0.554 0.446,1 1,1 h 2 v 2 c 0,0.554 0.446,1 1,1 h 1 c 0.554,0 1,-0.446 1,-1 v -2 h 2 c 0.554,0 1,-0.446 1,-1 v -1 c 0,-0.554 -0.446,-1 -1,-1 h -2 v -2 c 0,-0.554 -0.446,-1 -1,-1 z m 14.5,0 c -0.828,0 -1.5,0.672 -1.5,1.5 0,0.828 0.672,1.5 1.5,1.5 0.828,0 1.5,-0.672 1.5,-1.5 0,-0.828 -0.672,-1.5 -1.5,-1.5 z m -3,3 c -0.828,0 -1.5,0.672 -1.5,1.5 0,0.828 0.672,1.5 1.5,1.5 0.828,0 1.5,-0.672 1.5,-1.5 0,-0.828 -0.672,-1.5 -1.5,-1.5 z m 6,0 c -0.828,0 -1.5,0.672 -1.5,1.5 0,0.828 0.672,1.5 1.5,1.5 0.828,0 1.5,-0.672 1.5,-1.5 0,-0.828 -0.672,-1.5 -1.5,-1.5 z m -3,3 c -0.828,0 -1.5,0.672 -1.5,1.5 0,0.828 0.672,1.5 1.5,1.5 0.828,0 1.5,-0.672 1.5,-1.5 0,-0.828 -0.672,-1.5 -1.5,-1.5 z"
         style="fill:#ffffff;stroke-width:0.75"
         id="path2935" />
    </g>
    <g
       id="g3265"
       transform="matrix(4,0,0,4,-1136,-532)">
      <path
         d="m 334.44922,162.39075 c -1.09026,0.01 -2.5313,0.10938 -4.44922,0.10938 h -20 c -7.47882,0 -6,2.46003 -6,8 0,8.07709 0.25638,12.08105 6,12 h 16.79688 l 1.68358,4.32031 c 0.93286,2.22459 3.1073,3.67429 5.51954,3.67969 3.31372,0 6,-2.6863 6,-6 -0.004,-0.39129 -0.048,-0.78117 -0.129,-1.16406 l -1.96094,-17.69141 c -0.35988,-2.86185 -1.06238,-3.2752 -3.46094,-3.2539 z"
         style="opacity:0.2;fill:#000000;fill-opacity:1;stroke-width:4;stroke-linecap:square"
         id="path3155" />
      <path
         d="M 334.44922,161.89062 C 333.35896,161.90062 331.91791,162 330,162 h -20 c -7.47882,0 -6,2.46002 -6,8 0,8.07709 0.25637,12.08105 6,12 h 16.79688 l 1.68358,4.32031 c 0.93286,2.22459 3.1073,3.67429 5.51954,3.67969 3.31372,0 6,-2.6863 6,-6 -0.004,-0.3913 -0.048,-0.78117 -0.12901,-1.16406 l -1.96093,-17.69141 c -0.35988,-2.86185 -1.06239,-3.2752 -3.46094,-3.25391 z"
         style="fill:#b8b8b8;fill-opacity:1;stroke-width:4;stroke-linecap:square"
         id="path3127" />
      <path
         d="m 310.0001,158.5 c -6.13732,0 -7.3867,2.98183 -7.91016,7.14453 l -1.96094,17.69141 c -0.0808,0.38289 -0.124,0.77276 -0.129,1.16406 0,3.3137 2.6863,6 6,6 2.41226,-0.005 4.58668,-1.4551 5.51954,-3.67969 L 314.76562,178.5 H 330 c 5.5766,0 8,-4.46002 8,-10 0,-5.53998 -0.52118,-10 -8,-10 z"
         style="opacity:0.2;fill:#000000;fill-opacity:1;stroke-width:4;stroke-linecap:square"
         id="path3183" />
      <path
         d="m 310.0001,158 c -6.13732,0 -7.3867,2.98183 -7.91016,7.14453 l -1.96094,17.69141 c -0.0808,0.38289 -0.124,0.77276 -0.129,1.16406 0,3.3137 2.6863,6 6,6 2.41226,-0.005 4.58668,-1.4551 5.51954,-3.67969 L 314.76562,178 H 330 c 5.5766,0 8,-4.46002 8,-10 0,-5.53998 -0.52118,-10 -8,-10 z"
         style="fill:#6f6f6f;fill-opacity:1;stroke-width:2;stroke-linecap:square"
         id="path3016" />
      <path
         d="m 310,162.5 c -0.554,0 -1,0.446 -1,1 v 3 h -3 c -0.554,0 -1,0.446 -1,1 v 2 c 0,0.554 0.446,1 1,1 h 3 v 3 c 0,0.554 0.446,1 1,1 h 2 c 0.554,0 1,-0.446 1,-1 v -3 h 3 c 0.554,0 1,-0.446 1,-1 v -2 c 0,-0.554 -0.446,-1 -1,-1 h -3 v -3 c 0,-0.554 -0.446,-1 -1,-1 z m 19,0 c -1.104,0 -2,0.896 -2,2 0,1.104 0.896,2 2,2 1.104,0 2,-0.896 2,-2 0,-1.104 -0.896,-2 -2,-2 z m -4,4 c -1.104,0 -2,0.896 -2,2 0,1.104 0.896,2 2,2 1.104,0 2,-0.896 2,-2 0,-1.104 -0.896,-2 -2,-2 z m 8,0 c -1.104,0 -2,0.896 -2,2 0,1.104 0.896,2 2,2 1.104,0 2,-0.896 2,-2 0,-1.104 -0.896,-2 -2,-2 z m -4,4 c -1.104,0 -2,0.896 -2,2 0,1.104 0.896,2 2,2 1.104,0 2,-0.896 2,-2 0,-1.104 -0.896,-2 -2,-2 z"
         style="opacity:0.2;fill:#000000;stroke-width:2"
         id="path3239" />
      <path
         d="m 310,162 c -0.554,0 -1,0.446 -1,1 v 3 h -3 c -0.554,0 -1,0.446 -1,1 v 2 c 0,0.554 0.446,1 1,1 h 3 v 3 c 0,0.554 0.446,1 1,1 h 2 c 0.554,0 1,-0.446 1,-1 v -3 h 3 c 0.554,0 1,-0.446 1,-1 v -2 c 0,-0.554 -0.446,-1 -1,-1 h -3 v -3 c 0,-0.554 -0.446,-1 -1,-1 z m 19,0 c -1.104,0 -2,0.896 -2,2 0,1.104 0.896,2 2,2 1.104,0 2,-0.896 2,-2 0,-1.104 -0.896,-2 -2,-2 z m -4,4 c -1.104,0 -2,0.896 -2,2 0,1.104 0.896,2 2,2 1.104,0 2,-0.896 2,-2 0,-1.104 -0.896,-2 -2,-2 z m 8,0 c -1.104,0 -2,0.896 -2,2 0,1.104 0.896,2 2,2 1.104,0 2,-0.896 2,-2 0,-1.104 -0.896,-2 -2,-2 z m -4,4 c -1.104,0 -2,0.896 -2,2 0,1.104 0.896,2 2,2 1.104,0 2,-0.896 2,-2 0,-1.104 -0.896,-2 -2,-2 z"
         style="fill:#ffffff;stroke-width:1"
         id="path3211" />
    </g>
  </g>
  <g
     id="Highlights">
    <path
       id="rect653"
       style="opacity:0.2;fill:#ffffff"
       d="M 80,44 C 53.408027,44 32,65.408027 32,92 v 2 C 32,67.408027 53.408027,46 80,46 h 128 c 26.59197,0 48,21.408027 48,48 V 92 C 256,65.408027 234.59197,44 208,44 Z"
       sodipodi:nodetypes="sscsscsss" />
    <path
       id="rect773"
       style="opacity:0.2;fill:#ffffff"
       d="m 312,34 c -9.97199,0 -18,8.02801 -18,18 v 1 c 0,-9.97199 8.02801,-18 18,-18 h 48 c 9.97199,0 18,8.02801 18,18 v -1 c 0,-9.97199 -8.02801,-18 -18,-18 z" />
    <path
       id="rect1135"
       style="opacity:0.2;fill:#ffffff;fill-opacity:1"
       d="m 304,144 c -6.64799,0 -12,5.35201 -12,12 v 1 c 0,-6.64799 5.35201,-12 12,-12 h 32 c 6.64799,0 12,5.35201 12,12 v -1 c 0,-6.64799 -5.35201,-12 -12,-12 z" />
    <path
       id="rect1265"
       style="opacity:0.2;fill:#ffffff;fill-opacity:1"
       d="m 300,223 c -4.986,0 -9,4.014 -9,9 v 1 c 0,-4.986 4.014,-9 9,-9 h 24 c 4.986,0 9,4.014 9,9 v -1 c 0,-4.986 -4.014,-9 -9,-9 z" />
    <path
       id="rect1368"
       style="opacity:0.2;fill:#ffffff;fill-opacity:1"
       d="m 424,54 c -3.324,0 -6,2.676003 -6,6 v 1 c 0,-3.323997 2.676,-6 6,-6 h 16 c 3.324,0 6,2.676003 6,6 v -1 c 0,-3.323997 -2.676,-6 -6,-6 z" />
    <path
       id="rect1402"
       style="opacity:0.2;fill:#ffffff;fill-opacity:1"
       d="m 420,140 c -2.216,0 -4,1.784 -4,4 v 1 c 0,-2.216 1.784,-4 4,-4 h 8 c 2.216,0 4,1.784 4,4 v -1 c 0,-2.216 -1.784,-4 -4,-4 z" />
    <path
       id="rect1436"
       style="opacity:0.2;fill:#ffffff;fill-opacity:1"
       d="m 422,102 c -2.216,0 -4,1.784 -4,4 v 1 c 0,-2.216 1.784,-4 4,-4 h 12 c 2.216,0 4,1.784 4,4 v -1 c 0,-2.216 -1.784,-4 -4,-4 z" />
  </g>
</svg>
