<?xml version="1.0" encoding="UTF-8" standalone="no"?>
<!-- Created with Inkscape (http://www.inkscape.org/) -->

<svg
   width="480"
   height="300"
   viewBox="0 0 480 300"
   version="1.1"
   id="svg5"
   inkscape:version="1.2.2 (1:1.2.2+202305151914+b0a8486541)"
   sodipodi:docname="applications-science.svg"
   xmlns:inkscape="http://www.inkscape.org/namespaces/inkscape"
   xmlns:sodipodi="http://sodipodi.sourceforge.net/DTD/sodipodi-0.dtd"
   xmlns="http://www.w3.org/2000/svg"
   xmlns:svg="http://www.w3.org/2000/svg">
  <sodipodi:namedview
     id="namedview7"
     pagecolor="#888888"
     bordercolor="#000000"
     borderopacity="0.25"
     inkscape:showpageshadow="true"
     inkscape:pageopacity="0"
     inkscape:pagecheckerboard="0"
     inkscape:deskcolor="#888888"
     inkscape:document-units="px"
     showgrid="false"
     showborder="false"
     inkscape:zoom="2.6866667"
     inkscape:cx="240.07444"
     inkscape:cy="150"
     inkscape:window-width="1920"
     inkscape:window-height="1008"
     inkscape:window-x="0"
     inkscape:window-y="0"
     inkscape:window-maximized="1"
     inkscape:current-layer="svg5" />
  <defs
     id="defs2" />
  <g
     id="Baseplate"
     style="display:none">
    <text
       y="19.774782"
       xml:space="preserve"
       x="15.006946"
       style="font-style:normal;font-variant:normal;font-weight:normal;font-stretch:normal;line-height:0%;font-family:'DejaVu Sans';-inkscape-font-specification:'DejaVu Sans';display:inline;fill:#000000;fill-opacity:1;stroke:none;enable-background:new"
       inkscape:label="context"
       id="context"><tspan
         style="font-style:normal;font-variant:normal;font-weight:normal;font-stretch:normal;font-size:18px;line-height:1.25;font-family:'DejaVu Sans';-inkscape-font-specification:'DejaVu Sans'"
         y="19.774782"
         x="15.006946"
         sodipodi:role="line"
         id="tspan3933">categories</tspan></text>
    <text
       y="19.774782"
       xml:space="preserve"
       x="122.48839"
       style="font-style:normal;font-variant:normal;font-weight:bold;font-stretch:normal;line-height:0%;font-family:'DejaVu Sans';-inkscape-font-specification:'DejaVu Sans Bold';text-align:start;writing-mode:lr-tb;text-anchor:start;display:inline;fill:#000000;fill-opacity:1;stroke:none;enable-background:new"
       inkscape:label="icon-name"
       id="icon-name"><tspan
         style="font-style:normal;font-variant:normal;font-weight:bold;font-stretch:normal;font-size:18px;line-height:1.25;font-family:'DejaVu Sans';-inkscape-font-specification:'DejaVu Sans Bold'"
         y="19.774782"
         x="122.48839"
         sodipodi:role="line"
         id="tspan3937">applications-science</tspan></text>
    <rect
       style="fill:#ffffff"
       id="256x256"
       width="256"
       height="256"
       x="16"
       y="28" />
    <rect
       style="fill:#ffffff"
       id="96x96"
       width="96"
       height="96"
       x="288"
       y="28" />
    <rect
       style="fill:#ffffff"
       id="64x64"
       width="64"
       height="64"
       x="288"
       y="140" />
    <rect
       style="fill:#ffffff"
       id="48x48"
       width="48"
       height="48"
       x="288"
       y="220" />
    <rect
       style="fill:#ffffff"
       id="32x32"
       width="32"
       height="32"
       x="416"
       y="52" />
    <rect
       style="fill:#ffffff"
       id="24x24"
       width="24"
       height="24"
       x="416"
       y="100" />
    <rect
       style="fill:#ffffff"
       id="22x22"
       width="22"
       height="22"
       x="417"
       y="101" />
    <rect
       style="fill:#ffffff"
       id="16x16"
       width="16"
       height="16"
       x="416"
       y="140" />
  </g>
  <g
     id="Shadow">
    <rect
       style="opacity:0.2;fill:#000000"
       id="rect651"
       width="224"
       height="224"
       x="32"
       y="46"
       ry="48" />
    <rect
       style="opacity:0.2;fill:#000000"
       id="rect769"
       width="84"
       height="85"
       x="294"
       y="34"
       ry="18" />
    <rect
       style="opacity:0.2;fill:#000000;fill-opacity:1"
       id="rect1131"
       width="56"
       height="56"
       x="292"
       y="145"
       ry="12" />
    <rect
       style="opacity:0.2;fill:#000000;fill-opacity:1"
       id="rect1261"
       width="42"
       height="42"
       x="291"
       y="224"
       ry="9" />
    <rect
       style="opacity:0.2;fill:#000000;fill-opacity:1"
       id="rect1364"
       width="28"
       height="29"
       x="418"
       y="54"
       ry="6" />
    <rect
       style="opacity:0.2;fill:#000000;fill-opacity:1"
       id="rect1398"
       width="16"
       height="16"
       x="416"
       y="141"
       ry="4" />
    <rect
       style="opacity:0.2;fill:#000000;fill-opacity:1"
       id="rect1432"
       width="20"
       height="20"
       x="418"
       y="103"
       ry="4" />
  </g>
  <g
     id="Background">
    <rect
       style="fill:#48cac2;fill-opacity:1"
       id="rect597"
       width="224"
       height="224"
       x="32"
       y="44"
       ry="48" />
    <rect
       style="opacity:1;fill:#48cac2;fill-opacity:1"
       id="rect771"
       width="84"
       height="84"
       x="294"
       y="34"
       ry="18" />
    <rect
       style="opacity:1;fill:#48cac2;fill-opacity:1"
       id="rect1133"
       width="56"
       height="56"
       x="292"
       y="144"
       ry="12" />
    <rect
       style="opacity:1;fill:#48cac2;fill-opacity:1"
       id="rect1263"
       width="42"
       height="42"
       x="291"
       y="223"
       ry="9" />
    <rect
       style="opacity:1;fill:#48cac2;fill-opacity:1"
       id="rect1366"
       width="28"
       height="28"
       x="418"
       y="54"
       ry="6" />
    <rect
       style="opacity:1;fill:#48cac2;fill-opacity:1"
       id="rect1400"
       width="16"
       height="16"
       x="416"
       y="140"
       ry="4" />
    <rect
       style="opacity:1;fill:#48cac2;fill-opacity:1"
       id="rect1434"
       width="20"
       height="20"
       x="418"
       y="102"
       ry="4" />
  </g>
  <g
     id="g3544">
    <g
       id="g3185">
      <path
         d="m 424.00006,143.5 c -0.45791,4.4e-4 -0.85702,0.31184 -0.9688,0.7559 -0.4994,0.2746 -0.9195,0.7491 -1.2363,1.3193 -0.2183,0.3929 -0.3935,0.8426 -0.5254,1.3301 -0.4364,0.2534 -0.8256,0.5392 -1.1484,0.8515 -0.7471,0.7229 -1.1928,1.6354 -0.9512,2.5371 0.2416,0.9021 1.0844,1.4701 2.0928,1.7231 0.11845,0.0297 0.24089,0.0544 0.36523,0.0762 0.0531,0.114 0.10791,0.22569 0.16699,0.33203 0.5049,0.909 1.2715,1.575 2.2051,1.575 0.93355,0 1.7002,-0.66647 2.2051,-1.5752 0.21831,-0.39295 0.39349,-0.84257 0.52539,-1.3301 0.43639,-0.25345 0.8256,-0.5392 1.1484,-0.85156 0.23818,-0.23044 0.44106,-0.48163 0.60547,-0.74414 0.005,3.8e-4 0.0107,7.1e-4 0.016,10e-4 0.55228,0 1,-0.44772 1,-1 -5.6e-4,-0.44823 -0.2993,-0.84133 -0.731,-0.9619 -0.298,-0.8025 -1.089,-1.3187 -2.032,-1.5547 -0.118,-0.0297 -0.241,-0.0544 -0.365,-0.0762 -0.053,-0.114 -0.108,-0.2257 -0.167,-0.332 -0.3167,-0.5702 -0.7368,-1.0447 -1.2362,-1.3193 -0.11178,-0.44406 -0.51089,-0.75546 -0.9688,-0.7559 z m -0.6631,1.7471 c 0.18268,0.16254 0.41858,0.25251 0.6631,0.2529 0.24232,-5e-4 0.47622,-0.089 0.6582,-0.249 0.1811,0.13471 0.3597,0.3183 0.5264,0.5693 -0.6245,0.0103 -1.2866,0.1015 -1.961,0.2822 -0.231,0.0619 -0.4532,0.1343 -0.6709,0.212 0.0393,-0.0836 0.0738,-0.1776 0.1162,-0.254 0.206,-0.3707 0.434,-0.6386 0.668,-0.8134 z m 1.7754,1.5752 c 0.19065,-0.006 0.36821,0.006 0.5459,0.0166 0.2087,0.6223 0.3418,1.36001 0.3418,2.1611 0,0.50381 -0.0584,0.9785 -0.1475,1.4219 -0.405,0.2011 -0.8485,0.3791 -1.3349,0.5101 -0.7738,0.207 -1.5207,0.27 -2.1758,0.229 -0.2087,-0.622 -0.3418,-1.3599 -0.3418,-2.161 0,-0.5038 0.0584,-0.9785 0.1475,-1.4219 0.405,-0.2007 0.8485,-0.3794 1.3349,-0.5097 0.5639,-0.1511 1.1176,-0.2302 1.6299,-0.2461 z m 1.6527,0.2109 c 0.53693,0.18039 0.86963,0.45442 1.0234,0.76562 -0.1843,0.18689 -0.28774,0.43873 -0.288,0.7012 2.1e-4,0.17104 0.0443,0.33916 0.128,0.48831 -0.112,0.17509 -0.256,0.3551 -0.444,0.5371 -0.063,0.0606 -0.145,0.1182 -0.215,0.1777 0.018,-0.2304 0.031,-0.4638 0.031,-0.70311 0,-0.6981 -0.084,-1.36099 -0.235,-1.9668 z m -2.765,0.4668 c -0.82843,0 -1.5,0.67157 -1.5,1.5 0,0.82843 0.67157,1.5 1.5,1.5 0.82843,0 1.5,-0.67157 1.5,-1.5 0,-0.82843 -0.67157,-1.5 -1.5,-1.5 z m -2.9688,0.7969 c -0.0186,0.2304 -0.0312,0.4638 -0.0312,0.7031 0,0.69811 0.0837,1.361 0.2354,1.96701 -0.6317,-0.212 -0.9967,-0.5513 -1.0987,-0.93181 -0.1157,-0.43199 0.0878,-0.98789 0.6797,-1.56059 0.0627,-0.0606 0.1444,-0.1182 0.2148,-0.17771 z m 4.416,3.3887 c -0.0393,0.0836 -0.0738,0.17754 -0.11621,0.25391 -0.3999,0.719 -0.8838,1.06 -1.331,1.06 -0.39383,0 -0.81617,-0.26541 -1.1846,-0.82031 0.62447,-0.0103 1.2865,-0.10152 1.9609,-0.28223 0.23104,-0.0619 0.45327,-0.13428 0.6709,-0.21191 z"
         style="fill:#000000;opacity:0.2"
         id="path3067"
         sodipodi:nodetypes="cccccccccscccccccccccccccccccccccscccscccccccccsccssssscsccccccscccc" />
      <path
         d="m 424.00006,143 c -0.45791,4.4e-4 -0.85702,0.31184 -0.9688,0.7559 -0.4994,0.2746 -0.9195,0.7491 -1.2363,1.3193 -0.2183,0.3929 -0.3935,0.8426 -0.5254,1.3301 -0.4364,0.2534 -0.8256,0.5392 -1.1484,0.8515 -0.7471,0.7229 -1.1928,1.6354 -0.9512,2.5371 0.2416,0.9021 1.0844,1.4701 2.0928,1.7231 0.11845,0.0297 0.24089,0.0544 0.36523,0.0762 0.0531,0.114 0.10791,0.22569 0.16699,0.33203 0.5049,0.909 1.2715,1.575 2.2051,1.575 0.93355,0 1.7002,-0.66647 2.2051,-1.5752 0.21831,-0.39295 0.39349,-0.84257 0.52539,-1.3301 0.43639,-0.25345 0.8256,-0.5392 1.1484,-0.85156 0.23818,-0.23044 0.44106,-0.48163 0.60547,-0.74414 0.005,3.8e-4 0.0107,7.1e-4 0.016,10e-4 0.55228,0 1,-0.44772 1,-1 -5.6e-4,-0.44823 -0.2993,-0.84133 -0.731,-0.9619 -0.298,-0.8025 -1.089,-1.3187 -2.032,-1.5547 -0.118,-0.0297 -0.241,-0.0544 -0.365,-0.0762 -0.053,-0.114 -0.108,-0.2257 -0.167,-0.332 -0.3167,-0.5702 -0.7368,-1.0447 -1.2362,-1.3193 -0.11178,-0.44406 -0.51089,-0.75546 -0.9688,-0.7559 z m -0.6631,1.7471 c 0.18268,0.16254 0.41858,0.25251 0.6631,0.2529 0.24232,-5e-4 0.47622,-0.089 0.6582,-0.249 0.1811,0.13471 0.3597,0.3183 0.5264,0.5693 -0.6245,0.0103 -1.2866,0.1015 -1.961,0.2822 -0.231,0.0619 -0.4532,0.1343 -0.6709,0.212 0.0393,-0.0836 0.0738,-0.1776 0.1162,-0.254 0.206,-0.3707 0.434,-0.6386 0.668,-0.8134 z m 1.7754,1.5752 c 0.19065,-0.006 0.36821,0.006 0.5459,0.0166 0.2087,0.6223 0.3418,1.36001 0.3418,2.1611 0,0.50381 -0.0584,0.9785 -0.1475,1.4219 -0.405,0.2011 -0.8485,0.3791 -1.3349,0.5101 -0.7738,0.207 -1.5207,0.27 -2.1758,0.229 -0.2087,-0.622 -0.3418,-1.3599 -0.3418,-2.161 0,-0.5038 0.0584,-0.9785 0.1475,-1.4219 0.405,-0.2007 0.8485,-0.3794 1.3349,-0.5097 0.5639,-0.1511 1.1176,-0.2302 1.6299,-0.2461 z m 1.6527,0.2109 c 0.53693,0.18039 0.86963,0.45442 1.0234,0.76562 -0.1843,0.18689 -0.28774,0.43873 -0.288,0.7012 2.1e-4,0.17104 0.0443,0.33916 0.128,0.48831 -0.112,0.17509 -0.256,0.3551 -0.444,0.5371 -0.063,0.0606 -0.145,0.1182 -0.215,0.1777 0.018,-0.2304 0.031,-0.4638 0.031,-0.70311 0,-0.6981 -0.084,-1.36099 -0.235,-1.9668 z m -2.765,0.4668 c -0.82843,0 -1.5,0.67157 -1.5,1.5 0,0.82843 0.67157,1.5 1.5,1.5 0.82843,0 1.5,-0.67157 1.5,-1.5 0,-0.82843 -0.67157,-1.5 -1.5,-1.5 z m -2.9688,0.7969 c -0.0186,0.2304 -0.0312,0.4638 -0.0312,0.7031 0,0.69811 0.0837,1.361 0.2354,1.96701 -0.6317,-0.212 -0.9967,-0.5513 -1.0987,-0.93181 -0.1157,-0.43199 0.0878,-0.98789 0.6797,-1.56059 0.0627,-0.0606 0.1444,-0.1182 0.2148,-0.17771 z m 4.416,3.3887 c -0.0393,0.0836 -0.0738,0.17754 -0.11621,0.25391 -0.3999,0.719 -0.8838,1.06 -1.331,1.06 -0.39383,0 -0.81617,-0.26541 -1.1846,-0.82031 0.62447,-0.0103 1.2865,-0.10152 1.9609,-0.28223 0.23104,-0.0619 0.45327,-0.13428 0.6709,-0.21191 z"
         style="fill:#ffffff"
         id="path3123" />
      <path
         d="m 424.00006,143 c -0.55228,0 -1,0.44772 -1,1 0,0.55229 0.44772,1 1,1 0.55228,0 1,-0.44771 1,-1 0,-0.55228 -0.44772,-1 -1,-1 z m 0,4 c -0.82843,0 -1.5,0.67157 -1.5,1.5 0,0.82843 0.67157,1.5 1.5,1.5 0.82843,0 1.5,-0.67157 1.5,-1.5 0,-0.82843 -0.67157,-1.5 -1.5,-1.5 z m 4.5,0 c -0.55229,0 -1,0.44772 -1,1 0,0.55228 0.44771,1 1,1 0.55228,0 1,-0.44772 1,-1 0,-0.55228 -0.44772,-1 -1,-1 z"
         style="opacity:0.7;fill:#000000"
         id="path3095" />
    </g>
    <g
       id="g3190">
      <path
         d="m 427.49976,105.50001 c -0.82828,0 -1.49974,0.67157 -1.49974,1.49999 4.3e-4,0.10808 0.0125,0.21581 0.0361,0.32129 -0.3576,0.32351 -0.67504,0.72644 -0.94224,1.18453 -0.2944,0.50475 -0.53256,1.08509 -0.71373,1.71579 -0.56296,0.33848 -1.06182,0.71939 -1.4734,1.13474 -0.96264,0.97144 -1.4944,2.16887 -1.18435,3.32611 0.31004,1.15729 1.36872,1.92913 2.68804,2.28903 0.14972,0.0408 0.30454,0.0754 0.46184,0.10644 0.0705,0.14339 0.14373,0.28341 0.22164,0.41699 0.68938,1.18149 1.70821,2.00498 2.90601,2.00498 1.19789,0 2.21767,-0.82349 2.90675,-2.00488 0.2945,-0.50495 0.53276,-1.08559 0.71373,-1.71678 0.56216,-0.33801 1.06122,-0.71885 1.4724,-1.13379 0.35288,-0.35611 0.64619,-0.74254 0.86316,-1.14649 0.0141,8.5e-4 0.0283,0.002 0.0425,0.002 0.82829,0 1.49975,-0.67157 1.49975,-1.49999 0,-0.82841 -0.67146,-1.49998 -1.49975,-1.49998 -0.0339,1.5e-4 -0.0677,0.001 -0.10154,0.004 -0.4926,-0.71149 -1.32858,-1.20709 -2.30916,-1.47459 -0.14905,-0.0407 -0.30333,-0.0745 -0.45988,-0.10546 -0.0706,-0.14364 -0.14359,-0.28414 -0.22165,-0.41797 -0.49439,-0.84764 -1.16155,-1.50503 -1.94012,-1.81248 -0.145,-0.69481 -0.75708,-1.19285 -1.46675,-1.19349 z m 1.31718,2.21678 c 0.38724,0.20861 0.75432,0.57095 1.08187,1.06934 -0.92205,-0.0327 -1.91868,0.0785 -2.93405,0.35058 -0.45035,0.12069 -0.88045,0.26778 -1.28984,0.43554 0.088,-0.19845 0.18102,-0.38905 0.28218,-0.56249 0.19246,-0.32998 0.40301,-0.60254 0.6239,-0.82614 0.26273,0.20439 0.58598,0.31556 0.91884,0.31599 0.54933,-1e-5 1.0547,-0.3004 1.31728,-0.78299 z m 0.61415,2.06543 c 0.34937,-0.007 0.68558,0.008 1.00373,0.0439 0.35044,0.89199 0.5639,1.98848 0.5639,3.17347 0,0.75159 -0.0876,1.46594 -0.24019,2.11718 -0.58945,0.31603 -1.25689,0.58564 -1.98307,0.78024 -1.1438,0.30653 -2.25886,0.3843 -3.21135,0.27636 -0.35094,-0.89249 -0.56441,-1.98948 -0.56441,-3.17396 0,-0.7516 0.0877,-1.46614 0.2402,-2.11718 0.5895,-0.31596 1.25714,-0.5857 1.98306,-0.78025 0.76202,-0.20421 1.51104,-0.30657 2.20763,-0.3203 z m 2.14808,0.29199 c 0.6104,0.20232 1.07427,0.49392 1.37577,0.84864 l -0.001,0.001 c -0.29098,0.28235 -0.45527,0.6705 -0.45542,1.07599 2.7e-4,0.43376 0.18827,0.84617 0.51551,1.13084 -0.15838,0.26897 -0.36619,0.54059 -0.6327,0.80954 -0.14128,0.14258 -0.30179,0.2816 -0.47062,0.41797 0.056,-0.439 0.088,-0.89249 0.088,-1.35849 0,-1.05149 -0.14997,-2.04348 -0.41993,-2.92597 z m -3.57989,0.92549 c -1.10438,0 -1.99966,0.89542 -1.99966,1.99998 0,1.10456 0.89528,1.99998 1.99966,1.99998 1.10438,0 1.99966,-0.89542 1.99966,-1.99998 0,-1.10456 -0.89528,-1.99998 -1.99966,-1.99998 z m -3.91144,0.64159 c -0.056,0.439 -0.088,0.89249 -0.088,1.35849 0,1.05164 0.15051,2.04398 0.42083,2.92672 -0.95589,-0.31639 -1.55909,-0.84974 -1.73411,-1.50293 -0.19017,-0.7099 0.12271,-1.55004 0.92955,-2.36423 0.14153,-0.14282 0.30238,-0.28136 0.47159,-0.41797 z m 6.23644,4.78611 c -0.0881,0.1988 -0.18088,0.38979 -0.28217,0.56349 -0.5775,0.99019 -1.30783,1.50973 -2.04261,1.50973 -0.67598,0 -1.34617,-0.44478 -1.89907,-1.28613 0.92224,0.0323 1.91867,-0.0794 2.93405,-0.35156 0.45041,-0.12071 0.88045,-0.26787 1.28983,-0.43554 z"
         style="fill:#000000;stroke-width:0.99995;opacity:0.2"
         id="path2631"
         sodipodi:nodetypes="cccscsssccsscscssccscscccccscsccccccscscscsccccsccscsccssssscscssscssscsss" />
      <path
         d="m 427.49979,105.00006 c -0.82828,0 -1.49974,0.67157 -1.49974,1.49999 4.3e-4,0.10808 0.0125,0.21581 0.0361,0.32129 -0.3576,0.32351 -0.67504,0.72644 -0.94224,1.18453 -0.2944,0.50475 -0.53256,1.08509 -0.71373,1.71579 -0.56296,0.33848 -1.06182,0.71939 -1.4734,1.13474 -0.96264,0.97144 -1.4944,2.16887 -1.18435,3.32611 0.31004,1.15729 1.36872,1.92913 2.68804,2.28903 0.14972,0.0408 0.30454,0.0754 0.46184,0.10644 0.0705,0.14339 0.14373,0.28341 0.22164,0.41699 0.68938,1.18149 1.70821,2.00498 2.90601,2.00498 1.19789,0 2.21767,-0.82349 2.90675,-2.00488 0.2945,-0.50495 0.53276,-1.08559 0.71373,-1.71678 0.56216,-0.33801 1.06122,-0.71885 1.4724,-1.13379 0.35288,-0.35611 0.64619,-0.74254 0.86316,-1.14649 0.0141,8.5e-4 0.0283,0.002 0.0425,0.002 0.82829,0 1.49975,-0.67157 1.49975,-1.49999 0,-0.82841 -0.67146,-1.49998 -1.49975,-1.49998 -0.0339,1.5e-4 -0.0677,0.001 -0.10154,0.004 -0.4926,-0.71149 -1.32858,-1.20709 -2.30916,-1.47459 -0.14905,-0.0407 -0.30333,-0.0745 -0.45988,-0.10546 -0.0706,-0.14364 -0.14359,-0.28414 -0.22165,-0.41797 -0.49439,-0.84764 -1.16155,-1.50503 -1.94012,-1.81248 -0.145,-0.69481 -0.75708,-1.19285 -1.46675,-1.19349 z m 1.31718,2.21678 c 0.38724,0.20861 0.75432,0.57095 1.08187,1.06934 -0.92205,-0.0327 -1.91868,0.0785 -2.93405,0.35058 -0.45035,0.12069 -0.88045,0.26778 -1.28984,0.43554 0.088,-0.19845 0.18102,-0.38905 0.28218,-0.56249 0.19246,-0.32998 0.40301,-0.60254 0.6239,-0.82614 0.26273,0.20439 0.58598,0.31556 0.91884,0.31599 0.54933,-1e-5 1.0547,-0.3004 1.31728,-0.78299 z m 0.61415,2.06543 c 0.34937,-0.007 0.68558,0.008 1.00373,0.0439 0.35044,0.89199 0.5639,1.98848 0.5639,3.17347 0,0.75159 -0.0876,1.46594 -0.24019,2.11718 -0.58945,0.31603 -1.25689,0.58564 -1.98307,0.78024 -1.1438,0.30653 -2.25886,0.3843 -3.21135,0.27636 -0.35094,-0.89249 -0.56441,-1.98948 -0.56441,-3.17396 0,-0.7516 0.0877,-1.46614 0.2402,-2.11718 0.5895,-0.31596 1.25714,-0.5857 1.98306,-0.78025 0.76202,-0.20421 1.51104,-0.30657 2.20763,-0.3203 z m 2.14808,0.29199 c 0.6104,0.20232 1.07427,0.49392 1.37577,0.84864 l -10e-4,0.001 c -0.29098,0.28235 -0.45527,0.6705 -0.45542,1.07599 2.7e-4,0.43376 0.18827,0.84617 0.51551,1.13084 -0.15838,0.26897 -0.36619,0.54059 -0.6327,0.80954 -0.14128,0.14258 -0.30179,0.2816 -0.47062,0.41797 0.056,-0.439 0.088,-0.89249 0.088,-1.35849 0,-1.05149 -0.14997,-2.04348 -0.41993,-2.92597 z m -3.57989,0.92549 c -1.10438,0 -1.99966,0.89542 -1.99966,1.99998 0,1.10456 0.89528,1.99998 1.99966,1.99998 1.10438,0 1.99966,-0.89542 1.99966,-1.99998 0,-1.10456 -0.89528,-1.99998 -1.99966,-1.99998 z m -3.91144,0.64159 c -0.056,0.439 -0.088,0.89249 -0.088,1.35849 0,1.05164 0.15051,2.04398 0.42083,2.92672 -0.95589,-0.31639 -1.55909,-0.84974 -1.73411,-1.50293 -0.19017,-0.7099 0.12271,-1.55004 0.92955,-2.36423 0.14153,-0.14282 0.30238,-0.28136 0.47159,-0.41797 z m 6.23644,4.78611 c -0.0881,0.1988 -0.18088,0.38979 -0.28217,0.56349 -0.5775,0.99019 -1.30783,1.50973 -2.04261,1.50973 -0.67598,0 -1.34617,-0.44478 -1.89907,-1.28613 0.92224,0.0323 1.91867,-0.0794 2.93405,-0.35156 0.45041,-0.12071 0.88045,-0.26787 1.28983,-0.43554 z"
         style="fill:#ffffff;stroke-width:0.99995"
         id="path2733" />
      <path
         d="m 427.49888,105.00042 c -0.82833,6e-5 -1.4998,0.67161 -1.4998,1.5 0,0.82839 0.67147,1.49994 1.4998,1.5 0.82841,6e-5 1.5,-0.67153 1.5,-1.5 0,-0.82847 -0.67159,-1.50006 -1.5,-1.5 z m 6.4994,5 c -0.82802,5e-4 -1.499,0.67192 -1.499,1.5 0,0.82808 0.67098,1.4995 1.499,1.5 0.82841,6e-5 1.5,-0.67153 1.5,-1.5 0,-0.82847 -0.67159,-1.50006 -1.5,-1.5 z m -5.999,0.5 c -1.10446,0 -1.9998,0.89543 -1.9998,2 0,1.10457 0.89534,2 1.9998,2 1.10454,1.1e-4 2,-0.89535 2,-2 0,-1.10465 -0.89546,-2.00011 -2,-2 z"
         style="opacity:0.7;fill:#000000"
         id="path2659" />
    </g>
    <g
       id="g3514">
      <path
         d="m 432.00017,59 c -0.91576,9.04e-4 -1.71392,0.623654 -1.9375,1.5117 -0.99888,0.54929 -1.8392,1.4984 -2.4727,2.6387 -0.43662,0.78591 -0.78698,1.6851 -1.0508,2.6602 -0.87278,0.50691 -1.6512,1.0784 -2.2969,1.7031 -1.4942,1.4457 -2.3856,3.2707 -1.9023,5.0742 0.48324,1.8035 2.1687,2.9404 4.1855,3.4453 0.2369,0.05931 0.48179,0.10872 0.73047,0.15234 0.10615,0.228 0.21583,0.45138 0.33398,0.66406 1.011,1.818 2.544,3.151 4.411,3.151 1.8671,0 3.4005,-1.3329 4.4102,-3.1504 0.43662,-0.78591 0.78698,-1.6851 1.0508,-2.6602 0.87278,-0.50691 1.6512,-1.0784 2.2969,-1.7031 0.47636,-0.46089 0.88212,-0.96326 1.2109,-1.4883 0.0103,7.47e-4 0.0207,0.0014 0.031,0.002 1.10457,0 2,-0.895431 2,-2 -10e-4,-0.896806 -0.59912,-1.683208 -1.463,-1.924 -0.595,-1.605 -2.177,-2.637 -4.062,-3.109 -0.237,-0.06 -0.482,-0.109 -0.731,-0.153 -0.106,-0.228 -0.216,-0.451 -0.334,-0.664 -0.633,-1.1399 -1.474,-2.089 -2.472,-2.6383 -0.22363,-0.888226 -1.02206,-1.511024 -1.938,-1.5117 z m -1.326,3.4941 c 0.36529,0.325061 0.83702,0.505035 1.326,0.5059 0.48451,-0.0011 0.95214,-0.178077 1.316,-0.498 0.36221,0.26954 0.71942,0.63661 1.0527,1.1387 -1.2489,0.0206 -2.5731,0.20304 -3.9219,0.56445 -0.46207,0.12381 -0.90655,0.26856 -1.3418,0.42383 0.0786,-0.16716 0.14757,-0.35508 0.23242,-0.50781 0.41189,-0.7414 0.86799,-1.2773 1.3359,-1.627 z m 3.5508,3.1504 c 0.3813,-0.01182 0.73643,0.01124 1.0918,0.0332 0.417,1.245 0.683,2.721 0.683,4.323 0,1.0076 -0.11679,1.9571 -0.29492,2.8438 -0.81012,0.40135 -1.6971,0.75886 -2.6699,1.0195 -1.5475,0.41466 -3.0413,0.53995 -4.3516,0.45898 -0.418,-1.244 -0.684,-2.72 -0.684,-4.322 0,-1.0076 0.11679,-1.9571 0.29492,-2.8438 0.81012,-0.40135 1.6971,-0.75886 2.6699,-1.0195 1.1278,-0.30219 2.2352,-0.46042 3.2598,-0.49219 z m 3.3047,0.42188 c 1.0739,0.36076 1.7393,0.90885 2.0469,1.5312 -0.36912,0.373746 -0.57638,0.877707 -0.577,1.403 3.8e-4,0.342043 0.0885,0.678274 0.25586,0.97656 -0.22373,0.35027 -0.51255,0.71031 -0.88867,1.0742 -0.125,0.121 -0.289,0.236 -0.429,0.355 0.037,-0.461 0.062,-0.927 0.062,-1.406 0,-1.396 -0.167,-2.722 -0.471,-3.934 z m -5.53,0.934 c -1.65685,0 -3,1.343146 -3,3 0,1.656854 1.34315,3 3,3 1.65685,0 3,-1.343146 3,-3 0,-1.656854 -1.34315,-3 -3,-3 z m -5.9375,1.5938 c -0.037,0.461 -0.062,0.927 -0.062,1.406 0,1.3961 0.16746,2.7221 0.4707,3.9336 -1.2637,-0.425 -1.9936,-1.103 -2.1976,-1.864 -0.2314,-0.864 0.1756,-1.975 1.3594,-3.121 0.1254,-0.121 0.2889,-0.236 0.4292,-0.355 z m 8.832,6.7773 c -0.0786,0.16716 -0.14757,0.35508 -0.23242,0.50781 -0.8,1.44 -1.768,2.121 -2.662,2.121 -0.78767,0 -1.6323,-0.53083 -2.3691,-1.6406 1.2489,-0.0206 2.5731,-0.20304 3.9219,-0.56445 0.46207,-0.12381 0.90655,-0.26856 1.3418,-0.42383 z"
         style="fill:#000000;opacity:0.2"
         id="path3435"
         sodipodi:nodetypes="ccscsssccsscsccccccccccccccscsccccscscscsccccccscsccssssscsccccccsscscc" />
      <path
         d="m 432.00017,58 c -0.91576,9.04e-4 -1.71392,0.623654 -1.9375,1.5117 -0.99888,0.54929 -1.8392,1.4984 -2.4727,2.6387 -0.43662,0.78591 -0.78698,1.6851 -1.0508,2.6602 -0.87278,0.50691 -1.6512,1.0784 -2.2969,1.7031 -1.4942,1.4457 -2.3856,3.2707 -1.9023,5.0742 0.48324,1.8035 2.1687,2.9404 4.1855,3.4453 0.2369,0.05931 0.48179,0.10872 0.73047,0.15234 0.10615,0.228 0.21583,0.45138 0.33398,0.66406 1.011,1.818 2.544,3.151 4.411,3.151 1.8671,0 3.4005,-1.3329 4.4102,-3.1504 0.43662,-0.78591 0.78698,-1.6851 1.0508,-2.6602 0.87278,-0.50691 1.6512,-1.0784 2.2969,-1.7031 0.47636,-0.46089 0.88212,-0.96326 1.2109,-1.4883 0.0103,7.47e-4 0.0207,0.0014 0.031,0.002 1.10457,0 2,-0.895431 2,-2 -10e-4,-0.896806 -0.59912,-1.683208 -1.463,-1.924 -0.595,-1.605 -2.177,-2.637 -4.062,-3.109 -0.237,-0.06 -0.482,-0.109 -0.731,-0.153 -0.106,-0.228 -0.216,-0.451 -0.334,-0.664 -0.633,-1.1399 -1.474,-2.089 -2.472,-2.6383 -0.22363,-0.888226 -1.02206,-1.511024 -1.938,-1.5117 z m -1.326,3.4941 c 0.36529,0.325061 0.83702,0.505035 1.326,0.5059 0.48451,-0.0011 0.95214,-0.178077 1.316,-0.498 0.36221,0.26954 0.71942,0.63661 1.0527,1.1387 -1.2489,0.0206 -2.5731,0.20304 -3.9219,0.56445 -0.46207,0.12381 -0.90655,0.26856 -1.3418,0.42383 0.0786,-0.16716 0.14757,-0.35508 0.23242,-0.50781 0.41189,-0.7414 0.86799,-1.2773 1.3359,-1.627 z m 3.5508,3.1504 c 0.3813,-0.01182 0.73643,0.01124 1.0918,0.0332 0.417,1.245 0.683,2.721 0.683,4.323 0,1.0076 -0.11679,1.9571 -0.29492,2.8438 -0.81012,0.40135 -1.6971,0.75886 -2.6699,1.0195 -1.5475,0.41466 -3.0413,0.53995 -4.3516,0.45898 -0.418,-1.244 -0.684,-2.72 -0.684,-4.322 0,-1.0076 0.11679,-1.9571 0.29492,-2.8438 0.81012,-0.40135 1.6971,-0.75886 2.6699,-1.0195 1.1278,-0.30219 2.2352,-0.46042 3.2598,-0.49219 z m 3.3047,0.42188 c 1.0739,0.36076 1.7393,0.90885 2.0469,1.5312 -0.36912,0.373746 -0.57638,0.877707 -0.577,1.403 3.8e-4,0.342043 0.0885,0.678274 0.25586,0.97656 -0.22373,0.35027 -0.51255,0.71031 -0.88867,1.0742 -0.125,0.121 -0.289,0.236 -0.429,0.355 0.037,-0.461 0.062,-0.927 0.062,-1.406 0,-1.396 -0.167,-2.722 -0.471,-3.934 z m -5.53,0.934 c -1.65685,0 -3,1.343146 -3,3 0,1.656854 1.34315,3 3,3 1.65685,0 3,-1.343146 3,-3 0,-1.656854 -1.34315,-3 -3,-3 z m -5.9375,1.5938 c -0.037,0.461 -0.062,0.927 -0.062,1.406 0,1.3961 0.16746,2.7221 0.4707,3.9336 -1.2637,-0.425 -1.9936,-1.103 -2.1976,-1.864 -0.2314,-0.864 0.1756,-1.975 1.3594,-3.121 0.1254,-0.121 0.2889,-0.236 0.4292,-0.355 z m 8.832,6.7773 c -0.0786,0.16716 -0.14757,0.35508 -0.23242,0.50781 -0.8,1.44 -1.768,2.121 -2.662,2.121 -0.78767,0 -1.6323,-0.53083 -2.3691,-1.6406 1.2489,-0.0206 2.5731,-0.20304 3.9219,-0.56445 0.46207,-0.12381 0.90655,-0.26856 1.3418,-0.42383 z"
         style="fill:#ffffff"
         id="path3463" />
      <path
         d="m 431.99967,58.00038 c -1.10457,0 -2,0.89543 -2,2 0,1.10457 0.89543,2 2,2 1.10457,0 2,-0.89543 2,-2 0,-1.10457 -0.89543,-2 -2,-2 z m 0,8 c -1.65685,0 -3,1.343146 -3,3 0,1.656854 1.34315,3 3,3 1.65685,0 3,-1.343146 3,-3 0,-1.656854 -1.34315,-3 -3,-3 z m 9,0 c -1.10457,0 -2,0.895431 -2,2 0,1.104569 0.89543,2 2,2 1.10457,0 2,-0.895431 2,-2 0,-1.104569 -0.89543,-2 -2,-2 z"
         style="opacity:0.7;fill:#000000"
         id="path3491" />
    </g>
    <g
       id="g2168">
      <path
         id="path1910"
         style="opacity:0.2;fill:#000000;fill-opacity:1;stroke-width:2.0755;stroke-linecap:square"
         d="m 312,230 c -1.20493,0.0109 -2.28643,0.74161 -2.74609,1.85547 -2.04888,1.31316 -3.7076,4.04582 -4.58008,7.52344 -4.44374,2.47186 -7.04498,6.08039 -6.19727,9.24414 0.67993,2.53749 3.42455,4.21515 7.10742,4.73828 C 307.04246,256.78381 309.37276,259 312,259 c 3.27547,0 6.08872,-3.44656 7.32617,-8.37891 2.36347,-1.31469 4.19799,-2.95203 5.27735,-4.67187 0.13088,0.0257 0.26334,0.0427 0.39648,0.0508 1.65685,0 3,-1.34315 3,-3 0,-1.65685 -1.34315,-3 -3,-3 -0.0307,0.003 -0.0613,0.007 -0.0918,0.0117 -1.15692,-1.77361 -3.51755,-2.95052 -6.49218,-3.37305 -0.91715,-2.15218 -2.1789,-3.8264 -3.64258,-4.77344 C 314.313,230.73839 313.21728,230.00149 312,230 Z m -2.68945,4.27734 c 0.49092,1.04336 1.5364,1.71302 2.68945,1.72266 1.15305,-0.01 2.19853,-0.6793 2.68945,-1.72266 0.56557,0.56958 1.08144,1.30965 1.52735,2.19141 -1.96573,-0.0356 -4.10469,0.2199 -6.28711,0.80469 -1.00929,0.27044 -1.9746,0.59735 -2.88867,0.9707 0.57307,-1.67925 1.35513,-3.04731 2.26953,-3.9668 z m 6.84961,4.14649 c 0.29442,10e-4 0.58,0.0121 0.86328,0.0273 C 317.63868,240.33518 318,242.58186 318,245 c 0,1.51538 -0.14606,2.95998 -0.40234,4.29492 -1.22324,0.59315 -2.58101,1.10775 -4.04493,1.5 -2.33477,0.6256 -4.59769,0.86024 -6.57617,0.75391 C 306.36132,249.66482 306,247.41814 306,245 c 0,-1.51538 0.14606,-2.95998 0.40234,-4.29492 1.22324,-0.59315 2.58101,-1.10775 4.04493,-1.5 2.00047,-0.53603 3.95098,-0.78728 5.71289,-0.78125 z m 2.98828,0.29297 c 1.74554,0.36529 3.11179,1.06503 3.875,2.05078 -0.64405,0.56402 -1.01645,1.37634 -1.02344,2.23242 6.4e-4,0.79301 0.31523,1.55351 0.875,2.11523 -0.6695,1.02037 -1.72142,2.02179 -3.06641,2.92383 C 319.93244,247.06024 320,246.04403 320,245 c 0,-2.2599 -0.30815,-4.39339 -0.85156,-6.2832 z M 312,241 c -2.20914,0 -4,1.79086 -4,4 0,2.20914 1.79086,4 4,4 2.20914,0 4,-1.79086 4,-4 0,-2.20914 -1.79086,-4 -4,-4 z m -7.80859,0.96094 C 304.06756,242.93976 304,243.95597 304,245 c 0,2.2599 0.30815,4.39339 0.85156,6.2832 -2.35131,-0.49206 -4.01764,-1.58896 -4.44336,-3.17773 -0.53329,-1.99029 1.00605,-4.28197 3.78321,-6.14453 z m 12.76757,9.79492 C 315.87873,254.92129 314.06081,257 312,257 c -1.64456,0 -3.13298,-1.32552 -4.2168,-3.46875 1.96573,0.0356 4.10469,-0.2199 6.28711,-0.80469 1.00929,-0.27044 1.9746,-0.59735 2.88867,-0.9707 z"
         sodipodi:nodetypes="cccscscccscccccccccsccscscscscsscccccscssssscscsccscsc" />
      <path
         d="m 312,229 c -1.20493,0.0109 -2.28643,0.74161 -2.74609,1.85547 -2.04888,1.31316 -3.7076,4.04582 -4.58008,7.52344 -4.44374,2.47186 -7.04498,6.08039 -6.19727,9.24414 0.67993,2.53749 3.42455,4.21515 7.10742,4.73828 C 307.04246,255.78381 309.37276,258 312,258 c 3.27547,0 6.08872,-3.44656 7.32617,-8.37891 2.36347,-1.31469 4.19799,-2.95203 5.27735,-4.67187 0.13088,0.0257 0.26334,0.0427 0.39648,0.0508 1.65685,0 3,-1.34315 3,-3 0,-1.65685 -1.34315,-3 -3,-3 -0.0307,0.003 -0.0613,0.007 -0.0918,0.0117 -1.15692,-1.77361 -3.51755,-2.95052 -6.49218,-3.37305 -0.91715,-2.15218 -2.1789,-3.8264 -3.64258,-4.77344 C 314.313,229.73839 313.21728,229.00149 312,229 Z m -2.68945,4.27734 c 0.49092,1.04336 1.5364,1.71302 2.68945,1.72266 1.15305,-0.01 2.19853,-0.6793 2.68945,-1.72266 0.56557,0.56958 1.08144,1.30965 1.52735,2.19141 -1.96573,-0.0356 -4.10469,0.2199 -6.28711,0.80469 -1.00929,0.27044 -1.9746,0.59735 -2.88867,0.9707 0.57307,-1.67925 1.35513,-3.04731 2.26953,-3.9668 z m 6.84961,4.14649 c 0.29442,10e-4 0.58,0.0121 0.86328,0.0273 C 317.63868,239.33518 318,241.58186 318,244 c 0,1.51538 -0.14606,2.95998 -0.40234,4.29492 -1.22324,0.59315 -2.58101,1.10775 -4.04493,1.5 -2.33477,0.6256 -4.59769,0.86024 -6.57617,0.75391 C 306.36132,248.66482 306,246.41814 306,244 c 0,-1.51538 0.14606,-2.95998 0.40234,-4.29492 1.22324,-0.59315 2.58101,-1.10775 4.04493,-1.5 2.00047,-0.53603 3.95098,-0.78728 5.71289,-0.78125 z m 2.98828,0.29297 c 1.74554,0.36529 3.11179,1.06503 3.875,2.05078 -0.64405,0.56402 -1.01645,1.37634 -1.02344,2.23242 6.4e-4,0.79301 0.31523,1.55351 0.875,2.11523 -0.6695,1.02037 -1.72142,2.02179 -3.06641,2.92383 C 319.93244,246.06024 320,245.04403 320,244 c 0,-2.2599 -0.30815,-4.39339 -0.85156,-6.2832 z M 312,240 c -2.20914,0 -4,1.79086 -4,4 0,2.20914 1.79086,4 4,4 2.20914,0 4,-1.79086 4,-4 0,-2.20914 -1.79086,-4 -4,-4 z m -7.80859,0.96094 C 304.06756,241.93976 304,242.95597 304,244 c 0,2.2599 0.30815,4.39339 0.85156,6.2832 -2.35131,-0.49206 -4.01764,-1.58896 -4.44336,-3.17773 -0.53329,-1.99029 1.00605,-4.28197 3.78321,-6.14453 z m 12.76757,9.79492 C 315.87873,253.92129 314.06081,256 312,256 c -1.64456,0 -3.13298,-1.32552 -4.2168,-3.46875 1.96573,0.0356 4.10469,-0.2199 6.28711,-0.80469 1.00929,-0.27044 1.9746,-0.59735 2.88867,-0.9707 z"
         style="fill:#ffffff;fill-opacity:1;stroke-width:2.0755;stroke-linecap:square"
         id="path2145"
         sodipodi:nodetypes="cccscscccscccccccccsccscscscscsscccccscssssscscsccscsc" />
      <path
         id="path1941"
         style="opacity:0.7;fill:#000000;fill-opacity:1;stroke-width:2;stroke-linecap:square"
         d="m 312,229 c -1.65685,0 -3,1.34315 -3,3 0,1.65685 1.34315,3 3,3 1.65685,0 3,-1.34315 3,-3 0,-1.65685 -1.34315,-3 -3,-3 z m 13,10 c -1.65685,0 -3,1.34315 -3,3 0,1.65685 1.34315,3 3,3 1.65685,0 3,-1.34315 3,-3 0,-1.65685 -1.34315,-3 -3,-3 z m -13,1 c -2.20914,0 -4,1.79086 -4,4 0,2.20914 1.79086,4 4,4 2.20914,0 4,-1.79086 4,-4 0,-2.20914 -1.79086,-4 -4,-4 z"
         sodipodi:nodetypes="sssssssssssssss" />
    </g>
    <g
       id="g1597">
      <path
         d="m 319.99879,152 c -1.83146,0.002 -3.42774,1.24727 -3.87489,3.02331 -1.9977,1.09855 -3.67829,2.99672 -4.94526,5.27725 -0.87321,1.57178 -1.57391,3.37011 -2.10154,5.32025 -1.74551,1.01379 -3.3023,2.15674 -4.59367,3.4061 -2.98831,2.89132 -4.77106,6.54122 -3.80449,10.14811 0.96645,3.6069 4.33728,5.88064 8.37076,6.89041 0.47379,0.11861 0.96356,0.21743 1.4609,0.30467 0.21229,0.45599 0.43165,0.90273 0.66794,1.32808 2.02194,3.6359 5.08786,6.30182 8.82175,6.30182 3.73409,0 6.80081,-2.66572 8.82015,-6.30062 0.87321,-1.57178 1.57391,-3.3701 2.10154,-5.32025 1.74551,-1.01379 3.3023,-2.15674 4.59367,-3.4061 0.95269,-0.92175 1.76419,-1.92647 2.42173,-2.97652 0.0207,0.001 0.0413,0.003 0.062,0.004 2.20907,0 3.99988,-1.79081 3.99988,-3.99988 -0.002,-1.79356 -1.19821,-3.36632 -2.92591,-3.84789 -1.18997,-3.20991 -4.35388,-5.27385 -8.12377,-6.21782 -0.47399,-0.12 -0.96397,-0.218 -1.46196,-0.306 -0.212,-0.45598 -0.43199,-0.90197 -0.66798,-1.32796 -1.26597,-2.27993 -2.94792,-4.17788 -4.94386,-5.27645 -0.44724,-1.7764 -2.04405,-3.02196 -3.87589,-3.02331 z m -2.65232,6.988 c 0.73053,0.65018 1.67396,1.01019 2.65192,1.01197 0.96899,-0.002 1.90422,-0.35614 2.63192,-0.99597 0.7244,0.53906 1.4388,1.27318 2.10535,2.27733 -2.49773,0.0412 -5.14606,0.40607 -7.84358,1.12887 -0.92412,0.24761 -1.81305,0.53711 -2.68352,0.84764 0.15725,-0.33431 0.29513,-0.71014 0.46482,-1.01559 0.82376,-1.48276 1.73593,-2.55453 2.67173,-3.25391 z m 7.10139,6.30062 c 0.76258,-0.0236 1.47282,0.0225 2.18354,0.0664 0.83398,2.48993 1.36596,5.44184 1.36596,8.64575 0,2.01515 -0.23357,3.91409 -0.58982,5.68744 -1.62019,0.80268 -3.3941,1.51768 -5.33965,2.03894 -3.09491,0.8293 -6.08242,1.07987 -8.70295,0.91794 -0.83598,-2.48793 -1.36796,-5.43985 -1.36796,-8.64376 0,-2.01514 0.23357,-3.91409 0.58982,-5.68743 1.62019,-0.80268 3.3941,-1.51768 5.33965,-2.03895 2.25553,-0.60436 4.47027,-0.92081 6.51941,-0.98435 z m 6.60921,0.84374 c 2.14774,0.7215 3.4785,1.81764 4.09369,3.06231 -0.73822,0.74747 -1.15272,1.75536 -1.15397,2.80592 7.5e-4,0.68406 0.17693,1.35651 0.51171,1.95306 -0.44745,0.70052 -1.02507,1.42058 -1.77729,2.14834 -0.25,0.24199 -0.57799,0.47199 -0.85798,0.70998 0.074,-0.92197 0.124,-1.85395 0.124,-2.81192 0,-2.79192 -0.33399,-5.44384 -0.94198,-7.86777 z m -11.05968,1.86794 c -3.31361,0 -5.99983,2.68622 -5.99983,5.99983 0,3.31361 2.68622,5.99983 5.99983,5.99983 3.31361,0 5.99983,-2.68622 5.99983,-5.99983 0,-3.31361 -2.68622,-5.99983 -5.99983,-5.99983 z m -11.87466,3.18751 c -0.074,0.92197 -0.124,1.85395 -0.124,2.81192 0,2.79212 0.33491,5.44405 0.94138,7.86698 -2.52733,-0.84998 -3.98709,-2.20594 -4.39508,-3.7279 -0.46279,-1.72795 0.35119,-3.94988 2.71872,-6.24182 0.2508,-0.24199 0.57779,-0.47199 0.85838,-0.70998 z m 17.66349,13.55422 c -0.15725,0.3343 -0.29513,0.71013 -0.46482,1.01559 -1.59996,2.87991 -3.5359,4.24187 -5.32385,4.24187 -1.5753,0 -3.26451,-1.06163 -4.73806,-3.2811 2.49772,-0.0412 5.14605,-0.40607 7.84357,-1.12887 0.92411,-0.24761 1.81305,-0.5371 2.68352,-0.84764 z"
         style="opacity:0.2;fill:#000000"
         id="path405"
         sodipodi:nodetypes="ccscccsccsscsccccccccccccccscsccccscccscsccccccccsccssssscscccccccscscc" />
      <path
         d="m 320.00061,151.00151 c -1.83146,0.002 -3.42774,1.24727 -3.87489,3.02331 -1.9977,1.09855 -3.67829,2.99672 -4.94526,5.27725 -0.87321,1.57177 -1.57391,3.3701 -2.10154,5.32025 -1.74551,1.01379 -3.3023,2.15674 -4.59367,3.4061 -2.98831,2.89132 -4.77106,6.54122 -3.80449,10.14811 0.96645,3.6069 4.33728,5.88063 8.37076,6.8904 0.47379,0.11862 0.96356,0.21744 1.4609,0.30467 0.21229,0.45599 0.43165,0.90274 0.66794,1.32809 2.02194,3.63589 5.08786,6.30182 8.82175,6.30182 3.73409,0 6.80081,-2.66573 8.82015,-6.30062 0.87321,-1.57178 1.57391,-3.37011 2.10154,-5.32025 1.74551,-1.01379 3.3023,-2.15674 4.59367,-3.4061 0.95269,-0.92176 1.76419,-1.92647 2.42173,-2.97652 0.0207,0.001 0.0413,0.003 0.062,0.004 2.20907,0 3.99988,-1.79081 3.99988,-3.99988 -0.002,-1.79357 -1.19821,-3.36633 -2.92591,-3.84789 -1.18997,-3.20991 -4.35388,-5.27385 -8.12377,-6.21783 -0.47399,-0.11999 -0.96397,-0.21799 -1.46196,-0.30599 -0.212,-0.45599 -0.43199,-0.90197 -0.66798,-1.32796 -1.26597,-2.27973 -2.94792,-4.17788 -4.94386,-5.27645 -0.44724,-1.7764 -2.04405,-3.02196 -3.87589,-3.02331 z m -2.65192,6.988 c 0.73056,0.6501 1.67398,1.01004 2.65192,1.01177 0.96899,-0.002 1.90422,-0.35614 2.63193,-0.99597 0.72439,0.53906 1.43879,1.27318 2.10534,2.27733 -2.49773,0.0412 -5.14606,0.40607 -7.84358,1.12887 -0.92411,0.24761 -1.81305,0.5371 -2.68352,0.84764 0.15725,-0.33431 0.29513,-0.71014 0.46482,-1.0156 0.82376,-1.48275 1.73593,-2.55452 2.67173,-3.2539 z m 7.10139,6.30062 c 0.76258,-0.0236 1.47282,0.0225 2.18354,0.0664 0.83398,2.48993 1.36596,5.44184 1.36596,8.64575 0,2.01514 -0.23357,3.91409 -0.58982,5.68744 -1.6202,0.80268 -3.39411,1.51767 -5.33965,2.03894 -3.09491,0.8293 -6.08243,1.07987 -8.70295,0.91793 -0.83598,-2.48793 -1.36796,-5.43984 -1.36796,-8.64375 0,-2.01514 0.23357,-3.91409 0.58982,-5.68744 1.6202,-0.80267 3.39411,-1.51767 5.33965,-2.03894 2.25554,-0.60436 4.47027,-0.92081 6.51941,-0.98435 z m 6.60921,0.84373 c 2.14774,0.7215 3.47851,1.81765 4.09369,3.06232 -0.73822,0.74747 -1.15272,1.75536 -1.15397,2.80591 7.5e-4,0.68407 0.17694,1.35652 0.51171,1.95307 -0.44745,0.70052 -1.02508,1.42058 -1.77729,2.14834 -0.25,0.24199 -0.57799,0.47199 -0.85798,0.70998 0.074,-0.92198 0.124,-1.85395 0.124,-2.81192 0,-2.79192 -0.33399,-5.44384 -0.94198,-7.86778 z m -11.05968,1.86795 c -3.31361,0 -5.99983,2.68621 -5.99983,5.99983 0,3.31361 2.68622,5.99983 5.99983,5.99983 3.31361,0 5.99983,-2.68622 5.99983,-5.99983 0,-3.31362 -2.68622,-5.99983 -5.99983,-5.99983 z m -11.87466,3.18751 c -0.074,0.92197 -0.124,1.85395 -0.124,2.81192 0,2.79212 0.33491,5.44404 0.94138,7.86697 -2.52733,-0.84997 -3.98709,-2.20593 -4.39508,-3.72789 -0.46279,-1.72795 0.35119,-3.94989 2.71872,-6.24182 0.2508,-0.24199 0.57779,-0.47199 0.85838,-0.70998 z m 17.6635,13.55421 c -0.15726,0.33431 -0.29514,0.71014 -0.46483,1.01559 -1.59996,2.87992 -3.5359,4.24188 -5.32385,4.24188 -1.57529,0 -3.26451,-1.06163 -4.73807,-3.2811 2.49773,-0.0412 5.14606,-0.40607 7.84358,-1.12887 0.92412,-0.24761 1.81305,-0.53711 2.68353,-0.84764 z"
         style="fill:#ffffff"
         id="path433"
         sodipodi:nodetypes="ccscccsccsscsccccccccccccccscsccccscccscsccccccccsccssssscsccccccsscscc" />
      <path
         d="m 320,151.00012 c -2.20908,0 -3.99989,1.79081 -3.99989,3.99988 0,2.20908 1.79081,3.99988 3.99989,3.99988 2.20908,0 3.99989,-1.7908 3.99989,-3.99988 0,-2.20907 -1.79081,-3.99988 -3.99989,-3.99988 z m 0,16.00005 c -3.31361,0 -5.99983,2.68621 -5.99983,5.99983 0,3.31361 2.68622,5.99983 5.99983,5.99983 3.31361,0 5.99983,-2.68622 5.99983,-5.99983 0,-3.31362 -2.68622,-5.99983 -5.99983,-5.99983 z m 18,-6e-5 c -2.20908,0 -3.99989,1.79081 -3.99989,3.99989 0,2.20907 1.79082,3.99988 3.99989,3.99988 2.20907,0 3.99988,-1.79081 3.99988,-3.99988 0,-2.20908 -1.79081,-3.99989 -3.99988,-3.99989 z"
         style="opacity:0.7;fill:#000000"
         id="path461"
         sodipodi:nodetypes="sssssssssssssss" />
    </g>
    <g
       id="g2261"
       transform="matrix(2,0,0,2,-288,-412)">
      <path
         d="m 312,229.5 c -1.20493,0.0109 -2.28643,0.74161 -2.74609,1.85547 -2.04888,1.31316 -3.7076,4.04582 -4.58008,7.52344 -4.44374,2.47186 -7.04498,6.08039 -6.19727,9.24414 0.67993,2.53749 3.42455,4.21515 7.10742,4.73828 1.45848,3.42248 3.78878,5.63867 6.41602,5.63867 3.27547,0 6.08872,-3.44656 7.32617,-8.37891 2.36347,-1.31469 4.19799,-2.95203 5.27735,-4.67187 0.13088,0.0257 0.26334,0.0427 0.39648,0.0508 1.65685,0 3,-1.34315 3,-3 0,-1.65685 -1.34315,-3 -3,-3 -0.0307,0.003 -0.0613,0.007 -0.0918,0.0117 -1.15692,-1.77361 -3.51755,-2.95052 -6.49218,-3.37305 -0.91715,-2.15218 -2.1789,-3.8264 -3.64258,-4.77344 C 314.313,230.23839 313.21728,229.50149 312,229.5 Z m -2.68945,4.27734 c 0.49092,1.04336 1.5364,1.71302 2.68945,1.72266 1.15305,-0.01 2.19853,-0.6793 2.68945,-1.72266 0.56557,0.56958 1.08144,1.30965 1.52735,2.19141 -1.96573,-0.0356 -4.10469,0.2199 -6.28711,0.80469 -1.00929,0.27044 -1.9746,0.59735 -2.88867,0.9707 0.57307,-1.67925 1.35513,-3.04731 2.26953,-3.9668 z m 6.84961,4.14649 c 0.29442,10e-4 0.58,0.0121 0.86328,0.0273 0.61524,1.88405 0.97656,4.13073 0.97656,6.54887 0,1.51538 -0.14606,2.95998 -0.40234,4.29492 -1.22324,0.59315 -2.58101,1.10775 -4.04493,1.5 -2.33477,0.6256 -4.59769,0.86024 -6.57617,0.75391 C 306.36132,249.16482 306,246.91814 306,244.5 c 0,-1.51538 0.14606,-2.95998 0.40234,-4.29492 1.22324,-0.59315 2.58101,-1.10775 4.04493,-1.5 2.00047,-0.53603 3.95098,-0.78728 5.71289,-0.78125 z m 2.98828,0.29297 c 1.74554,0.36529 3.11179,1.06503 3.875,2.05078 -0.64405,0.56402 -1.01645,1.37634 -1.02344,2.23242 6.4e-4,0.79301 0.31523,1.55351 0.875,2.11523 -0.6695,1.02037 -1.72142,2.02179 -3.06641,2.92383 C 319.93244,246.56024 320,245.54403 320,244.5 c 0,-2.2599 -0.30815,-4.39339 -0.85156,-6.2832 z M 312,240.5 c -2.20914,0 -4,1.79086 -4,4 0,2.20914 1.79086,4 4,4 2.20914,0 4,-1.79086 4,-4 0,-2.20914 -1.79086,-4 -4,-4 z m -7.80859,0.96094 C 304.06756,242.43976 304,243.45597 304,244.5 c 0,2.2599 0.30815,4.39339 0.85156,6.2832 -2.35131,-0.49206 -4.01764,-1.58896 -4.44336,-3.17773 -0.53329,-1.99029 1.00605,-4.28197 3.78321,-6.14453 z m 12.76757,9.79492 C 315.87873,254.42129 314.06081,256.5 312,256.5 c -1.64456,0 -3.13298,-1.32552 -4.2168,-3.46875 1.96573,0.0356 4.10469,-0.2199 6.28711,-0.80469 1.00929,-0.27044 1.9746,-0.59735 2.88867,-0.9707 z"
         style="opacity:0.2;fill:#000000;fill-opacity:1;stroke-width:2.0755;stroke-linecap:square"
         id="path2210" />
      <path
         d="m 312,229 c -1.20493,0.0109 -2.28643,0.74161 -2.74609,1.85547 -2.04888,1.31316 -3.7076,4.04582 -4.58008,7.52344 -4.44374,2.47186 -7.04498,6.08039 -6.19727,9.24414 0.67993,2.53749 3.42455,4.21515 7.10742,4.73828 C 307.04246,255.78381 309.37276,258 312,258 c 3.27547,0 6.08872,-3.44656 7.32617,-8.37891 2.36347,-1.31469 4.19799,-2.95203 5.27735,-4.67187 0.13088,0.0257 0.26334,0.0427 0.39648,0.0508 1.65685,0 3,-1.34315 3,-3 0,-1.65685 -1.34315,-3 -3,-3 -0.0307,0.003 -0.0613,0.007 -0.0918,0.0117 -1.15692,-1.77361 -3.51755,-2.95052 -6.49218,-3.37305 -0.91715,-2.15218 -2.1789,-3.8264 -3.64258,-4.77344 C 314.313,229.73839 313.21728,229.00149 312,229 Z m -2.68945,4.27734 c 0.49092,1.04336 1.5364,1.71302 2.68945,1.72266 1.15305,-0.01 2.19853,-0.6793 2.68945,-1.72266 0.56557,0.56958 1.08144,1.30965 1.52735,2.19141 -1.96573,-0.0356 -4.10469,0.2199 -6.28711,0.80469 -1.00929,0.27044 -1.9746,0.59735 -2.88867,0.9707 0.57307,-1.67925 1.35513,-3.04731 2.26953,-3.9668 z m 6.84961,4.14649 c 0.29442,10e-4 0.58,0.0121 0.86328,0.0273 C 317.63868,239.33518 318,241.58186 318,244 c 0,1.51538 -0.14606,2.95998 -0.40234,4.29492 -1.22324,0.59315 -2.58101,1.10775 -4.04493,1.5 -2.33477,0.6256 -4.59769,0.86024 -6.57617,0.75391 C 306.36132,248.66482 306,246.41814 306,244 c 0,-1.51538 0.14606,-2.95998 0.40234,-4.29492 1.22324,-0.59315 2.58101,-1.10775 4.04493,-1.5 2.00047,-0.53603 3.95098,-0.78728 5.71289,-0.78125 z m 2.98828,0.29297 c 1.74554,0.36529 3.11179,1.06503 3.875,2.05078 -0.64405,0.56402 -1.01645,1.37634 -1.02344,2.23242 6.4e-4,0.79301 0.31523,1.55351 0.875,2.11523 -0.6695,1.02037 -1.72142,2.02179 -3.06641,2.92383 C 319.93244,246.06024 320,245.04403 320,244 c 0,-2.2599 -0.30815,-4.39339 -0.85156,-6.2832 z M 312,240 c -2.20914,0 -4,1.79086 -4,4 0,2.20914 1.79086,4 4,4 2.20914,0 4,-1.79086 4,-4 0,-2.20914 -1.79086,-4 -4,-4 z m -7.80859,0.96094 C 304.06756,241.93976 304,242.95597 304,244 c 0,2.2599 0.30815,4.39339 0.85156,6.2832 -2.35131,-0.49206 -4.01764,-1.58896 -4.44336,-3.17773 -0.53329,-1.99029 1.00605,-4.28197 3.78321,-6.14453 z m 12.76757,9.79492 C 315.87873,253.92129 314.06081,256 312,256 c -1.64456,0 -3.13298,-1.32552 -4.2168,-3.46875 1.96573,0.0356 4.10469,-0.2199 6.28711,-0.80469 1.00929,-0.27044 1.9746,-0.59735 2.88867,-0.9707 z"
         style="fill:#ffffff;fill-opacity:1;stroke-width:2.0755;stroke-linecap:square"
         id="path2182" />
      <path
         d="m 312,229 c -1.65685,0 -3,1.34315 -3,3 0,1.65685 1.34315,3 3,3 1.65685,0 3,-1.34315 3,-3 0,-1.65685 -1.34315,-3 -3,-3 z m 13,10 c -1.65685,0 -3,1.34315 -3,3 0,1.65685 1.34315,3 3,3 1.65685,0 3,-1.34315 3,-3 0,-1.65685 -1.34315,-3 -3,-3 z m -13,1 c -2.20914,0 -4,1.79086 -4,4 0,2.20914 1.79086,4 4,4 2.20914,0 4,-1.79086 4,-4 0,-2.20914 -1.79086,-4 -4,-4 z"
         style="opacity:0.7;fill:#000000;fill-opacity:1;stroke-width:2;stroke-linecap:square"
         id="path2238" />
    </g>
    <g
       id="g1686"
       transform="matrix(4,0,0,4,-1136,-532)">
      <path
         d="m 320.00102,151.501 c -1.83146,0.002 -3.42774,1.24727 -3.87489,3.02331 -1.9977,1.09855 -3.67829,2.99672 -4.94526,5.27725 -0.87321,1.57178 -1.57391,3.37011 -2.10154,5.32025 -1.74551,1.01379 -3.3023,2.15674 -4.59367,3.4061 -2.98831,2.89132 -4.77106,6.54122 -3.80449,10.14811 0.96645,3.6069 4.33728,5.88064 8.37076,6.89041 0.47379,0.11861 0.96356,0.21743 1.4609,0.30467 0.21229,0.45599 0.43165,0.90273 0.66794,1.32808 2.02194,3.6359 5.08786,6.30182 8.82175,6.30182 3.73409,0 6.80081,-2.66572 8.82015,-6.30062 0.87321,-1.57178 1.57391,-3.3701 2.10154,-5.32025 1.74551,-1.01379 3.3023,-2.15674 4.59367,-3.4061 0.95269,-0.92175 1.76419,-1.92647 2.42173,-2.97652 0.0207,0.001 0.0413,0.003 0.062,0.004 2.20907,0 3.99988,-1.79081 3.99988,-3.99988 -0.002,-1.79356 -1.19821,-3.36632 -2.92591,-3.84789 -1.18997,-3.20991 -4.35388,-5.27385 -8.12377,-6.21782 -0.47399,-0.12 -0.96397,-0.218 -1.46196,-0.306 -0.212,-0.45598 -0.43199,-0.90197 -0.66798,-1.32796 -1.26597,-2.27993 -2.94792,-4.17788 -4.94386,-5.27645 -0.44724,-1.7764 -2.04405,-3.02196 -3.87589,-3.02331 z m -2.65232,6.988 c 0.73053,0.65018 1.67396,1.01019 2.65192,1.01197 0.96899,-0.002 1.90422,-0.35614 2.63192,-0.99597 0.7244,0.53906 1.4388,1.27318 2.10535,2.27733 -2.49773,0.0412 -5.14606,0.40607 -7.84358,1.12887 -0.92412,0.24761 -1.81305,0.53711 -2.68352,0.84764 0.15725,-0.33431 0.29513,-0.71014 0.46482,-1.01559 0.82376,-1.48276 1.73593,-2.55453 2.67173,-3.25391 z m 7.10139,6.30062 c 0.76258,-0.0236 1.47282,0.0225 2.18354,0.0664 0.83398,2.48993 1.36596,5.44184 1.36596,8.64575 0,2.01515 -0.23357,3.91409 -0.58982,5.68744 -1.62019,0.80268 -3.3941,1.51768 -5.33965,2.03894 -3.09491,0.8293 -6.08242,1.07987 -8.70295,0.91794 -0.83598,-2.48793 -1.36796,-5.43985 -1.36796,-8.64376 0,-2.01514 0.23357,-3.91409 0.58982,-5.68743 1.62019,-0.80268 3.3941,-1.51768 5.33965,-2.03895 2.25553,-0.60436 4.47027,-0.92081 6.51941,-0.98435 z m 6.60921,0.84374 c 2.14774,0.7215 3.4785,1.81764 4.09369,3.06231 -0.73822,0.74747 -1.15272,1.75536 -1.15397,2.80592 7.5e-4,0.68406 0.17693,1.35651 0.51171,1.95306 -0.44745,0.70052 -1.02507,1.42058 -1.77729,2.14834 -0.25,0.24199 -0.57799,0.47199 -0.85798,0.70998 0.074,-0.92197 0.124,-1.85395 0.124,-2.81192 0,-2.79192 -0.33399,-5.44384 -0.94198,-7.86777 z m -11.05968,1.86794 c -3.31361,0 -5.99983,2.68622 -5.99983,5.99983 0,3.31361 2.68622,5.99983 5.99983,5.99983 3.31361,0 5.99983,-2.68622 5.99983,-5.99983 0,-3.31361 -2.68622,-5.99983 -5.99983,-5.99983 z m -11.87466,3.18751 c -0.074,0.92197 -0.124,1.85395 -0.124,2.81192 0,2.79212 0.33491,5.44405 0.94138,7.86698 -2.52733,-0.84998 -3.98709,-2.20594 -4.39508,-3.7279 -0.46279,-1.72795 0.35119,-3.94988 2.71872,-6.24182 0.2508,-0.24199 0.57779,-0.47199 0.85838,-0.70998 z m 17.66349,13.55422 c -0.15725,0.3343 -0.29513,0.71013 -0.46482,1.01559 -1.59996,2.87991 -3.5359,4.24187 -5.32385,4.24187 -1.5753,0 -3.26451,-1.06163 -4.73806,-3.2811 2.49772,-0.0412 5.14605,-0.40607 7.84357,-1.12887 0.92411,-0.24761 1.81305,-0.5371 2.68352,-0.84764 z"
         style="opacity:0.2;fill:#000000"
         id="path1663" />
      <path
         d="m 320.00061,151.001 c -1.83146,0.002 -3.42774,1.24727 -3.87489,3.02331 -1.9977,1.09855 -3.67829,2.99672 -4.94526,5.27725 -0.87321,1.57177 -1.57391,3.3701 -2.10154,5.32025 -1.74551,1.01379 -3.3023,2.15674 -4.59367,3.4061 -2.98831,2.89132 -4.77106,6.54122 -3.80449,10.14811 0.96645,3.6069 4.33728,5.88063 8.37076,6.8904 0.47379,0.11862 0.96356,0.21744 1.4609,0.30467 0.21229,0.45599 0.43165,0.90274 0.66794,1.32809 2.02194,3.63589 5.08786,6.30182 8.82175,6.30182 3.73409,0 6.80081,-2.66573 8.82015,-6.30062 0.87321,-1.57178 1.57391,-3.37011 2.10154,-5.32025 1.74551,-1.01379 3.3023,-2.15674 4.59367,-3.4061 0.95269,-0.92176 1.76419,-1.92647 2.42173,-2.97652 0.0207,0.001 0.0413,0.003 0.062,0.004 2.20907,0 3.99988,-1.79081 3.99988,-3.99988 -0.002,-1.79357 -1.19821,-3.36633 -2.92591,-3.84789 -1.18997,-3.20991 -4.35388,-5.27385 -8.12377,-6.21783 -0.47399,-0.11999 -0.96397,-0.21799 -1.46196,-0.30599 -0.212,-0.45599 -0.43199,-0.90197 -0.66798,-1.32796 -1.26597,-2.27973 -2.94792,-4.17788 -4.94386,-5.27645 -0.44724,-1.7764 -2.04405,-3.02196 -3.87589,-3.02331 z m -2.65192,6.988 c 0.73056,0.6501 1.67398,1.01004 2.65192,1.01177 0.96899,-0.002 1.90422,-0.35614 2.63193,-0.99597 0.72439,0.53906 1.43879,1.27318 2.10534,2.27733 -2.49773,0.0412 -5.14606,0.40607 -7.84358,1.12887 -0.92411,0.24761 -1.81305,0.5371 -2.68352,0.84764 0.15725,-0.33431 0.29513,-0.71014 0.46482,-1.0156 0.82376,-1.48275 1.73593,-2.55452 2.67173,-3.2539 z m 7.10139,6.30062 c 0.76258,-0.0236 1.47282,0.0225 2.18354,0.0664 0.83398,2.48993 1.36596,5.44184 1.36596,8.64575 0,2.01514 -0.23357,3.91409 -0.58982,5.68744 -1.6202,0.80268 -3.39411,1.51767 -5.33965,2.03894 -3.09491,0.8293 -6.08243,1.07987 -8.70295,0.91793 -0.83598,-2.48793 -1.36796,-5.43984 -1.36796,-8.64375 0,-2.01514 0.23357,-3.91409 0.58982,-5.68744 1.6202,-0.80267 3.39411,-1.51767 5.33965,-2.03894 2.25554,-0.60436 4.47027,-0.92081 6.51941,-0.98435 z m 6.60921,0.84373 c 2.14774,0.7215 3.47851,1.81765 4.09369,3.06232 -0.73822,0.74747 -1.15272,1.75536 -1.15397,2.80591 7.5e-4,0.68407 0.17694,1.35652 0.51171,1.95307 -0.44745,0.70052 -1.02508,1.42058 -1.77729,2.14834 -0.25,0.24199 -0.57799,0.47199 -0.85798,0.70998 0.074,-0.92198 0.124,-1.85395 0.124,-2.81192 0,-2.79192 -0.33399,-5.44384 -0.94198,-7.86778 z m -11.05968,1.86795 c -3.31361,0 -5.99983,2.68621 -5.99983,5.99983 0,3.31361 2.68622,5.99983 5.99983,5.99983 3.31361,0 5.99983,-2.68622 5.99983,-5.99983 0,-3.31362 -2.68622,-5.99983 -5.99983,-5.99983 z m -11.87466,3.18751 c -0.074,0.92197 -0.124,1.85395 -0.124,2.81192 0,2.79212 0.33491,5.44404 0.94138,7.86697 -2.52733,-0.84997 -3.98709,-2.20593 -4.39508,-3.72789 -0.46279,-1.72795 0.35119,-3.94989 2.71872,-6.24182 0.2508,-0.24199 0.57779,-0.47199 0.85838,-0.70998 z m 17.6635,13.55421 c -0.15726,0.33431 -0.29514,0.71014 -0.46483,1.01559 -1.59996,2.87992 -3.5359,4.24188 -5.32385,4.24188 -1.57529,0 -3.26451,-1.06163 -4.73807,-3.2811 2.49773,-0.0412 5.14606,-0.40607 7.84358,-1.12887 0.92412,-0.24761 1.81305,-0.53711 2.68353,-0.84764 z"
         style="fill:#ffffff"
         id="path1607" />
      <path
         d="m 320,151.00012 c -2.20908,0 -3.99989,1.79081 -3.99989,3.99988 0,2.20908 1.79081,3.99988 3.99989,3.99988 2.20908,0 3.99989,-1.7908 3.99989,-3.99988 0,-2.20907 -1.79081,-3.99988 -3.99989,-3.99988 z m 0,16.00005 c -3.31361,0 -5.99983,2.68621 -5.99983,5.99983 0,3.31361 2.68622,5.99983 5.99983,5.99983 3.31361,0 5.99983,-2.68622 5.99983,-5.99983 0,-3.31362 -2.68622,-5.99983 -5.99983,-5.99983 z m 18,-6e-5 c -2.20908,0 -3.99989,1.79081 -3.99989,3.99989 0,2.20907 1.79082,3.99988 3.99989,3.99988 2.20907,0 3.99988,-1.79081 3.99988,-3.99988 0,-2.20908 -1.79081,-3.99989 -3.99988,-3.99989 z"
         style="opacity:0.7;fill:#000000"
         id="path1635" />
    </g>
  </g>
  <g
     id="Highlights">
    <path
       id="rect653"
       style="opacity:0.2;fill:#ffffff"
       d="M 80,44 C 53.408027,44 32,65.408027 32,92 v 2 C 32,67.408027 53.408027,46 80,46 h 128 c 26.59197,0 48,21.408027 48,48 V 92 C 256,65.408027 234.59197,44 208,44 Z"
       sodipodi:nodetypes="sscsscsss" />
    <path
       id="rect773"
       style="opacity:0.2;fill:#ffffff"
       d="m 312,34 c -9.97199,0 -18,8.02801 -18,18 v 1 c 0,-9.97199 8.02801,-18 18,-18 h 48 c 9.97199,0 18,8.02801 18,18 v -1 c 0,-9.97199 -8.02801,-18 -18,-18 z" />
    <path
       id="rect1135"
       style="opacity:0.2;fill:#ffffff;fill-opacity:1"
       d="m 304,144 c -6.64799,0 -12,5.35201 -12,12 v 1 c 0,-6.64799 5.35201,-12 12,-12 h 32 c 6.64799,0 12,5.35201 12,12 v -1 c 0,-6.64799 -5.35201,-12 -12,-12 z" />
    <path
       id="rect1265"
       style="opacity:0.2;fill:#ffffff;fill-opacity:1"
       d="m 300,223 c -4.986,0 -9,4.014 -9,9 v 1 c 0,-4.986 4.014,-9 9,-9 h 24 c 4.986,0 9,4.014 9,9 v -1 c 0,-4.986 -4.014,-9 -9,-9 z" />
    <path
       id="rect1368"
       style="opacity:0.2;fill:#ffffff;fill-opacity:1"
       d="m 424,54 c -3.324,0 -6,2.676003 -6,6 v 1 c 0,-3.323997 2.676,-6 6,-6 h 16 c 3.324,0 6,2.676003 6,6 v -1 c 0,-3.323997 -2.676,-6 -6,-6 z" />
    <path
       id="rect1402"
       style="opacity:0.2;fill:#ffffff;fill-opacity:1"
       d="m 420,140 c -2.216,0 -4,1.784 -4,4 v 1 c 0,-2.216 1.784,-4 4,-4 h 8 c 2.216,0 4,1.784 4,4 v -1 c 0,-2.216 -1.784,-4 -4,-4 z" />
    <path
       id="rect1436"
       style="opacity:0.2;fill:#ffffff;fill-opacity:1"
       d="m 422,102 c -2.216,0 -4,1.784 -4,4 v 1 c 0,-2.216 1.784,-4 4,-4 h 12 c 2.216,0 4,1.784 4,4 v -1 c 0,-2.216 -1.784,-4 -4,-4 z" />
  </g>
</svg>
