<?xml version="1.0" encoding="UTF-8" standalone="no"?>
<!-- Created with Inkscape (http://www.inkscape.org/) -->

<svg
   width="480"
   height="300"
   viewBox="0 0 480 300"
   version="1.1"
   id="svg5"
   inkscape:version="1.2.2 (1:1.2.2+202305151914+b0a8486541)"
   sodipodi:docname="applications-accessories.svg"
   xmlns:inkscape="http://www.inkscape.org/namespaces/inkscape"
   xmlns:sodipodi="http://sodipodi.sourceforge.net/DTD/sodipodi-0.dtd"
   xmlns="http://www.w3.org/2000/svg"
   xmlns:svg="http://www.w3.org/2000/svg">
  <sodipodi:namedview
     id="namedview7"
     pagecolor="#888888"
     bordercolor="#000000"
     borderopacity="0.25"
     inkscape:showpageshadow="true"
     inkscape:pageopacity="0"
     inkscape:pagecheckerboard="0"
     inkscape:deskcolor="#888888"
     inkscape:document-units="px"
     showgrid="false"
     showborder="false"
     inkscape:zoom="2.6866667"
     inkscape:cx="240.07444"
     inkscape:cy="150"
     inkscape:window-width="1920"
     inkscape:window-height="1008"
     inkscape:window-x="0"
     inkscape:window-y="0"
     inkscape:window-maximized="1"
     inkscape:current-layer="svg5" />
  <defs
     id="defs2" />
  <g
     id="Baseplate"
     style="display:none">
    <text
       y="19.774782"
       xml:space="preserve"
       x="15.006946"
       style="font-style:normal;font-variant:normal;font-weight:normal;font-stretch:normal;line-height:0%;font-family:'DejaVu Sans';-inkscape-font-specification:'DejaVu Sans';display:inline;fill:#000000;fill-opacity:1;stroke:none;enable-background:new"
       inkscape:label="context"
       id="context"><tspan
         style="font-style:normal;font-variant:normal;font-weight:normal;font-stretch:normal;font-size:18px;line-height:1.25;font-family:'DejaVu Sans';-inkscape-font-specification:'DejaVu Sans'"
         y="19.774782"
         x="15.006946"
         sodipodi:role="line"
         id="tspan3933">categories</tspan></text>
    <text
       y="19.774782"
       xml:space="preserve"
       x="122.48839"
       style="font-style:normal;font-variant:normal;font-weight:bold;font-stretch:normal;line-height:0%;font-family:'DejaVu Sans';-inkscape-font-specification:'DejaVu Sans Bold';text-align:start;writing-mode:lr-tb;text-anchor:start;display:inline;fill:#000000;fill-opacity:1;stroke:none;enable-background:new"
       inkscape:label="icon-name"
       id="icon-name"><tspan
         style="font-style:normal;font-variant:normal;font-weight:bold;font-stretch:normal;font-size:18px;line-height:1.25;font-family:'DejaVu Sans';-inkscape-font-specification:'DejaVu Sans Bold'"
         y="19.774782"
         x="122.48839"
         sodipodi:role="line"
         id="tspan3937">applications-accessories</tspan></text>
    <rect
       style="fill:#ffffff"
       id="256x256"
       width="256"
       height="256"
       x="16"
       y="28" />
    <rect
       style="fill:#ffffff"
       id="96x96"
       width="96"
       height="96"
       x="288"
       y="28" />
    <rect
       style="fill:#ffffff"
       id="64x64"
       width="64"
       height="64"
       x="288"
       y="140" />
    <rect
       style="fill:#ffffff"
       id="48x48"
       width="48"
       height="48"
       x="288"
       y="220" />
    <rect
       style="fill:#ffffff"
       id="32x32"
       width="32"
       height="32"
       x="416"
       y="52" />
    <rect
       style="fill:#ffffff"
       id="24x24"
       width="24"
       height="24"
       x="416"
       y="100" />
    <rect
       style="fill:#ffffff"
       id="22x22"
       width="22"
       height="22"
       x="417"
       y="101" />
    <rect
       style="fill:#ffffff"
       id="16x16"
       width="16"
       height="16"
       x="416"
       y="140" />
  </g>
  <g
     id="Shadow">
    <rect
       style="opacity:0.2;fill:#000000"
       id="rect651"
       width="224"
       height="224"
       x="32"
       y="46"
       ry="48" />
    <rect
       style="opacity:0.2;fill:#000000"
       id="rect769"
       width="84"
       height="85"
       x="294"
       y="34"
       ry="18" />
    <rect
       style="opacity:0.2;fill:#000000;fill-opacity:1"
       id="rect1131"
       width="56"
       height="56"
       x="292"
       y="145"
       ry="12" />
    <rect
       style="opacity:0.2;fill:#000000;fill-opacity:1"
       id="rect1261"
       width="42"
       height="42"
       x="291"
       y="224"
       ry="9" />
    <rect
       style="opacity:0.2;fill:#000000;fill-opacity:1"
       id="rect1364"
       width="28"
       height="29"
       x="418"
       y="54"
       ry="6" />
    <rect
       style="opacity:0.2;fill:#000000;fill-opacity:1"
       id="rect1398"
       width="16"
       height="16"
       x="416"
       y="141"
       ry="4" />
    <rect
       style="opacity:0.2;fill:#000000;fill-opacity:1"
       id="rect1432"
       width="20"
       height="20"
       x="418"
       y="103"
       ry="4" />
  </g>
  <g
     id="Background">
    <rect
       style="fill:#5b99c1;fill-opacity:1"
       id="rect597"
       width="224"
       height="224"
       x="32"
       y="44"
       ry="48" />
    <rect
       style="opacity:1;fill:#5b99c1;fill-opacity:1"
       id="rect771"
       width="84"
       height="84"
       x="294"
       y="34"
       ry="18" />
    <rect
       style="opacity:1;fill:#5b99c1;fill-opacity:1"
       id="rect1133"
       width="56"
       height="56"
       x="292"
       y="144"
       ry="12" />
    <rect
       style="opacity:1;fill:#5b99c1;fill-opacity:1"
       id="rect1263"
       width="42"
       height="42"
       x="291"
       y="223"
       ry="9" />
    <rect
       style="opacity:1;fill:#5b99c1;fill-opacity:1"
       id="rect1366"
       width="28"
       height="28"
       x="418"
       y="54"
       ry="6" />
    <rect
       style="opacity:1;fill:#5b99c1;fill-opacity:1"
       id="rect1400"
       width="16"
       height="16"
       x="416"
       y="140"
       ry="4" />
    <rect
       style="opacity:1;fill:#5b99c1;fill-opacity:1"
       id="rect1434"
       width="20"
       height="20"
       x="418"
       y="102"
       ry="4" />
  </g>
  <g
     id="g1699">
    <g
       id="g2894"
       transform="translate(0,1)">
      <path
         d="m 424.03093,144.50048 c 0.29164,0.0114 0.55649,0.1868 0.69824,0.4623 l 4.16667,6.29994 0.10413,2.23768 -1.5625,-1.36229 -3.4375,-4.88316 V 144.504 c 0.01,0 0.0204,-0.004 0.0309,-0.004 z"
         style="fill:#000000;fill-rule:evenodd;stroke-width:0.866022;opacity:0.2"
         id="path2905" />
      <path
         d="m 424.03093,144.00008 c 0.29164,0.0114 0.55649,0.1868 0.69824,0.4623 l 4.16667,6.29994 0.10413,2.23768 -1.5625,-1.36229 -3.4375,-4.88316 v -2.75095 c 0.01,0 0.0204,-0.004 0.0309,-0.004 z"
         style="fill:#a2a2a2;fill-rule:evenodd;stroke-width:0.866022"
         id="path2553"
         sodipodi:nodetypes="ccccccccc" />
      <path
         d="m 423.96875,144.50009 c -0.29164,0.0114 -0.55552,0.18739 -0.69727,0.46289 l -4.16796,6.29883 -0.10352,2.23828 1.5625,-1.36133 0.0293,-0.041 c 0.74366,0.26331 1.52792,0.40054 2.32031,0.40234 3.866,0 7.08789,-3.13401 7.08789,-7 h -1.75 c 0,2.8995 -2.43839,5.25 -5.33789,5.25 -0.4259,-0.002 -0.84897,-0.0569 -1.25977,-0.16016 L 424,147.254 v -2.75 c -0.01,0 -0.0208,-0.004 -0.0312,-0.004 z"
         style="fill:#000000;fill-opacity:1;fill-rule:evenodd;stroke-width:0.866022;opacity:0.2"
         id="path2933" />
      <path
         id="path2581"
         style="fill:#e4e4e4;fill-opacity:1;fill-rule:evenodd;stroke-width:0.866022"
         d="m 423.96875,144 c -0.29164,0.0114 -0.55552,0.18739 -0.69727,0.46289 l -4.16796,6.29883 L 419,153 l 1.5625,-1.36133 0.0293,-0.041 c 0.74366,0.26331 1.52792,0.40054 2.32031,0.40234 3.866,0 7.08789,-3.13401 7.08789,-7 h -1.75 c 0,2.8995 -2.43839,5.25 -5.33789,5.25 -0.4259,-0.002 -0.84897,-0.0569 -1.25977,-0.16016 L 424,146.75391 v -2.75 c -0.01,0 -0.0208,-0.004 -0.0312,-0.004 z"
         sodipodi:nodetypes="sccccccccccccss" />
      <path
         id="path3076"
         style="fill:#ffffff;fill-opacity:1;fill-rule:evenodd;stroke-width:0.866022;opacity:0.2"
         d="M 423.96875 144 C 423.67711 144.0114 423.41323 144.18739 423.27148 144.46289 L 419.10352 150.76172 L 419 153 L 419.02344 152.97852 L 419.10352 151.26172 L 423.27148 144.96289 C 423.41323 144.68739 423.67711 144.5114 423.96875 144.5 C 423.97915 144.5 423.99 144.50391 424 144.50391 L 424 144.00391 C 423.99 144.00391 423.97915 144 423.96875 144 z M 428.25 145 C 428.25 147.8995 425.81161 150.25 422.91211 150.25 C 422.59063 150.24849 422.27123 150.21609 421.95703 150.15625 L 421.65234 150.58984 C 422.06314 150.6931 422.48621 150.748 422.91211 150.75 C 425.81161 150.75 428.25 148.3995 428.25 145.5 L 429.97852 145.5 C 429.99056 145.33436 430 145.16863 430 145 L 428.25 145 z " />
      <path
         d="m 423,142.5 v 1 h -0.5 c -0.277,0 -0.5,0.223 -0.5,0.5 v 2.49996 l 1.5,1.35004 c 0.26572,0.21476 0.75349,0.24984 1,0 l 1.5,-1.35004 V 144 c 0,-0.277 -0.223,-0.5 -0.5,-0.5 H 425 v -1 z"
         style="fill:#000000;stroke-width:0.5;opacity:0.2"
         id="path2976" />
      <path
         d="m 423,142 v 1 h -0.5 c -0.277,0 -0.5,0.223 -0.5,0.5 v 2.49996 l 1.5,1.35004 c 0.26572,0.21476 0.75349,0.24984 1,0 l 1.5,-1.35004 V 143.5 c 0,-0.277 -0.223,-0.5 -0.5,-0.5 H 425 v -1 z"
         style="fill:#6a6a6a;stroke-width:0.5"
         id="path2364"
         sodipodi:nodetypes="ccssccccssccc" />
      <circle
         style="opacity:0.2;fill:#000000;fill-opacity:1;stroke-width:2;stroke-linecap:square"
         id="path3412"
         cx="424"
         cy="145.5"
         r="1" />
      <path
         id="path3020"
         style="fill:#ffffff;stroke-width:0.5;opacity:0.1"
         d="M 423 142 L 423 142.5 L 425 142.5 L 425 142 L 423 142 z M 422.5 143 C 422.223 143 422 143.223 422 143.5 L 422 144 C 422 143.723 422.223 143.5 422.5 143.5 L 423 143.5 L 423 143 L 422.5 143 z M 425 143 L 425 143.5 L 425.5 143.5 C 425.777 143.5 426 143.723 426 144 L 426 143.5 C 426 143.223 425.777 143 425.5 143 L 425 143 z " />
      <circle
         style="opacity:1;fill:#ffffff;fill-opacity:1;stroke-width:2;stroke-linecap:square"
         id="path2996"
         cx="424"
         cy="145"
         r="1" />
    </g>
    <g
       id="g1108"
       transform="translate(0,0.99997)">
      <path
         d="m 428.03711,107.50003 c 0.34997,0.0117 0.66779,0.19027 0.83789,0.47087 l 5,8.24999 0.125,2.27914 -1.875,-1.38753 -4.125,-6.80697 v -2.80191 c 0.0126,0 0.0244,-0.003 0.0371,-0.003 z"
         style="fill:#000000;fill-rule:evenodd;stroke-width:0.957426;opacity:0.2"
         id="path1848" />
      <path
         d="m 428.03711,106.99998 c 0.34997,0.0117 0.66779,0.19027 0.83789,0.47087 l 5,8.24999 0.125,2.27914 -1.875,-1.38753 -4.125,-6.80697 v -2.80191 c 0.0126,0 0.0244,-0.003 0.0371,-0.003 z"
         style="fill:#a2a2a2;fill-rule:evenodd;stroke-width:0.957426"
         id="path1615"
         sodipodi:nodetypes="ccccccccc" />
      <path
         d="m 427.96289,107.50012 c -0.34997,0.0117 -0.66779,0.1901 -0.83789,0.4707 l -5,8.25 -0.125,2.2793 1.875,-1.38672 0.8125,-1.3418 c 1.03941,0.47611 2.16831,0.72593 3.3125,0.72852 4.41828,0 8,-3.58172 8,-8 h -2 c 0,3.31371 -2.68629,6 -6,6 -0.7784,-0.004 -1.5474,-0.16023 -2.26562,-0.45703 L 428,110.30481 v -2.80078 c -0.0126,0 -0.0244,-0.004 -0.0371,-0.004 z"
         style="fill:#000000;fill-opacity:1;fill-rule:evenodd;stroke-width:0.957426;opacity:0.2"
         id="path1876" />
      <path
         id="path1242"
         style="fill:#e4e4e4;fill-opacity:1;fill-rule:evenodd;stroke-width:0.957426"
         d="m 427.96289,107.00003 c -0.34997,0.0117 -0.66779,0.1901 -0.83789,0.4707 l -5,8.25 -0.125,2.2793 1.875,-1.38672 0.8125,-1.3418 c 1.03941,0.47611 2.16831,0.72593 3.3125,0.72852 4.41828,0 8,-3.58172 8,-8 h -2 c 0,3.31371 -2.68629,6 -6,6 -0.7784,-0.004 -1.5474,-0.16023 -2.26562,-0.45703 L 428,109.80472 v -2.80078 c -0.0126,0 -0.0244,-0.004 -0.0371,-0.004 z"
         sodipodi:nodetypes="ccccccccccccccc" />
      <path
         id="path1792"
         style="fill:#ffffff;fill-opacity:1;fill-rule:evenodd;stroke-width:0.957426;opacity:0.2"
         d="M 427.96289 107.00003 C 427.61292 107.01173 427.2951 107.19013 427.125 107.47073 L 422.125 115.72073 L 422 118.00003 L 422.0293 117.97855 L 422.125 116.22073 L 427.125 107.97073 C 427.2951 107.69013 427.61292 107.51173 427.96289 107.50003 C 427.97559 107.50003 427.9874 107.50394 428 107.50394 L 428 107.00394 C 427.9874 107.00394 427.97559 107.00003 427.96289 107.00003 z M 434 108.00003 C 434 111.31374 431.31372 114.00003 428 114.00003 C 427.30982 113.99648 426.62704 113.87348 425.98047 113.6387 L 425.73438 114.043 C 426.4526 114.3398 427.22161 114.49603 428 114.50003 C 431.31372 114.50003 434 111.81374 434 108.50003 L 435.98438 108.50003 C 435.99457 108.33468 436 108.16795 436 108.00003 L 434 108.00003 z " />
      <path
         d="m 427,103.50003 v 2 h -1 c -0.554,0 -1,0.446 -1,1 v 2.99992 l 2,1.70003 c 0.53145,0.42952 1.50698,0.49967 2,0 l 2,-1.70003 v -2.99992 c 0,-0.554 -0.446,-1 -1,-1 h -1 v -2 z"
         style="opacity:0.2;fill:#000000"
         id="path1671" />
      <path
         d="m 427,103.00006 v 2 h -1 c -0.554,0 -1,0.446 -1,1 v 2.99992 l 2,1.70003 c 0.53145,0.42952 1.50698,0.49967 2,0 l 2,-1.70003 v -2.99992 c 0,-0.554 -0.446,-1 -1,-1 h -1 v -2 z"
         style="fill:#6a6a6a"
         id="path1643"
         sodipodi:nodetypes="ccssccccssccc" />
      <circle
         style="opacity:0.2;fill:#000000;fill-opacity:1;stroke-width:2;stroke-linecap:square"
         id="path3414"
         cx="428"
         cy="108.50003"
         r="1" />
      <circle
         style="opacity:1;fill:#ffffff;fill-opacity:1;stroke-width:2;stroke-linecap:square"
         id="path1781"
         cx="428"
         cy="108.00002"
         r="1" />
      <path
         d="m 427,103.00003 v 0.5 h 2 v -0.5 z m -1,2 c -0.554,0 -1,0.446 -1,1 v 0.5 c 0,-0.554 0.446,-1 1,-1 h 1 v -0.5 z m 3,0 v 0.5 h 1 c 0.554,0 1,0.446 1,1 v -0.5 c 0,-0.554 -0.446,-1 -1,-1 z"
         style="opacity:0.1;fill:#ffffff"
         id="path1709" />
    </g>
    <g
       id="g5078"
       transform="translate(0,2)">
      <path
         d="m 432.09693,61.002258 c -0.48538,0.195025 0.99707,0.259412 1.25104,0.641991 l 7.4654,12.248284 L 441,77.000001 438.20048,75.10819 432,64.999999 l 0.0415,-3.992857 c 0.0189,0 0.0731,-0.01199 0.0554,-0.0049 z"
         style="fill:#000000;fill-rule:evenodd;stroke-width:0.910697;opacity:0.2"
         id="path5352" />
      <path
         d="m 432.09693,60.002447 c -0.48538,0.195025 0.99707,0.259412 1.25104,0.641991 l 7.4654,12.248283 L 441,76.000189 438.20048,74.108379 432,64.000188 432.0415,60.00733 c 0.0189,0 0.0731,-0.01199 0.0554,-0.0049 z"
         style="fill:#a2a2a2;fill-rule:evenodd;stroke-width:0.910697"
         id="path4018"
         sodipodi:nodetypes="sccccccss" />
      <path
         d="m 431.90234,61.002141 c 0.0246,0.0099 0.0417,0.02002 0.0566,0.0293 v -0.02344 c -0.0189,0 -0.0743,-0.01295 -0.0566,-0.0059 z m 0.0566,0.0293 0.002,0.08984 c 0.0448,-0.02842 0.0507,-0.05708 -0.002,-0.08984 z m 0.002,0.08984 c -0.19276,0.122217 -1.11299,0.22878 -1.3086,0.523437 L 423.1875,73.892766 423,77.000188 l 2.79883,-1.892578 1.10156,-1.792969 c 1.27205,0.449217 2.74457,0.682479 4.09961,0.685547 6.62739,0 12,-5.372597 12,-12 h -3 c 0,4.970553 -4.02945,9 -9,9 -0.74554,-0.0032 -1.74666,-0.168768 -2.46484,-0.353516 L 432,65.000188 Z"
         style="fill:#000000;fill-opacity:1;fill-rule:evenodd;stroke-width:0.912869;opacity:0.2"
         id="path5324" />
      <path
         id="path5129"
         style="fill:#e4e4e4;fill-opacity:1;fill-rule:evenodd;stroke-width:0.912869"
         d="m 431.90234,60.002141 c 0.0246,0.0099 0.0417,0.02002 0.0566,0.0293 v -0.02344 c -0.0189,0 -0.0743,-0.01295 -0.0566,-0.0059 z m 0.0566,0.0293 0.002,0.08984 c 0.0448,-0.02842 0.0507,-0.05708 -0.002,-0.08984 z m 0.002,0.08984 c -0.19276,0.122217 -1.11299,0.22878 -1.3086,0.523437 L 423.1875,72.892766 423,76.000188 l 2.79883,-1.892578 1.10156,-1.792969 c 1.27205,0.449217 2.74457,0.682479 4.09961,0.685547 6.62739,0 12,-5.372597 12,-12 h -3 c 0,4.970553 -4.02945,9 -9,9 -0.74554,-0.0032 -1.74666,-0.168768 -2.46484,-0.353516 L 432,64.000188 Z"
         sodipodi:nodetypes="sccsscccccccccccccccc" />
      <path
         id="path5380"
         style="fill:#ffffff;fill-opacity:1;fill-rule:evenodd;stroke-width:0.912869;opacity:0.2"
         d="M 431.90234 60.001953 C 431.92694 60.011853 431.94408 60.02197 431.95898 60.03125 L 431.95898 60.007812 C 431.94008 60.007812 431.88464 59.994903 431.90234 60.001953 z M 431.95898 60.03125 L 431.96094 60.121094 C 432.00574 60.092674 432.01168 60.06401 431.95898 60.03125 z M 431.96094 60.121094 C 431.76818 60.243311 430.84795 60.349875 430.65234 60.644531 L 423.1875 72.892578 L 423 76 L 423.0625 75.957031 L 423.1875 73.892578 L 430.65234 61.644531 C 430.84795 61.349875 431.76818 61.243311 431.96094 61.121094 L 431.95898 61.03125 C 431.94408 61.02197 431.92694 61.011853 431.90234 61.001953 C 431.88464 60.994903 431.94008 61.007812 431.95898 61.007812 L 431.95898 61.03125 C 431.96434 61.034579 431.96654 61.037767 431.9707 61.041016 L 431.96094 60.121094 z M 431.96094 61.121094 L 431.99023 64.015625 L 432 64 L 431.9707 61.113281 C 431.9672 61.115959 431.96515 61.118423 431.96094 61.121094 z M 440 61 C 440 65.970548 435.97055 70 431 70 C 430.42654 69.997539 429.70503 69.898959 429.07422 69.769531 L 428.53516 70.646484 C 429.25334 70.831232 430.25446 70.9968 431 71 C 435.97055 71 440 66.970548 440 62 L 442.95508 62 C 442.98235 61.669832 443 61.337207 443 61 L 440 61 z " />
      <path
         d="m 431,57 v 2 h -1.5 c -0.554,0 -1,0.446 -1,1 v 3.5 l 2.5,2.200015 c 0.53145,0.42952 1.50698,0.49967 2,0 L 435.5,63.5 V 60 c 0,-0.554 -0.446,-1 -1,-1 H 433 v -2 z"
         style="opacity:0.2;fill:#000000"
         id="path5268"
         sodipodi:nodetypes="ccssccccssccc" />
      <path
         d="m 431,56 v 2 h -1.5 c -0.554,0 -1,0.446 -1,1 v 3.5 l 2.5,2.200015 c 0.53145,0.42952 1.50698,0.49967 2,0 L 435.5,62.5 V 59 c 0,-0.554 -0.446,-1 -1,-1 H 433 v -2 z"
         style="fill:#6a6a6a"
         id="path5101"
         sodipodi:nodetypes="ccssccccssccc" />
      <circle
         style="opacity:0.2;fill:#000000;fill-opacity:1;stroke-width:1.5;stroke-linecap:square"
         id="path5704"
         cx="432"
         cy="62.5"
         r="1.5" />
      <circle
         style="opacity:1;fill:#ffffff;fill-opacity:1;stroke-width:2;stroke-linecap:square"
         id="path5706"
         cx="432"
         cy="61.5"
         r="1.5" />
      <path
         id="path5212"
         style="opacity:0.1;fill:#ffffff"
         d="m 431,56 v 1 h 2 v -1 z m -1.5,2 c -0.554,0 -1,0.446001 -1,1 v 1 c 0,-0.553999 0.446,-1 1,-1 h 1.5 v -1 z m 3.5,0 v 1 h 1.5 c 0.554,0 1,0.446001 1,1 v -1 c 0,-0.553999 -0.446,-1 -1,-1 z"
         sodipodi:nodetypes="cccccsscsccsccscssc" />
    </g>
    <g
       id="g5743">
      <path
         d="m 312.07422,238 c 0.69994,0.0234 1.33558,0.38054 1.67578,0.94174 l 10,16.49998 L 324,260 320.25,257.22494 312,243.611 v -5.60382 c 0.0252,0 0.0488,-0.006 0.0742,-0.006 z"
         style="opacity:0.2;fill:#000000;fill-rule:evenodd;stroke-width:0.957426"
         id="path3634" />
      <path
         d="m 312.07422,236.9999 c 0.69994,0.0234 1.33558,0.38054 1.67578,0.94174 l 10,16.49998 0.25,4.55828 -3.75,-2.77506 L 312,242.6109 v -5.60382 c 0.0252,0 0.0488,-0.006 0.0742,-0.006 z"
         style="fill:#a2a2a2;fill-rule:evenodd;stroke-width:0.957426"
         id="path3606" />
      <path
         d="m 311.92588,238.0002 c -0.69994,0.0234 -1.33556,0.3802 -1.67576,0.9414 l -9.99992,16.49986 -0.25,4.55856 3.74996,-2.77342 1.625,-2.68358 c 2.0788,0.95222 4.33658,1.45186 6.62494,1.45704 8.83648,0 15.99988,-7.16338 15.99988,-15.99988 H 324 c 0,6.62736 -5.37254,11.9999 -11.9999,11.9999 -1.55678,-0.008 -3.09478,-0.32046 -4.5312,-0.91404 l 4.5312,-7.4765 v -5.60152 c -0.0252,0 -0.0488,-0.008 -0.0742,-0.008 z"
         style="opacity:0.2;fill:#000000;fill-opacity:1;fill-rule:evenodd;stroke-width:0.957418"
         id="path3578" />
      <path
         d="m 311.92574,237 c -0.69994,0.0234 -1.33558,0.3802 -1.67578,0.9414 l -10,16.5 -0.25,4.5586 3.75,-2.77344 1.625,-2.6836 c 2.07882,0.95222 4.33662,1.45186 6.625,1.45704 8.83656,0 16,-7.16344 16,-16 h -4 c 0,6.62742 -5.37258,12 -12,12 -1.5568,-0.008 -3.0948,-0.32046 -4.53124,-0.91406 l 4.53124,-7.47656 v -5.60156 c -0.0252,0 -0.0488,-0.008 -0.0742,-0.008 z"
         style="fill:#e4e4e4;fill-opacity:1;fill-rule:evenodd;stroke-width:0.957426"
         id="path3522" />
      <path
         d="m 311.957,237.00018 c -0.69994,0.0234 -1.33558,0.3802 -1.67578,0.9414 l -10.00002,16.50002 -0.25,4.55862 0.0586,-0.043 0.1914,-3.51566 10.00002,-16.50002 c 0.3402,-0.5612 0.97584,-0.918 1.67578,-0.9414 0.0254,0 0.049,0.008 0.0742,0.008 v -1 c -0.0252,0 -0.0488,-0.008 -0.0742,-0.008 z m 12.07424,2 c 0,6.62742 -5.37258,12.00002 -12.00002,12.00002 -1.38036,-0.008 -2.74592,-0.2531 -4.03906,-0.72266 l -0.49218,0.8086 c 1.43644,0.5936 2.97446,0.90606 4.53124,0.91406 6.62744,0 12.00002,-5.3726 12.00002,-12.00002 H 328 c 0.0204,-0.3307 0.0312,-0.66416 0.0312,-1 z"
         style="opacity:0.2;fill:#ffffff;fill-opacity:1;fill-rule:evenodd;stroke-width:0.957428"
         id="path3550" />
      <path
         d="m 310,230 v 4 h -2 c -1.108,0 -2,0.892 -2,2 v 5.99984 l 4,3.40006 c 1.0629,0.85904 3.01396,0.99934 4,0 l 4,-3.40006 V 236 c 0,-1.108 -0.892,-2 -2,-2 h -2 v -4 z"
         style="opacity:0.2;fill:#000000;stroke-width:1"
         id="path3494" />
      <path
         d="m 310,229 v 4 h -2 c -1.108,0 -2,0.892 -2,2 v 5.99984 l 4,3.40006 c 1.0629,0.85904 3.01396,0.99934 4,0 l 4,-3.40006 V 235 c 0,-1.108 -0.892,-2 -2,-2 h -2 v -4 z"
         style="fill:#6a6a6a;stroke-width:1"
         id="path3428" />
      <path
         d="m 310,229 v 1 h 4 v -1 z m -2,4 c -1.108,0 -2,0.892 -2,2 v 1 c 0,-1.108 0.892,-2 2,-2 h 2 v -1 z m 6,0 v 1 h 2 c 1.108,0 2,0.892 2,2 v -1 c 0,-1.108 -0.892,-2 -2,-2 z"
         style="opacity:0.1;fill:#ffffff;stroke-width:1"
         id="path3466" />
      <circle
         style="opacity:0.2;fill:#000000;fill-opacity:1;stroke-width:2;stroke-linecap:square"
         id="path3416"
         cx="312"
         cy="240"
         r="2" />
      <circle
         style="fill:#ffffff;fill-opacity:1;stroke-width:2;stroke-linecap:square"
         id="path3418"
         cx="312"
         cy="238.99998"
         r="2" />
    </g>
    <g
       id="g6051">
      <path
         d="m 320.19386,161.00463 c -0.97076,0.39004 1.99414,0.51882 2.50208,1.28398 l 14.9308,24.49656 L 338,193.00011 332.40096,189.21649 320,169.00011 l 0.083,-7.98572 c 0.0378,0 0.1462,-0.024 0.1108,-0.01 z"
         style="fill:#000000;fill-rule:evenodd;stroke-width:1.82139;opacity:0.2"
         id="path5993" />
      <path
         d="m 320.19386,160.00452 c -0.97076,0.39004 1.99414,0.51882 2.50208,1.28398 l 14.9308,24.49656 L 338,192 332.40096,188.21638 320,168 l 0.083,-7.98572 c 0.0378,0 0.1462,-0.024 0.1108,-0.01 z"
         style="fill:#a2a2a2;fill-rule:evenodd;stroke-width:1.82139"
         id="path5909"
         sodipodi:nodetypes="ccccccccc" />
      <path
         d="m 319.80468,161.00398 c 0.0492,0.02 0.0834,0.04 0.1132,0.0586 v -0.0468 c -0.0378,0 -0.1486,-0.0258 -0.1132,-0.012 z m 0.1132,0.0586 0.004,0.1796 c 0.0896,-0.0568 0.1014,-0.1142 -0.004,-0.1796 z m 0.004,0.1796 c -0.38552,0.24444 -2.22598,0.45756 -2.6172,1.04688 L 302.375,186.78516 302,193 l 5.59766,-3.78516 2.20312,-3.58594 c 2.5441,0.89844 5.48914,1.36496 8.19922,1.3711 13.25478,0 24,-10.7452 24,-24 h -6 c 0,9.9411 -8.0589,18 -18,18 -1.49108,-0.006 -3.49332,-0.33754 -4.92968,-0.70704 L 320,169 Z"
         style="fill:#000000;fill-opacity:1;fill-rule:evenodd;stroke-width:1.82574;opacity:0.2"
         id="path6021" />
      <path
         d="m 319.80468,160.00398 c 0.0492,0.02 0.0834,0.04 0.1132,0.0586 v -0.0468 c -0.0378,0 -0.1486,-0.0258 -0.1132,-0.012 z m 0.1132,0.0586 0.004,0.1796 c 0.0896,-0.0568 0.1014,-0.1142 -0.004,-0.1796 z m 0.004,0.1796 c -0.38552,0.24444 -2.22598,0.45756 -2.6172,1.04688 L 302.375,185.78516 302,192 l 5.59766,-3.78516 2.20312,-3.58594 c 2.5441,0.89844 5.48914,1.36496 8.19922,1.3711 13.25478,0 24,-10.7452 24,-24 h -6 c 0,9.9411 -8.0589,18 -18,18 -1.49108,-0.006 -3.49332,-0.33754 -4.92968,-0.70704 L 320,168 Z"
         style="fill:#e4e4e4;fill-opacity:1;fill-rule:evenodd;stroke-width:1.82574"
         id="path5881"
         sodipodi:nodetypes="ccccccccccccccccccccc" />
      <path
         id="path5937"
         style="fill:#ffffff;fill-opacity:1;fill-rule:evenodd;stroke-width:1.82574;opacity:0.2"
         d="M 319.80469 160.00391 C 319.85389 160.02391 319.88817 160.0439 319.91797 160.0625 L 319.91797 160.01562 C 319.88017 160.01562 319.76929 159.99011 319.80469 160.00391 z M 319.91797 160.0625 L 319.92188 160.24219 C 320.01147 160.18539 320.02337 160.1279 319.91797 160.0625 z M 319.92188 160.24219 C 319.53636 160.48663 317.69591 160.69974 317.30469 161.28906 L 302.375 185.78516 L 302 192 L 302.0625 191.95703 L 302.375 186.78516 L 317.30469 162.28906 C 317.69591 161.69974 319.53636 161.48663 319.92188 161.24219 L 319.91797 161.0625 C 319.88817 161.0439 319.85389 161.02391 319.80469 161.00391 C 319.76929 160.99011 319.88017 161.01562 319.91797 161.01562 L 319.91797 161.0625 C 319.92334 161.06583 319.92492 161.06897 319.92969 161.07227 L 319.92188 160.24219 z M 319.92188 161.24219 L 319.99023 168.01562 L 320 168 L 319.93164 161.23438 C 319.92786 161.23699 319.92599 161.23958 319.92188 161.24219 z M 336 162 C 336 171.94109 327.94109 180 318 180 C 316.68127 179.99469 314.98268 179.73165 313.60938 179.41602 L 313.07031 180.29297 C 314.50667 180.66247 316.50892 180.994 318 181 C 327.94109 181 336 172.94109 336 163 L 341.97461 163 C 341.98825 162.66779 342 162.33556 342 162 L 336 162 z " />
      <path
         d="m 317,153 v 5 h -2 c -1.108,0 -2,0.892 -2,2 v 6 l 5,4.40002 c 1.0629,0.85904 3.01396,0.99934 4,0 L 327,166 v -6 c 0,-1.108 -0.892,-2 -2,-2 h -2 v -5 z"
         style="opacity:0.2;fill:#000000;stroke-width:2"
         id="path5797"
         sodipodi:nodetypes="ccssccccssccc" />
      <path
         d="m 317,152 v 5 h -2 c -1.108,0 -2,0.892 -2,2 v 6 l 5,4.40002 c 1.0629,0.85904 3.01396,0.99934 4,0 L 327,165 v -6 c 0,-1.108 -0.892,-2 -2,-2 h -2 v -5 z"
         style="fill:#6a6a6a;stroke-width:2"
         id="path5716"
         sodipodi:nodetypes="ccssccccssccc" />
      <path
         id="path5825"
         style="opacity:0.1;fill:#ffffff;stroke-width:2"
         d="M 317 152 L 317 153 L 323 153 L 323 152 L 317 152 z M 315 157 C 313.892 157 313 157.892 313 159 L 313 160 C 313 158.892 313.892 158 315 158 L 317 158 L 317 157 L 315 157 z M 323 157 L 323 158 L 325 158 C 326.108 158 327 158.892 327 160 L 327 159 C 327 157.892 326.108 157 325 157 L 323 157 z " />
      <circle
         style="opacity:0.2;fill:#000000;fill-opacity:1;stroke-width:2;stroke-linecap:square"
         id="path5787"
         cx="320"
         cy="164"
         r="3" />
      <circle
         style="fill:#ffffff;fill-opacity:1;stroke-width:2.1002;stroke-linecap:square"
         id="path5758"
         cx="320"
         cy="163"
         r="3" />
    </g>
    <g
       id="g6697">
      <path
         d="m 336.29079,57.006938 c -1.45614,0.58506 2.99121,0.77823 3.75312,1.92597 L 362.44011,95.677754 363,105.00015 354.60144,99.324734 336,69.000158 l 0.1245,-11.97858 c 0.0567,0 0.21931,-0.036 0.1662,-0.015 z"
         style="opacity:0.2;fill:#000000;fill-rule:evenodd;stroke-width:2.73208"
         id="path6613" />
      <path
         d="m 336.29079,56.007201 c -1.45614,0.58506 2.99121,0.77823 3.75312,1.92597 L 362.44011,94.678014 363,104.00042 354.60144,98.324994 336,68.000421 l 0.1245,-11.97858 c 0.0567,0 0.21931,-0.036 0.1662,-0.015 z"
         style="fill:#a2a2a2;fill-rule:evenodd;stroke-width:2.73208"
         id="path6473"
         sodipodi:nodetypes="ccccccccc" />
      <path
         d="m 335.70702,57.006391 c 0.0738,0.03 0.1251,0.06 0.1698,0.0879 v -0.0702 c -0.0567,0 -0.2229,-0.0387 -0.1698,-0.018 z m 0.1698,0.0879 0.006,0.2694 c 0.1344,-0.0852 0.1521,-0.1713 -0.006,-0.2694 z m 0.006,0.2694 c -0.57828,0.36666 -3.33897,0.68634 -3.9258,1.57032 L 309.5625,95.678166 309,105.00042 l 8.39649,-5.677744 3.30468,-5.37891 c 3.81615,1.34767 8.23371,2.04744 12.29883,2.05666 19.88217,0 36,-16.11781 36,-36.000005 h -9 c 0,14.911645 -12.08835,27.000005 -27,27.000005 -2.23662,-0.009 -5.23998,-0.50631 -7.39452,-1.06056 L 336,69.000421 Z"
         style="fill:#000000;fill-opacity:1;fill-rule:evenodd;stroke-width:2.73861;opacity:0.2"
         id="path6585" />
      <path
         d="m 335.70702,56.006391 c 0.0738,0.03 0.1251,0.06 0.1698,0.0879 v -0.0702 c -0.0567,0 -0.2229,-0.0387 -0.1698,-0.018 z m 0.1698,0.0879 0.006,0.2694 c 0.1344,-0.0852 0.1521,-0.1713 -0.006,-0.2694 z m 0.006,0.2694 c -0.57828,0.36666 -3.33897,0.68634 -3.9258,1.57032 L 309.5625,94.678161 309,104.00042 l 8.39649,-5.67774 3.30468,-5.378909 c 3.81615,1.34766 8.23371,2.04744 12.29883,2.05665 19.88217,0 36,-16.1178 36,-36 h -9 c 0,14.91165 -12.08835,27 -27,27 -2.23662,-0.009 -5.23998,-0.50631 -7.39452,-1.06056 L 336,68.000421 Z"
         style="fill:#e4e4e4;fill-opacity:1;fill-rule:evenodd;stroke-width:2.73861"
         id="path6439"
         sodipodi:nodetypes="ccccccccccccccccccccc" />
      <path
         id="path6641"
         style="fill:#ffffff;fill-opacity:1;fill-rule:evenodd;stroke-width:2.73861;opacity:0.2"
         d="M 335.70703 56.005859 C 335.78083 56.035859 335.83225 56.06585 335.87695 56.09375 L 335.87695 56.023438 C 335.82025 56.023438 335.65393 55.985159 335.70703 56.005859 z M 335.87695 56.09375 L 335.88281 56.363281 C 336.01721 56.278081 336.03505 56.19185 335.87695 56.09375 z M 335.88281 56.363281 C 335.30453 56.729941 332.54386 57.049615 331.95703 57.933594 L 309.5625 94.677734 L 309 104 L 309.0625 103.95703 L 309.5625 95.677734 L 331.95703 58.933594 C 332.54386 58.049615 335.30453 57.729941 335.88281 57.363281 L 335.87695 57.09375 C 335.83225 57.06585 335.78083 57.035859 335.70703 57.005859 C 335.65393 56.985159 335.82025 57.023438 335.87695 57.023438 L 335.87695 57.09375 C 335.88329 57.097683 335.88485 57.101574 335.89062 57.105469 L 335.88281 56.363281 z M 335.88281 57.363281 L 335.99023 68.015625 L 336 68 L 335.89258 57.355469 C 335.88865 57.358101 335.88696 57.360651 335.88281 57.363281 z M 360 59 C 360 73.911635 347.91164 86 333 86 C 330.93564 85.991693 328.24496 85.563605 326.14453 85.0625 L 325.60547 85.939453 C 327.76001 86.493703 330.76338 86.991 333 87 C 347.91164 87 360 74.911635 360 60 L 368.97461 60 C 368.98371 59.666988 369 59.335211 369 59 L 360 59 z " />
      <path
         d="m 332,45 v 7 h -3 c -1.662,0 -3,1.338 -3,3 v 9.5 l 7,6.60003 c 1.59435,1.28856 4.52094,1.49901 6,0 L 346,64.5 V 55 c 0,-1.662 -1.338,-3 -3,-3 h -3 v -7 z"
         style="opacity:0.2;fill:#000000;stroke-width:3"
         id="path6501"
         sodipodi:nodetypes="ccssccccssccc" />
      <path
         d="m 332,44 v 7 h -3 c -1.662,0 -3,1.338 -3,3 v 9.5 l 7,6.60003 c 1.59435,1.28856 4.52094,1.49901 6,0 L 346,63.5 V 54 c 0,-1.662 -1.338,-3 -3,-3 h -3 v -7 z"
         style="fill:#6a6a6a;stroke-width:3"
         id="path6411"
         sodipodi:nodetypes="ccssccccssccc" />
      <circle
         style="opacity:0.2;fill:#000000;fill-opacity:1;stroke-width:1.6;stroke-linecap:square"
         id="path6699"
         cx="336"
         cy="61"
         r="4" />
      <circle
         style="opacity:1;fill:#ffffff;fill-opacity:1;stroke-width:2;stroke-linecap:square"
         id="path6701"
         cx="336"
         cy="60"
         r="4" />
      <path
         id="path6529"
         style="opacity:0.1;fill:#ffffff;stroke-width:3"
         d="m 332,44 v 1 h 8 v -1 z m -3,7 c -1.662,0 -3,1.338002 -3,3 v 1 c 0,-1.661998 1.338,-3 3,-3 h 3 v -1 z m 11,0 v 1 h 3 c 1.662,0 3,1.338002 3,3 v -1 c 0,-1.661998 -1.338,-3 -3,-3 z"
         sodipodi:nodetypes="cccccsscsccsccscssc" />
    </g>
    <g
       id="g6347"
       transform="matrix(4,0,0,4,-1136,-532.00001)">
      <path
         d="m 320.19386,160.50463 c -0.97076,0.39004 1.99414,0.51882 2.50208,1.28398 L 337.62673,186.28517 338,192.50011 332.40096,188.71649 320,168.50011 l 0.083,-7.98572 c 0.0378,0 0.1462,-0.024 0.11079,-0.01 z"
         style="opacity:0.2;fill:#000000;fill-rule:evenodd;stroke-width:1.82139"
         id="path6173" />
      <path
         d="m 320.19386,160.00452 c -0.97076,0.39004 1.99414,0.51882 2.50208,1.28398 l 14.9308,24.49656 L 338,192 332.40096,188.21638 320,168 l 0.083,-7.98572 c 0.0378,0 0.1462,-0.024 0.1108,-0.01 z"
         style="fill:#a2a2a2;fill-rule:evenodd;stroke-width:1.82139"
         id="path6145"
         sodipodi:nodetypes="ccccccccc"
         inkscape:label="path6145" />
      <path
         d="m 319.80468,160.50426 c 0.0492,0.02 0.0834,0.04 0.1132,0.0586 v -0.0468 c -0.0378,0 -0.1486,-0.0258 -0.1132,-0.012 z m 0.1132,0.0586 0.004,0.1796 c 0.0896,-0.0568 0.1014,-0.11419 -0.004,-0.1796 z m 0.004,0.1796 c -0.38552,0.24444 -2.22598,0.45756 -2.6172,1.04688 l -14.92968,24.4961 -0.375,6.21484 5.59766,-3.78515 2.20312,-3.58594 c 2.5441,0.89844 5.48914,1.36496 8.19922,1.3711 13.25478,0 24,-10.7452 24,-24 h -6 c 0,9.9411 -8.0589,18 -18,18 -1.49108,-0.006 -3.49332,-0.33754 -4.92968,-0.70704 L 320,168.50028 Z"
         style="opacity:0.2;fill:#000000;fill-opacity:1;fill-rule:evenodd;stroke-width:1.82574"
         id="path6201" />
      <path
         d="m 319.80468,160.00398 c 0.0492,0.02 0.0834,0.04 0.1132,0.0586 v -0.0468 c -0.0378,0 -0.1486,-0.0258 -0.1132,-0.012 z m 0.1132,0.0586 0.004,0.1796 c 0.0896,-0.0568 0.1014,-0.1142 -0.004,-0.1796 z m 0.004,0.1796 c -0.38552,0.24444 -2.22598,0.45756 -2.6172,1.04688 L 302.375,185.78516 302,192 l 5.59766,-3.78516 2.20312,-3.58594 c 2.5441,0.89844 5.48914,1.36496 8.19922,1.3711 13.25478,0 24,-10.7452 24,-24 h -6 c 0,9.9411 -8.0589,18 -18,18 -1.49108,-0.006 -3.49332,-0.33754 -4.92968,-0.70704 L 320,168 Z"
         style="fill:#e4e4e4;fill-opacity:1;fill-rule:evenodd;stroke-width:1.82574"
         id="path6061"
         sodipodi:nodetypes="ccccccccccccccccccccc" />
      <path
         id="path6089"
         style="opacity:0.2;fill:#ffffff;fill-opacity:1;fill-rule:evenodd;stroke-width:1.82574"
         d="m 319.80469,160.00391 c 0.0492,0.02 0.0835,0.04 0.11328,0.0586 v -0.0469 c -0.0378,0 -0.14868,-0.0255 -0.11328,-0.0117 z m 0.11328,0.0586 0.004,0.17969 c 0.0896,-0.0568 0.10149,-0.11429 -0.004,-0.17969 z m 0.004,0.17969 c -0.38552,0.24444 -2.22597,0.45755 -2.61719,1.04687 L 302.375,185.78516 302,192 l 0.0312,-0.0215 0.34375,-5.69336 14.92969,-24.4961 c 0.39122,-0.58932 2.23167,-0.80243 2.61719,-1.04687 l -0.004,-0.17969 c -0.0298,-0.0186 -0.0641,-0.0386 -0.11328,-0.0586 -0.0354,-0.0138 0.0755,0.0117 0.11328,0.0117 v 0.0469 c 0.003,0.002 0.005,0.004 0.008,0.006 z m 0,0.5 0.0723,7.26562 L 320,168 l -0.0723,-7.26172 c -0.002,0.001 -0.004,0.002 -0.006,0.004 z M 336,162 c 0,9.94109 -8.05891,18 -18,18 -1.40497,-0.006 -3.24855,-0.30336 -4.66016,-0.64648 l -0.26953,0.43945 c 1.43636,0.3695 3.43861,0.70103 4.92969,0.70703 9.94109,0 18,-8.05891 18,-18 h 5.98828 C 341.99171,162.33305 342,162.16777 342,162 Z" />
      <path
         d="m 317,152.5 v 5 h -2 c -1.108,0 -2,0.892 -2,2 v 6 l 5,4.40002 c 1.0629,0.85904 3.01396,0.99934 4,0 L 327,165.5 v -6 c 0,-1.108 -0.892,-2 -2,-2 h -2 v -5 z"
         style="opacity:0.2;fill:#000000;stroke-width:2"
         id="path6229"
         sodipodi:nodetypes="ccssccccssccc" />
      <path
         d="m 317,152 v 5 h -2 c -1.108,0 -2,0.892 -2,2 v 6 l 5,4.40002 c 1.0629,0.85904 3.01396,0.99934 4,0 L 327,165 v -6 c 0,-1.108 -0.892,-2 -2,-2 h -2 v -5 z"
         style="fill:#6a6a6a;stroke-width:2"
         id="path6257"
         sodipodi:nodetypes="ccssccccssccc" />
      <circle
         style="opacity:0.2;fill:#000000;fill-opacity:1;stroke-width:2;stroke-linecap:square"
         id="path6277"
         cx="320"
         cy="163.5"
         r="3" />
      <circle
         style="opacity:1;fill:#ffffff;fill-opacity:1;stroke-width:2;stroke-linecap:square"
         id="path6279"
         cx="320"
         cy="163"
         r="3" />
      <path
         id="path6289"
         style="opacity:0.1;fill:#ffffff;stroke-width:2"
         d="m 317,152 v 0.5 h 6 V 152 Z m -2,5 c -1.108,0 -2,0.892 -2,2 v 0.5 c 0,-1.108 0.892,-2 2,-2 h 2 V 157 Z m 8,0 v 0.5 h 2 c 1.108,0 2,0.892 2,2 V 159 c 0,-1.108 -0.892,-2 -2,-2 z" />
    </g>
  </g>
  <g
     id="Highlights">
    <path
       id="rect653"
       style="opacity:0.2;fill:#ffffff"
       d="M 80,44 C 53.408027,44 32,65.408027 32,92 v 2 C 32,67.408027 53.408027,46 80,46 h 128 c 26.59197,0 48,21.408027 48,48 V 92 C 256,65.408027 234.59197,44 208,44 Z"
       sodipodi:nodetypes="sscsscsss" />
    <path
       id="rect773"
       style="opacity:0.2;fill:#ffffff"
       d="m 312,34 c -9.97199,0 -18,8.02801 -18,18 v 1 c 0,-9.97199 8.02801,-18 18,-18 h 48 c 9.97199,0 18,8.02801 18,18 v -1 c 0,-9.97199 -8.02801,-18 -18,-18 z" />
    <path
       id="rect1135"
       style="opacity:0.2;fill:#ffffff;fill-opacity:1"
       d="m 304,144 c -6.64799,0 -12,5.35201 -12,12 v 1 c 0,-6.64799 5.35201,-12 12,-12 h 32 c 6.64799,0 12,5.35201 12,12 v -1 c 0,-6.64799 -5.35201,-12 -12,-12 z" />
    <path
       id="rect1265"
       style="opacity:0.2;fill:#ffffff;fill-opacity:1"
       d="m 300,223 c -4.986,0 -9,4.014 -9,9 v 1 c 0,-4.986 4.014,-9 9,-9 h 24 c 4.986,0 9,4.014 9,9 v -1 c 0,-4.986 -4.014,-9 -9,-9 z" />
    <path
       id="rect1368"
       style="opacity:0.2;fill:#ffffff;fill-opacity:1"
       d="m 424,54 c -3.324,0 -6,2.676003 -6,6 v 1 c 0,-3.323997 2.676,-6 6,-6 h 16 c 3.324,0 6,2.676003 6,6 v -1 c 0,-3.323997 -2.676,-6 -6,-6 z" />
    <path
       id="rect1402"
       style="opacity:0.2;fill:#ffffff;fill-opacity:1"
       d="m 420,140 c -2.216,0 -4,1.784 -4,4 v 1 c 0,-2.216 1.784,-4 4,-4 h 8 c 2.216,0 4,1.784 4,4 v -1 c 0,-2.216 -1.784,-4 -4,-4 z" />
    <path
       id="rect1436"
       style="opacity:0.2;fill:#ffffff;fill-opacity:1"
       d="m 422,102 c -2.216,0 -4,1.784 -4,4 v 1 c 0,-2.216 1.784,-4 4,-4 h 12 c 2.216,0 4,1.784 4,4 v -1 c 0,-2.216 -1.784,-4 -4,-4 z" />
  </g>
</svg>
