<?xml version="1.0" encoding="UTF-8" standalone="no"?>
<!-- Created with Inkscape (http://www.inkscape.org/) -->

<svg
   width="480"
   height="300"
   viewBox="0 0 480 300"
   version="1.1"
   id="svg5"
   inkscape:version="1.2.2 (1:1.2.2+202305151914+b0a8486541)"
   sodipodi:docname="cs-fonts.svg"
   xmlns:inkscape="http://www.inkscape.org/namespaces/inkscape"
   xmlns:sodipodi="http://sodipodi.sourceforge.net/DTD/sodipodi-0.dtd"
   xmlns="http://www.w3.org/2000/svg"
   xmlns:svg="http://www.w3.org/2000/svg">
  <sodipodi:namedview
     id="namedview7"
     pagecolor="#888888"
     bordercolor="#000000"
     borderopacity="0.25"
     inkscape:showpageshadow="true"
     inkscape:pageopacity="0"
     inkscape:pagecheckerboard="0"
     inkscape:deskcolor="#888888"
     inkscape:document-units="px"
     showgrid="false"
     showborder="false"
     inkscape:zoom="2.6866667"
     inkscape:cx="240.07444"
     inkscape:cy="150"
     inkscape:window-width="1920"
     inkscape:window-height="1008"
     inkscape:window-x="0"
     inkscape:window-y="0"
     inkscape:window-maximized="1"
     inkscape:current-layer="svg5" />
  <defs
     id="defs2" />
  <g
     id="Baseplate"
     style="display:none">
    <text
       y="19.774782"
       xml:space="preserve"
       x="15.006946"
       style="font-style:normal;font-variant:normal;font-weight:normal;font-stretch:normal;line-height:0%;font-family:'DejaVu Sans';-inkscape-font-specification:'DejaVu Sans';display:inline;fill:#000000;fill-opacity:1;stroke:none;enable-background:new"
       inkscape:label="context"
       id="context"><tspan
         style="font-style:normal;font-variant:normal;font-weight:normal;font-stretch:normal;font-size:18px;line-height:1.25;font-family:'DejaVu Sans';-inkscape-font-specification:'DejaVu Sans'"
         y="19.774782"
         x="15.006946"
         sodipodi:role="line"
         id="tspan3933">categories</tspan></text>
    <text
       y="19.774782"
       xml:space="preserve"
       x="122.48839"
       style="font-style:normal;font-variant:normal;font-weight:bold;font-stretch:normal;line-height:0%;font-family:'DejaVu Sans';-inkscape-font-specification:'DejaVu Sans Bold';text-align:start;writing-mode:lr-tb;text-anchor:start;display:inline;fill:#000000;fill-opacity:1;stroke:none;enable-background:new"
       inkscape:label="icon-name"
       id="icon-name"><tspan
         style="font-style:normal;font-variant:normal;font-weight:bold;font-stretch:normal;font-size:18px;line-height:1.25;font-family:'DejaVu Sans';-inkscape-font-specification:'DejaVu Sans Bold'"
         y="19.774782"
         x="122.48839"
         sodipodi:role="line"
         id="tspan3937">cs-fonts</tspan></text>
    <rect
       style="fill:#ffffff"
       id="256x256"
       width="256"
       height="256"
       x="16"
       y="28" />
    <rect
       style="fill:#ffffff"
       id="96x96"
       width="96"
       height="96"
       x="288"
       y="28" />
    <rect
       style="fill:#ffffff"
       id="64x64"
       width="64"
       height="64"
       x="288"
       y="140" />
    <rect
       style="fill:#ffffff"
       id="48x48"
       width="48"
       height="48"
       x="288"
       y="220" />
    <rect
       style="fill:#ffffff"
       id="32x32"
       width="32"
       height="32"
       x="416"
       y="52" />
    <rect
       style="fill:#ffffff"
       id="24x24"
       width="24"
       height="24"
       x="416"
       y="100" />
    <rect
       style="fill:#ffffff"
       id="22x22"
       width="22"
       height="22"
       x="417"
       y="101" />
    <rect
       style="fill:#ffffff"
       id="16x16"
       width="16"
       height="16"
       x="416"
       y="140" />
  </g>
  <g
     id="Shadow">
    <rect
       style="opacity:0.2;fill:#000000"
       id="rect651"
       width="224"
       height="224"
       x="32"
       y="46"
       ry="48" />
    <rect
       style="opacity:0.2;fill:#000000"
       id="rect769"
       width="84"
       height="85"
       x="294"
       y="34"
       ry="18" />
    <rect
       style="opacity:0.2;fill:#000000;fill-opacity:1"
       id="rect1131"
       width="56"
       height="56"
       x="292"
       y="145"
       ry="12" />
    <rect
       style="opacity:0.2;fill:#000000;fill-opacity:1"
       id="rect1261"
       width="42"
       height="42"
       x="291"
       y="224"
       ry="9" />
    <rect
       style="opacity:0.2;fill:#000000;fill-opacity:1"
       id="rect1364"
       width="28"
       height="29"
       x="418"
       y="54"
       ry="6" />
    <rect
       style="opacity:0.2;fill:#000000;fill-opacity:1"
       id="rect1398"
       width="16"
       height="16"
       x="416"
       y="141"
       ry="4" />
    <rect
       style="opacity:0.2;fill:#000000;fill-opacity:1"
       id="rect1432"
       width="20"
       height="20"
       x="418"
       y="103"
       ry="4" />
  </g>
  <g
     id="Background">
    <rect
       style="fill:#a3a3a3;fill-opacity:1"
       id="rect597"
       width="224"
       height="224"
       x="32"
       y="44"
       ry="48" />
    <rect
       style="opacity:1;fill:#a3a3a3;fill-opacity:1"
       id="rect771"
       width="84"
       height="84"
       x="294"
       y="34"
       ry="18" />
    <rect
       style="opacity:1;fill:#a3a3a3;fill-opacity:1"
       id="rect1133"
       width="56"
       height="56"
       x="292"
       y="144"
       ry="12" />
    <rect
       style="opacity:1;fill:#a3a3a3;fill-opacity:1"
       id="rect1263"
       width="42"
       height="42"
       x="291"
       y="223"
       ry="9" />
    <rect
       style="opacity:1;fill:#a3a3a3;fill-opacity:1"
       id="rect1366"
       width="28"
       height="28"
       x="418"
       y="54"
       ry="6" />
    <rect
       style="opacity:1;fill:#a3a3a3;fill-opacity:1"
       id="rect1400"
       width="16"
       height="16"
       x="416"
       y="140"
       ry="4" />
    <rect
       style="opacity:1;fill:#a3a3a3;fill-opacity:1"
       id="rect1434"
       width="20"
       height="20"
       x="418"
       y="102"
       ry="4" />
  </g>
  <g
     id="Symbols">
    <path
       d="m 421.4471,142.50006 c -0.31713,0 -0.64379,0.0292 -0.97852,0.0859 -0.33473,0.0539 -0.67928,0.13555 -1.03516,0.24609 v 0.72266 c 0.29598,-0.13038 0.60319,-0.22778 0.92383,-0.29297 0.32065,-0.0652 0.65197,-0.0977 0.99024,-0.0977 0.53205,1e-5 0.94387,0.0985 1.23632,0.29688 0.29598,0.19558 0.44336,0.26503 0.44336,0.625 v 0.0801 h -1.36328 c -0.88441,0 -1.55056,0.13219 -1.99804,0.40429 -0.44397,0.27211 -0.66602,0.88422 -0.66602,1.41992 0,0.45918 0.17732,0.82663 0.5332,1.10157 0.3594,0.2721 0.84317,0.4082 1.44922,0.4082 0.4792,0 0.88558,-0.0671 1.2168,-0.20312 0.33121,-0.13889 0.60614,-0.35347 0.82812,-0.64258 V 147.5 h 0.97266 v -2.83984 c -10e-6,-0.72561 -0.21194,-1.26591 -0.63477,-1.62305 C 422.94224,142.67998 422.30331,142.5 421.4471,142.5 Z m 3.55273,1 v 7 h 1.66797 v -0.84375 c 0.19651,0.28853 0.38404,0.50225 0.62305,0.64063 0.23899,0.13543 0.51351,0.20312 0.82421,0.20312 0.54971,0 1.00227,-0.24176 1.35547,-0.72461 0.35319,-0.48579 0.52929,-1.15346 0.5293,-1.91601 -10e-6,-0.76255 -0.17611,-1.38434 -0.5293,-1.86719 -0.3532,-0.48579 -0.80576,-0.72851 -1.35547,-0.72852 -0.3107,1e-5 -0.58522,0.0687 -0.82421,0.20703 -0.23901,0.13544 -0.42654,0.34624 -0.62305,0.63477 v -2.60547 z m -2.88867,1.08398 h 1.05469 v 0.23243 c -10e-6,0.68511 -0.1776,1.23552 -0.53516,1.65039 -0.35372,0.41106 -0.82583,0.61719 -1.41406,0.61718 -0.42677,1e-5 -0.76377,-0.10922 -1.01367,-0.32617 -0.24607,-0.22075 -0.36915,-0.51762 -0.36915,-0.89062 0,-0.46816 0.16545,-0.79807 0.4961,-0.99219 0.33064,-0.19411 0.92387,-0.29101 1.78125,-0.29102 z m 5.39258,1.97852 c 0.26955,0 0.47459,0.11183 0.61523,0.33594 0.14298,0.22411 0.21484,0.54969 0.21484,0.97656 0,0.42688 -0.0719,0.75246 -0.21484,0.97656 -0.14064,0.22411 -0.34568,0.33594 -0.61523,0.33594 -0.26956,0 -0.47773,-0.11183 -0.62305,-0.33594 -0.14299,-0.22677 -0.21485,-0.55235 -0.21484,-0.97656 -10e-6,-0.4242 0.0719,-0.74854 0.21484,-0.97266 0.14532,-0.22677 0.35349,-0.33984 0.62305,-0.33984 z m -5.7461,1.9375 c -0.90572,1e-5 -1.69571,0.27442 -2.36718,0.82031 -0.66759,0.54234 -1.09973,1.26791 -1.29883,2.17774 -0.1952,0.90626 -0.0779,1.63413 0.35156,2.18359 0.42943,0.5459 1.09623,0.81836 2.00195,0.81836 0.68709,0 1.28154,-0.15902 1.78516,-0.47656 0.5036,-0.31755 0.8986,-0.78017 1.18359,-1.38672 h -0.86523 c -0.19911,0.446 -0.46309,0.78074 -0.79102,1.00195 -0.32403,0.22122 -0.71902,0.33203 -1.18359,0.33203 -0.5856,0 -0.98255,-0.20721 -1.18945,-0.62109 -0.20301,-0.41388 -0.21278,-1.03093 -0.0332,-1.85156 0.17958,-0.82063 0.46117,-1.43734 0.84766,-1.84766 0.39039,-0.41388 0.87729,-0.62109 1.45898,-0.62109 0.51141,0 0.87903,0.1154 1.10157,0.34375 0.22642,0.22835 0.32419,0.59228 0.29687,1.09179 h 0.62695 l 0.31641,-1.45507 c -0.35526,-0.17126 -0.72093,-0.2988 -1.0957,-0.38086 -0.37088,-0.0856 -0.75219,-0.1289 -1.14649,-0.12891 z"
       style="fill:#000000;opacity:0.2"
       id="path1021" />
    <path
       d="m 421.4471,142.00003 c -0.31713,0 -0.64379,0.0292 -0.97852,0.0859 -0.33473,0.0539 -0.67928,0.13555 -1.03516,0.24609 v 0.72266 c 0.29598,-0.13038 0.60319,-0.22778 0.92383,-0.29297 0.32065,-0.0652 0.65197,-0.0977 0.99024,-0.0977 0.53205,1e-5 0.94387,0.0985 1.23632,0.29688 0.29598,0.19558 0.44336,0.26503 0.44336,0.625 v 0.0801 h -1.36328 c -0.88441,0 -1.55056,0.13219 -1.99804,0.40429 -0.44397,0.27211 -0.66602,0.88422 -0.66602,1.41992 0,0.45918 0.17732,0.82663 0.5332,1.10157 0.3594,0.2721 0.84317,0.4082 1.44922,0.4082 0.4792,0 0.88558,-0.0671 1.2168,-0.20312 0.33121,-0.13889 0.60614,-0.35347 0.82812,-0.64258 v 0.8457 h 0.97266 v -2.83984 c -10e-6,-0.72561 -0.21194,-1.26591 -0.63477,-1.62305 -0.42282,-0.35713 -1.06175,-0.53711 -1.91796,-0.53711 z m 3.55273,1 v 7 h 1.66797 v -0.84375 c 0.19651,0.28853 0.38404,0.50225 0.62305,0.64063 0.23899,0.13543 0.51351,0.20312 0.82421,0.20312 0.54971,0 1.00227,-0.24176 1.35547,-0.72461 0.35319,-0.48579 0.52929,-1.15346 0.5293,-1.91601 -10e-6,-0.76255 -0.17611,-1.38434 -0.5293,-1.86719 -0.3532,-0.48579 -0.80576,-0.72851 -1.35547,-0.72852 -0.3107,1e-5 -0.58522,0.0687 -0.82421,0.20703 -0.23901,0.13544 -0.42654,0.34624 -0.62305,0.63477 v -2.60547 z m -2.88867,1.08398 h 1.05469 v 0.23243 c -10e-6,0.68511 -0.1776,1.23552 -0.53516,1.65039 -0.35372,0.41106 -0.82583,0.61719 -1.41406,0.61718 -0.42677,1e-5 -0.76377,-0.10922 -1.01367,-0.32617 -0.24607,-0.22075 -0.36915,-0.51762 -0.36915,-0.89062 0,-0.46816 0.16545,-0.79807 0.4961,-0.99219 0.33064,-0.19411 0.92387,-0.29101 1.78125,-0.29102 z m 5.39258,1.97852 c 0.26955,0 0.47459,0.11183 0.61523,0.33594 0.14298,0.22411 0.21484,0.54969 0.21484,0.97656 0,0.42688 -0.0719,0.75246 -0.21484,0.97656 -0.14064,0.22411 -0.34568,0.33594 -0.61523,0.33594 -0.26956,0 -0.47773,-0.11183 -0.62305,-0.33594 -0.14299,-0.22677 -0.21485,-0.55235 -0.21484,-0.97656 -10e-6,-0.4242 0.0719,-0.74854 0.21484,-0.97266 0.14532,-0.22677 0.35349,-0.33984 0.62305,-0.33984 z m -5.7461,1.9375 c -0.90572,1e-5 -1.69571,0.27442 -2.36718,0.82031 -0.66759,0.54234 -1.09973,1.26791 -1.29883,2.17774 -0.1952,0.90626 -0.0779,1.63413 0.35156,2.18359 0.42943,0.5459 1.09623,0.81836 2.00195,0.81836 0.68709,0 1.28154,-0.15902 1.78516,-0.47656 0.5036,-0.31755 0.8986,-0.78017 1.18359,-1.38672 h -0.86523 c -0.19911,0.446 -0.46309,0.78074 -0.79102,1.00195 -0.32403,0.22122 -0.71902,0.33203 -1.18359,0.33203 -0.5856,0 -0.98255,-0.20721 -1.18945,-0.62109 -0.20301,-0.41388 -0.21278,-1.03093 -0.0332,-1.85156 0.17958,-0.82063 0.46117,-1.43734 0.84766,-1.84766 0.39039,-0.41388 0.87729,-0.62109 1.45898,-0.62109 0.51141,0 0.87903,0.1154 1.10157,0.34375 0.22642,0.22835 0.32419,0.59228 0.29687,1.09179 h 0.62695 l 0.31641,-1.45507 c -0.35526,-0.17126 -0.72093,-0.2988 -1.0957,-0.38086 -0.37088,-0.0856 -0.75219,-0.1289 -1.14649,-0.12891 z"
       style="fill:#4d4d4d;fill-opacity:1"
       id="path993"
       sodipodi:nodetypes="scccsscscscscsccccsssscccccscscsccccscscscsssscscscscsscccsscccscscscccccss" />
    <path
       d="m 425.43779,105.5 c -0.38055,1e-5 -0.77215,0.0335 -1.17383,0.10156 -0.40168,0.0646 -0.81709,0.16423 -1.24414,0.29688 v 0.86719 c 0.35518,-0.15646 0.72656,-0.27333 1.11133,-0.35157 0.38477,-0.0782 0.77963,-0.11718 1.18555,-0.11718 0.63846,0 1.13342,0.11933 1.48437,0.35742 0.35517,0.23469 0.5332,0.31803 0.5332,0.75 V 107.5 h -1.63671 c -1.0613,0 -1.86146,0.15785 -2.39844,0.48438 -0.53276,0.32652 -0.79884,1.06028 -0.79883,1.70312 -1e-5,0.55101 0.21357,0.99234 0.64063,1.32227 0.43128,0.32652 1.01101,0.49023 1.73828,0.49023 0.57503,0 1.06152,-0.0809 1.45898,-0.24414 0.39745,-0.16667 0.72971,-0.42455 0.99609,-0.77148 V 111.5 h 1.16602 v -3.40625 c -1e-5,-0.87073 -0.25238,-1.5226 -0.75977,-1.95117 -0.50739,-0.42856 -1.27527,-0.64257 -2.30273,-0.64258 z m 4.5625,2 v 8 h 2 v -0.96289 c 0.23582,0.32975 0.46124,0.57232 0.74805,0.73047 0.2868,0.15478 0.61934,0.23242 0.99218,0.23242 0.65965,0 1.20116,-0.27434 1.625,-0.82617 0.42383,-0.5552 0.63476,-1.31992 0.63477,-2.19141 -1e-5,-0.87148 -0.21094,-1.58293 -0.63477,-2.13476 -0.42384,-0.5552 -0.96535,-0.83203 -1.625,-0.83203 -0.37284,0 -0.70538,0.0782 -0.99218,0.23632 -0.28681,0.15479 -0.51223,0.39682 -0.74805,0.72657 V 107.5 Z m -3.76562,0.5 h 1.26562 v 0.28125 c 0,0.82213 -0.21351,1.48067 -0.64258,1.97852 -0.42446,0.49327 -0.98943,0.74023 -1.69531,0.74023 -0.51212,0 -0.91886,-0.13028 -1.21875,-0.39062 -0.29528,-0.26491 -0.44336,-0.62076 -0.44336,-1.06836 0,-0.56179 0.19892,-0.95847 0.5957,-1.19141 C 424.49276,108.11668 425.20581,108 426.23467,108 Z m 6.76953,3 c 0.32346,1e-5 0.56951,0.12669 0.73828,0.38281 0.17157,0.25613 0.25781,0.62934 0.25781,1.11719 0,0.48786 -0.0862,0.86106 -0.25781,1.11719 -0.16877,0.25612 -0.41482,0.38281 -0.73828,0.38281 -0.32347,0 -0.57171,-0.12668 -0.7461,-0.38281 -0.17158,-0.25917 -0.25781,-0.63238 -0.25781,-1.11719 0,-0.4848 0.0862,-0.8552 0.25781,-1.11133 0.17439,-0.25917 0.42263,-0.38866 0.7461,-0.38867 z m -8.61914,2.5 c -1.05672,1e-5 -1.97831,0.32013 -2.76172,0.95703 -0.77888,0.63275 -1.28334,1.47951 -1.51563,2.54102 -0.22774,1.05734 -0.0909,1.90581 0.41016,2.54687 0.50102,0.63691 1.27922,0.95508 2.33594,0.95508 0.80163,0 1.4964,-0.1842 2.08398,-0.55469 0.58756,-0.37048 1.04835,-0.91146 1.38086,-1.61914 h -1.01172 c -0.2323,0.52035 -0.53928,0.91183 -0.92187,1.16992 -0.37805,0.2581 -0.83885,0.38477 -1.38086,0.38477 -0.68322,0 -1.14533,-0.23977 -1.38672,-0.72266 -0.23685,-0.48288 -0.25053,-1.20271 -0.041,-2.16015 0.20952,-0.95744 0.53931,-1.67753 0.99024,-2.15625 0.45547,-0.48288 1.0225,-0.72265 1.70117,-0.72266 0.59667,1e-5 1.02552,0.13203 1.28515,0.39844 0.26418,0.26642 0.37954,0.6926 0.34766,1.27539 h 0.73047 l 0.36914,-1.69922 c -0.41448,-0.19981 -0.84009,-0.34761 -1.27734,-0.44336 -0.43271,-0.0999 -0.87787,-0.15038 -1.33789,-0.15039 z"
       style="fill:#000000;opacity:0.2"
       id="path833" />
    <path
       d="m 425.43779,105 c -0.38055,1e-5 -0.77215,0.0335 -1.17383,0.10156 -0.40168,0.0646 -0.81709,0.16423 -1.24414,0.29688 v 0.86719 c 0.35518,-0.15646 0.72656,-0.27333 1.11133,-0.35157 0.38477,-0.0782 0.77963,-0.11718 1.18555,-0.11718 0.63846,0 1.13342,0.11933 1.48437,0.35742 0.35517,0.23469 0.5332,0.31803 0.5332,0.75 V 107 h -1.63671 c -1.0613,0 -1.86146,0.15785 -2.39844,0.48438 -0.53276,0.32652 -0.79884,1.06028 -0.79883,1.70312 -1e-5,0.55101 0.21357,0.99234 0.64063,1.32227 0.43128,0.32652 1.01101,0.49023 1.73828,0.49023 0.57503,0 1.06152,-0.0809 1.45898,-0.24414 0.39745,-0.16667 0.72971,-0.42455 0.99609,-0.77148 V 111 h 1.16602 v -3.40625 c -1e-5,-0.87073 -0.25238,-1.5226 -0.75977,-1.95117 -0.50739,-0.42856 -1.27527,-0.64257 -2.30273,-0.64258 z m 4.5625,2 v 8 h 2 v -0.96289 c 0.23582,0.32975 0.46124,0.57232 0.74805,0.73047 0.2868,0.15478 0.61934,0.23242 0.99218,0.23242 0.65965,0 1.20116,-0.27434 1.625,-0.82617 0.42383,-0.5552 0.63476,-1.31992 0.63477,-2.19141 -1e-5,-0.87148 -0.21094,-1.58293 -0.63477,-2.13476 -0.42384,-0.5552 -0.96535,-0.83203 -1.625,-0.83203 -0.37284,0 -0.70538,0.0782 -0.99218,0.23632 -0.28681,0.15479 -0.51223,0.39682 -0.74805,0.72657 V 107 Z m -3.76562,0.5 h 1.26562 v 0.28125 c 0,0.82213 -0.21351,1.48067 -0.64258,1.97852 -0.42446,0.49327 -0.98943,0.74023 -1.69531,0.74023 -0.51212,0 -0.91886,-0.13028 -1.21875,-0.39062 -0.29528,-0.26491 -0.44336,-0.62076 -0.44336,-1.06836 0,-0.56179 0.19892,-0.95847 0.5957,-1.19141 0.39677,-0.23293 1.10982,-0.34961 2.13868,-0.34961 z m 6.76953,3 c 0.32346,1e-5 0.56951,0.12669 0.73828,0.38281 0.17157,0.25613 0.25781,0.62934 0.25781,1.11719 0,0.48786 -0.0862,0.86106 -0.25781,1.11719 -0.16877,0.25612 -0.41482,0.38281 -0.73828,0.38281 -0.32347,0 -0.57171,-0.12668 -0.7461,-0.38281 -0.17158,-0.25917 -0.25781,-0.63238 -0.25781,-1.11719 0,-0.4848 0.0862,-0.8552 0.25781,-1.11133 0.17439,-0.25917 0.42263,-0.38866 0.7461,-0.38867 z m -8.61914,2.5 c -1.05672,1e-5 -1.97831,0.32013 -2.76172,0.95703 -0.77888,0.63275 -1.28334,1.47951 -1.51563,2.54102 -0.22774,1.05734 -0.0909,1.90581 0.41016,2.54687 0.50102,0.63691 1.27922,0.95508 2.33594,0.95508 0.80163,0 1.4964,-0.1842 2.08398,-0.55469 0.58756,-0.37048 1.04835,-0.91146 1.38086,-1.61914 h -1.01172 c -0.2323,0.52035 -0.53928,0.91183 -0.92187,1.16992 -0.37805,0.2581 -0.83885,0.38477 -1.38086,0.38477 -0.68322,0 -1.14533,-0.23977 -1.38672,-0.72266 -0.23685,-0.48288 -0.25053,-1.20271 -0.041,-2.16015 0.20952,-0.95744 0.53931,-1.67753 0.99024,-2.15625 0.45547,-0.48288 1.0225,-0.72265 1.70117,-0.72266 0.59667,1e-5 1.02552,0.13203 1.28515,0.39844 0.26418,0.26642 0.37954,0.6926 0.34766,1.27539 h 0.73047 l 0.36914,-1.69922 c -0.41448,-0.19981 -0.84009,-0.34761 -1.27734,-0.44336 -0.43271,-0.0999 -0.87787,-0.15038 -1.33789,-0.15039 z"
       style="fill:#4d4d4d;fill-opacity:1"
       id="path756"
       sodipodi:nodetypes="scccsscscscscsccccssscccccscscsccccscscscsssscscscscsscccsscccscscscccccss" />
    <path
       d="m 427.91611,59 c -0.5074,8e-6 -1.03084,0.04602 -1.56641,0.136719 -0.53557,0.08617 -1.08685,0.217672 -1.65625,0.394531 v 1.15625 c 0.47357,-0.208607 0.96744,-0.36639 1.48047,-0.470703 0.51303,-0.104302 1.04081,-0.156243 1.58203,-0.15625 0.85128,7e-6 1.51058,0.159114 1.97852,0.476562 0.47356,0.312927 0.70897,0.824442 0.70898,1.400391 v 0.128906 h -2.17969 c -1.41505,5e-6 -2.48323,0.211124 -3.19922,0.646485 -0.71034,0.435372 -1.06446,1.013968 -1.06445,1.871093 -10e-6,0.734682 0.28411,1.323771 0.85352,1.763672 C 425.42865,66.783024 426.20228,67 427.17197,67 c 0.76671,0 1.41536,-0.108488 1.94531,-0.326172 0.52993,-0.222219 0.97099,-0.564766 1.32617,-1.027344 V 67 h 1.55664 v -4.142578 c -10e-6,-1.160972 -0.33716,-2.428577 -1.01367,-3 C 430.30989,59.286011 429.28605,59.000008 427.91611,59 Z m 6.08398,2 v 11 h 3 v -1.326172 c 0.42837,1.03292 1.00869,1.170295 1.98633,1.326172 0.87952,0 1.60089,-0.377951 2.16601,-1.136719 0.5651,-0.763393 0.84765,-1.813417 0.84766,-3.011719 -10e-6,-1.198292 -0.28256,-1.977553 -0.84766,-2.736328 -0.56512,-0.763389 -1.28649,-1.144523 -2.16601,-1.144531 -1.12313,0.01631 -1.59479,0.564285 -1.98633,1.324219 V 61 Z m -5.02148,1.734375 h 1.6875 v 0.373047 c -1e-5,1.096177 -0.28534,1.576442 -0.85743,2.240234 -0.56595,0.657703 -1.31858,0.986329 -2.25976,0.986328 -0.68283,10e-7 -1.22515,-0.174362 -1.625,-0.521484 -0.3937,-0.353209 -0.58985,-0.827021 -0.58985,-1.423828 0,-0.749047 0.26393,-0.878866 0.79297,-1.189453 0.52903,-0.310577 1.47976,-0.464838 2.85157,-0.464844 z M 438.50595,66 c 0.48519,8e-6 0.85427,0.170223 1.10742,0.511719 0.25736,0.341504 0.38671,0.837808 0.38672,1.488281 -10e-6,0.650479 -0.12936,1.146784 -0.38672,1.488281 -0.25315,0.341502 -0.62222,0.51172 -1.10742,0.511719 -0.48521,10e-7 -0.85756,-0.170217 -1.11914,-0.511719 -0.25737,-0.345562 -0.38673,-0.841868 -0.38672,-1.488281 -10e-6,-0.646408 0.12935,-1.140917 0.38672,-1.482422 0.26158,-0.345559 0.63393,-0.51757 1.11914,-0.517578 z m -11.24219,3 c -1.50959,8e-6 -2.82615,0.455381 -3.94531,1.365234 -1.11268,0.903925 -1.83417,2.114424 -2.16602,3.63086 -0.32534,1.510495 -0.12981,2.722865 0.58594,3.638672 0.71575,0.909865 1.8283,1.365234 3.33789,1.365234 1.14519,0 2.13717,-0.263703 2.97656,-0.792969 0.83937,-0.529266 1.49765,-1.301537 1.97266,-2.3125 h -1.44531 c -0.33186,0.743356 -0.76984,1.301222 -1.31641,1.669922 -0.54007,0.368705 -1.19835,0.552736 -1.97265,0.552735 -0.97603,10e-7 -1.63757,-0.345325 -1.98243,-1.035157 -0.33835,-0.68983 -0.35594,-1.718167 -0.0566,-3.085937 0.29931,-1.367764 0.76989,-2.394234 1.41407,-3.078125 0.65067,-0.689823 1.46211,-1.03515 2.43164,-1.035157 0.85238,8e-6 1.46308,0.191678 1.83398,0.572266 0.37739,0.380606 0.54358,0.987765 0.49805,1.820313 h 1.04297 l 0.52734,-2.427735 c -0.59211,-0.285438 -1.19957,-0.496025 -1.82422,-0.632812 C 428.55776,69.072131 427.92098,69.000008 427.2638,69 Z"
       style="fill:#000000;opacity:0.2"
       id="path1210" />
    <path
       d="m 427.91611,58 c -0.5074,8e-6 -1.03084,0.04602 -1.56641,0.136719 -0.53557,0.08617 -1.08685,0.217672 -1.65625,0.394531 v 1.15625 c 0.47357,-0.208607 0.96744,-0.36639 1.48047,-0.470703 0.51303,-0.104302 1.04081,-0.156243 1.58203,-0.15625 0.85128,7e-6 1.51058,0.159114 1.97852,0.476562 0.47356,0.312927 0.70897,0.824442 0.70898,1.400391 v 0.128906 h -2.17969 c -1.41505,5e-6 -2.48323,0.211124 -3.19922,0.646485 -0.71034,0.435372 -1.06446,1.013968 -1.06445,1.871093 -10e-6,0.734682 0.28411,1.323771 0.85352,1.763672 C 425.42865,65.783024 426.20228,66 427.17197,66 c 0.76671,0 1.41536,-0.108488 1.94531,-0.326172 0.52993,-0.222219 0.97099,-0.564766 1.32617,-1.027344 V 66 h 1.55664 v -4.142578 c -10e-6,-1.160972 -0.33716,-2.428577 -1.01367,-3 C 430.30989,58.286011 429.28605,58.000008 427.91611,58 Z m 6.08398,2 v 11 h 3 v -1.326172 c 0.42837,1.03292 1.00869,1.170295 1.98633,1.326172 0.87952,0 1.60089,-0.377951 2.16601,-1.136719 0.5651,-0.763393 0.84765,-1.813417 0.84766,-3.011719 -10e-6,-1.198292 -0.28256,-1.977553 -0.84766,-2.736328 -0.56512,-0.763389 -1.28649,-1.144523 -2.16601,-1.144531 -1.12313,0.01631 -1.59479,0.564285 -1.98633,1.324219 V 60 Z m -5.02148,1.734375 h 1.6875 v 0.373047 c -1e-5,1.096177 -0.28534,1.576442 -0.85743,2.240234 -0.56595,0.657703 -1.31858,0.986329 -2.25976,0.986328 -0.68283,10e-7 -1.22515,-0.174362 -1.625,-0.521484 -0.3937,-0.353209 -0.58985,-0.827021 -0.58985,-1.423828 0,-0.749047 0.26393,-0.878866 0.79297,-1.189453 0.52903,-0.310577 1.47976,-0.464838 2.85157,-0.464844 z M 438.50595,65 c 0.48519,8e-6 0.85427,0.170223 1.10742,0.511719 0.25736,0.341504 0.38671,0.837808 0.38672,1.488281 -10e-6,0.650479 -0.12936,1.146784 -0.38672,1.488281 -0.25315,0.341502 -0.62222,0.51172 -1.10742,0.511719 -0.48521,10e-7 -0.85756,-0.170217 -1.11914,-0.511719 -0.25737,-0.345562 -0.38673,-0.841868 -0.38672,-1.488281 -10e-6,-0.646408 0.12935,-1.140917 0.38672,-1.482422 0.26158,-0.345559 0.63393,-0.51757 1.11914,-0.517578 z m -11.24219,3 c -1.50959,8e-6 -2.82615,0.455381 -3.94531,1.365234 -1.11268,0.903925 -1.83417,2.114424 -2.16602,3.63086 -0.32534,1.510495 -0.12981,2.722865 0.58594,3.638672 0.71575,0.909865 1.8283,1.365234 3.33789,1.365234 1.14519,0 2.13717,-0.263703 2.97656,-0.792969 0.83937,-0.529266 1.49765,-1.301537 1.97266,-2.3125 h -1.44531 c -0.33186,0.743356 -0.76984,1.301222 -1.31641,1.669922 -0.54007,0.368705 -1.19835,0.552736 -1.97265,0.552735 -0.97603,10e-7 -1.63757,-0.345325 -1.98243,-1.035157 -0.33835,-0.68983 -0.35594,-1.718167 -0.0566,-3.085937 0.29931,-1.367764 0.76989,-2.394234 1.41407,-3.078125 0.65067,-0.689823 1.46211,-1.03515 2.43164,-1.035157 0.85238,8e-6 1.46308,0.191678 1.83398,0.572266 0.37739,0.380606 0.54358,0.987765 0.49805,1.820313 h 1.04297 l 0.52734,-2.427735 c -0.59211,-0.285438 -1.19957,-0.496025 -1.82422,-0.632812 C 428.55776,68.072131 427.92098,68.000008 427.2638,68 Z"
       style="fill:#4d4d4d;fill-opacity:1"
       id="path1182"
       sodipodi:nodetypes="scccsscscscscsccccsssccccccscccccscscscsssscscscscsscccsscccscscscccccss" />
    <path
       d="m 306.87256,231 c -0.7611,1e-5 -1.5443,0.069 -2.34766,0.20508 -0.80336,0.12926 -1.63223,0.32651 -2.48633,0.59179 v 1.73438 c 0.71035,-0.31291 1.45116,-0.54861 2.22071,-0.70508 0.76954,-0.15645 1.56121,-0.23436 2.37304,-0.23437 1.27693,1e-5 2.26686,0.23867 2.96875,0.71484 0.71034,0.46939 1.06445,0.63608 1.06446,1.5 V 235 h -3.27149 c -2.12258,1e-5 -3.7229,0.31571 -4.79687,0.96875 -1.06553,0.65306 -1.59767,2.12251 -1.59766,3.4082 -10e-6,1.10203 0.42714,1.98468 1.28125,2.64453 0.86256,0.65306 2.02203,0.97852 3.47656,0.97852 1.15008,0 2.12305,-0.16176 2.91797,-0.48828 0.7949,-0.33333 1.45746,-0.84715 1.99024,-1.54102 V 243 h 2.33398 v -6.81445 c -2e-5,-1.74146 -0.50671,-3.04131 -1.52148,-3.89844 -1.01479,-0.85712 -2.55055,-1.2871 -4.60547,-1.28711 z m 8.12695,4 v 16 h 4 v -1.92773 c 0.47163,0.6595 0.92443,1.14659 1.49805,1.46289 0.57359,0.30956 1.23477,0.46484 1.98047,0.46484 1.31928,0 2.40231,-0.55063 3.25,-1.6543 0.84764,-1.11039 1.27146,-2.63787 1.27148,-4.38086 -2e-5,-1.74297 -0.42384,-3.16586 -1.27148,-4.26953 -0.84769,-1.11038 -1.93072,-1.666 -3.25,-1.66601 -0.7457,1e-5 -1.40688,0.15832 -1.98047,0.47461 -0.57362,0.30957 -1.02642,0.79363 -1.49805,1.45312 V 235 Z m -6.5332,1 h 2.5332 v 0.56055 c -10e-6,1.64426 -0.42897,2.96525 -1.28711,3.96093 -0.84893,0.98656 -1.97885,1.47852 -3.39062,1.47852 -1.02425,0 -1.83577,-0.26057 -2.43555,-0.78125 -0.59056,-0.52981 -0.88672,-1.24151 -0.88672,-2.13672 0,-1.12357 0.39784,-1.91693 1.19141,-2.38281 0.79353,-0.46587 2.21768,-0.69921 4.27539,-0.69922 z m 12.54101,6 c 0.64693,1e-5 1.13903,0.25533 1.47656,0.76758 0.34315,0.51225 0.51562,1.25671 0.51563,2.23242 -10e-6,0.97572 -0.17248,1.72018 -0.51563,2.23242 -0.33753,0.51225 -0.82963,0.76758 -1.47656,0.76758 -0.64694,0 -1.14341,-0.25533 -1.49219,-0.76758 -0.34316,-0.51834 -0.51563,-1.2628 -0.51562,-2.23242 -10e-6,-0.96961 0.17246,-1.7104 0.51562,-2.22266 0.34878,-0.51833 0.84525,-0.77733 1.49219,-0.77734 z m -16.24023,4 c -2.11342,1e-5 -3.95466,0.63831 -5.52149,1.91211 -1.55774,1.26549 -2.56862,2.96097 -3.0332,5.08398 -0.45548,2.1147 -0.18174,3.81162 0.82031,5.09375 1.00205,1.27381 2.56041,1.91016 4.67383,1.91016 1.60327,0 2.99087,-0.37036 4.16602,-1.11133 1.17511,-0.74097 2.0967,-1.81903 2.76172,-3.23437 h -2.02149 c -0.4646,1.04069 -1.08051,1.81975 -1.8457,2.33593 -0.7561,0.51619 -1.67769,0.77344 -2.76172,0.77344 -1.36644,0 -2.29065,-0.48345 -2.77344,-1.44922 -0.4737,-0.96576 -0.4991,-2.40348 -0.0801,-4.31836 0.41903,-1.91487 1.07863,-3.3531 1.98047,-4.31054 0.91095,-0.96575 2.04501,-1.44921 3.40234,-1.44922 1.19334,1e-5 2.05106,0.26796 2.57032,0.80078 0.52834,0.53285 0.75906,1.38131 0.69531,2.54687 h 1.46094 l 0.73828,-3.39648 c -0.82896,-0.39961 -1.68019,-0.69522 -2.55469,-0.88672 -0.86541,-0.1998 -1.75768,-0.30077 -2.67773,-0.30078 z"
       style="opacity:0.2;fill:#000000"
       id="path1399"
       sodipodi:nodetypes="scccsscscscscsccccssscccccscscsccccscscscsssscscscscsscccsscccscscscccccss" />
    <path
       d="m 306.87256,230 c -0.7611,1e-5 -1.5443,0.069 -2.34766,0.20508 -0.80336,0.12926 -1.63223,0.32651 -2.48633,0.59179 v 1.73438 c 0.71035,-0.31291 1.45116,-0.54861 2.22071,-0.70508 0.76954,-0.15645 1.56121,-0.23436 2.37304,-0.23437 1.27693,1e-5 2.26686,0.23867 2.96875,0.71484 0.71034,0.46939 1.06445,0.63608 1.06446,1.5 V 234 h -3.27149 c -2.12258,1e-5 -3.7229,0.31571 -4.79687,0.96875 -1.06553,0.65306 -1.59767,2.12251 -1.59766,3.4082 -10e-6,1.10203 0.42714,1.98468 1.28125,2.64453 0.86256,0.65306 2.02203,0.97852 3.47656,0.97852 1.15008,0 2.12305,-0.16176 2.91797,-0.48828 0.7949,-0.33333 1.45746,-0.84715 1.99024,-1.54102 V 242 h 2.33398 v -6.81445 c -2e-5,-1.74146 -0.50671,-3.04131 -1.52148,-3.89844 -1.01479,-0.85712 -2.55055,-1.2871 -4.60547,-1.28711 z m 8.12695,4 v 16 h 4 v -1.92773 c 0.47163,0.6595 0.92443,1.14659 1.49805,1.46289 0.57359,0.30956 1.23477,0.46484 1.98047,0.46484 1.31928,0 2.40231,-0.55063 3.25,-1.6543 0.84764,-1.11039 1.27146,-2.63787 1.27148,-4.38086 -2e-5,-1.74297 -0.42384,-3.16586 -1.27148,-4.26953 -0.84769,-1.11038 -1.93072,-1.666 -3.25,-1.66601 -0.7457,1e-5 -1.40688,0.15832 -1.98047,0.47461 -0.57362,0.30957 -1.02642,0.79363 -1.49805,1.45312 V 234 Z m -6.5332,1 h 2.5332 v 0.56055 c -10e-6,1.64426 -0.42897,2.96525 -1.28711,3.96093 -0.84893,0.98656 -1.97885,1.47852 -3.39062,1.47852 -1.02425,0 -1.83577,-0.26057 -2.43555,-0.78125 -0.59056,-0.52981 -0.88672,-1.24151 -0.88672,-2.13672 0,-1.12357 0.39784,-1.91693 1.19141,-2.38281 0.79353,-0.46587 2.21768,-0.69921 4.27539,-0.69922 z m 12.54101,6 c 0.64693,1e-5 1.13903,0.25533 1.47656,0.76758 0.34315,0.51225 0.51562,1.25671 0.51563,2.23242 -10e-6,0.97572 -0.17248,1.72018 -0.51563,2.23242 -0.33753,0.51225 -0.82963,0.76758 -1.47656,0.76758 -0.64694,0 -1.14341,-0.25533 -1.49219,-0.76758 -0.34316,-0.51834 -0.51563,-1.2628 -0.51562,-2.23242 -10e-6,-0.96961 0.17246,-1.7104 0.51562,-2.22266 0.34878,-0.51833 0.84525,-0.77733 1.49219,-0.77734 z m -16.24023,4 c -2.11342,1e-5 -3.95466,0.63831 -5.52149,1.91211 -1.55774,1.26549 -2.56862,2.96097 -3.0332,5.08398 -0.45548,2.1147 -0.18174,3.81162 0.82031,5.09375 1.00205,1.27381 2.56041,1.91016 4.67383,1.91016 1.60327,0 2.99087,-0.37036 4.16602,-1.11133 1.17511,-0.74097 2.0967,-1.81903 2.76172,-3.23437 h -2.02149 c -0.4646,1.04069 -1.08051,1.81975 -1.8457,2.33593 -0.7561,0.51619 -1.67769,0.77344 -2.76172,0.77344 -1.36644,0 -2.29065,-0.48345 -2.77344,-1.44922 -0.4737,-0.96576 -0.4991,-2.40348 -0.0801,-4.31836 0.41903,-1.91487 1.07863,-3.3531 1.98047,-4.31054 0.91095,-0.96575 2.04501,-1.44921 3.40234,-1.44922 1.19334,1e-5 2.05106,0.26796 2.57032,0.80078 0.52834,0.53285 0.75906,1.38131 0.69531,2.54687 h 1.46094 l 0.73828,-3.39648 c -0.82896,-0.39961 -1.68019,-0.69522 -2.55469,-0.88672 -0.86541,-0.1998 -1.75768,-0.30077 -2.67773,-0.30078 z"
       style="fill:#4d4d4d;fill-opacity:1"
       id="path1371"
       sodipodi:nodetypes="scccsscscscscsccccssscccccscscsccccscscscsssscscscscsscccsscccscscscccccss" />
    <path
       d="m 312.8322,154 c -1.01479,2e-5 -2.06166,0.092 -3.13281,0.27344 -1.07115,0.17234 -2.1737,0.43534 -3.3125,0.78906 v 2.3125 c 0.94713,-0.41722 1.93487,-0.73278 2.96094,-0.94141 1.02606,-0.2086 2.08161,-0.31248 3.16406,-0.3125 1.70256,2e-5 3.02117,0.31823 3.95703,0.95313 0.94712,0.62585 1.41796,1.64888 1.41797,2.80078 v 0.25781 h -4.35938 c -2.83011,1e-5 -4.96647,0.42225 -6.39843,1.29297 -1.4207,0.87075 -2.12893,2.02794 -2.12891,3.74219 -2e-5,1.46936 0.56822,2.64754 1.70703,3.52734 1.15008,0.87074 2.69735,1.30469 4.63672,1.30469 1.53343,0 2.83073,-0.21698 3.89063,-0.65234 1.05986,-0.44444 1.94198,-1.12954 2.65234,-2.05469 V 170 h 3.11328 v -8.28516 c -3e-5,-2.32194 -0.67431,-4.85715 -2.02734,-6 -1.35305,-1.14282 -3.40073,-1.71482 -6.14063,-1.71484 z m 12.16797,4 v 22 h 6 v -2.65234 c 0.85675,2.06584 2.01739,2.34059 3.97266,2.65234 1.75904,0 4.20144,-0.7559 5.33168,-2.27344 1.1302,-1.52678 1.69529,-3.62683 1.69532,-6.02344 -3e-5,-2.39658 -0.56512,-3.9551 -1.69532,-5.47265 -1.13024,-1.52678 -3.57264,-2.28905 -5.33168,-2.28906 -2.24626,0.0326 -3.18958,1.12857 -3.97266,2.64843 V 158 Z m -10.04297,3.46875 h 3.375 v 0.74609 c -10e-6,2.19236 -0.57066,3.15289 -1.71484,4.48047 -1.1319,1.31541 -2.63717,1.97266 -4.51953,1.97266 -1.36566,0 -2.4503,-0.34873 -3.25,-1.04297 -0.78741,-0.70642 -1.17969,-1.65404 -1.17969,-2.84766 0,-1.49809 0.52785,-1.75773 1.58594,-2.3789 1.05805,-0.62116 2.95951,-0.92968 5.70312,-0.92969 z M 334.01189,168 c 0.97039,2e-5 1.70854,0.34045 2.21484,1.02344 0.51473,0.68301 0.77343,1.67561 0.77344,2.97656 -1e-5,1.30096 -0.25871,2.29357 -0.77344,2.97656 -0.5063,0.68301 -1.24445,1.02344 -2.21484,1.02344 -0.97041,0 -1.71512,-0.34043 -2.23828,-1.02344 -0.51475,-0.69112 -0.77345,-1.68373 -0.77344,-2.97656 -1e-5,-1.29282 0.25869,-2.28183 0.77344,-2.96484 0.52316,-0.69112 1.26787,-1.03514 2.23828,-1.03516 z m -22.48438,6 c -3.01917,2e-5 -5.65229,0.91076 -7.89062,2.73047 -2.22535,1.80785 -3.66834,4.22885 -4.33203,7.26172 -0.65069,3.02099 -0.25963,5.44573 1.17187,7.27734 1.4315,1.81973 3.65661,2.73047 6.67578,2.73047 2.29039,0 4.27434,-0.52741 5.95313,-1.58594 1.67873,-1.05853 2.99529,-2.60307 3.94531,-4.625 h -2.89062 c -0.66372,1.48671 -1.53969,2.60245 -2.63282,3.33985 -1.08014,0.73741 -2.3967,1.10547 -3.94531,1.10547 -1.95205,0 -3.27514,-0.69065 -3.96484,-2.07032 -0.67671,-1.37966 -0.71189,-3.43633 -0.11328,-6.17187 0.59861,-2.73553 1.53977,-4.78847 2.82812,-6.15625 1.30136,-1.37965 2.92423,-2.0703 4.86328,-2.07032 1.70477,2e-5 2.92617,0.38336 3.66797,1.14454 0.75478,0.76121 1.08717,1.97553 0.9961,3.64062 h 2.08593 l 1.05469,-4.85547 c -1.18423,-0.57087 -2.39915,-0.99205 -3.64844,-1.26562 -1.2363,-0.28543 -2.50985,-0.42967 -3.82422,-0.42969 z"
       style="opacity:0.2;fill:#000000"
       id="path304"
       sodipodi:nodetypes="scccsscscscscscccccssccccccscccccscscscsssscscscscsscccsscccscscscccccs" />
    <path
       d="m 312.8322,153 c -1.0148,2e-5 -2.06167,0.092 -3.13282,0.27344 -1.07115,0.17234 -2.17369,0.43534 -3.3125,0.78906 v 2.3125 c 0.94713,-0.41722 1.93488,-0.73278 2.96095,-0.94141 1.02605,-0.2086 2.0816,-0.31248 3.16405,-0.3125 1.70257,2e-5 3.02117,0.31823 3.95703,0.95313 0.94712,0.62585 1.41796,1.64888 1.41797,2.80078 v 0.25781 h -4.35938 c -2.83011,1e-5 -4.96646,0.42225 -6.39842,1.29297 -1.42071,0.87075 -2.12894,2.02794 -2.12892,3.74219 -2e-5,1.46936 0.56822,2.64754 1.70703,3.52734 1.15008,0.87074 2.69735,1.30469 4.63672,1.30469 1.53343,0 2.83074,-0.21698 3.89063,-0.65234 1.05986,-0.44444 1.94198,-1.12954 2.65234,-2.05469 V 169 h 3.11328 v -8.28516 c -3e-5,-2.32194 -0.67431,-4.85715 -2.02734,-6 -1.35305,-1.14282 -3.40073,-1.71482 -6.14062,-1.71484 z m 12.16796,4 v 22 h 6 v -2.65234 c 0.85676,2.06584 2.01739,2.34059 3.97267,2.65234 1.75904,0 4.20144,-0.7559 5.33168,-2.27344 1.1302,-1.52678 1.69529,-3.62683 1.69532,-6.02344 -3e-5,-2.39658 -0.56512,-3.9551 -1.69532,-5.47265 -1.13024,-1.52678 -3.57264,-2.28905 -5.33168,-2.28906 -2.24627,0.0326 -3.18958,1.12857 -3.97267,2.64843 V 157 Z m -10.04296,3.46875 h 3.375 v 0.74609 c -10e-6,2.19236 -0.57066,3.15289 -1.71484,4.48047 -1.1319,1.31541 -2.63718,1.97266 -4.51953,1.97266 -1.36566,0 -2.4503,-0.34873 -3.25,-1.04297 -0.78742,-0.70642 -1.17969,-1.65404 -1.17969,-2.84766 0,-1.49809 0.52785,-1.75773 1.58594,-2.3789 1.05804,-0.62116 2.95951,-0.92968 5.70312,-0.92969 z M 334.01188,167 c 0.9704,2e-5 1.70855,0.34045 2.21484,1.02344 0.51473,0.68301 0.77344,1.67561 0.77344,2.97656 0,1.30096 -0.25871,2.29357 -0.77344,2.97656 -0.5063,0.68301 -1.24444,1.02344 -2.21484,1.02344 -0.97041,0 -1.71512,-0.34043 -2.23827,-1.02344 -0.51476,-0.69112 -0.77345,-1.68373 -0.77345,-2.97656 0,-1.29282 0.25869,-2.28183 0.77345,-2.96484 0.52315,-0.69112 1.26787,-1.03514 2.23827,-1.03516 z m -22.48438,6 c -3.01916,2e-5 -5.65229,0.91076 -7.89062,2.73047 -2.22534,1.80785 -3.66833,4.22885 -4.33202,7.26172 -0.6507,3.02099 -0.25963,5.44573 1.17187,7.27734 1.4315,1.81973 3.65661,2.73047 6.67577,2.73047 2.29039,0 4.27435,-0.52741 5.95313,-1.58594 1.67873,-1.05853 2.9953,-2.60307 3.94532,-4.625 h -2.89062 c -0.66373,1.48671 -1.5397,2.60245 -2.63283,3.33985 -1.08014,0.73741 -2.3967,1.10547 -3.9453,1.10547 -1.95205,0 -3.27515,-0.69065 -3.96484,-2.07032 -0.67672,-1.37966 -0.7119,-3.43633 -0.11328,-6.17187 0.59861,-2.73553 1.53976,-4.78847 2.82812,-6.15625 1.30136,-1.37965 2.92423,-2.0703 4.86328,-2.07032 1.70476,2e-5 2.92617,0.38336 3.66797,1.14454 0.75477,0.76121 1.08717,1.97553 0.9961,3.64062 h 2.08593 l 1.05469,-4.85547 c -1.18423,-0.57087 -2.39915,-0.99205 -3.64844,-1.26562 -1.2363,-0.28543 -2.50985,-0.42967 -3.82423,-0.42969 z"
       style="fill:#4d4d4d;fill-opacity:1"
       id="path539"
       sodipodi:nodetypes="scccsscscscscscccccssccccccscccccscscscsssscscscscsscccsscccscscscccccs" />
    <path
       d="m 325.74612,48 c -1.5222,2e-5 -3.0886,0.138 -4.69532,0.41016 -1.60672,0.25852 -3.26446,0.65302 -4.97266,1.18358 v 3.46876 c 1.4207,-0.62582 2.90232,-1.09722 4.44142,-1.41016 1.53908,-0.3129 3.12242,-0.46872 4.74608,-0.46874 2.55386,2e-5 4.53372,0.47734 5.9375,1.42968 1.42068,0.93878 2.1289,1.27216 2.12892,3 V 56 h -6.54298 c -4.24516,2e-5 -7.4458,0.63142 -9.59374,1.9375 -2.13106,1.30612 -3.19534,4.24502 -3.19532,6.8164 -2e-5,2.20406 0.85428,3.96936 2.5625,5.28906 1.72512,1.30612 4.04406,1.95704 6.95312,1.95704 2.30016,0 4.2461,-0.32352 5.83594,-0.97656 1.5898,-0.66666 2.91492,-1.6943 3.98048,-3.08204 V 72 h 4.66796 V 58.3711 c -4e-5,-3.48292 -1.01342,-6.08262 -3.04296,-7.79688 -2.02958,-1.71424 -5.1011,-2.5742 -9.21094,-2.57422 z m 16.2539,8 v 32 h 8 v -3.85546 c 0.94326,1.319 1.84886,2.29318 2.9961,2.92578 1.14718,0.61912 2.46954,0.92968 3.96094,0.92968 2.63856,0 4.80462,-1.10126 6.5,-3.3086 1.69528,-2.22078 2.54292,-5.27574 2.54296,-8.76172 -4e-5,-3.48594 -0.84768,-6.33172 -2.54296,-8.53906 -1.69538,-2.22076 -3.86144,-3.332 -6.5,-3.33202 -1.4914,2e-5 -2.81376,0.31664 -3.96094,0.94922 -1.14724,0.61914 -2.05284,1.58726 -2.9961,2.90624 V 56 Z m -13.0664,2 h 5.0664 v 1.1211 C 334,62.40962 333.14208,65.0516 331.4258,67.04296 329.72794,69.01608 327.4681,70 324.64456,70 c -2.0485,0 -3.67154,-0.52114 -4.8711,-1.5625 -1.18112,-1.05962 -1.77344,-2.48302 -1.77344,-4.27344 0,-2.24714 0.79568,-3.83386 2.38282,-4.76562 C 321.9699,58.4667 324.8182,58.00002 328.93362,58 Z m 25.08202,12 c 1.29386,2e-5 2.27806,0.51066 2.95312,1.53516 0.6863,1.0245 1.03124,2.51342 1.03126,4.46484 -2e-5,1.95144 -0.34496,3.44036 -1.03126,4.46484 C 356.2937,81.48934 355.3095,82 354.01564,82 352.72176,82 351.72882,81.48934 351.03126,80.46484 350.34494,79.42816 350,77.93924 350.00002,76 c -2e-5,-1.93922 0.34492,-3.4208 1.03124,-4.44532 0.69756,-1.03666 1.6905,-1.55466 2.98438,-1.55468 z m -32.48046,8 c -4.22684,2e-5 -7.90932,1.27662 -11.04298,3.82422 -3.11548,2.53098 -5.13724,5.92194 -6.0664,10.16796 -0.91096,4.2294 -0.36348,7.62324 1.64062,10.1875 2.0041,2.54762 5.12082,3.82032 9.34766,3.82032 3.20654,0 5.98174,-0.74072 8.33204,-2.22266 2.35022,-1.48194 4.1934,-3.63806 5.52344,-6.46874 h -4.04298 c -0.9292,2.08138 -2.16102,3.6395 -3.6914,4.67186 -1.5122,1.03238 -3.35538,1.54688 -5.52344,1.54688 -2.73288,0 -4.5813,-0.9669 -5.54688,-2.89844 -0.9474,-1.93152 -0.9982,-4.80696 -0.1602,-8.63672 0.83806,-3.82974 2.15726,-6.7062 3.96094,-8.62108 1.8219,-1.9315 4.09002,-2.89842 6.80468,-2.89844 2.38668,2e-5 4.10212,0.53592 5.14064,1.60156 1.05668,1.0657 1.51812,2.76262 1.39062,5.09374 h 2.92188 L 331.99998,80.375 C 330.34206,79.57578 328.6396,78.98456 326.8906,78.60156 325.15978,78.20196 323.37524,78.00002 321.53514,78 Z"
       style="opacity:0.2;fill:#000000;stroke-width:2"
       id="path1427" />
    <path
       d="m 325.74612,47 c -1.5222,2e-5 -3.0886,0.138 -4.69532,0.41016 -1.60672,0.25852 -3.26446,0.65302 -4.97266,1.18358 v 3.46876 c 1.4207,-0.62582 2.90232,-1.09722 4.44142,-1.41016 1.53908,-0.3129 3.12242,-0.46872 4.74608,-0.46874 2.55386,2e-5 4.53372,0.47734 5.9375,1.42968 1.42068,0.93878 2.1289,1.27216 2.12892,3 V 55 h -6.54298 c -4.24516,2e-5 -7.4458,0.63142 -9.59374,1.9375 -2.13106,1.30612 -3.19534,4.24502 -3.19532,6.8164 -2e-5,2.20406 0.85428,3.96936 2.5625,5.28906 1.72512,1.30612 4.04406,1.95704 6.95312,1.95704 2.30016,0 4.2461,-0.32352 5.83594,-0.97656 1.5898,-0.66666 2.91492,-1.6943 3.98048,-3.08204 V 71 h 4.66796 V 57.3711 c -4e-5,-3.48292 -1.01342,-6.08262 -3.04296,-7.79688 -2.02958,-1.71424 -5.1011,-2.5742 -9.21094,-2.57422 z m 16.2539,8 v 32 h 8 v -3.85546 c 0.94326,1.319 1.84886,2.29318 2.9961,2.92578 1.14718,0.61912 2.46954,0.92968 3.96094,0.92968 2.63856,0 4.80462,-1.10126 6.5,-3.3086 1.69528,-2.22078 2.54292,-5.27574 2.54296,-8.76172 -4e-5,-3.48594 -0.84768,-6.33172 -2.54296,-8.53906 -1.69538,-2.22076 -3.86144,-3.332 -6.5,-3.33202 -1.4914,2e-5 -2.81376,0.31664 -3.96094,0.94922 -1.14724,0.61914 -2.05284,1.58726 -2.9961,2.90624 V 55 Z m -13.0664,2 h 5.0664 v 1.1211 C 334,61.40962 333.14208,64.0516 331.4258,66.04296 329.72794,68.01608 327.4681,69 324.64456,69 c -2.0485,0 -3.67154,-0.52114 -4.8711,-1.5625 -1.18112,-1.05962 -1.77344,-2.48302 -1.77344,-4.27344 0,-2.24714 0.79568,-3.83386 2.38282,-4.76562 C 321.9699,57.4667 324.8182,57.00002 328.93362,57 Z m 25.08202,12 c 1.29386,2e-5 2.27806,0.51066 2.95312,1.53516 0.6863,1.0245 1.03124,2.51342 1.03126,4.46484 -2e-5,1.95144 -0.34496,3.44036 -1.03126,4.46484 C 356.2937,80.48934 355.3095,81 354.01564,81 352.72176,81 351.72882,80.48934 351.03126,79.46484 350.34494,78.42816 350,76.93924 350.00002,75 c -2e-5,-1.93922 0.34492,-3.4208 1.03124,-4.44532 0.69756,-1.03666 1.6905,-1.55466 2.98438,-1.55468 z m -32.48046,8 c -4.22684,2e-5 -7.90932,1.27662 -11.04298,3.82422 -3.11548,2.53098 -5.13724,5.92194 -6.0664,10.16796 -0.91096,4.2294 -0.36348,7.62324 1.64062,10.1875 2.0041,2.54762 5.12082,3.82032 9.34766,3.82032 3.20654,0 5.98174,-0.74072 8.33204,-2.22266 2.35022,-1.48194 4.1934,-3.63806 5.52344,-6.46874 h -4.04298 c -0.9292,2.08138 -2.16102,3.6395 -3.6914,4.67186 -1.5122,1.03238 -3.35538,1.54688 -5.52344,1.54688 -2.73288,0 -4.5813,-0.9669 -5.54688,-2.89844 -0.9474,-1.93152 -0.9982,-4.80696 -0.1602,-8.63672 0.83806,-3.82974 2.15726,-6.7062 3.96094,-8.62108 1.8219,-1.9315 4.09002,-2.89842 6.80468,-2.89844 2.38668,2e-5 4.10212,0.53592 5.14064,1.60156 1.05668,1.0657 1.51812,2.76262 1.39062,5.09374 h 2.92188 L 331.99998,79.375 C 330.34206,78.57578 328.6396,77.98456 326.8906,77.60156 325.15978,77.20196 323.37524,77.00002 321.53514,77 Z"
       style="fill:#4d4d4d;stroke-width:2;fill-opacity:1"
       id="path1455" />
    <path
       d="m 113.32904,79.999705 c -4.05918,8e-5 -8.24667,0.367999 -12.53129,1.093756 -4.284611,0.689357 -8.694831,1.741363 -13.250051,3.156238 v 9.250004 c 3.78854,-1.668883 7.73951,-2.931119 11.84381,-3.765645 4.104251,-0.834397 8.326471,-1.249916 12.656281,-1.249996 6.81027,8e-5 12.08473,1.272915 15.82818,3.812516 3.7885,2.5034 5.67187,6.595524 5.67191,11.203132 v 1.03124 h -17.43759 c -11.32048,4e-5 -19.865961,1.689 -25.593821,5.17188 -5.68282,3.48299 -8.51575,8.11175 -8.51567,14.96876 -8e-5,5.87744 2.27289,10.59016 6.82815,14.10935 4.60033,3.48295 10.78944,5.21876 18.546951,5.21876 6.13374,0 11.32296,-0.86791 15.56258,-2.60937 4.23945,-1.77776 7.76795,-4.51816 10.6094,-8.21875 v 10.82811 h 12.45316 v -33.14063 c -1.2e-4,-9.28776 -2.69725,-19.428599 -8.10939,-24.000001 -5.41222,-4.571273 -13.60297,-6.859274 -24.56261,-6.859354 z M 162.0011,95.999704 V 183.9997 h 24.0001 v -10.60937 c 3.42701,8.26336 8.06959,9.36237 15.8907,10.60937 7.03618,0 16.80582,-3.0236 21.3268,-9.09376 4.52082,-6.10711 6.78118,-14.50733 6.7813,-24.09376 -1.2e-4,-9.58633 -2.26048,-15.8204 -6.7813,-21.89061 -4.52098,-6.1071 -14.29062,-9.15618 -21.3268,-9.15623 -8.98508,0.1304 -12.75837,4.51428 -15.8907,10.59372 V 95.999704 Z M 121.82907,109.8747 h 13.50005 v 2.98435 c -4e-5,8.76945 -2.28265,12.61158 -6.85938,17.92188 -4.52762,5.26164 -10.54872,7.89064 -18.07819,7.89064 -5.46266,0 -9.80124,-1.39491 -13.000051,-4.17186 -3.14965,-2.8257 -4.71878,-6.61616 -4.71878,-11.39065 0,-5.99235 2.11141,-7.03091 6.34378,-9.51559 4.232221,-2.48464 11.838091,-3.71872 22.812571,-3.71877 z m 76.21905,26.12499 c 3.88158,8e-5 6.83419,1.36181 8.8594,4.09377 2.05892,2.73204 3.09373,6.70243 3.09377,11.90623 -4e-5,5.20384 -1.03485,9.17429 -3.09377,11.90626 -2.02521,2.73203 -4.97782,4.09375 -8.8594,4.09375 -3.88165,0 -6.8605,-1.36171 -8.95315,-4.09375 -2.05901,-2.76448 -3.09381,-6.73493 -3.09377,-11.90626 -4e-5,-5.17128 1.03476,-9.12731 3.09377,-11.85935 2.09265,-2.76447 5.0715,-4.14056 8.95315,-4.14065 z m -89.93786,24 c -12.076731,8e-5 -22.609251,3.64305 -31.562601,10.92188 -8.90143,7.2314 -14.67342,16.91541 -17.32819,29.04688 -2.60277,12.08396 -1.03852,21.78293 4.6875,29.10938 5.72602,7.2789 14.6265,10.92187 26.70322,10.92187 9.1616,0 17.097431,-2.10964 23.812611,-6.34376 6.71495,-4.23411 11.98121,-10.41229 15.7813,-18.5 h -11.56252 c -2.65489,5.94684 -6.15878,10.40979 -10.53132,13.35939 -4.32058,2.94965 -9.586841,4.42188 -15.781301,4.42188 -7.80823,0 -13.10061,-2.7626 -15.85942,-8.28128 -2.70685,-5.51863 -2.84757,-13.74531 -0.45312,-24.68748 2.39445,-10.94212 6.1591,-19.15388 11.31252,-24.625 5.20546,-5.5186 11.69696,-8.28119 19.453191,-8.28127 6.81911,8e-5 11.70473,1.53344 14.67194,4.57816 3.01913,3.04484 4.3487,7.90212 3.98442,14.56247 h 8.34375 l 4.21877,-19.42187 c -4.73693,-2.28348 -9.59663,-3.96821 -14.59381,-5.06248 -4.94522,-1.14173 -10.03944,-1.71869 -15.29694,-1.71877 z"
       style="opacity:0.2;fill:#000000;stroke-width:4.00001"
       id="path595" />
    <path
       d="m 113.32904,77.999695 c -4.05922,8e-5 -8.24671,0.367999 -12.53133,1.093756 -4.284611,0.689367 -8.694791,1.741363 -13.250051,3.156248 v 9.249995 c 3.78854,-1.668874 7.73955,-2.931119 11.84385,-3.765636 4.104211,-0.834407 8.326431,-1.249925 12.656241,-1.250005 6.81031,8e-5 12.08473,1.272925 15.82818,3.812526 3.7885,2.5034 5.67187,6.595515 5.67191,11.203121 v 1.03124 h -17.43759 c -11.32048,4e-5 -19.865921,1.689 -25.593781,5.17188 -5.68286,3.483 -8.51579,8.11176 -8.51571,14.96876 -8e-5,5.87744 2.27289,10.59016 6.82815,14.10935 4.60033,3.48296 10.78944,5.21877 18.546951,5.21877 6.13374,0 11.323,-0.86792 15.56258,-2.60937 4.23945,-1.77776 7.76795,-4.51816 10.6094,-8.21876 v 10.82812 H 146.001 v -33.14064 c -1.2e-4,-9.287757 -2.69725,-19.428598 -8.10939,-23.999991 -5.41222,-4.571283 -13.60297,-6.859284 -24.56257,-6.859364 z m 48.67202,16 v 88.000015 h 24.0001 v -10.60937 c 3.42705,8.26336 8.06959,9.36235 15.89074,10.60937 7.03618,0 16.80582,-3.02361 21.3268,-9.09377 4.52082,-6.10712 6.78118,-14.50731 6.7813,-24.09376 -1.2e-4,-9.58633 -2.26048,-15.8204 -6.7813,-21.89059 -4.52098,-6.10713 -14.29062,-9.15621 -21.3268,-9.15625 -8.98512,0.1304 -12.75837,4.51428 -15.89074,10.59372 V 93.999695 Z m -40.17199,13.874995 h 13.50005 v 2.98437 c -4e-5,8.76943 -2.28265,12.61155 -6.85938,17.92187 -4.52762,5.26164 -10.54876,7.89064 -18.07819,7.89064 -5.46266,0 -9.80124,-1.39492 -13.000051,-4.17188 -3.14969,-2.82568 -4.71878,-6.61616 -4.71878,-11.39064 0,-5.99236 2.11141,-7.03092 6.34378,-9.5156 4.232181,-2.48463 11.838091,-3.71872 22.812571,-3.71876 z m 76.21901,26.125 c 3.88162,8e-5 6.83423,1.3618 8.8594,4.09376 2.05892,2.73204 3.09377,6.70244 3.09377,11.90624 0,5.20384 -1.03485,9.17428 -3.09377,11.90625 -2.02521,2.73203 -4.97778,4.09377 -8.8594,4.09377 -3.88165,0 -6.8605,-1.36173 -8.95311,-4.09377 -2.05905,-2.76448 -3.09381,-6.73492 -3.09381,-11.90625 0,-5.17128 1.03476,-9.12732 3.09381,-11.85936 2.09261,-2.76447 5.0715,-4.14056 8.95311,-4.14064 z m -89.93786,24 c -12.076691,8e-5 -22.609251,3.64304 -31.562601,10.92189 -8.90139,7.23139 -14.67338,16.91539 -17.32815,29.04688 -2.60281,12.08396 -1.03852,21.78292 4.6875,29.10936 5.72602,7.27892 14.6265,10.92187 26.70318,10.92187 9.1616,0 17.097471,-2.10964 23.812611,-6.34374 6.71495,-4.23414 11.98125,-10.41229 15.78134,-18.5 h -11.56252 c -2.65493,5.94684 -6.15882,10.40979 -10.53136,13.35939 -4.32058,2.94965 -9.586841,4.42188 -15.781261,4.42188 -7.80823,0 -13.10065,-2.7626 -15.85942,-8.28129 -2.70689,-5.51864 -2.84761,-13.74531 -0.45312,-24.68747 2.39445,-10.94212 6.15906,-19.15389 11.31252,-24.62501 5.20546,-5.5186 11.69696,-8.28119 19.453191,-8.28127 6.81907,8e-5 11.70473,1.53343 14.67194,4.57816 3.01909,3.04484 4.3487,7.90212 3.98442,14.56248 h 8.34375 l 4.21877,-19.42188 c -4.73693,-2.28348 -9.59663,-3.96819 -14.59381,-5.06248 -4.94522,-1.14171 -10.03944,-1.71869 -15.29698,-1.71877 z"
       style="fill:#4d4d4d;stroke-width:4.00001;fill-opacity:1"
       id="path567" />
  </g>
  <g
     id="Highlights">
    <path
       id="rect653"
       style="opacity:0.2;fill:#ffffff"
       d="M 80,44 C 53.408027,44 32,65.408027 32,92 v 2 C 32,67.408027 53.408027,46 80,46 h 128 c 26.59197,0 48,21.408027 48,48 V 92 C 256,65.408027 234.59197,44 208,44 Z"
       sodipodi:nodetypes="sscsscsss" />
    <path
       id="rect773"
       style="opacity:0.2;fill:#ffffff"
       d="m 312,34 c -9.97199,0 -18,8.02801 -18,18 v 1 c 0,-9.97199 8.02801,-18 18,-18 h 48 c 9.97199,0 18,8.02801 18,18 v -1 c 0,-9.97199 -8.02801,-18 -18,-18 z" />
    <path
       id="rect1135"
       style="opacity:0.2;fill:#ffffff;fill-opacity:1"
       d="m 304,144 c -6.64799,0 -12,5.35201 -12,12 v 1 c 0,-6.64799 5.35201,-12 12,-12 h 32 c 6.64799,0 12,5.35201 12,12 v -1 c 0,-6.64799 -5.35201,-12 -12,-12 z" />
    <path
       id="rect1265"
       style="opacity:0.2;fill:#ffffff;fill-opacity:1"
       d="m 300,223 c -4.986,0 -9,4.014 -9,9 v 1 c 0,-4.986 4.014,-9 9,-9 h 24 c 4.986,0 9,4.014 9,9 v -1 c 0,-4.986 -4.014,-9 -9,-9 z" />
    <path
       id="rect1368"
       style="opacity:0.2;fill:#ffffff;fill-opacity:1"
       d="m 424,54 c -3.324,0 -6,2.676003 -6,6 v 1 c 0,-3.323997 2.676,-6 6,-6 h 16 c 3.324,0 6,2.676003 6,6 v -1 c 0,-3.323997 -2.676,-6 -6,-6 z" />
    <path
       id="rect1402"
       style="opacity:0.2;fill:#ffffff;fill-opacity:1"
       d="m 420,140 c -2.216,0 -4,1.784 -4,4 v 1 c 0,-2.216 1.784,-4 4,-4 h 8 c 2.216,0 4,1.784 4,4 v -1 c 0,-2.216 -1.784,-4 -4,-4 z" />
    <path
       id="rect1436"
       style="opacity:0.2;fill:#ffffff;fill-opacity:1"
       d="m 422,102 c -2.216,0 -4,1.784 -4,4 v 1 c 0,-2.216 1.784,-4 4,-4 h 12 c 2.216,0 4,1.784 4,4 v -1 c 0,-2.216 -1.784,-4 -4,-4 z" />
  </g>
</svg>
