<?xml version="1.0" encoding="UTF-8" standalone="no"?>
<!-- Created with Inkscape (http://www.inkscape.org/) -->

<svg
   width="480"
   height="300"
   viewBox="0 0 480 300"
   version="1.1"
   id="svg5"
   inkscape:version="1.2.2 (1:1.2.2+202305151914+b0a8486541)"
   sodipodi:docname="cs-tiling.svg"
   xmlns:inkscape="http://www.inkscape.org/namespaces/inkscape"
   xmlns:sodipodi="http://sodipodi.sourceforge.net/DTD/sodipodi-0.dtd"
   xmlns="http://www.w3.org/2000/svg"
   xmlns:svg="http://www.w3.org/2000/svg">
  <sodipodi:namedview
     id="namedview7"
     pagecolor="#888888"
     bordercolor="#000000"
     borderopacity="0.25"
     inkscape:showpageshadow="true"
     inkscape:pageopacity="0"
     inkscape:pagecheckerboard="0"
     inkscape:deskcolor="#888888"
     inkscape:document-units="px"
     showgrid="false"
     showborder="false"
     inkscape:zoom="2.6866667"
     inkscape:cx="240.44665"
     inkscape:cy="150"
     inkscape:window-width="1920"
     inkscape:window-height="1008"
     inkscape:window-x="0"
     inkscape:window-y="0"
     inkscape:window-maximized="1"
     inkscape:current-layer="svg5"
     showguides="true" />
  <defs
     id="defs2">
    <mask
       maskUnits="userSpaceOnUse"
       id="mask528">
      <rect
         style="opacity:1;fill:#ffffff"
         id="rect530"
         width="56"
         height="56"
         x="292"
         y="144"
         ry="12" />
    </mask>
    <mask
       maskUnits="userSpaceOnUse"
       id="mask532">
      <rect
         style="opacity:1;fill:#ffffff"
         id="rect534"
         width="56"
         height="56"
         x="292"
         y="144"
         ry="12" />
    </mask>
    <mask
       maskUnits="userSpaceOnUse"
       id="mask596">
      <rect
         style="opacity:1;fill:#ffffff"
         id="rect598"
         width="42"
         height="42"
         x="291"
         y="223"
         ry="9" />
    </mask>
    <mask
       maskUnits="userSpaceOnUse"
       id="mask600">
      <rect
         style="opacity:1;fill:#ffffff"
         id="rect602"
         width="42"
         height="42"
         x="291"
         y="223"
         ry="9" />
    </mask>
    <mask
       maskUnits="userSpaceOnUse"
       id="mask612">
      <rect
         style="opacity:1;fill:#ffffff"
         id="rect614"
         width="28"
         height="28"
         x="418"
         y="54"
         ry="6" />
    </mask>
    <mask
       maskUnits="userSpaceOnUse"
       id="mask616">
      <rect
         style="opacity:1;fill:#ffffff"
         id="rect618"
         width="28"
         height="28"
         x="418"
         y="54"
         ry="6" />
    </mask>
    <mask
       maskUnits="userSpaceOnUse"
       id="mask630">
      <rect
         style="opacity:1;fill:#ffffff"
         id="rect632"
         width="20"
         height="20"
         x="418"
         y="102"
         ry="4" />
    </mask>
    <mask
       maskUnits="userSpaceOnUse"
       id="mask634">
      <rect
         style="opacity:1;fill:#ffffff"
         id="rect636"
         width="20"
         height="20"
         x="418"
         y="102"
         ry="4" />
    </mask>
    <mask
       maskUnits="userSpaceOnUse"
       id="mask646">
      <rect
         style="opacity:1;fill:#ffffff"
         id="rect648"
         width="16"
         height="16"
         x="416"
         y="140"
         ry="4" />
    </mask>
    <mask
       maskUnits="userSpaceOnUse"
       id="mask650">
      <rect
         style="opacity:1;fill:#ffffff"
         id="rect652"
         width="16"
         height="16"
         x="416"
         y="140"
         ry="4" />
    </mask>
    <mask
       maskUnits="userSpaceOnUse"
       id="mask662">
      <rect
         style="opacity:1;fill:#ffffff"
         id="rect664"
         width="84"
         height="84"
         x="294"
         y="34"
         ry="18" />
    </mask>
    <mask
       maskUnits="userSpaceOnUse"
       id="mask666">
      <rect
         style="opacity:1;fill:#ffffff"
         id="rect668"
         width="84"
         height="84"
         x="294"
         y="34"
         ry="18" />
    </mask>
    <mask
       maskUnits="userSpaceOnUse"
       id="mask678">
      <rect
         style="opacity:1;fill:#ffffff"
         id="rect680"
         width="224"
         height="224"
         x="32"
         y="44"
         ry="48" />
    </mask>
    <mask
       maskUnits="userSpaceOnUse"
       id="mask682">
      <rect
         style="opacity:1;fill:#ffffff"
         id="rect684"
         width="224"
         height="224"
         x="32"
         y="44"
         ry="48" />
    </mask>
  </defs>
  <g
     id="Baseplate"
     style="display:none">
    <text
       y="19.774782"
       xml:space="preserve"
       x="15.006946"
       style="font-style:normal;font-variant:normal;font-weight:normal;font-stretch:normal;line-height:0%;font-family:'DejaVu Sans';-inkscape-font-specification:'DejaVu Sans';display:inline;fill:#000000;fill-opacity:1;stroke:none;enable-background:new"
       inkscape:label="context"
       id="context"><tspan
         style="font-style:normal;font-variant:normal;font-weight:normal;font-stretch:normal;font-size:18px;line-height:1.25;font-family:'DejaVu Sans';-inkscape-font-specification:'DejaVu Sans'"
         y="19.774782"
         x="15.006946"
         sodipodi:role="line"
         id="tspan3933">categories</tspan></text>
    <text
       y="19.774782"
       xml:space="preserve"
       x="122.48839"
       style="font-style:normal;font-variant:normal;font-weight:bold;font-stretch:normal;line-height:0%;font-family:'DejaVu Sans';-inkscape-font-specification:'DejaVu Sans Bold';text-align:start;writing-mode:lr-tb;text-anchor:start;display:inline;fill:#000000;fill-opacity:1;stroke:none;enable-background:new"
       inkscape:label="icon-name"
       id="icon-name"><tspan
         style="font-style:normal;font-variant:normal;font-weight:bold;font-stretch:normal;font-size:18px;line-height:1.25;font-family:'DejaVu Sans';-inkscape-font-specification:'DejaVu Sans Bold'"
         y="19.774782"
         x="122.48839"
         sodipodi:role="line"
         id="tspan3937">cs-tiling</tspan></text>
    <rect
       style="fill:#ffffff"
       id="256x256"
       width="256"
       height="256"
       x="16"
       y="28" />
    <rect
       style="fill:#ffffff"
       id="96x96"
       width="96"
       height="96"
       x="288"
       y="28" />
    <rect
       style="fill:#ffffff"
       id="64x64"
       width="64"
       height="64"
       x="288"
       y="140" />
    <rect
       style="fill:#ffffff"
       id="48x48"
       width="48"
       height="48"
       x="288"
       y="220" />
    <rect
       style="fill:#ffffff"
       id="32x32"
       width="32"
       height="32"
       x="416"
       y="52" />
    <rect
       style="fill:#ffffff"
       id="24x24"
       width="24"
       height="24"
       x="416"
       y="100" />
    <rect
       style="fill:#ffffff"
       id="22x22"
       width="22"
       height="22"
       x="417"
       y="101" />
    <rect
       style="fill:#ffffff"
       id="16x16"
       width="16"
       height="16"
       x="416"
       y="140" />
  </g>
  <g
     id="Shadow">
    <rect
       style="opacity:0.2;fill:#000000"
       id="rect651"
       width="224"
       height="224"
       x="32"
       y="46"
       ry="48" />
    <rect
       style="opacity:0.2;fill:#000000"
       id="rect769"
       width="84"
       height="85"
       x="294"
       y="34"
       ry="18" />
    <rect
       style="opacity:0.2;fill:#000000;fill-opacity:1"
       id="rect1131"
       width="56"
       height="56"
       x="292"
       y="145"
       ry="12" />
    <rect
       style="opacity:0.2;fill:#000000;fill-opacity:1"
       id="rect1261"
       width="42"
       height="42"
       x="291"
       y="224"
       ry="9" />
    <rect
       style="opacity:0.2;fill:#000000;fill-opacity:1"
       id="rect1364"
       width="28"
       height="29"
       x="418"
       y="54"
       ry="6" />
    <rect
       style="opacity:0.2;fill:#000000;fill-opacity:1"
       id="rect1398"
       width="16"
       height="16"
       x="416"
       y="141"
       ry="4" />
    <rect
       style="opacity:0.2;fill:#000000;fill-opacity:1"
       id="rect1432"
       width="20"
       height="20"
       x="418"
       y="103"
       ry="4" />
  </g>
  <g
     id="Background">
    <rect
       style="fill:#33a8e7;fill-opacity:1"
       id="rect597"
       width="224"
       height="224"
       x="32"
       y="44"
       ry="48" />
    <rect
       style="opacity:1;fill:#33a8e7;fill-opacity:1"
       id="rect771"
       width="84"
       height="84"
       x="294"
       y="34"
       ry="18" />
    <rect
       style="opacity:1;fill:#33a8e7;fill-opacity:1"
       id="rect1133"
       width="56"
       height="56"
       x="292"
       y="144"
       ry="12" />
    <rect
       style="opacity:1;fill:#33a8e7;fill-opacity:1"
       id="rect1263"
       width="42"
       height="42"
       x="291"
       y="223"
       ry="9" />
    <rect
       style="opacity:1;fill:#33a8e7;fill-opacity:1"
       id="rect1366"
       width="28"
       height="28"
       x="418"
       y="54"
       ry="6" />
    <rect
       style="opacity:1;fill:#33a8e7;fill-opacity:1"
       id="rect1400"
       width="16"
       height="16"
       x="416"
       y="140"
       ry="4" />
    <rect
       style="opacity:1;fill:#33a8e7;fill-opacity:1"
       id="rect1434"
       width="20"
       height="20"
       x="418"
       y="102"
       ry="4" />
  </g>
  <g
     id="g1093">
    <g
       id="g2787">
      <path
         id="rect2779"
         style="opacity:0.2;fill:#000000;fill-opacity:1;stroke-width:5;stroke-linecap:round;stroke-linejoin:round"
         d="m 419.5,143.5 c -0.277,0 -0.5,0.223 -0.5,0.5 v 3 c 0,0.277 0.223,0.5 0.5,0.5 h 5 c 0.277,0 0.5,-0.223 0.5,-0.5 v -3 c 0,-0.277 -0.223,-0.5 -0.5,-0.5 z m 0,6 c -0.277,0 -0.5,0.223 -0.5,0.5 v 3 c 0,0.277 0.223,0.5 0.5,0.5 h 9 c 0.277,0 0.5,-0.223 0.5,-0.5 v -3 c 0,-0.277 -0.223,-0.5 -0.5,-0.5 z" />
      <rect
         style="opacity:1;fill:#d3d3d3;fill-opacity:1;stroke-width:5;stroke-linecap:round;stroke-linejoin:round"
         id="rect2775"
         width="10"
         height="4"
         x="419"
         y="149"
         ry="0.5" />
      <rect
         style="opacity:1;fill:#e4e4e4;fill-opacity:1;stroke-width:5;stroke-linecap:round;stroke-linejoin:round"
         id="rect2777"
         width="6"
         height="4"
         x="419"
         y="143"
         ry="0.5" />
    </g>
    <g
       id="g2773">
      <path
         id="rect2314"
         style="opacity:0.2;fill:#000000;fill-opacity:1;stroke-width:5;stroke-linecap:round;stroke-linejoin:round"
         d="m 422,105.5 c -0.554,0 -1,0.446 -1,1 v 4 c 0,0.554 0.446,1 1,1 h 7 c 0.554,0 1,-0.446 1,-1 v -4 c 0,-0.554 -0.446,-1 -1,-1 z m 0,8 c -0.554,0 -1,0.446 -1,1 v 4 c 0,0.554 0.446,1 1,1 h 12 c 0.554,0 1,-0.446 1,-1 v -4 c 0,-0.554 -0.446,-1 -1,-1 z" />
      <rect
         style="opacity:1;fill:#d3d3d3;fill-opacity:1;stroke-width:5;stroke-linecap:round;stroke-linejoin:round"
         id="rect2352"
         width="14"
         height="6"
         x="421"
         y="113"
         ry="1" />
      <rect
         style="opacity:1;fill:#e4e4e4;fill-opacity:1;stroke-width:5;stroke-linecap:round;stroke-linejoin:round"
         id="rect2768"
         width="9"
         height="6"
         x="421"
         y="105"
         ry="1" />
    </g>
    <g
       id="g2108">
      <path
         id="rect2100"
         style="opacity:0.2;fill:#000000;fill-opacity:1;stroke-width:2.5;stroke-linecap:round;stroke-linejoin:round"
         d="m 424,59 c -1.108,0 -2,0.892 -2,2 v 5 c 0,1.108 0.892,2 2,2 h 10 c 1.108,0 2,-0.892 2,-2 v -5 c 0,-1.108 -0.892,-2 -2,-2 z m 0,11 c -1.108,0 -2,0.892 -2,2 v 5 c 0,1.108 0.892,2 2,2 h 16 c 1.108,0 2,-0.892 2,-2 v -5 c 0,-1.108 -0.892,-2 -2,-2 z" />
      <rect
         style="opacity:1;fill:#e4e4e4;fill-opacity:1;stroke-width:2.5;stroke-linecap:round;stroke-linejoin:round"
         id="rect2027"
         width="14"
         height="9"
         x="422"
         y="58"
         ry="2" />
      <rect
         style="opacity:1;fill:#d3d3d3;fill-opacity:1;stroke-width:2.5;stroke-linecap:round;stroke-linejoin:round"
         id="rect2029"
         width="20"
         height="9"
         x="422"
         y="69"
         ry="2" />
    </g>
    <g
       id="g2191">
      <path
         id="rect2110"
         style="opacity:0.2;fill:#000000;fill-opacity:1;stroke-width:5;stroke-linecap:round;stroke-linejoin:round"
         d="m 299,230 c -1.108,0 -2,0.892 -2,2 v 9 c 0,1.108 0.892,2 2,2 h 18 c 1.108,0 2,-0.892 2,-2 v -9 c 0,-1.108 -0.892,-2 -2,-2 z m 0,17 c -1.108,0 -2,0.892 -2,2 v 9 c 0,1.108 0.892,2 2,2 h 26 c 1.108,0 2,-0.892 2,-2 v -9 c 0,-1.108 -0.892,-2 -2,-2 z" />
      <rect
         style="opacity:1;fill:#d3d3d3;fill-opacity:1;stroke-width:5;stroke-linecap:round;stroke-linejoin:round"
         id="rect2114"
         width="30"
         height="13"
         x="297"
         y="246"
         ry="2" />
      <rect
         style="opacity:1;fill:#e4e4e4;fill-opacity:1;stroke-width:5;stroke-linecap:round;stroke-linejoin:round"
         id="rect2116"
         width="22"
         height="13"
         x="297"
         y="229"
         ry="2" />
    </g>
    <g
       id="g2308"
       transform="matrix(2,0,0,2,-288,-412)">
      <path
         id="rect2201"
         style="opacity:0.2;fill:#000000;fill-opacity:1;stroke-width:5;stroke-linecap:round;stroke-linejoin:round"
         d="m 299,229.5 c -1.108,0 -2,0.892 -2,2 v 9 c 0,1.108 0.892,2 2,2 h 18 c 1.108,0 2,-0.892 2,-2 v -9 c 0,-1.108 -0.892,-2 -2,-2 z m 0,17 c -1.108,0 -2,0.892 -2,2 v 9 c 0,1.108 0.892,2 2,2 h 26 c 1.108,0 2,-0.892 2,-2 v -9 c 0,-1.108 -0.892,-2 -2,-2 z" />
      <rect
         style="opacity:1;fill:#e4e4e4;fill-opacity:1;stroke-width:5;stroke-linecap:round;stroke-linejoin:round"
         id="rect2197"
         width="22"
         height="13"
         x="297"
         y="229"
         ry="2" />
      <rect
         style="opacity:1;fill:#d3d3d3;fill-opacity:1;stroke-width:5;stroke-linecap:round;stroke-linejoin:round"
         id="rect2199"
         width="30"
         height="13"
         x="297"
         y="246"
         ry="2" />
    </g>
    <g
       id="g1086">
      <path
         id="rect418"
         style="opacity:0.2;fill:#000000;stroke-width:5;stroke-linecap:round;stroke-linejoin:round"
         d="M 303 153 C 301.338 153 300 154.338 300 156 L 300 168 C 300 169.662 301.338 171 303 171 L 325 171 C 326.662 171 328 169.662 328 168 L 328 156 C 328 154.338 326.662 153 325 153 L 303 153 z M 303 175 C 301.338 175 300 176.338 300 178 L 300 190 C 300 191.662 301.338 193 303 193 L 337 193 C 338.662 193 340 191.662 340 190 L 340 178 C 340 176.338 338.662 175 337 175 L 303 175 z " />
      <rect
         style="opacity:1;fill:#e4e4e4;stroke-width:5;stroke-linecap:round;stroke-linejoin:round;fill-opacity:1"
         id="rect422"
         width="28"
         height="18"
         x="300"
         y="152"
         ry="3" />
      <rect
         style="opacity:1;fill:#d3d3d3;stroke-width:5;stroke-linecap:round;stroke-linejoin:round;fill-opacity:1"
         id="rect424"
         width="40"
         height="18"
         x="300"
         y="174"
         ry="3" />
    </g>
    <g
       id="g1971"
       transform="matrix(4,0,0,4,-1136,-532)">
      <path
         id="rect1147"
         style="opacity:0.2;fill:#000000;fill-opacity:1;stroke-width:5;stroke-linecap:round;stroke-linejoin:round"
         d="m 303,152.5 c -1.662,0 -3,1.338 -3,3 v 12 c 0,1.662 1.338,3 3,3 h 22 c 1.662,0 3,-1.338 3,-3 v -12 c 0,-1.662 -1.338,-3 -3,-3 z m 0,22 c -1.662,0 -3,1.338 -3,3 v 12 c 0,1.662 1.338,3 3,3 h 34 c 1.662,0 3,-1.338 3,-3 v -12 c 0,-1.662 -1.338,-3 -3,-3 z" />
      <rect
         style="opacity:1;fill:#d3d3d3;fill-opacity:1;stroke-width:5;stroke-linecap:round;stroke-linejoin:round"
         id="rect1151"
         width="40"
         height="18"
         x="300"
         y="174"
         ry="3" />
      <rect
         style="opacity:1;fill:#e4e4e4;fill-opacity:1;stroke-width:5;stroke-linecap:round;stroke-linejoin:round"
         id="rect1757"
         width="28"
         height="18"
         x="300"
         y="152"
         ry="3" />
    </g>
  </g>
  <g
     id="Highlights">
    <path
       id="rect653"
       style="opacity:0.2;fill:#ffffff"
       d="M 80,44 C 53.408027,44 32,65.408027 32,92 v 2 C 32,67.408027 53.408027,46 80,46 h 128 c 26.59197,0 48,21.408027 48,48 V 92 C 256,65.408027 234.59197,44 208,44 Z"
       sodipodi:nodetypes="sscsscsss" />
    <path
       id="rect773"
       style="opacity:0.2;fill:#ffffff"
       d="m 312,34 c -9.97199,0 -18,8.02801 -18,18 v 1 c 0,-9.97199 8.02801,-18 18,-18 h 48 c 9.97199,0 18,8.02801 18,18 v -1 c 0,-9.97199 -8.02801,-18 -18,-18 z" />
    <path
       id="rect1135"
       style="opacity:0.2;fill:#ffffff;fill-opacity:1"
       d="m 304,144 c -6.64799,0 -12,5.35201 -12,12 v 1 c 0,-6.64799 5.35201,-12 12,-12 h 32 c 6.64799,0 12,5.35201 12,12 v -1 c 0,-6.64799 -5.35201,-12 -12,-12 z" />
    <path
       id="rect1265"
       style="opacity:0.2;fill:#ffffff;fill-opacity:1"
       d="m 300,223 c -4.986,0 -9,4.014 -9,9 v 1 c 0,-4.986 4.014,-9 9,-9 h 24 c 4.986,0 9,4.014 9,9 v -1 c 0,-4.986 -4.014,-9 -9,-9 z" />
    <path
       id="rect1368"
       style="opacity:0.2;fill:#ffffff;fill-opacity:1"
       d="m 424,54 c -3.324,0 -6,2.676003 -6,6 v 1 c 0,-3.323997 2.676,-6 6,-6 h 16 c 3.324,0 6,2.676003 6,6 v -1 c 0,-3.323997 -2.676,-6 -6,-6 z" />
    <path
       id="rect1402"
       style="opacity:0.2;fill:#ffffff;fill-opacity:1"
       d="m 420,140 c -2.216,0 -4,1.784 -4,4 v 1 c 0,-2.216 1.784,-4 4,-4 h 8 c 2.216,0 4,1.784 4,4 v -1 c 0,-2.216 -1.784,-4 -4,-4 z" />
    <path
       id="rect1436"
       style="opacity:0.2;fill:#ffffff;fill-opacity:1"
       d="m 422,102 c -2.216,0 -4,1.784 -4,4 v 1 c 0,-2.216 1.784,-4 4,-4 h 12 c 2.216,0 4,1.784 4,4 v -1 c 0,-2.216 -1.784,-4 -4,-4 z" />
  </g>
</svg>
