<?xml version="1.0" encoding="UTF-8" standalone="no"?>
<!-- Created with Inkscape (http://www.inkscape.org/) -->

<svg
   width="480"
   height="300"
   viewBox="0 0 480 300"
   version="1.1"
   id="svg5"
   inkscape:version="1.2.2 (1:1.2.2+202305151914+b0a8486541)"
   sodipodi:docname="preferences-desktop-default-applications.svg"
   xmlns:inkscape="http://www.inkscape.org/namespaces/inkscape"
   xmlns:sodipodi="http://sodipodi.sourceforge.net/DTD/sodipodi-0.dtd"
   xmlns="http://www.w3.org/2000/svg"
   xmlns:svg="http://www.w3.org/2000/svg">
  <sodipodi:namedview
     id="namedview7"
     pagecolor="#888888"
     bordercolor="#000000"
     borderopacity="0.25"
     inkscape:showpageshadow="true"
     inkscape:pageopacity="0"
     inkscape:pagecheckerboard="0"
     inkscape:deskcolor="#888888"
     inkscape:document-units="px"
     showgrid="false"
     showborder="false"
     inkscape:zoom="2.6866667"
     inkscape:cx="239.88834"
     inkscape:cy="150"
     inkscape:window-width="1920"
     inkscape:window-height="1008"
     inkscape:window-x="0"
     inkscape:window-y="0"
     inkscape:window-maximized="1"
     inkscape:current-layer="svg5" />
  <defs
     id="defs2" />
  <g
     id="Baseplate"
     style="display:none">
    <text
       y="19.774782"
       xml:space="preserve"
       x="15.006946"
       style="font-style:normal;font-variant:normal;font-weight:normal;font-stretch:normal;line-height:0%;font-family:'DejaVu Sans';-inkscape-font-specification:'DejaVu Sans';display:inline;fill:#000000;fill-opacity:1;stroke:none;enable-background:new"
       inkscape:label="context"
       id="context"><tspan
         style="font-style:normal;font-variant:normal;font-weight:normal;font-stretch:normal;font-size:18px;line-height:1.25;font-family:'DejaVu Sans';-inkscape-font-specification:'DejaVu Sans'"
         y="19.774782"
         x="15.006946"
         sodipodi:role="line"
         id="tspan3933">categories</tspan></text>
    <text
       y="19.774782"
       xml:space="preserve"
       x="122.48839"
       style="font-style:normal;font-variant:normal;font-weight:bold;font-stretch:normal;line-height:0%;font-family:'DejaVu Sans';-inkscape-font-specification:'DejaVu Sans Bold';text-align:start;writing-mode:lr-tb;text-anchor:start;display:inline;fill:#000000;fill-opacity:1;stroke:none;enable-background:new"
       inkscape:label="icon-name"
       id="icon-name"><tspan
         style="font-style:normal;font-variant:normal;font-weight:bold;font-stretch:normal;font-size:18px;line-height:1.25;font-family:'DejaVu Sans';-inkscape-font-specification:'DejaVu Sans Bold'"
         y="19.774782"
         x="122.48839"
         sodipodi:role="line"
         id="tspan3937">preferences-desktop-default-applications</tspan></text>
    <rect
       style="fill:#ffffff"
       id="256x256"
       width="256"
       height="256"
       x="16"
       y="28" />
    <rect
       style="fill:#ffffff"
       id="96x96"
       width="96"
       height="96"
       x="288"
       y="28" />
    <rect
       style="fill:#ffffff"
       id="64x64"
       width="64"
       height="64"
       x="288"
       y="140" />
    <rect
       style="fill:#ffffff"
       id="48x48"
       width="48"
       height="48"
       x="288"
       y="220" />
    <rect
       style="fill:#ffffff"
       id="32x32"
       width="32"
       height="32"
       x="416"
       y="52" />
    <rect
       style="fill:#ffffff"
       id="24x24"
       width="24"
       height="24"
       x="416"
       y="100" />
    <rect
       style="fill:#ffffff"
       id="22x22"
       width="22"
       height="22"
       x="417"
       y="101" />
    <rect
       style="fill:#ffffff"
       id="16x16"
       width="16"
       height="16"
       x="416"
       y="140" />
  </g>
  <g
     id="Shadow">
    <rect
       style="opacity:0.2;fill:#000000"
       id="rect651"
       width="224"
       height="224"
       x="32"
       y="46"
       ry="48" />
    <rect
       style="opacity:0.2;fill:#000000"
       id="rect769"
       width="84"
       height="85"
       x="294"
       y="34"
       ry="18" />
    <rect
       style="opacity:0.2;fill:#000000;fill-opacity:1"
       id="rect1131"
       width="56"
       height="56"
       x="292"
       y="145"
       ry="12" />
    <rect
       style="opacity:0.2;fill:#000000;fill-opacity:1"
       id="rect1261"
       width="42"
       height="42"
       x="291"
       y="224"
       ry="9" />
    <rect
       style="opacity:0.2;fill:#000000;fill-opacity:1"
       id="rect1364"
       width="28"
       height="29"
       x="418"
       y="54"
       ry="6" />
    <rect
       style="opacity:0.2;fill:#000000;fill-opacity:1"
       id="rect1398"
       width="16"
       height="16"
       x="416"
       y="141"
       ry="4" />
    <rect
       style="opacity:0.2;fill:#000000;fill-opacity:1"
       id="rect1432"
       width="20"
       height="20"
       x="418"
       y="103"
       ry="4" />
  </g>
  <g
     id="Background">
    <rect
       style="fill:#e5e5e5;fill-opacity:1"
       id="rect597"
       width="224"
       height="224"
       x="32"
       y="44"
       ry="48" />
    <rect
       style="opacity:1;fill:#e5e5e5;fill-opacity:1"
       id="rect771"
       width="84"
       height="84"
       x="294"
       y="34"
       ry="18" />
    <rect
       style="opacity:1;fill:#e5e5e5;fill-opacity:1"
       id="rect1133"
       width="56"
       height="56"
       x="292"
       y="144"
       ry="12" />
    <rect
       style="opacity:1;fill:#e5e5e5;fill-opacity:1"
       id="rect1263"
       width="42"
       height="42"
       x="291"
       y="223"
       ry="9" />
    <rect
       style="opacity:1;fill:#e5e5e5;fill-opacity:1"
       id="rect1366"
       width="28"
       height="28"
       x="418"
       y="54"
       ry="6" />
    <rect
       style="opacity:1;fill:#e5e5e5;fill-opacity:1"
       id="rect1400"
       width="16"
       height="16"
       x="416"
       y="140"
       ry="4" />
    <rect
       style="opacity:1;fill:#e5e5e5;fill-opacity:1"
       id="rect1434"
       width="20"
       height="20"
       x="418"
       y="102"
       ry="4" />
  </g>
  <g
     id="g3716">
    <g
       id="g3673">
      <path
         d="m 427,143.5 -7,7.04229 h 3.01602 l -1.35079,2.79866 c -0.49458,0.97514 1.24319,1.56184 1.57774,0.83262 l 1.36719,-2.69659 2.38984,2.25611 z"
         style="color:#000000;display:inline;overflow:visible;visibility:visible;fill:#000000;fill-opacity:1;fill-rule:nonzero;stroke:none;stroke-width:1.17004;marker:none;enable-background:accumulate;opacity:0.2"
         id="path3651" />
      <path
         d="m 427,143 -7,7.04229 h 3.01602 l -1.35079,2.79866 c -0.49458,0.97514 1.24319,1.56184 1.57774,0.83262 l 1.36719,-2.69659 2.38984,2.25611 z"
         style="color:#000000;display:inline;overflow:visible;visibility:visible;fill:#5d5d5d;fill-opacity:1;fill-rule:nonzero;stroke:none;stroke-width:1.17004;marker:none;enable-background:accumulate"
         id="path3391"
         sodipodi:nodetypes="cccccccc" />
    </g>
    <g
       id="g3677">
      <path
         d="m 428,105.5 -5,1 v 3.08594 c -0.16058,-0.0568 -0.32966,-0.0859 -0.5,-0.0859 -0.82843,0 -1.5,0.67157 -1.5,1.5 0,0.82843 0.67157,1.5 1.5,1.5 0.82843,0 1.5,-0.67157 1.5,-1.5 v -3.75 l 3,-0.59961 v 2.43555 c -0.16058,-0.0568 -0.32966,-0.0859 -0.5,-0.0859 -0.82843,0 -1.5,0.67157 -1.5,1.5 0,0.82843 0.67157,1.5 1.5,1.5 0.82843,0 1.5,-0.67157 1.5,-1.5 v -4 z m -2,7 -5,5.12109 h 2.1543 l -0.96485,2.03516 c -0.35327,0.70911 0.88799,1.13575 1.12696,0.60547 l 0.97656,-1.96094 1.70703,1.64063 z m 5,0 c -0.554,0 -1,0.446 -1,1 v 1 l -1,-1 h -1 v 3 h 1 l 1,-1 v 1 c 0,0.554 0.446,1 1,1 h 4 c 0.554,0 1,-0.446 1,-1 v -3 c 0,-0.554 -0.446,-1 -1,-1 z"
         style="color:#000000;display:inline;overflow:visible;visibility:visible;fill:#000000;fill-opacity:1;fill-rule:nonzero;stroke:none;stroke-width:0.84326;marker:none;enable-background:accumulate;opacity:0.2"
         id="path3335" />
      <path
         id="path3244"
         style="color:#000000;display:inline;overflow:visible;visibility:visible;fill:#5d5d5d;fill-opacity:1;fill-rule:nonzero;stroke:none;stroke-width:0.84326;marker:none;enable-background:accumulate"
         d="m 428,105 -5,1 v 3.08594 C 422.83942,109.02914 422.67034,109 422.5,109 c -0.82843,0 -1.5,0.67157 -1.5,1.5 0,0.82843 0.67157,1.5 1.5,1.5 0.82843,0 1.5,-0.67157 1.5,-1.5 v -3.75 l 3,-0.59961 v 2.43555 c -0.16058,-0.0568 -0.32966,-0.0859 -0.5,-0.0859 -0.82843,0 -1.5,0.67157 -1.5,1.5 0,0.82843 0.67157,1.5 1.5,1.5 0.82843,0 1.5,-0.67157 1.5,-1.5 v -4 z m -2,7 -5,5.12109 h 2.1543 l -0.96485,2.03516 c -0.35327,0.70911 0.88799,1.13575 1.12696,0.60547 l 0.97656,-1.96094 1.70703,1.64063 z m 5,0 c -0.554,0 -1,0.446 -1,1 v 1 l -1,-1 h -1 v 3 h 1 l 1,-1 v 1 c 0,0.554 0.446,1 1,1 h 4 c 0.554,0 1,-0.446 1,-1 v -3 c 0,-0.554 -0.446,-1 -1,-1 z"
         sodipodi:nodetypes="cccsssscccssssccccccccccssccccccsssssss" />
    </g>
    <g
       id="g3681">
      <path
         d="m 432,58 -7,1 v 6.269531 c -0.30389,-0.17609 -0.64878,-0.26905 -1,-0.269531 -1.10457,0 -2,0.895433 -2,2 0,1.104567 0.89543,2 2,2 1.10457,0 2,-0.895433 2,-2 v -6.142578 l 5,-0.714844 v 4.126953 c -0.30389,-0.17609 -0.64878,-0.26905 -1,-0.269531 -1.10457,0 -2,0.895433 -2,2 0,1.104567 0.89543,2 2,2 1.10457,0 2,-0.895433 2,-2 z m -3,12 -7,7.042969 h 3.01562 l -1.35156,2.798828 c -0.4946,0.975079 1.24553,1.561206 1.58008,0.832031 L 426.60938,77.976562 429,80.234375 Z m 7,0 c -0.554,0 -1,0.445998 -1,1 v 2 l -2,-2 h -1 v 5 h 1 l 2,-2 v 2 c 0,0.553997 0.446,1 1,1 h 5 c 0.554,0 1,-0.446003 1,-1 v -5 c 0,-0.554002 -0.446,-1 -1,-1 z"
         style="fill:#000000;fill-opacity:1;stroke-linecap:round;stroke-linejoin:round;opacity:0.2"
         id="path3188" />
      <path
         id="path2739"
         style="opacity:1;fill:#5d5d5d;fill-opacity:1;stroke-linecap:round;stroke-linejoin:round"
         d="m 432,57 -7,1 v 6.269531 c -0.30389,-0.17609 -0.64878,-0.26905 -1,-0.269531 -1.10457,0 -2,0.895433 -2,2 0,1.104567 0.89543,2 2,2 1.10457,0 2,-0.895433 2,-2 v -6.142578 l 5,-0.714844 v 4.126953 c -0.30389,-0.17609 -0.64878,-0.26905 -1,-0.269531 -1.10457,0 -2,0.895433 -2,2 0,1.104567 0.89543,2 2,2 1.10457,0 2,-0.895433 2,-2 z m -3,12 -7,7.042969 h 3.01562 l -1.35156,2.798828 c -0.4946,0.975079 1.24553,1.561206 1.58008,0.832031 L 426.60938,76.976562 429,79.234375 Z m 7,0 c -0.554,0 -1,0.445998 -1,1 v 2 l -2,-2 h -1 v 5 h 1 l 2,-2 v 2 c 0,0.553997 0.446,1 1,1 h 5 c 0.554,0 1,-0.446003 1,-1 v -5 c 0,-0.554002 -0.446,-1 -1,-1 z"
         sodipodi:nodetypes="ccccsssccccssccccccccccssccccccsssssss" />
    </g>
    <g
       id="g2517">
      <path
         d="m 312,229 -10,2 v 3 5.17188 c -0.32116,-0.11366 -0.65933,-0.17178 -1,-0.17188 -1.65685,0 -3,1.34315 -3,3 0,1.65685 1.34315,3 3,3 1.65685,0 3,-1.34315 3,-3 v -8.40039 l 6,-1.19922 v 4.77149 c -0.32116,-0.11366 -0.65933,-0.17178 -1,-0.17188 -1.65685,0 -3,1.34315 -3,3 0,1.65685 1.34315,3 3,3 1.65685,0 3,-1.34315 3,-3 v -8 z m -4,17 -10,10.24219 h 4.30859 l -1.92968,4.07226 c -0.70654,1.4183 1.77792,2.27156 2.25586,1.21094 l 1.95117,-3.92187 3.41406,3.28125 z m 9,0 c -0.554,0 -1,0.446 -1,1 v 3 l -3,-3 h -1 v 8 h 1 l 3,-3 v 3 c 0,0.554 0.446,1 1,1 h 10 c 0.554,0 1,-0.446 1,-1 v -8 c 0,-0.554 -0.446,-1 -1,-1 z"
         style="color:#000000;display:inline;overflow:visible;visibility:visible;fill:#000000;fill-opacity:1;fill-rule:nonzero;stroke:none;stroke-width:0.84326;marker:none;enable-background:accumulate;opacity:0.2"
         id="path2495" />
      <path
         id="path2016"
         style="color:#000000;display:inline;overflow:visible;visibility:visible;fill:#5d5d5d;fill-opacity:1;fill-rule:nonzero;stroke:none;stroke-width:0.84326;marker:none;enable-background:accumulate"
         d="m 312,228 -10,2 v 3 5.17188 c -0.32116,-0.11366 -0.65933,-0.17178 -1,-0.17188 -1.65685,0 -3,1.34315 -3,3 0,1.65685 1.34315,3 3,3 1.65685,0 3,-1.34315 3,-3 v -8.40039 l 6,-1.19922 v 4.77149 c -0.32116,-0.11366 -0.65933,-0.17178 -1,-0.17188 -1.65685,0 -3,1.34315 -3,3 0,1.65685 1.34315,3 3,3 1.65685,0 3,-1.34315 3,-3 v -8 z m -4,17 -10,10.24219 h 4.30859 l -1.92968,4.07226 c -0.70654,1.4183 1.77792,2.27156 2.25586,1.21094 l 1.95117,-3.92187 3.41406,3.28125 z m 9,0 c -0.554,0 -1,0.446 -1,1 v 3 l -3,-3 h -1 v 8 h 1 l 3,-3 v 3 c 0,0.554 0.446,1 1,1 h 10 c 0.554,0 1,-0.446 1,-1 v -8 c 0,-0.554 -0.446,-1 -1,-1 z"
         sodipodi:nodetypes="cccccsssccccsssccccccccccssccccccsssssss" />
    </g>
    <g
       id="g2521">
      <path
         d="m 320,151 -14,2 v 11.53711 c -0.60796,-0.3515 -1.29774,-0.53674 -2,-0.53711 -2.20914,0 -4,1.79086 -4,4 0,2.20914 1.79086,4 4,4 2.20914,0 4,-1.79086 4,-4 v -11.28516 l 10,-1.42968 v 7.25195 c -0.60796,-0.3515 -1.29774,-0.53674 -2,-0.53711 -2.20914,0 -4,1.79086 -4,4 0,2.20914 1.79086,4 4,4 2.20914,0 4,-1.79086 4,-4 m 0,8 v 12 h 2 l 4,-3.66602 V 185 c 0,1.108 0.892,2 2,2 h 12 c 1.108,0 2,-0.892 2,-2 v -10 c 0,-1.108 -0.892,-2 -2,-2 h -12 c -1.108,0 -2,0.892 -2,2 v 2.66602 L 322,174 Z m -6.25,1.00195 -13.75,14.08203 h 5.92578 l -2.65625,5.59961 c -0.97152,1.95006 2.44442,3.12233 3.10156,1.66407 l 2.6836,-5.39258 4.69531,4.51172 z"
         style="opacity:0.2;fill:#000000;fill-opacity:1;stroke-width:0.92582;stroke-linecap:round;stroke-linejoin:round"
         id="path1367"
         sodipodi:nodetypes="ccccsssccccsscccccssssssssccccccccccc" />
      <path
         d="m 320,150 -14,2 v 11.53711 c -0.60796,-0.35149 -1.29774,-0.53674 -2,-0.53711 -2.20914,0 -4,1.79086 -4,4 0,2.20914 1.79086,4 4,4 2.20914,0 4,-1.79086 4,-4 v -11.28516 l 10,-1.42967 v 7.25194 c -0.60796,-0.35149 -1.29774,-0.53674 -2,-0.53711 -2.20914,0 -4,1.79086 -4,4 0,2.20914 1.79086,4 4,4 2.20914,0 4,-1.79086 4,-4 m 0,8 v 12 h 2 l 4,-3.66602 V 184 c 0,1.108 0.892,2 2,2 h 12 c 1.108,0 2,-0.892 2,-2 v -10 c 0,-1.108 -0.892,-2 -2,-2 h -12 c -1.108,0 -2,0.892 -2,2 v 2.66602 L 322,173 Z m -6.25,1.00195 -13.75,14.08203 h 5.92578 l -2.65625,5.59961 c -0.97152,1.95007 2.44442,3.12233 3.10156,1.66408 l 2.6836,-5.39259 4.69531,4.51172 z"
         style="fill:#5d5d5d;fill-opacity:1;stroke-width:0.92582;stroke-linecap:round;stroke-linejoin:round"
         id="path1950"
         sodipodi:nodetypes="ccccsssccccsscccccssssssssccccccccccc" />
    </g>
    <g
       id="g2581">
      <path
         d="m 335,44 -20,4 v 6 10.34376 C 314.35768,64.11644 313.68134,64.0002 313,64 c -3.3137,0 -6,2.6863 -6,6 0,3.3137 2.6863,6 6,6 3.3137,0 6,-2.6863 6,-6 V 53.19922 l 12,-2.39844 V 61.34376 C 330.35768,61.11644 329.68134,61.0002 329,61 c -3.3137,0 -6,2.6863 -6,6 0,3.3137 2.6863,6 6,6 3.3137,0 6,-2.6863 6,-6 V 50 Z m -8,34 -20,20.48438 h 8.61718 l -3.85936,8.14453 c -1.41308,2.8366 3.55584,4.54312 4.51172,2.42188 l 3.90234,-7.84374 6.82812,6.5625 z m 18,0 c -1.108,0 -2,0.892 -2,2 v 6 l -6,-6 h -2 v 16 h 2 l 6,-6 v 6 c 0,1.108 0.892,2 2,2 h 20 c 1.108,0 2,-0.892 2,-2 V 80 c 0,-1.108 -0.892,-2 -2,-2 z"
         style="color:#000000;display:inline;overflow:visible;visibility:visible;opacity:0.2;fill:#000000;fill-opacity:1;fill-rule:nonzero;stroke:none;stroke-width:1.68652;marker:none;enable-background:accumulate"
         id="path2559" />
      <path
         d="m 335,43 -20,4 v 6 10.34376 C 314.35768,63.11644 313.68134,63.0002 313,63 c -3.3137,0 -6,2.6863 -6,6 0,3.3137 2.6863,6 6,6 3.3137,0 6,-2.6863 6,-6 V 52.19922 l 12,-2.39844 V 60.34376 C 330.35768,60.11644 329.68134,60.0002 329,60 c -3.3137,0 -6,2.6863 -6,6 0,3.3137 2.6863,6 6,6 3.3137,0 6,-2.6863 6,-6 V 49 Z m -8,34 -20,20.48438 h 8.61718 l -3.85936,8.14453 c -1.41308,2.8366 3.55584,4.54312 4.51172,2.42188 l 3.90234,-7.84375 6.82812,6.56251 z m 18,0 c -1.108,0 -2,0.892 -2,2 v 6 l -6,-6 h -2 v 16 h 2 l 6,-6 v 6 c 0,1.108 0.892,2 2,2 h 20 c 1.108,0 2,-0.892 2,-2 V 79 c 0,-1.108 -0.892,-2 -2,-2 z"
         style="color:#000000;display:inline;overflow:visible;visibility:visible;fill:#5d5d5d;fill-opacity:1;fill-rule:nonzero;stroke:none;stroke-width:1.68652;marker:none;enable-background:accumulate"
         id="path2531"
         sodipodi:nodetypes="cccccsssccccsssccccccccccssccccccsssssss" />
    </g>
    <g
       id="g2641"
       transform="matrix(4,0,0,4,-1140,-532)">
      <path
         d="m 320,150.5 -14,2 v 11.53711 c -0.60796,-0.35149 -1.29774,-0.53674 -2,-0.53711 -2.20914,0 -4,1.79086 -4,4 0,2.20914 1.79086,4 4,4 2.20914,0 4,-1.79086 4,-4 v -11.28516 l 10,-1.42967 v 7.25194 c -0.60796,-0.35149 -1.29774,-0.53674 -2,-0.53711 -2.20914,0 -4,1.79086 -4,4 0,2.20914 1.79086,4 4,4 2.20914,0 4,-1.79086 4,-4 m 0,8 v 12 h 2 l 4,-3.66602 V 184.5 c 0,1.108 0.892,2 2,2 h 12 c 1.108,0 2,-0.892 2,-2 v -10 c 0,-1.108 -0.892,-2 -2,-2 h -12 c -1.108,0 -2,0.892 -2,2 v 2.66602 L 322,173.5 Z m -6.25,1.00195 -13.75,14.08203 h 5.92578 l -2.65625,5.59961 c -0.97152,1.95007 2.44442,3.12233 3.10156,1.66408 l 2.6836,-5.39259 4.69531,4.51172 z"
         style="opacity:0.2;fill:#000000;fill-opacity:1;stroke-width:0.92582;stroke-linecap:round;stroke-linejoin:round"
         id="path2591"
         sodipodi:nodetypes="ccccsssccccsscccccssssssssccccccccccc" />
      <path
         d="m 320,150 -14,2 v 11.53711 c -0.60796,-0.35149 -1.29774,-0.53674 -2,-0.53711 -2.20914,0 -4,1.79086 -4,4 0,2.20914 1.79086,4 4,4 2.20914,0 4,-1.79086 4,-4 v -11.28516 l 10,-1.42967 v 7.25194 c -0.60796,-0.35149 -1.29774,-0.53674 -2,-0.53711 -2.20914,0 -4,1.79086 -4,4 0,2.20914 1.79086,4 4,4 2.20914,0 4,-1.79086 4,-4 m 0,8 v 12 h 2 l 4,-3.66602 V 184 c 0,1.108 0.892,2 2,2 h 12 c 1.108,0 2,-0.892 2,-2 v -10 c 0,-1.108 -0.892,-2 -2,-2 h -12 c -1.108,0 -2,0.892 -2,2 v 2.66602 L 322,173 Z m -6.25,1.00195 -13.75,14.08203 h 5.92578 l -2.65625,5.59961 c -0.97152,1.95007 2.44442,3.12233 3.10156,1.66408 l 2.6836,-5.39259 4.69531,4.51172 z"
         style="fill:#5d5d5d;fill-opacity:1;stroke-width:0.92582;stroke-linecap:round;stroke-linejoin:round"
         id="path2619" />
    </g>
  </g>
  <g
     id="Highlights">
    <path
       id="rect653"
       style="opacity:0.5;fill:#ffffff"
       d="M 80,44 C 53.408027,44 32,65.408027 32,92 v 2 C 32,67.408027 53.408027,46 80,46 h 128 c 26.59197,0 48,21.408027 48,48 V 92 C 256,65.408027 234.59197,44 208,44 Z"
       sodipodi:nodetypes="sscsscsss" />
    <path
       id="rect773"
       style="opacity:0.5;fill:#ffffff"
       d="m 312,34 c -9.97199,0 -18,8.02801 -18,18 v 1 c 0,-9.97199 8.02801,-18 18,-18 h 48 c 9.97199,0 18,8.02801 18,18 v -1 c 0,-9.97199 -8.02801,-18 -18,-18 z" />
    <path
       id="rect1135"
       style="opacity:0.5;fill:#ffffff;fill-opacity:1"
       d="m 304,144 c -6.64799,0 -12,5.35201 -12,12 v 1 c 0,-6.64799 5.35201,-12 12,-12 h 32 c 6.64799,0 12,5.35201 12,12 v -1 c 0,-6.64799 -5.35201,-12 -12,-12 z" />
    <path
       id="rect1265"
       style="opacity:0.5;fill:#ffffff;fill-opacity:1"
       d="m 300,223 c -4.986,0 -9,4.014 -9,9 v 1 c 0,-4.986 4.014,-9 9,-9 h 24 c 4.986,0 9,4.014 9,9 v -1 c 0,-4.986 -4.014,-9 -9,-9 z" />
    <path
       id="rect1368"
       style="opacity:0.5;fill:#ffffff;fill-opacity:1"
       d="m 424,54 c -3.324,0 -6,2.676003 -6,6 v 1 c 0,-3.323997 2.676,-6 6,-6 h 16 c 3.324,0 6,2.676003 6,6 v -1 c 0,-3.323997 -2.676,-6 -6,-6 z" />
    <path
       id="rect1402"
       style="opacity:0.5;fill:#ffffff;fill-opacity:1"
       d="m 420,140 c -2.216,0 -4,1.784 -4,4 v 1 c 0,-2.216 1.784,-4 4,-4 h 8 c 2.216,0 4,1.784 4,4 v -1 c 0,-2.216 -1.784,-4 -4,-4 z" />
    <path
       id="rect1436"
       style="opacity:0.5;fill:#ffffff;fill-opacity:1"
       d="m 422,102 c -2.216,0 -4,1.784 -4,4 v 1 c 0,-2.216 1.784,-4 4,-4 h 12 c 2.216,0 4,1.784 4,4 v -1 c 0,-2.216 -1.784,-4 -4,-4 z" />
  </g>
</svg>
