<?xml version="1.0" encoding="UTF-8" standalone="no"?>
<!-- Created with Inkscape (http://www.inkscape.org/) -->

<svg
   width="448"
   height="168"
   viewBox="0 0 448 168"
   version="1.1"
   id="svg5"
   inkscape:version="1.2.2 (1:1.2.2+202305151914+b0a8486541)"
   sodipodi:docname="user-trash.svg"
   xmlns:inkscape="http://www.inkscape.org/namespaces/inkscape"
   xmlns:sodipodi="http://sodipodi.sourceforge.net/DTD/sodipodi-0.dtd"
   xmlns="http://www.w3.org/2000/svg"
   xmlns:svg="http://www.w3.org/2000/svg">
  <sodipodi:namedview
     id="namedview7"
     pagecolor="#a9a9a9"
     bordercolor="#d1d1d1"
     borderopacity="0.24705882"
     inkscape:showpageshadow="false"
     inkscape:pageopacity="0"
     inkscape:pagecheckerboard="0"
     inkscape:deskcolor="#a9a9a9"
     inkscape:document-units="px"
     showgrid="false"
     inkscape:zoom="2.9330357"
     inkscape:cx="220.24962"
     inkscape:cy="83.872147"
     inkscape:window-width="1920"
     inkscape:window-height="1008"
     inkscape:window-x="0"
     inkscape:window-y="0"
     inkscape:window-maximized="1"
     inkscape:current-layer="svg5"
     showborder="false" />
  <defs
     id="defs2" />
  <g
     id="Baseplate"
     style="display:none"
     transform="translate(244,86.999999)">
    <rect
       style="opacity:1;fill:#ffffff;fill-opacity:1;stroke-width:2;stroke-linecap:square"
       id="16x16"
       width="16"
       height="16"
       x="168"
       y="48" />
    <rect
       style="fill:#ffffff;fill-opacity:1;stroke-width:1.375;stroke-linecap:square"
       id="22x22"
       width="22"
       height="22"
       x="145"
       y="41" />
    <rect
       style="fill:#ffffff;fill-opacity:1;stroke-width:1.5;stroke-linecap:square"
       id="24x24"
       width="24"
       height="24"
       x="144"
       y="40" />
    <rect
       style="opacity:1;fill:#ffffff;fill-opacity:1;stroke-width:2;stroke-linecap:square"
       id="32x32"
       width="32"
       height="32"
       x="112"
       y="32" />
    <rect
       style="opacity:1;fill:#ffffff;fill-opacity:1;stroke-width:1.5;stroke-linecap:square"
       id="48x48"
       width="48"
       height="48"
       x="64"
       y="16" />
    <rect
       style="fill:#ffffff;stroke-width:2;stroke-linecap:square"
       id="64x64"
       width="64"
       height="64"
       x="0"
       y="0" />
    <rect
       style="fill:#ffffff;fill-opacity:1;stroke-width:3;stroke-linecap:square"
       id="96x96"
       width="96"
       height="96"
       x="-96"
       y="-32" />
    <rect
       style="opacity:1;fill:#ffffff;fill-opacity:1;stroke-width:2;stroke-linecap:square"
       id="128x128"
       width="128"
       height="128"
       x="-224"
       y="-64" />
    <text
       xml:space="preserve"
       style="font-weight:bold;font-size:12px;font-family:'Noto Sans';-inkscape-font-specification:'Noto Sans Bold';opacity:1;fill:#000000;fill-opacity:1;stroke-width:2;stroke-linecap:square"
       x="-224.936"
       y="-74.879997"
       id="context"><tspan
         sodipodi:role="line"
         id="tspan8691"
         x="-224.936"
         y="-74.879997">places</tspan></text>
    <text
       xml:space="preserve"
       style="font-style:normal;font-variant:normal;font-weight:normal;font-stretch:normal;font-size:12px;font-family:'Noto Sans';-inkscape-font-specification:'Noto Sans';opacity:1;fill:#000000;fill-opacity:1;stroke-width:2;stroke-linecap:square"
       x="-176.61206"
       y="-74.879997"
       id="icon-name"><tspan
         sodipodi:role="line"
         id="tspan8797"
         x="-176.61206"
         y="-74.879997">user-trash</tspan></text>
  </g>
  <g
     id="Shadow"
     transform="translate(244,86.999999)">
    <rect
       style="opacity:0.2;fill:#000000;fill-opacity:1;stroke-width:2;stroke-linecap:square"
       id="rect7710"
       width="16"
       height="20"
       x="148"
       y="42.5"
       ry="2" />
    <rect
       style="opacity:0.2;fill:#000000;fill-opacity:1;stroke-width:1;stroke-linecap:square"
       id="rect4266"
       width="22"
       height="28"
       x="117"
       y="35"
       ry="3" />
    <rect
       style="opacity:0.2;fill:#000000;fill-opacity:1;stroke-width:2;stroke-linecap:square"
       id="rect4081"
       width="32"
       height="40"
       x="72"
       y="21"
       ry="4" />
    <rect
       style="opacity:0.2;fill:#000000;fill-opacity:1;stroke-width:2;stroke-linecap:square"
       id="rect1972"
       width="44"
       height="56"
       x="10"
       y="5"
       ry="6" />
    <rect
       style="opacity:0.2;fill:#000000;fill-opacity:1;stroke-width:2;stroke-linecap:square"
       id="rect4886"
       width="64"
       height="80"
       x="-80"
       y="-23"
       ry="8" />
    <rect
       style="opacity:0.2;fill:#000000;fill-opacity:1;stroke-width:2;stroke-linecap:square"
       id="rect5599"
       width="88"
       height="112"
       x="-204"
       y="-55"
       ry="12" />
  </g>
  <g
     id="g4879"
     transform="translate(244,86.999999)">
    <rect
       style="opacity:1;fill:#c9c9c9;fill-opacity:1;stroke-width:2;stroke-linecap:square"
       id="rect7570"
       width="16"
       height="20"
       x="148"
       y="42"
       ry="2" />
    <rect
       style="fill:#c9c9c9;fill-opacity:1;stroke-width:2;stroke-linecap:square"
       id="rect4364"
       width="22"
       height="28"
       x="117"
       y="34"
       ry="3" />
    <rect
       style="opacity:1;fill:#c9c9c9;fill-opacity:1;stroke-width:2;stroke-linecap:square"
       id="rect4083"
       width="32"
       height="40"
       x="72"
       y="20"
       ry="4" />
    <rect
       style="fill:#c9c9c9;fill-opacity:1;stroke-width:2;stroke-linecap:square"
       id="rect2026"
       width="44"
       height="56"
       x="10"
       y="4"
       ry="6" />
    <rect
       style="opacity:1;fill:#c9c9c9;fill-opacity:1;stroke-width:2;stroke-linecap:square"
       id="rect4929"
       width="64"
       height="80"
       x="-80"
       y="-24"
       ry="8" />
    <rect
       style="opacity:1;fill:#c9c9c9;fill-opacity:1;stroke-width:4;stroke-linecap:square"
       id="rect5597"
       width="88"
       height="112"
       x="-204"
       y="-56"
       ry="12" />
    <rect
       style="opacity:1;fill:#c9c9c9;fill-opacity:1;stroke-width:2;stroke-linecap:square"
       id="rect7928"
       width="12"
       height="15"
       x="170"
       y="49"
       ry="1" />
  </g>
  <g
     id="g5079"
     transform="translate(244,86.999999)">
    <path
       d="m 152.929,58.1154 c -0.096,0.17235 -0.1723,0.43167 -0.1723,0.59506 0,0.0379 0,0.0862 0.01,0.15311 l -1.1994,-2.06275 c -0.038,-0.0669 -0.067,-0.16296 -0.067,-0.24947 0,-0.0866 0.029,-0.19193 0.067,-0.25897 l 0.5758,-1.00748 -0.6428,-0.3643 2.0918,-0.0387 1.0168,1.83242 -0.6522,-0.37413 z m 0.9213,-6.03913 c 0.1822,-0.31695 0.4799,-0.48964 0.8442,-0.48964 0.3937,0 0.7008,0.18253 0.9213,0.55622 l 0.3263,0.54683 -1.1325,2.1828 -1.8324,-1.29015 z m 0.134,7.69886 c -0.5468,0 -0.9977,-0.45092 -0.9977,-0.99774 0,-0.15355 0.067,-0.41285 0.1634,-0.57581 l 0.3067,-0.54683 h 2.2742 v 2.12039 h -1.7466 z m 1.8234,-7.75684 C 155.664,51.76916 155.472,51.59602 155.2417,51.5 h 2.3601 c 0.2111,0 0.374,0.0866 0.4704,0.24991 l 0.5852,0.99773 0.6331,-0.37448 -1.0173,1.82336 -2.0816,-0.0293 0.6428,-0.3643 z m 3.6367,5.6557 c 0.2875,0 0.5277,-0.0768 0.729,-0.22999 l -1.19,2.07214 c -0.096,0.16295 -0.2684,0.2657 -0.4697,0.25898 h -1.1231 v 0.73876 l -1.0744,-1.79403 1.0744,-1.79449 v 0.74862 h 2.0538 z m 0.9205,-1.7271 c 0.087,0.15356 0.1348,0.3165 0.1348,0.4893 0,0.34548 -0.2209,0.71011 -0.5276,0.88247 -0.1442,0.0772 -0.3463,0.13722 -0.5469,0.12535 h -0.6338 l -1.1317,-1.95777 1.8325,-1.04587 z"
       style="opacity:0.2;fill:#ffffff;fill-opacity:1"
       id="path7879" />
    <path
       d="m 123.90555,56.82053 c -0.128,0.2298 -0.2298,0.57556 -0.2298,0.79342 0,0.0506 0,0.11491 0.013,0.20415 l -1.5992,-2.75035 c -0.051,-0.0892 -0.089,-0.21727 -0.089,-0.33262 0,-0.1155 0.038,-0.2559 0.089,-0.3453 l 0.7678,-1.3433 -0.8571,-0.48573 2.789,-0.0516 1.3558,2.44323 -0.8696,-0.49885 z m 1.2284,-8.05217 c 0.2429,-0.4226 0.6398,-0.65286 1.1255,-0.65286 0.5249,0 0.9344,0.24338 1.2284,0.74164 l 0.4351,0.7291 -1.5099,2.9104 -2.4433,-1.7202 z m 0.1786,10.26514 c -0.7291,0 -1.3302,-0.60122 -1.3302,-1.33031 0,-0.20474 0.09,-0.55048 0.2177,-0.76775 l 0.409,-0.7291 h 3.0323 v 2.82718 h -2.3288 z m 2.4312,-10.34244 c -0.1916,-0.33218 -0.4476,-0.56303 -0.7547,-0.69106 h 3.1468 c 0.2815,0 0.4988,0.1155 0.6272,0.33321 l 0.7803,1.33031 0.8441,-0.4993 -1.3564,2.43113 -2.7754,-0.0391 0.857,-0.48572 z m 4.849,7.54093 c 0.3833,0 0.7035,-0.10236 0.9719,-0.30666 l -1.5866,2.76286 c -0.128,0.21726 -0.3579,0.35426 -0.6263,0.3453 h -1.4974 v 0.98501 l -1.4326,-2.39204 1.4326,-2.39265 v 0.99816 h 2.7384 z m 1.2273,-2.3028 c 0.1155,0.20474 0.1797,0.422 0.1797,0.65239 0,0.46065 -0.2946,0.94682 -0.7035,1.17664 -0.1922,0.10297 -0.4617,0.18295 -0.7291,0.16713 h -0.8451 l -1.5089,-2.61036 2.4433,-1.39449 z"
       style="opacity:0.2;fill:#ffffff;fill-opacity:1"
       id="path7109" />
    <path
       d="m 81.858599,52.2308 c -0.1919,0.3447 -0.3447,0.86333 -0.3447,1.19013 0,0.0759 0,0.17236 0.019,0.30622 l -2.3988,-4.12552 c -0.077,-0.13386 -0.134,-0.3259 -0.134,-0.49893 0,-0.17325 0.057,-0.38386 0.134,-0.51795 l 1.1516,-2.01495 -1.2856,-0.72859 4.1835,-0.0774 2.0337,3.66484 -1.3043,-0.74827 z m 1.8426,-12.07826 c 0.3643,-0.6339 0.9597,-0.97929 1.688301,-0.97929 0.7873,0 1.4015,0.36507 1.8426,1.11246 l 0.6526,1.09366 -2.2649,4.3656 -3.664901,-2.58031 z m 0.2679,15.39772 c -1.0936,0 -1.9954,-0.90184 -1.9954,-1.99548 0,-0.30711 0.1348,-0.82571 0.3267,-1.15161 l 0.6134,-1.09366 H 87.4624 v 4.24078 H 83.969099 Z M 87.616,40.03659 C 87.3284,39.53832 86.9446,39.19205 86.4839,39 h 4.7201 c 0.4223,0 0.7482,0.17325 0.9409,0.49981 l 1.1705,1.99548 1.2661,-0.74897 -2.0347,3.64671 -4.1631,-0.0586 1.2856,-0.72859 z m 7.2734,11.31139 c 0.575,0 1.0552,-0.15354 1.4579,-0.45999 l -2.38,4.14429 c -0.1919,0.3259 -0.5369,0.53139 -0.9395,0.51795 h -2.246 v 1.47753 l -2.149,-3.58806 2.149,-3.58898 v 1.49723 h 4.1076 z m 1.841,-3.4542 c 0.1731,0.30711 0.2695,0.63301 0.2695,0.9786 0,0.69097 -0.4419,1.42022 -1.0553,1.76495 -0.2883,0.15445 -0.6925,0.27443 -1.0936,0.25069 H 93.5834 L 91.32,46.97248 94.9849,44.88075 Z"
       style="opacity:0.2;fill:#ffffff;fill-opacity:1"
       id="path6624" />
    <path
       d="m 23.81165,48.64107 c -0.2559,0.4596 -0.4596,1.15111 -0.4596,1.58684 0,0.10115 0,0.22981 0.025,0.40829 l -3.1984,-5.50069 c -0.1024,-0.17848 -0.1787,-0.43454 -0.1787,-0.66524 0,-0.231 0.076,-0.51181 0.1787,-0.6906 l 1.5354,-2.6866 -1.7141,-0.97146 5.578,-0.10326 2.7117,4.88646 -1.7392,-0.9977 z m 2.4568,-16.10435 c 0.4857,-0.8452 1.2796,-1.30572 2.251,-1.30572 1.0498,0 1.8688,0.48676 2.4568,1.48328 l 0.8701,1.45821 -3.0198,5.8208 -4.8865,-3.44042 z m 0.3572,20.53029 c -1.4582,0 -2.6605,-1.20245 -2.6605,-2.66063 0,-0.40948 0.1797,-1.10095 0.4356,-1.53549 l 0.8179,-1.45821 h 6.0647 v 5.65437 h -4.6577 z m 4.8625,-20.68489 C 31.10475,31.71776 30.59295,31.25606 29.97875,31 h 6.2935 c 0.563,0 0.9975,0.231 1.2545,0.66642 l 1.5606,2.66063 1.6881,-0.99862 -2.7129,4.86228 -5.5508,-0.0782 1.7142,-0.97145 z m 9.6978,15.08186 c 0.7667,0 1.4071,-0.20472 1.944,-0.61332 l -3.1734,5.52572 c -0.2559,0.43453 -0.7158,0.70852 -1.2526,0.6906 h -2.9947 v 1.97003 l -2.8653,-4.78408 2.8653,-4.7853 v 1.99631 h 5.4767 z m 2.4548,-4.6056 c 0.2308,0.40948 0.3593,0.84401 0.3593,1.30479 0,0.9213 -0.5891,1.89363 -1.407,2.35327 -0.3844,0.20594 -0.9233,0.36591 -1.4582,0.33426 h -1.6901 l -3.0179,-5.22072 4.8866,-2.78898 z"
       style="opacity:0.2;fill:#ffffff;fill-opacity:1"
       id="path3999"
       sodipodi:nodetypes="csccsccccccccsccccccsccccccccscccccccccccccccccccscccccc" />
    <path
       d="m -60.2828,40.4616 c -0.3839,0.6894 -0.6894,1.72667 -0.6894,2.38026 0,0.15173 0,0.34472 0.038,0.61244 l -4.7976,-8.25104 c -0.1536,-0.26772 -0.268,-0.65181 -0.268,-0.99786 0,-0.3465 0.1145,-0.76771 0.268,-1.0359 l 2.3032,-4.0299 -2.5712,-1.45719 8.367,-0.15489 4.0675,7.32969 -2.6088,-1.49655 z m 3.6852,-24.15653 c 0.7286,-1.2678 1.9194,-1.95857 3.3766,-1.95857 1.5746,0 2.803,0.73014 3.6851,2.22491 l 1.3052,2.18732 -4.5297,8.7312 -7.3297,-5.16062 z m 0.5358,30.79544 c -2.1873,0 -3.9907,-1.80367 -3.9907,-3.99094 0,-0.61422 0.2694,-1.65143 0.6533,-2.30324 l 1.2268,-2.18731 h 9.0971 v 8.48155 h -6.9865 z m 7.2937,-31.02734 C -49.3431,15.07664 -50.1109,14.38409 -51.0322,14 h 9.4403 c 0.8445,0 1.4963,0.3465 1.8817,0.99963 l 2.3409,3.99094 2.5322,-1.49792 -4.0693,7.29341 -8.3262,-0.1173 2.5712,-1.45717 z m 14.5468,22.6228 c 1.15,0 2.1105,-0.30708 2.9159,-0.91998 l -4.76,8.28858 c -0.3839,0.65179 -1.0737,1.06278 -1.8789,1.0359 h -4.4922 v 2.95504 l -4.2978,-7.17612 4.2978,-7.17795 v 2.99447 h 8.2152 z m 3.6821,-6.9084 c 0.3463,0.61422 0.539,1.26601 0.539,1.95718 0,1.38195 -0.8837,2.84045 -2.1106,3.52991 -0.5765,0.30891 -1.3849,0.54886 -2.1873,0.50139 h -2.5351 l -4.5268,-7.83108 7.3299,-4.18347 z"
       style="opacity:0.2;fill:#ffffff;fill-opacity:1"
       id="path6568" />
    <path
       d="m -176.37661,32.282141 c -0.5118,0.9192 -0.9192,2.30222 -0.9192,3.17368 0,0.2023 0,0.45962 0.05,0.81658 l -6.3968,-11.00138 c -0.2048,-0.35696 -0.3574,-0.86908 -0.3574,-1.33048 0,-0.462 0.152,-1.02362 0.3574,-1.3812 l 3.0708,-5.3732 -3.4282,-1.94292 11.156,-0.20652 5.4234,9.77292 -3.4784,-1.9954 z m 4.9136,-32.20869971 c 0.9714,-1.69039999 2.5592,-2.61143999 4.502,-2.61143999 2.0996,0 3.7376,0.97352 4.9136,2.96655999 l 1.7402,2.91642001 -6.0396,11.6415997 -9.773,-6.8808397 z m 0.7144,41.06057871 c -2.9164,0 -5.321,-2.404899 -5.321,-5.321259 0,-0.81896 0.3594,-2.2019 0.8712,-3.07098 l 1.6358,-2.91642 h 12.1294 V 41.1341 h -9.3154 z m 9.725,-41.36977871 c -0.7668,-1.32871999 -1.7904,-2.25211999 -3.0188,-2.76423999 h 12.587 c 1.126,0 1.995,0.462 2.509,1.33284 l 3.1212,5.32126 3.3762,-1.99724 -5.4258,9.7245597 -11.1016,-0.1564 3.4284,-1.9428997 z m 19.3956,30.16371971 c 1.5334,0 2.8142,-0.40944 3.888,-1.22664 l -6.3468,11.05144 c -0.5118,0.869059 -1.4316,1.417039 -2.5052,1.381199 h -5.9894 v 3.94006 l -5.7306,-9.568159 5.7306,-9.5706 v 3.99262 h 10.9534 z m 4.9096,-9.2112 c 0.4616,0.81896 0.7186,1.68802 0.7186,2.60958 0,1.8426 -1.1782,3.78726 -2.814,4.70654 -0.7688,0.41188 -1.8466,0.73182 -2.9164,0.66852 h -3.3802 l -6.0358,-10.44144 9.7732,-5.57796 z"
       style="opacity:0.2;fill:#ffffff;fill-opacity:1;stroke-width:2"
       id="path5934" />
  </g>
  <g
     id="g5082"
     transform="translate(244,86.999999)">
    <path
       d="m 152.929,57.6154 c -0.096,0.17235 -0.1723,0.43167 -0.1723,0.59506 0,0.0379 0,0.0862 0.01,0.15311 l -1.1994,-2.06275 c -0.038,-0.0669 -0.067,-0.16296 -0.067,-0.24947 0,-0.0866 0.029,-0.19193 0.067,-0.25897 l 0.5758,-1.00748 -0.6428,-0.3643 2.0918,-0.0387 1.0168,1.83242 -0.6522,-0.37413 z m 0.9213,-6.03913 c 0.1822,-0.31695 0.4799,-0.48964 0.8442,-0.48964 0.3937,0 0.7008,0.18253 0.9213,0.55622 l 0.3263,0.54683 -1.1325,2.1828 -1.8324,-1.29015 z m 0.134,7.69886 c -0.5468,0 -0.9977,-0.45092 -0.9977,-0.99774 0,-0.15355 0.067,-0.41285 0.1634,-0.57581 l 0.3067,-0.54683 h 2.2742 v 2.12039 h -1.7466 z m 1.8234,-7.75684 C 155.664,51.26916 155.472,51.09602 155.2417,51 h 2.3601 c 0.2111,0 0.374,0.0866 0.4704,0.24991 l 0.5852,0.99773 0.6331,-0.37448 -1.0173,1.82336 -2.0816,-0.0293 0.6428,-0.3643 z m 3.6367,5.6557 c 0.2875,0 0.5277,-0.0768 0.729,-0.22999 l -1.19,2.07214 c -0.096,0.16295 -0.2684,0.2657 -0.4697,0.25898 h -1.1231 v 0.73876 l -1.0744,-1.79403 1.0744,-1.79449 v 0.74862 h 2.0538 z m 0.9205,-1.7271 c 0.087,0.15356 0.1348,0.3165 0.1348,0.4893 0,0.34548 -0.2209,0.71011 -0.5276,0.88247 -0.1442,0.0772 -0.3463,0.13722 -0.5469,0.12535 h -0.6338 l -1.1317,-1.95777 1.8325,-1.04587 z"
       style="fill:#689f38;fill-opacity:1"
       id="path7851"
       sodipodi:nodetypes="csccsccccccccscccccsscccccsccscccccccscccccccccscscccccc" />
    <path
       d="m 173.76565,60.81733 c -0.07,0.12551 -0.1254,0.31434 -0.1254,0.43333 0,0.0276 0,0.0628 0.01,0.11149 l -0.8723,-1.5021 c -0.028,-0.0487 -0.049,-0.11866 -0.049,-0.18166 0,-0.0631 0.021,-0.13976 0.049,-0.18859 l 0.4188,-0.73364 -0.4675,-0.26528 1.5212,-0.0282 0.7396,1.33437 -0.4743,-0.27244 z m 0.67,-4.39769 c 0.1325,-0.2308 0.349,-0.35656 0.614,-0.35656 0.2863,0 0.5096,0.13292 0.67,0.40505 l 0.2373,0.3982 -0.8236,1.58951 -1.3327,-0.93949 z m 0.097,5.6063 c -0.3977,0 -0.7256,-0.32836 -0.7256,-0.72655 0,-0.11182 0.049,-0.30064 0.1188,-0.4193 l 0.223,-0.3982 h 1.654 v 1.54406 h -1.2702 z m 1.3261,-5.64852 C 175.75415,56.196 175.61455,56.06992 175.44705,56 h 1.7164 c 0.1536,0 0.2721,0.0631 0.3422,0.18198 l 0.4256,0.72655 0.4604,-0.27269 -0.7399,1.32776 -1.5138,-0.0214 0.4674,-0.26528 z m 2.6449,4.11848 c 0.2091,0 0.3837,-0.0559 0.5301,-0.16749 l -0.8654,1.50894 c -0.07,0.11866 -0.1953,0.19348 -0.3417,0.18858 h -0.8167 v 0.53797 l -0.7814,-1.30641 0.7814,-1.30675 v 0.54515 h 1.4937 z m 0.6694,-1.25768 c 0.063,0.11182 0.098,0.23048 0.098,0.35631 0,0.25158 -0.1606,0.5171 -0.3837,0.64262 -0.1048,0.0562 -0.2518,0.0999 -0.3977,0.0913 h -0.4609 l -0.8231,-1.42565 1.3327,-0.7616 z"
       style="fill:#689f38;fill-opacity:1"
       id="path8273" />
    <path
       d="m 123.90555,55.82053 c -0.128,0.2298 -0.2298,0.57556 -0.2298,0.79342 0,0.0506 0,0.11491 0.013,0.20415 l -1.5992,-2.75035 c -0.051,-0.0892 -0.089,-0.21727 -0.089,-0.33262 0,-0.1155 0.038,-0.2559 0.089,-0.3453 l 0.7678,-1.3433 -0.8571,-0.48573 2.789,-0.0516 1.3558,2.44323 -0.8696,-0.49885 z m 1.2284,-8.05217 c 0.2429,-0.4226 0.6398,-0.65286 1.1255,-0.65286 0.5249,0 0.9344,0.24338 1.2284,0.74164 l 0.4351,0.7291 -1.5099,2.9104 -2.4433,-1.7202 z m 0.1786,10.26514 c -0.7291,0 -1.3302,-0.60122 -1.3302,-1.33031 0,-0.20474 0.09,-0.55048 0.2177,-0.76775 l 0.409,-0.7291 h 3.0323 v 2.82718 h -2.3288 z m 2.4312,-10.34244 c -0.1916,-0.33218 -0.4476,-0.56303 -0.7547,-0.69106 h 3.1468 c 0.2815,0 0.4988,0.1155 0.6272,0.33321 l 0.7803,1.33031 0.8441,-0.4993 -1.3564,2.43113 -2.7754,-0.0391 0.857,-0.48572 z m 4.849,7.54093 c 0.3833,0 0.7035,-0.10236 0.9719,-0.30666 l -1.5866,2.76286 c -0.128,0.21726 -0.3579,0.35426 -0.6263,0.3453 h -1.4974 v 0.98501 l -1.4326,-2.39204 1.4326,-2.39265 v 0.99816 h 2.7384 z m 1.2273,-2.3028 c 0.1155,0.20474 0.1797,0.422 0.1797,0.65239 0,0.46065 -0.2946,0.94682 -0.7035,1.17664 -0.1922,0.10297 -0.4617,0.18295 -0.7291,0.16713 h -0.8451 l -1.5089,-2.61036 2.4433,-1.39449 z"
       style="fill:#689f38;fill-opacity:1"
       id="path7081"
       sodipodi:nodetypes="csccsccccccccscccccsscccccsccscccccccscccccccccscscccccc" />
    <path
       d="m 81.8586,51.2308 c -0.1919,0.3447 -0.3447,0.86333 -0.3447,1.19013 0,0.0759 0,0.17236 0.019,0.30622 l -2.3988,-4.12552 c -0.077,-0.13386 -0.134,-0.3259 -0.134,-0.49893 0,-0.17325 0.057,-0.38386 0.134,-0.51795 l 1.1516,-2.01495 -1.2856,-0.72859 4.1835,-0.0774 2.0337,3.66484 -1.3043,-0.74827 z m 1.8426,-12.07826 c 0.3643,-0.6339 0.9597,-0.97929 1.6883,-0.97929 0.7873,0 1.4015,0.36507 1.8426,1.11246 l 0.6526,1.09366 -2.2649,4.3656 -3.6649,-2.58031 z m 0.2679,15.39772 c -1.0936,0 -1.9954,-0.90184 -1.9954,-1.99548 0,-0.30711 0.1348,-0.82571 0.3267,-1.15161 l 0.6134,-1.09366 h 4.5486 v 4.24078 H 83.9691 Z M 87.616,39.03659 C 87.3284,38.53832 86.9446,38.19205 86.4839,38 h 4.7201 c 0.4223,0 0.7482,0.17325 0.9409,0.49981 l 1.1705,1.99548 1.2661,-0.74897 -2.0347,3.64671 -4.1631,-0.0586 1.2856,-0.72859 z m 7.2734,11.31139 c 0.575,0 1.0552,-0.15354 1.4579,-0.45999 l -2.38,4.14429 c -0.1919,0.3259 -0.5369,0.53139 -0.9395,0.51795 h -2.246 v 1.47753 l -2.149,-3.58806 2.149,-3.58898 v 1.49723 h 4.1076 z m 1.841,-3.4542 c 0.1731,0.30711 0.2695,0.63301 0.2695,0.9786 0,0.69097 -0.4419,1.42022 -1.0553,1.76495 -0.2883,0.15445 -0.6925,0.27443 -1.0936,0.25069 H 93.5834 L 91.32,45.97248 94.9849,43.88075 Z"
       style="fill:#689f38;fill-opacity:1"
       id="path6596"
       sodipodi:nodetypes="csccsccccccccsccccccsccccccccscccccccccccccccccccscccccc" />
    <path
       d="m 23.81165,47.64107 c -0.2559,0.4596 -0.4596,1.15111 -0.4596,1.58684 0,0.10115 0,0.22981 0.025,0.40829 l -3.1984,-5.50069 c -0.1024,-0.17848 -0.1787,-0.43454 -0.1787,-0.66524 0,-0.231 0.076,-0.51181 0.1787,-0.6906 l 1.5354,-2.6866 -1.7141,-0.97146 5.578,-0.10326 2.7117,4.88646 -1.7392,-0.9977 z m 2.4568,-16.10435 c 0.4857,-0.8452 1.2796,-1.30572 2.251,-1.30572 1.0498,0 1.8688,0.48676 2.4568,1.48328 l 0.8701,1.45821 -3.0198,5.8208 -4.8865,-3.44042 z m 0.3572,20.53029 c -1.4582,0 -2.6605,-1.20245 -2.6605,-2.66063 0,-0.40948 0.1797,-1.10095 0.4356,-1.53549 l 0.8179,-1.45821 h 6.0647 v 5.65437 h -4.6577 z m 4.8625,-20.68489 C 31.10475,30.71776 30.59295,30.25606 29.97875,30 h 6.2935 c 0.563,0 0.9975,0.231 1.2545,0.66642 l 1.5606,2.66063 1.6881,-0.99862 -2.7129,4.86228 -5.5508,-0.0782 1.7142,-0.97145 z m 9.6978,15.08186 c 0.7667,0 1.4071,-0.20472 1.944,-0.61332 l -3.1734,5.52572 c -0.2559,0.43453 -0.7158,0.70852 -1.2526,0.6906 h -2.9947 v 1.97003 l -2.8653,-4.78408 2.8653,-4.7853 v 1.99631 h 5.4767 z m 2.4548,-4.6056 c 0.2308,0.40948 0.3593,0.84401 0.3593,1.30479 0,0.9213 -0.5891,1.89363 -1.407,2.35327 -0.3844,0.20594 -0.9233,0.36591 -1.4582,0.33426 h -1.6901 l -3.0179,-5.22072 4.8866,-2.78898 z"
       style="fill:#689f38;fill-opacity:1"
       id="path3971"
       sodipodi:nodetypes="csccsccccccccsccccccsccccccccscccccccccccccccccccscccccc" />
    <path
       d="m -60.2828,39.4616 c -0.3839,0.6894 -0.6894,1.72667 -0.6894,2.38026 0,0.15173 0,0.34472 0.038,0.61244 l -4.7976,-8.25104 c -0.1536,-0.26772 -0.268,-0.65181 -0.268,-0.99786 0,-0.3465 0.1145,-0.76771 0.268,-1.0359 l 2.3032,-4.0299 -2.5712,-1.45719 8.367,-0.15489 4.0675,7.32969 -2.6088,-1.49655 z m 3.6852,-24.15653 c 0.7286,-1.2678 1.9194,-1.95857 3.3766,-1.95857 1.5746,0 2.803,0.73014 3.6851,2.22491 l 1.3052,2.18732 -4.5297,8.7312 -7.3297,-5.16062 z m 0.5358,30.79544 c -2.1873,0 -3.9907,-1.80367 -3.9907,-3.99094 0,-0.61422 0.2694,-1.65143 0.6533,-2.30324 l 1.2268,-2.18731 h 9.0971 v 8.48155 h -6.9865 z m 7.2937,-31.02734 C -49.3431,14.07664 -50.1109,13.38409 -51.0322,13 h 9.4403 c 0.8445,0 1.4963,0.3465 1.8817,0.99963 l 2.3409,3.99094 2.5322,-1.49792 -4.0693,7.29341 -8.3262,-0.1173 2.5712,-1.45717 z m 14.5468,22.6228 c 1.15,0 2.1105,-0.30708 2.9159,-0.91998 l -4.76,8.28858 c -0.3839,0.65179 -1.0737,1.06278 -1.8789,1.0359 h -4.4922 v 2.95504 l -4.2978,-7.17612 4.2978,-7.17795 v 2.99447 h 8.2152 z m 3.6821,-6.9084 c 0.3463,0.61422 0.539,1.26601 0.539,1.95718 0,1.38195 -0.8837,2.84045 -2.1106,3.52991 -0.5765,0.30891 -1.3849,0.54886 -2.1873,0.50139 h -2.5351 l -4.5268,-7.83108 7.3299,-4.18347 z"
       style="fill:#689f38;fill-opacity:1"
       id="path6471"
       sodipodi:nodetypes="csccsccccccccsccccccsccccccccscccccccccccccccccccscccccc" />
    <path
       d="m -176.37671,31.282141 c -0.5118,0.9192 -0.9192,2.30222 -0.9192,3.17368 0,0.2023 0,0.45962 0.05,0.81658 l -6.3968,-11.00138 c -0.2048,-0.35696 -0.3574,-0.86908 -0.3574,-1.33048 0,-0.462 0.152,-1.02362 0.3574,-1.3812 l 3.0708,-5.3732 -3.4282,-1.94292 11.156,-0.20652 5.4234,9.77292 -3.4784,-1.9954 z m 4.9136,-32.20869971 c 0.9714,-1.69039999 2.5592,-2.61143999 4.502,-2.61143999 2.0996,0 3.7376,0.97352 4.9136,2.96655999 l 1.7402,2.91642001 -6.0396,11.6415997 -9.773,-6.8808397 z m 0.7144,41.06057871 c -2.9164,0 -5.321,-2.404899 -5.321,-5.321259 0,-0.81896 0.3594,-2.2019 0.8712,-3.07098 l 1.6358,-2.91642 h 12.1294 V 40.1341 h -9.3154 z m 9.725,-41.3697787 c -0.7668,-1.32872 -1.7904,-2.25212 -3.0188,-2.76424 h 12.587 c 1.126,0 1.995,0.462 2.509,1.33284 l 3.1212,5.32126 3.3762,-1.99724001 -5.4258,9.72455971 -11.1016,-0.1564 3.4284,-1.9428997 z m 19.3956,30.1637197 c 1.5334,0 2.8142,-0.40944 3.888,-1.22664 l -6.3468,11.05144 c -0.5118,0.86906 -1.4316,1.417039 -2.5052,1.381199 h -5.9894 v 3.94006 l -5.7306,-9.568159 5.7306,-9.5706 v 3.99262 h 10.9534 z m 4.9096,-9.2112 c 0.4616,0.81896 0.7186,1.68802 0.7186,2.60958 0,1.8426 -1.1782,3.78726 -2.814,4.70654 -0.7688,0.41188 -1.8466,0.73182 -2.9164,0.66852 h -3.3802 l -6.0358,-10.44144 9.7732,-5.57796 z"
       style="fill:#689f38;fill-opacity:1;stroke-width:2"
       id="path5879" />
  </g>
  <g
     id="g4934"
     transform="translate(244,86.999999)">
    <rect
       style="opacity:1;fill:#7e7e7e;fill-opacity:1;stroke-width:2;stroke-linecap:square"
       id="rect7712"
       width="16"
       height="7"
       x="148"
       y="42"
       ry="2" />
    <rect
       style="opacity:1;fill:#7e7e7e;fill-opacity:1;stroke-width:2;stroke-linecap:square"
       id="rect4393"
       width="22"
       height="9"
       x="117"
       y="34"
       ry="3" />
    <rect
       style="fill:#7e7e7e;fill-opacity:1;stroke-width:2;stroke-linecap:square"
       id="rect2112"
       width="44"
       height="18"
       x="10"
       y="4"
       ry="6" />
    <rect
       style="opacity:1;fill:#7e7e7e;fill-opacity:1;stroke-width:2;stroke-linecap:square"
       id="rect4120"
       width="32"
       height="14"
       x="72"
       y="20"
       ry="4" />
    <rect
       style="opacity:1;fill:#7e7e7e;fill-opacity:1;stroke-width:2;stroke-linecap:square"
       id="rect5046"
       width="64"
       height="28"
       x="-80"
       y="-24"
       ry="8" />
    <rect
       style="opacity:1;fill:#7e7e7e;fill-opacity:1;stroke-width:2;stroke-linecap:square"
       id="rect5601"
       width="88"
       height="36"
       x="-204"
       y="-56"
       ry="12" />
    <rect
       style="opacity:1;fill:#7e7e7e;fill-opacity:1;stroke-width:2;stroke-linecap:square"
       id="rect8068"
       width="12"
       height="5"
       x="170"
       y="49"
       ry="1" />
  </g>
  <g
     id="g4944"
     transform="translate(244,86.999999)">
    <path
       id="rect8139"
       style="opacity:1;fill:#a6a6a6;fill-opacity:1;stroke-width:2;stroke-linecap:square"
       d="m 171,49 c -0.554,0 -1,0.446001 -1,1 v 3 c 0,0.553999 0.446,1 1,1 h 10 c 0.554,0 1,-0.446001 1,-1 v -3 c 0,-0.553999 -0.446,-1 -1,-1 z m 0,1 h 10 v 3 h -10 z"
       sodipodi:nodetypes="sssssssssccccc" />
    <path
       id="rect7783"
       style="opacity:1;fill:#a6a6a6;fill-opacity:1;stroke-width:2;stroke-linecap:square"
       d="m 150,42 c -1.108,0 -2,0.892001 -2,2 v 3 c 0,1.107999 0.892,2 2,2 h 12 c 1.108,0 2,-0.892001 2,-2 v -3 c 0,-1.107999 -0.892,-2 -2,-2 z m 0,1 h 12 c 0.554,0 1,0.446001 1,1 v 3 c 0,0.553999 -0.446,1 -1,1 h -12 c -0.554,0 -1,-0.446001 -1,-1 v -3 c 0,-0.553999 0.446,-1 1,-1 z" />
    <path
       id="rect4424"
       style="fill:#a6a6a6;fill-opacity:1;stroke-width:2;stroke-linecap:square"
       d="m 120,34 c -1.662,0 -3,1.338002 -3,3 v 3 c 0,1.661998 1.338,3 3,3 h 16 c 1.662,0 3,-1.338002 3,-3 v -3 c 0,-1.661998 -1.338,-3 -3,-3 z m 0,2 h 16 c 0.554,0 1,0.446001 1,1 v 3 c 0,0.553999 -0.446,1 -1,1 h -16 c -0.554,0 -1,-0.446001 -1,-1 v -3 c 0,-0.553999 0.446,-1 1,-1 z"
       sodipodi:nodetypes="ssssssssssssssssss" />
    <path
       id="rect4731"
       style="opacity:1;fill:#a6a6a6;fill-opacity:1;stroke-width:2;stroke-linecap:square"
       d="m 76,20 c -2.215998,0 -4,1.784002 -4,4 v 6 c 0,2.215998 1.784002,4 4,4 h 24 c 2.216,0 4,-1.784002 4,-4 v -6 c 0,-2.215998 -1.784,-4 -4,-4 z m 0,3 h 24 c 0.554,0 1,0.446001 1,1 v 6 c 0,0.553999 -0.446,1 -1,1 H 76 c -0.553999,0 -1,-0.446001 -1,-1 v -6 c 0,-0.553999 0.446001,-1 1,-1 z"
       sodipodi:nodetypes="ssssssssssssssssss" />
    <path
       id="rect2107"
       style="fill:#a6a6a6;fill-opacity:1;stroke-width:2;stroke-linecap:square"
       d="m 16,4 c -3.323997,0 -6,2.6760033 -6,6 v 6 c 0,3.323997 2.676003,6 6,6 h 32 c 3.323997,0 6,-2.676003 6,-6 V 10 C 54,6.6760033 51.323997,4 48,4 Z m 0,4 h 32 c 1.107999,0 2,0.8920011 2,2 v 6 c 0,1.107999 -0.892001,2 -2,2 H 16 c -1.107999,0 -2,-0.892001 -2,-2 v -6 c 0,-1.1079989 0.892001,-2 2,-2 z"
       sodipodi:nodetypes="ssssssssssssssssss" />
    <path
       id="rect4946"
       style="opacity:1;fill:#a6a6a6;fill-opacity:1;stroke-width:2;stroke-linecap:square"
       d="m -72,-24 c -4.431996,0 -8,3.568004 -8,8 v 12 c 0,4.43199557 3.568004,8 8,8 h 48 c 4.431996,0 8,-3.56800443 8,-8 v -12 c 0,-4.431996 -3.568004,-8 -8,-8 z m 0,6 h 48 c 1.107999,0 2,0.892003 2,2 v 12 c 0,1.1079969 -0.892001,2 -2,2 h -48 c -1.107997,0 -2,-0.8920031 -2,-2 v -12 c 0,-1.107997 0.892003,-2 2,-2 z" />
    <path
       id="rect5741"
       style="opacity:1;fill:#a6a6a6;fill-opacity:1;stroke-width:2;stroke-linecap:square"
       d="m -192,-56 c -6.64799,0 -12,5.352007 -12,12 v 12 c 0,6.647993 5.35201,12 12,12 h 64 c 6.64799,0 12,-5.352007 12,-12 v -12 c 0,-6.647993 -5.35201,-12 -12,-12 z m 0,8 h 64 c 2.216,0 4,1.784004 4,4 v 12 c 0,2.215996 -1.784,4 -4,4 h -64 c -2.216,0 -4,-1.784004 -4,-4 v -12 c 0,-2.215996 1.784,-4 4,-4 z" />
  </g>
  <g
     id="g4939"
     transform="translate(244,86.999999)">
    <path
       id="rect7813"
       style="opacity:0.2;fill:#ffffff;fill-opacity:1;stroke-width:2;stroke-linecap:square"
       d="m 150,42 c -1.108,0 -2,0.892001 -2,2 v 0.5 c 0,-1.107999 0.892,-2 2,-2 h 12 c 1.108,0 2,0.892001 2,2 V 44 c 0,-1.107999 -0.892,-2 -2,-2 z" />
    <path
       id="rect4592"
       style="opacity:0.2;fill:#ffffff;fill-opacity:1;stroke-width:2;stroke-linecap:square"
       d="m 120,34 c -1.662,0 -3,1.338002 -3,3 v 1 c 0,-1.661998 1.338,-3 3,-3 h 16 c 1.662,0 3,1.338002 3,3 v -1 c 0,-1.661998 -1.338,-3 -3,-3 z"
       sodipodi:nodetypes="sscsscsss" />
    <path
       id="rect4701"
       style="opacity:0.2;fill:#ffffff;fill-opacity:1;stroke-width:2;stroke-linecap:square"
       d="m 76,20 c -2.215998,0 -4,1.784002 -4,4 v 1 c 0,-2.215998 1.784002,-4 4,-4 h 24 c 2.216,0 4,1.784002 4,4 v -1 c 0,-2.215998 -1.784,-4 -4,-4 z" />
    <path
       id="rect3237"
       style="opacity:0.2;fill:#ffffff;fill-opacity:1;stroke-width:2;stroke-linecap:square"
       d="m 16,4 c -3.323997,0 -6,2.6760033 -6,6 v 1 c 0,-3.3239967 2.676003,-6 6,-6 h 32 c 3.323997,0 6,2.6760033 6,6 V 10 C 54,6.6760033 51.323997,4 48,4 Z"
       sodipodi:nodetypes="sscsscsss" />
    <path
       id="rect5048"
       style="opacity:0.2;fill:#ffffff;fill-opacity:1;stroke-width:2;stroke-linecap:square"
       d="m -72,-24 c -4.431996,0 -8,3.568004 -8,8 v 1 c 0,-4.431996 3.568004,-8 8,-8 h 48 c 4.431996,0 8,3.568004 8,8 v -1 c 0,-4.431996 -3.568004,-8 -8,-8 z" />
    <path
       id="rect5841"
       style="opacity:0.2;fill:#ffffff;fill-opacity:1;stroke-width:2;stroke-linecap:square"
       d="m -192,-56 c -6.64799,0 -12,5.352007 -12,12 v 1 c 0,-6.647993 5.35201,-12 12,-12 h 64 c 6.64799,0 12,5.352007 12,12 v -1 c 0,-6.647993 -5.35201,-12 -12,-12 z" />
  </g>
</svg>
