<?xml version="1.0" encoding="UTF-8" standalone="no"?>
<svg
   width="128"
   height="128"
   version="1.1"
   id="svg5278"
   sodipodi:docname="application-vnd.ms-powerpoint.svg"
   inkscape:version="1.2.2 (1:1.2.2+202305151914+b0a8486541)"
   xmlns:inkscape="http://www.inkscape.org/namespaces/inkscape"
   xmlns:sodipodi="http://sodipodi.sourceforge.net/DTD/sodipodi-0.dtd"
   xmlns="http://www.w3.org/2000/svg"
   xmlns:svg="http://www.w3.org/2000/svg">
  <defs
     id="defs5282" />
  <sodipodi:namedview
     id="namedview5280"
     pagecolor="#ffffff"
     bordercolor="#000000"
     borderopacity="0.25"
     inkscape:showpageshadow="2"
     inkscape:pageopacity="0.0"
     inkscape:pagecheckerboard="0"
     inkscape:deskcolor="#d1d1d1"
     showgrid="false"
     inkscape:zoom="6.296875"
     inkscape:cx="64"
     inkscape:cy="64"
     inkscape:window-width="1920"
     inkscape:window-height="1008"
     inkscape:window-x="0"
     inkscape:window-y="0"
     inkscape:window-maximized="1"
     inkscape:current-layer="svg5278" />
  <path
     style="opacity:0.2;stroke-width:4"
     d="M 25.5,9 C 22.453,9 20,11.4976 20,14.6 v 100.8 c 0,3.10016 2.453,5.6 5.5,5.6 h 77 c 3.0448,0 5.5,-2.49984 5.5,-5.6 V 45 L 80,37 72,9 Z"
     id="path5266" />
  <path
     style="fill:#e4e4e4;stroke-width:4"
     d="M 25.5,8 C 22.453,8 20,10.4976 20,13.6 v 100.8 c 0,3.10016 2.453,5.6 5.5,5.6 h 77 c 3.0448,0 5.5,-2.49984 5.5,-5.6 V 44 L 80,36 72,8 Z"
     id="path5268" />
  <ellipse
     style="opacity:0.2;fill:#000000;fill-opacity:1;stroke-width:20;stroke-linecap:round;stroke-linejoin:round"
     id="path7987"
     cx="68"
     cy="84.999992"
     rx="28"
     ry="27.999992" />
  <circle
     style="opacity:1;fill:#ff8f6b;fill-opacity:1;stroke-width:18.6666;stroke-linejoin:bevel"
     id="path31463"
     cx="68.000008"
     cy="83.999985"
     r="27.999987" />
  <path
     id="path31465"
     style="opacity:1;fill:#d35230;fill-opacity:1;stroke-width:14;stroke-linejoin:bevel"
     d="m 40.000016,83.999988 c -4e-6,15.463972 12.53602,27.999992 27.999992,27.999992 C 83.46398,111.99998 96.000004,99.46396 96,83.999988 H 68.000008 Z"
     sodipodi:nodetypes="csccc" />
  <path
     id="path7584"
     style="opacity:0.2;fill:#000000;fill-opacity:1;stroke-width:14;stroke-linejoin:bevel"
     d="m 40,84 c 0,0.335946 0.008,0.66842 0.02344,1 H 68 95.976562 C 95.992078,84.66842 96,84.335946 96,84 H 68 Z" />
  <path
     id="path31759"
     style="opacity:1;fill:#ed6c47;fill-opacity:1;stroke-width:14;stroke-linejoin:bevel"
     d="M 67.999992,56.000004 A 27.999986,27.999988 0 0 0 40,83.999988 h 27.999992 z" />
  <path
     id="path7781"
     style="opacity:0.2;fill:#ffffff;fill-opacity:1;stroke-width:14;stroke-linejoin:bevel"
     d="M 68,56 C 52.53606,56 39.999996,68.53606 40,84 h 0.02344 C 40.550786,68.999918 52.871298,57 68,57 83.128702,57 95.449214,68.999918 95.976562,84 H 96 c 4e-6,-15.46394 -12.53606,-28 -28,-28 z" />
  <rect
     style="opacity:0.2;fill:#000000;fill-opacity:1;stroke-width:20;stroke-linecap:round;stroke-linejoin:round"
     id="rect7881"
     width="32"
     height="32"
     x="32"
     y="69"
     ry="3.9999986" />
  <rect
     style="fill:#c43e1c;fill-opacity:1;stroke-width:1.99999"
     id="rect2687"
     width="32"
     height="32"
     x="32"
     y="67.999992"
     ry="3.9999986" />
  <path
     id="rect4291"
     style="fill:#ffffff;fill-opacity:1;stroke-width:2"
     d="m 40,72.000172 v 24 h 4.000004 v -7.999996 h 4 c 4.41828,0 8,-3.58172 8,-8 0,-4.41828 -3.58172,-8.000004 -8,-8.000004 h -4 z m 4.000004,4 h 4 c 2.20914,0 4.000004,1.790864 4,4.000004 -4e-6,2.209136 -1.790864,3.999992 -4,3.999992 h -4 z"
     sodipodi:nodetypes="ccccssscccssscc" />
  <path
     style="opacity:0.2;stroke-width:4"
     d="M 108,45 72,9 V 39.375 C 72,42.4935 74.511,45 77.625,45 Z"
     id="path5270" />
  <path
     style="fill:#fafafa;stroke-width:4"
     d="M 108,44 72,8 V 38.375 C 72,41.4935 74.511,44 77.625,44 Z"
     id="path5272" />
  <path
     id="path5274"
     style="opacity:0.2;fill:#ffffff;stroke-width:4"
     d="M 25.5,8 C 22.453008,8 20,10.499169 20,13.601562 v 1 C 20,11.499169 22.453008,9 25.5,9 H 72 V 8 Z" />
</svg>
