<?xml version="1.0" encoding="UTF-8" standalone="no"?>
<svg
   width="128"
   height="128"
   version="1.1"
   id="svg5462"
   sodipodi:docname="application-json.svg"
   inkscape:version="1.2.2 (1:1.2.2+202305151914+b0a8486541)"
   xmlns:inkscape="http://www.inkscape.org/namespaces/inkscape"
   xmlns:sodipodi="http://sodipodi.sourceforge.net/DTD/sodipodi-0.dtd"
   xmlns="http://www.w3.org/2000/svg"
   xmlns:svg="http://www.w3.org/2000/svg">
  <defs
     id="defs5466" />
  <sodipodi:namedview
     id="namedview5464"
     pagecolor="#ffffff"
     bordercolor="#000000"
     borderopacity="0.25"
     inkscape:showpageshadow="2"
     inkscape:pageopacity="0.0"
     inkscape:pagecheckerboard="0"
     inkscape:deskcolor="#d1d1d1"
     showgrid="false"
     inkscape:zoom="6.296875"
     inkscape:cx="64"
     inkscape:cy="64"
     inkscape:window-width="1920"
     inkscape:window-height="1008"
     inkscape:window-x="0"
     inkscape:window-y="0"
     inkscape:window-maximized="1"
     inkscape:current-layer="svg5462" />
  <path
     style="opacity:0.2;stroke-width:2"
     d="M 25.5,9 C 22.453,9 20,11.4976 20,14.6 v 100.8 c 0,3.10016 2.453,5.6 5.5,5.6 h 77 c 3.0448,0 5.5,-2.49984 5.5,-5.6 V 45 L 80,37 72,9 Z"
     id="path5450" />
  <path
     style="fill:#e4e4e4;stroke-width:2"
     d="M 25.5,8 C 22.453,8 20,10.4976 20,13.6 v 100.8 c 0,3.10016 2.453,5.6 5.5,5.6 h 77 c 3.0448,0 5.5,-2.49984 5.5,-5.6 V 44 L 80,36 72,8 Z"
     id="path5452" />
  <path
     d="m 52.911494,61.000466 c -0.0756,-9.44e-4 -0.1512,0.0017 -0.226552,0.008 -0.215632,0.0132 -0.428508,0.0552 -0.632788,0.125 0,0 -1.497322,0.491822 -3.234258,1.398384 -1.736814,0.906568 -3.84498,2.179108 -5.20293,4.359216 -1.511504,2.426302 -0.938798,5.024538 -0.468736,6.577884 0.470064,1.553378 0.723238,2.233214 0.28907,3.273314 -0.212032,0.50789 -1.508032,1.61333 -2.92958,2.304604 -1.422506,0.691398 -2.710834,1.054648 -2.710834,1.054648 -1.290522,0.331788 -2.059596,1.645168 -1.710874,2.921764 -0.303908,1.253586 0.455276,2.518902 1.710874,2.851458 0,0 1.289328,0.363388 2.710834,1.05465 1.421588,0.691238 2.717628,1.804528 2.92958,2.312414 0.434184,1.039986 0.181,1.719812 -0.28907,3.273314 -0.470062,1.55338 -1.042768,4.151188 0.468736,6.577886 1.35803,2.180068 3.466116,3.444708 5.20293,4.351398 1.736816,0.90656 3.234258,1.39839 3.234258,1.39839 3.101212,1.14342 4.68271,-3.58469 1.507756,-4.50765 0,0 -1.13569,-0.377506 -2.50772,-1.093708 -1.37211,-0.716162 -2.84055,-1.823292 -3.359252,-2.656154 -0.586858,-0.942068 -0.397304,-1.26884 0.0392,-2.710836 0.436382,-1.44203 1.226006,-3.834318 0.1328,-6.452884 -0.968164,-2.318958 -2.902224,-3.544278 -4.63264,-4.429524 1.730176,-0.885128 3.664236,-2.118262 4.63264,-4.437336 1.09324,-2.618528 0.303588,-5.010894 -0.1328,-6.452886 -0.436384,-1.44203 -0.625882,-1.76881 -0.0392,-2.710838 0.518782,-0.832822 1.987302,-1.939914 3.359252,-2.65615 1.37211,-0.716166 2.50772,-1.093712 2.50772,-1.093712 2.56646,-0.805182 2.049512,-4.549924 -0.640604,-4.64064 z m 22.155428,0 c -2.686306,0.09844 -3.196166,3.837394 -0.63279,4.640452 0,0 1.13561,0.377546 2.50772,1.093712 1.371948,0.7162 2.84047,1.823292 3.359252,2.65615 0.586818,0.942032 0.397304,1.268804 -0.0392,2.710838 -0.436384,1.441952 -1.226046,3.842126 -0.1328,6.460698 0.968204,2.318874 2.902304,3.544236 4.63264,4.429524 -1.730216,0.885046 -3.664276,2.11037 -4.63264,4.429524 -1.0932,2.61853 -0.30359,5.010894 0.1328,6.452884 0.436384,1.441992 0.625922,1.768768 0.0392,2.710836 -0.518702,0.832862 -1.987184,1.939992 -3.359252,2.656154 -1.37203,0.716202 -2.50772,1.093712 -2.50772,1.093712 -3.174954,0.92295 -1.593456,5.65107 1.507756,4.50764 0,0 1.497442,-0.49182 3.234256,-1.39838 1.736696,-0.90665 3.844782,-2.17134 5.202932,-4.351402 1.511504,-2.426542 0.938798,-5.024146 0.468734,-6.577886 -0.470062,-1.553498 -0.723236,-2.233328 -0.289068,-3.273314 0.211952,-0.50789 1.507992,-1.62118 2.92958,-2.312414 1.421506,-0.691238 2.710834,-1.05465 2.710834,-1.05465 1.255598,-0.332546 2.01479,-1.597872 1.710878,-2.851458 0.348706,-1.276596 -0.420358,-2.589992 -1.710878,-2.921764 0,0 -1.288328,-0.363266 -2.710834,-1.054648 -1.421548,-0.691238 -2.717548,-1.796714 -2.92958,-2.304604 -0.434184,-1.040104 -0.181,-1.719932 0.289068,-3.273314 0.470064,-1.553382 1.04281,-4.151582 -0.468734,-6.577884 -1.35783,-2.180068 -3.465996,-3.452608 -5.202932,-4.359216 -1.736894,-0.906562 -3.242068,-1.398384 -3.242068,-1.398384 -0.201792,-0.06912 -0.411968,-0.11116 -0.624976,-0.125 -0.07796,-0.0064 -0.15616,-0.0092 -0.234352,-0.008 h -0.008 z M 63.997018,73.000022 c -2.209134,-1.84e-4 -4.000034,1.790718 -3.999852,3.999852 -1.82e-4,2.209134 1.790718,4.000036 3.999852,3.999852 2.209136,1.84e-4 4.000036,-1.790718 3.999852,-3.999852 1.84e-4,-2.209134 -1.790716,-4.000036 -3.999852,-3.999852 z m 0,12.015178 c -2.209098,0 -3.999852,1.790754 -3.999852,3.999852 0,2.209034 1.790754,3.999852 3.999852,3.999852 1.413896,0 1.999926,3.999852 1.999926,3.999852 0,0 1.999926,-7.204298 1.999926,-7.999704 0,-2.209098 -1.790752,-3.999852 -3.999852,-3.999852 z"
     style="opacity:0.2;fill:#000000;fill-opacity:1;fill-rule:evenodd;stroke-width:3.99986"
     id="path2752" />
  <path
     d="m 52.911434,60.00051 c -0.0756,-9.44e-4 -0.15122,0.0017 -0.226578,0.008 -0.215638,0.0134 -0.428504,0.05518 -0.632786,0.12502 0,0 -1.497312,0.491818 -3.234244,1.398376 -1.736806,0.906562 -3.844962,2.1791 -5.202904,4.359194 -1.511496,2.426292 -0.938796,5.02452 -0.468734,6.57786 0.470062,1.553368 0.723234,2.233204 0.289066,3.273298 -0.212046,0.50789 -1.508026,1.613322 -2.929568,2.304592 -1.422496,0.6914 -2.710822,1.054644 -2.710822,1.054644 -1.290514,0.331814 -2.059586,1.645162 -1.710868,2.921752 -0.30392,1.253582 0.455276,2.518894 1.710868,2.851448 0,0 1.289326,0.36342 2.710822,1.054642 1.421584,0.691238 2.717618,1.804522 2.929568,2.312408 0.434184,1.039976 0.181,1.719804 -0.289066,3.273298 -0.470062,1.553372 -1.042762,4.151168 0.468734,6.577856 1.358022,2.180052 3.466098,3.444702 5.202904,4.351382 1.73681,0.90656 3.234244,1.39838 3.234244,1.39838 3.101202,1.14342 4.68269,-3.58468 1.50775,-4.507628 0,0 -1.135684,-0.37751 -2.507704,-1.093706 -1.372108,-0.716156 -2.84054,-1.82328 -3.35924,-2.656136 -0.586858,-0.94207 -0.397328,-1.268842 0.03916,-2.710826 0.436384,-1.442026 1.226004,-3.834306 0.1328,-6.452862 -0.968158,-2.318946 -2.902212,-3.544258 -4.63262,-4.429504 1.73017,-0.885118 3.66422,-2.11825 4.63262,-4.437314 1.093238,-2.618514 0.303598,-5.010872 -0.1328,-6.452858 -0.436384,-1.44202 -0.625876,-1.7688 -0.03916,-2.710828 0.518776,-0.832816 1.98729,-1.939904 3.35924,-2.656138 1.372102,-0.71616 2.507704,-1.093706 2.507704,-1.093706 2.56645,-0.80518 2.049502,-4.549904 -0.640602,-4.64062 z m 22.15533,0 c -2.68629,0.09846 -3.19615,3.837374 -0.632784,4.640432 0,0 1.135608,0.37755 2.50771,1.093706 1.37194,0.716196 2.840458,1.823284 3.359238,2.656136 0.586818,0.942032 0.39733,1.268804 -0.03916,2.71083 -0.436382,1.441946 -1.226038,3.842114 -0.1328,6.460668 0.968198,2.318866 2.90229,3.544224 4.632618,4.429504 -1.730208,0.885046 -3.664258,2.110364 -4.632618,4.429508 -1.093196,2.61852 -0.303596,5.010872 0.1328,6.452858 0.43638,1.44198 0.625922,1.768756 0.03916,2.710824 -0.518698,0.832858 -1.987176,1.939984 -3.359238,2.656142 -1.372022,0.716196 -2.50771,1.093702 -2.50771,1.093702 -3.174936,0.92295 -1.593448,5.65105 1.507752,4.50763 0,0 1.497432,-0.49182 3.234238,-1.39838 1.73669,-0.90664 3.84477,-2.17132 5.202914,-4.351384 1.511496,-2.426528 0.93879,-5.024122 0.468732,-6.577858 -0.47006,-1.553488 -0.723232,-2.233316 -0.289064,-3.273298 0.211964,-0.507888 1.507984,-1.621172 2.92956,-2.312402 1.421502,-0.691238 2.710824,-1.054644 2.710824,-1.054644 1.255598,-0.33258 2.014784,-1.597868 1.710868,-2.85145 0.348728,-1.27659 -0.420354,-2.58998 -1.710868,-2.92175 0,0 -1.28832,-0.363298 -2.710824,-1.054642 -1.421536,-0.691238 -2.717532,-1.796708 -2.92956,-2.304596 -0.434184,-1.040098 -0.181,-1.719926 0.289064,-3.273298 0.470058,-1.553378 1.042804,-4.151564 -0.468732,-6.57786 -1.357826,-2.180054 -3.465982,-3.452592 -5.202914,-4.359194 -1.736886,-0.906558 -3.24205,-1.398378 -3.24205,-1.398378 -0.201792,-0.0691 -0.41197,-0.11116 -0.624976,-0.12502 -0.07794,-0.0064 -0.15614,-0.0092 -0.234368,-0.008 h -0.008 z M 63.996912,72.000014 c -2.209124,-1.82e-4 -4.000018,1.790708 -3.999832,3.999834 -1.86e-4,2.209124 1.790708,4.000018 3.999832,3.999836 2.209126,1.82e-4 4.00002,-1.790712 3.999838,-3.999836 1.82e-4,-2.209126 -1.790712,-4.000016 -3.999838,-3.999834 z m 0,12.01513 c -2.209088,0 -3.999832,1.790744 -3.999832,3.999832 0,2.209024 1.790744,3.999834 3.999832,3.999834 1.41389,0 1.999918,3.999838 1.999918,3.999838 0,0 1.99992,-7.20427 1.99992,-7.999672 0,-2.209088 -1.79075,-3.999832 -3.999838,-3.999832 z"
     style="fill:#84b841;fill-opacity:1;fill-rule:evenodd;stroke-width:3.99984"
     id="path1746"
     sodipodi:nodetypes="cccccsccccccccccccccccccscccccccccccccsscccccccccccccsccccccccccccssscss" />
  <path
     style="opacity:0.2;stroke-width:2"
     d="M 108,45 72,9 V 39.375 C 72,42.4935 74.511,45 77.625,45 Z"
     id="path5454" />
  <path
     style="fill:#fafafa;stroke-width:2"
     d="M 108,44 72,8 V 38.375 C 72,41.4935 74.511,44 77.625,44 Z"
     id="path5456" />
  <path
     id="path5458"
     style="opacity:0.2;fill:#ffffff;stroke-width:2"
     d="M 25.5 8 C 22.453003 8 20 10.499166 20 13.601562 L 20 14.601562 C 20 11.499166 22.453003 9 25.5 9 L 72 9 L 72 8 L 25.5 8 z " />
</svg>
