<?xml version="1.0" encoding="UTF-8" standalone="no"?>
<svg
   width="128"
   height="128"
   version="1.1"
   id="svg5462"
   sodipodi:docname="application-x-trash.svg"
   inkscape:version="1.2.2 (1:1.2.2+202305151914+b0a8486541)"
   xmlns:inkscape="http://www.inkscape.org/namespaces/inkscape"
   xmlns:sodipodi="http://sodipodi.sourceforge.net/DTD/sodipodi-0.dtd"
   xmlns="http://www.w3.org/2000/svg"
   xmlns:svg="http://www.w3.org/2000/svg">
  <defs
     id="defs5466" />
  <sodipodi:namedview
     id="namedview5464"
     pagecolor="#ffffff"
     bordercolor="#000000"
     borderopacity="0.25"
     inkscape:showpageshadow="2"
     inkscape:pageopacity="0.0"
     inkscape:pagecheckerboard="0"
     inkscape:deskcolor="#d1d1d1"
     showgrid="false"
     inkscape:zoom="6.296875"
     inkscape:cx="64"
     inkscape:cy="64"
     inkscape:window-width="1920"
     inkscape:window-height="1008"
     inkscape:window-x="0"
     inkscape:window-y="0"
     inkscape:window-maximized="1"
     inkscape:current-layer="svg5462" />
  <path
     style="opacity:0.2;stroke-width:2"
     d="M 25.5,9 C 22.453,9 20,11.4976 20,14.6 v 100.8 c 0,3.10016 2.453,5.6 5.5,5.6 h 77 c 3.0448,0 5.5,-2.49984 5.5,-5.6 V 45 L 80,37 72,9 Z"
     id="path5450" />
  <path
     style="fill:#e4e4e4;stroke-width:2"
     d="M 25.5,8 C 22.453,8 20,10.4976 20,13.6 v 100.8 c 0,3.10016 2.453,5.6 5.5,5.6 h 77 c 3.0448,0 5.5,-2.49984 5.5,-5.6 V 44 L 80,36 72,8 Z"
     id="path5452" />
  <path
     d="m 47.6212,96.246116 c -0.512,0.9192 -0.9192,2.30224 -0.9192,3.17368 0,0.2024 0,0.45964 0.052,0.816604 L 40.3572,89.234996 c -0.204,-0.3568 -0.356,-0.86908 -0.356,-1.33048 0,-0.462 0.152,-1.0236 0.356,-1.3812 l 3.0712,-5.3732 -3.4284,-1.94292 11.156,-0.2064 5.4232,9.77292 -3.4784,-1.9954 z M 52.5348,64.03744 c 0.9716,-1.6904 2.5592,-2.61144 4.502,-2.61144 2.0996,0 3.7376,0.97352 4.9136,2.96656 l 1.7404,2.916396 -6.0396,11.6416 -9.7732,-6.8808 z m 0.7144,41.06056 c -2.9164,0 -5.3208,-2.40488 -5.3208,-5.321244 0,-0.81896 0.36,-2.20192 0.8708,-3.071 l 1.636,-2.9164 H 62.5644 V 105.09808 H 53.2492 Z M 62.974,63.72824 C 62.2076,62.39952 61.1836,61.47612 59.9552,60.964 h 12.5872 c 1.126,0 1.9952,0.462 2.5088,1.33284 l 3.1212,5.321236 3.3764,-1.9972 -5.4256,9.72452 -11.1016,-0.1564 3.428,-1.94288 z M 82.37,93.891956 c 1.5332,0 2.814,-0.40944 3.8876,-1.22664 l -6.3464,11.051444 c -0.512,0.86904 -1.4316,1.41704 -2.5052,1.3812 h -5.9896 v 3.94004 l -5.7304,-9.568164 5.7304,-9.5706 v 3.99264 H 82.37 Z m 4.9092,-9.2112 c 0.462,0.81896 0.7188,1.688 0.7188,2.60956 0,1.8426 -1.1784,3.78728 -2.814,4.70656 -0.7688,0.41188 -1.8468,0.7318 -2.9164,0.66852 h -3.3804 l -6.0356,-10.44144 9.7732,-5.57796 z"
     style="opacity:0.2;fill:#000000;fill-opacity:1;stroke-width:4"
     id="path7054" />
  <path
     d="m 47.6212,95.246116 c -0.512,0.9192 -0.9192,2.30224 -0.9192,3.17368 0,0.2024 0,0.45964 0.052,0.8166 l -6.3968,-11.0014 c -0.204,-0.3568 -0.356,-0.86908 -0.356,-1.33048 0,-0.462 0.152,-1.0236 0.356,-1.3812 l 3.0712,-5.3732 -3.4284,-1.94292 11.156,-0.2064 5.4232,9.77292 -3.4784,-1.9954 z M 52.5348,63.03744 c 0.9716,-1.6904 2.5592,-2.61144 4.502,-2.61144 2.0996,0 3.7376,0.97352 4.9136,2.96656 l 1.7404,2.916396 -6.0396,11.6416 -9.7732,-6.8808 z m 0.7144,41.06056 c -2.9164,0 -5.3208,-2.40488 -5.3208,-5.321244 0,-0.81896 0.36,-2.20192 0.8708,-3.071 l 1.636,-2.9164 H 62.5644 V 104.09808 H 53.2492 Z M 62.974,62.72824 C 62.2076,61.39952 61.1836,60.47612 59.9552,59.964 h 12.5872 c 1.126,0 1.9952,0.462 2.5088,1.33284 l 3.1212,5.321236 3.3764,-1.9972 -5.4256,9.72452 -11.1016,-0.1564 3.428,-1.94288 z M 82.37,92.891956 c 1.5332,0 2.814,-0.40944 3.8876,-1.22664 l -6.3464,11.051444 c -0.512,0.86904 -1.4316,1.41704 -2.5052,1.3812 h -5.9896 v 3.94004 l -5.7304,-9.568164 5.7304,-9.5706 v 3.99264 H 82.37 Z m 4.9092,-9.2112 c 0.462,0.81896 0.7188,1.688 0.7188,2.60956 0,1.8426 -1.1784,3.78728 -2.814,4.70656 -0.7688,0.41188 -1.8468,0.7318 -2.9164,0.66852 h -3.3804 l -6.0356,-10.44144 9.7732,-5.57796 z"
     style="fill:#6d9d19;fill-opacity:1;stroke-width:4"
     id="path6538"
     sodipodi:nodetypes="csccsccccccccsccccccsccccccccscccccccccccccccccccscccccc" />
  <path
     style="opacity:0.2;stroke-width:2"
     d="M 108,45 72,9 V 39.375 C 72,42.4935 74.511,45 77.625,45 Z"
     id="path5454" />
  <path
     style="fill:#fafafa;stroke-width:2"
     d="M 108,44 72,8 V 38.375 C 72,41.4935 74.511,44 77.625,44 Z"
     id="path5456" />
  <path
     id="path5458"
     style="opacity:0.2;fill:#ffffff;stroke-width:2"
     d="M 25.5,8 C 22.453004,8 20,10.499166 20,13.601562 v 1 C 20,11.499165 22.453004,9 25.5,9 H 72 V 8 Z" />
</svg>
