<?xml version="1.0" encoding="UTF-8" standalone="no"?>
<svg
   width="128"
   height="128"
   version="1"
   id="svg778"
   sodipodi:docname="application-vnd.debian.binary-package.svg"
   inkscape:version="1.2.2 (1:1.2.2+202305151914+b0a8486541)"
   xmlns:inkscape="http://www.inkscape.org/namespaces/inkscape"
   xmlns:sodipodi="http://sodipodi.sourceforge.net/DTD/sodipodi-0.dtd"
   xmlns="http://www.w3.org/2000/svg"
   xmlns:svg="http://www.w3.org/2000/svg">
  <defs
     id="defs782" />
  <sodipodi:namedview
     id="namedview780"
     pagecolor="#ffffff"
     bordercolor="#000000"
     borderopacity="0.25"
     inkscape:showpageshadow="2"
     inkscape:pageopacity="0.0"
     inkscape:pagecheckerboard="0"
     inkscape:deskcolor="#d1d1d1"
     showgrid="false"
     inkscape:zoom="6.296875"
     inkscape:cx="63.920596"
     inkscape:cy="64"
     inkscape:window-width="1920"
     inkscape:window-height="1008"
     inkscape:window-x="0"
     inkscape:window-y="0"
     inkscape:window-maximized="1"
     inkscape:current-layer="svg778" />
  <rect
     style="opacity:0.2;stroke-width:4"
     width="112"
     height="112"
     x="8"
     y="9"
     ry="12"
     id="rect750" />
  <rect
     style="fill:#dfdfdf;fill-opacity:1;stroke-width:6.99996"
     id="rect944"
     width="112"
     height="112"
     x="8"
     y="8"
     ry="12" />
  <circle
     style="fill:#86be43;fill-opacity:1;stroke-width:2.13333"
     id="path3419"
     cx="64"
     cy="64"
     r="32" />
  <path
     id="rect3558"
     style="fill:#ffffff;fill-opacity:1;stroke-width:2"
     d="m 48,46 c -1.108,0 -2,0.891999 -2,2 v 4 c 0,1.108 0.892,2 2,2 h 4 c 1.108,0 2,-0.892 2,-2 v -4 c 0,-1.108001 -0.892,-2 -2,-2 z m 14,0 c -1.108,0 -2,0.891999 -2,2 v 4 c 0,1.108 0.892,2 2,2 h 4 c 1.108,0 2,-0.892 2,-2 v -4 c 0,-1.108001 -0.892,-2 -2,-2 z m 14,0 c -1.108,0 -2,0.891999 -2,2 v 4 c 0,1.108 0.892,2 2,2 h 4 c 1.108,0 2,-0.892 2,-2 v -4 c 0,-1.108001 -0.892,-2 -2,-2 z M 48,60 c -1.108,0 -2,0.891999 -2,2 v 4 c 0,1.108 0.892,2 2,2 h 4 c 1.108,0 2,-0.892 2,-2 v -4 c 0,-1.108001 -0.892,-2 -2,-2 z m 14,0 c -1.108,0 -2,0.891999 -2,2 v 4 c 0,1.108 0.892,2 2,2 h 4 c 1.108,0 2,-0.892 2,-2 v -4 c 0,-1.108001 -0.892,-2 -2,-2 z m 14,0 c -1.108,0 -2,0.891999 -2,2 v 4 c 0,1.108 0.892,2 2,2 h 4 c 1.108,0 2,-0.892 2,-2 v -4 c 0,-1.108001 -0.892,-2 -2,-2 z M 48,74 c -1.108,0 -2,0.891999 -2,2 v 4 c 0,1.108 0.892,2 2,2 h 4 c 1.108,0 2,-0.892 2,-2 v -4 c 0,-1.108001 -0.892,-2 -2,-2 z m 14,0 c -1.108,0 -2,0.891999 -2,2 v 4 c 0,1.108 0.892,2 2,2 h 4 c 1.108,0 2,-0.892 2,-2 v -4 c 0,-1.108001 -0.892,-2 -2,-2 z m 14,0 c -1.108,0 -2,0.891999 -2,2 v 4 c 0,1.108 0.892,2 2,2 h 4 c 1.108,0 2,-0.892 2,-2 v -4 c 0,-1.108001 -0.892,-2 -2,-2 z" />
  <path
     id="rect914"
     style="opacity:0.2;fill:#ffffff;stroke-width:4"
     d="M 20,8 C 13.352007,8 8.0000004,13.352007 8.0000004,20 v 1 C 8.0000004,14.352007 13.352007,9 20,9 h 88 c 6.64799,0 12,5.352007 12,12 V 20 C 120,13.352007 114.64799,8 108,8 Z"
     sodipodi:nodetypes="sscsscsss" />
</svg>
