<?xml version="1.0" encoding="UTF-8" standalone="no"?>
<svg
   width="128"
   height="128"
   version="1.1"
   id="svg966"
   sodipodi:docname="application-x-theme.svg"
   inkscape:version="1.2.2 (1:1.2.2+202305151914+b0a8486541)"
   xmlns:inkscape="http://www.inkscape.org/namespaces/inkscape"
   xmlns:sodipodi="http://sodipodi.sourceforge.net/DTD/sodipodi-0.dtd"
   xmlns="http://www.w3.org/2000/svg"
   xmlns:svg="http://www.w3.org/2000/svg">
  <defs
     id="defs970" />
  <sodipodi:namedview
     id="namedview968"
     pagecolor="#ffffff"
     bordercolor="#000000"
     borderopacity="0.25"
     inkscape:showpageshadow="2"
     inkscape:pageopacity="0.0"
     inkscape:pagecheckerboard="0"
     inkscape:deskcolor="#d1d1d1"
     showgrid="false"
     inkscape:zoom="6.296875"
     inkscape:cx="63.920596"
     inkscape:cy="64"
     inkscape:window-width="1920"
     inkscape:window-height="1008"
     inkscape:window-x="0"
     inkscape:window-y="0"
     inkscape:window-maximized="1"
     inkscape:current-layer="svg966" />
  <path
     style="opacity:0.2;stroke-width:2"
     d="M 25.5,9 C 22.453,9 20,11.4976 20,14.6 v 100.8 c 0,3.10016 2.453,5.6 5.5,5.6 h 77 c 3.0448,0 5.5,-2.49984 5.5,-5.6 V 45 L 80,37 72,9 Z"
     id="path926" />
  <path
     style="fill:#e4e4e4;stroke-width:2"
     d="M 25.5,8 C 22.453,8 20,10.4976 20,13.6 v 100.8 c 0,3.10016 2.453,5.6 5.5,5.6 h 77 c 3.0448,0 5.5,-2.49984 5.5,-5.6 V 44 L 80,36 72,8 Z"
     id="path928" />
  <path
     id="ellipse2-3"
     style="opacity:0.2;fill:#000000;stroke-width:4.0001"
     d="m 64.005922,51 a 14.657656,16.000398 0 0 0 -13.320644,9.336172 16.22379,14.456072 26.165265 0 0 -14.890994,6.672042 16.22379,14.456072 26.165265 0 0 1.56254,16.000398 14.456072,16.22379 63.834735 0 0 -1.56254,15.99258 14.456072,16.22379 63.834735 0 0 14.890994,6.672038 14.656364,16.000398 0 0 0 13.320644,9.32836 14.656364,16.000398 0 0 0 13.320644,-9.34398 c 6.20271,0.81396 12.012842,-1.78705 14.88318,-6.656418 2.957482,-5.03166 2.132278,-11.276072 -1.562538,-16.000398 a 14.456072,16.22379 63.834735 0 0 1.562538,-16.000396 14.456072,16.22379 63.834735 0 0 -2.11724,-2.656314 14.456817,16.222682 63.838713 0 0 -0.46876,-0.484388 14.456072,16.22379 63.834735 0 0 -0.875022,-0.671894 14.456817,16.222682 63.838713 0 0 -0.75783,-0.570326 14.456072,16.22379 63.834735 0 0 -0.86721,-0.484384 14.456817,16.222682 63.838713 0 0 -1.015648,-0.54689 14.456072,16.22379 63.834735 0 0 -0.9219,-0.359368 14.456817,16.222682 63.838713 0 0 -1.03909,-0.37501 14.456072,16.22379 63.834735 0 0 -1.187528,-0.273446 14.456817,16.222682 63.838713 0 0 -0.929712,-0.19532 14.456072,16.22379 63.834735 0 0 -1.195342,-0.10936 14.456817,16.222682 63.838713 0 0 -0.81252,-0.07812 14.456817,16.222682 63.838713 0 0 -0.234366,0.008 14.456072,16.22379 63.834735 0 0 -0.789084,0.0236 14.456817,16.222682 63.838713 0 0 -1.30472,0.08592 14.456072,16.22379 63.834735 0 0 -0.38281,0.0236 14.657656,16.000398 0 0 0 -13.305042,-9.336692 z m 13.648776,53.77478 c -0.07044,0.19716 -0.14108,0.39165 -0.218766,0.58595 a 14.656364,16.000398 0 0 0 0.19532,-0.57814 26.056648,25.600636 0 0 0 0.0236,-0.008 z" />
  <g
     id="g809"
     transform="matrix(4.0000994,0,0,4.0000994,1.999204,1.9988072)">
    <path
       id="ellipse2"
       style="fill:#278df2"
       d="m 22.014627,20 a 6.5139999,6.4000001 0 0 1 -6.514,6.4 6.5139999,6.4000001 0 0 1 -6.514,-6.4 6.5139999,6.4000001 0 0 1 6.514,-6.4 6.5139999,6.4000001 0 0 1 6.514,6.4 z" />
    <path
       id="ellipse8"
       style="fill:#34e0c4;stroke-width:0.999941"
       d="m 20.858313,21.117135 a 3.6139282,4.0558468 63.834735 0 1 -5.358305,-1.117392 3.6139282,4.0558468 63.834735 0 1 1.694173,-5.117667 3.6139282,4.0558468 63.834735 0 1 5.358305,1.117392 3.6139282,4.0558468 63.834735 0 1 -1.694173,5.117667 z" />
    <path
       id="ellipse10"
       style="fill:#ffc107"
       d="m 19.164627,24 a 3.664,4 0 0 1 -3.664,4 3.664,4 0 0 1 -3.664,-4 3.664,4 0 0 1 3.664,-4 3.664,4 0 0 1 3.664,4 z" />
    <path
       id="ellipse14"
       style="fill:#fb8300;stroke-width:0.999941"
       d="m 13.805834,25.117411 a 3.6139282,4.0558468 63.834735 0 1 -5.3583056,-1.117392 3.6139282,4.0558468 63.834735 0 1 1.6941736,-5.117667 3.6139282,4.0558468 63.834735 0 1 5.358306,1.117392 3.6139282,4.0558468 63.834735 0 1 -1.694174,5.117667 z" />
    <path
       id="ellipse18"
       style="fill:#fa3e30;stroke-width:0.999941"
       d="m 10.142043,21.118169 a 4.0558468,3.6139282 26.165265 0 0 5.358306,-1.117391 4.0558468,3.6139282 26.165265 0 0 -1.694173,-5.117667 4.0558468,3.6139282 26.165265 0 0 -5.3583063,1.117391 4.0558468,3.6139282 26.165265 0 0 1.6941733,5.117667 z" />
    <path
       style="fill:#a544c9"
       d="m 15.500162,12 a 3.6643229,4 0 0 0 -3.664323,4 3.6643229,4 0 0 0 3.664323,4 3.6141143,4.0555696 63.838713 0 1 1.693794,-5.117969 3.6141143,4.0555696 63.838713 0 1 1.634155,-0.545313 A 3.6643229,4 0 0 0 15.500162,12 Z m 0,8 A 3.6643229,4 0 0 0 18.983177,17.233593 3.6643229,4 0 0 1 18.490942,18.301562 4.0555696,3.6141143 26.161287 0 0 15.500162,20 Z m 3.483015,-2.766407 a 3.6643229,4 0 0 0 0.08827,-0.353125 3.6643229,4 0 0 1 -0.08827,0.353125 z m -0.112124,-2.790625 a 3.6643229,4 0 0 1 0.122461,0.364844 3.6643229,4 0 0 0 -0.122461,-0.364844 z m 0.128028,0.38125 a 3.6643229,4 0 0 1 0.07475,0.316406 3.6643229,4 0 0 0 -0.07475,-0.316406 z m 0.09542,0.414063 a 3.6643229,4 0 0 1 0.03578,0.255469 3.6643229,4 0 0 0 -0.03578,-0.255469 z m 0.05328,0.414843 A 3.6643229,4 0 0 1 19.164481,16 a 3.6643229,4 0 0 0 -0.0167,-0.346876 z m 0.0087,0.523438 a 3.6643229,4 0 0 1 -0.0159,0.2625 3.6643229,4 0 0 0 0.0159,-0.2625 z m -0.02858,0.354688 a 3.6643229,4 0 0 1 -0.04771,0.310156 3.6643229,4 0 0 0 0.04771,-0.310156 z"
       id="path8" />
    <path
       style="fill:#009688"
       d="m 18.547402,18.297656 c -1.302141,0.03619 -2.442407,0.673203 -3.04724,1.702344 2.023749,0 3.664322,1.79086 3.664322,4 -0.0014,0.574359 -0.116154,1.141646 -0.336373,1.663281 1.55137,0.204283 3.006096,-0.44546 3.723964,-1.663281 1.012085,-1.721894 0.25372,-4.013368 -1.693796,-5.117969 -0.710558,-0.402895 -1.516036,-0.606585 -2.310877,-0.584375 z m 0.280709,7.365625 z M 15.500162,20 Z"
       id="path10" />
    <path
       id="ellipse980"
       style="fill:#03a9f4"
       d="m 19.505232,14.297656 a 3.6141143,4.0555696 63.838713 0 0 -2.311076,0.584766 3.6141143,4.0555696 63.838713 0 0 -1.693795,5.117382 c 0.604868,-1.029003 1.744999,-1.665958 3.047041,-1.702148 0.794841,-0.02221 1.600319,0.18148 2.310877,0.584375 0.523507,0.296925 0.960199,0.680123 1.300565,1.114453 A 3.6141143,4.0555696 63.838713 0 0 22.552273,16 3.6141143,4.0555696 63.838713 0 0 19.505232,14.297656 Z M 15.500361,20 a 3.6141143,4.0555696 63.838713 0 0 2.996148,1.698632 C 17.833293,20.671548 16.738993,20.000072 15.500361,20 Z" />
    <path
       style="fill:#ffc107"
       d="m 15.500361,19.999804 c -6.3156123,6.400131 -3.157806,3.200066 0,0 z m 0,1.96e-4 c 0.642929,1.293551 1.748509,1.853628 2.996148,1.698632 C 17.833293,20.671548 16.738993,20.000072 15.500361,20 Z"
       id="path13" />
  </g>
  <path
     style="opacity:0.2;stroke-width:2"
     d="M 108,45 72,9 V 39.375 C 72,42.4935 74.511,45 77.625,45 Z"
     id="path930" />
  <path
     style="fill:#fafafa;stroke-width:2"
     d="M 108,44 72,8 V 38.375 C 72,41.4935 74.511,44 77.625,44 Z"
     id="path932" />
  <path
     style="opacity:0.2;fill:#ffffff;stroke-width:2"
     d="M 25.5,8 C 22.453,8 20,10.499162 20,13.601562 v 2 C 20,12.499162 22.453,10 25.5,10 H 72 V 8 Z"
     id="path934" />
</svg>
