<?xml version="1.0" encoding="UTF-8" standalone="no"?>
<svg
   width="128"
   height="128"
   version="1"
   id="svg6695"
   sodipodi:docname="image-x-generic.svg"
   inkscape:version="1.2.2 (1:1.2.2+202305151914+b0a8486541)"
   xmlns:inkscape="http://www.inkscape.org/namespaces/inkscape"
   xmlns:sodipodi="http://sodipodi.sourceforge.net/DTD/sodipodi-0.dtd"
   xmlns="http://www.w3.org/2000/svg"
   xmlns:svg="http://www.w3.org/2000/svg">
  <defs
     id="defs6699" />
  <sodipodi:namedview
     id="namedview6697"
     pagecolor="#ffffff"
     bordercolor="#000000"
     borderopacity="0.25"
     inkscape:showpageshadow="2"
     inkscape:pageopacity="0.0"
     inkscape:pagecheckerboard="0"
     inkscape:deskcolor="#d1d1d1"
     showgrid="false"
     inkscape:zoom="6.296875"
     inkscape:cx="63.920596"
     inkscape:cy="64"
     inkscape:window-width="1920"
     inkscape:window-height="1008"
     inkscape:window-x="0"
     inkscape:window-y="0"
     inkscape:window-maximized="1"
     inkscape:current-layer="svg6695"
     showguides="false" />
  <rect
     style="opacity:0.2;fill:#000000;stroke-width:4"
     id="rect6970"
     width="104"
     height="96"
     x="12.000002"
     y="17"
     ry="8" />
  <rect
     style="fill:#8f3d8b;fill-opacity:1;stroke-width:7.99988"
     id="rect342"
     width="104"
     height="96"
     x="12.000002"
     y="16"
     ry="8" />
  <path
     style="opacity:0.2;stroke-width:4"
     d="m 44.000001,52.999999 24,32 20,-16 15.999999,16 V 96.999998 H 24 V 76.999999 Z"
     id="path6691" />
  <path
     fill="#ffffff"
     d="m 44.000001,51.999999 24,32 20,-16 15.999999,16 V 95.999998 H 24 V 75.999999 Z"
     id="path6693"
     style="stroke-width:4" />
  <path
     id="rect6880"
     style="opacity:0.2;fill:#ffffff;stroke-width:4"
     d="m 20,16 c -4.431996,0 -8,3.568004 -8,8 v 1 c 0,-4.431996 3.568004,-8 8,-8 h 88 c 4.432,0 8,3.568004 8,8 v -1 c 0,-4.431996 -3.568,-8 -8,-8 z"
     sodipodi:nodetypes="sscsscsss" />
</svg>
