<?xml version="1.0" encoding="UTF-8" standalone="no"?>
<svg
   width="128"
   height="128"
   version="1"
   id="svg778"
   sodipodi:docname="package-x-generic.svg"
   inkscape:version="1.2.2 (1:1.2.2+202305151914+b0a8486541)"
   xmlns:inkscape="http://www.inkscape.org/namespaces/inkscape"
   xmlns:sodipodi="http://sodipodi.sourceforge.net/DTD/sodipodi-0.dtd"
   xmlns="http://www.w3.org/2000/svg"
   xmlns:svg="http://www.w3.org/2000/svg">
  <defs
     id="defs782" />
  <sodipodi:namedview
     id="namedview780"
     pagecolor="#ffffff"
     bordercolor="#000000"
     borderopacity="0.25"
     inkscape:showpageshadow="2"
     inkscape:pageopacity="0.0"
     inkscape:pagecheckerboard="0"
     inkscape:deskcolor="#d1d1d1"
     showgrid="false"
     inkscape:zoom="6.296875"
     inkscape:cx="63.920596"
     inkscape:cy="64"
     inkscape:window-width="1920"
     inkscape:window-height="1008"
     inkscape:window-x="0"
     inkscape:window-y="0"
     inkscape:window-maximized="1"
     inkscape:current-layer="svg778" />
  <rect
     style="opacity:0.2;stroke-width:4"
     width="112"
     height="112"
     x="8"
     y="9"
     ry="12"
     id="rect750" />
  <rect
     style="fill:#c19f5f;fill-opacity:1;stroke-width:6.99996"
     id="rect944"
     width="112"
     height="112"
     x="8"
     y="8"
     ry="12" />
  <rect
     style="opacity:0.2;stroke-width:2"
     width="20"
     height="54"
     x="54"
     y="8"
     id="rect1593" />
  <rect
     style="fill:#ffffff;stroke-width:2"
     width="6"
     height="6"
     x="64"
     y="8"
     id="rect1595" />
  <rect
     style="fill:#ffffff;stroke-width:2"
     width="6"
     height="6"
     x="58"
     y="50"
     id="rect1597" />
  <path
     style="fill:#4b4b4b;stroke-width:2"
     d="m 64,50 c 7.5,0 7.5,11.2 10,11.2 v 14 c 0,1.5512 -1.115,2.8 -2.5,2.8 h -15 C 55.115,78 54,76.7512 54,75.2 v -14 C 56.5,61.2 56.5,50 64,50 Z"
     id="path1599" />
  <path
     style="opacity:0.2;stroke-width:2"
     d="M 63.335938,62 C 58.165272,62 54,66.20545 54,71.421876 V 90.578124 C 54,95.794552 58.165272,100 63.335938,100 h 1.328124 C 69.834728,100 74,95.794554 74,90.578124 V 71.421876 C 74,66.20545 69.834728,62 64.664062,62 Z M 64,82 c 4.418278,8e-6 8,3.585762 8,8.003906 C 72,94.422052 68.418278,98 64,98 59.581722,98 56,94.422052 56,90.003906 56,85.585762 59.581722,82.000008 64,82 Z"
     id="path1601" />
  <path
     style="fill:#ffffff;stroke-width:2"
     d="M 63.335938,61 C 58.165272,61 54,65.20545 54,70.421876 V 89.578124 C 54,94.794552 58.165272,99 63.335938,99 h 1.328124 C 69.834728,99 74,94.794554 74,89.578124 V 70.421876 C 74,65.20545 69.834728,61 64.664062,61 Z M 64,81 c 4.418278,8e-6 8,3.585762 8,8.003906 C 72,93.422052 68.418278,97 64,97 59.581722,97 56,93.422052 56,89.003906 56,84.585762 59.581722,81.000008 64,81 Z"
     id="path1603" />
  <path
     style="fill:#909090;stroke-width:2"
     d="M 63.96875,54.000244 A 2.0002,1.9932147 0 0 0 62,56.020508 V 67.9786 a 2.0002,1.9932147 0 1 0 4,0 V 56.020508 a 2.0002,1.9932147 0 0 0 -2.03125,-2.020264 z"
     id="path1605" />
  <rect
     style="fill:#ffffff;stroke-width:2"
     width="6"
     height="6"
     x="58"
     y="14"
     id="rect1607" />
  <rect
     style="fill:#ffffff;stroke-width:2"
     width="6"
     height="6"
     x="64"
     y="20"
     id="rect1609" />
  <rect
     style="fill:#ffffff;stroke-width:2"
     width="6"
     height="6"
     x="58"
     y="26"
     id="rect1611" />
  <rect
     style="fill:#ffffff;stroke-width:2"
     width="6"
     height="6"
     x="64"
     y="32"
     id="rect1613" />
  <rect
     style="fill:#ffffff;stroke-width:2"
     width="6"
     height="6"
     x="58"
     y="38"
     id="rect1615" />
  <rect
     style="fill:#ffffff;stroke-width:2"
     width="6"
     height="6"
     x="64"
     y="44"
     id="rect1617" />
  <path
     id="rect914"
     style="opacity:0.2;fill:#ffffff;stroke-width:4"
     d="M 20,8 C 13.352007,8 8.0000004,13.352007 8.0000004,20 v 1 C 8.0000004,14.352007 13.352007,9 20,9 h 88 c 6.64799,0 12,5.352007 12,12 V 20 C 120,13.352007 114.64799,8 108,8 Z"
     sodipodi:nodetypes="sscsscsss" />
</svg>
