<?xml version="1.0" encoding="UTF-8" standalone="no"?>
<svg
   width="128"
   height="128"
   version="1.1"
   id="svg6241"
   sodipodi:docname="text-x-script.svg"
   inkscape:version="1.2.2 (1:1.2.2+202305151914+b0a8486541)"
   xmlns:inkscape="http://www.inkscape.org/namespaces/inkscape"
   xmlns:sodipodi="http://sodipodi.sourceforge.net/DTD/sodipodi-0.dtd"
   xmlns="http://www.w3.org/2000/svg"
   xmlns:svg="http://www.w3.org/2000/svg">
  <defs
     id="defs6245" />
  <sodipodi:namedview
     id="namedview6243"
     pagecolor="#ffffff"
     bordercolor="#000000"
     borderopacity="0.25"
     inkscape:showpageshadow="2"
     inkscape:pageopacity="0.0"
     inkscape:pagecheckerboard="0"
     inkscape:deskcolor="#d1d1d1"
     showgrid="false"
     inkscape:zoom="6.296875"
     inkscape:cx="63.920596"
     inkscape:cy="64"
     inkscape:window-width="1920"
     inkscape:window-height="1008"
     inkscape:window-x="0"
     inkscape:window-y="0"
     inkscape:window-maximized="1"
     inkscape:current-layer="svg6241" />
  <path
     style="opacity:0.2;stroke-width:2"
     d="M 25.5,9 C 22.453,9 20,11.4976 20,14.6 v 100.8 c 0,3.10016 2.453,5.6 5.5,5.6 h 77 c 3.0448,0 5.5,-2.49984 5.5,-5.6 V 45 L 80,37 72,9 Z"
     id="path6227" />
  <path
     style="fill:#4f4f4f;stroke-width:2"
     d="M 25.5,8 C 22.453,8 20,10.4976 20,13.6 v 100.8 c 0,3.10016 2.453,5.6 5.5,5.6 h 77 c 3.0448,0 5.5,-2.49984 5.5,-5.6 V 44 L 80,36 72,8 Z"
     id="path6229" />
  <path
     style="opacity:0.2;stroke-width:2"
     d="M 108,45 72,9 V 39.375 C 72,42.4935 74.511,45 77.625,45 Z"
     id="path6231" />
  <path
     style="fill:#696969;stroke-width:2"
     d="M 108,44 72,8 V 38.375 C 72,41.4935 74.511,44 77.625,44 Z"
     id="path6233" />
  <path
     style="opacity:0.1;fill:#ffffff;stroke-width:2"
     d="M 25.5,8 C 22.453,8 20,10.499162 20,13.601562 v 0.99922 c 0,-3.102401 2.453,-5.6015632 5.5,-5.6015632 H 72 V 8 Z"
     id="path6235"
     sodipodi:nodetypes="sscsccs" />
  <path
     style="opacity:0.2;stroke-width:2"
     d="M 48.953124,59 A 3.0003,2.994443 0 0 0 46,62.039062 V 69 h -6.964844 a 2.994443,3.0003 0 1 0 0,6 H 46 v 12 h -6.964844 a 2.994443,3.0003 0 1 0 0,6 H 46 v 6.964844 a 3.0003,2.994443 0 1 0 6,0 V 93 h 12 v 6.964844 a 3.0003,2.994443 0 1 0 6,0 V 93 h 6.964844 A 2.994443,3.0003 0 0 0 80,89.953124 2.994443,3.0003 0 0 0 76.964844,87 H 70 V 75 h 6.964844 A 2.994443,3.0003 0 0 0 80,71.953124 2.994443,3.0003 0 0 0 76.964844,69 H 70 V 62.039062 A 3.0003,2.994443 0 0 0 66.953124,59 3.0003,2.994443 0 0 0 64,62.039062 V 69 H 52 V 62.039062 A 3.0003,2.994443 0 0 0 48.953124,59 Z m 40,0 C 87.297804,59.0258 85.976256,60.386942 86,62.039062 v 27.925782 c -0.05738,4.049048 6.057376,4.049048 6,0 V 62.039062 C 92.02428,60.350294 90.645164,58.973608 88.953124,59 Z M 52,75 H 64 V 87 H 52 Z m 37,24 a 3,3 0 0 0 -3,3 3,3 0 0 0 3,3 3,3 0 0 0 3,-3 3,3 0 0 0 -3,-3 z"
     id="path6237" />
  <path
     style="fill:#ffffff;stroke-width:2"
     d="M 48.953124,58 A 3.0003,2.994443 0 0 0 46,61.039062 V 68 h -6.964844 a 2.994443,3.0003 0 1 0 0,6 H 46 v 12 h -6.964844 a 2.994443,3.0003 0 1 0 0,6 H 46 v 6.964844 a 3.0003,2.994443 0 1 0 6,0 V 92 h 12 v 6.964844 a 3.0003,2.994443 0 1 0 6,0 V 92 h 6.964844 A 2.994443,3.0003 0 0 0 80,88.953124 2.994443,3.0003 0 0 0 76.964844,86 H 70 V 74 h 6.964844 A 2.994443,3.0003 0 0 0 80,70.953124 2.994443,3.0003 0 0 0 76.964844,68 H 70 V 61.039062 A 3.0003,2.994443 0 0 0 66.953124,58 3.0003,2.994443 0 0 0 64,61.039062 V 68 H 52 V 61.039062 A 3.0003,2.994443 0 0 0 48.953124,58 Z m 40,0 C 87.297804,58.0258 85.976256,59.386942 86,61.039062 v 27.925782 c -0.05738,4.049048 6.057376,4.049048 6,0 V 61.039062 C 92.02428,59.350294 90.645164,57.973608 88.953124,58 Z M 52,74 H 64 V 86 H 52 Z m 37,24 a 3,3 0 0 0 -3,3 3,3 0 0 0 3,3 3,3 0 0 0 3,-3 3,3 0 0 0 -3,-3 z"
     id="path6239" />
</svg>
