<?xml version="1.0" encoding="UTF-8" standalone="no"?>
<svg
   width="128"
   height="128"
   version="1.1"
   id="svg6078"
   sodipodi:docname="text-x-python.svg"
   inkscape:version="1.2.2 (1:1.2.2+202305151914+b0a8486541)"
   xmlns:inkscape="http://www.inkscape.org/namespaces/inkscape"
   xmlns:sodipodi="http://sodipodi.sourceforge.net/DTD/sodipodi-0.dtd"
   xmlns="http://www.w3.org/2000/svg"
   xmlns:svg="http://www.w3.org/2000/svg">
  <defs
     id="defs6082" />
  <sodipodi:namedview
     id="namedview6080"
     pagecolor="#ffffff"
     bordercolor="#000000"
     borderopacity="0.25"
     inkscape:showpageshadow="2"
     inkscape:pageopacity="0.0"
     inkscape:pagecheckerboard="0"
     inkscape:deskcolor="#d1d1d1"
     showgrid="false"
     inkscape:zoom="6.296875"
     inkscape:cx="63.920596"
     inkscape:cy="64"
     inkscape:window-width="1920"
     inkscape:window-height="1008"
     inkscape:window-x="0"
     inkscape:window-y="0"
     inkscape:window-maximized="1"
     inkscape:current-layer="svg6078" />
  <path
     style="opacity:0.2;stroke-width:2"
     d="M 25.5,9 C 22.453,9 20,11.4976 20,14.6 v 100.8 c 0,3.10016 2.453,5.6 5.5,5.6 h 77 c 3.0448,0 5.5,-2.49984 5.5,-5.6 V 45 L 80,37 72,9 Z"
     id="path6064" />
  <path
     style="fill:#e4e4e4;stroke-width:2"
     d="M 25.5,8 C 22.453,8 20,10.4976 20,13.6 v 100.8 c 0,3.10016 2.453,5.6 5.5,5.6 h 77 c 3.0448,0 5.5,-2.49984 5.5,-5.6 V 44 L 80,36 72,8 Z"
     id="path6066" />
  <path
     style="opacity:0.2;stroke-width:2"
     d="M 108,45 72,9 V 39.375 C 72,42.4935 74.511,45 77.625,45 Z"
     id="path6068" />
  <path
     style="fill:#fafafa;stroke-width:2"
     d="M 108,44 72,8 V 38.375 C 72,41.4935 74.511,44 77.625,44 Z"
     id="path6070" />
  <path
     style="opacity:0.2;fill:#ffffff;stroke-width:2"
     d="M 25.5,8 C 22.453,8 20,10.499162 20,13.601562 v 2 C 20,12.499162 22.453,10 25.5,10 H 72 V 8 Z"
     id="path6072" />
  <path
     style="fill:#ffa923;stroke-width:2"
     d="m 78,68 v 7 c 0,3.878 -3.122,7 -7,7 H 57 c 0,0 -7,0 -7,7 v 12.25 c 0,4.8468 5.4628,8.75 12.25,8.75 h 3.5 C 72.5372,110 78,106.0968 78,101.25 V 96 h 5.25 C 88.0968,96 92,90.5372 92,83.75 v -3.5 C 92,73.4628 88.0968,68 83.25,68 Z m -5,30 a 3,3 0 0 1 3,3 3,3 0 0 1 -3,3 3,3 0 0 1 -3,-3 3,3 0 0 1 3,-3 z"
     id="path6074" />
  <path
     style="fill:#3084e0;stroke-width:2"
     d="M 62.25,54 C 55.4628,54 50,57.9032 50,62.75 V 68 H 44.75 C 39.9032,68 36,73.4628 36,80.25 v 3.5 C 36,90.5372 39.9032,96 44.75,96 H 50 v -7 c 0,-3.878 3.122,-7 7,-7 h 14 c 0,0 7,0 7,-7 V 62.75 C 78,57.9032 72.5372,54 65.75,54 Z M 55,60 a 3,3 0 0 1 3,3 3,3 0 0 1 -3,3 3,3 0 0 1 -3,-3 3,3 0 0 1 3,-3 z"
     id="path6076" />
</svg>
