<?xml version="1.0" encoding="UTF-8" standalone="no"?>
<svg
   width="128"
   height="128"
   version="1.1"
   id="svg5462"
   sodipodi:docname="text-x-vala.svg"
   inkscape:version="1.2.2 (1:1.2.2+202305151914+b0a8486541)"
   xmlns:inkscape="http://www.inkscape.org/namespaces/inkscape"
   xmlns:sodipodi="http://sodipodi.sourceforge.net/DTD/sodipodi-0.dtd"
   xmlns="http://www.w3.org/2000/svg"
   xmlns:svg="http://www.w3.org/2000/svg">
  <defs
     id="defs5466" />
  <sodipodi:namedview
     id="namedview5464"
     pagecolor="#ffffff"
     bordercolor="#000000"
     borderopacity="0.25"
     inkscape:showpageshadow="2"
     inkscape:pageopacity="0.0"
     inkscape:pagecheckerboard="0"
     inkscape:deskcolor="#d1d1d1"
     showgrid="false"
     inkscape:zoom="6.296875"
     inkscape:cx="63.920596"
     inkscape:cy="64"
     inkscape:window-width="1920"
     inkscape:window-height="1008"
     inkscape:window-x="0"
     inkscape:window-y="0"
     inkscape:window-maximized="1"
     inkscape:current-layer="svg5462" />
  <path
     style="opacity:0.2;stroke-width:2"
     d="M 25.5,8.9999999 C 22.453,8.9999999 20,11.4976 20,14.6 v 100.8 c 0,3.10016 2.453,5.6 5.5,5.6 h 77 c 3.0448,0 5.5,-2.49984 5.5,-5.6 V 45 L 80,37 72,8.9999999 Z"
     id="path5450" />
  <path
     style="fill:#e4e4e4;stroke-width:2"
     d="M 25.5,8.0000001 C 22.453,8.0000001 20,10.4976 20,13.6 v 100.8 c 0,3.10016 2.453,5.6 5.5,5.6 h 77 c 3.0448,0 5.5,-2.49984 5.5,-5.6 V 44 L 80,36 72,8.0000001 Z"
     id="path5452" />
  <path
     d="m 55.996204,108.99835 -0.0016,-50.37683 c -3.472608,1.311596 -4.947212,2.577764 -6.891604,5.376372 -1.937808,2.78914 -2.194772,7.842328 -2.194772,11.996628 0,0.947204 0.04844,1.724832 0.1454,2.332888 0.11984,0.582808 0.24016,1.056408 0.36108,1.420804 0.12092,0.34024 0.22984,0.607508 0.32676,0.801772 0.11984,0.19428 0.17972,0.3644 0.17972,0.510372 -1.277716,0 -2.410564,-0.12128 -3.39854,-0.36384 -0.989012,-0.2678 -1.82122,-0.68104 -2.496572,-1.239712 C 41.374668,78.899236 40.868156,78.158376 40.506512,77.23422 40.168832,76.312268 40,75.170792 40,73.809804 c 0,-1.651844 0.459268,-4.634372 1.04734,-6.281508 2.544812,-7.127812 11.200172,-11.7176 17.900264,-13.737196 2.067508,-0.623204 4.183908,-0.7672 6.257892,-0.7672 0.780428,-0.09884 1.924784,0.14056 1.9843,0.14488 V 99.08562 L 84.408892,53.38608 h 5.171352 L 69.002724,109 H 55.994576 Z"
     style="opacity:0.2;fill:#000000;fill-opacity:1;stroke-width:4"
     id="path2548" />
  <path
     d="m 55.996204,107.99836 -0.0016,-50.376836 C 52.521996,58.93312 51.047392,60.199288 49.103,62.9979 c -1.937808,2.789136 -2.194772,7.842324 -2.194772,11.996624 0,0.947204 0.04844,1.724836 0.1454,2.332888 0.11984,0.582808 0.24016,1.056408 0.36108,1.420804 0.12092,0.34024 0.22984,0.607508 0.32676,0.801772 0.11984,0.19428 0.17972,0.3644 0.17972,0.510372 -1.277716,0 -2.410564,-0.12128 -3.39854,-0.36384 -0.98904,-0.2678 -1.821248,-0.68104 -2.4966,-1.239708 C 41.374668,77.899244 40.868156,77.15838 40.506512,76.234228 40.168832,75.312272 40,74.170796 40,72.809808 c 0,-1.651844 0.459268,-4.634372 1.04734,-6.281508 2.544812,-7.127812 11.200172,-11.717604 17.900264,-13.7372 2.067508,-0.623204 4.183908,-0.7672 6.257892,-0.7672 0.780428,-0.09884 1.924784,0.14056 1.9843,0.14488 V 98.085628 L 84.408892,52.386084 h 5.171352 L 69.002724,108.00001 H 55.994576 Z"
     style="fill:#634d9f;fill-opacity:1;stroke-width:4"
     id="path1669"
     sodipodi:nodetypes="ccsscccccccssscccccccc" />
  <path
     style="opacity:0.2;stroke-width:2"
     d="M 108,45 72,8.9999999 V 39.375 C 72,42.4935 74.511,45 77.625,45 Z"
     id="path5454" />
  <path
     style="fill:#fafafa;stroke-width:2"
     d="M 108,44 72,8.0000001 V 38.375 C 72,41.4935 74.511,44 77.625,44 Z"
     id="path5456" />
  <path
     style="opacity:0.2;fill:#ffffff;stroke-width:2"
     d="m 25.5,8.0000001 c -3.047,0 -5.5,2.4991619 -5.5,5.6015619 v 2 c 0,-3.1024 2.453,-5.6015621 5.5,-5.6015621 H 72 V 8.0000001 Z"
     id="path5458" />
</svg>
