<?xml version="1.0" encoding="UTF-8" standalone="no"?>
<svg
   width="128"
   height="128"
   version="1.1"
   id="svg5719"
   sodipodi:docname="text-x-generic-rtl.svg"
   inkscape:version="1.2.2 (1:1.2.2+202305151914+b0a8486541)"
   xmlns:inkscape="http://www.inkscape.org/namespaces/inkscape"
   xmlns:sodipodi="http://sodipodi.sourceforge.net/DTD/sodipodi-0.dtd"
   xmlns="http://www.w3.org/2000/svg"
   xmlns:svg="http://www.w3.org/2000/svg">
  <defs
     id="defs5723" />
  <sodipodi:namedview
     id="namedview5721"
     pagecolor="#ffffff"
     bordercolor="#000000"
     borderopacity="0.25"
     inkscape:showpageshadow="2"
     inkscape:pageopacity="0.0"
     inkscape:pagecheckerboard="0"
     inkscape:deskcolor="#d1d1d1"
     showgrid="false"
     inkscape:zoom="6.296875"
     inkscape:cx="63.920596"
     inkscape:cy="64"
     inkscape:window-width="1920"
     inkscape:window-height="1008"
     inkscape:window-x="0"
     inkscape:window-y="0"
     inkscape:window-maximized="1"
     inkscape:current-layer="svg5719" />
  <path
     style="opacity:0.2;stroke-width:2"
     d="M 25.5,9 C 22.453,9 20,11.4976 20,14.6 v 100.8 c 0,3.10016 2.453,5.6 5.5,5.6 h 77 c 3.0448,0 5.5,-2.49984 5.5,-5.6 V 45 L 80,37 72,9 Z"
     id="path5707" />
  <path
     style="fill:#e4e4e4;stroke-width:2"
     d="M 25.5,8 C 22.453,8 20,10.4976 20,13.6 v 100.8 c 0,3.10016 2.453,5.6 5.5,5.6 h 77 c 3.0448,0 5.5,-2.49984 5.5,-5.6 V 44 L 80,36 72,8 Z"
     id="path5709" />
  <path
     style="opacity:0.2;stroke-width:2"
     d="M 108,45 72,9 V 39.375 C 72,42.4935 74.511,45 77.625,45 Z"
     id="path5711" />
  <path
     style="fill:#fafafa;stroke-width:2"
     d="M 108,44 72,8 V 38.375 C 72,41.4935 74.511,44 77.625,44 Z"
     id="path5713" />
  <path
     style="opacity:0.2;fill:#ffffff;stroke-width:2"
     d="M 25.5,8 C 22.453,8 20,10.499162 20,13.601562 v 2 C 20,12.499162 22.453,10 25.5,10 H 72 V 8 Z"
     id="path5715" />
  <path
     style="opacity:0.5;stroke-width:2"
     d="m 88,62 v 6 H 40 v -6 z m 0,12 v 6 H 40 v -6 z m 0,12 v 6 H 40 v -6 z m 0,12 v 6 H 58 v -6 z"
     id="path5717" />
</svg>
