<?xml version="1.0" encoding="UTF-8" standalone="no"?>
<svg
   width="128"
   height="128"
   version="1.1"
   id="svg5462"
   sodipodi:docname="text-markdown.svg"
   inkscape:version="1.2.2 (1:1.2.2+202305151914+b0a8486541)"
   xmlns:inkscape="http://www.inkscape.org/namespaces/inkscape"
   xmlns:sodipodi="http://sodipodi.sourceforge.net/DTD/sodipodi-0.dtd"
   xmlns="http://www.w3.org/2000/svg"
   xmlns:svg="http://www.w3.org/2000/svg">
  <defs
     id="defs5466" />
  <sodipodi:namedview
     id="namedview5464"
     pagecolor="#ffffff"
     bordercolor="#000000"
     borderopacity="0.25"
     inkscape:showpageshadow="2"
     inkscape:pageopacity="0.0"
     inkscape:pagecheckerboard="0"
     inkscape:deskcolor="#d1d1d1"
     showgrid="false"
     inkscape:zoom="6.296875"
     inkscape:cx="64"
     inkscape:cy="64"
     inkscape:window-width="1920"
     inkscape:window-height="1008"
     inkscape:window-x="0"
     inkscape:window-y="0"
     inkscape:window-maximized="1"
     inkscape:current-layer="svg5462" />
  <path
     style="opacity:0.2;stroke-width:2"
     d="M 25.5,9 C 22.453,9 20,11.4976 20,14.6 v 100.8 c 0,3.10016 2.453,5.6 5.5,5.6 h 77 c 3.0448,0 5.5,-2.49984 5.5,-5.6 V 45 L 80,37 72,9 Z"
     id="path5450" />
  <path
     style="fill:#e4e4e4;stroke-width:2"
     d="M 25.5,8 C 22.453,8 20,10.4976 20,13.6 v 100.8 c 0,3.10016 2.453,5.6 5.5,5.6 h 77 c 3.0448,0 5.5,-2.49984 5.5,-5.6 V 44 L 80,36 72,8 Z"
     id="path5452" />
  <path
     d="m 74,72 v 12 h -5 l 7,8 h 2 l 7,-8 H 80 V 72 Z M 44,92 h 6 V 80.600858 l 5,5.714284 5,-5.714284 V 92 h 6 V 72 H 60 L 55,77.714286 50,72 H 44 M 36.089844,62 C 33.87071,62 32,63.898918 32,66.152344 V 97.847656 C 32,100.10108 33.87071,102 36.089844,102 H 91.910156 C 94.12929,102 96,100.10108 96,97.847656 V 66.152344 C 96,63.898918 94.12929,62 91.910156,62 Z M 38,68 H 90 V 96 H 38 Z"
     style="fill:#6d7479;fill-opacity:1;stroke-width:2"
     id="path4357"
     sodipodi:nodetypes="cccccccccccccccccccccsssssssssccccc" />
  <path
     style="opacity:0.2;stroke-width:2"
     d="M 108,45 72,9 V 39.375 C 72,42.4935 74.511,45 77.625,45 Z"
     id="path5454" />
  <path
     style="fill:#fafafa;stroke-width:2"
     d="M 108,44 72,8 V 38.375 C 72,41.4935 74.511,44 77.625,44 Z"
     id="path5456" />
  <path
     id="path5458"
     style="opacity:0.2;fill:#ffffff;stroke-width:2"
     d="M 25.5,8 C 22.453004,8 20,10.499166 20,13.601562 v 1 C 20,11.499165 22.453004,9 25.5,9 H 72 V 8 Z" />
</svg>
