<?xml version="1.0" encoding="UTF-8" standalone="no"?>
<svg
   width="128"
   height="128"
   version="1"
   id="svg6695"
   sodipodi:docname="video-x-generic.svg"
   inkscape:version="1.2.2 (1:1.2.2+202305151914+b0a8486541)"
   xmlns:inkscape="http://www.inkscape.org/namespaces/inkscape"
   xmlns:sodipodi="http://sodipodi.sourceforge.net/DTD/sodipodi-0.dtd"
   xmlns="http://www.w3.org/2000/svg"
   xmlns:svg="http://www.w3.org/2000/svg">
  <defs
     id="defs6699" />
  <sodipodi:namedview
     id="namedview6697"
     pagecolor="#ffffff"
     bordercolor="#000000"
     borderopacity="0.25"
     inkscape:showpageshadow="2"
     inkscape:pageopacity="0.0"
     inkscape:pagecheckerboard="0"
     inkscape:deskcolor="#d1d1d1"
     showgrid="false"
     inkscape:zoom="6.296875"
     inkscape:cx="63.920596"
     inkscape:cy="64"
     inkscape:window-width="1920"
     inkscape:window-height="1008"
     inkscape:window-x="0"
     inkscape:window-y="0"
     inkscape:window-maximized="1"
     inkscape:current-layer="svg6695"
     showguides="false" />
  <rect
     style="opacity:0.2;fill:#000000;stroke-width:4"
     id="rect6970"
     width="104"
     height="96"
     x="12.000002"
     y="17"
     ry="8" />
  <rect
     style="fill:#5c5c5c;fill-opacity:1;stroke-width:7.99988"
     id="rect342"
     width="104"
     height="96"
     x="12.000002"
     y="16"
     ry="8" />
  <path
     d="m 39,35 c -1.662,0 -3,1.338 -3,3 v 53.999999 c 0,1.662 1.338,3 3,3 h 49.999999 c 1.662,0 3,-1.338 3,-3 V 38 c 0,-1.662 -1.338,-3 -3,-3 z m 0.999999,4 h 4 v 4 h -4 z m 10,0 h 28 c 1.108004,0 2,0.892 2,2 v 19.999999 c 0,1.108 -0.891996,2 -2,2 h -28 c -1.108,0 -2,-0.892 -2,-2 V 41 c 0,-1.108 0.892,-2 2,-2 z m 34,0 h 4 v 4 h -4 z m -44,7.999999 h 4 v 4 h -4 z m 44,0 h 4 v 4 h -4 z m -44,8 h 4 v 4 h -4 z m 44,0 h 4 v 4 h -4 z m -44,8 h 4 v 4 h -4 z m 44,0 h 4 v 4 h -4 z m -34,4 h 28 c 1.108004,0 2,0.892 2,2 v 20 c 0,1.108 -0.891996,2 -2,2 h -28 c -1.108,0 -2,-0.892 -2,-2 v -20 c 0,-1.108 0.892,-2 2,-2 z m -10,4 h 4 v 4 h -4 z m 44,0 h 4 v 4 h -4 z m -44,8 h 4 v 4 h -4 z m 44,0 h 4 v 4 h -4 z m -44,8 h 4 v 4 h -4 z m 44,0 h 4 v 4 h -4 z"
     style="opacity:0.2;fill:#000000;fill-opacity:1;stroke:none;stroke-width:8;stroke-miterlimit:4;stroke-dasharray:none;stroke-opacity:1"
     id="path2852" />
  <path
     d="m 39,34 c -1.662,0 -3,1.338 -3,3 v 53.999999 c 0,1.662 1.338,3 3,3 h 49.999999 c 1.662,0 3,-1.338 3,-3 V 37 c 0,-1.662 -1.338,-3 -3,-3 z m 0.999999,4 h 4 v 4 h -4 z m 10,0 h 28 c 1.108004,0 2,0.892 2,2 v 19.999999 c 0,1.108 -0.891996,2 -2,2 h -28 c -1.108,0 -2,-0.892 -2,-2 V 40 c 0,-1.108 0.892,-2 2,-2 z m 34,0 h 4 v 4 h -4 z m -44,7.999999 h 4 v 4 h -4 z m 44,0 h 4 v 4 h -4 z m -44,8 h 4 v 4 h -4 z m 44,0 h 4 v 4 h -4 z m -44,8 h 4 v 4 h -4 z m 44,0 h 4 v 4 h -4 z m -34,4 h 28 c 1.108004,0 2,0.892 2,2 v 20 c 0,1.108 -0.891996,2 -2,2 h -28 c -1.108,0 -2,-0.892 -2,-2 v -20 c 0,-1.108 0.892,-2 2,-2 z m -10,4 h 4 v 4 h -4 z m 44,0 h 4 v 4 h -4 z m -44,8 h 4 v 4 h -4 z m 44,0 h 4 v 4 h -4 z m -44,8 h 4 v 4 h -4 z m 44,0 h 4 v 4 h -4 z"
     style="fill:#ffffff;fill-opacity:1;stroke:none;stroke-width:8;stroke-miterlimit:4;stroke-dasharray:none;stroke-opacity:1"
     id="path2650"
     sodipodi:nodetypes="ssssssssscccccssssssssscccccccccccccccccccccccccccccccccccssssssssscccccccccccccccccccccccccccccc" />
  <path
     id="rect6880"
     style="opacity:0.2;fill:#ffffff;stroke-width:4"
     d="m 20,16 c -4.431992,0 -8,3.568008 -8,8 v 1 c 0,-4.431992 3.56801,-8 8,-8 h 88 c 4.43199,0 8,3.568008 8,8 v -1 c 0,-4.431992 -3.56801,-8 -8,-8 z" />
</svg>
