<?xml version="1.0" encoding="UTF-8" standalone="no"?>
<!-- Created with Inkscape (http://www.inkscape.org/) -->

<svg
   width="16"
   height="16"
   viewBox="0 0 16 16"
   version="1.1"
   id="svg5"
   inkscape:version="1.2.2 (1:1.2.2+202305151914+b0a8486541)"
   sodipodi:docname="audio-status-volume-muted-symbolic.svg"
   xmlns:inkscape="http://www.inkscape.org/namespaces/inkscape"
   xmlns:sodipodi="http://sodipodi.sourceforge.net/DTD/sodipodi-0.dtd"
   xmlns="http://www.w3.org/2000/svg"
   xmlns:svg="http://www.w3.org/2000/svg">
  <sodipodi:namedview
     id="namedview7"
     pagecolor="#ffffff"
     bordercolor="#000000"
     borderopacity="0.25"
     inkscape:showpageshadow="2"
     inkscape:pageopacity="0.0"
     inkscape:pagecheckerboard="0"
     inkscape:deskcolor="#d1d1d1"
     inkscape:document-units="px"
     showgrid="false"
     inkscape:zoom="50.375"
     inkscape:cx="8.0099256"
     inkscape:cy="8"
     inkscape:window-width="1920"
     inkscape:window-height="1008"
     inkscape:window-x="0"
     inkscape:window-y="0"
     inkscape:window-maximized="1"
     inkscape:current-layer="svg5" />
  <defs
     id="defs2" />
  <path
     id="path1321"
     style="fill:#bebebe;fill-opacity:1;stroke-width:5;stroke-linecap:round;stroke-linejoin:round;opacity:0.35"
     d="M 2.34375 0.9296875 L 0.9296875 2.34375 L 3.5859375 5 L 1 5 L 1 11 L 4 11 L 8 15 L 8 9.4140625 L 11.410156 12.824219 C 10.977359 13.110719 10.503811 13.339302 10 13.5 L 10 15 C 10.896198 14.778084 11.727993 14.391594 12.458984 13.873047 L 13.65625 15.070312 L 15.070312 13.65625 L 13.916016 12.501953 C 14.906642 11.271448 15.5 9.7089931 15.5 8 C 15.5 4.6000068 13.149995 1.7799984 10 1 L 10 2.5 C 12.319997 3.2399986 14 5.4300052 14 8 C 14 9.2900591 13.576416 10.484041 12.861328 11.447266 L 11.25 9.8359375 C 11.590423 9.3067764 11.789063 8.6783114 11.789062 8 C 11.789062 6.7000026 11.069999 5.5799988 10 5 L 10 8.5859375 L 8 6.5859375 L 8 1 L 5.2070312 3.7929688 L 2.34375 0.9296875 z M 5.2070312 6.6210938 L 6 7.4140625 L 6 10.169922 L 4.8300781 9 L 3 9 L 3 7 L 4.8300781 7 L 5.2070312 6.6210938 z " />
</svg>
