<?xml version="1.0" encoding="UTF-8" standalone="no"?>
<svg
   width="16"
   height="16"
   version="1.1"
   id="svg10"
   sodipodi:docname="audio-status-microphone-muted-symbolic.svg"
   inkscape:version="1.2.2 (1:1.2.2+202305151914+b0a8486541)"
   xmlns:inkscape="http://www.inkscape.org/namespaces/inkscape"
   xmlns:sodipodi="http://sodipodi.sourceforge.net/DTD/sodipodi-0.dtd"
   xmlns="http://www.w3.org/2000/svg"
   xmlns:svg="http://www.w3.org/2000/svg">
  <defs
     id="defs14" />
  <sodipodi:namedview
     id="namedview12"
     pagecolor="#ffffff"
     bordercolor="#000000"
     borderopacity="0.25"
     inkscape:showpageshadow="2"
     inkscape:pageopacity="0.0"
     inkscape:pagecheckerboard="0"
     inkscape:deskcolor="#d1d1d1"
     showgrid="false"
     inkscape:zoom="50.375"
     inkscape:cx="7.9900744"
     inkscape:cy="8"
     inkscape:window-width="1920"
     inkscape:window-height="1008"
     inkscape:window-x="0"
     inkscape:window-y="0"
     inkscape:window-maximized="1"
     inkscape:current-layer="svg10" />
  <path
     id="path302"
     style="fill:#dedede;fill-opacity:1"
     d="M 6 0 C 5.2173986 0 4.5080816 0.30027964 3.9746094 0.7890625 L 5.3945312 2.2089844 C 5.5628597 2.0801445 5.7707047 2 6 2 C 6.5539982 2 7 2.4460018 7 3 L 7 3.8144531 L 9 5.8144531 L 9 3 C 9 1.3400051 7.6599949 0 6 0 z M 1.53125 0.47070312 L 0.47070312 1.53125 L 3 4.0605469 L 3 8 C 3 9.6599952 4.3400051 11 6 11 C 7.0712721 11 8.0067291 10.439911 8.5371094 9.5976562 L 9.2617188 10.322266 C 8.5423921 11.340591 7.3585475 12 6 12 C 3.7700066 12 2 10.229994 2 8 L 0 8 C 0 10.969991 2.1600084 13.430159 5 13.910156 L 5 16 L 7 16 L 7 13.910156 C 8.4842957 13.659289 9.7790704 12.863722 10.679688 11.740234 L 14.470703 15.53125 L 15.53125 14.46875 L 1.53125 0.47070312 z M 5 6.0605469 L 6.9960938 8.0566406 C 6.9664642 8.5836487 6.5346757 9 6 9 C 5.4460018 9 5 8.5539982 5 8 L 5 6.0605469 z M 11.1875 8 L 11.949219 8.7636719 C 11.98108 8.5134374 12 8.2589604 12 8 L 11.1875 8 z " />
  <circle
     style="fill:#dedede;opacity:0.35;fill-opacity:1"
     id="path424"
     cx="14"
     cy="4"
     r="1" />
  <circle
     style="opacity:0.35;fill:#dedede;fill-opacity:1"
     id="path426"
     cx="14"
     cy="8"
     r="1" />
</svg>
