<?xml version="1.0" encoding="UTF-8" standalone="no"?>
<svg
   width="16"
   height="16"
   version="1.1"
   id="svg10"
   sodipodi:docname="audio-status-microphone-low-symbolic.svg"
   inkscape:version="1.2.2 (1:1.2.2+202305151914+b0a8486541)"
   xmlns:inkscape="http://www.inkscape.org/namespaces/inkscape"
   xmlns:sodipodi="http://sodipodi.sourceforge.net/DTD/sodipodi-0.dtd"
   xmlns="http://www.w3.org/2000/svg"
   xmlns:svg="http://www.w3.org/2000/svg">
  <defs
     id="defs14" />
  <sodipodi:namedview
     id="namedview12"
     pagecolor="#ffffff"
     bordercolor="#000000"
     borderopacity="0.25"
     inkscape:showpageshadow="2"
     inkscape:pageopacity="0.0"
     inkscape:pagecheckerboard="0"
     inkscape:deskcolor="#d1d1d1"
     showgrid="false"
     inkscape:zoom="50.375"
     inkscape:cx="7.9900744"
     inkscape:cy="8"
     inkscape:window-width="1920"
     inkscape:window-height="1008"
     inkscape:window-x="0"
     inkscape:window-y="0"
     inkscape:window-maximized="1"
     inkscape:current-layer="svg10" />
  <path
     d="M 6,0 C 4.34,0 3,1.34 3,3 v 5 c 0,1.6600003 1.34,3 3,3 1.66,0 3,-1.3399997 3,-3 V 3 C 9,1.34 7.66,0 6,0 Z M 6,2 C 6.554,2 7,2.446 7,3 V 8 C 7,8.554 6.554,9.0000003 6,9.0000003 5.446,9.0000003 5,8.554 5,8 V 3 C 5,2.446 5.446,2 6,2 Z M 0,8 c 0,2.97 2.16,5.4302 5,5.9102 V 16 H 7 V 13.9102 C 9.84,13.4302 12,10.97 12,8 H 10 C 10,10.23 8.23,12 6,12 3.77,12 2,10.23 2,8 Z"
     style="fill:#dedede;fill-opacity:1"
     id="path302" />
  <circle
     style="fill:#dedede;opacity:0.35;fill-opacity:1"
     id="path424"
     cx="14"
     cy="4"
     r="1" />
  <circle
     style="opacity:0.35;fill:#dedede;fill-opacity:1"
     id="path426"
     cx="14"
     cy="8"
     r="1" />
  <circle
     style="opacity:1;fill:#dedede;fill-opacity:1"
     id="path428"
     cx="14"
     cy="12"
     r="1" />
</svg>
