<?xml version="1.0" encoding="UTF-8" standalone="no"?>
<!-- Created with Inkscape (http://www.inkscape.org/) -->

<svg
   width="16"
   height="16"
   viewBox="0 0 16 16"
   version="1.1"
   id="svg5"
   inkscape:version="1.2.2 (1:1.2.2+202305151914+b0a8486541)"
   sodipodi:docname="audio-status-volume-medium-symbolic.svg"
   xmlns:inkscape="http://www.inkscape.org/namespaces/inkscape"
   xmlns:sodipodi="http://sodipodi.sourceforge.net/DTD/sodipodi-0.dtd"
   xmlns="http://www.w3.org/2000/svg"
   xmlns:svg="http://www.w3.org/2000/svg">
  <sodipodi:namedview
     id="namedview7"
     pagecolor="#ffffff"
     bordercolor="#000000"
     borderopacity="0.25"
     inkscape:showpageshadow="2"
     inkscape:pageopacity="0.0"
     inkscape:pagecheckerboard="0"
     inkscape:deskcolor="#d1d1d1"
     inkscape:document-units="px"
     showgrid="false"
     inkscape:zoom="50.375"
     inkscape:cx="8.0297767"
     inkscape:cy="8"
     inkscape:window-width="1920"
     inkscape:window-height="1008"
     inkscape:window-x="0"
     inkscape:window-y="0"
     inkscape:window-maximized="1"
     inkscape:current-layer="svg5" />
  <defs
     id="defs2" />
  <path
     d="M 8,1 4,5 H 1 v 6.000001 H 4 L 8,15 Z M 5.99997,5.82812 v 4.34181 L 4.83005,9.0000001 3,9.0000006 V 7 h 1.83005 z"
     style="fill:#bebebe;fill-opacity:1;stroke-width:5;stroke-linecap:round;stroke-linejoin:round"
     id="path1321"
     sodipodi:nodetypes="cccccccccccccc" />
  <path
     d="m 10,1 v 1.5 c 2.319999,0.7399993 4.000001,2.9300026 4.000001,5.5 0,2.569997 -1.680002,4.760001 -4.000001,5.5 V 15 c 3.149998,-0.779999 5.500001,-3.600003 5.500001,-7 0,-3.3999966 -2.350003,-6.2200008 -5.500001,-7 z"
     style="fill:#bebebe;fill-opacity:1;stroke-width:5;stroke-linecap:round;stroke-linejoin:round;opacity:0.35"
     id="path1293"
     sodipodi:nodetypes="ccsccsc" />
  <path
     d="M 10,4.9999999 V 11 C 11.06,10.420001 11.789064,9.2999988 11.789063,8 11.789063,6.7000012 11.07,5.5799993 10,4.9999999 Z"
     style="fill:#bebebe;fill-opacity:1;stroke-width:5;stroke-linecap:round;stroke-linejoin:round"
     id="path1391" />
</svg>
