<?xml version="1.0" encoding="UTF-8" standalone="no"?>
<svg
   width="16"
   height="16"
   version="1.1"
   id="svg4"
   sodipodi:docname="battery-level-0-symbolic.svg"
   inkscape:version="1.2.2 (1:1.2.2+202305151914+b0a8486541)"
   xmlns:inkscape="http://www.inkscape.org/namespaces/inkscape"
   xmlns:sodipodi="http://sodipodi.sourceforge.net/DTD/sodipodi-0.dtd"
   xmlns="http://www.w3.org/2000/svg"
   xmlns:svg="http://www.w3.org/2000/svg">
  <defs
     id="defs8" />
  <sodipodi:namedview
     id="namedview6"
     pagecolor="#ffffff"
     bordercolor="#000000"
     borderopacity="0.25"
     inkscape:showpageshadow="2"
     inkscape:pageopacity="0.0"
     inkscape:pagecheckerboard="0"
     inkscape:deskcolor="#d1d1d1"
     showgrid="false"
     inkscape:zoom="50.375"
     inkscape:cx="8"
     inkscape:cy="8"
     inkscape:window-width="1920"
     inkscape:window-height="1008"
     inkscape:window-x="0"
     inkscape:window-y="0"
     inkscape:window-maximized="1"
     inkscape:current-layer="svg4" />
  <path
     id="path296"
     style="fill:#bebebe;fill-opacity:1"
     d="M 6,0 V 1 H 4 C 3.4460012,1 3,1.4460012 3,2 v 12 c 0,0.553998 0.4460012,1 1,1 H 7 V 13 H 5 V 3 h 6 v 4 h 2 V 2 C 13,1.4460012 12.553998,1 12,1 H 10 V 0 Z"
     sodipodi:nodetypes="ccsssscccccccssccc" />
  <path
     d="M 9,8 C 8.4460006,8 8,8.446001 8,9 v 5 c 0,0.553999 0.4460006,1 1,1 h 4.999999 c 0.553999,0 1,-0.446001 1,-1 V 9 c 0,-0.553999 -0.446001,-1 -1,-1 z m 1.999999,1 h 1 v 3 h -1 z m 0,4 h 1 v 1 h -1 z"
     style="fill:#e01b24;fill-opacity:1"
     id="path2654" />
</svg>
