<?xml version="1.0" encoding="UTF-8" standalone="no"?>
<svg
   width="32"
   height="32"
   version="1"
   id="svg778"
   sodipodi:docname="application-vnd.debian.binary-package.svg"
   inkscape:version="1.2.2 (1:1.2.2+202305151914+b0a8486541)"
   xmlns:inkscape="http://www.inkscape.org/namespaces/inkscape"
   xmlns:sodipodi="http://sodipodi.sourceforge.net/DTD/sodipodi-0.dtd"
   xmlns="http://www.w3.org/2000/svg"
   xmlns:svg="http://www.w3.org/2000/svg">
  <defs
     id="defs782" />
  <sodipodi:namedview
     id="namedview780"
     pagecolor="#ffffff"
     bordercolor="#000000"
     borderopacity="0.25"
     inkscape:showpageshadow="2"
     inkscape:pageopacity="0.0"
     inkscape:pagecheckerboard="0"
     inkscape:deskcolor="#d1d1d1"
     showgrid="false"
     inkscape:zoom="25.1875"
     inkscape:cx="15.980149"
     inkscape:cy="16"
     inkscape:window-width="1920"
     inkscape:window-height="1008"
     inkscape:window-x="0"
     inkscape:window-y="0"
     inkscape:window-maximized="1"
     inkscape:current-layer="svg778" />
  <rect
     style="opacity:0.2"
     width="28"
     height="28"
     x="2"
     y="3"
     ry="3"
     id="rect750" />
  <rect
     style="fill:#dfdfdf;fill-opacity:1;stroke-width:1.74999"
     id="rect944"
     width="28"
     height="28"
     x="1.9999998"
     y="2"
     ry="3" />
  <circle
     style="fill:#86be43;fill-opacity:1;stroke-width:1"
     id="path3421"
     cx="16"
     cy="15.999999"
     r="10" />
  <path
     d="m 11.375,11 h 1.25 C 12.83808,11 13,11.165152 13,11.375 v 1.25 C 13,12.834848 12.83808,13 12.625,13 h -1.25 C 11.16192,13 11,12.834848 11,12.625 v -1.25 C 11,11.165152 11.16192,11 11.375,11 Z m 4,0 h 1.25 C 16.83808,11 17,11.165152 17,11.375 v 1.25 C 17,12.834848 16.83808,13 16.625,13 h -1.25 C 15.16192,13 15,12.834848 15,12.625 v -1.25 C 15,11.165152 15.16192,11 15.375,11 Z m 4,0 h 1.25 C 20.83808,11 21,11.165152 21,11.375 v 1.25 C 21,12.834848 20.83808,13 20.625,13 h -1.25 C 19.16192,13 19,12.834848 19,12.625 v -1.25 C 19,11.165152 19.16192,11 19.375,11 Z m -8,4 h 1.25 C 12.83808,15 13,15.165152 13,15.375 v 1.25 C 13,16.834848 12.83808,17 12.625,17 h -1.25 C 11.16192,17 11,16.834848 11,16.625 v -1.25 C 11,15.165152 11.16192,15 11.375,15 Z m 4,0 h 1.25 C 16.83808,15 17,15.165152 17,15.375 v 1.25 C 17,16.834848 16.83808,17 16.625,17 h -1.25 C 15.16192,17 15,16.834848 15,16.625 v -1.25 C 15,15.165152 15.16192,15 15.375,15 Z m 4,0 h 1.25 C 20.83808,15 21,15.165152 21,15.375 v 1.25 C 21,16.834848 20.83808,17 20.625,17 h -1.25 C 19.16192,17 19,16.834848 19,16.625 v -1.25 C 19,15.165152 19.16192,15 19.375,15 Z m -8,4 h 1.25 C 12.83808,19 13,19.165152 13,19.375 v 1.25 C 13,20.834848 12.83808,21 12.625,21 h -1.25 C 11.16192,21 11,20.834848 11,20.625 v -1.25 C 11,19.165152 11.16192,19 11.375,19 Z m 4,0 h 1.25 C 16.83808,19 17,19.165152 17,19.375 v 1.25 C 17,20.834848 16.83808,21 16.625,21 h -1.25 C 15.16192,21 15,20.834848 15,20.625 v -1.25 C 15,19.165152 15.16192,19 15.375,19 Z m 4,0 h 1.25 C 20.83808,19 21,19.165152 21,19.375 v 1.25 C 21,20.834848 20.83808,21 20.625,21 h -1.25 C 19.16192,21 19,20.834848 19,20.625 v -1.25 C 19,19.165152 19.16192,19 19.375,19 Z"
     style="color:#000000;display:inline;overflow:visible;visibility:visible;fill:#ffffff;fill-opacity:1;fill-rule:nonzero;stroke:none;stroke-width:4;marker:none;enable-background:accumulate"
     id="path4047" />
  <path
     id="rect914"
     style="fill:#ffffff;opacity:0.2"
     d="M 5 2 C 3.3380017 2 2 3.3380017 2 5 L 2 6 C 2 4.3380017 3.3380017 3 5 3 L 27 3 C 28.661998 3 30 4.3380017 30 6 L 30 5 C 30 3.3380017 28.661998 2 27 2 L 5 2 z " />
</svg>
