<?xml version="1.0" encoding="UTF-8" standalone="no"?>
<svg
   width="32"
   height="32"
   version="1.1"
   id="svg602"
   sodipodi:docname="application-x-theme.svg"
   inkscape:version="1.2.2 (1:1.2.2+202305151914+b0a8486541)"
   xmlns:inkscape="http://www.inkscape.org/namespaces/inkscape"
   xmlns:sodipodi="http://sodipodi.sourceforge.net/DTD/sodipodi-0.dtd"
   xmlns="http://www.w3.org/2000/svg"
   xmlns:svg="http://www.w3.org/2000/svg">
  <defs
     id="defs606" />
  <sodipodi:namedview
     id="namedview604"
     pagecolor="#ffffff"
     bordercolor="#000000"
     borderopacity="0.25"
     inkscape:showpageshadow="2"
     inkscape:pageopacity="0.0"
     inkscape:pagecheckerboard="0"
     inkscape:deskcolor="#d1d1d1"
     showgrid="false"
     inkscape:zoom="25.1875"
     inkscape:cx="15.980149"
     inkscape:cy="16"
     inkscape:window-width="1920"
     inkscape:window-height="1008"
     inkscape:window-x="0"
     inkscape:window-y="0"
     inkscape:window-maximized="1"
     inkscape:current-layer="svg602" />
  <path
     style="opacity:0.2"
     d="M 6.375,3 C 5.61325,3 5,3.6244 5,4.4 V 29.6 C 5,30.37504 5.61325,31 6.375,31 h 19.25 C 26.3862,31 27,30.37504 27,29.6 V 12 L 20,10 18,3 Z"
     id="path588" />
  <path
     style="fill:#e4e4e4"
     d="M 6.375,2 C 5.61325,2 5,2.6244 5,3.4 V 28.6 C 5,29.37504 5.61325,30 6.375,30 h 19.25 C 26.3862,30 27,29.37504 27,28.6 V 11 L 20,9 18,2 Z"
     id="path590" />
  <path
     id="ellipse2-3"
     style="fill:#000000;opacity:0.2"
     d="m 15.501305,13 a 3.6643229,4 0 0 0 -3.330078,2.333985 4.0558468,3.6139282 26.165265 0 0 -3.7226556,1.667969 4.0558468,3.6139282 26.165265 0 0 0.390625,4 A 3.6139282,4.0558468 63.834735 0 0 8.4485714,25 3.6139282,4.0558468 63.834735 0 0 12.171227,26.667969 3.664,4 0 0 0 15.501305,29 3.664,4 0 0 0 18.831383,26.664063 C 20.382022,26.867547 21.834519,26.217311 22.552086,25 c 0.739352,-1.257884 0.533056,-2.818948 -0.390625,-4 a 3.6139282,4.0558468 63.834735 0 0 0.390625,-4 3.6139282,4.0558468 63.834735 0 0 -0.529297,-0.664062 3.6141143,4.0555696 63.838713 0 0 -0.117187,-0.121094 3.6139282,4.0558468 63.834735 0 0 -0.21875,-0.167969 3.6141143,4.0555696 63.838713 0 0 -0.189453,-0.142578 3.6139282,4.0558468 63.834735 0 0 -0.216797,-0.121093 3.6141143,4.0555696 63.838713 0 0 -0.253906,-0.136719 3.6139282,4.0558468 63.834735 0 0 -0.230469,-0.08984 3.6141143,4.0555696 63.838713 0 0 -0.259766,-0.09375 3.6139282,4.0558468 63.834735 0 0 -0.296875,-0.06836 3.6141143,4.0555696 63.838713 0 0 -0.232422,-0.04883 3.6139282,4.0558468 63.834735 0 0 -0.298828,-0.02734 3.6141143,4.0555696 63.838713 0 0 -0.203125,-0.01953 3.6141143,4.0555696 63.838713 0 0 -0.05859,0.002 3.6139282,4.0558468 63.834735 0 0 -0.197266,0.0059 3.6141143,4.0555696 63.838713 0 0 -0.326172,0.02148 3.6139282,4.0558468 63.834735 0 0 -0.0957,0.0059 A 3.6643229,4 0 0 0 15.501305,13 Z m 3.412109,13.44336 c -0.01761,0.04929 -0.03527,0.09791 -0.05469,0.146484 a 3.664,4 0 0 0 0.04883,-0.144531 6.5139999,6.4000001 0 0 0 0.0059,-0.002 z" />
  <g
     id="g809">
    <path
       id="ellipse2"
       style="fill:#278df2"
       d="m 22.014627,20 a 6.5139999,6.4000001 0 0 1 -6.514,6.4 6.5139999,6.4000001 0 0 1 -6.514,-6.4 6.5139999,6.4000001 0 0 1 6.514,-6.4 6.5139999,6.4000001 0 0 1 6.514,6.4 z" />
    <path
       id="ellipse8"
       style="fill:#34e0c4;stroke-width:0.999941"
       d="m 20.858313,21.117135 a 3.6139282,4.0558468 63.834735 0 1 -5.358305,-1.117392 3.6139282,4.0558468 63.834735 0 1 1.694173,-5.117667 3.6139282,4.0558468 63.834735 0 1 5.358305,1.117392 3.6139282,4.0558468 63.834735 0 1 -1.694173,5.117667 z" />
    <path
       id="ellipse10"
       style="fill:#ffc107"
       d="m 19.164627,24 a 3.664,4 0 0 1 -3.664,4 3.664,4 0 0 1 -3.664,-4 3.664,4 0 0 1 3.664,-4 3.664,4 0 0 1 3.664,4 z" />
    <path
       id="ellipse14"
       style="fill:#fb8300;stroke-width:0.999941"
       d="m 13.805834,25.117411 a 3.6139282,4.0558468 63.834735 0 1 -5.3583056,-1.117392 3.6139282,4.0558468 63.834735 0 1 1.6941736,-5.117667 3.6139282,4.0558468 63.834735 0 1 5.358306,1.117392 3.6139282,4.0558468 63.834735 0 1 -1.694174,5.117667 z" />
    <path
       id="ellipse18"
       style="fill:#fa3e30;stroke-width:0.999941"
       d="m 10.142043,21.118169 a 4.0558468,3.6139282 26.165265 0 0 5.358306,-1.117391 4.0558468,3.6139282 26.165265 0 0 -1.694173,-5.117667 4.0558468,3.6139282 26.165265 0 0 -5.3583063,1.117391 4.0558468,3.6139282 26.165265 0 0 1.6941733,5.117667 z" />
    <path
       style="fill:#a544c9"
       d="m 15.500162,12 a 3.6643229,4 0 0 0 -3.664323,4 3.6643229,4 0 0 0 3.664323,4 3.6141143,4.0555696 63.838713 0 1 1.693794,-5.117969 3.6141143,4.0555696 63.838713 0 1 1.634155,-0.545313 A 3.6643229,4 0 0 0 15.500162,12 Z m 0,8 A 3.6643229,4 0 0 0 18.983177,17.233593 3.6643229,4 0 0 1 18.490942,18.301562 4.0555696,3.6141143 26.161287 0 0 15.500162,20 Z m 3.483015,-2.766407 a 3.6643229,4 0 0 0 0.08827,-0.353125 3.6643229,4 0 0 1 -0.08827,0.353125 z m -0.112124,-2.790625 a 3.6643229,4 0 0 1 0.122461,0.364844 3.6643229,4 0 0 0 -0.122461,-0.364844 z m 0.128028,0.38125 a 3.6643229,4 0 0 1 0.07475,0.316406 3.6643229,4 0 0 0 -0.07475,-0.316406 z m 0.09542,0.414063 a 3.6643229,4 0 0 1 0.03578,0.255469 3.6643229,4 0 0 0 -0.03578,-0.255469 z m 0.05328,0.414843 A 3.6643229,4 0 0 1 19.164481,16 a 3.6643229,4 0 0 0 -0.0167,-0.346876 z m 0.0087,0.523438 a 3.6643229,4 0 0 1 -0.0159,0.2625 3.6643229,4 0 0 0 0.0159,-0.2625 z m -0.02858,0.354688 a 3.6643229,4 0 0 1 -0.04771,0.310156 3.6643229,4 0 0 0 0.04771,-0.310156 z"
       id="path8" />
    <path
       style="fill:#009688"
       d="m 18.547402,18.297656 c -1.302141,0.03619 -2.442407,0.673203 -3.04724,1.702344 2.023749,0 3.664322,1.79086 3.664322,4 -0.0014,0.574359 -0.116154,1.141646 -0.336373,1.663281 1.55137,0.204283 3.006096,-0.44546 3.723964,-1.663281 1.012085,-1.721894 0.25372,-4.013368 -1.693796,-5.117969 -0.710558,-0.402895 -1.516036,-0.606585 -2.310877,-0.584375 z m 0.280709,7.365625 z M 15.500162,20 Z"
       id="path10" />
    <path
       id="ellipse980"
       style="fill:#03a9f4"
       d="m 19.505232,14.297656 a 3.6141143,4.0555696 63.838713 0 0 -2.311076,0.584766 3.6141143,4.0555696 63.838713 0 0 -1.693795,5.117382 c 0.604868,-1.029003 1.744999,-1.665958 3.047041,-1.702148 0.794841,-0.02221 1.600319,0.18148 2.310877,0.584375 0.523507,0.296925 0.960199,0.680123 1.300565,1.114453 A 3.6141143,4.0555696 63.838713 0 0 22.552273,16 3.6141143,4.0555696 63.838713 0 0 19.505232,14.297656 Z M 15.500361,20 a 3.6141143,4.0555696 63.838713 0 0 2.996148,1.698632 C 17.833293,20.671548 16.738993,20.000072 15.500361,20 Z" />
    <path
       style="fill:#ffc107"
       d="m 15.500361,19.999804 c -6.3156123,6.400131 -3.157806,3.200066 0,0 z m 0,1.96e-4 c 0.642929,1.293551 1.748509,1.853628 2.996148,1.698632 C 17.833293,20.671548 16.738993,20.000072 15.500361,20 Z"
       id="path13" />
  </g>
  <path
     style="opacity:0.2"
     d="M 27,12 18,3 v 7.59375 C 18,11.373375 18.62775,12 19.40625,12 Z"
     id="path592" />
  <path
     style="fill:#fafafa"
     d="M 27,11 18,2 V 9.59375 C 18,10.373375 18.62775,11 19.40625,11 Z"
     id="path594" />
  <path
     style="opacity:0.2;fill:#ffffff"
     d="M 6.375,2 C 5.61325,2 5,2.6247906 5,3.4003906 v 1 C 5,3.6247906 5.61325,3 6.375,3 H 18 V 2 Z"
     id="path596" />
</svg>
