<?xml version="1.0" encoding="UTF-8" standalone="no"?>
<svg
   width="32"
   height="32"
   version="1.1"
   id="svg5278"
   sodipodi:docname="application-x-trash.svg"
   inkscape:version="1.2.2 (1:1.2.2+202305151914+b0a8486541)"
   xmlns:inkscape="http://www.inkscape.org/namespaces/inkscape"
   xmlns:sodipodi="http://sodipodi.sourceforge.net/DTD/sodipodi-0.dtd"
   xmlns="http://www.w3.org/2000/svg"
   xmlns:svg="http://www.w3.org/2000/svg">
  <defs
     id="defs5282" />
  <sodipodi:namedview
     id="namedview5280"
     pagecolor="#ffffff"
     bordercolor="#000000"
     borderopacity="0.25"
     inkscape:showpageshadow="2"
     inkscape:pageopacity="0.0"
     inkscape:pagecheckerboard="0"
     inkscape:deskcolor="#d1d1d1"
     showgrid="false"
     inkscape:zoom="25.1875"
     inkscape:cx="16"
     inkscape:cy="16"
     inkscape:window-width="1920"
     inkscape:window-height="1008"
     inkscape:window-x="0"
     inkscape:window-y="0"
     inkscape:window-maximized="1"
     inkscape:current-layer="svg5278" />
  <path
     style="opacity:0.2"
     d="M 6.375,3 C 5.61325,3 5,3.6244 5,4.4 V 29.6 C 5,30.37504 5.61325,31 6.375,31 h 19.25 C 26.3862,31 27,30.37504 27,29.6 V 12 L 20,10 18,3 Z"
     id="path5266" />
  <path
     style="fill:#e4e4e4"
     d="M 6.375,2 C 5.61325,2 5,2.6244 5,3.4 V 28.6 C 5,29.37504 5.61325,30 6.375,30 h 19.25 C 26.3862,30 27,29.37504 27,28.6 V 11 L 20,9 18,2 Z"
     id="path5268" />
  <path
     d="m 11.9053,24.811529 c -0.128,0.2298 -0.2298,0.57556 -0.2298,0.79342 0,0.0506 0,0.11491 0.013,0.20415 l -1.5992,-2.75035 c -0.051,-0.0892 -0.089,-0.21727 -0.089,-0.33262 0,-0.1155 0.038,-0.2559 0.089,-0.3453 l 0.7678,-1.3433 -0.8571,-0.48573 2.789,-0.0516 1.3558,2.44323 -0.8696,-0.49885 z m 1.2284,-8.052169 c 0.2429,-0.4226 0.6398,-0.65286 1.1255,-0.65286 0.5249,0 0.9344,0.24338 1.2284,0.74164 l 0.4351,0.729099 -1.5099,2.9104 -2.4433,-1.7202 z m 0.1786,10.265139 c -0.7291,0 -1.3302,-0.60122 -1.3302,-1.33031 0,-0.20474 0.09,-0.55048 0.2177,-0.76775 l 0.409,-0.7291 h 3.0323 v 2.82718 H 13.3123 Z M 15.7435,16.68206 C 15.5519,16.34988 15.2959,16.11903 14.9888,15.991 h 3.1468 c 0.2815,0 0.4988,0.1155 0.6272,0.33321 l 0.7803,1.330309 0.8441,-0.4993 -1.3564,2.43113 -2.7754,-0.0391 0.857,-0.48572 z m 4.849,7.540929 c 0.3833,0 0.7035,-0.10236 0.9719,-0.30666 l -1.5866,2.76286 c -0.128,0.21726 -0.3579,0.35426 -0.6263,0.3453 h -1.4974 v 0.98501 l -1.4326,-2.39204 1.4326,-2.39265 v 0.99816 h 2.7384 z m 1.2273,-2.3028 c 0.1155,0.20474 0.1797,0.422 0.1797,0.65239 0,0.46065 -0.2946,0.94682 -0.7035,1.17664 -0.1922,0.10297 -0.4617,0.18295 -0.7291,0.16713 h -0.8451 l -1.5089,-2.61036 2.4433,-1.39449 z"
     style="fill:#000000;fill-opacity:1;opacity:0.2"
     id="path7054" />
  <path
     d="m 11.9053,23.811529 c -0.128,0.2298 -0.2298,0.57556 -0.2298,0.79342 0,0.0506 0,0.11491 0.013,0.20415 l -1.5992,-2.75035 c -0.051,-0.0892 -0.089,-0.21727 -0.089,-0.33262 0,-0.1155 0.038,-0.2559 0.089,-0.3453 l 0.7678,-1.3433 -0.8571,-0.48573 2.789,-0.0516 1.3558,2.44323 -0.8696,-0.49885 z m 1.2284,-8.052169 c 0.2429,-0.4226 0.6398,-0.65286 1.1255,-0.65286 0.5249,0 0.9344,0.24338 1.2284,0.74164 l 0.4351,0.729099 -1.5099,2.9104 -2.4433,-1.7202 z m 0.1786,10.265139 c -0.7291,0 -1.3302,-0.60122 -1.3302,-1.33031 0,-0.20474 0.09,-0.55048 0.2177,-0.76775 l 0.409,-0.7291 h 3.0323 v 2.82718 H 13.3123 Z M 15.7435,15.68206 C 15.5519,15.34988 15.2959,15.11903 14.9888,14.991 h 3.1468 c 0.2815,0 0.4988,0.1155 0.6272,0.33321 l 0.7803,1.330309 0.8441,-0.4993 -1.3564,2.43113 -2.7754,-0.0391 0.857,-0.48572 z m 4.849,7.540929 c 0.3833,0 0.7035,-0.10236 0.9719,-0.30666 l -1.5866,2.76286 c -0.128,0.21726 -0.3579,0.35426 -0.6263,0.3453 h -1.4974 v 0.98501 l -1.4326,-2.39204 1.4326,-2.39265 v 0.99816 h 2.7384 z m 1.2273,-2.3028 c 0.1155,0.20474 0.1797,0.422 0.1797,0.65239 0,0.46065 -0.2946,0.94682 -0.7035,1.17664 -0.1922,0.10297 -0.4617,0.18295 -0.7291,0.16713 h -0.8451 l -1.5089,-2.61036 2.4433,-1.39449 z"
     style="fill:#6d9d19;fill-opacity:1"
     id="path6538"
     sodipodi:nodetypes="csccsccccccccsccccccsccccccccscccccccccccccccccccscccccc" />
  <path
     style="opacity:0.2"
     d="M 27,12 18,3 v 7.59375 C 18,11.373375 18.62775,12 19.40625,12 Z"
     id="path5270" />
  <path
     style="fill:#fafafa"
     d="M 27,11 18,2 V 9.59375 C 18,10.373375 18.62775,11 19.40625,11 Z"
     id="path5272" />
  <path
     style="opacity:0.2;fill:#ffffff"
     d="M 6.375,2 C 5.61325,2 5,2.6247906 5,3.4003906 v 1 C 5,3.6247906 5.61325,3 6.375,3 H 18 V 2 Z"
     id="path5274" />
</svg>
