<?xml version="1.0" encoding="UTF-8" standalone="no"?>
<svg
   width="32"
   height="32"
   version="1.1"
   id="svg5278"
   sodipodi:docname="application-vnd.ms-powerpoint.svg"
   inkscape:version="1.2.2 (1:1.2.2+202305151914+b0a8486541)"
   xmlns:inkscape="http://www.inkscape.org/namespaces/inkscape"
   xmlns:sodipodi="http://sodipodi.sourceforge.net/DTD/sodipodi-0.dtd"
   xmlns="http://www.w3.org/2000/svg"
   xmlns:svg="http://www.w3.org/2000/svg">
  <defs
     id="defs5282" />
  <sodipodi:namedview
     id="namedview5280"
     pagecolor="#ffffff"
     bordercolor="#000000"
     borderopacity="0.25"
     inkscape:showpageshadow="2"
     inkscape:pageopacity="0.0"
     inkscape:pagecheckerboard="0"
     inkscape:deskcolor="#d1d1d1"
     showgrid="false"
     inkscape:zoom="25.1875"
     inkscape:cx="16"
     inkscape:cy="16"
     inkscape:window-width="1920"
     inkscape:window-height="1008"
     inkscape:window-x="0"
     inkscape:window-y="0"
     inkscape:window-maximized="1"
     inkscape:current-layer="svg5278" />
  <path
     style="opacity:0.2"
     d="M 6.375,3 C 5.61325,3 5,3.6244 5,4.4 V 29.6 C 5,30.37504 5.61325,31 6.375,31 h 19.25 C 26.3862,31 27,30.37504 27,29.6 V 12 L 20,10 18,3 Z"
     id="path5266" />
  <path
     style="fill:#e4e4e4"
     d="M 6.375,2 C 5.61325,2 5,2.6244 5,3.4 V 28.6 C 5,29.37504 5.61325,30 6.375,30 h 19.25 C 26.3862,30 27,29.37504 27,28.6 V 11 L 20,9 18,2 Z"
     id="path5268" />
  <ellipse
     style="opacity:0.2;fill:#000000;fill-opacity:1;stroke-width:5;stroke-linecap:round;stroke-linejoin:round"
     id="path7987"
     cx="17"
     cy="21.499998"
     rx="7"
     ry="6.9999981" />
  <circle
     style="opacity:1;fill:#ff8f6b;fill-opacity:1;stroke-width:4.66666;stroke-linejoin:bevel"
     id="path31463"
     cx="17.000002"
     cy="20.999996"
     r="6.9999967" />
  <path
     id="path31465"
     style="opacity:1;fill:#d35230;fill-opacity:1;stroke-width:3.49999;stroke-linejoin:bevel"
     d="m 10.000004,20.999997 c -1e-6,3.865993 3.134005,6.999999 6.999998,6.999999 3.865993,0 6.999999,-3.134006 6.999998,-6.999999 h -6.999998 z"
     sodipodi:nodetypes="csccc" />
  <path
     id="path7584"
     style="fill:#000000;fill-opacity:1;stroke-width:3.49999;stroke-linejoin:bevel;opacity:0.2"
     d="M 10 21 C 10 21.168629 10.009758 21.334355 10.021484 21.5 L 17 21.5 L 23.978516 21.5 C 23.990242 21.334355 24 21.168629 24 21 L 17 21 L 10 21 z " />
  <path
     id="path31759"
     style="opacity:1;fill:#ed6c47;fill-opacity:1;stroke-width:3.49999;stroke-linejoin:bevel"
     d="M 16.999998,14.000001 A 6.9999964,6.9999971 0 0 0 10,20.999997 h 6.999998 z" />
  <path
     id="path7781"
     style="fill:#ffffff;fill-opacity:1;stroke-width:3.49999;stroke-linejoin:bevel;opacity:0.2"
     d="M 17 14 C 13.134011 14 9.999999 17.134011 10 21 L 10.021484 21 C 10.27859 17.368082 13.30264 14.5 17 14.5 C 20.69736 14.5 23.72141 17.368082 23.978516 21 L 24 21 C 24.000001 17.134011 20.865989 14 17 14 z " />
  <rect
     style="opacity:0.2;fill:#000000;fill-opacity:1;stroke-width:5;stroke-linecap:round;stroke-linejoin:round"
     id="rect7881"
     width="8"
     height="8"
     x="8"
     y="17.5"
     ry="0.99999964" />
  <rect
     style="fill:#c43e1c;fill-opacity:1;stroke-width:0.499997"
     id="rect2687"
     width="8"
     height="8"
     x="8"
     y="16.999998"
     ry="0.99999964" />
  <path
     id="rect4291"
     style="fill:#ffffff;fill-opacity:1;stroke-width:0.500001"
     d="m 10,18.000043 v 6 h 1.000001 v -1.999999 h 1 c 1.10457,0 2,-0.89543 2,-2 0,-1.10457 -0.89543,-2.000001 -2,-2.000001 h -1 z m 1.000001,1 h 1 c 0.552285,0 1.000001,0.447716 1,1.000001 -10e-7,0.552284 -0.447716,0.999998 -1,0.999998 h -1 z"
     sodipodi:nodetypes="ccccssscccssscc" />
  <path
     style="opacity:0.2"
     d="M 27,12 18,3 v 7.59375 C 18,11.373375 18.62775,12 19.40625,12 Z"
     id="path5270" />
  <path
     style="fill:#fafafa"
     d="M 27,11 18,2 V 9.59375 C 18,10.373375 18.62775,11 19.40625,11 Z"
     id="path5272" />
  <path
     style="opacity:0.2;fill:#ffffff"
     d="M 6.375,2 C 5.61325,2 5,2.6247906 5,3.4003906 v 1 C 5,3.6247906 5.61325,3 6.375,3 H 18 V 2 Z"
     id="path5274" />
</svg>
