<?xml version="1.0" encoding="UTF-8" standalone="no"?>
<svg
   width="32"
   height="32"
   version="1"
   id="svg6695"
   sodipodi:docname="image-x-generic.svg"
   inkscape:version="1.2.2 (1:1.2.2+202305151914+b0a8486541)"
   xmlns:inkscape="http://www.inkscape.org/namespaces/inkscape"
   xmlns:sodipodi="http://sodipodi.sourceforge.net/DTD/sodipodi-0.dtd"
   xmlns="http://www.w3.org/2000/svg"
   xmlns:svg="http://www.w3.org/2000/svg">
  <defs
     id="defs6699" />
  <sodipodi:namedview
     id="namedview6697"
     pagecolor="#ffffff"
     bordercolor="#000000"
     borderopacity="0.25"
     inkscape:showpageshadow="2"
     inkscape:pageopacity="0.0"
     inkscape:pagecheckerboard="0"
     inkscape:deskcolor="#d1d1d1"
     showgrid="false"
     inkscape:zoom="25.1875"
     inkscape:cx="15.980149"
     inkscape:cy="16"
     inkscape:window-width="1920"
     inkscape:window-height="1008"
     inkscape:window-x="0"
     inkscape:window-y="0"
     inkscape:window-maximized="1"
     inkscape:current-layer="svg6695" />
  <rect
     style="opacity:0.2;fill:#000000"
     id="rect6970"
     width="26"
     height="24"
     x="3"
     y="5"
     ry="2" />
  <rect
     style="fill:#8f3d8b;fill-opacity:1;stroke-width:1.99997"
     id="rect342"
     width="26"
     height="24"
     x="2.9996004"
     y="4"
     ry="2" />
  <path
     style="opacity:0.2"
     d="m 11,13.9994 6,8 5,-4 4,4 v 3 H 6 v -5 z"
     id="path6691" />
  <path
     fill="#fff"
     d="m11 13 6 8l5-4 4 4v3h-20v-5z"
     id="path6693" />
  <path
     id="rect6880"
     style="fill:#ffffff;opacity:0.2"
     d="M 5 4 C 3.8920011 4 3 4.8920011 3 6 L 3 7 C 3 5.8920011 3.8920011 5 5 5 L 27 5 C 28.107999 5 29 5.8920011 29 7 L 29 6 C 29 4.8920011 28.107999 4 27 4 L 5 4 z " />
</svg>
