<?xml version="1.0" encoding="UTF-8" standalone="no"?>
<svg
   width="32"
   height="32"
   version="1"
   id="svg778"
   sodipodi:docname="package-x-generic.svg"
   inkscape:version="1.2.2 (1:1.2.2+202305151914+b0a8486541)"
   xmlns:inkscape="http://www.inkscape.org/namespaces/inkscape"
   xmlns:sodipodi="http://sodipodi.sourceforge.net/DTD/sodipodi-0.dtd"
   xmlns="http://www.w3.org/2000/svg"
   xmlns:svg="http://www.w3.org/2000/svg">
  <defs
     id="defs782" />
  <sodipodi:namedview
     id="namedview780"
     pagecolor="#ffffff"
     bordercolor="#000000"
     borderopacity="0.25"
     inkscape:showpageshadow="2"
     inkscape:pageopacity="0.0"
     inkscape:pagecheckerboard="0"
     inkscape:deskcolor="#d1d1d1"
     showgrid="false"
     inkscape:zoom="25.1875"
     inkscape:cx="16"
     inkscape:cy="16"
     inkscape:window-width="1920"
     inkscape:window-height="1008"
     inkscape:window-x="0"
     inkscape:window-y="0"
     inkscape:window-maximized="1"
     inkscape:current-layer="svg778" />
  <rect
     style="opacity:0.2"
     width="28"
     height="28"
     x="2"
     y="3"
     ry="3"
     id="rect750" />
  <rect
     style="fill:#c19f5f;fill-opacity:1;stroke-width:1.74999"
     id="rect944"
     width="28"
     height="28"
     x="1.9999998"
     y="2"
     ry="3" />
  <rect
     style="opacity:0.2"
     width="6"
     height="13.3"
     x="13"
     y="2"
     id="rect754" />
  <rect
     style="fill:#ffffff"
     width="2"
     height="2"
     x="16"
     y="10"
     id="rect756" />
  <rect
     style="fill:#ffffff"
     width="2"
     height="2"
     x="14"
     y="12"
     id="rect758" />
  <path
     style="fill:#4b4b4b"
     d="m 16,12 c 2.25,0 2.25,2.8 3,2.8 v 3.5 c 0,0.3878 -0.3345,0.7 -0.75,0.7 h -4.5 C 13.3345,19 13,18.6878 13,18.3 v -3.5 c 0.75,0 0.75,-2.8 3,-2.8 z"
     id="path760" />
  <rect
     style="fill:#ffffff"
     width="2"
     height="2"
     x="16"
     y="2"
     id="rect762" />
  <path
     style="opacity:0.2"
     d="M 15.800781,16 C 14.249581,16 13,17.249581 13,18.800781 v 5.398438 C 13,25.750419 14.249581,27 15.800781,27 h 0.398438 C 17.750419,27 19,25.750419 19,24.199219 V 18.800781 C 19,17.249581 17.750419,16 16.199219,16 Z M 16,22 a 2,2 0 0 1 2,2 2,2 0 0 1 -2,2 2,2 0 0 1 -2,-2 2,2 0 0 1 2,-2 z"
     id="path764" />
  <path
     style="fill:#ffffff"
     d="M 15.800781 15 C 14.249581 15 13 16.249581 13 17.800781 L 13 23.199219 C 13 24.750419 14.249581 26 15.800781 26 L 16.199219 26 C 17.750419 26 19 24.750419 19 23.199219 L 19 17.800781 C 19 16.249581 17.750419 15 16.199219 15 L 15.800781 15 z M 16 21 A 2 2 0 0 1 18 23 A 2 2 0 0 1 16 25 A 2 2 0 0 1 14 23 A 2 2 0 0 1 16 21 z"
     id="path766" />
  <path
     style="fill:#909090"
     d="M 15.984376,13.0001 A 1,0.82954037 0 0 0 15.0001,13.840898 v 3.31783 a 1,0.82954037 0 1 0 1.9998,0 v -3.31783 A 1,0.82954037 0 0 0 15.984376,13.0001 Z"
     id="path768" />
  <rect
     style="fill:#ffffff"
     width="2"
     height="2"
     x="14"
     y="4"
     id="rect770" />
  <rect
     style="fill:#ffffff"
     width="2"
     height="2"
     x="16"
     y="6"
     id="rect772" />
  <rect
     style="fill:#ffffff"
     width="2"
     height="2"
     x="14"
     y="8"
     id="rect774" />
  <path
     id="rect914"
     style="fill:#ffffff;opacity:0.2"
     d="M 5 2 C 3.3380017 2 2 3.3380017 2 5 L 2 6 C 2 4.3380017 3.3380017 3 5 3 L 27 3 C 28.661998 3 30 4.3380017 30 6 L 30 5 C 30 3.3380017 28.661998 2 27 2 L 5 2 z " />
</svg>
