<?xml version="1.0" encoding="UTF-8" standalone="no"?>
<svg
   width="32"
   height="32"
   version="1.1"
   id="svg5278"
   sodipodi:docname="text-x-vala.svg"
   inkscape:version="1.2.2 (1:1.2.2+202305151914+b0a8486541)"
   xmlns:inkscape="http://www.inkscape.org/namespaces/inkscape"
   xmlns:sodipodi="http://sodipodi.sourceforge.net/DTD/sodipodi-0.dtd"
   xmlns="http://www.w3.org/2000/svg"
   xmlns:svg="http://www.w3.org/2000/svg">
  <defs
     id="defs5282" />
  <sodipodi:namedview
     id="namedview5280"
     pagecolor="#ffffff"
     bordercolor="#000000"
     borderopacity="0.25"
     inkscape:showpageshadow="2"
     inkscape:pageopacity="0.0"
     inkscape:pagecheckerboard="0"
     inkscape:deskcolor="#d1d1d1"
     showgrid="false"
     inkscape:zoom="25.1875"
     inkscape:cx="15.980149"
     inkscape:cy="16"
     inkscape:window-width="1920"
     inkscape:window-height="1008"
     inkscape:window-x="0"
     inkscape:window-y="0"
     inkscape:window-maximized="1"
     inkscape:current-layer="svg5278" />
  <path
     style="opacity:0.2"
     d="M 6.375,3 C 5.61325,3 5,3.6244 5,4.4 V 29.6 C 5,30.37504 5.61325,31 6.375,31 h 19.25 C 26.3862,31 27,30.37504 27,29.6 V 12 L 20,10 18,3 Z"
     id="path5266" />
  <path
     style="fill:#e4e4e4"
     d="M 6.375,2 C 5.61325,2 5,2.6244 5,3.4 V 28.6 C 5,29.37504 5.61325,30 6.375,30 h 19.25 C 26.3862,30 27,29.37504 27,28.6 V 11 L 20,9 18,2 Z"
     id="path5268" />
  <path
     d="m 13.999051,27.999588 -4.07e-4,-12.594209 c -0.868152,0.327899 -1.236803,0.644441 -1.722901,1.344094 -0.484452,0.697285 -0.548693,1.960581 -0.548693,2.999157 0,0.236801 0.01211,0.431208 0.03635,0.583222 0.02996,0.145702 0.06004,0.264102 0.09027,0.355201 0.03023,0.08506 0.05746,0.151876 0.08169,0.200443 0.02996,0.04857 0.04493,0.0911 0.04493,0.127593 -0.319429,0 -0.602641,-0.03032 -0.849635,-0.09096 -0.247253,-0.06695 -0.455305,-0.17026 -0.624143,-0.309927 C 10.343667,20.47481 10.217039,20.289595 10.126628,20.058556 10.042208,19.828067 10,19.542699 10,19.202451 c 0,-0.412961 0.114817,-1.158593 0.261835,-1.570377 0.636203,-1.781952 2.800043,-2.9294 4.475066,-3.434299 0.516877,-0.155801 1.045977,-0.1918 1.564473,-0.1918 0.195107,-0.02471 0.481196,0.03514 0.496075,0.03622 V 25.521406 L 21.102223,14.09652 h 1.292838 L 17.250681,28 h -3.252037 z"
     style="fill:#000000;fill-opacity:1;opacity:0.2"
     id="path2548" />
  <path
     d="m 13.999051,26.999588 -4.07e-4,-12.594209 c -0.868152,0.327899 -1.236803,0.644441 -1.722901,1.344094 -0.484452,0.697285 -0.548693,1.960581 -0.548693,2.999157 0,0.236801 0.01211,0.431208 0.03635,0.583222 0.02996,0.145702 0.06004,0.264102 0.09027,0.355201 0.03023,0.08506 0.05746,0.151876 0.08169,0.200443 0.02996,0.04857 0.04493,0.0911 0.04493,0.127593 -0.319429,0 -0.602641,-0.03032 -0.849635,-0.09096 -0.247253,-0.06695 -0.455305,-0.17026 -0.624143,-0.309927 C 10.343667,19.47481 10.217039,19.289595 10.126628,19.058556 10.042208,18.828067 10,18.542699 10,18.202451 c 0,-0.412961 0.114817,-1.158593 0.261835,-1.570377 0.636203,-1.781952 2.800043,-2.9294 4.475066,-3.434299 0.516877,-0.155801 1.045977,-0.1918 1.564473,-0.1918 0.195107,-0.02471 0.481196,0.03514 0.496075,0.03622 V 24.521406 L 21.102223,13.09652 h 1.292838 L 17.250681,27 h -3.252037 z"
     style="fill:#634d9f;fill-opacity:1"
     id="path1669"
     sodipodi:nodetypes="ccsscccccccssscccccccc" />
  <path
     style="opacity:0.2"
     d="M 27,12 18,3 v 7.59375 C 18,11.373375 18.62775,12 19.40625,12 Z"
     id="path5270" />
  <path
     style="fill:#fafafa"
     d="M 27,11 18,2 V 9.59375 C 18,10.373375 18.62775,11 19.40625,11 Z"
     id="path5272" />
  <path
     style="opacity:0.2;fill:#ffffff"
     d="M 6.375,2 C 5.61325,2 5,2.6247906 5,3.4003906 v 1 C 5,3.6247906 5.61325,3 6.375,3 H 18 V 2 Z"
     id="path5274" />
</svg>
