<?xml version="1.0" encoding="UTF-8" standalone="no"?>
<svg
   width="32"
   height="32"
   version="1"
   id="svg6695"
   sodipodi:docname="video-x-generic.svg"
   inkscape:version="1.2.2 (1:1.2.2+202305151914+b0a8486541)"
   xmlns:inkscape="http://www.inkscape.org/namespaces/inkscape"
   xmlns:sodipodi="http://sodipodi.sourceforge.net/DTD/sodipodi-0.dtd"
   xmlns="http://www.w3.org/2000/svg"
   xmlns:svg="http://www.w3.org/2000/svg">
  <defs
     id="defs6699" />
  <sodipodi:namedview
     id="namedview6697"
     pagecolor="#ffffff"
     bordercolor="#000000"
     borderopacity="0.25"
     inkscape:showpageshadow="2"
     inkscape:pageopacity="0.0"
     inkscape:pagecheckerboard="0"
     inkscape:deskcolor="#d1d1d1"
     showgrid="false"
     inkscape:zoom="25.1875"
     inkscape:cx="15.980149"
     inkscape:cy="16"
     inkscape:window-width="1920"
     inkscape:window-height="1008"
     inkscape:window-x="0"
     inkscape:window-y="0"
     inkscape:window-maximized="1"
     inkscape:current-layer="svg6695" />
  <rect
     style="opacity:0.2;fill:#000000"
     id="rect6970"
     width="26"
     height="24"
     x="3"
     y="5"
     ry="2" />
  <rect
     style="fill:#5c5c5c;fill-opacity:1;stroke-width:1.99997"
     id="rect342"
     width="26"
     height="24"
     x="2.9996004"
     y="4"
     ry="2" />
  <path
     d="M 11.53125,12 C 11.234464,12 11,12.2578 11,12.5625 v 9.875 C 11,22.7422 11.234464,23 11.53125,23 h 8.9375 C 20.765536,23 21,22.7422 21,22.4375 v -9.875 C 21,12.2578 20.765536,12 20.46875,12 Z m 0.1875,0.71875 h 0.71875 v 0.75 h -0.71875 z m 7.84375,0 h 0.71875 v 0.75 H 19.5625 Z M 13.5,13 h 5 c 0.277,0 0.5,0.223 0.5,0.5 v 3 c 0,0.277 -0.223,0.5 -0.5,0.5 h -5 C 13.223,17 13,16.777 13,16.5 v -3 C 13,13.223 13.223,13 13.5,13 Z m -1.78125,1.1875 h 0.71875 v 0.75 h -0.71875 z m 7.84375,0 h 0.71875 v 0.75 H 19.5625 Z m -7.84375,1.46875 h 0.71875 v 0.75 h -0.71875 z m 7.84375,0 h 0.71875 v 0.75 H 19.5625 Z M 11.71875,17.125 h 0.71875 v 0.75 h -0.71875 z m 7.84375,0 h 0.71875 v 0.75 H 19.5625 Z M 13.5,18 h 5 c 0.277,0 0.5,0.223 0.5,0.5 v 3 c 0,0.277 -0.223,0.5 -0.5,0.5 h -5 C 13.223,22 13,21.777 13,21.5 v -3 C 13,18.223 13.223,18 13.5,18 Z m -1.78125,0.59375 h 0.71875 v 0.75 h -0.71875 z m 7.84375,0 h 0.71875 v 0.75 H 19.5625 Z m -7.84375,1.46875 h 0.71875 v 0.75 h -0.71875 z m 7.84375,0 h 0.71875 v 0.75 H 19.5625 Z m -7.84375,1.46875 h 0.71875 v 0.75 h -0.71875 z m 7.84375,0 h 0.71875 v 0.75 H 19.5625 Z"
     style="color:#000000;display:inline;overflow:visible;visibility:visible;fill:#000000;fill-opacity:1;fill-rule:nonzero;stroke:none;stroke-width:1;marker:none;enable-background:accumulate;opacity:0.2"
     id="path1762" />
  <path
     d="M 11.53125,11 C 11.234464,11 11,11.2578 11,11.5625 v 9.875 C 11,21.7422 11.234464,22 11.53125,22 h 8.9375 C 20.765536,22 21,21.7422 21,21.4375 v -9.875 C 21,11.2578 20.765536,11 20.46875,11 Z m 0.1875,0.71875 h 0.71875 v 0.75 h -0.71875 z m 7.84375,0 h 0.71875 v 0.75 H 19.5625 Z M 13.5,12 h 5 c 0.277,0 0.5,0.223 0.5,0.5 v 3 c 0,0.277 -0.223,0.5 -0.5,0.5 h -5 C 13.223,16 13,15.777 13,15.5 v -3 C 13,12.223 13.223,12 13.5,12 Z m -1.78125,1.1875 h 0.71875 v 0.75 h -0.71875 z m 7.84375,0 h 0.71875 v 0.75 H 19.5625 Z m -7.84375,1.46875 h 0.71875 v 0.75 h -0.71875 z m 7.84375,0 h 0.71875 v 0.75 H 19.5625 Z M 11.71875,16.125 h 0.71875 v 0.75 h -0.71875 z m 7.84375,0 h 0.71875 v 0.75 H 19.5625 Z M 13.5,17 h 5 c 0.277,0 0.5,0.223 0.5,0.5 v 3 c 0,0.277 -0.223,0.5 -0.5,0.5 h -5 C 13.223,21 13,20.777 13,20.5 v -3 C 13,17.223 13.223,17 13.5,17 Z m -1.78125,0.59375 h 0.71875 v 0.75 h -0.71875 z m 7.84375,0 h 0.71875 v 0.75 H 19.5625 Z m -7.84375,1.46875 h 0.71875 v 0.75 h -0.71875 z m 7.84375,0 h 0.71875 v 0.75 H 19.5625 Z m -7.84375,1.46875 h 0.71875 v 0.75 h -0.71875 z m 7.84375,0 h 0.71875 v 0.75 H 19.5625 Z"
     style="color:#000000;display:inline;overflow:visible;visibility:visible;fill:#ffffff;fill-opacity:1;fill-rule:nonzero;stroke:none;stroke-width:1;marker:none;enable-background:accumulate"
     id="path305"
     sodipodi:nodetypes="sssssssssccccccccccsssssssssccccccccccccccccccccccccccccccssssssssscccccccccccccccccccccccccccccc" />
  <path
     id="rect6880"
     style="fill:#ffffff;opacity:0.2"
     d="M 5 4 C 3.8920011 4 3 4.8920011 3 6 L 3 7 C 3 5.8920011 3.8920011 5 5 5 L 27 5 C 28.107999 5 29 5.8920011 29 7 L 29 6 C 29 4.8920011 28.107999 4 27 4 L 5 4 z " />
</svg>
